<svg id="Calque_1" data-name="Calque 1" xmlns="http://www.w3.org/2000/svg" viewBox="0 0 449.44 134.02"><defs><style>.cls-1{fill:#1d1d1b;}.cls-2{fill:#00abc8;}</style></defs><path class="cls-1" d="M61.08,94.62l-4.54-9.14H33.27l-4.42,9.14H17.13L38.74,52.57H51.69L73.3,94.62ZM45,61.72h-.25L37,77.49H52.73Z" transform="translate(-16.87 -10.25)"/><path class="cls-1" d="M119.83,91.8c-4.61,2.7-9.82,2.82-20.08,2.82H81V52.57H99.88c8.53,0,13.63.12,18.05,2.7,3.07,1.84,4.42,4.6,4.42,8.35,0,4.42-1.84,7.24-6.57,9.33v.25c5.4,1.29,8.84,4,8.84,9.94C124.62,87.26,123,90,119.83,91.8ZM101.1,60.24H91.83V70h9.34c7.49,0,10.31-.92,10.31-5C111.48,60.8,107.92,60.24,101.1,60.24Zm2.15,17.13H91.83v9.52h11.55c7.55,0,10.25-.8,10.25-4.79C113.63,77.92,110.07,77.37,103.25,77.37Z" transform="translate(-16.87 -10.25)"/><path class="cls-1" d="M136,94.62V52.57h10.87V94.62Z" transform="translate(-16.87 -10.25)"/><path class="cls-1" d="M160.58,94.62V52.57h10.87V85.84h26.77v8.78Z" transform="translate(-16.87 -10.25)"/><path class="cls-1" d="M245.42,94.62l-11.11-29h-.24l-10.75,29H211.17L195.08,52.57h11.85l10.5,30.57h.31l10.74-30.57H240.7l10.86,30.57h.31l10.32-30.57h11.54L257.58,94.62Z" transform="translate(-16.87 -10.25)"/><path class="cls-1" d="M313.5,94.62,309,85.48H285.69l-4.42,9.14H269.54l21.61-42.05h13l21.61,42.05Zm-16.08-32.9h-.25l-7.74,15.77h15.72Z" transform="translate(-16.87 -10.25)"/><path class="cls-1" d="M341.37,94.62V76.94L318.53,52.57h14.06l14.06,15.35H347l13.87-15.35H374.7L352.24,76.39V94.62Z" transform="translate(-16.87 -10.25)"/><path class="cls-1" d="M408.59,93.15c-3.75,1.84-9.15,2.33-13.88,2.33-5.71,0-11.23-.3-17.37-.67v-9c5,.56,11.48,1,16,1a49.86,49.86,0,0,0,8.72-.62c2.21-.49,2.7-1.65,2.7-3.43S404,80,401.9,79.34c-2.4-.62-6-1.11-9.15-1.66C381.94,75.9,377.21,73,377.21,65c0-4.91,1.79-8.9,6.63-11.23,3.69-1.78,8.72-2.09,13.14-2.09,5.1,0,10.2.31,15.66.67V61.1a154.08,154.08,0,0,0-15.84-1,37.63,37.63,0,0,0-6.63.49c-2,.49-2.64,1.54-2.64,3.19s.73,2.77,2.76,3.26c2.33.61,5.71,1,8.72,1.53,10.81,1.66,16.27,4.48,16.27,13C415.28,86.7,413.44,90.76,408.59,93.15Z" transform="translate(-16.87 -10.25)"/><path class="cls-1" d="M466.31,37.92V13.85a3.6,3.6,0,0,0-3.6-3.6h-23.2A45,45,0,0,1,466.31,37.92Z" transform="translate(-16.87 -10.25)"/><path class="cls-2" d="M427.35,10.25h-1a3.57,3.57,0,0,0-3.57,3.6V52.46h38.6a3.58,3.58,0,0,0,3.53-2.92A41.7,41.7,0,0,0,427.35,10.25Zm22.8,40.89a44.78,44.78,0,0,0-26.69-27.53h23.1a3.6,3.6,0,0,1,3.59,3.59Z" transform="translate(-16.87 -10.25)"/><path class="cls-2" d="M16.87,115.32h5.25c4,0,5.53,1.77,5.53,5.46v3.65c0,2.25-.86,4.1-2.7,5,2.09.73,2.78,2.17,2.78,4.38v4.84c0,3.49-1.59,5.41-5.57,5.41H16.87Zm4.22,3.61v9h.78c1.27,0,1.6-1.19,1.6-2.7v-3.9c0-1.52-.33-2.38-1.6-2.38Zm2.42,14.52c0-1.56-.33-2.3-1.6-2.3h-.82v9.39h.82c1.27,0,1.6-.86,1.6-2.42Z" transform="translate(-16.87 -10.25)"/><path class="cls-2" d="M35.52,115.32H45V119H39.79v8.74h5v3.52h-5v9.15H45V144H35.52Z" transform="translate(-16.87 -10.25)"/><path class="cls-2" d="M52.09,115.32h4.26v25.06h4.92V144H52.09Z" transform="translate(-16.87 -10.25)"/><path class="cls-2" d="M73.57,131.48H72.18V128h5.61v10.62c0,3.32-1.8,5.7-5.41,5.7-3.28,0-5.45-2.21-5.45-5.9V121c0-3.65,2.17-5.9,5.45-5.9,3.61,0,5.41,2.38,5.41,5.7v4.71H73.57v-4.92c0-1.23-.33-1.88-1.19-1.88s-1.23.53-1.23,2v17.87c0,1.56.45,2.09,1.23,2.09s1.19-.69,1.19-1.92Z" transform="translate(-16.87 -10.25)"/><path class="cls-2" d="M85.75,115.32h4.3V144h-4.3Z" transform="translate(-16.87 -10.25)"/><path class="cls-2" d="M98.33,138.49V115.32h4.27v23.37c0,1.4.41,2,1.23,2s1.23-.61,1.23-2V115.32h4.26v23.17c0,3.48-2.13,5.78-5.49,5.78S98.33,142,98.33,138.49Z" transform="translate(-16.87 -10.25)"/><path class="cls-2" d="M117.28,115.32h5l2.46,13.49.61,3.9.66-3.9,2.42-13.49h5V144h-4.18V126.89l-.45,4.83-1.8,12.3h-3.37l-1.8-12.3-.45-5,0,5V144h-4.22Z" transform="translate(-16.87 -10.25)"/></svg>