<svg width="130" height="32" viewBox="0 0 130 32" fill="none" xmlns="http://www.w3.org/2000/svg">
<path d="M46.2606 0C44.88 0 43.9467 0.982105 43.9467 2.44202V11.2545C42.7678 10.1665 41.0189 9.2595 38.854 9.2595C32.5994 9.2595 29.3321 14.9736 29.3321 20.6174C29.3321 26.2613 32.5994 31.9711 38.854 31.9711C41.1219 31.9711 42.8536 31.319 44.0368 30.0598C44.2427 31.2094 45.0626 31.9711 46.2612 31.9711C47.6485 31.9711 48.5799 30.989 48.5799 29.5247V2.44202C48.5799 0.982105 47.6485 0 46.2612 0M39.1346 27.792C35.3152 27.792 33.961 23.9295 33.961 20.618C33.961 17.3066 35.3152 13.4373 39.1346 13.4373C42.954 13.4373 44.304 17.3041 44.304 20.618C44.304 23.932 42.9516 27.792 39.1346 27.792ZM102.001 13.4367C103.222 13.4367 103.868 13.7427 104.489 14.0487C104.99 14.2932 105.512 14.5444 106.22 14.5444C107.414 14.5444 108.214 13.4853 108.214 12.4964C108.214 10.563 105.715 9.2595 102.001 9.2595C95.069 9.2595 91.9641 14.9649 91.9641 20.6174C91.9641 26.2699 95.0696 31.9711 102.001 31.9711C105.998 31.9711 108.095 30.3043 108.095 28.6547C108.095 27.4306 107.321 26.6092 106.173 26.6092C105.586 26.6092 105.141 26.845 104.663 27.0956C104.03 27.4214 103.324 27.7914 102.001 27.7914C97.7315 27.7914 96.5942 23.2793 96.5942 20.6174C96.5942 17.9556 97.7315 13.4367 102.001 13.4367H102.001ZM19.2165 4.4832C18.8636 3.5559 18.2171 1.87185 16.2145 1.87185C14.212 1.87185 13.6005 3.47277 13.2254 4.43271C13.2126 4.45919 9.90974 13.3572 7.3171 20.336H2.3512C0.615835 20.336 0 21.4351 0 22.3797C0 23.3242 0.617673 24.4141 2.3512 24.4141H5.81152C4.89543 26.8672 4.27531 28.534 4.27531 28.534C4.12395 28.9108 3.95115 29.5229 3.95115 30.0229C3.95115 31.005 4.68096 32 6.0744 32C7.53831 32 8.01382 31.0358 8.36249 30.335L8.43909 30.1786L10.2909 25.1203C10.2909 25.1203 10.3981 24.8075 10.5409 24.4135H16.263C18.0008 24.4135 18.6209 23.3612 18.6209 22.3791C18.6209 21.397 18.0032 20.3354 16.263 20.3354H12.0293C13.1335 17.3078 15.1189 11.8838 16.217 8.88513C17.3892 12.0913 21.1982 22.5158 21.2025 22.5201C21.2025 22.5268 22.1339 25.1099 22.1339 25.1099C22.1339 25.121 23.9679 30.1349 23.9679 30.1349C24.2069 30.747 24.6843 32 26.3498 32C27.7481 32 28.4798 31.005 28.4798 30.0229C28.4798 29.5229 28.3021 28.9151 28.136 28.51C28.147 28.534 19.2171 4.48382 19.2171 4.48382L19.2165 4.4832ZM83.6218 13.4367C84.8425 13.4367 85.4865 13.7427 86.1048 14.0487C86.6109 14.2932 87.1306 14.5444 87.8402 14.5444C89.032 14.5444 89.8323 13.4853 89.8323 12.4964C89.8323 10.563 87.3383 9.2595 83.6218 9.2595C76.6902 9.2595 73.5896 14.9649 73.5896 20.6174C73.5896 26.2699 76.6902 31.9711 83.6218 31.9711C87.6275 31.9711 89.7226 30.3043 89.7226 28.6547C89.7226 27.4306 88.9511 26.6092 87.7985 26.6092C87.2158 26.6092 86.7641 26.845 86.2911 27.0956C85.6599 27.4214 84.9454 27.7914 83.6243 27.7914C79.36 27.7914 78.2227 23.2793 78.2227 20.6174C78.2203 17.9488 79.3576 13.4367 83.6225 13.4367H83.6218ZM120.144 9.2595C113.705 9.2595 110.337 14.9736 110.337 20.6174C110.337 26.2613 113.705 31.9711 120.144 31.9711C126.582 31.9711 129.939 26.2588 129.939 20.6174C129.939 14.976 126.575 9.2595 120.144 9.2595ZM120.144 27.792C116.324 27.792 114.972 23.9295 114.972 20.618C114.972 17.3066 116.324 13.4373 120.144 13.4373C123.963 13.4373 125.317 17.3041 125.317 20.618C125.317 23.932 123.961 27.792 120.144 27.792ZM71.1722 20.1027C71.1722 14.7741 67.5783 9.26011 61.5608 9.26011C55.0042 9.26011 51.5678 14.9742 51.5678 20.618C51.5678 25.8586 54.237 31.9717 61.76 31.9717C65.8686 31.9717 70.7359 29.316 70.7359 27.0741C70.7359 25.6911 69.7824 24.9449 68.8927 24.9449C68.2437 24.9449 67.7051 25.3679 67.0782 25.8586C66.0371 26.6757 64.6106 27.792 61.8011 27.792C58.6392 27.792 56.4846 25.7022 56.2395 22.5422H68.6561C70.3743 22.5422 71.1722 21.767 71.1722 20.1027ZM56.2353 18.7702C56.424 16.9384 57.3223 13.2784 61.5474 13.4367C64.9268 13.4367 66.3006 16.4378 66.4979 18.7702H56.2359H56.2353Z" fill="white"/>
</svg>
