<svg id="Layer_1" xmlns="http://www.w3.org/2000/svg" viewBox="0 0 602.4 219.8"><style>.st0{fill:#214B7D;} .st1{fill:#F2852B;}</style><path class="st0" d="M249.8 171.2h-5.4l-2.2-6.8h-9.9l-2 6.8H225l9.6-30.1h5.3l9.9 30.1zm-9.1-11.8l-3.4-11.2-3.3 11.2h6.7zM252 171.2v-30.1h4.7v30.1H252zM261.5 171.2v-30.1h4.7v30.1h-4.7zM270.8 172.7l5.4.8c.1.8.3 1.4.7 1.7.4.3 1.1.5 2 .5 1 0 1.9-.2 2.5-.5.5-.2.8-.7 1-1.2s.4-1.6.4-3v-3.2c-.7 1.2-1.5 2.1-2.4 2.6s-1.9.9-3 .9c-2 0-3.7-.9-5-2.7-1.6-2.1-2.3-4.8-2.3-8.3 0-3.7.7-6.5 2.2-8.4 1.5-1.9 3.3-2.8 5.3-2.8 1.1 0 2.1.3 3 .9.9.6 1.7 1.5 2.4 2.7v-3.1h4.4V169c0 3.1-.3 5.4-.9 6.8s-1.5 2.5-2.7 3.2c-1.2.7-2.9 1.1-5 1.1-2 0-3.5-.3-4.7-.8s-2.1-1.3-2.7-2.3c-.6-1-.9-2.2-.9-3.6v-.7zm4.3-12.8c0 2.3.4 4 1.1 5.1.7 1.1 1.6 1.6 2.7 1.6s2.1-.5 2.9-1.6c.8-1.1 1.2-2.7 1.2-4.9 0-2.3-.4-4-1.2-5s-1.7-1.6-2.9-1.6c-1.1 0-2.1.5-2.8 1.6s-1 2.6-1 4.8zM302.9 164.3l4.7 1c-.6 2.2-1.6 3.8-2.9 4.9s-2.9 1.6-4.8 1.6c-2.6 0-4.7-.9-6.1-2.7-1.7-2.1-2.5-4.9-2.5-8.6 0-3.6.9-6.6 2.6-8.8 1.4-1.8 3.3-2.8 5.6-2.8 2.6 0 4.6.9 6 2.8 1.7 2.2 2.5 5.4 2.5 9.6v.7h-12c0 1.7.4 3.1 1.2 4 .7.9 1.6 1.4 2.7 1.4 1.5.1 2.5-1 3-3.1zm.3-5.8c0-1.7-.4-3-1.1-3.8-.7-.9-1.5-1.3-2.4-1.3-1 0-1.8.4-2.5 1.3s-1 2.2-1 3.8h7zM311.5 149.5h4.3v3c.8-1.2 1.6-2 2.6-2.6s1.9-.9 3-.9 2.1.3 3 .9c.8.6 1.5 1.4 2.1 2.6.8-1.2 1.6-2 2.6-2.6.9-.6 1.9-.9 2.9-.9 1.2 0 2.3.3 3.1.9.9.6 1.6 1.4 2 2.5s.7 2.7.7 5v13.9H333v-12.5c0-2.2-.2-3.6-.6-4.3s-1-1.1-1.9-1.1c-1.1 0-1.9.5-2.5 1.5-.6 1-1 3-1 5.9v10.5h-4.7v-11.9c0-2.4-.1-3.9-.4-4.6-.3-.9-1-1.4-2.1-1.4-.7 0-1.3.2-1.9.7s-1 1.1-1.3 2-.4 2.4-.4 4.5v10.6h-4.7v-21.7zM353 164.3l4.7 1c-.6 2.2-1.6 3.8-2.9 4.9s-2.9 1.6-4.8 1.6c-2.6 0-4.7-.9-6.1-2.7-1.7-2.1-2.5-4.9-2.5-8.6 0-3.6.9-6.6 2.6-8.8 1.4-1.8 3.3-2.8 5.6-2.8 2.6 0 4.6.9 6 2.8 1.7 2.2 2.5 5.4 2.5 9.6v.7h-11.8c0 1.7.4 3.1 1.2 4 .7.9 1.6 1.4 2.7 1.4 1.3.1 2.3-1 2.8-3.1zm.3-5.8c0-1.7-.4-3-1.1-3.8-.7-.9-1.5-1.3-2.4-1.3-1 0-1.8.4-2.5 1.3s-1 2.2-1 3.8h7zM362 146.5v-5.3h4.7v5.3H362zm0 24.7v-21.8h4.7v21.8H362zM388 171.2h-4.7v-11.1c0-2.2-.1-3.7-.3-4.5s-.5-1.3-1-1.7c-.5-.4-1-.6-1.7-.6-.8 0-1.5.3-2.2.8-.6.5-1.1 1.2-1.4 2.1s-.4 2.6-.4 5.1v9.9h-4.7v-21.8h4.4v3.2c.8-1.2 1.7-2.2 2.6-2.8 1-.6 2.1-.9 3.3-.9 1.4 0 2.5.4 3.5 1.1 1 .7 1.6 1.6 2 2.8s.5 2.8.5 4.9v13.5zM403.3 164.3l4.7 1c-.6 2.2-1.6 3.8-2.9 4.9s-2.9 1.6-4.8 1.6c-2.6 0-4.7-.9-6.1-2.7-1.7-2.1-2.5-4.9-2.5-8.6 0-3.6.9-6.6 2.6-8.8 1.4-1.8 3.3-2.8 5.6-2.8 2.6 0 4.6.9 6 2.8 1.7 2.2 2.5 5.4 2.5 9.6v.7h-11.8c0 1.7.4 3.1 1.2 4 .7.9 1.6 1.4 2.7 1.4 1.3.1 2.3-1 2.8-3.1zm.3-5.8c0-1.7-.4-3-1.1-3.8-.7-.9-1.5-1.3-2.4-1.3-1 0-1.8.4-2.5 1.3s-1 2.2-1 3.8h7zM416.8 171.2h-4.7v-21.8h4.4v3.1c.8-1.4 1.4-2.4 2-2.9.6-.5 1.3-.7 2.1-.7 1.1 0 2.1.4 3.1 1.1l-1.5 5c-.8-.6-1.5-.9-2.2-.9-.7 0-1.2.2-1.7.7-.5.5-.9 1.4-1.1 2.6-.2 1.3-.3 3.6-.3 7v6.8zM436 141.2h9.1c2.3 0 4 .3 5.2.8 1.2.5 2.2 1.4 3.2 2.6s1.8 2.8 2.3 4.7c.6 1.9.8 4.4.8 7.2 0 2.6-.3 4.9-.9 6.8-.6 1.9-1.3 3.4-2.2 4.6s-2 2-3.3 2.5c-1.3.6-2.9.9-4.9.9H436v-30.1zm4.9 5.1v19.9h3.7c1.6 0 2.8-.2 3.5-.5.7-.3 1.3-.8 1.8-1.4.5-.6.8-1.6 1.1-2.9s.5-3 .5-5.2-.2-4-.5-5.3c-.3-1.3-.8-2.3-1.4-3-.7-.7-1.4-1.2-2.4-1.5-.7-.2-2-.3-4-.3h-2.3zM470.4 164.3l4.7 1c-.6 2.2-1.6 3.8-2.9 4.9s-2.9 1.6-4.8 1.6c-2.6 0-4.7-.9-6.1-2.7-1.7-2.1-2.5-4.9-2.5-8.6 0-3.6.9-6.6 2.6-8.8 1.4-1.8 3.3-2.8 5.6-2.8 2.6 0 4.6.9 6 2.8 1.7 2.2 2.5 5.4 2.5 9.6v.7h-11.8c0 1.7.4 3.1 1.2 4 .7.9 1.6 1.4 2.7 1.4 1.3.1 2.3-1 2.8-3.1zm.2-5.8c0-1.7-.4-3-1.1-3.8-.7-.9-1.5-1.3-2.4-1.3-1 0-1.8.4-2.5 1.3s-1 2.2-1 3.8h7zM490.9 171.2V168c-.7 1.2-1.5 2.1-2.6 2.8s-2.2 1-3.3 1c-1.2 0-2.2-.3-3.2-.9-.9-.6-1.6-1.5-2.1-2.6s-.7-2.8-.7-4.9v-13.8h4.7v10c0 2.9.1 4.7.2 5.4.1.8.5 1.4 1 1.8.5.4 1.1.6 1.8.6.8 0 1.5-.3 2.2-.8.7-.6 1.1-1.3 1.3-2.1.2-.9.3-2.8.3-5.7v-9.2h4.7v21.8h-4.3zM508.5 149.5v4.6h-3.2v8.8c0 1.9 0 3 .1 3.3.2.5.6.8 1.2.8.4 0 1.1-.2 1.9-.6l.4 4.5c-1.1.6-2.3.9-3.7.9-1.2 0-2.2-.3-2.9-.9s-1.2-1.4-1.5-2.5c-.2-.8-.3-2.4-.3-4.8v-9.5h-2.2v-4.6h2.2v-4.3l4.7-3.4v7.7h3.3zM510.2 165.1l4.7-.9c.4 2.3 1.7 3.4 3.8 3.4 1.1 0 2-.2 2.5-.7.6-.4.8-1 .8-1.7 0-.5-.1-.9-.4-1.1-.3-.3-.8-.5-1.5-.7-3.9-1-6.3-2-7.4-2.9-1.3-1.2-2-2.8-2-4.8s.6-3.7 1.9-4.9 3.2-1.8 5.6-1.8c2.3 0 4.1.5 5.3 1.4s2.1 2.4 2.6 4.4l-4.5 1c-.4-1.8-1.5-2.6-3.4-2.6-1.2 0-2 .2-2.5.5s-.7.8-.7 1.3.2.9.7 1.2c.5.3 1.9.8 4.2 1.5 2.6.7 4.4 1.6 5.4 2.7.9 1.1 1.4 2.5 1.4 4.2 0 2.1-.7 3.8-2.2 5.2s-3.4 2.1-6 2.1c-2.3 0-4.2-.6-5.7-1.7s-2.1-3-2.6-5.1zM546.6 155.9l-4.7 1c-.3-2.3-1.4-3.4-3.2-3.4-1.2 0-2.1.5-2.8 1.5s-1.1 2.7-1.1 5c0 2.6.4 4.4 1.1 5.5s1.7 1.6 2.9 1.6c.9 0 1.6-.3 2.2-.9.6-.6 1-1.7 1.2-3.2l4.7 1c-1 5.3-3.7 7.9-8.3 7.9-2.9 0-5.1-1.1-6.5-3.3s-2.1-4.9-2.1-8c0-3.7.8-6.6 2.4-8.5s3.7-2.9 6.3-2.9c2.1 0 3.8.6 5.1 1.7 1.3.8 2.3 2.6 2.8 5zM555 141.2v11c.8-1.1 1.6-1.9 2.5-2.5.9-.5 1.9-.8 3-.8 1.4 0 2.6.4 3.6 1.1 1 .8 1.6 1.8 2.1 3.2.3 1 .5 2.7.5 5.2v12.8H562v-11.5c0-2.7-.2-4.3-.5-5-.5-.9-1.3-1.4-2.4-1.4-1.2 0-2.2.5-2.8 1.5-.7 1-1 2.8-1 5.5v10.9h-4.7v-30.1h4.4zM581.8 164.3l4.7 1c-.6 2.2-1.6 3.8-2.9 4.9s-2.9 1.6-4.8 1.6c-2.6 0-4.7-.9-6.1-2.7-1.7-2.1-2.5-4.9-2.5-8.6 0-3.6.9-6.6 2.6-8.8 1.4-1.8 3.3-2.8 5.6-2.8 2.6 0 4.6.9 6 2.8 1.7 2.2 2.5 5.4 2.5 9.6v.7h-11.8c0 1.7.4 3.1 1.2 4 .7.9 1.6 1.4 2.7 1.4 1.2.1 2.2-1 2.8-3.1zm.2-5.8c0-1.7-.4-3-1.1-3.8-.7-.9-1.5-1.3-2.4-1.3-1 0-1.8.4-2.5 1.3s-1 2.2-1 3.8h7z"/><g><path class="st0" d="M595.6 171.2h-4.7v-21.8h4.4v3.1c.8-1.4 1.4-2.4 2-2.9.6-.5 1.3-.7 2.1-.7 1.1 0 2.1.4 3.1 1.1l-1.5 5c-.8-.6-1.5-.9-2.2-.9-.7 0-1.2.2-1.7.7-.5.5-.9 1.4-1.1 2.6-.2 1.3-.3 3.6-.3 7v6.8z"/></g><g><path class="st0" d="M227.6 219.3v-30.1h16.9v5.1h-11.9v7.1h10.3v5.1h-10.3v12.8h-5zM249.7 204.1l-4.3-.9c.5-2.2 1.4-3.8 2.6-4.7 1.2-1 2.9-1.4 5.2-1.4 2 0 3.5.3 4.6.8s1.8 1.3 2.3 2.3c.5 1 .7 2.7.7 5.3v6.7c0 1.9.1 3.3.2 4.2s.4 1.9.8 2.9H257l-.6-2.4c-.8 1-1.7 1.7-2.6 2.2-.9.5-1.9.7-2.9.7-1.7 0-3.2-.6-4.3-1.8-1.1-1.2-1.7-2.7-1.7-4.7 0-1.2.2-2.3.7-3.2.5-.9 1.1-1.6 1.9-2.2s2.1-1 3.9-1.5c2.2-.5 3.7-1 4.6-1.4 0-1.2-.1-2-.3-2.4s-.5-.7-.9-.9c-.5-.2-1.1-.4-1.9-.4-.8 0-1.5.2-2 .6s-.9 1.1-1.2 2.2zm6.3 4.7c-.6.2-1.5.5-2.8.9-1.5.4-2.4.8-2.9 1.3s-.7 1.1-.7 1.8c0 .8.2 1.5.7 2.1s1.1.9 1.9.9c.7 0 1.3-.2 2-.7.7-.5 1.1-1 1.4-1.6s.4-1.8.4-3.4v-1.3z"/></g><g><path class="st0" d="M270 189.2v11c.8-1.1 1.6-1.9 2.5-2.5.9-.5 1.9-.8 3-.8 1.4 0 2.6.4 3.6 1.1 1 .8 1.6 1.8 2.1 3.2.3 1 .5 2.7.5 5.2v12.8H277v-11.5c0-2.7-.2-4.3-.5-5-.5-.9-1.3-1.4-2.4-1.4-1.2 0-2.2.5-2.8 1.5-.7 1-1 2.8-1 5.5v10.9h-4.7v-30.1h4.4zM290.9 219.3h-4.7v-21.8h4.4v3.1c.8-1.4 1.4-2.4 2-2.9s1.3-.7 2.1-.7c1.1 0 2.1.4 3.1 1.1l-1.5 5c-.8-.6-1.5-.9-2.2-.9-.7 0-1.2.2-1.7.7-.5.5-.9 1.4-1.1 2.6-.2 1.3-.3 3.6-.3 7v6.8z"/></g><g><path class="st0" d="M304.8 219.3H300v-21.8h4.4v3.1c.8-1.4 1.4-2.4 2-2.9.6-.5 1.3-.7 2.1-.7 1.1 0 2.1.4 3.1 1.1l-1.5 5c-.8-.6-1.5-.9-2.2-.9-.7 0-1.2.2-1.7.7-.5.5-.9 1.4-1.1 2.6-.2 1.3-.3 3.6-.3 7v6.8zM317.2 204.1l-4.3-.9c.5-2.2 1.4-3.8 2.6-4.7 1.2-1 2.9-1.4 5.2-1.4 2 0 3.5.3 4.6.8s1.8 1.3 2.3 2.3c.5 1 .7 2.7.7 5.3v6.7c0 1.9.1 3.3.2 4.2s.4 1.9.8 2.9h-4.7l-.6-2.4c-.8 1-1.7 1.7-2.6 2.2-.9.5-1.9.7-2.9.7-1.7 0-3.2-.6-4.3-1.8-1.1-1.2-1.7-2.7-1.7-4.7 0-1.2.2-2.3.7-3.2.5-.9 1.1-1.6 1.9-2.2s2.1-1 3.9-1.5c2.2-.5 3.7-1 4.6-1.4 0-1.2-.1-2-.3-2.4s-.5-.7-.9-.9c-.5-.2-1.1-.4-1.9-.4-.8 0-1.5.2-2 .6s-1 1.1-1.3 2.2zm6.3 4.7c-.6.2-1.5.5-2.8.9-1.5.4-2.4.8-2.9 1.3s-.7 1.1-.7 1.8c0 .8.2 1.5.7 2.1.5.6 1.1.9 1.9.9.7 0 1.3-.2 2-.7.7-.5 1.1-1 1.4-1.6s.4-1.8.4-3.4v-1.3z"/></g><g><path class="st0" d="M349.3 219.3h-4.4v-3.2c-.7 1.2-1.6 2.2-2.6 2.8-1 .6-2 .9-3 .9-2 0-3.7-1-5.2-3s-2.2-4.8-2.2-8.5.7-6.5 2.2-8.4c1.4-1.9 3.2-2.8 5.3-2.8 1 0 1.9.3 2.8.8.9.5 1.7 1.3 2.4 2.3v-10.8h4.7v29.9zm-12.6-11.4c0 2 .2 3.4.5 4.4s.8 1.7 1.4 2.2c.6.5 1.3.7 2.1.7 1 0 1.9-.6 2.7-1.7s1.1-2.8 1.1-5.1c0-2.5-.4-4.3-1.1-5.4-.7-1.1-1.7-1.7-2.8-1.7-1.1 0-2 .5-2.8 1.6s-1.1 2.8-1.1 5zM353.4 211.2v-5.8h9.3v5.8h-9.3z"/></g><g><path class="st0" d="M383.3 208.2l4.8 1.9c-.8 3.4-2 5.8-3.8 7.4s-3.9 2.3-6.5 2.3c-3.2 0-5.8-1.2-7.8-3.7-2.3-2.9-3.4-6.7-3.4-11.6 0-5.1 1.2-9.1 3.5-12 2-2.5 4.7-3.8 8.1-3.8 2.8 0 5.1.9 6.9 2.8 1.3 1.3 2.3 3.3 2.9 6l-4.9 1.4c-.3-1.6-.9-2.9-1.9-3.7s-2-1.3-3.3-1.3c-1.8 0-3.3.8-4.5 2.4s-1.7 4.2-1.7 7.9c0 3.8.6 6.5 1.7 8.1s2.6 2.4 4.4 2.4c1.3 0 2.4-.5 3.4-1.5s1.7-2.8 2.1-5zM391.9 219.3v-30.1h4.7v30.1h-4.7z"/></g><g><path class="st0" d="M413.1 219.3V216c-.7 1.2-1.5 2.1-2.6 2.8s-2.2 1-3.3 1c-1.2 0-2.2-.3-3.2-.9-.9-.6-1.6-1.5-2.1-2.6s-.7-2.8-.7-4.9v-13.8h4.7v10c0 2.9.1 4.7.2 5.4.1.8.5 1.4 1 1.8.5.4 1.1.6 1.8.6.8 0 1.5-.3 2.2-.8.7-.6 1.1-1.3 1.3-2.1.2-.9.3-2.8.3-5.7v-9.2h4.7v21.8h-4.3zM422.2 219.3v-30.1h4.7V200c.7-1 1.5-1.8 2.4-2.3.9-.5 1.8-.8 2.8-.8 2.1 0 3.9 1 5.3 2.9 1.5 1.9 2.2 4.7 2.2 8.4s-.7 6.5-2.2 8.5c-1.5 2-3.2 3-5.2 3-1 0-2-.3-3-1-1-.6-1.8-1.6-2.5-2.8v3.2h-4.5zm4.7-11.4c0 1.9.2 3.3.5 4.3s.9 1.7 1.5 2.3c.7.5 1.3.8 2.1.8 1 0 1.9-.5 2.7-1.6.7-1.1 1.1-2.8 1.1-5.2 0-2.5-.4-4.3-1.1-5.4-.7-1.1-1.7-1.7-2.8-1.7-1.1 0-2 .5-2.8 1.6s-1.2 2.7-1.2 4.9z"/></g><path class="st0" d="M225.5 40.8v16.6h35.2c13.4 0 19.1 2.7 19.1 12.9v2H252c-22.3 0-31.9 7-31.9 25.5 0 14.7 8.8 23.1 24.8 23.1h56.8V70.7c0-19.7-11.1-29.9-33-29.9h-43.2zm28.1 63.9c-7.7 0-11.5-.9-11.5-7.6 0-7.1 4.1-9 13.1-9H280v16.6h-26.4zm137.7 16.1v-109h-21.1v29h-18.1c-14.4 0-24.1 2.7-31.7 12.3-5.8 7.3-8.7 16.1-8.7 26.7 0 25.5 14.1 41 39 41h40.6zm-21.1-17.1h-14.4c-15.6 0-21.9-5.6-21.9-22.3 0-17.3 7.1-23.2 23.5-23.2h12.8v45.5zm46.1-47v64.1h21.9V56.7h20V40.8h-20v-6.4c0-5.5 3.3-7.1 10-7.1h10V11.8h-20c-17.2 0-21.9 4.6-21.9 20.8v8.2h-15.2v15.9h15.2zm94.7 47c-7.1 0-12.5 0-16.7-2.6-6.5-3.9-9.4-10.3-9.4-19.9 0-18.5 8-23.1 26.1-23.1h22.5V40.8h-28.7c-13.2 0-22.6 2.4-30.1 9.6-7.4 7.1-11.8 18.2-11.8 30.8 0 12 4.6 22.9 11.8 30.1 7.4 7.3 16.9 9.6 30.1 9.6h28.7v-17.2H511"/><path class="st1" d="M106.3 181.9c-2.5.2-5 .4-7.6.4-45.1 0-81.7-36.7-81.7-81.7 0-45.1 36.7-81.7 81.7-81.7 22.1 0 42.1 8.8 56.9 23.1-16-20-40.6-32.8-68.1-32.8C39.2 9.2 0 48.4 0 96.6S39.2 184 87.4 184c6.5 0 12.8-.8 18.9-2.1"/><path class="st0" d="M98.1 0c-7 0-13.9.7-20.5 2.1 3.4-.4 6.8-.6 10.2-.6 52.3 0 94.8 42.5 94.8 94.8s-42.5 94.8-94.8 94.8c-26.1 0-49.8-10.6-66.9-27.7C39.3 185.8 67.1 200 98.1 200c55.1 0 100-44.9 100-100S153.3 0 98.1 0"/><path class="st0" d="M108.8 99.3c0 6.5-5.3 11.7-11.7 11.7-6.5 0-11.7-5.3-11.7-11.7 0-6.5 5.3-11.7 11.7-11.7 6.5 0 11.7 5.2 11.7 11.7"/></svg>