<svg version="1.1" id="affidea-logo" xmlns="http://www.w3.org/2000/svg" xmlns:xlink="http://www.w3.org/1999/xlink" x="0px"
	 y="0px" viewBox="0 0 216.9 54.6" style="enable-background:new 0 0 216.9 54.6;" xml:space="preserve">
    <circle style="fill:#4181D0;" cx="27.3" cy="27.3" r="27.3"/>
    <linearGradient id="affidea-logo-gradient" gradientUnits="userSpaceOnUse" x1="-819.8046" y1="558.116" x2="-818.8046" y2="558.116" gradientTransform="matrix(27.2805 0 0 -54.561 22391.9863 30478.6484)">
    	<stop  offset="2.800000e-02" style="stop-color:#4181D0;stop-opacity:0"/>
    	<stop  offset="0.103" style="stop-color:#3B6FB0;stop-opacity:0.145"/>
    	<stop  offset="0.258" style="stop-color:#314D72;stop-opacity:0.439"/>
    	<stop  offset="0.389" style="stop-color:#293446;stop-opacity:0.694"/>
    	<stop  offset="0.491" style="stop-color:#25252A;stop-opacity:0.886"/>
    	<stop  offset="0.55" style="stop-color:#231F20"/>
    </linearGradient>
    <path style="opacity:0.55;fill:url(#affidea-logo-gradient);enable-background:new    ;" d="M27.3,0c15.1,0,27.3,12.2,27.3,27.3
    	S42.3,54.6,27.3,54.6"/>
    <path style="fill:#4181D0;" d="M65.3,53.9H43.5L27.3,0h21.8L65.3,53.9z"/>
    <g >
    	<path style="fill:#4181D0;" d="M87.5,35.9c-1.9,1.6-4.3,2.5-6.7,2.5c-1.9,0-3.8-0.5-5.5-1.4
    		c-5.5-3.3-7.2-10.5-3.9-15.9c1-1.6,2.3-2.9,3.9-3.9c1.6-0.9,3.4-1.4,5.3-1.3c2.5,0,4.9,0.8,6.8,2.5v-2h4.2v21.7h-4.2v-2.1H87.5z
    		 M87.4,22.9c-1.5-1.9-3.8-3.1-6.2-3.1c-3.8,0-6.9,3.1-6.9,6.9c0,0.1,0,0.2,0,0.3c-0.1,3.9,3.1,7.1,6.9,7.1c0.1,0,0.2,0,0.3,0
    		c2.4-0.1,4.6-1.2,6-3.1v-8.1H87.4z"/>
    	<path style="fill:#4181D0;" d="M128.2,9c-0.5-0.1-1.1-0.2-1.7-0.2c-1.3,0-2.5,0.5-3.3,1.5c-0.6,0.8-0.8,1.9-0.8,3.9v2
    		h16.1v21.7h-4.3V20h-11.8v17.8h-4.3V20h-11.8v17.8H102V20h-5.1v-3.9h5.1v-1.9c0-2.9,0.4-4.8,1.3-6.1c1.6-2.3,4.3-3.7,7.1-3.6
    		c0.9,0,1.7,0.1,2.6,0.3l-0.9,4c-0.5-0.1-1.1-0.2-1.7-0.2c-1.3,0-2.5,0.5-3.3,1.5c-0.6,0.8-0.8,1.9-0.8,3.9v2h11.8v-1.9
    		c0-2.9,0.4-4.8,1.3-6.1c1.6-2.3,4.3-3.7,7.1-3.6c0.9,0,1.7,0.1,2.6,0.3L128.2,9z M136.4,5.1c1.6,0,2.9,1.3,2.9,2.9
    		s-1.3,2.9-2.9,2.9c-1.6,0-2.9-1.2-2.9-2.8c0,0,0-0.1,0-0.1C133.6,6.4,134.8,5.1,136.4,5.1L136.4,5.1z"/>
    	<path style="fill:#4181D0;" d="M161,35.9c-1.9,1.6-4.3,2.5-6.7,2.5c-1.9,0-3.8-0.5-5.5-1.4c-3.5-2-5.6-5.8-5.5-9.8
    		c0-4.1,2.1-7.8,5.6-9.9c1.6-0.9,3.4-1.4,5.3-1.3c2.4,0,4.8,0.8,6.6,2.4V5.5h4.3v32.3h-4.2v-2H161z M160.9,22.9
    		c-1.5-1.9-3.8-3.1-6.2-3.1c-3.8,0-6.9,3.1-6.9,6.9c0,0.1,0,0.2,0,0.3c0,3.9,3.1,7.1,7.1,7.1c0.1,0,0.1,0,0.2,0
    		c2.3-0.1,4.5-1.2,5.9-3.1V22.9z"/>
    	<path style="fill:#4181D0;" d="M174.4,28c0.2,3.7,3.3,6.6,7,6.5c2.4,0,4.7-1.1,6.2-3l2.9,2.7c-2.2,2.7-5.6,4.2-9.1,4
    		c-6,0.1-11-4.7-11.2-10.7c0-0.2,0-0.4,0-0.5c0-6.5,4.4-11.3,10.5-11.3c6,0,10.4,4.9,10.4,11.3v0.9h-16.8V28z M174.8,24.3h11.8
    		c-0.6-2.7-2.9-4.6-5.7-4.6C178.1,19.6,175.6,21.5,174.8,24.3L174.8,24.3z"/>
    	<path style="fill:#4181D0;" d="M212.8,35.9c-1.9,1.6-4.3,2.5-6.7,2.5c-1.9,0-3.8-0.5-5.5-1.4c-3.5-2-5.6-5.8-5.6-9.8
    		c0-4.1,2.1-7.8,5.6-9.9c1.6-0.9,3.4-1.4,5.3-1.3c2.5,0,4.9,0.8,6.8,2.5v-2h4.2v21.6h-4.2v-2.1H212.8z M212.7,23
    		c-1.5-1.9-3.8-3.1-6.2-3.1c-3.8,0-6.9,3.1-6.9,6.9c0,0.1,0,0.2,0,0.3c0,3.9,3.1,7.1,7.1,7.1c0.1,0,0.1,0,0.2,0
    		c2.4-0.1,4.6-1.2,6-3.1V23H212.7z"/>
    </g>
</svg>
