<svg viewBox="0 0 229 62" xmlns="http://www.w3.org/2000/svg"><g fill="none" fill-rule="evenodd" transform="translate(0 -1)"><path d="m13.95 14.521-6.084 15.737h12.242zm-.005-7.857 13.994 36.071-2.991.002-3.734-9.494h-14.555l-3.669 9.493-2.99-.001z" fill="#231f20"/><path d="m48.209 10.786h-12.183v11.253h12.183v2.984h-12.183v17.712h-2.984v-34.934h15.167z" fill="#231f20"/><path d="m70.849 10.786h-12.182v11.253h12.182v2.984h-12.182v17.712h-2.985v-34.934h15.167z" fill="#231f20"/><path d="m87.329 22.332c1.965 0 3.545-.548 4.741-1.646 1.195-1.097 1.793-2.481 1.793-4.151 0-1.638-.606-3.006-1.817-4.103-1.212-1.098-2.784-1.646-4.717-1.646h-5.55v11.546zm9.519-5.797c0 2.551-.873 4.653-2.618 6.304-1.745 1.652-4.036 2.478-6.874 2.478h-.93l11.206 17.417-3.542.012-11.038-17.43-1.273.001v17.418h-2.985v-34.934h8.562c2.87 0 5.17.818 6.899 2.453 1.728 1.636 2.593 3.729 2.593 6.281z" fill="#231f20"/><path d="m118.439 10.786h-13.749v11.057h13.749v2.985h-13.749v14.922h13.749v2.985h-16.733v-34.934h16.733z" fill="#231f20"/><path d="m138.873 14.015c-.684-1.174-1.46-2.039-2.324-2.594-.864-.554-1.998-.831-3.4-.831-1.827 0-3.238.448-4.233 1.345-.995.898-1.492 2.145-1.492 3.743 0 1.436.916 2.789 2.749 4.061.49.36 1.586 1.028 3.287 2.006 2.258 1.305 3.78 2.251 4.565 2.838 1.668 1.207 2.945 2.48 3.829 3.816 1.046 1.599 1.569 3.376 1.569 5.333 0 2.675-.897 4.893-2.69 6.654-1.794 1.762-4.16 2.642-7.095 2.642-2.838 0-5.187-.684-7.045-2.054-1.632-1.207-2.936-2.952-3.915-5.236l2.725-1.223c.718 1.761 1.73 3.124 3.036 4.086 1.305.962 3.037 1.443 5.191 1.443 2.058 0 3.707-.588 4.947-1.761 1.242-1.175 1.862-2.691 1.862-4.551 0-2.348-1.125-4.403-3.376-6.165-.653-.521-1.941-1.353-3.865-2.495-3.556-2.119-5.578-3.376-6.067-3.767-1.794-1.5-2.691-3.376-2.691-5.627 0-2.348.799-4.281 2.397-5.798 1.598-1.516 3.702-2.275 6.312-2.275 2.087 0 3.865.506 5.333 1.517 1.174.816 2.202 2.006 3.083 3.572z" fill="#231f20"/><path d="m150.614 25.366c0 4.567 1.451 8.237 4.354 11.008 2.707 2.578 6.018 3.866 9.932 3.866 2.935 0 5.496-.424 7.681-1.272 1.5-.588 3.132-1.533 4.893-2.838v3.326c-1.859 1.273-3.344 2.122-4.452 2.545-2.12.815-4.827 1.223-8.122 1.223-4.958 0-9.069-1.598-12.329-4.795-3.425-3.359-5.138-7.713-5.138-13.063 0-5.316 1.672-9.63 5.015-12.941s7.494-4.967 12.452-4.967c3.261 0 5.854.294 7.78.881 1.238.392 2.837 1.159 4.794 2.3v3.474c-2.837-1.631-5.097-2.65-6.776-3.058-1.68-.408-3.613-.612-5.798-.612-3.882 0-7.192 1.321-9.932 3.963-2.903 2.806-4.354 6.459-4.354 10.96" fill="#231f20"/><g fill="#231f20" transform="translate(182)"><path d="m18.499 40.24c4.28 0 7.841-1.419 10.684-4.257 2.842-2.838 4.264-6.393 4.264-10.666 0-4.306-1.415-7.869-4.24-10.691-2.826-2.82-6.395-4.232-10.708-4.232-4.28 0-7.842 1.403-10.683 4.208-2.843 2.806-4.264 6.377-4.264 10.715 0 4.273 1.421 7.828 4.264 10.666 2.841 2.838 6.403 4.257 10.683 4.257zm17.932-14.923c0 5.056-1.721 9.305-5.162 12.746-3.442 3.441-7.706 5.161-12.794 5.161-5.089 0-9.346-1.712-12.771-5.137-3.424-3.425-5.136-7.682-5.136-12.77s1.712-9.345 5.136-12.77c3.425-3.425 7.682-5.137 12.771-5.137 5.056 0 9.311 1.712 12.769 5.137 3.457 3.425 5.187 7.682 5.187 12.77z"/><path d="m41.629 5.904c0-1.025-.527-1.537-1.58-1.537h-2.503v3.073h2.503c1.053 0 1.58-.511 1.58-1.536zm.614 0c0 .702-.2 1.237-.602 1.602-.402.367-.96.549-1.674.549h-.357l2.633 3.689-.801.008-2.587-3.697h-1.309v3.689h-.615v-7.992h3.074c.644 0 1.178.198 1.603.593.423.395.635.915.635 1.559zm-9.307 2.019c0 1.786.622 3.301 1.866 4.545s2.759 1.866 4.544 1.866 3.3-.622 4.545-1.866c1.243-1.244 1.865-2.759 1.865-4.545 0-1.784-.622-3.3-1.865-4.544-1.245-1.243-2.76-1.866-4.545-1.866s-3.3.623-4.544 1.866c-1.244 1.244-1.866 2.76-1.866 4.544zm13.347 0c0 1.932-.673 3.572-2.019 4.918-1.347 1.346-2.985 2.02-4.918 2.02-1.932 0-3.571-.674-4.917-2.02-1.347-1.346-2.021-2.986-2.021-4.918 0-1.931.674-3.57 2.021-4.917 1.346-1.346 2.985-2.02 4.917-2.02 1.933 0 3.571.674 4.918 2.02 1.346 1.347 2.019 2.986 2.019 4.917z"/></g><g fill="#000"><path d="m9.73 59.878h-.84v-6.412h-.98v-.756h.98v-1.54c0-1.437.612-2.156 1.834-2.156.121 0 .294.028.518.084v.812c-.214-.056-.364-.084-.448-.084-.42 0-.709.13-.867.392-.131.205-.197.537-.197.994v1.498h1.288v.756h-1.288z"/><path d="m14.336 59.878h-.854v-7.182h.812v.812c.383-.607.924-.91 1.624-.91.121 0 .294.028.518.085v.867c-.112-.028-.247-.042-.405-.042-1.13 0-1.695.667-1.695 2.002z"/><path d="m24.962 55.804c-.355-1.633-1.302-2.45-2.842-2.45-.737 0-1.346.224-1.827.672s-.777 1.041-.889 1.778zm.868.714h-6.454c.009.84.268 1.5.777 1.981s1.183.721 2.023.721c1.176 0 1.997-.43 2.464-1.288h.98c-.756 1.409-1.895 2.114-3.416 2.114-1.12 0-2.021-.35-2.702-1.05s-1.022-1.615-1.022-2.744c0-1.101.355-1.997 1.064-2.688s1.615-1.036 2.716-1.036c1.129 0 2.016.392 2.66 1.176.607.728.91 1.666.91 2.814z"/><path d="m28.644 57.666h.882c0 .411.126.775.378 1.092s.583.476.994.476c.513 0 .886-.126 1.12-.378.233-.252.35-.527.35-.826 0-.541-.294-.957-.882-1.246-.551-.243-1.102-.485-1.652-.728-.588-.345-.882-.859-.882-1.54 0-.569.203-1.048.609-1.435s.893-.581 1.463-.581c1.306 0 1.979.653 2.016 1.96h-.938c-.037-.737-.42-1.106-1.148-1.106-.336 0-.607.105-.812.315-.206.21-.308.483-.308.819 0 .411.27.756.812 1.036.523.243 1.045.481 1.568.714.588.336.924.76 1.008 1.274.019.13.028.275.028.434 0 .653-.238 1.171-.714 1.554-.439.364-.989.546-1.652.546-.709 0-1.26-.219-1.652-.658s-.588-1.013-.588-1.722"/><path d="m36.847 56.294c0 .849.241 1.549.722 2.1.48.551 1.141.826 1.981.826.55 0 1.05-.14 1.498-.42s.774-.667.98-1.162h.881c-.252.719-.685 1.299-1.301 1.743-.616.443-1.303.665-2.058.665-1.018 0-1.87-.371-2.555-1.113-.686-.742-1.029-1.626-1.029-2.653s.343-1.909 1.029-2.646c.685-.737 1.537-1.106 2.555-1.106.755 0 1.428.205 2.016.616s1.017.971 1.288 1.68h-.883c-.457-.98-1.264-1.47-2.421-1.47-.859 0-1.524.273-1.996.819-.471.546-.707 1.253-.707 2.121"/><path d="m46.382 56.294c0 .849.261 1.549.784 2.1s1.204.826 2.044.826c.868 0 1.559-.271 2.072-.812s.77-1.246.77-2.114c0-.887-.252-1.598-.756-2.135s-1.2-.805-2.086-.805c-.868 0-1.556.27-2.065.812-.509.541-.763 1.25-.763 2.128zm-.868-.014c0-1.045.354-1.932 1.064-2.66.709-.728 1.587-1.092 2.632-1.092 1.054 0 1.934.364 2.639 1.092.704.728 1.057 1.619 1.057 2.674s-.353 1.944-1.057 2.667c-.705.723-1.585 1.085-2.639 1.085-1.045 0-1.923-.366-2.632-1.099-.71-.733-1.064-1.622-1.064-2.667z"/><path d="m62.159 55.804c-.355-1.633-1.302-2.45-2.841-2.45-.738 0-1.347.224-1.827.672-.482.448-.777 1.041-.89 1.778zm.869.714h-6.454c.009.84.267 1.5.776 1.981s1.183.721 2.023.721c1.177 0 1.997-.43 2.465-1.288h.98c-.757 1.409-1.895 2.114-3.416 2.114-1.12 0-2.021-.35-2.702-1.05-.682-.7-1.022-1.615-1.022-2.744 0-1.101.354-1.997 1.064-2.688.708-.691 1.614-1.036 2.715-1.036 1.13 0 2.016.392 2.66 1.176.607.728.911 1.666.911 2.814z"/><path d="m65.842 57.666h.881c0 .411.127.775.379 1.092s.583.476.993.476c.514 0 .887-.126 1.121-.378.233-.252.35-.527.35-.826 0-.541-.294-.957-.882-1.246-.551-.243-1.102-.485-1.652-.728-.588-.345-.882-.859-.882-1.54 0-.569.203-1.048.608-1.435.407-.387.894-.581 1.463-.581 1.307 0 1.979.653 2.017 1.96h-.938c-.038-.737-.42-1.106-1.148-1.106-.336 0-.607.105-.812.315-.206.21-.308.483-.308.819 0 .411.27.756.811 1.036.524.243 1.046.481 1.569.714.588.336.924.76 1.008 1.274.018.13.028.275.028.434 0 .653-.238 1.171-.714 1.554-.439.364-.99.546-1.652.546-.71 0-1.26-.219-1.653-.658-.391-.439-.587-1.013-.587-1.722"/><path d="m85.091 58.352 1.764-5.656h.938l-2.422 7.182h-.574l-1.708-5.726-1.68 5.726h-.588l-2.422-7.182h.924l1.778 5.656 1.666-5.656h.658z"/><path d="m96.627 56.252c0-.765-.268-1.444-.805-2.037s-1.188-.889-1.953-.889c-.812 0-1.482.298-2.009.896-.528.597-.791 1.307-.791 2.128 0 .784.266 1.465.798 2.044s1.19.868 1.974.868c.56 0 1.071-.17 1.533-.511s.805-.773 1.029-1.295c.149-.355.224-.756.224-1.204zm0-3.556h.854v7.182h-.854v-1.204c-.7.924-1.634 1.386-2.8 1.386-1.055 0-1.93-.359-2.625-1.078s-1.043-1.61-1.043-2.674c0-1.073.354-1.972 1.064-2.695.709-.723 1.601-1.085 2.674-1.085 1.185 0 2.095.513 2.73 1.54z"/><path d="m100.953 59.878h.84v-10.78h-.84z"/><path d="m105.293 59.878h.84v-10.78h-.84z"/><path d="m116.058 56.238c0-.793-.273-1.477-.818-2.051-.546-.574-1.216-.861-2.009-.861-.794 0-1.459.301-1.995.903-.537.602-.806 1.304-.806 2.107 0 .746.276 1.419.827 2.016.55.597 1.199.896 1.945.896.803 0 1.48-.299 2.031-.896.55-.597.825-1.302.825-2.114zm-5.599-3.556v1.372c.774-1.027 1.74-1.54 2.898-1.54 1.026 0 1.88.366 2.562 1.099.681.733 1.022 1.617 1.022 2.653 0 1.073-.357 1.972-1.072 2.695-.713.723-1.607 1.085-2.68 1.085-1.083 0-1.993-.476-2.73-1.428v4.382h-.841v-10.318z"/><path d="m126.139 56.252c0-.765-.269-1.444-.805-2.037-.537-.593-1.188-.889-1.953-.889-.812 0-1.482.298-2.01.896-.527.597-.791 1.307-.791 2.128 0 .784.266 1.465.799 2.044.531.579 1.19.868 1.974.868.559 0 1.071-.17 1.533-.511s.805-.773 1.029-1.295c.149-.355.224-.756.224-1.204zm0-3.556h.853v7.182h-.853v-1.204c-.7.924-1.634 1.386-2.8 1.386-1.055 0-1.93-.359-2.625-1.078-.696-.719-1.043-1.61-1.043-2.674 0-1.073.354-1.972 1.064-2.695.709-.723 1.6-1.085 2.673-1.085 1.186 0 2.096.513 2.731 1.54z"/><path d="m136.891 56.238c0-.793-.274-1.477-.819-2.051-.546-.574-1.216-.861-2.009-.861s-1.458.301-1.995.903-.805 1.304-.805 2.107c0 .746.275 1.419.826 2.016s1.199.896 1.945.896c.803 0 1.48-.299 2.031-.896.55-.597.826-1.302.826-2.114zm-5.6-3.556v1.372c.775-1.027 1.74-1.54 2.898-1.54 1.026 0 1.881.366 2.562 1.099s1.022 1.617 1.022 2.653c0 1.073-.357 1.972-1.072 2.695-.713.723-1.607 1.085-2.68 1.085-1.083 0-1.993-.476-2.73-1.428v4.382h-.841v-10.318z"/><path d="m147.027 55.804c-.356-1.633-1.303-2.45-2.842-2.45-.738 0-1.347.224-1.827.672-.482.448-.778 1.041-.89 1.778zm.868.714h-6.454c.008.84.267 1.5.776 1.981s1.184.721 2.023.721c1.176 0 1.998-.43 2.464-1.288h.981c-.757 1.409-1.896 2.114-3.416 2.114-1.12 0-2.022-.35-2.702-1.05-.682-.7-1.023-1.615-1.023-2.744 0-1.101.355-1.997 1.065-2.688.709-.691 1.614-1.036 2.715-1.036 1.129 0 2.016.392 2.661 1.176.606.728.91 1.666.91 2.814z"/><path d="m151.941 59.878h-.855v-7.182h.813v.812c.382-.607.924-.91 1.624-.91.121 0 .294.028.517.085v.867c-.111-.028-.247-.042-.405-.042-1.13 0-1.694.667-1.694 2.002z"/><path d="m163.071 59.878h-.84v-6.412h-.981v-.756h.981v-1.54c0-1.437.611-2.156 1.834-2.156.121 0 .294.028.517.084v.812c-.215-.056-.364-.084-.448-.084-.42 0-.709.13-.867.392-.131.205-.196.537-.196.994v1.498h1.288v.756h-1.288z"/><path d="m172.884 56.252c0-.765-.269-1.444-.805-2.037-.537-.593-1.188-.889-1.953-.889-.812 0-1.482.298-2.01.896-.527.597-.791 1.307-.791 2.128 0 .784.267 1.465.799 2.044s1.19.868 1.974.868c.559 0 1.071-.17 1.533-.511s.805-.773 1.029-1.295c.149-.355.224-.756.224-1.204zm0-3.556h.854v7.182h-.854v-1.204c-.7.924-1.634 1.386-2.8 1.386-1.054 0-1.929-.359-2.625-1.078-.695-.719-1.043-1.61-1.043-2.674 0-1.073.355-1.972 1.064-2.695s1.6-1.085 2.674-1.085c1.185 0 2.095.513 2.73 1.54z"/><path d="m183.622 56.266c0-.803-.268-1.489-.805-2.058-.536-.569-1.206-.854-2.009-.854-.793 0-1.451.301-1.974.903s-.784 1.304-.784 2.107c0 .747.266 1.409.798 1.988.551.607 1.194.91 1.932.91.802 0 1.484-.299 2.043-.896.533-.588.799-1.288.799-2.1zm-5.572 3.612h-.84v-10.78h.84v4.984c.756-1.027 1.717-1.54 2.884-1.54 1.026 0 1.878.366 2.555 1.099.676.732 1.015 1.617 1.015 2.653 0 1.073-.355 1.969-1.064 2.688s-1.601 1.078-2.674 1.078c-1.083 0-1.988-.471-2.716-1.414z"/><path d="m188.493 59.878h-.853v-7.182h.811v.812c.383-.607.925-.91 1.624-.91.122 0 .294.028.519.085v.867c-.112-.028-.248-.042-.406-.042-1.129 0-1.695.667-1.695 2.002z"/><path d="m192.988 59.878h.839v-7.168h-.839zm0-8.12h.839v-1.442h-.839z"/><path d="m197.831 56.294c0 .849.241 1.549.722 2.1.48.551 1.141.826 1.98.826.551 0 1.05-.14 1.498-.42.449-.28.775-.667.981-1.162h.882c-.252.719-.687 1.299-1.303 1.743-.615.443-1.302.665-2.058.665-1.017 0-1.869-.371-2.554-1.113-.687-.742-1.03-1.626-1.03-2.653s.343-1.909 1.03-2.646c.685-.737 1.537-1.106 2.554-1.106.756 0 1.428.205 2.016.616.589.411 1.018.971 1.288 1.68h-.882c-.457-.98-1.264-1.47-2.422-1.47-.858 0-1.523.273-1.995.819-.471.546-.707 1.253-.707 2.121"/></g></g></svg>
