<?xml version="1.0" encoding="UTF-8"?>
<!-- Generator: Adobe Illustrator 24.0.2, SVG Export Plug-In . SVG Version: 6.00 Build 0)  -->
<svg version="1.1" id="Layer_1" xmlns="http://www.w3.org/2000/svg" xmlns:xlink="http://www.w3.org/1999/xlink" x="0px" y="0px" viewBox="0 0 64 64" enable-background="new 0 0 64 64" xml:space="preserve">
<path fill="#FAE81D" d="M253.2,510.4L253.2,510.4"/>
<g>
	<path fill="#96CAC6" d="M4.3,16L4.3,16"/>
	<path fill="#96CAC6" d="M4.3,16l9.3-0.2l4.5,8.2c2.8-5,8.2-8,13.8-8l4.8-8L32,0C20.6,0,10,6.1,4.3,16z"/>
	<path fill="#442C48" d="M32,0L32,0"/>
	<path fill="#6F396D" d="M32,0l4.8,8L32,16c5.7,0,11,3.1,13.9,8l9.3,0.1l4.5-8.2C54,6.1,43.4,0,32,0z"/>
	<path fill="#EB6D79" d="M59.7,16L59.7,16"/>
	<path fill="#EB6D79" d="M59.7,16l-4.5,8.2L45.9,24c2.8,5,2.8,11,0,16l4.5,8.2l9.3-0.2C65.4,38.1,65.4,25.9,59.7,16z"/>
	<path fill="#F6B230" d="M59.7,48L59.7,48"/>
	<path fill="#F7B916" d="M59.7,48l-9.3,0.2L45.9,40c-2.8,5-8.2,8-13.8,8l-4.8,8l4.7,8C43.4,64,54,57.9,59.7,48z"/>
	<path fill="#FBE700" d="M32,64l-4.7-8l4.8-8c-5.7,0-11-3.1-13.8-8l-9.3-0.2L4.3,48C10,57.9,20.6,64,32,64z"/>
	<path fill="#C4DBA6" d="M4.3,48L4.3,48"/>
	<path fill="#C4DBA6" d="M4.3,48l4.6-8.2l9.3,0.2c-2.8-5-2.9-11.1,0-16l-4.5-8.2L4.3,16C-1.4,25.9-1.4,38.1,4.3,48z"/>
</g>
</svg>