<svg id="Lager_1" data-name="Lager 1" xmlns="http://www.w3.org/2000/svg" viewBox="0 0 1346.457 566.92919">
  <title>Aleris_NY_RGB_Petrol</title>
  <g>
    <g>
      <path d="M1046.3164,237.59519c-16.9443,0-31.3613,8.0669-38.5781,24.1611a1.48956,1.48956,0,0,1-2.8887-.2031v-11.0733a12.90916,12.90916,0,1,0-25.81832,0v119.4097a13.286,13.286,0,0,0,26.57122.1406c.0342-.4179,0-49.8086,0-49.8086,0-27.4531,13.168-56.4941,40.4073-56.7729.2675-.0025,1.5039-.0332,1.7812-.0332a12.71281,12.71281,0,0,0,12.7305-12.9102C1060.5215,243.375,1054.9678,237.59519,1046.3164,237.59519Z" fill="#004043"/>
      <g>
        <path d="M1090.5244,222.39449a16.58255,16.58255,0,1,0-16.583-16.582A16.58237,16.58237,0,0,0,1090.5244,222.39449Z" fill="#004043"/>
        <path d="M1103.8135,250.85879a13.28955,13.28955,0,0,0-26.5791,0v119.0308a13.28955,13.28955,0,1,0,26.5791,0Z" fill="#004043"/>
      </g>
      <path d="M1159.375,277.16739c0-11.8032,10.1563-17.5678,23.332-17.5678a52.217,52.217,0,0,1,27.4766,7.5693c.0478.0229.4443.2695.6055.3633a11.20264,11.20264,0,1,0,11.2207-19.3931c-.0254-.0141-.2188-.1357-.2969-.1846-6.7715-4.1806-18.418-10.3144-37.6328-10.3144-27.1758,0-50.2324,13.7251-50.2324,40.0766,0,46.9385,71.6425,37.8799,71.6425,65.0547,0,11.8028-9.8818,18.3916-23.6054,18.3916-16.1963,0-27.3506-7.29-33.8868-11.0664-.4687-.2568-.7509-.4492-1.5097-.8789a11.34232,11.34232,0,0,0-15.041,4.0547c-3.2813,5.3457-1.7012,11.7031,3.7402,15.6152.4375.3145,1.1357.7735,1.8125,1.2256,8.3555,5.6348,23.0195,13.00882,44.0605,13.00882,29.92,0,49.9581-17.29292,49.9581-40.90042C1231.0186,295.00969,1159.375,304.89159,1159.375,277.16739Z" fill="#004043"/>
      <path d="M802.58888,360.01459a13.20913,13.20913,0,0,0-4.1407-1.1094c-6.039-.7832-12.0839-2.7441-12.0839-18.3906V196.0097a13.31205,13.31205,0,0,0-26.6241,0V343.80849c0,34.8604,21.7911,38.80962,36.79982,38.97758.38088.00391.57718-.002.87108-.002a11.69285,11.69285,0,0,0,11.9512-12.02343A12.12461,12.12461,0,0,0,802.58888,360.01459Z" fill="#004043"/>
      <path d="M929.91988,348.51459c-.3515.2588-1.1953.8994-1.62688,1.1973a54.70665,54.70665,0,0,1-32.43362,10.3535c-24.7217,0-46.4063-16.7461-48.0528-46.9395h91.3575c6.9355,0,10.7695-4.3926,10.7695-9.3325,0-38.7036-21.4102-66.1533-59.84958-66.1533-39.53222,0-69.45222,28.5474-69.45222,72.7417,0,41.1738,29.92,72.74022,73.57722,72.74022a82.53387,82.53387,0,0,0,46.94138-14.77152c.7617-.5117,1.22262-.8291,1.3555-.9218a11.37882,11.37882,0,0,0,3.164-15.75C942.19338,346.456,934.74408,345.05369,929.91988,348.51459Zm-40.3847-90.0127c17.5722,0,31.63182,11.5147,33.58,33.8267.0909,1.0522-.0957,3.2299-3.8047,3.2299h-70.4062C852.74708,272.22649,869.21678,258.50189,889.53518,258.50189Z" fill="#004043"/>
      <path d="M739.98238,363.19819c-.4043-.9756-1.4511-3.4492-1.4511-3.4492l-69.668-163.05859a20.339,20.339,0,0,0-2.3008-4.1489,22.93323,22.93323,0,0,0-36.8164-1.1382,23.605,23.605,0,0,0-3.1465,5.2871l-70.21479,164.417s-.7071,1.6025-.9629,2.2588A14.21981,14.21981,0,1,0,581.582,374.5224c.27349-.61914.55469-1.27148.89459-2.10547l20.082-48.31054H692.291l20.40628,48.31054c.4336,1.01953.7968,1.834.88472,2.03907a14.35025,14.35025,0,1,0,26.40038-11.25781Zm-129.0019-61.6011,25.5879-61.4863c3.8867-9.8818,8.80662-21.5142,8.80662-21.5142s.70308-2.1191,2.32028-2.1191,2.3399,2.1191,2.3399,2.1191,4.6836,11.6324,8.5703,21.5142l25.2636,61.4863Z" fill="#004043"/>
    </g>
    <g>
      <path d="M439.95119,353.00239c-.3438-.8867-.5371-1.3799-79.7774-186.88089l-.2539-.581a79.62044,79.62044,0,0,0-145.8594,0l-.2534.581C134.5659,351.62249,134.374,352.11569,134.0288,353.00239c-13.9307,35.6582,2.5479,75.2744,37.5171,90.1914a69.48859,69.48859,0,0,0,27.39059,5.6025c24.6563,0,49.4942-13.2578,66.4634-36.373l.1152-.1611c.8741-1.2481,1.7422-2.3389,2.6617-3.7618,5.90821-9.1513,10.2363-13.1181,18.8134-13.1181,8.5782,0,12.9043,3.9668,18.8145,13.1181.918,1.4229,1.7871,2.5137,2.6601,3.7618l.1153.1611c16.9707,23.1152,41.8086,36.373,66.4648,36.373a69.49184,69.49184,0,0,0,27.3906-5.6025C437.40429,428.27679,453.88279,388.66059,439.95119,353.00239Zm-44.3809,74.0937a52.08434,52.08434,0,0,1-20.5254,4.2002c-18.998,0-37.7031-10.623-51.334-29.1484-.6718-.9668-1.4355-2.2607-2.2402-3.5088-5.834-9.03417-15.6914-24.24022-34.4805-24.24022-18.7895,0-28.646,15.20605-34.4795,24.24022-.8061,1.2481-1.5683,2.542-2.24169,3.5088-13.63081,18.5254-32.33591,29.1484-51.33251,29.1484a52.09291,52.09291,0,0,1-20.52679-4.2002c-26.2144-11.1826-38.5489-40.9316-28.0708-67.7519.3432-.8604,6.2514-14.7315,79.53219-186.28029l.2002-.459a62.12016,62.12016,0,0,1,113.8389,0l.1992.459c73.2812,171.54879,79.1894,185.41989,79.5332,186.28029C434.11909,386.16449,421.78519,415.91349,395.57029,427.09609Z" fill="#004043"/>
      <path d="M474.27639,339.46629C473.666,337.90079,393.585,150.4257,393.585,150.4257a116.467,116.467,0,0,0-213.1885,0S100.3159,337.90079,99.7051,339.46629c-21.2222,54.3222,3.9873,114.7197,57.3945,137.5009A106.15925,106.15925,0,0,0,198.937,485.52a109.243,109.243,0,0,0,59.08739-17.3203c2.7251-1.7764,5.2334-3.3868,7.6587-5.0274,9.10691-6.1582,15.5405-9.748,21.3081-9.748,5.7666,0,12.2002,3.5898,21.3076,9.748,2.4248,1.6406,4.9336,3.251,7.65821,5.0274A109.24244,109.24244,0,0,0,375.04489,485.52a106.16188,106.16188,0,0,0,41.8369-8.5528C470.28909,454.186,495.498,393.78849,474.27639,339.46629Zm-64.2578,121.4023a89.07446,89.07446,0,0,1-83.6553-7.3311c-2.6016-1.6943-5.0469-3.3476-7.4112-4.9472-11.5888-7.836-20.833-16.8008-31.9609-16.8008-11.1289,0-20.3735,8.9648-31.9619,16.8008-2.3647,1.5996-4.8101,3.2529-7.4106,4.9472a89.07544,89.07544,0,0,1-83.65579,7.3311c-44.6514-19.0459-65.7168-69.5752-47.9566-115.0371.5098-1.3066,80.4024-188.34469,80.4024-188.34469a98.96547,98.96547,0,0,1,181.16359,0s79.8925,187.03809,80.4023,188.34469C475.73539,391.29339,454.66989,441.82269,410.01859,460.86859Z" fill="#004043"/>
      <path d="M405.68359,366.41059c-.2793-.7197-43.3008-101.4434-79.3418-185.813l-.0527-.12009a43.19483,43.19483,0,0,0-5.9004-9.7788,42.84927,42.84927,0,0,0-66.7964,0,43.19483,43.19483,0,0,0-5.9004,9.7788l-.0527.12009c-36.0411,84.3696-79.06249,185.0933-79.34279,185.813a33.05953,33.05953,0,0,0,30.583,45.5352c12.1152,0,23.64061-6.4551,32.4492-18.1729.5029-.668,19.1382-25.9385,25.6699-34.6045,5.064-6.7187,11.89551-15.9101,29.9927-15.9101,18.0947,0,24.92681,9.1914,29.9912,15.9101,6.5313,8.666,25.166,33.9365,25.6699,34.6045,8.8086,11.7178,20.334,18.1729,32.4493,18.1729a33.05952,33.05952,0,0,0,30.582-45.5352Zm-24.5039,26.7842a15.41918,15.41918,0,0,1-6.0801,1.251c-6.4805,0-13.0371-3.97466-18.4629-11.19243-.6582-.89844-15.47069-20.49607-24.957-34.19627-1.8106-2.6143-16.7461-25.4512-44.6885-25.4512-27.9443,0-42.8799,22.8369-44.6899,25.4512-9.4868,13.7002-24.2989,33.29783-24.9571,34.19627-5.4257,7.21777-11.9834,11.19243-18.4638,11.19243a15.42038,15.42038,0,0,1-6.07959-1.251,15.73252,15.73252,0,0,1-8.2368-20.33206c2.0625-4.88774,77.32809-181.082,79.14109-185.32614a25.28549,25.28549,0,0,1,3.37891-5.69189l.12159-.1489a25.34889,25.34889,0,0,1,39.5698,0l.1211.1489a25.30372,25.30372,0,0,1,3.3789,5.69189c1.8125,4.24411,77.0781,180.4384,79.14061,185.32614A15.73283,15.73283,0,0,1,381.17969,393.19479Z" fill="#004043"/>
    </g>
  </g>
</svg>
