<svg xmlns="http://www.w3.org/2000/svg" xmlns:xlink="http://www.w3.org/1999/xlink" width="161.128" height="50.856" viewBox="0 0 161.128 50.856">
  <defs>
    <clipPath id="clip-path">
      <rect id="Rectangle_89" data-name="Rectangle 89" width="161.128" height="50.856" fill="#0a1e64"/>
    </clipPath>
  </defs>
  <g id="Group_636" data-name="Group 636" transform="translate(0 0)">
    <g id="Group_505" data-name="Group 505" transform="translate(0 0)" clip-path="url(#clip-path)">
      <path id="Path_769" data-name="Path 769" d="M13.047,8.141H0V20.173H12.486a1.975,1.975,0,0,1,1.959,1.974,1.946,1.946,0,0,1-1.959,1.941H0v11.9H10.614s2.195.112,3.929-3.357v3.357h12.3V20.057a13.868,13.868,0,0,0-13.8-11.916m-.51,20.653a1.956,1.956,0,1,1,1.955-1.957,1.957,1.957,0,0,1-1.955,1.957" transform="translate(0 -2.696)" fill="#0a1e64"/>
      <path id="Path_770" data-name="Path 770" d="M208.2,8.533A13.965,13.965,0,1,0,222.168,22.5,13.967,13.967,0,0,0,208.2,8.533M208.164,24.4a1.956,1.956,0,1,1,1.959-1.959,1.956,1.956,0,0,1-1.959,1.959" transform="translate(-64.314 -2.825)" fill="#0a1e64"/>
      <path id="Path_771" data-name="Path 771" d="M119.145,21.782a1.971,1.971,0,0,1,1.953-1.975h13.579a13.964,13.964,0,1,0-13.811,16.027h13.679V23.726H121.1a1.944,1.944,0,0,1-1.953-1.944m1.656-6.773a1.955,1.955,0,1,1-1.959,1.957,1.956,1.956,0,0,1,1.959-1.957" transform="translate(-35.397 -2.617)" fill="#0a1e64"/>
      <path id="Path_772" data-name="Path 772" d="M77.857,7.877H90.933V19.794H78.208a1.976,1.976,0,0,0-1.955,1.979,1.946,1.946,0,0,0,1.955,1.944H90.973V40.094c-.251,11.748-12.123,13.37-12.123,13.37V35.826h-.877a13.966,13.966,0,0,1,0-27.932" transform="translate(-21.195 -2.608)" fill="#0a1e64"/>
      <rect id="Rectangle_88" data-name="Rectangle 88" width="11.9" height="32.053" transform="translate(29.102 1.239)" fill="#0a1e64"/>
      <path id="Path_773" data-name="Path 773" d="M178.241,20.153V8.092H165.125a13.946,13.946,0,1,0,0,27.891h13.1V24.056H165.637a1.952,1.952,0,1,1,0-3.9Z" transform="translate(-50.05 -2.679)" fill="#0a1e64"/>
      <path id="Path_774" data-name="Path 774" d="M233.968,6.957a3.479,3.479,0,1,1,3.478-3.48,3.476,3.476,0,0,1-3.478,3.48m0-6.312a2.783,2.783,0,0,0-2.787,2.831,2.783,2.783,0,1,0,5.566,0A2.78,2.78,0,0,0,233.968.645m.732,4.707-.771-1.491h-.477V5.352h-.691V1.595h1.409a1.164,1.164,0,0,1,1.209,1.152,1.049,1.049,0,0,1-.738,1.021l.834,1.585Zm-.618-3.17h-.63V3.314h.63a.568.568,0,1,0,0-1.131" transform="translate(-76.318 0)" fill="#0a1e64"/>
    </g>
  </g>
</svg>
