<?xml version="1.0" encoding="UTF-8"?> <svg xmlns="http://www.w3.org/2000/svg" width="243" height="90" viewBox="0 0 243 90"><title>algordanaz-logo</title><g fill="none" fill-rule="evenodd"><path d="M57.44 14.25s10.325 20.47 19.016 37.853h13.412L60.882 0h-3.308L15 75.794c-5.56 8.118-8.03 8.427-9.22 8.647-1.192.222-5.78.575-5.78.575v4.544h35.868v-4.5l-4.103-.222c-5.118-.176-6.574-1.588-7.456-3.485-.84-1.853 1.587-6.662 1.587-6.662L57.44 14.25zm56.957 70.06c-5.206-.486-9.573-6-11.69-9.222h-14.87c.222.486.398.838.442.927.66 1.81 1.5 2.382 1.014 5.382-.44 3-6.044 3.177-6.044 3.177l-7.897.44v4.545h45.397v-4.545c-1.676.044-6.353-.706-6.353-.706z" fill="#036" fill-rule="nonzero"></path><path stroke="#036" stroke-width=".8" stroke-linecap="round" stroke-linejoin="round" d="M57.574 73.06l-17.34-15.486 7.81-5.956 9.662-.09-5.03 1.943 4.898 4.148-1.986 10.19z"></path><path stroke="#036" stroke-width=".8" stroke-linecap="round" stroke-linejoin="round" d="M45.53 57.574L51 51.706l1.94 1.81-1.146 4.058 3.838 10.323z"></path><path d="M45.176 53.912l-2.514 3.573 8.823 10.147-6.088-9.97.485-4.412m-.22 4.324l7.28-4.06" stroke="#036" stroke-width=".8" stroke-linecap="round" stroke-linejoin="round"></path><g stroke="#036" stroke-width=".8" stroke-linecap="round" stroke-linejoin="round"><path d="M57.706 73.06L75.75 57.66l-8.206-5.956-10.103-.177 5.207 2.03-5.073 4.058 2.03 10.28z"></path><path d="M70.147 57.662l-5.735-5.868-2.03 1.765 1.236 4.102-4.06 10.323z"></path><path d="M70.544 53.956l2.69 3.618-9.308 10.102 6.398-9.926-.53-4.412m.265 4.324L62.38 53.56"></path></g><path d="M91.853 68.206L90.53 72.44H79.102v-.528h.132c.794 0 1.324-.177 1.633-.574.308-.353.44-1.06.44-2.073V60.44c0-1.014-.132-1.675-.44-2.072-.31-.353-.84-.574-1.633-.574h-.132v-.573h6.088v.574h-.175c-.75 0-1.28.177-1.59.574-.307.353-.44 1.058-.44 2.073v9.266c0 .794.09 1.323.31 1.544.22.22.66.353 1.41.353h1.766c1.5 0 2.648-.265 3.354-.75.705-.485 1.235-1.368 1.588-2.647h.44zm16.323-11.118c-.044.265-.044.574-.044.927 0 1.367.09 2.69.31 3.926l-.31.045c-.308-1.41-.882-2.47-1.72-3.088-.838-.662-2.074-.97-3.662-.97-1.72 0-3.176.66-4.324 1.94-1.147 1.28-1.72 2.912-1.72 4.81 0 2.03.618 3.75 1.81 5.117 1.234 1.368 2.778 2.03 4.63 2.03.928 0 1.766-.133 2.516-.442.75-.308 1.103-.66 1.103-1.014v-1.412c0-.97-.133-1.677-.44-2.03-.31-.352-.84-.573-1.59-.573h-.176v-.574h6.13v.573h-.175c-.794 0-1.324.176-1.633.573-.308.353-.44 1.06-.44 2.03v2.25c-1.457 1.015-3.266 1.544-5.383 1.544-2.516 0-4.5-.706-6-2.118-1.5-1.41-2.25-3.308-2.25-5.69 0-2.25.705-4.104 2.16-5.604 1.456-1.456 3.265-2.206 5.427-2.206 1.324 0 2.69.22 4.103.706.353.133.574.177.75.177.353 0 .618-.31.662-.883h.264v-.044zm20.074 7.81c0 2.205-.662 4.102-2.03 5.558-1.367 1.5-3.088 2.25-5.117 2.25-2.03 0-3.706-.706-4.985-2.162-1.28-1.456-1.942-3.31-1.942-5.56 0-2.25.662-4.146 2.03-5.646 1.368-1.5 3.088-2.25 5.118-2.25 2.03 0 3.705.75 4.985 2.206 1.278 1.456 1.94 3.31 1.94 5.603zm-1.897.087c0-2.16-.44-3.882-1.368-5.16-.882-1.28-2.117-1.9-3.66-1.9-1.59 0-2.87.62-3.84 1.9-.97 1.278-1.456 2.954-1.456 5.072 0 2.074.485 3.75 1.41 5.03.928 1.28 2.163 1.897 3.707 1.897s2.78-.618 3.75-1.853c.97-1.28 1.456-2.91 1.456-4.985zm9.53.44v3.84c0 1.014.132 1.676.44 2.073.31.353.84.574 1.59.574h.175v.573H132v-.573h.132c.794 0 1.324-.177 1.633-.574.31-.353.44-1.06.44-2.073V60.44c0-1.014-.13-1.675-.44-2.072-.31-.353-.84-.574-1.633-.574H132v-.573h6.132c3.618 0 5.47 1.324 5.47 3.927 0 .97-.308 1.81-.926 2.515-.617.706-1.455 1.19-2.47 1.412l2.868 4.544c.926 1.5 2.117 2.25 3.485 2.25v.573h-3.75l-4.413-7.014h-2.515zm0-6.528v5.427c0 .176.176.308.485.308l1.147.044c2.78 0 4.19-1.102 4.19-3.264s-1.234-3.265-3.66-3.265c-.97 0-1.545.044-1.766.132-.265.044-.398.264-.398.617zm13.5 13.588v-.573h.132c.794 0 1.323-.177 1.632-.574.31-.353.44-1.06.44-2.073V60.44c0-1.014-.13-1.675-.44-2.072-.31-.353-.838-.574-1.632-.574h-.133v-.573h5.074c3.044 0 5.206.354 6.485 1.104 2.12 1.235 3.178 3.308 3.178 6.22 0 2.47-.794 4.412-2.34 5.78-1.543 1.367-3.75 2.03-6.616 2.03h-5.78v.13zm3.882-14.03V71.25c.75.22 1.588.353 2.426.353 1.898 0 3.486-.618 4.678-1.897 1.19-1.28 1.808-2.912 1.808-4.897 0-2.03-.573-3.663-1.764-4.854-1.19-1.19-2.78-1.81-4.765-1.81-.882 0-1.676.09-2.382.31zm21.838-1.5l5.03 12.84c.308.793.617 1.323.97 1.63.353.266.838.443 1.5.487v.573h-5.69v-.573h.13c1.06-.044 1.545-.353 1.545-.883 0-.22-.088-.53-.22-.883l-.97-2.647h-5.736l-.97 2.338c-.22.574-.354.97-.354 1.19 0 .575.53.84 1.633.84v.573h-4.896v-.572c1.235 0 2.16-.75 2.78-2.294l5.25-12.618zm-3.132 9.75h5.162l-2.426-6.53-2.735 6.53zm26.692 5.78l-10.368-12.838v9.618c0 1.014.132 1.676.44 2.073.31.353.84.574 1.634.574h.132v.573h-5.25v-.573h.132c.794 0 1.324-.177 1.633-.574.31-.353.44-1.06.44-2.073V59.03c-.705-.795-1.676-1.192-2.823-1.192h-.132v-.573h4.235l9.09 11.25V60.44c0-.97-.134-1.675-.443-2.028-.308-.397-.838-.574-1.632-.574h-.132v-.573h5.25v.573h-.133c-.794 0-1.323.177-1.632.574-.31.397-.44 1.06-.44 2.03v12.043zm18.264-15.22l-10.102 14.25h5.69c1.28 0 2.25-.22 2.868-.662.662-.44 1.103-1.19 1.368-2.25h.44l-.837 3.838h-12.265l10.103-14.25h-4.675c-1.324 0-2.25.178-2.736.575-.486.397-.795 1.19-.927 2.426h-.44l.396-3.97h11.116v.045zm11.162-.31l5.03 12.84c.308.793.617 1.323.97 1.63.353.266.838.443 1.5.487v.573h-5.69v-.573h.13c1.06-.044 1.546-.353 1.546-.883 0-.22-.09-.53-.22-.883l-.972-2.647h-5.735l-.97 2.338c-.22.574-.353.97-.353 1.19 0 .575.53.84 1.632.84v.573h-4.897v-.572c1.234 0 2.16-.75 2.778-2.294l5.25-12.618zm-3.132 9.75h5.162l-2.427-6.53-2.734 6.53z" fill="#036" fill-rule="nonzero"></path><g fill-rule="nonzero"><path fill="#E20613" d="M193.81 82.235h11.337v7.368H193.81"></path><path fill="#FFF" d="M198.662 82.985h1.94v5.824h-1.94"></path><path fill="#FFF" d="M196.72 84.97h5.824v1.942h-5.823"></path><path d="M165.926 89.56c-.882 0-1.455-.266-1.632-.398-.132-.22-.265-.97-.265-1.5.044-.088.22-.088.264-.044.177.53.574 1.588 1.81 1.588.88 0 1.322-.574 1.322-1.235 0-.485-.088-.97-.882-1.5l-1.015-.66c-.53-.354-1.148-.972-1.148-1.81 0-1.015.794-1.81 2.162-1.81.31 0 .706.045.97.134.133.044.265.044.354.044.088.264.176.838.176 1.28-.044.043-.22.087-.265.043-.133-.528-.442-1.19-1.456-1.19-1.06 0-1.28.706-1.28 1.19 0 .62.53 1.06.882 1.325l.84.53c.66.396 1.322 1.014 1.322 2.03.088 1.19-.794 1.984-2.162 1.984zm2.78-6.928c-.044-.044-.044-.22.044-.264.265 0 .75.044 1.103.044.31 0 .838 0 1.19-.044.09.044.09.176 0 .264h-.264c-.22 0-.354.09-.354.177 0 .13.22.66.53 1.41.573 1.324 1.235 2.648 1.853 3.97.264-.528.528-1.102.793-1.72.088-.22.176-.396.176-.44 0-.045-.045-.133-.09-.265-.352-.84-.75-1.677-1.146-2.56-.176-.308-.31-.53-.662-.573h-.264c-.09-.088-.044-.22 0-.264.308 0 .706.044 1.147.044.53 0 .926 0 1.147-.044.088.044.088.176 0 .264h-.265c-.397.044-.44.09-.22.574.22.53.53 1.19.794 1.853.22-.398.398-.795.618-1.37.397-.88.31-1.014 0-1.058h-.31c-.087-.088-.043-.22 0-.264.266 0 .62.044 1.016.044.353 0 .794 0 1.015-.044.087.044.087.176 0 .264h-.31c-.44.044-.618.53-.882.927-.22.396-.662 1.322-.84 1.675-.043.09-.087.22-.087.265 0 .044 0 .132.09.265.352.794.75 1.588 1.058 2.426.31-.75.618-1.5.97-2.25.22-.528.795-1.896.84-2.116.13-.398.308-.84.308-.97 0-.133-.132-.222-.353-.266h-.31c-.087-.088-.087-.22 0-.264.398 0 .707.044 1.016.044.396 0 .705 0 .97-.044.088.044.088.176 0 .264h-.22c-.53.044-.62.353-1.28 1.853l-.795 1.81c-.44 1.06-.882 2.118-1.323 3.265-.044 0-.088.044-.133.044-.045 0-.09 0-.133-.045-.353-.927-.97-2.25-1.28-3-.396.794-1.014 2.117-1.323 3-.044 0-.088.044-.132.044-.044 0-.088 0-.177-.045-.176-.44-.573-1.412-.75-1.72-.66-1.457-1.323-2.957-2.03-4.413-.22-.44-.308-.706-.793-.75h.044zM180.266 84c0-1.103 0-1.324-.663-1.368h-.265c-.044-.044-.044-.22 0-.264.53 0 .883.044 1.324.044.44 0 .794 0 1.323-.044.044.044.09.22 0 .264h-.264c-.617.044-.66.22-.66 1.368v3.75c0 1.103 0 1.28.66 1.324l.265.044c.044.044.044.22 0 .264-.53 0-.882-.044-1.323-.044-.44 0-.794 0-1.324.044-.044-.044-.088-.22 0-.264l.265-.044c.618-.09.662-.22.662-1.324V84zm4.587 5.56c-.882 0-1.456-.266-1.632-.398-.132-.22-.264-.97-.264-1.5.044-.088.22-.088.265-.044.177.53.574 1.588 1.81 1.588.882 0 1.323-.574 1.323-1.235 0-.485-.088-.97-.882-1.5l-1.014-.66c-.53-.354-1.147-.972-1.147-1.81 0-1.015.793-1.81 2.16-1.81.31 0 .706.045.97.134.134.044.266.044.354.044.088.264.177.838.177 1.28-.044.043-.22.087-.264.043-.132-.528-.44-1.19-1.456-1.19-1.06 0-1.28.706-1.28 1.19 0 .62.53 1.06.883 1.325l.838.53c.663.396 1.325 1.014 1.325 2.03.088 1.19-.794 1.984-2.162 1.984zm5.162 0c-.883 0-1.456-.266-1.633-.398-.132-.22-.264-.97-.264-1.5.044-.088.22-.088.264-.044.177.53.574 1.588 1.81 1.588.882 0 1.323-.574 1.323-1.235 0-.485-.09-.97-.883-1.5l-1.014-.66c-.53-.354-1.147-.972-1.147-1.81 0-1.015.795-1.81 2.162-1.81.31 0 .706.045.97.134.133.044.266.044.354.044.088.264.176.838.176 1.28-.044.043-.22.087-.264.043-.133-.528-.442-1.19-1.456-1.19-1.06 0-1.28.706-1.28 1.19 0 .62.53 1.06.883 1.325l.838.53c.662.396 1.323 1.014 1.323 2.03.09 1.19-.794 1.984-2.16 1.984zm20.16-3c.266.484.487.97.75 1.455.266-.486.53-1.06.796-1.59l1.015-2.028c.486-.97.794-1.544.794-2.03.352.045.573.045.794.045.264 0 .617 0 .926-.044.044.044.044.22 0 .264h-.22c-.662.09-.75.265-.75 1.015 0 1.103.044 3.088.132 4.588.044.53 0 .794.53.84l.352.043c.044.044.044.22 0 .264-.44 0-.882-.044-1.235-.044-.354 0-.84 0-1.28.044-.09-.044-.09-.22 0-.264l.308-.044c.53-.045.53-.22.53-.883l-.044-4.41c-.09.132-.486.97-.706 1.367L211.94 87c-.484.926-.97 1.94-1.146 2.426 0 .045-.044.045-.088.045 0 0-.088 0-.088-.044-.177-.573-.706-1.588-.927-2.117l-.97-2.03c-.22-.486-.44-1.06-.66-1.545-.045.662-.09 1.28-.09 1.897-.044.662-.088 1.59-.088 2.47 0 .795.044.972.486.972l.397.044c.088.044.044.22 0 .264-.353 0-.794-.044-1.19-.044-.354 0-.707 0-1.06.044-.044-.044-.09-.22 0-.264l.22-.044c.44-.045.574-.133.662-.883.044-.705.132-1.278.177-2.337.044-.882.088-1.765.132-2.382 0-.66-.044-.794-.706-.926h-.176c-.045-.044-.045-.22.044-.265.308 0 .573.044.838.044s.53 0 .882-.045c-.044.396.22 1.058.53 1.764l1.058 2.515zm8.428-2.428c.132-.308.22-.573.265-.617.044.132.176.397.264.66l.574 1.722c.088.265.088.31-.22.31h-1.324c-.31 0-.31 0-.22-.266l.66-1.808zm1.897 4.236c.088.264.132.44.132.573 0 .09-.132.178-.353.178l-.31.044c-.088.044-.044.22 0 .264.31 0 .706-.044 1.236-.044.485 0 .838 0 1.28.044.043-.044.088-.22 0-.264l-.265-.044c-.44-.044-.573-.22-.882-1.103l-1.456-4.236c-.176-.486-.308-.97-.485-1.412 0-.09-.088-.09-.176-.09-.132.134-.308.31-.53.398.045.177-.043.353-.175.75l-1.06 2.868c-.44 1.19-.75 1.853-.926 2.382-.133.398-.398.486-.618.53l-.353.044c-.045.044-.045.22 0 .265.264 0 .66-.044 1.014-.044.485 0 .838 0 1.102.045.09-.044.09-.22 0-.265l-.352-.044c-.265 0-.31-.088-.31-.22 0-.133.09-.398.22-.883L217.59 87c.088-.22.133-.265.397-.265h1.59c.307 0 .35.044.44.265l.485 1.368zm4.06-4.72c0-.486 0-.75.087-.795.088-.044.44-.132 1.06-.132 2.778 0 3.352 1.986 3.352 3.133 0 1.985-.928 3.31-2.957 3.31-.662 0-1.06-.09-1.324-.442-.177-.264-.22-.573-.22-1.146v-3.927zm-.884 4.146c0 1.103 0 1.235-.617 1.324l-.266.044c-.044.044-.044.22 0 .264.485 0 .882-.044 1.324-.044.176 0 .44 0 .75.044.308 0 .617.045.97.045.794 0 1.677-.132 2.383-.53 1.192-.66 1.854-1.808 1.854-3.175 0-1.412-.706-2.603-2.162-3.133-.706-.264-1.456-.308-2.338-.308-.883 0-1.765.044-2.648.088-.088.044-.088.22 0 .264l.22.045c.442.045.486.265.486 1.015v4.06h.044zm8.25-3.794c0-1.103 0-1.28-.66-1.324h-.178c-.044-.044-.044-.22 0-.264h3.22c.663 0 1.324 0 1.413-.044.045.176.133.926.177 1.41-.044.046-.22.09-.265 0-.176-.484-.264-.88-.794-1.013-.22-.044-.573-.044-1.014-.044h-.75c-.31 0-.31 0-.31.442v2.117c0 .308.045.308.354.308h.617c.44 0 .794 0 .883-.044.132-.044.22-.088.264-.353l.09-.44c.043-.044.22-.044.263 0 0 .265-.044.662-.044 1.06 0 .396.045.793.045 1.014-.044.088-.22.088-.264 0l-.088-.398c-.044-.176-.132-.352-.308-.397-.133-.045-.398-.045-.795-.045h-.618c-.31 0-.353 0-.353.265v1.5c0 .574.043.926.22 1.103.132.132.352.265 1.28.265.793 0 1.102-.044 1.366-.177.177-.087.486-.484.75-1.014.09-.044.22 0 .265.09-.087.352-.352 1.19-.484 1.455h-3.794c-.44 0-.794 0-1.456.045-.044-.044-.088-.22 0-.265l.353-.044c.616-.044.66-.22.66-1.324V84h-.044z" fill="#4A4A4A"></path></g><path d="M233.956 60.926c0 .75 0 .84.44.883h.222c.044.043.044.175 0 .175h-1.942c-.044 0-.044-.132 0-.176h.265c.398-.045.442-.134.442-.884v-3.22c0-.22 0-.22-.22-.22h-.397c-.31 0-.706 0-.883.176-.176.176-.264.31-.308.485-.045.044-.177 0-.177-.044.132-.31.22-.794.265-1.06h.132c.044.222.265.222.618.222h2.912c.397 0 .44 0 .573-.22h.132c-.09.308-.133.88-.09 1.102-.043.044-.13.044-.175 0 0-.176-.09-.44-.177-.53-.176-.132-.44-.176-.838-.176h-.53c-.22 0-.22 0-.22.266v3.22h-.044zm4.897-.838c.176.353.31.662.485.97.177-.352.353-.705.574-1.058l.662-1.368c.308-.66.53-1.058.53-1.367h1.146c.044.044.044.132 0 .176h-.132c-.442.045-.53.178-.486.663 0 .75 0 2.073.09 3.132 0 .353 0 .53.352.574h.22c.044.043.044.13 0 .175h-1.72c-.045-.044-.045-.132 0-.176h.22c.353-.045.353-.134.353-.62v-3c-.044.09-.31.663-.485.928l-.618 1.235c-.31.618-.662 1.323-.794 1.632 0 0-.044.044-.088.044 0 0-.044 0-.044-.045-.133-.397-.486-1.103-.618-1.456l-.662-1.368c-.132-.31-.31-.706-.44-1.015-.045.44-.045.882-.09 1.28 0 .44-.043 1.058-.043 1.676 0 .53.044.662.31.662h.263c.044.044.044.176 0 .176h-1.544c-.044-.043-.044-.13 0-.175h.177c.31-.044.398-.09.442-.574.044-.484.088-.88.132-1.587.044-.574.044-1.19.088-1.588 0-.44-.044-.53-.485-.618h-.132c-.044-.044-.044-.132.044-.176h1.146c-.044.265.132.706.353 1.192l.793 1.676z" fill="#036" fill-rule="nonzero"></path></g></svg> 