<?xml version="1.0" encoding="UTF-8"?>
<svg width="170px" height="40px" viewBox="0 0 170 40" version="1.1" xmlns="http://www.w3.org/2000/svg" xmlns:xlink="http://www.w3.org/1999/xlink">
    <!-- Generator: Sketch 63.1 (92452) - https://sketch.com -->
    <title>Logo/White</title>
    <desc>Created with Sketch.</desc>
    <defs>
        <path d="M13.8202073,0.548756477 C8.54492228,0.548756477 3.76906736,2.6865285 0.311813472,6.14378238 L0.311813472,6.14378238 L5.13611399,10.9680829 C7.3584456,8.7457513 10.4290155,7.3707772 13.8202073,7.3707772 L13.8202073,7.3707772 C17.2105181,7.3707772 20.2819689,8.7457513 22.5034197,10.9680829 L22.5034197,10.9680829 L27.3277202,6.14378238 C23.8713472,2.6865285 19.0954922,0.548756477 13.8202073,0.548756477 Z" id="path-1"></path>
        <linearGradient x1="69.7438224%" y1="100%" x2="-27.013043%" y2="100%" id="linearGradient-3">
            <stop stop-color="#FFFFFF" offset="0%"></stop>
            <stop stop-color="#FFFFFF" stop-opacity="0.100387893" offset="100%"></stop>
        </linearGradient>
        <polygon id="path-4" points="0.00050254282 0.732849741 38.209596 0.732849741 38.209596 35.2331606 0.00050254282 35.2331606"></polygon>
    </defs>
    <g id="Symbols" stroke="none" stroke-width="1" fill="none" fill-rule="evenodd">
        <g id="Menu/Corporate/1170/White" transform="translate(-255.000000, -30.000000)">
            <g id="Logo/White" transform="translate(255.000000, 30.000000)">
                <g>
                    <g id="Group-14" transform="translate(44.000000, 0.332249)" fill="#FFFFFF">
                        <path d="M12.2364404,27.3166218 C8.66379793,27.3166218 5.76851295,24.3464663 5.76851295,20.6830984 C5.76851295,17.0197306 8.66379793,14.0495751 12.2364404,14.0495751 C15.8082021,14.0495751 18.703487,17.0197306 18.703487,20.6830984 C18.703487,24.3464663 15.8082021,27.3166218 12.2364404,27.3166218 L12.2364404,27.3166218 Z M18.6937979,9.37237306 L18.6937979,11.7189016 C17.7495492,10.3835648 14.9308964,8.82802073 11.6568549,8.82802073 C6.09530052,8.82802073 0.563694301,13.6364663 0.230740933,20.0700415 C0.220170984,20.2708705 0.21488601,20.4752228 0.21488601,20.6830984 C0.21488601,20.8918549 0.220170984,21.0962073 0.230740933,21.2970363 C0.563694301,27.7306114 6.09530052,32.5381762 11.6568549,32.5381762 C14.9308964,32.5381762 17.7495492,30.983513 18.6937979,29.6472953 L18.6937979,31.9938238 L24.6728653,31.9938238 L24.6728653,9.37237306 L18.6937979,9.37237306 Z" id="Fill-1"></path>
                        <polygon id="Fill-3" points="82.0748187 20.1977617 74.4204145 9.36356477 81.2803109 9.36356477 86.0077202 16.0561036 90.5254922 9.36356477 96.9255959 9.36356477 89.2280311 20.5738756 97.3439896 31.9947047 90.4832124 31.9947047 85.3382902 24.7569326 80.4021244 31.9947047 74.0020207 31.9947047"></polygon>
                        <path d="M112.669886,25.050513 C113.422114,26.8491658 114.677295,27.9361088 116.936622,27.8947098 C118.525637,27.8947098 119.614342,27.2261606 119.614342,25.9709793 C119.614342,24.5484404 118.777554,24.0463679 115.597762,22.7497876 C111.624342,21.2435699 108.988021,19.0265233 108.988021,15.5128964 C108.988021,11.8319119 111.74942,8.81947668 116.726984,8.81947668 C121.621751,8.81947668 124.34087,10.9537254 125.010301,14.257715 L120.576207,16.1400466 C120.074135,14.3827927 118.735275,13.4209275 116.895223,13.4209275 C115.346725,13.4209275 114.552218,14.1326373 114.552218,15.1781813 C114.552218,16.4333627 115.68144,16.8931554 118.40056,18.0637772 C122.416259,19.7373523 125.219057,21.7456425 125.219057,25.5939845 C125.219057,28.857456 122.583617,32.5384404 116.895223,32.5384404 C112.669886,32.5384404 109.113979,30.4887513 108.152114,27.0165233 L112.669886,25.050513 Z" id="Fill-5"></path>
                        <polygon id="Fill-7" points="38.8014508 31.9943523 44.7426425 31.9943523 44.7426425 9.37202073 38.8014508 9.37202073"></polygon>
                        <polygon id="Fill-9" points="38.8014508 6.48994819 44.7426425 6.48994819 44.7426425 0.548756477 38.8014508 0.548756477"></polygon>
                        <polygon id="Fill-10" points="99.6174093 31.9943523 105.558601 31.9943523 105.558601 9.37202073 99.6174093 9.37202073"></polygon>
                        <polygon id="Fill-11" points="99.6174093 6.48994819 105.558601 6.48994819 105.558601 0.548756477 99.6174093 0.548756477"></polygon>
                        <polygon id="Fill-12" points="28.7124352 31.9952332 34.6536269 31.9952332 34.6536269 0.548756477 28.7124352 0.548756477"></polygon>
                        <path d="M59.3693368,27.3166218 C55.7975751,27.3166218 52.9022902,24.3464663 52.9022902,20.6830984 C52.9022902,17.0197306 55.7975751,14.0495751 59.3693368,14.0495751 C62.9410984,14.0495751 65.8372642,17.0197306 65.8372642,20.6830984 C65.8372642,24.3464663 62.9410984,27.3166218 59.3693368,27.3166218 L59.3693368,27.3166218 Z M65.8266943,9.37237306 L65.8266943,11.7189016 C64.8824456,10.3835648 62.0646736,8.82802073 58.7897513,8.82802073 C53.2281969,8.82802073 47.6974715,13.6364663 47.3645181,20.0700415 C47.3539482,20.2708705 47.3486632,20.4752228 47.3486632,20.6830984 C47.3486632,20.8918549 47.3539482,21.0962073 47.3645181,21.2970363 C47.6974715,27.7306114 53.2281969,32.5381762 58.7897513,32.5381762 C62.0646736,32.5381762 64.8824456,30.983513 65.8266943,29.6472953 L65.8266943,31.9938238 L71.8066425,31.9938238 L71.8066425,9.37237306 L65.8266943,9.37237306 Z" id="Fill-13"></path>
                    </g>
                    <g id="Group-17" transform="translate(5.284974, 0.332249)">
                        <mask id="mask-2" fill="white">
                            <use xlink:href="#path-1"></use>
                        </mask>
                        <g id="Clip-16"></g>
                        <path d="M13.8202073,0.548756477 C8.54492228,0.548756477 3.76906736,2.6865285 0.311813472,6.14378238 L0.311813472,6.14378238 L5.13611399,10.9680829 C7.3584456,8.7457513 10.4290155,7.3707772 13.8202073,7.3707772 L13.8202073,7.3707772 C17.2105181,7.3707772 20.2819689,8.7457513 22.5034197,10.9680829 L22.5034197,10.9680829 L27.3277202,6.14378238 C23.8713472,2.6865285 19.0954922,0.548756477 13.8202073,0.548756477 Z" id="Fill-15" fill="url(#linearGradient-3)" mask="url(#mask-2)"></path>
                    </g>
                    <g id="Group-20" transform="translate(0.000000, 3.855565)">
                        <mask id="mask-5" fill="white">
                            <use xlink:href="#path-4"></use>
                        </mask>
                        <g id="Clip-19"></g>
                        <path d="M33.2873212,28.9237824 C33.3903782,28.8092746 33.4907927,28.6912435 33.5912073,28.5732124 C33.6942642,28.4534197 33.7990829,28.3345078 33.8994974,28.2120725 C33.973487,28.1213472 34.0439534,28.0288601 34.1153005,27.9363731 C34.2359741,27.7831088 34.3575285,27.6298446 34.4737979,27.473057 C34.5222435,27.406114 34.5680466,27.339171 34.6156114,27.2731088 C34.7494974,27.0863731 34.8833834,26.8987565 35.0102228,26.7076166 C35.0384093,26.6662176 35.0639534,26.6239378 35.0903782,26.5825389 C35.2330725,26.3649741 35.3731244,26.1447668 35.5078912,25.9210363 C35.5202228,25.8998964 35.5325544,25.8769948 35.544886,25.8558549 C35.689342,25.6127461 35.828513,25.3669948 35.962399,25.1168394 C35.9685648,25.1053886 35.9747306,25.093057 35.9808964,25.0807254 C36.1183057,24.8217617 36.2513109,24.5601554 36.3763886,24.2941451 C36.3807927,24.2853368 36.3843161,24.2765285 36.3887202,24.2677202 C36.5137979,24.0017098 36.6344715,23.7321762 36.7480984,23.4591192 C36.7595492,23.4318135 36.7692383,23.4036269 36.7806891,23.3754404 C36.8846269,23.1217617 36.9859223,22.8672021 37.0792902,22.6082383 C37.1021917,22.543057 37.1224508,22.4769948 37.1453523,22.4118135 C37.2219845,22.1907254 37.2986166,21.9696373 37.3673212,21.7450259 C37.4113627,21.6032124 37.4483575,21.4596373 37.4888756,21.316943 C37.5311554,21.1672021 37.5760777,21.018342 37.6139534,20.8668394 C37.6835389,20.5990674 37.7451969,20.3286528 37.8015699,20.0564767 C37.8077358,20.029171 37.8147824,20.0009845 37.8209482,19.9736788 C38.1415699,18.4137306 38.270171,16.793886 38.1829689,15.1458549 C38.1785648,15.052487 38.1679948,14.9608808 38.161829,14.8683938 C38.1477358,14.650829 38.1345233,14.4332642 38.1125026,14.2139378 C37.9486684,12.5711917 37.5760777,10.9892228 37.0237979,9.49621762 C37.0229171,9.49181347 37.0211554,9.48829016 37.0193938,9.48476684 C36.8044715,8.90782383 36.5640052,8.34321244 36.297114,7.79357513 C36.2759741,7.75041451 36.2530725,7.70813472 36.2310518,7.66409326 C35.9800155,7.15673575 35.7078394,6.65994819 35.4145233,6.17901554 C35.3740052,6.1138342 35.3317254,6.05041451 35.2903264,5.98611399 C35.004057,5.52984456 34.7019326,5.08502591 34.3795492,4.65518135 C34.3284611,4.58823834 34.2738497,4.52305699 34.2227617,4.45611399 C33.8968549,4.03419689 33.5559741,3.6246114 33.1965959,3.23264249 C33.1463886,3.17803109 33.0944197,3.12606218 33.0433316,3.07233161 C32.9015181,2.91994819 32.7597047,2.76756477 32.613487,2.62046632 L32.598513,2.63455959 C31.9141088,1.95103627 31.1927098,1.30450777 30.4149378,0.732849741 L26.375456,6.23098446 C26.9374249,6.64409326 27.457114,7.11181347 27.9433316,7.61476684 C28.0913109,7.76803109 28.2331244,7.92658031 28.3722953,8.08689119 C28.4885648,8.2207772 28.6039534,8.35642487 28.7149378,8.49471503 C28.8497047,8.66559585 28.9800674,8.84088083 29.1060259,9.01880829 C29.2090829,9.16326425 29.3103782,9.30948187 29.4072694,9.45834197 C29.5235389,9.63715026 29.6336425,9.82036269 29.7402228,10.0062176 C29.8335907,10.1700518 29.9260777,10.3347668 30.0132798,10.5030052 C30.104886,10.6809326 30.1912073,10.8623834 30.2740052,11.044715 C30.3603264,11.2349741 30.4440052,11.426114 30.5206373,11.6207772 C30.5875803,11.791658 30.6501192,11.9651813 30.7100155,12.1387047 C30.7840052,12.3562694 30.8535907,12.5755959 30.9161295,12.7984456 C30.9628135,12.9640415 31.0042124,13.1305181 31.0447306,13.2987565 C31.099342,13.5312953 31.1477876,13.7664767 31.1891865,14.0051813 C31.2208964,14.1839896 31.2490829,14.3636788 31.2719845,14.5451295 C31.300171,14.7635751 31.3221917,14.9811399 31.3380466,15.1987047 C31.3547824,15.4153886 31.367114,15.6329534 31.3715181,15.8522798 C31.3759223,16.0354922 31.3750415,16.2178238 31.3715181,16.4001554 C31.367114,16.6415026 31.3547824,16.8810881 31.3354041,17.1189119 C31.3213109,17.2915544 31.3045751,17.4641969 31.2834352,17.6350777 C31.2561295,17.8640933 31.2208964,18.0913472 31.1803782,18.3168394 C31.1469067,18.4982902 31.1116736,18.6779793 31.0711554,18.8567876 C31.0244715,19.0620207 30.9707409,19.2637306 30.9143679,19.4645596 C30.8597565,19.6574611 30.8025026,19.8494819 30.7390829,20.0388601 C30.6774249,20.2194301 30.6113627,20.3964767 30.5435389,20.5726425 C30.4660259,20.7717098 30.3849896,20.9690155 30.2977876,21.1627979 C30.2246788,21.3257513 30.146285,21.4860622 30.0652487,21.6446114 C29.9674767,21.8392746 29.8670622,22.0312953 29.7578394,22.2197927 C29.6697565,22.3748187 29.5763886,22.5254404 29.4812591,22.6760622 C29.368513,22.8557513 29.2513627,23.0336788 29.1298083,23.2063212 C29.0214663,23.3595855 28.9087202,23.5084456 28.7933316,23.6564249 C28.6700155,23.8140933 28.5458187,23.9708808 28.415456,24.1223834 C28.2850933,24.2747668 28.1485648,24.4218653 28.0102746,24.5672021 C27.8825544,24.7037306 27.7521917,24.8376166 27.6183057,24.9670984 C27.4650415,25.1141969 27.3064922,25.2568912 27.1470622,25.3960622 C27.0122953,25.5123316 26.8775285,25.6268394 26.7383575,25.7378238 C26.5674767,25.8734715 26.3921917,26.0029534 26.2151451,26.1289119 C26.0698083,26.2319689 25.9244715,26.3341451 25.7747306,26.4310363 C25.5959223,26.5464249 25.4127098,26.6565285 25.2277358,26.7631088 C25.0639016,26.8573575 24.8991865,26.9498446 24.7300674,27.0370466 C24.5521399,27.1286528 24.3706891,27.2149741 24.1883575,27.297772 C23.9980984,27.3840933 23.8078394,27.4668912 23.6122953,27.5435233 C23.4414145,27.6113472 23.2678912,27.673886 23.093487,27.7337824 C22.8768031,27.807772 22.6583575,27.8773575 22.4363886,27.9390155 C22.2699119,27.9856995 22.1025544,28.0288601 21.9343161,28.0684974 C21.7017772,28.1231088 21.465715,28.1715544 21.2278912,28.2129534 C21.0490829,28.2446632 20.8693938,28.2719689 20.687943,28.2957513 C20.4694974,28.3239378 20.2519326,28.3450777 20.0343679,28.3618135 C19.8176839,28.3785492 19.6001192,28.39 19.3799119,28.395285 C19.1975803,28.3988083 19.0143679,28.3988083 18.8329171,28.395285 C18.5915699,28.39 18.3519845,28.3785492 18.1141606,28.359171 C17.9415181,28.3450777 17.7688756,28.328342 17.5979948,28.3072021 C17.3689793,28.2790155 17.1417254,28.2437824 16.9162332,28.2032642 C16.7347824,28.1706736 16.5542124,28.1354404 16.3754041,28.0940415 C16.1719326,28.0482383 15.969342,27.9945078 15.7693938,27.9381347 C15.5756114,27.8835233 15.3835907,27.8262694 15.1942124,27.7619689 C15.0136425,27.7011917 14.8365959,27.6351295 14.6604301,27.5673057 C14.4613627,27.4889119 14.264057,27.4087565 14.0693938,27.3206736 C13.9073212,27.2475648 13.7478912,27.169171 13.589342,27.0898964 C13.3946788,26.9912435 13.202658,26.890829 13.0132798,26.782487 C12.8582539,26.6935233 12.7067513,26.6001554 12.5570104,26.5050259 C12.3773212,26.391399 12.1993938,26.2751295 12.0267513,26.1526943 C11.873487,26.0452332 11.7255078,25.9316062 11.5775285,25.8170984 C11.4189793,25.6946632 11.2621917,25.5695855 11.1115699,25.4392228 C10.9591865,25.3079793 10.8112073,25.1723316 10.6658705,25.0340415 C10.529342,24.9063212 10.3963368,24.7759585 10.2668549,24.6411917 C10.1188756,24.4888083 9.97618135,24.3302591 9.83701036,24.1690674 C9.72074093,24.0351813 9.60623316,23.9012953 9.49612953,23.7621244 C9.35960104,23.5912435 9.23011917,23.4159585 9.10327979,23.2380311 C9.0002228,23.0935751 8.89980829,22.9473575 8.80203627,22.7984974 C8.68664767,22.6196891 8.57742487,22.4355959 8.46996373,22.2506218 C8.37571503,22.0867876 8.28410881,21.9220725 8.19602591,21.7538342 C8.10441969,21.5759067 8.01897927,21.394456 7.93530052,21.2121244 C7.84897927,21.0218653 7.76706218,20.8307254 7.68954922,20.6360622 C7.62260622,20.4651813 7.55918653,20.291658 7.49929016,20.1172539 C7.42530052,19.9005699 7.35659585,19.6812435 7.29405699,19.4592746 C7.24737306,19.2936788 7.20509326,19.1263212 7.16457513,18.9580829 C7.11084456,18.725544 7.06239896,18.4894819 7.02011917,18.251658 C6.98929016,18.0728497 6.96110363,17.8931606 6.93732124,17.7117098 C6.90913472,17.4932642 6.88799482,17.2756995 6.87125907,17.0581347 C6.85540415,16.8414508 6.84307254,16.623886 6.83866839,16.4036788 C6.83338342,16.2204663 6.83426425,16.0381347 6.83778756,15.8566839 C6.84307254,15.6153368 6.85540415,15.3757513 6.87390155,15.1379275 C6.88887565,14.9644041 6.90473057,14.7926425 6.9267513,14.6217617 C6.95405699,14.3918653 6.98929016,14.1654922 7.03068912,13.94 C7.06327979,13.7585492 7.09851295,13.5779793 7.13903109,13.4000518 C7.18571503,13.1948187 7.23856477,12.9931088 7.29581865,12.7931606 C7.34954922,12.5993782 7.40680311,12.4064767 7.47198446,12.2170984 C7.53188083,12.0374093 7.59794301,11.8603627 7.66576684,11.6841969 C7.74327979,11.4851295 7.82431606,11.2878238 7.91239896,11.0931606 C7.98550777,10.9302073 8.06390155,10.7707772 8.14405699,10.612228 C8.24182902,10.4175648 8.34312435,10.225544 8.45058549,10.0370466 C8.54043005,9.88202073 8.6329171,9.73051813 8.72804663,9.57989637 C8.84167358,9.40108808 8.95794301,9.22316062 9.08037824,9.05051813 C9.48379793,8.4788601 9.92773575,7.93803109 10.421,7.44476684 C11.0384611,6.8273057 11.4198601,5.97466321 11.4198601,5.03305699 C11.4198601,3.1480829 9.89338342,1.62160622 8.00929016,1.62160622 C7.06768394,1.62160622 6.21416062,2.00300518 5.59669948,2.62046632 C4.91669948,3.29958549 4.29043005,4.0315544 3.71965285,4.80756477 C3.71612953,4.81108808 3.71260622,4.8146114 3.7090829,4.81813472 C3.6694456,4.87274611 3.63333161,4.92911917 3.5936943,4.98373057 C3.45980829,5.17046632 3.32680311,5.3580829 3.1990829,5.5492228 C3.1717772,5.59062176 3.14623316,5.63378238 3.11804663,5.67518135 C2.97623316,5.89274611 2.83618135,6.11207254 2.70317617,6.33492228 C2.6890829,6.35782383 2.67587047,6.38160622 2.66265803,6.4053886 C2.5190829,6.64761658 2.37991192,6.89160622 2.24690674,7.14 C2.24074093,7.15145078 2.23545596,7.16378238 2.23017098,7.17523316 C2.09188083,7.43331606 1.95975648,7.69580311 1.8329171,7.96093264 C1.82763212,7.97326425 1.82322798,7.98559585 1.81706218,7.99792746 C1.69286528,8.26129534 1.57307254,8.5273057 1.46120725,8.79772021 C1.44975648,8.82590674 1.43918653,8.85497409 1.42685492,8.88316062 C1.32379793,9.13595855 1.22426425,9.38963731 1.13089637,9.64683938 C1.10623316,9.71642487 1.08509326,9.78601036 1.06043005,9.85559585 C0.984678756,10.0731606 0.90980829,10.2907254 0.841984456,10.5118135 C0.799704663,10.6527461 0.761829016,10.7954404 0.721310881,10.9372539 C0.679031088,11.0887565 0.633227979,11.2384974 0.594471503,11.39 C0.527528497,11.6542487 0.467632124,11.9202591 0.410378238,12.1871503 C0.403331606,12.2197409 0.395404145,12.2514508 0.389238342,12.2849223 C0.0677357513,13.8439896 -0.059984456,15.4629534 0.0272176166,17.1109845 C0.126751295,19.0884456 0.529290155,20.9857513 1.18550777,22.7597409 C1.19519689,22.785285 1.20576684,22.810829 1.21633679,22.8372539 C1.31322798,23.0979793 1.41628497,23.356943 1.52462694,23.6115026 C1.58540415,23.7550777 1.65146632,23.8942487 1.71664767,24.0351813 C1.7783057,24.1717098 1.83644041,24.3082383 1.90162176,24.4421244 C2.0029171,24.6517617 2.11037824,24.8552332 2.21872021,25.0595855 C2.25219171,25.123886 2.28302073,25.1890674 2.31737306,25.252487 C2.44949741,25.4929534 2.58602591,25.7290155 2.72695855,25.9633161 C2.74281347,25.9897409 2.75690674,26.0170466 2.77364249,26.0434715 C2.92426425,26.2909845 3.08105181,26.5349741 3.24224352,26.7754404 C3.25105181,26.787772 3.25897927,26.8009845 3.26778756,26.8141969 C3.43250259,27.0573057 3.60250259,27.2968912 3.77778756,27.5320725 C3.78571503,27.5417617 3.79276166,27.5523316 3.80068912,27.5620207 C3.96892746,27.787513 4.14245078,28.008601 4.3221399,28.225285 C4.33887565,28.2473057 4.3556114,28.2684456 4.37234715,28.2895855 C4.53618135,28.487772 4.70530052,28.6806736 4.87618135,28.8718135 C4.91229534,28.9114508 4.94664767,28.9528497 4.98364249,28.992487 C5.13690674,29.1607254 5.29545596,29.3245596 5.45488601,29.4866321 C5.5121399,29.5465285 5.56939378,29.6081865 5.62840933,29.6663212 C5.76669948,29.8037306 5.90763212,29.9358549 6.0494456,30.0679793 C6.13664767,30.1490155 6.22120725,30.2318135 6.30840933,30.3102073 C6.42467876,30.4159067 6.5444715,30.5154404 6.66338342,30.6176166 C6.78229534,30.7197927 6.8994456,30.8228497 7.021,30.9223834 C7.11260622,30.9972539 7.20597409,31.0677202 7.29758031,31.1399482 C7.45084456,31.2606218 7.60410881,31.3812953 7.76089637,31.4975648 C7.82695855,31.5460104 7.89478238,31.5918135 7.96172539,31.6402591 C8.14758031,31.7741451 8.33431606,31.9062694 8.52545596,32.0339896 C8.56773575,32.0621762 8.61089637,32.0877202 8.65317617,32.1159067 C8.87074093,32.2577202 9.08918653,32.397772 9.3129171,32.5307772 C9.33405699,32.5439896 9.35519689,32.5554404 9.37809845,32.5686528 C9.62032642,32.7131088 9.86695855,32.8531606 10.1179948,32.9861658 C10.1268031,32.9914508 10.1373731,32.9967358 10.1470622,33.0020207 C10.4077876,33.1403109 10.6711554,33.2733161 10.9380466,33.4001554 C10.9486166,33.4045596 10.9591865,33.4089637 10.9679948,33.4133679 C11.2340052,33.5384456 11.502658,33.6591192 11.7739534,33.7718653 C11.8021399,33.7833161 11.8303264,33.7930052 11.8576321,33.804456 C12.1104301,33.9083938 12.3658705,34.0088083 12.6248342,34.1021762 C12.6908964,34.1259585 12.7569585,34.1462176 12.8221399,34.1691192 C13.043228,34.2457513 13.2643161,34.3223834 13.4880466,34.3910881 C13.6289793,34.4342487 13.7716736,34.4712435 13.9143679,34.5117617 C14.0649896,34.5540415 14.2147306,34.5998446 14.367114,34.638601 C14.6304819,34.7064249 14.8964922,34.7654404 15.1633834,34.8218135 C15.1959741,34.8288601 15.2276839,34.8376684 15.2602746,34.844715 C16.8202228,35.1653368 18.4391865,35.2939378 20.0872176,35.2067358 C22.0646788,35.1063212 23.9619845,34.7046632 25.7368549,34.0475648 C25.7579948,34.0396373 25.7791347,34.0299482 25.8002746,34.0220207 C26.0654041,33.922487 26.328772,33.8194301 26.5886166,33.7084456 C26.7295492,33.6485492 26.8660777,33.5833679 27.0052487,33.5199482 C27.1444197,33.4574093 27.2835907,33.3966321 27.4192383,33.3314508 C27.6279948,33.2301554 27.8314663,33.1235751 28.034057,33.016114 C28.0992383,32.9817617 28.1653005,32.9500518 28.2287202,32.9148187 C28.4700674,32.784456 28.7052487,32.6479275 28.9386684,32.5078756 C28.9650933,32.4911399 28.992399,32.4761658 29.0197047,32.4603109 C29.2698601,32.3079275 29.5156114,32.1493782 29.7569585,31.9873057 C29.7684093,31.9793782 29.7789793,31.9732124 29.7904301,31.9661658 C30.0344197,31.8014508 30.2731244,31.6296891 30.5091865,31.4544041 C30.5188756,31.4473575 30.5285648,31.4403109 30.5382539,31.4332642 C30.7628653,31.2650259 30.9821917,31.0923834 31.1979948,30.9153368 C31.2208964,30.8959585 31.2437979,30.878342 31.2666995,30.8598446 C31.4657668,30.6960104 31.6595492,30.5260104 31.8498083,30.3551295 C31.8894456,30.3198964 31.9299637,30.2864249 31.9687202,30.2503109 C32.1369585,30.0970466 32.2999119,29.9393782 32.4619845,29.7799482 C32.5218808,29.7209326 32.5835389,29.6636788 32.6434352,29.6037824 C32.7790829,29.4672539 32.9112073,29.3272021 33.0415699,29.1862694 C33.1243679,29.0990674 33.2071658,29.0127461 33.2873212,28.9237824 Z" id="Fill-18" fill="#FFFFFF" mask="url(#mask-5)"></path>
                    </g>
                </g>
            </g>
        </g>
    </g>
</svg>