<?xml version="1.0" encoding="utf-8"?>
<!-- Generator: Adobe Illustrator 25.4.1, SVG Export Plug-In . SVG Version: 6.00 Build 0)  -->
<svg version="1.1" id="fe695251-2005-4fe4-9b01-424f23378523"
	 xmlns="http://www.w3.org/2000/svg" xmlns:xlink="http://www.w3.org/1999/xlink" x="0px" y="0px" viewBox="0 0 161.3 40"
	 style="enable-background:new 0 0 161.3 40;" xml:space="preserve">
<style type="text/css">
	.st0{fill:#003781;}
</style>
<path class="st0" d="M6.3,31.7l1.9-6.3h7.4l1.8,6.3h6.9l-6.8-24c-0.2-1.3-1.4-2.2-2.7-2.1H5v2.3h0.8c1,0,1.6,0.4,1.6,1.2
	c-0.1,0.7-0.2,1.4-0.5,2.1L0,31.7H6.3z M14.7,21.2H9.2l2.9-9.6L14.7,21.2z"/>
<path class="st0" d="M32.2,31.7V7.7c0.1-1-0.6-1.9-1.6-2c-0.1,0-0.2,0-0.4,0h-6v2.3h0.4c1,0,1.4,0.4,1.4,1.5v22.3H32.2z"/>
<path class="st0" d="M42.6,31.7V7.7c0.1-1-0.6-1.9-1.6-2c-0.1,0-0.2,0-0.3,0h-6v2.3H35c1,0,1.5,0.4,1.5,1.5v22.3H42.6z"/>
<path class="st0" d="M53.2,31.7V14.2c0.1-1-0.6-1.9-1.6-2c0,0,0,0,0,0h-6.3v2.2h0.3c1,0,1.4,0.5,1.4,1.5v15.9H53.2z M53.3,8
	c0-1.7-1.3-2.8-3.5-2.8S46.3,6.3,46.3,8s1.3,2.8,3.5,2.8S53.3,9.8,53.3,8"/>
<path class="st0" d="M58.4,17.8c1.9-0.9,3.9-1.4,6-1.5c1.7,0,2.2,0.6,2.2,2.3V19c-2.5,0.4-3.3,0.5-4.7,0.9c-0.8,0.2-1.6,0.4-2.3,0.7
	c-2.5,1-3.6,2.9-3.6,5.8c0,3.7,1.6,5.5,4.9,5.5c1.1,0,2.2-0.2,3.3-0.6c0.9-0.4,1.8-1,2.6-1.7v0.3c-0.1,0.9,0.5,1.7,1.4,1.8
	c0.1,0,0.3,0,0.4,0h5.6v-2.1H74c-1.1,0-1.4-0.5-1.4-1.7v-9.3c0-5-1.7-6.7-6.7-6.7c-1.6,0-3.1,0.2-4.7,0.6c-1.5,0.3-2.9,0.8-4.2,1.5
	L58.4,17.8z M66.6,22.4v3.8c-0.8,1-2,1.6-3.3,1.7c-1.1,0-1.5-0.5-1.5-2s0.3-2.1,1.4-2.5C64.3,22.9,65.5,22.5,66.6,22.4"/>
<path class="st0" d="M83.2,31.7V18.5c0.8-1,2-1.6,3.3-1.6c1.3,0,1.6,0.5,1.6,2.5v12.4h6.1V18.4c0-3.1-0.2-4.1-1.2-5.1
	c-1-1-2.3-1.4-3.7-1.3c-2.4,0-4.1,0.7-6.3,2.9V14c0.1-0.9-0.5-1.7-1.4-1.9c-0.2,0-0.3,0-0.5,0h-5.7v2.2h0.3c1,0,1.4,0.5,1.4,1.5
	v15.9H83.2z"/>
<path class="st0" d="M112.2,27.6h-8.5l8.1-11.4v-4H99.1c-1-0.1-1.9,0.5-2.1,1.5c0,0.2,0,0.4,0,0.6v3.6h2.3v-0.4
	c0-0.9,0.5-1.3,1.4-1.3h4.4l-8.2,11.5v4h15.3V27.6z"/>
<path class="st0" d="M161.3,20c0-11-9-20-20-20s-20,9-20,20l0,0c0,11,9,20,20,20S161.3,31,161.3,20 M157.9,20
	c0,9.7-7,16.8-16.6,16.8s-16.6-7.1-16.6-16.8s7-16.8,16.6-16.8S157.9,10.3,157.9,20 M135.9,31.2V11.7h-3.4c-1.7,0-2.3,0.6-2.3,2.4
	v17.2H135.9z M146.8,31.2h5.7V14c0-1.7-0.7-2.4-2.4-2.4h-3.4V31.2z M144.2,31.2V9.1c0-1.8-0.6-2.3-2.3-2.3h-5.2v2.5h0.3
	c1.2,0,1.4,0.3,1.4,1.7v20.3L144.2,31.2z"/>
</svg>
