<svg xmlns="http://www.w3.org/2000/svg" width="130" height="32">
  <path fill="#003781" fill-rule="evenodd" d="M5.088 25.376l1.507-5.03h5.959l1.412 5.03h5.52L14.001 6.19c-.315-1.133-1.004-1.657-2.2-1.657H3.993v1.812h.657c.815 0 1.257.317 1.257.94 0 .407-.092.75-.416 1.684L0 25.376h5.088zm6.714-8.44H7.38l2.353-7.653 2.069 7.654zm14.042 8.44h-4.921V7.509c0-.82-.344-1.163-1.158-1.163h-.315V4.534h4.829c.975 0 1.565.594 1.565 1.597v19.245zm8.372 0h-4.925V7.509c0-.82-.344-1.163-1.164-1.163h-.307V4.534h4.827c.97 0 1.569.594 1.569 1.597v19.245zm8.495 0h-4.897V12.719c0-.813-.344-1.186-1.16-1.186h-.28V9.755h4.765c.973 0 1.572.592 1.572 1.591v14.03zm.092-18.94c0 1.414-1.038 2.251-2.822 2.251-1.755 0-2.827-.837-2.827-2.251 0-1.398 1.072-2.243 2.827-2.243 1.784 0 2.822.845 2.822 2.243zm4.065 7.79l-1.09-3.002c1.466-.721 2.096-.972 3.325-1.25 1.22-.28 2.474-.443 3.757-.443 3.987 0 5.369 1.381 5.369 5.348v7.44c0 .997.312 1.375 1.158 1.375h.22v1.682h-4.483c-.976 0-1.474-.497-1.474-1.465v-.217c-1.007.781-1.414 1.037-2.102 1.341a7.144 7.144 0 0 1-2.638.496c-2.665 0-3.949-1.436-3.949-4.404 0-2.341.934-3.863 2.913-4.654.595-.252 1.2-.437 1.852-.59 1.132-.25 1.759-.377 3.765-.693v-.348c0-1.367-.47-1.836-1.792-1.836-1.409 0-3.197.439-4.83 1.22zm6.623 3.647v3.037c-.819.844-1.818 1.35-2.663 1.35-.883 0-1.192-.433-1.192-1.603 0-1.156.246-1.682 1.126-2.023.657-.284 1.505-.533 2.73-.76zm13.258 7.503h-4.89V12.719c0-.813-.35-1.186-1.165-1.186h-.282V9.755h4.646c1.002 0 1.512.497 1.512 1.47v.623c1.81-1.687 3.158-2.279 5.072-2.279 1.29 0 2.294.37 2.954 1.094.787.838.967 1.62.967 4.092v10.62h-4.892v-9.897c0-1.571-.247-1.98-1.286-1.98-.973 0-1.816.409-2.636 1.316v10.562zm23.332-3.28v3.28H77.756V22.16l6.587-9.22h-3.517c-.78 0-1.156.345-1.156 1.062v.278h-1.817v-2.838c0-1.16.532-1.69 1.694-1.69h10.222v3.224l-6.526 9.12h6.838zm39.421-6.094c0 9.161-6.87 15.998-16.059 15.998-9.193 0-16.062-6.837-16.062-15.998C97.381 6.852 104.25 0 113.443 0c9.189 0 16.06 6.852 16.06 16.002zm-2.728 0c0 7.782-5.616 13.439-13.33 13.439-7.717 0-13.333-5.657-13.333-13.439 0-7.783 5.616-13.44 13.332-13.44 7.715 0 13.33 5.692 13.33 13.44zm-17.691 8.976V9.346h-2.73c-1.35 0-1.88.498-1.88 1.879v13.753h4.61zm8.724 0h4.608V11.225c0-1.38-.535-1.879-1.885-1.879h-2.723v15.632zm-2.046 0V7.318c0-1.406-.501-1.88-1.874-1.88h-4.148V7.41h.248c.947 0 1.13.212 1.13 1.348v16.22h4.644z"/>
</svg>