<svg xmlns="http://www.w3.org/2000/svg" width="405" height="58" viewBox="0 0 405 58" fill="none">
<path d="M395.449 39.0735V35.6757H398.847V39.0735H395.449Z" fill="#2968FE"/>
<path d="M384.513 39.535C382.862 39.535 381.412 39.1762 380.162 38.4587C378.921 37.731 377.953 36.7214 377.256 35.4299C376.569 34.1281 376.226 32.6214 376.226 30.9096C376.226 29.0954 376.564 27.522 377.24 26.1895C377.927 24.8571 378.88 23.8269 380.1 23.0992C381.32 22.3714 382.739 22.0076 384.359 22.0076C386.05 22.0076 387.49 22.4022 388.679 23.1914C389.868 23.9704 390.755 25.0826 391.339 26.5278C391.934 27.973 392.169 29.6899 392.046 31.6784H388.833V30.5099C388.813 28.5829 388.444 27.1582 387.726 26.2357C387.019 25.3132 385.937 24.8519 384.482 24.8519C382.873 24.8519 381.663 25.3593 380.853 26.374C380.044 27.3888 379.639 28.8545 379.639 30.7713C379.639 32.5958 380.044 34.0103 380.853 35.0147C381.663 36.009 382.832 36.5061 384.359 36.5061C385.363 36.5061 386.23 36.2806 386.957 35.8296C387.695 35.3684 388.269 34.7124 388.679 33.8616L391.831 34.861C391.185 36.3472 390.207 37.5004 388.895 38.3204C387.583 39.1301 386.122 39.535 384.513 39.535ZM378.593 31.6784V29.1723H390.447V31.6784H378.593Z" fill="#2968FE"/>
<path d="M365.692 39.0737L359.666 22.4688H362.91L367.322 35.0454L371.735 22.4688H374.979L368.952 39.0737H365.692Z" fill="#2968FE"/>
<path d="M350.276 39.535C348.615 39.535 347.175 39.1609 345.956 38.4126C344.736 37.6644 343.793 36.6342 343.127 35.3222C342.471 34 342.143 32.4779 342.143 30.7559C342.143 29.0237 342.481 27.5015 343.157 26.1895C343.834 24.8673 344.782 23.8423 346.002 23.1146C347.221 22.3766 348.646 22.0076 350.276 22.0076C351.936 22.0076 353.377 22.3817 354.596 23.1299C355.816 23.8782 356.759 24.9083 357.425 26.2203C358.091 27.5323 358.425 29.0442 358.425 30.7559C358.425 32.4881 358.086 34.0154 357.41 35.3376C356.744 36.6496 355.801 37.6797 354.581 38.428C353.361 39.166 351.926 39.535 350.276 39.535ZM350.276 36.5061C351.865 36.5061 353.049 35.9731 353.828 34.9071C354.617 33.8309 355.011 32.4471 355.011 30.7559C355.011 29.0237 354.612 27.6399 353.812 26.6047C353.023 25.5592 351.844 25.0364 350.276 25.0364C349.2 25.0364 348.313 25.2824 347.616 25.7744C346.919 26.2562 346.401 26.9275 346.063 27.7885C345.725 28.6393 345.556 29.6284 345.556 30.7559C345.556 32.4984 345.956 33.8924 346.755 34.9379C347.555 35.9834 348.728 36.5061 350.276 36.5061Z" fill="#2968FE"/>
<path d="M335.235 39.0737V16.4725H338.448V39.0737H335.235Z" fill="#2968FE"/>
<path d="M316.111 39.5195C314.963 39.5195 314 39.335 313.221 38.966C312.442 38.597 311.806 38.1153 311.314 37.5208C310.832 36.916 310.463 36.2601 310.207 35.5528C309.951 34.8456 309.777 34.1537 309.684 33.4772C309.592 32.8007 309.546 32.2062 309.546 31.6937V22.4688H312.805V30.6328C312.805 31.2786 312.857 31.9448 312.959 32.6316C313.072 33.3081 313.277 33.9384 313.574 34.5227C313.882 35.1069 314.307 35.5784 314.85 35.9372C315.404 36.2959 316.121 36.4753 317.003 36.4753C317.577 36.4753 318.12 36.3831 318.632 36.1986C319.145 36.0038 319.591 35.6963 319.97 35.2761C320.36 34.8558 320.662 34.3023 320.877 33.6156C321.103 32.9288 321.215 32.0934 321.215 31.1095L323.214 31.8628C323.214 33.3696 322.932 34.7021 322.369 35.8603C321.805 37.0083 320.995 37.9052 319.939 38.5509C318.884 39.1967 317.607 39.5195 316.111 39.5195ZM321.6 39.0737V34.2767H321.215V22.4688H324.46V39.0737H321.6Z" fill="#2968FE"/>
<path d="M298.325 39.535C296.665 39.535 295.225 39.1609 294.005 38.4126C292.785 37.6644 291.842 36.6342 291.176 35.3222C290.52 34 290.192 32.4779 290.192 30.7559C290.192 29.0237 290.53 27.5015 291.207 26.1895C291.883 24.8673 292.831 23.8423 294.051 23.1146C295.271 22.3766 296.695 22.0076 298.325 22.0076C299.986 22.0076 301.426 22.3817 302.646 23.1299C303.865 23.8782 304.808 24.9083 305.475 26.2203C306.141 27.5323 306.474 29.0442 306.474 30.7559C306.474 32.4881 306.136 34.0154 305.459 35.3376C304.793 36.6496 303.85 37.6797 302.63 38.428C301.41 39.166 299.975 39.535 298.325 39.535ZM298.325 36.5061C299.914 36.5061 301.098 35.9731 301.877 34.9071C302.666 33.8309 303.061 32.4471 303.061 30.7559C303.061 29.0237 302.661 27.6399 301.861 26.6047C301.072 25.5592 299.893 25.0364 298.325 25.0364C297.249 25.0364 296.362 25.2824 295.665 25.7744C294.968 26.2562 294.451 26.9275 294.113 27.7885C293.774 28.6393 293.605 29.6284 293.605 30.7559C293.605 32.4984 294.005 33.8924 294.804 34.9379C295.604 35.9834 296.777 36.5061 298.325 36.5061Z" fill="#2968FE"/>
<path d="M277.084 46.4536L280.297 37.7053L280.343 40.2883L273.102 22.4688H276.453L281.865 36.2293H280.881L286.047 22.4688H289.307L280.143 46.4536H277.084Z" fill="#2968FE"/>
<path d="M256.792 39.0738V22.4688H259.651V26.4971L259.251 25.9743C259.456 25.4413 259.723 24.9545 260.051 24.5137C260.379 24.0627 260.758 23.6937 261.189 23.4067C261.609 23.0992 262.075 22.8635 262.588 22.6995C263.111 22.5252 263.644 22.4227 264.187 22.392C264.73 22.351 265.253 22.3766 265.755 22.4688V25.4823C265.212 25.3388 264.607 25.2978 263.941 25.3593C263.285 25.4208 262.68 25.631 262.127 25.9897C261.604 26.3279 261.189 26.7379 260.881 27.2197C260.584 27.7014 260.369 28.2396 260.235 28.8341C260.102 29.4183 260.036 30.0384 260.036 30.6944V39.0738H256.792Z" fill="#2968FE"/>
<path d="M245.808 39.535C244.158 39.535 242.707 39.1762 241.457 38.4587C240.217 37.731 239.248 36.7214 238.551 35.4299C237.864 34.1281 237.521 32.6214 237.521 30.9096C237.521 29.0954 237.859 27.522 238.536 26.1895C239.222 24.8571 240.176 23.8269 241.395 23.0992C242.615 22.3714 244.035 22.0076 245.654 22.0076C247.346 22.0076 248.786 22.4022 249.975 23.1914C251.164 23.9704 252.05 25.0826 252.635 26.5278C253.229 27.973 253.465 29.6899 253.342 31.6784H250.128V30.5099C250.108 28.5829 249.739 27.1582 249.021 26.2357C248.314 25.3132 247.233 24.8519 245.777 24.8519C244.168 24.8519 242.959 25.3593 242.149 26.374C241.339 27.3888 240.934 28.8545 240.934 30.7713C240.934 32.5958 241.339 34.0103 242.149 35.0147C242.959 36.009 244.127 36.5061 245.654 36.5061C246.659 36.5061 247.525 36.2806 248.253 35.8296C248.991 35.3684 249.565 34.7124 249.975 33.8616L253.127 34.861C252.481 36.3472 251.502 37.5004 250.19 38.3204C248.878 39.1301 247.417 39.535 245.808 39.535ZM239.889 31.6784V29.1723H251.743V31.6784H239.889Z" fill="#2968FE"/>
<path d="M235.693 39.0736C234.648 39.2786 233.623 39.3657 232.618 39.335C231.614 39.3042 230.717 39.1095 229.928 38.7507C229.139 38.392 228.544 37.8282 228.144 37.0595C227.786 36.3727 227.591 35.6757 227.56 34.9685C227.54 34.251 227.529 33.4412 227.529 32.5392V17.8562H230.758V32.3855C230.758 33.0517 230.763 33.6309 230.773 34.1229C230.794 34.6149 230.902 35.03 231.096 35.3682C231.465 36.0037 232.05 36.3676 232.849 36.4599C233.659 36.5419 234.607 36.506 235.693 36.3522V39.0736ZM224.347 25.0517V22.4687H235.693V25.0517H224.347Z" fill="#2968FE"/>
<path d="M213.374 39.535C212.144 39.535 211.114 39.3095 210.284 38.8585C209.453 38.3972 208.823 37.7925 208.393 37.0442C207.972 36.2857 207.762 35.4555 207.762 34.5535C207.762 33.713 207.911 32.975 208.208 32.3395C208.505 31.704 208.946 31.1659 209.53 30.7251C210.115 30.2741 210.832 29.9103 211.683 29.6335C212.421 29.4183 213.256 29.2287 214.189 29.0647C215.122 28.9007 216.101 28.7469 217.126 28.6034C218.161 28.4599 219.186 28.3164 220.201 28.1729L219.032 28.8187C219.053 27.5169 218.776 26.5534 218.202 25.9282C217.638 25.2927 216.664 24.9749 215.281 24.9749C214.409 24.9749 213.61 25.1799 212.882 25.5899C212.154 25.9897 211.647 26.6559 211.36 27.5887L208.362 26.6662C208.772 25.2414 209.551 24.1088 210.699 23.2683C211.857 22.4278 213.395 22.0076 215.311 22.0076C216.798 22.0076 218.089 22.2638 219.186 22.7763C220.293 23.2786 221.103 24.0781 221.615 25.1748C221.882 25.718 222.046 26.292 222.107 26.8968C222.169 27.5015 222.199 28.1524 222.199 28.8494V39.0737H219.355V35.2761L219.908 35.7681C219.222 37.0391 218.345 37.9872 217.279 38.6125C216.224 39.2275 214.922 39.535 213.374 39.535ZM213.943 36.9059C214.855 36.9059 215.639 36.747 216.295 36.4292C216.951 36.1012 217.479 35.6861 217.879 35.1839C218.279 34.6816 218.54 34.1589 218.663 33.6156C218.837 33.1236 218.935 32.5701 218.955 31.9551C218.986 31.3401 219.001 30.8481 219.001 30.4791L220.047 30.8635C219.032 31.0173 218.11 31.1556 217.279 31.2786C216.449 31.4016 215.696 31.5246 215.019 31.6476C214.353 31.7604 213.758 31.8988 213.236 32.0628C212.795 32.2165 212.4 32.401 212.052 32.6163C211.714 32.8315 211.442 33.0929 211.237 33.4004C211.042 33.7079 210.945 34.082 210.945 34.5228C210.945 34.9532 211.052 35.353 211.268 35.722C211.483 36.0807 211.811 36.3677 212.252 36.583C212.692 36.7982 213.256 36.9059 213.943 36.9059Z" fill="#2968FE"/>
<path d="M185.147 39.0736L178.72 16.9337H182.087L186.746 33.677L191.405 16.9491L194.787 16.9337L199.446 33.677L204.104 16.9337H207.487L201.045 39.0736H197.847L193.096 22.5148L188.345 39.0736H185.147Z" fill="#2968FE"/>
<path d="M396 22.4015V22H398.93V22.4015H397.71V25.5846H397.22V22.4015H396Z" fill="#2968FE"/>
<path d="M400.017 22L401.173 25.0137L402.333 22H403V25.5846H402.539V22.6023H402.53L401.387 25.5846H400.972L399.829 22.6023H399.82V25.5846H399.358V22H400.025H400.017Z" fill="#2968FE"/>
<g clip-path="url(#clip0_112_17222)">
<path d="M112.593 19.3494C111.592 19.1927 110.643 19.7447 110.266 20.6222C109.979 20.4203 108.455 19.339 106.261 19.339C104.593 19.339 103.072 19.9327 101.773 20.7894C99.8196 22.0865 98.2627 23.9914 97.1221 26.1121C95.9923 28.2363 95.277 30.5852 95.2699 32.8992C95.2699 33.2683 95.2948 33.6375 95.3357 34.0048C95.3357 34.0048 94.4069 36.2248 91.9479 36.2248C90.7504 36.2248 88.4906 35.4465 88.3608 32.7286C88.3536 32.5579 88.4035 32.0826 88.4088 32.0216L89.9586 21.7453C90.133 20.5909 89.3162 19.5166 88.1401 19.3477C86.9604 19.1771 85.8626 19.9763 85.69 21.1272L83.8644 33.2335C83.6029 34.9503 82.0922 36.2579 80.3165 36.2213C77.5923 36.1708 76.6172 33.667 76.7293 32.7251C76.7507 32.5544 76.7436 32.3768 76.7685 32.1992C76.7685 32.1888 80.5335 7.5008 80.5335 7.5008C80.7079 6.3464 79.8983 5.2721 78.7186 5.09973C77.5389 4.92909 76.4411 5.72133 76.2649 6.87572L72.249 33.1935C71.9874 34.9137 70.4768 36.1883 68.701 36.1848C67.5641 36.1848 65.1798 35.3647 65.1139 32.6885C65.1139 32.5527 65.1282 32.4151 65.146 32.2759L68.9181 7.49906C69.0925 6.34466 68.2794 5.27036 67.1032 5.09799C65.9235 4.92735 64.8257 5.72307 64.6495 6.87398L60.6407 33.1917C60.3792 34.912 58.8685 36.197 57.0928 36.183C54.8633 36.1656 53.4914 34.36 53.5057 32.6868C53.5057 32.537 53.5199 32.3821 53.5412 32.2254L55.1106 21.7401C55.285 20.5857 54.4683 19.5114 53.2886 19.346C52.1089 19.1753 51.011 19.9745 50.842 21.1289L49.0342 33.1987C48.7727 34.912 47.1428 36.2475 45.4863 36.1865C42.6073 36.0803 41.8191 33.667 41.8991 32.6903C41.9134 32.5196 41.9134 32.342 41.9383 32.1644L43.4916 21.7435C43.6625 20.5891 42.8493 19.5148 41.6696 19.3494C40.4899 19.1823 39.3921 19.978 39.2231 21.1324L37.6697 31.5498C37.611 31.9294 37.5825 32.3142 37.5825 32.6937C37.5825 34.7936 38.4544 36.7263 39.8743 38.1262C41.2871 39.5296 43.2835 40.4176 45.488 40.4141C47.7656 40.4141 49.8385 39.4617 51.2904 37.919C51.3562 37.9869 53.3811 40.4141 57.0928 40.4141C59.3703 40.4141 61.4432 39.4617 62.8951 37.919C62.961 37.9869 65.0339 40.4141 68.6975 40.4141C70.9697 40.4141 73.0373 39.4651 74.4892 37.9346C74.5586 38.0095 76.6208 40.4506 80.3093 40.4506C82.594 40.4506 84.674 39.4913 86.1259 37.9416C86.1953 38.013 88.2469 40.4506 91.939 40.4506C93.9976 40.4506 95.8819 39.6619 97.3018 38.3752C97.8214 38.9045 99.4993 40.4472 102.236 40.4472C104.972 40.4472 107.079 38.746 107.254 38.6172L106.567 42.8099C99.6932 42.0072 95.9496 44.5476 94.5403 45.8186C90.7308 49.2696 91.3696 53.5651 92.9034 55.4264C93.898 56.6348 94.9069 57.3382 96.4068 57.7352C98.3534 58.2506 100.684 58.0399 102.859 56.8037C102.901 56.7793 107.775 54.1606 109.907 47.7862C110.335 47.9133 110.654 48.0282 110.825 48.0909C111.939 48.5105 113.184 47.9638 113.613 46.8755C114.042 45.7856 113.483 44.5668 112.371 44.1471C112.047 44.027 111.495 43.8424 110.798 43.6422L114.371 21.7697C114.559 20.6187 113.757 19.534 112.581 19.3494L112.595 19.346L112.593 19.3494ZM103.099 51.1048C100.681 53.7131 99.2217 53.774 98.462 53.7653C97.9798 53.7653 97.0171 53.687 96.3926 52.9191C95.7022 52.0694 96.156 50.7757 96.414 50.2691C96.6684 49.7606 97.0421 49.2923 97.3908 48.9963C98.316 48.204 99.3623 47.6852 100.499 47.3474C101.633 47.0131 102.855 46.8755 104.061 46.8755C104.595 46.8755 105.122 46.9069 105.634 46.9574C104.971 48.7264 104.022 50.1054 103.097 51.1031H103.101L103.099 51.1048ZM108.298 30.0628C107.691 31.7361 106.65 33.3954 105.488 34.5324C104.912 35.1053 103.608 36.2196 102.247 36.2196C101.124 36.2196 100.272 35.4587 99.9957 34.851C99.7448 34.3008 99.5918 33.7071 99.5918 32.8975C99.5918 31.9555 99.8053 30.8359 100.213 29.7216C100.82 28.0483 101.86 26.389 103.022 25.252C103.599 24.6791 104.939 23.5648 106.264 23.5648C107.513 23.5648 108.261 24.4493 108.515 24.9334C108.77 25.4087 108.919 26.0773 108.919 26.8869C108.919 27.8289 108.706 28.9485 108.298 30.0628Z" fill="#2968FE"/>
<path d="M88.9058 17.0988C90.5262 17.0988 91.8399 15.8133 91.8399 14.2276C91.8399 12.6419 90.5262 11.3564 88.9058 11.3564C87.2853 11.3564 85.9717 12.6419 85.9717 14.2276C85.9717 15.8133 87.2853 17.0988 88.9058 17.0988Z" fill="#2968FE"/>
<path d="M34.5704 28.7568C33.5758 28.1177 32.2359 28.3876 31.5829 29.3644C30.2182 31.3998 26.172 36.1863 19.0565 36.1863C14.9783 36.1863 11.3111 34.5775 8.63504 31.9622C5.96606 29.347 4.32197 25.755 4.31841 21.7642C4.31841 17.7735 5.9625 14.1849 8.63504 11.5662C11.3076 8.95446 15.3377 7.15236 19.5796 7.36652C19.133 11.8605 20.0921 14.9389 21.4853 17.2128C23.955 21.2314 28.8446 22.983 32.5046 20.4148C35.5437 18.2836 35.6558 14.4165 34.3605 11.507C33.4192 9.39324 31.2555 7.52671 30.3516 6.81979C27.6435 4.70254 24.6543 3.92075 24.6543 3.92075C24.8073 3.42626 24.9372 3.06061 25.0101 2.87257C25.4389 1.7826 24.8802 0.563782 23.7682 0.144161C22.6543 -0.27546 21.4088 0.271266 20.98 1.3595C20.8376 1.72166 20.617 2.3537 20.3803 3.17553C8.86279 2.42683 0 11.3886 0 21.7677C0 32.1468 8.53006 40.4104 19.0512 40.4104C28.2876 40.4104 33.4619 34.2484 35.1878 31.6802C35.8408 30.7069 35.5651 29.3958 34.5669 28.7568H34.5704ZM23.8376 8.10303C23.9639 8.14482 26.8873 9.02411 29.2734 11.6063C31.7751 14.3173 30.6203 16.5634 29.9495 17.0143C28.599 17.9197 26.7218 16.922 25.9371 16.034C25.1525 15.1461 24.6116 14.1014 24.2521 12.9922C23.5582 10.8454 23.7984 8.56444 23.8376 8.10303Z" fill="#2968FE"/>
<path d="M154.179 21.5761C152.766 20.1727 150.77 19.2882 148.565 19.2882C146.643 19.2882 145.387 20.0352 145.25 20.1013C144.919 19.6887 144.437 19.3909 143.868 19.3091C142.688 19.1385 141.59 19.9376 141.421 21.092L139.613 33.1618C139.352 34.8751 137.841 36.1496 136.065 36.1496C133.418 36.1496 132.377 33.773 132.478 32.6534C132.493 32.4828 132.493 32.3052 132.517 32.1276L134.071 21.7067C134.242 20.5523 133.428 19.478 132.249 19.3126C131.251 19.1698 130.32 19.7217 129.95 20.5923C129.678 20.4043 128.16 19.3422 125.996 19.3422C124.329 19.3422 122.808 19.9359 121.509 20.7926C119.555 22.0897 117.998 23.9946 116.858 26.1153C115.728 28.2395 115.012 30.5884 115.005 32.9024C115.005 34.2204 115.249 35.542 115.874 36.7608C116.491 37.9761 118.404 40.4486 121.98 40.4486C125.745 40.4486 128.411 37.4607 129.217 36.4979C129.558 37.0812 131.576 40.3807 136.062 40.3807C139.976 40.3807 143.302 37.5774 143.88 33.7851L144.944 26.9563V26.9354C145.071 26.0718 146.145 23.5488 148.565 23.5175C151.15 23.4827 152.261 25.9482 152.152 27.0137L150.631 37.4677C150.453 38.6221 151.263 39.6999 152.442 39.874C153.622 40.0481 154.723 39.2559 154.901 38.1015C154.901 38.1015 156.474 27.3951 156.474 27.0155C156.474 24.9156 155.602 22.9829 154.182 21.583V21.5796L154.179 21.5761ZM128.039 30.0608C127.432 31.734 126.391 33.3934 125.229 34.5304C124.653 35.1032 123.349 36.2176 121.987 36.2176C120.865 36.2176 120.012 35.4567 119.737 34.849C119.486 34.2988 119.333 33.705 119.333 32.8954C119.333 31.9534 119.546 30.8339 119.954 29.7195C120.56 28.0463 121.601 26.3869 122.763 25.2499C123.34 24.6771 124.68 23.5628 126.005 23.5628C127.254 23.5628 128.002 24.4473 128.256 24.9313C128.51 25.4067 128.66 26.0753 128.66 26.8849C128.66 27.8269 128.446 28.9464 128.039 30.0608Z" fill="#2968FE"/>
<path d="M156.269 37.2413V36.907H158.708V37.2413H157.693V39.8913H157.285V37.2413H156.269Z" fill="#2968FE"/>
<path d="M159.613 36.907L160.576 39.416L161.542 36.907H162.097V39.8913H161.713V37.4084H161.705L160.754 39.8913H160.408L159.456 37.4084H159.449V39.8913H159.065V36.907H159.62H159.613Z" fill="#2968FE"/>
</g>
<defs>
<clipPath id="clip0_112_17222">
<rect width="162.096" height="58" fill="white"/>
</clipPath>
</defs>
</svg>