<?xml version="1.0" encoding="UTF-8"?>
<svg xmlns="http://www.w3.org/2000/svg" xmlns:xlink="http://www.w3.org/1999/xlink" width="920.013" height="64" viewBox="0 0 920.013 64">
  <defs>
    <clipPath id="clip-path">
      <path id="Path_1319" data-name="Path 1319" d="M0,0H920V64H0Z" transform="translate(0 0)" fill="none"></path>
    </clipPath>
  </defs>
  <g id="AT_Logo_White-Blue" data-name="AT Logo White-Blue" transform="translate(0 0)">
    <g id="Group_2" data-name="Group 2">
      <g id="Mask_Group_1" data-name="Mask Group 1" clip-path="url(#clip-path)">
        <path id="Path_1" data-name="Path 1" d="M.1,61.552,27.65,1.312A1.5,1.5,0,0,1,28.959.525a1.367,1.367,0,0,1,1.221.787l27.552,60.24c.263.613,0,1.05-.7,1.05H48.489a1.846,1.846,0,0,1-1.656-1.05l-2.441-5.333A3.881,3.881,0,0,0,40.9,54.033H16.926a3.884,3.884,0,0,0-3.488,2.186L11,61.552a1.821,1.821,0,0,1-1.57,1.05H.8c-.7,0-.959-.437-.7-1.05M21.461,44.241h15c1.482,0,2.006-.875,1.395-2.274L30.005,24.831q-.522-1.049-1.047-1.05t-1.047,1.05L19.978,41.967c-.61,1.4,0,2.274,1.482,2.274" fill="#fff"></path>
        <path id="Path_2" data-name="Path 2" d="M72.735,61.465V2.537A1.055,1.055,0,0,1,73.868,1.4h8.2A1.055,1.055,0,0,1,83.2,2.537V50.361a2.292,2.292,0,0,0,2.443,2.448H111.1a1.055,1.055,0,0,1,1.134,1.136v7.52A1.055,1.055,0,0,1,111.1,62.6H73.868a1.054,1.054,0,0,1-1.133-1.136" fill="#fff"></path>
        <path id="Path_3" data-name="Path 3" d="M114.154,10.055V2.536A1.055,1.055,0,0,1,115.287,1.4h47.954a1.056,1.056,0,0,1,1.134,1.137v7.519a1.055,1.055,0,0,1-1.134,1.136h-16.3a2.361,2.361,0,0,0-2.529,2.449V61.465a1.054,1.054,0,0,1-1.133,1.136h-8.2a1.1,1.1,0,0,1-1.134-1.136V13.64a2.292,2.292,0,0,0-2.44-2.449H115.287a1.054,1.054,0,0,1-1.133-1.136" fill="#fff"></path>
        <path id="Path_4" data-name="Path 4" d="M178.943,2.536A1.055,1.055,0,0,1,180.076,1.4h37.23a1.056,1.056,0,0,1,1.134,1.137v7.519a1.055,1.055,0,0,1-1.134,1.136H191.847a2.292,2.292,0,0,0-2.443,2.448V24.656a2.292,2.292,0,0,0,2.443,2.447h19.183a1.055,1.055,0,0,1,1.133,1.136v7.52a1.055,1.055,0,0,1-1.133,1.136H191.847a2.292,2.292,0,0,0-2.443,2.449V50.36a2.292,2.292,0,0,0,2.443,2.448h25.459a1.055,1.055,0,0,1,1.134,1.137v7.519a1.055,1.055,0,0,1-1.134,1.136h-37.23a1.054,1.054,0,0,1-1.133-1.136Z" fill="#fff"></path>
        <path id="Path_5" data-name="Path 5" d="M234.749,2.536A1.055,1.055,0,0,1,235.882,1.4h1.308a2.9,2.9,0,0,1,1.83.787l33.395,35.934c.436.437.7.613,1.045.613s.61-.438.61-1.312V2.536A1.056,1.056,0,0,1,275.205,1.4h8.2a1.055,1.055,0,0,1,1.133,1.137V61.464A1.054,1.054,0,0,1,283.4,62.6h-1.219a2.637,2.637,0,0,1-1.919-.874L246.868,25.7a1.349,1.349,0,0,0-1.047-.611c-.349,0-.611.437-.611,1.311v35.06a1.054,1.054,0,0,1-1.133,1.136h-8.2a1.054,1.054,0,0,1-1.133-1.136Z" fill="#fff"></path>
        <path id="Path_6" data-name="Path 6" d="M315.892,10.055V2.536A1.056,1.056,0,0,1,317.026,1.4H364.98a1.055,1.055,0,0,1,1.133,1.137v7.519a1.054,1.054,0,0,1-1.133,1.136h-16.3a2.362,2.362,0,0,0-2.53,2.449V61.465a1.054,1.054,0,0,1-1.133,1.136h-8.2a1.1,1.1,0,0,1-1.133-1.136V13.64a2.291,2.291,0,0,0-2.44-2.449H317.026a1.055,1.055,0,0,1-1.134-1.136" fill="#008bd2"></path>
        <path id="Path_7" data-name="Path 7" d="M378.066,2.536A1.055,1.055,0,0,1,379.2,1.4h37.23a1.056,1.056,0,0,1,1.134,1.137v7.519a1.055,1.055,0,0,1-1.134,1.136H390.97a2.292,2.292,0,0,0-2.443,2.448V24.656A2.292,2.292,0,0,0,390.97,27.1h19.183a1.055,1.055,0,0,1,1.133,1.136v7.52a1.055,1.055,0,0,1-1.133,1.136H390.97a2.292,2.292,0,0,0-2.443,2.449V50.36a2.292,2.292,0,0,0,2.443,2.448h25.459a1.055,1.055,0,0,1,1.134,1.137v7.519a1.055,1.055,0,0,1-1.134,1.136H379.2a1.054,1.054,0,0,1-1.133-1.136Z" fill="#008bd2"></path>
        <path id="Path_8" data-name="Path 8" d="M458.806.088c6.1,0,11.945,2.448,17.265,5.507a1.055,1.055,0,0,1,.262,1.574L471.624,13.9a.994.994,0,0,1-1.57.262,19.077,19.077,0,0,0-11.16-3.672c-27.466,0-27.466,43.016,0,43.016,5.666,0,9.154-1.749,11.246-3.5a.946.946,0,0,1,1.484.174l4.8,6.646a1.12,1.12,0,0,1-.262,1.573c-4.707,3.672-9.765,5.507-17.351,5.507-21.012,0-31.476-16-31.476-31.911,0-16,10.464-31.913,31.476-31.913" fill="#008bd2"></path>
        <path id="Path_9" data-name="Path 9" d="M490.55,1.4h8.2a1.056,1.056,0,0,1,1.134,1.137v22.12a2.29,2.29,0,0,0,2.44,2.447h24.239A2.291,2.291,0,0,0,529,24.656V2.536A1.1,1.1,0,0,1,530.134,1.4h8.2a1.055,1.055,0,0,1,1.133,1.137V61.464A1.055,1.055,0,0,1,538.33,62.6h-8.2A1.1,1.1,0,0,1,529,61.464V39.345a2.292,2.292,0,0,0-2.441-2.449H502.32a2.291,2.291,0,0,0-2.44,2.449V61.464a1.056,1.056,0,0,1-1.134,1.137h-8.2a1.056,1.056,0,0,1-1.134-1.137V2.536A1.056,1.056,0,0,1,490.55,1.4" fill="#008bd2"></path>
        <path id="Path_10" data-name="Path 10" d="M551.825,2.536A1.055,1.055,0,0,1,552.958,1.4h1.308a2.9,2.9,0,0,1,1.83.787l33.395,35.934c.436.437.7.613,1.045.613s.61-.438.61-1.312V2.536A1.056,1.056,0,0,1,592.281,1.4h8.2a1.055,1.055,0,0,1,1.133,1.137V61.464a1.054,1.054,0,0,1-1.133,1.136h-1.219a2.637,2.637,0,0,1-1.919-.874L563.944,25.7a1.349,1.349,0,0,0-1.047-.611c-.349,0-.611.437-.611,1.311v35.06a1.054,1.054,0,0,1-1.133,1.136h-8.2a1.054,1.054,0,0,1-1.133-1.136Z" fill="#008bd2"></path>
        <path id="Path_11" data-name="Path 11" d="M645.386,0c15.695,0,31.388,10.667,31.388,32S661.08,64,645.386,64C629.6,64,613.91,53.334,613.91,32S629.6,0,645.386,0m0,53.42c10.55,0,21.187-7.082,21.187-21.42s-10.637-21.421-21.187-21.421C634.749,10.579,624.2,17.663,624.2,32s10.55,21.42,21.187,21.42" fill="#008bd2"></path>
        <path id="Path_12" data-name="Path 12" d="M688.813,61.465V2.537A1.056,1.056,0,0,1,689.947,1.4h8.2a1.056,1.056,0,0,1,1.134,1.137V50.361a2.291,2.291,0,0,0,2.441,2.448h25.46a1.055,1.055,0,0,1,1.133,1.136v7.52a1.055,1.055,0,0,1-1.133,1.136H689.947a1.055,1.055,0,0,1-1.134-1.136" fill="#008bd2"></path>
        <path id="Path_13" data-name="Path 13" d="M767.463,0c15.695,0,31.388,10.667,31.388,32s-15.693,32-31.388,32c-15.781,0-31.476-10.666-31.476-32S751.682,0,767.463,0m0,53.42c10.55,0,21.187-7.082,21.187-21.42s-10.637-21.421-21.187-21.421c-10.637,0-21.187,7.083-21.187,21.421s10.55,21.42,21.187,21.42" fill="#008bd2"></path>
        <path id="Path_14" data-name="Path 14" d="M841.232.088c6.1,0,11.945,2.448,17.265,5.507a1.055,1.055,0,0,1,.262,1.574L854.049,13.9a.994.994,0,0,1-1.57.262,19.077,19.077,0,0,0-11.16-3.672c-27.466,0-27.466,43.016,0,43.016,3.4,0,10.2-.525,10.2-5.245V41.53a2.361,2.361,0,0,0-2.441-2.536H838.354a1.055,1.055,0,0,1-1.134-1.136v-7.52a1.055,1.055,0,0,1,1.134-1.136h22.582a1.055,1.055,0,0,1,1.134,1.136V55.432a2.465,2.465,0,0,1-.873,1.837,34.573,34.573,0,0,1-19.966,6.644c-21.012,0-31.476-16-31.476-31.911,0-16,10.464-31.913,31.476-31.913" fill="#008bd2"></path>
        <path id="Path_15" data-name="Path 15" d="M870.8,1.4h8.98a1.944,1.944,0,0,1,1.656.962L893.9,25.268c.349.613.785.962,1.221.962.349,0,.785-.349,1.133-.962L908.638,2.36a2.064,2.064,0,0,1,1.656-.962h8.98c.7,0,.871.438.61.962l-18.4,33.749a10.778,10.778,0,0,0-1.221,4.634V61.464a1.055,1.055,0,0,1-1.133,1.137h-8.2a1.055,1.055,0,0,1-1.133-1.137V40.743a10.682,10.682,0,0,0-1.133-4.634L870.186,2.36c-.262-.523-.086-.962.611-.962" fill="#008bd2"></path>
      </g>
    </g>
  </g>
</svg>
