<svg id="Layer_1" xmlns="http://www.w3.org/2000/svg" viewBox="0 0 141.1 236.9"><style>.st0{fill:#fbed21}.st1{fill:#eb2227}.st2{fill:#1c93d1}</style><path class="st0" d="M122.8 2.9h15.5v206.2H2.8v-41.9z"/><path class="st1" d="M2.8 2.8v164l120-163.9z"/><path d="M141.1 211.8H0V0h141.2l-.1 211.8zM5.6 206.3h130V5.6H5.6v200.7z"/><path class="st2" d="M.3 170.2l14 .7 105.4-143 1.1-22.3z"/><path d="M105.9 102.9L50.5 66.3l59.7-29.9zm-3.5 60.8H61.5L82.1 128z"/><path class="st1" d="M72.2 183.8c.1-8.4 18.7-7.7 26.3 0H72.2z"/><path d="M7.7 234.1l-2.2 2.8H0l10.4-13.8h4l10.2 13.8H19l-2.1-2.8H7.7zm4.5-7.1l-3 4.9h6.4l-3.4-4.9zm30.3 7.6h7.4v2.3H37.3v-13.4h5.2zm28.8 2.3h-5.2v-11.2h-5.5v-2.2h16.1v2.2h-5.4zm23.5-11.2v3h8.3v2.3h-8.3v3.6h8.7v2.3H89.6v-13.4h13.9v2.2zm23.1-2.6h3.8l14.1 9.4h.1v-9h5.2v13.7h-3.8l-14.1-9.4v9.1h-5.3z"/></svg>