<svg xmlns="http://www.w3.org/2000/svg" xmlns:xlink="http://www.w3.org/1999/xlink" width="231.264" height="67.169" viewBox="0 0 231.264 67.169">
  <defs>
    <clipPath id="clip-path">
      <rect id="Rectángulo_1376" data-name="Rectángulo 1376" width="231.264" height="67.169" fill="#3674ee"/>
    </clipPath>
  </defs>
  <g id="Grupo_463" data-name="Grupo 463" clip-path="url(#clip-path)">
    <path id="Trazado_876" data-name="Trazado 876" d="M194.5,67.169c.364-4.97.674-9.221.934-12.776s.439-6.079.519-7.592l2.862-45.576a4.381,4.381,0,0,0,.9.275,4.954,4.954,0,0,0,1.014.1,5.281,5.281,0,0,0,1.034-.1,4.641,4.641,0,0,0,.943-.275q2.4,11.56,4.984,22.8t5.325,22.311c1.758-7.127,3.491-14.464,5.189-21.961q2.547-11.269,4.99-23.151a5.209,5.209,0,0,0,.984.275,5.484,5.484,0,0,0,1.058.1,5.63,5.63,0,0,0,1.079-.1,4.771,4.771,0,0,0,.979-.275l2.547,46.141q.42,7.672.739,12.037t.679,7.767c-.729-.145-1.4-.26-2.018-.339a12.953,12.953,0,0,0-3.551-.016,16.808,16.808,0,0,0-1.913.355c-.009-.225-.025-.545-.04-1-.13-6.737-.239-10.923-.33-12.531l-1.438-30.778q-2.5,10.354-5.014,21.352-2.5,10.976-5.114,22.956a1.312,1.312,0,0,0-.34-.145,2.479,2.479,0,0,0-.6-.05,2.039,2.039,0,0,0-.54.05,1.247,1.247,0,0,0-.33.145q-2.592-11.778-5.079-22.461t-4.88-20.3l-1.069,20.044-.04.759q-.817,15.583-.829,21.957a5.2,5.2,0,0,0-.964-.355,3.339,3.339,0,0,0-.849-.114,3.256,3.256,0,0,0-.869.114,5.88,5.88,0,0,0-.959.355M183.011,34.633a11.732,11.732,0,0,0,5.414-6.078,27.727,27.727,0,0,0,1.823-10.838c0-5.6-.879-9.75-2.657-12.487a8.929,8.929,0,0,0-7.892-4.1H179.5c-1.608,0-3.3.065-5.07.174-1.763.13-2.727.195-2.886.195A7.921,7.921,0,0,1,170.4,1.4a10.291,10.291,0,0,1-1.243-.275q.277,6.878.419,14.895t.144,18.245q0,10.834-.144,18.516t-.419,14.385c.724-.165,1.388-.275,2-.355A13.549,13.549,0,0,1,172.9,66.7a13.065,13.065,0,0,1,1.738.114,15.828,15.828,0,0,1,1.853.355q-.172-5.095-.26-9.62c-.055-3.007-.09-5.918-.09-8.716V35.762Q178,41.778,179.7,47.555c.419,1.434.839,2.862,1.244,4.28,1.493,5.23,2.887,10.329,4.181,15.334.749-.165,1.443-.275,2.1-.355A15.33,15.33,0,0,1,189.1,66.7a15.771,15.771,0,0,1,1.9.114,19.487,19.487,0,0,1,2.068.355ZM179.7,31.776a5.7,5.7,0,0,1-3.417,1.014h-.18V18.421c0-1.883.015-3.811.03-5.774s.065-3.926.125-5.9a3.379,3.379,0,0,0,.49-.055,3.926,3.926,0,0,1,.469-.05,5.23,5.23,0,0,1,2.482.58,5.169,5.169,0,0,1,2.138,2.3q1.461,2.869,1.458,9.09c0,4.92-.559,8.526-1.668,10.779a6.234,6.234,0,0,1-1.928,2.382M146.744,67.169q.285-5.095.4-11.663c.085-4.4.125-11.458.125-21.238V29.429c0-7.308-.04-13-.125-17.122s-.21-7.817-.4-11.083c1.388.13,2.837.21,4.316.275s3.026.1,4.645.1,3.106-.034,4.455-.1,2.607-.144,3.8-.275c-.075,1.064-.12,1.9-.14,2.492s-.035,1.143-.035,1.643.01,1.029.035,1.573c.02.565.065,1.383.14,2.483q-3.334-.465-5.774-.724c-1.634-.18-3.042-.275-4.246-.31q-.09,1.746-.13,3.716c-.02,1.338-.03,3.287-.03,5.859v4.62l.025,6.563c.944-.065,2.547-.18,4.825-.36s4-.3,5.154-.4c-.07.979-.115,1.758-.14,2.332s-.03,1.159-.03,1.718q0,1.281.15,3.866a2.568,2.568,0,0,1,.02.29c-2.727-.355-4.81-.58-6.248-.71s-2.677-.195-3.756-.195v11.6c0,4.15.015,7.062.045,8.716.03,1.673.075,3.076.13,4.2,1.369-.1,2.887-.255,4.545-.495s3.481-.554,5.459-.919c-.045.629-.075,1.254-.1,1.868s-.03,1.239-.03,1.893.02,1.529.06,2.622.065,1.739.065,2c-2.977-.195-5.264-.3-6.868-.37s-2.887-.1-3.876-.1c-1.338,0-2.522.035-3.566.114a28.226,28.226,0,0,0-2.907.355m-6.523-49.178a34.568,34.568,0,0,0-3.7-10.683,11.989,11.989,0,0,0-4.51-4.666A12.623,12.623,0,0,0,126.9,1.3q-.93-.075-1.948-.075c-1.069,0-2.623.065-4.65.18s-3.511.194-4.454.194a15.215,15.215,0,0,1-1.773-.1,15.439,15.439,0,0,1-1.693-.275q.24,4.9.355,11t.125,16.817v13.8q0,9.485-.125,14.8c-.08,3.556-.195,6.722-.355,9.525.17-.03.44-.065.784-.1a20.794,20.794,0,0,1,2.423-.195q.892,0,3.421.144c1.684.1,3.077.145,4.161.145a16.959,16.959,0,0,0,3.731-.4q6.413-1.453,10.024-8.221,4.6-8.646,4.6-25.837a76.656,76.656,0,0,0-1.293-14.72m-8.836,36.756a12.192,12.192,0,0,1-4.49,5.909,8,8,0,0,1-4.3,1.184,7.221,7.221,0,0,1-1.453-.145,10.456,10.456,0,0,1-1.6-.415q-.046-4.345-.065-9.33t-.025-14.61q0-9.051.045-16.472c.03-4.954.075-9.575.125-13.836.3-.034.689-.064,1.184-.1.949-.06,1.558-.09,1.833-.09a9.516,9.516,0,0,1,4.251.919,10.182,10.182,0,0,1,4.69,5.35q2.735,6.256,2.737,20.449,0,14.1-2.937,21.187M98,67.169q.233-6.376.36-13.725c.08-4.885.12-11.293.12-19.175q0-11.463-.12-19.209T98,1.224a15.325,15.325,0,0,0,1.928.449,11.07,11.07,0,0,0,1.948.165,10.738,10.738,0,0,0,1.933-.165,14.654,14.654,0,0,0,1.9-.449q-.254,6.181-.374,13.945c-.085,5.2-.12,11.553-.12,19.1q0,12.3.12,19.58t.355,13.321a20.017,20.017,0,0,0-2.018-.355,14.293,14.293,0,0,0-1.793-.114,14.628,14.628,0,0,0-1.833.114c-.639.08-1.314.19-2.043.355M90.114,36.392a8.051,8.051,0,0,0-7.4-4.051v-.534a8.917,8.917,0,0,0,6.7-4.636q2.367-4.03,2.362-10.779,0-7.574-2.463-11.373a8.22,8.22,0,0,0-7.362-3.8c-.095,0-.195,0-.31,0-.515.015-1.239.06-2.187.14-1.159.095-2.043.144-2.667.144-.564,0-1.319-.034-2.252-.08s-2.063-.11-3.371-.21q.254,5.042.364,11.6t.115,21.447v8.576c0,6.323-.04,11.243-.125,14.8s-.2,6.722-.354,9.525a2.763,2.763,0,0,0,.37-.05,19.37,19.37,0,0,1,2.7-.32c.9,0,2.218.065,3.941.175,1.5.115,2.657.175,3.466.19.125,0,.24,0,.355,0q4.982,0,7.767-4.825c1.848-3.236,2.777-7.722,2.777-13.511,0-5.6-.809-9.739-2.428-12.441M78.067,18.715c0-2.387.03-4.575.075-6.548s.134-3.8.254-5.419a6.115,6.115,0,0,1,.889-.18,4.931,4.931,0,0,1,.529-.02,4.091,4.091,0,0,1,1.828.4A4.919,4.919,0,0,1,83.831,9.3c.924,1.848,1.384,4.52,1.384,8.046q0,6.555-1.539,9.715a5.687,5.687,0,0,1-2.033,2.422,4.884,4.884,0,0,1-2.682.73,2.858,2.858,0,0,1-.434-.051c-.21-.025-.355-.045-.46-.045Zm6.019,39.833a5.868,5.868,0,0,1-2.443,3.047,3.692,3.692,0,0,1-1.788.444,2.51,2.51,0,0,1-.674-.1,5.5,5.5,0,0,1-.9-.37c-.05-2.3-.1-4.605-.125-6.883-.03-2.3-.045-4.56-.045-6.743v-12.5a1.815,1.815,0,0,1,.544-.125c.19-.02.455-.02.789-.02a4.307,4.307,0,0,1,2.2.565A6.018,6.018,0,0,1,84,38.694q1.574,3.4,1.573,9.865c0,4.32-.495,7.657-1.483,9.989M29.334,67.169c.365-4.97.674-9.221.934-12.776s.439-6.079.524-7.592L33.649,1.224a4.288,4.288,0,0,0,.9.275,4.961,4.961,0,0,0,1.014.1A5.244,5.244,0,0,0,36.6,1.5a4.653,4.653,0,0,0,.944-.275q2.4,11.56,4.985,22.8t5.329,22.311c1.758-7.127,3.486-14.464,5.184-21.961Q55.6,13.106,58.033,1.224a5.218,5.218,0,0,0,.984.275,5.534,5.534,0,0,0,1.059.1,5.6,5.6,0,0,0,1.079-.1,4.685,4.685,0,0,0,.979-.275l2.547,46.141q.419,7.672.74,12.037t.674,7.767c-.724-.145-1.4-.26-2.013-.339A13.831,13.831,0,0,0,62.3,66.7a13.685,13.685,0,0,0-1.768.114,16.36,16.36,0,0,0-1.913.355c-.015-.225-.03-.545-.045-1-.13-6.737-.24-10.923-.33-12.531L56.814,22.861Q54.305,33.215,51.8,44.213q-2.5,10.976-5.12,22.956a1.232,1.232,0,0,0-.34-.145,2.477,2.477,0,0,0-.6-.05,2.038,2.038,0,0,0-.54.05,1.234,1.234,0,0,0-.329.145q-2.592-11.778-5.08-22.461t-4.88-20.3L33.844,44.453l-.04.759q-.816,15.583-.829,21.957a5.19,5.19,0,0,0-.964-.355,3.279,3.279,0,0,0-1.718,0,5.926,5.926,0,0,0-.959.355M21.642,32.805Q18.548,16.031,15.848,0a3.609,3.609,0,0,1-.774.205,4.131,4.131,0,0,1-.819.085,4.692,4.692,0,0,1-.869-.085A6.432,6.432,0,0,1,12.466,0l-.055.345Q9.43,18.393,6.353,34.943,3.252,51.665,0,67.169a.907.907,0,0,0,.24-.05,8.867,8.867,0,0,1,1.878-.32,4.035,4.035,0,0,1,.839.095c.295.065.654.145,1.079.275.36-2.143.764-4.535,1.208-7.207S6.338,53.218,7.2,47.75c.6-.06,1.268-.115,1.992-.145s1.793-.045,3.222-.05h.015c1.419,0,2.488.02,3.212.05s1.383.085,1.993.145q1.183,7.626,1.8,11.712t1.144,7.707a16.526,16.526,0,0,1,1.833-.275,19.62,19.62,0,0,1,2.018-.095,20.1,20.1,0,0,1,2.038.095,14.871,14.871,0,0,1,1.8.275q-3.521-17.592-6.628-34.364M13.92,41.556c-.534.021-1.024.021-1.493.021h-.015c-.864-.005-2.153-.07-3.846-.195H8.436c.624-3.961,1.273-7.772,1.953-11.458q.967-5.251,2.023-10.184l.1-.464Q13.575,24.557,14.55,30.1q.974,5.529,1.843,11.278c-1.118.089-1.943.16-2.472.174" fill="#3674ee"/>
  </g>
</svg>
