<svg width="142" height="60" viewBox="0 0 142 60" fill="none" xmlns="http://www.w3.org/2000/svg">
<path d="M141.739 0H0V60H141.739V0Z" fill="#FFFF00"/>
<path d="M17.7415 24.9369L18.8861 17.7499H18.9406L20.0852 24.9369H17.7415ZM17.1147 14.4287L14.0352 31.1438H16.8149L17.3327 27.4414H20.4939L21.0117 31.1438H23.7915L20.6847 14.4287H17.1147Z" fill="black"/>
<path d="M27.6879 18.0766H27.7424L30.3313 31.1438H31.7212L34.3374 18.0766H34.3647V31.1438H36.8719V14.4287H33.0838L31.0672 24.2019H31.0127L28.9687 14.4287H25.1807V31.1438H27.6879V18.0766Z" fill="black"/>
<path d="M45.7296 23.9841H45.6751L42.1868 14.4287H39.5161V31.1438H42.1051V20.6901H42.1596L45.8114 31.1438H48.3186V14.4287H45.7296V23.9841Z" fill="black"/>
<path d="M58.9741 28.6392H53.8507V23.7391H57.557V21.2345H53.8507V16.906H58.6743V14.4287H50.9619V31.1438H58.9741V28.6392Z" fill="black"/>
<path d="M62.8449 18.3215C62.8449 17.287 63.3627 16.6881 64.2893 16.6881C64.9433 16.6881 65.7064 17.0965 65.8154 18.5393L68.5406 18.2399C68.2954 15.8714 66.9055 14.1836 64.5618 14.1836C61.7276 14.1836 60.1197 15.6809 60.1197 18.3487C60.1197 23.14 65.9517 24.0112 65.9517 27.3324C65.9517 28.3397 65.2704 28.8569 64.2893 28.8569C63.3627 28.8569 62.6814 28.013 62.5724 26.3252L59.8472 26.7063C59.9562 29.2108 61.4823 31.3342 64.153 31.3342C66.851 31.3342 68.7042 29.8097 68.7042 27.0602C68.6769 22.5411 62.8449 21.18 62.8449 18.3215Z" fill="black"/>
<path d="M71.9741 31.1438H74.8356V16.906H77.6425V14.4287H69.1943V16.906H71.9741V31.1438Z" fill="black"/>
<path d="M83.3104 20.7717H83.2559L81.2392 14.4287H78.3232L81.8115 24.2019V31.1438H84.673V24.2019L88.1613 14.4287H85.2181L83.3104 20.7717Z" fill="black"/>
<path d="M122.281 33.4306C122.091 33.3489 122.063 32.75 121.954 32.75C121.791 32.75 121.709 33.2945 121.382 33.3762C121.055 33.4306 120.564 33.0223 120.428 33.1312C120.292 33.2401 120.728 34.0023 119.992 34.0023C119.774 34.0023 119.665 33.7573 119.665 33.5667V27.6593C119.665 27.6593 119.692 27.6593 120.019 27.741C120.237 27.7954 120.455 27.9043 120.455 28.2038C120.455 28.3671 120.401 28.6938 120.51 28.7482C120.619 28.8027 120.701 28.6938 120.755 28.6666C121.764 27.9315 122.009 29.2382 122.227 29.2382C122.418 29.2382 122.39 28.3399 122.663 28.3399C122.881 28.2582 124.952 29.2655 124.952 29.9188C124.952 30.0549 124.68 30.0822 124.652 30.2183C124.625 30.4088 125.143 30.4905 125.061 30.8444C125.034 31.0622 124.543 31.3344 124.68 31.4705C124.816 31.6067 125.47 31.3344 125.524 31.3344C125.661 31.3344 125.688 31.5522 125.688 31.6339C125.688 32.8045 122.908 33.7029 122.281 33.4306ZM114.841 34.3834C114.678 34.1112 114.76 33.6484 114.596 33.6484C114.514 33.6484 114.078 34.3018 113.833 34.3018C113.588 34.3018 113.179 33.839 113.016 33.839C112.907 33.839 113.125 34.4923 112.907 34.7646C112.77 34.9551 111.462 35.0912 111.462 34.9279V25.7264C111.462 25.2909 111.789 25.1275 112.089 25.1275H116.94C117.539 25.1275 117.785 25.3181 117.785 25.9442V34.1929C117.812 34.4651 114.95 34.574 114.841 34.3834ZM117.812 46.035C117.812 46.6067 117.621 46.7428 117.131 46.6339L111.953 45.5994C111.653 45.545 111.489 45.3544 111.489 45.0277V35.6629C111.489 35.4179 112.334 35.3907 112.471 35.4996C112.716 35.7174 112.634 36.5068 112.798 36.5068C113.016 36.5068 113.588 35.554 113.833 35.554C114.351 35.554 114.705 35.8535 114.814 35.799C114.923 35.7446 114.923 35.309 115.059 35.2001C115.25 35.064 115.823 35.064 116.122 35.0368C116.613 35.0096 117.512 34.9279 117.512 34.9279C117.866 34.9279 117.839 35.1729 117.839 35.6901V46.035H117.812ZM112.225 18.8934C112.225 15.1638 117.757 13.0132 118.139 11.1348C118.548 11.5159 118.602 12.1421 118.602 12.6865C118.602 14.946 114.651 18.7845 114.651 21.5341C114.651 21.8335 114.678 21.9152 114.678 22.1058C114.678 22.378 114.569 22.4324 114.514 22.4324C113.86 22.4052 112.225 21.1257 112.225 18.8934ZM109.173 42.2237C108.737 42.2237 108.464 41.3526 108.355 41.3798C108.219 41.407 108.383 42.1148 108.219 42.2237C108.083 42.3598 105.221 41.0259 105.003 40.8081C104.813 40.6175 105.085 40.3453 105.003 40.1548C104.949 39.9914 104.513 40.0459 104.377 39.9642C104.268 39.8553 104.513 39.3653 104.349 39.2564C104.213 39.1747 103.913 39.7464 103.723 39.4742C103.641 39.3653 103.614 39.1747 103.614 38.9297C103.614 37.2691 105.385 36.6157 106.557 36.2074C107.047 36.044 106.884 36.6702 107.047 36.6974C107.238 36.7519 107.265 36.3979 107.483 36.3979C107.647 36.3979 108.274 36.6974 108.41 36.5885C108.519 36.5068 108.083 36.0985 108.219 35.9352C108.383 35.799 109.636 35.554 109.636 35.8807V41.652C109.636 42.2782 109.173 42.2237 109.173 42.2237ZM126.178 32.26C126.478 31.7428 126.478 31.1166 126.587 30.8716C126.751 30.5994 127.35 30.6538 127.35 30.4633C127.35 30.3816 126.914 30.2727 126.751 30.1638C126.424 29.9733 126.533 28.9932 126.369 28.9932C126.124 28.9932 125.879 29.6738 125.633 29.3744C125.197 28.8299 123.426 27.7954 122.608 27.496C122.309 27.3871 122.826 26.4887 122.69 26.407C122.554 26.3254 122.2 26.9515 121.682 26.8426C121.273 26.7609 121.464 26.0259 121.246 26.0259C121.137 26.0259 120.728 27.0604 120.428 26.9787C120.101 26.897 119.665 26.7882 119.665 26.7882V24.0931C119.665 23.6303 119.365 23.2764 118.957 23.2764H116.041C115.223 23.2764 115.278 22.6774 115.278 22.5413C115.278 18.9479 120.51 18.349 120.51 13.6393C120.51 11.5704 119.202 10.2092 117.703 8.98416C117.621 8.92972 117.703 9.28362 117.703 9.41973C117.703 11.5976 109.555 12.741 109.555 17.8045C109.555 22.2147 113.942 22.4052 113.942 23.0858C113.942 23.2219 113.67 23.2764 113.642 23.2764H110.29C109.936 23.2764 109.636 23.4941 109.636 24.0931V26.8154C109.309 26.9243 108.873 26.4342 108.655 26.4342C108.546 26.4342 108.601 27.2782 108.41 27.3871C108.246 27.4687 105.194 28.5577 104.922 28.5849C104.486 28.6666 104.595 27.9043 104.349 27.9043C104.131 27.9043 104.131 28.6666 103.586 28.6666C103.259 28.6666 102.987 28.3671 102.741 28.3671C102.578 28.3671 103.096 28.9932 103.096 29.1838C103.096 29.701 102.087 29.8916 102.087 30.2455C102.087 30.4361 103.041 30.1638 103.177 30.1638C103.668 30.1638 103.614 30.7355 103.804 30.7355C103.995 30.7355 104.131 30.0822 104.295 29.9733C104.622 29.7827 105.003 30.1094 105.167 30.1094C105.439 30.1094 104.949 29.456 105.194 29.3471C105.194 29.3471 108.492 27.9315 108.71 28.0404C108.9 28.1493 108.873 28.476 109.091 28.5849C109.309 28.6938 109.636 27.8226 109.636 28.3671V35.0096C109.255 35.2546 108.437 35.3907 108.001 35.3907C107.783 35.3907 107.892 34.6829 107.756 34.6829C107.538 34.6829 107.32 35.2818 106.993 35.2818C106.693 35.2818 106.257 34.5468 105.957 34.5468C105.766 34.5468 106.312 35.4724 105.984 35.6357C104.731 36.2618 102.769 36.8607 102.769 38.8208C102.769 39.2292 102.987 39.7192 102.905 39.8553C102.823 40.0459 102.387 40.427 102.414 40.5903C102.414 40.7537 103.232 40.6992 103.396 40.9442C103.477 41.0803 103.532 41.6793 103.695 41.6793C103.832 41.6793 104.186 41.2165 104.486 41.3798C105.439 41.9515 107.075 42.5776 107.838 42.986C108.028 43.0949 107.919 43.6938 108.028 43.7482C108.246 43.8571 108.682 43.1765 109.364 43.5577C109.5 43.6121 109.636 43.8299 109.636 44.0749V46.28C109.636 46.6883 109.827 46.7972 110.045 46.8517L118.112 48.4578C118.112 48.4578 118.82 48.6212 119.066 48.6212C119.338 48.6212 119.692 48.6212 119.665 47.9406V42.9043C119.665 42.8499 119.72 42.741 119.829 42.741C120.292 42.741 120.074 44.1021 120.183 44.1021C120.401 44.1021 120.537 43.1765 120.81 43.1765C121.191 43.1765 121.437 43.5304 121.6 43.4488C121.736 43.3671 121.518 42.9315 121.518 42.6593C121.518 42.4143 122.227 42.3054 123.099 41.9787C123.862 41.7065 124.489 41.407 124.734 41.407C124.925 41.407 125.061 41.9243 125.225 41.9243C125.361 41.9243 125.388 41.2437 125.688 41.2437C125.933 41.2437 126.478 41.6248 126.614 41.5159C126.723 41.4342 126.342 40.917 126.642 40.6992C126.86 40.5631 127.378 40.2364 127.378 40.1003C127.378 40.0186 126.369 39.9914 126.315 39.9914C126.124 39.937 125.906 39.3381 125.77 39.3381C125.606 39.3381 125.606 39.937 125.361 40.1275C125.143 40.2909 124.598 39.5558 124.353 39.5558C124.216 39.5558 124.516 40.1003 124.516 40.5359C124.516 40.9715 121.9 41.8154 121.546 41.8154C121 41.8154 120.973 41.1348 120.864 41.1348C120.701 41.1348 120.701 41.9515 120.101 41.9515C119.801 41.9515 119.692 41.7337 119.692 41.5704V35.064C119.692 34.8734 119.747 34.6284 120.101 34.6012C120.537 34.574 120.564 35.5813 120.728 35.5813C121.028 35.5813 121.191 34.574 121.764 34.574C122.2 34.574 122.554 35.1729 122.826 35.1729C123.017 35.1729 122.499 34.5468 122.499 34.2473C122.472 33.9751 125.143 34.084 126.178 32.26Z" fill="black"/>
<path d="M16.1611 35.5264H14.417V45.599H16.1611V35.5264Z" fill="black"/>
<path d="M17.6602 45.599V35.5264H19.268L21.3937 41.2705H21.421V35.5264H22.9744V45.599H21.4755L19.268 39.3104H19.2408V45.599H17.6602Z" fill="black"/>
<path d="M25.4812 37.0236H23.8188V35.5264H28.8878V37.0236H27.2254V45.599H25.4812V37.0236Z" fill="black"/>
<path d="M29.7329 45.599V35.5264H34.3658V37.0236H31.4771V39.6099H33.7117V41.1344H31.4771V44.0745H34.5838V45.599H29.7329Z" fill="black"/>
<path d="M37.4176 45.599H35.7007V35.5264H38.1261C39.1072 35.5264 39.8158 35.7442 40.3063 36.2069C40.7969 36.6697 41.0421 37.432 41.0421 38.4937C41.0421 38.902 41.0149 39.2559 40.9331 39.5282C40.8514 39.8276 40.7696 40.0726 40.6606 40.2632C40.5516 40.4538 40.4153 40.6171 40.2791 40.7532C40.1428 40.8621 39.9793 40.971 39.843 41.0255L41.3147 45.599H39.5433L38.3169 41.4338C38.2079 41.461 38.0716 41.461 37.9081 41.461C37.7446 41.461 37.5811 41.461 37.4176 41.461V45.599ZM37.3086 40.0454H37.9354C38.1806 40.0454 38.3714 40.0182 38.5349 39.9638C38.6984 39.9093 38.8347 39.8276 38.9437 39.7187C39.0527 39.6099 39.1345 39.4465 39.1617 39.2287C39.2162 39.0382 39.2435 38.7659 39.2435 38.4937C39.2435 37.8948 39.1345 37.4864 38.9437 37.2687C38.7529 37.0509 38.4259 36.942 37.9626 36.942H37.3358V40.0454H37.3086Z" fill="black"/>
<path d="M42.4316 45.599V35.5264H44.0395L46.138 41.2705H46.1652V35.5264H47.7458V45.599H46.2197L44.0123 39.3104H43.985V45.599H42.4316Z" fill="black"/>
<path d="M50.362 45.599H48.6724L50.5255 35.5264H52.6784L54.5316 45.599H52.842L52.5422 43.3667H50.6345L50.362 45.599ZM50.9343 41.8422H52.3242L51.6429 37.5137H51.6156L50.9343 41.8422Z" fill="black"/>
<path d="M56.1131 37.0236H54.4507V35.5264H59.5196V37.0236H57.8572V45.599H56.1131V37.0236Z" fill="black"/>
<path d="M62.354 35.5264H60.6099V45.599H62.354V35.5264Z" fill="black"/>
<path d="M63.7163 37.9496C63.7163 37.5957 63.7708 37.269 63.8798 36.9423C63.9888 36.6157 64.1523 36.3434 64.3704 36.1257C64.5884 35.8806 64.8609 35.7173 65.1879 35.5812C65.515 35.4451 65.9237 35.3906 66.3598 35.3906C66.7958 35.3906 67.2046 35.4451 67.5316 35.5812C67.8587 35.7173 68.1312 35.9079 68.3492 36.1257C68.5672 36.3707 68.7307 36.6429 68.8397 36.9423C68.9487 37.269 69.0033 37.5957 69.0033 37.9496V43.1492C69.0033 43.5031 68.9487 43.8298 68.8397 44.1565C68.7307 44.4832 68.5672 44.7554 68.3492 44.9732C68.1312 45.2182 67.8587 45.3816 67.5316 45.5177C67.2046 45.6538 66.7958 45.7082 66.3598 45.7082C65.9237 45.7082 65.515 45.6266 65.1879 45.5177C64.8609 45.3816 64.5884 45.191 64.3704 44.9732C64.1523 44.7282 63.9888 44.456 63.8798 44.1565C63.7708 43.8298 63.7163 43.5031 63.7163 43.1492V37.9496ZM65.4605 43.122C65.4605 43.5031 65.515 43.7754 65.6512 43.9659C65.7875 44.1565 66.0328 44.2382 66.387 44.2382C66.7413 44.2382 66.9866 44.1565 67.1228 43.9659C67.2591 43.7754 67.3136 43.5031 67.3136 43.122V38.0041C67.3136 37.6229 67.2591 37.3507 67.1228 37.1601C66.9866 36.9696 66.7413 36.8879 66.387 36.8879C66.0328 36.8879 65.7875 36.9696 65.6512 37.1601C65.515 37.3507 65.4605 37.6229 65.4605 38.0041V43.122Z" fill="black"/>
<path d="M70.2026 45.599V35.5264H71.8105L73.9362 41.2705H73.9634V35.5264H75.5168V45.599H74.018L71.8105 39.3104H71.7833V45.599H70.2026Z" fill="black"/>
<path d="M78.1599 45.599H76.4702L78.3234 35.5264H80.4763L82.3295 45.599H80.6398L80.34 43.3667H78.4324L78.1599 45.599ZM78.7322 41.8422H80.122L79.4407 37.5137H79.4135L78.7322 41.8422Z" fill="black"/>
<path d="M83.2285 45.599V35.5264H84.9454V44.0745H87.6706V45.599H83.2285Z" fill="black"/>
</svg>
