<svg xmlns="http://www.w3.org/2000/svg" width="101" height="34" viewBox="0 0 101 34">
  <g id="Logo" transform="translate(0 0)">
    <path id="Path_5" data-name="Path 5" d="M0,27.469s57.938-14.1,100.868-4.169L101,22.84S63.542,11.884.721,25.233Z" transform="translate(0 6.531)" fill="#242527"/>
    <path id="Path_6" data-name="Path 6" d="M21.523,4.79V7.126a4.193,4.193,0,0,1,1.212-1.7A4.851,4.851,0,0,1,25.8,4.385a5.221,5.221,0,0,1,1.726.308,4.085,4.085,0,0,1,2.517,2.664,5.269,5.269,0,0,1,4.79-2.933,5.094,5.094,0,0,1,3.582,1.37c1.51,1.467,1.572,3.067,1.572,7.071v9.212H35.526V13.9c0-2.771-.056-3.338-.513-4.069a1.959,1.959,0,0,0-1.846-.971,2.326,2.326,0,0,0-1.913,1,8.265,8.265,0,0,0-.484,3.671v8.544H26.312V13.366c0-1.867,0-2.7-.45-3.471a2.15,2.15,0,0,0-1.825-1.035,2.38,2.38,0,0,0-1.151.3c-1.3.731-1.334,2-1.334,5.269v7.644H17.091V4.79Z" transform="translate(6.214 1.539)" fill="#242527"/>
    <path id="Path_7" data-name="Path 7" d="M51.724,4.685h4.549L51.724,21.972H47.567L44.926,10.292l-2.6,11.681H38.109L33.559,4.685h4.55L40.5,15.5,42.96,4.685H46.9L49.331,15.5Z" transform="translate(12.202 1.644)" fill="#242527"/>
    <path id="Path_8" data-name="Path 8" d="M59.855,13.241A6.386,6.386,0,0,1,58.7,17.448a2.628,2.628,0,0,1-1.94.97,2.765,2.765,0,0,1-2.485-2.037,7.758,7.758,0,0,1-.483-2.969,6.629,6.629,0,0,1,.934-3.806,2.85,2.85,0,0,1,2.22-1.267,2.425,2.425,0,0,1,1.789.863c.571.639,1.118,1.806,1.118,4.039m.228,8.845h4.369V4.762H60.176V7a4.206,4.206,0,0,0-3.881-2.64c-2.971,0-6.851,2.54-6.851,9.347,0,5.405,2.79,8.748,6.518,8.748a4.566,4.566,0,0,0,4.121-2.27Z" transform="translate(17.978 1.53)" fill="#242527"/>
    <path id="Path_9" data-name="Path 9" d="M70.745,4.685h4.533L70.291,21.838a12.185,12.185,0,0,1-1.819,4.138c-.815.869-1.786,1.27-5.4,1.27-.517,0-.728-.03-1.185-.065V23.341h1.185a3.1,3.1,0,0,0,1.883-.428,2.486,2.486,0,0,0,.664-1.74,5.6,5.6,0,0,0-.333-1.469L60.439,4.685h4.85l2.85,11.649Z" transform="translate(21.976 1.644)" fill="#242527"/>
    <path id="Path_10" data-name="Path 10" d="M12.545,5.188l2.393,9.1H10.274ZM9.719,0,2.229,23.616h5.5l1.4-5.02h7.023l1.429,5.02H23.1L15.311,0Z" transform="translate(0.81 0)" fill="#242527"/>
  </g>
</svg>
