<?xml version="1.0" encoding="UTF-8"?>
<!DOCTYPE svg PUBLIC "-//W3C//DTD SVG 1.1//EN" "http://www.w3.org/Graphics/SVG/1.1/DTD/svg11.dtd">
<!-- Creator: CorelDRAW X8 -->
<svg xmlns="http://www.w3.org/2000/svg" xml:space="preserve" width="4606px" height="1654px" version="1.1" style="shape-rendering:geometricPrecision; text-rendering:geometricPrecision; image-rendering:optimizeQuality; fill-rule:evenodd; clip-rule:evenodd"
viewBox="0 0 4606 1653"
 xmlns:xlink="http://www.w3.org/1999/xlink">
 <defs>
  <style type="text/css">
   <![CDATA[
    .fil1 {fill:#FEFEFE;fill-rule:nonzero}
    .fil2 {fill:#00AFEF;fill-rule:nonzero}
    .fil0 {fill:#005D99;fill-rule:nonzero}
   ]]>
  </style>
 </defs>
 <g id="Layer_x0020_1">
  <metadata id="CorelCorpID_0Corel-Layer"/>
  <polygon class="fil0" points="32,968 4604,968 4604,942 32,942 "/>
  <path class="fil0" d="M4573 24c-3,-1 -6,-1 -8,-1l-236 0c-2,0 -5,0 -8,1 -18,4 -31,20 -31,39l0 10 0 216 0 9c0,20 13,36 31,39 3,1 6,1 8,1l236 0c2,0 5,0 8,-1 18,-3 31,-19 31,-39l0 -9 0 -216 0 -10c0,-19 -13,-35 -31,-39z"/>
  <polygon class="fil1" points="4489,154 4405,154 4405,77 4353,77 4353,285 4405,285 4405,199 4489,199 4489,285 4540,285 4540,77 4489,77 "/>
  <path class="fil2" d="M391 200l219 588 -134 0 -44 -131 -220 0 -46 131 -130 0 223 -588 132 0zm7 360l-74 -215 -1 0 -77 215 152 0z"/>
  <path class="fil2" d="M1100 788l-245 -322c-21,-29 -40,-56 -60,-81l-2 0c2,21 2,58 2,86l0 317 -121 0 0 -588 121 0 236 309c23,30 41,56 59,82l2 0c-2,-32 -2,-71 -2,-99l0 -292 122 0 0 588 -112 0z"/>
  <path class="fil2" d="M1636 200l219 588 -134 0 -44 -131 -220 0 -46 131 -130 0 222 -588 133 0zm7 360l-74 -215 -1 0 -77 215 152 0z"/>
  <path class="fil2" d="M1919 200l199 0c208,0 326,113 326,289 0,182 -135,299 -338,299l-187 0 0 -588zm190 484c146,0 204,-88 204,-192 0,-118 -70,-189 -207,-189l-64 0 0 381 67 0z"/>
  <path class="fil2" d="M2535 492c0,-179 124,-302 301,-302 178,0 302,124 302,302 0,181 -125,302 -302,302 -177,0 -301,-122 -301,-302zm472 0c0,-128 -68,-200 -171,-200 -101,0 -170,71 -170,200 0,130 69,201 170,201 102,0 171,-71 171,-201z"/>
  <polygon class="fil2" points="3235,200 3357,200 3357,684 3564,684 3564,788 3235,788 "/>
  <path class="fil2" d="M3652 687c-17,-32 -26,-73 -26,-121l0 -365 123 0 0 358c0,30 6,57 17,77 21,39 60,59 115,59 54,0 93,-20 114,-59 11,-20 17,-47 17,-78l0 -357 123 0 0 365c0,48 -9,89 -26,121 -39,75 -120,110 -229,110 -110,0 -189,-35 -228,-110z"/>
  <path class="fil0" d="M56 1152c-1,-13 -1,-17 -16,-20 -6,-1 -8,-3 -8,-5 0,-2 3,-3 7,-3 7,0 21,1 30,1 13,0 19,-1 29,-1 4,0 7,1 7,3 0,3 -3,4 -8,5 -15,3 -15,10 -16,18 -2,9 -2,26 -2,80 0,15 0,32 1,41 1,14 2,20 20,23 5,1 7,3 7,5 0,2 -4,3 -7,3 -14,0 -34,-1 -41,-1 -8,0 -11,0 -21,0 -5,0 -7,-2 -7,-4 0,-2 3,-3 8,-4 14,-3 15,-7 16,-20 1,-10 2,-38 2,-61 0,-17 -1,-51 -1,-60z"/>
  <path class="fil0" d="M123 1198c5,-2 15,-5 19,-8 2,-2 5,-3 6,-3 2,0 3,3 3,4 0,5 -1,11 -1,14 0,1 1,1 1,1 11,-8 26,-15 37,-15 13,0 21,6 25,10 6,7 9,20 9,33 0,5 1,46 1,50 1,4 3,8 10,10 5,1 7,2 7,4 0,2 -4,3 -8,3 -6,0 -13,0 -20,0 -7,0 -16,0 -19,0 -3,0 -6,-1 -6,-3 0,-2 3,-4 6,-5 6,-2 8,-4 8,-13 1,-9 1,-42 1,-50 0,-10 -5,-18 -8,-21 -3,-2 -11,-5 -17,-5 -12,0 -20,4 -25,9 -1,1 -2,4 -2,7 0,3 0,62 0,65 0,4 1,6 10,9 3,0 5,2 5,4 0,2 -3,3 -7,3 -3,0 -11,0 -17,0 -10,0 -18,1 -22,1 -4,0 -7,-2 -7,-4 0,-2 2,-3 5,-4 9,-3 11,-6 12,-15 1,-9 1,-32 1,-60 0,-3 0,-6 -6,-11 -4,-2 -6,-4 -6,-5 0,-1 3,-4 5,-5z"/>
  <path class="fil0" d="M401 1127c2,8 7,20 12,34 14,40 35,94 39,105 9,23 14,25 26,28 4,1 7,3 7,5 0,1 -2,3 -9,3 -9,0 -23,-1 -35,-1 -8,0 -12,0 -19,0 -7,0 -8,-2 -8,-3 0,-1 1,-4 6,-4 13,-3 12,-9 11,-14 -2,-11 -9,-30 -15,-47 0,-1 -2,-3 -9,-3 -15,0 -39,0 -45,1 -1,0 -3,2 -3,2 -7,18 -14,41 -14,48 0,4 1,8 13,12 5,1 7,3 7,5 0,3 -4,3 -7,3 -5,0 -12,0 -22,0 -10,0 -24,1 -28,1 -5,0 -7,-1 -7,-3 0,-1 2,-4 6,-5 14,-5 18,-6 26,-23 6,-14 37,-97 49,-126 1,-3 2,-5 2,-6l0 -2c3,-3 6,-11 8,-14 2,-2 3,-3 5,-3 1,0 2,1 4,7zm9 89c-5,-14 -19,-55 -21,-59 -1,-2 -2,-2 -3,0 -5,13 -19,51 -21,60 0,1 0,2 1,2 11,-1 34,0 43,-1l1 -2z"/>
  <path class="fil0" d="M531 1206c-2,0 -3,3 -3,7 0,4 0,58 1,65 1,8 4,13 14,15 5,2 7,3 7,5 0,2 -4,4 -8,4 -3,0 -20,-1 -26,-1 -9,0 -18,1 -20,1 -3,0 -6,-1 -6,-3 0,-2 2,-4 5,-5 12,-3 13,-6 14,-18 -1,-9 0,-52 0,-65 0,-2 -2,-3 -3,-3l-10 -1c-2,0 -3,-2 -3,-5 0,-1 9,-5 13,-8 2,-1 3,-2 3,-4 0,-14 3,-27 8,-37 5,-11 15,-23 26,-30 7,-4 20,-10 32,-10 14,0 24,4 30,10l2 0c10,-10 25,-17 40,-17 18,0 25,7 28,12 2,2 2,4 2,6 0,7 -10,14 -14,14 -1,0 -4,-4 -10,-9 -6,-6 -13,-10 -21,-10 -7,0 -12,3 -17,8 -7,8 -14,26 -14,64 0,1 0,3 2,3 7,0 16,0 26,0 25,0 29,-2 34,-4 3,-1 5,-2 7,-2 2,0 2,9 2,25 0,53 0,62 1,71 0,5 3,7 12,10 5,1 5,2 5,4 0,2 -3,3 -6,3 -7,0 -14,-1 -21,-1 -9,0 -17,1 -23,1 -3,0 -5,-1 -5,-3 0,-1 1,-3 5,-4 8,-3 10,-5 11,-10 1,-17 1,-64 1,-73 0,-2 -2,-3 -3,-4 -7,-1 -34,-1 -47,0 0,0 -2,1 -2,3 0,6 1,64 1,68 0,10 -1,13 16,16 5,1 6,4 6,5 0,2 -4,3 -7,3 -3,0 -19,-1 -26,-1 -10,0 -17,1 -23,1 -3,0 -6,-1 -6,-3 0,-2 3,-4 5,-4 12,-4 14,-7 14,-19 0,-10 1,-51 1,-67 0,-1 -2,-3 -3,-3l-47 0zm47 -12c1,0 3,-1 3,-2 0,-21 6,-39 12,-51l-1 -3c-4,-6 -14,-13 -31,-13 -7,0 -15,4 -21,13 -6,7 -11,25 -11,53 0,1 0,3 2,3l47 0z"/>
  <path class="fil0" d="M710 1117c13,-5 21,-6 28,-11 1,-1 3,1 3,3 -1,6 -3,37 -3,74 0,40 0,92 1,99 1,6 2,9 14,12 4,1 6,3 6,5 0,1 -3,3 -7,3 -6,0 -18,-1 -23,-1 -6,0 -18,1 -24,1 -5,0 -8,-1 -8,-3 0,-2 4,-4 7,-4 12,-3 13,-8 13,-22 1,-10 2,-40 2,-83 0,-20 0,-49 0,-57 0,-2 -1,-4 -7,-7 -5,-4 -5,-5 -5,-6 0,-1 0,-3 3,-3z"/>
  <path class="fil0" d="M781 1198c10,-2 23,-8 27,-9 1,0 3,3 3,3 0,3 -2,39 -2,54 0,16 0,27 1,37 0,8 6,9 13,11 4,1 6,3 6,5 0,1 -4,3 -7,3 -1,0 -15,-1 -21,-1 -9,0 -18,1 -23,1 -4,0 -7,-1 -7,-3 0,-2 2,-3 6,-5 7,-1 11,-5 11,-7 1,-4 1,-20 1,-28 0,-1 1,-40 0,-43 0,-2 -3,-4 -11,-10 -2,-1 -2,-2 -2,-3 0,-2 2,-4 5,-5zm32 -50c0,8 -8,14 -13,14 -2,0 -7,-2 -9,-4 -2,-2 -4,-5 -4,-10 0,-2 1,-7 3,-10 3,-2 7,-3 11,-3 7,0 12,8 12,13z"/>
  <path class="fil0" d="M914 1203c4,6 5,11 5,23 0,10 -1,45 -1,48 0,13 9,14 11,14 1,0 7,-2 10,-5l2 1 1 3c0,5 -12,17 -25,17 -6,0 -14,-4 -17,-14l-2 -1c-10,7 -22,12 -24,13 -3,1 -10,1 -11,1 -10,0 -19,-11 -19,-25 0,-5 2,-10 5,-14 3,-3 7,-5 11,-7 4,-1 26,-7 32,-9 6,-2 8,-4 8,-5 0,-3 0,-19 0,-23 0,-6 -7,-18 -21,-18 -6,0 -9,2 -11,3 -2,1 -3,6 -2,11l-2 3c-2,2 -16,9 -17,9 -2,0 -4,-2 -4,-3 0,-8 8,-16 21,-24 8,-6 20,-11 25,-11 14,0 21,7 25,13zm-18 82c1,-2 3,-7 3,-7 1,-7 1,-16 1,-22 0,0 -2,-2 -3,-2 -7,0 -20,5 -28,8 -2,2 -5,4 -5,11 0,12 11,16 17,16 4,0 10,-2 15,-4z"/>
  <path class="fil0" d="M1017 1193l3 2c0,-1 0,7 0,11 0,2 -5,3 -7,3l-29 0c-2,0 -3,1 -3,2 0,5 0,45 0,58 0,7 1,11 4,14 5,4 11,5 17,5 3,0 9,-2 13,-4 3,-2 3,-2 4,-2 1,0 2,1 2,3 0,2 -2,5 -4,7 -7,7 -17,12 -29,12 -11,0 -21,-7 -24,-13 -3,-4 -4,-10 -4,-18 0,-10 2,-51 2,-61 0,-1 -5,-3 -11,-5 -2,-1 -4,-2 -4,-3 0,-1 1,-2 2,-3 10,-8 18,-14 22,-19 3,-4 5,-6 6,-6 1,0 4,3 4,3l0 13c0,1 1,2 2,2 6,0 33,-1 34,-1z"/>
  <path class="fil0" d="M1041 1198c10,-2 22,-8 27,-9 1,0 2,3 2,3 0,3 -2,39 -2,54 0,16 1,27 1,37 0,8 6,9 13,11 4,1 6,3 6,5 0,1 -3,3 -6,3 -2,0 -16,-1 -21,-1 -9,0 -19,1 -24,1 -4,0 -7,-1 -7,-3 0,-2 2,-3 7,-5 6,-1 10,-5 11,-7 1,-4 1,-20 1,-28 0,-1 0,-40 0,-43 -1,-2 -4,-4 -12,-10 -1,-1 -2,-2 -2,-3 0,-2 3,-4 6,-5zm31 -50c0,8 -8,14 -13,14 -2,0 -6,-2 -9,-4 -2,-2 -4,-5 -4,-10 0,-2 1,-7 3,-10 3,-2 7,-3 11,-3 7,0 12,8 12,13z"/>
  <path class="fil0" d="M1215 1246c0,23 -14,41 -24,47 -11,8 -22,11 -34,11 -12,0 -26,-6 -36,-14 -12,-10 -20,-28 -20,-42 0,-21 8,-34 19,-43 8,-7 22,-15 40,-15 27,0 55,22 55,56zm-78 -40c-7,7 -13,21 -13,35 0,9 1,18 3,25 7,20 22,30 36,30 3,0 9,-1 16,-9 7,-7 12,-24 12,-36 0,-14 -3,-30 -13,-42 -6,-6 -16,-11 -23,-11 -6,0 -12,4 -18,8z"/>
  <path class="fil0" d="M1242 1198c4,-2 14,-5 18,-8 3,-2 5,-3 6,-3 2,0 3,3 3,4 0,5 -1,11 -1,14 0,1 1,1 2,1 11,-8 25,-15 36,-15 14,0 21,6 25,10 6,7 10,20 10,33 0,5 0,46 0,50 1,4 4,8 11,10 5,1 6,2 6,4 0,2 -3,3 -8,3 -6,0 -12,0 -20,0 -7,0 -15,0 -19,0 -2,0 -6,-1 -6,-3 0,-2 3,-4 6,-5 7,-2 8,-4 9,-13 0,-9 0,-42 0,-50 0,-10 -4,-18 -8,-21 -3,-2 -11,-5 -17,-5 -12,0 -19,4 -24,9 -1,1 -3,4 -3,7 0,3 0,62 0,65 0,4 1,6 10,9 3,0 5,2 5,4 0,2 -3,3 -7,3 -3,0 -11,0 -16,0 -10,0 -18,1 -23,1 -4,0 -7,-2 -7,-4 0,-2 3,-3 6,-4 9,-3 10,-6 11,-15 1,-9 1,-32 1,-60 0,-3 0,-6 -6,-11 -4,-2 -5,-4 -5,-5 0,-1 3,-4 5,-5z"/>
  <path class="fil0" d="M1463 1193c4,0 7,2 7,3 0,2 -3,4 -7,5 -6,1 -8,4 -5,10 3,11 21,58 23,61 1,2 2,1 3,0 3,-6 13,-29 19,-42 1,-3 1,-4 1,-5 0,-2 -2,-9 -4,-13 -3,-6 -5,-10 -12,-12 -3,-1 -6,-2 -6,-4 0,-2 2,-3 7,-3 4,0 12,1 18,1 5,0 13,-1 19,-1 4,0 7,2 7,3 0,2 -2,4 -7,5 -7,1 -8,5 -8,6 0,2 2,4 4,9 1,5 15,42 21,55 0,2 1,2 2,0 5,-10 13,-32 18,-46 4,-8 5,-14 5,-16 0,-3 0,-6 -10,-9 -3,0 -7,-2 -7,-4 0,-2 4,-3 7,-3 3,0 12,1 16,1 9,0 16,-1 21,-1 3,0 5,1 5,3 0,2 -3,3 -6,4 -9,2 -10,5 -14,13 -9,16 -18,38 -27,58 -4,12 -8,21 -11,30 -1,3 -2,3 -4,3 -1,0 -3,-2 -5,-4 -1,-3 -4,-13 -7,-20 -3,-9 -12,-31 -17,-42l-2 0c-6,14 -16,35 -25,56 -1,3 -4,11 -6,11 -3,0 -4,-1 -5,-4 -1,-2 -4,-12 -8,-24 -2,-5 -18,-45 -24,-58 -4,-10 -8,-17 -15,-19 -4,0 -7,-2 -7,-4 0,-2 3,-3 8,-3 5,0 12,1 18,1 7,0 15,-1 20,-1z"/>
  <path class="fil0" d="M1613 1198c10,-2 23,-8 27,-9 2,0 3,3 3,3 0,3 -2,39 -2,54 0,16 1,27 1,37 0,8 6,9 13,11 4,1 6,3 6,5 0,1 -3,3 -6,3 -2,0 -16,-1 -22,-1 -9,0 -18,1 -23,1 -4,0 -7,-1 -7,-3 0,-2 2,-3 7,-5 6,-1 10,-5 10,-7 1,-4 2,-20 2,-28 0,-1 0,-40 -1,-43 0,-2 -3,-4 -11,-10 -2,-1 -2,-2 -2,-3 0,-2 2,-4 5,-5zm32 -50c0,8 -8,14 -13,14 -2,0 -7,-2 -9,-4 -2,-2 -4,-5 -4,-10 0,-2 1,-7 3,-10 3,-2 7,-3 11,-3 7,0 12,8 12,13z"/>
  <path class="fil0" d="M1743 1193l3 2c0,-1 1,7 1,11 0,2 -5,3 -7,3l-30 0c-1,0 -3,1 -3,2 0,5 0,45 0,58 0,7 2,11 5,14 5,4 10,5 16,5 4,0 10,-2 14,-4 2,-2 3,-2 4,-2 0,0 1,1 1,3 0,2 -2,5 -3,7 -8,7 -17,12 -30,12 -11,0 -20,-7 -24,-13 -3,-4 -3,-10 -3,-18 0,-10 1,-51 1,-61 0,-1 -5,-3 -10,-5 -3,-1 -4,-2 -4,-3 0,-1 1,-2 1,-3 10,-8 18,-14 22,-19 3,-4 5,-6 6,-6 2,0 4,3 4,3l0 13c0,1 1,2 2,2 6,0 33,-1 34,-1z"/>
  <path class="fil0" d="M1857 1203c6,7 8,18 8,29 0,18 1,35 1,51 0,7 4,9 11,11 5,1 8,2 8,4 0,2 -3,4 -8,4 -9,0 -12,-1 -21,-1 -7,0 -12,0 -20,0 -4,0 -5,-1 -5,-3 0,-2 2,-3 5,-4 7,-2 8,-3 9,-13 1,-5 0,-36 0,-40 0,-15 -1,-24 -4,-27 -5,-5 -12,-9 -23,-9 -11,0 -20,5 -21,6 -1,1 -4,5 -5,13 0,12 0,47 0,57 0,9 4,11 10,13 4,1 6,3 6,4 0,2 -3,3 -6,3 -3,0 -16,0 -23,0 -6,0 -16,1 -20,1 -3,0 -7,-1 -7,-4 0,-1 2,-3 8,-5 7,-2 10,-5 11,-15 1,-12 3,-43 3,-113 0,-10 0,-20 -1,-28 -1,-7 -2,-8 -9,-13 -1,0 -3,-3 -3,-5 0,-1 1,-2 1,-2 8,-2 20,-5 27,-9 1,-1 4,-2 5,-2 1,0 2,2 2,3 -3,20 -4,88 -4,95 0,2 2,2 2,2 11,-10 23,-16 34,-16 14,0 24,5 29,13z"/>
  <path class="fil0" d="M8 1609c1,-1 5,-4 7,-4 1,0 6,2 8,3 5,4 10,6 14,6 5,0 7,-1 11,-5 4,-5 7,-11 8,-23 1,-17 1,-46 1,-85 0,-39 0,-67 -1,-80 -1,-6 -2,-13 -16,-15 -7,-1 -9,-3 -9,-5 0,-3 2,-4 8,-4 8,0 18,1 30,1 9,0 20,-1 28,-1 4,0 8,1 8,3 0,3 -3,4 -8,6 -11,2 -16,6 -16,20 0,22 -1,100 -1,123 0,33 -16,57 -29,68 -13,10 -24,13 -32,13 -9,0 -17,-5 -17,-10 0,-3 3,-9 6,-11z"/>
  <path class="fil0" d="M316 1484c0,38 -19,65 -39,79 -17,12 -40,16 -54,16 -27,0 -54,-12 -70,-31 -15,-16 -23,-39 -23,-62 0,-34 15,-57 35,-74 14,-10 37,-19 56,-19 53,0 95,39 95,91zm-138 -66c-12,12 -22,32 -22,64 0,41 30,88 74,88 23,0 33,-10 36,-14 11,-9 23,-32 23,-64 0,-30 -13,-59 -33,-75 -11,-9 -28,-15 -41,-15 -11,0 -28,6 -37,16z"/>
  <path class="fil0" d="M393 1479c16,0 53,-1 101,-1 2,0 2,-1 3,-7 0,-3 0,-39 -1,-50 0,-10 -2,-12 -14,-15 -4,-1 -7,-3 -7,-6 0,-2 2,-3 8,-3 4,0 21,1 28,1 9,0 22,-1 25,-1 4,0 7,1 7,3 0,2 -2,4 -7,5 -12,3 -14,8 -15,16 -1,14 -2,43 -2,90 0,12 1,36 1,40 1,11 4,12 16,16 4,1 6,3 6,5 0,2 -2,3 -8,3 -4,0 -14,-1 -22,-1 -6,0 -27,2 -32,2 -4,0 -7,-1 -7,-4 0,-2 3,-4 6,-4 15,-5 16,-8 17,-27 0,-12 1,-30 1,-44 0,-5 -1,-6 -3,-6 -42,0 -96,-1 -102,0 -1,0 -3,2 -3,4 0,8 0,43 0,51 1,12 4,17 15,21 6,1 8,3 8,5 1,2 -4,3 -8,3 -2,0 -18,-1 -28,-1 -6,0 -18,1 -27,1 -6,0 -8,-1 -8,-3 0,-2 3,-4 6,-5 14,-3 16,-6 17,-17 1,-11 3,-42 3,-86 0,-5 0,-31 0,-43 -1,-9 -3,-13 -14,-15 -6,-1 -8,-3 -8,-5 0,-2 4,-3 8,-3 8,0 18,0 25,0 12,0 20,0 26,0 6,0 9,1 9,3 0,2 -2,4 -8,5 -13,2 -14,6 -15,18 0,9 -1,45 0,50 0,5 1,5 3,5z"/>
  <path class="fil0" d="M570 1397c6,0 19,1 33,1 2,0 4,2 6,4 4,5 11,13 21,27 13,15 73,81 91,101 2,2 3,-1 3,-2 1,-9 0,-38 0,-78 0,-9 0,-18 -1,-27 0,-6 -2,-12 -17,-17 -6,-1 -8,-3 -8,-6 0,-2 4,-2 7,-2 8,0 15,0 24,0 10,0 18,-1 26,-1 4,0 6,1 6,3 0,2 -2,4 -7,6 -11,2 -16,5 -17,20 -1,9 -3,63 -3,110 0,12 2,32 2,36 0,3 -2,6 -4,6 -4,0 -10,-5 -12,-8 -5,-6 -10,-13 -17,-22 -26,-31 -73,-84 -98,-114 -1,-1 -3,-1 -3,1 0,7 -1,15 -1,36 0,25 -1,67 0,75 1,13 4,17 17,21 6,1 7,3 7,5 0,2 -4,3 -9,3 -8,0 -19,-1 -29,-1 -6,0 -13,0 -18,0 -4,0 -7,0 -7,-3 0,-2 3,-3 5,-4 13,-5 18,-6 20,-26 1,-22 5,-88 5,-110 0,-10 -2,-13 -2,-13 -8,-9 -11,-10 -23,-13 -3,-1 -6,-2 -6,-4 0,-3 3,-4 9,-4z"/>
  <path class="fil0" d="M874 1398c2,1 4,5 4,5 0,6 2,21 2,23 0,4 0,7 -2,7 -2,0 -5,-2 -6,-6 -3,-10 -11,-18 -14,-19 -4,-4 -11,-7 -19,-7 -18,0 -31,14 -31,32 0,20 14,28 38,44 21,14 37,29 37,53 0,14 -7,29 -22,39 -9,5 -25,10 -37,10 -9,0 -27,-3 -36,-8 -3,-1 -6,-7 -6,-8 -2,-10 -4,-22 -4,-26 0,-1 2,-5 4,-5 2,0 6,7 10,15 7,15 25,22 35,22 19,0 33,-13 33,-33 0,-11 -5,-24 -34,-42 -23,-15 -40,-31 -40,-54 0,-13 6,-25 15,-33 9,-8 22,-14 41,-14 13,0 27,4 32,5z"/>
  <path class="fil0" d="M1011 1479c16,0 53,-1 102,-1 1,0 2,-1 3,-7 0,-3 0,-39 -1,-50 -1,-10 -3,-12 -15,-15 -4,-1 -7,-3 -7,-6 0,-2 3,-3 9,-3 3,0 21,1 28,1 9,0 21,-1 24,-1 5,0 8,1 8,3 0,2 -2,4 -8,5 -11,3 -14,8 -14,16 -2,14 -2,43 -2,90 0,12 1,36 1,40 0,11 3,12 15,16 4,1 7,3 7,5 0,2 -3,3 -8,3 -4,0 -14,-1 -23,-1 -6,0 -26,2 -31,2 -5,0 -7,-1 -7,-4 0,-2 3,-4 6,-4 14,-5 16,-8 17,-27 0,-12 1,-30 1,-44 0,-5 -1,-6 -4,-6 -42,0 -96,-1 -101,0 -1,0 -3,2 -3,4 -1,8 0,43 0,51 0,12 3,17 15,21 6,1 7,3 8,5 0,2 -5,3 -8,3 -2,0 -19,-1 -28,-1 -7,0 -18,1 -28,1 -5,0 -8,-1 -8,-3 0,-2 4,-4 7,-5 13,-3 16,-6 17,-17 1,-11 2,-42 2,-86 0,-5 1,-31 0,-43 0,-9 -2,-13 -13,-15 -6,-1 -8,-3 -8,-5 0,-2 3,-3 8,-3 7,0 18,0 25,0 11,0 19,0 26,0 5,0 8,1 8,3 0,2 -2,4 -8,5 -12,2 -13,6 -14,18 -1,9 -1,45 -1,50 0,5 1,5 3,5z"/>
  <path class="fil0" d="M1375 1484c0,38 -19,65 -38,79 -18,12 -40,16 -54,16 -28,0 -54,-12 -71,-31 -15,-16 -23,-39 -23,-62 0,-34 15,-57 36,-74 13,-10 37,-19 56,-19 52,0 94,39 94,91zm-138 -66c-12,12 -21,32 -21,64 0,41 30,88 73,88 23,0 33,-10 36,-14 11,-9 24,-32 24,-64 0,-30 -13,-59 -33,-75 -12,-9 -29,-15 -41,-15 -12,0 -28,6 -38,16z"/>
  <path class="fil0" d="M1460 1404c-3,0 -5,1 -8,2 -1,1 -2,5 -2,11 -1,6 -1,40 -1,71 0,25 1,48 1,55 0,18 2,20 16,24 5,1 7,3 7,5 0,2 -4,3 -9,3 -6,0 -16,-1 -28,-1 -8,0 -19,1 -28,1 -4,0 -7,-1 -7,-4 0,-1 2,-3 5,-4 15,-3 18,-9 19,-20 1,-13 2,-36 2,-50 0,-9 -1,-67 -1,-75 -1,-10 0,-14 -16,-16 -5,-1 -8,-3 -8,-4 0,-2 3,-4 6,-4 2,0 7,0 9,0 11,0 32,-2 46,-2 25,0 41,6 51,16 13,12 16,28 16,37 0,24 -12,36 -19,42 -8,6 -20,12 -32,12 -3,0 -10,0 -14,-1 -4,-2 -5,-3 -5,-5 0,-1 1,-2 3,-2l7 0c15,0 35,-13 35,-45 0,-24 -19,-46 -45,-46z"/>
  <path class="fil0" d="M1561 1397c7,0 18,1 27,1 8,0 19,0 25,0 5,0 8,0 8,3 0,2 -4,4 -8,5 -9,2 -13,4 -13,15 -1,10 -1,55 -1,58 1,1 1,2 2,2 1,0 4,-2 4,-2 9,-6 53,-49 61,-58 7,-8 6,-13 -3,-15 -3,-1 -6,-2 -6,-4 0,-3 3,-4 7,-4 5,0 6,0 11,0 6,0 32,-1 40,-1 5,0 7,1 7,3 0,2 -3,4 -7,5 -16,4 -23,8 -40,21 -13,10 -48,43 -52,48 0,2 0,2 0,3 6,8 53,55 73,76 13,12 19,13 29,15 3,0 5,2 5,3 0,3 -3,5 -6,5 -8,0 -33,-3 -40,-3 -10,0 -13,1 -19,1 -4,0 -6,-3 -6,-5 0,-2 1,-3 12,-5l1 -3c-8,-10 -45,-49 -59,-63 -7,-8 -10,-11 -12,-11 -2,0 -1,3 -2,5 0,5 1,50 1,60 0,7 4,11 16,14 5,1 7,3 7,5 0,2 -3,4 -7,4 -6,0 -26,-1 -34,-1 -9,0 -18,1 -26,1 -3,0 -7,-2 -7,-4 0,-2 2,-3 8,-4 13,-3 18,-7 19,-23 1,-9 1,-35 1,-65 0,-43 0,-48 -1,-58 -1,-10 -4,-13 -15,-15 -6,-2 -7,-4 -7,-5 0,-3 3,-4 7,-4z"/>
  <path class="fil0" d="M1771 1425c-1,-13 -1,-17 -17,-19 -6,-1 -7,-3 -7,-5 0,-3 3,-4 7,-4 7,0 20,1 29,1 14,0 20,-1 30,-1 4,0 6,1 6,4 0,2 -2,4 -7,4 -16,4 -15,10 -16,18 -2,9 -2,26 -2,80 0,15 0,32 1,41 1,15 2,20 20,23 5,1 7,3 7,5 0,2 -4,4 -8,4 -13,0 -33,-2 -40,-2 -8,0 -11,0 -21,0 -5,0 -7,-2 -7,-3 0,-2 3,-4 8,-5 14,-3 15,-7 16,-20 1,-10 1,-38 1,-61 0,-17 0,-51 0,-60z"/>
  <path class="fil0" d="M1844 1397c6,0 20,1 34,1 1,0 4,2 5,4 4,5 11,13 22,27 12,15 72,81 91,101 1,2 2,-1 2,-2 2,-9 1,-38 1,-78 0,-9 -1,-18 -2,-27 0,-6 -2,-12 -17,-17 -5,-1 -7,-3 -7,-6 0,-2 4,-2 7,-2 7,0 15,0 23,0 10,0 19,-1 26,-1 5,0 6,1 6,3 0,2 -1,4 -6,6 -12,2 -17,5 -18,20 0,9 -3,63 -3,110 0,12 2,32 2,36 0,3 -1,6 -4,6 -3,0 -9,-5 -12,-8 -4,-6 -9,-13 -17,-22 -25,-31 -73,-84 -97,-114 -1,-1 -3,-1 -3,1 0,7 -1,15 -1,36 0,25 -1,67 -1,75 1,13 4,17 17,21 6,1 7,3 7,5 0,2 -3,3 -9,3 -7,0 -19,-1 -29,-1 -6,0 -13,0 -17,0 -4,0 -8,0 -8,-3 0,-2 3,-3 6,-4 13,-5 18,-6 19,-26 1,-22 5,-88 5,-110 0,-10 -1,-13 -2,-13 -7,-9 -10,-10 -23,-13 -3,-1 -6,-2 -6,-4 0,-3 3,-4 9,-4z"/>
  <path class="fil0" d="M2149 1398c1,1 3,5 3,5 1,6 3,21 3,23 0,4 0,7 -2,7 -2,0 -6,-2 -7,-6 -3,-10 -10,-18 -13,-19 -5,-4 -11,-7 -19,-7 -19,0 -32,14 -32,32 0,20 14,28 38,44 21,14 38,29 38,53 0,14 -8,29 -23,39 -8,5 -24,10 -37,10 -8,0 -27,-3 -35,-8 -3,-1 -7,-7 -7,-8 -1,-10 -4,-22 -4,-26 0,-1 3,-5 4,-5 2,0 6,7 10,15 7,15 25,22 36,22 18,0 33,-13 33,-33 0,-11 -6,-24 -34,-42 -24,-15 -40,-31 -40,-54 0,-13 6,-25 15,-33 8,-8 21,-14 40,-14 14,0 28,4 33,5z"/>
  <path class="fil0" d="M2246 1398c17,0 20,0 36,0 1,0 3,2 3,4 3,10 5,13 10,25 16,32 47,97 51,103l3 0c2,-4 53,-101 58,-112 0,-1 4,-10 6,-16 0,-1 3,-4 3,-4 10,0 32,-1 34,-1 4,0 8,1 8,3 0,2 -3,4 -8,5 -4,1 -8,2 -12,3 -4,2 -8,7 -8,21 0,76 3,111 4,119 1,12 4,15 17,19 5,1 8,3 8,5 0,2 -4,3 -8,3 -3,0 -24,-1 -34,-1 -6,0 -15,1 -21,1 -3,0 -7,-1 -7,-4 0,-3 3,-4 7,-5 11,-3 11,-10 12,-20 1,-12 1,-91 0,-105 0,-1 -1,-4 -2,-2 -4,6 -34,66 -45,89 -7,14 -13,28 -17,39 -3,8 -4,7 -6,7 -2,0 -4,-2 -4,-5 -2,-7 -5,-16 -10,-29 -15,-36 -37,-79 -48,-102 0,-2 -1,-2 -2,1 -2,11 -5,80 -4,105 1,14 3,18 17,22 6,2 7,3 7,5 0,3 -3,4 -7,4 -9,0 -20,-1 -27,-1 -7,0 -16,1 -22,1 -4,0 -7,-1 -7,-4 0,-1 2,-3 5,-4 17,-5 19,-9 21,-25 3,-19 9,-98 9,-118 0,-2 0,-13 -12,-16 -5,-1 -8,-2 -12,-3 -2,-1 -4,-3 -4,-5 0,-2 2,-2 8,-2z"/>
  <path class="fil0" d="M2571 1398c9,0 21,0 25,-1 1,0 2,2 3,3 0,13 0,21 0,26 0,4 -2,7 -4,7 -2,0 -4,-3 -4,-6 -4,-15 -10,-17 -19,-19 -7,-1 -26,-1 -38,-1 -1,0 -4,2 -4,8 -1,7 -2,58 -1,62 0,1 0,3 2,3l17 0c26,0 27,-1 32,-14 2,-4 3,-6 5,-6 2,0 2,4 2,6 0,8 -1,14 -1,20 0,8 1,11 1,17 0,5 -1,8 -3,8 -2,0 -4,-3 -5,-6 -3,-13 -4,-14 -21,-14 -9,-1 -20,-1 -27,-1 -1,0 -3,2 -3,2 -1,6 0,32 0,43 0,8 1,19 2,23 1,3 4,6 6,6 4,1 13,2 24,2 4,0 20,0 26,-2 9,-2 16,-7 23,-20 3,-6 5,-8 6,-8 2,0 3,5 2,8 0,2 -8,26 -9,29 -1,1 -4,3 -5,3 -3,0 -44,-2 -89,-2 -14,0 -20,1 -31,1 -5,0 -8,0 -8,-3 0,-2 4,-4 8,-5 14,-3 19,-5 20,-20 1,-11 2,-43 2,-77 0,-33 0,-38 0,-46 -1,-12 -4,-16 -16,-18 -5,-2 -7,-3 -7,-5 0,-3 3,-4 7,-4 13,0 24,1 42,1l40 0z"/>
  <path class="fil0" d="M2792 1422c15,14 25,39 25,61 0,39 -24,68 -43,79 -16,9 -39,15 -65,15 -11,0 -36,-1 -54,-2 -5,-1 -10,-1 -14,-1 -6,0 -9,-2 -9,-4 0,-2 3,-3 6,-3 19,-3 20,-8 21,-29 1,-13 1,-22 1,-38 0,-15 -1,-48 -1,-70 -1,-18 -1,-21 -18,-24 -3,0 -6,-2 -6,-4 0,-2 2,-4 6,-4l8 0c14,0 44,-2 68,-2 38,0 65,16 75,26zm-106 -16c-2,2 -2,2 -3,4 0,3 -1,28 -1,52l0 40c0,19 1,35 1,47 1,8 6,12 6,13 6,3 17,7 23,7 12,0 35,-5 51,-18 16,-14 28,-38 28,-68 0,-24 -12,-50 -29,-63 -14,-10 -37,-16 -57,-16 -10,0 -16,1 -19,2z"/>
  <path class="fil0" d="M2867 1425c-1,-13 -1,-17 -16,-19 -6,-1 -8,-3 -8,-5 0,-3 3,-4 7,-4 7,0 21,1 30,1 13,0 20,-1 29,-1 5,0 7,1 7,4 0,2 -3,4 -7,4 -16,4 -16,10 -17,18 -1,9 -1,26 -1,80 0,15 0,32 0,41 1,15 3,20 20,23 5,1 7,3 7,5 0,2 -4,4 -7,4 -14,0 -33,-2 -41,-2 -8,0 -10,0 -20,0 -5,0 -7,-2 -7,-3 0,-2 2,-4 8,-5 13,-3 15,-7 16,-20 0,-10 1,-38 1,-61 0,-17 0,-51 -1,-60z"/>
  <path class="fil0" d="M3078 1398c7,1 17,4 21,5 1,0 4,2 4,8 0,6 1,18 2,24 0,6 -2,9 -4,9 -2,0 -3,-3 -5,-7 -2,-10 -7,-18 -11,-21 -15,-11 -29,-14 -44,-14 -43,0 -72,36 -72,78 0,18 4,33 10,45 15,31 47,43 69,43 5,0 19,0 30,-7 12,-6 19,-15 25,-26 4,-6 5,-8 6,-8 3,0 3,6 2,9 -1,7 -7,22 -11,28 -1,3 -5,6 -8,7 -4,2 -26,8 -50,8 -38,0 -66,-19 -77,-32 -11,-12 -23,-32 -23,-63 0,-31 19,-56 30,-66 23,-19 49,-25 74,-25 9,0 22,2 32,5z"/>
  <path class="fil0" d="M3160 1425c0,-13 0,-17 -16,-19 -6,-1 -7,-3 -7,-5 0,-3 3,-4 7,-4 7,0 20,1 29,1 14,0 20,-1 29,-1 5,0 7,1 7,4 0,2 -2,4 -7,4 -16,4 -15,10 -16,18 -2,9 -2,26 -2,80 0,15 0,32 1,41 1,15 2,20 20,23 5,1 7,3 7,5 0,2 -4,4 -8,4 -14,0 -33,-2 -40,-2 -8,0 -11,0 -21,0 -5,0 -7,-2 -7,-3 0,-2 3,-4 8,-5 14,-3 15,-7 16,-20 1,-10 1,-38 1,-61 0,-17 0,-51 -1,-60z"/>
  <path class="fil0" d="M3234 1397c6,0 20,1 34,1 1,0 4,2 5,4 4,5 11,13 22,27 12,15 72,81 90,101 2,2 3,-1 3,-2 2,-9 1,-38 1,-78 0,-9 -1,-18 -2,-27 0,-6 -2,-12 -17,-17 -5,-1 -7,-3 -7,-6 0,-2 4,-2 7,-2 7,0 15,0 23,0 10,0 19,-1 26,-1 5,0 6,1 6,3 0,2 -1,4 -6,6 -12,2 -17,5 -18,20 0,9 -3,63 -3,110 0,12 2,32 2,36 0,3 -1,6 -4,6 -3,0 -9,-5 -12,-8 -5,-6 -9,-13 -17,-22 -25,-31 -73,-84 -97,-114 -1,-1 -3,-1 -3,1 -1,7 -1,15 -2,36 0,25 0,67 0,75 1,13 4,17 17,21 6,1 7,3 7,5 0,2 -3,3 -9,3 -7,0 -19,-1 -29,-1 -6,0 -13,0 -18,0 -3,0 -7,0 -7,-3 0,-2 3,-3 6,-4 13,-5 18,-6 19,-26 1,-22 5,-88 5,-110 0,-10 -1,-13 -2,-13 -7,-9 -10,-10 -23,-13 -3,-1 -6,-2 -6,-4 0,-3 3,-4 9,-4z"/>
  <path class="fil0" d="M3535 1398c9,0 21,0 25,-1 1,0 2,2 2,3 0,13 1,21 1,26 0,4 -2,7 -4,7 -3,0 -4,-3 -4,-6 -4,-15 -10,-17 -19,-19 -7,-1 -27,-1 -38,-1 -1,0 -4,2 -5,8 0,7 -1,58 0,62 0,1 0,3 2,3l17 0c26,0 27,-1 32,-14 2,-4 3,-6 5,-6 2,0 2,4 2,6 -1,8 -1,14 -1,20 0,8 1,11 1,17 0,5 -1,8 -3,8 -2,0 -4,-3 -5,-6 -4,-13 -5,-14 -21,-14 -9,-1 -20,-1 -27,-1 -1,0 -3,2 -3,2 -1,6 -1,32 -1,43 0,8 2,19 3,23 1,3 4,6 5,6 5,1 14,2 25,2 4,0 20,0 26,-2 9,-2 16,-7 23,-20 3,-6 5,-8 6,-8 2,0 3,5 2,8 0,2 -8,26 -10,29 0,1 -3,3 -4,3 -3,0 -44,-2 -89,-2 -14,0 -20,1 -31,1 -5,0 -8,0 -8,-3 0,-2 3,-4 8,-5 13,-3 19,-5 20,-20 1,-11 2,-43 2,-77 0,-33 0,-38 0,-46 -1,-12 -4,-16 -16,-18 -5,-2 -8,-3 -8,-5 0,-3 4,-4 8,-4 13,0 23,1 42,1l40 0z"/>
 </g>
</svg>
