<?xml version="1.0" encoding="utf-8"?>
<!-- Generator: Adobe Illustrator 24.1.1, SVG Export Plug-In . SVG Version: 6.00 Build 0)  -->
<svg version="1.1" xmlns="http://www.w3.org/2000/svg" xmlns:xlink="http://www.w3.org/1999/xlink" x="0px" y="0px"
	 viewBox="0 0 309.1 140.9" style="enable-background:new 0 0 309.1 140.9;" xml:space="preserve">
<style type="text/css">
	.st0{fill:#FFFFFF;}
	.st1{fill:#003E7E;}
</style>
<g id="Layer_2">
</g>
<g id="Laag_1">
	<path class="st0" d="M154.5,0C69.2,0,0,31.5,0,70.4s69.2,70.4,154.5,70.4c82.6,0,154.5-31,154.5-70.4C309.1,32.7,249.7,0,154.5,0
		L154.5,0z M154.5,133.9"/>
	<g>
		<g>
			<polygon class="st1" points="111.7,109.3 106.4,109.3 106.4,114 102.3,114 102.3,102.9 106.4,102.9 106.4,107.1 111.7,107.1 
				111.7,102.9 115.9,102.9 115.9,114 111.7,114 111.7,109.3 			"/>
			<polygon class="st1" points="121.1,114 121.1,102.9 132.2,102.9 132.2,105.1 125.3,105.1 125.3,107.1 131,107.1 131,109.3 
				125.3,109.3 125.3,111.7 132.2,111.7 132.2,114 121.1,114 			"/>
			<polygon class="st1" points="137.1,114 137.1,102.9 141.3,102.9 141.3,111.7 148.2,111.7 148.2,114 137.1,114 			"/>
			<polygon class="st1" points="152.9,114 152.9,102.9 158.9,102.9 161.7,110.2 161.8,110.2 164.5,102.9 170.6,102.9 170.6,114 
				166.9,114 166.9,106 166.9,106 163.9,114 159.6,114 156.6,106 156.6,106 156.6,114 152.9,114 			"/>
			<polygon class="st1" points="175.9,114 175.9,102.9 187,102.9 187,105.1 180.1,105.1 180.1,107.1 185.8,107.1 185.8,109.3 
				180.1,109.3 180.1,111.7 187,111.7 187,114 175.9,114 			"/>
			<polygon class="st1" points="195.2,114 195.2,105.3 190.7,105.3 190.7,102.9 203.8,102.9 203.8,105.3 199.3,105.3 199.3,114 
				195.2,114 			"/>
			<path class="st1" d="M206,112.4c0-2.5,2-4.3,4.4-4.3c2.3,0,4.4,1.8,4.4,4.3c0,2.5-2,4.3-4.4,4.3C208,116.7,206,114.9,206,112.4
				L206,112.4z M210.4,115.9c1.9,0,3.4-1.5,3.4-3.5c0-2-1.5-3.5-3.4-3.5c-1.9,0-3.4,1.5-3.4,3.5
				C206.9,114.4,208.4,115.9,210.4,115.9L210.4,115.9z M209.5,114.8h-0.8v-4.9h1.9c1.2,0,1.8,0.4,1.8,1.4c0,0.9-0.5,1.3-1.3,1.3
				l1.4,2.2h-0.9l-1.3-2.1h-0.8V114.8L209.5,114.8z M210.4,112c0.6,0,1.1-0.1,1.1-0.8c0-0.6-0.6-0.7-1.1-0.7h-1v1.5H210.4L210.4,112
				z"/>
			<path class="st1" d="M241.5,38.5c0-4.7,3.9-8.6,8.6-8.6c4.8,0,8.6,3.8,8.6,8.6c0,4.7-3.9,8.6-8.6,8.6
				C245.4,47.1,241.5,43.3,241.5,38.5L241.5,38.5z"/>
			<path class="st1" d="M154.4,7.5C73.8,7.5,8.4,35.8,8.4,70.7c0,34.9,65.4,63.2,146.1,63.2c78,0,146.1-27.9,146.1-63.2
				C300.5,36.8,244.5,7.5,154.4,7.5L154.4,7.5z M154.4,127.6c-46.2,0-83.9-12.6-104.5-29.2c-0.7-0.5-2-1-3.3-0.6
				c-5.2,1.6-17.7-0.1-19.6-2.4c-0.4-0.5-0.5-2-0.2-2.5c1.3-2.2,5.4-8,6.8-9.6c0.8-0.9,0.9-2.1,0.5-3.1c-1.1-2.8-1.4-5.8-1.4-8.5
				c0-28,54.5-56.1,121.6-56.1c33.3,0,63,6.3,85,16.4c0.5,0.2,1.9,0.1,2.1-0.2c2-2.3,5.3-4,8.7-4c6.1,0,11,4.9,11,10.9
				c0,1.6-0.3,3-0.9,4.4c-0.1,0.3,0.1,1.7,0.4,2c9.6,8,15.1,16.9,15.1,26.7C275.7,102.5,221.4,127.6,154.4,127.6L154.4,127.6z"/>
			<path class="st1" d="M263,72.8c-2.3,2.5-8.9,6.5-8.9,6.5c-2.4,1.2-3.4-0.7-3-2.5c0.4-1.7,7.7-28.5,7.7-28.5h-20.7L230.9,76
				c0,0-3.6,3.3-7.1,5.2c-3.6,1.9-4.1,0.2-3.7-1.6c0.4-1.7,8.2-31.3,8.2-31.3h-19.9l-0.6,2.3c-1-1.9-6.7-4.8-11.2-4.8
				c-4.5,0-8.3,2.7-10.1,4.1c-1.8,1.4-6.3,4.3-10.6,4.3c-4.3,0-9.9-6.2-9.9-6.2l-8.1,6.6l1.7-6h-20.1L131,74.2c0,0-10.1,6.4-11.2,7
				c-1.2,0.6-2.4,0.6-2-1.6c0.4-2.1,14.8-57.4,14.8-57.4h-20.3c-26,30.3-45.2,55.9-56.6,57c-5.8,0.5-8.6,0.6-14.1-1.7
				c-1-0.4-1.6,0.3-1.6,0.3l-10.4,14c0,0-0.8,1.3,0.4,1.8c20.9,7.9,41.6-12.9,47.4-18.8h20.5c0,0-1.2,3.9-2.8,10.3
				c-1.8,7.4,3.4,11.1,9.7,11.1c8.7,0,22.7-11.2,22.7-11.2l-3,11.4h21.3l9.4-33.2c7.9,5.9,15.8,2.9,15.8,2.9
				c-1.2,1.7-3.9,11.2-3.9,15.3c0,4.1,4.1,14.4,15.6,14.4c11.4,0,16.2-7.2,16.2-7.2s-0.4,7.8,7.7,7.8c8.1,0,21.7-8.5,21.7-8.5
				s-0.4,8.3,8.3,8.3c14.8,0,24.9-16.4,27.2-20.9C265.4,71.8,263.8,71.9,263,72.8L263,72.8z M101.2,67.5H84.6l24.6-27.2L101.2,67.5
				L101.2,67.5z M205.6,61.1c0,0-1.1,5-3.2,12.3c-2.1,7.3-6.6,7.1-8.2,7.1c-1.6,0-5.5,0-5.5-7.6c0-9.4,9.7-18.3,13.7-18.3
				C206.4,54.5,206.1,58.5,205.6,61.1L205.6,61.1z"/>
		</g>
	</g>
</g>
</svg>
