<?xml version="1.0" encoding="UTF-8"?>
<svg id="Layer_1" data-name="Layer 1" xmlns="http://www.w3.org/2000/svg" version="1.1" viewBox="0 0 708.7 612.3">
  <defs>
    <style>
      .cls-1 {
        fill: #000;
      }

      .cls-1, .cls-2, .cls-3 {
        stroke-width: 0px;
      }

      .cls-2 {
        fill: #010101;
      }

      .cls-3 {
        fill: #fff;
      }
    </style>
  </defs>
  <g id="layer1">
    <g id="g3835">
      <path id="path3425" class="cls-3" d="M591.9,404.1l-1.8,1.1H117.8l-1.8-1.3c-52-34.4-82.5-82.9-82.5-141.2,0-110.7,140.2-230.3,321.3-230.3s321.3,119.8,321.3,230.3-31.1,106.8-84.2,141.3Z"/>
      <path id="path3427" class="cls-2" d="M668.5,263.3c0-104.9-135.1-223.2-314.2-223.2S40.1,158.2,40.1,263.3s28.9,101.9,79.3,135.3h468.1c51.6-33.5,81-79.4,81-135.3ZM708.7,263.3c0,79.6-45.2,135.6-109.6,175.5H107.7C44.1,398.6,0,342,0,263.3,0,126.3,164.2,0,354.3,0s354.3,126.5,354.3,263.3h0Z"/>
      <path id="path3429" class="cls-2" d="M503.4,371.1h-66.3V75.3s40,8,72.6,24.5v38.8s-21.2-9.4-36.1-12.1v74.7s42.8,9.9,66.3,20.7v33.8s-42.4-15.8-66.3-18.9v103.2h29.8v31.2Z"/>
      <path id="path3431" class="cls-2" d="M603.2,354.2l-18.4-54.2-31.3,71.1h-37.9l53.1-123.3-42.8-141.1c16.5,8.4,32.3,18.4,47,29.7l17.1,58.8,13.2-30.4s16.6,18.2,23.9,32.2l-21.4,52.7,24.6,70.9c-7.2,12.5-16.3,23.9-27.1,33.6Z"/>
      <path id="path3433" class="cls-2" d="M64.2,249.2c-7.7,68.1,46.5,109.3,46.5,109.3l16.9-31.2c-14.3-16.5-24.6-41.5-24.6-41.5l34.8-17.8v103.5h35.3V112.3c-52.3,30.1-102.1,77-108.9,136.8ZM138.3,228.2l-37.5,20.1c2.7-38.4,37.5-66,37.5-66v45.9Z"/>
      <path id="path3435" class="cls-2" d="M294.6,187.1v-95.1s1.5-7.9-3.2-12.6c-5-5.1-14-4.5-14-4.5-41.6,8-79.8,27.4-79.8,27.4v268.8h37v-134.4c4-1.7,8.3-2.9,12.6-3.6,8.8-1.6,11.3,6.8,11.3,6.8v131.3h36.1v-149.3c0-10.8-13.1-16.2-13.1-16.2,13.5-3.6,13.1-18.5,13.1-18.5ZM253.2,193c-5.9,2.3-18.5,6.3-18.5,6.3v-71.7l15.8-7.2s7.7-3.6,7.7,3.6v61.7s.9,5-5,7.2Z"/>
      <path id="path3437" class="cls-2" d="M391.6,69.5c-32-4.6-73.5,0-73.5,0v301.6h81.1c14.4,0,14.4-20.9,14.4-20.9V97c0-23.9-22.1-27.5-22.1-27.5ZM377.2,328.2s-.9,9.9-6.3,9.9h-16.7V102.8h16.7s6.3.4,6.3,9v216.3Z"/>
    </g>
  </g>
  <g>
    <path class="cls-1" d="M404.3,513.6c-6.7,1.2-12.4,2.2-18.2,3.3-2.6.5-6,1.7-6.8-1.6-.9-3.9,3.1-3.4,5.4-3.9,6.8-1.5,13.7-2.5,20.5-4.1,1.8-.4,3.8-1.8,4.8-3.3,1.8-2.6,3-5.6,4.2-8.4.8-2,2.1-3.4,4.1-2.1.8.5.7,3,.2,4.4-.9,2.5-2.4,4.9-4.1,8.3,49.5-5.5,98.2-4.6,146.9-3.9,0,.5,0,1,0,1.5-5,.4-10,.9-15,1.2-18.8.8-37.6,1.3-56.3,2.3-24.8,1.2-49.6,2.8-74.4,4.1-3.8.2-5.7,1.9-7.2,5.3-3.9,8.7-7.8,17.3-8.2,26.9-.3,7.2,2.1,9,8.7,5.9,8.1-3.9,16-8.2,21-16.1,1.7-2.7,11.4-5.2,15.2-3.8,4.1,1.5,4.7,5.2,4.6,9.9,3.5-2.6,6.3-4.8,9.3-6.9.9-.7,2.1-1,3.2-1.5.5,1.1,1.2,2.2,1.5,3.4.3,1.2,0,2.6,0,4.4,2.8-2.4,5.1-4.7,7.7-6.6,5.7-4.2,8.5-4,13.4,1.1,1.9-1.3,3.8-2.8,5.9-3.8,1.2-.5,3.2-.6,4.2.1.8.5,1.1,2.5.9,3.8-.5,3.4-1.6,6.6-2,10-.4,3,1.5,4.2,3.8,2.5,3.6-2.5,7.4-5.2,9.8-8.8,3.7-5.4,10.8-9.6,17.2-7.6,2,.6,3.4,3.5,4.8,5.5.5.8,0,2.2,0,4.4,4.1-3,7.5-5.5,10.9-7.9-1.6-4.3-.7-5.3,3.9-5.6,3.4-.3,6.8-1.1,10.3-1.5,1.3-.2,3.3-.4,3.9.3.8,1,1.3,3.1.8,4.2-1.4,3.2-3.4,6.2-5,9.4-1.2,2.3-2.3,4.7-3.1,7.2-.9,2.6.5,3.9,2.8,2.6,7.2-3.9,13.3-9.2,17.2-16.7.2-.3.3-.8.2-1.1-2.2-5.1,2.3-3.9,4.4-4.4,3.4-.8,6.8-1.2,10.3-1.6,1.3-.1,3.2-.2,3.8.5.8,1,1.1,3,.6,4.2-1.3,3.1-3.4,5.9-4.8,9-1.5,3.1-2.7,6.3-4,9.5.4.3.7.6,1.1.9,1.2-.2,2.7,0,3.5-.7,4.3-3.6,9-7,12.5-11.3,4.3-5.3,9.4-7.8,16.1-7.2,3.8.3,4.8,3.2,5.6,6.2.3,1,0,2.1,0,3.3,5.9-1.9,9.2-8.2,16.8-8.6-1.2,2.1-2,3.4-2.6,4.7-1.9,4.4-3.9,8.8-5.6,13.4-.3.9.1,2.9.7,3.1,1,.4,2.8.2,3.6-.5,3.9-3.6,7.8-7.4,11.4-11.4,2.1-2.4,1.9-2.6,6-1.6-.8,2.1-2,4-2.4,6.1-.3,2,.4,4.1.6,6.2,1.8-.3,4.1,0,5.3-.9,5.3-4.1,10.6-8.2,12.5-15.2.5-1.9,2.8-3.4,5-5.9v10c6.8-.9,12.7-2.7,18-7.2,0,.7.1,1.2,0,1.6-2.5,5.5-12.9,11.2-18.8,9.9-2.4-.5-3.6.2-5,1.8-2.5,2.7-5,5.4-7.9,7.7-7.1,5.7-11.5,4.7-15.7-3.5-1.9,1.8-3.7,3.7-5.7,5.3-3,2.3-6.2,4.3-10.1,1.8-3.1-2-3.8-5.3-2.3-10.3.5-1.5,1-2.9,1.9-5.4-4.7,3.4-8.9,5.9-12.6,9-6.4,5.4-12.3,4.2-15.6-3.6-.1-.4-.4-.7-.6-1-3.4,2.4-6.7,4.9-10.1,7.2-2.8,1.9-5.8,1.9-8.4-.2-2.8-2.2-2.3-5.3-1.1-8,1.7-3.7,4.1-7,6.2-10.5.8-1.3,1.6-2.6,2.6-4.2-7.4,1.2-12.6,4.1-16.9,10.2-3.5,5.1-9.1,8.9-14.1,12.9-2.5,2-5.6,1.6-8-.5-2.6-2.3-2.4-5.3-1-8,1.9-3.7,4.3-7.2,6.5-10.8.7-1.1,1.3-2.3,2-3.7-7.2.7-12,4.4-16.9,8.5-5.7,4.8-11.6,9.3-17.7,13.6-4,2.9-9.4,1.3-11.9-3-.6-1-1-2.1-1.6-3.2-2.1,1.8-4.1,3.8-6.4,5.2-5.2,3.4-10.8.4-10.7-5.8,0-3.2,1-6.4.9-10.3-2.3,2.5-4.6,4.8-6.8,7.4-1.2,1.4-1.8,3.3-3.1,4.5-.9.9-2.5,1.1-3.7,1.7,0-1.4-.3-3,.2-4.2.7-1.9,2.2-3.5,2.9-5.5.5-1.4,0-3,0-5.5-2.5,1.2-4.5,1.7-6,2.9-6.4,5.1-12.2,10.8-15.8,18.3-.2.4-.2.9-.5,1-1.3.6-2.6,1-3.8,1.5,0-1.2-.4-2.6,0-3.6,2-4.9,4.2-9.7,6.4-14.6-.4-.2-.7-.4-1.1-.7-.6.3-1.2.6-1.8,1-5.6,4.2-11.1,8.6-16.9,12.7-4.2,3-9.5,1.5-12.1-3.2-.8-1.5-1.3-3.1-2-4.7-4.2,3.1-8.2,6.2-12.5,9.2-1.8,1.3-3.9,2.3-5.9,3.1-7.7,2.7-13.4-2-13.2-10.4.3-9.4,3.8-17.9,7.3-26.4.5-1.3,1.1-2.6,2.1-4.8ZM522.5,531.8h-1.7c-1,1.5-2.5,2.8-2.8,4.3-.5,2.4,2.8,5.9,4.6,5,1.5-.7,3.1-3,3.1-4.5,0-1.7-2-3.3-3.1-4.9ZM618.1,537.5c-2.5-2.3-3.9-4.2-5.7-4.8-1-.3-4,2.5-3.8,2.9.9,2.1,2.3,4.1,4,5.4.4.3,2.8-1.8,5.5-3.6ZM447.4,536.6c-2.5-1.8-4-3.7-5.7-3.9-1-.1-3.4,2.2-3.5,3.5-.2,2.6,1.4,5.2,4.3,5,1.4-.1,2.7-2.4,4.9-4.6ZM512.4,537.8c-1.7,2.8-1.3,8.4,1.3,9.8,2.8,1.6,4.7-.3,6.2-1.9-2.7-2.8-5.1-5.4-7.5-8ZM440.8,546.8c-3.5-3.8-5.9-6.5-8.3-9.1-1.7,3-1.4,8.6,1.3,9.7,1.8.7,4.3-.3,7-.6ZM602.9,537.6c-1.5,3.4-.9,9,1.6,10.2,2.8,1.3,4.5-.5,6-2-2.7-2.9-5.1-5.5-7.6-8.2Z"/>
    <path class="cls-1" d="M348.8,551.5c3.5-3.1,7.1-6.1,10.3-9.4,3.2-3.2,6.1-6.8,9.1-10.1.5.4,1.1.7,1.6,1.1-.7,1.6-1.1,3.6-2.3,4.9-5.4,5.9-10.8,11.8-16.6,17.4-3.4,3.3-5.9,6.7-7.2,11.4-3.6,13-10.1,24.8-17.8,35.9-2.5,3.7-6.8,6.6-10.9,8.7-5.5,2.8-9.1.1-8.9-6,.3-10,4.3-18.6,10.5-26.3,6.7-8.2,14.2-15.5,23.4-21,1-.6,1.8-2.2,2.1-3.4,1-4.1,1.7-8.2,2.5-12.1-3,1.8-5.9,4.1-9.1,5.4-3.9,1.6-6.7-.8-8.9-3.7-3.1,2-5.9,4.1-8.9,5.9-3.3,2-6.8,2.3-10-.1-2.9-2.2-2.3-5.3-1.6-8.3.6-2.6,1.2-5.3,1.8-7.9-.3-.2-.6-.5-1-.7-1.7,1.3-3.8,2.2-5,3.8-3.7,4.6-7.2,9.5-10.7,14.3-.3.4-.4,1-.8,1.3-1.4,1.1-2.8,2.1-4.2,3.1-.5-1.7-1-3.4-1.4-5.1-.1-.6,0-1.2.2-2.1-14.3,11.5-21.8,7.5-23.2-4.5-16.5,9.7-17,9.8-25.5,2.1-6.5,3.5-12.8,9.6-20.4,1.5-2,1.4-3.9,3-6,4.1-2.4,1.3-5,2.5-7.7,3-7.5,1.4-11-1.3-12.9-9.2-3.6,2.7-7,5.8-10.9,8-7.5,4.2-12.4,1.9-14.7-6.3-.2-.6-.5-1.2-.8-1.8-8.5,6.5-13.2,6.7-17.5-.7-2.2,1.8-4.3,3.8-6.6,5.4-2.7,1.9-5.7,3.2-8.8,1.3-3.1-1.9-3.2-5.3-2.2-8.1,1.3-3.8,3.2-7.4,5.4-10.8.7-1.1,2.8-1.3,4.6-1.4-1,5.9-6.7,9.9-4.7,17,1.9-1,3.9-1.5,5.2-2.7,4.3-3.9,8.4-7.9,12.5-12,2.4-2.4,3-2.7,6-1.1-1.5,2.7-3.2,5.3-4.4,8.2-.6,1.4-.2,3.2-.3,4.8,1.7-.4,3.7-.4,4.9-1.4,4.2-3.6,8-7.6,12.1-11.3,1-.9,2.5-1.1,3.8-1.7-.2,1.3-.3,2.6-.6,3.8-.9,4.1-2.4,8.1-2.9,12.2-.4,3.5,1.7,5,4.6,3.4,7.8-4.3,14.7-9.4,18.7-18.1,4.5-10,10.7-19.4,19.8-26,1.7-1.2,4.6-.7,6.9-1,.3,2.1,1.1,4.3.7,6.2-2.1,9.4-8.4,15.6-16.7,19.8-7,3.6-10.1,9.2-8.3,16.8.3,1.2,2.3,2.9,3.4,2.8,3.2-.4,6.7-1,9.3-2.7,4.2-2.8,7.8-6.5,11.6-9.9,2.5-2.2,4.6-4.7,7.2-6.7,3.6-2.7,7.7-4,12.1-2.6,2.3-4.5,4.3-9,6.9-13,2.3-3.5,5.1-6.8,8.2-9.5,1.2-1.1,4.2-.9,5.9-.2.9.4,1.3,3.7.7,5.1-3.9,8.6-7.4,17.5-14.2,24.3-1.1,1.1-2.4,2.3-2.8,3.8-.5,1.9-.8,4.3,0,5.8.5,1,3.3,1.7,4.8,1.4,7.3-1.6,13.3-5.5,18-11.4.9-1.1,1.6-2.4,2.7-3.4.8-.7,1.9-.8,2.9-1.2,0,1,.3,2.1,0,3.1-1,4.3-2.6,8.5-3.1,12.9-.5,3.8,1.3,5,4.7,3.5,7.8-3.7,13.7-9.6,18.7-16.5.9-1.2,2.1-2.3,3.2-3.4.9,1.3,1.8,2.7,2.9,4.1,1.8-1.2,4-3.1,6.5-3.9,1.9-.6,4.7-.6,6.2.4,1.3.9,1.9,3.6,1.8,5.5-.2,3.5-1,6.9-1.6,10.3.4.3.7.7,1.1,1,3.1-1.4,6.5-2.4,9.3-4.3,3-2,5.5-4.9,8.4-7.2,3.6-2.8,7.1-5.8,11.1-7.9,5.5-2.8,10.1.5,9.7,6.8-.2,4.2-1,8.3-1.6,12.5-.2,1.2-.4,2.5-.5,3.7.3.2.5.3.8.5ZM340.4,562.6c-12.4,8.2-20.9,18.6-27,31-1.6,3.3-2.4,7.2-3,10.9-.4,3.1,1.4,4.2,4.1,2.7,2.1-1.2,4.2-2.8,5.8-4.6,10.3-11.2,15.5-25,20-40ZM235.5,532.3c-5.6.2-13.4,7-14,11.4-.4,2.8,1.3,4.2,4.2,2.8,3.5-1.8,7-4.2,9.6-7.1,1.2-1.3.2-4.5.2-7.1ZM200.5,527c8-4.1,13.8-10,15.6-19.1-7.5,4.5-12.1,11.3-15.6,19.1ZM343.8,530.9c-4.5.3-10.8,5.2-11.8,9.1-.8,3,.3,4.3,3,3.7,4.6-1,9.5-8.1,8.8-12.8ZM255.1,512.6c-4.4,1.9-9.1,10.1-8.7,15,2.9-5,5.8-10,8.7-15Z"/>
    <path class="cls-1" d="M19,598.7c2.9-4.5,5.7-9,8.7-13.5,3.5-5.2,6.9-10.4,10.6-15.5,2.8-3.8,2.5-4.1-1.2-6.7-6.8-4.7-14.9-8.1-17.7-16.9-.1-.3,0-.7-.2-1.9,6.4,9.2,15.3,13.5,23.3,17.5,4.3-7.1,8.1-13.5,11.9-19.8-1.6-1.3-3.3-2.8-5.4-4.6,1.6-1.2,2.6-2.4,3.8-2.9,5-1.6,8-4.9,9.8-9.8,2.2-5.8,5-11.4,8-18.2-3,1.1-4.8,1.7-6.5,2.5-10.5,4.6-20.5,10.2-29.4,17.6-1.6,1.3-2.7,3.2-4.2,4.6-.9.8-2.2,1.1-3.3,1.6-.2-1.3-1-3.1-.5-3.7,4-4.1,7.8-8.6,12.5-11.9,10.8-7.6,22.5-13.7,35.3-17.2,13.9-3.8,27.9-6.8,42.3-2.6,1.9.6,3.7,1.3,5.4,2.4,4,2.5,5.3,7.1,3.3,11.3-3,6.4-8.2,10.9-14.3,14.3-4.6,2.5-9.3,4.8-14.3,7.3,3.4,1.4,6.6,2.5,9.7,4.1,3.6,1.9,7.1,4,10.3,6.5,9.1,7.2,8.6,19.3-.9,26.1-9.2,6.5-19.6,8.8-30.6,8.4-7-.3-14.1-1.1-20.9-2.8-6.7-1.7-13-4.8-19.7-7.3-8.4,10.4-13.5,23.9-25.9,31ZM46.8,564.2c14.1,7.2,28.3,10.8,43.6,9.2,7.3-.8,14.7-2,20.9-6.4,6.2-4.4,11.4-12.3,3-20-8.4-7.8-18.7-11.2-29.9-10.5-7.2.4-14.3,2.1-21.3,3.5-1.4.3-3,1.2-3.7,2.4-4.2,7.1-8.2,14.3-12.5,21.9ZM65.8,530.7c6.6,0,13,0,19.4,0,1.3,0,2.7-.3,3.8-.8,6.7-2.8,13.6-5.2,19.8-8.8,4.2-2.4,7.7-6.3,10.8-10.1,3-3.7,1.9-6.3-2.5-8.3-1.1-.5-2.2-.8-3.4-1.1-11.6-2.8-23-.4-34.3,2.2-.9.2-2.1.9-2.4,1.7-3.8,8.2-7.4,16.5-11.3,25.2Z"/>
    <path class="cls-1" d="M286.7,510.2c-3.5,5.4-7.9,8.5-13.2,10.3-.9.3-2.4-.6-3.3-1.3-.2-.2.3-2.2.9-2.6,3.8-2.4,7.6-4.6,11.6-6.7.8-.4,2.2.1,3.9.2Z"/>
    <path class="cls-1" d="M187.9,510c-3.6,5.5-7.8,8.3-12.5,10.3-1,.4-2.6-.4-3.9-.7.4-1.2.5-2.9,1.4-3.5,3.4-2.2,6.9-4.2,10.5-6,.9-.5,2.3,0,4.5,0Z"/>
  </g>
</svg>