<svg xmlns="http://www.w3.org/2000/svg" viewBox="0 0 133.33 57.92"><defs><style>.cls-1{fill:#fff;}.cls-2{fill:#e47a20;}</style></defs><title>资源 1</title><g id="&#x56FE;&#x5C42;_2" data-name="&#x56FE;&#x5C42; 2"><g id="&#x56FE;&#x5C42;_1-2" data-name="&#x56FE;&#x5C42; 1"><path id="_&#x8DEF;&#x5F84;_" data-name="&lt;&#x8DEF;&#x5F84;&gt;" class="cls-1" d="M21.68,9c-.14.39-.2.41-.27.48s-.12.56-.24.67a.77.77,0,0,0-.24.39,2.06,2.06,0,0,1-.22.57c-.14.26-.31.67-.39.78a5.53,5.53,0,0,0-.22.65c-.05.11-.14.13-.22.36a5.83,5.83,0,0,1-.41.86c-.08.1-.08.41-.2.58A2.21,2.21,0,0,0,19,15a1.46,1.46,0,0,1-.25.5.92.92,0,0,0-.18.4.94.94,0,0,1-.09.46,3.52,3.52,0,0,0-.3.69,1,1,0,0,1-.19.54,1,1,0,0,0-.19.51,2.11,2.11,0,0,1-.16.55,2.36,2.36,0,0,0-.24.63,1.58,1.58,0,0,1-.23.57,3.22,3.22,0,0,0-.21.78,1.73,1.73,0,0,1-.17.53,1.79,1.79,0,0,0-.16.44c0,.14-.08.37-.13.55s-.11.4-.17.58-.22.73-.28.9-.23.65-.26.81a2.7,2.7,0,0,1-.13.7,2.6,2.6,0,0,0-.27.85,1.1,1.1,0,0,1-.15.53,2,2,0,0,0-.23.68,6.42,6.42,0,0,1-.07.75c0,.09-.28.81-.33.92a1.47,1.47,0,0,0-.07.41,1.55,1.55,0,0,1-.18.51,2.33,2.33,0,0,0-.07.56,6.67,6.67,0,0,1-.19,1,2.14,2.14,0,0,0-.17.56,5,5,0,0,1-.16.82,7.72,7.72,0,0,0-.31,1.11,5,5,0,0,1-.1.89c-.08.25-.18.57-.23.77s-.07.64-.13.84-.16.57-.16.57a.86.86,0,0,1,.33-.23,4.47,4.47,0,0,0,.72-.25,7,7,0,0,0,1-.58L16,35l.45-.34a.2.2,0,0,1-.21,0,.41.41,0,0,1,0-.51,1.18,1.18,0,0,0,.28-.56,4.61,4.61,0,0,1,.08-.8c.06-.18,0-.45.08-.64a6,6,0,0,1,.17-.74c.07-.21.24-1.22.27-1.46a4.53,4.53,0,0,1,.16-.66c1-4,1.7-8.19,2.44-12.28.13-.74.78-3.48.83-3.64s.08-.36.14-.51.15-.47.18-.59.49-1.58.51-1.77.22-.42.3-.6.12-.37.16-.44.23-.19.29-.33,0-.37.16-.53a.86.86,0,0,0,.18-.35s-.67.37-.8.77"></path><path id="_&#x8DEF;&#x5F84;_2" data-name="&lt;&#x8DEF;&#x5F84;&gt;" class="cls-1" d="M26.75.61c-.14.07-1.61.79-1.83,1s-.86.53-1,.59-.62.49-.8.63-.65.58-.79.72-1,1.08-1.21,1.3S20,6.53,19.8,6.86,18.75,8.73,18.69,9a5.59,5.59,0,0,1-.35.82,3.23,3.23,0,0,0-.2.57c0,.09-.35.79-.42,1s-.22.58-.25.66-.11.52-.14.64a5.62,5.62,0,0,0-.28.75c-.06.26-.26.86-.33,1.16s-.22,1-.28,1.24-.24.87-.28,1.11-.08.56-.11.75-.21.69-.22.86a4.91,4.91,0,0,1-.06.89,3,3,0,0,0-.07.75c0,.18-.19.71-.19.9s-.12.58-.12.77a6.24,6.24,0,0,1-.13.81c0,.16-.06.7-.1.91S15,24.65,15,25s0,1.58,0,1.58.14-1,.2-1.29.24-1.07.29-1.26a70.44,70.44,0,0,1,5-13.52c.08-.16.36-.61.43-.78s.25-.33.31-.46a11,11,0,0,1,.59-1,12.16,12.16,0,0,1,.94-1.15A9.08,9.08,0,0,1,27,4.45a5.09,5.09,0,0,1,3.61.49c2.88,1.57,4.17,6,4.84,9A90.57,90.57,0,0,1,36.8,25.42c.33,3.49.55,7.18.74,10.76s0,7.33.27,10.6c0,.26-.06,1-.06,1.17s.08.41.08.6a1.67,1.67,0,0,0,.16.7,1.38,1.38,0,0,1,.16.47,5.85,5.85,0,0,0,.26.61,3.5,3.5,0,0,0,.73,1l.62.54A1.74,1.74,0,0,0,40,52a1.57,1.57,0,0,0,.46.25,1.67,1.67,0,0,1,.48.19,2,2,0,0,0,.56,0c.22,0,.62.11.79.12s.42-.12.74-.13a.81.81,0,0,0,.45-.12s.57-.09.67-.23a.58.58,0,0,0-.13-.64c-.15-.08-.35-.21-.19-.35a2.59,2.59,0,0,0,.36-.33c.06-.09,0-.51,0-.74.15-1.26-.34-2.84-.36-4.16-.12-6.42-.12-12.83-.71-19.22-.7-7.65-1.7-16.35-6-22.93A9.25,9.25,0,0,0,29.66,0a7.09,7.09,0,0,0-2.91.61"></path><path id="_&#x8DEF;&#x5F84;_3" data-name="&lt;&#x8DEF;&#x5F84;&gt;" class="cls-1" d="M35.76,27.73a7,7,0,0,0-.86.09,6.78,6.78,0,0,1-1,.44,5.15,5.15,0,0,0-.73.09,4.14,4.14,0,0,1-.71.29,5.17,5.17,0,0,1-.86.06c-.11,0-.47.21-.7.24a3.68,3.68,0,0,0-.86.18c-.34.11-.5.27-.78.29a4.52,4.52,0,0,0-.5,0c-.06,0-.68.41-.83.46a2.56,2.56,0,0,1-.83,0,.43.43,0,0,0-.33,0c-.09,0-.29.27-.49.37a7.16,7.16,0,0,1-.66.35,6.63,6.63,0,0,1-.79.12,2.13,2.13,0,0,0-.62.2.51.51,0,0,1-.41.11,1.33,1.33,0,0,0-.59.12,6.66,6.66,0,0,1-.86.34c-.1,0-.4.2-.63.29s-.84.28-1.11.39-.5.16-.63.23a2.3,2.3,0,0,1-.58.31,1,1,0,0,0-.41.14l-.76.5c-.18.12-.65.39-.88.5a1.89,1.89,0,0,0-.85.74c-.06.11-1.33,1-1.67,1.21-1.44,1-1.6.6-2,1a9.36,9.36,0,0,1-1.4.91c-.16.09-.58.37-.64.39a.64.64,0,0,0-.19.13c-.07.07-.51.27-.7.41s-.57.41-.73.5l-.32.18s-.47.38-.67.51l-.45.34a4.2,4.2,0,0,1-.41.37l-.39.3a6.29,6.29,0,0,0-.55.46,7.17,7.17,0,0,1-.8.62c-.13.08-1.4,1.2-1.57,1.32L3.17,44a14.32,14.32,0,0,0-1,1.05A15.85,15.85,0,0,0,1,47c-.16.29-.64,1.28-.71,1.42a1.56,1.56,0,0,0-.24.61,1.3,1.3,0,0,0,.08.59c.08.23.41.81.44.89a.94.94,0,0,0,.27.29l.5.37a1.57,1.57,0,0,0,.58.34A3.33,3.33,0,0,0,3,51.5l.73-.21a2.6,2.6,0,0,1,.34-.16A7.63,7.63,0,0,0,5,50.6a.68.68,0,0,1,.2-.08.14.14,0,0,0,.08-.07.52.52,0,0,1,.08-.19c.06-.08.15-.26.2-.32s.16-.36.21-.46a1.94,1.94,0,0,1,.32-.37l.28-.19c.06,0,.36-.35.48-.48a5.63,5.63,0,0,1,.49-.59,3.21,3.21,0,0,0,.38-.39,4.77,4.77,0,0,1,.55-.53,4.07,4.07,0,0,0,.39-.28c.13-.09.69-.62.77-.68s.19-.18.3-.2a1.07,1.07,0,0,0,.47-.26c.2-.16.58-.53.67-.59a2.94,2.94,0,0,0,.29-.19l.61-.49c.11-.1.81-.72,1-.81s.42-.31.54-.39.38-.33.51-.41a3,3,0,0,0,.32-.22c.1-.06.43-.36.72-.56a5.21,5.21,0,0,1,.64-.37,6.62,6.62,0,0,1,.75-.44c.11,0,.26-.17.36-.2a1.34,1.34,0,0,0,.32-.24,4.76,4.76,0,0,1,.64-.51c.15-.07.38-.16.54-.25a2.75,2.75,0,0,0,.43-.35,6.82,6.82,0,0,1,.77-.56,6,6,0,0,1,.9-.46,1.67,1.67,0,0,0,.53-.26,3.12,3.12,0,0,1,.58-.41c.14-.06.34-.22.44-.24a7.42,7.42,0,0,0,1-.33c.28-.13.85-.46,1-.5s.29-.16.5-.27.39-.16.47-.21a2.37,2.37,0,0,1,.57-.3,2.22,2.22,0,0,0,.72-.23,5.3,5.3,0,0,1,.9-.42,7.59,7.59,0,0,1,1.2-.41,6.75,6.75,0,0,0,1.27-.45,1.07,1.07,0,0,1,.48-.17,1.73,1.73,0,0,0,.68-.16,9.42,9.42,0,0,1,1.47-.56c.28,0,.38,0,.64-.11s.67-.24,1-.3a6.54,6.54,0,0,0,.91-.16c.24-.07.79-.28,1-.32l1-.17.15,0s0-.95,0-1.1,0-1.68,0-2a2.3,2.3,0,0,0-.06-.74,1.11,1.11,0,0,1-.06-.47.83.83,0,0,0-.1-.55.44.44,0,0,0-.14-.13,1.27,1.27,0,0,1-.43.23"></path><path id="_&#x8DEF;&#x5F84;_4" data-name="&lt;&#x8DEF;&#x5F84;&gt;" class="cls-1" d="M36.26,37.47a1,1,0,0,0-.29.2.46.46,0,0,1-.18.15l-.36.17a2.9,2.9,0,0,0-.36.2,1.65,1.65,0,0,1-.26.14.9.9,0,0,0-.26.16,2,2,0,0,1-.41.21,1.15,1.15,0,0,1-.61,0,.73.73,0,0,0-.44,0,1.87,1.87,0,0,0-.37.3.23.23,0,0,1-.24.07,1.87,1.87,0,0,0-.35,0c-.09,0-.12.15-.2.2a4.43,4.43,0,0,1-.73.25,1.45,1.45,0,0,0-.44.17c-.06,0-.1.14-.19.17a.47.47,0,0,1-.18,0h-.23a.72.72,0,0,0-.35.17,3.77,3.77,0,0,0-.35.36,1.65,1.65,0,0,1-.36.09,1.39,1.39,0,0,0-.37.21l-.49.32a5.31,5.31,0,0,1-.53.27,1.67,1.67,0,0,0-.41.33,5.3,5.3,0,0,1-.5.34c-.13.09-.71.62-.84.73s-.4.15-.48.23-.27.39-.39.56-.44.51-.61.54a.86.86,0,0,0-.38.21l-.59.38a1.92,1.92,0,0,0-.39.36c-.08.09-.6.63-.75.75s-.79.8-.9.91-.49.54-.57.6a2.89,2.89,0,0,1-.64.42,2.55,2.55,0,0,0-.6.44c-.1.07-1,.94-1.21,1.17S17.12,50.63,16.79,51s-1.26,1.47-1.35,1.6-.92,1.31-.95,1.39-.32.6-.37.68A2,2,0,0,0,14,55c-.05.11-.28.59-.34.69a1.63,1.63,0,0,0-.14.94c0,.21,0,.85,0,1s.34.32.43.33a.19.19,0,0,0,.22-.08c.08-.09.22-.46.28-.45a1.38,1.38,0,0,0,.52,0c.13-.06.36-.29.45-.3a.73.73,0,0,0,.38-.18,5.19,5.19,0,0,1,.69-.52,15.21,15.21,0,0,1,1.44-.73,9.72,9.72,0,0,0,1.32-.74,2.18,2.18,0,0,1,.46-.2,2.35,2.35,0,0,0,.36-.33,2.28,2.28,0,0,0,.55-.38c.25-.23.69-.77.76-.84s.23-.4.28-.44l.89-.67c.14-.09,1.17-1,1.22-1.1l.73-.73.55-.52.82-.68a3,3,0,0,0,.42-.31c.09-.1.36-.46.38-.47l.17-.09a4.94,4.94,0,0,0,.63-.55,2.62,2.62,0,0,1,.53-.39c.07,0,.42-.28.49-.34a5.84,5.84,0,0,0,.47-.41,5.15,5.15,0,0,1,.47-.42,4.37,4.37,0,0,0,.47-.5,5.62,5.62,0,0,1,.48-.4c.13-.09.61-.5.67-.53a2.86,2.86,0,0,0,.29-.21.38.38,0,0,1,.21-.07c.11,0,.42-.22.57-.28a1.75,1.75,0,0,0,.58-.51,3.85,3.85,0,0,1,.72-.6c.1-.07.62-.16.81-.28s.57-.62.77-.73.64-.23.75-.32a6.46,6.46,0,0,1,.8-.48.85.85,0,0,0,.35-.29l-.19-3.62-.44.28"></path><path id="_&#x8DEF;&#x5F84;_5" data-name="&lt;&#x8DEF;&#x5F84;&gt;" class="cls-1" d="M54.21,24.93a3.32,3.32,0,0,0-1,.14,1.13,1.13,0,0,1-.79,0A4.88,4.88,0,0,0,51.29,25c-.24,0-.58.29-.88.26s-.4-.13-.65-.1a2.79,2.79,0,0,0-.86.29.51.51,0,0,1-.5.17c-.26-.06-.32-.3-.43-.34s-.4.18-.61.26-1.88.53-2.21.57a3.48,3.48,0,0,1-.59,0v0l.29,4.68a.77.77,0,0,0,.52-.05,1.25,1.25,0,0,1,.68-.28c.29,0,1,0,1.19,0a3.32,3.32,0,0,0,.71,0c.21-.05.82-.25,1-.28s.49,0,.62-.05a2.26,2.26,0,0,1,.46-.1,6.14,6.14,0,0,0,.65,0l.83,0a2.66,2.66,0,0,1,.75-.18,3.46,3.46,0,0,0,.61.11c.1,0,.4-.2.67-.2l1.33,0a3,3,0,0,0,.48-.13c.26-.07.42.11.58.11s.52-.19.75-.21a1.77,1.77,0,0,1,.4.07,1,1,0,0,0,.58,0c.19-.12.31-.42.66-.41l.56,0,.61,0c.21,0,.39,0,.57,0h1.18c.17,0,.89-.09,1-.1a2.82,2.82,0,0,0,.61-.14.63.63,0,0,0,.28-.7.45.45,0,0,0-.53-.42,3.09,3.09,0,0,1-.92.2,2.53,2.53,0,0,1-.93-.1c-.17-.11-.31-.19-.48-.08a1.33,1.33,0,0,1-.75.31c-.35,0-.55-.16-.8-.19a6.45,6.45,0,0,0-1.42.09c-.32.06-1.26.07-1.66.08A8.78,8.78,0,0,0,54.21,28c-.32.09-.67.2-.84.07s0-.31.09-.35.47-.22.49-.36a.63.63,0,0,0-.14-.43c-.07-.06-.05-.16.15-.12a2.74,2.74,0,0,0,.63.06c.29,0,1-.12,1.3-.13a2.61,2.61,0,0,1,.54.05c.11,0,.13,0,.2-.19s.11-.42.26-.44a4.43,4.43,0,0,0,.67-.13c.07-.05.2,0,.37.21a.64.64,0,0,0,.66.24c.24-.08.53-.4.76-.43a3.29,3.29,0,0,0,.64-.14,1.41,1.41,0,0,1,.41,0,2.51,2.51,0,0,0,.72.06,1.49,1.49,0,0,1,.65,0,.79.79,0,0,0,.74.25,11.57,11.57,0,0,1,1.16-.52,4.7,4.7,0,0,1,1.19-.11,2.67,2.67,0,0,0,1,0c.28-.09.29-.15.4-.12s.24.33.66.3a.78.78,0,0,0,.69-.47c0-.11-.13-.16-.22-.16a6.61,6.61,0,0,0-.89,0c-.08.05-.08.11-.22.1s-.34-.08-.51-.08-.63,0-.83,0-.29-.1-.46-.1l-1,0c-.16,0-2.09,0-2.37,0s-.51-.17-.77-.17-.79.09-1,.07-.46-.22-.67-.21-.77.34-1.06.34a4.93,4.93,0,0,0-.74-.05,2.21,2.21,0,0,1-1,.15c-.47-.08-.48-.41-.79-.42h0c-.29,0-.56.11-.85.11"></path><path id="_&#x8DEF;&#x5F84;_6" data-name="&lt;&#x8DEF;&#x5F84;&gt;" class="cls-1" d="M64.2,29.28a1.27,1.27,0,0,0-.55.08.54.54,0,0,1-.35.05h-.24c-.21,0-.5.24-.67.24a5,5,0,0,0-.72,0c-.3,0-.73,0-1.25,0a12.74,12.74,0,0,0-1.31,0c-.35,0-.4.17-.66.19a.71.71,0,0,1-.26,0,.42.42,0,0,0-.29,0,1.68,1.68,0,0,1-.47.25,1.26,1.26,0,0,1-.38,0,.58.58,0,0,0-.2,0c-.1.05-12,3.85-12,3.85v2.26s0,.12.37.11.73-.39,1-.42a5.69,5.69,0,0,0,1.29-.7,6.8,6.8,0,0,1,.88-.57c.21-.09.59-.13.7-.18a.32.32,0,0,1,.29.05.57.57,0,0,0,.49.14c.27-.07.7-.36.83-.29a1.1,1.1,0,0,0,.66.11c.2-.07.25-.56.45-.58a.76.76,0,0,1,.28,0,.6.6,0,0,0,.49,0,8.07,8.07,0,0,1,.82-.54,5.62,5.62,0,0,0,.62-.2c.18-.06.27-.08.34,0s.18,0,.43-.14a7.49,7.49,0,0,1,.78-.36c.24,0,.42-.18.57,0s.39.53.61.51.14-.37.37-.57.44-.55.58-.59.21.15.35.23.21.06.41,0,1.8-.3,2.22-.43a5.65,5.65,0,0,1,.79-.22,2.68,2.68,0,0,1,.87.12c.11,0,.23,0,.44-.2a1.54,1.54,0,0,1,.58-.34c.2-.07.24-.16.26-.27s.09-.26.2-.17a.65.65,0,0,1,.16.44c0,.19,0,.45.18.45s.57-.69.82-.73.37.36.42.47.28.09.4,0,.37-.56.77-.55a7.8,7.8,0,0,0,1.22.07c.29-.07.49-.1.63,0s.2.3.38.27.27-.15.45-.11.27.13.36.1a3.8,3.8,0,0,1,.7-.34c.15,0,.34-.21.19-.34s-.39-.39-.54-.35-.24.11-.39.08-.29-.36-.44-.41a.91.91,0,0,0-.66.16c-.25.15-.3.14-.44.06s-.22-.36-.42-.35-.52.1-.67.09a1.37,1.37,0,0,0-.49,0,.87.87,0,0,1-.45,0c-.15-.05-.44-.33-.81-.33h-1"></path><path id="_&#x8DEF;&#x5F84;_7" data-name="&lt;&#x8DEF;&#x5F84;&gt;" class="cls-2" d="M35.66,32.63a3.63,3.63,0,0,0-.71.19,4.82,4.82,0,0,1-.77.23,6.56,6.56,0,0,0-.81.14l-.62.21-.46.09a2.9,2.9,0,0,0-.61.13c-.22.08-.8.29-.92.35a3.39,3.39,0,0,0-.39.18,1.34,1.34,0,0,1-.45.1,1.72,1.72,0,0,0-.37.07c-.15,0-.19.1-.54.25a8.86,8.86,0,0,1-1,.31,7.28,7.28,0,0,0-.73.23l-.76.3-.54.26a2,2,0,0,1-.56.23A1.43,1.43,0,0,0,25,36c-.11.06-.46.27-.54.3s-.11.14-.2.24-.35.12-.43.15-.26.28-.39.34-.71.38-.85.41-.3.09-.32.17-.09.27-.23.28a.91.91,0,0,1-.23,0,.81.81,0,0,0-.21,0,7.45,7.45,0,0,1-.44.62.78.78,0,0,1-.49.24.66.66,0,0,0-.39.15c-.19.12-.16.23-.3.23a.68.68,0,0,0-.4.07,6.55,6.55,0,0,0-.56.49,1.29,1.29,0,0,1-.37.3,1.48,1.48,0,0,0-.45.27c-.14.14-.87.72-1,.83a1.18,1.18,0,0,1-.58.39c-.27.06-.52.07-.59.1a1.22,1.22,0,0,1-.27.09c-.08,0-.23.15-.27.2s-.46.36-.6.47a1.32,1.32,0,0,1-.27.15c-.07,0-.28.26-.4.34a2.42,2.42,0,0,0-.45.35c-.07.08-.25.16-.42.31s-.6.53-.74.63-.53.54-.65.65-.49.43-.53.47a10.91,10.91,0,0,0-.77.82c-.11.15-.65.72-.73.85a8.36,8.36,0,0,0-.64.86,2.59,2.59,0,0,1-.32.49,1.51,1.51,0,0,0-.16.3l-.18.29a1,1,0,0,0-.09.36,13.09,13.09,0,0,0-.14,1.48c0,.33.17.45.17.55s0,.22.16.22.28,0,.3-.19-.2-.71,0-.78.41.49.45.58.14.07.28,0,.42-.25.53-.28a.92.92,0,0,0,.2-.1c.06,0,.12,0,.22,0s.35-.21.47-.29a2.09,2.09,0,0,1,.92-.33A10.48,10.48,0,0,0,13.28,50a5.1,5.1,0,0,1,.82-.34,1.93,1.93,0,0,0,.36,0c.09,0,.3-.2.39-.21a2.24,2.24,0,0,0,.47-.26l.49-.36c.12-.08.45-.44.59-.56a2.58,2.58,0,0,1,.62-.39,4,4,0,0,0,.68-.42,6.22,6.22,0,0,1,.59-.36c.14-.06.32-.25.48-.32s.5-.4.74-.56.67-.45.84-.56.45-.27.69-.38a8.58,8.58,0,0,0,.69-.53c.13-.07.5-.36.69-.48s.21-.18.36-.2a2.51,2.51,0,0,0,.57-.24,1,1,0,0,1,.27-.13,6.88,6.88,0,0,0,.75-.44,2.3,2.3,0,0,0,.46-.29c.07-.07.34-.27.42-.37s.13-.18.19-.2.37-.16.49-.22.51-.5.73-.55a.79.79,0,0,1,.47,0l.15.07a1.48,1.48,0,0,1,.52-.39,7.24,7.24,0,0,0,.84-.48,1.67,1.67,0,0,1,.46-.28c.21,0,.32,0,.36-.09s.19-.2.26-.28a.76.76,0,0,1,.45-.25,1.41,1.41,0,0,0,.44-.05c.09,0,.06-.14.34-.24a8.4,8.4,0,0,0,1-.33c.1-.07.12-.19.23-.2l.19,0a.61.61,0,0,0,.26,0c.12,0,.33-.33.54-.4a1.64,1.64,0,0,1,.49,0,1.39,1.39,0,0,0,.32,0,1,1,0,0,0,.47-.18,2,2,0,0,1,.4-.24,2.36,2.36,0,0,0,.39-.23l.6-.29c.12,0,.13-.17.35-.28a1.88,1.88,0,0,0,.33-.2l.2-.13-.08-4.72-1,.16"></path><path id="_&#x8DEF;&#x5F84;_8" data-name="&lt;&#x8DEF;&#x5F84;&gt;" class="cls-2" d="M53.57,29.75a3.08,3.08,0,0,0-.67.2,1.39,1.39,0,0,1-.32,0l-.37-.07a2.76,2.76,0,0,0-.58.15,1,1,0,0,1-.24,0l-.81,0-.55,0a2.79,2.79,0,0,0-.42.1,6,6,0,0,1-.63.05,6.36,6.36,0,0,0-.64.17,1.55,1.55,0,0,1-.63.13c-.24,0-.83,0-1,0a5.36,5.36,0,0,0-.79,0c-.35,0-.48.27-.72.32a.65.65,0,0,1-.38,0v3.33a.86.86,0,0,0,.26-.05,1.52,1.52,0,0,1,.47,0,3.31,3.31,0,0,0,.61-.06,2.54,2.54,0,0,0,.65-.4,1.31,1.31,0,0,1,.58-.22.82.82,0,0,0,.41-.16,1.29,1.29,0,0,1,.53-.09c.16,0,.35-.24.47-.29s.19.24.24.48a.43.43,0,0,0,.47.33c.15,0,.14-.17.24-.28a.71.71,0,0,1,.36-.17,1.37,1.37,0,0,0,.47-.23c.13-.11.43-.48.56-.53s.3.08.42.09a.81.81,0,0,0,.37-.11,2.72,2.72,0,0,1,.68,0,1.86,1.86,0,0,1,.5.13,1.74,1.74,0,0,0,.45-.14.46.46,0,0,1,.42.07.57.57,0,0,0,.35.16c.19,0,.21-.12.42-.21a.91.91,0,0,0,.41-.56c.06-.19.27-.16.43,0a2.6,2.6,0,0,0,1.1.24c.34,0,.38.56.42.56s.18-.36.31-.51.22-.25.37-.25.78.24,1,.23.28-.13.43-.14.5.4.55.45.32,0,.45,0a3.62,3.62,0,0,1,.65-.31c.25,0,.31-.29.34-.36s0-.16-.15-.2a4.72,4.72,0,0,0-.45-.16.94.94,0,0,1-.39-.24c-.08-.11-.18-.38-.33-.4s-.21.05-.31.13-.37.31-.42.28,0-.31,0-.49-.45-.33-.72-.36a.49.49,0,0,0-.41.1,1,1,0,0,1-.52,0c-.14-.05-.33-.39-.39-.44a.81.81,0,0,0-.47-.08,2,2,0,0,1-.47-.07c-.19,0-.68.14-.82.14a.72.72,0,0,1-.24,0,1.62,1.62,0,0,0-.3,0c-.18,0-.41,0-.55-.11a.48.48,0,0,0-.37-.11h-.32"></path><path class="cls-1" d="M56,50.42l2.39-2.91a7.11,7.11,0,0,0,4.28,1.79c1.56,0,2.29-.59,2.29-1.53s-1-1.35-2.48-2l-2.24-.94A5.14,5.14,0,0,1,56.62,40c0-3,2.64-5.32,6.38-5.32A8.18,8.18,0,0,1,68.72,37l-2.11,2.64A5.72,5.72,0,0,0,63,38.31c-1.3,0-2.11.52-2.11,1.47s1.11,1.35,2.67,2l2.2.88a4.86,4.86,0,0,1,3.48,4.82c0,2.93-2.46,5.5-6.72,5.5A9.88,9.88,0,0,1,56,50.42Z"></path><path class="cls-1" d="M72.33,35h4.23V52.61H72.33Z"></path><path class="cls-1" d="M80.77,35H91.92v3.5H85v3.26h5.88v3.54H85v3.74h7.18v3.54H80.77Z"></path><path class="cls-1" d="M105.32,52.61l-3.24-6.19h-2v6.19H95.82V35h6.45c3.76,0,6.88,1.28,6.88,5.53a5.2,5.2,0,0,1-3,5.08l3.93,7Zm-5.27-9.52h1.89c2,0,3.07-.88,3.07-2.53s-1.06-2.2-3.07-2.2h-1.89Z"></path><path class="cls-1" d="M112.72,35H117V52.61h-4.23Z"></path><path class="cls-1" d="M120,50.42l2.39-2.91a7.11,7.11,0,0,0,4.28,1.79c1.56,0,2.29-.59,2.29-1.53s-1-1.35-2.48-2l-2.25-.94A5.14,5.14,0,0,1,120.71,40c0-3,2.64-5.32,6.38-5.32A8.18,8.18,0,0,1,132.81,37l-2.11,2.64a5.74,5.74,0,0,0-3.61-1.35c-1.3,0-2.11.52-2.11,1.47s1.11,1.35,2.67,2l2.2.88a4.86,4.86,0,0,1,3.48,4.82c0,2.93-2.46,5.5-6.72,5.5A9.88,9.88,0,0,1,120,50.42Z"></path></g></g></svg>