<?xml version="1.0" encoding="UTF-8" standalone="no"?><!DOCTYPE svg PUBLIC "-//W3C//DTD SVG 1.1//EN" "http://www.w3.org/Graphics/SVG/1.1/DTD/svg11.dtd"><svg width="100%" height="100%" viewBox="0 0 3750 859" version="1.1" xmlns="http://www.w3.org/2000/svg" xmlns:xlink="http://www.w3.org/1999/xlink" xml:space="preserve" xmlns:serif="http://www.serif.com/" style="fill-rule:evenodd;clip-rule:evenodd;stroke-linejoin:round;stroke-miterlimit:2;"><g><path d="M1467.48,638.425l-83.542,0l-45.628,-108.598l-212.724,0l-46.263,108.598l-80.975,0l197.934,-453.058l73.25,-0l197.948,453.058Zm-235.863,-358.589l-77.099,179.943l154.86,0l-77.761,-179.943Z" style="fill:#0d0248;fill-rule:nonzero;"/><path d="M1652.92,638.425l-79.693,0l0,-376.594l-142.663,0l0,-73.249l365.006,-0l-0,73.249l-142.65,0l-0,376.594Z" style="fill:#0d0248;fill-rule:nonzero;"/><path d="M1933.52,448.852l0,189.573l-79.057,0l-0,-449.843l79.057,-0l0,187.007l214.643,-0l0,-187.007l79.031,-0l-0,449.843l-79.031,0l0,-189.573l-214.643,-0Z" style="fill:#0d0248;fill-rule:nonzero;"/><path d="M2541.73,646.138c-138.165,0 -234.566,-104.735 -234.566,-232c0,-127.237 97.684,-233.269 235.849,-233.269c138.166,-0 234.553,104.748 234.553,231.999c0,127.238 -97.671,233.27 -235.836,233.27Zm0,-392.641c-89.323,-0 -151.672,71.318 -151.672,159.371c0,88.04 63.632,160.655 152.955,160.655c89.324,0 151.659,-71.331 151.659,-159.385c0,-88.026 -63.619,-160.641 -152.942,-160.641Z" style="fill:#0d0248;fill-rule:nonzero;"/><path d="M3146.46,638.425l-110.53,-156.805l-98.967,0l0,156.805l-79.044,0l-0,-449.843l200.501,-0c103.465,-0 167.084,54.623 167.084,142.663c-0,74.546 -44.331,119.525 -107.315,136.882l121.457,170.298l-93.186,0Zm-94.469,-377.864l-115.028,0l0,151.011l115.676,0c56.554,0 92.538,-29.554 92.538,-75.816c-0,-49.504 -34.7,-75.195 -93.186,-75.195Z" style="fill:#0d0248;fill-rule:nonzero;"/><path d="M3478.8,185.367l-197.947,453.072l80.975,-0l46.276,-108.625l212.712,0l45.627,108.625l83.555,-0l-197.947,-453.072l-73.251,-0Zm35.349,94.469l77.748,179.943l-154.874,0l77.126,-179.943Z" style="fill:#0d0248;fill-rule:nonzero;"/><path d="M506.928,583.485c-21.405,-12.33 -45.376,-19.394 -70.3,-20.624c2.633,-32.61 16.682,-63.077 39.926,-86.307c26.035,-26.035 60.642,-40.376 97.472,-40.376c35.547,0 69.043,13.348 94.747,37.69l2.619,2.805c12.819,12.819 29.859,19.87 47.969,19.87c18.124,-0 35.163,-7.051 47.969,-19.87c26.445,-26.445 26.445,-69.467 0,-95.925c-12.779,-12.779 -29.792,-19.817 -47.876,-19.817c-3.254,-0 -6.482,0.238 -9.671,0.688c12.356,-21.405 19.408,-45.389 20.678,-70.313c32.623,2.619 63.142,16.669 86.386,39.912c53.763,53.763 53.763,141.235 -0,194.985c-26.035,26.035 -60.656,40.375 -97.472,40.375l-0.014,-0c-35.533,-0 -69.029,-13.348 -94.734,-37.69l-2.632,-2.818c-12.806,-12.806 -29.832,-19.857 -47.969,-19.857c-18.111,0 -35.15,7.051 -47.956,19.857c-15.147,15.161 -22.04,36.592 -19.142,57.415Z" style="fill:#00bce8;fill-rule:nonzero;"/><path d="M428.704,857.236c-36.83,-0 -71.451,-14.328 -97.499,-40.376c-53.128,-53.128 -53.75,-139.223 -1.826,-193.106l1.866,-1.839c12.819,-12.805 19.87,-29.845 19.87,-47.968c-0,-18.111 -7.051,-35.15 -19.87,-47.956c-12.78,-12.779 -29.779,-19.817 -47.863,-19.817c-3.268,-0 -6.496,0.225 -9.684,0.688c12.356,-21.405 19.42,-45.403 20.664,-70.327c32.662,2.62 63.156,16.669 86.413,39.926c26.034,26.035 40.375,60.656 40.375,97.486c-0,35.983 -13.692,69.863 -38.616,95.686l-1.786,1.773c-12.832,12.806 -19.883,29.845 -19.883,47.969c-0,18.124 7.051,35.149 19.883,47.955c12.806,12.819 29.845,19.884 47.956,19.884c18.11,-0 35.15,-7.065 47.969,-19.884c15.147,-15.134 22.039,-36.578 19.129,-57.401c21.418,12.343 45.389,19.394 70.3,20.637c-2.633,32.597 -16.682,63.064 -39.899,86.294c-26.049,26.048 -60.669,40.376 -97.499,40.376Z" style="fill:#00bce8;fill-rule:nonzero;"/><path d="M126.762,565.943c-32.637,-2.619 -63.143,-16.682 -86.387,-39.926c-26.048,-26.035 -40.375,-60.655 -40.375,-97.485c0,-36.83 14.327,-71.451 40.375,-97.499c26.035,-26.035 60.656,-40.375 97.486,-40.375c35.573,-0 69.083,13.387 94.8,37.756l2.566,2.751c12.806,12.806 29.845,19.87 47.969,19.87c18.111,0 35.137,-7.064 47.956,-19.87c15.147,-15.147 22.04,-36.592 19.129,-57.401c21.432,12.33 45.403,19.381 70.3,20.624c-2.619,32.61 -16.669,63.077 -39.899,86.307c-26.048,26.035 -60.669,40.376 -97.486,40.376c-35.546,-0 -69.029,-13.362 -94.747,-37.69l-2.632,-2.818c-12.806,-12.819 -29.845,-19.87 -47.956,-19.87c-18.124,-0 -35.15,7.051 -47.969,19.87c-12.819,12.806 -19.87,29.845 -19.87,47.969c-0,18.11 7.051,35.15 19.87,47.955c12.779,12.793 29.792,19.818 47.876,19.818c3.255,-0 6.483,-0.225 9.684,-0.675c-12.356,21.405 -19.434,45.376 -20.69,70.313Z" style="fill:#00bce8;fill-rule:nonzero;"/><path d="M562.847,420.7c-32.649,-2.619 -63.142,-16.655 -86.399,-39.912c-26.048,-26.048 -40.389,-60.669 -40.389,-97.499c0,-35.983 13.692,-69.863 38.629,-95.686l1.786,-1.773c12.819,-12.819 19.884,-29.845 19.884,-47.956c-0,-18.124 -7.065,-35.15 -19.884,-47.969c-12.806,-12.819 -29.832,-19.87 -47.956,-19.87c-18.123,0 -35.149,7.051 -47.968,19.87c-15.148,15.148 -22.027,36.592 -19.13,57.402c-21.404,-12.33 -45.389,-19.381 -70.299,-20.638c2.632,-32.596 16.682,-63.063 39.912,-86.294c26.048,-26.035 60.669,-40.375 97.499,-40.375c36.816,-0 71.437,14.34 97.485,40.375c53.129,53.142 53.75,139.211 1.839,193.106l-1.878,1.839c-26.445,26.458 -26.445,69.493 -0,95.938c12.766,12.779 29.778,19.817 47.876,19.817c3.241,0 6.482,-0.225 9.67,-0.688c-12.342,21.405 -19.42,45.389 -20.677,70.313Z" style="fill:#00bce8;fill-rule:nonzero;"/><path d="M574.039,711.913c-35.547,0 -69.03,-13.361 -94.734,-37.689l-2.632,-2.818c-12.78,-12.78 -29.779,-19.818 -47.877,-19.818c-3.254,0 -6.482,0.239 -9.683,0.688c12.369,-21.404 19.433,-45.389 20.677,-70.313c31.406,2.514 60.827,15.624 83.727,37.32l2.553,2.725c12.806,12.819 29.845,19.87 47.956,19.87c18.124,0 35.15,-7.051 47.969,-19.87c15.147,-15.147 22.04,-36.579 19.129,-57.401c21.418,12.343 45.389,19.394 70.3,20.637c-2.62,32.597 -16.669,63.064 -39.899,86.281c-26.048,26.048 -60.669,40.388 -97.486,40.388Z" style="fill:#0d0248;fill-rule:nonzero;"/><path d="M272.203,711.358c-32.65,-2.62 -63.156,-16.656 -86.413,-39.913c-53.128,-53.141 -53.75,-139.223 -1.825,-193.119l1.852,-1.839c15.16,-15.147 22.053,-36.578 19.155,-57.401c21.392,12.343 45.376,19.394 70.287,20.638c-2.553,31.763 -15.968,61.502 -38.153,84.507l-1.786,1.76c-12.819,12.806 -19.87,29.845 -19.87,47.956c-0,18.123 7.051,35.163 19.87,47.968c12.779,12.78 29.779,19.818 47.876,19.818c3.255,-0 6.469,-0.238 9.671,-0.688c-12.356,21.405 -19.421,45.389 -20.664,70.313Z" style="fill:#0d0248;fill-rule:nonzero;"/><path d="M216.085,292.642c-21.405,-12.33 -45.376,-19.381 -70.3,-20.624c2.633,-32.623 16.695,-63.077 39.913,-86.307c26.034,-26.035 60.655,-40.376 97.498,-40.376c35.534,0 69.017,13.349 94.721,37.69l2.633,2.805c12.779,12.779 29.778,19.83 47.876,19.83c3.254,0 6.482,-0.225 9.67,-0.701c-12.342,21.418 -19.407,45.389 -20.677,70.326c-31.366,-2.513 -60.761,-15.597 -83.634,-37.24l-2.62,-2.818c-12.819,-12.805 -29.858,-19.856 -47.969,-19.856c-18.124,-0 -35.163,7.051 -47.969,19.856c-15.147,15.148 -22.039,36.606 -19.142,57.415Z" style="fill:#0d0248;fill-rule:nonzero;"/><path d="M652.263,438.149c-21.405,-12.329 -45.389,-19.38 -70.3,-20.624c2.567,-31.75 15.955,-61.449 38.074,-84.441l1.865,-1.826c26.445,-26.445 26.458,-69.48 0,-95.938c-12.779,-12.779 -29.779,-19.804 -47.876,-19.804c-3.254,0 -6.482,0.225 -9.671,0.688c12.356,-21.405 19.421,-45.389 20.678,-70.313c32.649,2.606 63.142,16.656 86.399,39.912c53.128,53.142 53.75,139.211 1.852,193.093l-1.878,1.852c-15.148,15.147 -22.04,36.592 -19.143,57.401Z" style="fill:#0d0248;fill-rule:nonzero;"/></g></svg>