<?xml version="1.0" encoding="utf-8"?>
<!-- Generator: Adobe Illustrator 25.4.1, SVG Export Plug-In . SVG Version: 6.00 Build 0)  -->
<svg version="1.1" id="Layer_1" xmlns="http://www.w3.org/2000/svg" xmlns:xlink="http://www.w3.org/1999/xlink" x="0px" y="0px"
	 viewBox="0 0 102.5 73.5" style="enable-background:new 0 0 102.5 73.5;" xml:space="preserve">
<style type="text/css">
	.st0{fill:#ED1C24;}
</style>
<path class="st0" d="M0,51.4h102.5v-5.5H0V51.4z M0,73.5h102.5V55.1H0V73.5z M11.6,33.8h8.6l1.1,4.8h10.5L21.9,8.3h-12L0,38.6h10.5
	L11.6,33.8z M15.9,14.8L18.4,26h-5.1L15.9,14.8z M81.2,38.6l1.1-4.8h8.6l1.1,4.8h10.5L92.6,8.3h-12l-9.9,30.3H81.2z M86.6,14.8
	L89.2,26h-5.1L86.6,14.8z M48.9,38.6l9.9-30.3H48.5l-5.2,18.2L38.1,8.3H27.8l9.9,30.3H48.9z M64.9,38.6l9.9-30.3H64.6l-9.9,30.3
	H64.9z M77.5,0H67.3l-1.8,5.5h10.2L77.5,0z"/>
</svg>
