<svg width="89" height="27" viewBox="0 0 89 27" fill="none" xmlns="http://www.w3.org/2000/svg">
<path fill-rule="evenodd" clip-rule="evenodd" d="M78.169 7.07065C76.5128 5.62363 75.0223 5.13033 73.4325 5.13033C71.8426 5.13033 69.8221 5.6894 69.8221 7.69549C69.8221 9.4056 71.3457 9.96468 73.7968 10.754C77.3078 11.8721 81.8124 13.3191 81.8124 18.4495C81.8124 24.3691 77.0428 27 71.9088 27C68.2322 27 64.4894 25.6516 62.2371 23.3167L66.0793 19.4032C67.6029 21.0475 69.8884 21.9026 71.9419 21.9026C73.8299 21.9026 75.5192 21.179 75.5192 19.1072C75.5192 17.134 73.5318 16.5091 70.1533 15.391C66.8742 14.3386 63.562 12.7272 63.562 8.09013C63.5289 2.36784 68.6959 0 73.5318 0C76.4466 0 79.7257 1.08526 82.0112 3.15713L78.169 7.07065ZM17.0912 16.3118H10.5661L13.8452 7.49817L17.0912 16.3118ZM27.7235 26.3094L17.1574 0.657734H10.9304L0 26.3094H6.88947L8.77745 21.2777H18.7804L20.8009 26.3094H27.7235ZM49.9155 0.657734H43.0261L37.0309 19.2058L30.9364 0.657734H23.9144L33.6855 26.3094H39.9125L49.9155 0.657734ZM52.3997 26.3094H58.693V0.657734H52.3997V26.3094ZM84.5616 2.82826C84.5616 4.04507 85.5553 4.99878 86.7808 4.99878C88.0063 4.99878 89 4.04507 89 2.82826C89 1.61145 88.0063 0.657734 86.7808 0.657734C85.5553 0.657734 84.5616 1.61145 84.5616 2.82826ZM84.8928 2.82826C84.8928 1.80877 85.7209 0.986602 86.7477 0.986602C87.7745 0.986602 88.6025 1.80877 88.6025 2.82826C88.6025 3.84775 87.7745 4.66991 86.7477 4.66991C85.754 4.66991 84.8928 3.84775 84.8928 2.82826ZM85.9196 4.04507H86.3833V3.02558H86.7146L87.2776 4.04507H87.8076L87.1451 2.95981C87.5095 2.89403 87.7082 2.66382 87.7082 2.30207C87.7082 1.77588 87.2445 1.57856 86.7808 1.57856H85.9196V4.04507ZM86.3502 2.66382V1.9732H86.7477C86.9795 1.9732 87.2445 2.03898 87.2445 2.30207C87.2445 2.59805 86.9464 2.66382 86.6814 2.66382H86.3502Z" fill="#D4002A"/>
</svg>
