<svg xmlns="http://www.w3.org/2000/svg" width="48" height="48" viewBox="0 0 48 48"><g fill="none"><path fill="#00008F" d="M0 0h47.909v47.909H0z"/><path fill="#FF1721" d="M29.689 23.66 47.91 0h-2.691L26.937 23.66z"/><path fill="#FFF" d="M36.608 34.219c.835 2.336 2.556 8.416 3.24 8.9H35.33a7.454 7.454 0 0 0-.212-1.594c-.194-.695-1.828-5.952-1.828-5.952h-7.176l-1.128 1.6s1.355 4.241 1.439 4.45c.146.374.793 1.496.793 1.496h-4.33s-.111-.648-.154-.917c-.033-.218-.41-1.412-.41-1.412s-.981 1.076-1.248 1.574c-.27.498-.39.755-.39.755H17.3s-.113-.648-.155-.917c-.033-.218-.447-1.507-.447-1.507s-.948 1.15-1.218 1.648a9.595 9.595 0 0 0-.384.776h-3.35s.947-.901 1.278-1.288c.558-.656 2.636-3.373 2.636-3.373l-.833-2.885H7.705s-4.06 5.335-4.22 5.5c-.162.163-1.346 1.861-1.372 2.046H0v-1.343a.905.905 0 0 1 .083-.081c.066-.048 3.079-3.788 5.847-7.476 2.487-3.216 4.82-6.344 5.025-6.642.496-.72 1.211-2.276 1.211-2.276h3.682s.113 1.43.22 1.778c.096.307 2.34 7.667 2.392 7.746l1.24-1.586-2.12-6.526s-.496-1.228-.658-1.412h4.3c-.015.395.033.79.14 1.17.176.537 1.098 3.864 1.098 3.864s2.933-3.676 3.104-3.94c.209-.33.333-.705.363-1.094h3.583s-.656.48-1.806 1.934l-4.17 5.298s.33 1.125.491 1.686c.044.16.074.27.074.281 0 .005.084-.097.227-.281.977-1.237 5.417-7.06 5.686-7.559.217-.403.537-.86.724-1.359h3.496s.08 1.044.187 1.333l2.189 7.585zm-5.32-5.512c-.513 1.104-3.534 4.782-3.534 4.782h4.785s-.928-2.856-1.09-3.5a5.142 5.142 0 0 1-.094-1.25c0-.06-.01-.154-.067-.032zm-18.384 0c-.513 1.104-3.535 4.782-3.535 4.782h4.785s-.927-2.856-1.088-3.5a5.094 5.094 0 0 1-.095-1.25c0-.06-.011-.154-.067-.032zm7.204 11.152 1.317-1.809c-.122-.13-.864-2.38-.864-2.38l-1.273 1.653.82 2.536z"/></g></svg>
