<?xml version="1.0" encoding="UTF-8" standalone="no"?>
<!-- Generator: Adobe Illustrator 16.0.0, SVG Export Plug-In . SVG Version: 6.00 Build 0)  -->
<!DOCTYPE svg  PUBLIC '-//W3C//DTD SVG 1.1//EN'  'http://www.w3.org/Graphics/SVG/1.1/DTD/svg11.dtd'>
<svg id="Capa_1" xmlns="http://www.w3.org/2000/svg" xml:space="preserve" height="55px" viewBox="0 0 55 55" width="55px" version="1.1" y="0px" x="0px" xmlns:xlink="http://www.w3.org/1999/xlink" enable-background="new 0 0 55 55">
<rect width="55" height="54.999" fill="#00008F"/>
<polygon points="52.063 0 31.28 26.619 34.358 26.619 55 0" fill="#FF1721"/>
<path d="m44.414 45.164l-4.883-15.644c-0.203-0.602-0.044-1.017-0.265-1.618h-3.732c-0.284 0.741-0.69 1.428-1.202 2.034l-6.191 8.313-0.672-2.414 4.979-6.394c0.355-0.583 0.803-1.103 1.327-1.539h-3.405l-4.103 5.377-1.203-4.007c-0.239-0.867-0.054-0.654-0.142-1.38h-4.697c0.385 0.619 0.657 1.302 0.804 2.016l2.149 6.722-1.344 1.769-2.539-8.331c-0.303-0.661-0.451-1.385-0.432-2.113h-3.831c-0.22 0.789-0.576 1.535-1.051 2.201l-12.38 16.202v1.485h2.538c0.045-0.441 0.036-0.822 0.407-1.079l5.643-7.278h7.702l1.052 2.963c-1.336 1.884-2.787 3.686-4.341 5.395h3.617c0.07-1.034 0.45-0.973 1.609-2.592l0.937 2.557h3.476c0.124-0.707 1.769-2.557 1.769-2.557 0.474 0.772 0.749 1.651 0.796 2.557h4.908c-0.422-0.43-0.748-0.945-0.955-1.512l-1.671-5.059 1.335-1.885h7.898l2.042 6.5c0.124 0.648 0.205 1.304 0.239 1.963h5.103c-0.689-0.786-0.742-1.166-1.291-2.652zm-32.66-7.958l4.113-5.527c-0.041 0.348-0.021 0.7 0.052 1.043l1.291 4.484h-5.456zm11.948 6.87l-0.938-2.688 1.478-1.962 0.937 2.706-1.477 1.944zm8.428-6.933l4.129-5.526c-0.056 0.349-0.056 0.703 0 1.053l1.301 4.475-5.43-0.002z" fill="#fff"/>
</svg>
