<svg width="219" height="58" viewBox="0 0 219 58" fill="none" xmlns="http://www.w3.org/2000/svg">
<g id="Logo">
<path id="Vector" d="M44.3489 32.7679H6.40479L10.6567 24.5898H40.151L44.3489 32.7679Z" fill="black"/>
<path id="Vector_2" d="M74.0861 16.4114H73.9913C72.6088 16.4114 71.3422 17.1834 70.7087 18.4122L63.8501 31.7134L54.8441 49.1793L29.548 0H21.0979L0 41.0009H8.44982L25.3498 8.17837L50.6459 57.3573H59.042L77.369 21.7967C77.6385 21.2735 77.7793 20.6934 77.7793 20.1046C77.7793 18.0647 76.1257 16.4111 74.0858 16.4111L74.0861 16.4114Z" fill="#26D07C"/>
<path id="Vector_3" d="M100.78 43.9856C100.572 43.7284 100.318 43.53 100.016 43.3922C99.7133 43.2544 99.3639 43.1851 98.9673 43.1851C98.5706 43.1851 98.2031 43.2638 97.8643 43.4194C97.5266 43.5757 97.2331 43.7944 96.985 44.0749C96.7368 44.3554 96.543 44.689 96.4032 45.0753C96.2632 45.4619 96.1933 45.8805 96.1933 46.3312C96.1933 46.7913 96.2632 47.2122 96.4032 47.5937C96.543 47.9758 96.7349 48.3067 96.9778 48.5873C97.2218 48.8678 97.5075 49.0861 97.8375 49.2427C98.1665 49.399 98.5208 49.477 98.8993 49.477C99.3325 49.477 99.7156 49.3851 100.05 49.201C100.383 49.0169 100.658 48.759 100.875 48.4281L102.634 49.7662C102.228 50.3457 101.714 50.7734 101.091 51.0494C100.469 51.3253 99.8282 51.4632 99.1698 51.4632C98.4211 51.4632 97.731 51.3438 97.0998 51.1044C96.4686 50.865 95.9228 50.5226 95.4624 50.0762C95.0023 49.6307 94.6438 49.09 94.3863 48.4549C94.1291 47.8198 94.001 47.1116 94.001 46.3296C94.001 45.5476 94.1297 44.8394 94.3863 44.2043C94.6432 43.5692 95.002 43.0292 95.4624 42.583C95.9225 42.1369 96.4683 41.7943 97.0998 41.5552C97.731 41.3158 98.4211 41.196 99.1698 41.196C99.4403 41.196 99.7221 41.2213 100.015 41.2718C100.308 41.3222 100.597 41.4031 100.881 41.5134C101.166 41.6238 101.438 41.7713 101.7 41.9554C101.962 42.1392 102.196 42.365 102.403 42.6316L100.779 43.9833V43.9856H100.78Z" fill="black"/>
<path id="Vector_4" d="M107.423 46.3316C107.423 45.5499 107.552 44.8414 107.809 44.2062C108.066 43.5711 108.424 43.0312 108.885 42.585C109.345 42.1385 109.891 41.7962 110.522 41.5568C111.153 41.3174 111.844 41.198 112.592 41.198C113.341 41.198 114.031 41.3174 114.663 41.5568C115.294 41.7962 115.84 42.1385 116.3 42.585C116.76 43.0312 117.119 43.5711 117.376 44.2062C117.632 44.8414 117.762 45.5493 117.762 46.3316C117.762 47.1139 117.633 47.8218 117.376 48.4569C117.118 49.0913 116.76 49.632 116.3 50.0781C115.84 50.5243 115.294 50.8672 114.663 51.106C114.031 51.3454 113.341 51.4651 112.592 51.4651C111.844 51.4651 111.153 51.3454 110.522 51.106C109.891 50.8666 109.345 50.5243 108.885 50.0781C108.425 49.6323 108.066 49.0917 107.809 48.4569C107.551 47.8218 107.423 47.1139 107.423 46.3316ZM109.616 46.3316C109.616 46.7913 109.685 47.2126 109.826 47.594C109.965 47.9761 110.166 48.3071 110.427 48.5876C110.689 48.8681 111.002 49.0865 111.368 49.2428C111.733 49.399 112.141 49.477 112.592 49.477C113.043 49.477 113.451 49.399 113.817 49.2428C114.182 49.0865 114.496 48.8681 114.757 48.5876C115.018 48.3071 115.219 47.9761 115.359 47.594C115.498 47.2126 115.569 46.7916 115.569 46.3316C115.569 45.8809 115.498 45.4622 115.359 45.0756C115.219 44.6893 115.018 44.3554 114.757 44.0749C114.495 43.7944 114.182 43.576 113.817 43.4197C113.451 43.2635 113.043 43.1855 112.592 43.1855C112.141 43.1855 111.733 43.2641 111.368 43.4197C111.002 43.576 110.689 43.7947 110.427 44.0749C110.166 44.3554 109.965 44.6893 109.826 45.0756C109.685 45.4619 109.616 45.8809 109.616 46.3316Z" fill="black"/>
<path id="Vector_5" d="M123.348 41.4468H126.217L130.29 48.2359H130.317V41.4468H132.428V51.2163H129.667L125.486 44.2619H125.458V51.2163H123.348V41.4468H123.348Z" fill="black"/>
<path id="Vector_6" d="M143.266 43.8335C143.094 43.6129 142.861 43.4495 142.568 43.3434C142.275 43.2379 141.997 43.1848 141.737 43.1848C141.583 43.1848 141.425 43.2036 141.262 43.2402C141.1 43.277 140.947 43.3346 140.802 43.4126C140.659 43.4912 140.541 43.5944 140.451 43.7229C140.36 43.8516 140.316 44.0082 140.316 44.192C140.316 44.4867 140.424 44.7116 140.64 44.8675C140.857 45.0238 141.129 45.1574 141.459 45.2678C141.787 45.3781 142.142 45.4884 142.521 45.5987C142.899 45.7091 143.254 45.8657 143.584 46.0679C143.912 46.2704 144.186 46.5415 144.402 46.8819C144.619 47.2226 144.727 47.6778 144.727 48.2482C144.727 48.7911 144.628 49.2647 144.429 49.6692C144.231 50.0736 143.963 50.4097 143.624 50.6763C143.286 50.9429 142.894 51.1413 142.447 51.2697C142.001 51.3981 141.529 51.4629 141.032 51.4629C140.411 51.4629 139.833 51.3661 139.301 51.173C138.768 50.9795 138.273 50.6666 137.812 50.2344L139.314 48.551C139.531 48.8458 139.803 49.0735 140.133 49.2343C140.461 49.3951 140.803 49.476 141.155 49.476C141.326 49.476 141.499 49.4553 141.675 49.4139C141.851 49.3728 142.009 49.3107 142.15 49.2279C142.289 49.145 142.402 49.0396 142.488 48.9108C142.574 48.7824 142.617 48.6303 142.617 48.4553C142.617 48.1612 142.506 47.9289 142.284 47.7584C142.064 47.5875 141.787 47.4432 141.453 47.3235C141.119 47.2038 140.758 47.0841 140.371 46.9644C139.982 46.8453 139.621 46.6839 139.288 46.4814C138.954 46.2795 138.676 46.0125 138.456 45.6812C138.234 45.3496 138.123 44.9135 138.123 44.3706C138.123 43.8458 138.225 43.3864 138.429 42.9907C138.632 42.5953 138.902 42.264 139.241 41.9971C139.578 41.7305 139.969 41.5306 140.411 41.3973C140.852 41.264 141.308 41.197 141.777 41.197C142.318 41.197 142.843 41.2756 143.347 41.4313C143.851 41.5875 144.308 41.8502 144.713 42.2178L143.266 43.8319L143.266 43.8335Z" fill="black"/>
<path id="Vector_7" d="M158.527 47.4491C158.527 48.0286 158.442 48.5621 158.27 49.0503C158.098 49.5382 157.843 49.9607 157.505 50.3192C157.167 50.678 156.745 50.9585 156.24 51.1611C155.735 51.3636 155.153 51.4645 154.495 51.4645C153.827 51.4645 153.241 51.3629 152.735 51.1611C152.231 50.9588 151.808 50.678 151.471 50.3192C151.132 49.9607 150.876 49.5375 150.706 49.0503C150.535 48.5631 150.449 48.0292 150.449 47.4491V41.4465H152.559V47.366C152.559 47.6694 152.607 47.9506 152.701 48.2078C152.796 48.4653 152.929 48.6886 153.1 48.8769C153.272 49.0655 153.477 49.2127 153.717 49.3185C153.955 49.4246 154.215 49.477 154.495 49.477C154.775 49.477 155.031 49.4243 155.265 49.3185C155.5 49.2127 155.703 49.0655 155.874 48.8769C156.046 48.6886 156.179 48.4653 156.274 48.2078C156.368 47.9503 156.416 47.6701 156.416 47.366V41.4465H158.527V47.4491Z" fill="black"/>
<path id="Vector_8" d="M164.711 41.4469H166.822V49.2292H170.732V51.2161H164.711V41.4465L164.711 41.4469Z" fill="black"/>
<path id="Vector_9" d="M176.658 43.3508H173.925V41.4468H181.502V43.3508H178.769V51.2163H176.658V43.3508Z" fill="black"/>
<path id="Vector_10" d="M186.697 41.4468H188.809V51.2163H186.697V41.4468Z" fill="black"/>
<path id="Vector_11" d="M194.884 41.4468H197.753L201.825 48.2359H201.851V41.4468H203.963V51.2163H201.202L197.022 44.2619H196.994V51.2163H194.884V41.4468Z" fill="black"/>
<path id="Vector_12" d="M218.738 50.5259C218.116 50.8569 217.466 51.0963 216.789 51.2435C216.113 51.3904 215.423 51.4641 214.719 51.4641C213.969 51.4641 213.28 51.3444 212.649 51.105C212.017 50.8659 211.472 50.5233 211.012 50.0771C210.552 49.6313 210.193 49.091 209.936 48.4559C209.678 47.8208 209.55 47.1129 209.55 46.3306C209.55 45.5483 209.678 44.8404 209.936 44.2053C210.193 43.5702 210.552 43.0302 211.012 42.584C211.472 42.1379 212.017 41.7952 212.649 41.5561C213.28 41.3167 213.97 41.197 214.719 41.197C215.486 41.197 216.192 41.2915 216.837 41.4804C217.481 41.6691 218.048 41.9929 218.535 42.453L217.046 44.1089C216.758 43.8054 216.433 43.5753 216.072 43.4187C215.711 43.2625 215.26 43.1845 214.719 43.1845C214.268 43.1845 213.859 43.2631 213.494 43.4187C213.129 43.575 212.816 43.7937 212.554 44.0742C212.292 44.3547 212.093 44.6883 211.952 45.0746C211.812 45.4612 211.742 45.8799 211.742 46.3306C211.742 46.7907 211.812 47.2116 211.952 47.593C212.093 47.9751 212.292 48.3061 212.554 48.5866C212.816 48.8671 213.129 49.0855 213.494 49.2421C213.86 49.3984 214.268 49.4763 214.719 49.4763C215.178 49.4763 215.576 49.4236 215.909 49.3178C216.243 49.2117 216.509 49.1036 216.707 48.9933V47.4067H214.989V45.4198H218.738V50.5265L218.738 50.5259Z" fill="black"/>
<path id="Vector_13" d="M213.187 16.3761L209.097 15.388C207.429 14.949 206.567 14.1256 206.567 12.8084C206.567 11.107 208.127 10.0092 210.227 10.0092C212.541 10.0092 213.886 11.2716 214.371 12.8634H219C218.247 8.85676 215.286 5.94751 210.172 5.94751C205.49 5.94751 201.992 8.96643 201.992 13.3025C201.992 17.1995 204.468 19.0656 207.697 19.834L211.679 20.8221C213.617 21.2612 214.424 22.0846 214.424 23.5117C214.424 25.4329 212.917 26.4756 210.657 26.4756C208.45 26.4756 206.836 25.4875 206.19 23.402H201.4C202.154 27.9577 205.706 30.5923 210.657 30.5923C215.393 30.5923 218.945 27.7931 218.945 23.1827C219.053 19.4503 216.793 17.2548 213.187 16.3764L213.187 16.3761Z" fill="black"/>
<path id="Vector_14" d="M103.445 5.89258L93.9722 30.482H99.0313L101.13 25.0482H110.98L113.079 30.482H118.138L108.666 5.89258H103.445H103.445ZM102.96 20.2182L106.028 12.2595L109.096 20.2182H102.96Z" fill="black"/>
<path id="Vector_15" d="M124.65 10.6679H136.221L124.65 25.6522V30.4823H142.196V25.6522H130.624L142.196 10.6679V5.89282H124.65V10.6679Z" fill="black"/>
<path id="Vector_16" d="M150.969 7.42938V30.482H168.46V25.652H155.705V20.6022H166.308V15.7721H155.705V10.6677H168.46V5.89258H150.969V7.42938Z" fill="black"/>
<path id="Vector_17" d="M175.081 5.89258V10.6677H182.616V30.482H187.298V10.668H194.833V5.8929H175.081V5.89258Z" fill="black"/>
</g>
</svg>
