<?xml version="1.0" encoding="utf-8"?>
<svg width="152px" height="40px" viewBox="0 0 152 40" version="1.1" xmlns="http://www.w3.org/2000/svg"><title>Baker Tilly</title><g stroke="none" stroke-width="1" fill="none" fill-rule="evenodd"><g transform="translate(-40.000000, -27.000000)" fill="#FFFFFF"><g transform="translate(40.000000, 27.000000)"><g transform="translate(0.000000, 0.000203)"><path d="M138.331476,39.8967458 C138.462149,39.8967458 139.18491,39.7753898 139.374826,39.7462373 C142.925329,39.2008136 145.526594,37.6299661 146.959592,33.2906441 C147.934897,30.3367458 151.826977,18.3635254 151.826977,18.3635254 L147.696233,18.3635254 L144.391164,29.6689492 L143.727307,29.6689492 L141.226924,18.3635254 L136.935378,18.3635254 L141.116902,33.1892881 L143.369481,33.1892881 C143.369481,33.1892881 143.279093,33.4845424 143.211049,33.7174237 C142.730336,35.3682712 140.171049,36.4848814 137.801,36.7964068 L138.331476,39.8967458 Z M97.7759127,33.1808136 L97.7759127,21.7014915 C98.218033,21.5543729 99.3084383,21.3770847 100.545766,21.3770847 C101.194389,21.3770847 102.221828,21.4258983 102.751966,21.4848814 L102.751966,18.1370847 C102.339637,18.0187797 101.223503,17.9838644 100.19234,17.9838644 C97.5992,17.9838644 95.1238682,18.6625085 93.827298,19.2821695 L93.827298,33.1808136 L97.7759127,33.1808136 Z M136.901525,33.1740339 L137.042354,30.1774237 C136.886968,30.212339 136.461098,30.3075932 136.060278,30.3075932 C134.722407,30.3075932 134.327681,29.4377627 134.327681,28.2448814 L134.327681,12.0011525 L130.379066,13.7835254 L130.379066,29.0075932 C130.379066,31.1886102 131.46067,33.3665763 134.586657,33.3665763 C135.826692,33.3665763 136.742755,33.2042034 136.901525,33.1740339 L136.901525,33.1740339 Z M128.783574,33.1740339 L128.924403,30.1774237 C128.769017,30.212339 128.343147,30.3075932 127.942327,30.3075932 C126.604118,30.3075932 126.209392,29.4377627 126.209392,28.2448814 L126.209392,12.0011525 L122.260777,13.7835254 L122.260777,29.0075932 C122.260777,31.1886102 123.342719,33.3665763 126.468706,33.3665763 C127.708403,33.3665763 128.624465,33.2042034 128.783574,33.1740339 L128.783574,33.1740339 Z M114.618799,33.1808136 L114.618799,18.3431864 L118.567414,18.3635254 L118.567414,33.1808136 L114.618799,33.1808136 Z M116.563654,16.6075932 C115.355779,16.6075932 114.442425,16.1353898 114.442425,14.4242034 C114.442425,12.8604746 115.267423,12.2109831 116.563654,12.2109831 C117.889677,12.2109831 118.744465,12.7130169 118.744465,14.3947119 C118.744465,16.0174237 117.948581,16.6075932 116.563654,16.6075932 L116.563654,16.6075932 Z M87.9866388,24.1214915 L87.9866388,23.7964068 C87.9866388,21.7903051 87.1000285,20.8757288 84.9395296,20.8757288 C82.7296053,20.8757288 81.853151,22.0852203 81.7942468,24.1214915 L87.9866388,24.1214915 Z M86.1799038,30.2584407 C88.400661,30.2584407 89.7747546,29.7689492 90.4606165,29.5581017 L90.8438325,32.5089492 C90.2676543,32.7743729 88.3789951,33.5635254 85.9324383,33.5635254 C80.569445,33.5635254 77.7870664,30.8109831 77.7870664,25.4997966 C77.7870664,20.1282712 80.4479127,17.9543729 85.0400731,17.9543729 C90.0469327,17.9543729 91.6407323,20.7279322 91.6407323,25.4194576 C91.6407323,25.9208136 91.6109416,26.6292881 91.5520374,26.8950508 L81.7353425,26.8950508 C81.7353425,29.572678 83.7045719,30.2584407 86.1799038,30.2584407 L86.1799038,30.2584407 Z M68.4019973,33.1808136 L68.4019973,26.6587797 L69.3410797,26.6587797 L74.1106298,33.1808136 L78.5308169,33.1808136 L72.3976677,24.5652203 L77.9793514,18.3635254 L73.6641087,18.3635254 L69.2412134,23.3536949 L68.4019973,23.3536949 L68.4019973,12.0011525 L64.4533826,13.7835254 L64.4533826,33.1808136 L68.4019973,33.1808136 Z M108.986336,33.3665763 C110.557454,33.3665763 111.578461,33.1231864 111.747726,33.0794576 L111.924438,30.0397966 C111.788688,30.0967458 111.027334,30.3086102 110.541204,30.3086102 C108.72736,30.3086102 108.152875,29.0174237 108.152875,27.3058983 L108.152875,21.8787797 L112.372991,21.8787797 L112.372991,18.3635254 L108.152875,18.3635254 L108.152875,15.2004746 L104.2503,16.9825085 L104.2503,28.4181017 C104.2503,31.8160678 106.022167,33.3665763 108.986336,33.3665763 L108.986336,33.3665763 Z M57.848661,26.9736949 C57.1394405,26.8608136 55.827298,26.6706441 54.7399394,26.6706441 C52.179298,26.6706441 51.9639929,27.732 51.9639929,28.6581017 C51.9639929,30.1601356 52.6440998,30.7150508 54.842514,30.7150508 C56.2778815,30.7150508 57.3178459,30.4858983 57.848661,30.3384407 L57.848661,26.9736949 Z M54.6065586,33.5489492 C49.6277969,33.5489492 48.2283136,31.9869153 48.2283136,28.7536949 C48.2283136,25.4543729 49.6707902,23.9811525 54.4755474,23.9811525 C55.9867457,23.9811525 57.4014628,24.2075932 57.848661,24.2686102 L57.848661,23.2845424 C57.848661,22.0974237 57.2217033,21.2296271 54.0666031,21.2296271 C51.5591109,21.2296271 50.1427011,21.9435254 49.6491243,22.1370847 L49.3441087,19.0686102 C49.9957791,18.811322 52.0760463,17.9543729 55.1878147,17.9543729 C59.8666388,17.9543729 61.7383715,19.952 61.7383715,23.7987797 L61.7383715,32.4167458 C60.618514,32.9184407 57.7396543,33.5489492 54.6065586,33.5489492 L54.6065586,33.5489492 Z M38.8178548,30.3557288 C41.8893381,30.3557288 42.8314673,28.6099661 42.8314673,25.7682712 C42.8314673,23.012678 41.8463448,21.2611525 38.8178548,21.2611525 C37.9339528,21.2611525 37.1340062,21.4364068 36.1912,21.731322 L36.1912,29.8862373 C36.8760463,30.1109831 37.8496588,30.3557288 38.8178548,30.3557288 L38.8178548,30.3557288 Z M32.2425853,13.7835254 L36.1912,12.0011525 L36.1912,18.6035254 C37.2227011,18.2787797 38.0361889,17.9543729 40.0991911,17.9543729 C44.5721889,17.9543729 46.7441978,20.3394576 46.7441978,25.7686102 C46.7441978,32.1299661 44.2499082,33.5635254 38.5189327,33.5635254 C35.7785318,33.5635254 33.421347,33.091322 32.2425853,32.5601356 L32.2425853,13.7835254 Z"></path><path d="M17.7917862,0.728813559 L17.7917862,0.728813559 C16.7599465,0.218983051 15.1624232,-2.3625546e-13 13.6221114,-2.3625546e-13 C6.64466815,-2.3625546e-13 7.531753e-13,3.93864407 7.531753e-13,10.5722034 C7.531753e-13,12.9152542 0.743073497,15.420339 2.03998218,17.6647458 C3.5061559,20.2027119 5.53936748,22.5227119 7.96628953,24.1718644 C9.80823163,25.4233898 11.9413096,26.2962712 14.1451403,26.2962712 C15.9806503,26.2962712 17.2132383,25.7925424 17.6401247,25.440339 C17.4552873,25.4698305 17.0114744,25.5349153 16.4633942,25.5349153 C10.6647127,25.5349153 6.71846771,20.3661017 5.24044543,16.6115254 C4.67103786,15.1647458 4.24719822,13.4261017 4.24719822,11.7 C4.24719822,4.6379661 10.561461,0.76 16.7284633,0.76 C17.0737639,0.76 17.4214343,0.771186441 17.7704588,0.79559322 C17.7975412,0.797288136 17.8144677,0.780677966 17.8144677,0.762033898 C17.8144677,0.750169492 17.8073586,0.737627119 17.7917862,0.728813559 M18.8635724,11.2220339 C15.8168018,11.2220339 13.2812116,13.4938983 13.2812116,16.52 C13.2812116,19.3254237 15.5747528,21.9867797 18.9224766,21.9867797 C19.6963563,21.9867797 20.4671893,21.8142373 21.1740401,21.4932203 C21.2952339,21.4383051 21.4540045,21.3861017 21.5579332,21.3023729 C21.6435813,21.2332203 21.6842049,21.1118644 21.741755,21.0149153 C22.6351359,19.5162712 23.6344766,16.0847458 23.779029,14.1620339 C23.7935857,13.9647458 23.7387439,13.8932203 23.6216125,13.7345763 C22.8304677,12.6623729 21.2911715,11.2220339 18.8635724,11.2220339 M23.8971759,11.46 C23.8971759,11.7189831 23.8914209,12.2783051 23.8849889,12.5332203 C22.7498976,10.5328814 20.5433586,9.38271186 18.2599733,9.38271186 C14.9281604,9.38271186 11.8827439,12.3074576 11.8827439,16.1745763 C11.8827439,19.9769492 14.9386548,22.720678 18.3662717,22.720678 C19.3046771,22.720678 20.2424053,22.5142373 21.1009176,22.0983051 C20.7325969,22.6620339 20.3199287,23.1983051 19.8588508,23.6891525 C19.6523474,23.9091525 19.4380579,24.1864407 19.1523385,24.2915254 C18.8270111,24.4115254 18.144196,24.6844068 16.9275189,24.6844068 C12.8546637,24.6844068 10.0834566,21.6613559 8.78417817,19.7169492 C7.48862361,17.7779661 6.36978174,15.1789831 6.36978174,12.3989831 C6.36978174,6.85457627 10.9737906,3.99728814 16.0283831,3.99728814 C21.5294967,3.99728814 23.8971759,8.37728814 23.8971759,11.46"></path></g></g></g></g></svg>