<svg width="302px" height="80px" viewBox="0 0 302 80" version="1.1" xmlns="http://www.w3.org/2000/svg" xmlns:xlink="http://www.w3.org/1999/xlink">
    <!-- Generator: Sketch 51.3 (57544) - http://www.bohemiancoding.com/sketch -->
    <desc>Created with Sketch.</desc>
    <defs></defs>
    <g id="Startsida" stroke="none" stroke-width="1" fill="none" fill-rule="evenodd">
        <g id="startsida-desktop" transform="translate(-32.000000, -1534.000000)" fill="#FFFFFE">
            <g id="Upper-footer" transform="translate(-1.000000, 1500.000000)">
                <g id="Logga-White_FourColour_EPS(1)" transform="translate(33.000000, 34.000000)">
                    <path d="M272.408708,66.6433898 L272.625287,60.9810169 C272.316561,61.0508475 271.132775,61.2420339 270.335065,61.2420339 C267.672891,61.2420339 266.950512,59.499661 266.950512,57.1105085 L266.950512,24.260339 L259.767755,27.5335593 L259.767755,58.2989831 C259.767755,62.6664407 261.919421,67.0298305 268.139679,67.0298305 C270.606125,67.0298305 272.091911,66.7044068 272.408708,66.6433898 Z M256.241283,66.6433898 L256.458535,60.9810169 C256.149136,61.0508475 254.964677,61.2420339 254.167639,61.2420339 C251.505465,61.2420339 250.783759,59.499661 250.783759,57.1105085 L250.783759,24.260339 L243.60033,27.5335593 L243.60033,58.2989831 C243.60033,62.6664407 245.752668,67.0298305 251.972254,67.0298305 C254.439372,67.0298305 255.925158,66.7044068 256.241283,66.6433898 Z M228.394731,66.5505085 L235.57816,66.5505085 L235.57816,36.8535593 L228.394731,36.8535593 L228.394731,66.5505085 Z M231.930619,33.1837288 C229.622236,33.1837288 227.876824,32.2759322 227.876824,28.9844068 C227.876824,25.9762712 229.453412,24.7267797 231.930619,24.7267797 C234.464325,24.7267797 236.098085,25.6922034 236.098085,28.9274576 C236.098085,32.0488136 234.577323,33.1837288 231.930619,33.1837288 Z M275.214147,80 C275.473773,80 276.911804,79.7566102 277.289808,79.6976271 C284.354187,78.6061017 289.529889,75.460339 292.380392,66.7688136 C294.32086,60.8528814 301.788129,36.8718644 301.788129,36.8718644 L294.168178,36.8718644 L287.306254,60.2359322 L286.085474,60.2359322 L280.233804,36.8718644 L272.782677,36.8718644 L280.755073,66.5654237 L285.342918,66.5654237 C285.342918,66.5654237 285.163332,67.1566102 285.028138,67.6237288 C284.07102,70.9294915 279.854454,73.539661 274.255684,74.3464407 L275.214147,80 Z M194.163131,66.5484746 L194.163131,43.0928814 C195.0429,42.7979661 197.107127,42.4427119 199.568864,42.4427119 C200.858922,42.4427119 203.26147,42.540339 204.317461,42.6583051 L204.317461,36.4183051 C203.496209,36.1816949 201.275938,36.1118644 199.223817,36.1118644 C194.064258,36.1118644 189.528205,37.4257627 186.980374,38.5715254 L186.980374,66.5484746 L194.163131,66.5484746 Z M175.401465,48.5986441 L175.401465,47.7532203 C175.401465,43.8372881 173.280067,41.9023729 168.981443,41.9023729 C164.351898,41.9023729 162.374437,44.520678 162.256731,48.5986441 L175.401465,48.5986441 Z M171.476138,61.4291525 C175.895158,61.4291525 178.674365,60.3240678 180.03841,59.9016949 L180.728503,65.2033898 C179.582383,65.7355932 175.825207,67.3152542 170.956886,67.3152542 C160.285996,67.3152542 155.065902,61.8020339 155.065902,51.1654237 C155.065902,40.4061017 160.043857,36.0528814 169.181207,36.0528814 C179.143844,36.0528814 182.208909,41.6074576 182.208909,51.0040678 C182.208909,52.0088136 182.140303,53.2610169 182.081786,53.6583051 L162.14037,53.6583051 C162.14037,59.0210169 165.47784,61.4291525 171.476138,61.4291525 Z M135.614143,66.5484746 L135.614143,52.9769492 L137.859301,52.9769492 L147.709612,66.5484746 L155.725056,66.5484746 L143.521969,49.2935593 L154.627363,36.8718644 L146.741733,36.8718644 L137.606401,47.2915254 L135.614143,47.2915254 L135.614143,24.1308475 L128.430713,27.7010169 L128.430713,66.5484746 L135.614143,66.5484746 Z M217.117149,67.0311864 C220.242748,67.0311864 221.983452,66.5430508 222.320428,66.4549153 L222.65135,60.7220339 C222.379617,60.8291525 220.633532,61.259661 219.609826,61.259661 C215.999951,61.259661 214.876027,58.6745763 214.876027,55.2467797 L214.876027,43.1281356 L223.564748,43.1281356 L223.564748,36.8718644 L214.876027,36.8718644 L214.876027,30.6847458 L207.693942,33.9789831 L207.693942,57.12 C207.693942,63.9254237 211.219069,67.0311864 217.117149,67.0311864 Z M115.303465,53.8501695 C113.892339,53.6237288 111.057305,53.2555932 108.894205,53.2555932 C103.799216,53.2555932 102.960477,55.6359322 102.960477,57.4901695 C102.960477,60.2142373 104.724049,61.4515254 109.098004,61.4515254 C111.953889,61.4515254 114.247474,61.0833898 115.303465,60.7871186 L115.303465,53.8501695 Z M109.29037,67.2867797 C99.8503474,67.2867797 96.2976437,64.1579661 96.2976437,57.6820339 C96.2976437,51.0738983 99.7561826,48.1227119 108.367555,48.1227119 C111.374775,48.1227119 114.624806,48.6352542 115.303465,48.7308475 L115.303465,46.5159322 C115.303465,44.1383051 114.137167,42.0542373 107.738668,42.0542373 C102.881782,42.0542373 99.6963207,43.4162712 98.7136437,43.8040678 L98.1587439,38.2840678 C99.4541826,37.7688136 103.594071,36.0528814 109.785408,36.0528814 C119.094272,36.0528814 122.481514,40.0535593 122.481514,47.7579661 L122.481514,65.1471186 C120.782512,65.8488136 115.52408,67.2867797 109.29037,67.2867797 Z M77.0039465,61.4467797 C83.3176971,61.4467797 85.742441,57.3945763 85.742441,51.7030508 C85.742441,46.1837288 83.4118619,42.039322 77.0039465,42.039322 C75.2450824,42.039322 72.7550958,42.6277966 71.6520223,42.980339 L71.6520223,60.5057627 C72.7550958,60.8738983 75.076931,61.4467797 77.0039465,61.4467797 Z M64.447069,27.7010169 L71.6520223,24.4189831 L71.6520223,37.4562712 C72.9864722,36.9844068 75.448882,36.0528814 79.5524499,36.0528814 C88.4523697,36.0528814 92.7745345,40.8298305 92.7745345,51.7037288 C92.7745345,64.4440678 87.812049,67.3152542 76.409363,67.3152542 C70.9572205,67.3152542 66.5247483,66.3057627 64.447069,65.4338983 L64.447069,27.7010169 Z" id="Fill-1"></path>
                    <path d="M35.3999154,1.55254237 C33.3464499,0.530847458 30.1683875,0.0922033898 27.1033229,0.0922033898 C13.2207394,0.0922033898 0,7.98101695 0,21.2664407 C0,25.96 1.47838753,30.9776271 4.05850334,35.4725424 C6.97626726,40.5552542 11.0213185,45.2027119 15.8499555,48.5050847 C19.5149844,51.0115254 23.7591269,52.76 28.1445167,52.76 C31.7960935,52.76 34.2484143,51.7511864 35.0979154,51.0454237 C34.7306726,51.1050847 33.8468686,51.2352542 32.7565746,51.2352542 C20.8003341,51.2352542 12.5965612,41.0033898 9.9781069,33.3627119 C9.01291759,30.5437288 8.0026637,26.9830508 8.0026637,23.5261017 C8.0026637,9.38169492 20.3369087,1.61491525 33.2838976,1.61491525 C33.9713007,1.61491525 34.6627394,1.63728814 35.3575412,1.68610169 C35.4113497,1.68949153 35.44498,1.65627119 35.44498,1.61898305 C35.44498,1.59525424 35.4308552,1.57016949 35.3999154,1.55254237 Z M37.5320757,22.8637288 C31.4698797,22.8637288 26.7797996,27.5315254 26.7797996,33.0501695 C26.7797996,38.6691525 31.0945657,43.9050847 37.7553808,43.9050847 C39.1826503,43.9050847 40.8103563,43.479322 42.2349354,42.9166102 C42.4811091,42.819661 42.791853,42.7023729 42.9990156,42.5349153 C43.1691849,42.3966102 43.325902,42.0644068 43.4348641,41.8671186 C45.1116704,38.8257627 47.0252339,32.3077966 47.3117639,28.4569492 C47.3413586,28.0616949 47.2323964,27.919322 46.9990022,27.600678 C45.4257773,25.4528814 42.3627305,22.8637288 37.5320757,22.8637288 Z M47.5471759,23.0454237 C47.5471759,23.5647458 47.5364143,24.6847458 47.5236347,25.1952542 C45.2650245,21.1884746 40.8742539,18.620339 36.3314744,18.620339 C29.2200134,18.620339 23.2418931,24.6230508 23.2418931,32.3688136 C23.2418931,39.9837288 29.0935635,45.7776271 36.4606147,45.7776271 C38.3277684,45.7776271 40.3543296,45.3457627 41.8226281,44.5966102 C41.0874699,45.6827119 40.5769621,46.3525424 39.8249889,47.1959322 C39.4241158,47.6454237 38.8645078,48.2583051 38.2961559,48.4698305 C37.6484365,48.7098305 36.2904454,49.2562712 33.8697372,49.2562712 C26.1468775,49.2562712 20.4014788,43.4766102 17.8159822,39.5823729 C15.2385568,35.6989831 13.0122316,30.4942373 13.0122316,24.9254237 C13.0122316,14.2494915 22.3157149,8.43661017 31.890931,8.43661017 C42.8591136,8.43661017 47.5471759,16.8711864 47.5471759,23.0454237 Z" id="Fill-2"></path>
                </g>
            </g>
        </g>
    </g>
</svg>