<svg xmlns="http://www.w3.org/2000/svg" viewBox="0 0 448.49 117.7" width="448.49" height="117.7">
    <path d="M278.67,281.35l11.67-5.26v19.47a31,31,0,0,1,11.54-1.91c13.22,0,19.63,7,19.63,23.05,0,18.77-7.37,23-24.29,23-8.1,0-15.06-1.4-18.55-3Zm19.43,48.88c9.07,0,11.85-5.15,11.85-13.53,0-8.13-2.91-13.29-11.85-13.29a25.18,25.18,0,0,0-7.76,1.38v24.06A26,26,0,0,0,298.1,330.23Zm46.64,9.42c-14.71,0-18.84-4.6-18.84-14.14,0-9.74,4.26-14.08,18.45-14.08a70.64,70.64,0,0,1,10,.85v-2.91c0-3.5-1.85-6.06-11.17-6.06A30.62,30.62,0,0,0,330.09,306l-.9-9.05a45,45,0,0,1,17.26-3.29c13.82,0,19.35,5.89,19.35,17.24v25.42C362.5,337.79,354,339.65,344.74,339.65Zm9.57-19.39a63,63,0,0,0-9.18-.9c-7.56,0-8.2,3.13-8.2,5.87,0,4.43,2,6.06,8.5,6.06a33.22,33.22,0,0,0,8.88-1.11Zm151.06,18.86a34.67,34.67,0,0,0,8.16-.85l.52-9a15.45,15.45,0,0,1-4.08.79c-5.36,0-7.06-3.8-7.06-8.85v-16h12.47V294.86H502.91v-9.33l-11.53,5.25v33.74C491.38,334.54,496.62,339.12,505.37,339.12Zm-119.88-.55V319.33h2.77l14.09,19.24h13.06l-18.12-25.42,16.49-18.29H401L388,309.58h-2.48V276.09l-11.67,5.26v57.22ZM438,330a38.39,38.39,0,0,0,12.65-2.07l1.13,8.71a35.93,35.93,0,0,1-14.51,3.11c-15.84,0-24.06-8.12-24.06-23.79,0-15.85,7.86-22.26,21.43-22.26,14.79,0,19.49,8.18,19.49,22a28.23,28.23,0,0,1-.26,4.35h-29C424.87,327.92,430.69,330,438,330Zm5.34-18.11v-1c0-5.91-2.62-8.61-9-8.61s-9.12,3.57-9.29,9.57Zm84.41-22.16c-3.56,0-6.26-1.4-6.26-6.44,0-4.62,2.44-6.53,6.26-6.53s6.45,1.48,6.45,6.44C534.2,287.94,531.85,289.68,527.75,289.68ZM522,338.57V294.8l11.66.06v43.71Zm41.84,0,.42-8.84a14.36,14.36,0,0,1-2.9.38c-4,0-5.12-2.56-5.12-6.08V276.09l-11.67,5.26v44.91c0,6.43,3.2,12.86,12.43,12.86A38.93,38.93,0,0,0,563.85,338.55Zm24,0,.42-8.84a14.36,14.36,0,0,1-2.9.38c-4,0-5.12-2.56-5.12-6.08V276.09l-11.67,5.26v44.91c0,6.43,3.2,12.86,12.43,12.86A38.93,38.93,0,0,0,587.83,338.55Zm-115.57,0V304.7a31.05,31.05,0,0,1,8.18-.95c1.91,0,4.95.14,6.52.31v-9.87a40.61,40.61,0,0,0-7.57-.45,47.63,47.63,0,0,0-18.8,3.83v41Zm119.8,19.81c.38,0,2.52-.36,3.08-.44,10.49-1.61,18.17-6.25,22.4-19.05,2.88-8.71,14.38-44,14.38-44h-12.2L610,328.21h-2l-7.39-33.35H587.93l12.35,43.73h6.66s-.27.87-.47,1.56c-1.42,4.87-9,8.16-16,9.08Z" transform="matrix(1, 0, 0, 1, -183.429993, -240.679993)" style="fill: rgb(255, 255, 255); fill-rule: nonzero;"/>
    <path d="M254,274.49c0,.77,0,2.42,0,3.17a19,19,0,0,0-16.62-9.3c-9.84,0-18.84,8.63-18.84,20a19.16,19.16,0,0,0,19.15,19.31,18.48,18.48,0,0,0,8.08-1.84,33.35,33.35,0,0,1-3.67,4.7,6.17,6.17,0,0,1-2.08,1.77,17,17,0,0,1-6.58,1.16c-12,0-20.21-8.91-24.05-14.65s-7.13-13.39-7.13-21.59c0-16.35,13.6-24.78,28.53-24.78C247,252.48,254,265.4,254,274.49Zm-14.87-.7c-9,0-16.49,6.7-16.49,15.63a16.37,16.37,0,0,0,16.67,16.13,16.13,16.13,0,0,0,6.65-1.46,5.41,5.41,0,0,0,1.13-.56,3,3,0,0,0,.55-.85c2.63-4.42,5.59-14.55,6-20.22a1.56,1.56,0,0,0-.46-1.26A17.35,17.35,0,0,0,239.15,273.79Zm-3.16-31h0c-3.05-1.5-7.77-2.15-12.32-2.15-20.61,0-40.24,11.62-40.24,31.19a42.76,42.76,0,0,0,6,20.93A58.91,58.91,0,0,0,207,312c5.44,3.69,11.75,6.27,18.26,6.27,5.42,0,9.06-1.49,10.32-2.53a22,22,0,0,1-3.48.28c-17.13,0-28.78-15.25-33.15-26.32A40.58,40.58,0,0,1,196,275.2c0-20.83,18.65-32.27,36.87-32.27,1,0,2,0,3.07.1a.11.11,0,0,0,.14-.1A.15.15,0,0,0,236,242.83Z" transform="matrix(1, 0, 0, 1, -183.429993, -240.679993)" style="fill: rgb(255, 255, 255); fill-rule: nonzero;"/>
</svg>