<svg class="w-full max-w-[227px]" width="151" height="40" viewBox="0 0 151 40" fill="none" xmlns="http://www.w3.org/2000/svg">
<g clip-path="url(#clip0_1347_6)">
    <path d="M32.0659 13.6928L35.995 11.9219V18.4771C37.2376 18.0182 38.5562 17.7999 39.8804 17.8341C44.3314 17.8341 46.4895 20.1909 46.4895 25.5947C46.4895 31.9143 44.0081 33.3384 38.3114 33.3384C35.5843 33.3384 33.2409 32.8671 32.0659 32.3284V13.6928ZM38.6077 30.15C41.6614 30.15 42.5974 28.4161 42.5974 25.5947C42.5974 22.8574 41.6177 21.1201 38.6077 21.1201C37.7178 21.1369 36.8361 21.2937 35.995 21.5847V29.6854C36.8373 29.9721 37.7183 30.1288 38.6077 30.15ZM54.3107 33.3216C49.3581 33.3216 47.9676 31.7728 47.9676 28.5609C47.9676 25.2816 49.4018 23.8203 54.1794 23.8203C55.3071 23.8358 56.4322 23.9314 57.5463 24.1065V23.1268C57.5463 21.9484 56.9234 21.0865 53.7855 21.0865C52.2676 21.0602 50.7627 21.3694 49.3783 21.9921L49.0753 18.9451C50.9207 18.1976 52.8954 17.8212 54.8864 17.8374C59.5394 17.8374 61.4013 19.8205 61.4013 23.6419V32.2004C60.2902 32.6954 57.4284 33.3216 54.3107 33.3216ZM57.5328 26.7933C56.5113 26.6169 55.4783 26.5156 54.442 26.4902C51.8967 26.4902 51.6812 27.5441 51.6812 28.4666C51.6812 29.9581 52.3546 30.5069 54.543 30.5069C55.5519 30.5178 56.5576 30.392 57.5328 30.1332V26.7933ZM108.392 33.1432C109.316 33.1568 110.239 33.0608 111.14 32.857L111.315 29.8268C110.871 29.9769 110.409 30.0664 109.941 30.0928C108.137 30.0928 107.564 28.8134 107.564 27.1131V21.7262H111.763V18.2415H107.564V15.1002L103.682 16.8678V28.2275C103.682 31.6011 105.446 33.1432 108.392 33.1432ZM68.0306 32.958V26.4801H68.9633L73.7072 32.958H78.1043L72.0035 24.3994L77.5555 18.2415H73.2526L68.8757 23.1975H68.0407V11.9219L64.1116 13.6928V32.958H68.0306ZM85.71 30.0726C87.1587 30.0806 88.5985 29.845 89.9691 29.3756L90.3495 32.3082C88.8117 32.9934 87.1478 33.35 85.4642 33.3553C80.1311 33.3553 77.3636 30.6214 77.3636 25.3455C77.3636 20.0091 80.0099 17.8509 84.5787 17.8509C89.5583 17.8509 91.1407 20.605 91.1407 25.258C91.1493 25.7477 91.1201 26.2374 91.0532 26.7226H81.2893C81.2893 29.3723 83.2488 30.0726 85.71 30.0726ZM87.5079 23.9752V23.6385C87.5079 21.6487 86.6258 20.7397 84.4777 20.7397C82.3297 20.7397 81.4071 21.9416 81.3499 23.9617L87.5079 23.9752ZM115.927 16.5143C114.729 16.5143 113.82 16.0429 113.82 14.346C113.82 12.7905 114.641 12.1475 115.927 12.1475C117.214 12.1475 118.099 12.6458 118.099 14.3157C118.099 15.9116 117.308 16.4974 115.927 16.4974V16.5143ZM113.992 32.958V18.2213L117.917 18.2415V32.958H113.992ZM128.078 32.958L128.22 29.9817C127.9 30.0574 127.572 30.1003 127.243 30.1096C125.897 30.1096 125.52 29.2477 125.52 28.0626V11.9219L121.591 13.6928V28.8134C121.591 30.9783 122.668 33.1432 125.776 33.1432C126.548 33.1473 127.32 33.0831 128.082 32.9512L128.078 32.958ZM136.159 32.958L136.3 29.9817C135.98 30.0574 135.653 30.1003 135.324 30.1096C133.977 30.1096 133.6 29.2477 133.6 28.0626V11.9219L129.671 13.6928V28.8134C129.671 30.9783 130.748 33.1432 133.856 33.1432C134.627 33.1469 135.396 33.0827 136.156 32.9512L136.159 32.958ZM97.2482 32.958V21.5544C98.1479 21.326 99.0741 21.2185 100.002 21.2346C100.645 21.2346 101.669 21.2817 102.197 21.339V18.0159C101.354 17.886 100.501 17.8353 99.6488 17.8644C97.4732 17.8604 95.3197 18.2991 93.3191 19.1539V32.958H97.2482ZM137.583 39.6277C137.711 39.6277 138.432 39.5065 138.62 39.4796C142.152 38.9375 144.738 37.3753 146.162 33.0657C147.131 30.1332 151.003 18.2516 151.003 18.2516H146.896L143.62 29.4699H142.946L140.458 18.2415H136.189L140.347 32.9647H142.59C142.59 32.9647 142.499 33.2576 142.431 33.4899C141.953 35.1296 139.401 36.2373 137.044 36.547L137.583 39.6277Z" fill="white"/>
    <path d="M23.7598 11.3831C23.7598 11.6424 23.7598 12.1979 23.7598 12.4504C23.1851 11.4822 22.3651 10.6829 21.3826 10.1331C20.4001 9.58331 19.2898 9.30257 18.1641 9.31924C14.8511 9.31924 11.8209 12.2248 11.8209 16.0529C11.8143 16.904 11.9761 17.7481 12.2971 18.5363C12.6181 19.3246 13.0919 20.0416 13.6912 20.6459C14.2905 21.2502 15.0035 21.73 15.7891 22.0575C16.5747 22.3851 17.4173 22.5539 18.2684 22.5544C19.2105 22.5565 20.1406 22.3446 20.9889 21.9348C20.6251 22.4982 20.2115 23.0277 19.7532 23.5173C19.5672 23.7657 19.3279 23.9694 19.0529 24.1132C18.3476 24.3886 17.5946 24.5214 16.8375 24.5038C12.7973 24.5038 10.0331 21.5039 8.74025 19.5713C7.44738 17.6387 6.33968 15.0631 6.33968 12.3023C6.33968 6.79747 10.9186 3.95922 15.9453 3.95922C21.403 3.97268 23.7598 8.32265 23.7598 11.3831ZM18.7533 11.1475C15.7231 11.1475 13.2013 13.4032 13.2013 16.4098C13.2118 17.1354 13.3655 17.8517 13.6535 18.5177C13.9416 19.1837 14.3583 19.7863 14.8797 20.2908C15.4012 20.7954 16.0171 21.192 16.6923 21.458C17.3674 21.7239 18.0884 21.8539 18.8139 21.8406C19.5867 21.8379 20.35 21.6703 21.0528 21.349C21.1866 21.3012 21.3142 21.2379 21.4333 21.1605C21.5108 21.0763 21.5734 20.9795 21.6185 20.8743C22.5039 19.3861 23.5005 15.9755 23.6386 14.0665C23.6459 13.9887 23.6359 13.9103 23.6091 13.8369C23.5823 13.7635 23.5394 13.697 23.4837 13.6423C22.9515 12.8808 22.2453 12.2572 21.4237 11.8233C20.6022 11.3894 19.689 11.1577 18.76 11.1475H18.7533ZM17.6893 0.7102C16.6625 0.205172 15.0733 -0.0136719 13.5414 -0.0136719C6.60229 -0.0136719 -0.00683594 3.89861 -0.00683594 10.4875C0.0472054 12.9714 0.743137 15.3991 2.01328 17.5344C3.47885 20.1088 5.50249 22.3223 7.93557 24.0122C9.76714 25.2546 11.8916 26.1232 14.0834 26.1232C15.9083 26.1232 17.1338 25.6215 17.558 25.2714C17.1706 25.3338 16.7788 25.3653 16.3864 25.3657C10.619 25.3657 6.69657 20.2312 5.22525 16.5041C4.59778 14.9514 4.26111 13.2966 4.23203 11.6222C4.23203 4.60902 10.5112 0.757335 16.6456 0.757335C16.9823 0.757335 17.319 0.757337 17.6792 0.791006C17.6846 0.792532 17.6902 0.792833 17.6957 0.791884C17.7012 0.790936 17.7064 0.788759 17.7109 0.785524C17.7155 0.782289 17.7192 0.778075 17.7219 0.773195C17.7245 0.768314 17.7261 0.762893 17.7264 0.757335C17.7247 0.750083 17.7213 0.743306 17.7167 0.737484C17.712 0.731663 17.7061 0.726946 17.6994 0.72367L17.6893 0.7102Z" fill="white"/>
</g>
<defs>
    <clipPath id="clip0_1347_6">
        <rect width="151" height="39.6279" fill="white"/>
    </clipPath>
</defs>
</svg>
