<svg xmlns="http://www.w3.org/2000/svg" viewBox="0 0 467.34 149.01"><defs><style>.a{fill:#1d1d1b;}.b{fill:#ee7203;}</style></defs><title>rz_BauderLogo_DE</title><path class="a" d="M242,147.19a7.57,7.57,0,0,0-4.84,2.29,4.16,4.16,0,0,0-3.72-2.29,7,7,0,0,0-4.2,1.88,7.28,7.28,0,0,0-.52-1.64l-.13-.27-3.14.74.25.44a7.49,7.49,0,0,1,.51,3.1v12.34h3.08V152c1.46-1.3,2.5-1.84,3.56-1.84a1.57,1.57,0,0,1,1.29.48,2.83,2.83,0,0,1,.35,1.75v11.35h3.2V152.29c1.47-1.36,2.48-2.18,3.72-2.18.69,0,1.61.19,1.61,1.89v11.78h3.23v-12A4.22,4.22,0,0,0,242,147.19Z" transform="translate(-29.55 -15.43)"/><path class="a" d="M261.89,158.49l.12-5.09a9.05,9.05,0,0,0-.37-3.56c-.71-1.73-2.31-2.65-4.62-2.65a11.94,11.94,0,0,0-6.69,2.14l-.32.21,1.67,2.4.32-.28a8.12,8.12,0,0,1,4.68-1.74,2.19,2.19,0,0,1,1.79.71c.33.38.4.78.4,2.17v.69h-.71c-5.36,0-8.56,2.22-8.56,5.93,0,1.12.39,4.78,5.34,4.78a5.89,5.89,0,0,0,4.3-1.78,3.55,3.55,0,0,0,2.16,1.94l.26.09,1.65-2.31-.38-.2C262,161.44,261.82,161.07,261.89,158.49Zm-6.55,3.15c-1.54,0-2.29-.8-2.29-2.45s.59-3.31,4.93-3.31c.22,0,.55,0,.82,0l-.08,3.59A3.86,3.86,0,0,1,255.34,161.64Z" transform="translate(-29.55 -15.43)"/><path class="a" d="M275.64,159.91a3.92,3.92,0,0,1-3,1.54c-2.84,0-3.44-2.71-3.44-5a10.78,10.78,0,0,1,.83-4.88,2.93,2.93,0,0,1,2.58-1.53,3.76,3.76,0,0,1,2.71,1.15l.29.25,1.8-2.27-.28-.23a6.4,6.4,0,0,0-4.46-1.76,6,6,0,0,0-4.45,1.91c-1.68,1.68-2.43,3.79-2.43,6.84a9.47,9.47,0,0,0,1.55,5.7,6,6,0,0,0,5.24,2.48,6.36,6.36,0,0,0,5-2.15l.24-.25-1.85-2.15Z" transform="translate(-29.55 -15.43)"/><path class="a" d="M288.51,147.28a7.56,7.56,0,0,0-4.71,1.95c0-.38,0-.83,0-1.23v-3.6a13.35,13.35,0,0,0-.42-3.79l-.11-.29-3.19.61.18.42a9.59,9.59,0,0,1,.38,3v19.41h3.16V152.57A5.81,5.81,0,0,1,288,150.2a2.21,2.21,0,0,1,1.54.51,2.9,2.9,0,0,1,.48,2v11h3.13V152.34a7.35,7.35,0,0,0-.26-2.34A4.42,4.42,0,0,0,288.51,147.28Z" transform="translate(-29.55 -15.43)"/><path class="a" d="M304.08,150.17l1.05-2.58h-4.06c0-1.83.28-3.81.31-4l.06-.53-3.32.73,0,.26c-.06.44-.22,2.23-.25,3.58h-2v2.58h2V160.4c0,1.79.52,2.84,1.7,3.41a4.93,4.93,0,0,0,2.18.47,6.08,6.08,0,0,0,2.9-.66l.25-.14-.5-2.3-.43.22a2.73,2.73,0,0,1-1.35.27c-1.19,0-1.61-.29-1.61-1.92v-9.58Z" transform="translate(-29.55 -15.43)"/><path class="a" d="M328.13,143.48c-2.18-1.56-3.74-1.72-7-1.72h-4.63v22h5.93c3.26,0,5.15-.75,7-2.79,1.15-1.27,2.52-3.72,2.52-8.19S330.58,145.24,328.13,143.48Zm.24,9.63a11.46,11.46,0,0,1-1.38,5.77c-1,1.7-2.67,2-5.07,2h-2.16V144.59h2.16c2.14,0,3.39.27,4.71,1.82S328.37,149.74,328.37,153.11Z" transform="translate(-29.55 -15.43)"/><path class="a" d="M346.73,158.49l.12-5.09a9.05,9.05,0,0,0-.37-3.56c-.71-1.73-2.31-2.65-4.62-2.65a11.94,11.94,0,0,0-6.69,2.14l-.32.21,1.67,2.4.32-.28a8.12,8.12,0,0,1,4.68-1.74,2.19,2.19,0,0,1,1.79.71c.33.38.4.78.4,2.17v.69H343c-5.36,0-8.56,2.22-8.56,5.93,0,1.12.39,4.78,5.34,4.78a5.89,5.89,0,0,0,4.3-1.78,3.55,3.55,0,0,0,2.16,1.94l.26.09,1.65-2.31-.38-.2C346.87,161.44,346.66,161.07,346.73,158.49Zm-6.55,3.15c-1.54,0-2.29-.8-2.29-2.45s.59-3.31,4.93-3.31c.22,0,.55,0,.82,0l-.08,3.59A3.87,3.87,0,0,1,340.18,161.64Z" transform="translate(-29.55 -15.43)"/><path class="a" d="M338.23,146.17a2,2,0,1,0-2-2A2,2,0,0,0,338.23,146.17Z" transform="translate(-29.55 -15.43)"/><path class="a" d="M344.65,146.17a2,2,0,1,0-2-2A2,2,0,0,0,344.65,146.17Z" transform="translate(-29.55 -15.43)"/><path class="a" d="M360.48,159.91a3.92,3.92,0,0,1-3,1.54c-2.84,0-3.44-2.71-3.44-5a10.94,10.94,0,0,1,.82-4.88,3,3,0,0,1,2.59-1.53,3.76,3.76,0,0,1,2.71,1.15l.29.25,1.8-2.27-.28-.23a6.4,6.4,0,0,0-4.46-1.76A6,6,0,0,0,353,149.1c-1.69,1.68-2.44,3.79-2.44,6.84a9.49,9.49,0,0,0,1.56,5.7,6,6,0,0,0,5.24,2.48,6.38,6.38,0,0,0,5-2.15l.24-.25-1.85-2.15Z" transform="translate(-29.55 -15.43)"/><path class="a" d="M373.35,147.28a7.56,7.56,0,0,0-4.71,1.95c0-.39,0-.83,0-1.23v-3.6a13.56,13.56,0,0,0-.42-3.79l-.11-.29-3.19.61.18.43a9.79,9.79,0,0,1,.38,3v19.41h3.16V152.57a5.81,5.81,0,0,1,4.12-2.37,2.23,2.23,0,0,1,1.54.51,2.9,2.9,0,0,1,.48,2v11h3.13V152.34a7.35,7.35,0,0,0-.26-2.34A4.42,4.42,0,0,0,373.35,147.28Z" transform="translate(-29.55 -15.43)"/><path class="a" d="M388.6,147.19a6.09,6.09,0,0,0-4.9,2.27,8.58,8.58,0,0,0-1.95,6.07c0,5.3,2.77,8.59,7.23,8.59a8.06,8.06,0,0,0,5.46-2l.22-.2-1.32-2.21L393,160a4.92,4.92,0,0,1-3.53,1.36,4,4,0,0,1-3.53-1.72,5.75,5.75,0,0,1-.65-3.17h9.64v-.72c0-3.72-.44-5.3-1.87-6.77A6.06,6.06,0,0,0,388.6,147.19Zm-.12,2.64A2.92,2.92,0,0,1,391,151a5.66,5.66,0,0,1,.65,2.87h-6.29C385.5,151.19,386.57,149.83,388.48,149.83Z" transform="translate(-29.55 -15.43)"/><path class="a" d="M405.53,147.13a5.62,5.62,0,0,0-4,1.94,6.07,6.07,0,0,0-.49-1.67l-.14-.28-3.13.84.17.4a8.25,8.25,0,0,1,.5,3.14v12.28h3.17V153.73a2.42,2.42,0,0,1,.78-2.18,3.32,3.32,0,0,1,2.31-1,1.58,1.58,0,0,1,.54.1l.36.15,1.26-3.36-.36-.13A3.32,3.32,0,0,0,405.53,147.13Z" transform="translate(-29.55 -15.43)"/><path class="a" d="M421.08,154.14l-2.05-.43c-1.61-.34-1.93-1-1.93-1.87,0-1.31,1-2.16,2.53-2.16a8.43,8.43,0,0,1,3.72,1.07l.33.16,1.22-2.44-.3-.18a10.56,10.56,0,0,0-4.9-1.29c-3.46,0-5.87,2.11-5.87,5.12,0,2.38,1.54,4.06,4.21,4.62l1.92.4c1.59.34,2.24,1,2.24,2.18,0,1.41-1.05,2.29-2.75,2.29a8.88,8.88,0,0,1-4.71-1.41l-.34-.2-1.28,2.46.3.18a11.75,11.75,0,0,0,5.87,1.61c3.66,0,6.21-2.23,6.21-5.43C425.5,156.33,424,154.76,421.08,154.14Z" transform="translate(-29.55 -15.43)"/><polygon class="a" points="399.13 148.36 402.39 148.36 402.39 131.76 399.13 132.28 399.13 148.36"/><path class="a" d="M430.36,140.93a2.29,2.29,0,0,0-2.27,2.29,2.27,2.27,0,0,0,4.53,0A2.23,2.23,0,0,0,430.36,140.93Z" transform="translate(-29.55 -15.43)"/><path class="a" d="M445.63,159.91a3.91,3.91,0,0,1-3,1.54c-2.84,0-3.43-2.71-3.43-5a10.8,10.8,0,0,1,.82-4.88,2.94,2.94,0,0,1,2.58-1.53,3.74,3.74,0,0,1,2.71,1.15l.29.25,1.81-2.27-.29-.23a6.38,6.38,0,0,0-4.45-1.76,6,6,0,0,0-4.45,1.91c-1.69,1.68-2.44,3.79-2.44,6.84a9.47,9.47,0,0,0,1.56,5.7,6,6,0,0,0,5.23,2.48,6.36,6.36,0,0,0,5-2.15l.24-.25-1.84-2.15Z" transform="translate(-29.55 -15.43)"/><path class="a" d="M458.51,147.28a7.52,7.52,0,0,0-4.71,1.95c0-.39,0-.83,0-1.23v-3.6a13.37,13.37,0,0,0-.43-3.79l-.11-.29-3.19.61.19.43a10,10,0,0,1,.37,3v19.41h3.17V152.57A5.79,5.79,0,0,1,458,150.2a2.2,2.2,0,0,1,1.53.51,2.84,2.84,0,0,1,.48,2v11h3.14V152.34a7.35,7.35,0,0,0-.26-2.34A4.42,4.42,0,0,0,458.51,147.28Z" transform="translate(-29.55 -15.43)"/><path class="a" d="M473.76,147.19a6.11,6.11,0,0,0-4.91,2.27,8.62,8.62,0,0,0-2,6.07c0,5.3,2.77,8.59,7.23,8.59a8,8,0,0,0,5.46-2l.23-.2-1.32-2.21-.34.31a5,5,0,0,1-3.53,1.36,4,4,0,0,1-3.53-1.72,5.74,5.74,0,0,1-.66-3.17h9.65v-.72c0-3.72-.44-5.3-1.88-6.77A6,6,0,0,0,473.76,147.19Zm-.12,2.64a2.94,2.94,0,0,1,2.47,1.19,5.78,5.78,0,0,1,.64,2.87h-6.28C470.66,151.19,471.72,149.83,473.64,149.83Z" transform="translate(-29.55 -15.43)"/><path class="a" d="M491.64,147.3a3.31,3.31,0,0,0-.95-.17,5.6,5.6,0,0,0-4,1.94,5.53,5.53,0,0,0-.5-1.67l-.13-.28-3.13.84.17.4a8.55,8.55,0,0,1,.49,3.14v12.28h3.17V153.73a2.42,2.42,0,0,1,.79-2.18,3.32,3.32,0,0,1,2.31-1,1.62,1.62,0,0,1,.54.1l.36.15,1.26-3.36Z" transform="translate(-29.55 -15.43)"/><path class="a" d="M494.4,159.25a2.4,2.4,0,0,0-2.42,2.42,2.51,2.51,0,0,0,2.49,2.52,2.48,2.48,0,0,0,2.42-2.52A2.43,2.43,0,0,0,494.4,159.25Z" transform="translate(-29.55 -15.43)"/><polygon class="b" points="466.85 0 0 0 0 115.15 20.95 115.15 20.95 20.35 466.85 20.35 466.85 0"/><polygon class="a" points="380.75 73.78 380.75 65.46 360.22 65.46 360.21 43.82 380.75 43.82 380.75 33.55 338.84 33.55 338.84 105.63 380.75 105.63 380.75 96.9 360.22 96.9 360.22 73.78 380.75 73.78"/><path class="a" d="M455.37,93.26l15.85,27.8h21.56L473.34,86.17,474,86c.57-.1,13.76-2.3,13.76-19.67S470.94,49,470.94,49H423.09v72.11h20.18V89.61l.42-.07a17.05,17.05,0,0,1,2.54-.17C449.24,89.37,453.27,90,455.37,93.26ZM454.6,81.2H443.28v-22H454.6s12.36.13,12.36,11S454.6,81.2,454.6,81.2Z" transform="translate(-29.55 -15.43)"/><path class="a" d="M330.78,49H292.92v72.11h35.39c4.34,0,18.53-1,25.21-13.76,7.56-14.49,5.15-35.49-2.26-46.34C347.32,55.33,340.31,49,330.78,49Zm4.67,49.47c-1.18,6.68-4.93,13.78-13,13.78h-8.67V58.69h8.43c3.66,0,6.61,2.64,8.29,5.28C337.06,74.31,337.18,86.1,335.45,98.42Z" transform="translate(-29.55 -15.43)"/><path class="a" d="M130.22,85.58A46.77,46.77,0,0,0,124,81l-.59-.37.55-.44c7-5.48,8.6-10.69,7.62-18A15.17,15.17,0,0,0,116.29,48.9H67.41v72.18l49.75,0c8.34,0,16.89-5.55,18.37-16.95C136.55,96.36,134.92,90.58,130.22,85.58ZM97.27,81.2h-9.8V58.72h9.82s12.25,0,12.25,11.25S97.27,81.2,97.27,81.2Zm2.64,30.63H87.47V89.2H99.91s12.24.13,12.24,11.31C112.15,111.87,99.91,111.83,99.91,111.83Z" transform="translate(-29.55 -15.43)"/><path class="a" d="M206,121.06l0-51.24C206,57.23,198,49,187.55,49H165.3c-11.6,0-19.34,8.4-19.39,20.85v51.26h21.38V88.83H184.6v32.23ZM184.63,71.18v8.27H167.29V71.18s-.66-12.47,8.67-12.47S184.63,71.18,184.63,71.18Z" transform="translate(-29.55 -15.43)"/><path class="a" d="M258.75,103.81V49h21l0,51.31c0,12.45-7.85,20.85-19.45,20.85H238.6c-10.47,0-18.94-9.36-18.94-20.87V49h21v54.88s-.07,7.48,9,7.48S258.75,103.81,258.75,103.81Z" transform="translate(-29.55 -15.43)"/></svg>