<svg xmlns="http://www.w3.org/2000/svg" viewBox="0 0 467.32 154.14"><defs><style>.a{fill:#1d1d1b;}.b{fill:#ee7203;}</style></defs><title>rz_BauderLogo_CMYK_ENG</title><path class="a" d="M250,163.8h-3.23V152c0-1.69-.92-1.89-1.61-1.89-1.23,0-2.24.82-3.71,2.18V163.8h-3.2V152.45a2.75,2.75,0,0,0-.36-1.75,1.53,1.53,0,0,0-1.28-.48c-1.06,0-2.1.54-3.57,1.84V163.8h-3.07V151.46a7.54,7.54,0,0,0-.51-3.1l-.25-.43,3.13-.75.14.27a7.44,7.44,0,0,1,.51,1.64,7,7,0,0,1,4.2-1.88,4.17,4.17,0,0,1,3.73,2.29,7.55,7.55,0,0,1,4.83-2.29,4.22,4.22,0,0,1,4.25,4.56Z" transform="translate(-29.55 -15.43)"/><path class="a" d="M265.37,164.46l-.27-.09a3.53,3.53,0,0,1-2.15-1.94,5.89,5.89,0,0,1-4.3,1.78c-4.95,0-5.34-3.66-5.34-4.78,0-3.71,3.2-5.93,8.56-5.93.24,0,.44,0,.71,0v-.69c0-1.4-.07-1.8-.4-2.18a2.19,2.19,0,0,0-1.8-.7,8.11,8.11,0,0,0-4.67,1.73l-.32.28-1.67-2.4.32-.21a11.93,11.93,0,0,1,6.68-2.14c2.32,0,3.92.92,4.63,2.65a9.44,9.44,0,0,1,.37,3.56l-.12,5.09c-.07,2.58.14,3,1,3.44l.37.2Zm-3.68-8.56c-4.35,0-4.93,1.67-4.93,3.31s.75,2.45,2.29,2.45a3.87,3.87,0,0,0,3.38-2.14l.08-3.59Z" transform="translate(-29.55 -15.43)"/><path class="a" d="M284.42,163.8H280.2l-6.64-8.17v8.17h-3.17V144.39a10,10,0,0,0-.37-3l-.18-.43,3.18-.61.11.29a13.3,13.3,0,0,1,.43,3.79v9.38l5.44-6.19h4.06l-6.43,7.08Z" transform="translate(-29.55 -15.43)"/><path class="a" d="M288.87,163.8h-3.26V147.73l3.26-.52Zm-1.58-18.32a2.25,2.25,0,0,1-2.27-2.23,2.29,2.29,0,0,1,2.27-2.3,2.27,2.27,0,1,1,0,4.53Z" transform="translate(-29.55 -15.43)"/><path class="a" d="M305.71,163.8h-3.2V153c0-1.61-.12-1.91-.47-2.33a1.9,1.9,0,0,0-1.42-.52,6.7,6.7,0,0,0-3.9,2V163.8h-3.11V151.52a6.72,6.72,0,0,0-.54-3.06l-.24-.42,3.1-.86.15.25a6.38,6.38,0,0,1,.54,1.8,6.8,6.8,0,0,1,4.56-2,4.45,4.45,0,0,1,4.12,2.49,4.73,4.73,0,0,1,.41,2Z" transform="translate(-29.55 -15.43)"/><path class="a" d="M316.12,169.57c-6.15,0-7.07-2.7-7.07-4.31a5,5,0,0,1,.33-1.77l.08-.23L313,163l-.41.64a2.49,2.49,0,0,0-.37,1.19,1.68,1.68,0,0,0,.71,1.48,6.21,6.21,0,0,0,2.94.66c3,0,3.38-1.24,3.38-2.32a1.8,1.8,0,0,0-.67-1.55,5.2,5.2,0,0,0-2.83-.5l-1.31,0-1.08,0c-2,0-3.29-1-3.29-2.61,0-1.25.61-2,2.12-2.66a5,5,0,0,1-2.8-4.44c0-3.29,2.5-5.59,6.08-5.59a7.75,7.75,0,0,1,2.76.49,5.28,5.28,0,0,0,1.95.38,3.17,3.17,0,0,0,1.93-.62l.26-.17,2,2-.37.26a4.49,4.49,0,0,1-2.82,1H321a4.43,4.43,0,0,1,.49,2.08A5.42,5.42,0,0,1,319,157.3a5.6,5.6,0,0,1-3,.74c-2.16.78-2.48,1.22-2.48,1.42s.46.37.86.37h2.48a6.22,6.22,0,0,1,3.94.94,4.06,4.06,0,0,1,1.86,3.56C322.63,167.71,320.32,169.57,316.12,169.57ZM315.41,150c-1.74,0-2.54.89-2.54,2.82,0,1.78.87,2.69,2.6,2.69s2.41-.91,2.41-2.79S317.19,150,315.41,150Z" transform="translate(-29.55 -15.43)"/><path class="a" d="M349.83,164.21c-4.41,0-7-3.21-7-8.59s2.66-8.47,6.95-8.47a6.54,6.54,0,0,1,5.61,2.86,10.12,10.12,0,0,1,1.49,6C356.84,161.05,354.16,164.21,349.83,164.21Zm-.12-14.33a3.16,3.16,0,0,0-2.83,1.47,8.39,8.39,0,0,0-.7,3.86,10.51,10.51,0,0,0,.9,4.86,3.31,3.31,0,0,0,2.81,1.37,3,3,0,0,0,3-2.07,8.86,8.86,0,0,0,.44-3.23,10.66,10.66,0,0,0-.67-4.48A3.22,3.22,0,0,0,349.71,149.88Z" transform="translate(-29.55 -15.43)"/><path class="a" d="M366.45,164.21c-4.41,0-7-3.21-7-8.59s2.66-8.47,6.94-8.47A6.55,6.55,0,0,1,372,150a10.19,10.19,0,0,1,1.49,6C373.46,161.05,370.77,164.21,366.45,164.21Zm-.13-14.33a3.19,3.19,0,0,0-2.83,1.47,8.53,8.53,0,0,0-.7,3.86,10.5,10.5,0,0,0,.91,4.86,3.31,3.31,0,0,0,2.81,1.37,3,3,0,0,0,3-2.07,9,9,0,0,0,.44-3.23,10.44,10.44,0,0,0-.68-4.48A3.21,3.21,0,0,0,366.32,149.88Z" transform="translate(-29.55 -15.43)"/><path class="a" d="M380.4,163.8h-3.29V150.19h-1.49v-2.58h1.49v-2a4.57,4.57,0,0,1,4.81-5,6.51,6.51,0,0,1,3.61,1l.29.18-1.24,2.36-.34-.2a4.53,4.53,0,0,0-2.11-.66c-1.15,0-1.73.79-1.73,2.35v2h4.46l-1.05,2.58H380.4Z" transform="translate(-29.55 -15.43)"/><path class="a" d="M390.75,164.27a11.84,11.84,0,0,1-5.87-1.6l-.29-.19,1.27-2.46.34.21a9,9,0,0,0,4.71,1.4c1.7,0,2.76-.88,2.76-2.29,0-1.21-.65-1.84-2.25-2.18l-1.92-.4c-2.67-.56-4.21-2.24-4.21-4.62,0-3,2.41-5.12,5.87-5.12a10.52,10.52,0,0,1,4.89,1.29l.31.18-1.22,2.45-.33-.16a8.36,8.36,0,0,0-3.72-1.08c-1.54,0-2.54.85-2.54,2.16,0,.88.33,1.54,1.94,1.87l2.05.43c2.93.62,4.42,2.2,4.42,4.68C397,162,394.41,164.27,390.75,164.27Z" transform="translate(-29.55 -15.43)"/><path class="a" d="M411.37,164.27a11.82,11.82,0,0,1-5.87-1.6l-.3-.19,1.27-2.46.35.21a8.9,8.9,0,0,0,4.7,1.4c1.7,0,2.76-.88,2.76-2.29,0-1.21-.65-1.84-2.25-2.18l-1.92-.4c-2.67-.55-4.2-2.24-4.2-4.62,0-3,2.41-5.12,5.86-5.12a10.53,10.53,0,0,1,4.9,1.29l.31.18-1.23,2.45-.33-.16a8.28,8.28,0,0,0-3.71-1.08c-1.54,0-2.54.85-2.54,2.16,0,.88.33,1.54,1.93,1.87l2,.43c2.93.62,4.42,2.2,4.42,4.68C417.57,162,415,164.27,411.37,164.27Z" transform="translate(-29.55 -15.43)"/><path class="a" d="M427.36,164.15c-4.46,0-7.23-3.3-7.23-8.6a8.62,8.62,0,0,1,1.95-6.07,6.13,6.13,0,0,1,4.91-2.27,6,6,0,0,1,4.45,1.79c1.44,1.47,1.88,3.05,1.88,6.77v.72h-9.64a5.75,5.75,0,0,0,.65,3.17,4,4,0,0,0,3.53,1.72,5,5,0,0,0,3.53-1.36l.34-.31,1.32,2.21-.23.21A8.07,8.07,0,0,1,427.36,164.15Zm-3.66-10.24H430a5.78,5.78,0,0,0-.64-2.87,2.93,2.93,0,0,0-2.47-1.19C425,149.85,423.89,151.22,423.7,153.91Z" transform="translate(-29.55 -15.43)"/><path class="a" d="M442.68,164.15a6,6,0,0,1-5.24-2.49,9.49,9.49,0,0,1-1.56-5.7c0-3.05.75-5.16,2.44-6.84a6,6,0,0,1,4.45-1.91,6.4,6.4,0,0,1,4.46,1.76l.28.24-1.8,2.26-.3-.25a3.72,3.72,0,0,0-2.7-1.15,3,3,0,0,0-2.59,1.54,10.92,10.92,0,0,0-.82,4.87c0,2.28.6,5,3.44,5a3.92,3.92,0,0,0,3-1.54l.28-.34,1.85,2.15-.24.25A6.38,6.38,0,0,1,442.68,164.15Z" transform="translate(-29.55 -15.43)"/><path class="a" d="M462.09,164.59l-.28-.22a4.72,4.72,0,0,1-1.59-2,6.08,6.08,0,0,1-4.74,2,4.59,4.59,0,0,1-4.4-2.41,5.86,5.86,0,0,1-.44-2.46V147.8l3.14-.61v11.56c0,1.5.24,1.93.77,2.29a3,3,0,0,0,1.67.46,4.35,4.35,0,0,0,3.57-2.5V147.83l3.13-.53V159c0,2,.3,2.58.94,3.16l.28.26Z" transform="translate(-29.55 -15.43)"/><path class="a" d="M470.52,163.8h-3.17V151.52a8.25,8.25,0,0,0-.5-3.14l-.17-.39,3.13-.85.14.28a6.29,6.29,0,0,1,.5,1.67,5.58,5.58,0,0,1,4-1.94,3.32,3.32,0,0,1,1,.17l.37.13-1.27,3.36-.35-.15a1.71,1.71,0,0,0-.55-.09,3.29,3.29,0,0,0-2.3,1,2.41,2.41,0,0,0-.79,2.19Z" transform="translate(-29.55 -15.43)"/><path class="a" d="M337.6,163.8h-3.17V151.52a8.25,8.25,0,0,0-.5-3.14l-.16-.39,3.13-.85.13.28a5.88,5.88,0,0,1,.5,1.67,5.6,5.6,0,0,1,4-1.94,3.31,3.31,0,0,1,.95.17l.37.13-1.26,3.36-.36-.15a1.64,1.64,0,0,0-.54-.09,3.31,3.31,0,0,0-2.31,1,2.43,2.43,0,0,0-.79,2.19Z" transform="translate(-29.55 -15.43)"/><path class="a" d="M483.13,164.15c-4.46,0-7.23-3.3-7.23-8.6a8.62,8.62,0,0,1,2-6.07,6.11,6.11,0,0,1,4.91-2.27,6,6,0,0,1,4.45,1.79c1.44,1.47,1.88,3.05,1.88,6.77v.72h-9.65a5.74,5.74,0,0,0,.66,3.17,4,4,0,0,0,3.53,1.72,5,5,0,0,0,3.53-1.36l.34-.31,1.32,2.21-.23.21A8.07,8.07,0,0,1,483.13,164.15Zm-3.66-10.24h6.28a5.78,5.78,0,0,0-.64-2.87,3,3,0,0,0-2.48-1.19C480.72,149.85,479.66,151.22,479.47,153.91Z" transform="translate(-29.55 -15.43)"/><path class="a" d="M494.44,164.21a2.51,2.51,0,0,1-2.48-2.52,2.39,2.39,0,0,1,2.42-2.42,2.43,2.43,0,0,1,2.49,2.42A2.48,2.48,0,0,1,494.44,164.21Z" transform="translate(-29.55 -15.43)"/><polygon class="b" points="466.85 0 0 0 0 115.15 20.95 115.15 20.95 20.35 466.85 20.35 466.85 0"/><polygon class="a" points="380.75 73.78 380.75 65.46 360.22 65.46 360.21 43.82 380.75 43.82 380.75 33.55 338.84 33.55 338.84 105.63 380.75 105.63 380.75 96.9 360.22 96.9 360.22 73.78 380.75 73.78"/><path class="a" d="M455.37,93.26l15.85,27.8h21.56L473.34,86.17,474,86c.57-.1,13.76-2.3,13.76-19.67S470.94,49,470.94,49H423.09v72.11h20.18V89.61l.42-.07a17.05,17.05,0,0,1,2.54-.17C449.24,89.37,453.27,90,455.37,93.26ZM454.6,81.2H443.28v-22H454.6s12.36.13,12.36,11S454.6,81.2,454.6,81.2Z" transform="translate(-29.55 -15.43)"/><path class="a" d="M330.78,49H292.92v72.11h35.39c4.34,0,18.53-1,25.21-13.76,7.56-14.49,5.15-35.49-2.26-46.34C347.32,55.33,340.31,49,330.78,49Zm4.67,49.47c-1.18,6.68-4.93,13.78-13,13.78h-8.67V58.69h8.43c3.66,0,6.61,2.64,8.29,5.28C337.06,74.31,337.18,86.1,335.45,98.42Z" transform="translate(-29.55 -15.43)"/><path class="a" d="M130.22,85.58A46.77,46.77,0,0,0,124,81l-.59-.37.55-.44c7-5.48,8.6-10.69,7.62-18A15.17,15.17,0,0,0,116.29,48.9H67.41v72.18l49.75,0c8.34,0,16.89-5.55,18.37-16.95C136.55,96.36,134.92,90.58,130.22,85.58ZM97.27,81.2h-9.8V58.72h9.82s12.25,0,12.25,11.25S97.27,81.2,97.27,81.2Zm2.64,30.63H87.47V89.2H99.91s12.24.13,12.24,11.31C112.15,111.87,99.91,111.83,99.91,111.83Z" transform="translate(-29.55 -15.43)"/><path class="a" d="M206,121.06l0-51.24C206,57.23,198,49,187.55,49H165.3c-11.6,0-19.34,8.4-19.39,20.85v51.26h21.38V88.83H184.6v32.23ZM184.63,71.18v8.27H167.29V71.18s-.66-12.47,8.67-12.47S184.63,71.18,184.63,71.18Z" transform="translate(-29.55 -15.43)"/><path class="a" d="M258.75,103.81V49h21l0,51.31c0,12.45-7.85,20.85-19.45,20.85H238.6c-10.47,0-18.94-9.36-18.94-20.87V49h21v54.88s-.07,7.48,9,7.48S258.75,103.81,258.75,103.81Z" transform="translate(-29.55 -15.43)"/></svg>