<?xml version="1.0" encoding="UTF-8"?>
<svg xmlns="http://www.w3.org/2000/svg" viewBox="0 0 467.36 154.16">
  <defs>
    <style>.a{fill:#1d1d1b;}.b{fill:#ee7203;}</style>
  </defs>
  <title>rz_BauderLogo_CMYK_HR</title>
  <path class="a" d="M270.41,164.16a6,6,0,0,1-5.23-2.49,9.45,9.45,0,0,1-1.56-5.7c0-3.05.75-5.16,2.44-6.84a6,6,0,0,1,4.45-1.91A6.38,6.38,0,0,1,275,149l.28.24-1.8,2.26-.29-.24a3.72,3.72,0,0,0-2.71-1.16,2.94,2.94,0,0,0-2.58,1.54,10.8,10.8,0,0,0-.82,4.88c0,2.27.59,5,3.44,5a3.93,3.93,0,0,0,3-1.54l.29-.35,1.84,2.15-.24.25A6.37,6.37,0,0,1,270.41,164.16Zm.13-17.76-5.84-4.61,1.57-1.91,4.39,2.69,4.29-2.7,1.37,1.94Z" transform="translate(-29.55 -15.43)"></path>
  <path class="a" d="M281.64,163.82h-3.26V147.74l3.26-.52Zm-1.59-18.33a2.25,2.25,0,0,1-2.26-2.23,2.28,2.28,0,0,1,2.26-2.3,2.27,2.27,0,1,1,0,4.53Z" transform="translate(-29.55 -15.43)"></path>
  <path class="a" d="M298.47,163.82h-3.2V153c0-1.62-.12-1.91-.47-2.33a1.93,1.93,0,0,0-1.42-.52,6.73,6.73,0,0,0-3.9,2v11.73h-3.11V151.54a6.92,6.92,0,0,0-.54-3.08l-.23-.41,3.1-.86.14.25a6,6,0,0,1,.55,1.8,6.9,6.9,0,0,1,4.55-2,4.48,4.48,0,0,1,4.13,2.49,4.89,4.89,0,0,1,.4,1.95Z" transform="translate(-29.55 -15.43)"></path>
  <path class="a" d="M306.11,163.82h-3.27V147.74l3.27-.52Zm-1.59-18.33a2.25,2.25,0,0,1-2.27-2.23,2.29,2.29,0,0,1,2.27-2.3,2.27,2.27,0,1,1,0,4.53Z" transform="translate(-29.55 -15.43)"></path>
  <path class="a" d="M333.28,163.82h-4.21l-6.64-8.18v8.18h-3.17V144.4a10,10,0,0,0-.37-3l-.19-.43,3.19-.61.11.3a13.2,13.2,0,0,1,.43,3.78v9.38l5.44-6.19h4.05l-6.42,7.09Z" transform="translate(-29.55 -15.43)"></path>
  <path class="a" d="M338,163.82h-3.17V151.54a8,8,0,0,0-.5-3.14l-.17-.4,3.13-.84.14.27a5.94,5.94,0,0,1,.49,1.67,5.6,5.6,0,0,1,4-1.94,3.24,3.24,0,0,1,1,.17l.37.13L342,150.81l-.35-.14a2,2,0,0,0-.55-.09,3.3,3.3,0,0,0-2.3,1,2.43,2.43,0,0,0-.79,2.19Z" transform="translate(-29.55 -15.43)"></path>
  <path class="a" d="M350.23,164.22c-4.41,0-7-3.21-7-8.59,0-5.22,2.66-8.47,6.95-8.47a6.54,6.54,0,0,1,5.61,2.86,10.12,10.12,0,0,1,1.49,5.95C357.24,161.06,354.55,164.22,350.23,164.22Zm-.12-14.33a3.2,3.2,0,0,0-2.84,1.48,8.45,8.45,0,0,0-.7,3.85,10.5,10.5,0,0,0,.91,4.86,3.31,3.31,0,0,0,2.81,1.37,3,3,0,0,0,3-2.07,9.05,9.05,0,0,0,.44-3.22,10.49,10.49,0,0,0-.68-4.49A3.21,3.21,0,0,0,350.11,149.89Z" transform="translate(-29.55 -15.43)"></path>
  <path class="a" d="M366.83,164h-2.91l-5.79-16.12,3.23-.69,3.7,11c.16.46.3.94.42,1.38.11-.41.25-.87.42-1.35l3.62-10.52h3.38Z" transform="translate(-29.55 -15.43)"></path>
  <path class="a" d="M384.91,164.28a11.84,11.84,0,0,1-5.87-1.6l-.3-.18L380,160l.34.21a8.9,8.9,0,0,0,4.71,1.4c1.7,0,2.75-.88,2.75-2.29,0-1.21-.65-1.84-2.24-2.18l-1.92-.4c-2.68-.55-4.21-2.24-4.21-4.61,0-3,2.41-5.12,5.86-5.12a10.41,10.41,0,0,1,4.9,1.29l.31.17L389.3,151l-.33-.16a8.36,8.36,0,0,0-3.72-1.08c-1.54,0-2.54.85-2.54,2.17,0,.87.33,1.53,1.94,1.86l2,.44c2.94.61,4.43,2.19,4.43,4.67C391.12,162.05,388.56,164.28,384.91,164.28Z" transform="translate(-29.55 -15.43)"></path>
  <path class="a" d="M397.56,163.82H394.3V147.74l3.26-.52ZM396,145.49a2.25,2.25,0,0,1-2.27-2.23A2.29,2.29,0,0,1,396,141a2.27,2.27,0,0,1,0,4.53Z" transform="translate(-29.55 -15.43)"></path>
  <path class="a" d="M408,169.58c-6.16,0-7.08-2.7-7.08-4.31a5.14,5.14,0,0,1,.33-1.77l.08-.23,3.54-.3-.4.64a2.54,2.54,0,0,0-.38,1.2,1.65,1.65,0,0,0,.72,1.47,6.15,6.15,0,0,0,2.94.66c3,0,3.37-1.24,3.37-2.32a1.78,1.78,0,0,0-.67-1.55,5.2,5.2,0,0,0-2.83-.49h-1.31l-1.07,0c-2,0-3.29-1-3.29-2.61,0-1.25.61-2,2.12-2.66a5.05,5.05,0,0,1-2.81-4.44c0-3.29,2.5-5.58,6.08-5.58a7.92,7.92,0,0,1,2.76.48,5.3,5.3,0,0,0,2,.38,3.1,3.1,0,0,0,1.93-.62l.25-.17,2,2-.36.26a4.49,4.49,0,0,1-2.82,1h-.25a4.5,4.5,0,0,1,.5,2.08,5.43,5.43,0,0,1-2.47,4.57,5.55,5.55,0,0,1-3,.74c-2.15.78-2.48,1.22-2.48,1.42s.47.37.87.37h2.48a6.17,6.17,0,0,1,3.93.94,4.06,4.06,0,0,1,1.87,3.56C414.49,167.72,412.18,169.58,408,169.58Zm-.72-19.53c-1.73,0-2.54.9-2.54,2.82s.88,2.69,2.6,2.69,2.42-.91,2.42-2.78S409,150.05,407.26,150.05Z" transform="translate(-29.55 -15.43)"></path>
  <path class="a" d="M429.12,164.6l-.27-.22a4.72,4.72,0,0,1-1.6-2,6.08,6.08,0,0,1-4.74,1.94,4.6,4.6,0,0,1-4.4-2.41,5.89,5.89,0,0,1-.44-2.46V147.82l3.14-.62v11.56c0,1.5.25,1.93.77,2.3a3.16,3.16,0,0,0,1.68.46,4.33,4.33,0,0,0,3.56-2.51V147.84l3.14-.53V159c0,2,.3,2.58.93,3.16l.28.26Z" transform="translate(-29.55 -15.43)"></path>
  <path class="a" d="M437.26,163.82h-3.17V151.54a8.32,8.32,0,0,0-.5-3.15l-.16-.39,3.12-.84.14.27a6,6,0,0,1,.5,1.67,5.58,5.58,0,0,1,4-1.94,3.32,3.32,0,0,1,1,.17l.37.13-1.27,3.36-.35-.15a2,2,0,0,0-.54-.09,3.31,3.31,0,0,0-2.31,1,2.44,2.44,0,0,0-.79,2.19Z" transform="translate(-29.55 -15.43)"></path>
  <path class="a" d="M456.25,163.82h-3.2V153c0-1.61-.12-1.91-.47-2.33a1.92,1.92,0,0,0-1.41-.52,6.73,6.73,0,0,0-3.91,2v11.73h-3.1V151.54a7,7,0,0,0-.54-3.07l-.25-.42,3.11-.86.14.25a6.08,6.08,0,0,1,.55,1.8,6.78,6.78,0,0,1,4.55-2,4.48,4.48,0,0,1,4.13,2.49,4.93,4.93,0,0,1,.4,1.95Z" transform="translate(-29.55 -15.43)"></path>
  <path class="a" d="M463.68,163.82h-3.26V147.74l3.26-.52Zm-1.58-18.33a2.25,2.25,0,0,1-2.27-2.23,2.29,2.29,0,0,1,2.27-2.3,2.27,2.27,0,0,1,0,4.53Z" transform="translate(-29.55 -15.43)"></path>
  <path class="a" d="M487.89,163.82h-3.23V152c0-1.69-.92-1.89-1.61-1.89-1.24,0-2.24.82-3.72,2.18v11.5h-3.2V152.46a2.85,2.85,0,0,0-.35-1.75,1.54,1.54,0,0,0-1.29-.47c-1.06,0-2.1.53-3.56,1.83v11.75h-3.08V151.47a7.14,7.14,0,0,0-.51-3.1l-.25-.43,3.14-.75.13.27a6.54,6.54,0,0,1,.52,1.64,7,7,0,0,1,4.2-1.88,4.19,4.19,0,0,1,3.73,2.29,7.52,7.52,0,0,1,4.83-2.29,4.23,4.23,0,0,1,4.25,4.56Z" transform="translate(-29.55 -15.43)"></path>
  <path class="a" d="M494.49,164.22a2.51,2.51,0,0,1-2.49-2.51,2.4,2.4,0,0,1,2.42-2.43,2.44,2.44,0,0,1,2.49,2.43A2.47,2.47,0,0,1,494.49,164.22Z" transform="translate(-29.55 -15.43)"></path>
  <polygon class="b" points="466.85 0 0 0 0 115.15 20.95 115.15 20.95 20.35 466.85 20.35 466.85 0"></polygon>
  <polygon class="a" points="380.75 73.78 380.75 65.46 360.22 65.46 360.21 43.82 380.75 43.82 380.75 33.55 338.84 33.55 338.84 105.63 380.75 105.63 380.75 96.9 360.22 96.9 360.22 73.78 380.75 73.78"></polygon>
  <path class="a" d="M455.37,93.26l15.85,27.8h21.56L473.34,86.17,474,86c.57-.1,13.76-2.3,13.76-19.67S470.94,49,470.94,49H423.09v72.11h20.18V89.61l.42-.07a17.05,17.05,0,0,1,2.54-.17C449.24,89.37,453.27,90,455.37,93.26ZM454.6,81.2H443.28v-22H454.6s12.36.13,12.36,11S454.6,81.2,454.6,81.2Z" transform="translate(-29.55 -15.43)"></path>
  <path class="a" d="M330.78,49H292.92v72.11h35.39c4.34,0,18.53-1,25.21-13.76,7.56-14.49,5.15-35.49-2.26-46.34C347.32,55.33,340.31,49,330.78,49Zm4.67,49.47c-1.18,6.68-4.93,13.78-13,13.78h-8.67V58.69h8.43c3.66,0,6.61,2.64,8.29,5.28C337.06,74.31,337.18,86.1,335.45,98.42Z" transform="translate(-29.55 -15.43)"></path>
  <path class="a" d="M130.22,85.58A46.77,46.77,0,0,0,124,81l-.59-.37.55-.44c7-5.48,8.6-10.69,7.62-18A15.17,15.17,0,0,0,116.29,48.9H67.41v72.18l49.75,0c8.34,0,16.89-5.55,18.37-16.95C136.55,96.36,134.92,90.58,130.22,85.58ZM97.27,81.2h-9.8V58.72h9.82s12.25,0,12.25,11.25S97.27,81.2,97.27,81.2Zm2.64,30.63H87.47V89.2H99.91s12.24.13,12.24,11.31C112.15,111.87,99.91,111.83,99.91,111.83Z" transform="translate(-29.55 -15.43)"></path>
  <path class="a" d="M206,121.06l0-51.24C206,57.23,198,49,187.55,49H165.3c-11.6,0-19.34,8.4-19.39,20.85v51.26h21.38V88.83H184.6v32.23ZM184.63,71.18v8.27H167.29V71.18s-.66-12.47,8.67-12.47S184.63,71.18,184.63,71.18Z" transform="translate(-29.55 -15.43)"></path>
  <path class="a" d="M258.75,103.81V49h21l0,51.31c0,12.45-7.85,20.85-19.45,20.85H238.6c-10.47,0-18.94-9.36-18.94-20.87V49h21v54.88s-.07,7.48,9,7.48S258.75,103.81,258.75,103.81Z" transform="translate(-29.55 -15.43)"></path>
</svg>
