<svg xmlns="http://www.w3.org/2000/svg" viewBox="0 0 467.36 149.03"><defs><style>.a{fill:#1d1d1b;}.b{fill:#ee7203;}</style></defs><title>rz_BauderLogo_CMYK_NL</title><path class="a" d="M279.89,163.81H269v-2.36l.07-.1,8-11.06h-7.39v-2.68h11v2.48l-.06.1-7.63,11h8.48Z" transform="translate(-29.55 -15.43)"/><path class="a" d="M290.37,164.15c-4.46,0-7.23-3.3-7.23-8.59a8.63,8.63,0,0,1,1.95-6.08,6.14,6.14,0,0,1,4.91-2.27,6,6,0,0,1,4.45,1.79c1.44,1.47,1.88,3.05,1.88,6.77v.72h-9.65a5.74,5.74,0,0,0,.66,3.17,4,4,0,0,0,3.53,1.72A5,5,0,0,0,294.4,160l.34-.31,1.32,2.21-.23.21A8.07,8.07,0,0,1,290.37,164.15Zm-3.66-10.24H293a5.78,5.78,0,0,0-.64-2.87,2.94,2.94,0,0,0-2.47-1.19C288,149.85,286.9,151.22,286.71,153.91Z" transform="translate(-29.55 -15.43)"/><path class="a" d="M313.85,163.81h-4.22L303,155.63v8.18h-3.17V144.39a10,10,0,0,0-.37-3l-.18-.43,3.19-.61.11.3a13.39,13.39,0,0,1,.42,3.78v9.38l5.44-6.19h4.06l-6.43,7.08Z" transform="translate(-29.55 -15.43)"/><path class="a" d="M321,164.15c-4.46,0-7.23-3.3-7.23-8.59a8.63,8.63,0,0,1,1.95-6.08,6.14,6.14,0,0,1,4.91-2.27,6,6,0,0,1,4.45,1.79c1.44,1.47,1.88,3.05,1.88,6.77v.72h-9.65a5.75,5.75,0,0,0,.65,3.17,4,4,0,0,0,3.54,1.72,5,5,0,0,0,3.53-1.36l.34-.31,1.32,2.21-.23.21A8.07,8.07,0,0,1,321,164.15Zm-3.67-10.24h6.29A5.78,5.78,0,0,0,323,151a3,3,0,0,0-2.48-1.19C318.62,149.85,317.56,151.22,317.36,153.91Z" transform="translate(-29.55 -15.43)"/><path class="a" d="M333.65,163.81h-3.17V151.52a8.25,8.25,0,0,0-.5-3.14l-.16-.39,3.12-.84.14.27a6,6,0,0,1,.5,1.67,5.6,5.6,0,0,1,4-1.94,3.31,3.31,0,0,1,1,.17l.37.13-1.27,3.36-.35-.15a2,2,0,0,0-.54-.09,3.31,3.31,0,0,0-2.31,1,2.43,2.43,0,0,0-.79,2.19Z" transform="translate(-29.55 -15.43)"/><path class="a" d="M355.32,164h-2.91l-5.79-16.12,3.23-.69,3.71,10.95c.15.46.29.94.41,1.37.12-.4.26-.86.42-1.34L358,147.61h3.38Z" transform="translate(-29.55 -15.43)"/><path class="a" d="M369.13,164.21c-4.4,0-7-3.21-7-8.59s2.67-8.47,7-8.47a6.54,6.54,0,0,1,5.61,2.86,10.12,10.12,0,0,1,1.49,6C376.14,161.05,373.46,164.21,369.13,164.21ZM369,149.88a3.17,3.17,0,0,0-2.83,1.48,8.32,8.32,0,0,0-.7,3.85,10.5,10.5,0,0,0,.91,4.86,3.31,3.31,0,0,0,2.81,1.37,3,3,0,0,0,3-2.07,8.83,8.83,0,0,0,.45-3.23,10.47,10.47,0,0,0-.68-4.48A3.21,3.21,0,0,0,369,149.88Z" transform="translate(-29.55 -15.43)"/><path class="a" d="M385.75,164.21c-4.41,0-7-3.21-7-8.59s2.66-8.47,7-8.47a6.54,6.54,0,0,1,5.61,2.86,10.12,10.12,0,0,1,1.49,6C392.76,161.05,390.08,164.21,385.75,164.21Zm-.12-14.33a3.17,3.17,0,0,0-2.83,1.48,8.32,8.32,0,0,0-.7,3.85,10.51,10.51,0,0,0,.9,4.86,3.31,3.31,0,0,0,2.81,1.37,3,3,0,0,0,3-2.07,8.82,8.82,0,0,0,.44-3.23,10.63,10.63,0,0,0-.67-4.48A3.23,3.23,0,0,0,385.63,149.88Z" transform="translate(-29.55 -15.43)"/><path class="a" d="M399.58,163.81h-3.17V151.52a8.25,8.25,0,0,0-.5-3.14l-.16-.39,3.12-.84.14.27a6,6,0,0,1,.5,1.67,5.6,5.6,0,0,1,4-1.94,3.31,3.31,0,0,1,1,.17l.37.13-1.27,3.36-.35-.15a2,2,0,0,0-.54-.09,3.31,3.31,0,0,0-2.31,1,2.43,2.43,0,0,0-.79,2.19Z" transform="translate(-29.55 -15.43)"/><path class="a" d="M418.21,164c-4.18,0-6.67-3.06-6.67-8.19,0-3.41,1.13-5.93,3.35-7.47a5.27,5.27,0,0,1,3.19-1,5.71,5.71,0,0,1,3.8,1.35c0-.43,0-.94,0-1.41v-6.93l3.17.53v17.56a15.63,15.63,0,0,0,.44,4.86l.2.51h-3.28l-.1-.24a6.64,6.64,0,0,1-.26-.91A5.2,5.2,0,0,1,418.21,164Zm.25-14a2.91,2.91,0,0,0-2.57,1.43,7.09,7.09,0,0,0-.94,4.27,8.2,8.2,0,0,0,.58,3.85,2.84,2.84,0,0,0,2.77,1.61,4.07,4.07,0,0,0,2.76-.93,2.68,2.68,0,0,0,.77-.89v-8A3.84,3.84,0,0,0,418.46,150.07Z" transform="translate(-29.55 -15.43)"/><path class="a" d="M440.58,164.46l-.26-.08a3.55,3.55,0,0,1-2.15-1.95,5.92,5.92,0,0,1-4.31,1.78c-4.95,0-5.33-3.66-5.33-4.78,0-3.71,3.2-5.92,8.56-5.92h.71v-.69c0-1.39-.08-1.8-.41-2.17a2.16,2.16,0,0,0-1.79-.71,8.11,8.11,0,0,0-4.68,1.73l-.32.28-1.67-2.4.32-.21a11.94,11.94,0,0,1,6.69-2.14c2.31,0,3.91.92,4.62,2.65a9.05,9.05,0,0,1,.37,3.56l-.12,5.09c-.06,2.58.14,3,1,3.44l.38.21Zm-3.68-8.56c-4.34,0-4.93,1.68-4.93,3.31s.75,2.45,2.3,2.45a3.85,3.85,0,0,0,3.37-2.14l.09-3.59Z" transform="translate(-29.55 -15.43)"/><path class="a" d="M459.16,163.81h-4.22l-6.64-8.18v8.18h-3.17V144.39a10,10,0,0,0-.37-3l-.18-.43,3.18-.61.11.29a13.23,13.23,0,0,1,.43,3.79v9.38l5.44-6.19h4.06l-6.43,7.08Z" transform="translate(-29.55 -15.43)"/><path class="a" d="M466.34,164.15c-4.46,0-7.23-3.3-7.23-8.59a8.63,8.63,0,0,1,1.95-6.08,6.14,6.14,0,0,1,4.91-2.27,6,6,0,0,1,4.45,1.79c1.44,1.47,1.88,3.05,1.88,6.77v.72h-9.65a5.65,5.65,0,0,0,.66,3.17,4,4,0,0,0,3.53,1.72,5,5,0,0,0,3.53-1.36l.33-.31,1.33,2.21-.23.21A8.07,8.07,0,0,1,466.34,164.15Zm-3.67-10.24H469a5.78,5.78,0,0,0-.64-2.87,3,3,0,0,0-2.48-1.19C463.93,149.85,462.87,151.22,462.67,153.91Z" transform="translate(-29.55 -15.43)"/><path class="a" d="M487.89,163.81h-3.2V153c0-1.62-.12-1.91-.47-2.33a1.94,1.94,0,0,0-1.42-.52,6.7,6.7,0,0,0-3.9,2v11.73h-3.11V151.52a6.89,6.89,0,0,0-.54-3.07L475,148l3.1-.86.15.25a6.38,6.38,0,0,1,.54,1.8,6.92,6.92,0,0,1,4.56-2,4.45,4.45,0,0,1,4.12,2.49,4.73,4.73,0,0,1,.41,2Z" transform="translate(-29.55 -15.43)"/><path class="a" d="M494.49,164.21a2.51,2.51,0,0,1-2.49-2.52,2.46,2.46,0,0,1,4.91,0A2.48,2.48,0,0,1,494.49,164.21Z" transform="translate(-29.55 -15.43)"/><polygon class="b" points="466.85 0 0 0 0 115.15 20.95 115.15 20.95 20.35 466.85 20.35 466.85 0"/><polygon class="a" points="380.75 73.78 380.75 65.46 360.22 65.46 360.21 43.82 380.75 43.82 380.75 33.55 338.84 33.55 338.84 105.63 380.75 105.63 380.75 96.9 360.22 96.9 360.22 73.78 380.75 73.78"/><path class="a" d="M455.37,93.26l15.85,27.8h21.56L473.34,86.17,474,86c.57-.1,13.76-2.3,13.76-19.67S470.94,49,470.94,49H423.09v72.11h20.18V89.61l.42-.07a17.05,17.05,0,0,1,2.54-.17C449.24,89.37,453.27,90,455.37,93.26ZM454.6,81.2H443.28v-22H454.6s12.36.13,12.36,11S454.6,81.2,454.6,81.2Z" transform="translate(-29.55 -15.43)"/><path class="a" d="M330.78,49H292.92v72.11h35.39c4.34,0,18.53-1,25.21-13.76,7.56-14.49,5.15-35.49-2.26-46.34C347.32,55.33,340.31,49,330.78,49Zm4.67,49.47c-1.18,6.68-4.93,13.78-13,13.78h-8.67V58.69h8.43c3.66,0,6.61,2.64,8.29,5.28C337.06,74.31,337.18,86.1,335.45,98.42Z" transform="translate(-29.55 -15.43)"/><path class="a" d="M130.22,85.58A46.77,46.77,0,0,0,124,81l-.59-.37.55-.44c7-5.48,8.6-10.69,7.62-18A15.17,15.17,0,0,0,116.29,48.9H67.41v72.18l49.75,0c8.34,0,16.89-5.55,18.37-16.95C136.55,96.36,134.92,90.58,130.22,85.58ZM97.27,81.2h-9.8V58.72h9.82s12.25,0,12.25,11.25S97.27,81.2,97.27,81.2Zm2.64,30.63H87.47V89.2H99.91s12.24.13,12.24,11.31C112.15,111.87,99.91,111.83,99.91,111.83Z" transform="translate(-29.55 -15.43)"/><path class="a" d="M206,121.06l0-51.24C206,57.23,198,49,187.55,49H165.3c-11.6,0-19.34,8.4-19.39,20.85v51.26h21.38V88.83H184.6v32.23ZM184.63,71.18v8.27H167.29V71.18s-.66-12.47,8.67-12.47S184.63,71.18,184.63,71.18Z" transform="translate(-29.55 -15.43)"/><path class="a" d="M258.75,103.81V49h21l0,51.31c0,12.45-7.85,20.85-19.45,20.85H238.6c-10.47,0-18.94-9.36-18.94-20.87V49h21v54.88s-.07,7.48,9,7.48S258.75,103.81,258.75,103.81Z" transform="translate(-29.55 -15.43)"/></svg>