<svg xmlns="http://www.w3.org/2000/svg" viewBox="0 0 467.36 154.82"><defs><style>.a{fill:#1d1d1b;}.b{fill:#fff;}.c{fill:#ee7203;}</style></defs><title>rz_BauderLogo_CMYK_FR</title><path class="a" d="M202.59,164.22a4.92,4.92,0,0,1-2.17-.47c-1.18-.57-1.7-1.62-1.7-3.41V150.11h-2v-2.58h2c0-1.34.19-3.14.25-3.58l0-.26,3.32-.73-.07.53c0,.23-.27,2.22-.3,4H206L205,150.11h-3.1v9.58c0,1.63.42,1.92,1.61,1.92a2.71,2.71,0,0,0,1.35-.27l.43-.22.51,2.3-.25.14A6.24,6.24,0,0,1,202.59,164.22Z" transform="translate(-29.55 -15.43)"/><path class="a" d="M214,164.13c-4.41,0-7-3.22-7-8.6,0-5.22,2.66-8.46,6.95-8.46a6.54,6.54,0,0,1,5.61,2.85,10.12,10.12,0,0,1,1.49,6C221,161,218.36,164.13,214,164.13Zm-.12-14.33a3.16,3.16,0,0,0-2.83,1.47,8.39,8.39,0,0,0-.7,3.86,10.65,10.65,0,0,0,.9,4.86,3.32,3.32,0,0,0,2.82,1.37,3,3,0,0,0,3-2.07,8.86,8.86,0,0,0,.44-3.23,10.55,10.55,0,0,0-.67-4.49A3.23,3.23,0,0,0,213.91,149.8Z" transform="translate(-29.55 -15.43)"/><path class="a" d="M228,163.72h-3.26V147.65l3.26-.53Zm-1.58-18.32a2.26,2.26,0,0,1-2.27-2.24,2.29,2.29,0,0,1,2.27-2.29,2.27,2.27,0,1,1,0,4.53Z" transform="translate(-29.55 -15.43)"/><path class="a" d="M236.57,164.22a4.93,4.93,0,0,1-2.18-.47c-1.18-.57-1.7-1.63-1.7-3.41V150.11h-2v-2.58h2c0-1.34.2-3.14.25-3.58l0-.26,3.32-.73-.06.53c0,.23-.27,2.22-.31,4H240l-1,2.58h-3.1v9.58c0,1.63.42,1.92,1.61,1.92a2.71,2.71,0,0,0,1.35-.27l.43-.22.51,2.3-.26.14A6.23,6.23,0,0,1,236.57,164.22Z" transform="translate(-29.55 -15.43)"/><path class="a" d="M247,164.19a11.69,11.69,0,0,1-5.87-1.61l-.3-.18,1.27-2.47.35.21a8.82,8.82,0,0,0,4.7,1.41c1.7,0,2.76-.88,2.76-2.3,0-1.21-.65-1.83-2.25-2.17l-1.92-.4c-2.67-.56-4.2-2.24-4.2-4.62,0-3,2.41-5.12,5.86-5.12a10.53,10.53,0,0,1,4.9,1.29l.31.18-1.23,2.44-.33-.15a8.32,8.32,0,0,0-3.71-1.08c-1.55,0-2.54.85-2.54,2.16,0,.88.33,1.53,1.93,1.87l2.05.43c2.93.62,4.42,2.19,4.42,4.68C253.22,162,250.67,164.19,247,164.19Z" transform="translate(-29.55 -15.43)"/><path class="a" d="M273.79,164.38l-.26-.09a3.53,3.53,0,0,1-2.15-1.94,5.92,5.92,0,0,1-4.31,1.78c-4.95,0-5.33-3.66-5.33-4.78,0-3.71,3.2-5.93,8.56-5.93H271v-.69c0-1.39-.08-1.79-.41-2.17a2.18,2.18,0,0,0-1.79-.71,8.12,8.12,0,0,0-4.68,1.74l-.32.28-1.67-2.4.32-.21a11.94,11.94,0,0,1,6.69-2.14c2.31,0,3.91.91,4.63,2.65a9.27,9.27,0,0,1,.36,3.56l-.12,5.09c-.06,2.58.14,2.95,1,3.44l.38.2Z" transform="translate(-29.55 -15.43)"/><path class="b" d="M270.11,155.82c-4.34,0-4.93,1.67-4.93,3.31s.75,2.45,2.3,2.45a3.85,3.85,0,0,0,3.37-2.14l.09-3.59Z" transform="translate(-29.55 -15.43)"/><polyline class="a" points="235.84 124.39 242.89 128.82 241.75 130.88 234.11 127.48 235.84 124.39"/><path class="a" d="M289.11,164.22a4.89,4.89,0,0,1-2.17-.47c-1.18-.57-1.71-1.62-1.71-3.41V150.11h-2v-2.58h2c0-1.35.19-3.14.25-3.58l0-.26,3.32-.73-.07.53c-.07.54-.27,2.36-.3,4h4l-1,2.58h-3.1v9.58c0,1.63.42,1.92,1.61,1.92a2.71,2.71,0,0,0,1.35-.27l.43-.22.51,2.3-.25.14A6.24,6.24,0,0,1,289.11,164.22Z" transform="translate(-29.55 -15.43)"/><path class="a" d="M300.55,164.13c-4.41,0-7-3.22-7-8.6,0-5.22,2.66-8.46,6.95-8.46a6.54,6.54,0,0,1,5.61,2.85,10.12,10.12,0,0,1,1.49,6C307.56,161,304.88,164.13,300.55,164.13Zm-.12-14.33a3.16,3.16,0,0,0-2.83,1.47,8.39,8.39,0,0,0-.7,3.86,10.51,10.51,0,0,0,.9,4.86,3.33,3.33,0,0,0,2.81,1.37,3,3,0,0,0,3-2.07,8.86,8.86,0,0,0,.44-3.23,10.55,10.55,0,0,0-.67-4.49A3.23,3.23,0,0,0,300.43,149.8Z" transform="translate(-29.55 -15.43)"/><path class="a" d="M322.5,164.51l-.27-.22a4.78,4.78,0,0,1-1.59-2,6.11,6.11,0,0,1-4.74,1.95,4.57,4.57,0,0,1-4.4-2.42,5.81,5.81,0,0,1-.44-2.45V147.72l3.14-.61v11.56c0,1.49.24,1.93.76,2.29a3.07,3.07,0,0,0,1.68.46,4.32,4.32,0,0,0,3.56-2.5V147.74l3.14-.53v11.7c0,2,.3,2.59.94,3.17l.28.26Z" transform="translate(-29.55 -15.43)"/><path class="a" d="M332,164.22a4.93,4.93,0,0,1-2.18-.47c-1.18-.57-1.7-1.62-1.7-3.41V150.11h-2v-2.58h2c0-1.35.19-3.14.25-3.58l0-.26,3.32-.73-.07.53c-.06.54-.27,2.36-.3,4h4.05l-1.05,2.58h-3.1v9.58c0,1.63.43,1.92,1.61,1.92a2.69,2.69,0,0,0,1.35-.27l.43-.22.51,2.3-.25.14A6.23,6.23,0,0,1,332,164.22Z" transform="translate(-29.55 -15.43)"/><path class="a" d="M343.73,164.06c-4.45,0-7.22-3.29-7.22-8.59a8.58,8.58,0,0,1,1.95-6.07,6.44,6.44,0,0,1,9.36-.48c1.43,1.46,1.87,3.05,1.87,6.77v.72h-9.64a5.75,5.75,0,0,0,.65,3.17,4,4,0,0,0,3.53,1.72,4.94,4.94,0,0,0,3.53-1.36l.34-.31,1.32,2.21-.22.2A8,8,0,0,1,343.73,164.06Zm-3.66-10.23h6.29a5.77,5.77,0,0,0-.65-2.87,2.92,2.92,0,0,0-2.47-1.19C341.33,149.77,340.26,151.13,340.07,153.83Z" transform="translate(-29.55 -15.43)"/><path class="a" d="M357.84,164.19a11.72,11.72,0,0,1-5.87-1.61l-.3-.18,1.28-2.47.34.21a8.82,8.82,0,0,0,4.7,1.41c1.71,0,2.76-.88,2.76-2.3,0-1.21-.65-1.83-2.24-2.17l-1.92-.4c-2.68-.56-4.21-2.24-4.21-4.62,0-3,2.41-5.12,5.86-5.12a10.53,10.53,0,0,1,4.9,1.29l.31.18-1.22,2.44-.33-.15a8.36,8.36,0,0,0-3.72-1.08c-1.54,0-2.54.85-2.54,2.16,0,.88.33,1.53,1.93,1.87l2.05.43c2.94.62,4.42,2.19,4.42,4.68C364,162,361.49,164.19,357.84,164.19Z" transform="translate(-29.55 -15.43)"/><path class="b" d="M376.28,153.83h6.28a5.78,5.78,0,0,0-.64-2.87,2.94,2.94,0,0,0-2.47-1.19C377.53,149.77,376.47,151.13,376.28,153.83Z" transform="translate(-29.55 -15.43)"/><polyline class="a" points="353.04 124.39 354.76 127.48 347.13 130.88 345.99 128.82 353.04 124.39"/><path class="a" d="M389.39,170.25v-19a11.77,11.77,0,0,0-.32-3.21l-.13-.41,3.25-.57.08.35a8,8,0,0,1,.15,1.52,6.08,6.08,0,0,1,4.2-1.72,5.68,5.68,0,0,1,4.42,2.07c1.22,1.51,1.78,3.52,1.78,6.31a9.62,9.62,0,0,1-1.29,5.52,5.83,5.83,0,0,1-5.1,3,6.44,6.44,0,0,1-3.87-1.34v6.85Zm3.17-10.67a4.8,4.8,0,0,0,3.41,1.78,3.17,3.17,0,0,0,2.91-1.7,8.55,8.55,0,0,0,.62-3.75,11.06,11.06,0,0,0-.68-4.28,2.74,2.74,0,0,0-2.51-1.49,4.89,4.89,0,0,0-3.75,1.93Z" transform="translate(-29.55 -15.43)"/><path class="a" d="M409.8,163.72h-3.17V151.44a8.1,8.1,0,0,0-.5-3.14l-.17-.4,3.14-.84.13.28a5.88,5.88,0,0,1,.5,1.67,5.58,5.58,0,0,1,4-1.94,3,3,0,0,1,1,.17l.37.12-1.27,3.36-.35-.14a1.64,1.64,0,0,0-.55-.1,3.32,3.32,0,0,0-2.3,1,2.42,2.42,0,0,0-.79,2.18Z" transform="translate(-29.55 -15.43)"/><path class="a" d="M443.15,164.51l-.27-.22a4.78,4.78,0,0,1-1.59-2,6.1,6.1,0,0,1-4.74,1.95,4.59,4.59,0,0,1-4.4-2.41,5.89,5.89,0,0,1-.44-2.46V147.72l3.14-.61v11.56c0,1.49.24,1.93.76,2.29a3.07,3.07,0,0,0,1.68.46,4.35,4.35,0,0,0,3.57-2.5V147.74l3.13-.53v11.7c0,2,.3,2.59.94,3.17l.28.26Z" transform="translate(-29.55 -15.43)"/><path class="a" d="M454.67,163.88h-2.92L446,147.75l3.23-.68,3.7,11c.16.47.3.95.42,1.37.11-.4.25-.86.42-1.34l3.62-10.52h3.38Z" transform="translate(-29.55 -15.43)"/><path class="a" d="M468.82,164.06c-4.46,0-7.23-3.29-7.23-8.59a8.62,8.62,0,0,1,2-6.07,6.11,6.11,0,0,1,4.91-2.27,6,6,0,0,1,4.45,1.79c1.44,1.46,1.88,3.05,1.88,6.77v.72h-9.65a5.75,5.75,0,0,0,.65,3.17,4,4,0,0,0,3.53,1.72,5,5,0,0,0,3.54-1.36l.33-.31,1.33,2.21-.23.2A8,8,0,0,1,468.82,164.06Zm-3.67-10.23h6.29a5.78,5.78,0,0,0-.64-2.87,3,3,0,0,0-2.48-1.19C466.41,149.77,465.35,151.13,465.15,153.83Z" transform="translate(-29.55 -15.43)"/><path class="a" d="M422.4,164.06c-4.45,0-7.22-3.29-7.22-8.59a8.62,8.62,0,0,1,1.94-6.07,6.13,6.13,0,0,1,4.91-2.27,6.06,6.06,0,0,1,4.46,1.79c1.43,1.46,1.87,3.05,1.87,6.77v.72h-9.64a5.75,5.75,0,0,0,.65,3.17,4,4,0,0,0,3.53,1.72,5,5,0,0,0,3.53-1.36l.34-.31,1.32,2.21-.23.2A8,8,0,0,1,422.4,164.06Zm-3.66-10.23H425a5.78,5.78,0,0,0-.64-2.87,2.93,2.93,0,0,0-2.47-1.19C420,149.77,418.93,151.13,418.74,153.83Z" transform="translate(-29.55 -15.43)"/><path class="a" d="M380,164.06c-4.46,0-7.23-3.29-7.23-8.59a8.58,8.58,0,0,1,1.95-6.07,6.44,6.44,0,0,1,9.36-.48c1.44,1.46,1.87,3.05,1.87,6.77v.72H376.3a5.75,5.75,0,0,0,.65,3.17,4,4,0,0,0,3.53,1.72,4.92,4.92,0,0,0,3.53-1.36l.34-.31,1.32,2.21-.22.2A8,8,0,0,1,380,164.06Zm-3.67-10.23h6.29A5.66,5.66,0,0,0,382,151a2.92,2.92,0,0,0-2.47-1.19C377.58,149.77,376.51,151.13,376.32,153.83Z" transform="translate(-29.55 -15.43)"/><path class="a" d="M482.92,164.19a11.68,11.68,0,0,1-5.86-1.61l-.3-.18,1.27-2.47.34.21a8.88,8.88,0,0,0,4.71,1.41c1.7,0,2.76-.88,2.76-2.3,0-1.21-.65-1.83-2.25-2.17l-1.92-.4c-2.67-.56-4.21-2.24-4.21-4.62,0-3,2.41-5.12,5.87-5.12a10.56,10.56,0,0,1,4.9,1.29l.3.18-1.22,2.44-.33-.15a8.36,8.36,0,0,0-3.72-1.08c-1.54,0-2.53.85-2.53,2.16,0,.88.32,1.53,1.93,1.87l2,.43c2.93.62,4.42,2.19,4.42,4.68C489.13,162,486.58,164.19,482.92,164.19Z" transform="translate(-29.55 -15.43)"/><path class="a" d="M494.48,164.13a2.51,2.51,0,0,1-2.48-2.52,2.39,2.39,0,0,1,2.42-2.42,2.43,2.43,0,0,1,2.49,2.42A2.48,2.48,0,0,1,494.48,164.13Z" transform="translate(-29.55 -15.43)"/><polygon class="c" points="466.85 0 0 0 0 115.15 20.95 115.15 20.95 20.35 466.85 20.35 466.85 0"/><polygon class="a" points="380.75 73.78 380.75 65.46 360.22 65.46 360.21 43.82 380.75 43.82 380.75 33.55 338.84 33.55 338.84 105.63 380.75 105.63 380.75 96.9 360.22 96.9 360.22 73.78 380.75 73.78"/><path class="a" d="M455.37,93.26l15.85,27.8h21.56L473.34,86.17,474,86c.57-.1,13.76-2.3,13.76-19.67S470.94,49,470.94,49H423.09v72.11h20.18V89.61l.42-.07a17.05,17.05,0,0,1,2.54-.17C449.24,89.37,453.27,90,455.37,93.26ZM454.6,81.2H443.28v-22H454.6s12.36.13,12.36,11S454.6,81.2,454.6,81.2Z" transform="translate(-29.55 -15.43)"/><path class="a" d="M330.78,49H292.92v72.11h35.39c4.34,0,18.53-1,25.21-13.76,7.56-14.49,5.15-35.49-2.26-46.34C347.32,55.33,340.31,49,330.78,49Zm4.67,49.47c-1.18,6.68-4.93,13.78-13,13.78h-8.67V58.69h8.43c3.66,0,6.61,2.64,8.29,5.28C337.06,74.31,337.18,86.1,335.45,98.42Z" transform="translate(-29.55 -15.43)"/><path class="a" d="M130.22,85.58A46.77,46.77,0,0,0,124,81l-.59-.37.55-.44c7-5.48,8.6-10.69,7.62-18A15.17,15.17,0,0,0,116.29,48.9H67.41v72.18l49.75,0c8.34,0,16.89-5.55,18.37-16.95C136.55,96.36,134.92,90.58,130.22,85.58ZM97.27,81.2h-9.8V58.72h9.82s12.25,0,12.25,11.25S97.27,81.2,97.27,81.2Zm2.64,30.63H87.47V89.2H99.91s12.24.13,12.24,11.31C112.15,111.87,99.91,111.83,99.91,111.83Z" transform="translate(-29.55 -15.43)"/><path class="a" d="M206,121.06l0-51.24C206,57.23,198,49,187.55,49H165.3c-11.6,0-19.34,8.4-19.39,20.85v51.26h21.38V88.83H184.6v32.23ZM184.63,71.18v8.27H167.29V71.18s-.66-12.47,8.67-12.47S184.63,71.18,184.63,71.18Z" transform="translate(-29.55 -15.43)"/><path class="a" d="M258.75,103.81V49h21l0,51.31c0,12.45-7.85,20.85-19.45,20.85H238.6c-10.47,0-18.94-9.36-18.94-20.87V49h21v54.88s-.07,7.48,9,7.48S258.75,103.81,258.75,103.81Z" transform="translate(-29.55 -15.43)"/></svg>