<?xml version="1.0" encoding="utf-8"?>
<!-- Generator: Adobe Illustrator 26.0.0, SVG Export Plug-In . SVG Version: 6.00 Build 0)  -->
<svg version="1.1" xmlns="http://www.w3.org/2000/svg" xmlns:xlink="http://www.w3.org/1999/xlink" x="0px" y="0px"
	 viewBox="0 0 122.74 62.36" style="enable-background:new 0 0 122.74 62.36;" xml:space="preserve">
<style type="text/css">
	.st0{display:none;}
	.st1{display:inline;fill:#00497E;}
	.st2{display:inline;}
	.st3{fill:#FAB900;}
	.st4{display:inline;fill:#FAB900;}
	.st5{fill:#00497E;}
	.st6{fill:#004477;}
	.st7{fill:#F3C200;}
</style>
<g id="bag" class="st0">
	<rect x="-67.6" y="2.16" class="st1" width="62.36" height="62.36"/>
	<g class="st2">
		<path class="st3" d="M-43.44,4.22v21.79c-0.08-0.02-0.44-0.26-1.46-0.26c-0.95,0-2.31,0.95-3.8,0.95c-1.58,0-2.87-1.04-4.28-1.04
			c-0.8,0-1.77,0.4-2.13,0.56v1.96c0.36-0.14,1.33-0.51,2.13-0.51c1.34,0,2.63,1,4.28,1c1.29,0,2.76-0.85,3.8-0.85
			c0.9,0,1.36,0.32,1.46,0.39v1.43c-0.08-0.02-0.44-0.26-1.46-0.26c-0.95,0-2.31,0.95-3.8,0.95c-1.58,0-2.87-1.04-4.28-1.04
			c-0.8,0-1.77,0.4-2.13,0.56v1.96c0.36-0.14,1.33-0.5,2.13-0.5c1.34,0,2.63,1,4.28,1c1.29,0,2.76-0.85,3.8-0.85
			c0.9,0,1.36,0.32,1.46,0.39v4.6h-5.77v0.01l12.02,7.29l0-39.51H-43.44z"/>
	</g>
	<path class="st4" d="M-63.14,46.42h6.45c2.16,0,3.6,0.78,3.6,3.1c0,1.8-1.03,2.94-2.78,3.31v0.04c1.94,0.3,2.92,1.05,2.92,3.04
		c0,2.57-1.68,3.72-4.17,3.72h-6.02V46.42z M-59.68,56.72h1.87c0.84,0,1.37-0.45,1.41-1.14c0-0.84-0.52-1.28-1.32-1.28h-1.96V56.72z
		 M-59.66,51.8h1.55c0.8,0,1.57-0.34,1.57-1.19c0-0.89-0.45-1.27-1.27-1.27h-1.85V51.8z"/>
	<path class="st4" d="M-49.34,46.42h5.35l3.55,13.22h-3.62l-0.75-2.85h-3.92l-0.71,2.85h-3.51L-49.34,46.42z M-46.68,48.81h-0.04
		l-1.25,4.96h2.35L-46.68,48.81z"/>
	<path class="st4" d="M-30.11,54.98c0,3-1.73,4.88-5.25,4.88c-3.52,0-5.25-1.87-5.25-4.88v-8.55h3.39v8.29
		c0,1.4,0.86,2.03,1.85,2.03c1,0,1.86-0.64,1.86-2.03v-8.29h3.39V54.98z"/>
	<path class="st4" d="M-29.18,46.42h8.82v3.24h-5.58v1.78h5.58v3.13h-5.58v1.93h5.58v3.13h-8.82V46.42z"/>
	<path class="st4" d="M-19.48,46.42h5.83c2.21,0,4.44,0.36,4.44,3.53c0,2.57-1.69,3.92-3.49,3.92l3.85,5.77H-13l-2.99-5.24h-0.04
		v5.24h-3.46V46.42z M-16.03,52.16H-14c0.82,0,1.32-0.59,1.32-1.34c0-1.09-0.66-1.27-1.59-1.27h-1.76V52.16z"/>
	<g class="st2">
		<path class="st3" d="M-29.4,4.22v21.79c0.09-0.02,0.44-0.26,1.46-0.26c0.95,0,2.3,0.95,3.8,0.95c1.58,0,2.87-1.04,4.28-1.04
			c0.8,0,1.77,0.4,2.13,0.56v1.96c-0.36-0.14-1.33-0.51-2.13-0.51c-1.34,0-2.63,1-4.28,1c-1.29,0-2.76-0.85-3.8-0.85
			c-0.9,0-1.36,0.32-1.46,0.39v1.43c0.09-0.02,0.44-0.26,1.46-0.26c0.95,0,2.3,0.95,3.8,0.95c1.58,0,2.87-1.04,4.28-1.04
			c0.8,0,1.77,0.4,2.13,0.56v1.96c-0.36-0.14-1.33-0.5-2.13-0.5c-1.34,0-2.63,1-4.28,1c-1.29,0-2.76-0.85-3.8-0.85
			c-0.9,0-1.36,0.32-1.46,0.39v4.6h5.77v0.01l-12.02,7.29l0-39.51H-29.4z"/>
	</g>
	<g class="st2">
		<g>
			<path class="st5" d="M3.71,46.41h5.35l3.55,13.24H9l-0.75-2.86H4.32l-0.71,2.86H0.09L3.71,46.41z M6.37,48.8H6.34l-1.25,4.96
				h2.36L6.37,48.8z"/>
			<path class="st5" d="M12.99,46.41h3.57v5.98h0.04l3.2-5.98h4.07l-4.11,6.6l4.11,6.64H19.8l-3.2-5.75h-0.04v5.75h-3.57V46.41z"/>
			<path class="st5" d="M26.6,49.98H23.2v-3.57h10.35v3.57h-3.39v9.67H26.6V49.98z"/>
			<path class="st5" d="M34.13,46.41h3.57v13.24h-3.57V46.41z"/>
			<path class="st5" d="M39.02,46.41h8.84v3.25h-5.59v1.79h5.59v3.14h-5.59v1.93h5.59v3.14h-8.84V46.41z"/>
			<path class="st5" d="M49.16,46.41h4.91l3.48,8.48h0.04v-8.48h3.14v13.24h-4.21l-4.18-9.05H52.3v9.05h-3.14V46.41z"/>
			<path class="st5" d="M72.18,56.99c-1.11,2.27-2.91,2.98-4.93,2.98c-3.82,0-5.66-3.3-5.66-6.98c0-4.66,2.87-6.91,5.73-6.91
				c1.71,0,3.25,0.39,4.39,1.71v3.7c-0.89-1.29-2.05-2.05-3.64-2.05c-2.36,0-3.12,1.89-3.12,3.89c0,1.86,0.62,3.71,2.55,3.71
				c0.55,0,1-0.14,1.32-0.46V52.9h3.36V56.99z"/>
			<path class="st5" d="M73.04,46.41h8.84v3.25h-5.59v1.79h5.59v3.14h-5.59v1.93h5.59v3.14h-8.84V46.41z"/>
			<path class="st5" d="M91.85,51.19c-0.8-1.36-2.52-1.75-3.82-1.75c-0.8,0-1.87,0.27-1.87,1.04c0,0.61,0.52,0.8,2.73,1.39
				c1.8,0.48,3.36,1.54,3.36,3.89c0,2.66-2.27,4.21-4.78,4.21c-1.77,0-3.12-0.5-4.34-1.36v-3.57c0.75,1.23,2.73,1.89,4.02,1.89
				c0.71,0,1.86-0.14,1.86-1.04c0-0.55-0.29-0.71-2.71-1.41c-2.55-0.73-3.59-1.95-3.59-3.91c0-2.82,2.23-4.5,4.98-4.5
				c1.48,0,2.98,0.36,4.18,1.23V51.19z"/>
			<path class="st5" d="M93.07,46.41h8.84v3.25h-5.59v1.79h5.59v3.14h-5.59v1.93h5.59v3.14h-8.84V46.41z"/>
			<path class="st5" d="M103.14,46.41h3.57v10h4.59v3.25h-8.16V46.41z"/>
			<path class="st5" d="M112.17,46.41h3.57v10h4.59v3.25h-8.16V46.41z"/>
			<path class="st5" d="M129.95,51.19c-0.8-1.36-2.52-1.75-3.82-1.75c-0.8,0-1.88,0.27-1.88,1.04c0,0.61,0.52,0.8,2.73,1.39
				c1.8,0.48,3.36,1.54,3.36,3.89c0,2.66-2.27,4.21-4.78,4.21c-1.77,0-3.12-0.5-4.34-1.36v-3.57c0.75,1.23,2.73,1.89,4.02,1.89
				c0.71,0,1.86-0.14,1.86-1.04c0-0.55-0.29-0.71-2.71-1.41c-2.55-0.73-3.59-1.95-3.59-3.91c0-2.82,2.23-4.5,4.98-4.5
				c1.48,0,2.98,0.36,4.18,1.23V51.19z"/>
			<path class="st5" d="M140.42,51.76c-0.8-1.36-1.86-2.11-3.44-2.11c-1.87,0-2.89,1.46-2.89,3.62c0,1.95,0.77,3.55,2.93,3.55
				c1.48,0,2.64-0.87,3.41-2.09v3.44c-0.79,0.88-2.34,1.79-4.27,1.79c-3.78,0-5.43-3.11-5.43-6.94c0-5.34,2.61-6.94,5.62-6.94
				c1.59,0,3.25,0.54,4.07,1.68V51.76z"/>
			<path class="st5" d="M141.23,46.41h3.57v4.77h3.57v-4.77h3.57v13.24h-3.57v-5.12h-3.57v5.12h-3.57V46.41z"/>
			<path class="st5" d="M155.94,46.41h5.36l3.55,13.24h-3.62l-0.75-2.86h-3.93l-0.71,2.86h-3.52L155.94,46.41z M158.59,48.8h-0.04
				l-1.25,4.96h2.36L158.59,48.8z"/>
			<path class="st5" d="M168.63,51.71h5.46v3.14h-5.46v4.8h-3.57V46.41h9.05v3.25h-5.48V51.71z"/>
			<path class="st5" d="M178,49.98h-3.39v-3.57h10.35v3.57h-3.39v9.67H178V49.98z"/>
		</g>
		<g>
			<path class="st5" d="M3.71,46.41h5.35l3.55,13.24H9l-0.75-2.86H4.32l-0.71,2.86H0.09L3.71,46.41z M6.37,48.8H6.34l-1.25,4.96
				h2.36L6.37,48.8z"/>
			<path class="st5" d="M12.99,46.41h3.57v5.98h0.04l3.2-5.98h4.07l-4.11,6.6l4.11,6.64H19.8l-3.2-5.75h-0.04v5.75h-3.57V46.41z"/>
			<path class="st5" d="M26.6,49.98H23.2v-3.57h10.35v3.57h-3.39v9.67H26.6V49.98z"/>
			<path class="st5" d="M34.13,46.41h3.57v13.24h-3.57V46.41z"/>
			<path class="st5" d="M39.02,46.41h8.84v3.25h-5.59v1.79h5.59v3.14h-5.59v1.93h5.59v3.14h-8.84V46.41z"/>
			<path class="st5" d="M49.16,46.41h4.91l3.48,8.48h0.04v-8.48h3.14v13.24h-4.21l-4.18-9.05H52.3v9.05h-3.14V46.41z"/>
			<path class="st5" d="M72.18,56.99c-1.11,2.27-2.91,2.98-4.93,2.98c-3.82,0-5.66-3.3-5.66-6.98c0-4.66,2.87-6.91,5.73-6.91
				c1.71,0,3.25,0.39,4.39,1.71v3.7c-0.89-1.29-2.05-2.05-3.64-2.05c-2.36,0-3.12,1.89-3.12,3.89c0,1.86,0.62,3.71,2.55,3.71
				c0.55,0,1-0.14,1.32-0.46V52.9h3.36V56.99z"/>
			<path class="st5" d="M73.04,46.41h8.84v3.25h-5.59v1.79h5.59v3.14h-5.59v1.93h5.59v3.14h-8.84V46.41z"/>
			<path class="st5" d="M91.85,51.19c-0.8-1.36-2.52-1.75-3.82-1.75c-0.8,0-1.87,0.27-1.87,1.04c0,0.61,0.52,0.8,2.73,1.39
				c1.8,0.48,3.36,1.54,3.36,3.89c0,2.66-2.27,4.21-4.78,4.21c-1.77,0-3.12-0.5-4.34-1.36v-3.57c0.75,1.23,2.73,1.89,4.02,1.89
				c0.71,0,1.86-0.14,1.86-1.04c0-0.55-0.29-0.71-2.71-1.41c-2.55-0.73-3.59-1.95-3.59-3.91c0-2.82,2.23-4.5,4.98-4.5
				c1.48,0,2.98,0.36,4.18,1.23V51.19z"/>
			<path class="st5" d="M93.07,46.41h8.84v3.25h-5.59v1.79h5.59v3.14h-5.59v1.93h5.59v3.14h-8.84V46.41z"/>
			<path class="st5" d="M103.14,46.41h3.57v10h4.59v3.25h-8.16V46.41z"/>
			<path class="st5" d="M112.17,46.41h3.57v10h4.59v3.25h-8.16V46.41z"/>
			<path class="st5" d="M129.95,51.19c-0.8-1.36-2.52-1.75-3.82-1.75c-0.8,0-1.88,0.27-1.88,1.04c0,0.61,0.52,0.8,2.73,1.39
				c1.8,0.48,3.36,1.54,3.36,3.89c0,2.66-2.27,4.21-4.78,4.21c-1.77,0-3.12-0.5-4.34-1.36v-3.57c0.75,1.23,2.73,1.89,4.02,1.89
				c0.71,0,1.86-0.14,1.86-1.04c0-0.55-0.29-0.71-2.71-1.41c-2.55-0.73-3.59-1.95-3.59-3.91c0-2.82,2.23-4.5,4.98-4.5
				c1.48,0,2.98,0.36,4.18,1.23V51.19z"/>
			<path class="st5" d="M140.42,51.76c-0.8-1.36-1.86-2.11-3.44-2.11c-1.87,0-2.89,1.46-2.89,3.62c0,1.95,0.77,3.55,2.93,3.55
				c1.48,0,2.64-0.87,3.41-2.09v3.44c-0.79,0.88-2.34,1.79-4.27,1.79c-3.78,0-5.43-3.11-5.43-6.94c0-5.34,2.61-6.94,5.62-6.94
				c1.59,0,3.25,0.54,4.07,1.68V51.76z"/>
			<path class="st5" d="M141.23,46.41h3.57v4.77h3.57v-4.77h3.57v13.24h-3.57v-5.12h-3.57v5.12h-3.57V46.41z"/>
			<path class="st5" d="M155.94,46.41h5.36l3.55,13.24h-3.62l-0.75-2.86h-3.93l-0.71,2.86h-3.52L155.94,46.41z M158.59,48.8h-0.04
				l-1.25,4.96h2.36L158.59,48.8z"/>
			<path class="st5" d="M168.63,51.71h5.46v3.14h-5.46v4.8h-3.57V46.41h9.05v3.25h-5.48V51.71z"/>
			<path class="st5" d="M178,49.98h-3.39v-3.57h10.35v3.57h-3.39v9.67H178V49.98z"/>
		</g>
	</g>
</g>
<g id="bag_Kopie">
	<rect class="st6" width="62.36" height="62.36"/>
	<g>
		<path class="st7" d="M24.16,2.06v21.79c-0.08-0.02-0.44-0.26-1.46-0.26c-0.95,0-2.31,0.95-3.8,0.95c-1.58,0-2.87-1.04-4.28-1.04
			c-0.8,0-1.77,0.4-2.13,0.56v1.96c0.36-0.14,1.33-0.51,2.13-0.51c1.34,0,2.63,1,4.28,1c1.29,0,2.76-0.85,3.8-0.85
			c0.9,0,1.36,0.32,1.46,0.39v1.43c-0.08-0.02-0.44-0.26-1.46-0.26c-0.95,0-2.31,0.95-3.8,0.95c-1.58,0-2.87-1.04-4.28-1.04
			c-0.8,0-1.77,0.4-2.13,0.56v1.96c0.36-0.14,1.33-0.5,2.13-0.5c1.34,0,2.63,1,4.28,1c1.29,0,2.76-0.85,3.8-0.85
			c0.9,0,1.36,0.32,1.46,0.39v4.6h-5.77v0.01l12.02,7.29l0-39.51H24.16z"/>
	</g>
	<path class="st7" d="M4.46,44.27h6.45c2.16,0,3.6,0.78,3.6,3.1c0,1.8-1.03,2.94-2.78,3.31v0.04c1.94,0.3,2.92,1.05,2.92,3.04
		c0,2.57-1.68,3.72-4.17,3.72H4.46V44.27z M7.92,54.56h1.87c0.84,0,1.37-0.45,1.41-1.14c0-0.84-0.52-1.28-1.32-1.28H7.92V54.56z
		 M7.94,49.65h1.55c0.8,0,1.57-0.34,1.57-1.19c0-0.89-0.45-1.27-1.27-1.27H7.94V49.65z"/>
	<path class="st7" d="M18.26,44.27h5.35l3.55,13.22h-3.62l-0.75-2.85h-3.92l-0.71,2.85h-3.51L18.26,44.27z M20.92,46.65h-0.04
		l-1.25,4.96h2.35L20.92,46.65z"/>
	<path class="st7" d="M37.49,52.82c0,3-1.73,4.88-5.25,4.88c-3.52,0-5.25-1.87-5.25-4.88v-8.55h3.39v8.29c0,1.4,0.86,2.03,1.85,2.03
		c1,0,1.86-0.64,1.86-2.03v-8.29h3.39V52.82z"/>
	<path class="st7" d="M38.42,44.27h8.82v3.24h-5.58v1.78h5.58v3.13h-5.58v1.93h5.58v3.13h-8.82V44.27z"/>
	<path class="st7" d="M48.12,44.27h5.83c2.21,0,4.44,0.36,4.44,3.53c0,2.57-1.69,3.92-3.49,3.92l3.85,5.77H54.6l-2.99-5.24h-0.04
		v5.24h-3.46V44.27z M51.57,50h2.03c0.82,0,1.32-0.59,1.32-1.34c0-1.09-0.66-1.27-1.59-1.27h-1.76V50z"/>
	<g>
		<path class="st7" d="M38.2,2.06v21.79c0.09-0.02,0.44-0.26,1.46-0.26c0.95,0,2.3,0.95,3.8,0.95c1.58,0,2.87-1.04,4.28-1.04
			c0.8,0,1.77,0.4,2.13,0.56v1.96c-0.36-0.14-1.33-0.51-2.13-0.51c-1.34,0-2.63,1-4.28,1c-1.29,0-2.76-0.85-3.8-0.85
			c-0.9,0-1.36,0.32-1.46,0.39v1.43c0.09-0.02,0.44-0.26,1.46-0.26c0.95,0,2.3,0.95,3.8,0.95c1.58,0,2.87-1.04,4.28-1.04
			c0.8,0,1.77,0.4,2.13,0.56v1.96c-0.36-0.14-1.33-0.5-2.13-0.5c-1.34,0-2.63,1-4.28,1c-1.29,0-2.76-0.85-3.8-0.85
			c-0.9,0-1.36,0.32-1.46,0.39v4.6h5.77v0.01l-12.02,7.29l0-39.51H38.2z"/>
	</g>
</g>
<g id="Ebene_2">
	<g>
		<path class="st6" d="M68.35,44.25h8.83v3.24H71.6v1.78h5.58v3.14H71.6v1.93h5.58v3.14h-8.83V44.25z"/>
		<path class="st6" d="M88.94,54.83c-1.11,2.26-2.91,2.98-4.92,2.98c-3.82,0-5.65-3.3-5.65-6.97c0-4.65,2.87-6.9,5.72-6.9
			c1.71,0,3.24,0.39,4.39,1.71v3.69c-0.89-1.28-2.05-2.05-3.64-2.05c-2.35,0-3.12,1.89-3.12,3.89c0,1.85,0.62,3.71,2.55,3.71
			c0.55,0,1-0.14,1.32-0.46v-3.67h3.35V54.83z"/>
		<path class="st6" d="M93.36,52.72l-3.92-8.47h3.83l1.87,5.1l1.89-5.1h3.83l-3.94,8.47v4.76h-3.56V52.72z"/>
		<path class="st6" d="M101.74,44.25h5.69c2.5,0,4.74,0.46,4.74,4.06c0,3.24-1.85,5.15-4.81,5.15h-2.16v4.01h-3.46V44.25z
			 M105.2,50.55h1.73c1.18,0,1.89-0.68,1.89-1.62c0-1.03-0.82-1.43-1.78-1.43h-1.83V50.55z"/>
		<path class="st6" d="M115.77,47.82h-3.39v-3.57h10.34v3.57h-3.39v9.66h-3.56V47.82z"/>
	</g>
</g>
</svg>
