<svg xmlns="http://www.w3.org/2000/svg" width="148" height="32" viewBox="0 0 273.3 59.1"><style>.st0{fill:#fff}</style><path d="M12.9 22.2c0 1.9 1.5 3.4 3.4 3.4s3.4-1.6 3.4-3.4V14c0-1.9-1.5-3.4-3.4-3.4s-3.4 1.5-3.4 3.4z" class="st0"/><path d="M16.3 34.4c9 0 16.3-7.3 16.3-16.3S25.3 1.8 16.3 1.8 0 9.1 0 18.1s7.3 16.3 16.3 16.3m0-27.2c6 0 10.9 4.9 10.9 10.9S22.3 29 16.3 29 5.4 24.1 5.4 18.1 10.3 7.2 16.3 7.2" class="st0"/><path d="M141.2 19c.2-1.2.8-2.3 1.8-3.1s2.1-1.3 3.4-1.3c.6 0 1.2.1 1.7.3s.9.5 1.3.9c.3.4.6.9.7 1.4s.1 1.1 0 1.7-.3 1.2-.6 1.7-.7 1-1.2 1.4-1 .7-1.6 1q-.9.3-1.8.3c-.6 0-1.2-.1-1.7-.3s-.9-.6-1.2-1-.6-.9-.7-1.4c-.2-.5-.2-1-.1-1.6M35.7 50.9l5.8-32.7h11l4.2 21.9L69 18.2h10.4l-5.8 32.7h-8l3.9-22.1-11.6 22.1h-6.2l-4-22.1-3.9 22.1zm44.1-10 2.6-14.6h7.8L88 38.9c-.3 1.8-.3 3.2.2 4.3.4 1.1 1.4 1.7 3.1 1.7 1.6 0 2.9-.6 3.9-1.7s1.6-2.6 2-4.5l2.2-12.3h7.8L102.9 51h-7.8l.6-3.5q-1.35 1.95-3.6 3c-1.5.7-3.2 1.1-5.2 1.1-1.7 0-3.1-.3-4.1-.8s-1.8-1.2-2.3-2c-.6-1-.9-2-1-3.3-.2-1.3 0-2.8.3-4.6m27.4 10 5.8-32.7h7.8L115 50.9zm16.4-24.6 1.5-8.2h7.8l-1.5 8.2h5.6l-1 5.8h-5.6l-1.5 8.7c-.2.9-.2 1.6-.1 2.2.1.5.2 1 .5 1.3s.6.5 1 .6.9.1 1.5.1h1.3c.5 0 1-.1 1.4-.1l-1.1 6c-.6.1-1.3.2-2.2.3s-1.9.1-3.1.1c-.9 0-1.9-.1-2.9-.2s-1.9-.5-2.6-1c-.8-.6-1.3-1.4-1.7-2.6q-.6-1.8 0-4.8l1.8-10.5zm12.7 24.6 4.3-24.6h7.8L144 50.9zm39.3 8.2 5.8-32.8h7.8l-.6 3.5c.8-1.1 2-2.1 3.5-2.9s3.2-1.2 5.2-1.2c1.6 0 3.1.3 4.4 1s2.4 1.6 3.2 2.7c.9 1.1 1.4 2.5 1.8 4.1q.45 2.4 0 5.1c-.3 1.8-.9 3.6-1.8 5.1-.9 1.6-1.9 2.9-3.2 4.1-1.2 1.1-2.7 2.1-4.2 2.7-1.5.7-3.1 1-4.7 1-1.9 0-3.5-.4-4.7-1.2s-2.1-1.8-2.5-2.9l-2.1 11.7zM187 38.6q-.3 1.35 0 2.4c.2.8.4 1.4.9 2 .4.6.9 1 1.6 1.3s1.4.5 2.3.5 1.7-.2 2.5-.5 1.5-.8 2.1-1.3 1.1-1.2 1.5-2q.6-1.2.9-2.4c.2-.8.1-1.6 0-2.4-.2-.8-.4-1.4-.9-2-.4-.6-.9-1-1.6-1.3s-1.4-.5-2.3-.5-1.7.2-2.5.5-1.5.8-2.1 1.3c-.6.6-1.1 1.2-1.6 2-.4.8-.7 1.6-.8 2.4m22.2 0c.3-1.8.9-3.4 1.8-5s2-2.9 3.4-4.1 3-2.1 4.8-2.8 3.8-1.1 5.9-1.1c2.2 0 4 .3 5.6 1.1 1.6.7 2.8 1.6 3.8 2.8s1.6 2.5 2 4.1c.3 1.6.3 3.2 0 5s-.9 3.4-1.8 5-2 2.9-3.4 4.1-3 2.1-4.8 2.8-3.8 1-5.9 1-4-.4-5.5-1c-1.5-.7-2.8-1.6-3.8-2.8s-1.6-2.5-2-4.1c-.4-1.5-.4-3.2-.1-5m7.8 0c-.2.9-.2 1.7 0 2.5.1.8.4 1.4.8 2s.9 1 1.6 1.4c.7.3 1.4.5 2.3.5s1.7-.2 2.5-.5 1.5-.8 2.1-1.4 1.1-1.2 1.6-2c.4-.7.7-1.6.9-2.5.2-.8.2-1.7 0-2.4-.2-.8-.4-1.4-.8-2s-.9-1-1.6-1.4c-.7-.3-1.5-.5-2.4-.5s-1.7.2-2.5.5-1.5.8-2.1 1.4-1.1 1.2-1.5 2c-.5.7-.8 1.6-.9 2.4m42.9-12.3 1.4-8.2h7.8l-1.4 8.2h5.6l-1 5.8h-5.6l-1.5 8.7c-.2.9-.2 1.6-.1 2.2.1.5.2 1 .5 1.3s.6.5 1 .6.8.1 1.4.1h1.3c.5 0 1-.1 1.4-.1l-1.1 6c-.6.1-1.3.2-2.2.3s-1.9.1-3.1.1c-.9 0-1.9-.1-2.9-.2s-1.9-.5-2.6-1c-.8-.6-1.3-1.4-1.7-2.6q-.6-1.8 0-4.8l1.8-10.5zm-82.8-2.7c-.3-1.3-.8-2.4-1.7-3.4-.8-1-2-1.8-3.3-2.4-1.4-.6-3.1-.9-5-.9-1.5 0-3.1.2-4.6.6s-2.9 1-4.1 1.8-2.3 1.8-3.2 3.1c-.9 1.2-1.5 2.7-1.8 4.4-.3 1.6-.2 3.1.2 4.2s1.1 2.1 2 2.9 2 1.5 3.2 2 2.5 1.1 3.9 1.6c.7.3 1.3.5 1.8.8.6.3 1 .5 1.4.9.3.3.6.7.8 1.1s.2.9.1 1.5c-.2 1-.7 1.8-1.5 2.5q-1.2.9-3 .9c-1.4 0-2.4-.4-3.2-1.3-.7-.9-1-2.2-.7-3.8h-8.3c-.3 1.9-.3 3.6.1 5.1s1.1 2.8 2 3.8c1 1 2.2 1.8 3.6 2.3 1.5.5 3.1.8 5 .8 1.8 0 3.5-.2 5.1-.7s3.1-1.2 4.3-2.1c1.3-.9 2.3-2.1 3.2-3.4s1.4-2.8 1.7-4.5.2-3.2-.3-4.4-1.2-2.2-2.2-3-2.1-1.5-3.4-2.1c-1.3-.5-2.6-1.1-3.9-1.6s-2.4-1.1-3-1.7-.8-1.3-.7-2.2c.2-.9.6-1.6 1.4-2.1s1.7-.8 2.6-.8c1.2 0 2.1.4 2.5 1.1.5.7.6 1.8.4 3.1h8.4c.4-1.5.4-2.8.2-4.1m79.9 2.3c-1.8 0-3.5.4-5 1.3s-2.6 1.9-3.4 3.1l.7-4h-7.8l-4.3 24.6h7.8l1.7-9.6c.5-3 1.6-5.2 3.1-6.4 1.5-1.3 3.4-1.9 5.6-1.9.4 0 .7 0 .9.1l1.3-7.2z" style="fill:#fff"/></svg>