<?xml version="1.0" encoding="UTF-8" standalone="no"?>
<!-- Generator: Adobe Illustrator 21.0.2, SVG Export Plug-In . SVG Version: 6.00 Build 0)  -->

<svg
   version="1.1"
   id="Calque_1"
   x="0px"
   y="0px"
   viewBox="0 0 520.7 138.5"
   xml:space="preserve"
   sodipodi:docname="Benu_croix.svg"
   width="520.70001"
   height="138.5"
   inkscape:version="1.1.1 (3bf5ae0d25, 2021-09-20)"
   xmlns:inkscape="http://www.inkscape.org/namespaces/inkscape"
   xmlns:sodipodi="http://sodipodi.sourceforge.net/DTD/sodipodi-0.dtd"
   xmlns="http://www.w3.org/2000/svg"
   xmlns:svg="http://www.w3.org/2000/svg"><defs
   id="defs25" /><sodipodi:namedview
   id="namedview23"
   pagecolor="#ffffff"
   bordercolor="#666666"
   borderopacity="1.0"
   inkscape:pageshadow="2"
   inkscape:pageopacity="0.0"
   inkscape:pagecheckerboard="0"
   showgrid="false"
   fit-margin-top="0"
   fit-margin-left="0"
   fit-margin-right="0"
   fit-margin-bottom="0"
   inkscape:zoom="1.4664875"
   inkscape:cx="257.75876"
   inkscape:cy="100.58047"
   inkscape:window-width="3840"
   inkscape:window-height="2071"
   inkscape:window-x="2391"
   inkscape:window-y="-9"
   inkscape:window-maximized="1"
   inkscape:current-layer="Calque_1" />
<style
   type="text/css"
   id="style2">
	.st0{fill:#002664;}
	.st1{fill:#58A618;}
	.st2{fill:#FFFFFF;}
	.st3{opacity:0.4;fill:#58A618;enable-background:new    ;}
</style>





<g
   id="g851"
   transform="translate(-163.2,-197)"><path
     class="st0"
     d="m 196,334.7 c -5.4,0 -10.8,-0.2 -16.1,-0.5 -5.4,-0.3 -10.9,-1.1 -16.7,-2.3 v -95.5 c 4.5,-0.9 9.5,-1.5 14.9,-1.9 5.4,-0.4 10.4,-0.6 15.1,-0.6 6.3,0 12,0.5 17.3,1.4 5.3,0.9 9.8,2.4 13.6,4.6 3.8,2.2 6.8,5 8.9,8.6 2.1,3.6 3.2,7.9 3.2,13.2 0,7.9 -3.8,14.1 -11.4,18.6 6.3,2.4 10.5,5.6 12.8,9.7 2.3,4.1 3.4,8.7 3.4,13.8 0,10.3 -3.8,18.1 -11.3,23.3 -7.6,5 -18.8,7.6 -33.7,7.6 m -11.2,-61.1 h 10.8 c 6.8,0 11.7,-0.9 14.6,-2.6 2.9,-1.8 4.4,-4.6 4.4,-8.5 0,-4 -1.5,-6.8 -4.5,-8.4 -3,-1.6 -7.5,-2.4 -13.4,-2.4 -1.9,0 -3.9,0 -6.1,0.1 -2.2,0 -4.1,0.2 -5.8,0.4 z m 0,16.9 V 316 c 1.6,0.2 3.4,0.3 5.3,0.4 1.9,0.1 4,0.1 6.3,0.1 6.6,0 12,-0.9 16.1,-2.8 4.1,-1.9 6.1,-5.4 6.1,-10.5 0,-4.5 -1.7,-7.8 -5.1,-9.7 -3.4,-1.9 -8.3,-2.9 -14.6,-2.9 h -14.1 z"
     id="path4" /><polygon
     class="st0"
     points="322.4,234.9 322.4,253.6 278,253.6 278,272.9 317.4,272.9 317.4,291.1 278,291.1 278,314.8 325.7,314.8 325.7,333.5 255.9,333.5 255.9,234.9 "
     id="polygon6" /><path
     class="st0"
     d="m 408.1,333.5 c -6.4,-11.3 -13.2,-22.4 -20.6,-33.4 -7.4,-11 -15.3,-21.4 -23.6,-31.1 v 64.5 H 342 V 235 h 18.1 c 3.1,3.1 6.6,7 10.4,11.5 3.8,4.5 7.7,9.4 11.6,14.6 3.9,5.2 7.8,10.5 11.7,16.1 3.9,5.5 7.5,10.9 10.9,16 v -58.1 h 22 v 98.5 h -18.6 z"
     id="path8" /><path
     class="st0"
     d="m 486.8,335.5 c -6.9,0 -12.9,-1 -17.9,-2.9 -5,-1.9 -9.2,-4.6 -12.4,-8.1 -3.3,-3.5 -5.7,-7.6 -7.3,-12.4 -1.6,-4.8 -2.3,-10.1 -2.3,-15.9 V 234.9 H 469 v 59.4 c 0,4 0.5,7.4 1.4,10.2 0.9,2.8 2.1,5.1 3.7,6.8 1.6,1.8 3.5,3 5.7,3.8 2.2,0.8 4.7,1.1 7.3,1.1 5.4,0 9.8,-1.7 13.1,-5 3.4,-3.3 5,-9 5,-16.9 v -59.4 h 22.2 v 61.3 c 0,5.8 -0.8,11.1 -2.4,15.9 -1.6,4.8 -4.1,9 -7.4,12.4 -3.3,3.5 -7.5,6.1 -12.7,8 -5.1,2 -11.1,3 -18.1,3"
     id="path10" /><g
     id="g18">
	<path
   class="st1"
   d="m 678.3,235.2 h -32.6 v -32.6 c 0,-3.1 -2.5,-5.6 -5.6,-5.6 h -49 c -3.1,0 -5.6,2.5 -5.6,5.6 v 32.6 h -32.6 c -3.1,0 -5.6,2.5 -5.6,5.6 v 49 c 0,3.1 2.5,5.6 5.6,5.6 h 32.6 V 328 c 0,3.1 2.5,5.6 5.6,5.6 h 49 c 3.1,0 5.6,-2.5 5.6,-5.6 v -32.6 h 32.6 c 3.1,0 5.6,-2.5 5.6,-5.6 v -49 c 0,-3.1 -2.5,-5.6 -5.6,-5.6 z M 627.7,233 c -13.9,0 -25.1,11.2 -25.1,25.1 0,0.3 0,0.7 0,1 -10.1,3.1 -17.6,12 -18.7,22.8 -3,-5.3 -4.7,-11.4 -4.7,-17.9 0,-5.4 1.2,-10.5 3.3,-15.1 0.1,0.8 0.4,2.2 1,3.3 1.3,2.1 4.2,3.1 4.2,3.1 0,0 -2,-2.1 -2.6,-4.6 -0.7,-3.4 -0.5,-5 0.3,-7 1.1,-2.9 3,-4.8 6,-6.9 -0.2,0.5 -0.4,1 -0.4,1.5 -0.3,3.3 1.8,6.7 1.8,6.7 0,0 -0.3,-3.8 1.1,-7 1.4,-3.2 3.1,-5.3 5.3,-6.6 3.4,-2 6.2,-2.6 9.6,-3.2 -0.3,0.3 -0.7,0.6 -1,0.9 -3.1,3 -3,6.4 -3,6.4 0,0 2,-2.9 5.9,-5 5.1,-2.7 9.5,-2.6 11.6,-2.3 5.6,0.7 10.7,3.4 15,6.6 -2.9,-1.1 -6.1,-1.8 -9.6,-1.8 z"
   id="path12" />
	<path
   class="st2"
   d="m 610.8,230.7 c -3.9,2.1 -5.9,5 -5.9,5 0,0 -0.1,-3.4 3,-6.4 0.3,-0.3 0.7,-0.6 1,-0.9 -3.4,0.6 -6.2,1.3 -9.6,3.2 -2.2,1.3 -4,3.4 -5.3,6.6 -1.4,3.2 -1.1,7 -1.1,7 0,0 -2.1,-3.5 -1.8,-6.7 0.1,-0.6 0.3,-1.1 0.4,-1.5 -3.1,2.1 -4.9,4 -6,6.9 -0.8,2 -1,3.6 -0.3,7 0.5,2.5 2.6,4.6 2.6,4.6 0,0 -2.9,-1 -4.2,-3.1 -0.6,-1.1 -0.9,-2.5 -1,-3.3 -2.1,4.6 -3.3,9.7 -3.3,15.1 0,6.5 1.7,12.6 4.7,17.9 1.1,-10.8 8.6,-19.7 18.7,-22.8 0,-0.3 0,-0.7 0,-1 0,-13.9 11.2,-25.1 25.1,-25.1 3.4,0 6.7,0.7 9.7,1.9 -4.4,-3.3 -9.4,-5.9 -15,-6.6 -2.2,-0.4 -6.6,-0.5 -11.7,2.2 z"
   id="path14" />
	<path
   class="st3"
   d="m 610.8,230.7 c -3.9,2.1 -5.9,5 -5.9,5 0,0 -0.1,-3.4 3,-6.4 0.3,-0.3 0.7,-0.6 1,-0.9 -3.4,0.6 -6.2,1.3 -9.6,3.2 -2.2,1.3 -4,3.4 -5.3,6.6 -1.4,3.2 -1.1,7 -1.1,7 0,0 -2.1,-3.5 -1.8,-6.7 0.1,-0.6 0.3,-1.1 0.4,-1.5 -3.1,2.1 -4.9,4 -6,6.9 -0.8,2 -1,3.6 -0.3,7 0.5,2.5 2.6,4.6 2.6,4.6 0,0 -2.9,-1 -4.2,-3.1 -0.6,-1.1 -0.9,-2.5 -1,-3.3 -2.1,4.6 -3.3,9.7 -3.3,15.1 0,6.5 1.7,12.6 4.7,17.9 1.1,-10.8 8.6,-19.7 18.7,-22.8 0,-0.3 0,-0.7 0,-1 0,-13.9 11.2,-25.1 25.1,-25.1 3.4,0 6.7,0.7 9.7,1.9 -4.4,-3.3 -9.4,-5.9 -15,-6.6 -2.2,-0.4 -6.6,-0.5 -11.7,2.2 z"
   id="path16" />
</g><path
     class="st2"
     d="m 676.8,263 c 0,0 -8.3,-2.6 -18.1,-14.2 -0.3,-0.4 -0.7,-0.8 -1,-1.2 4.7,2.7 8.2,4.8 12.5,4.3 -8.2,-1.9 -11.9,-8.7 -19.1,-11.5 -13.9,-5.5 -24.1,3.5 -24.1,3.5 v 0 c -0.8,0.5 -2.4,1.5 -3.1,1.9 -12.8,8.2 -17.8,12.9 -17.8,12.9 l 18.8,-9.5 c 0,0 6.9,7.4 14.8,-0.4 -0.4,-0.4 -0.9,-0.8 -1.6,-1.2 -1.3,-0.8 -3.2,-1.4 -5.6,-1.1 0.4,0.4 0.6,0.9 0.6,1.4 0,1.1 -0.9,2 -2,2 -1.1,0 -2,-0.9 -2,-2 0,-0.9 0.6,-1.6 1.3,-1.9 0.1,0 0.2,-0.1 0.3,-0.1 v 0 c 4.6,-1.3 7.7,0.6 9.2,2 4.7,4.8 3.6,8.5 2.9,10.4 -3.9,8 -12.6,6.8 -16.2,5.8 v 0 c -0.4,-0.1 -0.9,-0.2 -1.3,-0.4 -0.3,-0.1 -0.4,-0.1 -0.4,-0.1 v 0 c -1.2,-0.4 -2.3,-0.8 -3,-1.1 -0.4,-0.2 -0.8,-0.4 -1.2,-0.5 h -0.1 c -2.8,-1.1 -5.9,-1.7 -9.1,-1.7 -13.8,0 -25.1,11.2 -25.1,25.1 v 0.2 c 2.4,3.2 5.3,6 8.5,8.2 0.2,0.1 0.4,0.3 0.6,0.4 1.2,0.8 2.5,1.5 3.8,2.2 v 0 c 4.9,2.4 10.3,3.8 16.1,3.8 l -0.1,-0.1 c -2.6,-2.1 -3.1,-5.3 -3.1,-5.3 0,0 2.2,2.7 5.1,3.6 2.6,0.8 4.7,1 6.3,0.9 3.2,-0.3 5.6,-1.5 7.8,-2.7 -0.7,0 -1.4,-0.1 -2.2,-0.3 -4.4,-0.8 -5.9,-4.6 -5.9,-4.6 0,0 3.8,1.7 7.4,1.8 5.2,0.2 7.9,-1.8 9.4,-2.9 2.2,-1.6 4,-3.7 5.3,-6.1 -0.6,0.3 -1.2,0.6 -1.9,0.9 -3.7,1.4 -8.8,-0.8 -8.8,-0.8 0,0 4.4,-0.2 8.5,-2.9 5.3,-3.5 6.9,-7 7.6,-9 0.9,-2.7 1.1,-5.7 1.1,-8.8 0,-0.4 0,-0.8 0,-1.2 -0.2,0.7 -0.4,1.4 -0.7,2.1 -4.2,10.4 -19.8,14 -34.8,7.9 -0.8,-0.3 -1.5,-0.6 -2.2,-1 l 0.1,-0.4 c 0.6,-1.9 2,-3.4 4.9,-2.4 1.8,0.6 4.3,1.3 6.5,1.7 16.1,3.3 22.6,-8.4 23.3,-11.2 1.9,-8.1 -1.9,-13.2 -2.8,-14.3 -0.5,-0.7 -1.1,-1.3 -1.7,-1.8 3.4,0.9 7.5,2.9 11.8,7.3 11.6,11.6 20.5,12.4 20.5,12.4"
     id="path20" /></g>
</svg>
