<svg width="149" height="40" viewBox="0 0 149 40" fill="none" xmlns="http://www.w3.org/2000/svg">
<path d="M9.37844 39.7434C7.85761 39.7434 6.33678 39.6579 4.73146 39.5725C3.21064 39.487 1.68981 39.3161 0 38.9742V11.3674C1.26736 11.1109 2.70369 10.94 4.22452 10.8545C5.74535 10.7691 7.18168 10.6836 8.53353 10.6836C10.3078 10.6836 11.9976 10.8545 13.434 11.1109C14.9548 11.3674 16.2222 11.7947 17.3205 12.4785C18.4189 13.0768 19.2638 13.9315 19.8552 14.9571C20.4467 15.9827 20.7846 17.2648 20.7846 18.7178C20.7846 21.0255 19.6863 22.8203 17.574 24.1024C19.3483 24.7862 20.6157 25.7263 21.2071 26.9229C21.883 28.1195 22.221 29.4015 22.221 30.94C22.221 33.9314 21.1226 36.1537 19.0103 37.6921C16.8136 38.9742 13.603 39.7434 9.37844 39.7434ZM6.1678 22.1366H9.29394C11.2372 22.1366 12.6736 21.8802 13.434 21.3674C14.2789 20.8545 14.7013 20.0853 14.7013 18.8887C14.7013 17.7776 14.2789 16.9229 13.434 16.4956C12.5891 16.0682 11.3217 15.8118 9.63191 15.8118C9.12496 15.8118 8.53353 15.8118 7.85761 15.8118C7.26617 15.8118 6.67474 15.8973 6.1678 15.8973V22.1366ZM6.1678 27.0084V34.3588C6.59025 34.4443 7.09719 34.4443 7.68863 34.4443C8.19557 34.4443 8.787 34.4443 9.46292 34.4443C11.3217 34.4443 12.927 34.1879 14.0254 33.5896C15.2083 33.0767 15.7997 32.0511 15.7997 30.5126C15.7997 29.2306 15.2928 28.2904 14.3634 27.6921C13.3495 27.0938 11.9976 26.8374 10.2233 26.8374H6.1678V27.0084Z" fill="#002664"/>
<path d="M26.4453 39.402V10.9404H45.4556V16.325H32.7821V21.8806H44.0193V27.1797H32.7821V34.0173H46.385V39.402H26.4453Z" fill="#002664"/>
<path d="M69.9581 39.402C68.1838 36.1541 66.156 32.9062 64.0437 29.7438C61.9315 26.5814 59.6502 23.59 57.2845 20.7695V39.402H51.0322V10.9404H56.1861C57.1155 11.8806 58.0449 12.9917 59.1433 14.2738C60.2417 15.5558 61.3401 17.0088 62.4384 18.4618C63.5368 19.9148 64.6352 21.5387 65.818 23.0772C66.9164 24.7011 67.9303 26.2396 68.9442 27.6926V10.9404H75.1965V39.402H69.9581Z" fill="#002664"/>
<path d="M92.3481 40.0002C90.4048 40.0002 88.6305 39.7438 87.1942 39.1455C85.7579 38.5473 84.575 37.778 83.6456 36.8378C82.7162 35.8122 82.0403 34.6156 81.5333 33.2481C81.1109 31.8806 80.8574 30.3421 80.8574 28.6327V10.9404H87.1942V28.1199C87.1942 29.231 87.3632 30.2567 87.6167 31.0259C87.8701 31.7951 88.2081 32.4789 88.715 32.9917C89.1375 33.5045 89.7289 33.8464 90.3204 34.1028C90.9963 34.3592 91.6722 34.4447 92.4326 34.4447C93.9534 34.4447 95.2208 33.9319 96.1502 32.9917C97.0796 32.0515 97.5865 30.4276 97.5865 28.1199V10.9404H103.923V28.6327C103.923 30.3421 103.67 31.7951 103.247 33.2481C102.825 34.6156 102.065 35.8122 101.135 36.8378C100.206 37.8635 99.0229 38.6327 97.502 39.1455C96.1502 39.6584 94.3759 40.0002 92.3481 40.0002Z" fill="#002664"/>
<path d="M147.098 11.0256H137.804V1.62393C137.804 0.76923 137.128 0 136.198 0H122.258C121.413 0 120.652 0.68376 120.652 1.62393V11.0256H111.358C110.513 11.0256 109.753 11.7094 109.753 12.6496V26.7521C109.753 27.6068 110.429 28.3761 111.358 28.3761H120.652V37.7778C120.652 38.6325 121.328 39.4017 122.258 39.4017H136.198C137.043 39.4017 137.804 38.7179 137.804 37.7778V28.3761H147.098C147.943 28.3761 148.703 27.6923 148.703 26.7521V12.6496C148.619 11.7094 147.943 11.0256 147.098 11.0256Z" fill="#58A618"/>
<path d="M125.468 17.9492C125.468 17.8637 125.468 17.7783 125.468 17.6928C125.468 13.6757 128.679 10.4278 132.65 10.4278C133.664 10.4278 134.593 10.5988 135.438 11.0261C134.171 10.086 132.734 9.31673 131.129 9.14579C130.538 9.06032 129.27 9.06032 127.834 9.82955C126.736 10.4278 126.144 11.2825 126.144 11.2825C126.144 11.2825 126.144 10.3424 126.989 9.4022C127.073 9.31673 127.158 9.23126 127.327 9.14579C126.398 9.31673 125.553 9.48767 124.623 10.086C124.032 10.4278 123.525 11.0261 123.102 11.9663C122.68 12.9065 122.764 14.0176 122.764 14.0176C122.764 14.0176 122.173 12.9919 122.258 12.0518C122.258 11.8808 122.342 11.7099 122.342 11.6244C121.497 12.2227 120.906 12.821 120.652 13.5902C120.399 14.1885 120.399 14.6159 120.568 15.6415C120.737 16.4107 121.328 17.009 121.328 17.009C121.328 17.009 120.483 16.7526 120.145 16.0689C119.976 15.727 119.892 15.3851 119.892 15.1287C119.3 16.4962 118.962 17.9492 118.962 19.4877C118.962 21.368 119.469 23.1629 120.314 24.7013C120.399 21.368 122.595 18.8039 125.468 17.9492Z" fill="white" fill-opacity="0.4"/>
<path d="M146.591 19.0595C146.591 19.0595 144.225 18.2903 141.437 14.957C141.352 14.8715 141.268 14.7006 141.099 14.6151C142.451 15.3843 143.465 15.9826 144.648 15.8971C142.282 15.3843 141.268 13.4185 139.24 12.5638C135.269 10.9399 132.312 13.5895 132.312 13.5895C132.058 13.7604 131.636 14.0168 131.467 14.1877C127.834 16.5809 126.398 17.863 126.398 17.863L131.805 15.1279C131.805 15.1279 133.748 17.2647 136.03 15.0424C135.945 14.957 135.776 14.786 135.607 14.7006C135.269 14.4442 134.678 14.2732 134.002 14.3587C134.086 14.4442 134.171 14.6151 134.171 14.786C134.171 15.1279 133.917 15.3843 133.579 15.3843C133.241 15.3843 132.988 15.1279 132.988 14.786C132.988 14.5296 133.157 14.3587 133.41 14.2732H133.495C134.847 13.9313 135.692 14.4442 136.114 14.8715C137.466 16.239 137.128 17.3501 136.959 17.863C135.861 20.1707 133.41 19.8288 132.312 19.5724C132.227 19.5724 132.058 19.4869 131.974 19.4869C131.89 19.4869 131.89 19.4869 131.89 19.4869C131.552 19.4014 131.214 19.2305 131.045 19.145C130.96 19.0595 130.791 19.0595 130.707 18.9741C129.946 18.6322 129.017 18.4613 128.087 18.4613C124.116 18.4613 120.906 21.7091 120.906 25.7262V25.6407C121.582 26.5809 122.427 27.3501 123.356 28.0339C123.44 28.0339 123.44 28.1194 123.525 28.1194C123.863 28.3758 124.201 28.5467 124.623 28.7177C125.975 29.4014 127.58 29.8288 129.27 29.8288C128.51 29.2305 128.341 28.2903 128.341 28.2903C128.341 28.2903 128.932 29.0595 129.777 29.3159C130.538 29.5724 131.129 29.5724 131.552 29.5724C132.481 29.4869 133.157 29.145 133.748 28.8031C133.579 28.8031 133.326 28.8031 133.157 28.7177C131.89 28.4612 131.467 27.3501 131.467 27.3501C131.467 27.3501 132.565 27.863 133.579 27.863C135.1 27.9484 135.861 27.3501 136.283 27.0083C136.874 26.5809 137.466 25.9826 137.804 25.2134C137.635 25.2989 137.466 25.3843 137.297 25.4698C136.283 25.8971 134.762 25.2134 134.762 25.2134C134.762 25.2134 136.03 25.1279 137.212 24.3587C138.733 23.333 139.156 22.3074 139.409 21.7946C139.663 21.0254 139.747 20.1707 139.747 19.2305C139.747 19.145 139.747 18.9741 139.747 18.8886C139.663 19.0595 139.663 19.3159 139.578 19.4869C138.395 22.4783 133.917 23.504 129.608 21.7946C129.355 21.7091 129.186 21.6236 128.932 21.5382V21.4527C129.101 20.9399 129.524 20.5125 130.369 20.7689C130.876 20.9399 131.636 21.1108 132.227 21.2818C136.874 22.2219 138.649 18.8886 138.902 18.0339C139.409 15.7262 138.395 14.1877 138.142 13.9313C137.973 13.7604 137.804 13.5895 137.635 13.4185C138.564 13.6749 139.747 14.2732 141.014 15.5553C144.141 18.8031 146.591 19.0595 146.591 19.0595Z" fill="white"/>
</svg>
