<?xml version="1.0" encoding="UTF-8"?> <svg xmlns="http://www.w3.org/2000/svg" id="Layer_1" data-name="Layer 1" viewBox="0 0 404 116"><defs><style>.cls-1{fill:#004fef;}.cls-2{fill:#fff;}</style></defs><title>berlitz-logo-pill-blue-rgb-ai</title><path class="cls-1" d="M361.19,8c-6.51-3.54-13.68-5.45-27.63-5.45H57.06C43.1,2.5,36,4.41,29.43,8a36.52,36.52,0,0,0-15.2,15.49C10.69,30,8.87,37.3,8.87,51.55v12.9c0,14.15,1.82,21.42,5.36,28.11a37,37,0,0,0,15.2,15.49c6.5,3.54,13.67,5.45,27.63,5.45H333.65c14,0,21-1.91,27.63-5.45a37.1,37.1,0,0,0,15.2-15.49c3.54-6.69,5.36-14,5.36-28.11V51.55c0-14.15-1.82-21.42-5.36-28.11A37.37,37.37,0,0,0,361.19,8Z"></path><path class="cls-1" d="M386.52,2.5a8.5,8.5,0,0,0-8.6,8.6,8.61,8.61,0,1,0,17.21,0A8.51,8.51,0,0,0,386.52,2.5Zm0,15.78a6.93,6.93,0,0,1-6.88-7.18,6.89,6.89,0,1,1,13.77,0A6.93,6.93,0,0,1,386.52,18.28Z"></path><path class="cls-1" d="M390.44,9q0-2.86-3.44-2.87h-3.73v10h1.44V11.77h1.72L389,16.08h1.62l-2.77-4.4C389.39,11.49,390.44,10.72,390.44,9Zm-5.73,1.53V7.38h2c1.05,0,2.11.19,2.11,1.43,0,1.53-1.15,1.63-2.39,1.63h-1.72Z"></path><polygon class="cls-2" points="327.82 72.77 324 72.77 322.94 72.77 323.52 71.81 339.67 44.66 295.5 44.66 295.5 60.44 306.69 60.44 310.51 60.44 311.57 60.44 310.99 61.39 295.5 88.55 339.1 88.55 339.67 88.55 339.67 72.87 339.1 72.77 327.82 72.77"></polygon><polygon class="cls-2" points="284.32 44.28 283.65 44.28 283.65 43.71 283.65 27.55 262.33 27.55 262.33 43.71 262.33 44.28 261.66 44.28 256.21 44.28 256.21 60.25 261.66 60.25 262.33 60.25 262.33 60.92 262.33 88.55 283.65 88.55 283.65 60.92 283.65 60.25 284.32 60.25 290.53 60.25 290.53 44.28 284.32 44.28"></polygon><path class="cls-2" d="M241.1,41.7a10.12,10.12,0,0,0,10.14-10,10.14,10.14,0,0,0-10.14-10,10.11,10.11,0,0,0-7.17,3,9.94,9.94,0,0,0,0,14.15A10.32,10.32,0,0,0,241.1,41.7Z"></path><polygon class="cls-2" points="231.64 44.66 231.64 88.55 251.24 88.55 251.24 88.55 251.24 44.66 251.24 44.66 231.64 44.66"></polygon><polygon class="cls-2" points="207.07 88.55 207.07 88.55 226.67 88.55 226.67 22.67 207.07 22.67 207.07 88.55"></polygon><path class="cls-2" d="M187.28,53V44.66H167.77V88.55h19.79V71.91c0-5.45,2.78-11.38,8.8-11.38h5.83V44.66h0C194.93,44.47,189.48,46.77,187.28,53Z"></path><path class="cls-2" d="M136.13,44.66c-7.37,0-14,2.49-18.55,6.89a21.47,21.47,0,0,0-6.41,15.77,18.74,18.74,0,0,0,5.74,14.15c4.68,4.59,12,7.08,20.46,7.08,9.85,0,21.42-3.83,24.19-14.06H141.77c-.48,2.39-2.3,3.54-4.78,3.54a5.49,5.49,0,0,1-3.83-1.34c-1.72-1.62-1.91-4.4-1.91-6.6v-.57H162.8c.48-7-1.62-12.52-6-17C151.9,47.44,144.54,44.66,136.13,44.66Zm6.59,17.12H131.44V61.2c0-3.73,2.2-6.21,5.45-6.21a5.41,5.41,0,0,1,3.92,1.62,6.3,6.3,0,0,1,1.91,4.59v.58Z"></path><path class="cls-2" d="M98.27,57.76l-2.68-.86a12.35,12.35,0,0,0,2.68-.76c4.68-1.53,7.64-6.22,7.64-12,0-4.68-1.33-8.31-3.92-11-3.72-3.82-10.13-5.64-19.4-5.64H54.76v61H87c10.62,0,21.9-4.31,21.9-16.54C108.78,63.4,103.05,59.48,98.27,57.76ZM76.66,50.88V41.41h2.68c2.19,0,4.68,0,6.21,1.44a4.67,4.67,0,0,1,1.24,3.44,4.71,4.71,0,0,1-1.24,3.54c-1.43,1.43-3.82,1.62-6.21,1.62H76.75v-.57Zm11.28,22c-2,2-5.74,2-8.13,2H76.75V63.4h2.87c2.68,0,6.31,0,8.32,2a5,5,0,0,1,1.34,3.73A4.65,4.65,0,0,1,87.94,72.87Z"></path></svg> 