<svg width="205" height="78" viewBox="0 0 205 78" fill="none" xmlns="http://www.w3.org/2000/svg">
<path fill-rule="evenodd" clip-rule="evenodd" d="M103.343 58.9161C100.915 58.9161 98.4828 58.894 96.0544 58.9309C95.2647 58.942 94.9742 58.8275 95.1716 57.9155C97.2462 48.334 99.2724 38.7415 101.31 29.149C101.425 28.6136 101.515 28.1373 102.263 28.152C106.811 28.2591 111.374 27.853 115.903 28.3477C122.872 29.1157 126.451 32.6308 126.965 39.539C127.498 46.691 125.352 52.798 118.73 56.6454C115.962 58.2515 112.882 58.8386 109.709 58.9087C107.59 58.9567 105.466 58.9161 103.347 58.9198L103.343 58.9161ZM108.044 51.9672C113.869 51.982 116.689 50.2393 118.208 45.7568C118.897 43.7298 119.05 41.6436 118.648 39.5353C118.153 36.9655 116.32 35.3483 113.698 35.2301C112.156 35.16 110.606 35.2338 109.061 35.1895C108.383 35.1711 108.163 35.4517 108.033 36.0757C107.176 40.2332 106.252 44.3796 105.414 48.5408C105.202 49.6005 104.386 50.926 104.971 51.6719C105.623 52.5026 107.12 51.79 108.048 51.9672H108.044Z" fill="#F9B122"/>
<path fill-rule="evenodd" clip-rule="evenodd" d="M47.1689 49.5487C44.8299 49.5487 42.4871 49.582 40.148 49.534C39.2839 49.5155 38.9822 49.8072 39.0008 50.6601C39.0344 52.4435 39.85 53.7542 41.3436 54.2453C43.2655 54.8841 45.7089 54.3339 46.6251 52.905C47.0795 52.1961 47.5675 52.0226 48.3385 52.0447C50.0592 52.0927 51.7837 52.0853 53.5045 52.0447C54.3314 52.0262 54.4915 52.2404 54.1526 53.0158C52.9272 55.8256 50.9084 57.801 47.9734 58.7462C44.7032 59.8022 41.366 59.8945 38.066 58.9013C34.6952 57.8859 32.5125 55.6373 31.9576 52.1629C30.4789 42.9322 36.7772 34.5728 47.3999 36.0534C52.2605 36.7291 55.3109 40.0965 55.4972 44.9481C55.5456 46.1666 55.4227 47.3961 55.3966 48.6183C55.3817 49.342 55.039 49.5709 54.3202 49.5598C51.9364 49.5229 49.5527 49.545 47.1689 49.545V49.5487ZM43.9397 45.4023C45.0906 45.406 46.2378 45.4097 47.3887 45.4023C47.8319 45.4023 48.2491 45.4466 48.3198 44.782C48.4949 43.1574 47.2397 41.3445 45.6493 41.0306C43.1203 40.5359 40.4758 42.2232 39.8389 44.6971C39.6973 45.2472 39.8128 45.4134 40.3603 45.406C41.5522 45.3875 42.7478 45.4023 43.9397 45.4023Z" fill="#F9B122"/>
<path fill-rule="evenodd" clip-rule="evenodd" d="M59.6909 51.502C60.1304 51.502 60.5774 51.5389 61.0131 51.4946C62.2534 51.3727 63.0803 51.4614 63.5459 53.0232C64.1493 55.0613 68.4289 55.3346 69.6766 53.5733C70.3768 52.5875 69.9708 51.2989 68.7492 50.7746C67.4046 50.1986 65.952 49.9881 64.5404 49.6374C64.0264 49.5118 63.5161 49.3752 63.0095 49.2238C60.5885 48.5075 58.8082 47.1746 58.5176 44.4903C58.2159 41.7064 58.9534 39.2215 61.5048 37.8258C66.1494 35.2855 71.0212 35.0529 75.8557 37.3273C77.8633 38.2725 78.6678 40.1224 78.7759 42.2823C78.8094 42.9211 78.6343 43.2386 77.8931 43.2165C76.1723 43.1685 74.4478 43.1833 72.7271 43.2054C72.1907 43.2128 71.9598 43.0651 71.8927 42.4928C71.7587 41.3224 70.9467 40.7464 69.8442 40.5876C68.5257 40.3993 67.2519 40.5691 66.317 41.6177C65.6875 42.3193 65.9743 43.2977 66.8906 43.822C67.7845 44.3279 68.8013 44.4829 69.7846 44.7303C71.5352 45.1697 73.323 45.4946 74.9358 46.3623C76.258 47.0749 77.0513 48.1346 77.3642 49.6115C78.2916 53.9315 76.3362 57.4281 72.1162 58.7462C68.805 59.7801 65.4045 59.8354 62.0374 59.1302C58.5996 58.4102 56.5883 55.9401 56.3015 52.4693C56.2419 51.7494 56.3648 51.4244 57.1768 51.4909C58.0111 51.5574 58.8529 51.5057 59.6909 51.5057V51.502Z" fill="#F9B122"/>
<path fill-rule="evenodd" clip-rule="evenodd" d="M167.486 51.4319C167.802 50.7857 168.134 50.1507 168.435 49.5008C170.305 45.491 172.175 41.4849 174.019 37.464C174.328 36.792 174.689 36.4708 175.501 36.5003C177.441 36.5705 179.386 36.5372 181.33 36.5188C182.067 36.5114 182.41 36.5594 181.933 37.4308C178.134 44.3464 174.376 51.2805 170.618 58.2183C170.365 58.6872 170.074 58.9309 169.501 58.9272C167.117 58.9014 164.733 58.9051 162.346 58.9272C161.683 58.9346 161.433 58.6946 161.355 58.03C160.539 51.2104 159.716 44.3907 158.83 37.5785C158.699 36.5816 159.075 36.4856 159.88 36.5003C161.645 36.5372 163.415 36.5557 165.18 36.5003C166.093 36.4708 166.368 36.7588 166.409 37.6745C166.61 42.0018 166.893 46.3255 167.154 50.6491C167.169 50.8928 167.214 51.1328 167.243 51.3728C167.325 51.395 167.407 51.4134 167.489 51.4356L167.486 51.4319Z" fill="#F9B122"/>
<path fill-rule="evenodd" clip-rule="evenodd" d="M88.0017 59.1376C86.5416 59.1893 85.0816 59.1524 83.6737 58.7167C81.5544 58.0595 80.8281 57.0219 80.8877 54.8435C80.9584 52.2404 81.6698 49.7444 82.1764 47.2152C82.493 45.6276 82.7947 44.0325 83.1969 42.467C83.4092 41.6399 83.2267 41.3925 82.3626 41.363C79.7107 41.2744 79.7107 41.2448 80.2954 38.6639C80.3141 38.579 80.3439 38.4941 80.3588 38.4092C80.7722 36.0719 80.5897 36.4818 82.6531 36.5556C84.0499 36.6073 84.7389 36.2972 84.8618 34.787C84.9698 33.4467 85.4354 32.1397 85.6812 30.8031C85.8042 30.1348 86.0425 29.8246 86.7912 29.8431C88.6907 29.8874 90.5903 29.8763 92.4899 29.8431C93.2162 29.8283 93.4061 30.0424 93.2348 30.7624C92.8623 32.3354 92.6053 33.9378 92.2329 35.5144C92.0578 36.2529 92.1882 36.6147 93.015 36.5224C93.0597 36.5187 93.1044 36.5187 93.1491 36.5224C94.2777 36.6221 95.4286 36.2935 96.5385 36.7255C96.2741 38.1396 96.0171 39.5538 95.7452 40.9679C95.6521 41.4479 95.2461 41.3814 94.8997 41.3851C93.8829 41.3925 92.866 41.3999 91.8492 41.3851C91.3054 41.3741 90.9441 41.4848 90.8175 42.1162C90.2067 45.2103 89.4953 48.2823 88.9403 51.3838C88.6386 53.0749 89.0111 53.3629 90.7244 53.4773C91.5848 53.5327 92.8325 52.9457 93.2013 53.625C93.5439 54.2564 93.015 55.3752 92.8139 56.2687C92.1919 59.0268 92.1807 59.0268 89.3314 59.1487C88.8919 59.1671 88.4486 59.1487 88.0054 59.1487L88.0017 59.1376Z" fill="#F9B122"/>
<path fill-rule="evenodd" clip-rule="evenodd" d="M138.381 39.1698C140.377 36.7846 142.877 35.6363 146.002 35.891C147.126 35.9833 147.573 36.371 147.264 37.5341C146.866 39.011 146.523 40.5064 146.247 42.0128C146.11 42.7624 145.748 42.8067 145.138 42.6811C144.054 42.4559 142.959 42.3673 141.849 42.467C139.48 42.6848 137.956 43.9734 137.144 46.1334C136.094 48.9358 135.792 51.9192 135.081 54.8066C134.757 56.121 134.887 57.8564 134.072 58.6576C133.23 59.4847 131.464 58.857 130.105 58.9124C129.312 58.9456 128.511 58.8681 127.721 58.9345C126.794 59.0158 126.719 58.6244 126.883 57.8527C128.313 51.1327 129.725 44.4128 131.111 37.6855C131.289 36.8215 131.584 36.4338 132.563 36.4929C134.191 36.5926 135.833 36.5778 137.461 36.4929C138.578 36.4375 138.783 36.8289 138.407 37.7815C138.258 38.1581 138.221 38.5716 138.132 38.9704C138.213 39.0368 138.299 39.1033 138.381 39.1698Z" fill="#F9B122"/>
<path fill-rule="evenodd" clip-rule="evenodd" d="M153.257 36.5114C153.831 36.5114 154.404 36.5114 154.978 36.5114C156.296 36.5114 156.827 37.128 156.568 38.3612C155.205 44.8264 153.827 51.2879 152.508 57.7604C152.322 58.6798 151.965 58.9752 151.033 58.9383C149.272 58.8644 147.503 58.8903 145.737 58.9272C144.992 58.942 144.709 58.7758 144.884 57.9672C146.329 51.166 147.752 44.3575 149.164 37.5489C149.32 36.792 149.633 36.4228 150.479 36.4929C151.398 36.5668 152.33 36.5114 153.257 36.5114Z" fill="#F9B122"/>
<path fill-rule="evenodd" clip-rule="evenodd" d="M153.872 33.8898C152.944 33.8898 152.013 33.8455 151.09 33.9009C150.251 33.9489 149.976 33.6978 150.188 32.8523C150.505 31.5785 150.773 30.2899 150.993 28.9976C151.104 28.3403 151.414 28.1373 152.058 28.1447C153.954 28.1742 155.853 28.1705 157.753 28.1447C158.438 28.1373 158.71 28.2923 158.516 29.053C158.185 30.3674 157.924 31.7003 157.704 33.0369C157.596 33.6978 157.291 33.9194 156.65 33.8972C155.723 33.864 154.796 33.8898 153.868 33.8862L153.872 33.8898Z" fill="#F9B122"/>
<path fill-rule="evenodd" clip-rule="evenodd" d="M26.6164 42.4891C30.6874 40.3735 31.9426 38.2504 31.6595 33.9452C31.4994 31.4935 30.1958 29.8689 27.92 29.0123C27.1416 28.7206 26.3073 28.4917 25.4841 28.4142C19.711 27.864 13.9192 28.2849 8.13485 28.1483C7.33778 28.1299 7.35268 28.7059 7.24839 29.1969C5.23709 38.7525 3.24442 48.3082 1.19588 57.849C0.983578 58.8312 1.3039 58.9345 2.14566 58.9272C7.13665 58.8976 12.1314 58.953 17.1224 58.8976C20.0648 58.8644 22.8806 58.2293 25.5363 56.8706C30.8029 54.1752 32.6317 45.5205 26.6127 42.4854L26.6164 42.4891ZM19.7631 52.1075C18.0163 52.7241 16.1949 52.5248 14.2432 52.5654C13.1407 52.4324 11.4274 53.1192 10.7682 52.27C10.2691 51.6238 11.0401 49.9845 11.2859 48.7955C11.9191 45.7383 11.9265 45.7346 15.1446 45.742C16.4668 45.742 17.7928 45.6977 19.1076 45.8048C20.9326 45.9525 21.9346 46.8128 22.1171 48.2085C22.3592 50.0768 21.5137 51.4946 19.7668 52.1075H19.7631ZM19.2268 40.5248C19.521 40.5507 19.8302 40.5692 20.1021 40.4362C19.8339 40.5692 19.5247 40.5507 19.2268 40.5248ZM21.0109 39.971C20.806 40.0338 20.6049 40.1187 20.4 40.1962C18.0051 40.1999 15.6102 40.2073 13.219 40.211C13.2674 38.4498 13.9378 36.7993 14.165 35.0713C14.2209 34.632 14.53 34.5249 14.9286 34.5323C16.8244 34.5618 18.7239 34.5101 20.6161 34.6283C22.5305 34.7501 23.3797 35.4553 23.4952 36.7439C23.6404 38.3612 22.8285 39.4135 21.0146 39.971H21.0109Z" fill="#F9B122"/>
<path fill-rule="evenodd" clip-rule="evenodd" d="M203.826 44.3611C203.491 40.6319 201.61 37.9329 198.012 36.6295C194.917 35.507 191.755 35.603 188.663 36.6849C181.099 39.3285 179.076 47.5328 180.574 53.1303C181.259 55.6964 182.909 57.5684 185.412 58.5099C189.699 60.1198 193.986 60.0385 198.105 57.9561C200.485 56.7524 202.009 54.766 202.791 52.2257C202.623 52.1518 202.545 52.0854 202.463 52.0854C200.478 52.0743 198.489 52.0964 196.504 52.0521C195.811 52.0374 195.431 52.2478 195.051 52.8644C194.176 54.286 191.896 54.862 189.915 54.3044C188.433 53.8835 187.505 52.654 187.364 50.9961C187.278 49.9771 187.554 49.5081 188.727 49.5229C193.319 49.5857 197.912 49.5303 202.504 49.5709C203.391 49.5783 203.808 49.3531 203.797 48.4263C203.778 47.0712 203.949 45.7051 203.826 44.3611ZM195.003 45.7605C195.509 45.7531 196.072 45.9303 196.508 45.4873C196.072 45.9303 195.513 45.7531 195.003 45.7605ZM196.508 45.4873C193.748 45.3543 190.988 45.3765 188.228 45.4725C188.194 43.0504 190.503 40.9568 193.204 40.9531C195.334 40.9531 196.772 42.563 196.683 44.8633C196.675 45.0737 196.567 45.2768 196.508 45.4873Z" fill="#F9B122"/>
<path fill-rule="evenodd" clip-rule="evenodd" d="M201.58 35.4665C201.387 35.2117 200.813 34.7243 200.322 34.3219C200.288 34.296 200.255 34.2739 200.225 34.2444C199.83 33.9231 199.506 33.6757 199.506 33.6757H199.495C196.247 31.1761 192.682 29.1785 188.961 27.4616C176.905 21.8974 164.237 18.3676 151.116 16.3331C149.786 16.1263 148.385 16.1485 147.19 15.3325C143.622 12.8993 139.908 10.7024 136.076 8.70117C127.062 3.98613 117.631 0.795997 107.318 0.463692C99.794 0.220001 92.2964 0.485846 84.8173 1.18738C81.0406 1.54184 77.1968 1.5603 73.5131 2.49814C63.7136 4.99412 54.1488 8.26548 44.5505 11.4187C34.4456 14.7417 24.3444 18.0648 13.8186 19.8555C10.8017 20.3688 9.65079 22.6728 8.34345 24.9029C8.21681 25.1207 8.16466 25.3792 8.54085 25.5269C9.49435 25.8998 11.3157 25.394 11.893 24.5115C12.6268 23.3964 13.5393 22.7429 14.9472 22.4955C19.86 21.6278 24.7504 20.594 29.5105 19.1097C41.5559 15.351 53.5603 11.4667 65.5946 7.66733C68.9579 6.60395 72.2877 5.27842 75.8 4.89073C83.5249 4.03413 91.2647 3.24767 99.0528 3.14059C107.396 3.02613 115.657 3.43228 123.613 6.31965C130.448 8.80086 136.891 12.0648 142.962 16.0082C145.439 17.618 147.886 19.0432 150.918 19.1651C151.138 19.1725 151.354 19.2242 151.574 19.2574C164.856 21.4137 177.657 25.0986 189.755 31.0284C190.783 31.5305 191.755 32.2394 192.839 32.5164C193.755 32.749 194.664 33.0074 195.569 33.2807C197.681 33.9637 201.58 35.4628 201.58 35.4628V35.4665Z" fill="#F9B122"/>
<path d="M5.44828 75.1749C4.94921 75.1749 4.48929 75.0777 4.0685 74.8833C3.65751 74.6792 3.32479 74.373 3.07037 73.9648H2.96762L2.80616 75H1.13281V64.4586H3.17312V68.1765H3.26119C3.41776 67.953 3.60858 67.7634 3.83365 67.6079C4.05872 67.4524 4.31314 67.3406 4.59693 67.2726C4.88071 67.1948 5.18896 67.1559 5.52167 67.1559C6.12838 67.1559 6.6568 67.2969 7.10694 67.5787C7.56687 67.8606 7.92404 68.298 8.17847 68.8909C8.4329 69.4741 8.56011 70.2274 8.56011 71.1508C8.56011 72.0742 8.4329 72.8324 8.17847 73.4253C7.93383 74.0182 7.57665 74.4605 7.10694 74.7521C6.64702 75.034 6.09413 75.1749 5.44828 75.1749ZM4.8171 73.5128C5.2281 73.5128 5.55103 73.435 5.78588 73.2795C6.03052 73.1143 6.20666 72.8713 6.31431 72.5505C6.42195 72.2298 6.47577 71.8264 6.47577 71.3404V71.005C6.47577 70.519 6.42195 70.1157 6.31431 69.7949C6.20666 69.4644 6.03052 69.2214 5.78588 69.0659C5.55103 68.9007 5.2281 68.818 4.8171 68.818C4.52354 68.818 4.274 68.8715 4.0685 68.9784C3.863 69.0756 3.69176 69.2214 3.55476 69.4158C3.42754 69.6005 3.32969 69.8338 3.26119 70.1157C3.19269 70.3975 3.15844 70.7086 3.15844 71.0488V71.3112C3.15844 71.7681 3.21715 72.1617 3.33458 72.4922C3.45201 72.8227 3.63304 73.0754 3.87768 73.2504C4.12232 73.4253 4.43546 73.5128 4.8171 73.5128Z" fill="white"/>
<path d="M10.99 77.741C10.6279 77.741 10.3245 77.7118 10.0799 77.6535C9.84504 77.6049 9.69336 77.5709 9.62486 77.5515V76.1809H10.5202C10.7649 76.1809 10.9851 76.1226 11.1808 76.006C11.3765 75.8991 11.5477 75.7533 11.6945 75.5686C11.8413 75.3936 11.9489 75.2041 12.0174 75L8.99369 67.3309H11.1514L12.4725 70.8738C12.5312 71.0391 12.5948 71.248 12.6633 71.5008C12.7416 71.7438 12.8199 72.0013 12.8982 72.2735C12.9764 72.5359 13.04 72.7692 13.089 72.9733H13.1624C13.2015 72.8373 13.2455 72.6769 13.2945 72.4922C13.3434 72.3075 13.3923 72.118 13.4413 71.9236C13.5 71.7292 13.5538 71.5445 13.6027 71.3695C13.6614 71.1849 13.7104 71.0245 13.7495 70.8884L14.8504 67.3309H16.9054L14.2779 74.6355C14.1311 75.0631 13.9599 75.4617 13.7642 75.831C13.5783 76.2101 13.3581 76.5406 13.1037 76.8225C12.8492 77.1141 12.5459 77.3376 12.1936 77.4931C11.8511 77.6584 11.4499 77.741 10.99 77.741Z" fill="white"/>
<path d="M25.0878 75.1749C24.0407 75.1749 23.1453 74.9951 22.4016 74.6355C21.6579 74.2661 21.0904 73.6975 20.6989 72.9296C20.3173 72.1617 20.1265 71.1849 20.1265 69.999C20.1265 68.2494 20.557 66.9518 21.4182 66.1062C22.2891 65.2508 23.5123 64.8231 25.0878 64.8231C25.9489 64.8231 26.722 64.9689 27.407 65.2605C28.092 65.5521 28.6302 65.9895 29.0216 66.5727C29.4228 67.1559 29.6234 67.8898 29.6234 68.7743H27.4217C27.4217 68.3077 27.3238 67.9141 27.1281 67.5933C26.9422 67.2726 26.6731 67.0296 26.3208 66.8643C25.9783 66.6894 25.5771 66.6019 25.1171 66.6019C24.4909 66.6019 23.9722 66.7234 23.5612 66.9664C23.16 67.2094 22.8616 67.569 22.6658 68.0453C22.4799 68.5119 22.387 69.0853 22.387 69.7657V70.2177C22.387 70.9176 22.4848 71.5056 22.6805 71.9819C22.8762 72.4485 23.1698 72.8032 23.5612 73.0462C23.9624 73.2795 24.4762 73.3962 25.1025 73.3962C25.5917 73.3962 26.0174 73.3135 26.3795 73.1483C26.7416 72.9831 27.0204 72.7401 27.2162 72.4193C27.4119 72.0985 27.5097 71.7049 27.5097 71.2383H29.6234C29.6234 72.1228 29.4277 72.8567 29.0363 73.4399C28.6546 74.0231 28.1213 74.4605 27.4363 74.7521C26.7513 75.034 25.9685 75.1749 25.0878 75.1749Z" fill="white"/>
<path d="M34.5339 75.1749C33.6924 75.1749 32.978 75.034 32.3909 74.7521C31.8037 74.4605 31.3585 74.0182 31.0551 73.4253C30.7518 72.8227 30.6001 72.0694 30.6001 71.1654C30.6001 70.242 30.7518 69.4887 31.0551 68.9055C31.3585 68.3126 31.8037 67.8752 32.3909 67.5933C32.978 67.3017 33.6924 67.1559 34.5339 67.1559C35.3951 67.1559 36.1143 67.3017 36.6917 67.5933C37.2788 67.8752 37.724 68.3126 38.0274 68.9055C38.3308 69.4887 38.4824 70.242 38.4824 71.1654C38.4824 72.0694 38.3308 72.8227 38.0274 73.4253C37.724 74.0182 37.2788 74.4605 36.6917 74.7521C36.1143 75.034 35.3951 75.1749 34.5339 75.1749ZM34.5339 73.6003C34.9841 73.6003 35.3412 73.5177 35.6055 73.3524C35.8795 73.1872 36.0801 72.9345 36.2073 72.5943C36.3345 72.2541 36.3981 71.8361 36.3981 71.3404V70.9905C36.3981 70.4947 36.3345 70.0768 36.2073 69.7366C36.0801 69.3964 35.8795 69.1437 35.6055 68.9784C35.3412 68.8035 34.9841 68.716 34.5339 68.716C34.0936 68.716 33.7364 68.8035 33.4624 68.9784C33.1982 69.1437 33.0025 69.3964 32.8753 69.7366C32.7481 70.0768 32.6844 70.4947 32.6844 70.9905V71.3404C32.6844 71.8361 32.7481 72.2541 32.8753 72.5943C33.0025 72.9345 33.1982 73.1872 33.4624 73.3524C33.7364 73.5177 34.0936 73.6003 34.5339 73.6003Z" fill="white"/>
<path d="M39.795 75V67.3309H41.483L41.6445 68.3806H41.7472C41.9234 68.1279 42.1338 67.9092 42.3784 67.7245C42.6328 67.5399 42.9166 67.3989 43.2298 67.3017C43.5429 67.2045 43.8854 67.1559 44.2573 67.1559C44.7661 67.1559 45.2113 67.2483 45.593 67.4329C45.9746 67.6176 46.2682 67.9092 46.4737 68.3077C46.689 68.7063 46.7966 69.2263 46.7966 69.8678V75H44.7563V70.1886C44.7563 69.9456 44.727 69.7414 44.6682 69.5762C44.6095 69.4012 44.5215 69.2603 44.404 69.1534C44.2964 69.0367 44.1594 68.9541 43.993 68.9055C43.8267 68.8569 43.6408 68.8326 43.4353 68.8326C43.1319 68.8326 42.8579 68.9055 42.6133 69.0513C42.3686 69.1971 42.1778 69.3964 42.0408 69.6491C41.9038 69.9018 41.8353 70.1934 41.8353 70.5239V75H39.795Z" fill="white"/>
<path d="M50.7408 75.1749C50.2515 75.1749 49.8552 75.0874 49.5518 74.9125C49.2484 74.7375 49.0283 74.5042 48.8913 74.2126C48.7543 73.9113 48.6858 73.5808 48.6858 73.2212V68.8909H47.7317V67.3309H48.7592L49.1408 65.1439H50.7261V67.3309H52.1352V68.8909H50.7261V72.8859C50.7261 73.1191 50.7799 73.299 50.8875 73.4253C50.9952 73.542 51.1713 73.6003 51.416 73.6003H52.1352V74.9416C52.0178 74.9805 51.8808 75.0145 51.7242 75.0437C51.5676 75.0826 51.4013 75.1117 51.2251 75.1312C51.049 75.1603 50.8875 75.1749 50.7408 75.1749Z" fill="white"/>
<path d="M53.2645 66.2082V64.4586H55.3048V66.2082H53.2645ZM53.2645 75V67.3309H55.3048V75H53.2645Z" fill="white"/>
<path d="M56.9891 75V67.3309H58.6771L58.8385 68.3806H58.9413C59.1174 68.1279 59.3278 67.9092 59.5725 67.7245C59.8269 67.5399 60.1107 67.3989 60.4238 67.3017C60.7369 67.2045 61.0794 67.1559 61.4513 67.1559C61.9602 67.1559 62.4054 67.2483 62.787 67.4329C63.1687 67.6176 63.4622 67.9092 63.6677 68.3077C63.883 68.7063 63.9907 69.2263 63.9907 69.8678V75H61.9504V70.1886C61.9504 69.9456 61.921 69.7414 61.8623 69.5762C61.8036 69.4012 61.7155 69.2603 61.5981 69.1534C61.4904 69.0367 61.3534 68.9541 61.1871 68.9055C61.0207 68.8569 60.8348 68.8326 60.6293 68.8326C60.326 68.8326 60.052 68.9055 59.8073 69.0513C59.5627 69.1971 59.3719 69.3964 59.2349 69.6491C59.0979 69.9018 59.0294 70.1934 59.0294 70.5239V75H56.9891Z" fill="white"/>
<path d="M69.1384 75.1749C68.2871 75.1749 67.5727 75.034 66.9954 74.7521C66.418 74.4605 65.9826 74.0182 65.689 73.4253C65.3954 72.8324 65.2487 72.0791 65.2487 71.1654C65.2487 70.242 65.3954 69.4887 65.689 68.9055C65.9826 68.3126 66.4131 67.8752 66.9807 67.5933C67.5581 67.3017 68.2626 67.1559 69.0944 67.1559C69.8773 67.1559 70.5378 67.2969 71.076 67.5787C71.6142 67.8509 72.0203 68.2786 72.2943 68.8618C72.5683 69.4353 72.7053 70.1788 72.7053 71.0925V71.6174H67.3183C67.3379 72.0645 67.4064 72.4436 67.5238 72.7546C67.651 73.0657 67.8418 73.299 68.0963 73.4545C68.3605 73.6003 68.7079 73.6732 69.1384 73.6732C69.3733 73.6732 69.5837 73.644 69.7696 73.5857C69.9653 73.5274 70.1317 73.4399 70.2687 73.3233C70.4057 73.2066 70.5133 73.0608 70.5916 72.8859C70.6699 72.7109 70.709 72.5116 70.709 72.2881H72.7053C72.7053 72.7741 72.6172 73.1969 72.4411 73.5565C72.265 73.9162 72.0203 74.2175 71.7072 74.4605C71.394 74.6938 71.0173 74.8736 70.5769 75C70.1464 75.1166 69.6669 75.1749 69.1384 75.1749ZM67.3477 70.3344H70.6063C70.6063 70.0428 70.5671 69.79 70.4889 69.5762C70.4204 69.3624 70.3225 69.1874 70.1953 69.0513C70.0681 68.9152 69.9115 68.818 69.7256 68.7597C69.5494 68.6917 69.3488 68.6577 69.1238 68.6577C68.7519 68.6577 68.4388 68.7208 68.1843 68.8472C67.9397 68.9638 67.7489 69.1485 67.6119 69.4012C67.4847 69.6442 67.3966 69.9553 67.3477 70.3344Z" fill="white"/>
<path d="M74.0135 75V67.3309H75.7015L75.863 68.3806H75.9657C76.1419 68.1279 76.3523 67.9092 76.5969 67.7245C76.8513 67.5399 77.1351 67.3989 77.4483 67.3017C77.7614 67.2045 78.1039 67.1559 78.4758 67.1559C78.9846 67.1559 79.4299 67.2483 79.8115 67.4329C80.1931 67.6176 80.4867 67.9092 80.6922 68.3077C80.9075 68.7063 81.0151 69.2263 81.0151 69.8678V75H78.9748V70.1886C78.9748 69.9456 78.9455 69.7414 78.8868 69.5762C78.828 69.4012 78.74 69.2603 78.6225 69.1534C78.5149 69.0367 78.3779 68.9541 78.2115 68.9055C78.0452 68.8569 77.8593 68.8326 77.6538 68.8326C77.3504 68.8326 77.0764 68.9055 76.8318 69.0513C76.5871 69.1971 76.3963 69.3964 76.2593 69.6491C76.1223 69.9018 76.0538 70.1934 76.0538 70.5239V75H74.0135Z" fill="white"/>
<path d="M84.9593 75.1749C84.47 75.1749 84.0737 75.0874 83.7703 74.9125C83.467 74.7375 83.2468 74.5042 83.1098 74.2126C82.9728 73.9113 82.9043 73.5808 82.9043 73.2212V68.8909H81.9502V67.3309H82.9777L83.3593 65.1439H84.9446V67.3309H86.3537V68.8909H84.9446V72.8859C84.9446 73.1191 84.9984 73.299 85.106 73.4253C85.2137 73.542 85.3898 73.6003 85.6345 73.6003H86.3537V74.9416C86.2363 74.9805 86.0993 75.0145 85.9427 75.0437C85.7861 75.0826 85.6198 75.1117 85.4437 75.1312C85.2675 75.1603 85.106 75.1749 84.9593 75.1749Z" fill="white"/>
<path d="M89.5233 75.1749C89.2689 75.1749 88.9949 75.1458 88.7013 75.0874C88.4176 75.0291 88.1485 74.9271 87.894 74.7813C87.6396 74.6257 87.4292 74.407 87.2629 74.1252C87.1063 73.8336 87.028 73.4642 87.028 73.0171C87.028 72.4825 87.1454 72.0402 87.3803 71.6903C87.6151 71.3404 87.9479 71.0682 88.3784 70.8738C88.8188 70.6697 89.3423 70.5288 89.949 70.451C90.5557 70.3732 91.226 70.3344 91.96 70.3344V69.7657C91.96 69.5422 91.9208 69.3478 91.8425 69.1825C91.774 69.0173 91.6468 68.8861 91.4609 68.7889C91.2848 68.6917 91.0352 68.6431 90.7123 68.6431C90.3894 68.6431 90.1252 68.682 89.9197 68.7597C89.7239 68.8375 89.5821 68.9395 89.494 69.0659C89.4157 69.1825 89.3766 69.3138 89.3766 69.4596V69.6345H87.395C87.3852 69.5859 87.3803 69.5422 87.3803 69.5033C87.3803 69.4547 87.3803 69.3964 87.3803 69.3283C87.3803 68.8812 87.5173 68.4973 87.7913 68.1765C88.0653 67.846 88.4518 67.5933 88.9509 67.4184C89.4499 67.2434 90.0322 67.1559 90.6976 67.1559C91.412 67.1559 92.0089 67.2483 92.4884 67.4329C92.9777 67.6176 93.3495 67.8898 93.6039 68.2494C93.8682 68.6091 94.0003 69.061 94.0003 69.6054V73.09C94.0003 73.2649 94.0492 73.3962 94.147 73.4836C94.2547 73.5614 94.3721 73.6003 94.4993 73.6003H94.9837V74.9271C94.8859 74.9757 94.7342 75.0243 94.5287 75.0729C94.3232 75.1312 94.0737 75.1603 93.7801 75.1603C93.4963 75.1603 93.2419 75.1166 93.0168 75.0291C92.8015 74.9514 92.6205 74.8396 92.4737 74.6938C92.3269 74.5383 92.2242 74.3536 92.1655 74.1397H92.0627C91.8964 74.3439 91.6909 74.5237 91.4462 74.6792C91.2114 74.8347 90.9325 74.9562 90.6095 75.0437C90.2964 75.1312 89.9343 75.1749 89.5233 75.1749ZM90.2132 73.644C90.4872 73.644 90.7319 73.6051 90.9472 73.5274C91.1624 73.4399 91.3435 73.3281 91.4902 73.192C91.637 73.0462 91.7496 72.8713 91.8279 72.6672C91.9159 72.463 91.96 72.2443 91.96 72.0111V71.5882C91.412 71.5882 90.9227 71.6271 90.4921 71.7049C90.0615 71.7729 89.719 71.8944 89.4646 72.0694C89.22 72.2443 89.0977 72.4873 89.0977 72.7984C89.0977 72.9733 89.1417 73.124 89.2298 73.2504C89.3178 73.3767 89.4451 73.4739 89.6114 73.542C89.7778 73.61 89.9784 73.644 90.2132 73.644Z" fill="white"/>
<path d="M95.8089 75V64.4586H97.8492V75H95.8089Z" fill="white"/>
</svg>
