<svg id="Layer_1" xmlns="http://www.w3.org/2000/svg" viewBox="0 0 1314.8 587.7"><style>.st0{fill:none}</style><path class="st0" d="M112.4 112.4h1090v362.9h-1090z" id="Ebene_1"/><g id="Logo"><path d="M381.9 208c-43.9 0-79.5 38.5-79.5 85.9 0 47.4 35.6 85.9 79.5 85.9s79.5-38.5 79.5-85.9c-.1-47.5-35.6-85.9-79.5-85.9zm0 144.2c-26.3 0-47.6-26.1-47.6-58.4s21.3-58.4 47.6-58.4 47.6 26.1 47.6 58.4-21.4 58.4-47.6 58.4zM206 208c-17.8 0-34.1 6.3-47.4 16.9v-92.4c0-3.6-2.3-5.9-5.9-5.9-8.5-.1-20.2 3.9-24.6 15.5-1.4 3.8-1.6 7.6-1.6 10.8V297h.1c1.5 46 36.5 82.8 79.4 82.8 43.9 0 79.5-38.5 79.5-85.9 0-47.5-35.6-85.9-79.5-85.9zm0 144.2c-26.3 0-47.6-26.1-47.6-58.4s21.3-58.4 47.6-58.4 47.6 26.1 47.6 58.4-21.3 58.4-47.6 58.4zM594.3 353.7c0 3.3.1 7.1 1.6 10.8 4.4 11.6 16.1 15.6 24.6 15.5 3.7 0 5.9-2.3 5.9-5.9v-93.7c0-39.8-32.6-72.4-72.4-72.4-39.8 0-72.4 32.6-72.4 72.4v93.7c0 3.6 2.3 5.9 5.9 5.9 8.5.1 20.2-3.9 24.6-15.5 1.4-3.8 1.6-7.6 1.6-10.8v-77.9c0-22.1 18.1-40.3 40.3-40.3 22.1 0 40.3 18.1 40.3 40.3v77.9zM729 208c-42.9 0-77.9 36.8-79.4 82.8l-.1 164.4c0 3.6 2.3 5.9 5.9 5.9 8.5.1 20.2-3.9 24.6-15.5 1.4-3.8 1.6-7.6 1.6-10.8v-72c13.2 10.6 29.6 16.9 47.4 16.9 43.9 0 79.5-38.5 79.5-85.9 0-47.4-35.6-85.8-79.5-85.8zm0 144.2c-26.3 0-47.6-26.1-47.6-58.4s21.3-58.4 47.6-58.4 47.6 26.1 47.6 58.4-21.3 58.4-47.6 58.4zM859.6 285.1c0-42.9 14.4-45 27.1-45 3.3 0 7.1-.1 10.8-1.6 11.6-4.4 15.6-16.1 15.5-24.6 0-3.7-2.3-5.9-5.9-5.9h-10.2c-54.3 0-69.4 30.5-69.4 66.4V374c0 3.6 2.3 5.9 5.9 5.9 8.5.1 20.2-3.9 24.6-15.5 1.4-3.8 1.6-7.6 1.6-10.8v-68.5zM1117.6 341.4c-2.7-3.2-39.7-47.3-39.7-47.3l24.7-29.5s12.2-14.6 14.9-17.8c2.1-2.5 4.4-5.5 5.8-9.3 4-11.7-2.3-22.3-8.9-27.7-2.8-2.3-6-2-8.4.7l-49.1 58.5-49.1-58.5c-2.3-2.8-5.5-3.1-8.4-.7-6.6 5.4-12.9 16-8.9 27.7 1.3 3.8 3.7 6.8 5.8 9.3 2.7 3.2 5.8 7 14.9 17.8l24.7 29.5s-36.9 44-39.7 47.3c-2.1 2.5-4.4 5.5-5.8 9.3-4 11.7 2.3 22.3 8.9 27.7 2.8 2.3 6 2 8.4-.7l49.1-58.5 49.1 58.5c2.3 2.8 5.5 3.1 8.4.7 6.6-5.4 12.9-16 8.9-27.7-1.1-3.8-3.5-6.8-5.6-9.3zM963.2 213.9c0-3.6-2.3-5.9-5.9-5.9-8.5-.1-20.2 3.9-24.6 15.5-1.4 3.8-1.6 7.6-1.6 10.8v139.8c0 3.6 2.3 5.9 5.9 5.9 8.5.1 20.2-3.9 24.6-15.5 1.4-3.8 1.6-7.6 1.6-10.8V213.9zM1188.2 344.5c0-3.6-2.3-5.9-5.9-5.9-8.5-.1-20.2 3.9-24.6 15.5-1.4 3.8-1.6 7.6-1.6 10.8v9.2c0 3.6 2.3 5.9 5.9 5.9 8.5.1 20.2-3.9 24.6-15.5 1.4-3.8 1.6-7.6 1.6-10.8v-9.2z"/></g></svg>