<svg width="104" height="39" viewBox="0 0 104 39" fill="none" xmlns="http://www.w3.org/2000/svg">
<path d="M9.41514 23.1605C14.3024 23.1605 17.8672 19.9782 18.7469 15.739V22.7096H23.2202V14.0186C23.2202 13.6223 23.2461 13.1857 23.2604 12.7779C23.3409 10.127 25.0773 8.54732 27.8401 8.50136C27.08 9.68286 26.5905 11.0175 26.4064 12.4099C26.2224 13.8022 26.3485 15.2181 26.7756 16.5561C27.2027 17.8942 27.9203 19.1216 28.8772 20.1505C29.8341 21.1794 31.0066 21.9845 32.311 22.5083C33.6154 23.0321 35.0195 23.2617 36.423 23.1806C37.8265 23.0995 39.1947 22.7098 40.4299 22.0392C41.6652 21.3687 42.737 20.4339 43.5687 19.3016C44.4005 18.1693 44.9717 16.8675 45.2415 15.4891V15.5092C45.2415 20.1046 48.93 23.2122 53.3601 23.2122C54.2599 23.2064 55.1488 23.0163 55.9721 22.6537C56.7954 22.2911 57.5355 21.7637 58.1468 21.1041V22.7067H62.6028V13.1484C62.6028 12.9703 62.6172 12.8181 62.6258 12.6688C62.735 9.63009 64.5146 8.31181 66.4723 8.31181C68.4301 8.31181 70.0946 9.63583 70.1608 12.6573C70.1608 12.9186 70.178 13.091 70.178 13.3868V22.7096H74.7002V15.6098C75.5367 20.2051 79.4235 23.1605 84.0578 23.1605C89.3044 23.1605 92.2712 19.803 93.0618 16.2933H88.6892C88.3422 17.2364 87.7091 18.0478 86.8783 18.6142C86.0475 19.1805 85.0605 19.4736 84.0549 19.4526C81.6228 19.4526 79.5529 17.7925 79.0268 15.0842H93.5592V22.7096H98.0325V14.0186C98.0325 13.6223 98.0555 13.1857 98.067 12.7779C98.1561 10.0868 99.9414 8.49849 102.773 8.49849H103.268V4.23058H102.773C96.8423 4.23058 93.6857 7.55358 93.5592 11.8588C92.6967 7.17446 88.6719 4.10421 84.0492 4.10421C79.4264 4.10421 75.5396 7.18021 74.7002 11.8186C74.7002 7.69144 71.4688 4.12431 67.2744 4.12431C66.4073 4.12203 65.5482 4.29084 64.7465 4.62106C63.9448 4.95128 63.2163 5.43641 62.6028 6.0486V0.0373371H58.1468V13.4184C58.1442 13.878 58.1173 14.3373 58.0663 14.7941C57.7845 17.5714 55.9188 18.9557 53.8776 18.9557C51.7617 18.9557 49.8528 17.9563 49.7896 14.8199C49.7896 14.2771 49.7666 14.0502 49.7666 13.6711V8.64497H56.7122V4.44024H49.7666V0.0373371H45.2415V11.8129C44.8898 10.035 44.0386 8.39402 42.7874 7.08187C41.5362 5.76971 39.9369 4.84069 38.1765 4.4035C36.4161 3.96631 34.5674 4.03903 32.8469 4.61317C31.1263 5.1873 29.6051 6.2391 28.461 7.64548V4.23058H27.9637C22.1364 4.23058 18.974 7.44444 18.7584 11.6434C17.896 7.387 14.3829 4.23058 9.93261 4.23058C8.89752 4.20765 7.86872 4.39718 6.90989 4.78746C5.95107 5.17773 5.08261 5.76044 4.35828 6.49952V0H0V11.2902C0 12.1231 0.020124 12.9071 0.0287485 13.6567C0.0862456 18.8782 3.73731 23.1605 9.41514 23.1605ZM84.0549 7.88099C85.1525 7.89207 86.2173 8.25622 87.0914 8.91945C87.9655 9.58268 88.6024 10.5097 88.9077 11.563H79.2281C79.9611 9.28831 81.8528 7.88099 84.0549 7.88099ZM35.8724 8.45541C36.56 8.44534 37.2427 8.57323 37.8799 8.83149C38.5172 9.08975 39.0961 9.47314 39.5824 9.95895C40.0687 10.4448 40.4524 11.0231 40.7109 11.6598C40.9695 12.2964 41.0975 12.9784 41.0874 13.6654C41.0874 15.0471 40.538 16.3723 39.56 17.3494C38.582 18.3264 37.2555 18.8753 35.8724 18.8753C34.4893 18.8753 33.1629 18.3264 32.1849 17.3494C31.2069 16.3723 30.6574 15.0471 30.6574 13.6654C30.6466 12.9778 30.774 12.295 31.0321 11.6576C31.2903 11.0201 31.6738 10.4409 32.1602 9.95422C32.6465 9.46757 33.2256 9.08339 33.8633 8.82446C34.5009 8.56552 35.1842 8.4371 35.8724 8.44679V8.45541ZM9.42377 8.45541C10.1096 8.44691 10.7901 8.57569 11.4253 8.83414C12.0605 9.0926 12.6374 9.4755 13.1221 9.96027C13.6069 10.445 13.9895 11.0219 14.2475 11.6567C14.5055 12.2916 14.6336 12.9716 14.6244 13.6567C14.6344 14.3434 14.5066 15.025 14.2485 15.6614C13.9904 16.2978 13.6072 16.8761 13.1215 17.3621C12.6359 17.848 12.0577 18.2318 11.4211 18.4907C10.7845 18.7497 10.1024 18.8785 9.41514 18.8696C8.05286 18.8376 6.75715 18.2745 5.80498 17.3007C4.85281 16.3269 4.31975 15.0195 4.31975 13.6582C4.31975 12.2968 4.85281 10.9895 5.80498 10.0157C6.75715 9.04183 8.05286 8.47875 9.41514 8.44679L9.42377 8.45541ZM22.3089 33.4368C22.3116 33.5751 22.2912 33.713 22.2485 33.8446C22.1227 34.198 21.8879 34.5024 21.578 34.714C21.268 34.9256 20.8988 35.0335 20.5236 35.0222C20.362 35.0313 20.2004 35.0058 20.0495 34.9472C19.8987 34.8887 19.7622 34.7986 19.6491 34.683C19.5361 34.5673 19.4492 34.4288 19.3942 34.2767C19.3392 34.1247 19.3175 33.9627 19.3305 33.8015C19.3305 32.4402 20.9145 32.1874 22.3117 32.2161L22.3089 33.4368ZM23.5565 31.4924C23.5565 30.0851 23.0362 28.6203 20.8686 28.6203C20.0523 28.6113 19.2488 28.8227 18.5428 29.232L18.8303 30.0937C19.3825 29.7461 20.0233 29.5646 20.6759 29.571C22.1134 29.5537 22.2744 30.6164 22.2744 31.1966V31.3402C19.5576 31.3402 18.0426 32.2564 18.0426 33.9566C18.0426 34.9705 18.7699 35.9671 20.1987 35.9671C20.6149 35.9765 21.0273 35.8863 21.4014 35.7039C21.7755 35.5215 22.1005 35.2523 22.3491 34.9188H22.3922L22.5072 35.8062H23.6572C23.5839 35.2483 23.5503 34.6859 23.5565 34.1232V31.4924ZM27.0035 26.9631V28.7754H28.8348V29.7289H27.0035V33.5402C27.0035 34.6028 27.383 34.9044 27.9896 34.9044C28.2307 34.906 28.4711 34.878 28.7054 34.8211L28.7629 35.7919C28.3978 35.9133 28.0149 35.9726 27.6302 35.9671C26.4975 35.9671 25.7529 35.2548 25.7529 33.7527V29.7318H24.6634V28.7783H25.7529V27.3566L27.0035 26.9631ZM33.9635 28.7754L35.4929 32.9284C35.6625 33.3966 35.8293 33.8963 35.9414 34.3214H35.973C36.1024 33.8963 36.2605 33.4081 36.4359 32.8853L37.8302 28.761H39.1842L37.2638 33.7728C36.3496 36.1796 35.7229 37.4175 34.8518 38.1843C34.4039 38.5814 33.8647 38.8616 33.2822 39L32.9602 37.9258C33.3755 37.8036 33.7584 37.5907 34.0814 37.3026C34.5427 36.9102 34.9101 36.4195 35.1566 35.8666C35.2078 35.778 35.242 35.6805 35.2572 35.5793C35.2468 35.4662 35.2125 35.3566 35.1566 35.2577L32.5692 28.7668L33.9635 28.7754ZM42.8353 35.0394C41.602 35.0394 40.7309 33.8618 40.7309 32.3052C40.7309 30.9553 41.3835 29.5422 42.8813 29.5422C44.3791 29.5422 44.9857 31.0587 44.9857 32.2592C44.9857 33.8791 44.0744 35.0394 42.8497 35.0394H42.8353ZM42.8065 35.9671C44.4797 35.9671 46.2966 34.8182 46.2966 32.2161C46.2966 30.0851 44.9311 28.6174 42.91 28.6174C40.9753 28.6174 39.42 29.9989 39.42 32.3511C39.42 34.5741 40.9034 35.97 42.7922 35.97L42.8065 35.9671ZM53.4234 33.8906C53.4234 34.6143 53.4234 35.2548 53.4809 35.8062H52.3683L52.2964 34.6574H52.2677C52.032 35.063 51.6922 35.3983 51.2833 35.6285C50.8743 35.8588 50.4113 35.9757 49.9419 35.9671C48.838 35.9671 47.5156 35.3381 47.5156 32.8853V28.7754H48.7719V32.6556C48.7719 34.0457 49.2146 34.913 50.3645 34.913C50.7313 34.9054 51.0874 34.7887 51.3874 34.5779C51.6875 34.3672 51.9179 34.0719 52.0492 33.7297C52.1281 33.5215 52.1671 33.3004 52.1642 33.0778V28.7696H53.4234V33.8906ZM55.3984 30.9668C55.3984 30.1454 55.3984 29.4302 55.3409 28.7754H56.4908L56.557 30.1569H56.603C56.7618 29.7103 57.0541 29.3233 57.4402 29.048C57.8263 28.7727 58.2876 28.6224 58.762 28.6174C58.8908 28.6151 59.0193 28.6296 59.1443 28.6605V29.8524C58.9802 29.8332 58.8151 29.8237 58.6499 29.8237C58.1923 29.8235 57.7498 29.9875 57.4032 30.2859C57.0565 30.5843 56.8286 30.9972 56.7611 31.4493C56.728 31.6506 56.7116 31.8542 56.7122 32.0582V35.7919H55.3984V30.9668ZM61.9933 34.577C62.6007 34.8368 63.2506 34.9828 63.9108 35.0078C64.917 35.0078 65.5035 34.5569 65.5035 33.9624C65.5035 33.431 65.1556 33.1323 63.8303 32.6728C62.4274 32.1846 61.8409 31.5556 61.8409 30.7054C61.8409 29.5738 62.6459 28.6174 64.4599 28.6174C65.1253 28.606 65.784 28.7506 66.3832 29.0396L66.0526 29.9012C65.547 29.6685 64.9965 29.5489 64.4398 29.5509C63.5256 29.5509 63.0196 30.042 63.0196 30.5101C63.0196 30.9783 63.264 31.1937 64.6497 31.659C66.1101 32.1587 66.6851 32.8078 66.6851 33.7929C66.6851 35.0423 65.7364 35.9412 63.8763 35.9412C63.1055 35.9533 62.3423 35.7882 61.6455 35.4587L61.9933 34.577ZM68.1742 35.8062V28.7754H69.4219V35.8062H68.1742ZM68.7693 27.4772C68.6079 27.4733 68.4512 27.4219 68.3188 27.3295C68.1863 27.2371 68.0841 27.1078 68.0248 26.9578C67.9654 26.8077 67.9517 26.6435 67.9852 26.4857C68.0187 26.3278 68.0979 26.1833 68.2131 26.0702C68.3283 25.9571 68.4743 25.8804 68.6328 25.8497C68.7914 25.8189 68.9555 25.8355 69.1046 25.8974C69.2538 25.9592 69.3814 26.0636 69.4716 26.1974C69.5618 26.3313 69.6105 26.4887 69.6117 26.65C69.6167 26.7612 69.5983 26.8723 69.5576 26.9759C69.5168 27.0795 69.4547 27.1734 69.3752 27.2514C69.2958 27.3294 69.2008 27.3899 69.0964 27.4288C68.992 27.4677 68.8805 27.4842 68.7693 27.4772ZM76.1836 32.8566C76.1862 33.0421 76.1669 33.2271 76.1261 33.4081C76.0314 33.8366 75.7943 34.2206 75.4535 34.4975C75.1127 34.7743 74.6881 34.9279 74.2488 34.9331C72.8832 34.9331 72.1703 33.7585 72.1703 32.3195C72.1703 30.7801 72.958 29.6169 74.2775 29.6169C74.7066 29.6158 75.1233 29.7605 75.4592 30.0272C75.7951 30.2939 76.0302 30.6667 76.1261 31.0845C76.165 31.2658 76.1843 31.4506 76.1836 31.636V32.8566ZM76.1836 25.8947V29.6801H76.152C75.8472 29.1258 75.1199 28.6174 74.0303 28.6174C72.3284 28.6174 70.868 30.0535 70.868 32.3913C70.868 34.5282 72.1933 35.9671 73.8923 35.9671C74.3797 35.9853 74.8623 35.8656 75.2844 35.6217C75.7066 35.3777 76.0512 35.0196 76.2785 34.5885H76.3072L76.3647 35.8062H77.483C77.4399 35.3266 77.4255 34.6143 77.4255 33.9911V25.8947H76.1836ZM79.7944 31.6073C79.895 30.7227 80.4527 29.5336 81.7579 29.5336C83.181 29.5336 83.5288 30.8117 83.5173 31.6073H79.7944ZM84.7075 32.5321C84.742 32.332 84.7565 32.129 84.7506 31.9261C84.7506 30.6336 84.1555 28.6174 81.8585 28.6174C79.8116 28.6174 78.5467 30.289 78.5467 32.4229C78.5467 34.5569 79.8548 35.9671 81.9965 35.9671C82.8061 35.9914 83.6105 35.8303 84.3482 35.4961L84.1182 34.6143C83.5008 34.8645 82.8378 34.9828 82.1719 34.9619C80.8926 34.9619 79.803 34.2582 79.7743 32.5321H84.7075Z" fill="white"/>
</svg>
