<svg width="160" height="43" viewBox="0 0 160 43" fill="none" xmlns="http://www.w3.org/2000/svg">
<g clip-path="url(#clip0_282_279)">
<path d="M68.423 0.969482C68.423 1.82063 68.423 15.8206 68.423 16.6718C67.5666 16.6718 55.3408 16.6718 54.4844 16.6718C54.4844 15.8206 54.4844 1.82063 54.4844 0.969482C55.3408 0.969482 67.5961 0.969482 68.423 0.969482Z" fill="#FFDF00"/>
<path d="M52.6538 1.35107C52.6538 2.84793 52.6538 15.8207 52.6538 16.6425C51.8269 16.6425 32.2184 16.6425 29.5605 16.6425C31.7754 15.175 51.3545 2.23157 52.6538 1.35107Z" fill="#FFDF00"/>
<path d="M84.222 0.969482C84.222 1.82063 84.222 15.8206 84.222 16.6718C83.3656 16.6718 71.1397 16.6718 70.2834 16.6718C70.2834 15.8206 70.2834 1.82063 70.2834 0.969482C71.1397 0.969482 83.3656 0.969482 84.222 0.969482Z" fill="#DB2F1C"/>
<path d="M99.9922 0.969482C99.9922 1.82063 99.9922 15.8206 99.9922 16.6718C99.1352 16.6718 86.9094 16.6718 86.0532 16.6718C86.0532 15.8206 86.0532 1.82063 86.0532 0.969482C86.9094 0.969482 99.1646 0.969482 99.9922 0.969482Z" fill="#DB2F1C"/>
<path d="M124.887 0.969482C122.672 2.43699 103.152 15.4097 101.853 16.2609C101.853 14.764 101.853 1.79128 101.853 0.969482C102.709 0.969482 122.258 0.969482 124.887 0.969482Z" fill="#DB2F1C"/>
<path d="M155.864 23.3638C155.864 22.3952 156.603 21.6615 157.548 21.6615C158.493 21.6615 159.231 22.3952 159.231 23.3638C159.231 24.3618 158.493 25.0955 157.548 25.0955C156.603 25.0955 155.864 24.3618 155.864 23.3638ZM157.548 25.4477C158.67 25.4477 159.645 24.5671 159.645 23.3932C159.645 22.2192 158.67 21.3386 157.548 21.3386C156.396 21.3386 155.451 22.2192 155.451 23.3932C155.451 24.5671 156.426 25.4477 157.548 25.4477ZM157.104 23.5399H157.518L158.138 24.5671H158.551L157.872 23.5105C158.227 23.4812 158.493 23.2758 158.493 22.8649C158.493 22.3953 158.227 22.1899 157.636 22.1899H156.72V24.5671H157.075V23.5399H157.104ZM157.104 23.2171V22.4833H157.607C157.872 22.4833 158.138 22.5421 158.138 22.8355C158.138 23.1877 157.872 23.2171 157.548 23.2171H157.104Z" fill="#DB2F1C"/>
<path d="M15.2675 41.9424C14.0272 41.9424 12.0191 42.5001 9.39088 42.5001C3.42559 42.5001 0 39.389 0 34.0473C0 28.6175 3.89809 25.0955 10.1882 25.0955C13.0527 25.0955 15.0608 25.7705 16.1534 25.7705C16.4488 25.7705 16.7146 25.6825 17.0689 25.5945L15.5924 29.7328C13.9682 28.6469 12.2849 28.1479 10.3654 28.1479C6.67401 28.1479 4.40012 30.5253 4.40012 33.8418C4.40012 37.5106 6.37869 39.4477 10.0996 39.4477C12.1963 39.4477 14.2339 38.802 16.5078 37.6867V42.1773C16.0353 42.0305 15.6515 41.9424 15.2675 41.9424Z" fill="#DB2F1C"/>
<path d="M25.6328 35.632L28.9993 27.8542L32.6316 35.632H25.6328ZM38.3606 39.1247L32.8384 26.8563C32.6612 26.5041 32.5726 26.2399 32.5726 26.0932C32.5726 25.9464 32.6907 25.7704 32.8088 25.4768H25.8691C26.0167 25.7704 26.0758 25.9464 26.0758 26.0639C26.0758 26.2399 25.9872 26.5041 25.81 26.8563L19.8742 39.1247C19.3132 40.2693 18.7521 41.2672 17.8957 42.1183H24.3334C23.92 41.7661 23.6837 41.2379 23.6837 40.5922C23.6837 40.1813 23.7724 39.7409 23.8905 39.5062L24.2448 38.6843H33.9015L34.374 39.7703C34.4625 39.9758 34.5807 40.3573 34.5807 40.7682C34.5807 41.2672 34.374 41.6488 33.9606 42.1183H40.3097C39.5419 41.2966 38.8922 40.2693 38.3606 39.1247Z" fill="#DB2F1C"/>
<path d="M45.9797 32.9317V28.3238H50.4388C53.0966 28.3238 54.2483 28.8227 54.2483 30.6131C54.2483 32.4035 53.1261 32.9317 50.4388 32.9317H45.9797ZM45.9797 39.1834V35.7787H47.9287C49.612 35.7787 50.9409 36.3951 52.0335 37.7452C53.1852 39.154 53.7167 40.2986 53.7167 41.1204C53.7167 41.4726 53.5396 41.7661 53.2148 42.089H60.3907C58.8256 41.0324 58.0579 39.4182 57.0243 37.8039C56.2564 36.6299 55.5477 35.6907 54.1007 35.045C57.0537 34.4874 58.6485 32.7264 58.6485 30.3783C58.6485 28.1771 57.4082 26.4748 55.4591 25.8584C54.2188 25.4768 52.506 25.4768 50.3503 25.4768H40.4869C41.4614 25.9171 41.9044 26.827 41.9044 28.3238V39.1834C41.9044 40.7095 41.5205 41.6488 40.4869 42.089H47.4267C46.4226 41.6781 45.9797 40.7389 45.9797 39.1834Z" fill="#DB2F1C"/>
<path d="M78.1098 41.3552C76.8399 41.3552 74.4479 42.4999 70.727 42.4999C64.3483 42.4999 60.8932 39.3301 60.8932 33.959C60.8932 28.6466 64.7026 25.0659 71.731 25.0659C74.2116 25.0659 76.0131 25.5062 77.1057 25.5062C77.4305 25.5062 77.9916 25.4475 78.7594 25.3301L77.5781 29.5859C75.6587 28.4999 73.6505 27.9422 71.6129 27.9422C67.5377 27.9422 65.2343 30.1435 65.2343 34.0765C65.2343 37.7158 67.1242 39.5942 70.727 39.5942C73.8573 39.5942 75.511 38.5083 75.511 36.5419V35.0449H71.7015C70.8747 35.0449 70.2545 35.1917 69.5458 35.72L70.1364 33.5775C70.4612 32.4035 70.7861 32.198 72.174 32.198H79.9998C79.5272 32.6677 79.5272 33.1079 79.5272 33.7536V41.5607C78.8184 41.4433 78.346 41.3552 78.1098 41.3552Z" fill="#DB2F1C"/>
<path d="M81.4464 25.4768H88.4454C87.4707 25.8877 86.9691 26.8856 86.9691 28.3238V39.242H91.7233C94.381 39.242 96.4774 38.7138 98.2789 37.2462C97.3639 39.6236 96.6841 40.9444 96.6841 41.3552C96.6841 41.5901 96.832 41.7955 97.0093 42.089H81.4759C82.4504 41.6488 82.8934 40.7095 82.8934 39.242V28.3238C82.8638 26.827 82.4209 25.9171 81.4464 25.4768Z" fill="#DB2F1C"/>
<path d="M105.987 35.632L109.353 27.8542L112.985 35.632H105.987ZM118.685 39.1247L113.192 26.8563C113.014 26.5041 112.926 26.2399 112.926 26.0932C112.926 25.9464 113.044 25.7704 113.162 25.4768H106.223C106.371 25.7704 106.429 25.9464 106.429 26.0639C106.429 26.2399 106.34 26.5041 106.163 26.8563L100.227 39.1247C99.667 40.2693 99.1057 41.2672 98.2495 42.1183H104.687C104.273 41.7661 104.037 41.2379 104.037 40.5922C104.037 40.1813 104.125 39.7409 104.244 39.5062L104.598 38.6843H114.255L114.728 39.7703C114.816 39.9758 114.934 40.3573 114.934 40.7682C114.934 41.2672 114.728 41.6488 114.314 42.1183H120.663C119.866 41.2966 119.246 40.2693 118.685 39.1247Z" fill="#DB2F1C"/>
<path d="M128.874 39.4477C131.678 39.4477 133.096 38.7139 133.096 37.2758C133.096 35.5148 131.118 35.3974 127.81 34.9571C123.705 34.3995 121.667 32.932 121.667 30.3198C121.667 27.3261 124.473 25.0955 129.257 25.0955C132.329 25.0955 134.602 25.6238 135.901 25.6238C136.138 25.6238 136.344 25.5944 136.611 25.4771L135.576 29.7035C133.953 28.6762 131.767 28.0892 129.139 28.0892C127.101 28.0892 126.008 28.6762 126.008 29.7622C126.008 31.3764 127.958 31.2297 131.501 31.846C135.488 32.5798 137.496 33.9299 137.496 36.8062C137.496 40.3869 134.484 42.4708 128.932 42.4708C126.392 42.4708 124.532 42.0892 123.469 42.0892C123.174 42.0892 122.908 42.1479 122.613 42.2653L121.579 37.5693C124.089 38.8313 126.481 39.4477 128.874 39.4477Z" fill="#DB2F1C"/>
<path d="M146.06 39.4477C148.866 39.4477 150.283 38.7139 150.283 37.2758C150.283 35.5148 148.304 35.3974 144.997 34.9571C140.893 34.3995 138.855 32.932 138.855 30.3198C138.855 27.3261 141.66 25.0955 146.444 25.0955C149.515 25.0955 151.789 25.6238 153.089 25.6238C153.325 25.6238 153.532 25.5944 153.797 25.4771L152.764 29.7035C151.139 28.6762 148.954 28.0892 146.326 28.0892C144.259 28.0892 143.196 28.6762 143.196 29.7622C143.196 31.3764 145.145 31.2297 148.688 31.846C152.675 32.5798 154.684 33.9299 154.684 36.8062C154.684 40.3869 151.671 42.4708 146.119 42.4708C143.58 42.4708 141.719 42.0892 140.656 42.0892C140.361 42.0892 140.095 42.1479 139.799 42.2653L138.766 37.5693C141.277 38.8313 143.668 39.4477 146.06 39.4477Z" fill="#DB2F1C"/>
</g>
<defs>
<clipPath id="clip0_282_279">
<rect width="160" height="42" fill="white" transform="translate(0 0.5)"/>
</clipPath>
</defs>
</svg>
