<?xml version="1.0" encoding="utf-8"?>
<!-- Generator: Adobe Illustrator 26.0.3, SVG Export Plug-In . SVG Version: 6.00 Build 0)  -->
<svg version="1.1" id="Layer_1" xmlns="http://www.w3.org/2000/svg" xmlns:xlink="http://www.w3.org/1999/xlink" x="0px" y="0px"
	 viewBox="0 0 540 143" style="enable-background:new 0 0 540 143;" xml:space="preserve">
<style type="text/css">
	.st0{fill:#FFFF00;}
	.st1{fill:#F30000;}
</style>
<g>
	<rect x="182.71" width="50.22" height="56.56"/>
	<polygon points="179.6,0 94.73,56.56 179.6,56.56 	"/>
	<rect x="236.14" width="50.22" height="56.56"/>
	<rect x="289.57" width="50.22" height="56.56"/>
	<polygon points="342.91,0 342.91,56.56 427.6,0 	"/>
	<rect x="184.27" y="1.56" class="st0" width="47.11" height="53.44"/>
	<g>
		<path class="st0" d="M178.04,2.94V55H99.93C107.46,49.98,173.62,5.89,178.04,2.94"/>
		<rect x="237.7" y="1.56" class="st1" width="47.11" height="53.44"/>
		<rect x="291.13" y="1.56" class="st1" width="47.11" height="53.44"/>
		<path class="st1" d="M422.41,1.56c-7.53,5.02-73.52,49.11-77.93,52.06V1.56H422.41z"/>
		<path class="st1" d="M527.18,77.87c0-3.29,2.51-5.8,5.72-5.8c3.2,0,5.72,2.51,5.72,5.8c0,3.38-2.51,5.89-5.72,5.89
			S527.18,81.24,527.18,77.87 M532.9,84.88c3.81,0,7.1-2.94,7.1-7.02s-3.29-7.02-7.1-7.02c-3.9,0-7.1,2.94-7.1,7.02
			C525.8,81.94,529,84.88,532.9,84.88 M531.43,78.39h1.39l2.16,3.55h1.39l-2.34-3.55c1.21-0.17,2.08-0.78,2.08-2.25
			c0-1.56-0.95-2.34-2.86-2.34h-3.12v8.14h1.21v-3.55H531.43z M531.43,77.35v-2.51h1.65c0.87,0,1.73,0.17,1.73,1.21
			c0,1.21-0.95,1.3-1.99,1.3H531.43z"/>
		<path class="st1" d="M51.61,141.09c-4.16,0-11,1.91-19.83,1.91C11.6,143,0,132.43,0,114.16c0-18.45,13.25-30.4,34.38-30.4
			c9.7,0,16.45,2.25,20.18,2.25c0.95,0,1.91-0.26,3.12-0.61l-5.02,14.12c-5.54-3.72-11.26-5.46-17.67-5.46
			c-12.47,0-20.18,8.06-20.18,19.4c0,12.47,6.67,19.14,19.31,19.14c7.1,0,13.94-2.17,21.65-5.98v15.33
			C54.21,141.35,52.82,141.09,51.61,141.09"/>
		<path class="st1" d="M86.68,119.7l11.43-26.42l12.3,26.42H86.68z M129.72,131.48l-18.7-41.75c-0.61-1.21-0.87-2.08-0.87-2.6
			c0-0.52,0.35-1.13,0.78-2.08H87.46c0.52,1.04,0.69,1.65,0.69,1.99c0,0.61-0.26,1.56-0.87,2.69L67.2,131.48
			c-1.91,3.9-3.81,7.36-6.67,10.13h21.82c-1.39-1.21-2.16-2.94-2.16-5.2c0-1.47,0.26-2.86,0.69-3.72l1.21-2.77h32.65l1.65,3.72
			c0.26,0.69,0.69,1.99,0.69,3.46c0,1.73-0.69,3.03-2.08,4.59h21.48C133.7,138.84,131.45,135.46,129.72,131.48"/>
		<path class="st1" d="M155.44,110.43V94.76h15.15c9.01,0,12.82,1.73,12.82,7.8c0,6.06-3.81,7.88-12.82,7.88H155.44z M155.44,131.74
			v-11.61h6.58c5.72,0,10.13,2.08,13.86,6.67c3.9,4.76,5.72,8.66,5.72,11.52c0,1.21-0.61,2.17-1.73,3.29h24.25
			c-5.37-3.64-7.88-9.09-11.43-14.55c-2.6-3.98-5.02-7.28-9.87-9.44c9.96-1.91,15.41-7.88,15.41-15.85
			c0-7.54-4.16-13.34-10.74-15.42c-4.16-1.3-9.96-1.3-17.32-1.3h-33.34c3.29,1.56,4.76,4.59,4.76,9.7v36.98c0,5.2-1.3,8.4-4.76,9.87
			h23.47C156.99,140.23,155.44,136.94,155.44,131.74"/>
		<path class="st1" d="M264.11,139.1c-4.24,0-12.38,3.9-25.03,3.9c-21.56,0-33.25-10.74-33.25-29.1c0-18.1,12.82-30.23,36.63-30.23
			c8.4,0,14.46,1.56,18.18,1.56c1.13,0,3.03-0.17,5.63-0.61l-3.98,14.46c-6.49-3.72-13.34-5.63-20.18-5.63
			c-13.77,0-21.56,7.54-21.56,20.96c0,12.39,6.41,18.8,18.53,18.8c10.56,0,16.19-3.72,16.19-10.39v-5.11h-12.9
			c-2.77,0-4.85,0.43-7.36,2.25l1.99-7.36c1.13-3.98,2.16-4.68,6.93-4.68h26.41c-1.65,1.65-1.65,3.12-1.65,5.37v26.5
			C266.54,139.36,264.98,139.1,264.11,139.1"/>
		<path class="st1" d="M275.46,85.06h23.64c-3.29,1.47-5.02,4.76-5.02,9.7v37.16h16.11c9.01,0,16.11-1.82,22.17-6.76
			c-3.12,8.06-5.46,12.56-5.46,13.94c0,0.78,0.52,1.56,1.13,2.43h-52.56c3.29-1.56,4.76-4.68,4.76-9.7V94.67
			C280.22,89.65,278.75,86.53,275.46,85.06"/>
		<path class="st1" d="M358.5,119.7l11.43-26.42l12.3,26.42H358.5z M401.45,131.48l-18.62-41.75c-0.61-1.21-0.87-2.08-0.87-2.6
			c0-0.52,0.35-1.13,0.78-2.08h-23.47c0.52,1.04,0.69,1.65,0.69,1.99c0,0.61-0.26,1.56-0.87,2.69l-20.18,41.75
			c-1.91,3.9-3.81,7.36-6.67,10.13h21.82c-1.39-1.21-2.16-2.94-2.16-5.2c0-1.47,0.26-2.86,0.69-3.72l1.21-2.77h32.56l1.65,3.72
			c0.26,0.69,0.69,1.99,0.69,3.46c0,1.73-0.69,3.03-2.08,4.59h21.48C405.43,138.84,403.27,135.46,401.45,131.48"/>
		<path class="st1" d="M435.91,132.61c9.53,0,14.29-2.51,14.29-7.45c0-5.98-6.67-6.41-17.84-7.88c-13.86-1.91-20.7-6.93-20.7-15.76
			c0-10.13,9.53-17.76,25.63-17.76c10.39,0,18.1,1.82,22.43,1.82c0.78,0,1.56-0.09,2.34-0.52l-3.55,14.38
			c-5.54-3.55-12.9-5.54-21.82-5.54c-6.93,0-10.56,1.99-10.56,5.72c0,5.54,6.58,4.94,18.53,7.1c13.51,2.51,20.26,7.1,20.26,16.98
			c0,12.21-10.13,19.31-29.01,19.31c-8.57,0-14.89-1.3-18.44-1.3c-0.95,0-1.91,0.17-2.86,0.61l-3.55-15.94
			C419.72,130.53,427.77,132.61,435.91,132.61"/>
		<path class="st1" d="M493.93,132.61c9.53,0,14.29-2.51,14.29-7.45c0-5.98-6.67-6.41-17.84-7.88c-13.86-1.91-20.7-6.93-20.7-15.76
			c0-10.13,9.53-17.76,25.63-17.76c10.39,0,18.1,1.82,22.43,1.82c0.78,0,1.56-0.09,2.34-0.52l-3.55,14.38
			c-5.54-3.55-12.9-5.54-21.82-5.54c-6.93,0-10.56,1.99-10.56,5.72c0,5.54,6.58,4.94,18.53,7.1c13.51,2.51,20.26,7.1,20.26,16.98
			c0,12.21-10.13,19.31-29.01,19.31c-8.57,0-14.89-1.3-18.44-1.3c-0.95,0-1.91,0.17-2.86,0.61l-3.55-15.94
			C477.83,130.53,485.88,132.61,493.93,132.61"/>
	</g>
</g>
</svg>
