<svg width="136" height="36" viewBox="0 0 136 36" fill="none" xmlns="http://www.w3.org/2000/svg">
<g id="logo">
<path id="Vector" d="M58.6817 14.2467H46.0261V0H58.6817V14.2467Z" fill="#201D1E"/>
<path id="Vector_2" d="M45.2354 14.2468H23.8696L45.2354 8.39233e-05V14.2468Z" fill="#201D1E"/>
<path id="Vector_3" d="M72.1347 14.2467H59.4767V0H72.1347V14.2467Z" fill="#201D1E"/>
<path id="Vector_4" d="M85.5812 14.2467H72.9232V0H85.5812V14.2467Z" fill="#201D1E"/>
<path id="Vector_5" d="M86.3729 14.2468V8.39233e-05H107.695L86.3729 14.2468Z" fill="#201D1E"/>
<path id="Vector_6" d="M58.2883 13.8475H46.4212V0.394318H58.2883V13.8475Z" fill="#FBDB2B"/>
<path id="Vector_7" d="M44.8373 0.74144V13.8477H25.1683C27.0757 12.5774 43.7387 1.47292 44.8373 0.74144Z" fill="#FBDB2B"/>
<path id="Vector_8" d="M71.7373 13.8475H59.8676V0.394318H71.7373V13.8475Z" fill="#E1402A"/>
<path id="Vector_9" d="M85.1903 13.8475H73.3215V0.394318H85.1903V13.8475Z" fill="#E1402A"/>
<path id="Vector_10" d="M106.39 0.39505C104.496 1.66126 87.8624 12.7714 86.7663 13.4988V0.39505H106.39Z" fill="#E1402A"/>
<path id="Vector_11" d="M133.84 19.4828V18.8484H134.26C134.471 18.8484 134.709 18.899 134.709 19.1513C134.709 19.4656 134.471 19.4828 134.209 19.4828H133.84ZM133.84 19.7448H134.197L134.732 20.6273H135.081L134.496 19.7334C134.795 19.7007 135.026 19.535 135.026 19.1733C135.026 18.7635 134.792 18.5896 134.303 18.5896H133.53V20.6273H133.84V19.7448ZM134.215 21.3833C135.174 21.3833 136 20.6273 136 19.6085C136 18.5896 135.174 17.8353 134.215 17.8353C133.235 17.8353 132.412 18.5896 132.412 19.6085C132.412 20.6273 133.235 21.3833 134.215 21.3833ZM132.775 19.6085C132.775 18.7635 133.407 18.1398 134.215 18.1398C135.009 18.1398 135.649 18.7635 135.649 19.6085C135.649 20.46 135.009 21.0812 134.215 21.0812C133.407 21.0812 132.775 20.46 132.775 19.6085Z" fill="#E1402A"/>
<path id="Vector_12" d="M13.0049 35.5278C11.9529 35.5278 10.2275 35.9997 7.99606 35.9997C2.9219 35.9997 0 33.3399 0 28.7461C0 24.096 3.32918 21.0688 8.67267 21.0688C11.1212 21.0688 12.8156 21.6525 13.7468 21.6525C13.9868 21.6525 14.2316 21.5815 14.5369 21.5105L13.2726 25.0495C11.8794 24.1156 10.443 23.6886 8.81305 23.6886C5.67649 23.6886 3.73808 25.7271 3.73808 28.5722C3.73808 31.7104 5.41369 33.3881 8.59432 33.3881C10.3932 33.3881 12.1235 32.8386 14.0586 31.8786V35.7344C13.6522 35.5931 13.3216 35.5278 13.0049 35.5278Z" fill="#E1402A"/>
<path id="Vector_13" d="M32.6664 33.1002L27.9767 22.5844C27.8289 22.2717 27.7563 22.0537 27.7563 21.937C27.7563 21.8219 27.851 21.6529 27.9522 21.4088H22.0357C22.1557 21.6733 22.2022 21.8219 22.2022 21.9141C22.2022 22.0537 22.1296 22.2954 21.9884 22.5844L16.9346 33.1002C16.4564 34.0815 15.9781 34.9452 15.2607 35.6604H20.7413C20.3863 35.3542 20.1887 34.9199 20.1887 34.3476C20.1887 33.9909 20.2606 33.6309 20.3577 33.4112L20.6695 32.7173H28.8826L29.2891 33.6513C29.3609 33.8211 29.4621 34.1476 29.4621 34.5101C29.4621 34.9452 29.2891 35.284 28.9316 35.6604H34.3477C33.676 34.9705 33.121 34.1125 32.6664 33.1002ZM21.8399 30.1326L24.7144 23.4669L27.8085 30.1326H21.8399Z" fill="#E1402A"/>
<path id="Vector_14" d="M39.156 33.1747V30.2496H40.8128C42.246 30.2496 43.3764 30.7803 44.3077 31.924C45.2912 33.1241 45.745 34.1128 45.745 34.8246C45.745 35.1381 45.6029 35.3765 45.314 35.6598H51.4214C50.0772 34.7561 49.4316 33.3617 48.5469 31.9983C47.8972 30.9958 47.2802 30.1811 46.0551 29.6267C48.5722 29.15 49.9376 27.6405 49.9376 25.6273C49.9376 23.7357 48.884 22.2719 47.2328 21.7454C46.1718 21.409 44.7133 21.409 42.8728 21.409H34.4638C35.3028 21.7919 35.6619 22.5593 35.6619 23.8573V33.1747C35.6619 34.4858 35.3257 35.2843 34.4638 35.6598H40.3835C39.5379 35.3063 39.156 34.4858 39.156 33.1747ZM39.156 27.8046V23.8573H42.9675C45.2397 23.8573 46.1963 24.2827 46.1963 25.8191C46.1963 27.3523 45.2397 27.8046 42.9675 27.8046H39.156Z" fill="#E1402A"/>
<path id="Vector_15" d="M66.5333 35.0203C65.4568 35.0203 63.4188 36 60.2317 36C54.7992 36 51.8499 33.2969 51.8499 28.6713C51.8499 24.1151 55.0889 21.0545 61.0748 21.0545C63.1756 21.0545 64.7108 21.4382 65.6478 21.4382C65.9334 21.4382 66.4117 21.3875 67.059 21.2912L66.0551 24.9347C64.4252 23.9992 62.7047 23.5191 60.9719 23.5191C57.5056 23.5191 55.5403 25.4148 55.5403 28.7889C55.5403 31.9042 57.1449 33.5321 60.2096 33.5321C62.8638 33.5321 64.2815 32.5998 64.2815 30.9213V29.6273H61.025C60.3337 29.6273 59.7983 29.7449 59.1763 30.2053L59.6816 28.357C59.9713 27.352 60.2317 27.1806 61.4298 27.1806H68.0881C67.6792 27.5904 67.6792 27.9749 67.6792 28.5236V35.2073C67.1267 35.0865 66.7488 35.0203 66.5333 35.0203Z" fill="#E1402A"/>
<path id="Vector_16" d="M69.3802 21.4089H75.3464C74.5082 21.7747 74.0723 22.6082 74.0723 23.8573V33.2261H78.1189C80.3977 33.2261 82.1704 32.7673 83.7008 31.5174C82.9148 33.5575 82.3394 34.6842 82.3394 35.0401C82.3394 35.2311 82.4561 35.4238 82.6267 35.6606H69.3802C70.2159 35.2842 70.5783 34.4858 70.5783 33.2261V23.8573C70.5783 22.5592 70.2159 21.7918 69.3802 21.4089Z" fill="#E1402A"/>
<path id="Vector_17" d="M101.109 33.1002L96.4167 22.5844C96.2682 22.2717 96.2005 22.0537 96.2005 21.937C96.2005 21.8219 96.2935 21.6529 96.3963 21.4088H90.4734C90.595 21.6733 90.6488 21.8219 90.6488 21.9141C90.6488 22.0537 90.5746 22.2954 90.4285 22.5844L85.3772 33.1002C84.8932 34.0815 84.4198 34.9452 83.7007 35.6604H89.1854C88.8288 35.3542 88.6329 34.9199 88.6329 34.3476C88.6329 33.9909 88.7023 33.6309 88.7986 33.4112L89.1112 32.7173H97.3276L97.7357 33.6513C97.8051 33.8211 97.8973 34.1476 97.8973 34.5101C97.8973 34.9452 97.7357 35.284 97.3717 35.6604H102.785C102.115 34.9705 101.565 34.1125 101.109 33.1002ZM90.284 30.1326L93.161 23.4669L96.2462 30.1326H90.284Z" fill="#E1402A"/>
<path id="Vector_18" d="M109.78 33.388C112.173 33.388 113.369 32.7667 113.369 31.5176C113.369 30.0139 111.695 29.9126 108.863 29.5338C105.369 29.0522 103.65 27.7859 103.65 25.5572C103.65 22.9921 106.044 21.0687 110.113 21.0687C112.726 21.0687 114.666 21.5292 115.768 21.5292C115.96 21.5292 116.15 21.5104 116.364 21.4092L115.481 25.0274C114.093 24.1424 112.223 23.6371 109.996 23.6371C108.243 23.6371 107.337 24.1424 107.337 25.0756C107.337 26.4667 108.989 26.3181 112.009 26.8716C115.412 27.4888 117.11 28.6717 117.11 31.1405C117.11 34.2035 114.544 35.9996 109.803 35.9996C107.646 35.9996 106.044 35.66 105.16 35.66C104.917 35.66 104.679 35.713 104.439 35.8118L103.549 31.783C105.708 32.8614 107.742 33.388 109.78 33.388Z" fill="#E1402A"/>
<path id="Vector_19" d="M124.412 33.388C126.809 33.388 128.004 32.7667 128.004 31.5176C128.004 30.0139 126.33 29.9126 123.499 29.5338C120.003 29.0522 118.284 27.7859 118.284 25.5572C118.284 22.9921 120.678 21.0687 124.744 21.0687C127.362 21.0687 129.299 21.5292 130.4 21.5292C130.593 21.5292 130.782 21.5104 131.002 21.4092L130.112 25.0274C128.723 24.1424 126.854 23.6371 124.625 23.6371C122.876 23.6371 121.971 24.1424 121.971 25.0756C121.971 26.4667 123.622 26.3181 126.639 26.8716C130.042 27.4888 131.741 28.6717 131.741 31.1405C131.741 34.2035 129.182 35.9996 124.434 35.9996C122.28 35.9996 120.678 35.66 119.789 35.66C119.55 35.66 119.312 35.713 119.072 35.8118L118.185 31.783C120.341 32.8614 122.38 33.388 124.412 33.388Z" fill="#E1402A"/>
</g>
</svg>
