<?xml version="1.0" encoding="utf-8"?>
<!-- Generator: Adobe Illustrator 26.2.1, SVG Export Plug-In . SVG Version: 6.00 Build 0)  -->
<svg version="1.1" id="Layer_1" xmlns="http://www.w3.org/2000/svg" xmlns:xlink="http://www.w3.org/1999/xlink" x="0px" y="0px"
	 viewBox="0 0 190 50" style="enable-background:new 0 0 190 50;" xml:space="preserve">
<style type="text/css">
	.st0{fill:#FFDF1C;}
	.st1{fill:#ED1C2E;}
</style>
<rect x="64.5" y="0.1" width="17.5" height="19.7"/>
<polygon points="63.4,19.9 33.8,19.9 63.4,0.1 "/>
<rect x="83.2" y="0.1" width="17.5" height="19.7"/>
<rect x="101.8" y="0.1" width="17.5" height="19.7"/>
<polygon points="120.5,19.9 120.5,0.1 150,0.1 "/>
<rect x="65.1" y="0.7" class="st0" width="16.4" height="18.6"/>
<path class="st0" d="M62.9,1.1v18.2H35.6C38.3,17.6,61.4,2.2,62.9,1.1"/>
<rect x="83.7" y="0.7" class="st1" width="16.4" height="18.6"/>
<rect x="102.4" y="0.7" class="st1" width="16.4" height="18.6"/>
<path class="st1" d="M148.2,0.7c-2.6,1.8-25.7,17.1-27.2,18.2V0.7H148.2z"/>
<path class="st1" d="M186.3,27.1v-0.9h0.6c0.3,0,0.6,0.1,0.6,0.4c0,0.4-0.3,0.5-0.7,0.5H186.3z M186.3,27.5h0.5l0.7,1.2h0.5
	l-0.8-1.2c0.4-0.1,0.7-0.3,0.7-0.8c0-0.6-0.3-0.8-1-0.8h-1.1v2.8h0.4V27.5z M186.8,29.7c1.3,0,2.5-1,2.5-2.5c0-1.4-1.1-2.4-2.5-2.4
	c-1.3,0-2.5,1-2.5,2.4C184.3,28.7,185.4,29.7,186.8,29.7 M184.8,27.3c0-1.2,0.9-2,2-2c1.1,0,2,0.9,2,2c0,1.2-0.9,2-2,2
	C185.7,29.3,184.8,28.5,184.8,27.3"/>
<path class="st1" d="M18.8,49.3c-1.5,0-3.9,0.7-6.9,0.7c-7,0-11.1-3.7-11.1-10.1c0-6.4,4.6-10.6,12-10.6c3.4,0,5.7,0.8,7,0.8
	c0.3,0,0.7-0.1,1.1-0.2l-1.8,4.9c-1.9-1.3-3.9-1.9-6.2-1.9c-4.3,0-7,2.8-7,6.8c0,4.3,2.3,6.7,6.7,6.7c2.5,0,4.9-0.8,7.6-2.1v5.3
	C19.7,49.4,19.2,49.3,18.8,49.3"/>
<path class="st1" d="M46,46l-6.5-14.6c-0.2-0.4-0.3-0.7-0.3-0.9c0-0.2,0.1-0.4,0.3-0.7h-8.2c0.2,0.4,0.2,0.6,0.2,0.7
	c0,0.2-0.1,0.5-0.3,0.9l-7,14.6c-0.7,1.4-1.3,2.6-2.3,3.6h7.6c-0.5-0.4-0.8-1-0.8-1.8c0-0.5,0.1-1,0.2-1.3l0.4-1h11.4l0.6,1.3
	c0.1,0.2,0.2,0.7,0.2,1.2c0,0.6-0.2,1.1-0.7,1.6h7.5C47.4,48.6,46.7,47.4,46,46 M31,41.9l4-9.2l4.3,9.2H31z"/>
<path class="st1" d="M55,46.1v-4h2.3c2,0,3.6,0.7,4.8,2.3c1.4,1.7,2,3,2,4c0,0.4-0.2,0.8-0.6,1.2H72c-1.9-1.3-2.8-3.2-4-5.1
	c-0.9-1.4-1.8-2.5-3.5-3.3c3.5-0.7,5.4-2.8,5.4-5.5c0-2.6-1.5-4.6-3.8-5.4c-1.5-0.5-3.5-0.5-6-0.5H48.5c1.2,0.5,1.7,1.6,1.7,3.4
	v12.9c0,1.8-0.5,2.9-1.7,3.5h8.2C55.6,49,55,47.9,55,46.1 M55,38.6v-5.5h5.3c3.2,0,4.5,0.6,4.5,2.7c0,2.1-1.3,2.8-4.5,2.8H55z"/>
<path class="st1" d="M93,48.6c-1.5,0-4.3,1.4-8.7,1.4c-7.5,0-11.6-3.8-11.6-10.2c0-6.3,4.5-10.6,12.8-10.6c2.9,0,5,0.5,6.3,0.5
	c0.4,0,1.1-0.1,2-0.2l-1.4,5c-2.3-1.3-4.6-2-7-2c-4.8,0-7.5,2.6-7.5,7.3c0,4.3,2.2,6.6,6.5,6.6c3.7,0,5.6-1.3,5.6-3.6v-1.8h-4.5
	c-1,0-1.7,0.2-2.6,0.8l0.7-2.6c0.4-1.4,0.8-1.6,2.4-1.6h9.2c-0.6,0.6-0.6,1.1-0.6,1.9v9.3C93.8,48.7,93.3,48.6,93,48.6"/>
<path class="st1" d="M96.9,29.8h8.3c-1.2,0.5-1.8,1.7-1.8,3.4v13h5.6c3.2,0,5.6-0.6,7.7-2.4c-1.1,2.8-1.9,4.4-1.9,4.9
	c0,0.3,0.2,0.5,0.4,0.9H96.9c1.2-0.5,1.7-1.6,1.7-3.4v-13C98.6,31.4,98.1,30.3,96.9,29.8"/>
<path class="st1" d="M140.9,46l-6.5-14.6c-0.2-0.4-0.3-0.7-0.3-0.9c0-0.2,0.1-0.4,0.3-0.7h-8.2c0.2,0.4,0.2,0.6,0.2,0.7
	c0,0.2-0.1,0.5-0.3,0.9l-7,14.6c-0.7,1.4-1.3,2.6-2.3,3.6h7.6c-0.5-0.4-0.8-1-0.8-1.8c0-0.5,0.1-1,0.2-1.3l0.4-1h11.4l0.6,1.3
	c0.1,0.2,0.2,0.7,0.2,1.2c0,0.6-0.2,1.1-0.7,1.6h7.5C142.3,48.6,141.5,47.4,140.9,46 M125.9,41.9l4-9.2l4.3,9.2H125.9z"/>
<path class="st1" d="M152.9,46.4c3.3,0,5-0.9,5-2.6c0-2.1-2.3-2.2-6.2-2.8c-4.8-0.7-7.2-2.4-7.2-5.5c0-3.6,3.3-6.2,9-6.2
	c3.6,0,6.3,0.6,7.8,0.6c0.3,0,0.5,0,0.8-0.2l-1.2,5c-1.9-1.2-4.5-1.9-7.6-1.9c-2.4,0-3.7,0.7-3.7,2c0,1.9,2.3,1.7,6.5,2.5
	c4.7,0.9,7.1,2.5,7.1,5.9c0,4.2-3.6,6.7-10.1,6.7c-3,0-5.2-0.5-6.4-0.5c-0.3,0-0.7,0.1-1,0.2l-1.2-5.6
	C147.3,45.7,150.1,46.4,152.9,46.4"/>
<path class="st1" d="M173.2,46.4c3.3,0,5-0.9,5-2.6c0-2.1-2.3-2.2-6.2-2.8c-4.8-0.7-7.2-2.4-7.2-5.5c0-3.6,3.3-6.2,9-6.2
	c3.6,0,6.3,0.6,7.8,0.6c0.3,0,0.5,0,0.8-0.2l-1.2,5c-1.9-1.2-4.5-1.9-7.6-1.9c-2.4,0-3.7,0.7-3.7,2c0,1.9,2.3,1.7,6.5,2.5
	c4.7,0.9,7.1,2.5,7.1,5.9c0,4.2-3.6,6.7-10.1,6.7c-3,0-5.2-0.5-6.4-0.5c-0.3,0-0.7,0.1-1,0.2l-1.2-5.6
	C167.5,45.7,170.4,46.4,173.2,46.4"/>
</svg>
