<?xml version="1.0" encoding="utf-8"?>
<!-- Generator: Adobe Illustrator 27.4.1, SVG Export Plug-In . SVG Version: 6.00 Build 0)  -->
<svg version="1.1"
	 id="svg2" xmlns:sodipodi="http://sodipodi.sourceforge.net/DTD/sodipodi-0.dtd" xmlns:inkscape="http://www.inkscape.org/namespaces/inkscape" xmlns:svg="http://www.w3.org/2000/svg" sodipodi:docname="a004fc80d104c541d299f68a969a4872.ai"
	 xmlns="http://www.w3.org/2000/svg" xmlns:xlink="http://www.w3.org/1999/xlink" x="0px" y="0px" viewBox="0 0 2654.7 823.5"
	 style="enable-background:new 0 0 2654.7 823.5;" xml:space="preserve">
<style type="text/css">
	.st0{display:none;}
	.st1{display:inline;fill-rule:evenodd;clip-rule:evenodd;fill:#DA1A32;}
	.st2{fill-rule:evenodd;clip-rule:evenodd;fill:#D81F33;}
	.st3{fill-rule:evenodd;clip-rule:evenodd;fill:#FFCE34;}
	.st4{fill:#221F1F;}
	.st5{fill:#FFFFFF;}
</style>
<sodipodi:namedview  bordercolor="#666666" borderopacity="1.0" id="namedview4" inkscape:pagecheckerboard="0" inkscape:pageopacity="0.0" inkscape:pageshadow="2" pagecolor="#ffffff">
	</sodipodi:namedview>
<g id="g8" transform="matrix(1.3333333,0,0,-1.3333333,0,823.49331)" inkscape:groupmode="layer" inkscape:label="a004fc80d104c541d299f68a969a4872">
	<g id="g10">
		<g>
			<g id="g12">
				<g id="g18" transform="translate(1022.5885,790.517)" class="st0">
					<path id="path20" class="st1" d="M0,0l134.5,46.1c4,1.4,6.7,5,6.7,9.2l0.2,15.8c0-3.3-1.9-6.6-5.7-7.9L-15.7,11.4L-13-148
						c0.1-8.2-10.3-11.8-15.3-5.2l-96.4,127.4l-151.5-52c-1.6-0.6-3.2-0.6-4.6-0.3l-1.1,0.3l19.5-7.2c4.4-1.6,9.1-1.7,13.5-0.2
						l124.3,42.6L-31.9-165c11.3-15.1,34.8-7,34.5,11.9L0,0z"/>
				</g>
				<g id="g22" transform="translate(384.4814,228.2077)">
					<path id="path24" class="st2" d="M0,0l177.5,60.8c5.2,1.8,8.8,6.7,8.9,12.2l0.3,20.9c-0.1-4.3-2.6-8.7-7.5-10.4L-20.8,15.1
						l3.6-210.5c0.2-10.8-13.6-15.5-20.2-6.9L-164.5-34.2l-199.9-68.6c-2.1-0.7-4.2-0.8-6.1-0.4l-1.4,0.4l25.7-9.5
						c5.7-2.2,12.1-2.2,17.9-0.3l164.1,56.2L-42-217.8c14.9-20,45.9-9.2,45.5,15.7L0,0z"/>
				</g>
				<g id="g26" transform="translate(357.3425,606.2454)">
					<path id="path28" class="st2" d="M0,0l3.5-210.6l19.4-6.3L20.4-68.6c-0.2,12.9-2.8,25.7-7.7,37.5L-0.6,3.6C-0.2,2.5,0,1.3,0,0"
						/>
				</g>
				<g id="g30" transform="translate(1.649,484.8384)">
					<path id="path32" class="st2" d="M0,0c-0.7,1-1.3,2-1.6,3l8.9-25.2c3.4-10.6,8.7-20.6,15.4-29.4l97.5-128.3l8,11.4L0,0z"/>
				</g>
				<g id="g34" transform="translate(563.2027,333.3476)">
					<path id="path36" class="st3" d="M0,0l-201.7,62l-3.7,211.3c-0.2,10.9-14.1,15.1-20.4,6.2l-121-173.1
						c-26,8.1-143.6,44-201.9,61.7c-10.4,3.2-18.7-9-12.2-17.5l127-168.8l-121-173.3c-6.2-8.9,2.6-20.6,12.8-17l199.5,68.9
						l105.4-140.3l21.5-28.7c6.5-8.7,20.3-3.9,20.1,6.9l-3.6,211.5L0.4-21.3C10.6-17.8,10.4-3.2,0,0"/>
				</g>
				<g id="g38" transform="translate(357.3425,606.2454)">
					<path id="path40" class="st2" d="M0,0l3.5-210.6l19.4-6.3L20.4-68.6c-0.2,12.9-2.8,25.7-7.7,37.5L-0.6,3.6
						C-0.4,3-0.3,2.5-0.2,1.9C-0.1,1.3,0,0.6,0,0"/>
				</g>
				<g id="g42" transform="translate(1.6472,484.8419)">
					<path id="path44" class="st2" d="M0,0c-0.4,0.5-0.7,1-1,1.5C-1.2,2-1.5,2.5-1.6,3l8.9-25.2c3.4-10.6,8.7-20.6,15.4-29.4
						l97.5-128.3l8,11.4L0,0z"/>
				</g>
				<g id="g46" transform="translate(201.4769,394.1326)">
					<path id="path48" class="st4" d="M0,0l1.5-0.7l0.9,0.2C13.1,5,23.8,7.1,35.1,5.7c2.6-0.3,4.3,1.6,4.9,3.6
						c0.6,2.1,0.1,4.9-2.5,6.2C27.2,20.4,9.8,17-0.2,3L0,0z"/>
				</g>
				<g id="g50" transform="translate(346.9333,349.4701)">
					<path id="path52" class="st4" d="M0,0l-1.7,0.2l-0.6,0.7C-8,11.5-15.7,19.2-25.9,24.5c-2.3,1.2-2.7,3.8-2.1,5.8
						c0.7,2.1,2.7,4.2,5.5,3.7C-11.2,32.2,1.3,19.6,1.8,2.4L0,0z"/>
				</g>
				<g id="g54" transform="translate(231.6208,302.7486)">
					<path id="path56" class="st4" d="M0,0c8-10.1,11.6-12,17.4-13.8c2.4-0.7,4.6-1.2,7.3-1.2c3.7,0,8.1,0.8,14.8,2.9
						c3.9,1.2,6.1,3.2,5.8,5.2c-0.2,1.7-2.1,2.8-4.7,3c-3.2,0.2-5.1,0.3-6.5,0.3c-3,0.1-3,0.1-8.7,0.6l-0.6,0.1
						c-1.3,0.1-2.5,0.4-3.8,0.7c-1.3,0.4-2.5,0.9-3.6,1.5l-0.4,0.2C11.8,2.4,11.8,2.4,9.3,4C8.1,4.7,6.5,5.7,3.7,7.4
						C1.4,8.8-0.8,8.9-1.9,7.6C-3.2,6-2.5,3.2,0,0"/>
				</g>
				<g id="g58" transform="translate(222.3726,372.1744)">
					<path id="path60" class="st4" d="M0,0c-9.3,2-18.3-0.1-24.2-5.6c-3.4-3.2-3.7-7.2-2.6-9.6c0.8-1.7,3.4-2.4,5.5-2.2
						c1.6,0.2,9.7,0.6,16.8-1.5C2.5-21.1,6-24.7,6.9-25.5c1-0.8,3.5-2.1,5.1-2.1c1.7,0,3.3,0.5,4.8,1.7c2.8,2.2,4.7,6.7,3,10.9
						C16.7-7.6,9.3-2,0,0"/>
				</g>
				<g id="g62" transform="translate(317.384,342.9996)">
					<path id="path64" class="st4" d="M0,0c8.8-3.5,15.2-10.4,16.9-18.2c1-4.6-0.9-8.1-3.2-9.4c-1.6-0.9-4.1-0.2-5.8,1.3
						c-1.3,1.1-7.7,6-14.8,8.2c-7,2.2-11.9,1-13.2,0.9c-1.3-0.1-4.1,0.3-5.4,1.1c-1.4,0.9-2.4,2.3-3,4.1c-1.1,3.4-0.2,8.2,3.6,10.7
						C-18.1,3-8.9,3.6,0,0"/>
				</g>
				<g id="g66" transform="translate(317.1324,262.8152)">
					<path id="path68" class="st4" d="M0,0c-2.2,3.8-4.3,9.4-7.5,8.1c-2-0.8-1.4-2.8-1.8-5c-0.3-1.7-1-3.3-4.5-5.3
						C-16.3-3.7-18.8-5-21-6c-5.9-2.8-12.3-5-19.1-6.5c-12.7-2.8-25.1-2.4-39.2,1.9c-14.1,4.3-24.6,11-33.6,20.4
						c-4.8,5.1-8.9,10.5-12.2,16.1c-1.3,2.1-2.6,4.5-4,7.2c-1.8,3.6-1.4,5.3-0.7,6.9c0.9,2.1,2.5,3.4,1.3,5.2
						c-1.9,2.8-6.7-0.7-10.7-2.6c-5.9-2.8-8.7-3.1-7.8-6.8c0.8-3.6,5.2-0.3,6.4-4.3h0c3.1-10.7,13.4-40.4,37.6-56.7
						c5-3.4,10.5-6.2,16.8-8.1l0.1,0l0.1,0c6.2-1.9,12.4-2.7,18.4-2.7C-38.5-35.9-13.5-17.2-5-10c3.2,2.6,5-2.5,7.7,0
						C5.5-7.4,3.3-5.6,0,0"/>
				</g>
				<g id="g70" transform="translate(1348.4509,455.0148)">
					<path id="path72" class="st5" d="M0,0c11.3,0,21.6,7.5,30,18.5c9.5,12.4,11.8,35.5,6.7,44.5l-35-0.2c2.1-3.8,5.4-15.1,5.4-21
						c0-14.7-11-27.7-14.3-29.8C-9.5,10.5-9.5,8-9.5,7C-9.5,2.3-6.4,0,0,0"/>
				</g>
				<g id="g74" transform="translate(1916.9323,225.6281)">
					<path id="path76" class="st5" d="M0,0c-14.4,0-27.2-11.7-28.5-26C-29.9-40.4-19.3-52-5-52c14.4,0,27.1,11.7,28.5,26
						C24.9-11.7,14.4,0,0,0"/>
				</g>
				<g id="g78" transform="translate(1582.4143,152.6502)">
					<path id="path80" class="st5" d="M0,0c-16.9,0.5-32.3,11.9-32.3,34.1c0,40.1,50,58.6,119.4,64.9C65,48.5,41.2-1.1,0,0
						 M379.1,261.9c-37.5,0-62.5-38.2-62.5-38.2l12.7,32.8h-62.4l-29.1-81.8c-18.7-20.7-41.2-32.7-67.8-40.5l83.9,217.7H226l-0.2,0
						h-64.7c-109.6,0-191.6-67.7-191.6-137c0-22.3,11.8-38.4,25.4-47.2c9.6,0,25.8,0,40.1,0c-4.2,6.1-9.7,21.7-9.7,36
						c0,65.2,50.6,123,132.5,123h16.7c0,0-77-200.9-77.7-202.6C-46.3,113.8-89.7,75.6-89.7,33.1c0-45.5,57-61.7,84.4-61.7
						c92.4,0,140.6,77.1,165.2,135.3c22.9,4.5,43.7,12.4,62.1,23.7L183.2,21.2h62.4l56.6,158.7c0,0,16.8,30.9,42.6,30.9
						c18.2,0,24.4-6.2,24.4-6.2l39.3,46.9C408.6,251.5,400.3,261.9,379.1,261.9"/>
				</g>
				<g id="g82" transform="translate(1198.9775,404.1177)">
					<path id="path84" class="st5" d="M0,0c0,0-8.3,10.4-29.5,10.4C-67,10.4-92-27.8-92-27.8L-79.2,5h-62.4l-33.7-94.8
						c-1.6-2.9-3-5.7-4.4-8.2c-35.3-65.2-71.7-101.4-79.6-101.4c-3.8,0-4.1,4-1.3,11.5c2.9,7.5,19.1,54.4,51.2,138.6h-59.7
						c-10.4-26.6-32.3-88.9-41.4-113c-16-19.7-39.8-36.5-49.7-36.5c-11.1,0-11.1,11.1-11.1,14.6c0,34.4,39.5,160.2,115.1,160.2
						c17.5,0,30.5-3,39.5-6l11.3,29.1c-14.1,8.1-30.4,12.2-54.2,12.2c-86.5,0-140.6-71.5-161.5-132c-6.2-12.4-15.3-29.7-24.3-44.4
						c-28.2-46.3-78.9-72.2-112.3-71.6c-39.4,0.6-58.9,22.7-58.9,81.8c0,63.1,70.5,228.5,153.6,228.5c26.1,0,31.8-23,31.8-32.6
						c0-15.5-6.1-24.8-18.1-36.8h58.3c10.9,6.1,21.8,21.4,21.8,41.4c0,23.7-23.1,57.1-88.6,57.1c-149.1,0-232.9-165.8-233-264.8
						c-0.1-96.8,70.6-110.3,117.3-110.3c49.3,0,103.3,30.4,131.7,68.8c4.1,6,8.1,12.1,11.7,18.1c5.1-43.9,34.2-44.8,47.7-44.8
						c19.6,0,45.4,12.9,64.5,29c2.2-20.2,17.7-29,40.4-29c22.3,0,45.5,17.3,67.1,41.7l-14.8-41.7h62.4l56.6,158.7
						c0,0,16.8,30.9,42.6,30.9c18.2,0,24.4-6.2,24.4-6.2L0,0z"/>
				</g>
				<g id="g86" transform="translate(1325.2614,201.755)">
					<path id="path88" class="st5" d="M0,0c-16.2,0-33.6,12.3-33.6,35.1c0,7.4,4.3,16.4,7.4,21.9c4.3,5.2,8.2,10.3,11.8,15.1
						C-1,90.4,12.2,111,23.3,126.5C28.5,98.8,43.1,86.8,43.1,51C43.1,29.6,27.5,0,0,0 M73.8,210.4c-11.8-3-19.2-6.4-27.6-13.2
						c-6.3-4.8-11.6-11.2-18.9-21.3c-6.4-9.3-15.6-22.7-24.4-35.3C-32.7,89.7-70.9,37.6-84.8,25.6c-19-16.3-32.2-22.7-37.6-22.7
						c-3.8,0-4.1,4-1.2,11.6c2.9,7.5,70.5,185,102.6,269.2h-59.7c-9.6-24.6-70.5-184.8-89.3-234.3c-4-11.4-9.5-27.4-11.1-40.1
						c-1.4-26.1,15-37.2,40.6-37.2c19.8,0,44.7,13.3,63.8,29.4C-74.9,3-73,4.7-71,6.6c4.7,5,9.1,9.8,13.4,14.5
						C-54.1-8-24.8-27.4,10.6-27.4c46.4,0,89.6,28,89.6,79.9c0,50.6-30.2,75.8-30.2,107.1c0,8.3,7.4,17.7,16.3,18.6
						c14.2,1.4,25.6-11.3,25.6-11.3l28.5,32.9C140.3,199.8,116.3,221,73.8,210.4"/>
				</g>
			</g>
		</g>
	</g>
</g>
</svg>
