<?xml version="1.0" encoding="utf-8"?>
<!-- Generator: Adobe Illustrator 27.0.0, SVG Export Plug-In . SVG Version: 6.00 Build 0)  -->
<svg version="1.1" id="Layer_1" xmlns="http://www.w3.org/2000/svg" xmlns:xlink="http://www.w3.org/1999/xlink" x="0px" y="0px"
	 width="141px" height="48px" viewBox="0 0 141 48" style="enable-background:new 0 0 141 48;" xml:space="preserve">
<style type="text/css">
	.st0{fill:#001E41;}
	.st1{fill:#002A5E;}
</style>
<path id="XMLID_1099_" class="st1" d="M28.6,33.9c-1,0-1.9,0.3-2.6,0.8l-0.3-0.6h-0.9v12.7l1.3-0.3V42c0.7,0.5,1.6,0.9,2.6,0.9
	c2.5,0,4.4-2,4.4-4.5S31.1,33.9,28.6,33.9z M28.6,41.7c-1.1,0-1.9-0.5-2.5-1.1V36c0.6-0.5,1.5-0.9,2.5-0.9c1.8,0,3.3,1.5,3.3,3.3
	C31.8,40.2,30.5,41.7,28.6,41.7z M55.2,40.7l0.5,2h-1.3l-0.5-1.7V30.3l1.3-0.3V40.7z M43,41.3l0.4,1.1c-0.3,0.2-1,0.5-1.7,0.5
	c-0.7,0-1.5-0.2-2.1-0.9c-0.4-0.5-0.6-1.2-0.6-2.3v-4.5h-1.8v-1.2H39v-2.3l1.3-0.3v2.6h2.8l-0.3,1.2h-2.5v4.4c0,0.7,0.1,1.2,0.3,1.6
	c0.2,0.3,0.6,0.5,1.1,0.5C42.2,41.7,42.7,41.5,43,41.3z M34.6,34.1H36v8.5h-1.3V34.1z M36.2,31.8c0,0.5-0.4,0.9-1,0.9
	c-0.5,0-0.9-0.4-0.9-0.9c0-0.5,0.4-1,0.9-1C35.8,30.8,36.2,31.3,36.2,31.8z M12.9,39.5l1.1,0.8c-1.2,1.5-3,2.5-5.1,2.5
	c-3.6,0-6.5-2.9-6.5-6.4c0-3.6,2.9-6.5,6.5-6.5c2,0,3.7,0.9,4.8,2.4l-1.1,0.9c-0.8-1.1-2.1-1.9-3.8-1.9c-2.8,0-5,2.2-5,5.1
	c0,2.9,2.2,5.2,5,5.2C10.3,41.5,11.8,40.9,12.9,39.5z M22.9,34.1H22l-0.3,0.6c-0.7-0.5-1.6-0.8-2.6-0.8c-2.5,0-4.5,2-4.5,4.5
	s1.9,4.5,4.4,4.5c1.1,0,2.2-0.5,2.9-1.1l0.4,0.8h1.1l-0.4-1.9V34.1z M21.6,40.6c-0.6,0.6-1.4,1.1-2.5,1.1c-1.8,0-3.2-1.5-3.2-3.3
	c0-1.8,1.4-3.3,3.3-3.3c1,0,1.9,0.4,2.5,0.9V40.6z M52.1,34.1h-0.9l-0.3,0.6c-0.7-0.5-1.6-0.8-2.6-0.8c-2.5,0-4.5,2-4.5,4.5
	s1.9,4.5,4.4,4.5c1.1,0,2.2-0.5,2.9-1.1l0.4,0.8h1.1l-0.4-1.9V34.1z M50.7,40.6c-0.6,0.6-1.4,1.1-2.5,1.1c-1.8,0-3.2-1.5-3.2-3.3
	c0-1.8,1.4-3.3,3.3-3.3c1,0,1.9,0.4,2.5,0.9V40.6z M98.8,9.1v3.6c-2.3,0.4-3.9,2.3-3.9,4.8c0,2.3,1.6,4.4,3.9,4.8v3.6
	c-4.5-0.4-7.8-3.9-7.8-8.3C91,13,94.3,9.5,98.8,9.1z M108.2,17.4c0,4.4-3.3,7.9-7.8,8.3v-3.6c2.3-0.4,3.9-2.4,3.9-4.8
	c0-2.5-1.7-4.4-3.9-4.8V9.1C104.9,9.5,108.2,13,108.2,17.4z M64.5,9.1c-4.6,0-8.1,3.7-8.1,8.3c0,4.9,3.7,8.4,8.3,8.4
	c2.8,0,5.1-1.3,6.7-3.1l-2.6-2.3c-1.1,1.3-2.5,2-4.2,2c-2.3,0-4.2-1.6-4.5-3.9H72c0,0,0-0.6,0-1.1C72.1,12.8,68.9,9.1,64.5,9.1z
	 M60.2,15.6c0.5-1.8,2.1-3.2,4-3.2c2.2,0,3.6,1.6,3.9,3.2H60.2z M140.3,17.4c0-4.6-3.2-8.3-7.6-8.3c-4.6,0-8.1,3.7-8.1,8.3
	c0,4.9,3.7,8.4,8.3,8.4c2.8,0,5.1-1.3,6.7-3.1l-2.6-2.3c-1.1,1.3-2.5,2-4.2,2c-2.3,0-4.2-1.6-4.5-3.9h11.9
	C140.2,18.5,140.3,17.9,140.3,17.4z M128.4,15.6c0.5-1.8,2.1-3.2,4-3.2c2.2,0,3.6,1.6,3.9,3.2H128.4z M41.7,22.7l8.7-10h-8V9.5h12.6
	v3.2l-8.2,9.4h8.4v3.3h-13L41.7,22.7z M125,9.5l-6.8,15.9h0h-3.8h0l-6.8-15.9h4.2l4.4,11.2l4.4-11.2H125z M89.1,17.5v7.9h-3.8
	c0,0,0-4.6,0-7.7c0-3.5-1.4-4.9-3.7-4.9c-1.5,0-2.9,1-3.8,2.1v10.5H74V9.5h2.6l0.9,1.8c1.4-1.4,3.2-2.2,5.1-2.2
	C87.1,9.1,89.1,12.7,89.1,17.5z M0.8,13.7c0-6.6,5.4-12,12-12c3.8,0,7.3,1.9,9.3,4.6l-3.1,2.6c-1.1-1.5-3.4-3.2-6.4-3.2
	c-4.1,0-7.6,3.4-7.6,8c0,4.6,3.7,8,7.8,8c2.9,0,5.5-1.7,6.5-3l3.1,2.7c-2.1,2.6-5.7,4.4-9.6,4.4C6.2,25.7,0.8,20.4,0.8,13.7z
	 M39.4,21.3V9.5h-2.6L36,11c-1.3-1.1-2.9-1.9-4.8-1.9c-4.4,0-8.1,3.5-8.1,8.3c0,4.7,3.7,8.3,7.8,8.3c2.1,0,3.8-0.9,5-2l0.9,1.6h3.5
	L39.4,21.3z M35.6,20.4c-1,1.1-2.5,1.8-4.1,1.8c-2.2,0-4.5-1.8-4.5-4.9c0-2.7,2.1-4.8,4.6-4.8c1.6,0,3,0.8,4,1.7V20.4z"/>
</svg>
