<?xml version="1.0" encoding="UTF-8"?>
<svg width="150px" height="60px" viewBox="0 0 150 60" version="1.1" xmlns="http://www.w3.org/2000/svg" xmlns:xlink="http://www.w3.org/1999/xlink">
    <title>logo</title>
    <g id="Symbols" stroke="none" stroke-width="1" fill="none" fill-rule="evenodd">
        <g id="header" transform="translate(-80.000000, -10.000000)" fill="#004178">
            <g id="Group" transform="translate(80.000000, 10.562500)">
                <g id="Group-3">
                    <path d="M47.5584265,27.9059493 C45.6004291,38.1607607 36.1923667,45.6043888 25.1908713,45.6043888 C23.8217555,45.6032185 22.4423017,45.4838427 21.0917165,45.2511378 C14.9147984,44.1828023 9.61154746,40.8467165 6.15881664,35.8578999 C2.95381014,31.2270156 1.76024707,25.6855982 2.79776333,20.2545839 C4.75693108,10.0005527 14.1647984,2.55789987 25.1682445,2.55789987 C26.5324837,2.55789987 27.9115475,2.67649545 29.266619,2.91037061 C35.2445774,3.94535111 40.4415215,7.13124187 43.899909,11.8818921 C47.3321586,16.598407 48.6314434,22.2888492 47.5584265,27.9059493 M45.8668791,10.4503576 C42.0337841,5.18514304 36.2859948,1.65653446 29.6813134,0.513491547 C28.189896,0.255819246 26.6723407,0.125130039 25.1682445,0.125130039 C12.9991287,0.125130039 2.58592978,8.39951235 0.408296489,19.798342 C-2.07401821,32.7923602 7.02058518,45.2862484 20.6772172,47.648212 C22.1670741,47.9052991 23.6857997,48.0355982 25.1883355,48.0369636 C37.3572562,48.0369636 47.7714304,39.761606 49.9478934,28.3623862 C51.1488687,22.0766255 49.6989987,15.7161573 45.8668791,10.4503576" id="Fill-1"></path>
                </g>
                <path d="M25.1796554,11.2092133 C27.0504616,11.2092133 28.571723,9.68736671 28.571723,7.81597529 C28.571723,5.94653446 27.0504616,4.42410273 25.1796554,4.42410273 C23.308459,4.42410273 21.7877828,5.94653446 21.7877828,7.81597529 C21.7877828,9.68736671 23.308459,11.2092133 25.1796554,11.2092133" id="Fill-4"></path>
                <path d="M42.42671,15.1475228 L42.4235891,15.1223602 C42.4152016,15.058381 42.4048635,14.984844 42.3851625,14.9036996 C42.3658518,14.8227503 42.3412744,14.7501886 42.3182575,14.6862094 L42.3102601,14.6602666 L42.300117,14.6296424 C42.2784655,14.5666385 42.253303,14.4942718 42.2179974,14.4164434 C42.1826918,14.3380299 42.1440702,14.2722952 42.1105202,14.2139727 L42.0972562,14.191736 L42.0851625,14.1694993 C42.0514174,14.1113719 42.013381,14.0456372 41.9650065,13.9767815 C41.9148765,13.9073407 41.8657217,13.8499935 41.8220286,13.8000585 L41.8009623,13.7758713 L41.7863329,13.7589012 C41.7406892,13.7074057 41.6886086,13.6465475 41.6250195,13.5860793 C41.5583095,13.5252211 41.4972562,13.4772367 41.4428349,13.435104 L41.4342523,13.4288622 C41.370078,13.378342 41.2981014,13.3235306 41.216567,13.2710598 C41.1968661,13.2558453 41.1681925,13.2334135 41.1305462,13.2121521 L39.0504421,12.011762 L34.6996619,9.52281534 C34.6916645,9.51793888 34.6836671,9.51345254 34.6754746,9.50994148 C34.3081795,9.3029844 33.893485,9.19453186 33.4735241,9.19453186 C32.5977113,9.19453186 31.7811964,9.66559818 31.3436801,10.4230104 C31.0148114,10.9923862 30.9276203,11.6544148 31.0973212,12.2885501 C31.2678023,12.9230754 31.6744993,13.4530494 32.243485,13.7805527 L36.9781404,16.5287321 C36.9960858,16.5408257 37.0116905,16.5523342 37.0296359,16.5636476 C37.0614304,16.5831534 37.0969311,16.6102666 37.1263849,16.6344538 L37.1482315,16.651814 C37.1671521,16.6658583 37.1860728,16.6797074 37.203433,16.6958973 C37.2227438,16.7142328 37.2473212,16.7432965 37.2711183,16.7696294 C37.273264,16.7723602 37.2750195,16.775091 37.2769701,16.7770416 C37.3025228,16.8055202 37.3274902,16.8338036 37.3395839,16.8511638 C37.3530429,16.8700845 37.3696229,16.8989532 37.3875683,16.9295774 L37.3947854,16.9422562 L37.4045384,16.9586411 C37.4211183,16.9875098 37.436723,17.0142328 37.4445254,17.0312029 C37.453303,17.0499285 37.463251,17.0805527 37.4743693,17.1127373 L37.4811964,17.1326333 L37.4864629,17.1476528 C37.4973862,17.1780819 37.5069441,17.2087061 37.5116255,17.2266515 C37.5178674,17.2525943 37.5227438,17.2902406 37.5282055,17.3269116 C37.5336671,17.3688492 37.5393238,17.4092263 37.5402991,17.4435566 C37.5406892,17.4640377 37.5428349,17.4872497 37.5457607,17.5094863 L37.5457607,30.4090962 C37.5428349,30.4325033 37.5406892,30.4555202 37.5402991,30.478342 C37.5393238,30.5091612 37.5336671,30.5495384 37.5285956,30.588355 C37.5227438,30.6287321 37.5178674,30.6657932 37.5116255,30.6909558 C37.5069441,30.7096814 37.4973862,30.7387451 37.4870481,30.7699545 L37.4802211,30.78829 L37.4743693,30.8062354 C37.463251,30.838225 37.4529129,30.8678739 37.4447204,30.8854291 C37.436723,30.9031795 37.4211183,30.9304876 37.4045384,30.9589662 L37.3947854,30.9753511 L37.3875683,30.98842 C37.3702081,31.0188492 37.3540182,31.0479129 37.3415345,31.064883 C37.3302211,31.0810728 37.31013,31.1038947 37.2904291,31.1271066 L37.2728739,31.1468075 L37.2656567,31.1546099 C37.2410793,31.1823082 37.2186476,31.2078609 37.2020676,31.2234655 C37.1864629,31.2380949 37.1675423,31.2519441 37.1488166,31.2665735 L37.1256047,31.2856892 C37.0969311,31.3081209 37.0614304,31.3344538 37.0296359,31.35513 C37.0126658,31.365078 36.9960858,31.3769766 36.9781404,31.3902406 L27.6383485,36.7527893 L27.6383485,16.9672237 C27.6383485,16.9603966 27.6377633,16.9545449 27.6377633,16.9479129 C27.6270351,15.6012289 26.5284655,14.5089012 25.1796359,14.5089012 C23.823394,14.5089012 22.7203381,15.6113719 22.7203381,16.9672237 L22.7203381,36.7527893 L13.3789857,31.3888752 C13.363186,31.3775618 13.3485566,31.3666385 13.3329519,31.3570806 C13.2997919,31.3367945 13.2697529,31.3135826 13.2330819,31.284909 L13.2176723,31.2728153 C13.196801,31.2566255 13.1757347,31.2404356 13.1564239,31.2228804 C13.1390637,31.2059103 13.1170221,31.1813329 13.0942003,31.1551951 L13.0824967,31.1413459 L13.0696229,31.1276918 C13.049922,31.1044798 13.0292458,31.0810728 13.0192978,31.0670286 C13.0072042,31.0490832 12.9921847,31.0237256 12.976775,30.9987581 L12.9619506,30.9722302 L12.9543433,30.9601365 C12.9387386,30.9332185 12.9231339,30.9059103 12.9163069,30.8903056 C12.906554,30.8688492 12.8962159,30.8388101 12.8849025,30.8079909 L12.8769051,30.7845839 L12.8730039,30.7711248 C12.8622757,30.7399155 12.8523277,30.7102666 12.8478414,30.6927113 C12.8421847,30.6691092 12.8375033,30.6400455 12.8330169,30.6086411 L12.8295059,30.5858192 C12.8240442,30.5429064 12.8191678,30.5060403 12.8183875,30.4746359 C12.8179974,30.4561053 12.8154616,30.4342588 12.8135111,30.4120221 L12.8135111,17.5059753 C12.8160468,17.481788 12.8179974,17.4603316 12.8183875,17.4369246 C12.8191678,17.4121521 12.8240442,17.3752861 12.8304811,17.3296424 L12.8330169,17.3099415 C12.8375033,17.2785371 12.8421847,17.2490832 12.8460858,17.2319181 C12.8523277,17.2077308 12.8626658,17.1773017 12.8730039,17.1458973 L12.8786606,17.1306827 L12.8849025,17.1109818 C12.8962159,17.0795774 12.906554,17.0493433 12.9137711,17.0331534 C12.9231339,17.0118921 12.9393238,16.9851691 12.9549285,16.958251 L12.9639012,16.9424512 L12.9773602,16.9192393 C12.9921847,16.8942718 13.0072042,16.8693043 13.0163719,16.8560403 C13.0310013,16.834974 13.0542133,16.808251 13.0772302,16.7823082 L13.0838622,16.775091 C13.1129259,16.7413459 13.1357477,16.7154031 13.1564239,16.694922 C13.1761248,16.6767815 13.1971912,16.6613719 13.2186476,16.6447919 L13.2307412,16.6356242 C13.270143,16.6044148 13.3007672,16.581788 13.32671,16.5655982 C13.3298309,16.5632575 13.333342,16.561502 13.3364629,16.5595514 C13.3512874,16.5494083 13.3647464,16.5400455 13.3789857,16.5295124 L15.5240442,15.298498 L18.1083745,13.7786021 C18.6736541,13.4530494 19.0811313,12.9230754 19.2506372,12.2885501 C19.4207282,11.6544148 19.3329519,10.9923862 19.0050585,10.4230104 C18.5669571,9.66559818 17.7510273,9.19453186 16.8752146,9.19453186 C16.4548635,9.19453186 16.0395839,9.30337451 15.6717035,9.51052666 C15.6637061,9.51423277 15.6557087,9.518329 15.6481014,9.52281534 L9.22989597,13.2121521 C9.18815345,13.2363394 9.15811443,13.2587711 9.14016905,13.2728153 C9.05551365,13.3270416 8.98256177,13.3826333 8.92209363,13.431593 C8.86747724,13.4727503 8.80252276,13.5232705 8.73756827,13.5843238 C8.67085826,13.6465475 8.61936281,13.7064304 8.57313394,13.7589012 L8.5596749,13.7741157 L8.53782835,13.7992783 C8.49394018,13.8488231 8.44420026,13.9073407 8.39485046,13.9756112 C8.34296489,14.0493433 8.30356307,14.1176138 8.26864759,14.1790572 L8.26045514,14.1942718 L8.24972692,14.2122172 C8.21481144,14.271515 8.17677503,14.3380299 8.14107932,14.4164434 C8.10460338,14.4954421 8.07963589,14.5674187 8.05856957,14.6313979 L8.04920676,14.6592913 L8.03925878,14.6881599 C8.01682705,14.7521391 7.99263979,14.8245059 7.97254876,14.908186 C7.95382315,14.9865995 7.94387516,15.0618921 7.93490247,15.1276268 L7.93178153,15.1492783 C7.92105332,15.224961 7.90856957,15.314883 7.90447334,15.4145579 C7.90096229,15.4399155 7.89647594,15.4765865 7.89647594,15.5204746 L7.89647594,32.3981079 C7.89647594,32.4445319 7.90096229,32.4825683 7.90447334,32.5061704 C7.90895969,32.6076008 7.92105332,32.6963524 7.93178153,32.7714499 L7.93451235,32.791541 C7.94387516,32.8574707 7.95382315,32.9323732 7.97293888,33.0139077 C7.99263979,33.094857 8.01682705,33.1674187 8.03925878,33.2308127 L8.04823147,33.2573407 L8.05856957,33.2873797 C8.08002601,33.3513589 8.1049935,33.424896 8.14107932,33.5033095 C8.17677503,33.5811378 8.21559168,33.6488231 8.25070221,33.7079259 L8.26182055,33.7276268 L8.2676723,33.7385501 C8.30258778,33.7994083 8.34296489,33.8690442 8.39446034,33.9421912 C8.44322497,34.0108518 8.49218466,34.0666385 8.53412224,34.1165735 L8.55694408,34.1419311 L8.57723017,34.1647529 C8.62189857,34.2154681 8.67261378,34.2732055 8.73444733,34.3326983 C8.80349805,34.3974577 8.86923277,34.4479779 8.92755527,34.4922562 C8.98743823,34.5398505 9.05824447,34.5936866 9.13919376,34.6457672 C9.16045514,34.6619571 9.18912874,34.6838036 9.22657997,34.7060403 L23.8460208,43.1454421 C23.8544083,43.1505137 23.8629909,43.1553901 23.8723537,43.1598765 C23.9390637,43.1965475 24.0018726,43.2260013 24.0576593,43.251749 L24.0724837,43.258381 L24.0859428,43.265013 C24.1150065,43.2798375 24.1450455,43.294857 24.1750845,43.3067555 C24.2023927,43.3176788 24.2297009,43.3268466 24.2587646,43.3360143 C24.5575943,43.4464174 24.8679324,43.5035696 25.1778804,43.5035696 C25.5124057,43.5035696 25.8371782,43.4427113 26.1453706,43.3211899 C26.1605852,43.3157282 26.1754096,43.3098765 26.1906242,43.3040247 C26.2243693,43.2892003 26.2577243,43.2724252 26.2910793,43.2566255 L26.3170221,43.2441417 L26.3412094,43.2324382 C26.3854876,43.2119571 26.4342523,43.1891352 26.4876983,43.1592913 C26.4960858,43.1553901 26.5046684,43.1505137 26.5122757,43.1454421 L41.130156,34.7066255 C41.1717035,34.6818531 41.2023277,34.6588362 41.2206632,34.644987 C41.3035631,34.5921261 41.3745644,34.5375098 41.4356177,34.4891352 L41.4453706,34.4819181 C41.5001821,34.4392003 41.5618205,34.3914109 41.6242393,34.3326983 C41.6868531,34.2732055 41.7379584,34.2154681 41.7826268,34.1643628 L41.7984265,34.1462224 L41.8130559,34.1280819 C41.8596749,34.075026 41.9121456,34.0153381 41.963251,33.9439467 C42.0147464,33.8721651 42.053173,33.8038947 42.0876983,33.7438166 L42.0984265,33.7245059 C42.1364629,33.6605267 42.1795709,33.5875748 42.2179974,33.5033095 C42.256619,33.4180689 42.2835371,33.3380949 42.306749,33.2676788 L42.3106502,33.2561704 C42.3358127,33.1853641 42.3631209,33.1055852 42.3851625,33.0152731 C42.4062289,32.9276918 42.4169571,32.8502536 42.4259298,32.7825683 L42.4272952,32.7706697 C42.4384135,32.6945969 42.4495319,32.6046749 42.4546034,32.5061704 C42.4577243,32.4796424 42.4626008,32.4425813 42.4626008,32.3981079 L42.4626008,15.5204746 C42.4626008,15.4738557 42.4577243,15.4354291 42.4542133,15.4126073 C42.4487516,15.3113719 42.4376333,15.2232055 42.42671,15.1475228" id="Fill-6"></path>
                <path d="M64.6652926,48.5640507 C64.6652926,48.8145059 64.4745254,49.0296554 64.2121717,49.0296554 C63.7471521,49.0296554 63.5922757,48.4807607 62.5426658,48.4807607 C61.7675033,48.4807607 61.1950065,48.9693823 61.1950065,49.6852471 C61.1950065,51.5574187 65.2260858,50.6630754 65.2260858,53.524974 C65.2260858,54.9323212 64.2004681,56.208199 62.3518986,56.208199 C61.2310923,56.208199 59.9907152,55.7788752 59.9907152,55.1825813 C59.9907152,54.8964304 60.1336931,54.6461704 60.4319376,54.6461704 C60.7896749,54.6461704 61.2903901,55.3019571 62.3637971,55.3019571 C63.4492978,55.3019571 64.1048895,54.515091 64.1048895,53.5731534 C64.1048895,51.5574187 60.0742003,52.535052 60.0742003,49.7568336 C60.0742003,48.7671066 61.0040442,47.5743238 62.5787516,47.5743238 C63.6279714,47.5743238 64.6652926,48.0155462 64.6652926,48.5640507" id="Fill-8"></path>
                <path d="M70.4369376,52.583329 C70.4369376,51.676502 69.9120351,50.6270871 68.7553381,50.6270871 C67.4556632,50.579883 66.9902536,51.6172042 66.9545579,52.583329 L70.4369376,52.583329 Z M66.9545579,53.37 C66.9545579,54.4555007 67.6464304,55.3020546 68.8269246,55.3020546 C70.2219831,55.3020546 70.5797204,54.443212 70.9735436,54.443212 C71.1643108,54.443212 71.355078,54.6101821 71.355078,54.9084265 C71.355078,55.4210403 70.0552081,56.2082965 68.815026,56.2082965 C66.7875878,56.2082965 65.905143,54.6460728 65.905143,52.9646684 C65.905143,51.2475683 66.9781599,49.7210403 68.7553381,49.7210403 C70.4845319,49.7210403 71.4863524,51.283264 71.4863524,52.8097919 C71.4863524,53.1794278 71.355078,53.37 70.9019571,53.37 L66.9545579,53.37 Z" id="Fill-10"></path>
                <path d="M75.1944538,49.7210793 C76.2676658,49.7210793 76.8996554,50.0907152 76.8996554,50.520039 C76.8996554,50.7344083 76.7209818,50.9612614 76.4707217,50.9612614 C76.0651951,50.9612614 75.9099285,50.6271261 75.1944538,50.6271261 C73.8945839,50.6271261 73.3819701,51.8914954 73.3819701,52.9647074 C73.3819701,54.0379194 73.8945839,55.3018986 75.1944538,55.3018986 C75.9341157,55.3018986 76.124883,54.9443563 76.458238,54.9443563 C76.6971847,54.9443563 76.8639597,55.0992328 76.8639597,55.3853836 C76.8639597,55.7790117 76.2797594,56.2083355 75.1944538,56.2083355 C73.2625943,56.2083355 72.3325553,54.6461118 72.3325553,52.9647074 C72.3325553,51.283303 73.2625943,49.7210793 75.1944538,49.7210793" id="Fill-12"></path>
                <path d="M78.0203251,50.2814824 C78.0203251,49.9356437 78.223186,49.7210793 78.5452276,49.7210793 C78.8674642,49.7210793 79.069935,49.9356437 79.069935,50.2814824 L79.069935,53.6442913 C79.069935,54.7295969 79.5468531,55.3018986 80.53658,55.3018986 C81.526502,55.3018986 82.00342,54.7295969 82.00342,53.6442913 L82.00342,50.2814824 C82.00342,49.9356437 82.2062809,49.7210793 82.5283225,49.7210793 C82.8501691,49.7210793 83.0530299,49.9356437 83.0530299,50.2814824 L83.0530299,53.679987 C83.0530299,55.5404551 81.8126528,56.2083355 80.53658,56.2083355 C79.2605072,56.2083355 78.0203251,55.5404551 78.0203251,53.679987 L78.0203251,50.2814824 Z" id="Fill-14"></path>
                <path d="M84.555156,50.2814824 C84.555156,49.9356437 84.7578218,49.7210793 85.0800585,49.7210793 C85.4021001,49.7210793 85.6043758,49.9356437 85.6043758,50.2814824 L85.6043758,50.8178934 L85.6285631,50.8178934 C85.8671196,50.3292718 86.451515,49.7210793 87.0591222,49.7210793 C87.4291482,49.7210793 87.6437126,49.9594408 87.6437126,50.2574902 C87.6437126,50.5557347 87.4291482,50.746697 86.9879259,50.829987 C86.3676398,50.9374642 85.6043758,51.4022887 85.6043758,52.6305722 L85.6043758,55.6475423 C85.6043758,55.993381 85.4021001,56.2083355 85.0800585,56.2083355 C84.7578218,56.2083355 84.555156,55.993381 84.555156,55.6475423 L84.555156,50.2814824 Z" id="Fill-16"></path>
                <path d="M89.480013,55.6475033 C89.480013,55.993342 89.2777373,56.2082965 88.9556957,56.2082965 C88.6336541,56.2082965 88.4305982,55.993342 88.4305982,55.6475033 L88.4305982,50.2814434 C88.4305982,49.9356047 88.6336541,49.7210403 88.9556957,49.7210403 C89.2777373,49.7210403 89.480013,49.9356047 89.480013,50.2814434 L89.480013,55.6475033 Z M88.9556957,47.5742263 C89.313238,47.5742263 89.5995839,47.8605722 89.5995839,48.2183095 C89.5995839,48.5762419 89.313238,48.8623927 88.9556957,48.8623927 C88.5977633,48.8623927 88.3116125,48.5762419 88.3116125,48.2183095 C88.3116125,47.8605722 88.5977633,47.5742263 88.9556957,47.5742263 L88.9556957,47.5742263 Z" id="Fill-18"></path>
                <path d="M91.3164889,49.7928804 L91.3164889,48.4214239 C91.3164889,48.0753901 91.5189597,47.8606307 91.8410013,47.8606307 C92.1630429,47.8606307 92.3659038,48.0753901 92.3659038,48.4214239 L92.3659038,49.7928804 L92.7950325,49.7928804 C93.1406762,49.7928804 93.319935,49.9594603 93.319935,50.2456112 C93.319935,50.531567 93.1406762,50.6989272 92.7950325,50.6989272 L92.3659038,50.6989272 L92.3659038,55.6475618 C92.3659038,55.9934005 92.1630429,56.208355 91.8410013,56.208355 C91.5189597,56.208355 91.3164889,55.9934005 91.3164889,55.6475618 L91.3164889,50.6989272 L91.3164889,49.7928804 Z" id="Fill-20"></path>
                <path d="M103.050488,49.7928804 L103.050488,48.4214239 C103.050488,48.0753901 103.252958,47.8606307 103.574805,47.8606307 C103.897042,47.8606307 104.100098,48.0753901 104.100098,48.4214239 L104.100098,49.7928804 L104.528836,49.7928804 C104.87487,49.7928804 105.053934,49.9594603 105.053934,50.2456112 C105.053934,50.531567 104.87487,50.6989272 104.528836,50.6989272 L104.100098,50.6989272 L104.100098,55.6475618 C104.100098,55.9934005 103.897042,56.208355 103.574805,56.208355 C103.252958,56.208355 103.050488,55.9934005 103.050488,55.6475618 L103.050488,50.6989272 L103.050488,49.7928804 Z" id="Fill-25"></path>
                <path d="M93.8560533,50.746658 C93.7368726,50.3889207 93.7132705,50.2814434 93.7132705,50.1624577 C93.7132705,49.8997139 93.9514369,49.7210403 94.1901886,49.7210403 C94.4523472,49.7210403 94.6429194,49.8878153 94.7147009,50.1142783 L96.1694473,54.466814 L96.1936346,54.466814 L97.6245839,50.1142783 C97.6959753,49.8878153 97.8629454,49.7210403 98.1254941,49.7210403 C98.3634655,49.7210403 98.6024122,49.8997139 98.6024122,50.1624577 C98.6024122,50.2814434 98.5786151,50.3889207 98.4592393,50.746658 L95.8119051,58.3188296 C95.728225,58.5452926 95.5610598,58.7126528 95.2990962,58.7126528 C95.0603446,58.7126528 94.8221782,58.5339792 94.8221782,58.2712354 C94.8221782,58.1522497 94.8457802,58.0447724 94.9770546,57.6868401 L95.644935,55.910052 L93.8560533,50.746658 Z" id="Fill-22"></path>
                <path d="M108.452126,55.3019571 C109.740293,55.3019571 110.193023,54.0379779 110.193023,52.9647659 C110.193023,51.891554 109.740293,50.6269896 108.452126,50.6269896 C107.164155,50.6269896 106.711034,51.891554 106.711034,52.9647659 C106.711034,54.0379779 107.164155,55.3019571 108.452126,55.3019571 M108.452126,49.7211378 C110.241008,49.7211378 111.242633,51.2831664 111.242633,52.9647659 C111.242633,54.6461704 110.241008,56.208199 108.452126,56.208199 C106.663049,56.208199 105.661619,54.6461704 105.661619,52.9647659 C105.661619,51.2831664 106.663049,49.7211378 108.452126,49.7211378" id="Fill-27"></path>
                <path d="M118.540299,48.7907282 L118.516697,48.7907282 L116.882692,53.3822107 L120.173914,53.3822107 L118.540299,48.7907282 Z M116.011951,55.8147854 C115.928661,56.0412484 115.785488,56.2082185 115.499727,56.2082185 C115.225085,56.2082185 114.998622,56.0412484 114.998622,55.7671912 C114.998622,55.6238231 115.106099,55.3497659 115.141795,55.2420936 L117.77723,48.2182315 C117.908505,47.8489857 118.122874,47.5743433 118.528205,47.5743433 C118.934122,47.5743433 119.148492,47.8489857 119.279961,48.2182315 L121.915397,55.2420936 C121.950897,55.3497659 122.057984,55.6238231 122.057984,55.7671912 C122.057984,56.0412484 121.831521,56.2082185 121.557464,56.2082185 C121.271118,56.2082185 121.127945,56.0412484 121.044655,55.8147854 L120.495956,54.2882575 L116.560845,54.2882575 L116.011951,55.8147854 Z" id="Fill-29"></path>
                <path d="M125.575923,49.7210793 C126.649135,49.7210793 127.281125,50.0907152 127.281125,50.520039 C127.281125,50.7344083 127.102451,50.9612614 126.851996,50.9612614 C126.446079,50.9612614 126.291398,50.6271261 125.575923,50.6271261 C124.276248,50.6271261 123.763244,51.8914954 123.763244,52.9647074 C123.763244,54.0379194 124.276248,55.3018986 125.575923,55.3018986 C126.315585,55.3018986 126.506352,54.9443563 126.839707,54.9443563 C127.078459,54.9443563 127.245234,55.0992328 127.245234,55.3853836 C127.245234,55.7790117 126.661034,56.2083355 125.575923,56.2083355 C123.644259,56.2083355 122.71383,54.6461118 122.71383,52.9647074 C122.71383,51.283303 123.644259,49.7210793 125.575923,49.7210793" id="Fill-31"></path>
                <path d="M130.989577,49.7210793 C132.062789,49.7210793 132.694779,50.0907152 132.694779,50.520039 C132.694779,50.7344083 132.516105,50.9612614 132.26565,50.9612614 C131.860319,50.9612614 131.705052,50.6271261 130.989577,50.6271261 C129.689902,50.6271261 129.176899,51.8914954 129.176899,52.9647074 C129.176899,54.0379194 129.689902,55.3018986 130.989577,55.3018986 C131.729239,55.3018986 131.920202,54.9443563 132.253557,54.9443563 C132.492503,54.9443563 132.658888,55.0992328 132.658888,55.3853836 C132.658888,55.7790117 132.074688,56.2083355 130.989577,56.2083355 C129.057913,56.2083355 128.127484,54.6461118 128.127484,52.9647074 C128.127484,51.283303 129.057913,49.7210793 130.989577,49.7210793" id="Fill-33"></path>
                <path d="M137.965572,52.583329 C137.965572,51.676502 137.44067,50.6270871 136.284363,50.6270871 C134.984103,50.579883 134.519083,51.6172042 134.482997,52.583329 L137.965572,52.583329 Z M134.482997,53.37 C134.482997,54.4555007 135.17487,55.3020546 136.355364,55.3020546 C137.751008,55.3020546 138.108355,54.443212 138.502178,54.443212 C138.692945,54.443212 138.883908,54.6101821 138.883908,54.9084265 C138.883908,55.4210403 137.583843,56.2082965 136.343661,56.2082965 C134.316808,56.2082965 133.433778,54.6460728 133.433778,52.9646684 C133.433778,51.2475683 134.50738,49.7210403 136.284363,49.7210403 C138.013166,49.7210403 139.014987,51.283264 139.014987,52.8097919 C139.014987,53.1794278 138.883908,53.37 138.430397,53.37 L134.482997,53.37 Z" id="Fill-35"></path>
                <path d="M142.150767,49.7210793 C143.020923,49.7210793 144.261495,50.1860988 144.261495,50.8416905 C144.261495,51.0683485 144.106034,51.2712094 143.784187,51.2712094 C143.331456,51.2712094 143.152198,50.6271261 142.150767,50.6271261 C141.554668,50.6271261 141.041469,50.8894798 141.041469,51.4262809 C141.041469,52.5351886 144.42827,52.4160078 144.42827,54.2522887 C144.42827,55.5763459 143.295566,56.2083355 142.114681,56.2083355 C140.779506,56.2083355 139.729896,55.5404551 139.729896,55.0038492 C139.729896,54.7175033 139.932757,54.5269311 140.15883,54.5269311 C140.624239,54.5269311 141.005969,55.3018986 142.150767,55.3018986 C142.914031,55.3018986 143.379051,54.8727698 143.379051,54.443251 C143.379051,53.2030689 139.99225,53.2748505 139.99225,51.509961 C139.99225,50.3409753 141.089259,49.7210793 142.150767,49.7210793" id="Fill-37"></path>
                <path d="M147.564402,49.7210793 C148.435143,49.7210793 149.674935,50.1860988 149.674935,50.8416905 C149.674935,51.0683485 149.519863,51.2712094 149.198407,51.2712094 C148.745091,51.2712094 148.565832,50.6271261 147.564402,50.6271261 C146.968303,50.6271261 146.455299,50.8894798 146.455299,51.4262809 C146.455299,52.5351886 149.841905,52.4160078 149.841905,54.2522887 C149.841905,55.5763459 148.7092,56.2083355 147.528316,56.2083355 C146.19314,56.2083355 145.143531,55.5404551 145.143531,55.0038492 C145.143531,54.7175033 145.346586,54.5269311 145.573049,54.5269311 C146.038069,54.5269311 146.419603,55.3018986 147.564402,55.3018986 C148.327666,55.3018986 148.792685,54.8727698 148.792685,54.443251 C148.792685,53.2030689 145.405884,53.2748505 145.405884,51.509961 C145.405884,50.3409753 146.502893,49.7210793 147.564402,49.7210793" id="Fill-39"></path>
                <path d="M71.9101756,8.72143693 C74.9569896,8.72143693 80.8838427,9.72325748 80.8838427,13.3960143 C80.8838427,14.8985501 79.8404746,16.1925683 78.2960013,16.1925683 C76.584948,16.1925683 75.4159623,14.73158 71.9101756,14.73158 C66.734883,14.73158 64.0635566,19.1141547 64.0635566,24.2067425 C64.0635566,29.1735176 66.7766255,33.4306697 71.9101756,33.4306697 C75.4159623,33.4306697 76.8354031,31.6774837 78.5466515,31.6774837 C80.4246749,31.6774837 81.3012679,33.5560923 81.3012679,34.5157802 C81.3012679,38.5228674 74.9989272,39.4408127 71.9101756,39.4408127 C63.4374187,39.4408127 57.5523082,32.7212419 57.5523082,24.081515 C57.5523082,15.3992653 63.3956762,8.72143693 71.9101756,8.72143693" id="Fill-42"></path>
                <path d="M92.5695059,33.1801365 L96.7849155,33.1801365 C102.169116,33.1801365 104.63173,29.214987 104.63173,24.2066645 C104.63173,18.8636216 102.127568,14.9821521 96.3676853,14.9821521 L92.5695059,14.9821521 L92.5695059,33.1801365 Z M86.3083225,12.4360533 C86.3083225,10.5160923 87.6438882,9.22246424 89.5224967,9.22246424 L96.4509753,9.22246424 C105.80013,9.22246424 111.142588,15.2324122 111.142588,24.4988622 C111.142588,33.2636216 105.465995,38.9402146 96.8684005,38.9402146 L89.6057867,38.9402146 C88.2282835,38.9402146 86.3083225,38.1892393 86.3083225,35.8097204 L86.3083225,12.4360533 Z" id="Fill-44"></path>
                <path d="M114.480644,13.5213394 C114.271736,12.9786866 114.187861,12.5612614 114.187861,11.9770611 C114.187861,10.2240702 115.732334,8.9719896 117.40223,8.9719896 C118.820891,8.9719896 119.697484,9.8903251 120.239746,11.0171782 L126.709642,28.3803121 L133.178953,11.0171782 C133.721606,9.8903251 134.598004,8.9719896 136.01686,8.9719896 C137.686756,8.9719896 139.231034,10.2240702 139.231034,11.9770611 C139.231034,12.5612614 139.147354,12.9786866 138.938641,13.5213394 L129.797809,36.769974 C129.255546,38.1051495 128.545923,39.1908453 126.709642,39.1908453 C124.872776,39.1908453 124.163544,38.1051495 123.620891,36.769974 L114.480644,13.5213394 Z" id="Fill-46"></path>
                <path d="M143.02777,12.2275553 C143.02777,10.1404291 144.363531,8.97202861 146.158264,8.97202861 C147.953388,8.97202861 149.288953,10.1404291 149.288953,12.2275553 L149.288953,35.9347724 C149.288953,38.0218986 147.953388,39.1906892 146.158264,39.1906892 C144.363531,39.1906892 143.02777,38.0218986 143.02777,35.9347724 L143.02777,12.2275553 Z" id="Fill-48"></path>
            </g>
        </g>
    </g>
</svg>