<?xml version="1.0" encoding="UTF-8"?> <svg xmlns="http://www.w3.org/2000/svg" width="400.542" height="91.072" viewBox="0 0 400.542 91.072"><g id="century21-viaplus-logo-neg" transform="translate(-426.5 1857.7)"><path id="Via_plus" data-name="Via plus" d="M.062-21.948H5.58L11.005-7.564h.062l5.518-14.384h5.177L12.71,0H8.835Zm25.544,6.882h4.65V0h-4.65Zm-.372-4.743a2.6,2.6,0,0,1,.79-1.906,2.6,2.6,0,0,1,1.907-.791,2.6,2.6,0,0,1,1.906.791,2.6,2.6,0,0,1,.791,1.906,2.6,2.6,0,0,1-.791,1.906,2.6,2.6,0,0,1-1.906.791,2.6,2.6,0,0,1-1.907-.791A2.6,2.6,0,0,1,25.234-19.809ZM44.826-1.891h-.062A4.373,4.373,0,0,1,42.7-.155,7.086,7.086,0,0,1,39.99.372,6.994,6.994,0,0,1,37.959.078a5.124,5.124,0,0,1-1.72-.883,4.266,4.266,0,0,1-1.178-1.457,4.45,4.45,0,0,1-.434-2.015,4.62,4.62,0,0,1,.481-2.2,4.3,4.3,0,0,1,1.3-1.488,6.466,6.466,0,0,1,1.875-.915,13.691,13.691,0,0,1,2.186-.48,20.875,20.875,0,0,1,2.263-.186q1.132-.031,2.092-.031a2.418,2.418,0,0,0-.883-1.969,3.186,3.186,0,0,0-2.093-.729,4.551,4.551,0,0,0-2.092.481,5.716,5.716,0,0,0-1.689,1.318l-2.48-2.542a8.533,8.533,0,0,1,3.038-1.814,10.858,10.858,0,0,1,3.6-.6,9.4,9.4,0,0,1,3.364.511,4.891,4.891,0,0,1,2.108,1.5,5.794,5.794,0,0,1,1.1,2.434,15.97,15.97,0,0,1,.31,3.333V0H44.826ZM43.679-6.6q-.527,0-1.318.047a6.676,6.676,0,0,0-1.519.264,3.38,3.38,0,0,0-1.24.651,1.5,1.5,0,0,0-.512,1.209,1.33,1.33,0,0,0,.713,1.24,2.983,2.983,0,0,0,1.488.4,4.666,4.666,0,0,0,1.318-.186A3.929,3.929,0,0,0,43.741-3.5a2.547,2.547,0,0,0,.791-.868,2.5,2.5,0,0,0,.294-1.24V-6.6ZM65.317-21.948H73.47a16.1,16.1,0,0,1,3.224.31,7.332,7.332,0,0,1,2.65,1.069,5.407,5.407,0,0,1,1.8,2.046,7.005,7.005,0,0,1,.666,3.24,7.474,7.474,0,0,1-.62,3.224,5.288,5.288,0,0,1-1.7,2.077,6.912,6.912,0,0,1-2.573,1.1,15.081,15.081,0,0,1-3.224.326H70.153V0H65.317Zm4.836,9.3h3.224a6.234,6.234,0,0,0,1.256-.124,3.343,3.343,0,0,0,1.085-.418A2.233,2.233,0,0,0,76.493-14a2.548,2.548,0,0,0,.295-1.286,2.176,2.176,0,0,0-.388-1.349,2.577,2.577,0,0,0-.992-.79,4.246,4.246,0,0,0-1.349-.357,13.778,13.778,0,0,0-1.426-.077h-2.48ZM86.087-23.436h4.65V0h-4.65ZM110.36,0H105.9V-2.046h-.062a5.148,5.148,0,0,1-.635.868,4.17,4.17,0,0,1-.946.775,5.5,5.5,0,0,1-1.271.558,5.3,5.3,0,0,1-1.55.217A6.507,6.507,0,0,1,98.564-.17a4.1,4.1,0,0,1-1.705-1.5,5.893,5.893,0,0,1-.806-2.263,18.481,18.481,0,0,1-.2-2.821v-8.308h4.65v7.378q0,.651.047,1.348a4.254,4.254,0,0,0,.279,1.286,2.22,2.22,0,0,0,.713.961,2.215,2.215,0,0,0,1.38.372,2.871,2.871,0,0,0,1.457-.326,2.219,2.219,0,0,0,.853-.868,3.548,3.548,0,0,0,.387-1.225,10.551,10.551,0,0,0,.093-1.426v-7.5h4.65Zm13.578-10.633a3.292,3.292,0,0,0-2.7-1.271,2.537,2.537,0,0,0-1.147.279.986.986,0,0,0-.558.961.864.864,0,0,0,.574.822,7.585,7.585,0,0,0,1.457.465l1.891.434a7.105,7.105,0,0,1,1.891.729,4.232,4.232,0,0,1,1.457,1.348,4.022,4.022,0,0,1,.574,2.278,4.219,4.219,0,0,1-.635,2.4,4.874,4.874,0,0,1-1.628,1.519,7,7,0,0,1-2.232.806,13.267,13.267,0,0,1-2.449.233,11.847,11.847,0,0,1-3.193-.45,5.965,5.965,0,0,1-2.728-1.6L117.335-4.8a4.68,4.68,0,0,0,1.441,1.224,3.886,3.886,0,0,0,1.844.419,4.31,4.31,0,0,0,1.457-.233.858.858,0,0,0,.651-.852.944.944,0,0,0-.574-.884,6.28,6.28,0,0,0-1.457-.5l-1.891-.434a7.813,7.813,0,0,1-1.891-.7,3.957,3.957,0,0,1-1.457-1.318,4.022,4.022,0,0,1-.574-2.278,4.594,4.594,0,0,1,.543-2.294,4.766,4.766,0,0,1,1.426-1.581,6.17,6.17,0,0,1,2.03-.915,9.313,9.313,0,0,1,2.325-.294,10.907,10.907,0,0,1,3.007.434,5.577,5.577,0,0,1,2.573,1.55Z" transform="translate(431 -1767)" fill="#fff"></path><path id="century21-logo-benelux" d="M214.493,26.427a9.976,9.976,0,1,1-19.953,0V0h-8.6V26.427a18.573,18.573,0,0,0,37.146,0V0h-8.6ZM22.5,8.6a14.046,14.046,0,0,1,9.552,3.821l4.882-7.111A22.479,22.479,0,1,0,22.5,45a22.349,22.349,0,0,0,14.434-5.307l-4.882-7.111A13.9,13.9,0,1,1,22.5,8.6Zm96.9,21.651L98.491,0h-8.6V45h8.6V14.752L119.4,45H128V0h-8.6ZM139.458,0V8.6h13.267V45h8.6V8.6h13.267V0ZM376.344,0V8.6h4.67V45h8.6V0ZM48.4,0V45H78.432V36.4H56.993V26.745H74.186v-8.6H56.993V8.6H78.432V0ZM269.045,15.071A15.129,15.129,0,0,0,253.974,0H234.552V45h8.6V30.248h5.519L258.856,45h10.189L258.325,29.611a15.192,15.192,0,0,0,10.719-14.54Zm-15.071,6.58H243.149V8.6h10.825a6.527,6.527,0,0,1,0,13.054ZM308.42,0,295.79,18.149,283.16,0H272.972l18.573,26.745V45h8.6V26.745L318.608,0Zm55.719,22.5.212-.318a14.4,14.4,0,0,0,2.441-7.96,11.925,11.925,0,0,0-.425-3.4,14.214,14.214,0,0,0-28.019,3.4v.531h8.6v-.531A5.662,5.662,0,0,1,352.571,8.6a5.466,5.466,0,0,1,5.625,5.625,11.929,11.929,0,0,1-1.8,4.351C355.861,19.316,338.137,45,338.137,45h29.5V36.4h-13.16l9.658-13.9Zm32.689,14.965a3.578,3.578,0,0,1,1.8.531,2.9,2.9,0,0,1,1.38,1.38,3.972,3.972,0,0,1,.531,1.91,3.578,3.578,0,0,1-.531,1.8,2.9,2.9,0,0,1-1.38,1.38,3.912,3.912,0,0,1-1.8.531,3.578,3.578,0,0,1-1.8-.531,2.9,2.9,0,0,1-1.38-1.38,3.912,3.912,0,0,1-.531-1.8,4.324,4.324,0,0,1,.531-1.91,3.45,3.45,0,0,1,1.38-1.38A3.912,3.912,0,0,1,396.828,37.465Zm0,.637a2.437,2.437,0,0,0-1.486.425,3.083,3.083,0,0,0-1.167,1.167,3,3,0,0,0-.424,1.592,2.437,2.437,0,0,0,.424,1.486,3.083,3.083,0,0,0,1.167,1.167,2.764,2.764,0,0,0,1.592.425,3,3,0,0,0,1.592-.425,3.083,3.083,0,0,0,1.167-1.167,2.653,2.653,0,0,0,.424-1.486,3,3,0,0,0-.424-1.592,3.083,3.083,0,0,0-1.167-1.167A3.639,3.639,0,0,0,396.828,38.1Zm-1.592,5.2V39.269h1.38a2.958,2.958,0,0,1,1.061.106,1.06,1.06,0,0,1,.531.425,1.508,1.508,0,0,1,.212.637.964.964,0,0,1-.318.743,1.205,1.205,0,0,1-.849.318c.106.106.212.106.318.212.212.106.318.425.637.743l.531.743H398l-.318-.637a6.765,6.765,0,0,0-.637-.955.8.8,0,0,0-.531-.106h-.637v1.7h-.637Zm.637-2.335h.743a1.015,1.015,0,0,0,.743-.212.551.551,0,0,0,.212-.425.39.39,0,0,0-.106-.318c-.106-.106-.106-.212-.318-.212a3.753,3.753,0,0,0-.637-.106h-.637v1.274Z" transform="translate(426.5 -1857.7)" fill="#beaf87"></path></g></svg> 