<?xml version="1.0" encoding="UTF-8"?>
<svg id="katman_2" data-name="katman 2" xmlns="http://www.w3.org/2000/svg" viewBox="0 0 114.69 24.3">
  <defs>
    <style>
      .cls-1 {
        fill: #fff;
        stroke-width: 0px;
      }
    </style>
  </defs>
  <g id="Layer_1" data-name="Layer 1">
    <g>
      <path class="cls-1" d="M12.15,0C5.45,0,0,5.45,0,12.15s5.45,12.15,12.15,12.15,12.15-5.45,12.15-12.15S18.85,0,12.15,0M12.15,2.71c5.21,0,9.44,4.23,9.44,9.44s-4.23,9.44-9.44,9.44S2.71,17.36,2.71,12.15,6.94,2.71,12.15,2.71"/>
      <g>
        <path class="cls-1" d="M92.88,17.46v-8.15h-4.61l.7-1.8c.16-.41.55-.68.99-.68h11.04l-.7,1.81c-.16.41-.55.66-.99.66h-3.29v8.15s-3.15,0-3.15,0Z"/>
        <path class="cls-1" d="M33.03,14.41v-4.56c0-.29.24-.53.53-.53h7.12c.44,0,.83-.27.99-.68l.7-1.8h-9.44c-.78,0-1.56.31-2.16.91-.6.6-.89,1.38-.89,2.16v4.48c0,.78.3,1.56.89,2.16.6.6,1.38.92,2.16.92h7.47c.44,0,.83-.27.99-.68l.72-1.85h-8.55c-.29,0-.53-.24-.53-.53"/>
        <path class="cls-1" d="M46.65,6.84c-.78,0-1.56.31-2.16.91-.6.6-.89,1.38-.89,2.16v7.55s3.15,0,3.15,0v-2.86h5.59c.44,0,.83-.27.99-.68l.69-1.79h-7.27v-2.29c0-.29.24-.53.53-.53h7.07c.44,0,.83-.27.99-.68l.7-1.8h0s-9.38,0-9.38,0Z"/>
        <path class="cls-1" d="M64.8,17.14l-4.14-5.67v5.99h-3.15V6.84h2.57c.37,0,.71.18.92.48l3.8,5.41,3.75-5.41c.21-.3.56-.48.93-.48h2.62v10.62h-3.15v-6.01s-4.14,5.69-4.14,5.69Z"/>
        <path class="cls-1" d="M83.95,14.4c0,.29-.24.53-.53.53h-5.67c-.29,0-.53-.24-.53-.53v-4.56c0-.29.24-.53.53-.53h5.67c.29,0,.53.24.53.53v4.56ZM84.04,6.84h-6.91c-1.7,0-3.07,1.37-3.07,3.07v4.48c0,1.7,1.38,3.07,3.08,3.07h6.9c1.7,0,3.07-1.38,3.07-3.07,0-1.49,0-2.99,0-4.48,0-1.7-1.37-3.07-3.07-3.07"/>
        <path class="cls-1" d="M111.53,14.4c0,.29-.24.53-.53.53h-5.67c-.29,0-.53-.24-.53-.53v-4.56c0-.29.24-.53.53-.53h5.67c.29,0,.53.24.53.53v4.56ZM111.62,6.84h-6.91c-1.7,0-3.07,1.37-3.07,3.07v4.48c0,1.7,1.38,3.07,3.08,3.07h6.9c1.7,0,3.07-1.38,3.07-3.07,0-1.49,0-2.99,0-4.48,0-1.7-1.37-3.07-3.07-3.07"/>
      </g>
      <path class="cls-1" d="M9.29,10.51c1.64,0,3.2.54,3.2.54,0,0,1.49.51,3.21.51,1.06,0,2.14-.15,2.83-.35.42-.12.76-.41.87-.83l.58-2.15s-1.8.52-3.52.52-3.21-.51-3.21-.51c0,0-1.57-.54-3.2-.54-1.02,0-2.12.21-2.8.37-.42.1-.75.41-.86.83l-.59,2.15h0l-1.22,4.5-.13.47s1.85-.54,3.49-.54,3.2.54,3.2.54c0,0,1.49.51,3.21.51,1.06,0,2.18-.16,2.83-.35.41-.12.76-.41.87-.83l.58-2.15s-1.8.52-3.52.52-3.21-.51-3.21-.51c0,0-1.57-.54-3.2-.54-.1,0-.21,0-.31,0l.59-2.17c.11,0,.21,0,.31,0"/>
    </g>
  </g>
</svg>