<?xml version="1.0" encoding="utf-8"?>
<!-- Generator: Adobe Illustrator 24.1.1, SVG Export Plug-In . SVG Version: 6.00 Build 0)  -->
<svg version="1.1" id="Слой_1" xmlns="http://www.w3.org/2000/svg" xmlns:xlink="http://www.w3.org/1999/xlink" x="0px" y="0px"
	 viewBox="0 0 284.9 161" style="enable-background:new 0 0 284.9 161;" xml:space="preserve">
<style type="text/css">
	.st0{fill:#FFFFFF;}
	.st1{fill-rule:evenodd;clip-rule:evenodd;fill:#263582;}
	.st2{fill:#263582;}
	.st3{fill-rule:evenodd;clip-rule:evenodd;fill:#FFFFFF;}
	.st4{clip-path:url(#SVGID_2_);fill-rule:evenodd;clip-rule:evenodd;fill:url(#SVGID_3_);}
</style>
<path class="st0" d="M278.1,130.4c-1.8,2.2-4.1,4.3-7,6.3c-7.7,5.2-18.9,9.4-32.2,12.6c-26.4,6.5-62.2,10.3-96.3,10.3
	c-34.2,0-69.8-3.8-96.3-10.3c-13.3-3.2-24.5-7.4-32.2-12.6c-2.9-2-5.2-4.1-7-6.3c-3.2-4-5.2-9-5.2-14.6V44.8c0-5,1.6-9.7,4.3-13.5
	c2-2.5,4.5-5.2,7.9-7.4c7.7-5.2,18.9-9.4,32.2-12.6c26.4-6.5,62.2-10.3,96.3-10.3c34.2,0,69.8,3.8,96.3,10.3
	c13.3,3.2,24.5,7.4,32.2,12.6c3.4,2.2,5.9,4.9,7.9,7.4c2.7,3.8,4.3,8.5,4.3,13.3c0,0,0,70.9,0,71.1
	C283.1,121.4,281.3,126.5,278.1,130.4z"/>
<path class="st1" d="M284,116L284,116V44.8c0-3.6-0.7-7.2-2.3-10.4c-0.4-0.5-0.5-1.3-0.9-1.8s-0.7-1.1-1.1-1.6l0,0
	c-1.6-2.2-3.4-4-5.4-5.6c-0.4-0.4-0.9-0.7-1.3-1.1c-0.5-0.4-0.9-0.7-1.4-0.9l0,0c-6.5-4.3-14.4-7.4-21.8-9.7
	c-1.8-0.5-3.4-1.1-5.2-1.6c-1.8-0.5-3.6-1.1-5.6-1.4l0,0c-12.2-3.1-24.8-5-37.4-6.7c-2.7-0.4-5.4-0.7-7.9-0.9
	c-16.9-1.8-34-2.7-51.1-2.7l0,0C118.5,0.3,94,2,70.3,5.7c-4.1,0.7-8.5,1.4-12.6,2.2c-4,0.7-7.7,1.6-11.7,2.5l0,0
	c-8.5,2.2-17.1,4.7-25,8.6c-1.3,0.7-2.7,1.3-4,2c-1.1,0.7-2.3,1.3-3.4,2.2l0,0h-0.2c-2.2,1.6-4.3,3.4-6.1,5.6
	c-0.4,0.4-0.7,0.7-0.9,1.1c-0.4,0.4-0.5,0.7-0.9,1.3l0,0c-1.3,1.6-2.2,3.4-2.9,5.4c-0.2,0.4-0.4,0.7-0.4,1.1
	c-0.7,2.3-1.1,4.9-1.3,7.2l0,0v71.1c0,4,1.1,7.9,2.9,11.5c0.4,0.7,0.7,1.3,1.1,2c0.4,0.5,0.9,1.3,1.3,1.8c1.4,1.8,3.1,3.4,4.9,4.7
	c0.4,0.4,0.7,0.5,1.1,0.9s0.7,0.5,1.3,0.9l0,0c6.5,4.3,14.4,7.4,21.8,9.7c1.8,0.5,3.4,1.1,5.2,1.6c1.8,0.5,3.6,1.1,5.6,1.4l0,0
	c12.2,3.1,24.8,5,37.4,6.7c2.7,0.4,5.4,0.7,7.9,0.9c16.9,1.8,34,2.7,51.1,2.7l0,0c23.9,0,48.6-1.6,72.3-5.4
	c4.1-0.7,8.5-1.4,12.6-2.2c4-0.7,7.7-1.6,11.7-2.5l0,0c8.5-2.2,17.1-4.7,25-8.6c1.3-0.7,2.7-1.3,4-2c1.1-0.7,2.3-1.3,3.4-2.2l0,0
	h0.2c2-1.3,3.8-2.9,5.6-4.5c0.4-0.4,0.5-0.5,0.9-0.9c0.4-0.4,0.5-0.5,0.7-0.9l0,0c1.4-1.8,2.5-3.6,3.4-5.8c0.2-0.4,0.4-0.7,0.5-1.3
	C283.5,121.4,284,118.7,284,116L284,116z M2.6,45L2.6,45L2.6,45c0-2.5,0.4-4.9,1.1-7c0.2-0.4,0.2-0.7,0.4-1.1c0.7-1.8,1.6-3.4,2.7-5
	c0.2-0.4,0.5-0.7,0.7-1.1C7.8,30.4,8,30,8.4,29.7c1.8-2,3.8-3.6,5.8-5l0,0h0.2c1.1-0.7,2.3-1.4,3.4-2.2c1.3-0.7,2.5-1.4,3.8-2
	c7.7-3.8,16.4-6.3,24.6-8.5l0,0l0,0c3.8-0.9,7.7-1.8,11.5-2.5c4.1-0.9,8.3-1.6,12.4-2.2c23.6-3.8,48-5.4,72-5.4l0,0
	c16.9,0,34,0.9,50.9,2.7c2.7,0.4,5.2,0.5,7.9,0.9c12.4,1.6,25,3.6,37.2,6.7l0,0c1.8,0.4,3.6,0.9,5.4,1.4c1.8,0.5,3.4,0.9,5.2,1.4
	c7.2,2.3,14.9,5.2,21.2,9.5l0,0c0.4,0.4,0.9,0.5,1.3,0.9c0.4,0.4,0.9,0.5,1.3,0.9c1.8,1.6,3.6,3.2,5.2,5.4l0,0
	c0.4,0.5,0.7,1.1,1.1,1.6c0.4,0.5,0.5,1.1,0.9,1.6c1.4,3.1,2.2,6.3,2.2,9.7v70.9l0,0v0.2c0,2.5-0.4,5.2-1.3,7.6
	c-0.2,0.4-0.4,0.7-0.4,1.1c-0.9,2-2,3.6-3.2,5.2l0,0c-0.2,0.4-0.5,0.5-0.7,0.9c-0.2,0.4-0.5,0.5-0.9,0.9c-1.6,1.6-3.4,3.1-5.2,4.3
	l0,0c-1.1,0.7-2.3,1.4-3.4,2.2c-1.3,0.7-2.5,1.4-3.8,2c-7.7,3.8-16.4,6.5-24.6,8.5l0,0c-3.8,0.9-7.7,1.8-11.5,2.5
	c-4.1,0.9-8.3,1.6-12.6,2.2c-23.6,3.8-48,5.4-72,5.4l0,0c-16.9,0-34-0.9-50.9-2.7c-2.7-0.4-5.4-0.5-7.9-0.9
	c-12.4-1.6-25-3.6-37.2-6.7l0,0c-1.8-0.5-3.6-0.9-5.4-1.4c-1.8-0.5-3.4-1.1-5.2-1.6c-7.2-2.3-14.9-5.4-21.4-9.5l0,0
	c-0.4-0.2-0.7-0.5-1.1-0.7c-0.4-0.2-0.7-0.5-1.1-0.9c-1.6-1.3-3.2-2.9-4.5-4.5c-0.4-0.5-0.9-1.1-1.3-1.6c-0.4-0.5-0.7-1.1-1.1-1.8
	c-1.8-3.2-2.7-6.8-2.7-10.6V45H2.6z"/>
<path class="st2" d="M276.3,44.8v71.1c0,3.8-1.3,7.2-3.6,9.9c-1.3,1.6-3.1,3.4-5.4,4.9c-6.8,4.5-17.1,8.5-30,11.7
	c-25.7,6.3-61,10.1-94.6,10.1c-33.8,0-68.9-3.6-94.6-10.1c-13-3.2-23.2-7.2-30-11.7c-2.3-1.6-4.1-3.2-5.4-4.9
	c-2.2-2.7-3.6-6.1-3.6-10.1V44.8c0-3.4,1.1-6.7,2.9-9.2c1.4-2,3.4-4,6.1-5.8c6.8-4.5,17.1-8.5,30-11.7c25.7-6.3,61-10.1,94.6-10.1
	c33.8,0,68.9,3.6,94.6,10.1c13,3.2,23.2,7.2,30,11.7c2.7,1.8,4.7,3.8,6.1,5.8C275.2,38.1,276.3,41.4,276.3,44.8z"/>
<path class="st3" d="M236.3,68.9v38.7c0,1.4,1.3,2.7,2.9,2.7c1.6,0,2.9-1.3,2.9-2.7V69.1c0-1.4-1.3-2.7-2.9-2.7
	S236.3,67.5,236.3,68.9L236.3,68.9z M259,88.3c0,10.8-0.9,19.8-1.8,22.5c-0.2,0.7-0.5,1.4-0.9,2.2c-4,2.9-10.4,4-16.9,4
	c-6.7,0-13-1.1-16.9-4c-0.4-0.7-0.7-1.4-0.9-2.2c-0.9-2.9-1.8-11.7-1.8-22.5s0.9-19.6,1.8-22.5c0.2-0.7,0.5-1.4,0.9-2.2
	c4-2.9,10.4-4,16.9-4c6.5,0,13,1.1,16.9,4c0.4,0.7,0.7,1.4,0.9,2.2C258.1,68.5,259,77.4,259,88.3z"/>
<path class="st0" d="M85.4,36.2v28.1c3.6-2.2,8.1-2.9,10.1-2.9c2.9,0,5.4,0.9,7.6,2.7s3.4,3.8,3.8,6.1c0.5,2.3,0.7,6.5,0.7,12.6v39
	c-5.4,0.9-10.1,0.9-15.8,0V81.8c0-3.8,0-5.4,0-6.5c0-2.2-1.8-3.2-3.1-3.2c-1.1,0-3.2,0.9-3.2,3.1c0,1.3,0,2.7,0,5.9V111
	c-6.7,0.7-11.2,0.7-16.9,0V36.2C74.4,35.3,80,35.3,85.4,36.2z"/>
<path class="st0" d="M64.3,93.9c-0.2,8.3-0.5,14.8-1.3,16.9c-0.2,0.7-0.5,1.4-0.9,2.2c-4,2.9-10.4,4-16.9,4s-13-1.1-16.9-4
	c-0.4-0.7-0.7-1.4-0.9-2.2c-0.9-2.7-1.8-11.7-1.8-22.5s0.9-19.8,1.8-22.5c0.2-0.7,0.5-1.4,0.9-2.2c4-2.9,10.4-4,16.9-4
	s13,1.1,16.9,4c0.4,0.7,0.7,1.4,0.9,2.2c0.7,2.3,1.1,8.6,1.3,17.1H48.1V69.1c0-1.4-1.3-2.7-2.9-2.7s-2.9,1.3-2.9,2.7v38.5
	c0,1.4,1.3,2.7,2.9,2.7s2.9-1.3,2.9-2.7V93.9C48.1,93.9,64.3,93.9,64.3,93.9z"/>
<path class="st0" d="M172.6,99.1c-0.2,8.3-0.5,14.8-1.3,16.9c-0.2,0.7-0.5,1.4-0.9,2.2c-4,2.9-10.4,4-16.9,4c-6.5,0-13-1.1-16.9-4
	c-0.4-0.7-0.7-1.4-0.9-2.2c-0.9-2.9-1.8-11.7-1.8-22.5s0.9-19.6,1.8-22.5c0.2-0.7,0.5-1.4,0.9-2.2c4-2.9,10.4-4,16.9-4
	c6.5,0,13,1.1,16.9,4c0.4,0.7,0.7,1.4,0.9,2.2c0.7,2.3,1.1,8.6,1.3,17.1h-16.2V74.3c0-1.4-1.3-2.7-2.9-2.7c-1.6,0-2.9,1.3-2.9,2.7
	v38.5c0,1.4,1.3,2.7,2.9,2.7c1.6,0,2.9-1.3,2.9-2.7V99.1L172.6,99.1L172.6,99.1z"/>
<path class="st0" d="M215.3,88.3c-0.2,8.3-0.5,14.8-1.3,16.9c-0.2,0.7-0.5,1.4-0.9,2.2c-4,2.9-10.4,4-16.9,4c-6.5,0-13-1.1-16.9-4
	c-0.4-0.7-0.7-1.4-0.9-2.2c-0.9-2.9-1.8-11.7-1.8-22.5s0.9-19.6,1.8-22.5c0.2-0.7,0.5-1.4,0.9-2.2c4-2.9,10.4-4,16.9-4
	c6.5,0,13,1.1,16.9,4c0.4,0.7,0.7,1.4,0.9,2.2c0.7,2.3,1.1,8.6,1.3,17.1h-16.4V63.5c0-1.4-1.3-2.7-2.9-2.7s-2.9,1.3-2.9,2.7V102
	c0,1.4,1.3,2.7,2.9,2.7c1.6,0,2.9-1.3,2.9-2.7V88.3L215.3,88.3z"/>
<path class="st0" d="M129.5,55.2v55.6c-5.6,0.9-10.6,0.9-16.9,0V55.2C117.9,54,123.3,54,129.5,55.2z"/>
<g>
	<g>
		<defs>
			<ellipse id="SVGID_1_" cx="120.5" cy="33.8" rx="15.1" ry="15.7"/>
		</defs>
		<clipPath id="SVGID_2_">
			<use xlink:href="#SVGID_1_"  style="overflow:visible;"/>
		</clipPath>
		
			<radialGradient id="SVGID_3_" cx="119.6671" cy="132.2454" r="24.7138" gradientTransform="matrix(1 0 0 -1 0 163)" gradientUnits="userSpaceOnUse">
			<stop  offset="0" style="stop-color:#DC152C"/>
			<stop  offset="0.2596" style="stop-color:#DA152C"/>
			<stop  offset="0.4185" style="stop-color:#D4152B"/>
			<stop  offset="0.5502" style="stop-color:#CA1628"/>
			<stop  offset="0.6671" style="stop-color:#BC1625"/>
			<stop  offset="0.7741" style="stop-color:#A91520"/>
			<stop  offset="0.8727" style="stop-color:#921419"/>
			<stop  offset="0.9" style="stop-color:#8B1317"/>
		</radialGradient>
		<ellipse class="st4" cx="119.7" cy="30.8" rx="24.6" ry="24.8"/>
	</g>
</g>
<path class="st3" d="M258.3,55.4c-0.7,0.7-1.1,1.8-1.1,2.9s0.4,2,1.1,2.9c0.7,0.7,1.6,1.1,2.7,1.3c1.1,0,2-0.4,2.9-1.3
	c0.7-0.7,1.1-1.8,1.1-2.9s-0.4-2-1.1-2.9c-0.7-0.7-1.6-1.3-2.9-1.3C259.9,54.3,259,54.7,258.3,55.4L258.3,55.4z M264.4,61.5
	c-0.9,0.9-2,1.4-3.2,1.4s-2.3-0.5-3.2-1.4c-0.9-0.9-1.3-2-1.3-3.2c0-1.3,0.5-2.3,1.3-3.2c0.9-0.9,2-1.4,3.2-1.4s2.3,0.4,3.2,1.4
	c0.9,0.9,1.3,2,1.3,3.2C265.6,59.5,265.3,60.6,264.4,61.5L264.4,61.5z M261.9,56.5c0.2,0.2,0.4,0.4,0.4,0.7c0,0.4-0.2,0.7-0.5,0.7
	c-0.2,0-0.5,0.2-0.9,0.2h-0.7v-1.8h0.7C261.3,56.3,261.7,56.3,261.9,56.5L261.9,56.5z M261,55.8c0.5,0,1.1,0,1.4,0.2
	c0.5,0.2,0.7,0.7,0.7,1.3c0,0.5-0.2,0.7-0.5,1.1c-0.2,0.2-0.4,0.2-0.7,0.2c0.4,0,0.7,0.2,0.9,0.5c0.2,0.2,0.2,0.5,0.2,0.7v0.4
	c0,0.2,0,0.2,0,0.4s0,0.2,0,0.2l0,0h-0.9l0,0l0,0v-0.2v-0.4c0-0.5-0.2-0.9-0.5-1.1c-0.2-0.2-0.5-0.2-0.9-0.2h-0.7v2H259v-5H261z"/>
</svg>
