<svg xmlns="http://www.w3.org/2000/svg" width="103.613" height="16.437" viewBox="0 0 103.613 16.437">
    <defs>
        <style>
            .cls-1{fill:#fff}.cls-2{fill:#da001a}.cls-3{fill:#4e000d}
        </style>
    </defs>
    <g id="CIMB_Bank_" data-name="CIMB Bank" transform="translate(-666.884 -301.245)">
        <path id="Path_1546" d="M695.746 312.25a3.561 3.561 0 1 1 0-5.578l.028.026 1.517-1.516-.036-.03a5.682 5.682 0 0 0-3.721-1.392 5.7 5.7 0 1 0 3.721 10.017l.036-.035-1.517-1.517-.028.025m3.6 2.6h2.18v-10.77h-2.18zm10.77-3.888c-.078-.144-3.8-6.9-3.8-6.9h-2.127v10.768h2.175v-6.431c.161.277 3.754 6.519 3.754 6.519s3.577-6.239 3.739-6.519v6.431h2.171v-10.773H713.9l-3.784 6.9m14.876-1.633a2.538 2.538 0 0 0 1.264-2.2c0-1.881-1.284-3.048-3.347-3.048h-4.335v10.77h4.515a2.992 2.992 0 0 0 3.318-3.121 2.532 2.532 0 0 0-1.415-2.4m-4.241-3.3h2c.832 0 1.331.444 1.331 1.186s-.5 1.184-1.331 1.184h-2zm2.129 6.871h-2.129v-2.535h2.129a1.27 1.27 0 1 1 0 2.535" class="cls-1" data-name="Path 1546"/>
        <path id="Path_1547" d="M734.859 314.811h-4.186v-10.754h4.052c1.874 0 3.172 1.071 3.172 2.868a2.476 2.476 0 0 1-1.587 2.359 2.6 2.6 0 0 1 1.751 2.553c0 1.949-1.3 2.974-3.2 2.974m-.224-9.728h-2.812v3.734h2.812c1.192 0 2.113-.592 2.113-1.875s-.921-1.859-2.113-1.859m.121 4.758h-2.933v3.945h2.933a1.98 1.98 0 1 0 0-3.945" class="cls-1" data-name="Path 1547"/>
        <path id="Path_1548" d="M740.276 314.812h-1.27l4.651-10.7h1.063l4.652 10.7H748.1L746.923 312h-5.471zm1.586-3.807h4.638l-2.31-5.619z" class="cls-1" data-name="Path 1548"/>
        <path id="Path_1549" d="M758.584 313.182h.029v-9.065h1.087v10.7h-1.36l-6.377-9.154h-.031v9.154h-1.083v-10.7h1.359z" class="cls-1" data-name="Path 1549"/>
        <path id="Path_1550" d="M763.454 308.753h.155l5.03-4.638h1.561l-5.4 4.849 5.7 5.848h-1.6l-5.259-5.515h-.184v5.515h-1.087v-10.7h1.084z" class="cls-1" data-name="Path 1550"/>
        <path id="Rectangle_599" d="M0 0h16.433v16.436H0z" class="cls-1" data-name="Rectangle 599" transform="translate(666.884 301.245)"/>
        <path id="Path_1551" d="M677.534 304.35H668.8l3.865 5.111h8.735z" class="cls-2" data-name="Path 1551"/>
        <path id="Path_1552" d="M681.4 309.461h-8.738l-3.865 5.116h8.734z" class="cls-3" data-name="Path 1552"/>
    </g>
</svg>
