<?xml version="1.0" encoding="utf-8"?>
<!-- Generator: Adobe Illustrator 14.0.0, SVG Export Plug-In . SVG Version: 6.00 Build 43363)  -->
<!DOCTYPE svg PUBLIC "-//W3C//DTD SVG 1.1//EN" "http://www.w3.org/Graphics/SVG/1.1/DTD/svg11.dtd">
<svg version="1.1" id="Layer_1" xmlns="http://www.w3.org/2000/svg" xmlns:xlink="http://www.w3.org/1999/xlink" x="0px" y="0px"
	 width="502px" height="167px" viewBox="0 0 502 167" enable-background="new 0 0 502 167" xml:space="preserve">
<g>
	<path fill="#051D49" d="M502.125,83.307c0-1.373-0.065-2.729-0.156-4.077c-2.139-31.752-29.075-56.813-62.12-57.13
		c-0.208-0.004-0.417,0-0.632,0H308.372c-20.08,0-43.253-7.84-57.311-22.065C237,14.26,213.829,22.099,193.75,22.099H62.901
		c-0.208,0-0.417-0.003-0.628,0C29.227,22.417,2.291,47.478,0.15,79.229C0.061,80.579,0,81.934,0,83.308v0.222
		c0,1.367,0.061,2.725,0.15,4.072c2.142,31.755,29.077,56.818,62.123,57.131c0.212,0.008,0.419,0,0.629,0h130.854
		c20.082,0,43.253,7.845,57.313,22.068c14.059-14.224,37.231-22.068,57.312-22.068h130.845c0.217,0,0.425,0.008,0.634,0
		c33.047-0.313,59.985-25.376,62.12-57.131c0.096-1.345,0.156-2.699,0.156-4.07v-0.217"/>
</g>
<g>
	<path fill="#FFFFFF" d="M466.156,111.055c-1.812,0-3.229-1.431-3.229-3.262c0-1.863,1.426-3.304,3.255-3.304
		c1.81,0,3.229,1.432,3.229,3.261C469.411,109.616,467.979,111.055,466.156,111.055 M466.183,103.809
		c-2.215,0-3.959,1.82-3.959,3.962v0.026c0,2.152,1.725,3.948,3.931,3.948c2.214,0,3.954-1.813,3.954-3.966v-0.018
		c0-2.144-1.722-3.939-3.927-3.939 M464.748,105.887h1.684c0.478,0,0.842,0.131,1.076,0.373c0.208,0.209,0.321,0.496,0.321,0.843
		v0.017c0,0.6-0.313,0.973-0.781,1.146l0.902,1.318h-0.955l-0.789-1.172h-0.634v1.181h-0.807v-3.688L464.748,105.887z
		 M466.38,107.684c0.398,0,0.624-0.208,0.624-0.521v-0.009c0-0.348-0.234-0.521-0.633-0.521h-0.808v1.059h0.824L466.38,107.684z
		 M409.779,111.416v0.008V111.416z M456.616,103.483V57.521l0.009-0.269c0.018-0.555,0.026-1.184-0.408-1.623
		c-0.277-0.291-0.694-0.443-1.284-0.443c-0.478,0.004-0.963,0-1.44,0h-6.297l1.013,0.833c0.043,0.032,4.209,3.486,4.209,14.14
		v27.275c0,0-34.481-33.582-37.058-36.102l-5.07-4.95c-0.432-0.425-1.293-1.154-2.191-1.206h-6.545l0.92,0.807
		c0.027,0.026,2.943,2.604,2.943,7.594l-0.005,35.243c0,3.567,0,7.125,0.009,10.692v0.26c-0.012,0.549-0.023,1.189,0.408,1.623
		c0.281,0.286,0.696,0.434,1.26,0.434h0.031c0.477-0.008,0.955-0.008,1.423-0.008l6.317-0.01l-1.015-0.807
		c-0.034-0.038-4.209-3.488-4.209-14.145v-27.25c0,0,34.484,33.583,37.057,36.102l5.068,4.947c0.434,0.425,1.293,1.141,2.195,1.193
		h5.581l-0.66-0.756c-0.021-0.03-2.234-2.615-2.234-7.641 M390.486,84.607c0,13.803-8.574,25.034-19.112,25.034
		c-10.536,0-19.11-11.229-19.11-25.036s8.575-25.045,19.11-25.045c10.543,0,19.116,11.23,19.116,25.038 M368.906,57.113
		c-14.805,1.171-25.922,13.165-25.861,27.893c0.096,7.003,1.962,12.609,5.693,17.148c5.291,6.413,13.408,10.093,22.283,10.093
		c7.834,0,15.289-3.012,20.461-8.263c5.303-5.389,8.305-12.904,8.244-20.628c-0.061-7.264-2.765-13.886-7.611-18.641
		c-6.002-5.893-13.572-8.384-23.201-7.611 M335.855,87.939l-0.026-0.025c-3.094-3.212-7.56-5.272-13.009-5.928
		c8.895-3.411,9.477-10.787,8.537-14.336c-2.361-8.9-12.475-9.521-19.78-9.521h-16.09l0.529,0.489
		c0.022,0.026,2.39,2.621,2.39,6.552v10.102c0,10.105,0,20.214,0.003,30.32c0,3.223,0.339,3.705,3.28,4.729
		c4.352,1.507,8.801,2.273,13.233,2.273c2.673,0,5.39-0.281,8.079-0.835c6.153-1.264,10.471-3.637,13.586-7.46
		c4.103-5.036,3.811-11.903-0.674-16.286L335.855,87.939z M330.153,99.093c-0.759,5.8-5.483,9.963-11.481,10.132
		c-0.494,0.018-0.96,0.021-1.402,0.021c-2.578,0-4.408-0.248-7.542-1.015c-0.521-0.13-2.235-0.708-2.235-2.782V60.715h4.166
		c6.717,0,10.805,2.354,11.403,10.165c0.323,4.265-1.612,10.11-8.517,11.093c-0.31,0.031-0.617,0.059-0.934,0.09
		c-2.977,0.33-3.498,1.822-3.515,1.883l-0.156,0.469l0.495-0.034c0.008,0,0.85-0.053,1.979-0.053c0.208,0,1.023,0.009,1.232,0.009
		c2.568,0,8.592,0.009,13.512,4.834c2.361,2.664,3.445,6.274,2.969,9.902 M288.557,101.746
		c-6.891-13.822-18.294-39.426-20.168-43.199c-0.313-0.633-0.79-1.597-1.979-1.597c-1.051,0-1.484,0.842-1.768,1.397l-23.982,48.859
		c-0.92,2.008-2.435,3.719-3.433,3.957h3.619c3.402,0,4.613-1.535,5.416-3.193l7.666-15.855l17.201,0.018
		c1.362,0,1.967,0.334,2.6,1.555c0,0,3.678,7.273,6.195,11.916c2.057,3.775,6.424,7.377,15.621,5.346
		c-3.516-0.863-4.865-4.93-6.986-9.202 M255.468,88.646l8.661-17.769l7.411,17.705L255.468,88.646L255.468,88.646z M231.828,103.305
		l0.009-32.996c0-3.336,0-6.673-0.006-10.015v-0.252c0.013-0.521,0.023-1.111-0.382-1.519c-0.263-0.269-0.651-0.417-1.206-0.417
		c-0.451,0.006-0.903,0-1.354,0h-5.895l0.955,0.781c0.04,0.032,3.943,3.263,3.943,13.244v25.544c0,0-32.301-31.442-34.714-33.803
		l-4.747-4.634c-0.408-0.399-1.213-1.076-2.057-1.125h-6.127l0.864,0.755c0.026,0.031,2.751,2.444,2.751,7.123v33.004
		c0,3.338-0.009,6.676,0,10.018l-0.009,0.252c-0.011,0.521-0.021,1.111,0.382,1.52c0.264,0.269,0.653,0.407,1.18,0.407h0.031
		c0.442-0.009,0.89-0.009,1.336-0.009l5.91-0.002l-0.946-0.758c-0.042-0.035-3.94-3.264-3.94-13.244V71.633
		c0,0,32.292,31.451,34.705,33.808l4.744,4.638c0.404,0.399,1.211,1.067,2.053,1.113h5.225l-0.616-0.705
		c-0.018-0.024-2.093-2.447-2.093-7.158 M129.749,110.766v0.004V110.766z M173.512,103.328V70.322c0-3.337,0-6.675-0.004-10.015
		l0.006-0.25c0.008-0.521,0.017-1.111-0.382-1.521c-0.265-0.271-0.654-0.415-1.209-0.415c-0.451,0.003-0.903,0-1.354,0h-5.894
		l0.95,0.781c0.041,0.029,3.94,3.263,3.94,13.241v25.541c0,0-32.292-31.451-34.705-33.811l-4.747-4.634
		c-0.408-0.399-1.207-1.085-2.05-1.128h-6.131l0.865,0.755c0.031,0.026,2.754,2.439,2.754,7.117v43.271
		c-0.012,0.512-0.021,1.103,0.382,1.519c0.26,0.27,0.651,0.399,1.18,0.399h0.026c0.445-0.009,0.894-0.009,1.336-0.009l5.91-0.009
		l-0.95-0.761c-0.039-0.035-3.94-3.264-3.94-13.244V71.633c0,0,32.292,31.451,34.705,33.808l4.745,4.638
		c0.408,0.399,1.215,1.067,2.057,1.113h5.226l-0.616-0.705c-0.026-0.024-2.097-2.447-2.097-7.158 M105.667,64.063v47.124
		l5.326,0.005c1.102,0,2.187-0.005,3.263-0.009l0.425-0.004V58.121h-12.276c1.597,0.761,3.272,2.098,3.272,5.941 M97.606,104.234
		c-0.455,0-0.792,0.33-1.059,0.59l-0.143,0.142c-6.995,6.466-15.592,9.477-25.489,8.938c-10.7-0.599-18.077-5.832-21.919-15.578
		c-3.905-9.885-3.905-20.073,0-30.278c4.087-10.684,13.014-17.062,23.871-17.062c2.621,0,5.285,0.373,7.918,1.111
		c4.227,1.189,7.385,3.905,8.67,7.438c1.228,3.393,0.611,7.281-1.706,10.657c-1.504,2.195-4.038,3.515-6.778,3.515
		c-2.482,0-4.773-1.076-6.277-2.951c-0.096-0.122-0.605-0.729-1.235-0.729c-0.241,0-0.46,0.087-0.643,0.243l-0.234,0.199
		l0.062,0.304c1.085,4.93,5.823,8.507,11.282,8.507c0.755,0,1.51-0.076,2.248-0.217c3.697-0.707,6.752-2.76,8.618-5.776
		c1.987-3.217,2.456-7.199,1.328-11.216c-1.519-5.394-5.407-9.182-11.551-11.256c-8.501-2.859-17.521-2.682-26.365,0.521
		c-10.474,3.834-17.278,11.268-20.211,22.12c-2.1,7.787-0.772,16.818-0.226,18.532c0.052,0.233,0.104,0.462,0.147,0.71
		c0.191,0.842,0.396,1.582,0.632,2.264c3.107,9.198,9.373,15.577,18.632,18.963c4.513,1.658,9.269,2.494,14.12,2.494
		c3.836,0,7.836-0.526,11.889-1.563c6.17-1.576,11.36-4.669,15.439-9.188l0.243-0.273l-0.173-0.322
		c-0.313-0.564-0.668-0.838-1.094-0.838"/>
</g>
<g>
	<path fill="#65CBC9" d="M251.06,155.928l-1.17-0.894c-15.081-11.523-36.068-18.403-56.143-18.403H62.365
		c-28.507-0.269-52.276-22.039-54.132-49.559C8.141,85.709,8.1,84.582,8.1,83.528v-0.22c0-1.05,0.042-2.174,0.13-3.532
		c1.859-27.528,25.684-49.306,54.242-49.58l131.276,0.001c20.076,0,41.064-6.877,56.143-18.396l1.17-0.896l1.171,0.896
		c15.079,11.519,36.065,18.396,56.141,18.396h131.385c28.507,0.272,52.277,22.049,54.132,49.578c0.086,1.376,0.13,2.499,0.13,3.532
		v0.221c0,1.032-0.043,2.153-0.139,3.529c-1.857,27.528-25.68,49.305-54.24,49.575l-131.278-0.008
		c-20.074,0-41.066,6.873-56.141,18.398l-1.172,0.893L251.06,155.928z M193.748,132.773c20.377,0,41.681,6.828,57.313,18.316
		c15.633-11.488,36.935-18.314,57.312-18.314l131.262,0.001c26.535-0.251,48.686-20.45,50.406-45.978
		c0.087-1.289,0.127-2.328,0.127-3.272v-0.219c0-0.946-0.035-1.985-0.121-3.273c-1.719-25.523-23.814-45.727-50.301-45.978H308.379
		c-20.377,0-41.682-6.821-57.312-18.312c-15.63,11.49-36.936,18.312-57.313,18.312H62.491C35.952,34.308,13.8,54.511,12.08,80.034
		c-0.087,1.267-0.13,2.317-0.13,3.281v0.226c0,0.971,0.035,2.013,0.122,3.29c1.718,25.522,23.813,45.709,50.3,45.961h131.365
		L193.748,132.773z"/>
</g>
</svg>
