<svg xmlns="http://www.w3.org/2000/svg" xmlns:xlink="http://www.w3.org/1999/xlink" viewBox="0 0 578.446 192.369">
  <path fill="#FFF" d="M225.86 103.022v-.004.004zm-72.91 1.19v-.004.005zm317.197-.037v-.005.005z"/>
  <defs>
    <path id="a" d="M-14.206-15.41h607v223h-607z"/>
  </defs>
  <clipPath id="b">
    <use xlink:href="#a" overflow="visible"/>
  </clipPath>
  <path fill="#051D49" d="M578.59 95.962c0-1.582-.075-3.145-.18-4.698-2.464-36.587-33.503-65.465-71.58-65.83-.24-.005-.48 0-.728 0h-150.77c-23.138 0-49.84-9.034-66.038-25.426-16.203 16.392-42.903 25.425-66.04 25.425H72.48c-.24 0-.48-.004-.724 0C33.678 25.8 2.64 54.677.173 91.263.07 92.818 0 94.38 0 95.963v.255c0 1.575.07 3.14.173 4.693 2.468 36.59 33.505 65.47 71.583 65.83.244.01.483 0 .725 0h150.78c23.14 0 49.84 9.04 66.04 25.43 16.2-16.39 42.9-25.43 66.04-25.43h150.77c.25 0 .49.01.73 0 38.08-.36 69.12-29.24 71.58-65.83.11-1.55.18-3.11.18-4.69v-.25" clip-path="url(#b)"/>
  <path fill="#FFF" d="M537.144 127.935c-2.088 0-3.72-1.648-3.72-3.758 0-2.147 1.642-3.807 3.75-3.807 2.085 0 3.72 1.65 3.72 3.758 0 2.15-1.65 3.807-3.75 3.807m.03-8.35c-2.552 0-4.562 2.098-4.562 4.566v.03c0 2.48 1.988 4.55 4.53 4.55 2.55 0 4.556-2.09 4.556-4.57v-.02c0-2.47-1.984-4.54-4.525-4.54m-1.652 2.38h1.94c.55 0 .97.15 1.24.43.24.24.37.57.37.97v.02c0 .69-.36 1.12-.9 1.32l1.04 1.52h-1.1l-.91-1.35h-.73v1.36h-.93V122zm1.88 2.07c.46 0 .72-.24.72-.6v-.01c0-.4-.27-.6-.73-.6h-.93v1.22h.95zm-65.22 4.3v.01zm53.97-9.14V66.25l.01-.31c.02-.64.03-1.364-.47-1.87-.32-.335-.8-.51-1.48-.51-.55.005-1.11 0-1.66 0h-7.256l1.167.96c.05.037 4.85 4.017 4.85 16.293v31.43s-39.732-38.697-42.7-41.6l-5.843-5.704c-.497-.49-1.49-1.33-2.526-1.39h-7.54l1.06.93c.03.03 3.39 3 3.39 8.75l-.005 40.61c0 4.11 0 8.21.01 12.32v.3c-.014.632-.027 1.37.47 1.87.324.33.803.5 1.453.5h.035c.55-.01 1.1-.01 1.64-.01l7.28-.01-1.17-.93c-.04-.044-4.85-4.02-4.85-16.298V80.18s39.736 38.698 42.7 41.6l5.84 5.7c.5.49 1.49 1.315 2.53 1.375h6.43l-.76-.87c-.025-.035-2.575-3.013-2.575-8.805m-76.23-21.72c0 15.905-9.88 28.847-22.023 28.847-12.14 0-22.02-12.94-22.02-28.848 0-15.91 9.88-28.86 22.02-28.86 12.148 0 22.027 12.94 22.027 28.85m-24.87-31.67c-17.06 1.35-29.87 15.17-29.8 32.14.11 8.07 2.26 14.53 6.56 19.76 6.097 7.39 15.45 11.63 25.677 11.63 9.027 0 17.617-3.47 23.576-9.52 6.11-6.21 9.57-14.87 9.5-23.77-.07-8.37-3.186-16-8.77-21.48-6.916-6.79-15.64-9.66-26.734-8.77M387 101.3l-.03-.03c-3.565-3.7-8.71-6.074-14.99-6.83 10.25-3.93 10.92-12.43 9.837-16.52-2.72-10.255-14.374-10.97-22.792-10.97h-18.54l.61.563c.026.03 2.753 3.02 2.753 7.55v11.64c0 11.645 0 23.292.004 34.937 0 3.714.39 4.27 3.78 5.45 5.014 1.737 10.14 2.62 15.248 2.62 3.08 0 6.21-.324 9.31-.962 7.09-1.456 12.065-4.19 15.655-8.596 4.727-5.803 4.39-13.717-.777-18.767L387 101.3zm-6.57 12.852c-.875 6.683-6.318 11.48-13.23 11.674-.57.02-1.106.026-1.616.026-2.97 0-5.08-.287-8.69-1.17-.6-.15-2.576-.816-2.576-3.205V69.93h4.8c7.74 0 12.45 2.713 13.14 11.713.372 4.914-1.858 11.65-9.814 12.782-.356.036-.71.068-1.075.104-3.43.38-4.03 2.1-4.05 2.17l-.18.54.57-.04c.01 0 .98-.06 2.28-.06.24 0 1.18.01 1.42.01 2.96 0 9.9.01 15.57 5.57 2.72 3.07 3.97 7.23 3.42 11.41m-47.9 3.08c-7.94-15.927-21.08-45.43-23.24-49.777-.36-.73-.91-1.84-2.28-1.84-1.21 0-1.71.97-2.036 1.61l-27.634 56.3c-1.06 2.314-2.805 4.285-3.956 4.56h4.17c3.92 0 5.315-1.77 6.24-3.68l8.834-18.27 19.82.02c1.57 0 2.266.384 2.996 1.792 0 0 4.237 8.38 7.138 13.73 2.37 4.35 7.402 8.5 18 6.16-4.05-.995-5.606-5.68-8.05-10.604m-38.13-15.095l9.98-20.475 8.54 20.4-18.52.074zm-27.24 16.89l.01-38.02c0-3.844 0-7.69-.007-11.54v-.29c.015-.6.026-1.28-.44-1.75-.303-.31-.75-.48-1.39-.48-.52.007-1.04 0-1.56 0h-6.793l1.1.9c.046.037 4.544 3.76 4.544 15.26v29.434s-37.22-36.23-40-38.95l-5.47-5.34c-.47-.46-1.398-1.24-2.37-1.296h-7.06l.996.87c.03.036 3.17 2.816 3.17 8.207v38.03c0 3.846-.01 7.693 0 11.544l-.01.29c-.013.6-.024 1.28.44 1.75.304.31.753.47 1.36.47h.036c.51-.01 1.025-.01 1.54-.01l6.81-.003-1.09-.873c-.048-.04-4.54-3.76-4.54-15.26V82.51s37.21 36.24 39.99 38.956l5.466 5.344c.466.46 1.396 1.23 2.366 1.283h6.02l-.71-.813c-.02-.028-2.412-2.82-2.412-8.248m-117.62 8.57v.004-.004zm50.428-8.57V81c0-3.845 0-7.692-.005-11.54l.007-.288c.01-.6.02-1.28-.44-1.752-.306-.312-.754-.478-1.394-.478-.52.004-1.04 0-1.56 0h-6.792l1.095.9c.047.034 4.54 3.76 4.54 15.257v29.43s-37.21-36.24-39.99-38.96l-5.47-5.34c-.47-.46-1.39-1.25-2.362-1.3H140.5l.996.87c.036.03 3.174 2.81 3.174 8.2v49.86c-.014.59-.024 1.27.44 1.75.3.31.75.46 1.36.46h.03c.513-.01 1.03-.01 1.54-.01l6.81-.01-1.095-.877c-.045-.04-4.54-3.76-4.54-15.26V82.51s37.21 36.24 39.99 38.956l5.467 5.344c.47.46 1.4 1.23 2.37 1.283h6.022l-.71-.813c-.03-.028-2.416-2.82-2.416-8.248m-78.18-45.244v54.3l6.137.006c1.27 0 2.52-.006 3.76-.01l.49-.005V66.94H118c1.84.877 3.77 2.418 3.77 6.846m-9.3 46.29c-.524 0-.912.38-1.22.68l-.165.163c-8.06 7.45-17.966 10.92-29.37 10.3-12.33-.69-20.83-6.72-25.257-17.95-4.5-11.39-4.5-23.13 0-34.89 4.71-12.31 14.996-19.66 27.506-19.66 3.02 0 6.09.43 9.124 1.28 4.87 1.37 8.51 4.5 9.99 8.57 1.415 3.91.704 8.39-1.965 12.28-1.733 2.53-4.653 4.05-7.81 4.05-2.86 0-5.5-1.24-7.233-3.4-.11-.14-.697-.84-1.423-.84-.278 0-.53.1-.74.28l-.27.23.072.35c1.25 5.68 6.71 9.802 13 9.802.87 0 1.74-.087 2.59-.25 4.26-.814 7.78-3.18 9.93-6.655 2.29-3.707 2.83-8.295 1.53-12.924-1.75-6.215-6.23-10.58-13.31-12.97-9.796-3.295-20.19-3.09-30.38.6C55 63.54 47.16 72.106 43.78 84.61c-2.42 8.973-.89 19.38-.26 21.354.06.27.12.532.17.818.22.97.456 1.824.728 2.608 3.58 10.6 10.8 17.95 21.47 21.852 5.2 1.91 10.68 2.873 16.27 2.873 4.42 0 9.03-.606 13.7-1.8 7.11-1.816 13.09-5.38 17.79-10.587l.28-.314-.2-.372c-.36-.65-.77-.966-1.26-.966" clip-path="url(#b)"/>
  <path fill="#65CBC9" d="M289.292 179.642l-1.348-1.03c-17.377-13.278-41.56-21.205-64.692-21.205H71.862c-32.848-.31-60.237-25.396-62.376-57.107-.105-1.57-.153-2.868-.153-4.083v-.253c0-1.21.048-2.505.15-4.07 2.142-31.72 29.595-56.814 62.502-57.13l151.267.002c23.133 0 47.317-7.925 64.692-21.198l1.348-1.032 1.35 1.032c17.375 13.273 41.557 21.198 64.69 21.198h151.392c32.848.314 60.238 25.407 62.375 57.127.1 1.586.15 2.88.15 4.07v.254c0 1.19-.05 2.482-.16 4.067-2.14 31.72-29.59 56.813-62.5 57.125l-151.27-.01c-23.13 0-47.32 7.92-64.69 21.2l-1.35 1.03zm-66.04-26.68c23.48 0 48.028 7.867 66.04 21.105 18.014-13.238 42.56-21.104 66.04-21.104l151.25.002c30.577-.29 56.1-23.564 58.083-52.98.1-1.484.146-2.682.146-3.77v-.252c0-1.09-.04-2.288-.14-3.772-1.98-29.41-27.44-52.69-57.96-52.98H355.34c-23.48 0-48.03-7.86-66.04-21.1-18.01 13.24-42.56 21.1-66.04 21.1H72.007c-30.58.29-56.105 23.57-58.088 52.98-.1 1.46-.15 2.67-.15 3.78v.26c0 1.12.04 2.32.14 3.79 1.98 29.41 27.44 52.67 57.96 52.96h151.37z" clip-path="url(#b)"/>
</svg>
