<?xml version="1.0" encoding="UTF-8"?><svg xmlns="http://www.w3.org/2000/svg" viewBox="0 0 277.73 94.91"><defs><style>.cls-1{fill:#d20a11;}.cls-1,.cls-2{stroke-width:0px;}.cls-2{fill:#fff;}</style></defs><path class="cls-1" d="m47.46,94.91C21.25,94.91,0,73.66,0,47.46S21.25,0,47.46,0h182.82c26.21,0,47.46,21.25,47.46,47.46s-21.24,47.45-47.46,47.45H47.46Z"/><path class="cls-2" d="m238.27,35.27c2.25,0,4.21-1.99,4.21-4.26s-1.96-4.16-4.21-4.16c-2.48,0-4.2,2.25-4.2,4.26s1.73,4.16,4.2,4.16Z"/><path class="cls-2" d="m188.83,50.48l-2.04-.52c-3.05-.75-5.95-1.47-6.07-3.4-.04-.68.15-1.26.58-1.72.65-.7,1.85-1.09,3.28-1.09,3.25,0,4.32,1.92,4.52,3.28,0,.2.17.36.37.36.02,0,.04,0,.05,0h5.19s.04,0,.06,0c.2,0,.36-.16.37-.36h0c-.16-5.15-4.08-8.34-10.48-8.34-6.93,0-9.91,4.02-9.91,8s2.29,6.08,8.21,7.62l1.2.31c3.1.78,5.37,1.37,5.29,3.28-.08,1.78-1.7,2.46-4.24,2.46-2.8,0-4.45-1.29-4.88-3.38-.02-.19-.18-.34-.37-.34h-5.41c-.2,0-.36.16-.37.36h0c.37,5.96,5.77,8.67,10.79,8.67,3.88,0,6.58-.95,8.58-2.93,1.87-1.86,2.02-3.74,2.05-4.7.11-3.86-1.96-6.21-6.78-7.55Z"/><path class="cls-2" d="m74.41,64.33V30.58s0,0,0,0c0-.2-.17-.37-.37-.37h-6.15c-.2,0-.37.16-.37.37h0v33.74h0c0,.21.17.37.37.37h6.15c.2,0,.37-.17.37-.37h0s0,0,0,0Z"/><path class="cls-2" d="m52.9,47.46c0,3.01-2.44,5.44-5.45,5.44s-5.45-2.44-5.45-5.44,2.44-5.45,5.45-5.45,5.45,2.44,5.45,5.45Z"/><path class="cls-2" d="m47.46,58.74c2.88,0,5.51-1.08,7.51-2.86h0c.08-.07.18-.12.29-.12.13,0,.24.05.32.14,1.25,1.25,3.88,3.88,4.51,4.5.09.08.14.2.14.32s-.06.25-.15.33h0c-3.44,3.2-7.91,4.96-12.62,4.96-10.24,0-18.57-8.33-18.57-18.57s8.33-18.57,18.57-18.57c4.71,0,9.18,1.76,12.62,4.95h0c.09.09.15.2.15.34s-.05.24-.14.32c-.63.63-3.25,3.25-4.51,4.5-.08.09-.19.14-.32.14-.11,0-.21-.05-.29-.12h0c-2-1.78-4.62-2.86-7.51-2.86-6.24,0-11.29,5.06-11.29,11.29s5.05,11.29,11.29,11.29h0Z"/><path class="cls-2" d="m135.96,48.87c-.7-6.95-4.16-10.15-11.26-10.19-5.59-.03-10.12,2.37-10.71,7.52h0s0,.03,0,.05c0,.2.17.37.37.37h5.02c.09,0,.17-.03.23-.08.06-.05.1-.11.12-.18h0c.45-1.7,2.4-2.53,4.87-2.52,5.02,0,5.69,3.29,5.79,5.78h0c0,.11-.08.19-.18.19h-12.53c-2.22,0-3.94,1.48-4.14,3.95-.06,1.04,0,2.3.42,4.46.74,3.81,4.23,7.69,10.75,7.6,7.14-.1,10.62-3.87,11.26-10.25.13-1.32.19-1.92.19-3.34s-.06-2.02-.19-3.34Zm-11.29,11.71c-4.79,0-5.65-2.76-5.57-4.93.02-.57.2-1.03,1.17-1.03h9.93c.1,0,.18.09.18.19-.1,2.42-.75,5.77-5.72,5.77Z"/><path class="cls-2" d="m83.25,55.59c.7,6.95,4.16,10.15,11.26,10.19,5.6.03,10.13-2.37,10.72-7.52h0s0-.03,0-.05c0-.2-.17-.37-.37-.37h-5.02c-.09,0-.17.03-.23.08-.06.05-.1.11-.12.18h0c-.45,1.7-2.4,2.53-4.87,2.52-5.02,0-5.69-3.29-5.79-5.78h0c0-.1.08-.19.19-.19h12.53c2.22,0,3.93-1.48,4.14-3.95.06-1.04,0-2.3-.42-4.46-.74-3.81-4.23-7.69-10.75-7.59-7.14.1-10.62,3.87-11.26,10.25-.13,1.32-.19,1.92-.19,3.34s.06,2.02.19,3.34Zm11.29-11.71c4.79,0,5.65,2.76,5.56,4.93-.02.57-.2,1.03-1.17,1.03h-9.93c-.1,0-.19-.09-.19-.19.1-2.42.76-5.77,5.72-5.77Z"/><path class="cls-2" d="m214.67,65.78c7.12,0,10.93-3.62,10.93-10.19v-15.48c0-.21-.17-.39-.38-.39h-5.52c-.21,0-.38.17-.38.39v2.2s0,12.39,0,12.39c0,3.67-1.34,5.07-4.63,5.07s-4.63-1.4-4.63-5.07v-12.39s0-2.2,0-2.2c0-.21-.18-.39-.39-.39h-5.52c-.21,0-.39.17-.39.39v2.25s0,13.24,0,13.24c0,6.57,3.8,10.19,10.93,10.19Z"/><path class="cls-2" d="m155.33,38.65c-7.12,0-10.93,3.62-10.93,10.19v15.49c0,.21.17.38.38.38h5.52c.21,0,.39-.17.39-.38v-2.2s0-12.39,0-12.39c0-3.67,1.34-5.07,4.63-5.07s4.63,1.4,4.63,5.07v12.39s0,2.2,0,2.2c0,.21.17.38.39.38h5.52c.21,0,.39-.17.39-.38v-2.25s0-13.24,0-13.24c0-6.57-3.8-10.19-10.93-10.19Z"/><path class="cls-2" d="m235.27,39.71h5.98c.21,0,.39.17.39.39v24.22c0,.21-.17.38-.38.38h-5.98c-.21,0-.39-.17-.39-.39v-24.22c0-.21.17-.39.39-.39Z"/></svg>