<?xml version="1.0" encoding="utf-8"?>
<!-- Generator: Adobe Illustrator 27.0.0, SVG Export Plug-In . SVG Version: 6.00 Build 0)  -->
<svg version="1.1" id="Layer_1" xmlns="http://www.w3.org/2000/svg" xmlns:xlink="http://www.w3.org/1999/xlink" x="0px" y="0px"
	 viewBox="0 0 272 101" style="enable-background:new 0 0 272 101;" xml:space="preserve">
<style type="text/css">
	.st0{fill:#2A5EEC;}
	.st1{fill-rule:evenodd;clip-rule:evenodd;fill:#2A5EEC;}
</style>
<g id="CI_x5F_Logo_x5F_Spanish_x5F_Black_00000015340660562748583040000013994951144397668523_">
	<path class="st0" d="M116.6,61.2c1.1,0.3,1.6,1,1.6,2v27c0,0.5,0,0.9,0,1.2h0v1.2h0c-0.1,1.1-0.4,1.9-0.9,2.4
		c-0.6,0.6-1.6,0.9-3.2,0.9h-0.6v1.3H128V96h-1.5c-1.3,0-2.3-0.2-3-0.8c-0.7-0.6-1-1.4-1.1-2.5v-2.4h0v-9.4c0.4,0.1,0.8,0.3,1.2,0.4
		c1.7,0.6,3.2,0.8,4.4,0.8c1.7,0,3.2-0.3,4.7-0.9c1.6-0.7,3.1-1.7,4.4-3.2c2.6-2.8,3.9-6,3.9-9.7c0-3-0.9-5.7-2.7-7.9
		c-1.8-2.3-4-3.5-6.3-3.5c-2.4,0-5.6,1.5-9.5,4.5v-5.8H121l-6.4,3.9v1.2L116.6,61.2L116.6,61.2z M128.9,60c1.9,0,3.7,0.8,5.2,2.5
		c1.8,2.1,2.8,5,2.8,8.6c0,2.5-0.7,4.7-2.1,6.4c-1.4,1.8-3.1,2.7-5.1,2.7c-2.4,0-4.8-1.1-7.3-3.2V63C124.7,61,126.9,60,128.9,60
		L128.9,60z"/>
	<path class="st0" d="M111.6,66c0-6.1-2-9.2-6.1-9.2c-2,0-5.6,1.6-10.8,4.9c-0.7-3.3-2.6-4.9-5.8-4.9c-0.7,0-1.5,0.1-2.4,0.3
		c-2.3,0.6-5.2,2.2-8.5,4.6v-4.9H77l-7.4,2.5v1l2.4,0.3c0.8,0.1,1.4,0.5,1.6,1c0.1,0.4,0.2,1,0.2,2.1v12c0,1.6-0.3,2.9-0.9,3.6
		c-0.6,0.7-1.8,1.1-3.5,1.1v1.2h12.8v-1.2c-1.7,0-2.8-0.2-3.3-0.6c-0.7-0.5-1-1.6-1-3.2v-14c3.6-2.4,6.3-3.5,8.2-3.5
		c0.1,0,0.2,0,0.3,0c1.1,0.1,2,0.5,2.8,1.2c1,1,1.5,2.3,1.5,4.1v11.4c0,1.7-0.4,3-1.1,3.7c-0.6,0.6-1.7,1-3.1,1c-0.1,0-0.3,0-0.5,0
		v1.2h12.6v-1.2c-1.5,0-2.5-0.2-3-0.8c-0.5-0.5-0.8-1.5-0.8-3V62.7c3.5-2.3,6.2-3.4,8.2-3.4c3.1,0,4.6,2.3,4.6,7V71
		c0,5.2-0.3,8-0.9,8.6c-0.6,0.6-1.7,0.9-3.2,0.9h-0.6v1.2h13.8v-1.2h-2c-2.2,0-3.3-0.9-3.2-2.8C111.6,74.5,111.6,70.5,111.6,66
		L111.6,66z"/>
	<path class="st0" d="M65.4,60.5c-2.5-2.5-5.6-3.7-9.3-3.7c-3.5,0-6.5,1.1-9.1,3.3c-2.8,2.4-4.2,5.6-4.2,9.7c0,3.6,1.3,6.6,3.8,9.1
		c2.5,2.4,5.8,3.6,9.6,3.6c3.6,0,6.7-1.2,9.2-3.7c2.5-2.5,3.8-5.5,3.8-9.1C69.2,66,67.9,63,65.4,60.5L65.4,60.5z M61.8,62.1
		c1.8,2.5,2.8,5.6,2.8,9.1c0,2.9-0.9,5.3-2.5,7.2c-1.5,1.7-3.2,2.6-5.2,2.6c-2.7,0-4.9-1.3-6.7-3.8c-1.8-2.6-2.8-5.8-2.8-9.5
		c0-2.6,0.7-4.8,2.3-6.7c1.5-1.9,3.4-2.8,5.4-2.8C57.7,58.2,60,59.5,61.8,62.1L61.8,62.1z"/>
	<path class="st0" d="M270,81.7v-1.2h-1.3c-2.3,0-3.5-0.8-3.4-2.4c0.1-1.3,0.2-2.6,0.2-3.9c0.2-2.2,0.2-5,0.2-8.2
		c0-6.1-2.2-9.1-6.6-9.1c-1.4,0-3,0.5-4.8,1.4c-1.1,0.5-3,1.6-5.8,3.3v-4.7h-0.9l-7.1,2.5v1l2.1,0.4c0.9,0.1,1.4,0.5,1.6,1
		c0.1,0.2,0.2,0.9,0.2,2v12.9c0,2.6-1.4,3.8-4.1,3.8v1.2h12.3v-1.2c-1.7,0-2.8-0.3-3.3-0.8c-0.6-0.5-0.8-1.6-0.8-3.3V63.2
		c3.8-2.6,6.5-3.9,8.2-3.9c3.2,0,4.8,2.1,4.8,6.4c0,8.3-0.4,12.8-1.2,13.7c-0.8,0.8-2,1.2-3.6,1.2v1.2H270L270,81.7z"/>
	<path class="st0" d="M236.8,60.8c-0.1-0.1-0.2-0.2-0.3-0.3c-2.5-2.5-5.7-3.7-9.4-3.7c-3.5,0-6.5,1.1-9,3.3
		c-2.8,2.4-4.3,5.6-4.3,9.7c0,3.6,1.3,6.6,3.9,9.1c1,1,2.2,1.8,3.5,2.4c1.8,0.8,3.8,1.2,6,1.2c0.7,0,1.3,0,2-0.1
		c2.8-0.4,5.2-1.6,7.3-3.6c0.1-0.1,0.2-0.2,0.3-0.3c2.3-2.4,3.4-5.3,3.4-8.8C240.3,66.2,239.1,63.2,236.8,60.8L236.8,60.8z
		 M226.2,58.2c2.5,0,4.7,1.3,6.6,3.8c1.8,2.5,2.8,5.6,2.8,9.1c0,2.9-0.8,5.3-2.5,7.2c-1.5,1.7-3.3,2.6-5.2,2.6
		c-2.7,0-4.9-1.3-6.7-3.8c-1.8-2.6-2.8-5.8-2.8-9.5c0-2.6,0.8-4.8,2.4-6.7C222.4,59.2,224.2,58.2,226.2,58.2L226.2,58.2z"/>
	<path class="st0" d="M209.6,56.5h-0.9l-7.9,2.8v0.9l2.9,0.6c0.9,0.2,1.5,0.5,1.7,1c0.1,0.3,0.1,1,0.1,2.1v12.3
		c0,1.6-0.4,2.8-1.1,3.5c-0.8,0.7-2.1,1-3.9,1v1.2H214v-1.2c-3,0-4.4-1.2-4.4-3.5V56.5L209.6,56.5z"/>
	<path class="st0" d="M196.7,63.4l-0.1-5.6c-1.6-0.6-3.3-1-4.9-0.9c-2.3,0-4.2,0.6-5.6,1.9c-1.5,1.2-2.2,2.9-2.2,5
		c0,1.5,0.5,2.8,1.4,3.8c0.6,0.6,1.7,1.5,3.6,2.7c1.8,1.2,3.2,2.3,4.2,3.3c1.3,1.3,2,2.5,2,3.7c0,1.2-0.4,2.1-1.3,2.9
		c-0.6,0.6-1.3,0.9-2.1,1.1c-0.3,0-0.6,0.1-1,0.1c-0.3,0-0.7,0-1-0.1c-1-0.2-1.9-0.7-2.7-1.5c-1.1-1-1.8-2.4-2.2-4.3h-1l0.7,6.9h0.9
		c0.3-0.6,0.7-0.8,1-0.8c0.4,0,1.1,0.1,2,0.4c0.9,0.3,1.7,0.4,2.4,0.4c1.7,0,3.1-0.4,4.5-1.2c0.3-0.2,0.6-0.5,0.9-0.8
		c1.5-1.4,2.2-3,2.2-5c0-2.1-1-4-2.9-5.7c-1.8-1.3-3.7-2.5-5.5-3.8c-1.9-1.3-2.9-2.8-2.9-4.2c0-1,0.3-1.8,1.1-2.5
		c0.7-0.7,1.6-1,2.6-1c1.2,0,2.3,0.5,3.2,1.4c0.9,0.9,1.5,2.2,1.7,3.8H196.7L196.7,63.4z"/>
	<path class="st0" d="M179.4,63.4l-0.2-5.6c-1.6-0.6-3.2-1-4.9-0.9c-2.3,0-4.2,0.6-5.6,1.9c-1.4,1.2-2.2,2.9-2.2,5
		c0,1.5,0.5,2.8,1.4,3.8c0.6,0.6,1.7,1.5,3.6,2.7c1.8,1.2,3.2,2.3,4.2,3.3c1.3,1.3,2,2.5,2,3.7c0,1.2-0.4,2.1-1.3,2.9
		c-0.6,0.6-1.3,0.9-2.1,1.1c-0.3,0-0.6,0.1-1,0.1c-0.3,0-0.6,0-0.9-0.1c-1-0.2-1.9-0.7-2.7-1.5c-1.1-1-1.8-2.4-2.1-4.3h-1l0.7,6.9
		h0.9c0.3-0.6,0.7-0.8,1.1-0.8c0.4,0,1,0.1,2,0.4c0.9,0.3,1.7,0.4,2.4,0.4c1.7,0,3.1-0.4,4.4-1.2c0.3-0.2,0.7-0.5,1-0.8
		c1.4-1.4,2.2-3,2.2-5c0-2.1-1-4-2.9-5.7c-1.8-1.3-3.7-2.5-5.5-3.8c-2-1.3-2.9-2.8-2.9-4.2c0-1,0.3-1.8,1.1-2.5c0.7-0.7,1.6-1,2.7-1
		c1.2,0,2.3,0.5,3.2,1.4c0.9,0.9,1.5,2.2,1.7,3.8H179.4L179.4,63.4z"/>
	<path class="st0" d="M161.5,79.5c-0.7,0-1.2-0.4-1.4-1.1c-0.1-0.7-0.2-2.3-0.2-4.9v-8.2c0-2.7-0.3-4.4-0.9-5.3
		c-1.6-2.2-3.7-3.2-6.5-3.2c-1.9,0-3.9,0.8-6,2.6c-2.1,1.8-3.1,3.3-3.1,4.5c0,0.2,0,0.5,0.2,0.8l4.2-2c-0.2-0.5-0.3-0.9-0.3-1.2
		c0-0.7,0.4-1.4,1.2-2.1c0.8-0.6,1.6-1,2.7-0.9c1.3,0,2.4,0.6,3.4,1.7c0.7,0.8,1,2.2,1,3.9v4.9c-1.8,1.1-3.6,1.9-5.4,2.3
		c-2.4,0.6-4,1.2-5.1,2c-1.4,1-2.1,2.3-2.1,4c0,1.5,0.5,2.8,1.5,3.7c0.1,0,0.1,0.1,0.2,0.1c1,0.8,2.3,1.2,4,1.2c1,0,1.8-0.2,2.6-0.6
		c0.4-0.2,0.8-0.4,1.2-0.7c0.9-0.6,2-1.5,3.3-2.5c0.1,1,0.3,1.9,0.6,2.5c0.5,0.8,1.2,1.2,2.2,1.2c0.8,0,1.9-0.4,3.2-1.2
		c0.9-0.6,1.8-1.3,2.9-2.1l-0.3-0.9C163.4,79.1,162.4,79.5,161.5,79.5L161.5,79.5z M152.2,72c1.5-0.6,2.7-1.2,3.6-1.7v7.3
		c-2.6,1.8-4.3,2.7-5.1,2.7c-1,0-1.8-0.3-2.5-1c-0.8-0.7-1.1-1.6-1.1-2.6c0-1.2,0.4-2.1,1.2-2.7C148.8,73.6,150.2,72.9,152.2,72
		L152.2,72z"/>
	<path class="st0" d="M61.2,49.7l-0.9,1.8h-5.1v-0.2h0.4c0.3,0,0.4-0.1,0.6-0.2c0.1-0.1,0.2-0.3,0.2-0.7v-5.6c0-0.3-0.1-0.6-0.2-0.7
		c-0.1-0.1-0.4-0.2-0.7-0.2h-0.2v-0.2h3.3v0.2h-0.4c-0.4,0-0.6,0-0.7,0.1c-0.1,0.1-0.2,0.4-0.2,0.7v5.8c0,0.3,0.2,0.5,0.5,0.5h1.7
		c0.3,0,0.6-0.1,0.8-0.3c0.2-0.2,0.4-0.5,0.8-1.1H61.2L61.2,49.7z"/>
	<path class="st1" d="M63.2,46.3v4.2c0,0.5,0.3,0.7,0.8,0.7v0.2h-2.5v-0.2c0.3,0,0.6-0.1,0.7-0.2c0.1-0.1,0.2-0.4,0.2-0.7v-2.5
		c0-0.2,0-0.4,0-0.4c0-0.1-0.2-0.2-0.3-0.2l-0.5-0.1v-0.2l1.5-0.6H63.2L63.2,46.3z M62.2,43.9c0-0.1,0-0.2,0.1-0.3
		c0.1-0.1,0.2-0.1,0.3-0.1c0.1,0,0.3,0,0.4,0.1c0.1,0.1,0.1,0.2,0.1,0.3c0,0.1,0,0.2-0.1,0.3c-0.1,0.1-0.2,0.1-0.4,0.1
		c-0.1,0-0.3,0-0.3-0.1C62.3,44.2,62.2,44.1,62.2,43.9L62.2,43.9z"/>
	<path class="st1" d="M65.9,43v4.2c0.7-0.6,1.3-0.9,1.7-0.9c0.5,0,0.9,0.2,1.3,0.7c0.4,0.5,0.5,1.1,0.5,1.7c0,0.8-0.3,1.5-0.8,2
		c-0.5,0.5-1.1,0.8-1.9,0.8c-0.4,0-0.9-0.1-1.7-0.2v-6.8c0-0.3,0-0.5-0.1-0.6s-0.2-0.1-0.4-0.2l-0.3-0.1v-0.2l1.4-0.5H65.9L65.9,43z
		 M65.9,47.5V50c0,0.4,0.1,0.7,0.3,0.9c0.2,0.3,0.5,0.4,0.9,0.4c0.5,0,0.8-0.2,1.1-0.6c0.3-0.4,0.4-0.9,0.4-1.5
		c0-0.6-0.1-1.2-0.4-1.6c-0.3-0.4-0.7-0.6-1.1-0.6C66.8,46.9,66.4,47.1,65.9,47.5L65.9,47.5z"/>
	<path class="st1" d="M74.5,48.3h-3.3c0,0.3,0,0.4,0,0.5c0,0.6,0.2,1.2,0.5,1.6c0.3,0.4,0.7,0.6,1.2,0.6c0.5,0,1-0.3,1.4-0.8
		l0.1,0.2c-0.6,0.9-1.3,1.3-2,1.3c-0.6,0-1-0.2-1.4-0.7c-0.4-0.5-0.6-1.1-0.6-1.8c0-0.7,0.2-1.3,0.6-1.9c0.4-0.6,1-0.8,1.6-0.8
		c0.5,0,0.8,0.1,1.1,0.3c0.2,0.2,0.3,0.4,0.5,0.7c0.2,0.3,0.3,0.5,0.3,0.6V48.3L74.5,48.3z M71.2,48h2.3c-0.1-0.4-0.2-0.7-0.4-1
		c-0.2-0.2-0.4-0.4-0.7-0.4C71.8,46.6,71.4,47.1,71.2,48L71.2,48z"/>
	<path class="st0" d="M76.7,48.1v2.5c0,0.3,0.1,0.4,0.2,0.5c0.1,0.1,0.3,0.1,0.6,0.1h0.4v0.2h-2.7v-0.2c0.3,0,0.5-0.1,0.6-0.2
		c0.1-0.1,0.2-0.4,0.2-0.7v-2.9l-0.8-0.3v-0.2l1.3-0.5h0.2v1.3h0c0.3-0.6,0.5-0.9,0.6-1c0.1-0.2,0.3-0.3,0.5-0.3
		c0.1,0,0.2,0,0.4,0.1c0.1,0,0.3,0.1,0.6,0.2l-0.3,0.8c-0.2,0-0.4-0.1-0.6-0.2c-0.2-0.1-0.3-0.1-0.4-0.1c-0.2,0-0.3,0.1-0.4,0.3
		C76.9,47.7,76.8,48,76.7,48.1L76.7,48.1z"/>
	<path class="st1" d="M80,47.6L79.2,48c0-0.1,0-0.1,0-0.2c0-0.2,0.2-0.5,0.6-0.9c0.4-0.4,0.8-0.5,1.1-0.5c0.5,0,0.9,0.2,1.2,0.7
		c0.1,0.2,0.2,0.5,0.2,1.1v1.7c0,0.5,0,0.9,0,1c0,0.2,0.1,0.2,0.3,0.2c0.2,0,0.4-0.1,0.6-0.3l0.1,0.2c-0.5,0.5-0.9,0.7-1.1,0.7
		c-0.3,0-0.5-0.3-0.5-0.8c-0.4,0.3-0.6,0.5-0.8,0.7c-0.1,0.1-0.3,0.1-0.5,0.1c-0.3,0-0.6-0.1-0.8-0.3c-0.2-0.2-0.3-0.4-0.3-0.8
		c0-0.4,0.1-0.6,0.4-0.8c0.2-0.2,0.5-0.3,0.9-0.4c0.3-0.1,0.7-0.3,1-0.5v-1c0-0.4-0.1-0.6-0.2-0.8c-0.2-0.2-0.4-0.4-0.6-0.4
		c-0.2,0-0.3,0.1-0.5,0.2c-0.1,0.1-0.2,0.3-0.2,0.4C79.9,47.4,79.9,47.5,80,47.6L80,47.6z M81.4,50.7v-1.5c-0.2,0.1-0.4,0.2-0.7,0.4
		c-0.4,0.2-0.6,0.3-0.7,0.4c-0.1,0.1-0.2,0.3-0.2,0.6c0,0.2,0.1,0.4,0.2,0.5c0.1,0.1,0.3,0.2,0.5,0.2C80.6,51.2,81,51,81.4,50.7
		L81.4,50.7z"/>
	<path class="st0" d="M85,47.7v2.7c0,0.3,0,0.6,0.1,0.7c0.1,0.1,0.3,0.2,0.6,0.2v0.2h-2.3v-0.2c0.5,0,0.8-0.3,0.8-0.8v-2.7
		c0-0.2,0-0.3,0-0.4c0-0.1-0.1-0.2-0.3-0.2l-0.4-0.1v-0.2l1.3-0.5H85v1c0.5-0.4,0.9-0.6,1.1-0.7c0.3-0.2,0.6-0.3,0.9-0.3
		c0.8,0,1.2,0.6,1.2,1.9c0,0.7,0,1.2,0,1.7c0,0.3,0,0.5,0,0.8c0,0.3,0.2,0.5,0.6,0.5h0.2v0.2h-2.4v-0.2c0.3,0,0.5-0.1,0.7-0.3
		c0.1-0.2,0.2-1.1,0.2-2.8c0-0.9-0.3-1.3-0.9-1.3C86.2,46.9,85.7,47.1,85,47.7L85,47.7z"/>
	<path class="st1" d="M93.1,46.6v-2.5c0-0.1,0-0.2-0.1-0.3c0,0-0.1-0.1-0.3-0.1l-0.4-0.1v-0.2l1.6-0.5v7.4c0,0.3,0.1,0.5,0.3,0.5
		c0.1,0,0.1,0,0.2,0l0.3-0.1V51l-1.5,0.6h-0.1v-0.9c-0.7,0.6-1.3,0.9-1.8,0.9c-0.5,0-0.9-0.2-1.3-0.7c-0.4-0.5-0.5-1.1-0.5-1.7
		c0-0.8,0.2-1.5,0.7-2c0.5-0.6,1.1-0.8,1.7-0.8C92.4,46.4,92.8,46.4,93.1,46.6L93.1,46.6z M93.1,50.5v-2.8c-0.4-0.6-0.8-0.9-1.3-0.9
		c-0.4,0-0.8,0.2-1.1,0.6c-0.3,0.4-0.4,0.9-0.4,1.5c0,0.6,0.1,1.2,0.4,1.6c0.3,0.5,0.6,0.7,1,0.7C92.2,51.1,92.6,50.9,93.1,50.5
		L93.1,50.5z"/>
	<path class="st1" d="M95.3,49c0-0.8,0.3-1.5,0.8-2c0.5-0.5,1-0.7,1.7-0.7c0.7,0,1.3,0.3,1.7,0.8c0.5,0.5,0.7,1.1,0.7,1.9
		c0,0.7-0.2,1.4-0.7,1.9c-0.5,0.5-1,0.8-1.7,0.8c-0.7,0-1.3-0.3-1.8-0.8C95.5,50.4,95.3,49.8,95.3,49L95.3,49z M96.1,48.6
		c0,0.8,0.2,1.4,0.5,1.9c0.3,0.5,0.8,0.8,1.2,0.8c0.4,0,0.7-0.2,1-0.5c0.3-0.4,0.5-0.9,0.5-1.5c0-0.7-0.2-1.3-0.5-1.9
		c-0.3-0.5-0.8-0.8-1.2-0.8c-0.4,0-0.7,0.2-1,0.6C96.3,47.6,96.1,48.1,96.1,48.6L96.1,48.6z"/>
	<path class="st1" d="M105.1,47.6l-0.8,0.4c0-0.1,0-0.1,0-0.2c0-0.2,0.2-0.5,0.6-0.9c0.4-0.4,0.8-0.5,1.1-0.5c0.5,0,0.9,0.2,1.2,0.7
		c0.1,0.2,0.2,0.5,0.2,1.1v1.7c0,0.5,0,0.9,0,1c0,0.2,0.1,0.2,0.3,0.2c0.2,0,0.4-0.1,0.6-0.3l0.1,0.2c-0.5,0.5-0.9,0.7-1.1,0.7
		c-0.3,0-0.5-0.3-0.5-0.8c-0.4,0.3-0.6,0.5-0.8,0.7c-0.1,0.1-0.3,0.1-0.5,0.1c-0.3,0-0.6-0.1-0.8-0.3c-0.2-0.2-0.3-0.4-0.3-0.8
		c0-0.4,0.1-0.6,0.4-0.8c0.2-0.2,0.5-0.3,0.9-0.4c0.3-0.1,0.7-0.3,1-0.5v-1c0-0.4-0.1-0.6-0.2-0.8c-0.2-0.2-0.4-0.4-0.6-0.4
		c-0.2,0-0.3,0.1-0.5,0.2c-0.1,0.1-0.2,0.3-0.2,0.4C105.1,47.4,105.1,47.5,105.1,47.6L105.1,47.6z M106.6,50.7v-1.5
		c-0.2,0.1-0.4,0.2-0.7,0.4c-0.4,0.2-0.6,0.3-0.7,0.4c-0.1,0.1-0.2,0.3-0.2,0.6c0,0.2,0.1,0.4,0.2,0.5c0.1,0.1,0.3,0.2,0.5,0.2
		C105.8,51.2,106.1,51,106.6,50.7L106.6,50.7z"/>
	<path class="st0" d="M113.3,43v7.5c0,0.5,0.2,0.8,0.7,0.8h0.2v0.2h-2.6v-0.2c0.4,0,0.6-0.1,0.7-0.2c0.1-0.1,0.2-0.3,0.2-0.7v-6.1
		c0-0.2,0-0.3-0.1-0.4c0-0.1-0.1-0.1-0.3-0.1l-0.5-0.1v-0.2l1.5-0.5H113.3L113.3,43z"/>
	<path class="st1" d="M114.7,49c0-0.8,0.3-1.5,0.8-2c0.5-0.5,1-0.7,1.7-0.7c0.7,0,1.3,0.3,1.7,0.8c0.5,0.5,0.7,1.1,0.7,1.9
		c0,0.7-0.2,1.4-0.7,1.9c-0.5,0.5-1,0.8-1.7,0.8c-0.7,0-1.3-0.3-1.8-0.8C114.9,50.4,114.7,49.8,114.7,49L114.7,49z M115.6,48.6
		c0,0.8,0.2,1.4,0.5,1.9c0.3,0.5,0.8,0.8,1.2,0.8c0.4,0,0.7-0.2,1-0.5c0.3-0.4,0.5-0.9,0.5-1.5c0-0.7-0.2-1.3-0.5-1.9
		c-0.3-0.5-0.8-0.8-1.2-0.8c-0.4,0-0.7,0.2-1,0.6C115.7,47.6,115.6,48.1,115.6,48.6L115.6,48.6z"/>
	<path class="st0" d="M120.5,50.2h0.2c0.1,0.4,0.2,0.7,0.4,0.9c0.2,0.2,0.4,0.3,0.7,0.3c0.2,0,0.4-0.1,0.6-0.2
		c0.2-0.2,0.2-0.4,0.2-0.6c0-0.2-0.1-0.5-0.4-0.8c-0.2-0.2-0.4-0.4-0.8-0.7c-0.3-0.2-0.6-0.4-0.7-0.6c-0.2-0.2-0.3-0.5-0.3-0.8
		c0-0.4,0.1-0.8,0.4-1c0.3-0.3,0.6-0.4,1-0.4c0.3,0,0.6,0.1,0.9,0.2l0,1.1h-0.2c0-0.3-0.1-0.6-0.3-0.8c-0.2-0.2-0.4-0.3-0.6-0.3
		c-0.2,0-0.4,0.1-0.5,0.2c-0.1,0.1-0.2,0.3-0.2,0.5c0,0.3,0.2,0.6,0.5,0.9c0.3,0.3,0.7,0.5,1,0.8c0.4,0.3,0.5,0.7,0.5,1.2
		c0,0.4-0.1,0.8-0.4,1c-0.3,0.3-0.6,0.4-1,0.4c-0.1,0-0.3,0-0.4-0.1c-0.2-0.1-0.3-0.1-0.4-0.1c-0.1,0-0.1,0.1-0.2,0.2h-0.2
		L120.5,50.2L120.5,50.2z"/>
	<path class="st0" d="M128.5,47.7v2.7c0,0.3,0,0.6,0.1,0.7c0.1,0.1,0.3,0.2,0.6,0.2v0.2H127v-0.2c0.5,0,0.8-0.3,0.8-0.8v-2.7
		c0-0.2,0-0.3,0-0.4c0-0.1-0.1-0.2-0.3-0.2l-0.4-0.1v-0.2l1.3-0.5h0.2v1c0.5-0.4,0.9-0.6,1.1-0.7c0.3-0.2,0.6-0.3,0.9-0.3
		c0.8,0,1.2,0.6,1.2,1.9c0,0.7,0,1.2,0,1.7c0,0.3,0,0.5,0,0.8c0,0.3,0.2,0.5,0.6,0.5h0.2v0.2H130v-0.2c0.3,0,0.5-0.1,0.7-0.3
		c0.1-0.2,0.2-1.1,0.2-2.8c0-0.9-0.3-1.3-0.9-1.3C129.7,46.9,129.2,47.1,128.5,47.7L128.5,47.7z"/>
	<path class="st1" d="M134.5,46.3v4.2c0,0.5,0.3,0.7,0.8,0.7v0.2h-2.5v-0.2c0.3,0,0.6-0.1,0.7-0.2c0.1-0.1,0.2-0.4,0.2-0.7v-2.5
		c0-0.2,0-0.4,0-0.4c0-0.1-0.2-0.2-0.3-0.2l-0.5-0.1v-0.2l1.5-0.6H134.5L134.5,46.3z M133.6,43.9c0-0.1,0-0.2,0.1-0.3
		c0.1-0.1,0.2-0.1,0.3-0.1c0.1,0,0.3,0,0.4,0.1c0.1,0.1,0.1,0.2,0.1,0.3c0,0.1,0,0.2-0.1,0.3c-0.1,0.1-0.2,0.1-0.4,0.1
		c-0.1,0-0.3,0-0.3-0.1C133.6,44.2,133.6,44.1,133.6,43.9L133.6,43.9z"/>
	<path class="st1" d="M137.4,47.7v2.7c0,0.3,0,0.6,0.1,0.7c0.1,0.1,0.3,0.2,0.6,0.2v0.2h-2.3v-0.2c0.5,0,0.8-0.3,0.8-0.8v-2.7
		c0-0.2,0-0.3,0-0.4c0-0.1-0.1-0.2-0.3-0.2l-0.4-0.1v-0.2l1.3-0.5h0.2v1c0.5-0.4,0.9-0.6,1.1-0.7c0.3-0.2,0.6-0.3,0.9-0.3
		c0.8,0,1.2,0.6,1.2,1.9c0,0.7,0,1.2,0,1.7c0,0.3,0,0.5,0,0.8c0,0.3,0.2,0.5,0.6,0.5h0.2v0.2h-2.4v-0.2c0.3,0,0.5-0.1,0.7-0.3
		c0.1-0.2,0.2-1.1,0.2-2.8c0-0.9-0.3-1.3-0.9-1.3C138.6,46.9,138.1,47.1,137.4,47.7L137.4,47.7z M137.1,45.1H137
		c0-0.9,0.3-1.4,0.9-1.4c0.2,0,0.5,0.1,0.8,0.4c0.3,0.3,0.6,0.4,0.7,0.4c0.3,0,0.5-0.3,0.5-0.8h0.1c0,0.4,0,0.7-0.2,1
		c-0.2,0.3-0.4,0.4-0.7,0.4c-0.2,0-0.5-0.1-0.8-0.4c-0.3-0.3-0.6-0.4-0.7-0.4C137.3,44.3,137.2,44.6,137.1,45.1L137.1,45.1z"/>
	<path class="st1" d="M142,49c0-0.8,0.3-1.5,0.8-2c0.5-0.5,1-0.7,1.7-0.7c0.7,0,1.3,0.3,1.7,0.8c0.5,0.5,0.7,1.1,0.7,1.9
		c0,0.7-0.2,1.4-0.7,1.9s-1,0.8-1.7,0.8c-0.7,0-1.3-0.3-1.8-0.8C142.2,50.4,142,49.8,142,49L142,49z M142.8,48.6
		c0,0.8,0.2,1.4,0.5,1.9c0.3,0.5,0.8,0.8,1.2,0.8c0.4,0,0.7-0.2,1-0.5c0.3-0.4,0.5-0.9,0.5-1.5c0-0.7-0.2-1.3-0.5-1.9
		c-0.3-0.5-0.8-0.8-1.2-0.8c-0.4,0-0.7,0.2-1,0.6C143,47.6,142.8,48.1,142.8,48.6L142.8,48.6z"/>
	<path class="st0" d="M147.7,50.2h0.2c0.1,0.4,0.2,0.7,0.4,0.9c0.2,0.2,0.4,0.3,0.7,0.3c0.2,0,0.4-0.1,0.6-0.2
		c0.2-0.2,0.2-0.4,0.2-0.6c0-0.2-0.1-0.5-0.4-0.8c-0.2-0.2-0.4-0.4-0.8-0.7c-0.3-0.2-0.6-0.4-0.7-0.6c-0.2-0.2-0.3-0.5-0.3-0.8
		c0-0.4,0.1-0.8,0.4-1c0.3-0.3,0.6-0.4,1-0.4c0.3,0,0.6,0.1,0.9,0.2l0,1.1h-0.2c0-0.3-0.1-0.6-0.3-0.8c-0.2-0.2-0.4-0.3-0.6-0.3
		c-0.2,0-0.4,0.1-0.5,0.2c-0.1,0.1-0.2,0.3-0.2,0.5c0,0.3,0.2,0.6,0.5,0.9c0.3,0.3,0.7,0.5,1,0.8c0.4,0.3,0.5,0.7,0.5,1.2
		c0,0.4-0.1,0.8-0.4,1c-0.3,0.3-0.6,0.4-1,0.4c-0.1,0-0.3,0-0.4-0.1c-0.2-0.1-0.3-0.1-0.4-0.1s-0.1,0.1-0.2,0.2h-0.2L147.7,50.2
		L147.7,50.2z"/>
	<path class="st1" d="M158,46.6v-2.5c0-0.1,0-0.2-0.1-0.3c0,0-0.1-0.1-0.3-0.1l-0.4-0.1v-0.2l1.6-0.5v7.4c0,0.3,0.1,0.5,0.3,0.5
		c0.1,0,0.1,0,0.2,0l0.3-0.1V51l-1.5,0.6H158v-0.9c-0.7,0.6-1.3,0.9-1.8,0.9c-0.5,0-0.9-0.2-1.3-0.7c-0.4-0.5-0.5-1.1-0.5-1.7
		c0-0.8,0.2-1.5,0.7-2c0.5-0.6,1.1-0.8,1.7-0.8C157.3,46.4,157.6,46.4,158,46.6L158,46.6z M158,50.5v-2.8c-0.4-0.6-0.8-0.9-1.3-0.9
		c-0.4,0-0.8,0.2-1.1,0.6c-0.3,0.4-0.4,0.9-0.4,1.5c0,0.6,0.1,1.2,0.4,1.6c0.3,0.5,0.6,0.7,1,0.7C157,51.1,157.5,50.9,158,50.5
		L158,50.5z"/>
	<path class="st1" d="M164.2,48.3h-3.3c0,0.3,0,0.4,0,0.5c0,0.6,0.2,1.2,0.5,1.6c0.3,0.4,0.7,0.6,1.2,0.6c0.5,0,1-0.3,1.4-0.8
		l0.1,0.2c-0.6,0.9-1.3,1.3-2,1.3c-0.6,0-1-0.2-1.4-0.7c-0.4-0.5-0.6-1.1-0.6-1.8c0-0.7,0.2-1.3,0.6-1.9c0.4-0.6,1-0.8,1.6-0.8
		c0.5,0,0.8,0.1,1.1,0.3c0.2,0.2,0.3,0.4,0.5,0.7c0.2,0.3,0.3,0.5,0.3,0.6V48.3L164.2,48.3z M160.9,48h2.3c-0.1-0.4-0.2-0.7-0.4-1
		c-0.2-0.2-0.4-0.4-0.7-0.4C161.5,46.6,161.1,47.1,160.9,48L160.9,48z"/>
	<path class="st0" d="M169.5,43v7.5c0,0.5,0.2,0.8,0.7,0.8h0.2v0.2h-2.6v-0.2c0.4,0,0.6-0.1,0.7-0.2c0.1-0.1,0.2-0.3,0.2-0.7v-6.1
		c0-0.2,0-0.3-0.1-0.4c0-0.1-0.1-0.1-0.3-0.1l-0.5-0.1v-0.2l1.5-0.5H169.5L169.5,43z"/>
	<path class="st1" d="M171.8,47.6L171,48c0-0.1,0-0.1,0-0.2c0-0.2,0.2-0.5,0.6-0.9c0.4-0.4,0.8-0.5,1.1-0.5c0.5,0,0.9,0.2,1.2,0.7
		c0.1,0.2,0.2,0.5,0.2,1.1v1.7c0,0.5,0,0.9,0,1c0,0.2,0.1,0.2,0.3,0.2c0.2,0,0.4-0.1,0.6-0.3l0.1,0.2c-0.5,0.5-0.9,0.7-1.1,0.7
		c-0.3,0-0.5-0.3-0.5-0.8c-0.4,0.3-0.6,0.5-0.8,0.7c-0.1,0.1-0.3,0.1-0.5,0.1c-0.3,0-0.6-0.1-0.8-0.3c-0.2-0.2-0.3-0.4-0.3-0.8
		c0-0.4,0.1-0.6,0.4-0.8c0.2-0.2,0.5-0.3,0.9-0.4c0.3-0.1,0.7-0.3,1-0.5v-1c0-0.4-0.1-0.6-0.2-0.8c-0.2-0.2-0.4-0.4-0.6-0.4
		c-0.2,0-0.3,0.1-0.5,0.2c-0.1,0.1-0.2,0.3-0.2,0.4C171.7,47.4,171.7,47.5,171.8,47.6L171.8,47.6z M173.2,50.7v-1.5
		c-0.2,0.1-0.4,0.2-0.7,0.4c-0.4,0.2-0.6,0.3-0.7,0.4c-0.1,0.1-0.2,0.3-0.2,0.6c0,0.2,0.1,0.4,0.2,0.5c0.1,0.1,0.3,0.2,0.5,0.2
		C172.4,51.2,172.7,51,173.2,50.7L173.2,50.7z"/>
	<path class="st1" d="M179.8,51.3v2c0,0.5,0.3,0.8,0.8,0.8h0.3v0.2h-2.7v-0.2h0.1c0.3,0,0.5-0.1,0.6-0.2c0.1-0.1,0.2-0.4,0.2-0.7
		v-5.6c0-0.2-0.1-0.4-0.3-0.4l-0.4-0.1v-0.2l1.2-0.8h0.2v1.2c0.7-0.6,1.3-0.9,1.8-0.9c0.4,0,0.8,0.2,1.2,0.7c0.3,0.5,0.5,1,0.5,1.6
		c0,0.8-0.2,1.4-0.7,2c-0.5,0.6-1,0.8-1.7,0.8C180.6,51.6,180.2,51.5,179.8,51.3L179.8,51.3z M179.8,47.6v2.9
		c0.5,0.5,0.9,0.7,1.3,0.7c0.4,0,0.7-0.2,1-0.6c0.3-0.4,0.4-0.8,0.4-1.3c0-0.8-0.2-1.4-0.5-1.8c-0.3-0.3-0.6-0.5-1-0.5
		C180.7,47,180.3,47.2,179.8,47.6L179.8,47.6z"/>
	<path class="st1" d="M184.3,49c0-0.8,0.3-1.5,0.8-2c0.5-0.5,1-0.7,1.7-0.7c0.7,0,1.3,0.3,1.7,0.8c0.5,0.5,0.7,1.1,0.7,1.9
		c0,0.7-0.2,1.4-0.7,1.9c-0.5,0.5-1,0.8-1.7,0.8c-0.7,0-1.3-0.3-1.8-0.8C184.6,50.4,184.3,49.8,184.3,49L184.3,49z M185.2,48.6
		c0,0.8,0.2,1.4,0.5,1.9c0.3,0.5,0.8,0.8,1.2,0.8c0.4,0,0.7-0.2,1-0.5c0.3-0.4,0.5-0.9,0.5-1.5c0-0.7-0.2-1.3-0.5-1.9
		c-0.3-0.5-0.8-0.8-1.2-0.8c-0.4,0-0.7,0.2-1,0.6C185.3,47.6,185.2,48.1,185.2,48.6L185.2,48.6z"/>
	<path class="st1" d="M191.3,43v4.2c0.7-0.6,1.3-0.9,1.7-0.9c0.5,0,0.9,0.2,1.3,0.7c0.4,0.5,0.5,1.1,0.5,1.7c0,0.8-0.3,1.5-0.8,2
		c-0.5,0.5-1.1,0.8-1.9,0.8c-0.4,0-0.9-0.1-1.7-0.2v-6.8c0-0.3,0-0.5-0.1-0.6c0-0.1-0.2-0.1-0.4-0.2l-0.3-0.1v-0.2l1.4-0.5H191.3
		L191.3,43z M191.3,47.5V50c0,0.4,0.1,0.7,0.3,0.9c0.2,0.3,0.5,0.4,0.9,0.4c0.5,0,0.8-0.2,1.1-0.6c0.3-0.4,0.4-0.9,0.4-1.5
		c0-0.6-0.1-1.2-0.4-1.6c-0.3-0.4-0.7-0.6-1.1-0.6C192.3,46.9,191.8,47.1,191.3,47.5L191.3,47.5z"/>
	<path class="st0" d="M197.2,48.1v2.5c0,0.3,0.1,0.4,0.2,0.5c0.1,0.1,0.3,0.1,0.6,0.1h0.4v0.2h-2.7v-0.2c0.3,0,0.5-0.1,0.6-0.2
		c0.1-0.1,0.2-0.4,0.2-0.7v-2.9l-0.8-0.3v-0.2l1.3-0.5h0.2v1.3h0c0.3-0.6,0.5-0.9,0.6-1c0.1-0.2,0.3-0.3,0.5-0.3
		c0.1,0,0.2,0,0.4,0.1c0.1,0,0.3,0.1,0.6,0.2l-0.3,0.8c-0.2,0-0.4-0.1-0.6-0.2c-0.2-0.1-0.3-0.1-0.4-0.1c-0.2,0-0.3,0.1-0.4,0.3
		C197.4,47.7,197.3,48,197.2,48.1L197.2,48.1z"/>
	<path class="st1" d="M203.8,48.3h-3.3c0,0.3,0,0.4,0,0.5c0,0.6,0.2,1.2,0.5,1.6c0.3,0.4,0.7,0.6,1.2,0.6c0.5,0,1-0.3,1.4-0.8
		l0.1,0.2c-0.6,0.9-1.3,1.3-2,1.3c-0.6,0-1-0.2-1.4-0.7c-0.4-0.5-0.6-1.1-0.6-1.8c0-0.7,0.2-1.3,0.6-1.9c0.4-0.6,1-0.8,1.6-0.8
		c0.5,0,0.8,0.1,1.1,0.3c0.2,0.2,0.3,0.4,0.5,0.7c0.2,0.3,0.3,0.5,0.3,0.6V48.3L203.8,48.3z M200.5,48h2.3c-0.1-0.4-0.2-0.7-0.4-1
		c-0.2-0.2-0.4-0.4-0.7-0.4C201.1,46.6,200.7,47.1,200.5,48L200.5,48z"/>
	<path class="st0" d="M204.5,51.5v-0.2l2.9-4.3h-1.9c-0.1,0-0.2,0.1-0.3,0.3c0,0.1-0.1,0.4-0.3,0.9h-0.2l0.4-2h0.2
		c0,0.1,0,0.2,0.1,0.3c0.1,0,0.2,0.1,0.4,0.1h2.7v0.2l-2.9,4.3h2.1c0.2,0,0.3-0.1,0.5-0.2c0.1-0.1,0.2-0.4,0.3-0.7h0.2l-0.5,1.4
		H204.5L204.5,51.5z"/>
	<path class="st1" d="M210,47.6l-0.8,0.4c0-0.1,0-0.1,0-0.2c0-0.2,0.2-0.5,0.6-0.9c0.4-0.4,0.8-0.5,1.1-0.5c0.5,0,0.9,0.2,1.2,0.7
		c0.1,0.2,0.2,0.5,0.2,1.1v1.7c0,0.5,0,0.9,0,1c0,0.2,0.1,0.2,0.3,0.2c0.2,0,0.4-0.1,0.6-0.3l0.1,0.2c-0.5,0.5-0.9,0.7-1.1,0.7
		c-0.3,0-0.5-0.3-0.5-0.8c-0.4,0.3-0.6,0.5-0.8,0.7c-0.1,0.1-0.3,0.1-0.5,0.1c-0.3,0-0.6-0.1-0.8-0.3c-0.2-0.2-0.3-0.4-0.3-0.8
		c0-0.4,0.1-0.6,0.4-0.8c0.2-0.2,0.5-0.3,0.9-0.4c0.3-0.1,0.7-0.3,1-0.5v-1c0-0.4-0.1-0.6-0.2-0.8c-0.2-0.2-0.4-0.4-0.6-0.4
		c-0.2,0-0.3,0.1-0.5,0.2c-0.1,0.1-0.2,0.3-0.2,0.4C210,47.4,210,47.5,210,47.6L210,47.6z M211.5,50.7v-1.5
		c-0.2,0.1-0.4,0.2-0.7,0.4c-0.4,0.2-0.6,0.3-0.7,0.4c-0.1,0.1-0.2,0.3-0.2,0.6c0,0.2,0.1,0.4,0.2,0.5c0.1,0.1,0.3,0.2,0.5,0.2
		C210.7,51.2,211,51,211.5,50.7L211.5,50.7z"/>
	<path class="st1" d="M137.1,92.9h-4.4c0,0.3-0.1,0.5-0.1,0.7c0,0.8,0.2,1.5,0.7,2c0.5,0.5,1,0.8,1.6,0.8c0.7,0,1.4-0.3,1.9-1
		l0.2,0.2c-0.8,1.1-1.7,1.6-2.7,1.6c-0.7,0-1.4-0.3-1.9-0.9c-0.5-0.6-0.8-1.4-0.8-2.3c0-0.9,0.3-1.7,0.8-2.3
		c0.6-0.7,1.3-1.1,2.1-1.1c0.6,0,1.1,0.1,1.4,0.4c0.2,0.2,0.5,0.5,0.6,0.9c0.2,0.4,0.3,0.7,0.4,0.8V92.9L137.1,92.9z M132.7,92.5
		h3.1c-0.1-0.5-0.3-0.9-0.5-1.2c-0.3-0.3-0.6-0.5-1-0.5C133.6,90.8,133,91.3,132.7,92.5L132.7,92.5z"/>
	<path class="st0" d="M140,92.1v3.4c0,0.4,0.1,0.7,0.2,0.9c0.1,0.1,0.4,0.2,0.8,0.2v0.3h-3v-0.3c0.7,0,1-0.3,1-1v-3.3
		c0-0.3,0-0.4,0-0.5c-0.1-0.1-0.2-0.2-0.4-0.3l-0.5-0.1v-0.3l1.7-0.7h0.2v1.2c0.7-0.4,1.2-0.7,1.4-0.9c0.5-0.2,0.9-0.4,1.2-0.4
		c1.1,0,1.6,0.8,1.6,2.3c0,0.8,0,1.5-0.1,2.1c0,0.3,0,0.7-0.1,1c0,0.4,0.3,0.6,0.8,0.6h0.3v0.3h-3.2v-0.3c0.4,0,0.7-0.1,0.9-0.3
		c0.2-0.2,0.3-1.4,0.3-3.5c0-1.1-0.4-1.6-1.2-1.6C141.6,91.1,141,91.4,140,92.1L140,92.1z"/>
	<path class="st1" d="M155.1,92.9h-4.4c0,0.3-0.1,0.5-0.1,0.7c0,0.8,0.2,1.5,0.7,2c0.5,0.5,1,0.8,1.6,0.8c0.7,0,1.4-0.3,1.9-1
		l0.2,0.2c-0.8,1.1-1.7,1.6-2.7,1.6c-0.7,0-1.4-0.3-1.9-0.9c-0.5-0.6-0.8-1.4-0.8-2.3c0-0.9,0.3-1.7,0.8-2.3
		c0.6-0.7,1.3-1.1,2.1-1.1c0.6,0,1.1,0.1,1.4,0.4c0.2,0.2,0.5,0.5,0.6,0.9c0.2,0.4,0.3,0.7,0.4,0.8V92.9L155.1,92.9z M150.7,92.5
		h3.1c-0.1-0.5-0.3-0.9-0.5-1.2c-0.3-0.3-0.6-0.5-1-0.5C151.5,90.8,151,91.3,150.7,92.5L150.7,92.5z"/>
	<path class="st0" d="M157.9,86.3v9.3c0,0.6,0.3,0.9,0.9,0.9h0.3v0.3h-3.4v-0.3c0.5,0,0.8-0.1,1-0.2c0.2-0.2,0.3-0.4,0.3-0.8v-7.6
		c0-0.2,0-0.4-0.1-0.5c-0.1-0.1-0.2-0.1-0.4-0.2l-0.7-0.1v-0.3l1.9-0.6H157.9L157.9,86.3z"/>
	<path class="st0" d="M165.1,92.1v3.4c0,0.4,0.1,0.7,0.2,0.9c0.1,0.1,0.4,0.2,0.8,0.2v0.3h-3v-0.3c0.7,0,1-0.3,1-1v-3.3
		c0-0.3,0-0.4,0-0.5c-0.1-0.1-0.2-0.2-0.4-0.3l-0.5-0.1v-0.3l1.7-0.7h0.2v1.2c0.7-0.4,1.2-0.7,1.4-0.9c0.5-0.2,0.9-0.4,1.2-0.4
		c1.1,0,1.6,0.8,1.6,2.3c0,0.8,0,1.5-0.1,2.1c0,0.3,0,0.7-0.1,1c0,0.4,0.3,0.6,0.8,0.6h0.3v0.3h-3.2v-0.3c0.4,0,0.7-0.1,0.9-0.3
		c0.2-0.2,0.3-1.4,0.3-3.5c0-1.1-0.4-1.6-1.2-1.6C166.7,91.1,166,91.4,165.1,92.1L165.1,92.1z"/>
	<path class="st1" d="M171.2,93.8c0-1,0.3-1.9,1-2.5c0.6-0.6,1.4-0.8,2.2-0.8c0.9,0,1.7,0.3,2.3,1c0.6,0.6,0.9,1.4,0.9,2.3
		c0,0.9-0.3,1.7-0.9,2.3c-0.6,0.6-1.4,1-2.3,1c-0.9,0-1.7-0.3-2.4-0.9C171.5,95.5,171.2,94.7,171.2,93.8L171.2,93.8z M172.3,93.3
		c0,1,0.2,1.8,0.7,2.4c0.5,0.7,1,1,1.7,1c0.5,0,0.9-0.2,1.3-0.7c0.4-0.5,0.6-1.1,0.6-1.8c0-0.9-0.2-1.7-0.7-2.3c-0.5-0.7-1-1-1.6-1
		c-0.5,0-1,0.2-1.3,0.7C172.5,92,172.3,92.6,172.3,93.3L172.3,93.3z"/>
	<path class="st0" d="M180.8,92v3.6c0,0.4,0.1,0.7,0.2,0.8c0.1,0.1,0.4,0.2,0.8,0.2v0.3h-3.1v-0.3c0.4,0,0.7-0.1,0.8-0.3
		c0.2-0.2,0.2-0.5,0.2-0.9v-3.1c0-0.3,0-0.4,0-0.5c-0.1-0.1-0.2-0.2-0.4-0.3l-0.6-0.1v-0.3l1.8-0.7h0.2v1.3c1.1-0.8,2-1.3,2.7-1.3
		c0.8,0,1.3,0.4,1.4,1.3c1.3-0.8,2.2-1.3,2.7-1.3c1,0,1.5,0.8,1.5,2.4c0,1.2,0,2.2,0,3c0,0.5,0.2,0.7,0.8,0.7h0.5v0.3H187v-0.3h0.1
		c0.4,0,0.6-0.1,0.8-0.2c0.2-0.2,0.2-0.9,0.2-2.2v-1.2c0-1.2-0.4-1.8-1.1-1.8c-0.5,0-1.2,0.3-2,0.9v3.6c0,0.4,0.1,0.6,0.2,0.8
		c0.1,0.1,0.4,0.2,0.7,0.2v0.3h-3.1v-0.3c0.4,0,0.7-0.1,0.9-0.3c0.2-0.2,0.3-0.5,0.3-0.9v-2.9c0-0.5-0.1-0.8-0.4-1.1
		c-0.2-0.2-0.5-0.3-0.8-0.3C182.4,91.1,181.7,91.4,180.8,92L180.8,92z"/>
	<path class="st1" d="M192.5,86.3v5.3c1-0.7,1.7-1.1,2.3-1.1c0.7,0,1.3,0.3,1.7,0.9c0.5,0.6,0.7,1.3,0.7,2.1c0,1-0.3,1.8-1,2.5
		c-0.7,0.7-1.5,1-2.5,1c-0.5,0-1.2-0.1-2.2-0.3v-8.5c0-0.4,0-0.7-0.1-0.8c-0.1-0.1-0.2-0.2-0.5-0.2l-0.4-0.1v-0.3l1.8-0.6H192.5
		L192.5,86.3z M192.5,91.9v3c0,0.4,0.1,0.8,0.4,1.1c0.3,0.4,0.7,0.5,1.3,0.5c0.6,0,1.1-0.2,1.5-0.7c0.4-0.5,0.6-1.1,0.6-1.9
		c0-0.8-0.2-1.4-0.6-2c-0.4-0.5-0.9-0.8-1.5-0.8C193.8,91.2,193.2,91.4,192.5,91.9L192.5,91.9z"/>
	<path class="st0" d="M200.4,92.7v3c0,0.3,0.1,0.5,0.2,0.7c0.1,0.1,0.4,0.2,0.8,0.2h0.6v0.3h-3.6v-0.3c0.4,0,0.6-0.1,0.8-0.3
		c0.1-0.2,0.2-0.5,0.2-0.9v-3.6l-1-0.4v-0.3l1.7-0.6h0.3v1.7h0c0.4-0.7,0.7-1.1,0.8-1.3c0.2-0.2,0.4-0.3,0.6-0.3
		c0.1,0,0.3,0,0.5,0.1c0.1,0,0.4,0.1,0.8,0.2l-0.4,0.9c-0.3,0-0.5-0.1-0.8-0.3c-0.2-0.1-0.4-0.2-0.5-0.2c-0.2,0-0.4,0.1-0.6,0.4
		C200.6,92.2,200.5,92.4,200.4,92.7L200.4,92.7z"/>
	<path class="st1" d="M209.1,92.9h-4.4c0,0.3-0.1,0.5-0.1,0.7c0,0.8,0.2,1.5,0.7,2c0.5,0.5,1,0.8,1.6,0.8c0.7,0,1.4-0.3,1.9-1
		l0.2,0.2c-0.8,1.1-1.7,1.6-2.7,1.6c-0.7,0-1.4-0.3-1.9-0.9c-0.5-0.6-0.8-1.4-0.8-2.3c0-0.9,0.3-1.7,0.8-2.3
		c0.6-0.7,1.3-1.1,2.1-1.1c0.6,0,1.1,0.1,1.4,0.4c0.2,0.2,0.5,0.5,0.6,0.9c0.2,0.4,0.3,0.7,0.4,0.8V92.9L209.1,92.9z M204.8,92.5
		h3.1c-0.1-0.5-0.3-0.9-0.5-1.2c-0.3-0.3-0.6-0.5-1-0.5C205.6,90.8,205,91.3,204.8,92.5L204.8,92.5z"/>
	<path class="st1" d="M218.5,90.8v-3c0-0.2-0.1-0.3-0.2-0.3c-0.1,0-0.2-0.1-0.4-0.1l-0.5-0.1v-0.3l2.1-0.6v9.2
		c0,0.4,0.2,0.6,0.5,0.6c0.1,0,0.2,0,0.3,0l0.4-0.1v0.3l-1.9,0.8h-0.2v-1.1c-1,0.7-1.8,1.1-2.3,1.1c-0.7,0-1.2-0.3-1.7-0.9
		c-0.5-0.6-0.7-1.3-0.7-2.1c0-1,0.3-1.8,1-2.5c0.6-0.7,1.4-1,2.3-1C217.5,90.5,218,90.6,218.5,90.8L218.5,90.8z M218.5,95.6v-3.5
		c-0.5-0.8-1.1-1.2-1.8-1.2c-0.6,0-1.1,0.2-1.4,0.7c-0.4,0.5-0.5,1.1-0.5,1.9c0,0.8,0.2,1.5,0.6,2c0.4,0.6,0.8,0.9,1.4,0.9
		C217.2,96.4,217.8,96.1,218.5,95.6L218.5,95.6z"/>
	<path class="st1" d="M226.8,92.9h-4.4c0,0.3-0.1,0.5-0.1,0.7c0,0.8,0.2,1.5,0.7,2c0.5,0.5,1,0.8,1.6,0.8c0.7,0,1.4-0.3,1.9-1
		l0.2,0.2c-0.8,1.1-1.7,1.6-2.7,1.6c-0.7,0-1.4-0.3-1.9-0.9c-0.5-0.6-0.8-1.4-0.8-2.3c0-0.9,0.3-1.7,0.8-2.3
		c0.6-0.7,1.3-1.1,2.1-1.1c0.6,0,1.1,0.1,1.4,0.4c0.2,0.2,0.5,0.5,0.6,0.9c0.2,0.4,0.3,0.7,0.4,0.8V92.9L226.8,92.9z M222.4,92.5
		h3.1c-0.1-0.5-0.3-0.9-0.5-1.2c-0.3-0.3-0.6-0.5-1-0.5C223.2,90.8,222.7,91.3,222.4,92.5L222.4,92.5z"/>
	<path class="st0" d="M233.7,88.5v6.7c0,1.6-0.3,2.9-0.9,3.8c-0.6,1-1.3,1.5-2.3,1.5c-0.4,0-0.8-0.1-1-0.2c-0.3-0.2-0.4-0.4-0.4-0.6
		c0-0.2,0.1-0.3,0.2-0.4c0.1-0.1,0.2-0.2,0.4-0.2c0.2,0,0.4,0.1,0.7,0.4c0.3,0.2,0.6,0.4,0.8,0.4c0.8,0,1.2-0.8,1.2-2.3v-8.4
		c0-0.6,0-1.1-0.1-1.2c-0.2-0.3-0.5-0.5-1.1-0.5h-0.2v-0.3h3.8v0.3c-0.5,0-0.8,0.1-0.9,0.3C233.8,87.8,233.7,88.1,233.7,88.5
		L233.7,88.5z"/>
	<path class="st1" d="M241.4,92.9H237c0,0.3-0.1,0.5-0.1,0.7c0,0.8,0.2,1.5,0.7,2c0.5,0.5,1,0.8,1.6,0.8c0.7,0,1.4-0.3,1.9-1
		l0.2,0.2c-0.8,1.1-1.7,1.6-2.7,1.6c-0.7,0-1.4-0.3-1.9-0.9c-0.5-0.6-0.8-1.4-0.8-2.3c0-0.9,0.3-1.7,0.8-2.3
		c0.6-0.7,1.3-1.1,2.1-1.1c0.6,0,1.1,0.1,1.4,0.4c0.2,0.2,0.5,0.5,0.6,0.9c0.2,0.4,0.3,0.7,0.4,0.8V92.9L241.4,92.9z M237.1,92.5
		h3.1c-0.1-0.5-0.3-0.9-0.5-1.2c-0.3-0.3-0.6-0.5-1-0.5C237.9,90.8,237.3,91.3,237.1,92.5L237.1,92.5z"/>
	<path class="st0" d="M242.4,95.3h0.2c0.1,0.5,0.3,0.8,0.5,1.1c0.3,0.3,0.6,0.4,0.9,0.4c0.3,0,0.6-0.1,0.8-0.3
		c0.2-0.2,0.3-0.4,0.3-0.7c0-0.3-0.2-0.6-0.5-1c-0.3-0.3-0.6-0.5-1-0.8c-0.4-0.3-0.7-0.5-0.9-0.7c-0.2-0.3-0.3-0.6-0.3-1
		c0-0.5,0.2-0.9,0.5-1.3c0.4-0.3,0.8-0.5,1.4-0.5c0.4,0,0.8,0.1,1.2,0.3l0,1.4h-0.3c-0.1-0.4-0.2-0.7-0.4-1
		c-0.2-0.2-0.5-0.4-0.8-0.4c-0.3,0-0.5,0.1-0.6,0.3c-0.2,0.2-0.3,0.4-0.3,0.6c0,0.4,0.2,0.7,0.7,1.1c0.5,0.3,0.9,0.6,1.4,1
		c0.5,0.4,0.7,0.9,0.7,1.5c0,0.5-0.2,0.9-0.5,1.3c-0.4,0.3-0.8,0.5-1.3,0.5c-0.2,0-0.4,0-0.6-0.1c-0.2-0.1-0.4-0.1-0.5-0.1
		c-0.1,0-0.2,0.1-0.3,0.2h-0.2L242.4,95.3L242.4,95.3z"/>
	<path class="st1" d="M254,96.1v0.3l-2,0.6v-1.3c-1.1,0.8-2,1.3-2.6,1.3c-0.4,0-0.8-0.1-1.1-0.4c-0.3-0.3-0.5-0.7-0.5-1.2V92
		c0-0.3-0.1-0.6-0.4-0.6l-0.5-0.2v-0.2l1.9-0.4v4.4c0,0.5,0.1,0.8,0.4,1.1c0.3,0.2,0.6,0.3,0.9,0.3c0.5,0,1.1-0.3,1.8-0.9v-3.4
		c0-0.3,0-0.5-0.1-0.6c-0.1-0.1-0.2-0.2-0.5-0.2l-0.8-0.1v-0.2l2.3-0.4v5.3c0,0.3,0.1,0.4,0.3,0.5c0.1,0,0.2,0,0.3,0L254,96.1
		L254,96.1z M249.2,89.2H249l1.4-2c0.3-0.5,0.6-0.7,1-0.7c0.3,0,0.5,0.2,0.5,0.5c0,0.3-0.3,0.6-1,1.1L249.2,89.2L249.2,89.2z"/>
	<path class="st0" d="M254.9,95.3h0.2c0.1,0.5,0.3,0.8,0.5,1.1c0.3,0.3,0.6,0.4,0.9,0.4c0.3,0,0.6-0.1,0.8-0.3
		c0.2-0.2,0.3-0.4,0.3-0.7c0-0.3-0.2-0.6-0.5-1c-0.3-0.3-0.6-0.5-1-0.8c-0.4-0.3-0.7-0.5-0.9-0.7c-0.2-0.3-0.3-0.6-0.3-1
		c0-0.5,0.2-0.9,0.5-1.3c0.4-0.3,0.8-0.5,1.4-0.5c0.4,0,0.8,0.1,1.2,0.3l0,1.4h-0.3c-0.1-0.4-0.2-0.7-0.4-1
		c-0.2-0.2-0.5-0.4-0.8-0.4c-0.3,0-0.5,0.1-0.6,0.3c-0.2,0.2-0.3,0.4-0.3,0.6c0,0.4,0.2,0.7,0.7,1.1c0.5,0.3,0.9,0.6,1.4,1
		c0.5,0.4,0.7,0.9,0.7,1.5c0,0.5-0.2,0.9-0.5,1.3c-0.4,0.3-0.8,0.5-1.3,0.5c-0.2,0-0.4,0-0.6-0.1c-0.2-0.1-0.4-0.1-0.5-0.1
		c-0.1,0-0.2,0.1-0.3,0.2H255L254.9,95.3L254.9,95.3z"/>
	<g>
		<path class="st0" d="M53.6,13.8c4,0.2,7.4-2.6,7.6-6.2c0.2-3.6-3-6.7-7-6.9c-4-0.2-7.4,2.6-7.6,6.2C46.4,10.5,49.5,13.6,53.6,13.8
			z"/>
		<path class="st0" d="M73.2,0.7c0,0-3.8,6.7-12.2,11.5c-8.4,4.8-15.9,7.6-23,18.6c0,0,2.1-1,0.7,1.4c0,0,1.1-1,2-1.4
			c0,0,0.6-0.1,0.3,0.6c0,0,3.8-2.9,2.8-1.5c-0.6,0.9,3-2.7,3.4-2.3c0,0,0.1,0.2-0.4,1c0,0,8.5-5.1,11.7-6.5
			C72.3,16.3,75.2,6.6,74,1.1C74,1.1,73.9,0,73.2,0.7z"/>
		<path class="st0" d="M44.4,48c0,0,0.6-14.4,9.5-21.7c8.9-7.4,17.5-6,21-6.2c0,0,7.3,0.2,10.9-1c0,0,0.5,6.4-17.3,9.5
			c0,0-5.9-0.1-10.9,6.6c0,0-5,5.6-9.6,17.2c0,0,0-1.7-0.7-0.5l-1.7,3.9L45.6,52c0,0-0.3-0.9-0.7,0.3c0,0-0.3,0.4,0.2-4.4
			C45.1,47.9,45,46.8,44.4,48z"/>
	</g>
	<path class="st0" d="M38.2,53.8c-2-5.7-7.3-9.4-13.9-9.4C14.1,44.4,7.7,51.8,7.7,62c0,11,7.9,19.2,17.2,19.2c4.8,0,10.7-1.6,14.9-9
		H41c-0.8,2.7-2.4,6.5-3.9,8.9c-3.9-0.6-6.6,1.6-13.8,1.6C10.9,82.7,2,74.5,2,63.2c0-11.8,9.1-20.4,21.9-20.4c7.7,0,11,2.4,12.9,2.4
		c0.7,0,1-0.2,1.1-0.4h0.9l0.5,8.8H38.2z"/>
	<g>
		<path class="st0" d="M264.2,47.2c2.1,0,3.8,1.6,3.8,3.7c0,2.2-1.7,3.8-3.8,3.8c-2.1,0-3.8-1.6-3.8-3.8
			C260.4,48.8,262.2,47.2,264.2,47.2z M264.2,54.2c1.7,0,3.1-1.4,3.1-3.2c0-1.8-1.3-3.2-3.1-3.2c-1.8,0-3.1,1.4-3.1,3.2
			C261.1,52.8,262.5,54.2,264.2,54.2z M262.8,48.8h1.7c1,0,1.5,0.4,1.5,1.3c0,0.8-0.5,1.1-1.2,1.2l1.3,1.9h-0.7l-1.2-1.9h-0.7v1.9
			h-0.7V48.8z M263.4,50.7h0.7c0.6,0,1.2,0,1.2-0.7c0-0.6-0.5-0.7-1-0.7h-0.9V50.7z"/>
	</g>
</g>
</svg>
