<svg width="144" height="64" viewBox="0 0 144 64" fill="none" xmlns="http://www.w3.org/2000/svg">
<path d="M1.88681 55.3817L2.83021 54.0034H9.71705L8.76841 55.3817H6.17929L1.72957 61.9039H0L4.44972 55.3817H1.88681Z" fill="#003671"/>
<path d="M9.67512 61.5763C9.43927 61.6797 9.19571 61.7649 8.94661 61.8311C8.78937 61.8727 8.63214 61.9091 8.48015 61.9351C8.32816 61.9612 8.1814 61.982 8.03465 61.9924H7.81977H7.60488C7.40635 61.9914 7.20824 61.974 7.01263 61.9403C6.83389 61.9124 6.65834 61.8671 6.48852 61.8051C6.34917 61.7441 6.2215 61.6596 6.11116 61.5555C6.01201 61.4543 5.93838 61.3314 5.89627 61.1966C5.84868 61.0487 5.82567 60.8941 5.82814 60.7389C5.834 60.5619 5.86578 60.3867 5.92248 60.2188C5.99127 60.0168 6.07537 59.8204 6.17405 59.631C6.28578 59.4204 6.40823 59.2156 6.54093 59.0173C6.68244 58.8145 6.83967 58.6116 7.00739 58.414C7.17511 58.2163 7.35855 58.0187 7.56819 57.8158C7.77784 57.613 7.98748 57.4466 8.20761 57.2957C8.42919 57.126 8.66208 56.9714 8.90468 56.8328C9.13292 56.7005 9.36923 56.5824 9.61223 56.4791C9.84516 56.3773 10.0851 56.2922 10.3303 56.2243C10.5714 56.1619 10.8124 56.1099 11.0431 56.0735C11.2614 56.0377 11.4822 56.0185 11.7034 56.0162C11.8954 56.0154 12.0868 56.0346 12.2747 56.0735C12.4449 56.1088 12.6115 56.1593 12.7726 56.2243C12.9179 56.2825 13.0498 56.3692 13.1605 56.4791C13.2554 56.5824 13.33 56.7024 13.3806 56.8328C13.4248 56.983 13.4443 57.1394 13.4383 57.2957C13.4244 57.4718 13.3928 57.646 13.3439 57.8158C13.2758 58.0187 13.1919 58.2163 13.1028 58.414C13.0006 58.6243 12.8815 58.8261 12.7464 59.0173C12.6021 59.2327 12.4427 59.4377 12.2695 59.631C12.0881 59.8371 11.8956 60.0333 11.693 60.2188C11.495 60.4057 11.2849 60.5794 11.064 60.7389C10.8419 60.9063 10.6091 61.0592 10.367 61.1966C10.1365 61.3312 9.89849 61.4527 9.65416 61.5607L9.67512 61.5763ZM8.02941 60.6817C8.04488 60.6951 8.06262 60.7056 8.08182 60.7129H8.13947H8.20237C8.37567 60.744 8.55318 60.744 8.72648 60.7129C8.93781 60.6729 9.14364 60.6083 9.33969 60.5204C9.55696 60.4324 9.76283 60.3189 9.9529 60.1824C10.1551 60.0453 10.343 59.8885 10.5137 59.7143C10.5767 59.6569 10.6346 59.5943 10.6867 59.527L10.8544 59.319C10.9201 59.2501 10.9814 59.1771 11.0378 59.1005L11.1951 58.8769C11.292 58.7263 11.3762 58.568 11.4466 58.4036C11.5072 58.2612 11.5529 58.1131 11.5829 57.9615C11.6175 57.8372 11.6175 57.706 11.5829 57.5818C11.543 57.4716 11.4624 57.3805 11.3575 57.3269L11.2789 57.2853H11.1951H11.0955H11.0011C10.9176 57.2749 10.8331 57.2749 10.7496 57.2853C10.6594 57.2915 10.57 57.3055 10.4823 57.3269C10.3828 57.3445 10.2848 57.3688 10.1888 57.3998C10.0892 57.431 9.99483 57.4726 9.89525 57.5142C9.68381 57.6052 9.48192 57.7167 9.29252 57.8471C9.10373 57.9752 8.92818 58.1215 8.76841 58.2839L8.57973 58.4816L8.40677 58.6844C8.34998 58.7454 8.2991 58.8116 8.25478 58.8821L8.12899 59.0797C8.01421 59.2431 7.9159 59.4173 7.83549 59.5998C7.77062 59.7518 7.72315 59.9106 7.69398 60.0731C7.66567 60.2051 7.6766 60.3425 7.72543 60.4684C7.77968 60.5771 7.87053 60.6636 7.98224 60.7129H8.02941" fill="#003671"/>
<path d="M16.5515 62.6789C16.2863 62.9479 15.9949 63.1901 15.6815 63.4019C15.3753 63.5926 15.0436 63.7397 14.6961 63.8388C14.3346 63.9401 13.9607 63.9909 13.585 63.9896H10.5504L11.3471 62.8089H14.1091C14.2665 62.7957 14.4225 62.7696 14.5756 62.7309C14.7193 62.6932 14.857 62.6354 14.9844 62.5593C15.119 62.4807 15.2424 62.3844 15.3513 62.2732C15.4685 62.1573 15.5739 62.0301 15.6657 61.8935H14.4131C14.1965 61.8935 13.9921 61.8935 13.7999 61.8935C13.6239 61.8849 13.4488 61.864 13.2758 61.8311C13.1293 61.816 12.9907 61.758 12.8775 61.6647C12.7627 61.5631 12.6792 61.4315 12.6364 61.285C12.5925 61.1454 12.573 60.9994 12.5787 60.8533C12.58 60.6932 12.6029 60.534 12.6469 60.38C12.6967 60.2029 12.758 60.0292 12.8303 59.8599C12.907 59.6805 12.9963 59.5067 13.0976 59.3398L13.1395 59.2774C13.1502 59.2629 13.159 59.2472 13.1657 59.2306C13.1657 59.2306 13.1657 59.2306 13.1657 59.1993C13.19 59.1742 13.2111 59.1463 13.2286 59.1161L13.281 59.0329C13.3072 58.9995 13.3317 58.9648 13.3544 58.9289L13.4173 58.8353L13.5012 58.7312L13.5745 58.6376C13.7056 58.4712 13.8471 58.3048 14.0043 58.1175C14.1615 57.9303 14.3293 57.7898 14.5284 57.6286C14.7056 57.4646 14.8929 57.3117 15.0892 57.1709C15.2859 57.0277 15.4906 56.8958 15.7024 56.7756C15.9338 56.6406 16.1757 56.524 16.4257 56.4271C16.6426 56.3406 16.8672 56.2744 17.0966 56.2295C17.3115 56.1827 17.5263 56.1515 17.736 56.1255C17.9456 56.0995 18.1553 56.0943 18.3597 56.0943H21.1846L17.3639 61.6907C17.122 62.0409 16.8502 62.3698 16.5515 62.6737V62.6789ZM16.4834 60.6973L18.7737 57.3373H18.6741H18.475C18.4402 57.3424 18.4049 57.3424 18.3702 57.3373H18.0819C17.8382 57.3391 17.5948 57.3565 17.3534 57.3894C17.1043 57.4228 16.8575 57.4715 16.6144 57.535C16.3378 57.6182 16.081 57.7562 15.8597 57.9407C15.5854 58.1664 15.3422 58.427 15.1364 58.7156L15.1049 58.7573H15.0787C15.0762 58.771 15.0762 58.7851 15.0787 58.7989C15.063 58.8184 15.0489 58.8393 15.0368 58.8613C15.0259 58.8856 15.0118 58.9083 14.9949 58.9289C14.8948 59.0633 14.8038 59.204 14.7223 59.3502C14.6418 59.4789 14.5733 59.6147 14.5179 59.7559C14.4724 59.8717 14.4527 59.9959 14.4603 60.1199C14.4705 60.2257 14.5065 60.3275 14.5651 60.4164C14.6012 60.4657 14.6477 60.5065 14.7014 60.536C14.7561 60.5692 14.8165 60.5921 14.8796 60.6037L15.0892 60.6401C15.1659 60.648 15.2432 60.648 15.3198 60.6401H15.7129L16.4834 60.6973Z" fill="#003671"/>
<path d="M20.5243 61.8935C20.3464 61.8743 20.1708 61.8377 20.0002 61.7843C19.8513 61.7406 19.716 61.66 19.6071 61.5503C19.5025 61.4404 19.4316 61.3033 19.4027 61.155C19.3732 61.0196 19.3732 60.8795 19.4027 60.7441C19.4255 60.5852 19.4624 60.4285 19.5127 60.276C19.5756 60.1044 19.649 59.9379 19.7276 59.7559C19.8062 59.5738 19.9058 59.423 20.0106 59.2358L20.0473 59.1837C20.059 59.1631 20.0731 59.1439 20.0893 59.1265L20.1259 59.0745C20.1387 59.0529 20.1527 59.0321 20.1679 59.0121C20.1662 59 20.1662 58.9878 20.1679 58.9757C20.1752 58.9612 20.186 58.9487 20.1993 58.9393V58.9029V58.8717L20.257 58.7989L20.3199 58.7156C20.4509 58.5492 20.5819 58.3828 20.7234 58.2267C20.8649 58.0707 21.0117 57.9095 21.1742 57.7482C21.3388 57.5847 21.5139 57.4318 21.6983 57.2905C21.8801 57.1453 22.0709 57.0116 22.2696 56.89C22.5076 56.7358 22.7583 56.6019 23.019 56.4896C23.2477 56.3929 23.4845 56.3164 23.7266 56.2607C23.948 56.2108 24.172 56.1726 24.3975 56.1463C24.6096 56.1198 24.8231 56.1059 25.0369 56.1047H27.3063L26.473 57.3165H24.4289C24.2214 57.3205 24.0145 57.3414 23.8105 57.379C23.6218 57.4087 23.436 57.4539 23.2549 57.5142C23.0609 57.5847 22.8828 57.6925 22.7308 57.8315C22.5331 58.006 22.3572 58.2033 22.2067 58.4192H25.7077L24.8744 59.631H21.4415C21.3116 59.8167 21.2093 60.0199 21.1375 60.2344C21.0956 60.3904 21.1375 60.4996 21.2056 60.5569C21.3146 60.6171 21.4335 60.6577 21.5568 60.6765C21.7472 60.7084 21.9402 60.7224 22.1333 60.7181H24.1931L23.3702 61.8935H21.1165C20.9187 61.8939 20.721 61.8835 20.5243 61.8623" fill="#003671"/>
<path d="M28.8262 56.0995L30.2623 54.019H31.8346L30.3985 56.0995H32.0285L31.2424 57.2541H29.5862L27.9876 59.605C27.8207 59.8128 27.6896 60.0465 27.5998 60.2968C27.5526 60.4684 27.5998 60.5724 27.6889 60.6193C27.8163 60.6778 27.9527 60.7147 28.0924 60.7285C28.2995 60.751 28.5078 60.7614 28.7161 60.7597H28.8262L28.0453 61.8935H26.6354C26.3969 61.9067 26.1585 61.8658 25.9383 61.7739C25.8623 61.7414 25.7951 61.6914 25.7423 61.6281C25.6894 61.5648 25.6524 61.49 25.6344 61.4098C25.6007 61.2234 25.617 61.0315 25.6815 60.8533C25.7834 60.5876 25.919 60.336 26.0851 60.1043L28.0348 57.2593H26.9551L27.7465 56.1047L28.8262 56.0995Z" fill="#003671"/>
<path d="M35.886 53.993L34.4499 56.0735H35.8283C36.1369 56.0705 36.4441 56.1125 36.7403 56.1983C36.9448 56.2572 37.1271 56.3749 37.2644 56.5364C37.3246 56.6308 37.3612 56.738 37.3713 56.8493C37.3813 56.9606 37.3644 57.0726 37.3221 57.1761C37.2014 57.5472 37.0247 57.8979 36.798 58.2163L34.2979 61.8571H32.7256L35.1156 58.3568C35.2251 58.2113 35.315 58.0521 35.3829 57.8835C35.4308 57.7868 35.4472 57.6778 35.43 57.5714C35.4124 57.528 35.3847 57.4894 35.3492 57.4586C35.3137 57.4279 35.2713 57.4059 35.2256 57.3946C35.0772 57.3543 34.9234 57.3367 34.7696 57.3425H33.5537L30.4614 61.8675H28.9572L34.3556 53.9566L35.886 53.993Z" fill="#003671"/>
<path d="M37.6575 61.8935C37.4797 61.8739 37.3041 61.8374 37.1334 61.7843C36.9845 61.7406 36.8493 61.66 36.7403 61.5503C36.6394 61.4386 36.5707 61.3021 36.5411 61.155C36.5117 61.0196 36.5117 60.8795 36.5411 60.7441C36.564 60.5852 36.6008 60.4285 36.6512 60.276C36.7142 60.0985 36.7877 59.9248 36.8713 59.7559C36.9552 59.5894 37.0443 59.423 37.1491 59.2358C37.1642 59.2206 37.1766 59.203 37.1858 59.1837L37.2277 59.1265C37.2429 59.1114 37.2553 59.0938 37.2644 59.0745L37.3063 59.0121V58.9757L37.3378 58.9393V58.9029V58.8717L37.3954 58.7989L37.4583 58.7156C37.5841 58.5492 37.7204 58.3828 37.8567 58.2267C37.9929 58.0707 38.1502 57.9095 38.3126 57.7482C38.4784 57.5858 38.6534 57.433 38.8368 57.2905C39.0195 57.1465 39.2102 57.0128 39.408 56.89C39.6484 56.7368 39.9008 56.6029 40.1628 56.4896C40.3909 56.3914 40.6278 56.3148 40.8703 56.2607C41.09 56.2108 41.3122 56.1726 41.5359 56.1463C41.7481 56.12 41.9616 56.1061 42.1754 56.1047H44.4448L43.6114 57.3165H41.5674C41.3599 57.3208 41.1531 57.3417 40.9489 57.379C40.771 57.4106 40.5958 57.4558 40.4248 57.5142C40.2308 57.5847 40.0527 57.6925 39.9007 57.8315C39.7044 58.0073 39.5286 58.2044 39.3766 58.4192H42.8777L42.0443 59.631H38.5747C38.4436 59.8168 38.3395 60.0199 38.2655 60.2344C38.2235 60.3904 38.2655 60.4996 38.3336 60.5568C38.4444 60.6171 38.5651 60.6576 38.69 60.6765C38.8804 60.7088 39.0734 60.7228 39.2665 60.7181H41.3263L40.5034 61.8935H38.2602C38.0624 61.8942 37.8646 61.8838 37.668 61.8623" fill="#003671"/>
<path d="M48.0507 56.0995C48.3552 56.0849 48.6592 56.1363 48.9417 56.2503C48.9813 56.2662 49.0173 56.2898 49.0475 56.3198C49.0778 56.3498 49.1017 56.3854 49.1178 56.4247C49.1339 56.464 49.142 56.5061 49.1414 56.5485C49.1409 56.5909 49.1318 56.6327 49.1146 56.6716C49.0323 56.8991 48.9288 57.1185 48.8054 57.3269C48.6586 57.5818 48.4804 57.8471 48.2813 58.1799L48.2184 58.2527C48.2022 58.2841 48.1829 58.3137 48.1607 58.3412C48.1485 58.3555 48.1379 58.3712 48.1293 58.388V58.4296L48.0874 58.4868C48.0874 58.4868 48.0874 58.4868 48.0559 58.5284H46.5832L46.6251 58.4764C46.6359 58.4521 46.65 58.4294 46.667 58.4088C46.6747 58.3959 46.6855 58.3852 46.6985 58.3776V58.3412C46.8439 58.1367 46.9786 57.9249 47.102 57.7066C47.1911 57.5454 47.2278 57.4466 47.2069 57.405C47.1859 57.3634 47.1178 57.3269 46.9815 57.3009C46.7798 57.2766 46.5767 57.2662 46.3735 57.2697H46.2058L43.0192 61.9508H41.4469L45.4091 56.1463L48.0507 56.0995Z" fill="#003671"/>
<path d="M55.4773 56.0995L56.9134 54.019H58.4858L57.0497 56.0995H58.6797L57.8935 57.2541H56.2583L54.6597 59.605C54.4928 59.8128 54.3617 60.0465 54.2719 60.2968C54.2247 60.4684 54.2719 60.5724 54.361 60.6193C54.4887 60.677 54.625 60.7139 54.7646 60.7285C54.9717 60.751 55.1799 60.7614 55.3882 60.7597H55.4878L54.7174 61.9039H53.3075C53.069 61.9171 52.8306 61.8762 52.6104 61.7843C52.5344 61.7518 52.4672 61.7018 52.4144 61.6385C52.3615 61.5752 52.3245 61.5004 52.3065 61.4202C52.2733 61.2279 52.2932 61.0302 52.3641 60.8481C52.466 60.5824 52.6016 60.3308 52.7677 60.0991L54.7174 57.2541H53.6272L54.4186 56.0995H55.4773Z" fill="#003671"/>
<path d="M60.2992 61.5763C60.0648 61.6789 59.823 61.7641 59.5759 61.8311C59.4134 61.8727 59.2614 61.9091 59.1094 61.9351C58.9574 61.9612 58.8107 61.982 58.6639 61.9924H58.4438H58.2289C58.0321 61.9915 57.8358 61.9741 57.6419 61.9403C57.463 61.9131 57.2874 61.8678 57.1178 61.8051C56.9777 61.7455 56.8498 61.6609 56.7405 61.5555C56.6397 61.4546 56.5643 61.3317 56.5203 61.1966C56.4746 61.0484 56.4534 60.8938 56.4574 60.7389C56.4637 60.5624 56.4937 60.3874 56.5465 60.2188C56.6195 60.0176 56.7052 59.8213 56.8033 59.631C56.9132 59.4205 57.0339 59.2156 57.165 59.0173C57.3117 58.8145 57.4637 58.6116 57.6314 58.414C57.7992 58.2163 57.9878 58.0187 58.1975 57.8158C58.4013 57.6315 58.6148 57.4579 58.8369 57.2957C59.0567 57.1261 59.2878 56.9714 59.5287 56.8328C59.7581 56.7026 59.9943 56.5845 60.2363 56.4791C60.4713 56.3781 60.713 56.293 60.9596 56.2243C61.1944 56.1621 61.4324 56.1118 61.6724 56.0735C61.8906 56.0372 62.1114 56.0181 62.3327 56.0162C62.5247 56.0154 62.7161 56.0346 62.904 56.0735C63.0829 56.1081 63.2583 56.1586 63.4281 56.2243C63.5718 56.2826 63.702 56.3693 63.8107 56.4791C63.9092 56.5797 63.9843 56.7004 64.0309 56.8328C64.0802 56.9819 64.0998 57.1392 64.0885 57.2957C64.0795 57.4724 64.0478 57.6472 63.9942 57.8158C63.9261 58.0199 63.8456 58.2196 63.7531 58.414C63.6549 58.6264 63.5355 58.8285 63.3967 59.0173C63.2542 59.2326 63.0965 59.4377 62.925 59.631C62.7436 59.8371 62.5512 60.0333 62.3485 60.2188C62.1495 60.4044 61.9394 60.5781 61.7195 60.7389C61.4966 60.9051 61.2638 61.058 61.0225 61.1966C60.7902 61.3312 60.5505 61.4528 60.3044 61.5607L60.2992 61.5763ZM58.7006 60.6973C58.718 60.7107 58.7375 60.7212 58.7583 60.7285H58.8159H58.8736C59.0469 60.7596 59.2244 60.7596 59.3977 60.7285C59.6094 60.69 59.8154 60.6254 60.0109 60.536C60.2292 60.4467 60.4367 60.3333 60.6294 60.198C60.8296 60.0583 61.0172 59.9016 61.1902 59.7299C61.2501 59.6711 61.3061 59.6086 61.3579 59.5426C61.4155 59.4802 61.468 59.4074 61.5308 59.3346C61.5949 59.2657 61.6545 59.1927 61.709 59.1161L61.8663 58.8925C61.9653 58.7431 62.0495 58.5846 62.1179 58.4192C62.1777 58.2761 62.2251 58.1282 62.2594 57.9771C62.2915 57.8525 62.2915 57.7219 62.2594 57.5974C62.215 57.4898 62.1357 57.4001 62.034 57.3425L61.9554 57.3009H61.8715H61.7719H61.6724C61.5888 57.2905 61.5043 57.2905 61.4208 57.3009C61.3307 57.308 61.2414 57.3219 61.1535 57.3425C61.0558 57.36 60.9594 57.3843 60.8652 57.4154C60.7656 57.4466 60.6661 57.4882 60.5665 57.5298C60.3556 57.622 60.1538 57.7334 59.9637 57.8627C59.7748 57.9906 59.5992 58.137 59.4396 58.2995L59.251 58.4972L59.0728 58.7C59.0176 58.7611 58.9685 58.8273 58.926 58.8977L58.8002 59.0953C58.6834 59.2575 58.585 59.4319 58.5067 59.6154C58.4402 59.7673 58.391 59.9261 58.36 60.0887C58.3317 60.2207 58.3426 60.3581 58.3914 60.484C58.447 60.5936 58.5398 60.6802 58.6535 60.7285H58.6954" fill="#003671"/>
<path d="M71.1326 56.0995L72.5687 54.019H74.1148L72.6787 56.0995H74.3087L73.5225 57.2541H71.8873L70.315 59.605C70.148 59.8128 70.017 60.0465 69.9271 60.2968C69.88 60.4684 69.9271 60.5724 70.0162 60.6193C70.1437 60.6778 70.2801 60.7147 70.4198 60.7285C70.6269 60.751 70.8352 60.7614 71.0435 60.7597H71.1431L70.3726 61.9039H68.9628C68.7243 61.9171 68.4859 61.8762 68.2657 61.7843C68.1896 61.7518 68.1224 61.7018 68.0696 61.6385C68.0168 61.5752 67.9798 61.5004 67.9617 61.4202C67.9286 61.2279 67.9485 61.0302 68.0194 60.8481C68.1213 60.5835 68.2551 60.332 68.4177 60.0991L70.3726 57.2541H69.2825L70.0739 56.0995H71.1326Z" fill="#003671"/>
<path d="M78.1871 53.993L76.7511 56.0735H78.1295C78.438 56.0705 78.7453 56.1125 79.0415 56.1983C79.2447 56.2599 79.4263 56.3771 79.5656 56.5364C79.6388 56.6313 79.6864 56.7433 79.7038 56.8616C79.7213 56.9799 79.7079 57.1007 79.6652 57.2125C79.5422 57.5827 79.3657 57.9331 79.141 58.2527L76.6358 61.8935H75.0634L77.4534 58.3932C77.5612 58.2465 77.6509 58.0876 77.7207 57.9199C77.7686 57.8232 77.7851 57.7142 77.7679 57.6078C77.7503 57.5644 77.7226 57.5258 77.687 57.495C77.6515 57.4643 77.6092 57.4423 77.5635 57.431C77.4149 57.3916 77.2612 57.3741 77.1075 57.379H75.8915L72.7993 61.9039H71.2793L76.6829 53.993H78.1871Z" fill="#003671"/>
<path d="M79.9587 61.8935C79.7808 61.8744 79.6052 61.8378 79.4346 61.7843C79.2857 61.7406 79.1504 61.66 79.0415 61.5503C78.9406 61.4386 78.8718 61.3021 78.8423 61.155C78.8128 61.0196 78.8128 60.8795 78.8423 60.7441C78.8652 60.5852 78.902 60.4285 78.9524 60.276C79.0153 60.0985 79.0888 59.9248 79.1725 59.7559C79.2564 59.5894 79.3455 59.423 79.4503 59.2358C79.4637 59.2193 79.476 59.2019 79.487 59.1837L79.5289 59.1265C79.544 59.1114 79.5564 59.0938 79.5656 59.0745L79.6075 59.0121C79.6058 59 79.6058 58.9878 79.6075 58.9757L79.639 58.9393V58.9029V58.8717C79.6562 58.8459 79.6754 58.8215 79.6966 58.7989C79.7188 58.7732 79.7381 58.7453 79.7543 58.7156C79.8853 58.5492 80.0216 58.3828 80.1578 58.2267C80.2941 58.0707 80.4513 57.9095 80.6138 57.7482C80.7796 57.5858 80.9545 57.433 81.1379 57.2905C81.3206 57.1465 81.5114 57.0128 81.7092 56.89C81.949 56.7357 82.2015 56.6018 82.4639 56.4896C82.692 56.3914 82.9289 56.3148 83.1715 56.2607C83.3986 56.2188 83.6278 56.1893 83.8581 56.1723C84.0702 56.1458 84.2837 56.1319 84.4975 56.1307H86.7669L85.9545 57.3113H83.9105C83.703 57.3153 83.4961 57.3362 83.292 57.3737C83.1141 57.4054 82.9389 57.4506 82.7679 57.509C82.5739 57.5795 82.3958 57.6873 82.2438 57.8262C82.0475 58.0021 81.8717 58.1992 81.7197 58.414H85.2208L84.3822 59.6154H80.8968C80.7637 59.7999 80.6595 60.0034 80.5876 60.2188C80.5457 60.3748 80.5876 60.484 80.6557 60.5412C80.7666 60.6015 80.8872 60.642 81.0121 60.6609C81.2025 60.6932 81.3956 60.7072 81.5887 60.7025H83.6432L82.8098 61.8935H80.5614C80.3636 61.8942 80.1658 61.8838 79.9692 61.8623" fill="#003671"/>
<path d="M94.9588 56.0995C95.2755 56.0977 95.591 56.1379 95.8969 56.2191C96.111 56.2699 96.3036 56.3864 96.4472 56.552C96.5046 56.6487 96.5382 56.7575 96.5455 56.8695C96.5528 56.9815 96.5335 57.0936 96.4892 57.1969C96.3653 57.5667 96.1888 57.917 95.9651 58.2371L93.4598 61.8779H91.9137L94.2931 58.388C94.4112 58.2257 94.5113 58.0513 94.5919 57.8679C94.6445 57.7708 94.6647 57.6597 94.6495 57.5506C94.6286 57.4847 94.5604 57.4327 94.4451 57.3946C94.2915 57.3536 94.1324 57.3361 93.9734 57.3425H92.7418L89.6233 61.8935H88.0824L92.0447 56.0891L94.9588 56.0995Z" fill="#003671"/>
<path d="M96.767 61.8935C96.5891 61.8739 96.4136 61.8374 96.2428 61.7843C96.094 61.7406 95.9587 61.66 95.8498 61.5503C95.7489 61.4386 95.6801 61.3021 95.6506 61.155C95.6124 61.0214 95.6035 60.8813 95.6244 60.7441C95.6472 60.5852 95.6841 60.4285 95.7345 60.276C95.7974 60.0985 95.8709 59.9248 95.9546 59.7559C96.0384 59.5894 96.1275 59.423 96.2324 59.2358C96.2475 59.2206 96.2599 59.203 96.269 59.1837L96.311 59.1265C96.3261 59.1114 96.3385 59.0938 96.3477 59.0745L96.3896 59.0121V58.9757L96.421 58.9393V58.9029V58.8717L96.4787 58.7989L96.5416 58.7156C96.6674 58.5492 96.8036 58.3828 96.9399 58.2267C97.0762 58.0707 97.2334 57.9095 97.3959 57.7482C97.5616 57.5858 97.7366 57.433 97.92 57.2905C98.1027 57.1465 98.2935 57.0128 98.4913 56.89C98.7317 56.7368 98.9841 56.6029 99.246 56.4896C99.4741 56.3914 99.711 56.3148 99.9536 56.2607C100.173 56.2108 100.395 56.1726 100.619 56.1463C100.831 56.12 101.045 56.1061 101.259 56.1047H103.528L102.726 57.3113H100.682C100.475 57.3156 100.268 57.3365 100.064 57.3738C99.8857 57.4054 99.7105 57.4506 99.5395 57.509C99.3455 57.5795 99.1674 57.6873 99.0154 57.8263C98.8191 58.0021 98.6433 58.1992 98.4913 58.414H101.992L101.154 59.6154H97.6684C97.5374 59.8012 97.4333 60.0043 97.3592 60.2188C97.3173 60.3748 97.3592 60.484 97.4273 60.5412C97.5382 60.6015 97.6588 60.642 97.7837 60.6609C97.9741 60.6932 98.1672 60.7072 98.3603 60.7025H100.42L99.6129 61.8935H97.3592C97.1613 61.8942 96.9636 61.8838 96.767 61.8623" fill="#003671"/>
<path d="M103.911 56.0995H105.708L105.761 57.8523L108.25 56.0995H110.027L105.845 59.0433L106.028 61.9091H104.23L104.136 60.2188L101.751 61.9091H99.964L104.094 59.0069L103.911 56.0995Z" fill="#003671"/>
<path d="M111.211 56.0995L112.648 54.019H114.194L112.758 56.0995H114.388L113.601 57.2541H111.966L110.394 59.605C110.227 59.8128 110.096 60.0465 110.006 60.2968C109.959 60.4684 110.006 60.5724 110.095 60.6193C110.223 60.677 110.359 60.7139 110.499 60.7285C110.706 60.751 110.914 60.7614 111.122 60.7597H111.222L110.452 61.9039H109.015C108.777 61.9171 108.539 61.8762 108.318 61.7843C108.242 61.7518 108.175 61.7018 108.122 61.6385C108.069 61.5752 108.032 61.5004 108.014 61.4202C107.981 61.2279 108.001 61.0302 108.072 60.8481C108.174 60.5824 108.31 60.3308 108.476 60.0991L110.425 57.2541H109.335L110.127 56.0995H111.211Z" fill="#003671"/>
<path d="M115.609 61.9039L121.007 53.993H122.621L117.218 61.9039H115.609Z" fill="#003671"/>
<path d="M120.546 61.8935C120.368 61.8748 120.192 61.8382 120.022 61.7843C119.872 61.7417 119.737 61.661 119.629 61.5503C119.524 61.4404 119.453 61.3033 119.424 61.155C119.395 61.0196 119.395 60.8795 119.424 60.7441C119.447 60.5852 119.484 60.4285 119.534 60.276C119.597 60.1043 119.671 59.9379 119.749 59.7559C119.828 59.5738 119.927 59.423 120.032 59.2358L120.069 59.1837C120.081 59.1631 120.095 59.1439 120.111 59.1265L120.148 59.0745C120.16 59.0529 120.174 59.0321 120.19 59.0121C120.188 59 120.188 58.9878 120.19 58.9757C120.197 58.9612 120.208 58.9487 120.221 58.9393C120.221 58.9393 120.221 58.9393 120.221 58.9029C120.221 58.8665 120.221 58.8769 120.221 58.8717L120.279 58.7989L120.342 58.7156C120.473 58.5492 120.604 58.3828 120.745 58.2267C120.887 58.0707 121.033 57.9095 121.196 57.7482C121.36 57.5847 121.536 57.4318 121.72 57.2905C121.902 57.1453 122.093 57.0116 122.291 56.89C122.529 56.7358 122.78 56.6019 123.041 56.4896C123.269 56.3922 123.506 56.3156 123.748 56.2607C123.97 56.2108 124.194 56.1726 124.419 56.1463C124.631 56.1196 124.845 56.1058 125.059 56.1047H127.328L126.495 57.3165H124.451C124.243 57.3205 124.036 57.3414 123.832 57.379C123.643 57.4087 123.458 57.4539 123.277 57.5142C123.084 57.5871 122.906 57.6947 122.752 57.8315C122.556 58.0073 122.38 58.2044 122.228 58.4192H125.729L124.896 59.631H121.411C121.281 59.8167 121.179 60.0199 121.107 60.2344C121.065 60.3904 121.107 60.4996 121.175 60.5568C121.284 60.6171 121.403 60.6577 121.526 60.6765C121.716 60.7086 121.909 60.7225 122.103 60.7181H124.162L123.402 61.8935H121.149C120.948 61.9047 120.747 61.9047 120.546 61.8935Z" fill="#003671"/>
<path d="M129.435 56.0995L128.229 60.2188L132.774 56.0995H134.44L127.878 61.9091H126.212L127.7 56.0995H129.435Z" fill="#003671"/>
<path d="M133.182 61.8935C133.004 61.8739 132.829 61.8374 132.658 61.7843C132.509 61.7406 132.374 61.66 132.265 61.5503C132.164 61.4386 132.095 61.3021 132.066 61.155C132.028 61.0214 132.019 60.8813 132.04 60.7441C132.063 60.5852 132.099 60.4285 132.15 60.276C132.213 60.0985 132.286 59.9248 132.37 59.7559C132.454 59.5894 132.543 59.423 132.648 59.2358C132.663 59.2206 132.675 59.203 132.684 59.1837L132.726 59.1265C132.741 59.1114 132.754 59.0938 132.763 59.0745L132.805 59.0121V58.9757L132.836 58.9393V58.9029V58.8717C132.854 58.8459 132.873 58.8216 132.894 58.7989L132.957 58.7156C133.083 58.5492 133.219 58.3828 133.355 58.2267C133.492 58.0707 133.649 57.9095 133.811 57.7482C133.977 57.5858 134.152 57.433 134.335 57.2905C134.518 57.1465 134.709 57.0128 134.907 56.89C135.147 56.7368 135.399 56.6029 135.661 56.4896C135.889 56.3914 136.126 56.3148 136.369 56.2607C136.589 56.2108 136.811 56.1726 137.035 56.1463C137.247 56.12 137.46 56.1061 137.674 56.1047H139.943L139.11 57.3165H137.066C136.858 57.3208 136.652 57.3417 136.448 57.379C136.261 57.4093 136.077 57.4545 135.897 57.5142C135.703 57.5847 135.525 57.6925 135.373 57.8315C135.177 58.0073 135.001 58.2044 134.849 58.4192H138.35L137.517 59.631H134.031C133.9 59.8168 133.796 60.0199 133.722 60.2344C133.68 60.3904 133.722 60.4996 133.79 60.5568C133.901 60.6171 134.022 60.6576 134.147 60.6765C134.337 60.7088 134.53 60.7228 134.723 60.7181H136.783L136.028 61.8935H133.775C133.577 61.8942 133.379 61.8838 133.182 61.8623" fill="#003671"/>
<path d="M136.993 61.9039L142.391 53.993H144L138.602 61.9039H136.993Z" fill="#003671"/>
<path d="M37.6523 46.701L42.5842 39.5807H22.7937C22.5798 39.6037 22.3647 39.5497 22.1876 39.4284C22.0106 39.3072 21.8834 39.1267 21.8293 38.9201C21.76 38.7264 21.7439 38.5178 21.7826 38.3158C21.8213 38.1138 21.9134 37.9257 22.0494 37.7707L28.2025 29.1732H18.6479L11.3785 38.9357C11.3785 38.9357 10.0787 41.089 9.98434 43.0498C9.96658 43.9755 10.311 44.8719 10.9453 45.5508C11.5796 46.2298 12.4544 46.6383 13.3858 46.6906" fill="#003671"/>
<path d="M59.4658 15.1821L54.1933 22.885H23.7947C25.1574 20.9498 26.841 19.258 28.7738 17.8815C30.8455 16.4077 33.2431 15.4482 35.7655 15.0833L59.4658 15.1821Z" fill="#003B79"/>
<path d="M41.4311 46.6386L53.339 29.2876H62.4166L51.0538 46.6386" fill="#003671"/>
<path d="M77.815 46.6386L75.5613 35.7162C75.5613 35.7162 80.1893 34.728 83.0981 32.2471C85.2889 30.3902 88.4178 23.4467 88.4178 23.4467C88.7305 22.4435 88.9429 21.4122 89.052 20.3677C89.1778 18.8593 88.2763 17.1117 87.9094 16.5968C87.547 16.1107 87.0626 15.7272 86.5045 15.4845C85.9464 15.2418 85.3339 15.1483 84.7281 15.2133H62.9617L57.9616 22.755H76.9555C77.222 22.7299 77.4907 22.7636 77.7426 22.8535C77.9944 22.9434 78.2232 23.0873 78.4125 23.2751C78.6194 23.4761 78.7781 23.7207 78.877 23.9908C78.9758 24.2608 79.0124 24.5495 78.9838 24.8354C78.9838 25.1475 77.9041 26.9731 77.2123 27.7897C76.5119 28.5011 75.6381 29.0207 74.6756 29.298C74.3314 29.3752 73.9802 29.417 73.6274 29.4228H64.9271L68.5068 46.649" fill="#003671"/>
<path d="M100.446 15.1457H109.754L104.482 22.8122H95.2628L100.446 15.1457Z" fill="#003671"/>
<path d="M79.1201 46.6386L91.0122 29.2876H99.9588L88.2396 46.6386" fill="#003671"/>
<path d="M113.617 15.1457H143.507L137.999 22.8122H108.434L113.617 15.1457Z" fill="#003671"/>
<path d="M92.16 46.6386L104.057 29.2876H124.382L118.759 37.1465H107.868L101.28 46.6386" fill="#003671"/>
<path d="M16.6406 9.19561C19.5284 8.2074 20.7287 7.69248 22.322 9.36205C23.3501 10.5021 24.1631 11.8164 24.7224 13.2421C23.6815 14.1904 22.4612 14.9241 21.1322 15.4006C20.0745 15.7534 18.987 16.011 17.8827 16.1703C17.8827 16.1703 18.3125 14.6412 18.7737 13.3825C19.2349 12.1239 20.6029 9.22162 20.6029 9.22162L19.1982 9.06038C18.0388 10.6872 17.055 12.4305 16.2632 14.2615C15.6084 15.8452 15.0826 17.4784 14.6909 19.1454C14.6909 19.1454 19.8115 18.5733 22.7727 17.6267C25.7339 16.68 27.93 15.8219 28.496 15.1925C29.062 14.5632 30.1155 13.1121 30.7916 9.25803C31.1588 7.38879 31.0048 5.45554 30.3461 3.66681C30.3461 3.66681 29.974 3.50037 28.4436 4.18692C28.1727 4.30997 27.9085 4.44713 27.6522 4.59781C27.0786 4.97148 26.5749 5.4414 26.1637 5.98651C26.6459 7.02674 27.1281 8.61829 26.756 10.0434C25.0578 7.47924 23.5484 6.13214 22.149 5.66404C20.1259 4.9931 19.062 5.32077 14.9582 7.15157C11.3785 8.73271 4.80611 12.5451 1.46751 14.5892L0.0471649 15.463C0.0471649 15.463 13.5378 10.2618 16.6406 9.22162" fill="#EF7B10"/>
<path d="M23.2654 5.25315C24.3021 4.28064 25.4676 3.45297 26.7297 2.79301C28.8183 1.7193 30.9773 0.786189 33.1921 0C30.6646 0.560515 28.2124 1.41417 25.8859 2.54336C24.6113 3.22193 23.407 4.0233 22.2905 4.93588L23.2654 5.25315Z" fill="#EF7B10"/>
</svg>
