<?xml version="1.0" encoding="UTF-8"?>
<svg id="Vrstva_2" data-name="Vrstva 2" xmlns="http://www.w3.org/2000/svg" viewBox="0 0 946.11 306.62">
  <defs>
    <style>
      .cls-1 {
        fill: #77787b;
      }

      .cls-2 {
        fill: #f58025;
      }

      .cls-3 {
        fill: #003e7e;
      }
    </style>
  </defs>
  <g id="Livello_1" data-name="Livello 1">
    <g>
      <path class="cls-3" d="m173.56,217.22l22.78-33.13h-91.36s-3.46.44-4.44-3.06c-.98-3.46,1.01-5.35,1.01-5.35l28.41-39.99h-44.12l-33.55,45.4s-6.01,10.13-6.43,19.14c-.43,9.01,6.71,16.13,15.7,16.99h111.99Z"/>
      <path class="cls-3" d="m274.25,70.45l-24.34,35.87H109.6s7.72-12.11,23-23.26c15.27-11.14,32.26-12.6,32.26-12.6h109.39Z"/>
      <polygon class="cls-3" points="235.43 217.22 287.89 136.22 245.98 136.22 245.98 136.22 191 217.22 235.43 217.22"/>
      <path class="cls-3" d="m358.96,217.22l-10.4-51.19s21.23-4.5,34.78-16.08c10.11-8.62,24.55-40.92,24.55-40.92,0,0,2.34-7.31,2.92-14.32.59-7.01-3.58-15.14-5.26-17.54-5.47-7.76-14.7-6.72-14.7-6.72h-100.46l-23.08,35.37h87.68s3.79-.59,6.71,2.33c2.93,2.92,2.63,5.85,2.63,7.31s-4.96,9.94-8.17,13.74c-3.22,3.8-9.35,6.43-11.7,7.02-2.33.58-4.96.58-4.96.58h-40.04l16.54,80.41h42.95Z"/>
      <polygon class="cls-3" points="463.42 70.45 506.37 70.45 482.03 106.11 439.49 106.11 463.42 70.45 463.42 70.45"/>
      <polygon class="cls-3" points="407.08 217.22 461.17 136.22 419.87 136.22 419.87 136.22 364.98 217.22 407.08 217.22"/>
      <polygon class="cls-3" points="524.21 70.45 662.17 70.45 636.74 106.11 500.28 106.11 524.21 70.45 524.21 70.45"/>
      <polygon class="cls-3" points="467.25 217.22 497.66 172.77 547.93 172.77 573.9 136.22 573.9 136.22 480.08 136.22 425.17 217.22 467.25 217.22"/>
    </g>
    <g>
      <path class="cls-2" d="m76.58,42.76c13.34-4.6,18.86-6.99,26.22.79,7.36,7.79,11.09,18.03,11.09,18.03,0,0-6.32,6.32-16.57,10.04-6.74,2.45-15.02,3.59-15.02,3.59,0,0,2-7.11,4.11-12.97,2.12-5.86,8.47-19.49,8.47-19.49l-6.5-.75s-7.56,10.16-13.55,24.17c-4.58,10.72-7.28,22.74-7.28,22.74,0,0,23.63-2.67,37.3-7.08,13.67-4.41,23.82-8.38,26.43-11.32,2.61-2.93,7.47-9.79,10.59-27.62,2.66-15.13-2.04-25.84-2.04-25.84,0,0-1.71-.8-8.76,2.34-1.37.61-2.58,1.27-3.67,1.91-2.33,1.36-5.29,4.32-6.87,6.45,2.23,4.76,4.45,12.24,2.73,18.89-7.84-11.94-14.81-18.21-21.26-20.38-9.33-3.12-14.25-1.58-33.2,6.93-16.52,7.43-46.87,25.15-62.27,34.67-3.9,2.41-6.55,4.06-6.55,4.06,0,0,62.26-24.23,76.58-29.17h0Z"/>
      <path class="cls-2" d="m107.16,24.43s5.51-5.7,15.91-11.45c12.01-6.63,29.91-12.98,29.91-12.98,0,0-14.38,2.67-33.73,11.82-7.23,3.41-16.59,11.13-16.59,11.13l4.5,1.47h0Z"/>
    </g>
    <g>
      <path class="cls-3" d="m19.38,255.92l5.53-8.09,40.14.06-5.53,8.08-15.09-.02-26,38.3-10.1-.02,26-38.29-14.96-.02Z"/>
      <path class="cls-3" d="m64.75,292.38c-1.37.61-2.78,1.1-4.24,1.48-.92.26-1.83.46-2.7.61-.89.14-1.76.26-2.61.36-.46.04-.88.07-1.28.09-.4.02-.81.04-1.24.04-1.21,0-2.36-.11-3.44-.31-1.08-.19-2.07-.46-2.97-.8-.88-.38-1.6-.88-2.18-1.46-.58-.58-1-1.29-1.27-2.11-.27-.81-.39-1.71-.38-2.68,0-.98.19-2.04.54-3.2.37-1.12.87-2.28,1.49-3.46.61-1.19,1.32-2.39,2.13-3.6.84-1.21,1.75-2.38,2.73-3.56.98-1.16,2.07-2.31,3.28-3.5,1.2-1.11,2.44-2.18,3.73-3.16,1.3-.99,2.65-1.91,4.07-2.72,1.36-.78,2.73-1.46,4.12-2.07,1.39-.6,2.79-1.1,4.2-1.49,1.42-.38,2.8-.68,4.17-.89,1.36-.21,2.65-.32,3.86-.32,1.2,0,2.33.11,3.33.33,1.01.21,1.97.51,2.9.91.92.39,1.67.89,2.23,1.49.57.61,1,1.3,1.28,2.07.27.83.38,1.73.34,2.74-.05.98-.23,2.04-.56,3.15-.4,1.18-.86,2.33-1.4,3.5-.55,1.17-1.24,2.36-2.08,3.57-.81,1.21-1.73,2.41-2.78,3.59-1.05,1.19-2.17,2.34-3.37,3.46-1.17,1.16-2.4,2.22-3.68,3.2-1.29.97-2.64,1.87-4.06,2.67l.03-.05c-1.42.81-2.81,1.53-4.18,2.13Zm-9.47-5.16c.1.06.21.13.32.16.11.04.22.1.33.12.11.05.23.07.36.07.92.17,1.94.15,3.06-.03,1.11-.19,2.31-.58,3.57-1.14,1.26-.51,2.45-1.16,3.6-1.97,1.15-.79,2.24-1.71,3.27-2.75.36-.33.69-.7,1.01-1.1.3-.38.63-.79.99-1.22.4-.42.75-.87,1.05-1.29.3-.43.61-.86.92-1.3.61-.95,1.1-1.87,1.47-2.78.38-.9.64-1.76.81-2.59.18-.87.17-1.6-.05-2.25-.22-.62-.66-1.12-1.32-1.51-.13-.09-.28-.17-.45-.22-.17-.07-.33-.12-.49-.16-.19-.04-.39-.08-.57-.1-.19-.03-.38-.06-.58-.11-.46-.05-.94-.05-1.46,0-.52.05-1.03.14-1.57.26-.55.08-1.12.22-1.7.42-.58.19-1.15.42-1.73.67-1.27.56-2.44,1.21-3.52,1.94-1.08.74-2.11,1.6-3.07,2.59-.38.38-.74.77-1.1,1.16-.35.4-.7.78-1.03,1.16-.34.4-.63.78-.87,1.18-.25.38-.49.78-.74,1.17-.73,1.03-1.3,2.03-1.72,2.97-.41.95-.69,1.89-.85,2.78-.15.92-.09,1.69.19,2.31.28.62.78,1.11,1.5,1.46l.1-.07c.06.05.16.1.26.17Z"/>
      <path class="cls-3" d="m104.86,298.91c-1.67,1.68-3.36,3.1-5.09,4.26-1.8,1.12-3.72,1.97-5.74,2.55-2.04.57-4.2.86-6.48.85l-17.71.04,4.67-6.91,16.12.02c.99-.09,1.89-.24,2.72-.46.82-.21,1.61-.56,2.37-1.04.78-.42,1.5-.97,2.16-1.64.66-.67,1.28-1.42,1.83-2.23h-7.31c-1.26-.02-2.44-.07-3.56-.11-1.12-.07-2.14-.19-3.06-.37-.94-.12-1.72-.46-2.34-1-.62-.54-1.08-1.28-1.38-2.24-.26-.72-.4-1.53-.41-2.4-.01-.85.12-1.79.4-2.79.28-.98.63-1.99,1.08-3,.44-1.02.95-2.04,1.55-3.08.09-.13.18-.25.25-.34.06-.12.12-.22.15-.31.02-.04.05-.09.1-.15.04-.07.08-.12.09-.17.16-.17.28-.32.36-.48.08-.15.18-.31.3-.47.17-.22.32-.44.45-.63.12-.18.24-.37.36-.54.17-.21.33-.43.48-.62.14-.19.3-.38.45-.55.76-.99,1.6-1.97,2.51-2.94.92-.97,1.9-1.94,2.94-2.88,1.03-.95,2.12-1.86,3.28-2.69,1.13-.84,2.33-1.61,3.56-2.29,1.48-.86,2.88-1.54,4.21-2.07,1.34-.51,2.64-.89,3.92-1.14,1.27-.27,2.52-.45,3.73-.58,1.23-.13,2.44-.2,3.65-.2l16.47-.04-22.34,32.87c-1.49,2.15-3.08,4.07-4.73,5.75Zm-.38-11.59l13.38-19.73c-.2.05-.38.07-.58.07h-1.16c-.2,0-.39-.01-.59-.07h-1.69c-1.42,0-2.84.09-4.26.29-1.42.19-2.86.47-4.31.86-1.52.43-2.99,1.2-4.4,2.36-1.42,1.12-2.83,2.65-4.22,4.55-.01.04-.05.1-.09.17-.05.06-.11.14-.19.23-.06.04-.12.1-.17.15-.05.07-.09.13-.12.23-.1.13-.19.26-.26.39-.08.13-.16.25-.26.38-.6.83-1.13,1.63-1.6,2.46-.47.82-.86,1.62-1.18,2.39-.28.76-.38,1.49-.32,2.13.06.64.26,1.22.6,1.75.23.3.48.53.78.71.29.16.64.29,1.04.38.4.1.81.17,1.24.24.42.07.87.1,1.35.1h2.27l.09-.07h4.66Z"/>
      <path class="cls-3" d="m128.03,294.21c-1.08-.13-2.11-.36-3.06-.65-.96-.3-1.72-.76-2.29-1.37-.57-.6-.96-1.38-1.18-2.34-.22-.73-.26-1.54-.14-2.41.13-.89.35-1.79.64-2.76.37-.99.79-1.98,1.28-2.95.49-.97,1.03-1.96,1.63-3.01.08-.07.15-.17.22-.28.07-.1.15-.23.24-.36.08-.09.15-.19.22-.29.06-.1.15-.23.25-.36.03-.08.07-.15.12-.22.04-.07.11-.13.19-.23.01-.02.05-.09.11-.19.06-.08.09-.15.12-.19.09-.13.21-.26.34-.42.12-.14.24-.31.36-.48.75-.99,1.54-1.96,2.35-2.87.82-.93,1.7-1.87,2.65-2.81.95-.95,1.96-1.84,3.01-2.69,1.06-.83,2.17-1.62,3.33-2.35,1.52-.96,2.98-1.72,4.4-2.32,1.41-.62,2.78-1.06,4.12-1.37,1.33-.29,2.64-.52,3.91-.67,1.27-.15,2.51-.22,3.72-.22l13.23-.04-4.87,7.11-11.92-.02c-1.27.05-2.47.16-3.61.36-1.14.2-2.21.47-3.21.79-1.01.36-2.01.97-3,1.85-.99.89-2,2.03-3.01,3.46l20.42-.03-4.87,7.12-20.33-.03c-.95,1.46-1.55,2.64-1.79,3.55-.24.9-.11,1.54.39,1.87.48.32,1.17.55,2.07.72.9.18,2.01.28,3.36.28l12-.04-4.81,7.11-13.15-.03c-1.21,0-2.36-.07-3.45-.2Z"/>
      <path class="cls-3" d="m176.54,260.36l8.4-12.36,9,.02-8.39,12.35h9.51s-4.6,6.82-4.6,6.82l-9.52-.02-9.37,13.77c-1.23,1.73-1.99,3.08-2.26,4.08-.28.98-.1,1.62.53,1.88.56.3,1.35.51,2.36.64,1,.12,2.22.2,3.64.2h.59l-4.52,6.73h-8.23c-1.72,0-3.07-.25-4.04-.74-.97-.47-1.56-1.17-1.78-2.13-.21-.96-.1-2.07.34-3.38.45-1.28,1.23-2.76,2.34-4.39l11.41-16.7h-6.35l4.61-6.79h6.34Z"/>
      <path class="cls-3" d="m217.69,248.06l-8.39,12.35h8.03c2.14.05,3.91.31,5.32.77,1.41.45,2.46,1.11,3.14,1.99.68.85.79,2.1.33,3.73-.45,1.64-1.49,3.68-3.08,6.1l-14.64,21.53h-9.06s13.97-20.58,13.97-20.58c.75-1.07,1.27-2,1.57-2.78.3-.78.39-1.38.26-1.81-.16-.48-.55-.83-1.2-1.04-.65-.22-1.53-.31-2.65-.31l-7.1-.09-18.08,26.59h-8.94s31.56-46.46,31.56-46.46l8.94.02Z"/>
      <path class="cls-3" d="m227.94,294.36c-1.09-.13-2.11-.35-3.07-.65-.96-.31-1.72-.75-2.29-1.36-.57-.61-.96-1.39-1.18-2.35-.22-.71-.25-1.53-.13-2.42.13-.88.35-1.8.65-2.74.36-1,.79-1.99,1.28-2.95.48-.97,1.02-1.97,1.62-3,.08-.11.15-.2.22-.3.07-.12.15-.23.25-.37.08-.08.15-.18.22-.28.07-.11.15-.23.24-.36.04-.08.08-.17.13-.23.04-.06.11-.14.19-.21.01-.05.05-.12.11-.21.06-.08.1-.16.11-.19.1-.13.21-.27.34-.43.12-.14.25-.3.36-.49.76-.98,1.53-1.94,2.36-2.86.81-.93,1.69-1.86,2.64-2.81.95-.95,1.96-1.85,3.02-2.69,1.05-.83,2.17-1.62,3.33-2.36,1.51-.93,2.97-1.72,4.39-2.32,1.41-.61,2.78-1.05,4.12-1.36,1.34-.28,2.63-.51,3.9-.67,1.27-.15,2.51-.22,3.72-.22l13.23-.05-4.87,7.13-11.92-.02c-1.27.05-2.48.16-3.62.35-1.13.19-2.2.45-3.2.8-1.01.35-2.01.96-3,1.84-.99.9-2,2.04-3.01,3.46l20.43-.04-4.88,7.13-20.33-.03c-.95,1.47-1.54,2.65-1.79,3.56-.25.91-.11,1.53.39,1.87.48.31,1.17.55,2.07.73.9.17,2.02.26,3.37.26l11.99-.03-4.8,7.1-13.15-.02c-1.21,0-2.36-.06-3.45-.19Z"/>
      <path class="cls-3" d="m288.62,260.52c2.4.04,4.13.34,5.18.88,1.04.54,1.38,1.38,1,2.49-.35,1.08-.96,2.36-1.81,3.85-.85,1.48-1.89,3.16-3.13,5.02-.12.16-.23.34-.34.51-.12.18-.23.36-.35.52-.08.09-.14.17-.2.26-.06.08-.11.18-.15.27-.1.12-.17.23-.23.31-.06.11-.13.18-.2.26l-8.58-.07c.07-.07.16-.2.23-.34.07-.12.16-.24.26-.39.08-.09.14-.15.18-.19.04-.04.07-.11.12-.19l.03-.06s.04-.09.08-.14c.04-.04.07-.07.08-.13,1.07-1.54,1.87-2.78,2.38-3.72.5-.92.7-1.52.59-1.77-.07-.25-.5-.45-1.31-.58-.81-.12-2-.19-3.54-.19h-.98l-18.64,27.47h-9s23.17-34.1,23.17-34.1l15.15.03Z"/>
      <path class="cls-3" d="m331.94,260.58l8.39-12.35h9s-8.4,12.36-8.4,12.36h9.52s-4.61,6.82-4.61,6.82h-9.51s-9.37,13.76-9.37,13.76c-1.23,1.72-1.98,3.09-2.26,4.08-.27.98-.11,1.61.52,1.88.56.3,1.35.51,2.36.64s2.22.2,3.64.21h.58l-4.52,6.72-8.22-.02c-1.73,0-3.07-.23-4.04-.71-.98-.48-1.57-1.19-1.78-2.14-.21-.95-.1-2.07.35-3.36.45-1.29,1.22-2.77,2.33-4.4l11.4-16.69h-6.34s4.61-6.8,4.61-6.8h6.34Z"/>
      <path class="cls-3" d="m360,292.81c-1.37.6-2.78,1.1-4.24,1.47-.92.26-1.83.46-2.71.61-.88.15-1.75.26-2.6.36-.46.04-.87.08-1.27.09-.4.02-.81.04-1.25.04-1.21,0-2.36-.1-3.44-.3-1.08-.21-2.07-.48-2.97-.82-.87-.39-1.61-.87-2.19-1.46-.57-.59-1-1.29-1.27-2.12-.27-.81-.4-1.71-.38-2.67.02-.99.19-2.04.54-3.2.38-1.13.87-2.28,1.49-3.46.62-1.19,1.32-2.38,2.12-3.59.84-1.22,1.76-2.41,2.72-3.57.98-1.17,2.08-2.33,3.29-3.49,1.19-1.12,2.44-2.19,3.73-3.17,1.29-.98,2.64-1.9,4.07-2.71,1.35-.77,2.72-1.46,4.12-2.07,1.39-.6,2.79-1.1,4.21-1.48,1.41-.38,2.79-.69,4.16-.9,1.36-.21,2.65-.32,3.86-.32s2.32.11,3.33.32c1.01.22,1.98.54,2.89.92.92.39,1.67.88,2.24,1.49.57.6,1,1.3,1.29,2.08.26.82.38,1.72.34,2.72-.05.98-.23,2.04-.57,3.17-.4,1.17-.86,2.32-1.4,3.5-.55,1.16-1.25,2.34-2.08,3.55-.81,1.22-1.73,2.41-2.78,3.59-1.04,1.18-2.17,2.34-3.37,3.46-1.17,1.17-2.4,2.22-3.67,3.19-1.29.98-2.64,1.87-4.05,2.68l.02-.06c-1.41.83-2.8,1.54-4.18,2.14Zm-9.47-5.17c.1.06.21.12.32.16.12.05.22.1.34.14.12.04.23.07.37.07.92.17,1.94.15,3.05-.03,1.12-.2,2.31-.56,3.58-1.13,1.25-.53,2.45-1.18,3.6-1.98,1.14-.8,2.23-1.7,3.26-2.75.36-.33.69-.71,1.01-1.08.31-.4.63-.8.98-1.23.39-.44.75-.86,1.06-1.31.31-.42.62-.84.92-1.29.61-.94,1.1-1.87,1.47-2.78.38-.91.64-1.76.8-2.58.19-.87.17-1.61-.05-2.24-.22-.62-.66-1.12-1.32-1.51-.14-.09-.29-.17-.46-.22-.17-.07-.33-.13-.48-.17-.19-.04-.39-.07-.57-.11-.19,0-.38-.05-.57-.09-.48-.05-.95-.05-1.47,0-.51.05-1.03.14-1.56.27-.55.09-1.12.23-1.69.41-.58.2-1.15.42-1.74.67-1.27.56-2.44,1.21-3.52,1.96-1.09.73-2.11,1.58-3.08,2.58-.38.38-.74.78-1.09,1.16-.36.4-.7.78-1.03,1.17-.33.38-.62.76-.87,1.15-.24.39-.48.77-.74,1.17-.73,1.04-1.29,2.02-1.71,2.97-.41.95-.7,1.88-.86,2.78-.15.91-.09,1.67.2,2.31.29.62.78,1.11,1.5,1.46l.09-.06c.07.04.16.1.26.16Z"/>
      <path class="cls-3" d="m423.23,260.72l8.39-12.36,9,.02-8.4,12.35h9.52s-4.61,6.8-4.61,6.8l-9.52-.02-9.37,13.79c-1.23,1.72-1.97,3.08-2.26,4.07-.27.99-.11,1.62.53,1.89.56.3,1.35.51,2.36.65,1,.12,2.21.19,3.65.19h.58l-4.52,6.73-8.23-.02c-1.72,0-3.07-.24-4.05-.72-.97-.47-1.56-1.18-1.78-2.14-.21-.95-.09-2.07.36-3.36.44-1.3,1.22-2.76,2.33-4.4l11.41-16.7h-6.35s4.61-6.79,4.61-6.79h6.35Z"/>
      <path class="cls-3" d="m464.38,248.4l-8.39,12.36h8.02c2.14.05,3.92.3,5.34.77,1.4.45,2.45,1.12,3.13,1.97.68.87.79,2.12.33,3.77-.46,1.63-1.48,3.65-3.08,6.07l-14.64,21.53h-9.07s13.97-20.56,13.97-20.56c.75-1.08,1.27-2.02,1.57-2.78.31-.79.39-1.38.27-1.82-.15-.48-.55-.81-1.2-1.04-.65-.21-1.53-.33-2.64-.33l-7.1-.06-18.07,26.58-8.94-.02,31.57-46.44h8.93Z"/>
      <path class="cls-3" d="m474.64,294.71c-1.09-.13-2.12-.33-3.07-.64-.96-.31-1.71-.76-2.29-1.36-.58-.62-.97-1.4-1.17-2.35-.22-.73-.28-1.53-.14-2.41.12-.89.34-1.81.64-2.76.37-1,.8-1.97,1.28-2.95.48-.97,1.02-1.97,1.62-3.01.08-.07.15-.18.22-.28.06-.12.15-.24.24-.37.08-.1.16-.19.22-.3.06-.1.14-.22.24-.35.03-.08.07-.16.12-.22.06-.07.12-.15.2-.24.02-.04.05-.1.11-.19.05-.09.1-.15.11-.19.09-.13.2-.27.33-.42.13-.15.25-.31.37-.48.75-1,1.54-1.95,2.34-2.89.81-.92,1.69-1.85,2.65-2.81.96-.95,1.96-1.84,3.02-2.67,1.06-.85,2.17-1.64,3.34-2.37,1.5-.94,2.98-1.71,4.38-2.31,1.43-.62,2.79-1.07,4.13-1.37,1.33-.31,2.63-.52,3.91-.67,1.26-.16,2.51-.23,3.71-.23l13.23-.05-4.87,7.12h-11.92c-1.26.04-2.48.14-3.6.34-1.14.19-2.21.45-3.21.79-1.01.35-2.01.97-3,1.84-.98.89-1.99,2.05-3.01,3.46l20.42-.03-4.87,7.12-20.32-.04c-.96,1.46-1.55,2.65-1.8,3.56-.24.9-.1,1.53.39,1.87.48.32,1.17.55,2.07.72.91.18,2.02.27,3.36.27l12.01-.04-4.81,7.11-13.14-.02c-1.21,0-2.36-.07-3.45-.21Z"/>
      <path class="cls-3" d="m562.18,260.91c2.19.04,4,.3,5.48.72,1.46.44,2.54,1.09,3.21,1.96.63.85.71,2.11.22,3.79-.48,1.65-1.54,3.7-3.19,6.09l-14.63,21.56-9-.02,13.88-20.51c.82-1.16,1.42-2.15,1.75-2.95.36-.78.47-1.4.35-1.83-.15-.4-.54-.7-1.18-.91-.64-.22-1.57-.33-2.78-.33l-7.16-.08-18.07,26.59h-9s23.17-34.1,23.17-34.1l16.96.02Z"/>
      <path class="cls-3" d="m572.67,294.86c-1.1-.14-2.12-.36-3.07-.65-.96-.31-1.72-.77-2.29-1.38-.58-.6-.96-1.37-1.18-2.33-.22-.73-.27-1.54-.14-2.42.13-.88.36-1.8.65-2.75.37-.99.78-1.98,1.28-2.95.48-.97,1.02-1.97,1.62-3.01.09-.09.16-.18.22-.29.07-.1.16-.23.25-.36.08-.08.15-.18.23-.29.06-.1.14-.23.24-.35.03-.08.07-.17.12-.23.06-.06.12-.13.19-.22.02-.04.06-.11.12-.2.06-.07.1-.14.11-.18.1-.13.21-.27.34-.42.13-.15.24-.32.37-.49.74-.99,1.53-1.95,2.35-2.88.81-.92,1.69-1.87,2.64-2.8.95-.96,1.96-1.86,3.02-2.69,1.05-.83,2.17-1.62,3.33-2.37,1.52-.94,2.98-1.72,4.4-2.32,1.42-.61,2.78-1.06,4.12-1.37,1.33-.28,2.63-.5,3.9-.67,1.27-.14,2.52-.22,3.71-.22l13.23-.04-4.86,7.11h-11.92c-1.27.03-2.48.15-3.62.34-1.14.21-2.21.47-3.21.8-1,.35-2,.96-2.99,1.86-.99.88-2,2.03-3.01,3.44l20.42-.03-4.86,7.11-20.34-.02c-.95,1.47-1.55,2.66-1.79,3.57-.24.91-.11,1.53.39,1.87.49.31,1.18.55,2.08.71.9.19,2.02.27,3.36.27l12.01-.04-4.8,7.11-13.14-.02c-1.22,0-2.37-.08-3.46-.2Z"/>
      <path class="cls-3" d="m614.37,260.99l10.48.02.3,10.3,14.53-10.28h10.37s-24.41,17.26-24.41,17.26l1.04,16.86-10.49-.02-.52-9.91-13.91,9.89-10.43-.02,24.1-16.99-1.06-17.1Z"/>
      <path class="cls-3" d="m656.98,261.05l8.39-12.35h8.99s-8.39,12.36-8.39,12.36l9.52.02-4.61,6.79h-9.52s-9.36,13.75-9.36,13.75c-1.24,1.74-1.99,3.1-2.27,4.09-.29,1-.11,1.63.51,1.89.58.3,1.37.5,2.36.63,1.01.14,2.22.21,3.65.21h.58l-4.52,6.71h-8.22c-1.73,0-3.08-.24-4.04-.72-.98-.48-1.57-1.2-1.78-2.14-.21-.94-.1-2.07.36-3.37.44-1.29,1.22-2.75,2.33-4.39l11.4-16.7h-6.34s4.61-6.81,4.61-6.81l6.35.02Z"/>
      <path class="cls-3" d="m682.56,295.21l31.56-46.44h9.39s-31.56,46.45-31.56,46.45h-9.39Z"/>
      <path class="cls-3" d="m711.42,295.06c-1.1-.13-2.12-.35-3.07-.65-.96-.32-1.72-.76-2.29-1.38-.58-.6-.97-1.37-1.18-2.33-.22-.73-.26-1.54-.14-2.44.13-.86.35-1.79.65-2.74.37-.99.79-1.97,1.28-2.94.47-.98,1.02-1.98,1.62-3,.07-.09.15-.19.21-.3.07-.1.16-.22.25-.35.08-.09.15-.19.22-.3.07-.11.15-.23.25-.36.03-.07.07-.15.12-.22.06-.06.12-.13.2-.22,0-.04.06-.1.11-.2.06-.08.1-.15.11-.18.1-.13.21-.27.33-.43.14-.14.26-.31.38-.49.74-.98,1.53-1.95,2.35-2.87.81-.93,1.69-1.87,2.65-2.81.95-.95,1.96-1.85,3.02-2.7,1.05-.83,2.17-1.61,3.34-2.35,1.51-.94,2.97-1.72,4.39-2.32,1.41-.6,2.77-1.06,4.12-1.37,1.34-.29,2.63-.52,3.9-.67,1.27-.14,2.52-.22,3.72-.22l13.24-.04-4.87,7.12-11.92-.02c-1.27.04-2.47.15-3.6.35-1.14.2-2.21.46-3.22.81-1,.35-2,.96-3,1.85-.98.88-1.99,2.02-3.01,3.47l20.42-.04-4.86,7.11-20.34-.03c-.95,1.47-1.55,2.66-1.79,3.56-.24.91-.11,1.53.39,1.87.48.32,1.18.56,2.07.74.9.16,2.02.25,3.36.25l12.01-.04-4.8,7.11-13.16-.02c-1.2,0-2.35-.08-3.44-.2Z"/>
      <path class="cls-3" d="m763.23,261.21l-7.05,24.21,26.54-24.19h9.71s-38.32,34.09-38.32,34.09l-9.71-.02,8.73-34.11,10.11.02Z"/>
      <path class="cls-3" d="m785.04,295.16c-1.1-.13-2.12-.35-3.07-.65-.96-.3-1.72-.75-2.29-1.36-.58-.6-.97-1.38-1.18-2.33-.22-.74-.27-1.54-.14-2.43.12-.9.33-1.81.64-2.74.38-1.01.79-1.98,1.28-2.96.49-.96,1.03-1.96,1.63-3,.07-.08.15-.17.22-.29.06-.11.14-.23.24-.35.07-.09.15-.2.22-.3.06-.1.14-.23.25-.35.04-.08.08-.17.13-.24.04-.06.1-.12.18-.21.02-.04.06-.11.12-.19.05-.1.09-.17.11-.21.1-.13.21-.26.33-.42.13-.15.25-.31.37-.49.75-.99,1.53-1.94,2.35-2.88.81-.93,1.7-1.86,2.65-2.81.95-.94,1.96-1.84,3.02-2.67,1.05-.84,2.17-1.64,3.34-2.36,1.51-.95,2.97-1.73,4.38-2.33,1.42-.6,2.79-1.05,4.12-1.36,1.34-.29,2.64-.51,3.91-.67,1.27-.15,2.5-.21,3.71-.21l13.24-.05-4.88,7.11h-11.92c-1.26.04-2.47.14-3.61.34-1.14.2-2.21.46-3.21.81-1.01.35-2,.96-3,1.85-.98.88-1.99,2.03-3,3.46l20.42-.03-4.86,7.12-20.34-.04c-.95,1.47-1.54,2.65-1.79,3.56-.24.89-.11,1.52.39,1.88.49.29,1.18.53,2.08.7.9.17,2.02.25,3.36.26l12.01-.04-4.8,7.11-13.15-.03c-1.21,0-2.37-.07-3.45-.2Z"/>
      <path class="cls-3" d="m807.26,295.38l31.56-46.43h9.4s-31.58,46.46-31.58,46.46l-9.38-.02Z"/>
    </g>
    <path class="cls-1" d="m686.02,110.93c5.19,0,9.56-.95,13.06-2.87,3.51-1.92,6.39-4.93,8.63-9,1.44-2.66,2.2-4.81,2.2-6.52,0-.88-.2-1.66-.62-2.3-1.27-1.85-4.38-2.67-9.33-2.67h-11.94c-1.86,0-3-.36-3.46-.97-.22-.27-.3-.56-.31-.93,0-.52.21-1.19.66-2.01.97-1.74,2.21-2.99,3.73-3.79,1.53-.8,3.46-1.2,5.82-1.2h22.28v-.25h0s.21.11.21.11l3.87-6.99-.23-.39h-23.58c-5.26,0-9.65.97-13.16,2.92-3.52,1.95-6.42,5.04-8.74,9.23-1.36,2.45-2.05,4.52-2.05,6.23,0,1,.25,1.89.76,2.61,1.4,1.93,4.58,2.81,9.55,2.82h10.64c2.31-.01,3.71.37,4.17.95.18.2.28.49.28.86,0,.57-.25,1.38-.79,2.35-.85,1.54-1.96,2.63-3.34,3.29-1.38.67-3.34,1.01-5.87,1.01h-22.58l-4.08,7.13.23.37h23.99Zm29.88-9.01c-.14.6-.21,1.19-.21,1.77,0,1.06.24,2.07.69,2.99.71,1.57,1.93,2.69,3.59,3.31,1.67.64,4.48.94,8.5.94h11.39l3.83-6.65-.23-.37h-10.61c-2.19,0-3.77-.19-4.75-.56-.97-.38-1.59-.98-1.9-1.83-.1-.24-.14-.49-.14-.79,0-.37.07-.81.23-1.31.28-.89,1.06-2.51,2.33-4.8l12.73-23.07-.23-.39h-9l-13.1,23.49c-1.71,3.1-2.76,5.52-3.13,7.28Zm48.53,9.84c7.31,0,13.66-1.68,19.03-5.06,5.38-3.38,9.99-8.55,13.83-15.53,2.69-4.89,4.04-8.89,4.05-12.04,0-1.37-.26-2.57-.76-3.6-1.74-3.49-6.32-5.15-13.61-5.15s-13.57,1.66-18.95,4.98c-5.39,3.31-9.95,8.38-13.69,15.16-2.83,5.11-4.26,9.29-4.26,12.55,0,1.32.24,2.48.71,3.49,1.69,3.52,6.29,5.19,13.65,5.19Zm.17-20.93c2.45-4.45,5.23-7.76,8.32-9.94,3.09-2.17,6.52-3.26,10.34-3.26s6.02,1.09,6.64,3.15c.12.42.2.91.2,1.45,0,2.09-1.01,5.01-3.04,8.69-2.56,4.64-5.38,8.04-8.46,10.25-3.09,2.21-6.55,3.3-10.43,3.3-3.94-.01-6.07-1.1-6.64-3.2-.11-.41-.17-.84-.17-1.33,0-2.14,1.07-5.21,3.24-9.12Zm43.87,20.1h9.33l39.73-39.34c.08-.07.1-.18.05-.28-.03-.09-.12-.16-.23-.16h-9.59l-29.02,28.82,3.17-28.52h-.25v-.02h-.64l-9.59-.27-3.23,39.51.26.02v.24Zm13.17-39.26h.03l-.37,3.06.34-3.06Zm12.94,39.11c.03.09.13.15.23.15h9.56l9.16-9.42,18.42.08-.14,1.03-1.31,8.04h.26v.03h.86l9.16.24,3.63-39.48h-.25v-.02h-.58l-8.97-.27v.27l-.18-.19-39.79,39.27c-.07.06-.1.18-.05.28Zm36.21-.35h-.03l.17-1.08-.14,1.08Zm13.35-38.76h.02l-.22,2.28.2-2.28Zm-12.17,29.69l-1.7-.02h1.7v.02Zm2.42-21.44l-1.75,14.38-11.93-.21,13.68-14.17Zm71.71-8.59c-.03-.1-.13-.18-.25-.18h-10.81l-26.54,18.29,9.88-17.91-.22-.39h-9.01v.27l-.22-.13-21.66,39.27.22.37h9.01l10.69-19.12,5.42,18.94,11.76.18.24-.33-6.3-20.08,27.69-18.9c.09-.07.13-.18.1-.29Zm-302.2,92.09c1.68.54,4.2.81,7.57.81h15.26l3.99-6.97-.22-.39h-14.81c-3.85.01-5.95-.88-6.47-2.46-.12-.34-.17-.72-.17-1.15-.01-1.72.93-4.34,2.81-7.75,2.73-4.95,5.51-8.5,8.3-10.63,2.8-2.13,6.02-3.2,9.71-3.2h14.81l3.92-6.84-.23-.38h-14.99c-6.95,0-12.99,1.67-18.14,4.99-5.15,3.34-9.65,8.5-13.49,15.47-1.99,3.59-3.15,6.69-3.47,9.31-.08.5-.1,1-.1,1.5,0,1.96.54,3.63,1.65,4.97,1.02,1.28,2.4,2.2,4.06,2.73Zm89.83-26.8c1.39-2.55,2.11-4.69,2.11-6.45,0-1.07-.26-1.99-.8-2.76-1.47-2.03-4.81-2.96-10-2.97h-22.19v.26l-.21-.12-21.67,39.26.22.38h9.01l8.74-15.57,10.39.13.67,15.2,10.39.24-.02-.25h.03l-.16-1.58-1.26-14.86c2.94-.28,5.81-1.53,8.37-3.46,2.58-1.92,4.7-4.41,6.37-7.45Zm-13.58,27.35v.02s-.7-.02-.7-.02h.7Zm3.95-27.48c-.99,1.78-2.23,3.01-3.75,3.73-1.53.73-3.78,1.1-6.76,1.1h-10.62l5.25-9.51,10.83.14c3.02-.02,4.88.41,5.49,1.04.25.26.39.58.39,1.05,0,.61-.27,1.44-.82,2.46Zm36.76-2.5c2.45-1.47,5.27-2.2,8.5-2.2h14.79l3.99-6.97-.22-.38h-14.96c-6.94,0-13.01,1.67-18.15,4.99-5.15,3.34-9.64,8.5-13.49,15.47-1.98,3.59-3.15,6.69-3.47,9.31-.08.5-.11,1.01-.11,1.5,0,1.96.56,3.63,1.64,4.97,1.03,1.28,2.4,2.2,4.07,2.73,1.67.54,4.19.81,7.57.81h15.23l4-6.97-.23-.39h-14.79c-3.62.01-5.72-.75-6.35-2.09-.2-.39-.3-.85-.3-1.4,0-1.39.65-3.31,1.99-5.74l24.75.14,3.99-6.98-.22-.37-24.47-.02c1.81-2.87,3.87-4.99,6.21-6.4Zm21.16,30.23h19.88c3.38,0,6.18-.26,8.42-.8,2.24-.54,4.56-1.43,6.94-2.68,3.11-1.62,5.93-3.72,8.47-6.31,2.53-2.6,4.79-5.7,6.78-9.29,2.77-5.06,4.18-9.15,4.18-12.34,0-1.21-.2-2.3-.62-3.25-1.55-3.45-5.86-5.11-12.78-5.11h-19.62v.26l-.23-.12-21.66,39.26.23.38Zm27.11-32.57l10.21.14c3.97,0,6.06.93,6.49,2.58.06.26.11.55.11.91,0,1.86-1.1,4.86-3.35,8.93-2.67,4.84-5.26,8.16-7.74,9.96-2.48,1.79-5.69,2.69-9.62,2.69h-10.02l13.91-25.21Zm26.6,32.19l.23.38h9.41v-.25l.22.11,21.66-39.26-.23-.38h-9.41l-21.88,39.4Zm43.54-39.35l-3.99,6.97.22.37h13.43l-17.66,32,.22.38h9.34l18.08-32.52,13.68.14,4-6.97-.23-.37h-37.09Zm-219.41,63.85c1-1.82,1.51-3.45,1.51-4.92v-.12c-.03-1.51-.61-2.77-1.73-3.72-.79-.67-1.98-1.13-3.6-1.42-1.59-.29-3.79-.43-6.58-.43h-22.02l-21.87,39.4.23.38h23.58c4.95,0,9.09-.88,12.43-2.64,3.34-1.76,6.02-4.51,8.07-8.21,1.01-1.84,1.52-3.43,1.52-4.8,0-.29-.02-.57-.06-.83-.25-1.4-1.16-2.54-2.66-3.38,2.57-1,4.72-2.23,6.51-3.67,1.89-1.55,3.46-3.43,4.67-5.65Zm-19.71,17.26c-.85,1.55-1.93,2.67-3.22,3.38-1.29.71-2.95,1.08-4.98,1.08h-12.89l4.89-8.88,13.11.14c2,0,3.21.39,3.63,1.02.15.21.25.5.25.87,0,.61-.25,1.41-.79,2.39Zm8.78-16.14c-.83,1.52-1.9,2.62-3.21,3.33-1.32.71-2.97,1.07-4.98,1.07h-12.75l4.74-8.57h13.03c2.01-.01,3.24.37,3.68.99.17.21.27.51.27.88,0,.57-.25,1.35-.77,2.29Zm61.1-11.35l-.22-.37h-9.01l-13.18,23.63c-2.02,3.67-4.14,6.2-6.32,7.6-2.18,1.41-5.01,2.12-8.51,2.12-3.53,0-5.5-.75-6.05-2.03-.15-.32-.22-.71-.22-1.15-.01-1.42.75-3.55,2.28-6.3l12.96-23.51-.22-.37h-8.98l-13.3,23.85c-1.6,2.91-2.65,5.17-3.16,6.81-.31.96-.47,1.82-.47,2.58,0,.51.08.98.23,1.4.7,1.92,2.19,3.34,4.37,4.24,2.19.89,5.2,1.33,9.07,1.33s7.35-.45,10.45-1.32c3.11-.88,6.03-2.26,8.79-4.13,1.44-.97,2.81-2.31,4.13-3.97,1.33-1.68,2.75-3.9,4.3-6.68l13.08-23.72Zm39.58,11.79c1.39-2.55,2.11-4.69,2.11-6.45,0-1.06-.27-2-.81-2.75-1.47-2.03-4.8-2.96-10-2.97h-22.18v.26l-.23-.12-21.66,39.26.22.38h9l8.74-15.57,10.39.13.67,15.2,10.4.24-.02-.25h.03l-.16-1.52-1.25-14.92c2.93-.28,5.79-1.53,8.36-3.46,2.57-1.92,4.68-4.41,6.37-7.45Zm-13.58,27.36v.02l-.7-.02h.7Zm3.95-27.48c-.98,1.78-2.22,3.01-3.75,3.73-1.54.73-3.79,1.1-6.76,1.1h-10.62l5.25-9.51,10.82.14c3.02-.02,4.9.4,5.49,1.04.26.25.39.58.39,1.04.01.61-.26,1.44-.82,2.47Zm38.27,20.38h-14.79c-3.63,0-5.71-.76-6.36-2.1-.19-.39-.29-.86-.29-1.39,0-1.39.65-3.31,1.98-5.75l24.76.14,3.99-6.97-.23-.38-24.46-.03c1.81-2.87,3.88-4.99,6.22-6.4,2.45-1.46,5.26-2.2,8.49-2.2h14.79l3.99-6.97-.22-.38h-14.97c-6.94,0-13,1.67-18.14,5-5.15,3.33-9.65,8.49-13.49,15.46-1.99,3.59-3.14,6.7-3.46,9.31-.08.51-.1,1.02-.1,1.49,0,1.96.54,3.63,1.63,4.96,1.02,1.29,2.4,2.21,4.07,2.73,1.68.54,4.19.81,7.57.81h15.22l3.99-6.97-.22-.38Zm47.8-32.17h-.27l-9.29-.26v.26l-.18-.18-39.79,39.27c-.07.06-.09.18-.05.28.04.09.13.16.24.16h9.55l9.15-9.43,18.42.07-.12.95-1.32,8.12h.25v.04h.99l9.04.25,3.63-39.51h-.26Zm-13.36,39h-.04l.17-.99-.13.99Zm1.18-9.07l-1.37-.02h1.38v.02Zm.65-7.05l-11.94-.21,13.68-14.16-1.74,14.37Zm11.24-19.59l.26-3.04h.02l-.28,3.04Zm48.8-3.55l-13.19,23.63c-2.02,3.67-4.13,6.2-6.31,7.6-2.18,1.41-5.02,2.12-8.52,2.12-3.53,0-5.51-.75-6.05-2.03-.15-.32-.21-.71-.21-1.15,0-1.42.74-3.55,2.26-6.3l12.97-23.51-.21-.37h-8.99l-13.3,23.85c-1.61,2.91-2.66,5.17-3.16,6.81-.32.96-.46,1.82-.46,2.58,0,.51.08.98.23,1.4.7,1.92,2.19,3.34,4.37,4.24,2.19.89,5.2,1.33,9.06,1.33s7.36-.45,10.45-1.32c3.11-.88,6.04-2.26,8.8-4.13,1.43-.97,2.8-2.31,4.13-3.97,1.33-1.68,2.75-3.9,4.29-6.68l13.08-23.72-.22-.37h-9.01Z"/>
  </g>
</svg>