<?xml version="1.0" encoding="utf-8"?>
<!-- Generator: Adobe Illustrator 25.0.0, SVG Export Plug-In . SVG Version: 6.00 Build 0)  -->
<svg version="1.1" id="Layer_1" xmlns="http://www.w3.org/2000/svg" xmlns:xlink="http://www.w3.org/1999/xlink" x="0px" y="0px"
	 viewBox="0 0 2289.1 427.1" style="enable-background:new 0 0 2289.1 427.1;" xml:space="preserve">
<style type="text/css">
	.st0{fill:#000;}
</style>
<path class="st0" d="M1586.8,113.5c30.7,0,60.4,16.1,76.7,38.8c0.4,0.6,0.8,1.2,1.2,1.8c0.6,0.9,1.4,1.8,1.9,2.7l0-0.1
	c11,13.5,27.6,22.2,46.4,22.2c32.9,0,59.5-26.6,59.5-59.5c0-15.4-5.9-29.5-15.6-40c-41-50.4-89.7-79.4-170.3-79.4
	c-128,0-224.2,88.5-224.2,212.6c0,126,96.2,214.5,224.2,214.5c81.8,0,129.9-28.8,170.3-74.1l-0.1,0c9.1-10.3,14.6-23.8,14.6-38.6
	c0-32.2-26.1-58.3-58.3-58.3c-17.6,0-33.3,7.8-44.1,20.2c-19.2,19.1-41.3,38.2-82.5,38.2c-58.7,0-91.4-42.4-91.4-102
	C1495.4,154.9,1528.2,113.5,1586.8,113.5 M2042.2,162.5c-55.8-12.5-81.8-15.4-81.8-38.5c0-16.3,14.4-24,44.2-24
	c30.8,0,59.7,14.4,78.9,30.7l0.1-0.1c9.1,8.5,21.2,13.9,34.6,13.9c28.1,0,50.8-22.8,50.8-50.8c0-15-6.6-28.4-16.9-37.6
	c-33.6-34.2-81.5-56-148.4-56C1916.2,0,1845,37.5,1845,129.8c0,85.7,62.5,116.4,118.3,130.9c66.4,17.3,92.3,17.3,92.3,39.5
	c0,17.3-13.4,25-55.8,25c-33.1,0-64.1-12.1-89.8-32.7l1.2,1.1c-0.1-0.1-0.1-0.1-0.1-0.1c-20.7-18.9-52.7-18-72.2,2.3
	c-15.9,16.6-18.4,40.8-8.2,60.1c0.3,0.6,0.7,1.3,1.1,2c0.9,1.6,1.9,3.1,3,4.6c0.8,1.1,1.7,2.1,2.6,3.1c1,1.1,1.8,2.4,2.9,3.4
	c0.8,0.8,1.8,1.3,2.7,2.1c35.7,32.1,87.2,56,165.5,56c128.9,0,168.3-61.5,168.3-136.6C2176.9,203.9,2101.8,176,2042.2,162.5
	 M224.2,113.5c30.7,0,60.4,16.1,76.7,38.8c0.4,0.6,0.8,1.1,1.2,1.7c0.6,0.9,1.4,1.8,2,2.8l0-0.1c10.9,13.5,27.6,22.2,46.4,22.2
	c32.9,0,59.6-26.6,59.6-59.5c0-15.4-6-29.4-15.5-39.9C353.5,29,304.8,0,224.2,0C96.2,0,0,88.5,0,212.6c0,126,96.2,214.5,224.2,214.5
	c81.8,0,129.9-28.8,170.3-74.1l-0.1,0c9.1-10.3,14.6-23.8,14.6-38.6c0-32.2-26-58.3-58.3-58.3c-17.6,0-33.4,7.8-44.1,20.2
	c-19.2,19.1-41.3,38.2-82.5,38.2c-58.7,0-91.4-42.4-91.4-102C132.8,154.9,165.5,113.5,224.2,113.5 M1068.6,317.5
	c-57.7,0-93.4-42.3-93.4-103c0-61.6,35.6-102.9,93.4-102.9c57.7,0,92.3,41.4,92.3,102.9C1160.9,275.1,1126.3,317.5,1068.6,317.5
	 M1068.6,0c-127,0-226.1,89.5-226.1,214.5c0,124.1,99.1,212.6,226.2,212.6c127,0,225.1-88.5,225.1-212.6
	C1293.7,89.5,1195.6,0,1068.6,0 M778.1,26.4c-20-10.6-34.2-12.7-63.9-10.2c-53.6,4.5-95.1,42.1-102.7,51.5v2.8
	c0-0.9-0.1-1.7-0.2-2.5h-0.1v-0.3C608.6,33.2,580,6.2,545,6.2c-36.2,0-65.5,28.9-66.5,64.8v290.3c1.2,35.7,30.4,64.3,66.4,64.3
	c36.4,0,65.9-29.1,66.5-65.4v-79c0-107.7,62.2-134.8,97.2-135.6c9.2-0.2,32.9,8.9,51.4,5.5c36.2-6.6,60.1-41.3,53.5-77.4
	C809.6,52.4,796,35.5,778.1,26.4"/>
<g>
	<path class="st0" d="M2205.8,21.7v42.7h-13.1V21.7h-15.1V11.4h43.2v10.3C2220.9,21.7,2205.8,21.7,2205.8,21.7z M2276.7,64.4V26.9
		h-0.3l-13.6,37.6h-8.9l-13.6-37.6h-0.2v37.6h-12.4v-53h17.5l13.3,34.9l13.2-34.9h17.4v53H2276.7z"/>
</g>
</svg>
