<svg width="86" height="16" viewBox="0 0 86 16" fill="none" xmlns="http://www.w3.org/2000/svg">
<g clip-path="url(#clip0_224_187)">
<path d="M59.3955 4.25196C60.5468 4.25196 61.6563 4.85667 62.2642 5.70478C62.2794 5.7276 62.2946 5.75042 62.3098 5.76943C62.3326 5.80366 62.363 5.83409 62.382 5.87212C62.7924 6.37794 63.4155 6.70121 64.1184 6.70121C65.3495 6.70121 66.3488 5.70478 66.3488 4.47255C66.3488 3.89446 66.1284 3.36962 65.7675 2.97409C64.2362 1.08391 62.4086 0 59.3955 0C54.608 0 51.006 3.31257 51.006 7.96387C51.006 12.6152 54.608 16 59.3955 16C62.458 16 64.259 14.9199 65.7713 13.2237C66.1094 12.8358 66.3184 12.3337 66.3184 11.7785C66.3184 10.5729 65.3419 9.59544 64.1374 9.59544C63.4763 9.59544 62.8874 9.88828 62.4884 10.3523C61.7703 11.0711 60.942 11.7861 59.3993 11.7861C57.2031 11.7861 55.9759 10.2001 55.9759 7.96387C55.9759 5.7276 57.2031 4.25196 59.3993 4.25196M76.4444 6.0889C74.3546 5.6173 73.3819 5.51082 73.3819 4.64749C73.3819 4.03518 73.9214 3.74994 75.0385 3.74994C76.1556 3.74994 77.2727 4.28999 77.9946 4.90231C78.3328 5.21797 78.7887 5.41574 79.2865 5.41574C80.3352 5.41574 81.1863 4.56382 81.1863 3.51034C81.1863 2.95127 80.9393 2.44545 80.5518 2.09936C79.2941 0.817685 77.5007 0 74.9967 0C71.7215 0 69.0541 1.40718 69.0541 4.86427C69.0541 8.07416 71.3947 9.22653 73.4845 9.76658C75.9694 10.4169 76.9421 10.4169 76.9421 11.246C76.9421 11.8964 76.4406 12.1816 74.8561 12.1816C73.6175 12.1816 72.4586 11.7252 71.4935 10.957L71.5391 10.9988C71.5391 10.9988 71.5391 10.9988 71.5353 10.995C70.7602 10.2876 69.5633 10.318 68.8337 11.0825C68.2372 11.7024 68.146 12.6114 68.5298 13.334C68.5412 13.3568 68.5564 13.3834 68.5716 13.41C68.6058 13.4709 68.64 13.5241 68.6856 13.585C68.716 13.6268 68.7502 13.661 68.7806 13.6991C68.8186 13.7409 68.8489 13.7865 68.8907 13.8284C68.9211 13.8588 68.9591 13.8778 68.9895 13.9082C70.327 15.1101 72.2534 16.0076 75.1829 16.0076C80.0084 16.0076 81.4827 13.7029 81.4827 10.8923C81.4827 7.64821 78.6747 6.60233 76.4444 6.09651M8.39334 4.25196C9.54082 4.25196 10.6541 4.85667 11.262 5.70478C11.2772 5.7276 11.2924 5.74661 11.3076 5.76943C11.3304 5.80366 11.3608 5.83789 11.3836 5.87212C11.794 6.37794 12.4171 6.70121 13.1201 6.70121C14.3511 6.70121 15.3504 5.70478 15.3504 4.47255C15.3504 3.89446 15.1263 3.37343 14.7691 2.97789C13.234 1.08391 11.4064 0 8.39334 0C3.60203 0 0 3.31257 0 7.96387C0 12.6152 3.60203 16 8.39334 16C11.4558 16 13.2568 14.9199 14.7653 13.2237C15.1073 12.8358 15.3124 12.3337 15.3124 11.7785C15.3124 10.5729 14.3397 9.59544 13.1315 9.59544C12.4703 9.59544 11.8814 9.88828 11.4824 10.3523C10.7643 11.0711 9.93598 11.7861 8.39714 11.7861C6.20096 11.7861 4.97369 10.2001 4.97369 7.96387C4.97369 5.7276 6.19717 4.25196 8.39714 4.25196M39.9947 11.8926C37.8327 11.8926 36.4991 10.3066 36.4991 8.03613C36.4991 5.76563 37.8327 4.1797 39.9947 4.1797C42.1567 4.1797 43.4523 5.7276 43.4523 8.03613C43.4523 10.3447 42.1567 11.8926 39.9947 11.8926ZM39.9947 0C35.2414 0 31.5292 3.35061 31.5292 8.03613C31.5292 12.7217 35.2376 16 39.9947 16C44.7518 16 48.4222 12.6836 48.4222 8.03613C48.4222 3.38864 44.748 0 39.9947 0ZM29.1202 0.988828C28.3717 0.593297 27.8397 0.51343 26.7265 0.604706C24.7203 0.772047 23.1662 2.18303 22.8813 2.53672V2.63941C22.8813 2.60518 22.8775 2.57476 22.8737 2.54433V2.53292C22.7749 1.24364 21.7072 0.228191 20.3963 0.228191C19.0854 0.228191 17.9418 1.3083 17.9076 2.65843V13.5355C17.9532 14.8743 19.0474 15.943 20.3925 15.943C21.7376 15.943 22.8623 14.8514 22.8813 13.4937V10.5348C22.8813 6.49964 25.2104 5.48419 26.5175 5.45757C26.8632 5.44996 27.7486 5.78845 28.4401 5.66294C29.7965 5.41574 30.6895 4.11505 30.4425 2.76111C30.2981 1.96244 29.7851 1.32731 29.1164 0.988828" fill="#151515"/>
<path d="M82.5618 0.813931V2.41507H82.0716V0.813931H81.5093V0.42981H83.1279V0.813931H82.5656H82.5618ZM85.2177 2.41507V1.00789H85.2063L84.6971 2.41507H84.3666L83.8574 1.00789H83.8498V2.41507H83.3863V0.42981H84.0398L84.5376 1.73811L85.0353 0.42981H85.685V2.41507H85.2215H85.2177Z" fill="#151515"/>
</g>
<defs>
<clipPath id="clip0_224_187">
<rect width="85.6774" height="16" fill="white"/>
</clipPath>
</defs>
</svg>
