<?xml version="1.0" encoding="UTF-8"?>
<svg id="Capa_1" data-name="Capa 1" xmlns="http://www.w3.org/2000/svg" viewBox="0 0 852.01 157.7">
  <path d="M590.64,41.91c11.43,0,22.49,5.96,28.54,14.33,.15,.23,.31,.43,.46,.66,.24,.33,.52,.66,.73,1v-.02c4.09,4.99,10.29,8.18,17.27,8.18,12.24,0,22.16-9.83,22.16-21.98,0-5.7-2.21-10.88-5.79-14.78-15.24-18.61-33.4-29.3-63.37-29.3-47.63,0-83.44,32.66-83.44,78.48s35.82,79.22,83.44,79.22c30.45,0,48.36-10.64,63.4-27.35h-.03c3.38-3.81,5.43-8.79,5.43-14.24,0-11.9-9.71-21.52-21.7-21.52-6.56,0-12.41,2.89-16.4,7.45-7.14,7.07-15.37,14.11-30.71,14.11-21.84,0-34.03-15.64-34.03-37.67s12.2-36.57,34.03-36.57m169.49,18.1c-20.78-4.63-30.44-5.68-30.44-14.21,0-6.02,5.36-8.86,16.46-8.86s22.21,5.32,29.38,11.35l.03-.04c3.38,3.15,7.89,5.11,12.86,5.11,10.45,0,18.91-8.41,18.91-18.77,0-5.52-2.47-10.48-6.31-13.9-12.52-12.62-30.34-20.69-55.23-20.69-32.59,0-59.09,13.86-59.09,47.93,0,31.63,23.27,42.99,44.05,48.33,24.72,6.39,34.37,6.39,34.37,14.57,0,6.39-4.99,9.24-20.75,9.24-12.33,0-23.85-4.49-33.44-12.08l.45,.42s-.04-.02-.05-.04c-7.7-6.96-19.6-6.65-26.86,.85-5.92,6.13-6.84,15.08-3.03,22.18,.12,.24,.28,.49,.42,.75,.35,.58,.7,1.14,1.12,1.71,.29,.4,.64,.76,.96,1.13,.37,.41,.68,.88,1.08,1.26,.31,.3,.67,.49,.99,.77,13.28,11.84,32.46,20.7,61.59,20.7,47.98,0,62.65-22.71,62.65-50.43,0-31.97-27.93-42.28-50.12-47.26M83.46,41.91c11.43,0,22.47,5.96,28.53,14.33,.15,.22,.31,.42,.46,.63,.23,.34,.52,.66,.74,1.02v-.02c4.07,4.99,10.28,8.18,17.26,8.18,12.25,0,22.17-9.83,22.17-21.98,0-5.69-2.21-10.84-5.78-14.75C131.59,10.69,113.43,0,83.46,0,35.82,0,0,32.66,0,78.48s35.82,79.22,83.46,79.22c30.44,0,48.35-10.64,63.38-27.35h-.02c3.38-3.81,5.43-8.79,5.43-14.24,0-11.9-9.69-21.52-21.68-21.52-6.57,0-12.43,2.89-16.41,7.45-7.14,7.07-15.37,14.11-30.7,14.11-21.86,0-34.04-15.64-34.04-37.67s12.18-36.57,34.04-36.57M397.73,117.22c-21.49,0-34.75-15.63-34.75-38.02s13.26-38,34.75-38,34.37,15.27,34.37,38-12.89,38.02-34.37,38.02m0-117.22c-47.29,0-84.18,33.04-84.18,79.2s36.89,78.5,84.18,78.5,83.8-32.68,83.8-78.5S445,0,397.73,0m-108.12,9.74c-7.43-3.9-12.74-4.69-23.8-3.78-19.94,1.66-35.4,15.54-38.24,19.03v1.02c0-.32-.05-.63-.07-.94h-.02v-.1c-.97-12.7-11.59-22.7-24.64-22.7s-24.4,10.66-24.74,23.94v107.19c.44,13.19,11.33,23.74,24.72,23.74s24.54-10.76,24.75-24.15v-29.16c0-39.76,23.17-49.79,36.16-50.05,3.43-.08,12.25,3.27,19.13,2.02,13.47-2.45,22.38-15.26,19.91-28.59-1.45-7.86-6.52-14.11-13.18-17.47"/>
  <path d="M821.02,8.02v15.78h-4.88V8.02h-5.6v-3.8h16.09v3.8h-5.61Zm26.39,15.78V9.92h-.1l-5.08,13.87h-3.3l-5.08-13.87h-.09v13.87h-4.6V4.22h6.51l4.93,12.88,4.93-12.88h6.47V23.79h-4.6Z"/>
</svg>