<?xml version="1.0" encoding="utf-8"?>
<!-- Generator: Adobe Illustrator 22.0.1, SVG Export Plug-In . SVG Version: 6.00 Build 0)  -->
<svg version="1.1" id="Ebene_1" xmlns="http://www.w3.org/2000/svg" xmlns:xlink="http://www.w3.org/1999/xlink" x="0px" y="0px"
	 width="67.1px" height="49.2px" viewBox="0 0 67.1 49.2" style="enable-background:new 0 0 67.1 49.2;" xml:space="preserve">
<style type="text/css">
	.st0{fill:#E70038;}
	.st1{fill:#FFFFFF;}
</style>
<g>
	<path class="st0" d="M61.7,0L33.3,49.2L4.9,0H61.7L61.7,0z M19.1,8.2l14.2,24.6L47.5,8.2H19.1L19.1,8.2z"/>
	<polygon points="61.7,24.6 61.7,12.3 4.9,12.3 4.9,24.6 61.7,24.6 	"/>
	<polygon class="st1" points="26.1,20.3 29,14.2 31.2,14.2 27.2,22.7 25,22.7 21.1,14.2 23.2,14.2 26.1,20.3 	"/>
	<path class="st1" d="M42.1,14.2H36v1.6h4.1V19c0,1.5-1.2,2.2-2.1,2.2c-0.6,0-1.7-0.3-2.1-1.6L34.3,20c0.3,1.3,1.6,2.9,3.8,2.9
		c2.3,0,4-1.5,4-4.5V14.2L42.1,14.2z"/>
	<polygon class="st1" points="57.5,22.7 57.5,14.2 55.6,14.2 52.5,18.2 49.4,14.2 47.5,14.2 47.5,22.7 49.5,22.7 49.5,17.2 
		52.2,20.7 52.8,20.7 55.5,17.2 55.5,22.7 57.5,22.7 	"/>
	<path class="st1" d="M17.2,15.3c-0.9-0.9-2.2-1.4-3.7-1.4c-2.7,0-4.9,1.6-4.9,4.6c0,2.9,2.2,4.6,4.9,4.6c1.6,0,3-0.6,3.9-1.7
		l-1.5-1.1c-0.5,0.7-1.4,1.1-2.4,1.1c-1.6,0-3-1-3-2.8c0-1.8,1.4-2.8,3-2.8c0,0,0,0,0,0c0,0,0,0,0,0c0,0,0,0,0,0
		c0.9,0,1.7,0.3,2.3,0.9L17.2,15.3L17.2,15.3z M13.5,13.9C13.5,13.9,13.5,13.9,13.5,13.9C13.5,13.9,13.5,13.9,13.5,13.9
		C13.5,13.9,13.5,13.9,13.5,13.9L13.5,13.9z"/>
</g>
</svg>
