<svg xmlns="http://www.w3.org/2000/svg" viewBox="0 0 62.39 54.03"><defs><style>.cls-1{fill:#e4003a;}.cls-2{fill:#1d1d1b;}.cls-3{fill:#fff;}</style></defs><title>Element 1</title><g id="Ebene_2" data-name="Ebene 2"><g id="Ebene_1-2" data-name="Ebene 1"><path class="cls-1" d="M62.39,0,31.19,54,0,0ZM15.6,9,31.19,36,46.79,9Z"/><polygon class="cls-2" points="62.39 27 62.39 13.49 0 13.49 0 27 62.39 27 62.39 27"/><polygon class="cls-3" points="23.29 22.34 26.48 15.54 28.86 15.54 24.48 24.95 22.09 24.95 17.85 15.54 20.14 15.54 23.29 22.34 23.29 22.34"/><path class="cls-3" d="M40.84,15.54H34.18v1.79h4.5v3.49a2.33,2.33,0,0,1-4.58.68l-1.82.44a4.29,4.29,0,0,0,4.19,3.23c2.54,0,4.37-1.61,4.37-5V15.54Z"/><polygon class="cls-3" points="57.73 24.97 57.73 15.56 55.68 15.56 52.29 19.99 48.89 15.56 46.85 15.56 46.85 24.97 49.01 24.97 49.01 18.91 51.95 22.74 52.63 22.74 55.57 18.91 55.57 24.97 57.73 24.97 57.73 24.97"/><path class="cls-3" d="M13.48,16.79a5.61,5.61,0,0,0-4.07-1.57C6.49,15.22,4,17,4,20.24s2.46,5,5.38,5a5.51,5.51,0,0,0,4.32-1.85L12,22.17a3.25,3.25,0,0,1-2.63,1.18,3.11,3.11,0,1,1,0-6.22h0a3.31,3.31,0,0,1,2.49,1l1.58-1.35ZM9.41,15.22h0Z"/></g></g></svg>