<?xml version="1.0" encoding="utf-8"?>
<!-- Generator: Adobe Illustrator 16.0.4, SVG Export Plug-In . SVG Version: 6.00 Build 0)  -->
<!DOCTYPE svg PUBLIC "-//W3C//DTD SVG 1.1//EN" "http://www.w3.org/Graphics/SVG/1.1/DTD/svg11.dtd">
<svg version="1.1" id="svg8415" xmlns:svg="http://www.w3.org/2000/svg"
	 xmlns="http://www.w3.org/2000/svg" xmlns:xlink="http://www.w3.org/1999/xlink" x="0px" y="0px" width="575.15px"
	 height="507.231px" viewBox="46.351 -19.121 575.15 507.231" enable-background="new 46.351 -19.121 575.15 507.231"
	 xml:space="preserve">
<g id="layer1" transform="translate(-59.610218,-283.80081)">
	<path id="path5575" fill="#D80027" d="M393.583,735.067l-31.899-54.95L175.182,356.474l-31.666-54.95h63.564h373.704h63.332
		l-31.666,54.95L425.248,680.117L393.583,735.067z M393.583,588.379L517.22,374.635l-246.808,0.233L393.583,588.379z"/>
	<path id="path5577" d="M142.817,409.729v0.932v109.713v0.932h0.932h499.948h0.56v-0.932V410.661v-0.932h-0.56H143.748H142.817z"/>
	<path id="path5581" fill="#FFFFFF" d="M215.276,423.7c-19.745,0.06-40.972,12.897-41.539,41.911
		c-0.565,28.857,18.657,44.168,44.892,43.028c15.78-0.685,25.615-9.73,32.97-19.558c-3.196-3.412-14.156-8.01-14.156-8.01
		c-5.692,7.257-11.929,11.183-20.304,11.362c-13.084,0.283-25.869-7.957-26.45-24.588c-1.133-32.708,33.849-36.419,46.939-20.489
		c6.252-5.685,12.667-9.686,12.667-9.686C242.189,428.282,231.601,423.641,215.276,423.7z M355.724,424.259
		c-11.66,19.104-25.728,55.434-26.823,59.42c0,0-13.865-35.607-26.077-59.047c-1.818,0.767-13.121,4.255-16.951,3.539
		c10.923,22.829,33.343,76.93,33.343,76.93c2.168,1.11,17.703,1.334,19.372,0.186c0,0,15.424-39.31,34.273-76.557
		C367.778,428.588,363.249,426.531,355.724,424.259z M428.183,425.562c-5.341,0.114-9.738,0.511-12.107,1.118
		c1.743,4.857,0,13.784,0,13.784h36.136l1.304,14.343c-0.134,7.279,2.064,19.32-2.421,27.009
		c-5.097,8.739-10.364,9.366-18.627,9.127c-7.138-0.208-15.886-3.665-18.813-17.695c-5.588,4.128-12.294,5.774-12.294,5.774
		c4.046,20.236,19.312,27.27,31.293,27.195c21.131,0,31.004-12.197,34.646-24.588c3.89-12.868,0.932-41.106,0.932-54.95
		C468.231,426.68,444.203,425.221,428.183,425.562z M585.208,426.308c-2.189,0.062-4.43,0.212-6.52,0.559l-21.234,43.959
		l-21.794-43.773c-7.048-1.095-17.323,0-17.323,0s-7.182,74.583-6.892,78.047c0,0,10.625,0.156,17.137,0.931
		c0,0,2.63-48.631,4.098-49.361c5.491,10.297,17.51,32.411,17.51,32.411c4.061-0.641,10.714-0.641,15.833,0
		c4.812-9.895,11.034-22.844,16.392-32.598c0.409-0.141,3.077,34.899,3.353,49.734c6.996-0.857,11.884-1.005,17.323-1.118
		l-5.216-78.233C597.874,426.867,591.776,426.123,585.208,426.308z"/>
</g>
</svg>
