<svg width="264" height="333" viewBox="0 0 264 333" fill="none" xmlns="http://www.w3.org/2000/svg">
  <path fill-rule="evenodd" clip-rule="evenodd" d="M107.728 99.0757L110.922 105.606C118.86 102.55 127.283 101.295 135.387 101.295C147.457 101.295 157.409 104.225 165.553 108.971C165.872 109.157 166.176 109.361 166.474 109.579L173.717 114.888C174.043 115.127 174.361 115.382 174.661 115.653C185.793 125.722 192.242 139.59 195.29 152.283H203.594V99.9407H195.29C193.51 102.649 191.139 109.418 185.8 109.418C184.724 109.418 183.385 108.974 181.779 108.257L181.771 108.275L180.527 107.674C180.397 107.611 180.272 107.552 180.139 107.487L166.413 100.855C158.82 97.7437 149.031 94.9787 136.573 94.9787C126.52 94.9787 116.82 96.4217 107.728 99.0757Z" fill="#FEFEFE"/>
  <path fill-rule="evenodd" clip-rule="evenodd" d="M115.896 246.984C91.0295 240.847 73.1115 221.282 73.1115 175.295C73.1115 150.677 79.1145 133.652 88.2305 122.18L82.5455 110.556C60.3825 124.931 45.8305 148.109 45.8305 175.295C45.8305 209.764 69.3995 245.602 115.896 253.835V246.984Z" fill="#FEFEFE"/>
  <path fill-rule="evenodd" clip-rule="evenodd" d="M159.705 54.0893V62.7783C175.125 62.7783 180.757 66.1913 180.757 72.7103C180.757 76.4353 179.574 82.3303 176.308 88.5373L171.113 99.0043L179.334 102.976L194.696 72.0903C197.365 66.5033 204.185 62.7783 217.234 62.7783V54.0893H159.705Z" fill="#FEFEFE"/>
  <path fill-rule="evenodd" clip-rule="evenodd" d="M145.699 248.813V255.245C185.22 252.164 208.339 228.805 208.339 193.119H198.255C196.621 223.356 178.483 245.397 145.699 248.813Z" fill="#FEFEFE"/>
  <path fill-rule="evenodd" clip-rule="evenodd" d="M60.821 322.068H202.406L252.923 269.196V63.657L202.406 10.784H60.821L10.304 63.657V269.196L60.821 322.068ZM206.673 332.853H56.554L0 273.661V59.191L56.554 0H206.673L263.227 59.191V273.661L206.673 332.853Z" fill="#FEFEFE"/>
  <path fill-rule="evenodd" clip-rule="evenodd" d="M142.231 262.681L142.207 177.618L171.836 118.05L164.286 112.758L136.869 167.993C136.869 167.993 107.57 107.02 107.591 107.01L99.2302 89.9143L99.2752 89.8903L97.7272 86.6743C95.3512 81.7103 93.2782 76.4353 93.2782 73.0223C93.2782 64.6403 96.8372 62.7783 120.261 62.7783V54.0893H45.8302V62.7783C59.4712 62.7783 63.9202 64.9483 66.5892 70.2283L119.669 177.618C119.669 177.618 119.616 246.917 119.651 262.438C119.459 280.149 115.134 281.612 87.3502 281.612V289.913H172.158V281.612C146.81 281.612 142.459 280.16 142.231 262.681Z" fill="#FEFEFE"/>
</svg>
