<?xml version="1.0" encoding="utf-8"?>
<!-- Generator: Adobe Illustrator 25.3.0, SVG Export Plug-In . SVG Version: 6.00 Build 0)  -->
<svg version="1.1" id="DAAD_x5F_Logo-Supplement" xmlns="http://www.w3.org/2000/svg" xmlns:xlink="http://www.w3.org/1999/xlink"
	 x="0px" y="0px" viewBox="0 0 316 109" style="enable-background:new 0 0 316 109;" xml:space="preserve">
<style type="text/css">
	.st0{fill:#1A171B;}
	.st1{fill:#0060AF;}
	.st2{fill:#FFFFFF;}
</style>
<g id="Supplement">
</g>
<g>
	<path class="st0" d="M97.31,45.27h1.65c2.03,0,3.11,1.17,3.11,3.26c0,2.1-1.08,3.32-3.07,3.32h-1.69V45.27L97.31,45.27z
		 M98.89,51.17c1.55,0,2.31-0.97,2.31-2.64c0-1.66-0.76-2.58-2.31-2.58h-0.74v5.22H98.89z"/>
	<path class="st0" d="M105.28,46.85c1.25,0,1.95,0.89,1.95,2.29c0,0.17-0.01,0.33-0.03,0.45h-3.29c0.06,1.05,0.69,1.72,1.63,1.72
		c0.46,0,0.85-0.15,1.21-0.38l0.29,0.54c-0.42,0.27-0.94,0.5-1.61,0.5c-1.31,0-2.34-0.95-2.34-2.55
		C103.09,47.83,104.16,46.85,105.28,46.85z M106.5,49.05c0-0.99-0.44-1.55-1.2-1.55c-0.68,0-1.31,0.56-1.41,1.55H106.5z"/>
	<path class="st0" d="M108.41,46.97h0.83v2.98c0,0.91,0.27,1.31,0.91,1.31c0.5,0,0.85-0.25,1.32-0.82v-3.46h0.82v4.88h-0.68
		l-0.07-0.76h-0.03c-0.45,0.53-0.93,0.88-1.61,0.88c-1.03,0-1.5-0.66-1.5-1.91v-3.1C108.4,46.97,108.41,46.97,108.41,46.97z"/>
	<path class="st0" d="M114.13,47.65h-0.72v-0.62l0.76-0.05l0.1-1.37h0.69v1.37h1.31v0.67h-1.31v2.71c0,0.6,0.19,0.94,0.75,0.94
		c0.17,0,0.39-0.07,0.55-0.13l0.16,0.62c-0.27,0.09-0.6,0.18-0.9,0.18c-1.04,0-1.4-0.66-1.4-1.63v-2.69
		C114.12,47.65,114.13,47.65,114.13,47.65z"/>
	<path class="st0" d="M117.3,50.75c0.42,0.34,0.85,0.58,1.44,0.58c0.64,0,0.96-0.34,0.96-0.76c0-0.5-0.58-0.72-1.11-0.92
		c-0.69-0.25-1.46-0.58-1.46-1.41c0-0.78,0.62-1.39,1.68-1.39c0.61,0,1.14,0.25,1.52,0.55l-0.39,0.52
		c-0.33-0.25-0.68-0.43-1.11-0.43c-0.61,0-0.89,0.33-0.89,0.7c0,0.45,0.53,0.63,1.08,0.84c0.7,0.26,1.49,0.55,1.49,1.48
		c0,0.79-0.63,1.46-1.79,1.46c-0.69,0-1.36-0.29-1.82-0.67L117.3,50.75z"/>
	<path class="st0" d="M123.67,46.85c0.64,0,1.09,0.27,1.43,0.58l-0.41,0.53c-0.29-0.25-0.59-0.43-0.98-0.43
		c-0.88,0-1.53,0.76-1.53,1.89c0,1.11,0.61,1.87,1.51,1.87c0.46,0,0.85-0.23,1.14-0.49l0.37,0.54c-0.44,0.39-1,0.63-1.59,0.63
		c-1.29,0-2.29-0.93-2.29-2.55C121.32,47.79,122.42,46.85,123.67,46.85z"/>
	<path class="st0" d="M126.31,44.71h0.82v1.95l-0.03,1c0.46-0.44,0.95-0.8,1.63-0.8c1.02,0,1.49,0.66,1.49,1.91v3.09h-0.82v-2.98
		c0-0.91-0.28-1.31-0.92-1.31c-0.5,0-0.84,0.26-1.34,0.75v3.53h-0.82v-7.14H126.31z"/>
	<path class="st0" d="M133.65,46.85c1.24,0,1.95,0.89,1.95,2.29c0,0.17-0.01,0.33-0.03,0.45h-3.29c0.06,1.05,0.69,1.72,1.63,1.72
		c0.46,0,0.85-0.15,1.21-0.38l0.29,0.54c-0.42,0.27-0.94,0.5-1.61,0.5c-1.31,0-2.34-0.95-2.34-2.55
		C131.46,47.83,132.53,46.85,133.65,46.85z M134.87,49.05c0-0.99-0.44-1.55-1.2-1.55c-0.68,0-1.31,0.56-1.41,1.55H134.87z"/>
	<path class="st0" d="M136.85,46.97h0.68l0.07,0.88h0.03c0.33-0.61,0.83-1,1.39-1c0.21,0,0.36,0.03,0.52,0.1l-0.16,0.72
		c-0.16-0.05-0.27-0.08-0.47-0.08c-0.41,0-0.9,0.3-1.23,1.12v3.13h-0.82v-4.87H136.85z"/>
	<path class="st0" d="M145.52,49.85h-2.4l-0.63,2.01h-0.85l2.23-6.59h0.94l2.23,6.59h-0.88L145.52,49.85z M145.31,49.17l-0.31-1
		c-0.23-0.73-0.44-1.46-0.65-2.22h-0.04c-0.21,0.76-0.42,1.49-0.65,2.22l-0.32,1H145.31z"/>
	<path class="st0" d="M147.91,44.71h0.81v4.83h0.03l2.08-2.57h0.91l-1.64,1.96l1.86,2.92h-0.9l-1.43-2.35l-0.91,1.06v1.29h-0.81
		V44.71L147.91,44.71z"/>
	<path class="st0" d="M155.59,48.76c0-0.62-0.21-1.23-1-1.23c-0.57,0-1.07,0.26-1.46,0.52l-0.33-0.57c0.45-0.29,1.13-0.63,1.92-0.63
		c1.19,0,1.7,0.79,1.7,2.01v2.99h-0.68l-0.07-0.58h-0.02c-0.47,0.38-1.01,0.7-1.62,0.7c-0.82,0-1.44-0.51-1.44-1.39
		C152.58,49.52,153.51,48.99,155.59,48.76z M154.25,51.31c0.47,0,0.86-0.23,1.33-0.65V49.3c-1.64,0.2-2.19,0.6-2.19,1.23
		C153.4,51.08,153.77,51.31,154.25,51.31z"/>
	<path class="st0" d="M159.78,46.85c0.56,0,0.93,0.21,1.37,0.56l-0.04-0.83V44.7h0.83v7.15h-0.68l-0.07-0.57h-0.03
		c-0.38,0.37-0.9,0.69-1.48,0.69c-1.23,0-2.02-0.92-2.02-2.55C157.66,47.84,158.67,46.85,159.78,46.85z M159.86,51.28
		c0.45,0,0.84-0.22,1.24-0.67v-2.55c-0.41-0.37-0.78-0.51-1.18-0.51c-0.78,0-1.41,0.75-1.41,1.87
		C158.51,50.58,159.01,51.28,159.86,51.28z"/>
	<path class="st0" d="M165.46,46.85c1.25,0,1.95,0.89,1.95,2.29c0,0.17-0.01,0.33-0.03,0.45h-3.29c0.06,1.05,0.69,1.72,1.63,1.72
		c0.46,0,0.85-0.15,1.21-0.38l0.29,0.54c-0.42,0.27-0.94,0.5-1.61,0.5c-1.3,0-2.34-0.95-2.34-2.55
		C163.27,47.83,164.35,46.85,165.46,46.85z M166.69,49.05c0-0.99-0.44-1.55-1.21-1.55c-0.68,0-1.31,0.56-1.41,1.55H166.69z"/>
	<path class="st0" d="M168.66,46.97h0.68l0.07,0.7h0.03c0.42-0.46,0.93-0.82,1.52-0.82c0.74,0,1.15,0.35,1.35,0.93
		c0.51-0.55,1.01-0.93,1.61-0.93c1,0,1.49,0.66,1.49,1.91v3.09h-0.82v-2.98c0-0.91-0.29-1.31-0.9-1.31c-0.38,0-0.77,0.25-1.22,0.75
		v3.53h-0.82v-2.98c0-0.91-0.29-1.31-0.91-1.31c-0.36,0-0.77,0.25-1.22,0.75v3.53h-0.82v-4.86
		C168.7,46.97,168.66,46.97,168.66,46.97z"/>
	<path class="st0" d="M176.88,45.44c0-0.32,0.25-0.53,0.57-0.53s0.57,0.21,0.57,0.53c0,0.31-0.25,0.53-0.57,0.53
		S176.88,45.75,176.88,45.44z M177.03,46.97h0.82v4.88h-0.82V46.97z"/>
	<path class="st0" d="M179.42,50.75c0.42,0.34,0.85,0.58,1.44,0.58c0.64,0,0.96-0.34,0.96-0.76c0-0.5-0.58-0.72-1.12-0.92
		c-0.69-0.25-1.46-0.58-1.46-1.41c0-0.78,0.62-1.39,1.68-1.39c0.61,0,1.14,0.25,1.52,0.55l-0.39,0.52
		c-0.33-0.25-0.68-0.43-1.11-0.43c-0.61,0-0.89,0.33-0.89,0.7c0,0.45,0.53,0.63,1.08,0.84c0.7,0.26,1.49,0.55,1.49,1.48
		c0,0.79-0.63,1.46-1.79,1.46c-0.69,0-1.36-0.29-1.82-0.67L179.42,50.75z"/>
	<path class="st0" d="M185.79,46.85c0.64,0,1.09,0.27,1.43,0.58l-0.41,0.53c-0.29-0.25-0.59-0.43-0.98-0.43
		c-0.88,0-1.53,0.76-1.53,1.89c0,1.11,0.61,1.87,1.51,1.87c0.46,0,0.85-0.23,1.14-0.49l0.37,0.54c-0.44,0.39-1,0.63-1.59,0.63
		c-1.29,0-2.29-0.93-2.29-2.55C183.44,47.79,184.54,46.85,185.79,46.85z"/>
	<path class="st0" d="M188.43,44.71h0.82v1.95l-0.03,1c0.46-0.44,0.95-0.8,1.63-0.8c1.02,0,1.49,0.66,1.49,1.91v3.09h-0.82v-2.98
		c0-0.91-0.28-1.31-0.92-1.31c-0.5,0-0.84,0.26-1.34,0.75v3.53h-0.82v-7.14H188.43z"/>
	<path class="st0" d="M195.77,46.85c1.25,0,1.95,0.89,1.95,2.29c0,0.17-0.01,0.33-0.03,0.45h-3.29c0.06,1.05,0.69,1.72,1.63,1.72
		c0.46,0,0.85-0.15,1.21-0.38l0.29,0.54c-0.42,0.27-0.94,0.5-1.61,0.5c-1.3,0-2.34-0.95-2.34-2.55
		C193.58,47.83,194.65,46.85,195.77,46.85z M196.99,49.05c0-0.99-0.44-1.55-1.21-1.55c-0.68,0-1.31,0.56-1.41,1.55H196.99z"/>
	<path class="st0" d="M198.97,46.97h0.68l0.07,0.88h0.03c0.33-0.61,0.83-1,1.39-1c0.21,0,0.36,0.03,0.52,0.1l-0.16,0.72
		c-0.16-0.05-0.27-0.08-0.47-0.08c-0.41,0-0.9,0.3-1.24,1.12v3.13h-0.82L198.97,46.97L198.97,46.97z"/>
	<path class="st0" d="M207.64,49.85h-2.4l-0.63,2.01h-0.85l2.23-6.59h0.94l2.23,6.59h-0.88L207.64,49.85z M207.43,49.17l-0.31-1
		c-0.23-0.73-0.44-1.46-0.65-2.22h-0.04c-0.21,0.76-0.42,1.49-0.65,2.22l-0.32,1H207.43z"/>
	<path class="st0" d="M209.9,46.97h0.83v2.98c0,0.91,0.27,1.31,0.91,1.31c0.5,0,0.85-0.25,1.32-0.82v-3.46h0.82v4.88h-0.68
		l-0.07-0.76H213c-0.45,0.53-0.93,0.88-1.61,0.88c-1.03,0-1.5-0.66-1.5-1.91v-3.1C209.89,46.97,209.9,46.97,209.9,46.97z"/>
	<path class="st0" d="M215.35,50.75c0.42,0.34,0.85,0.58,1.44,0.58c0.64,0,0.96-0.34,0.96-0.76c0-0.5-0.58-0.72-1.12-0.92
		c-0.69-0.25-1.46-0.58-1.46-1.41c0-0.78,0.62-1.39,1.68-1.39c0.61,0,1.14,0.25,1.52,0.55l-0.39,0.52
		c-0.33-0.25-0.68-0.43-1.11-0.43c-0.61,0-0.89,0.33-0.89,0.7c0,0.45,0.53,0.63,1.08,0.84c0.7,0.26,1.49,0.55,1.49,1.48
		c0,0.79-0.63,1.46-1.79,1.46c-0.69,0-1.36-0.29-1.82-0.67L215.35,50.75z"/>
	<path class="st0" d="M219.87,47.65h-0.72v-0.62l0.76-0.05l0.1-1.37h0.69v1.37h1.32v0.67h-1.32v2.71c0,0.6,0.19,0.94,0.75,0.94
		c0.17,0,0.39-0.07,0.55-0.13l0.16,0.62c-0.27,0.09-0.6,0.18-0.9,0.18c-1.04,0-1.4-0.66-1.4-1.63v-2.69
		C219.86,47.65,219.87,47.65,219.87,47.65z"/>
	<path class="st0" d="M225.76,48.76c0-0.62-0.21-1.23-1-1.23c-0.57,0-1.07,0.26-1.46,0.52l-0.33-0.57c0.45-0.29,1.13-0.63,1.92-0.63
		c1.19,0,1.7,0.79,1.7,2.01v2.99h-0.68l-0.07-0.58h-0.02c-0.47,0.38-1.01,0.7-1.62,0.7c-0.82,0-1.44-0.51-1.44-1.39
		C222.75,49.52,223.68,48.99,225.76,48.76z M224.42,51.31c0.47,0,0.86-0.23,1.33-0.65V49.3c-1.64,0.2-2.19,0.6-2.19,1.23
		C223.57,51.08,223.94,51.31,224.42,51.31z"/>
	<path class="st0" d="M228.11,46.97h0.83v2.98c0,0.91,0.27,1.31,0.91,1.31c0.5,0,0.85-0.25,1.32-0.82v-3.46h0.82v4.88h-0.68
		l-0.07-0.76h-0.03c-0.45,0.53-0.93,0.88-1.61,0.88c-1.03,0-1.5-0.66-1.5-1.91v-3.1C228.1,46.97,228.11,46.97,228.11,46.97z"/>
	<path class="st0" d="M233.56,50.75c0.42,0.34,0.85,0.58,1.44,0.58c0.64,0,0.96-0.34,0.96-0.76c0-0.5-0.58-0.72-1.12-0.92
		c-0.69-0.25-1.46-0.58-1.46-1.41c0-0.78,0.62-1.39,1.68-1.39c0.61,0,1.14,0.25,1.52,0.55l-0.39,0.52
		c-0.33-0.25-0.68-0.43-1.11-0.43c-0.61,0-0.89,0.33-0.89,0.7c0,0.45,0.53,0.63,1.08,0.84c0.7,0.26,1.49,0.55,1.49,1.48
		c0,0.79-0.63,1.46-1.79,1.46c-0.69,0-1.36-0.29-1.82-0.67L233.56,50.75z"/>
	<path class="st0" d="M239.94,46.85c0.64,0,1.09,0.27,1.43,0.58l-0.41,0.53c-0.29-0.25-0.59-0.43-0.98-0.43
		c-0.88,0-1.53,0.76-1.53,1.89c0,1.11,0.61,1.87,1.51,1.87c0.46,0,0.85-0.23,1.14-0.49l0.37,0.54c-0.44,0.39-1,0.63-1.59,0.63
		c-1.29,0-2.29-0.93-2.29-2.55C237.59,47.79,238.68,46.85,239.94,46.85z"/>
	<path class="st0" d="M242.58,44.71h0.82v1.95l-0.03,1c0.46-0.44,0.95-0.8,1.63-0.8c1.02,0,1.49,0.66,1.49,1.91v3.09h-0.82v-2.98
		c0-0.91-0.28-1.31-0.92-1.31c-0.5,0-0.84,0.26-1.34,0.75v3.53h-0.82v-7.14H242.58z"/>
	<path class="st0" d="M249.85,46.85c0.56,0,0.93,0.21,1.37,0.56l-0.04-0.83V44.7h0.83v7.15h-0.68l-0.07-0.57h-0.03
		c-0.38,0.37-0.9,0.69-1.48,0.69c-1.23,0-2.02-0.92-2.02-2.55C247.73,47.84,248.74,46.85,249.85,46.85z M249.93,51.28
		c0.45,0,0.84-0.22,1.25-0.67v-2.55c-0.41-0.37-0.78-0.51-1.18-0.51c-0.78,0-1.41,0.75-1.41,1.87
		C248.59,50.58,249.08,51.28,249.93,51.28z"/>
	<path class="st0" d="M253.56,45.44c0-0.32,0.25-0.53,0.57-0.53s0.57,0.21,0.57,0.53c0,0.31-0.25,0.53-0.57,0.53
		S253.56,45.75,253.56,45.44z M253.71,46.97h0.82v4.88h-0.82V46.97z"/>
	<path class="st0" d="M258.05,46.85c1.25,0,1.95,0.89,1.95,2.29c0,0.17-0.01,0.33-0.03,0.45h-3.29c0.06,1.05,0.69,1.72,1.63,1.72
		c0.46,0,0.85-0.15,1.21-0.38l0.29,0.54c-0.42,0.27-0.94,0.5-1.61,0.5c-1.3,0-2.34-0.95-2.34-2.55
		C255.86,47.83,256.94,46.85,258.05,46.85z M259.28,49.05c0-0.99-0.44-1.55-1.21-1.55c-0.68,0-1.31,0.56-1.41,1.55H259.28z"/>
	<path class="st0" d="M261.25,46.97h0.68l0.07,0.7h0.03c0.46-0.46,0.96-0.82,1.64-0.82c1.02,0,1.49,0.66,1.49,1.91v3.09h-0.82v-2.98
		c0-0.91-0.28-1.31-0.92-1.31c-0.5,0-0.84,0.26-1.34,0.75v3.53h-0.82v-4.87H261.25z"/>
	<path class="st0" d="M266.66,50.75c0.42,0.34,0.85,0.58,1.44,0.58c0.64,0,0.96-0.34,0.96-0.76c0-0.5-0.58-0.72-1.12-0.92
		c-0.69-0.25-1.46-0.58-1.46-1.41c0-0.78,0.62-1.39,1.68-1.39c0.61,0,1.14,0.25,1.52,0.55l-0.39,0.52
		c-0.33-0.25-0.68-0.43-1.11-0.43c-0.61,0-0.89,0.33-0.89,0.7c0,0.45,0.53,0.63,1.08,0.84c0.7,0.26,1.49,0.55,1.49,1.48
		c0,0.79-0.63,1.46-1.79,1.46c-0.69,0-1.36-0.29-1.82-0.67L266.66,50.75z"/>
	<path class="st0" d="M271.19,47.65h-0.72v-0.62l0.76-0.05l0.1-1.37h0.69v1.37h1.32v0.67h-1.32v2.71c0,0.6,0.19,0.94,0.75,0.94
		c0.17,0,0.39-0.07,0.55-0.13l0.16,0.62c-0.27,0.09-0.6,0.18-0.9,0.18c-1.04,0-1.4-0.66-1.4-1.63v-2.69
		C271.18,47.65,271.19,47.65,271.19,47.65z"/>
	<path class="st0" d="M99.97,57.1c0.89,0,1.5,0.41,1.89,0.81l-0.48,0.53c-0.33-0.35-0.74-0.61-1.4-0.61c-1.34,0-2.19,1.02-2.19,2.66
		c0,1.66,0.78,2.7,2.19,2.7c0.47,0,0.93-0.15,1.19-0.39v-1.72h-1.4v-0.69h2.16v2.77c-0.43,0.42-1.16,0.76-2.05,0.76
		c-1.73,0-2.96-1.27-2.96-3.41C96.92,58.4,98.2,57.1,99.97,57.1z"/>
	<path class="st0" d="M105.28,58.81c1.25,0,1.95,0.89,1.95,2.29c0,0.17-0.01,0.33-0.03,0.45h-3.29c0.06,1.05,0.69,1.72,1.63,1.72
		c0.46,0,0.85-0.15,1.21-0.38l0.29,0.54c-0.42,0.27-0.94,0.5-1.61,0.5c-1.31,0-2.34-0.95-2.34-2.55
		C103.09,59.78,104.16,58.81,105.28,58.81z M106.5,61.01c0-0.99-0.44-1.55-1.2-1.55c-0.68,0-1.31,0.56-1.41,1.55H106.5z"/>
	<path class="st0" d="M108.48,58.93h0.68l0.07,0.88h0.03c0.33-0.61,0.83-1,1.39-1c0.21,0,0.36,0.03,0.52,0.1l-0.16,0.72
		c-0.16-0.05-0.27-0.08-0.47-0.08c-0.41,0-0.9,0.3-1.23,1.12v3.13h-0.82v-4.87H108.48z"/>
	<path class="st0" d="M112.01,58.93h0.68l0.07,0.7h0.03c0.42-0.46,0.93-0.82,1.52-0.82c0.74,0,1.14,0.35,1.35,0.93
		c0.51-0.55,1.01-0.93,1.61-0.93c1,0,1.49,0.66,1.49,1.91v3.09h-0.82v-2.98c0-0.91-0.29-1.31-0.9-1.31c-0.38,0-0.77,0.25-1.23,0.75
		v3.53h-0.82v-2.98c0-0.91-0.29-1.31-0.91-1.31c-0.36,0-0.77,0.25-1.23,0.75v3.53h-0.82v-4.86
		C112.03,58.93,112.01,58.93,112.01,58.93z"/>
	<path class="st0" d="M123.14,60.72c0-0.62-0.21-1.23-1-1.23c-0.57,0-1.07,0.26-1.46,0.52l-0.33-0.57c0.45-0.29,1.13-0.63,1.92-0.63
		c1.19,0,1.7,0.79,1.7,2.01v2.99h-0.68l-0.07-0.58h-0.02c-0.47,0.38-1.01,0.7-1.62,0.7c-0.82,0-1.44-0.51-1.44-1.39
		C120.14,61.48,121.06,60.95,123.14,60.72z M121.8,63.27c0.47,0,0.86-0.23,1.34-0.65v-1.36c-1.64,0.2-2.19,0.6-2.19,1.23
		C120.95,63.04,121.32,63.27,121.8,63.27z"/>
	<path class="st0" d="M125.57,58.93h0.68l0.07,0.7h0.03c0.46-0.46,0.96-0.82,1.64-0.82c1.02,0,1.49,0.66,1.49,1.91v3.09h-0.82v-2.98
		c0-0.91-0.28-1.31-0.92-1.31c-0.5,0-0.84,0.26-1.34,0.75v3.53h-0.82v-4.87H125.57z"/>
	<path class="st0" d="M136.25,61.8h-2.4l-0.63,2.01h-0.85l2.23-6.59h0.94l2.23,6.59h-0.88L136.25,61.8z M136.04,61.13l-0.31-1
		c-0.23-0.73-0.44-1.46-0.65-2.22h-0.04c-0.21,0.76-0.42,1.49-0.65,2.22l-0.32,1H136.04z"/>
	<path class="st0" d="M140.62,58.81c0.64,0,1.09,0.27,1.43,0.58l-0.41,0.53c-0.29-0.25-0.59-0.43-0.98-0.43
		c-0.88,0-1.53,0.76-1.53,1.89c0,1.11,0.61,1.87,1.51,1.87c0.46,0,0.85-0.23,1.14-0.49l0.37,0.54c-0.44,0.39-1,0.63-1.59,0.63
		c-1.29,0-2.29-0.93-2.29-2.55C138.27,59.74,139.37,58.81,140.62,58.81z"/>
	<path class="st0" d="M145.92,60.72c0-0.62-0.21-1.23-1-1.23c-0.57,0-1.07,0.26-1.46,0.52l-0.33-0.57c0.45-0.29,1.13-0.63,1.92-0.63
		c1.19,0,1.7,0.79,1.7,2.01v2.99h-0.68L146,63.23h-0.02c-0.47,0.38-1.01,0.7-1.62,0.7c-0.82,0-1.44-0.51-1.44-1.39
		C142.92,61.48,143.84,60.95,145.92,60.72z M144.59,63.27c0.47,0,0.86-0.23,1.34-0.65v-1.36c-1.64,0.2-2.19,0.6-2.19,1.23
		C143.73,63.04,144.1,63.27,144.59,63.27z"/>
	<path class="st0" d="M150.12,58.81c0.56,0,0.93,0.21,1.37,0.56l-0.04-0.83v-1.88h0.83v7.15h-0.69l-0.07-0.57h-0.03
		c-0.38,0.37-0.9,0.69-1.48,0.69c-1.23,0-2.02-0.92-2.02-2.55C148,59.79,149,58.81,150.12,58.81z M150.2,63.24
		c0.45,0,0.84-0.22,1.24-0.67v-2.55c-0.41-0.37-0.78-0.51-1.18-0.51c-0.78,0-1.41,0.75-1.41,1.87
		C148.85,62.53,149.34,63.24,150.2,63.24z"/>
	<path class="st0" d="M155.8,58.81c1.24,0,1.95,0.89,1.95,2.29c0,0.17-0.01,0.33-0.03,0.45h-3.29c0.06,1.05,0.69,1.72,1.63,1.72
		c0.46,0,0.85-0.15,1.21-0.38l0.29,0.54c-0.42,0.27-0.94,0.5-1.61,0.5c-1.31,0-2.34-0.95-2.34-2.55
		C153.61,59.78,154.68,58.81,155.8,58.81z M157.02,61.01c0-0.99-0.44-1.55-1.21-1.55c-0.68,0-1.3,0.56-1.41,1.55H157.02z"/>
	<path class="st0" d="M159,58.93h0.68l0.07,0.7h0.03c0.42-0.46,0.93-0.82,1.52-0.82c0.74,0,1.14,0.35,1.35,0.93
		c0.51-0.55,1.01-0.93,1.61-0.93c1,0,1.49,0.66,1.49,1.91v3.09h-0.82v-2.98c0-0.91-0.29-1.31-0.9-1.31c-0.38,0-0.77,0.25-1.22,0.75
		v3.53h-0.82v-2.98c0-0.91-0.29-1.31-0.91-1.31c-0.36,0-0.77,0.25-1.22,0.75v3.53h-0.82v-4.86C159.04,58.93,159,58.93,159,58.93z"/>
	<path class="st0" d="M167.21,57.39c0-0.32,0.25-0.53,0.57-0.53s0.57,0.21,0.57,0.53c0,0.31-0.25,0.53-0.57,0.53
		S167.21,57.71,167.21,57.39z M167.37,58.93h0.82v4.88h-0.82V58.93z"/>
	<path class="st0" d="M171.87,58.81c0.64,0,1.09,0.27,1.43,0.58l-0.41,0.53c-0.29-0.25-0.59-0.43-0.98-0.43
		c-0.88,0-1.53,0.76-1.53,1.89c0,1.11,0.61,1.87,1.51,1.87c0.46,0,0.85-0.23,1.14-0.49l0.37,0.54c-0.44,0.39-1,0.63-1.59,0.63
		c-1.29,0-2.29-0.93-2.29-2.55C169.52,59.74,170.62,58.81,171.87,58.81z"/>
	<path class="st0" d="M176.64,57.22h3.8v0.7h-2.95v2.07h2.49v0.71h-2.49v2.39h3.05v0.71h-3.9L176.64,57.22L176.64,57.22z"/>
	<path class="st0" d="M182.79,61.26l-1.48-2.33h0.89l0.65,1.07c0.15,0.26,0.31,0.54,0.48,0.81h0.04c0.14-0.27,0.29-0.55,0.44-0.81
		l0.59-1.07h0.86l-1.48,2.42l1.59,2.46h-0.89l-0.71-1.13c-0.17-0.29-0.35-0.59-0.53-0.87h-0.04c-0.17,0.28-0.33,0.57-0.49,0.87
		l-0.66,1.13h-0.86L182.79,61.26z"/>
	<path class="st0" d="M188.22,58.81c0.64,0,1.09,0.27,1.43,0.58l-0.41,0.53c-0.29-0.25-0.59-0.43-0.98-0.43
		c-0.88,0-1.53,0.76-1.53,1.89c0,1.11,0.61,1.87,1.51,1.87c0.46,0,0.85-0.23,1.14-0.49l0.37,0.54c-0.44,0.39-1,0.63-1.59,0.63
		c-1.29,0-2.29-0.93-2.29-2.55C185.87,59.74,186.97,58.81,188.22,58.81z"/>
	<path class="st0" d="M190.86,56.66h0.82v1.95l-0.03,1c0.46-0.44,0.95-0.8,1.63-0.8c1.02,0,1.49,0.66,1.49,1.91v3.09h-0.82v-2.98
		c0-0.91-0.28-1.31-0.92-1.31c-0.5,0-0.84,0.26-1.34,0.75v3.53h-0.82v-7.14H190.86z"/>
	<path class="st0" d="M199.13,60.72c0-0.62-0.21-1.23-1-1.23c-0.57,0-1.07,0.26-1.46,0.52l-0.33-0.57c0.45-0.29,1.13-0.63,1.92-0.63
		c1.19,0,1.7,0.79,1.7,2.01v2.99h-0.68l-0.07-0.58h-0.02c-0.47,0.38-1.01,0.7-1.62,0.7c-0.82,0-1.44-0.51-1.44-1.39
		C196.13,61.48,197.05,60.95,199.13,60.72z M197.8,63.27c0.47,0,0.86-0.23,1.33-0.65v-1.36c-1.64,0.2-2.19,0.6-2.19,1.23
		C196.94,63.04,197.31,63.27,197.8,63.27z"/>
	<path class="st0" d="M201.56,58.93h0.68l0.07,0.7h0.03c0.46-0.46,0.96-0.82,1.64-0.82c1.02,0,1.49,0.66,1.49,1.91v3.09h-0.82v-2.98
		c0-0.91-0.28-1.31-0.92-1.31c-0.5,0-0.84,0.26-1.34,0.75v3.53h-0.82v-4.87H201.56z"/>
	<path class="st0" d="M207.44,63.64V63.6c-0.24-0.15-0.43-0.41-0.43-0.79c0-0.41,0.28-0.73,0.53-0.9v-0.04
		c-0.32-0.26-0.63-0.73-0.63-1.32c0-1.06,0.84-1.74,1.84-1.74c0.27,0,0.51,0.05,0.69,0.12h1.7v0.63h-1c0.23,0.22,0.4,0.59,0.4,1
		c0,1.04-0.79,1.7-1.79,1.7c-0.24,0-0.51-0.06-0.73-0.17c-0.17,0.15-0.31,0.31-0.31,0.58c0,0.31,0.2,0.53,0.86,0.53h0.94
		c1.13,0,1.71,0.35,1.71,1.17c0,0.9-0.95,1.69-2.47,1.69c-1.19,0-2.02-0.47-2.02-1.32C206.73,64.33,207,63.94,207.44,63.64z
		 M208.86,65.49c0.93,0,1.55-0.48,1.55-0.99c0-0.45-0.35-0.6-0.98-0.6h-0.84c-0.19,0-0.42-0.02-0.63-0.08
		c-0.35,0.25-0.5,0.54-0.5,0.82C207.45,65.15,207.98,65.49,208.86,65.49z M209.78,60.55c0-0.71-0.46-1.13-1.03-1.13
		s-1.03,0.42-1.03,1.13s0.47,1.16,1.03,1.16S209.78,61.26,209.78,60.55z"/>
	<path class="st0" d="M213.89,58.81c1.25,0,1.95,0.89,1.95,2.29c0,0.17-0.01,0.33-0.03,0.45h-3.29c0.06,1.05,0.69,1.72,1.63,1.72
		c0.46,0,0.85-0.15,1.21-0.38l0.29,0.54c-0.42,0.27-0.94,0.5-1.61,0.5c-1.3,0-2.34-0.95-2.34-2.55
		C211.7,59.78,212.78,58.81,213.89,58.81z M215.12,61.01c0-0.99-0.44-1.55-1.21-1.55c-0.68,0-1.31,0.56-1.41,1.55H215.12z"/>
	<path class="st0" d="M219.25,62.37c0.47,0.49,1.12,0.82,1.82,0.82c0.86,0,1.38-0.43,1.38-1.07c0-0.67-0.48-0.88-1.1-1.17
		l-0.94-0.41c-0.61-0.26-1.33-0.73-1.33-1.7c0-1,0.88-1.75,2.08-1.75c0.78,0,1.48,0.33,1.94,0.81l-0.44,0.54
		c-0.4-0.38-0.89-0.62-1.5-0.62c-0.74,0-1.23,0.37-1.23,0.96c0,0.63,0.58,0.87,1.09,1.09l0.94,0.4c0.76,0.33,1.36,0.78,1.36,1.76
		c0,1.04-0.86,1.88-2.25,1.88c-0.92,0-1.73-0.38-2.3-0.97L219.25,62.37z"/>
	<path class="st0" d="M226.36,58.81c1.25,0,1.95,0.89,1.95,2.29c0,0.17-0.01,0.33-0.03,0.45h-3.29c0.06,1.05,0.69,1.72,1.63,1.72
		c0.46,0,0.85-0.15,1.21-0.38l0.29,0.54c-0.42,0.27-0.94,0.5-1.61,0.5c-1.3,0-2.34-0.95-2.34-2.55
		C224.17,59.78,225.24,58.81,226.36,58.81z M227.58,61.01c0-0.99-0.44-1.55-1.21-1.55c-0.68,0-1.31,0.56-1.41,1.55H227.58z"/>
	<path class="st0" d="M229.56,58.93h0.68l0.07,0.88h0.03c0.33-0.61,0.83-1,1.39-1c0.21,0,0.36,0.03,0.52,0.1l-0.16,0.72
		c-0.16-0.05-0.27-0.08-0.47-0.08c-0.41,0-0.9,0.3-1.24,1.12v3.13h-0.82L229.56,58.93L229.56,58.93z"/>
	<path class="st0" d="M232.58,58.93h0.85l0.92,2.77c0.14,0.48,0.3,0.97,0.45,1.44h0.04c0.14-0.46,0.3-0.95,0.44-1.44l0.92-2.77h0.81
		l-1.73,4.88h-0.96L232.58,58.93z"/>
	<path class="st0" d="M237.87,57.39c0-0.32,0.25-0.53,0.57-0.53s0.57,0.21,0.57,0.53c0,0.31-0.25,0.53-0.57,0.53
		S237.87,57.71,237.87,57.39z M238.02,58.93h0.82v4.88h-0.82V58.93z"/>
	<path class="st0" d="M242.52,58.81c0.64,0,1.09,0.27,1.43,0.58l-0.41,0.53c-0.29-0.25-0.59-0.43-0.98-0.43
		c-0.88,0-1.53,0.76-1.53,1.89c0,1.11,0.61,1.87,1.51,1.87c0.46,0,0.85-0.23,1.14-0.49l0.37,0.54c-0.44,0.39-1,0.63-1.59,0.63
		c-1.29,0-2.29-0.93-2.29-2.55C240.17,59.74,241.27,58.81,242.52,58.81z"/>
	<path class="st0" d="M246.78,58.81c1.25,0,1.95,0.89,1.95,2.29c0,0.17-0.01,0.33-0.03,0.45h-3.29c0.06,1.05,0.69,1.72,1.63,1.72
		c0.46,0,0.85-0.15,1.21-0.38l0.29,0.54c-0.42,0.27-0.94,0.5-1.61,0.5c-1.3,0-2.34-0.95-2.34-2.55
		C244.59,59.78,245.66,58.81,246.78,58.81z M248,61.01c0-0.99-0.44-1.55-1.21-1.55c-0.68,0-1.31,0.56-1.41,1.55H248z"/>
</g>
<path class="st1" d="M88.03,54.5c0,18.79-15.23,34.01-34.01,34.01C35.23,88.51,20,73.28,20,54.5s15.23-34.01,34.02-34.01
	C72.81,20.48,88.03,35.71,88.03,54.5"/>
<g>
	<path class="st2" d="M42.7,46.59c0,0.74-0.16,1.39-0.47,1.96c-0.31,0.57-0.74,1.02-1.29,1.34c-0.55,0.33-1.17,0.49-1.88,0.49h-1.63
		v-7.56h1.63c0.71,0,1.34,0.16,1.88,0.48s0.97,0.76,1.29,1.33C42.54,45.2,42.7,45.85,42.7,46.59 M43.96,46.59
		c0-0.73-0.12-1.39-0.35-1.99c-0.24-0.6-0.57-1.12-1.01-1.56s-0.96-0.79-1.55-1.03c-0.6-0.24-1.26-0.36-1.98-0.36h-2.29
		c-0.19,0-0.34,0.06-0.47,0.18c-0.13,0.12-0.19,0.28-0.19,0.47v8.58c0,0.19,0.06,0.34,0.19,0.47c0.13,0.13,0.28,0.19,0.47,0.19h2.29
		c0.73,0,1.39-0.12,1.98-0.36c0.6-0.24,1.11-0.58,1.55-1.03c0.44-0.44,0.78-0.97,1.01-1.57C43.84,47.98,43.96,47.32,43.96,46.59"/>
	<path class="st2" d="M60.22,48.28h-3.66l1.84-4.5L60.22,48.28z M62.57,50.62L59,42.09c-0.11-0.3-0.32-0.44-0.62-0.44
		c-0.29,0-0.49,0.15-0.62,0.44l-3.56,8.5c-0.1,0.23-0.09,0.44,0.04,0.65c0.13,0.2,0.31,0.3,0.55,0.3c0.12,0,0.23-0.03,0.35-0.1
		c0.11-0.07,0.2-0.17,0.26-0.3l0.73-1.77h4.54l0.71,1.77c0.05,0.13,0.13,0.23,0.25,0.3c0.11,0.07,0.23,0.11,0.36,0.11
		c0.25,0,0.43-0.09,0.55-0.29C62.65,51.07,62.67,50.86,62.57,50.62"/>
	<path class="st2" d="M50.75,48.28h-3.66l1.84-4.5L50.75,48.28z M53.11,50.62l-3.57-8.53c-0.11-0.3-0.32-0.44-0.62-0.44
		c-0.29,0-0.49,0.15-0.62,0.44l-3.56,8.5c-0.1,0.23-0.09,0.44,0.04,0.65c0.13,0.2,0.31,0.3,0.55,0.3c0.12,0,0.23-0.03,0.35-0.1
		c0.11-0.07,0.2-0.17,0.26-0.3l0.73-1.77h4.54l0.71,1.77c0.05,0.13,0.13,0.23,0.25,0.3c0.11,0.07,0.23,0.11,0.36,0.11
		c0.25,0,0.43-0.09,0.55-0.29C53.18,51.07,53.2,50.86,53.11,50.62"/>
	<path class="st2" d="M70.66,46.59c0,0.74-0.16,1.39-0.47,1.96c-0.31,0.57-0.74,1.02-1.29,1.34c-0.55,0.33-1.17,0.49-1.88,0.49
		h-1.63v-7.56h1.63c0.71,0,1.34,0.16,1.88,0.48c0.54,0.32,0.97,0.76,1.29,1.33C70.51,45.2,70.66,45.85,70.66,46.59 M71.93,46.59
		c0-0.73-0.12-1.39-0.35-1.99c-0.24-0.6-0.57-1.12-1.01-1.56c-0.44-0.44-0.96-0.79-1.55-1.03c-0.6-0.24-1.26-0.36-1.98-0.36h-2.29
		c-0.19,0-0.34,0.06-0.47,0.18c-0.13,0.12-0.19,0.28-0.19,0.47v8.58c0,0.19,0.06,0.34,0.19,0.47c0.13,0.13,0.28,0.19,0.47,0.19h2.29
		c0.73,0,1.39-0.12,1.98-0.36c0.6-0.24,1.11-0.58,1.55-1.03c0.44-0.44,0.78-0.97,1.01-1.57S71.93,47.32,71.93,46.59"/>
</g>
<g>
	<path class="st2" d="M38.58,61.28h-2.87l-0.85,2.49h-0.52l2.56-7.25h0.51l2.55,7.25h-0.54L38.58,61.28z M38.43,60.85l-0.46-1.35
		c-0.29-0.86-0.55-1.62-0.8-2.51h-0.04c-0.25,0.89-0.51,1.65-0.8,2.51l-0.46,1.35H38.43z"/>
	<path class="st2" d="M40.84,58.49h0.48v3.32c0,1.12,0.35,1.65,1.2,1.65c0.63,0,1.09-0.33,1.71-1.08v-3.89h0.48v5.28H44.3
		l-0.05-0.88h-0.02c-0.52,0.6-1.07,1.01-1.79,1.01c-1.09,0-1.6-0.66-1.6-2.02L40.84,58.49L40.84,58.49z"/>
	<path class="st2" d="M46.36,62.81c0.45,0.37,0.92,0.67,1.68,0.67c0.83,0,1.25-0.48,1.25-1.04c0-0.66-0.68-0.95-1.29-1.17
		c-0.8-0.29-1.68-0.6-1.68-1.51c0-0.77,0.6-1.41,1.71-1.41c0.56,0,1.12,0.23,1.51,0.55l-0.26,0.34c-0.35-0.26-0.73-0.47-1.27-0.47
		c-0.81,0-1.19,0.47-1.19,0.96c0,0.58,0.62,0.84,1.24,1.07c0.83,0.31,1.73,0.58,1.73,1.62c0,0.79-0.64,1.48-1.78,1.48
		c-0.78,0-1.46-0.33-1.94-0.73L46.36,62.81z"/>
	<path class="st2" d="M51.31,58.9h-0.83v-0.37l0.84-0.04l0.07-1.53h0.42v1.53h1.53v0.42h-1.53v3.44c0,0.67,0.17,1.12,0.89,1.12
		c0.2,0,0.47-0.08,0.66-0.17l0.13,0.4c-0.31,0.11-0.64,0.2-0.86,0.2c-1.02,0-1.32-0.65-1.32-1.6L51.31,58.9L51.31,58.9z"/>
	<path class="st2" d="M54.63,58.49h0.42l0.04,0.98h0.03c0.35-0.65,0.87-1.11,1.5-1.11c0.2,0,0.35,0.02,0.53,0.11l-0.11,0.44
		c-0.18-0.07-0.27-0.09-0.48-0.09c-0.47,0-1.03,0.36-1.44,1.35v3.6h-0.48v-5.28C54.64,58.49,54.63,58.49,54.63,58.49z"/>
	<path class="st2" d="M60.97,60.46c0.02-0.8-0.21-1.67-1.24-1.67c-0.71,0-1.33,0.35-1.68,0.62l-0.22-0.36
		c0.37-0.26,1.1-0.68,1.96-0.68c1.25,0,1.67,0.9,1.67,2.04v3.38h-0.41l-0.06-0.68h-0.02c-0.54,0.43-1.18,0.81-1.87,0.81
		c-0.84,0-1.54-0.45-1.54-1.45C57.56,61.28,58.63,60.72,60.97,60.46z M59.18,63.48c0.6,0,1.14-0.3,1.79-0.86v-1.79
		c-2.17,0.25-2.9,0.76-2.9,1.6C58.07,63.18,58.57,63.48,59.18,63.48z"/>
	<path class="st2" d="M63.35,55.86h0.48v7.27c0,0.23,0.1,0.34,0.23,0.34c0.04,0,0.09,0,0.2-0.02l0.09,0.4
		c-0.1,0.03-0.2,0.05-0.35,0.05c-0.43,0-0.65-0.26-0.65-0.84V55.86L63.35,55.86z"/>
	<path class="st2" d="M65.77,56.78c0-0.28,0.2-0.44,0.44-0.44s0.44,0.17,0.44,0.44c0,0.25-0.2,0.43-0.44,0.43
		S65.77,57.03,65.77,56.78z M65.95,58.49h0.48v5.28h-0.48V58.49z"/>
	<path class="st2" d="M71.59,60.46c0.02-0.8-0.21-1.67-1.24-1.67c-0.71,0-1.33,0.35-1.68,0.62l-0.22-0.36
		c0.37-0.26,1.1-0.68,1.96-0.68c1.25,0,1.67,0.9,1.67,2.04v3.38h-0.41l-0.06-0.68h-0.02c-0.54,0.43-1.18,0.81-1.87,0.81
		c-0.84,0-1.54-0.45-1.54-1.45C68.18,61.28,69.24,60.72,71.59,60.46z M69.79,63.48c0.6,0,1.14-0.3,1.79-0.86v-1.79
		c-2.17,0.25-2.9,0.76-2.9,1.6C68.68,63.18,69.19,63.48,69.79,63.48z"/>
</g>
</svg>
