<svg xmlns="http://www.w3.org/2000/svg" viewBox="0 0 357.75 164.85"><defs><style>.cls-1{fill:#ee7203;}.cls-1,.cls-2,.cls-3{fill-rule:evenodd;}.cls-2{fill:#007858;}.cls-3{fill:#fff;}</style></defs><g id="Ebene_2" data-name="Ebene 2"><g id="Ebene_1-2" data-name="Ebene 1"><polygon class="cls-1" points="0 0 0 160.12 180.47 134.22 287.73 129.22 357.75 115.36 357.75 0 0 0 0 0"/><polygon class="cls-2" points="11.82 142.75 70.78 141.38 186.73 125.98 286.05 120.11 345.72 105.97 345.94 123.28 259.7 135.13 145.48 146.19 76.18 159.4 11.82 164.85 11.82 142.75 11.82 142.75"/><path class="cls-3" d="M249,48.31V35.39a.64.64,0,0,0-.79-.61c-2.63.52-10.43,3-10.68,7.7,0,.22,0,4.12,0,6.46a3.82,3.82,0,0,1-.35,1.67c-.23.33-.79.34-1.84.59-3.74.88-4.12,3.79-4.34,9.18.81-.05,3.23-.19,4.28-.33,1.44-.22,2.28.78,2.28,2.18v37.82a.79.79,0,0,0,1,.62c2.63-.52,10.27-1.66,10.52-6.32.05-1.49.07-24.6.06-33,0-1.48-.12-1.84.58-2.52.49-.49.43-.52,1.67-.67,6.9-.76,6.44-8.93,6.46-9.66l-7.53.82c-.64.07-1.23-.15-1.23-1Z"/><path class="cls-3" d="M174.62,63.73c-9.22.69-11.75,3.29-13,4.71-3.86-2.38-9.18-2.47-12.29-2.15-5.61.42-11,2.71-12.26,4.13-4.19-3.15-8.53-.85-9.91-.91a22.86,22.86,0,0,1,1.16,7.72v35.36s11-.47,11.4-6.63V79.84c4.6-1.28,13.88-8,13.73,10.22V110s11.41-.5,11.83-6.67V77.44c5.48-2.24,13.35-7.85,13.34,10.14v19.83s11.31-.64,11.31-6.62c0,0,.08-24.6,0-25.5-.77-7.55-8.54-12.06-15.3-11.56Z"/><path class="cls-3" d="M320.8,47.16c-.57-.07-4.56-.42-4.56-.42-6.79.58-9.92,3.67-11,3.58-.26,0-2.44-1.35-3.5-1.45a13,13,0,0,0-5.57.15,60.65,60.65,0,0,1,1.38,7.75c1.63,12.78,1.61,30.44,1.57,35.24,0,.4,0,.6.29.84a.68.68,0,0,0,.57.25c10.42-1.91,9.59-2.88,9.72-14.58,0,0-.35-11,0-15,.46-5.23,11.34-1.86,11.48-13.2a12.09,12.09,0,0,0-.4-3.16Z"/><path class="cls-3" d="M101.78,100.4c-3-2.28-7.3-8.47-7.27-11.8.07-6,17.16-11.78,17-3.21-.06,3.65-6.9,13.16-9.73,15ZM125.49,106c-5.3,1.3-15.39-.12-19.36-2.48C108.47,101.39,124,87,124.74,77.33c.5-6.23-9-6.43-9.6-6.45-8.24-.2-25.33,1.77-28,14.32-2,9.55,6.61,30,23.36,30.4,5.8.14,12.2-5.48,15.21-9a1.17,1.17,0,0,0,.15-.27c0-.19,0-.41-.39-.36Z"/><path class="cls-3" d="M207.39,88.23c-2.94-2.27-7.3-8.46-7.26-11.79.06-6,17.15-11.78,17-3.21-.07,3.65-6.92,13.16-9.74,15Zm23.71,5.56c-5.3,1.31-15.39-.11-19.36-2.47,2.34-2.09,17.82-16.5,18.61-26.15.5-6.23-9-6.43-9.59-6.45-8.25-.2-25.34,1.77-28,14.32-2,9.55,6.61,30,23.36,30.4,5.8.14,12.2-5.48,15.21-9a.72.72,0,0,0,.14-.26c.05-.19,0-.41-.38-.37Z"/><path class="cls-3" d="M269.92,80.4c-2.95-2.27-7.3-8.47-7.27-11.8.07-6,17.15-11.78,17-3.2-.07,3.64-6.91,13.15-9.74,15ZM293.64,86c-5.32,1.31-15.4-.11-19.37-2.48,2.34-2.08,17.82-16.49,18.61-26.15.5-6.22-9-6.43-9.6-6.44-8.24-.21-25.33,1.76-28,14.31-2,9.56,6.6,30,23.35,30.4,5.8.14,12.2-5.48,15.21-9a1.1,1.1,0,0,0,.15-.26c0-.19,0-.42-.38-.37Z"/><path class="cls-3" d="M66.08,109.85C61,109.08,52,105.59,48.17,99.18,45.55,94.79,57.58,88,64.39,85.43c2.2-.84,3.74-1.26,4.79,1.74a75.82,75.82,0,0,1,1.59,10.36,80.8,80.8,0,0,1,.44,9c-.08,4.48-3,3.7-5.13,3.37ZM85.11,36c-1,0-18.64.37-21.67,5.83-2.71,4.9,0,8.21,3.48,32.16-9.48,1.1-29.56,7-30.35,19.59-.64,10,14.49,26.12,30.84,28.47,2.42.35,9.86.47,12.68-6.35,2.7-4.34,5.37-68.56,5.74-77.12,0-.64-.22-2.66-.72-2.58Z"/></g></g></svg>