<?xml version="1.0" encoding="UTF-8"?>
<!-- Creator: CorelDRAW 2021 (64-Bit) -->
<svg xmlns="http://www.w3.org/2000/svg" xmlns:xlink="http://www.w3.org/1999/xlink" xmlns:xodm="http://www.corel.com/coreldraw/odm/2003" xml:space="preserve" width="162.935mm" height="33.2042mm" version="1.1" style="shape-rendering:geometricPrecision; text-rendering:geometricPrecision; image-rendering:optimizeQuality; fill-rule:evenodd; clip-rule:evenodd" viewBox="0 0 16150.68 3291.32">
 <defs>
  <style type="text/css">
   <![CDATA[
    .str0 {stroke:white;stroke-width:43.37;stroke-miterlimit:22.9256}
    .fil3 {fill:none;fill-rule:nonzero}
    .fil2 {fill:#FEFEFE;fill-rule:nonzero}
    .fil1 {fill:#FFE252;fill-rule:nonzero}
    .fil0 {fill:white;fill-rule:nonzero}
   ]]>
  </style>
 </defs>
 <g id="Layer_x0020_1">
  <metadata id="CorelCorpID_0Corel-Layer"></metadata>
  <g id="Layer_2_1_">
  </g>
  <g>
   <path id="Path_1" class="fil0" d="M3032.63 1906.71l0 -526.82c-67.54,-101.31 -189.12,-162.11 -310.69,-155.35 -87.8,0 -168.85,40.52 -222.89,114.81 -60.78,87.8 -94.55,195.88 -87.8,297.19 -6.75,108.06 27.02,216.13 87.8,303.93 47.28,74.29 128.34,121.58 222.89,121.58 121.58,6.76 236.4,-54.03 310.69,-155.35l0 0zm412.01 553.84l-412.01 0 0 -74.29c-114.81,74.29 -243.15,108.06 -378.24,108.06 -195.87,6.76 -384.99,-87.8 -493.05,-256.66 -121.58,-175.61 -182.37,-384.99 -182.37,-594.36 -6.75,-216.14 67.54,-425.52 202.63,-594.36 135.09,-168.86 283.67,-249.91 466.04,-249.91 135.09,-6.75 270.17,27.02 378.24,108.06l0 -499.8 412.01 -209.39 6.75 2262.65 0 0z"></path>
  </g>
  <path id="Path_2" class="fil0" d="M4572.58 1427.16c-13.5,-67.53 -54.03,-128.33 -108.06,-168.85 -114.82,-81.05 -263.41,-81.05 -371.48,0 -54.04,40.52 -94.56,101.31 -108.07,168.85l587.61 0zm432.27 364.74l-1053.65 0c13.51,87.8 60.79,162.1 128.34,222.88 60.78,54.04 141.84,81.05 229.64,74.3 101.31,0 195.87,-40.53 270.17,-114.82l290.42 236.4c-128.33,182.36 -337.7,290.43 -560.59,283.67 -209.38,6.76 -418.76,-81.05 -560.59,-236.39 -148.6,-168.86 -229.65,-385 -222.89,-607.89 0,-148.59 33.77,-297.18 101.31,-432.27 60.78,-128.33 162.1,-236.39 276.92,-303.93 114.81,-67.54 243.15,-108.06 378.23,-108.06 135.09,0 263.42,40.52 371.49,121.58 114.82,81.04 202.63,189.12 263.41,310.69 60.79,128.33 87.8,317.44 87.8,553.84l0 0z"></path>
  <path id="Path_3" class="fil0" d="M6450.25 1974.25c6.75,148.6 -60.79,297.18 -182.37,384.99 -121.58,94.56 -303.93,135.09 -567.35,135.09 -263.41,-6.75 -520.07,-67.54 -756.46,-182.36l195.87 -385c175.61,94.56 378.24,141.85 580.86,141.85 74.29,0 141.84,-6.76 216.13,-20.27 40.52,-6.75 67.54,-40.52 67.54,-81.04 6.75,-40.53 -27.02,-81.05 -67.54,-87.8 -81.05,-20.27 -168.86,-33.77 -256.66,-40.53 -216.13,-13.5 -371.48,-60.78 -479.54,-141.84 -108.07,-74.29 -175.62,-202.63 -168.86,-337.7 -6.76,-155.35 60.78,-303.94 182.36,-398.5 141.85,-108.07 310.69,-162.11 486.3,-155.35 243.16,6.75 479.55,67.53 702.44,175.61l-175.61 378.24c-162.1,-74.3 -330.95,-121.58 -506.56,-135.09 -60.79,-6.76 -121.58,6.75 -182.37,27.01 -33.77,13.51 -60.78,40.53 -60.78,81.05 0,33.77 20.26,60.79 54.03,67.54 67.54,20.26 141.84,27.01 216.13,27.01 243.15,20.27 418.76,81.05 533.58,189.12 101.31,87.81 162.1,216.14 168.86,357.97z"></path>
  <path id="Path_4" class="fil0" d="M6950.06 2460.55l-445.78 0 0 -1621 445.78 0 0 1621zm0 -2033.01c0,60.78 -20.26,114.81 -67.54,155.35 -40.53,40.52 -94.56,67.54 -155.35,67.54 -60.79,6.75 -121.58,-20.27 -162.11,-67.54 -40.52,-40.53 -60.78,-94.56 -60.78,-155.35 0,-60.79 20.26,-114.82 67.54,-155.35 40.52,-40.53 94.55,-67.54 155.35,-67.54 54.03,0 108.06,20.26 155.35,60.78 40.52,40.53 67.54,101.31 67.54,162.11z"></path>
  <g>
   <path id="Path_5" class="fil0" d="M8071.25 1906.71l0 -526.82c-67.53,-101.31 -189.11,-162.11 -310.68,-155.35 -87.81,0 -168.86,40.52 -222.89,114.81 -60.79,87.8 -94.56,195.88 -87.8,297.19 -6.76,108.06 27.01,216.13 87.8,303.93 47.27,74.29 128.33,121.58 222.89,121.58 135.08,0 243.15,-47.28 310.68,-155.35l0 0zm418.77 553.84c-27.02,439.03 -256.66,715.95 -695.69,830.76l-182.36 -351.21c303.94,-114.82 459.28,-270.17 459.28,-466.04l0 -74.29c-114.81,74.29 -243.15,108.06 -378.23,108.06 -195.88,6.75 -385,-87.8 -493.06,-256.66 -121.58,-175.61 -182.36,-384.99 -182.36,-594.36 -6.76,-216.14 67.54,-425.52 202.62,-594.37 135.09,-168.85 283.68,-249.9 466.04,-249.9 135.09,-6.75 270.17,27.02 378.24,108.06l0 -67.54 412.01 0 13.51 1607.5 0 0z"></path>
  </g>
  <path id="Path_6" class="fil0" d="M10036.72 2460.55l-439.02 0 0 -972.6c-13.51,-162.1 -155.35,-283.67 -317.45,-263.41 -67.54,6.75 -128.33,33.77 -175.61,81.04 -54.03,47.28 -87.8,114.82 -94.55,189.12l0 979.36 -445.78 0 0 -1634.51 445.78 0 0 101.3c249.9,-202.62 621.39,-182.36 844.28,54.04 121.58,135.08 182.36,310.68 182.36,486.3l0 979.35 0 0z"></path>
  <path id="Path_7" class="fil1" d="M10543.28 1906.71c67.54,101.31 189.12,162.11 310.69,155.35 87.8,0 168.86,-47.28 222.89,-121.58 60.79,-87.8 94.56,-195.87 87.8,-303.93 6.76,-108.07 -27.01,-209.39 -87.8,-297.19 -47.28,-74.29 -135.09,-114.81 -222.89,-114.81 -121.58,-6.76 -243.15,54.03 -310.69,155.35l0 526.82zm-412 -1067.15l412 0 0 67.53c108.07,-74.29 243.15,-114.81 378.24,-108.06 189.12,6.76 357.97,94.56 466.04,249.91 135.09,168.85 202.63,378.23 202.63,594.36 6.75,209.38 -60.79,418.76 -182.37,594.36 -108.06,162.11 -297.18,256.66 -493.05,256.66 -135.09,6.76 -270.17,-33.77 -378.24,-108.06l0 695.68 -412.01 202.63 6.76 -2445.01 0 0z"></path>
  <polygon id="Path_8" class="fil1" points="12090,2460.55 11644.22,2460.55 11644.22,427.55 12090,204.66 "></polygon>
  <path id="Path_9" class="fil1" d="M12177.8 839.56l439.02 0 0 972.6c6.76,74.29 33.77,135.09 87.8,189.12 54.03,47.27 128.34,81.04 202.63,81.04 74.29,6.76 155.35,-27.01 209.38,-81.04 54.03,-47.28 87.8,-114.82 94.56,-189.12l0 -972.6 439.02 0 0 1621 -439.02 0 0 -101.31c-249.91,202.63 -621.39,182.37 -844.28,-54.03 -121.58,-135.09 -182.37,-310.69 -182.37,-486.3l-6.75 -979.35 0 0z"></path>
  <polygon id="Path_10" class="fil1" points="15257.71,2460.55 13751.52,2460.55 13751.52,2068.82 14541.76,1278.58 13798.81,1278.58 13798.81,839.56 15257.71,839.56 15257.71,1204.28 14433.69,2028.29 15257.71,2028.29 "></polygon>
  <path class="fil2" d="M-0 1595.61c94.55,-128.33 175.61,-256.66 263.41,-378.24 141.84,-216.13 391.75,-668.67 634.9,-722.7 276.92,-67.54 749.71,-6.75 945.59,-6.75 -769.98,175.61 -682.18,776.73 -1134.71,1107.69l-709.19 0 1.03 1.41 710.06 0 -1.9 -1.41 -709.19 0z"></path>
  <path id="Path_12" class="fil1" d="M-0 1596.02c94.55,128.34 175.61,256.66 263.41,378.24 141.84,216.14 391.75,668.67 634.9,722.7 276.92,67.54 749.71,6.75 945.59,6.75 -769.98,-182.36 -682.18,-776.73 -1134.71,-1107.69l-709.19 0z"></path>
  <g>
   <path class="fil0" d="M15811.55 210.81c20.26,13.5 40.52,27.01 54.03,47.27 13.51,20.27 20.26,47.28 20.26,74.3 0,27.01 -6.75,54.03 -20.26,74.29 -13.51,20.26 -33.77,33.77 -60.79,47.28l87.81 168.86 -81.05 0 -81.05 -155.35 -94.55 0 0 155.35 -67.54 0 0 -425.52 168.86 0c27.01,-6.75 54.03,0 74.29,13.51zm-81.05 195.87c27.02,0 47.28,-6.75 60.79,-20.26 13.5,-13.51 20.26,-33.77 20.26,-54.03 0,-20.26 -6.76,-40.53 -20.26,-54.03 -13.51,-13.51 -33.77,-20.27 -60.79,-20.27l-94.55 0 0 148.6 94.55 0z"></path>
  </g>
  <g id="Ellipse_1">
   <circle class="fil3" cx="15716.99" cy="433.69" r="425.51"></circle>
   <circle class="fil3 str0" cx="15716.99" cy="433.69" r="412.01"></circle>
  </g>
 </g>
</svg>
