<svg xmlns="http://www.w3.org/2000/svg" viewBox="0 0 200 105">
<g transform="translate(0,-947.36218)">
<g transform="matrix(0.52938062,0,0,-0.52938062,-0.14293276,1394.2064)">
<g transform="matrix(1,0,0,-1,-95.25,293.25)">
<path fill="#15569c" d="m95.52-435.31h377.8v43.23h-377.8v-43.23zm0-98.12"/>
<path fill="#049adc" d="m95.52-533.43h377.8v98.48h-377.8v-98.48z"/>
<path fill="#fddd04" d="m258.27-471.25c-1.67,41.41-15.01,91.82-34.19,103.84-23.04,14.37-44.32,6.88-44.23-15.35,0.07-11.73,7.12-17.92,12.73-28.38,3.63-6.68,9.75,1.8,5.06,10.84-7.41,14.31-12.07,21.62,3.41,25.25,15.66,3.7,27.36-10.3,32.68-27.12,11.28-35.41,10.68-57.38,11.2-93.45,0.15-9.2,11.42-17.1,15.42-9.39,5.86,11.39,10.45,7.56,10.4,14.29-0.05,14.99-11.84,1.19-12.48,19.46zm10.32-46.51c-1.36-7.25,1.19-9.32-3.99-18.71-2.87-5.3,10.03-14.36,13.06-9.5,4.14,6.76,5.31,13.44,5.39,21.47,0.13,6.8-13.51,11.84-14.46,6.74z"/>
<path fill="#ffffff" d="m259.35-366.82h7.62v-1h-0.15c-1.78,0-2.01-0.28-2.01-2.43v-4.63h2.78c2.83,0,3.68-0.18,4.64-0.8,1.05-0.8,1.58-2.12,1.58-4.12,0-3.72-1.35-5.05-5.24-5.05h-9.22v1c0.9,0,1.35,0.13,1.58,0.38,0.27,0.27,0.32,0.67,0.32,2.12v11.03c0,2.08-0.12,2.33-1.1,2.43-0.27,0.08-0.35,0.08-0.8,0.08v1zm5.46-9.19v-7.72h1.76c2.61,0,3.56,0.97,3.56,3.72,0,3.02-0.9,4-3.56,4h-1.76z"/>
<path fill="#ffffff" d="m287.47-384.85h7.31v1h-0.12c-1.52,0-1.72,0.23-1.72,2.5v11.08c0,2.2,0.2,2.45,1.72,2.45h0.13v1h-7.31v-1h0.13c1.58,0,1.78-0.25,1.78-2.45v-11.08c0-2.28-0.2-2.5-1.78-2.5h-0.12v-1z"/>
<path fill="#ffffff" d="m310.26-372.52v0.1c0,1.95,0.25,2.87,0.92,3.72,0.6,0.72,1.65,1.13,2.9,1.13,2.3,0,3.73-1.27,3.73-3.32,0-0.92-0.25-1.62-0.83-2.2-0.45-0.45-1.08-0.75-2.55-1.22-2.38-0.82-2.7-0.95-3.52-1.4-1.52-0.8-2.41-2.37-2.41-4.27,0-3.25,2.29-5.2,6.21-5.2,1.8,0,3.7,0.4,5.3,1.06v4.35h-1.62v-0.15c0-1.45-0.22-2.3-0.62-2.9-0.58-0.7-1.75-1.17-3-1.17-2.1,0-3.33,1.05-3.33,2.82,0,1.42,0.67,2.17,2.6,2.82,2.2,0.75,2.7,0.92,3.73,1.37,2.2,1,3.2,2.55,3.2,4.8,0,3.55-2.53,5.81-6.43,5.81-1.33,0-2.88-0.27-4.35-0.82-0.52-0.15-0.8-0.27-1.52-0.62v-4.7h1.59z"/>
<path fill="#ffffff" d="m341.24-366.35c-2.53,0-4.52-0.67-5.72-1.94-1.22-1.27-1.69-3.55-1.69-8.14,0-3.67,0.5-5.87,1.69-7.1,1.07-1.1,3.27-1.78,5.82-1.78,2.08,0,4.18,0.43,5.71,1.18v4.07h-1.53v-0.15c0-2.8-1.3-4.17-3.8-4.17-1.37,0-2.55,0.5-3.28,1.4-0.4,0.63-0.73,1.35-0.8,2.05-0.08,0.85-0.18,2.47-0.25,4.85,0,0.3-0.03,0.6-0.03,0.9,0,3.75,0.38,5.5,1.42,6.65,0.65,0.72,1.9,1.22,3.1,1.22,1.1,0,2.05-0.4,2.73-1.07,0.73-0.82,0.98-1.82,0.98-3.85v-0.05h1.61v4.75c-1.61,0.72-3.93,1.19-5.96,1.19z"/>
<path fill="#ffffff" d="m360.62-384.85h7.31v1h-0.12c-1.53,0-1.72,0.23-1.72,2.5v11.08c0,2.2,0.2,2.45,1.72,2.45h0.13v1h-7.31v-1h0.13c1.58,0,1.78-0.25,1.78-2.45v-11.08c0-2.28-0.2-2.5-1.78-2.5h-0.12v-1z"/>
<path fill="#ffffff" d="m381.92-367.79h0.17c1.55,0,1.78-0.17,1.8-1.4v-1.2-11.25c0-1-0.03-1.37-0.28-1.65-0.25-0.37-0.8-0.53-1.7-0.55v-1h4.9s9.14,14.4,9.14,14.4v-10.62c0-2.62-0.08-2.72-1.92-2.77h-0.07s0.03-1,0.03-1h5.25v1h-0.1c-1.8,0.02-1.87,0.15-1.87,2.77v14.24h-3.28s-8.81-13.74-8.81-13.74v10.18s0.02,1.13,0.02,1.13c0.03,1.27,0.25,1.4,2,1.45h0.1v0.99h-5.37v-0.97z"/>
<path fill="#ffffff" d="m412.26-367.82h0.13c1.57,0,1.77-0.25,1.77-2.45v-11.08c0-2.28-0.2-2.5-1.77-2.5h-0.12v-1h13.59v4.53h-1.62v-1.3c0-0.9-0.12-1.4-0.4-1.75-0.32-0.35-0.67-0.48-1.77-0.48h-2.25c-1.12,0-1.42,0.05-1.73,0.3-0.32,0.25-0.35,0.35-0.35,1.83v4.81h2.63c0.75,0,1.05-0.05,1.28-0.28,0.27-0.25,0.35-0.48,0.38-1.78v-0.08h1.27v5.48h-1.27v-0.07c-0.03-1.3-0.08-1.45-0.37-1.75-0.23-0.2-0.65-0.35-1.28-0.35h-2.62v5.99c0,1.77,0.22,1.92,2.4,1.92h2.1c1.88,0,2.53-0.5,2.53-2v-2.22h1.57v5.22h-14.06v-1z"/>
<path fill="#ffffff" d="m441.26-372.52v0.1c0,1.95,0.25,2.87,0.92,3.72,0.6,0.72,1.65,1.13,2.9,1.13,2.3,0,3.73-1.27,3.73-3.32,0-0.92-0.25-1.62-0.83-2.2-0.45-0.45-1.08-0.75-2.55-1.22-2.37-0.82-2.7-0.95-3.52-1.4-1.52-0.8-2.42-2.37-2.42-4.27,0-3.25,2.29-5.2,6.21-5.2,1.8,0,3.7,0.4,5.3,1.06v4.35h-1.62v-0.15c0-1.45-0.23-2.3-0.62-2.9-0.58-0.7-1.75-1.17-3-1.17-2.1,0-3.33,1.05-3.33,2.82,0,1.42,0.68,2.17,2.6,2.82,2.2,0.75,2.7,0.92,3.73,1.37,2.2,1,3.2,2.55,3.2,4.8,0,3.55-2.53,5.81-6.43,5.81-1.33,0-2.88-0.27-4.35-0.82-0.52-0.15-0.8-0.27-1.52-0.62v-4.7h1.59z"/>
<path fill="#049adc" d="m309.81-437.44h16.11s-8.58,12.85-8.58,12.85v1.52s-7.52-14.37-7.52-14.37z"/>
<path fill="#15569c" d="m353.26-436.05h3.25v2.59h-3.25v-2.59z"/>
<path fill="#ffffff" d="m116.88-418.39h21.18c13.18,0,21.89-7.17,23.81-18.75,2.5-14.72-5.12-25.09-19.39-27.07-1.34-0.19-2.69-0.26-4.1-0.26h-20.93c0.26,0.26,0.45,0.45,0.64,0.7,1.6,1.79,2.18,3.2,2.37,5.25v0.83s-0.13,32.64-0.13,32.64v0.77c-0.26,2.18-0.96,3.58-2.75,5.25-0.19,0.26-0.45,0.45-0.7,0.64zm13.89-6.78v-32.64s0.7-0.19,0.7-0.19,0.64-0.13,0.64-0.13c0.77-0.13,1.6-0.19,2.37-0.19,10.94-0.32,17.41,6.14,17.15,16.96-0.32,11.78-8,17.98-19.71,16.38,0,0-0.77-0.13-0.77-0.13s-0.38-0.06-0.38-0.06z"/>
<path fill="#ffffff" d="m202.17-434.85v-1.54c-0.26-12.1-8.06-18.75-20.42-16.64-7.1,1.22-12.29,5.95-14.02,12.93-0.58,2.18-0.7,4.48-0.32,6.72,1.54,9.28,8.7,14.98,20.42,14.98,2.5,0,5.06-0.32,7.81-1.02,0,0,0.58-0.13,0.58-0.13s0.58-0.19,0.58-0.19,5.25-8.58,5.25-8.58c-1.28,0.77-2.43,1.34-3.84,1.86-3.58,1.34-6.59,1.86-8.83,1.86-5.38-0.06-9.09-2.43-11.07-6.72-0.51-1.09-0.9-2.3-1.02-3.52h24.9zm-24.7-6.02c0.13-0.51,0.26-1.09,0.45-1.6,1.73-5.44,7.74-7.36,11.78-4.1,1.73,1.41,2.69,3.52,2.69,5.7h-14.91z"/>
<path fill="#ffffff" d="m205.82-428.16s0.77,0.45,0.77,0.45c1.73,1.15,3.01,1.73,4.35,2.24,4.16,1.54,7.36,1.92,9.34,1.66,3.65-0.45,4.93-1.66,5.06-3.46,0.06-1.66-1.09-3.01-4.67-4.22,0,0-2.82-0.96-2.82-0.96s-2.69-0.9-2.69-0.9-0.83-0.32-0.83-0.32c-1.47-0.58-2.88-1.41-4.22-2.56-4.61-3.97-3.84-11.26,2.43-14.53,3.58-1.86,8.64-2.5,15.68-1.22,0,0,1.41,0.26,1.41,0.26s0.38,0.06,0.38,0.06v6.66c-0.38-0.19-0.7-0.32-1.02-0.51-3.07-1.54-5.63-2.18-8-2.05-1.22,0-2.05,0.13-2.88,0.45-1.86,0.58-2.62,2.5-1.6,4.03,0.51,0.7,1.09,1.15,2.43,1.79,0.38,0.19,0.77,0.32,1.15,0.45,0,0,1.54,0.51,1.54,0.51s1.02,0.32,1.02,0.32,3.26,0.96,3.26,0.96,1.28,0.38,1.28,0.38c1.02,0.38,2.05,0.83,3.01,1.47,5.25,3.39,5.89,10.69,0.38,15.62-3.07,2.75-7.23,3.84-14.34,3.14-0.64-0.06-1.28-0.19-1.92-0.26,0,0-3.97-0.77-3.97-0.77s-0.32-0.06-0.32-0.06-1.22-0.19-1.22-0.19-3.52-8.83-3.52-8.83,0.51,0.38,0.51,0.38z"/>
<path fill="#ffffff" d="m259.14-435.8c0,1.28,0.13,2.56,0.38,3.84,2.05,9.86,10.62,15.62,22.4,13.7,1.86-0.32,3.58-0.9,5.18-1.6,7.04-3.33,10.62-9.15,10.62-16,0.06-11.07-9.15-19.07-22.27-17.34-6.46,0.9-11.65,4.48-14.34,9.66-1.28,2.43-1.92,5.06-1.98,7.74zm9.66,0c-0.06-0.58-0.06-1.15,0-1.73,0.38-6.85,4.67-10.62,9.98-10.24,3.71,0.26,6.46,2.24,8.26,6.46,0.58,1.47,0.96,3.26,1.02,5.44,0.32,8.96-5.25,13.5-11.58,11.65-4.16-1.22-7.42-5.5-7.68-11.58z"/>
<path fill="#ffffff" d="m301.69-410.43c0.77,0.77,1.66,1.22,2.88,1.41,2.56,0.45,4.54-0.64,6.21-3.9,0.26-0.51,0.45-0.96,0.7-1.47,0,0,1.86-4.74,1.86-4.74s-0.64-1.34-0.64-1.34-0.58-1.28-0.58-1.28-1.41-3.26-1.41-3.26-8.45-18.69-8.45-18.69c-2.43-5.44-3.14-6.4-6.02-8,2.43,0.38,4.93,0.38,7.36-0.06,1.79-0.32,3.52-0.83,5.12-1.54,0,0,9.6,22.85,9.6,22.85s6.21-14.98,6.21-14.98c1.28-3.26,1.22-4.22-0.26-5.76,0,0-0.51-0.58-0.51-0.58l-0.13-0.13h12.67s-18.43,39.49-18.43,39.49c-3.58,7.68-7.94,10.37-16.7,10.05-1.98-0.13-3.97-0.45-5.95-1.09,0,0,6.46-6.98,6.46-6.98z"/>
<path fill="#ffffff" d="m344.33-451.87c1.73-0.38,3.39-0.64,5.06-0.7,11.26-0.7,14.98,2.62,14.98,10.43v12.03c0,4.16,1.09,5.31,5.18,5.25,0.32,0,0.58-0.06,0.9-0.06,0,0-4.42,6.08-4.42,6.08-1.41,0.38-2.82,0.51-4.22,0.32-3.26-0.38-5.38-1.92-6.4-4.22-0.51-1.09-0.58-1.79-0.58-4.8v-7.87s-0.83,0.32-0.83,0.32-0.64,0.19-0.64,0.19-0.13,0.06-0.13,0.06-2.43,0.58-2.43,0.58c-0.32,0.06-0.64,0.19-0.96,0.26-5.18,1.47-6.66,3.2-6.08,6.02,0.58,2.75,3.78,4.74,9.54,3.26,0.32-0.13,0.7-0.19,1.02-0.32,0,0-4.1,5.95-4.1,5.95-0.64,0.19-1.34,0.38-2.05,0.51-5.05,0.83-9.47-0.96-11.78-4.22-4.35-6.21-1.86-12.54,6.27-14.98,0.83-0.26,1.73-0.45,2.62-0.64,0,0,0.32-0.06,0.32-0.06s3.71-0.77,3.71-0.77,0.83-0.19,0.83-0.19,1.86-0.45,1.86-0.45c2.3-0.58,3.26-2.24,2.56-4.16-0.38-1.15-1.54-1.92-3.9-2.24-1.28-0.19-3.26-0.06-6.14,0.64-1.92,0.45-3.9,1.09-5.82,1.98,0,0,5.63-8.19,5.63-8.19z"/>
<path fill="#ffffff" d="m378.44-451.22c1.86-0.26,3.71-0.77,5.5-1.41v22.53c0,5.18,2.82,7.62,9.28,6.27,3.2-0.7,4.54-2.62,4.54-6.98v-13.38c0-3.84-0.7-5.38-2.75-6.78,1.15,0.13,2.24,0.13,3.39,0.13,2.94-0.06,5.89-0.64,8.7-1.66v27.58,1.09s0.06,0.64,0.06,0.64c0.06,1.6,0.64,2.94,1.86,4.1,0.26,0.26,0.58,0.51,0.83,0.7h-12.29v-3.26c-1.09,1.54-2.62,2.69-5.37,3.71-1.73,0.58-3.71,0.9-5.95,0.77-0.77,0-1.54-0.13-2.3-0.26-6.59-1.15-9.47-4.8-9.47-11.33v-14.34c0-5.12-0.51-6.34-2.88-7.94,2.3,0.26,4.61,0.19,6.85-0.19z"/>
<path fill="#ffffff" d="m427.65-434.97s-8.13-11.14-8.13-11.14c-1.15-1.54-2.5-2.94-4.03-4.1-0.45-0.32-0.9-0.64-1.34-0.9h13.5s6.21,8.9,6.21,8.9,3.52-4.16,3.52-4.16c0.13-0.13,0.19-0.26,0.32-0.45,1.34-1.86,1.34-2.56,0.19-3.71l-0.45-0.45-0.13-0.13h13.5s-12.8,14.72-12.8,14.72,8.9,12.29,8.9,12.29c2.3,3.14,3.58,4.42,5.95,5.7h-13.5s-7.62-10.75-7.62-10.75-5.18,6.02-5.18,6.02c-1.86,2.18-1.86,3.46-0.51,4.48,0,0,0.26,0.13,0.26,0.13l0.13,0.13h-13.44s14.66-16.58,14.66-16.58z"/>
</g>
</g>
</g>
</svg>