<?xml version="1.0" encoding="UTF-8"?> <svg xmlns="http://www.w3.org/2000/svg" id="Layer_1" viewBox="0 0 91.28 64.49"><defs><style>.cls-1{fill:#fff;}.cls-2{fill:#22af61;}.cls-3{fill:#1f4e79;}.cls-4{fill:#0578bd;}.cls-5{fill:#6e6a69;}.cls-6{fill:#94ceef;}.cls-7{fill:#494543;}</style></defs><path class="cls-3" d="M80.77,53.81H12.96c-.6,0-1.08-.48-1.08-1.08V7.35c0-2.32,1.89-4.21,4.21-4.21h61.54c2.32,0,4.21,1.89,4.21,4.21V52.73c0,.6-.48,1.08-1.08,1.08m-66.74-2.15H79.7V7.35c0-1.14-.92-2.06-2.06-2.06H16.09c-1.14,0-2.06,.92-2.06,2.06V51.65Z"></path><path class="cls-3" d="M81.89,60.9H10.27c-3.99,0-7.24-3.25-7.24-7.24v-.93c0-.6,.48-1.08,1.08-1.08H88.05c.6,0,1.08,.48,1.08,1.08v.93c0,3.99-3.25,7.24-7.24,7.24M5.19,53.81c.08,2.74,2.33,4.94,5.08,4.94H81.89c2.76,0,5.01-2.2,5.08-4.94H5.19Z"></path><path class="cls-2" d="M76.95,49.31H17.06V8.07h59.89V49.31Zm-58.78-1.11h57.68V9.18H18.16V48.2Z"></path><path class="cls-3" d="M26.9,14.11c.29,0,.52-.18,.52-.55s-.24-.56-.52-.56h-.27v1.11h.27Zm-.61,.31v-1.74h.62c.5,0,.86,.32,.86,.87s-.37,.87-.86,.87h-.62Z"></path><polygon class="cls-3" points="28.07 14.42 28.07 12.68 29.16 12.68 29.16 13 28.4 13 28.4 13.43 29.08 13.43 29.08 13.74 28.41 13.74 28.41 14.42 28.07 14.42"></polygon><path class="cls-3" d="M29.95,13.55c0-.55,.42-.91,.89-.91s.73,.29,.8,.58l-.32,.1c-.04-.17-.18-.35-.48-.35-.26,0-.53,.19-.53,.58,0,.37,.26,.57,.54,.57,.3,0,.44-.19,.49-.36l.32,.1c-.07,.27-.32,.59-.8,.59s-.89-.35-.89-.9"></path><path class="cls-3" d="M32.54,13.93v-.05l-.27,.04c-.08,.01-.15,.06-.15,.15,0,.07,.05,.14,.16,.14,.14,0,.26-.07,.26-.28m-.39-.21l.3-.04c.07,0,.09-.04,.09-.09,0-.09-.07-.16-.2-.16s-.22,.09-.23,.2l-.29-.06c.02-.19,.19-.4,.52-.4,.38,0,.53,.22,.53,.46v.59c0,.06,0,.15,.01,.19h-.3s-.01-.1-.01-.14c-.06,.1-.18,.18-.36,.18-.26,0-.42-.18-.42-.36,0-.22,.16-.34,.36-.37"></path><path class="cls-3" d="M33.81,13.48c-.17,0-.3,.12-.3,.34s.14,.34,.3,.34,.3-.12,.3-.34-.13-.34-.3-.34m-.62,1.41v-1.67h.32v.15c.05-.09,.19-.17,.37-.17,.35,0,.56,.27,.56,.63s-.23,.64-.57,.64c-.17,0-.29-.07-.35-.15v.58h-.33Z"></path><path class="cls-3" d="M34.69,13.21h.33v1.21h-.33v-1.21Zm.16-.6c.11,0,.2,.09,.2,.2s-.09,.2-.2,.2-.2-.09-.2-.2,.09-.2,.2-.2"></path><path class="cls-3" d="M35.77,13.21h.24v.29h-.24v.51c0,.1,.05,.14,.14,.14,.04,0,.08,0,.1,0v.27s-.09,.03-.18,.03c-.24,0-.38-.14-.38-.37v-.56h-.22v-.29h.06c.13,0,.19-.08,.19-.19v-.17h.29v.36Z"></path><path class="cls-3" d="M36.97,13.93v-.05l-.27,.04c-.08,.01-.15,.06-.15,.15,0,.07,.05,.14,.16,.14,.14,0,.27-.07,.27-.28m-.39-.21l.3-.04c.07,0,.09-.04,.09-.09,0-.09-.07-.16-.2-.16s-.22,.09-.23,.2l-.29-.06c.02-.19,.19-.4,.52-.4,.38,0,.52,.22,.52,.46v.59c0,.06,0,.15,.02,.19h-.3s-.01-.1-.01-.14c-.06,.1-.18,.18-.36,.18-.26,0-.42-.18-.42-.36,0-.22,.16-.34,.36-.37"></path><rect class="cls-3" x="37.62" y="12.64" width=".33" height="1.78"></rect><path class="cls-2" d="M24.76,10.98h0Zm-.94,.98v-.02h.02s-.01,0-.02,.02m-1.55,1.97v0h0m-.09,.16h0v0m-.05,.11h0s.02-.03,.02-.05l-.02,.05m-.02,.05h0s.01-.03,.02-.04l-.02,.04m-.05,.14s0-.02,.01-.03c0,0,0,.02-.01,.03m-.03,.07h0s.01-.03,.02-.05h0l-.02,.05m-.02,.05h0v0m-.03,.11h0v0m0,.02v-.02h0v.02m-.05,.17h0s0-.03,.01-.04c0,.01,0,.03-.01,.04m-.01,.05h0v0m0,.03v-.03h0v.03m-.03,.1h0v0m-.02,.09h0m-.01,.07h0m0,.02h0m0,.03h0m0,.08h0m0,.03h0v0m0,.03h0v0m0,.05h0m0,.03h0m0,.03h0m0,.03h0v0m2.94-4.54c-1.62,0-2.94,1.32-2.94,2.94h0v1.62h1.62v-1.63h0c0-.72,.58-1.3,1.3-1.31h.02v-1.62h0"></path><path class="cls-2" d="M23.46,15.53h-1.62c0-.72-.58-1.31-1.3-1.32h-.02v-1.62h0c.53,0,1.04,.14,1.47,.39-.1,.29-.15,.6-.15,.93h0v1.62h1.62v-.04s0,.03,0,.04m-1.62-.02h0v0m0-.02h0m0-.03h0m0-.03h0m0-.05h0v0m0-.03h0v0m0-.03h0m0-.08h0m0-.03h0m0-.02h0m.01-.07h0m.02-.09h0v0m.02-.13h0m0,0h0m.01-.05h0m.04-.17v0m0-.03h0v0m.03-.1h0m.02-.05h0v0m.03-.08h0m0,0h0m.05-.13h0v0m.02-.05h0m.05-.11h0v0m.08-.15v-.02h.01v.02"></path><path class="cls-2" d="M23.46,15.53h-1.62v-1.62h0c0-.32,.05-.64,.15-.93,.87,.5,1.46,1.43,1.47,2.5v.04Zm-1.62-.04h0v0m0-.02h0m0-.02h0m0-.03h0m0-.06v0m0-.03v0m0-.02h0m0-.08h0m0-.04h0m0-.02h0m0-.06h0m.02-.12v0m.02-.1h0m0,0h0m.01-.05h0m.05-.19h0v0m0-.03v.02h0v-.02m.03-.09h0m.02-.07v0m.02-.06h0m0,0h0m.06-.15v0m.01-.03h0m.06-.13v0m.08-.15h0v0h0"></path><path class="cls-7" d="M44.84,13.7v.3h.35v-.3h.09v.72h-.09v-.34h-.35v.34h-.09v-.72h.09Z"></path><path class="cls-7" d="M45.9,14.16c0,.19-.13,.27-.26,.27-.14,0-.25-.1-.25-.27,0-.17,.11-.27,.26-.27s.25,.11,.25,.27Zm-.41,0c0,.11,.07,.2,.16,.2s.16-.08,.16-.2c0-.09-.04-.2-.15-.2s-.16,.1-.16,.2Z"></path><path class="cls-7" d="M46.02,14.04c0-.05,0-.1,0-.14h.08v.08h0s.08-.09,.16-.09c.07,0,.12,.04,.15,.1h0s.04-.05,.06-.07c.03-.02,.06-.04,.11-.04,.07,0,.17,.04,.17,.22v.3h-.09v-.29c0-.1-.04-.16-.11-.16-.05,0-.1,.04-.11,.09,0,.01,0,.03,0,.05v.32h-.09v-.31c0-.08-.04-.14-.11-.14-.06,0-.1,.05-.12,.09,0,.01,0,.03,0,.05v.31h-.09v-.38Z"></path><path class="cls-7" d="M46.96,14.18c0,.13,.08,.18,.18,.18,.07,0,.11-.01,.14-.03l.02,.07s-.09,.03-.17,.03c-.16,0-.25-.1-.25-.26s.09-.28,.24-.28c.17,0,.21,.15,.21,.24,0,.02,0,.03,0,.04h-.36Zm.28-.07c0-.06-.03-.15-.13-.15-.09,0-.14,.09-.14,.15h.27Z"></path><path class="cls-7" d="M48.76,14.31s.1,.05,.17,.05c.09,0,.15-.05,.15-.12,0-.07-.04-.11-.14-.14-.12-.04-.19-.1-.19-.2,0-.11,.09-.2,.23-.2,.07,0,.13,.02,.16,.04l-.03,.08s-.07-.03-.14-.03c-.1,0-.14,.06-.14,.11,0,.07,.04,.1,.14,.14,.12,.05,.18,.11,.18,.21s-.08,.21-.25,.21c-.07,0-.15-.02-.18-.05l.02-.08Z"></path><path class="cls-7" d="M49.58,14.42v-.07h-.01s-.08,.08-.16,.08c-.1,0-.16-.07-.16-.15,0-.12,.11-.19,.31-.19h0c0-.05-.01-.13-.12-.13-.05,0-.1,.01-.13,.04l-.02-.06s.1-.05,.17-.05c.16,0,.2,.11,.2,.21v.19s0,.09,0,.12h-.08Zm-.01-.26c-.1,0-.22,.02-.22,.12,0,.06,.04,.09,.09,.09,.07,0,.11-.04,.12-.09,0,0,0-.02,0-.03v-.09Z"></path><path class="cls-7" d="M49.84,13.91l.1,.29s.03,.09,.04,.13h0s.03-.09,.04-.13l.1-.29h.1l-.2,.52h-.09l-.2-.52h.1Z"></path><path class="cls-7" d="M50.41,13.76s-.02,.06-.06,.06c-.03,0-.06-.03-.06-.06s.02-.06,.06-.06,.06,.03,.06,.06Zm-.1,.66v-.52h.09v.52h-.09Z"></path><path class="cls-7" d="M50.56,14.04c0-.05,0-.1,0-.14h.08v.08h0s.09-.1,.17-.1c.07,0,.18,.04,.18,.22v.31h-.09v-.3c0-.08-.03-.15-.12-.15-.06,0-.11,.04-.13,.1,0,.01,0,.03,0,.04v.31h-.09v-.38Z"></path><path class="cls-7" d="M51.59,13.91s0,.08,0,.14v.3c0,.12-.02,.19-.07,.24-.05,.05-.12,.06-.19,.06s-.13-.02-.17-.04l.02-.07s.09,.04,.15,.04c.1,0,.17-.05,.17-.18v-.06h0s-.08,.09-.16,.09c-.13,0-.22-.11-.22-.25,0-.18,.11-.27,.23-.27,.09,0,.14,.05,.16,.09h0v-.08h.09Zm-.1,.2s0-.03,0-.04c-.02-.05-.06-.1-.13-.1-.09,0-.15,.08-.15,.2,0,.1,.05,.19,.15,.19,.06,0,.11-.04,.13-.1,0-.02,0-.03,0-.05v-.09Z"></path><path class="cls-7" d="M51.95,14.33s.08,.04,.12,.04c.07,0,.1-.03,.1-.08s-.03-.07-.1-.09c-.09-.03-.14-.08-.14-.15,0-.08,.07-.15,.18-.15,.05,0,.1,.01,.13,.03l-.02,.07s-.06-.03-.11-.03c-.05,0-.09,.03-.09,.07,0,.04,.03,.06,.1,.09,.09,.03,.14,.08,.14,.16,0,.09-.07,.16-.19,.16-.06,0-.11-.01-.14-.04l.02-.07Z"></path><path class="cls-7" d="M54.03,14.4s-.1,.03-.19,.03c-.2,0-.36-.13-.36-.36s.15-.38,.38-.38c.09,0,.15,.02,.17,.03l-.02,.08s-.08-.03-.14-.03c-.17,0-.28,.11-.28,.3,0,.18,.1,.29,.28,.29,.06,0,.11-.01,.15-.03l.02,.07Z"></path><path class="cls-7" d="M54.83,14.16c0,.19-.13,.27-.26,.27-.14,0-.25-.1-.25-.27,0-.17,.11-.27,.26-.27s.25,.11,.25,.27Zm-.41,0c0,.11,.07,.2,.16,.2s.16-.08,.16-.2c0-.09-.04-.2-.15-.2s-.16,.1-.16,.2Z"></path><path class="cls-7" d="M54.94,14.04c0-.05,0-.1,0-.14h.08v.08h0s.08-.09,.16-.09c.07,0,.12,.04,.15,.1h0s.04-.05,.06-.07c.03-.02,.06-.04,.11-.04,.07,0,.17,.04,.17,.22v.3h-.09v-.29c0-.1-.04-.16-.11-.16-.05,0-.1,.04-.11,.09,0,.01,0,.03,0,.05v.32h-.09v-.31c0-.08-.04-.14-.11-.14-.06,0-.1,.05-.12,.09,0,.01,0,.03,0,.05v.31h-.09v-.38Z"></path><path class="cls-7" d="M55.83,14.04c0-.05,0-.1,0-.14h.08v.08h0s.08-.09,.16-.09c.07,0,.12,.04,.15,.1h0s.04-.05,.06-.07c.03-.02,.06-.04,.11-.04,.07,0,.17,.04,.17,.22v.3h-.09v-.29c0-.1-.04-.16-.11-.16-.05,0-.1,.04-.11,.09,0,.01,0,.03,0,.05v.32h-.09v-.31c0-.08-.04-.14-.11-.14-.06,0-.1,.05-.12,.09,0,.01,0,.03,0,.05v.31h-.09v-.38Z"></path><path class="cls-7" d="M56.77,14.18c0,.13,.08,.18,.18,.18,.07,0,.11-.01,.14-.03l.02,.07s-.09,.03-.17,.03c-.16,0-.25-.1-.25-.26s.09-.28,.24-.28c.17,0,.21,.15,.21,.24,0,.02,0,.03,0,.04h-.36Zm.28-.07c0-.06-.03-.15-.13-.15-.09,0-.14,.09-.14,.15h.27Z"></path><path class="cls-7" d="M57.25,14.07c0-.06,0-.11,0-.16h.08v.1h0c.02-.07,.08-.11,.14-.11,.01,0,.02,0,.03,0v.09s-.02,0-.03,0c-.07,0-.11,.05-.13,.12,0,.01,0,.03,0,.04v.28h-.09v-.36Z"></path><path class="cls-7" d="M57.96,14.4s-.08,.03-.15,.03c-.16,0-.26-.11-.26-.26s.11-.27,.28-.27c.06,0,.1,.01,.13,.03l-.02,.07s-.06-.02-.11-.02c-.12,0-.18,.09-.18,.2,0,.12,.08,.19,.18,.19,.05,0,.09-.01,.12-.03l.02,.07Z"></path><path class="cls-7" d="M58.17,13.76s-.02,.06-.06,.06c-.03,0-.06-.03-.06-.06s.02-.06,.06-.06,.06,.03,.06,.06Zm-.1,.66v-.52h.09v.52h-.09Z"></path><path class="cls-7" d="M58.6,14.42v-.07h-.01s-.08,.08-.16,.08c-.1,0-.16-.07-.16-.15,0-.12,.11-.19,.31-.19h0c0-.05-.01-.13-.12-.13-.05,0-.1,.01-.13,.04l-.02-.06s.1-.05,.17-.05c.16,0,.2,.11,.2,.21v.19s0,.09,0,.12h-.08Zm-.01-.26c-.1,0-.22,.02-.22,.12,0,.06,.04,.09,.09,.09,.07,0,.11-.04,.12-.09,0,0,0-.02,0-.03v-.09Z"></path><path class="cls-7" d="M58.83,13.66h.09v.76h-.09v-.76Z"></path><path class="cls-7" d="M60.67,14.2l-.07,.23h-.1l.25-.72h.11l.25,.72h-.1l-.08-.23h-.26Zm.24-.07l-.07-.21s-.03-.09-.04-.13h0s-.02,.09-.04,.13l-.07,.21h.22Z"></path><path class="cls-7" d="M61.2,14.42s0-.09,0-.13v-.62h.09v.33h0c.03-.06,.09-.09,.18-.09,.13,0,.22,.11,.22,.26,0,.18-.12,.28-.23,.28-.07,0-.13-.03-.17-.1h0v.09h-.09Zm.1-.21s0,.02,0,.03c.02,.07,.07,.11,.14,.11,.1,0,.16-.08,.16-.2,0-.1-.05-.19-.15-.19-.06,0-.12,.04-.14,.12,0,.01,0,.02,0,.04v.09Z"></path><path class="cls-7" d="M62.27,14.16c0,.19-.13,.27-.26,.27-.14,0-.25-.1-.25-.27,0-.17,.11-.27,.26-.27s.25,.11,.25,.27Zm-.41,0c0,.11,.07,.2,.16,.2s.16-.08,.16-.2c0-.09-.04-.2-.15-.2s-.16,.1-.16,.2Z"></path><path class="cls-7" d="M62.82,14.28c0,.05,0,.1,0,.14h-.08v-.08h0s-.08,.1-.17,.1c-.08,0-.18-.04-.18-.23v-.3h.09v.29c0,.1,.03,.16,.12,.16,.06,0,.11-.04,.12-.08,0-.01,0-.03,0-.05v-.32h.09v.38Z"></path><path class="cls-7" d="M63.09,13.76v.15h.13v.07h-.13v.28c0,.06,.02,.1,.07,.1,.02,0,.04,0,.05,0v.07s-.04,.01-.08,.01c-.04,0-.08-.01-.1-.04-.03-.03-.04-.07-.04-.13v-.28h-.08v-.07h.08v-.12l.09-.02Z"></path><path class="cls-7" d="M63.64,13.7v.43c0,.16,.07,.23,.17,.23,.11,0,.17-.07,.17-.23v-.43h.09v.42c0,.22-.12,.31-.27,.31s-.26-.08-.26-.31v-.42h.09Z"></path><path class="cls-7" d="M64.22,14.33s.08,.04,.12,.04c.07,0,.1-.03,.1-.08s-.03-.07-.1-.09c-.09-.03-.14-.08-.14-.15,0-.08,.07-.15,.18-.15,.05,0,.1,.01,.13,.03l-.02,.07s-.06-.03-.11-.03c-.05,0-.09,.03-.09,.07,0,.04,.03,.06,.1,.09,.09,.03,.14,.08,.14,.16,0,.09-.07,.16-.19,.16-.06,0-.11-.01-.14-.04l.02-.07Z"></path><path class="cls-7" d="M65.89,13.7v.3h.35v-.3h.09v.72h-.09v-.34h-.35v.34h-.09v-.72h.09Z"></path><path class="cls-7" d="M66.54,14.18c0,.13,.08,.18,.18,.18,.07,0,.11-.01,.14-.03l.02,.07s-.09,.03-.17,.03c-.16,0-.25-.1-.25-.26s.09-.28,.24-.28c.17,0,.21,.15,.21,.24,0,.02,0,.03,0,.04h-.36Zm.28-.07c0-.06-.03-.15-.13-.15-.09,0-.14,.09-.14,.15h.27Z"></path><path class="cls-7" d="M67.02,13.66h.09v.76h-.09v-.76Z"></path><path class="cls-7" d="M67.27,14.07c0-.07,0-.12,0-.17h.08v.09h0c.04-.06,.1-.1,.18-.1,.12,0,.22,.11,.22,.26,0,.19-.11,.28-.24,.28-.07,0-.13-.03-.16-.08h0v.28h-.09v-.56Zm.09,.14s0,.03,0,.04c.02,.07,.07,.11,.14,.11,.1,0,.16-.08,.16-.2,0-.1-.05-.19-.15-.19-.06,0-.12,.05-.14,.12,0,.01,0,.03,0,.04v.09Z"></path><path class="cls-7" d="M70.02,14.4s-.1,.03-.19,.03c-.2,0-.36-.13-.36-.36s.15-.38,.38-.38c.09,0,.15,.02,.17,.03l-.02,.08s-.08-.03-.14-.03c-.17,0-.28,.11-.28,.3,0,.18,.1,.29,.28,.29,.06,0,.11-.01,.15-.03l.02,.07Z"></path><path class="cls-7" d="M70.57,14.16c0,.19-.13,.27-.26,.27-.14,0-.25-.1-.25-.27,0-.17,.11-.27,.26-.27s.25,.11,.25,.27Zm-.41,0c0,.11,.07,.2,.16,.2s.16-.08,.16-.2c0-.09-.04-.2-.15-.2s-.16,.1-.16,.2Z"></path><path class="cls-7" d="M70.89,14.04c0-.05,0-.1,0-.14h.08v.08h0s.09-.1,.17-.1c.07,0,.18,.04,.18,.22v.31h-.09v-.3c0-.08-.03-.15-.12-.15-.06,0-.11,.04-.13,.1,0,.01,0,.03,0,.04v.31h-.09v-.38Z"></path><path class="cls-7" d="M71.59,13.76v.15h.13v.07h-.13v.28c0,.06,.02,.1,.07,.1,.02,0,.04,0,.05,0v.07s-.04,.01-.08,.01c-.04,0-.08-.01-.1-.04-.03-.03-.04-.07-.04-.13v-.28h-.08v-.07h.08v-.12l.09-.02Z"></path><path class="cls-7" d="M72.12,14.42v-.07h-.01s-.08,.08-.16,.08c-.1,0-.16-.07-.16-.15,0-.12,.11-.19,.31-.19h0c0-.05-.01-.13-.12-.13-.05,0-.1,.01-.13,.04l-.02-.06s.1-.05,.17-.05c.16,0,.2,.11,.2,.21v.19s0,.09,0,.12h-.08Zm-.01-.26c-.1,0-.22,.02-.22,.12,0,.06,.04,.09,.09,.09,.07,0,.11-.04,.12-.09,0,0,0-.02,0-.03v-.09Z"></path><path class="cls-7" d="M72.71,14.4s-.08,.03-.15,.03c-.16,0-.26-.11-.26-.26s.11-.27,.28-.27c.06,0,.1,.01,.13,.03l-.02,.07s-.06-.02-.11-.02c-.12,0-.18,.09-.18,.2,0,.12,.08,.19,.18,.19,.05,0,.09-.01,.12-.03l.02,.07Z"></path><path class="cls-7" d="M72.93,13.76v.15h.13v.07h-.13v.28c0,.06,.02,.1,.07,.1,.02,0,.04,0,.05,0v.07s-.04,.01-.08,.01c-.04,0-.08-.01-.1-.04-.03-.03-.04-.07-.04-.13v-.28h-.08v-.07h.08v-.12l.09-.02Z"></path><path class="cls-7" d="M73.49,13.7v.43c0,.16,.07,.23,.17,.23,.11,0,.17-.07,.17-.23v-.43h.09v.42c0,.22-.12,.31-.27,.31s-.26-.08-.26-.31v-.42h.09Z"></path><path class="cls-7" d="M74.07,14.33s.08,.04,.12,.04c.07,0,.1-.03,.1-.08s-.03-.07-.1-.09c-.09-.03-.14-.08-.14-.15,0-.08,.07-.15,.18-.15,.05,0,.1,.01,.13,.03l-.02,.07s-.06-.03-.11-.03c-.05,0-.09,.03-.09,.07,0,.04,.03,.06,.1,.09,.09,.03,.14,.08,.14,.16,0,.09-.07,.16-.19,.16-.06,0-.11-.01-.14-.04l.02-.07Z"></path><rect class="cls-6" x="18.11" y="17.93" width="57.76" height=".31"></rect><rect class="cls-4" x="18.12" y="18.24" width="57.76" height="2.67"></rect><path class="cls-1" d="M20.59,19.83s.1,.05,.17,.05c.09,0,.15-.05,.15-.12,0-.07-.04-.11-.14-.14-.12-.04-.19-.1-.19-.2,0-.11,.09-.2,.23-.2,.07,0,.13,.02,.16,.04l-.03,.08s-.07-.03-.14-.03c-.1,0-.13,.06-.13,.11,0,.07,.04,.1,.14,.14,.12,.05,.18,.11,.18,.21s-.08,.21-.25,.21c-.07,0-.15-.02-.18-.05l.02-.08Z"></path><path class="cls-1" d="M21.23,19.27v.15h.13v.07h-.13v.28c0,.06,.02,.1,.07,.1,.02,0,.04,0,.05,0v.07s-.04,.01-.08,.01c-.04,0-.08-.01-.1-.04-.03-.03-.04-.07-.04-.13v-.28h-.08v-.07h.08v-.12l.09-.02Z"></path><path class="cls-1" d="M21.76,19.94v-.07h-.01s-.08,.08-.16,.08c-.1,0-.16-.07-.16-.15,0-.12,.11-.19,.31-.19h0c0-.05-.01-.13-.12-.13-.05,0-.1,.01-.13,.04l-.02-.06s.1-.05,.17-.05c.16,0,.2,.11,.2,.21v.19s0,.09,0,.12h-.08Zm-.01-.26c-.1,0-.22,.02-.22,.12,0,.06,.04,.09,.09,.09,.07,0,.11-.04,.12-.09,0,0,0-.02,0-.03v-.09Z"></path><path class="cls-1" d="M22.43,19.42s0,.08,0,.14v.3c0,.12-.02,.19-.07,.24-.05,.05-.12,.06-.19,.06s-.13-.02-.17-.04l.02-.07s.09,.04,.15,.04c.1,0,.17-.05,.17-.18v-.06h0s-.08,.09-.16,.09c-.13,0-.22-.11-.22-.25,0-.18,.11-.27,.23-.27,.09,0,.14,.05,.16,.09h0v-.08h.09Zm-.1,.2s0-.03,0-.04c-.02-.05-.06-.1-.13-.1-.09,0-.15,.08-.15,.2,0,.1,.05,.19,.15,.19,.06,0,.11-.04,.13-.1,0-.02,0-.03,0-.05v-.09Z"></path><path class="cls-1" d="M22.63,19.7c0,.13,.08,.18,.18,.18,.07,0,.11-.01,.14-.03l.02,.07s-.09,.03-.17,.03c-.16,0-.25-.1-.25-.26s.09-.28,.24-.28c.17,0,.21,.15,.21,.24,0,.02,0,.03,0,.04h-.36Zm.28-.07c0-.06-.03-.15-.13-.15-.09,0-.14,.09-.14,.15h.27Z"></path><path class="cls-1" d="M23.84,19.3h-.22v-.08h.53v.08h-.22v.64h-.09v-.64Z"></path><path class="cls-1" d="M24.2,19.42l.07,.26c.01,.06,.03,.11,.04,.16h0c.01-.05,.03-.11,.05-.16l.08-.26h.08l.08,.26c.02,.06,.03,.12,.05,.17h0c0-.05,.02-.11,.04-.17l.07-.26h.09l-.17,.52h-.09l-.08-.25c-.02-.06-.03-.11-.05-.17h0c-.01,.06-.03,.12-.05,.17l-.08,.25h-.09l-.16-.52h.1Z"></path><path class="cls-1" d="M25.63,19.68c0,.19-.13,.27-.26,.27-.14,0-.25-.1-.25-.27,0-.17,.11-.27,.26-.27s.25,.11,.25,.27Zm-.41,0c0,.11,.07,.2,.16,.2s.16-.08,.16-.2c0-.09-.04-.2-.15-.2s-.16,.1-.16,.2Z"></path><path class="cls-6" d="M26.97,19.23s.1-.01,.18-.01c.09,0,.16,.02,.2,.06,.04,.03,.06,.09,.06,.15s-.02,.12-.06,.15c-.05,.05-.13,.08-.22,.08-.03,0-.05,0-.08,0v.29h-.09v-.71Zm.09,.35s.05,0,.08,0c.11,0,.18-.05,.18-.15s-.07-.14-.17-.14c-.04,0-.07,0-.09,0v.28Z"></path><path class="cls-6" d="M27.54,19.7c0,.13,.08,.18,.18,.18,.07,0,.11-.01,.14-.03l.02,.07s-.09,.03-.17,.03c-.16,0-.25-.1-.25-.26s.09-.28,.24-.28c.17,0,.21,.15,.21,.24,0,.02,0,.03,0,.04h-.36Zm.28-.07c0-.06-.03-.15-.13-.15-.09,0-.14,.09-.14,.15h.27Z"></path><path class="cls-6" d="M28.13,19.58c0-.06,0-.11,0-.16h.08v.1h0c.02-.07,.08-.11,.14-.11,.01,0,.02,0,.03,0v.09s-.02,0-.03,0c-.07,0-.11,.05-.13,.12,0,.01,0,.03,0,.04v.28h-.09v-.36Z"></path><path class="cls-6" d="M28.47,19.84s.08,.04,.12,.04c.07,0,.1-.03,.1-.08s-.03-.07-.1-.09c-.09-.03-.14-.08-.14-.15,0-.08,.07-.15,.18-.15,.05,0,.1,.01,.13,.03l-.02,.07s-.06-.03-.11-.03c-.05,0-.09,.03-.09,.07,0,.04,.03,.06,.1,.09,.09,.03,.14,.08,.14,.16,0,.09-.07,.16-.19,.16-.06,0-.11-.01-.14-.04l.02-.07Z"></path><path class="cls-6" d="M29.37,19.68c0,.19-.13,.27-.26,.27-.14,0-.25-.1-.25-.27,0-.17,.11-.27,.26-.27s.25,.11,.25,.27Zm-.41,0c0,.11,.07,.2,.16,.2s.16-.08,.16-.2c0-.09-.04-.2-.15-.2s-.16,.1-.16,.2Z"></path><path class="cls-6" d="M29.48,19.56c0-.05,0-.1,0-.14h.08v.08h0s.09-.1,.17-.1c.07,0,.18,.04,.18,.22v.31h-.09v-.3c0-.08-.03-.15-.12-.15-.06,0-.11,.04-.13,.1,0,.01,0,.03,0,.04v.31h-.09v-.38Z"></path><path class="cls-6" d="M30.36,19.94v-.07h-.01s-.08,.08-.16,.08c-.1,0-.16-.07-.16-.15,0-.12,.11-.19,.31-.19h0c0-.05-.01-.13-.12-.13-.05,0-.1,.01-.13,.04l-.02-.06s.1-.05,.17-.05c.16,0,.2,.11,.2,.21v.19s0,.09,0,.12h-.08Zm-.01-.26c-.1,0-.22,.02-.22,.12,0,.06,.04,.09,.09,.09,.07,0,.11-.04,.12-.09,0,0,0-.02,0-.03v-.09Z"></path><path class="cls-6" d="M30.58,19.18h.09v.76h-.09v-.76Z"></path><path class="cls-6" d="M31.5,19.18v.62s0,.1,0,.13h-.08v-.09h0c-.03,.06-.09,.1-.18,.1-.12,0-.22-.11-.22-.26,0-.17,.11-.28,.23-.28,.08,0,.13,.04,.16,.08h0v-.31h.09Zm-.09,.45s0-.03,0-.04c-.01-.06-.06-.11-.13-.11-.1,0-.16,.09-.16,.2,0,.1,.05,.19,.15,.19,.06,0,.12-.04,.14-.11,0-.01,0-.03,0-.04v-.09Z"></path><path class="cls-6" d="M31.71,19.7c0,.13,.08,.18,.18,.18,.07,0,.11-.01,.14-.03l.02,.07s-.09,.03-.17,.03c-.16,0-.25-.1-.25-.26s.09-.28,.24-.28c.17,0,.21,.15,.21,.24,0,.02,0,.03,0,.04h-.36Zm.28-.07c0-.06-.03-.15-.13-.15-.09,0-.14,.09-.14,.15h.27Z"></path><path class="cls-6" d="M32.3,19.27v.15h.13v.07h-.13v.28c0,.06,.02,.1,.07,.1,.02,0,.04,0,.05,0v.07s-.04,.01-.08,.01c-.04,0-.08-.01-.1-.04-.03-.03-.04-.07-.04-.13v-.28h-.08v-.07h.08v-.12l.09-.02Z"></path><path class="cls-6" d="M32.83,19.94v-.07h-.01s-.08,.08-.16,.08c-.1,0-.16-.07-.16-.15,0-.12,.11-.19,.31-.19h0c0-.05-.01-.13-.12-.13-.05,0-.1,.01-.13,.04l-.02-.06s.1-.05,.17-.05c.16,0,.2,.11,.2,.21v.19s0,.09,0,.12h-.08Zm-.01-.26c-.1,0-.22,.02-.22,.12,0,.06,.04,.09,.09,.09,.07,0,.11-.04,.12-.09,0,0,0-.02,0-.03v-.09Z"></path><path class="cls-6" d="M33.16,19.28s-.02,.06-.06,.06c-.03,0-.06-.03-.06-.06s.02-.06,.06-.06,.06,.03,.06,.06Zm-.1,.66v-.52h.09v.52h-.09Z"></path><path class="cls-6" d="M33.3,19.18h.09v.76h-.09v-.76Z"></path><path class="cls-6" d="M33.53,19.84s.08,.04,.12,.04c.07,0,.1-.03,.1-.08s-.03-.07-.1-.09c-.09-.03-.14-.08-.14-.15,0-.08,.07-.15,.18-.15,.05,0,.1,.01,.13,.03l-.02,.07s-.06-.03-.11-.03c-.05,0-.09,.03-.09,.07,0,.04,.03,.06,.1,.09,.09,.03,.14,.08,.14,.16,0,.09-.07,.16-.19,.16-.06,0-.11-.01-.14-.04l.02-.07Z"></path><path class="cls-7" d="M20.57,22.15h-.22v-.08h.53v.08h-.22v.64h-.09v-.64Z"></path><path class="cls-7" d="M21.05,22.13s-.02,.06-.06,.06c-.03,0-.06-.03-.06-.06s.02-.06,.06-.06,.06,.03,.06,.06Zm-.1,.66v-.52h.09v.52h-.09Z"></path><path class="cls-7" d="M21.3,22.13v.15h.13v.07h-.13v.28c0,.06,.02,.1,.07,.1,.02,0,.04,0,.05,0v.07s-.04,.01-.08,.01c-.04,0-.08-.01-.1-.04-.03-.03-.04-.07-.04-.13v-.28h-.08v-.07h.08v-.12l.09-.02Z"></path><path class="cls-7" d="M21.54,22.04h.09v.76h-.09v-.76Z"></path><path class="cls-7" d="M21.84,22.55c0,.13,.08,.18,.18,.18,.07,0,.11-.01,.14-.03l.02,.07s-.09,.03-.17,.03c-.16,0-.25-.1-.25-.26s.09-.28,.24-.28c.17,0,.21,.15,.21,.24,0,.02,0,.03,0,.04h-.36Zm.28-.07c0-.06-.03-.15-.13-.15-.09,0-.14,.09-.14,.15h.27Z"></path><path class="cls-7" d="M22.58,22.1l-.1,.13h0l.16-.02v.07l-.16-.02h0l.1,.13-.07,.04-.06-.15h0l-.07,.15-.06-.04,.1-.13h0l-.16,.02v-.07l.16,.02h0l-.1-.13,.07-.04,.07,.15h0l.06-.15,.06,.04Z"></path><path class="cls-5" d="M55.49,25.78H20.07v-1.99H55.49v1.99Zm-35.41-.02H55.47v-1.95H20.08v1.95Z"></path><path class="cls-7" d="M21.01,24.97s-.08,.03-.14,.03c-.15,0-.27-.1-.27-.28s.12-.29,.28-.29c.07,0,.11,.01,.13,.02l-.02,.06s-.06-.02-.11-.02c-.13,0-.21,.08-.21,.22,0,.13,.08,.22,.21,.22,.04,0,.09,0,.12-.02v.06Z"></path><path class="cls-7" d="M21.09,24.42h.07v.24h0s.03-.04,.05-.05c.02-.01,.05-.02,.07-.02,.05,0,.14,.03,.14,.17v.23h-.07v-.22c0-.06-.02-.12-.09-.12-.05,0-.08,.03-.1,.07,0,0,0,.02,0,.03v.24h-.07v-.57Z"></path><path class="cls-7" d="M21.9,24.79c0,.15-.1,.21-.19,.21-.11,0-.19-.08-.19-.2,0-.13,.09-.21,.19-.21s.19,.08,.19,.2Zm-.31,0c0,.09,.05,.15,.12,.15s.12-.06,.12-.15c0-.07-.03-.15-.12-.15s-.12,.08-.12,.15Z"></path><path class="cls-7" d="M22.34,24.79c0,.15-.1,.21-.19,.21-.11,0-.19-.08-.19-.2,0-.13,.09-.21,.19-.21s.19,.08,.19,.2Zm-.31,0c0,.09,.05,.15,.12,.15s.12-.06,.12-.15c0-.07-.03-.15-.12-.15s-.12,.08-.12,.15Z"></path><path class="cls-7" d="M22.42,24.92s.06,.03,.09,.03c.05,0,.08-.03,.08-.06,0-.03-.02-.05-.07-.07-.07-.03-.1-.06-.1-.11,0-.06,.05-.12,.13-.12,.04,0,.07,.01,.1,.02l-.02,.05s-.04-.02-.08-.02c-.04,0-.07,.02-.07,.05,0,.03,.02,.05,.08,.07,.07,.03,.1,.06,.1,.12,0,.07-.05,.12-.15,.12-.04,0-.08,0-.11-.03l.02-.05Z"></path><path class="cls-7" d="M22.78,24.81c0,.1,.06,.14,.13,.14,.05,0,.08,0,.11-.02v.05s-.06,.02-.12,.02c-.12,0-.19-.08-.19-.2s.07-.21,.18-.21c.13,0,.16,.11,.16,.18,0,.01,0,.03,0,.03h-.28Zm.21-.05s-.02-.12-.1-.12c-.07,0-.1,.07-.11,.12h.21Z"></path><path class="cls-7" d="M23.79,24.71c0,.19-.11,.29-.25,.29s-.25-.11-.25-.28,.11-.29,.25-.29,.25,.11,.25,.28Zm-.42,0c0,.12,.06,.22,.17,.22s.17-.1,.17-.23c0-.11-.06-.22-.17-.22s-.17,.11-.17,.23Z"></path><path class="cls-7" d="M23.87,24.71s0-.07,0-.11h.06v.06h0s.06-.07,.13-.07c.05,0,.14,.03,.14,.17v.23h-.07v-.23c0-.06-.02-.12-.09-.12-.05,0-.08,.03-.1,.07,0,0,0,.02,0,.03v.24h-.07v-.29Z"></path><path class="cls-7" d="M24.36,24.81c0,.1,.06,.14,.13,.14,.05,0,.08,0,.11-.02v.05s-.06,.02-.12,.02c-.12,0-.19-.08-.19-.2s.07-.21,.18-.21c.13,0,.16,.11,.16,.18,0,.01,0,.03,0,.03h-.28Zm.21-.05s-.02-.12-.1-.12c-.07,0-.1,.07-.11,.12h.21Z"></path><polygon class="cls-2" points="53.95 25.18 53.29 24.42 53.33 24.38 53.96 25.11 54.58 24.38 54.62 24.42 53.96 25.18 53.96 25.17 53.95 25.18"></polygon><path class="cls-7" d="M20.44,27.3h.39v.08h-.29v.24h.27v.08h-.27v.33h-.09v-.72Z"></path><path class="cls-7" d="M21.05,27.36s-.02,.06-.06,.06c-.03,0-.06-.03-.06-.06s.02-.06,.06-.06,.06,.03,.06,.06Zm-.1,.66v-.52h.09v.52h-.09Z"></path><path class="cls-7" d="M21.2,27.66c0-.06,0-.11,0-.16h.08v.1h0c.02-.07,.08-.11,.14-.11,.01,0,.02,0,.03,0v.09s-.02,0-.03,0c-.07,0-.11,.05-.13,.12,0,.01,0,.03,0,.04v.28h-.09v-.36Z"></path><path class="cls-7" d="M21.53,27.92s.08,.04,.12,.04c.07,0,.1-.03,.1-.08s-.03-.07-.1-.09c-.09-.03-.14-.08-.14-.15,0-.08,.07-.15,.18-.15,.05,0,.1,.01,.13,.03l-.02,.07s-.06-.03-.11-.03c-.05,0-.09,.03-.09,.07,0,.04,.03,.06,.1,.09,.09,.03,.14,.08,.14,.16,0,.09-.07,.16-.19,.16-.06,0-.11-.01-.14-.04l.02-.07Z"></path><path class="cls-7" d="M22.08,27.35v.15h.13v.07h-.13v.28c0,.06,.02,.1,.07,.1,.02,0,.04,0,.05,0v.07s-.04,.01-.08,.01c-.04,0-.08-.01-.1-.04-.03-.03-.04-.07-.04-.13v-.28h-.08v-.07h.08v-.12l.09-.02Z"></path><path class="cls-7" d="M22.54,27.64c0-.05,0-.1,0-.14h.08v.08h0s.09-.1,.17-.1c.07,0,.18,.04,.18,.22v.31h-.09v-.3c0-.08-.03-.15-.12-.15-.06,0-.11,.04-.13,.1,0,.01,0,.03,0,.04v.31h-.09v-.38Z"></path><path class="cls-7" d="M23.41,28.02v-.07h-.01s-.08,.08-.16,.08c-.1,0-.16-.07-.16-.15,0-.12,.11-.19,.31-.19h0c0-.05-.01-.13-.12-.13-.05,0-.1,.01-.13,.04l-.02-.06s.1-.05,.17-.05c.16,0,.2,.11,.2,.21v.19s0,.09,0,.12h-.08Zm-.01-.26c-.1,0-.22,.02-.22,.12,0,.06,.04,.09,.09,.09,.07,0,.11-.04,.12-.09,0,0,0-.02,0-.03v-.09Z"></path><path class="cls-7" d="M23.64,27.64c0-.05,0-.1,0-.14h.08v.08h0s.08-.09,.16-.09c.07,0,.12,.04,.15,.1h0s.04-.05,.06-.07c.03-.02,.06-.04,.11-.04,.07,0,.17,.04,.17,.22v.3h-.09v-.29c0-.1-.04-.16-.11-.16-.05,0-.1,.04-.11,.09,0,.01,0,.03,0,.05v.32h-.09v-.31c0-.08-.04-.14-.11-.14-.06,0-.1,.05-.12,.09,0,.01,0,.03,0,.05v.31h-.09v-.38Z"></path><path class="cls-7" d="M24.57,27.78c0,.13,.08,.18,.18,.18,.07,0,.11-.01,.14-.03l.02,.07s-.09,.03-.17,.03c-.16,0-.25-.1-.25-.26s.09-.28,.24-.28c.17,0,.21,.15,.21,.24,0,.02,0,.03,0,.04h-.36Zm.28-.07c0-.06-.03-.15-.13-.15-.09,0-.14,.09-.14,.15h.27Z"></path><path class="cls-7" d="M25.68,27.32l-.1,.13h0l.16-.02v.07l-.16-.02h0l.1,.13-.07,.04-.06-.15h0l-.07,.15-.06-.04,.1-.13h0l-.16,.02v-.07l.16,.02h0l-.1-.13,.07-.04,.07,.15h0l.06-.15,.06,.04Z"></path><path class="cls-5" d="M55.49,31H20.07v-1.99H55.49v1.99Zm-35.41-.02H55.47v-1.95H20.08v1.95Z"></path><path class="cls-7" d="M21.04,32.92c0-.1-.01-.22-.01-.31h0c-.02,.08-.05,.17-.09,.27l-.13,.35h-.07l-.12-.34c-.03-.1-.06-.2-.08-.28h0c0,.09,0,.21-.01,.32l-.02,.31h-.09l.05-.72h.12l.12,.35c.03,.09,.05,.17,.07,.24h0c.02-.07,.04-.15,.08-.24l.13-.35h.12l.04,.72h-.09l-.02-.32Z"></path><path class="cls-7" d="M21.39,32.58s-.02,.06-.06,.06c-.03,0-.06-.03-.06-.06s.02-.06,.06-.06,.06,.03,.06,.06Zm-.1,.66v-.52h.09v.52h-.09Z"></path><path class="cls-7" d="M21.98,32.48v.62s0,.1,0,.13h-.08v-.09h0c-.03,.06-.09,.1-.18,.1-.12,0-.22-.11-.22-.26,0-.17,.11-.28,.23-.28,.08,0,.13,.04,.16,.08h0v-.31h.09Zm-.09,.45s0-.03,0-.04c-.01-.06-.06-.11-.13-.11-.1,0-.16,.09-.16,.2,0,.1,.05,.19,.15,.19,.06,0,.12-.04,.14-.11,0-.01,0-.03,0-.04v-.09Z"></path><path class="cls-7" d="M22.58,32.48v.62s0,.1,0,.13h-.08v-.09h0c-.03,.06-.09,.1-.18,.1-.12,0-.22-.11-.22-.26,0-.17,.11-.28,.23-.28,.08,0,.13,.04,.16,.08h0v-.31h.09Zm-.09,.45s0-.03,0-.04c-.01-.06-.06-.11-.14-.11-.1,0-.15,.09-.15,.2,0,.1,.05,.19,.15,.19,.06,0,.12-.04,.14-.11,0-.01,0-.03,0-.04v-.09Z"></path><path class="cls-7" d="M22.73,32.48h.09v.76h-.09v-.76Z"></path><path class="cls-7" d="M23.04,33c0,.13,.08,.18,.18,.18,.07,0,.11-.01,.14-.03l.02,.07s-.09,.03-.17,.03c-.16,0-.25-.1-.25-.26s.09-.28,.24-.28c.17,0,.21,.15,.21,.24,0,.02,0,.03,0,.04h-.36Zm.28-.07c0-.06-.03-.15-.13-.15-.09,0-.14,.09-.14,.15h.27Z"></path><path class="cls-7" d="M23.74,32.86c0-.05,0-.1,0-.14h.08v.08h0s.09-.1,.17-.1c.07,0,.18,.04,.18,.22v.31h-.09v-.3c0-.08-.03-.15-.12-.15-.06,0-.11,.04-.13,.1,0,.01,0,.03,0,.04v.31h-.09v-.38Z"></path><path class="cls-7" d="M24.62,33.24v-.07h-.01s-.08,.08-.16,.08c-.1,0-.16-.07-.16-.15,0-.12,.11-.19,.31-.19h0c0-.05-.01-.13-.12-.13-.05,0-.1,.01-.13,.04l-.02-.06s.1-.05,.17-.05c.16,0,.2,.11,.2,.21v.19s0,.09,0,.12h-.08Zm-.01-.26c-.1,0-.22,.02-.22,.12,0,.06,.04,.09,.09,.09,.07,0,.11-.04,.12-.09,0,0,0-.02,0-.03v-.09Z"></path><path class="cls-7" d="M24.84,32.86c0-.05,0-.1,0-.14h.08v.08h0s.08-.09,.16-.09c.07,0,.12,.04,.15,.1h0s.04-.05,.06-.07c.03-.02,.06-.04,.11-.04,.07,0,.17,.04,.17,.22v.3h-.09v-.29c0-.1-.04-.16-.11-.16-.05,0-.1,.04-.11,.09,0,.01,0,.03,0,.05v.32h-.09v-.31c0-.08-.04-.14-.11-.14-.06,0-.1,.05-.12,.09,0,.01,0,.03,0,.05v.31h-.09v-.38Z"></path><path class="cls-7" d="M25.78,33c0,.13,.08,.18,.18,.18,.07,0,.11-.01,.14-.03l.02,.07s-.09,.03-.17,.03c-.16,0-.25-.1-.25-.26s.09-.28,.24-.28c.17,0,.21,.15,.21,.24,0,.02,0,.03,0,.04h-.36Zm.28-.07c0-.06-.03-.15-.13-.15-.09,0-.14,.09-.14,.15h.27Z"></path><path class="cls-7" d="M26.51,32.55l-.1,.13h0l.16-.02v.07l-.16-.02h0l.1,.13-.07,.04-.06-.15h0l-.07,.15-.06-.04,.1-.13h0l-.16,.02v-.07l.16,.02h0l-.1-.13,.06-.04,.07,.15h0l.07-.15,.06,.04Z"></path><path class="cls-5" d="M55.49,36.22H20.07v-1.99H55.49v1.99Zm-35.41-.02H55.47v-1.95H20.08v1.95Z"></path><path class="cls-7" d="M20.42,38.35s.1,.05,.17,.05c.09,0,.15-.05,.15-.12,0-.07-.04-.11-.14-.14-.12-.04-.19-.1-.19-.2,0-.11,.09-.2,.23-.2,.07,0,.13,.02,.16,.04l-.03,.08s-.07-.03-.14-.03c-.1,0-.13,.06-.13,.11,0,.07,.04,.1,.14,.14,.12,.05,.18,.11,.18,.21s-.08,.21-.25,.21c-.07,0-.15-.02-.18-.05l.02-.08Z"></path><path class="cls-7" d="M21.37,38.32c0,.05,0,.1,0,.14h-.08v-.08h0s-.08,.1-.17,.1c-.08,0-.18-.04-.18-.23v-.3h.09v.29c0,.1,.03,.16,.12,.16,.06,0,.11-.04,.12-.08,0-.01,0-.03,0-.05v-.32h.09v.38Z"></path><path class="cls-7" d="M21.64,38.11c0-.06,0-.11,0-.16h.08v.1h0c.02-.07,.08-.11,.14-.11,.01,0,.02,0,.03,0v.09s-.02,0-.03,0c-.07,0-.11,.05-.13,.12,0,.01,0,.03,0,.04v.28h-.09v-.36Z"></path><path class="cls-7" d="M21.98,38.09c0-.05,0-.1,0-.14h.08v.08h0s.09-.1,.17-.1c.07,0,.18,.04,.18,.22v.31h-.09v-.3c0-.08-.03-.15-.12-.15-.06,0-.11,.04-.13,.1,0,.01,0,.03,0,.04v.31h-.09v-.38Z"></path><path class="cls-7" d="M22.86,38.46v-.07h-.01s-.08,.08-.16,.08c-.1,0-.16-.07-.16-.15,0-.12,.11-.19,.31-.19h0c0-.05-.01-.13-.12-.13-.05,0-.1,.01-.13,.04l-.02-.06s.1-.05,.17-.05c.16,0,.2,.11,.2,.21v.19s0,.09,0,.12h-.08Zm-.01-.26c-.1,0-.22,.02-.22,.12,0,.06,.04,.09,.09,.09,.07,0,.11-.04,.12-.09,0,0,0-.02,0-.03v-.09Z"></path><path class="cls-7" d="M23.08,38.09c0-.05,0-.1,0-.14h.08v.08h0s.08-.09,.16-.09c.07,0,.12,.04,.15,.1h0s.04-.05,.06-.07c.03-.02,.06-.04,.11-.04,.07,0,.17,.04,.17,.22v.3h-.09v-.29c0-.1-.04-.16-.11-.16-.05,0-.1,.04-.11,.09,0,.01,0,.03,0,.05v.32h-.09v-.31c0-.08-.04-.14-.11-.14-.06,0-.1,.05-.12,.09,0,.01,0,.03,0,.05v.31h-.09v-.38Z"></path><path class="cls-7" d="M24.14,38.22c0,.13,.08,.18,.18,.18,.07,0,.11-.01,.14-.03l.02,.07s-.09,.03-.17,.03c-.16,0-.25-.1-.25-.26s.09-.28,.24-.28c.17,0,.21,.15,.21,.24,0,.02,0,.03,0,.04h-.36Zm.28-.07c0-.06-.03-.15-.13-.15-.09,0-.14,.09-.14,.15h.27Z"></path><path class="cls-7" d="M24.87,37.77l-.1,.13h0l.16-.02v.07l-.16-.02h0l.1,.13-.07,.04-.06-.15h0l-.07,.15-.06-.04,.1-.13h0l-.16,.02v-.07l.16,.02h0l-.1-.13,.07-.04,.07,.15h0l.06-.15,.06,.04Z"></path><path class="cls-5" d="M55.49,41.44H20.07v-1.99H55.49v1.99Zm-35.41-.02H55.47v-1.95H20.08v1.95Z"></path><path class="cls-7" d="M20.44,42.98c.06,0,.12-.02,.2-.02,.13,0,.23,.03,.29,.09,.06,.06,.1,.14,.1,.26s-.04,.21-.1,.28c-.07,.07-.18,.1-.32,.1-.07,0-.12,0-.17,0v-.71Zm.09,.64s.06,0,.09,0c.2,0,.31-.11,.31-.31,0-.17-.09-.28-.29-.28-.05,0-.08,0-.11,0v.57Z"></path><path class="cls-7" d="M21.43,43.69v-.07h-.01s-.08,.08-.16,.08c-.1,0-.16-.07-.16-.15,0-.12,.11-.19,.31-.19h0c0-.05-.01-.13-.12-.13-.05,0-.1,.01-.13,.04l-.02-.06s.1-.05,.17-.05c.16,0,.2,.11,.2,.21v.19s0,.09,0,.12h-.08Zm-.01-.26c-.1,0-.22,.02-.22,.12,0,.06,.04,.09,.09,.09,.07,0,.11-.04,.12-.09,0,0,0-.02,0-.03v-.09Z"></path><path class="cls-7" d="M21.77,43.02v.15h.13v.07h-.13v.28c0,.06,.02,.1,.07,.1,.02,0,.04,0,.05,0v.07s-.04,.01-.08,.01c-.04,0-.08-.01-.1-.04-.03-.03-.04-.07-.04-.13v-.28h-.08v-.07h.08v-.12l.09-.02Z"></path><path class="cls-7" d="M22.06,43.45c0,.13,.08,.18,.18,.18,.07,0,.11-.01,.14-.03l.02,.07s-.09,.03-.17,.03c-.16,0-.25-.1-.25-.26s.09-.28,.24-.28c.17,0,.21,.15,.21,.24,0,.02,0,.03,0,.04h-.36Zm.28-.07c0-.06-.03-.15-.13-.15-.09,0-.14,.09-.14,.15h.27Z"></path><path class="cls-7" d="M23.38,43.32c0,.25-.15,.38-.33,.38s-.32-.15-.32-.37c0-.23,.14-.38,.33-.38s.32,.15,.32,.36Zm-.56,.01c0,.15,.08,.29,.23,.29s.23-.14,.23-.3c0-.14-.07-.29-.23-.29s-.23,.14-.23,.3Z"></path><path class="cls-7" d="M23.51,43.69v-.45h-.07v-.07h.07v-.03c0-.07,.02-.14,.06-.18,.04-.03,.08-.05,.13-.05,.03,0,.06,0,.08,.02v.07s-.05-.01-.07-.01c-.08,0-.1,.07-.1,.15v.03h.12v.07h-.12v.45h-.09Z"></path><path class="cls-7" d="M24.04,42.98s.1-.02,.17-.02c.09,0,.15,.02,.2,.05,.04,.03,.06,.07,.06,.13,0,.07-.05,.13-.12,.16h0c.07,.02,.15,.08,.15,.18,0,.06-.02,.11-.06,.14-.05,.05-.13,.07-.25,.07-.06,0-.11,0-.14,0v-.71Zm.09,.29h.08c.1,0,.16-.05,.16-.12,0-.08-.06-.12-.16-.12-.04,0-.07,0-.08,0v.23Zm0,.34s.04,0,.08,0c.1,0,.18-.04,.18-.14,0-.1-.08-.14-.19-.14h-.08v.27Z"></path><path class="cls-7" d="M24.72,43.03s-.02,.06-.06,.06c-.03,0-.06-.03-.06-.06s.02-.06,.06-.06,.06,.03,.06,.06Zm-.1,.66v-.52h.09v.52h-.09Z"></path><path class="cls-7" d="M25.36,43.33c0-.06,0-.11,0-.16h.08v.1h0c.02-.07,.08-.11,.14-.11,.01,0,.02,0,.03,0v.09s-.02,0-.03,0c-.07,0-.11,.05-.13,.12,0,.01,0,.03,0,.04v.28h-.09v-.36Z"></path><path class="cls-7" d="M25.85,43.02v.15h.13v.07h-.13v.28c0,.06,.02,.1,.07,.1,.02,0,.04,0,.05,0v.07s-.04,.01-.08,.01c-.04,0-.08-.01-.1-.04-.03-.03-.04-.07-.04-.13v-.28h-.08v-.07h.08v-.12l.09-.02Z"></path><path class="cls-7" d="M26.15,42.93h.09v.32h0s.04-.05,.07-.07,.06-.03,.1-.03c.07,0,.18,.04,.18,.22v.31h-.09v-.3c0-.08-.03-.15-.12-.15-.06,0-.11,.04-.13,.09,0,.01,0,.03,0,.04v.31h-.09v-.76Z"></path><path class="cls-7" d="M27,42.99l-.1,.13h0l.16-.02v.07l-.16-.02h0l.1,.13-.07,.04-.06-.15h0l-.07,.15-.06-.04,.1-.13h0l-.16,.02v-.07l.16,.02h0l-.1-.13,.06-.04,.07,.15h0l.07-.15,.06,.04Z"></path><path class="cls-5" d="M55.49,46.67H20.07v-1.99H55.49v1.99Zm-35.41-.02H55.47v-1.95H20.08v1.95ZM58.7,25.56h-.02v-.02l-.45-.53h.02l.46,.51,1.26-1.47h.02l-1.26,1.48h0l-.02,.02Z"></path><path class="cls-5" d="M59.1,26.29c-.82,0-1.48-.66-1.48-1.48s.66-1.48,1.48-1.48,1.48,.66,1.48,1.48-.66,1.48-1.48,1.48Zm0-2.9c-.79,0-1.43,.64-1.43,1.43s.64,1.43,1.43,1.43,1.43-.64,1.43-1.43-.64-1.43-1.43-1.43Z"></path><path class="cls-5" d="M59.1,26.13c-.73,0-1.32-.59-1.32-1.32s.59-1.32,1.32-1.32,1.32,.59,1.32,1.32-.59,1.32-1.32,1.32Zm0-2.61c-.72,0-1.3,.58-1.3,1.3s.58,1.3,1.3,1.3,1.3-.58,1.3-1.3-.58-1.3-1.3-1.3Z"></path><path class="cls-7" d="M62.78,24.57s-.12,.04-.21,.04c-.1,0-.19-.03-.25-.09-.06-.06-.09-.15-.09-.25,0-.2,.14-.35,.37-.35,.08,0,.14,.02,.17,.03l-.02,.07s-.08-.03-.15-.03c-.17,0-.27,.1-.27,.27s.1,.27,.26,.27c.06,0,.1,0,.12-.02v-.2h-.14v-.07h.22v.33Z"></path><path class="cls-7" d="M62.96,24.37c0,.12,.08,.17,.17,.17,.06,0,.1-.01,.13-.03l.02,.06s-.08,.03-.16,.03c-.15,0-.24-.1-.24-.25s.09-.26,.23-.26c.16,0,.2,.14,.2,.23,0,.02,0,.03,0,.04h-.34Zm.26-.06c0-.06-.02-.14-.12-.14-.09,0-.13,.08-.14,.14h.26Z"></path><path class="cls-7" d="M63.52,23.97v.14h.13v.07h-.13v.26c0,.06,.02,.09,.07,.09,.02,0,.04,0,.05,0v.07s-.04,.01-.07,.01c-.04,0-.07-.01-.1-.04-.03-.03-.03-.07-.03-.13v-.27h-.08v-.07h.08v-.12l.09-.02Z"></path><path class="cls-7" d="M63.85,23.97v.14h.13v.07h-.13v.26c0,.06,.02,.09,.07,.09,.02,0,.04,0,.05,0v.07s-.04,.01-.07,.01c-.04,0-.07-.01-.1-.04-.03-.03-.03-.07-.03-.13v-.27h-.08v-.07h.08v-.12l.09-.02Z"></path><path class="cls-7" d="M64.17,23.98s-.02,.05-.06,.05c-.03,0-.05-.02-.05-.05s.02-.06,.06-.06,.05,.02,.05,.06Zm-.1,.62v-.49h.09v.49h-.09Z"></path><path class="cls-7" d="M64.3,24.25c0-.05,0-.09,0-.13h.08v.08h0s.08-.09,.16-.09c.07,0,.17,.04,.17,.21v.29h-.09v-.28c0-.08-.03-.14-.11-.14-.06,0-.1,.04-.12,.09,0,.01,0,.03,0,.04v.29h-.09v-.36Z"></path><path class="cls-7" d="M65.28,24.11s0,.07,0,.13v.28c0,.11-.02,.18-.07,.22-.05,.04-.12,.06-.18,.06s-.12-.01-.16-.04l.02-.07s.08,.04,.14,.04c.09,0,.16-.05,.16-.17v-.05h0s-.08,.08-.15,.08c-.12,0-.21-.1-.21-.24,0-.17,.11-.26,.22-.26,.08,0,.13,.04,.15,.08h0v-.07h.08Zm-.09,.19s0-.03,0-.04c-.02-.05-.06-.09-.12-.09-.08,0-.14,.07-.14,.18,0,.1,.05,.18,.14,.18,.05,0,.1-.03,.12-.09,0-.01,0-.03,0-.05v-.09Z"></path><path class="cls-7" d="M65.62,24.5s.1,.04,.16,.04c.09,0,.14-.05,.14-.12,0-.06-.04-.1-.13-.13-.11-.04-.18-.1-.18-.19,0-.11,.09-.18,.22-.18,.07,0,.12,.02,.15,.03l-.02,.07s-.07-.03-.13-.03c-.09,0-.13,.06-.13,.1,0,.06,.04,.09,.13,.13,.11,.04,.17,.1,.17,.2,0,.11-.08,.2-.24,.2-.07,0-.14-.02-.17-.04l.02-.07Z"></path><path class="cls-7" d="M66.23,23.97v.14h.13v.07h-.13v.26c0,.06,.02,.09,.07,.09,.02,0,.04,0,.05,0v.07s-.04,.01-.07,.01c-.04,0-.07-.01-.1-.04-.03-.03-.03-.07-.03-.13v-.27h-.08v-.07h.08v-.12l.09-.02Z"></path><path class="cls-7" d="M66.73,24.6v-.06h-.01s-.08,.07-.15,.07c-.1,0-.15-.07-.15-.14,0-.12,.1-.18,.29-.18h0s-.01-.12-.11-.12c-.05,0-.09,.01-.13,.04l-.02-.06s.1-.04,.16-.04c.15,0,.19,.1,.19,.2v.18s0,.08,0,.12h-.08Zm-.01-.25c-.1,0-.21,.02-.21,.11,0,.06,.04,.08,.08,.08,.06,0,.1-.04,.12-.08,0,0,0-.02,0-.03v-.08Z"></path><path class="cls-7" d="M66.94,24.27c0-.06,0-.11,0-.15h.08v.1h0c.02-.07,.08-.11,.13-.11,0,0,.02,0,.03,0v.08s-.02,0-.03,0c-.06,0-.11,.05-.12,.11,0,.01,0,.03,0,.04v.26h-.09v-.33Z"></path><path class="cls-7" d="M67.91,23.97v.14h.13v.07h-.13v.26c0,.06,.02,.09,.07,.09,.02,0,.04,0,.05,0v.07s-.04,.01-.07,.01c-.04,0-.07-.01-.1-.04-.03-.03-.03-.07-.03-.13v-.27h-.08v-.07h.08v-.12l.09-.02Z"></path><path class="cls-7" d="M68.18,24.37c0,.12,.08,.17,.17,.17,.06,0,.1-.01,.13-.03l.02,.06s-.08,.03-.16,.03c-.15,0-.24-.1-.24-.25s.09-.26,.23-.26c.16,0,.2,.14,.2,.23,0,.02,0,.03,0,.04h-.34Zm.26-.06c0-.06-.02-.14-.12-.14-.09,0-.13,.08-.14,.14h.26Z"></path><path class="cls-7" d="M69.12,23.89v.59s0,.09,0,.13h-.08v-.08h0c-.03,.05-.09,.1-.17,.1-.12,0-.21-.1-.21-.25,0-.16,.1-.26,.22-.26,.07,0,.12,.04,.15,.07h0v-.29h.09Zm-.09,.43s0-.03,0-.04c-.01-.06-.06-.1-.13-.1-.09,0-.15,.08-.15,.19,0,.1,.05,.18,.14,.18,.06,0,.11-.04,.13-.11,0-.01,0-.02,0-.04v-.08Z"></path><path class="cls-2" d="M62.26,27.79s.1-.01,.17-.01c.09,0,.15,.02,.19,.06,.04,.03,.06,.08,.06,.14s-.02,.11-.05,.14c-.05,.05-.12,.08-.21,.08-.03,0-.05,0-.07,0v.27h-.09v-.67Zm.09,.33s.04,0,.07,0c.11,0,.17-.05,.17-.15s-.06-.13-.16-.13c-.04,0-.07,0-.08,0v.26Z"></path><path class="cls-2" d="M62.81,28.24c0,.12,.08,.17,.17,.17,.06,0,.1-.01,.13-.03l.02,.06s-.08,.03-.16,.03c-.15,0-.24-.1-.24-.25s.09-.26,.23-.26c.16,0,.2,.14,.2,.23,0,.02,0,.03,0,.04h-.34Zm.26-.06c0-.06-.02-.14-.12-.14-.09,0-.13,.08-.14,.14h.26Z"></path><path class="cls-2" d="M63.26,28.13c0-.06,0-.11,0-.15h.08v.1h0c.02-.07,.08-.11,.13-.11,0,0,.02,0,.03,0v.08s-.02,0-.03,0c-.06,0-.11,.05-.12,.11,0,.01,0,.03,0,.04v.26h-.09v-.33Z"></path><path class="cls-2" d="M63.58,28.38s.07,.04,.12,.04c.06,0,.09-.03,.09-.07s-.02-.07-.09-.09c-.09-.03-.13-.08-.13-.14,0-.08,.06-.14,.17-.14,.05,0,.09,.01,.12,.03l-.02,.06s-.05-.03-.1-.03c-.05,0-.08,.03-.08,.07,0,.04,.03,.06,.09,.08,.08,.03,.13,.08,.13,.15,0,.08-.07,.15-.18,.15-.05,0-.1-.01-.14-.03l.02-.07Z"></path><path class="cls-2" d="M64.43,28.22c0,.18-.12,.26-.24,.26-.13,0-.23-.1-.23-.25,0-.16,.11-.26,.24-.26s.23,.1,.23,.25Zm-.39,0c0,.11,.06,.19,.15,.19s.15-.08,.15-.19c0-.08-.04-.19-.15-.19s-.15,.1-.15,.19Z"></path><path class="cls-2" d="M64.54,28.11c0-.05,0-.09,0-.13h.08v.08h0s.08-.09,.16-.09c.07,0,.17,.04,.17,.21v.29h-.09v-.28c0-.08-.03-.14-.11-.14-.06,0-.1,.04-.12,.09,0,.01,0,.03,0,.04v.29h-.09v-.36Z"></path><path class="cls-2" d="M65.37,28.47v-.06h-.01s-.08,.07-.15,.07c-.1,0-.15-.07-.15-.14,0-.12,.1-.18,.29-.18h0s-.01-.12-.11-.12c-.05,0-.09,.01-.13,.04l-.02-.06s.1-.04,.16-.04c.15,0,.19,.1,.19,.2v.18s0,.08,0,.12h-.08Zm-.01-.25c-.1,0-.21,.02-.21,.11,0,.06,.04,.08,.08,.08,.06,0,.1-.04,.12-.08,0,0,0-.02,0-.03v-.08Z"></path><path class="cls-2" d="M65.58,27.75h.09v.71h-.09v-.71Z"></path><path class="cls-2" d="M66.45,27.75v.59s0,.09,0,.13h-.08v-.08h0c-.03,.05-.09,.1-.17,.1-.12,0-.21-.1-.21-.25,0-.16,.1-.26,.22-.26,.07,0,.12,.04,.15,.07h0v-.29h.09Zm-.09,.43s0-.03,0-.04c-.01-.06-.06-.1-.13-.1-.09,0-.15,.08-.15,.19,0,.1,.05,.18,.14,.18,.06,0,.11-.04,.13-.11,0-.01,0-.02,0-.04v-.08Z"></path><path class="cls-2" d="M66.65,28.24c0,.12,.08,.17,.17,.17,.06,0,.1-.01,.13-.03l.02,.06s-.08,.03-.16,.03c-.15,0-.24-.1-.24-.25s.09-.26,.23-.26c.16,0,.2,.14,.2,.23,0,.02,0,.03,0,.04h-.34Zm.26-.06c0-.06-.02-.14-.12-.14-.09,0-.13,.08-.14,.14h.26Z"></path><path class="cls-2" d="M67.21,27.84v.14h.13v.07h-.13v.26c0,.06,.02,.09,.07,.09,.02,0,.04,0,.05,0v.07s-.04,.01-.07,.01c-.04,0-.07-.01-.1-.04-.03-.03-.03-.07-.03-.13v-.27h-.08v-.07h.08v-.12l.09-.02Z"></path><path class="cls-2" d="M67.71,28.47v-.06h-.01s-.08,.07-.15,.07c-.1,0-.15-.07-.15-.14,0-.12,.1-.18,.29-.18h0s-.01-.12-.11-.12c-.05,0-.09,.01-.13,.04l-.02-.06s.1-.04,.16-.04c.15,0,.19,.1,.19,.2v.18s0,.08,0,.12h-.08Zm-.01-.25c-.1,0-.21,.02-.21,.11,0,.06,.04,.08,.08,.08,.06,0,.1-.04,.12-.08,0,0,0-.02,0-.03v-.08Z"></path><path class="cls-2" d="M68.02,27.84s-.02,.05-.06,.05c-.03,0-.05-.02-.05-.05s.02-.06,.06-.06,.05,.02,.05,.06Zm-.1,.62v-.49h.09v.49h-.09Z"></path><path class="cls-2" d="M68.16,27.75h.09v.71h-.09v-.71Z"></path><path class="cls-2" d="M68.38,28.38s.07,.04,.12,.04c.06,0,.09-.03,.09-.07s-.02-.07-.09-.09c-.09-.03-.13-.08-.13-.14,0-.08,.06-.14,.17-.14,.05,0,.09,.01,.12,.03l-.02,.06s-.05-.03-.1-.03c-.05,0-.08,.03-.08,.07,0,.04,.03,.06,.09,.08,.08,.03,.13,.08,.13,.15,0,.08-.07,.15-.18,.15-.05,0-.1-.01-.14-.03l.02-.07Z"></path><path class="cls-2" d="M59.1,30c-.82,0-1.48-.66-1.48-1.48s.66-1.48,1.48-1.48,1.48,.66,1.48,1.48-.66,1.48-1.48,1.48Zm0-2.9c-.79,0-1.43,.64-1.43,1.43s.64,1.43,1.43,1.43,1.43-.64,1.43-1.43-.64-1.43-1.43-1.43Z"></path><path class="cls-2" d="M59.1,29.84c-.73,0-1.32-.59-1.32-1.32s.59-1.32,1.32-1.32,1.32,.59,1.32,1.32-.59,1.32-1.32,1.32Zm0-2.61c-.72,0-1.3,.58-1.3,1.3s.58,1.3,1.3,1.3,1.3-.58,1.3-1.3-.58-1.3-1.3-1.3Z"></path><path class="cls-2" d="M58.8,28.95v-.07l.09-.09c.23-.22,.33-.33,.33-.47,0-.09-.04-.17-.18-.17-.08,0-.15,.04-.19,.08l-.04-.08c.06-.05,.15-.09,.25-.09,.19,0,.27,.13,.27,.26,0,.17-.12,.3-.31,.48l-.07,.07h.4v.1h-.57Z"></path><path class="cls-4" d="M59.1,41.14c-.82,0-1.48-.66-1.48-1.48s.66-1.48,1.48-1.48,1.48,.66,1.48,1.48-.66,1.48-1.48,1.48Zm0-2.91c-.79,0-1.43,.64-1.43,1.43s.64,1.43,1.43,1.43,1.43-.64,1.43-1.43-.64-1.43-1.43-1.43Z"></path><path class="cls-4" d="M59.1,40.98c-.73,0-1.32-.59-1.32-1.32s.59-1.32,1.32-1.32,1.32,.59,1.32,1.32-.59,1.32-1.32,1.32Zm0-2.61c-.72,0-1.3,.58-1.3,1.3s.58,1.3,1.3,1.3,1.3-.58,1.3-1.3-.58-1.3-1.3-1.3Z"></path><path class="cls-5" d="M59.33,39.3h-.34l-.03,.23s.04,0,.07,0c.07,0,.14,.02,.19,.05,.07,.04,.13,.12,.13,.23,0,.17-.14,.3-.33,.3-.1,0-.18-.03-.22-.05l.03-.09s.11,.05,.19,.05c.11,0,.21-.07,.21-.19,0-.12-.08-.2-.26-.2-.05,0-.09,0-.12,0l.06-.43h.43v.1Z"></path><path class="cls-4" d="M59.1,37.43c-.82,0-1.48-.66-1.48-1.48s.66-1.48,1.48-1.48,1.48,.66,1.48,1.48-.66,1.48-1.48,1.48Zm0-2.9c-.79,0-1.43,.64-1.43,1.43s.64,1.43,1.43,1.43,1.43-.64,1.43-1.43-.64-1.43-1.43-1.43Z"></path><path class="cls-4" d="M59.1,37.27c-.73,0-1.32-.59-1.32-1.32s.59-1.32,1.32-1.32,1.32,.59,1.32,1.32-.59,1.32-1.32,1.32Zm0-2.61c-.72,0-1.3,.58-1.3,1.3s.58,1.3,1.3,1.3,1.3-.58,1.3-1.3-.58-1.3-1.3-1.3Z"></path><path class="cls-5" d="M59.17,36.38v-.24h-.42v-.08l.4-.57h.13v.55h.12v.09h-.12v.24h-.11Zm0-.34v-.3s0-.09,0-.14h0c-.03,.05-.05,.09-.07,.13l-.22,.3h.29Z"></path><path class="cls-4" d="M59.1,33.71c-.82,0-1.48-.66-1.48-1.48s.66-1.48,1.48-1.48,1.48,.66,1.48,1.48-.66,1.48-1.48,1.48Zm0-2.91c-.79,0-1.43,.64-1.43,1.43s.64,1.43,1.43,1.43,1.43-.64,1.43-1.43-.64-1.43-1.43-1.43Z"></path><path class="cls-4" d="M59.1,33.55c-.73,0-1.32-.59-1.32-1.32s.59-1.32,1.32-1.32,1.32,.59,1.32,1.32-.59,1.32-1.32,1.32Zm0-2.61c-.72,0-1.3,.58-1.3,1.3s.58,1.3,1.3,1.3,1.3-.58,1.3-1.3-.58-1.3-1.3-1.3Z"></path><path class="cls-5" d="M58.83,32.52s.11,.06,.2,.06c.16,0,.2-.1,.2-.17,0-.12-.11-.18-.23-.18h-.07v-.09h.07c.09,0,.2-.05,.2-.15,0-.07-.05-.13-.16-.13-.07,0-.14,.03-.18,.06l-.03-.09s.14-.07,.23-.07c.18,0,.26,.1,.26,.21,0,.09-.05,.17-.17,.21h0c.11,.02,.2,.11,.2,.23,0,.14-.11,.27-.33,.27-.1,0-.19-.03-.23-.06l.03-.09Z"></path><path class="cls-5" d="M62.26,32.33v-.68h.1l.22,.34c.05,.08,.09,.15,.12,.22h0c0-.09,0-.17,0-.28v-.28h.08v.68h-.09l-.21-.34c-.05-.08-.09-.15-.13-.23h0c0,.09,0,.17,0,.28v.29h-.08Z"></path><path class="cls-5" d="M63.36,32.08c0,.18-.12,.26-.24,.26-.13,0-.23-.1-.23-.25,0-.16,.11-.26,.24-.26s.23,.1,.23,.25Zm-.39,0c0,.11,.06,.19,.15,.19s.15-.08,.15-.19c0-.08-.04-.19-.15-.19s-.15,.1-.15,.19Z"></path><path class="cls-5" d="M63.47,31.97c0-.05,0-.09,0-.13h.08v.08h0s.07-.09,.15-.09c.07,0,.12,.04,.14,.1h0s.03-.05,.05-.06c.03-.02,.06-.03,.11-.03,.06,0,.16,.04,.16,.21v.29h-.09v-.28c0-.09-.03-.15-.11-.15-.05,0-.09,.04-.1,.08,0,.01,0,.03,0,.04v.3h-.09v-.29c0-.08-.03-.13-.1-.13-.06,0-.1,.04-.11,.09,0,.01,0,.03,0,.04v.29h-.09v-.36Z"></path><path class="cls-5" d="M64.41,31.71s-.02,.05-.06,.05c-.03,0-.05-.02-.05-.05s.02-.06,.06-.06,.05,.02,.05,.06Zm-.1,.62v-.49h.09v.49h-.09Z"></path><path class="cls-5" d="M64.54,31.97c0-.05,0-.09,0-.13h.08v.08h0s.08-.09,.16-.09c.07,0,.17,.04,.17,.21v.29h-.09v-.28c0-.08-.03-.14-.11-.14-.06,0-.1,.04-.12,.09,0,.01,0,.03,0,.04v.29h-.09v-.36Z"></path><path class="cls-5" d="M65.37,32.33v-.06h-.01s-.08,.07-.15,.07c-.1,0-.15-.07-.15-.14,0-.12,.1-.18,.29-.18h0s-.01-.12-.11-.12c-.05,0-.09,.01-.13,.04l-.02-.06s.1-.04,.16-.04c.15,0,.19,.1,.19,.2v.18s0,.08,0,.12h-.08Zm-.01-.25c-.1,0-.21,.02-.21,.11,0,.06,.04,.08,.08,.08,.06,0,.1-.04,.12-.08,0,0,0-.02,0-.03v-.08Z"></path><path class="cls-5" d="M65.69,31.7v.14h.13v.07h-.13v.26c0,.06,.02,.09,.07,.09,.02,0,.04,0,.05,0v.07s-.04,.01-.07,.01c-.04,0-.07-.01-.1-.04-.03-.03-.03-.07-.03-.13v-.27h-.08v-.07h.08v-.12l.09-.02Z"></path><path class="cls-5" d="M65.97,32.1c0,.12,.08,.17,.17,.17,.06,0,.1-.01,.13-.03l.02,.06s-.08,.03-.16,.03c-.15,0-.24-.1-.24-.25s.09-.26,.23-.26c.16,0,.2,.14,.2,.23,0,.02,0,.03,0,.04h-.34Zm.26-.06c0-.06-.02-.14-.12-.14-.09,0-.13,.08-.14,.14h.26Z"></path><path class="cls-5" d="M66.84,31.61v.59s0,.09,0,.13h-.08v-.08h0c-.03,.05-.09,.1-.17,.1-.12,0-.21-.1-.21-.25,0-.16,.1-.26,.22-.26,.07,0,.12,.04,.15,.07h0v-.29h.09Zm-.09,.43s0-.03,0-.04c-.01-.06-.06-.1-.13-.1-.09,0-.15,.08-.15,.19,0,.1,.05,.18,.14,.18,.06,0,.11-.04,.13-.11,0-.01,0-.02,0-.04v-.08Z"></path><path class="cls-5" d="M67.31,32.12l-.07,.21h-.09l.23-.68h.11l.23,.68h-.09l-.07-.21h-.24Zm.22-.07l-.07-.2s-.03-.08-.04-.12h0s-.02,.08-.03,.12l-.07,.2h.21Z"></path><path class="cls-5" d="M68.16,32.31s-.07,.03-.14,.03c-.15,0-.24-.1-.24-.25s.1-.26,.26-.26c.05,0,.1,.01,.12,.02l-.02,.07s-.05-.02-.1-.02c-.11,0-.17,.08-.17,.18,0,.11,.07,.18,.17,.18,.05,0,.08-.01,.11-.02v.07Z"></path><path class="cls-5" d="M68.61,32.31s-.07,.03-.14,.03c-.15,0-.24-.1-.24-.25s.1-.26,.26-.26c.05,0,.1,.01,.12,.02l-.02,.07s-.05-.02-.1-.02c-.11,0-.17,.08-.17,.18,0,.11,.07,.18,.17,.18,.05,0,.08-.01,.11-.02v.07Z"></path><path class="cls-5" d="M69.15,32.08c0,.18-.12,.26-.24,.26-.13,0-.23-.1-.23-.25,0-.16,.11-.26,.24-.26s.23,.1,.23,.25Zm-.39,0c0,.11,.06,.19,.15,.19s.15-.08,.15-.19c0-.08-.04-.19-.15-.19s-.15,.1-.15,.19Z"></path><path class="cls-5" d="M69.67,32.2s0,.09,0,.13h-.08v-.08h0s-.07,.09-.16,.09c-.08,0-.17-.04-.17-.21v-.29h.09v.27c0,.09,.03,.16,.11,.16,.06,0,.1-.04,.12-.08,0-.01,0-.03,0-.05v-.3h.09v.35Z"></path><path class="cls-5" d="M69.82,31.97c0-.05,0-.09,0-.13h.08v.08h0s.08-.09,.16-.09c.07,0,.17,.04,.17,.21v.29h-.09v-.28c0-.08-.03-.14-.11-.14-.06,0-.1,.04-.12,.09,0,.01,0,.03,0,.04v.29h-.09v-.36Z"></path><path class="cls-5" d="M70.48,31.7v.14h.13v.07h-.13v.26c0,.06,.02,.09,.07,.09,.02,0,.04,0,.05,0v.07s-.04,.01-.07,.01c-.04,0-.07-.01-.1-.04-.03-.03-.03-.07-.03-.13v-.27h-.08v-.07h.08v-.12l.09-.02Z"></path><path class="cls-5" d="M71.34,31.61v.59s0,.09,0,.13h-.08v-.08h0c-.03,.05-.09,.1-.17,.1-.12,0-.21-.1-.21-.25,0-.16,.1-.26,.22-.26,.07,0,.12,.04,.15,.07h0v-.29h.09Zm-.09,.43s0-.03,0-.04c-.01-.06-.06-.1-.13-.1-.09,0-.15,.08-.15,.19,0,.1,.05,.18,.14,.18,.06,0,.11-.04,.13-.11,0-.01,0-.02,0-.04v-.08Z"></path><path class="cls-5" d="M71.53,32.1c0,.12,.08,.17,.17,.17,.06,0,.1-.01,.13-.03l.02,.06s-.08,.03-.16,.03c-.15,0-.24-.1-.24-.25s.09-.26,.23-.26c.16,0,.2,.14,.2,.23,0,.02,0,.03,0,.04h-.34Zm.26-.06c0-.06-.02-.14-.12-.14-.09,0-.13,.08-.14,.14h.26Z"></path><path class="cls-5" d="M72.09,31.7v.14h.13v.07h-.13v.26c0,.06,.02,.09,.07,.09,.02,0,.04,0,.05,0v.07s-.04,.01-.07,.01c-.04,0-.07-.01-.1-.04-.03-.03-.03-.07-.03-.13v-.27h-.08v-.07h.08v-.12l.09-.02Z"></path><path class="cls-5" d="M72.59,32.33v-.06h-.01s-.08,.07-.15,.07c-.1,0-.15-.07-.15-.14,0-.12,.1-.18,.29-.18h0s-.01-.12-.11-.12c-.05,0-.09,.01-.13,.04l-.02-.06s.1-.04,.16-.04c.15,0,.19,.1,.19,.2v.18s0,.08,0,.12h-.08Zm-.01-.25c-.1,0-.21,.02-.21,.11,0,.06,.04,.08,.08,.08,.06,0,.1-.04,.12-.08,0,0,0-.02,0-.03v-.08Z"></path><path class="cls-5" d="M72.9,31.71s-.02,.05-.06,.05c-.03,0-.05-.02-.05-.05s.02-.06,.06-.06,.05,.02,.05,.06Zm-.1,.62v-.49h.09v.49h-.09Z"></path><path class="cls-5" d="M73.04,31.61h.09v.71h-.09v-.71Z"></path><path class="cls-5" d="M74.13,32.24s.07,.04,.12,.04c.06,0,.09-.03,.09-.07s-.02-.07-.09-.09c-.09-.03-.13-.08-.13-.14,0-.08,.06-.14,.17-.14,.05,0,.09,.01,.12,.03l-.02,.06s-.05-.03-.1-.03c-.05,0-.08,.03-.08,.07,0,.04,.03,.06,.09,.08,.08,.03,.13,.08,.13,.15,0,.08-.07,.15-.18,.15-.05,0-.1-.01-.14-.03l.02-.07Z"></path><path class="cls-5" d="M62.25,36.09s.1,.04,.16,.04c.09,0,.14-.05,.14-.12,0-.06-.04-.1-.13-.13-.11-.04-.18-.1-.18-.19,0-.11,.09-.18,.22-.18,.07,0,.12,.02,.15,.03l-.02,.07s-.07-.03-.13-.03c-.09,0-.13,.06-.13,.1,0,.06,.04,.09,.14,.13,.11,.04,.17,.1,.17,.2,0,.1-.08,.2-.24,.2-.07,0-.14-.02-.17-.04l.02-.07Z"></path><path class="cls-5" d="M63.14,36.06s0,.09,0,.13h-.08v-.08h0s-.07,.09-.16,.09c-.08,0-.17-.04-.17-.21v-.29h.09v.27c0,.09,.03,.16,.11,.16,.06,0,.1-.04,.12-.08,0-.01,0-.03,0-.05v-.3h.09v.35Z"></path><path class="cls-5" d="M63.29,35.84c0-.05,0-.09,0-.13h.08v.08h0s.07-.09,.15-.09c.07,0,.12,.04,.14,.1h0s.03-.05,.05-.06c.03-.02,.06-.03,.11-.03,.06,0,.16,.04,.16,.21v.29h-.09v-.28c0-.09-.03-.15-.11-.15-.05,0-.09,.04-.1,.08,0,.01,0,.03,0,.04v.3h-.09v-.29c0-.08-.03-.13-.1-.13-.06,0-.1,.04-.11,.09,0,.01,0,.03,0,.04v.29h-.09v-.36Z"></path><path class="cls-5" d="M64.12,35.84c0-.05,0-.09,0-.13h.08v.08h0s.07-.09,.15-.09c.07,0,.12,.04,.14,.1h0s.03-.05,.05-.06c.03-.02,.06-.03,.11-.03,.06,0,.16,.04,.16,.21v.29h-.09v-.28c0-.09-.03-.15-.11-.15-.05,0-.09,.04-.1,.08,0,.01,0,.03,0,.04v.3h-.09v-.29c0-.08-.03-.13-.1-.13-.06,0-.1,.04-.11,.09,0,.01,0,.03,0,.04v.29h-.09v-.36Z"></path><path class="cls-5" d="M65.23,36.19v-.06h-.01s-.08,.07-.15,.07c-.1,0-.15-.07-.15-.14,0-.12,.1-.18,.29-.18h0s-.01-.12-.11-.12c-.05,0-.09,.01-.13,.04l-.02-.06s.1-.04,.16-.04c.15,0,.19,.1,.19,.2v.18s0,.08,0,.12h-.08Zm-.01-.25c-.1,0-.21,.02-.21,.11,0,.06,.04,.08,.08,.08,.06,0,.1-.04,.12-.08,0,0,0-.02,0-.03v-.08Z"></path><path class="cls-5" d="M65.65,35.86c0-.06,0-.11,0-.15h.08v.1h0c.02-.07,.08-.11,.13-.11,0,0,.02,0,.03,0v.08s-.02,0-.03,0c-.06,0-.11,.05-.12,.11,0,.01,0,.03,0,.04v.26h-.09v-.33Z"></path><path class="cls-5" d="M66.03,35.71l.11,.29s.02,.07,.03,.1h0s.02-.07,.03-.1l.1-.29h.09l-.13,.35c-.06,.17-.11,.25-.17,.3-.04,.04-.09,.05-.11,.06l-.02-.07s.05-.02,.08-.04c.02-.02,.05-.05,.07-.1,0,0,0-.02,0-.02,0,0,0-.01,0-.02l-.18-.45h.1Z"></path><path class="cls-5" d="M62.41,40.06v-.29l-.21-.39h.1l.09,.19c.03,.05,.05,.09,.07,.14h0s.04-.09,.07-.14l.1-.19h.1l-.23,.39v.29h-.09Z"></path><path class="cls-5" d="M63.16,39.81c0,.18-.12,.26-.24,.26-.13,0-.23-.1-.23-.25,0-.16,.11-.26,.24-.26s.23,.1,.23,.25Zm-.39,0c0,.11,.06,.19,.15,.19s.15-.08,.15-.19c0-.08-.04-.19-.15-.19s-.15,.1-.15,.19Z"></path><path class="cls-5" d="M63.77,39.93s0,.09,0,.13h-.08v-.08h0s-.07,.09-.16,.09c-.08,0-.17-.04-.17-.21v-.29h.09v.27c0,.09,.03,.16,.11,.16,.06,0,.1-.04,.12-.08,0-.01,0-.03,0-.05v-.3h.09v.35Z"></path><path class="cls-5" d="M63.91,39.72c0-.06,0-.11,0-.15h.08v.1h0c.02-.07,.08-.11,.13-.11,0,0,.02,0,.03,0v.08s-.02,0-.03,0c-.06,0-.11,.05-.12,.11,0,.01,0,.03,0,.04v.26h-.09v-.33Z"></path><path class="cls-5" d="M64.73,40.06v-.06h-.01s-.08,.07-.15,.07c-.1,0-.15-.07-.15-.14,0-.12,.1-.18,.29-.18h0s-.01-.12-.11-.12c-.05,0-.09,.01-.13,.04l-.02-.06s.1-.04,.16-.04c.15,0,.19,.1,.19,.2v.18s0,.08,0,.12h-.08Zm-.01-.25c-.1,0-.21,.02-.21,.11,0,.06,.04,.08,.08,.08,.06,0,.1-.04,.12-.08,0,0,0-.02,0-.03v-.08Z"></path><path class="cls-5" d="M64.94,39.73c0-.06,0-.11,0-.16h.08v.08h0c.04-.06,.09-.09,.17-.09,.12,0,.21,.1,.21,.25,0,.18-.11,.26-.22,.26-.06,0-.12-.03-.15-.08h0v.26h-.09v-.53Zm.09,.13s0,.03,0,.04c.02,.06,.07,.1,.13,.1,.09,0,.15-.08,.15-.19,0-.1-.05-.18-.15-.18-.06,0-.12,.04-.13,.11,0,.01,0,.02,0,.04v.08Z"></path><path class="cls-5" d="M65.51,39.73c0-.06,0-.11,0-.16h.08v.08h0c.04-.06,.09-.09,.17-.09,.12,0,.21,.1,.21,.25,0,.18-.11,.26-.22,.26-.06,0-.12-.03-.15-.08h0v.26h-.09v-.53Zm.09,.13s0,.03,0,.04c.02,.06,.07,.1,.13,.1,.09,0,.15-.08,.15-.19,0-.1-.05-.18-.15-.18-.06,0-.12,.04-.13,.11,0,.01,0,.02,0,.04v.08Z"></path><path class="cls-5" d="M66.09,39.34h.09v.71h-.09v-.71Z"></path><path class="cls-5" d="M66.42,39.43s-.02,.05-.06,.05c-.03,0-.05-.02-.05-.05s.02-.06,.06-.06,.05,.02,.05,.06Zm-.1,.62v-.49h.09v.49h-.09Z"></path><path class="cls-5" d="M66.91,40.04s-.07,.03-.14,.03c-.15,0-.24-.1-.24-.25s.1-.26,.26-.26c.05,0,.1,.01,.12,.02l-.02,.07s-.05-.02-.1-.02c-.11,0-.17,.08-.17,.18,0,.11,.07,.18,.17,.18,.05,0,.08-.01,.11-.02v.07Z"></path><path class="cls-5" d="M67.28,40.06v-.06h-.01s-.08,.07-.15,.07c-.1,0-.15-.07-.15-.14,0-.12,.1-.18,.29-.18h0s-.01-.12-.11-.12c-.05,0-.09,.01-.13,.04l-.02-.06s.1-.04,.16-.04c.15,0,.19,.1,.19,.2v.18s0,.08,0,.12h-.08Zm-.01-.25c-.1,0-.21,.02-.21,.11,0,.06,.04,.08,.08,.08,.06,0,.1-.04,.12-.08,0,0,0-.02,0-.03v-.08Z"></path><path class="cls-5" d="M67.6,39.43v.14h.13v.07h-.13v.26c0,.06,.02,.09,.07,.09,.02,0,.04,0,.05,0v.07s-.04,.01-.07,.01c-.04,0-.07-.01-.1-.04-.03-.03-.03-.07-.03-.13v-.27h-.08v-.07h.08v-.12l.09-.02Z"></path><path class="cls-5" d="M67.93,39.43s-.02,.05-.06,.05c-.03,0-.05-.02-.05-.05s.02-.06,.06-.06,.05,.02,.05,.06Zm-.1,.62v-.49h.09v.49h-.09Z"></path><path class="cls-5" d="M68.5,39.81c0,.18-.12,.26-.24,.26-.13,0-.23-.1-.23-.25,0-.16,.11-.26,.24-.26s.23,.1,.23,.25Zm-.39,0c0,.11,.06,.19,.15,.19s.15-.08,.15-.19c0-.08-.04-.19-.15-.19s-.15,.1-.15,.19Z"></path><path class="cls-5" d="M68.62,39.7c0-.05,0-.09,0-.13h.08v.08h0s.08-.09,.16-.09c.07,0,.17,.04,.17,.21v.29h-.09v-.28c0-.08-.03-.14-.11-.14-.06,0-.1,.04-.12,.09,0,.01,0,.03,0,.04v.29h-.09v-.36Z"></path></svg> 