<svg xmlns="http://www.w3.org/2000/svg" width="191.43" height="76.72" viewBox="0 0 191.43 76.72"><defs><style>.cls-1{fill:#f8b100;}.cls-2{fill:#e83434;}.cls-3{fill:#006cb8;}.cls-4{fill:#7cbd27;}</style></defs><title>logo</title><g id="レイヤー_2" data-name="レイヤー 2"><g id="Logo"><path class="cls-1" d="M121.19,40.69c-8.7.29-14.1,1.85-14.1,7.58,0,3.71,3,7.73,10.46,7.73C127.62,56,133,50.51,133,41.52v-1C129.46,40.53,125.11,40.56,121.19,40.69Zm21.39,11.89c0,2.79.08,5.55.32,8H134a52.28,52.28,0,0,1-.32-6c-4.82,5.93-10.56,7.64-18.52,7.64C103.33,62.2,97,56,97,48.74c0-10.45,8.6-14.14,23.53-14.48,4.08-.09,8.67-.11,12.46-.11v-1c0-7-4.49-9.88-12.26-9.88-5.77,0-10,2.39-10.47,6.52H100.18c1.07-10.29,11.88-12.9,21.39-12.9,11.39,0,21,4.05,21,16.1Z"/><path class="cls-2" d="M38.22,35.58c-.37-9-6.85-12.33-13.77-12.33C17,23.25,11,27,10,35.58ZM9.77,42c.52,8.71,6.52,13.86,14.78,13.86,5.72,0,10.81-2.33,12.51-7.4H47C45,58.7,34.1,62.2,24.69,62.2,7.58,62.2,0,52.77,0,40.07c0-14,7.84-23.2,24.85-23.2C38.38,16.87,48.3,24,48.3,39.41V42Z"/><path class="cls-3" d="M72.9,55.64c8.92,0,15-6.42,15-16.1s-6.1-16.1-15-16.1-15,6.42-15,16.1S64,55.64,72.9,55.64ZM48.3,0h9.59V24.1c4.7-5.6,11.18-7.23,17.55-7.23C86.13,16.87,98,24.08,98,39.66c0,13-9.44,22.54-22.74,22.54-7,0-13.51-2.5-17.55-7.44a51.86,51.86,0,0,1-.33,5.85H48c.16-3,.33-6.84.33-9.91Z"/><path class="cls-4" d="M191.43,18.47,161.77,76.72H151l8.53-16.18L137.24,18.47h11.22l16.43,32.88,16.38-32.87Z"/></g></g></svg>