<svg xmlns="http://www.w3.org/2000/svg" xmlns:xlink="http://www.w3.org/1999/xlink" width="191.434" height="76.717" viewBox="0 0 191.434 76.717">
  <defs>
    <clipPath id="clip-path">
      <rect id="Rectangle_179" data-name="Rectangle 179" width="191.434" height="76.717" transform="translate(0 0)" fill="none"/>
    </clipPath>
  </defs>
  <g id="Group_193" data-name="Group 193" transform="translate(0 0)">
    <g id="Group_192" data-name="Group 192" clip-path="url(#clip-path)">
      <path id="Path_54" data-name="Path 54" d="M121.192,40.686c-8.7.285-14.1,1.855-14.1,7.584,0,3.709,2.957,7.731,10.465,7.731,10.064,0,15.437-5.487,15.437-14.485v-.99c-3.529,0-7.881.031-11.8.16m21.393,11.888c0,2.792.081,5.548.324,8.029h-8.923a52.269,52.269,0,0,1-.325-6.043C128.837,60.491,123.1,62.2,115.138,62.2c-11.807,0-18.129-6.241-18.129-13.459,0-10.455,8.6-14.141,23.525-14.483,4.082-.093,8.667-.107,12.458-.107V33.125c0-7-4.488-9.876-12.264-9.876-5.774,0-10.029,2.389-10.467,6.517H100.181c1.066-10.293,11.881-12.9,21.39-12.9,11.392,0,21.014,4.054,21.014,16.1Z" fill="#f5af02"/>
      <path id="Path_55" data-name="Path 55" d="M38.217,35.581c-.373-8.974-6.85-12.332-13.772-12.332-7.465,0-13.425,3.777-14.469,12.332ZM9.769,41.961c.518,8.707,6.522,13.856,14.778,13.856,5.721,0,10.808-2.331,12.513-7.4h9.894C45.029,58.7,34.1,62.2,24.689,62.2,7.581,62.2,0,52.774,0,40.068c0-13.986,7.843-23.2,24.846-23.2,13.534,0,23.451,7.083,23.451,22.542v2.549Z" fill="#e53238"/>
      <path id="Path_56" data-name="Path 56" d="M72.9,55.635c8.915,0,15.017-6.417,15.017-16.1s-6.1-16.1-15.017-16.1c-8.865,0-15.017,6.418-15.017,16.1s6.152,16.1,15.017,16.1M48.3,0h9.591V24.1c4.7-5.6,11.178-7.227,17.553-7.227C86.128,16.87,98,24.083,98,39.655,98,52.7,88.558,62.2,75.261,62.2c-6.96,0-13.511-2.5-17.552-7.443a51.647,51.647,0,0,1-.327,5.851H47.969c.164-3.046.327-6.838.327-9.907Z" fill="#0064d2"/>
      <path id="Path_57" data-name="Path 57" d="M191.434,18.465,161.773,76.717H151.032l8.528-16.175L137.238,18.465H148.46L164.886,51.34l16.38-32.875Z" fill="#86b817"/>
    </g>
  </g>
</svg>
