<?xml version="1.0" encoding="utf-8"?>
<!-- Generator: Adobe Illustrator 25.2.3, SVG Export Plug-In . SVG Version: 6.00 Build 0)  -->
<svg version="1.1" id="Layer_1" xmlns="http://www.w3.org/2000/svg" xmlns:xlink="http://www.w3.org/1999/xlink" x="0px" y="0px"
	 viewBox="0 0 527 86" style="enable-background:new 0 0 527 86;" xml:space="preserve">
<style type="text/css">
	.st0{fill:#D0D0D0;}
	.st1{fill-rule:evenodd;clip-rule:evenodd;fill:#FFFFFF;}
	.st2{fill-rule:evenodd;clip-rule:evenodd;fill:#0097D8;}
	.st3{fill:#0097D8;}
</style>
<g>
	<rect x="2.5" y="2.9" class="st0" width="255.9" height="59.8"/>
	<rect x="271.5" y="3.9" class="st1" width="252.8" height="57.7"/>
	<path class="st2" d="M508.1,21.8v-6.1h2.7c0.6,0,1,0.1,1.3,0.3c0.4,0.2,0.6,0.7,0.6,1.3c0,0.4,0,0.7-0.2,0.9
		c-0.1,0.2-0.3,0.4-0.6,0.6c0.3,0.2,0.5,0.4,0.6,0.5c0.1,0.2,0.1,0.5,0.1,1c0,0.4,0,0.7,0.1,0.8c0,0.2,0.1,0.3,0.3,0.4v0.2H512
		c-0.1-0.3-0.2-0.6-0.2-1c0-0.6,0-0.9-0.1-1c-0.1-0.4-0.4-0.5-0.9-0.5h-2v2.6H508.1z M510.8,16.4h-1.9v2.1h2c0.7,0,1-0.3,1.1-0.9
		l0-0.2C511.9,16.7,511.5,16.4,510.8,16.4z"/>
	<path class="st2" d="M376.1,23.7l-6.2,2.1c-0.6-1.4-1.3-2.3-2.1-2.9c-0.8-0.6-1.9-0.8-3.3-0.8c-2.9,0-4.3,1-4.3,2.9
		c0,0.8,0.3,1.5,1,2c0.7,0.4,1.8,0.8,3.5,1.1c4.1,0.8,6.9,1.7,8.5,2.9c2.5,1.8,3.8,4.2,3.8,7.3c0,3.2-1.2,5.7-3.5,7.6
		c-2.4,1.9-5.5,2.8-9.5,2.8c-6.8,0-11-2.9-12.7-8.7l6.8-1.6c0.8,3,3,4.4,6.4,4.4c3.3,0,4.9-1.1,4.9-3.4c0-0.9-0.4-1.6-1.2-2.1
		c-0.8-0.5-2.2-1-4.3-1.4c-4-0.8-6.9-2-8.6-3.4c-1.7-1.4-2.5-3.5-2.5-6.3c0-3,1-5.3,3.1-7.2c2.1-1.9,4.8-2.8,8.2-2.8
		c3.1,0,5.6,0.6,7.5,1.8C373.7,19.2,375.1,21.1,376.1,23.7z"/>
	<polygon class="st2" points="409.9,22.7 394.9,22.7 394.9,29.2 406.7,29.2 406.7,35.1 394.9,35.1 394.9,41.9 409.9,41.9 
		409.9,48.2 387.4,48.2 387.4,16.8 409.9,16.8 	"/>
	<path class="st2" d="M427.3,35.7v12.4h-7.4V16.8h13.8c3.7,0,6.4,0.7,8.1,2.1c2.2,1.8,3.3,4.2,3.3,7.3c0,3.8-1.8,6.5-5.4,8.1
		l5.8,13.8h-8.1l-4.8-12.4H427.3z M427.3,22.4v8h4.5c1.9,0,3.2-0.2,3.9-0.7c1.2-0.8,1.8-1.9,1.8-3.5c0-1.3-0.5-2.3-1.5-3
		c-0.5-0.3-1-0.6-1.5-0.7c-0.5-0.1-1.5-0.1-3-0.1H427.3z"/>
	<polygon class="st2" points="478.9,22.7 463.9,22.7 463.9,29.2 475.7,29.2 475.7,35.1 463.9,35.1 463.9,41.9 478.9,41.9 
		478.9,48.2 456.4,48.2 456.4,16.8 478.9,16.8 	"/>
	<polygon class="st2" points="496.3,41.9 508.8,41.9 508.8,48.2 488.9,48.2 488.9,16.8 496.3,16.8 	"/>
	<path class="st3" d="M526,2.9v59.8H270.1V2.9H526z M523.4,5.5H272.7v54.7h250.7V5.5z"/>
	<path class="st2" d="M87.2,12.7h36.3v6.9h-16.1l-6.2,12.7h6.2v6.9h-9.7l-3.6,7.1h13.3V53H67L87.2,12.7z M114.2,46.1h9.3V53h-9.3
		V46.1z M150.5,12.7h36.3v6.9h-16.1l-13.3,26.6h13.3V53h-40.3L150.5,12.7z M177.5,46.1h9.3V53h-9.3V46.1z M210,35.7
		c0,2.1,1.7,3.8,3.8,3.8c2.1,0,3.8-1.7,3.8-3.8c0-2.1-1.7-3.8-3.8-3.8C211.7,31.8,210,33.5,210,35.7z M213.9,12.7l16.7,33.5h10.3V53
		h-13.7l-3.5-6.9H204l-3.5,6.9h-6.9L213.9,12.7z M236.8,17.7c0,2.2,1.8,4,4,4c2.2,0,4-1.8,4-4c0-2.2-1.8-4-4-4
		C238.6,13.7,236.8,15.5,236.8,17.7z M235.8,17.7c0-2.8,2.3-5,5-5c2.8,0,5,2.3,5,5c0,2.8-2.3,5-5,5
		C238.1,22.8,235.8,20.5,235.8,17.7z M241.2,15.4h-1.9v2.1h2c0.7,0,1-0.3,1.1-0.9c0-0.1,0-0.1,0-0.2C242.3,15.7,242,15.4,241.2,15.4
		z M238.5,20.7v-6.1h2.7c0.6,0,1,0.1,1.3,0.3c0.4,0.2,0.6,0.7,0.6,1.3c0,0.4,0,0.7-0.2,0.9c-0.1,0.2-0.3,0.4-0.6,0.6
		c0.3,0.2,0.5,0.4,0.6,0.5c0.1,0.2,0.1,0.5,0.1,1c0,0.4,0,0.7,0.1,0.8c0,0.2,0.1,0.3,0.3,0.4v0.2h-0.9c-0.1-0.3-0.2-0.6-0.2-1
		c0-0.6,0-0.9-0.1-1c-0.1-0.4-0.4-0.5-0.9-0.5h-2v2.6H238.5z"/>
	<path class="st2" d="M506.4,18.7c0,2.2,1.8,4,4,4c2.2,0,4-1.8,4-4c0-2.2-1.8-4-4-4C508.2,14.7,506.4,16.5,506.4,18.7z M505.4,18.7
		c0-2.8,2.3-5,5-5c2.8,0,5,2.3,5,5c0,2.8-2.3,5-5,5C507.7,23.8,505.4,21.5,505.4,18.7z"/>
	<g>
		<polygon class="st2" points="128.8,76 128.8,83.2 127.5,83.2 127.5,76 125.3,76 125.3,74.9 131,74.9 131,76 		"/>
		<path class="st2" d="M147.7,79.1c0-0.4-0.1-0.8-0.2-1.2c-0.2-0.4-0.4-0.7-0.7-1c-0.3-0.3-0.6-0.5-1-0.7c-0.4-0.2-0.8-0.2-1.2-0.2
			c-0.4,0-0.8,0.1-1.2,0.2s-0.7,0.4-1,0.7c-0.3,0.3-0.5,0.6-0.7,1c-0.2,0.4-0.2,0.8-0.2,1.2c0,0.4,0.1,0.8,0.2,1.2
			c0.2,0.4,0.4,0.7,0.7,1c0.3,0.3,0.6,0.5,1,0.7c0.4,0.2,0.8,0.2,1.2,0.2c0.4,0,0.8-0.1,1.2-0.2c0.4-0.2,0.7-0.4,1-0.7
			c0.3-0.3,0.5-0.6,0.7-1C147.6,79.9,147.7,79.5,147.7,79.1z M149.1,79.1c0,0.6-0.1,1.1-0.3,1.7c-0.2,0.5-0.5,1-1,1.4
			c-0.4,0.4-0.9,0.7-1.4,0.9c-0.5,0.2-1.1,0.3-1.7,0.3c-0.6,0-1.2-0.1-1.7-0.3c-0.5-0.2-1-0.5-1.4-0.9c-0.4-0.4-0.7-0.9-1-1.4
			c-0.2-0.5-0.3-1.1-0.3-1.7c0-0.6,0.1-1.2,0.3-1.7c0.2-0.5,0.5-1,1-1.4c0.4-0.4,0.9-0.7,1.4-0.9c0.5-0.2,1.1-0.3,1.7-0.3
			c0.6,0,1.2,0.1,1.7,0.3c0.5,0.2,1,0.5,1.4,0.9c0.4,0.4,0.7,0.9,1,1.4C149,77.9,149.1,78.5,149.1,79.1z"/>
		<path class="st2" d="M164.1,78.9h3.3c0,0.1,0,0.1,0,0.2c0,0.3,0,0.4,0,0.5c0,1.2-0.3,2.1-1,2.7c-0.7,0.6-1.6,1-2.8,1
			c-0.7,0-1.3-0.1-1.8-0.3c-0.5-0.2-1-0.5-1.4-0.9c-0.4-0.4-0.7-0.9-0.9-1.4c-0.2-0.5-0.3-1.1-0.3-1.7c0-0.6,0.1-1.2,0.3-1.7
			c0.2-0.5,0.5-1,0.9-1.4c0.4-0.4,0.9-0.7,1.4-0.9c0.5-0.2,1.1-0.3,1.7-0.3c0.7,0,1.2,0.1,1.8,0.4c0.5,0.2,1,0.6,1.4,1.1l-1,0.7
			c-0.3-0.3-0.6-0.6-0.9-0.7c-0.4-0.2-0.7-0.2-1.2-0.2c-0.9,0-1.6,0.3-2.2,0.9c-0.6,0.6-0.9,1.3-0.9,2.2c0,0.9,0.3,1.7,0.9,2.3
			s1.3,0.9,2.2,0.9c0.8,0,1.4-0.2,1.8-0.5c0.4-0.4,0.7-0.8,0.7-1.5v-0.1h-2V78.9z"/>
		<polygon class="st2" points="177.7,83.2 177.7,74.9 182.4,74.9 182.4,76 179.1,76 179.1,78.1 182.4,78.1 182.4,79.3 179.1,79.3 
			179.1,82 182.4,82 182.4,83.2 		"/>
		<polygon class="st2" points="195.5,76 195.5,83.2 194.1,83.2 194.1,76 191.9,76 191.9,74.9 197.6,74.9 197.6,76 		"/>
		<polygon class="st2" points="207.6,83.2 207.6,74.9 208.9,74.9 208.9,78 213,78 213,74.9 214.3,74.9 214.3,83.2 213,83.2 
			213,79.2 208.9,79.2 208.9,83.2 		"/>
		<polygon class="st2" points="225.1,83.2 225.1,74.9 229.8,74.9 229.8,76 226.5,76 226.5,78.1 229.8,78.1 229.8,79.3 226.5,79.3 
			226.5,82 229.8,82 229.8,83.2 		"/>
		<path class="st2" d="M241.5,78.4h0.2c0.7,0,1.2-0.1,1.4-0.2c0.2-0.2,0.4-0.5,0.4-0.9c0-0.5-0.1-0.8-0.4-1
			c-0.3-0.2-0.7-0.3-1.4-0.3h-0.2V78.4z M241.4,79.5v3.7h-1.3v-8.3h1.9c0.6,0,1,0,1.3,0.1c0.3,0.1,0.6,0.2,0.8,0.4
			c0.3,0.2,0.5,0.5,0.6,0.8c0.1,0.3,0.2,0.7,0.2,1c0,0.7-0.2,1.2-0.5,1.6c-0.3,0.4-0.8,0.6-1.4,0.7l2.9,3.8h-1.5l-2.8-3.7H241.4z"/>
		<polygon class="st2" points="267.9,83.2 267.9,74.9 272.6,74.9 272.6,76 269.3,76 269.3,78.1 272.6,78.1 272.6,79.3 269.3,79.3 
			269.3,83.2 		"/>
		<path class="st2" d="M290,79.1c0-0.4-0.1-0.8-0.2-1.2c-0.2-0.4-0.4-0.7-0.7-1c-0.3-0.3-0.6-0.5-1-0.7c-0.4-0.2-0.8-0.2-1.2-0.2
			c-0.4,0-0.8,0.1-1.2,0.2c-0.4,0.2-0.7,0.4-1,0.7c-0.3,0.3-0.5,0.6-0.7,1c-0.2,0.4-0.2,0.8-0.2,1.2c0,0.4,0.1,0.8,0.2,1.2
			c0.2,0.4,0.4,0.7,0.7,1c0.3,0.3,0.6,0.5,1,0.7c0.4,0.2,0.8,0.2,1.2,0.2c0.4,0,0.8-0.1,1.2-0.2c0.4-0.2,0.7-0.4,1-0.7
			c0.3-0.3,0.5-0.6,0.7-1C289.9,79.9,290,79.5,290,79.1z M291.4,79.1c0,0.6-0.1,1.1-0.3,1.7c-0.2,0.5-0.5,1-1,1.4
			c-0.4,0.4-0.9,0.7-1.4,0.9c-0.5,0.2-1.1,0.3-1.7,0.3c-0.6,0-1.2-0.1-1.7-0.3c-0.5-0.2-1-0.5-1.4-0.9c-0.4-0.4-0.7-0.9-1-1.4
			c-0.2-0.5-0.3-1.1-0.3-1.7c0-0.6,0.1-1.2,0.3-1.7c0.2-0.5,0.5-1,1-1.4c0.4-0.4,0.9-0.7,1.4-0.9c0.5-0.2,1.1-0.3,1.7-0.3
			c0.6,0,1.2,0.1,1.7,0.3c0.5,0.2,1,0.5,1.4,0.9c0.4,0.4,0.7,0.9,1,1.4C291.3,77.9,291.4,78.5,291.4,79.1z"/>
		<path class="st2" d="M303.2,78.4h0.2c0.7,0,1.2-0.1,1.4-0.2c0.2-0.2,0.3-0.5,0.3-0.9c0-0.5-0.1-0.8-0.4-1
			c-0.3-0.2-0.7-0.3-1.4-0.3h-0.2V78.4z M303.1,79.5v3.7h-1.3v-8.3h1.9c0.6,0,1,0,1.3,0.1c0.3,0.1,0.6,0.2,0.8,0.4
			c0.3,0.2,0.5,0.5,0.6,0.8c0.1,0.3,0.2,0.7,0.2,1c0,0.7-0.2,1.2-0.5,1.6c-0.3,0.4-0.8,0.6-1.4,0.7l2.9,3.8H306l-2.8-3.7H303.1z"/>
		<path class="st2" d="M331.4,83.2v-3.8l-2.8-4.5h1.4l1.7,2.8c0,0.1,0.1,0.2,0.2,0.3c0.1,0.1,0.1,0.2,0.2,0.4
			c0.1-0.1,0.1-0.3,0.2-0.4c0.1-0.1,0.1-0.2,0.2-0.3l1.8-2.8h1.3l-2.9,4.5v3.8H331.4z"/>
		<polygon class="st2" points="345.4,83.2 345.4,74.9 350,74.9 350,76 346.7,76 346.7,78.1 350,78.1 350,79.3 346.7,79.3 346.7,82 
			350,82 350,83.2 		"/>
		<path class="st2" d="M362.2,79.9h2.3l-0.8-1.9c-0.1-0.1-0.1-0.3-0.2-0.4c-0.1-0.2-0.1-0.3-0.2-0.5c0,0.2-0.1,0.3-0.1,0.5
			c-0.1,0.2-0.1,0.3-0.2,0.4L362.2,79.9z M365.9,83.2l-0.9-2.1h-3.3l-1,2.1h-1.4l4-8.6l4,8.6H365.9z"/>
		<path class="st2" d="M378.3,78.4h0.2c0.7,0,1.2-0.1,1.4-0.2c0.2-0.2,0.4-0.5,0.4-0.9c0-0.5-0.1-0.8-0.4-1
			c-0.2-0.2-0.7-0.3-1.4-0.3h-0.2V78.4z M378.2,79.5v3.7H377v-8.3h1.9c0.6,0,1,0,1.3,0.1c0.3,0.1,0.6,0.2,0.8,0.4
			c0.3,0.2,0.5,0.5,0.6,0.8c0.1,0.3,0.2,0.7,0.2,1c0,0.7-0.2,1.2-0.5,1.6c-0.3,0.4-0.8,0.6-1.4,0.7l2.9,3.8h-1.5l-2.8-3.7H378.2z"/>
		<path class="st2" d="M391.9,81.5L393,81c0.1,0.4,0.3,0.7,0.6,0.8c0.3,0.2,0.6,0.3,1,0.3c0.4,0,0.7-0.1,1-0.3
			c0.2-0.2,0.4-0.5,0.4-0.9c0-0.5-0.4-0.9-1.2-1.3c-0.1-0.1-0.2-0.1-0.3-0.1c-0.9-0.4-1.5-0.8-1.8-1.2c-0.3-0.4-0.5-0.8-0.5-1.3
			c0-0.7,0.2-1.2,0.7-1.6c0.5-0.4,1.1-0.6,1.8-0.6c0.6,0,1.1,0.1,1.5,0.4c0.4,0.2,0.7,0.6,0.9,1l-1.1,0.5c-0.2-0.3-0.3-0.5-0.5-0.6
			c-0.2-0.1-0.4-0.2-0.7-0.2c-0.4,0-0.7,0.1-0.9,0.3c-0.2,0.2-0.3,0.4-0.3,0.8c0,0.5,0.5,1,1.4,1.4c0.1,0,0.1,0.1,0.2,0.1
			c0.8,0.4,1.4,0.7,1.7,1.1c0.3,0.4,0.5,0.8,0.5,1.3c0,0.8-0.2,1.4-0.7,1.9c-0.5,0.5-1.2,0.7-2,0.7c-0.7,0-1.3-0.2-1.7-0.5
			C392.3,82.6,392,82.1,391.9,81.5z"/>
	</g>
</g>
</svg>
