<?xml version="1.0" encoding="utf-8"?>
<!-- Generator: Adobe Illustrator 15.1.0, SVG Export Plug-In . SVG Version: 6.00 Build 0)  -->
<!DOCTYPE svg PUBLIC "-//W3C//DTD SVG 1.1//EN" "http://www.w3.org/Graphics/SVG/1.1/DTD/svg11.dtd">
<svg version="1.1" id="Logo" xmlns="http://www.w3.org/2000/svg" xmlns:xlink="http://www.w3.org/1999/xlink" x="0px" y="0px"
	 width="454.192px" height="146.546px" viewBox="2.073 245.225 454.192 146.546"
	 enable-background="new 2.073 245.225 454.192 146.546" xml:space="preserve">
<g>
	<path fill-rule="evenodd" clip-rule="evenodd" fill="#00AAFF" d="M436.181,304.448c-55.479-36.897-127.84-59.223-207.01-59.223
		S77.636,267.55,22.156,304.448c55.178-18.278,119.685-29.611,207.015-29.611C316.497,274.836,381.009,286.169,436.181,304.448"/>
	<path fill="#00AAFF" d="M197.426,323.63c-4.067,0-6.154,3.285-6.697,7.307c-0.594,4.436-2.937,19.836-3.456,23.744
		c-0.312,2.344-0.485,4.791-2.766,5.797c-2.279,1.004-5.055-0.535-7.418-2.539c-2.372-2.012-37.417-31.738-37.417-31.738
		c-2.011-1.754-4.542-2.57-6.956-2.57c-5.29,0-10.373,3.268-10.373,11.268v49.572c0,3.865,2.733,6.33,6,6.33
		c3.604,0,5.944-2.381,6.456-5.871c0,0,3.853-23.627,4.327-26.262c0.546-3.061,1.03-5.465,3.996-6.383
		c2.688-0.828,5.223,0.727,9.009,4.021c3.728,3.246,35.288,31.643,35.288,31.643c2.416,2.031,4.176,2.852,7.594,2.852
		c3.099,0,8.729-1.262,8.729-10.705v-49.381C203.742,326.13,200.896,323.63,197.426,323.63"/>
	<path fill="#00AAFF" d="M423.183,376.454c-27.502,5.898-58.969-0.404-58.969-19.781c0-14.652,13.637-20.613,24.381-21.479
		c11.268-0.893,20.076,1.467,24.615,6.156c2.83,2.928,2.043,6.924-3.518,7.25c-5.125,0.309-14.732,0.605-22.729,0.91
		c-4.537,0.17-6.967,2.59-6.967,5.844c0,2.58,1.953,5.537,7.172,5.563c7.488,0.037,26.496,0.148,35.932,0.178
		c6.232,0.016,9.305-3.461,9.305-10.602c0-11.311-10.289-28.479-40.402-28.479c-27.285,0-47.023,13.539-47.023,35.67
		c0,31.389,46.361,40.967,80.328,29.299c3.223-1.098,6.137-3.402,5.205-6.982C429.693,376.818,427.087,375.607,423.183,376.454"/>
	<path fill="#00AAFF" d="M104.145,376.454c-27.498,5.898-58.965-0.404-58.965-19.781c0-14.652,13.633-20.613,24.38-21.479
		c11.265-0.893,20.073,1.467,24.612,6.156c2.835,2.928,2.043,6.924-3.515,7.25c-5.126,0.309-14.732,0.605-22.729,0.91
		c-4.542,0.17-6.97,2.59-6.97,5.844c0,2.58,1.952,5.537,7.169,5.563c7.492,0.037,26.505,0.148,35.94,0.178
		c6.227,0.016,9.301-3.461,9.301-10.602c0-11.311-10.292-28.479-40.403-28.479c-27.281,0-47.023,13.539-47.023,35.67
		c0,31.389,46.363,40.967,80.33,29.299c3.219-1.098,6.136-3.402,5.201-6.982C110.655,376.818,108.053,375.607,104.145,376.454"/>
	<path fill="#00AAFF" d="M317.14,346.281c0.6,17.111,2.223,31.303,2.672,36.271c0.588,6.424,3.918,8.252,7.264,8.252
		c3.207,0,6.605-1.674,7.197-8.189c0.494-5.488,2.123-22.418,2.918-39.166c0.045-0.869-0.568-1.242-1.264-1.119l-17.902,2.889
		C317.501,345.333,317.122,345.761,317.14,346.281"/>
	<path fill="#00AAFF" d="M327.124,322.015c-8.211,0-10.607,6.414-10.512,10.344c0.018,0.729,0.096,2.75,0.209,5.264
		c0.021,0.572,0.539,1.109,1.232,1.023l18.676-3.02c0.596-0.119,0.881-0.555,0.908-1.027c0.045-0.871,0.07-1.771,0.084-2.191
		C337.829,328.615,335.382,322.015,327.124,322.015"/>
	<path fill="#00AAFF" d="M299.667,349.302c-6.229,0-25.445,0.146-37.746,0.18c-5.969,0.018-7.457,3.203-7.457,5.852
		c0,2.299,1.6,5.273,7.168,5.559c8.479,0.445,19.268,0.945,24.248,1.199c6.707,0.344,6.795,3.779,4.531,6.723
		c-4.553,5.898-15.631,9.766-27.119,9.766c-15.021,0-31.549-8.514-31.549-22.01c0-12.656,14.146-26.604,56.176-20.715
		c3.689,0.514,7.332-0.146,8.236-3.549c0.967-3.621-1.396-5.951-6.172-7.207c-9.518-2.494-18.199-3.084-26.498-3.084
		c-28.289,0-50.969,13.459-50.969,35.193c0,23.207,22.6,34.563,50.771,34.563c31.463,0,46.785-17.059,46.785-31.971
		C310.073,352.198,306.197,349.302,299.667,349.302"/>
</g>
</svg>
