<?xml version="1.0" encoding="utf-8"?>
<!-- Generator: Adobe Illustrator 28.1.0, SVG Export Plug-In . SVG Version: 6.00 Build 0)  -->
<svg version="1.1" id="Layer_1" xmlns="http://www.w3.org/2000/svg" xmlns:xlink="http://www.w3.org/1999/xlink" x="0px" y="0px"
	 viewBox="0 0 312 191.2" style="enable-background:new 0 0 312 191.2;" xml:space="preserve">
<style type="text/css">
	.st0{fill:#E91419;}
</style>
<g>
	<g>
		<path class="st0" d="M118.2,83c-5.5,0-9.1,3.6-10.2,8.4h19.7C127.2,86.2,123.5,83,118.2,83z"/>
		<path class="st0" d="M65.5,85.1C58.4,85.1,54,90,54,96.8c0,6.7,4.5,11.8,11.5,11.8s11.7-4.8,11.7-11.8
			C77.2,89.8,72.5,85.1,65.5,85.1z"/>
		<path class="st0" d="M208,74c-10.6,0-18.9,4.2-20.2,15.2c-0.1,0,0.1,0,0,0C184.4,39.4,145.1,0,94.5,0c-40,0-74.3,24.6-88.5,59.5
			h33.9l-1.8,11.4H11.5V83h24.1l-1.8,11H11.5v7.1c0,4.3,1.8,6.3,5.4,6.3h22.8l-1.8,11.4H12.5c-1.2,0-2.4-0.1-3.5-0.3v0
			c0,0-4.4-0.5-7.1-4c-0.1-0.1-1.2-1.4-1.7-3.5c-0.1-0.6-0.2-0.6-0.3-1c0.2,1.4,0.5,3.3,0.6,4c0.8,4,1.7,7.4,1.8,7.6
			c11.3,40.2,48.2,69.6,92,69.6c44.8,0,82.6-30.8,93-72.4h-12.9V95.5c0-6.3-2.4-10.3-8.7-10.3c-6.2,0-8.7,4-8.7,10.3v23.4h-12.9
			V92.3c0-12.7,9.2-18.3,21.5-18.3c12.3,0,21.5,5.6,21.5,18.3l0,26.6h12.9V95.5c0-6.3,1.7-10.3,7.8-10.3c1.9,0,4.3,0.6,5.1,1
			l2.4-11.3C214.4,74.7,210.8,74,208,74z M90.1,94.2c0,16-9.5,25.5-25.2,25.5c-14.5,0-24.4-9.7-24.4-22.9c0-13.7,9.3-22.9,23.3-22.9
			c6.4,0,11.1,2.5,13.4,5V59.5h12.9V94.2z M122.5,110c3.8,0,7.3-1.1,10.6-2.6l-1.1,10.2c-3.7,1.5-8.2,2.1-12.6,2.1
			c-14.8,0-25.2-8.7-25.2-23.4c0-12.8,9.3-22.4,23.6-22.4c16.1,0,24.2,10.3,23.9,26h-33.3C109.7,107.2,116.6,110,122.5,110z"/>
		<path class="st0" d="M237.1,74c-14.3,0-23.6,9.6-23.6,22.4c0,14.7,10.4,23.4,25.2,23.4c4.5,0,8.9-0.6,12.6-2.1l1.1-10.2
			c-3.3,1.5-6.8,2.6-10.6,2.6c-6,0-12.9-2.8-14.1-10H261C261.3,84.2,253.3,74,237.1,74z M227.4,91.4c1.1-4.8,4.6-8.4,10.2-8.4
			c5.2,0,8.9,3.1,9.6,8.4H227.4z"/>
		<path class="st0" d="M299.1,59.5V79c-2.4-2.5-7.1-5-13.4-5c-13.9,0-23.3,9.2-23.3,22.9c0,13.1,9.8,22.9,24.4,22.9
			c15.7,0,25.2-9.4,25.2-25.5V59.5H299.1z M287.4,108.6c-7,0-11.5-5-11.5-11.8c0-6.8,4.5-11.7,11.5-11.7c7,0,11.7,4.7,11.7,11.7
			C299.1,103.8,294.4,108.6,287.4,108.6z"/>
	</g>
</g>
</svg>
