<svg xmlns="http://www.w3.org/2000/svg" width="160" height="98" viewBox="0 0 160 98" fill="none">
  <path fill-rule="evenodd" clip-rule="evenodd" d="M106.579 37.904C101.148 37.904 96.9165 40.0744 96.2263 45.7059C96.2048 45.7072 96.2076 45.7069 96.2139 45.7065C96.2226 45.7058 96.2381 45.7048 96.209 45.7068C94.5014 20.1801 74.3626 0 48.4072 0C27.894 0 10.335 12.6101 3.03267 30.4979H20.4238L19.5199 36.3541H5.86971V42.5548H18.2276L17.2807 48.1956H5.86971V51.8126C5.86971 54.0084 6.81708 55.0422 8.6258 55.0422H20.2952L19.3475 60.898H6.42962C5.80015 60.898 5.20188 60.8406 4.6327 60.7373V60.7415C4.6327 60.7415 2.39519 60.4978 1.01145 58.6975L1.00906 58.6946C0.95681 58.6312 0.40853 57.9653 0.13576 56.8825C0.0664508 56.6069 0.0587625 56.5773 0.00742159 56.3802L0.00737331 56.38L0 56.3517C0.0914903 57.0815 0.247909 58.0588 0.317897 58.4227C0.709577 60.465 1.21003 62.1953 1.25388 62.3171C7.0574 82.9045 25.963 98 48.4072 98C71.3654 98 90.7584 82.2093 96.0758 60.898H102.704V48.9275C102.704 45.6979 103.565 43.6307 106.708 43.6307C107.698 43.6307 108.905 43.9322 109.335 44.1481L110.583 38.3774C110.383 38.3539 110.099 38.3079 109.764 38.2533C108.872 38.1085 107.612 37.904 106.579 37.904ZM96.0758 60.898H89.4901V48.9275C89.4901 45.6979 88.2409 43.6307 85.0543 43.6307C81.8682 43.6307 80.6194 45.6979 80.6194 48.9275V60.898H74.0312V47.2912C74.0312 40.7891 78.7676 37.904 85.0543 37.904C91.3414 37.904 96.0783 40.7891 96.0783 47.2912L96.0758 60.898ZM46.1728 48.282C46.1728 56.5056 41.3069 61.3289 33.2549 61.3289C25.8059 61.3289 20.7676 56.3336 20.7676 49.6169C20.7676 42.5974 25.5474 37.904 32.695 37.904C35.9676 37.904 38.3788 39.1958 39.5846 40.4877V30.4979H46.1728V48.282ZM27.6582 49.6168C27.6582 46.1284 29.9404 43.6307 33.5574 43.6307C37.131 43.6307 39.5427 46.0424 39.5427 49.6168C39.5427 53.1904 37.131 55.6442 33.5574 55.6442C29.9834 55.6442 27.6582 53.0614 27.6582 49.6168ZM62.7924 56.377C64.7305 56.377 66.5258 55.8175 68.2055 55.0421L67.6586 60.252C65.7639 61.0274 63.4817 61.3288 61.1995 61.3288C53.6206 61.3288 48.2812 56.8934 48.2812 49.3579C48.2812 42.8132 53.0611 37.9039 60.3816 37.9039C68.6494 37.9039 72.7829 43.1572 72.6105 51.2527H55.5587C56.2046 54.9561 59.7357 56.377 62.7924 56.377ZM55.3867 46.8608C55.9462 44.4061 57.7549 42.5548 60.5966 42.5548C63.2663 42.5548 65.1614 44.1481 65.5055 46.8608H55.3867ZM121.52 37.9039C114.2 37.9039 109.42 42.8132 109.42 49.3579C109.42 56.8934 114.759 61.3288 122.339 61.3288C124.62 61.3288 126.903 61.0274 128.797 60.252L129.344 55.0421C127.665 55.8171 125.869 56.377 123.931 56.377C120.874 56.377 117.343 54.9557 116.697 51.2527H133.749C133.921 43.1572 129.788 37.9039 121.52 37.9039ZM153.298 40.4877V30.4979H159.885V48.282C159.885 56.5056 155.02 61.3289 146.968 61.3289C139.518 61.3289 134.48 56.3336 134.48 49.6164C134.48 42.5974 139.26 37.904 146.408 37.904C149.68 37.904 152.092 39.1958 153.298 40.4877ZM147.269 55.6442C143.695 55.6442 141.369 53.0614 141.369 49.6164C141.369 46.1284 143.652 43.6307 147.269 43.6307C150.843 43.6307 153.254 46.0424 153.254 49.6164C153.254 53.19 150.843 55.6442 147.269 55.6442ZM121.735 42.5548C118.894 42.5548 117.085 44.4061 116.525 46.8608H126.644C126.3 44.1481 124.405 42.5548 121.735 42.5548Z" fill="#D52B1E"/>
</svg>