<svg xmlns="http://www.w3.org/2000/svg" width="80" height="50" fill="none" viewBox="0 0 80 50"><path fill="#F72717" fill-rule="evenodd" d="M33.998 30.513l.267-2.55c-.82.377-1.7.652-2.643.652-1.494 0-3.216-.698-3.533-2.51h8.327c.085-3.964-1.935-6.54-5.975-6.54-3.575 0-5.905 2.406-5.905 5.612 0 3.69 2.608 5.864 6.308 5.864 1.114 0 2.229-.147 3.154-.528zm-16.802.528c3.931 0 6.307-2.364 6.307-6.392v-8.71h-3.215v4.894c-.589-.632-1.769-1.269-3.363-1.269-3.49 0-5.828 2.302-5.828 5.74 0 3.292 2.461 5.737 6.099 5.737zm30.744-7.654c.027 0-.016.004.007 0 .34-2.76 2.403-3.823 5.054-3.823.503 0 1.114.102 1.55.174.167.028.308.051.408.063l-.611 2.826c-.21-.11-.797-.253-1.281-.253-1.533 0-1.958 1.01-1.958 2.593v5.86h-3.235v-6.663c0-3.183-2.31-4.6-5.379-4.6-3.072 0-5.386 1.417-5.386 4.6v6.664h3.22v-5.861c0-1.584.607-2.593 2.166-2.593 1.552 0 2.163 1.01 2.163 2.593v5.86h3.216C45.277 41.27 35.808 49 24.598 49 13.64 49 4.407 41.61 1.57 31.526c-.019-.062-.267-.908-.456-1.91-.035-.178-.112-.655-.155-1.012l.028.11c.01.035.02.072.038.146.135.543.41.873.425.889.678.885 1.769 1.005 1.769 1.005v-.004c.278.05.573.078.878.078h6.311l.461-2.865h-5.7c-.882 0-1.347-.508-1.347-1.583v-1.774H9.4l.46-2.763H3.822v-3.036h6.668l.44-2.868H2.438C6.005 7.18 14.58 1 24.598 1c12.673 0 22.506 9.886 23.342 22.387zm25.004-1c-1.707 0-2.785 1.215-2.785 2.911 0 1.677 1.097 2.934 2.785 2.934 1.688 0 2.83-1.195 2.83-2.934 0-1.734-1.142-2.91-2.83-2.91zm2.9-1.53V16h3.115v8.65c0 4.002-2.298 6.35-6.105 6.35-3.518 0-5.895-2.433-5.895-5.702 0-3.411 2.253-5.697 5.633-5.697 1.546 0 2.684.628 3.253 1.256zm-17.38 3.348c.274-1.154 1.169-2.02 2.568-2.02 1.317 0 2.25.747 2.419 2.02h-4.987zm-3.505 1.172c0 3.54 2.63 5.623 6.37 5.623 1.125 0 2.255-.141 3.185-.506l.27-2.445c-.829.361-1.712.625-2.666.625-1.508 0-3.251-.67-3.572-2.407h8.41c.086-3.8-1.954-6.267-6.03-6.267-3.61 0-5.967 2.303-5.967 5.377zm-24.358-3.533c1.304 0 2.23.78 2.396 2.108h-4.938c.27-1.2 1.157-2.108 2.542-2.108zm-16.642 3.46c0 1.688 1.134 2.953 2.879 2.953s2.921-1.203 2.921-2.954c0-1.75-1.176-2.93-2.921-2.93-1.768 0-2.879 1.222-2.879 2.93z" clip-rule="evenodd"></path></svg>