<svg id="Logo" xmlns="http://www.w3.org/2000/svg" viewBox="0 0 168.43 72">
  <defs>
    <style>
      .cls-1, .cls-2 {
        fill: #fff;
      }

      .cls-1 {
        fill-rule: evenodd;
      }
    </style>
  </defs>
  <g>
    <path class="cls-1" d="M19.05,11c.21-1.77-.05-4.36,1.35-5.58.41-1.89,3.38-1.45,2.92-2.65-.29-.75-1.69-.39-2.25-.26A56.93,56.93,0,0,1,15,4.12l-2-.55c-2.56.34-4,2.38-5.46,4C6.34,8.92,4.73,12.24,6,14.23c-.07.44-.14.87-.22,1.31L8.7,19.79c1,.72,1.14,1.25,2.22,2l.67,1a5.71,5.71,0,0,0,3.93.21c4.19.39,3.74-8.1,5.07-9.89A3.6,3.6,0,0,0,19.05,11ZM1,36.54a19.15,19.15,0,0,0,3.2-.75c1.27-.63,5.62-3.68,4.24-6.15C8,24.42,1.68,28.83-1,27c-2.72-.35-5.77-5.48-6.58-7.68a3.46,3.46,0,0,0-.63-1.26c0-.08-.27.24-.27.16-.79.93-.66,1.73-.78,4l-1.07-.07a2.53,2.53,0,0,1-.53,1.68l-.24.41c-.67-.22-.34.1-.61-.47-2.5.13-2.31,2.64-3.46,4.07C-15.12,32.52-5.84,38.3,1,36.54ZM31.8,22.3a18.58,18.58,0,0,0-8.06,3,5.6,5.6,0,0,0-1.61,1.56,2.6,2.6,0,0,0-.27,1.74,2.82,2.82,0,0,0,1,1.92c5-.36,13.61-.68,15.29,3.5.09.58.22.93.23,1.07,1.65-.41.45-.26,2.87.12a10.76,10.76,0,0,0,2.83-.44,1.2,1.2,0,0,0,.65-.48,2.82,2.82,0,0,1-.06-.61,2.38,2.38,0,0,0,1.2-.2c2.3-.38,1.09-1.46,2.18-2.68C47.44,23,39.43,21.14,31.8,22.3Zm-8.88,17c-1.15.88-1.64.66-2.31,2-.07,0,.1.2,0,.2.69,1.38,2.26,1.93,3.42,2.89.37.31,1.34,2,1.81,2.13.52.62.86,2.34,1.2,2.34.36.49,0,1.63.32,2.07,0,2-.26,2.19-.62,2.58,0,.14.2.51.2.65s.91.68,1.27.61c1.11,0,5.67,3.59,6,4.28,3.27.24,3-.76,5.28-1.71.61-.27,1.1,0,1.5-.43s.45-1.28.85-1.71C42,47.17,31,39.56,22.92,39.28ZM10.05,41.12c-.46.48-1.7.66-2.05,1.21A23.57,23.57,0,0,1,5.27,46c-3.09,2.94-9.72,4.41-13,1.6-.21,0-.08.14.17.94.24,1.53,1.46,5.09,1,6,.3,1,.6.64,1.16,1.2.38.38.53,1.37,1,1.64l1.49-.11c.09.28.19.56.28.84L-.73,58c.36.08,1.45.64,1.77.72l2.13-.14c1.62.43,3-.25,4.41-1.18.77-.51,1.61-.43,2.28-1a15.69,15.69,0,0,0,3-3.63c1.54-2.8,1-9.5-.38-11.15C11.89,41,11.25,41,10.05,41.12Z" transform="translate(15.17 -2.35)"/>
    <g>
      <path class="cls-2" d="M88.49,22.85c6.73,0,11.28,4.25,11.28,11.86,0,9.57-6.25,12.39-12.8,12.39H78.2c0-.53,0-1.94,0-3.71V26.57c0-1.77,0-2.9,0-3.72Zm-2,19.65c3.72,0,6.74-1.23,6.74-7.79,0-5.58-3-7.43-6.74-7.43H84.58V42.5Z" transform="translate(15.17 -2.35)"/>
      <path class="cls-2" d="M109.3,43.39c0,1.77.09,3.71.09,3.71h-6.5s0-1.94,0-3.71V26.57c0-1.77,0-3.72,0-3.72h15.37v4.69s-3.44-.08-4.6-.08H109.3v4.88l4.36,0c.81,0,3.62,0,3.62,0v4.47s-2.49-.07-3.62-.07l-4.36,0Z" transform="translate(15.17 -2.35)"/>
      <path class="cls-2" d="M65.22,42.2a5.11,5.11,0,0,1-5.41-5.27v-.28s5.68-.13,7.61-.13c3.28,0,4.63,0,7.21-.07V34.62c0-8.27-3.51-12.29-10.72-12.29-3.33,0-11.07,1.25-11.07,12.83,0,7.72,3.9,12.33,10.71,12.33,5.35,0,8.64-1.36,11-3.1-.27-.4-2.27-4-2.52-4.37A11.33,11.33,0,0,1,65.22,42.2ZM59.81,32c.09-1.41.6-4.67,4.14-4.67s3.83,3.07,3.83,4.68v.33s-2.42.07-3.87.07-4.12-.07-4.12-.07Z" transform="translate(15.17 -2.35)"/>
    </g>
    <g>
      <path class="cls-2" d="M54,64.77c0-.87-.07-1.74-.09-2.59h1.9l.07,1.88h0A3.23,3.23,0,0,1,59.32,62v2a3.61,3.61,0,0,0-.75-.07C57,63.9,56,65.21,56,67.83v6.35H54Z" transform="translate(15.17 -2.35)"/>
      <path class="cls-2" d="M62.43,68.77c0,2.78,1.08,4.07,3.27,4.07a5.11,5.11,0,0,0,2.76-1l.09,1.79a8.09,8.09,0,0,1-3.37.71c-3.17,0-4.82-2.4-4.82-6.17S62,62,65,62c2.7,0,4.21,2.17,4.21,5.7v1.06Zm4.8-1.51q0-3.74-2.35-3.74c-1.27,0-2.4.94-2.45,3.74Z" transform="translate(15.17 -2.35)"/>
      <path class="cls-2" d="M71.4,64.77c0-.87-.07-1.74-.1-2.59h1.91L73.28,64h0a3.08,3.08,0,0,1,3-2c2.1,0,3.51,1.2,3.51,3.84v8.33h-2V66.44c0-1.91-.7-2.73-2-2.73-1.56,0-2.55,1.08-2.55,3.25v7.22h-2Z" transform="translate(15.17 -2.35)"/>
      <path class="cls-2" d="M84.22,68.77c0,2.78,1.09,4.07,3.28,4.07a5.08,5.08,0,0,0,2.75-1l.09,1.79a8,8,0,0,1-3.36.71c-3.18,0-4.83-2.4-4.83-6.17S83.8,62,86.79,62C89.5,62,91,64.18,91,67.71v1.06ZM89,67.26c0-2.49-.78-3.74-2.36-3.74-1.27,0-2.4.94-2.45,3.74Z" transform="translate(15.17 -2.35)"/>
      <path class="cls-2" d="M104.54,74.18h-2.26L99.76,64h-.05L97.4,74.18H95.15L92,62.18H94l2.28,10h.05l2.28-10H101l2.37,10h.05l2.26-10h2Z" transform="translate(15.17 -2.35)"/>
      <path class="cls-2" d="M109.36,63a6.44,6.44,0,0,1,3.39-1,4.6,4.6,0,0,1,3.2,1.13,3.68,3.68,0,0,1,1,2.94v6.27a17.35,17.35,0,0,0,.09,1.83h-1.79l-.12-1.62h0a3.65,3.65,0,0,1-3.37,1.79,3.2,3.2,0,0,1-3.46-3.46c0-2.33,1.53-4,5.65-4h1.15V66.3a2.91,2.91,0,0,0-.45-1.93,2.43,2.43,0,0,0-2-.76,4.26,4.26,0,0,0-3.08,1.25Zm5.74,5.3a11.25,11.25,0,0,0-1.39,0c-2.33,0-3.43,1.11-3.43,2.5a1.86,1.86,0,0,0,2,2.09,2.84,2.84,0,0,0,2.8-3Z" transform="translate(15.17 -2.35)"/>
      <path class="cls-2" d="M119.6,56.53h2v7.3h.05A3.3,3.3,0,0,1,124.68,62c2.47,0,4.14,2,4.14,6.17s-1.67,6.17-4.14,6.17a3.4,3.4,0,0,1-3.15-1.93h0l-.07,1.76H119.5c0-.73.1-1.48.1-2.21Zm4.61,16.21c1.81,0,2.64-1.55,2.64-4.56s-.83-4.57-2.64-4.57-2.64,1.56-2.64,4.57S122.4,72.74,124.21,72.74Z" transform="translate(15.17 -2.35)"/>
      <path class="cls-2" d="M131.3,56.53h2V74.18h-2Z" transform="translate(15.17 -2.35)"/>
      <path class="cls-2" d="M137.81,68.77c0,2.78,1.09,4.07,3.28,4.07a5.08,5.08,0,0,0,2.75-1l.09,1.79a8,8,0,0,1-3.36.71c-3.18,0-4.83-2.4-4.83-6.17S137.39,62,140.38,62c2.71,0,4.21,2.17,4.21,5.7v1.06Zm4.8-1.51c0-2.49-.77-3.74-2.35-3.74-1.27,0-2.4.94-2.45,3.74Z" transform="translate(15.17 -2.35)"/>
      <path class="cls-2" d="M146.26,71.85a5.51,5.51,0,0,0,2.83.89c1.5,0,2.28-.77,2.28-1.69s-.42-1.39-1.53-1.88l-1.32-.59c-1.72-.78-2.35-1.55-2.35-3.08A3.54,3.54,0,0,1,150,62a7.2,7.2,0,0,1,2.54.43l-.09,1.69a5.83,5.83,0,0,0-2.36-.52c-1.29,0-2,.71-2,1.65s.7,1.51,2,2l.71.28a3.24,3.24,0,0,1,2.37,3.06c0,2.07-1.1,3.72-3.86,3.72a7.14,7.14,0,0,1-3.24-.71Z" transform="translate(15.17 -2.35)"/>
    </g>
  </g>
</svg>
