<svg xmlns="http://www.w3.org/2000/svg" id="Layer_1" x="0" y="0" version="1.1" viewBox="0 0 320 58.46" xml:space="preserve">
  <defs/>
  <style>
    .st1{fill:#fff}
  </style>
  <path d="M60.26 27.13c-.13 0-.34.01-.34.1 0 3.18-1.21 8.51-9.35 8.51h-4.82c-.24 0-.28-.05-.28-.15l-.03-14.83h1.64c3.23 0 5.23 1.92 5.23 5.01 0 .19.63.19.63 0V14.98c0-.08-.2-.1-.32-.1s-.32.01-.32.1c0 3.14-1.96 5.01-5.23 5.01l-1.61.03V6c0-.1.04-.15.28-.15h4.69c6.56 0 7.27 5.33 7.27 7.62 0 .12.3.13.36.13s.36-.01.36-.13V5.24c0-.06-.05-.16-.16-.16H36.69c-.08 0-.1.21-.1.38 0 .18.02.38.1.38h3.67c.2 0 .24.06.24.15v29.59c0 .09-.04.15-.24.15h-3.67c-.08 0-.1.21-.1.38 0 .18.02.38.1.38h23.75c.11 0 .16-.06.16-.16v-9.11c0-.07-.21-.09-.34-.09zM73.22 35.74h-2.43c-.24 0-.28-.05-.28-.15V4.1c0-.06-.05-.16-.16-.16h-6.37c-.12 0-.13.29-.13.38 0 .09.01.38.13.38h2.43c.24 0 .28.05.28.15v30.74c0 .1-.04.15-.28.15h-2.43c-.12 0-.13.29-.13.38 0 .09.01.38.13.38h9.24c.08 0 .1-.21.1-.38s-.02-.38-.1-.38zM85.74 35.74h-2.48c-.2 0-.24-.06-.24-.15V17.76c0-.1-.06-.16-.16-.16h-6.41c-.08 0-.1.21-.1.38 0 .18.02.38.1.38h2.43c.27 0 .28.05.28.15v17.08c0 .1-.01.15-.28.15h-2.43c-.08 0-.1.21-.1.38 0 .18.02.38.1.38h9.29c.08 0 .1-.21.1-.38s-.02-.38-.1-.38zM81.1 9.43c1.38 0 2.51-1.16 2.51-2.59 0-1.46-1.12-2.64-2.51-2.64-1.36 0-2.46 1.18-2.46 2.64-.01 1.45 1.08 2.59 2.46 2.59zM104.63 30.14c-.13 0-.34.01-.34.1 0 3.91-1.75 5.5-6.03 5.5H93.7c-.16 0-.19-.02-.2-.09l11.2-17.7c.04-.16.04-.26 0-.31h-.06l-.01-.01h-2l-11.98-.03c-.1 0-.16.06-.16.16v5.53c0 .16.72.16.72 0 0-3.64 1.41-4.92 5.37-4.92h3.54c.21 0 .22.04.2.09l-11.1 17.69c-.07.09-.09.19-.05.26.03.06.09.09.17.09h15.48c.15 0 .16-.06.16-.16v-6.1c-.01-.09-.22-.1-.35-.1zM126.26 34.75c-.02-.01-.03-.01-.04-.01-.01 0-.03-.01-.03-.01-.18.46-.71.95-1.43.95-.63 0-.99-.54-.99-1.48v-8.98c0-5.33-2.39-8.04-7.11-8.04-3.51 0-5.38 2.02-5.38 3.48 0 1.01.56 2.02 1.8 2.02 1.46 0 1.98-.87 1.98-1.62 0-.33-.09-.55-.19-.78-.1-.24-.21-.48-.21-.86 0-1.01.64-1.47 2.01-1.47 1.63 0 3.29.47 3.29 3.95v3.36c0 .85-2.35 1.05-4.61 1.26l-.45.04c-2.16.22-5.78 1.25-5.78 5.65 0 2.93 2.24 4.67 6 4.67 2.18 0 3.77-1.12 4.59-2.43.17-.27.33-.54.44-.83.36 1.98 1.72 3.26 3.47 3.26 1.66 0 2.8-.9 3.03-1.74.01-.03.01-.06-.02-.11-.08-.08-.24-.24-.37-.28zm-6.31-8.31v5.21c0 2.04-1.66 4.31-4.04 4.31-2.01 0-3.02-1.25-3.02-3.73 0-4.01 1.35-4.62 2.85-4.93.35-.06.76-.1 1.18-.15 1.07-.11 2.28-.25 3.03-.71zm.21 7.16c.06.32.15.63.27.93-.12-.28-.22-.58-.28-.9 0-.01 0-.02.01-.03zM139.49 17.2c-1.41 0-2.6.44-3.59 1.34-.17.15-.33.3-.49.47V4.1c0-.04 0-.16-.16-.16h-6.37c-.08 0-.1.21-.1.38s.02.38.1.38h2.48c.19 0 .28.05.28.15v30.74c0 .04 0 .15-.28.15h-2.48c-.08 0-.1.21-.1.38 0 .18.02.38.1.38h6.37c.15 0 .16-.06.16-.16l-.03-.89v-.62c1.15 1.24 3 2.07 4.6 2.07 5.26 0 8.79-5.02 8.79-9.72-.01-4.71-3.97-9.98-9.28-9.98zm0 .77c.82 0 2.35.12 3.3.92 1.37 1.16 2.07 3.95 2.07 8.29 0 4.29-.66 6.84-2.07 8.03-.8.67-1.56.92-2.81.92-1.65 0-3.78-.88-4.57-2.8V20.29c.67-1.52 2.56-2.32 4.08-2.32zm-4.09 1.05l-.02.02v-6.36l.02 6.34zm-.03 15.77c.18.19.39.38.61.56-.21-.17-.42-.34-.61-.53v-.03zM160.89 17.2c-5.1 0-9.1 4.33-9.1 9.85s4 9.85 9.1 9.85c2.96 0 5.7-1.55 7.5-4.26l-.02-.1c-.07-.12-.31-.3-.43-.29-1.68 2.5-4.19 3.88-7.05 3.88-1.38 0-2.4-.31-3.21-.97-1.38-1.17-1.8-3.06-1.8-8.12 0-.33 0-.67-.07-.95v-.04h12.83c.1 0 .16-.06.16-.16-.01-2.71-2-8.69-7.91-8.69zm-5.09 8.13c0-.06.01-.12.01-.17 0 .05 0 .11-.01.17zm.03 0c.18-3.75.65-5.36 1.85-6.39.81-.66 1.83-.97 3.21-.97 1.1 0 1.93.32 2.54.96 1.05 1.01 1.44 2.6 1.56 6.26v.11l-8.84.03h-.32zm9.17 0h-.43.43zm-9.2.71h1.58-1.58zM181.39 32.66c-.5 1.87-1.5 2.99-2.67 2.99-.77 0-1.21-.46-1.21-1.25V18.51c0-.09.04-.15.24-.15h3.67c.08 0 .1-.21.1-.38s-.02-.38-.1-.38h-3.67c-.2 0-.24-.06-.24-.15v-7.43c0-.08-.36-.08-.44-.08-.25 0-.28.04-.28.07-.56 1.62-1.61 2.55-3.14 2.8v4.64c0 .1-.01.15-.28.15h-3.05c-.08 0-.1.21-.1.38 0 .18.02.38.1.38h3.05c.27 0 .28.05.28.15v14.02c0 2.9 1.28 4.36 3.79 4.36 2.29 0 3.79-1.32 4.45-3.92 0-.1-.34-.34-.5-.31zM205.39 35.74h-2.43c-.21 0-.24-.04-.24-.15V24.62c0-4.64-2.76-7.42-7.37-7.42-1.45 0-3.16.55-4.24 1.98-.32.41-.58.88-.78 1.43V4.1c0-.04 0-.16-.16-.16h-6.37c-.08 0-.1.21-.1.38s.02.38.1.38h2.48c.19 0 .28.05.28.15v30.74c0 .04 0 .15-.28.15h-2.48c-.08 0-.1.21-.1.38 0 .18.02.38.1.38h9.24c.08 0 .1-.21.1-.38s-.02-.38-.1-.38h-2.43c-.28 0-.28-.11-.28-.15V22.15c.98-2.93 2.48-4.18 5.01-4.18 1.34 0 3.47 1.22 3.47 4.48v13.14c0 .1-.06.15-.19.15h-2.43c-.12 0-.13.29-.13.38 0 .09.01.38.13.38h9.2c.08 0 .09-.21.09-.38.01-.17-.01-.38-.09-.38zm-15.06-15.12l-.03.06v-8.02l.03 7.96zM238.87 35.74h-3.67c-.16 0-.27-.08-.28-.11L223.73 4.48c-.04-.11-.38-.12-.48-.12s-.45.01-.49.12L212.63 33.9c-.53 1.72-.62 1.84-.99 1.84h-3.02c-.03 0-.06 0-.06.38s.04.38.06.38h8.27c.08 0 .1-.21.1-.38s-.02-.38-.1-.38h-3.67c-.05 0-.06-.01-.07-.03-.08-.11.07-.64.46-1.79l2.67-7.77 10.1-.02 3.28 9.54c-.01.03-.07.07-.16.07h-3.8c-.08 0-.1.21-.1.38 0 .18.02.38.1.38h13.18c.08 0 .1-.21.1-.38-.01-.17-.03-.38-.11-.38zm-12.65-10.32h-2.2 2.2zm-9.73 0l1.23-3.58-1.22 3.58h-.01zm.03 0l4.88-14.2L225.07 22l1.14 3.39-7.11.03h-2.58zm13.16 10.24c0 .01-.01.03-.02.04.01-.01.01-.02.02-.04zM251.04 17.2c-1.97 0-3.2.68-4 2.27-.18.34-.34.7-.48 1.13v-2.84c0-.1-.01-.16-.16-.16h-6.37c-.08 0-.1.21-.1.38 0 .18.02.38.1.38h2.43c.23 0 .28.05.28.15v17.08c0 .1-.05.15-.28.15h-2.43c-.08 0-.1.21-.1.38 0 .18.02.38.1.38h9.25c.08 0 .1-.21.1-.38s-.02-.38-.1-.38h-2.48c-.2 0-.24-.06-.24-.15V22.5c.71-2.86 1.71-4.14 3.24-4.14.69 0 1.12.43 1.12 1.12 0 .34-.11.54-.23.76-.14.25-.3.54-.3 1.1 0 .92.85 1.58 2.02 1.58.98 0 1.98-.76 1.98-2.46 0-1.62-1.04-3.26-3.35-3.26zm-4.49 3.41c-.01.02-.02.04-.03.07v-1.42l.03 1.35zM276.69 35.74h-2.43c-.24 0-.28-.05-.28-.15V4.1c0-.05-.05-.16-.12-.16h-6.37c-.08 0-.1.21-.1.38s.02.38.1.38h2.43c.2 0 .24.06.24.15l.03 7.91V19c-1.08-1.21-2.43-1.8-4.11-1.8-5.31 0-9.27 5.27-9.27 9.98 0 4.69 3.55 9.72 8.83 9.72 2.2 0 3.68-1.1 4.26-1.98.12-.17.21-.33.26-.47v1.88c0 .11.06.16.16.16h6.37c.12 0 .13-.32.13-.38 0-.05 0-.37-.13-.37zm-15.93-8.55c0-4.42.69-7.13 2.11-8.29.91-.76 2.25-.92 3.21-.92 1.59 0 3.5.8 4.08 2.31v12.16c0 1.83-1.4 3.69-4.53 3.69-1.23 0-1.96-.24-2.77-.92-1.43-1.19-2.1-3.74-2.1-8.03zm9.43-8.17v.03c-.17-.19-.35-.36-.54-.53.19.15.37.31.54.5zm0 15.37v.93l-.03-.87c.01-.02.03-.04.03-.06zM287.7 17.2c-5.1 0-9.1 4.33-9.1 9.85s4 9.85 9.1 9.85c2.96 0 5.69-1.55 7.5-4.26l-.02-.1c-.07-.12-.32-.3-.43-.29-1.68 2.5-4.19 3.88-7.05 3.88-1.38 0-2.4-.31-3.21-.97-1.38-1.17-1.8-3.06-1.8-8.12 0-.33 0-.67-.07-.95v-.04h12.83c.1 0 .16-.06.16-.16 0-2.71-2-8.69-7.91-8.69zm-5.09 8.13c0-.06.01-.12.01-.18 0 .06 0 .12-.01.18zm.03 0c.18-3.75.65-5.36 1.85-6.39.81-.66 1.83-.97 3.21-.97 1.1 0 1.93.32 2.54.96 1.05 1.01 1.44 2.6 1.56 6.26v.11l-8.84.03h-.32zm9.17 0h-.43.43zm-9.2.71h1.58-1.58zM319.99 35.74h-2.43c-.21 0-.24-.04-.24-.15V24.62c0-4.64-2.74-7.42-7.33-7.42-1.79 0-3.27.69-4.22 1.89-.12.15-.23.32-.33.49-.2.31-.37.65-.51 1.03v-2.85c0-.1-.01-.16-.16-.16h-6.37c-.08 0-.1.21-.1.38 0 .18.02.38.1.38h2.48c.28 0 .28.11.28.15v17.08c0 .04 0 .15-.28.15h-2.48c-.08 0-.1.21-.1.38 0 .18.02.38.1.38h9.24c.08 0 .1-.21.1-.38s-.02-.38-.1-.38h-2.43c-.28 0-.28-.11-.28-.15V22.15c.98-2.93 2.49-4.18 5.06-4.18 1.34 0 3.47 1.22 3.47 4.48v13.14c0 .09-.04.15-.24.15h-2.43c-.05 0-.07.07-.08.14-.01.07-.02.16-.02.25 0 .18.02.38.1.38h9.2c.12 0 .13-.32.13-.38 0-.07 0-.39-.13-.39zm-15.05-15.12l-.03.06v-1.42l.03 1.36z"/>
  <g>
    <path fill="#c61924" fill-rule="evenodd" d="M.12.09v42.17H22.4V.09H.12z" clip-rule="evenodd"/>
  </g>
  <g>
    <path d="M19.87 23.71h-7.75V18.4h7.75v5.31zm-6.83-.92h5.9v-3.46h-5.9v3.46z" class="st1"/>
  </g>
  <g>
    <path d="M10.37 23.71H2.63V18.4h7.75v5.31h-.01zm-6.82-.92h5.9v-3.46h-5.9v3.46z" class="st1"/>
  </g>
  <g>
    <path d="M19.87 16.82h-7.75V2.61h7.75v14.21zm-6.83-.92h5.9V3.54h-5.9V15.9z" class="st1"/>
  </g>
  <g>
    <path d="M10.37 16.82H2.63V2.61h7.75v14.21h-.01zm-6.82-.92h5.9V3.54h-5.9V15.9z" class="st1"/>
  </g>
  <g>
    <path d="M19.87 39.51h-7.75V25.3h7.75v14.21zm-6.83-.92h5.9V26.23h-5.9v12.36z" class="st1"/>
  </g>
  <g>
    <path d="M10.37 39.51H2.63V25.3h7.75v14.21h-.01zm-6.82-.92h5.9V26.23h-5.9v12.36z" class="st1"/>
  </g>
  <path d="M217.13 53.27c-.35-.37-.82-.98-.82-.98s.09.72.09 1.26v4.83h-1.26v-8.85h.18l4.83 5.19c.34.36.81.98.81.98s-.09-.77-.09-1.26v-4.82h1.26v8.85h-.17l-4.83-5.2zM230.42 49.62h5.56v1.2h-4.2v3.4h3.72v1.17h-3.72v1.79h4.38v1.2h-5.74v-8.76zM243.35 49.62h1.43l1.55 4.66c.17.49.33 1.25.33 1.25s.22-.75.42-1.25l2.01-4.75h.17l2.02 4.75c.21.49.41 1.25.41 1.25s.18-.76.35-1.25l1.55-4.66h1.32l-3.03 8.85h-.17l-2.18-5.22c-.18-.42-.36-1.07-.36-1.07s-.21.64-.39 1.07l-2.23 5.22h-.17l-3.03-8.85zM269.71 55.61l-3.32-5.99h1.51l1.98 3.61c.27.49.53 1.26.53 1.26s.27-.77.53-1.26l1.92-3.61h1.4l-3.18 5.91v2.85h-1.36v-2.77zM280.68 54c0-2.61 2.01-4.49 4.52-4.49 2.5 0 4.51 1.88 4.51 4.49s-2.01 4.49-4.51 4.49c-2.51.01-4.52-1.87-4.52-4.49zm7.64 0c0-1.87-1.29-3.27-3.12-3.27s-3.13 1.4-3.13 3.27 1.3 3.27 3.13 3.27c1.83 0 3.12-1.4 3.12-3.27zM303.66 58.38h-1.57l-1.57-2.31c-.24.03-.49.05-.73.05h-.83v2.25h-1.37v-8.76h2.19c2.42 0 3.77 1.26 3.77 3.27 0 1.35-.61 2.28-1.75 2.78l1.86 2.72zm-3.92-3.43c1.74 0 2.43-.76 2.43-2.06 0-1.31-.72-2.07-2.43-2.07h-.77v4.14h.77zM313.5 53.33l2.83-3.71h1.54l-3.1 4.09 3.45 4.66h-1.65l-2.71-3.66-.94 1.15v2.51h-1.37v-8.76h1.37v3.61c0 .4-.05.93-.1 1.29.2-.39.46-.88.68-1.18z"/>
</svg>
