<svg width="148" height="32" viewBox="0 0 148 32" fill="none" xmlns="http://www.w3.org/2000/svg">
<path d="M113.318 23.0054L113.275 22.7491C113.225 21.7621 112.991 19.8845 112.991 17.6264L112.973 17.3752V17.2001C113.06 12.5722 121.547 7.25915 131.832 4.4225L131.892 4.24489C131.714 3.86176 131.435 3.21223 131.244 2.88492C131.133 2.6997 131.05 2.45359 130.857 2.35717C130.766 2.3115 130.258 2.45866 130.015 2.5297C126.58 3.54207 120.07 5.82053 113.267 12.0825C110.056 15.0485 107.462 18.0729 104.375 20.765C104.375 20.765 99.342 25.8268 95.9583 26.0501C95.9583 26.0501 95.3027 26.1363 94.5413 25.7938C93.3591 25.2686 91.3175 22.9622 90.3703 21.2953C88.6229 22.4269 87.1465 24.8474 87.0923 24.9565C87.0304 25.0631 86.9194 25.3092 86.8497 25.4234C86.7749 25.535 86.1735 25.7126 85.9722 25.5401L86.0031 25.2356C86.3413 23.287 86.4574 22.881 86.4574 22.881C87.0769 21.3308 88.1041 20.0139 89.2295 18.8646L89.103 18.5423C88.4293 16.7333 88.3261 14.9953 88.3261 13.2801C88.5635 9.05553 89.9573 6.03619 91.8647 4.90711C91.8647 4.90711 94.2031 3.55729 95.9453 2.63881C95.9453 2.63881 96.477 2.18971 97.4527 2.24553C98.4257 2.30135 99.8814 3.11074 101.944 4.831C103.988 6.56648 106.014 8.49734 106.319 10.0095C106.319 10.0095 106.489 10.6337 106.208 11.2147L103.96 14.5436C103.451 15.2921 100.702 15.863 96.6035 17.837C96.6035 17.837 96.2318 17.9943 96.1157 18.0526C96.1157 18.0526 96.8048 19.0168 97.5792 19.7069C97.5792 19.7069 97.8089 20.0165 98.3251 20.1611C99.2852 20.4377 100.862 19.7146 104.403 16.3755C105.415 15.419 109.338 11.5268 112.203 9.1418C112.203 9.1418 119.784 2.3521 127.145 0.286769C127.145 0.286769 128.402 -0.111581 129.36 0.142145C131.151 0.621687 132.885 1.34734 133.954 1.7533C134.749 2.15926 135.229 2.49165 135.905 3.4076C139.144 2.76059 141.999 2.37493 145.625 2.08822L145.876 2.073L147.466 2.66925C148.101 2.90268 148.114 3.1082 147.817 3.197C147.734 3.21984 141.491 4.10534 137.018 5.55412C138.161 8.36032 138.61 10.7834 138.662 15.3378C138.729 21.6454 136.109 31.802 125.865 31.9467C121.534 32.005 116.398 27.7348 113.909 24.2867C113.909 24.2867 113.427 23.5737 113.331 23.0054M124.151 26.0628L124.29 26.0755C130.931 26.3749 133.216 18.8976 133.373 13.5389C133.373 11.1767 133.138 8.84494 132.749 6.9217C123.013 10.6768 116.865 15.3708 114.841 19.4811C117.174 22.909 120.951 25.8775 124.141 26.0653H124.151V26.0628ZM94.5387 15.2769C96.5493 14.2594 101.211 12.6863 102.672 12.2144L102.715 12.1611C101.923 11.0118 100.816 9.83447 99.3136 8.6927C99.3136 8.6927 96.0899 6.19097 94.7323 5.55412L94.6935 5.53128C94.1128 6.88871 93.7102 8.63942 93.6895 9.88268C93.6895 9.88268 93.4159 12.628 94.5387 15.2794" fill="#00973A"/>
<path d="M65.1304 5.80469H61.917V8.34956H65.1304V5.80469Z" fill="#00973A"/>
<path d="M79.4912 25.5979L79.055 23.6137C78.6885 23.6797 76.3036 24.0248 75.6945 24.0248C73.911 24.0248 73.0231 22.9413 73.0231 20.7695V12.531H78.7117V10.5012H73.0231V7.75586H70.3775L69.7555 10.5012H67.9126V12.531H69.7555V20.7162C69.7555 22.0482 69.962 23.0809 70.3646 23.837C70.7569 24.5829 71.2163 25.1411 71.7274 25.5167C72.2462 25.9023 72.7366 26.1281 73.2115 26.2144C73.6812 26.3032 74.0065 26.3413 74.1536 26.3413C76.7656 26.3413 78.1207 25.9328 79.4912 25.5979Z" fill="#00973A"/>
<path d="M0 7.09668V26.0652H13.8551V23.5635L3.67025 23.5609L3.73478 17.4233H12.6884V15.1981H3.73478V9.68214H13.6383V7.09668H0Z" fill="#00973A"/>
<path d="M45.9042 14.9014C45.9042 14.2188 45.7184 13.6682 45.3441 13.2344C44.9699 12.8081 44.3788 12.595 43.5606 12.595H39.9291C39.1031 12.595 38.5043 12.8056 38.1378 13.2344C37.7713 13.6682 37.5777 14.2214 37.5777 14.9014V17.6441H45.9042V14.9039V14.9014ZM48.3743 25.2331C47.618 25.4766 46.8824 25.6669 46.1855 25.8065C45.4732 25.9663 44.6163 26.1008 43.6071 26.2175C42.5953 26.3342 40.3033 26.3875 39.036 26.3875C38.8915 26.3875 38.5585 26.3469 38.0423 26.2657C37.5313 26.1795 37.0022 25.9486 36.4447 25.568C35.8949 25.1899 35.3967 24.6317 34.9657 23.8731C34.5295 23.1297 34.3179 22.0869 34.3179 20.765V15.7995C34.3179 15.0917 34.4159 14.4244 34.625 13.7926C34.8289 13.1633 35.1567 12.6026 35.5826 12.1002C36.0188 11.6055 36.5711 11.2198 37.2396 10.928C37.9184 10.6413 38.7315 10.4941 39.6839 10.4941H43.8549C44.8537 10.4941 45.6797 10.6312 46.3352 10.8925C46.9857 11.1564 47.4993 11.5141 47.8813 11.9404C48.2659 12.3641 48.5214 12.836 48.6763 13.3536C48.8337 13.8662 48.9034 14.3685 48.9034 14.8633V17.9816C48.9034 18.484 48.7795 18.8569 48.524 19.1183C48.2736 19.3923 47.9665 19.5242 47.5974 19.5242H37.5726V21.554C37.5726 21.8814 37.6371 22.1884 37.7739 22.4979C37.8952 22.7872 38.0836 23.0536 38.3211 23.2971C38.5689 23.5306 38.8502 23.7209 39.1677 23.8579C39.5006 24.0025 40.1923 24.0634 40.5847 24.0634C41.3461 24.0634 42.1385 24.0304 42.9541 23.9721C43.7594 23.9061 44.5285 23.8274 45.246 23.7335C45.9584 23.6371 46.5882 23.5356 47.1457 23.4392C47.698 23.3504 48.111 23.2515 48.3665 23.1728V25.2229L48.3768 25.2331H48.3743Z" fill="#00973A"/>
<path d="M65.0991 10.502H61.8857V26.063H65.0991V10.502Z" fill="#00973A"/>
<path d="M57.6996 7.5378C56.9846 7.5378 55.8567 7.39063 55.8567 8.76075V10.4962H59.0211V12.5159H55.8567V26.0243H52.6304V12.5159H51.0327V10.4962H52.6304V9.24537C52.6304 6.26663 54.3803 5.90126 54.7856 5.76172C55.8825 5.47754 58.6855 5.65515 59.8909 5.77948V7.54287H57.6996V7.5378Z" fill="#00973A"/>
<path d="M25.7201 10.451L20.1037 11.3137L19.6134 10.4662H16.9678V26.0653H20.2431V13.4576C28.3992 11.5344 28.0921 13.889 28.0921 15.6194V26.0653H31.3597L31.4191 15.7868C31.4191 10.4002 27.994 10.1389 25.7227 10.4484" fill="#00973A"/>
</svg>
