<?xml version="1.0" encoding="UTF-8"?> <svg xmlns="http://www.w3.org/2000/svg" width="585" height="592" viewBox="0 0 585 592" fill="none"><path d="M585 87C506.616 32.7911 404.365 0 292.509 0C180.653 0 78.3837 32.7911 0 87C77.9621 60.1519 169.104 43.5 292.509 43.5C415.914 43.5 507.056 60.1519 585 87" fill="#00AAFF"></path><path d="M504.896 493.654C334.896 531.035 140.439 491.113 140.439 368.148C140.439 275.269 224.637 237.478 291.113 231.985C360.717 226.329 415.165 241.249 443.471 271.006C460.952 289.615 456.061 314.945 421.74 316.995C390.066 318.962 330.646 320.848 281.25 322.733C253.184 323.799 238.189 339.129 238.189 359.869C238.189 376.264 250.217 394.955 282.533 395.118C328.802 395.118 446.358 396.102 504.655 396.266C543.145 396.266 562.15 374.296 562.15 328.963C562.15 257.234 498.48 148.615 312.363 148.615C143.967 148.615 21.7598 234.527 21.7598 374.87C21.7598 573.909 308.273 634.654 518.287 560.711C538.174 553.743 556.216 539.069 550.362 516.362C545.15 495.95 529.032 488.326 504.896 493.654" fill="#00AAFF"></path></svg> 