<svg width="96" height="34" fill="none" xmlns="http://www.w3.org/2000/svg"><g clip-path="url(#clip0_4770_214)" fill="#0AF"><path fill-rule="evenodd" clip-rule="evenodd" d="M96 13.51C83.137 5.091 66.357 0 48.002 0 29.645 0 12.862 5.092 0 13.51c12.794-4.17 27.75-6.755 48.002-6.755 20.25 0 35.207 2.585 47.998 6.754z"/><path d="M40.64 17.884c-.944 0-1.428.749-1.552 1.666-.138 1.014-.683 4.526-.803 5.416-.072.537-.111 1.094-.64 1.324-.53.23-1.174-.124-1.721-.59l-8.676-7.23a2.475 2.475 0 00-1.612-.589c-1.228 0-2.407.746-2.407 2.571V31.76a1.337 1.337 0 00.377 1.018 1.39 1.39 0 001.016.427c.379.01.747-.124 1.027-.374.28-.25.451-.597.477-.968l1.002-5.988c.126-.699.237-1.247.926-1.456.623-.19 1.204.165 2.088.917.884.751 8.182 7.217 8.182 7.217a2.398 2.398 0 001.763.652c.719 0 2.024-.295 2.024-2.442V19.5c.004-1.044-.667-1.616-1.47-1.616zm52.345 12.05c-6.374 1.345-13.672-.091-13.672-4.514 0-3.34 3.162-4.7 5.653-4.897 2.614-.203 4.656.333 5.715 1.404.656.669.472 1.58-.818 1.654-1.185.07-3.414.138-5.267.206-1.053.038-1.616.59-1.616 1.336 0 .59.451 1.261 1.664 1.267 1.735 0 6.142.036 8.33.042 1.446 0 2.156-.79 2.156-2.42 0-2.58-2.385-6.487-9.367-6.487-6.318 0-10.902 3.09-10.902 8.137 0 7.159 10.748 9.343 18.624 6.684.746-.25 1.423-.778 1.203-1.595-.192-.734-.797-1.008-1.703-.817zm-73.973 0c-6.378 1.345-13.673-.091-13.673-4.514 0-3.34 3.159-4.7 5.653-4.897 2.61-.203 4.653.333 5.715 1.404.656.669.473 1.58-.815 1.654-1.188.07-3.417.138-5.27.206-1.053.038-1.616.59-1.616 1.336 0 .59.452 1.261 1.664 1.267 1.736 0 6.146.036 8.333.042 1.443 0 2.156-.79 2.156-2.42 0-2.58-2.388-6.487-9.37-6.487-6.317 0-10.902 3.09-10.902 8.137 0 7.159 10.748 9.343 18.627 6.684.746-.25 1.423-.778 1.203-1.595-.195-.734-.8-1.008-1.705-.817zm49.385-6.883c.142 3.904.518 7.14.623 8.276.135 1.474.902 1.881 1.681 1.881.78 0 1.535-.38 1.67-1.87.126-1.25.493-5.097.677-8.93a.222.222 0 00-.076-.212.233.233 0 00-.225-.044l-4.151.657a.25.25 0 00-.144.086.242.242 0 00-.055.156zm2.316-5.535a2.338 2.338 0 00-.949.138 2.302 2.302 0 00-.808.506 2.218 2.218 0 00-.68 1.714c0 .169.021.628.049 1.203a.248.248 0 00.096.183.257.257 0 00.204.05l4.332-.69a.251.251 0 00.148-.08.242.242 0 00.063-.152c0-.201 0-.405.018-.502a2.24 2.24 0 00-.163-.935 2.278 2.278 0 00-.536-.79 2.334 2.334 0 00-.817-.507 2.373 2.373 0 00-.957-.138zm-6.365 6.224c-1.444 0-5.902.036-8.754.042-1.384 0-1.73.73-1.73 1.335 0 .525.373 1.203 1.664 1.268 1.964.1 4.467.215 5.622.274 1.555.077 1.576.861 1.05 1.534-1.056 1.344-3.625 2.226-6.287 2.226-3.484 0-7.316-1.94-7.316-5.013 0-2.89 3.282-6.07 13.025-4.717.858.118 1.7-.033 1.91-.81.226-.827-.324-1.357-1.431-1.643a23.97 23.97 0 00-6.15-.72c-6.56 0-11.818 3.07-11.818 8.029 0 5.307 5.24 7.884 11.774 7.884 7.295 0 10.847-3.892 10.847-7.295.006-1.73-.893-2.394-2.406-2.394z"/></g><defs><clipPath id="clip0_4770_214"><path fill="#fff" d="M0 0h96v33.429H0z"/></clipPath></defs></svg>