<?xml version="1.0" encoding="utf-8"?>
<!-- Generator: Adobe Illustrator 15.0.2, SVG Export Plug-In . SVG Version: 6.00 Build 0)  -->
<!DOCTYPE svg PUBLIC "-//W3C//DTD SVG 1.1//EN" "http://www.w3.org/Graphics/SVG/1.1/DTD/svg11.dtd">
<svg version="1.1"
	 id="Ebene_1" xmlns:cc="http://creativecommons.org/ns#" xmlns:rdf="http://www.w3.org/1999/02/22-rdf-syntax-ns#" xmlns:dc="http://purl.org/dc/elements/1.1/"
	 xmlns="http://www.w3.org/2000/svg" xmlns:xlink="http://www.w3.org/1999/xlink" x="0px" y="0px" width="143px" height="48.189px"
	 viewBox="0 0 143 48.189" enable-background="new 0 0 143 48.189" xml:space="preserve">
<g>
	<path fill-rule="evenodd" clip-rule="evenodd" fill="#00AAFF" d="M139.629,19.438C121.37,7.25,97.555-0.125,71.499-0.125
		c-26.054,0-49.869,7.375-68.128,19.563c18.158-6.037,39.388-9.782,68.128-9.782C100.24,9.656,121.47,13.401,139.629,19.438"/>
	<path fill="#00AAFF" d="M61.053,25.774c-1.34,0-2.025,1.086-2.204,2.414c-0.196,1.466-0.966,6.552-1.138,7.845
		c-0.102,0.773-0.16,1.581-0.91,1.914c-0.749,0.332-1.663-0.177-2.441-0.839c-0.781-0.665-12.314-10.484-12.314-10.484
		c-0.661-0.579-1.495-0.849-2.288-0.849c-1.741,0-3.414,1.081-3.414,3.723v16.376c0,1.275,0.899,2.091,1.974,2.091
		c1.187,0,1.957-0.788,2.125-1.94c0,0,1.268-7.804,1.424-8.675c0.18-1.011,0.339-1.806,1.314-2.108
		c0.886-0.273,1.72,0.239,2.966,1.328c1.228,1.072,11.614,10.452,11.614,10.452c0.794,0.671,1.374,0.943,2.498,0.943
		c1.021,0,2.873-0.418,2.873-3.536V28.116C63.131,26.601,62.195,25.774,61.053,25.774"/>
	<path fill="#00AAFF" d="M135.351,43.225c-9.052,1.947-19.407-0.135-19.407-6.536c0-4.839,4.488-6.809,8.023-7.092
		c3.708-0.297,6.609,0.483,8.103,2.032c0.931,0.967,0.671,2.288-1.16,2.396c-1.687,0.102-4.847,0.199-7.478,0.299
		c-1.495,0.058-2.294,0.857-2.294,1.931c0,0.853,0.643,1.831,2.36,1.839c2.465,0.012,8.722,0.049,11.825,0.059
		c2.051,0.005,3.063-1.143,3.063-3.502c0-3.736-3.387-9.408-13.297-9.408c-8.979,0-15.476,4.471-15.476,11.783
		c0,10.367,15.257,13.531,26.436,9.677c1.061-0.362,2.021-1.124,1.714-2.307C137.493,43.346,136.635,42.945,135.351,43.225"/>
	<path fill="#00AAFF" d="M30.354,43.225c-9.049,1.947-19.405-0.135-19.405-6.536c0-4.839,4.485-6.809,8.023-7.092
		c3.707-0.297,6.605,0.483,8.099,2.032c0.934,0.967,0.674,2.288-1.155,2.396c-1.688,0.102-4.849,0.199-7.48,0.299
		c-1.495,0.058-2.294,0.857-2.294,1.931c0,0.853,0.643,1.831,2.36,1.839c2.465,0.012,8.722,0.049,11.827,0.059
		c2.05,0.005,3.061-1.143,3.061-3.502c0-3.736-3.386-9.408-13.296-9.408c-8.979,0-15.476,4.471-15.476,11.783
		c0,10.367,15.258,13.531,26.437,9.677c1.059-0.362,2.02-1.124,1.712-2.307C32.496,43.346,31.641,42.945,30.354,43.225"/>
	<path fill="#00AAFF" d="M100.451,33.256c0.197,5.652,0.731,10.341,0.88,11.983c0.193,2.121,1.289,2.725,2.39,2.725
		c1.056,0,2.175-0.552,2.369-2.705c0.162-1.813,0.699-7.404,0.961-12.937c0.014-0.287-0.188-0.411-0.416-0.371l-5.893,0.956
		C100.57,32.943,100.445,33.086,100.451,33.256"/>
	<path fill="#00AAFF" d="M103.738,25.242c-2.703,0-3.492,2.119-3.461,3.417c0.006,0.24,0.031,0.908,0.07,1.739
		c0.006,0.188,0.176,0.365,0.404,0.337l6.146-0.997c0.197-0.041,0.289-0.184,0.299-0.34c0.016-0.288,0.023-0.585,0.027-0.724
		C107.262,27.421,106.455,25.242,103.738,25.242"/>
	<path fill="#00AAFF" d="M94.7,34.255c-2.049,0-8.374,0.049-12.422,0.061c-1.964,0.006-2.454,1.058-2.454,1.933
		c0,0.759,0.525,1.741,2.358,1.837c2.791,0.146,6.342,0.312,7.979,0.395c2.208,0.114,2.237,1.249,1.491,2.221
		c-1.497,1.95-5.144,3.227-8.924,3.227c-4.944,0-10.383-2.813-10.383-7.271c0-4.179,4.655-8.788,18.487-6.842
		c1.216,0.17,2.412-0.048,2.711-1.173c0.318-1.196-0.461-1.965-2.032-2.379c-3.133-0.824-5.988-1.019-8.719-1.019
		c-9.312,0-16.774,4.446-16.774,11.625c0,7.667,7.438,11.417,16.708,11.417c10.354,0,15.396-5.633,15.396-10.562
		C98.124,35.213,96.848,34.255,94.7,34.255"/>
</g>
</svg>
