<?xml version="1.0" encoding="UTF-8"?> <svg xmlns="http://www.w3.org/2000/svg" width="168" height="60" viewBox="0 0 168 60"><g fill="#FEFEFE" fill-rule="evenodd"><path d="M167.545 24.116C145.095 9.09 115.811 0 83.773 0 51.736 0 22.452 9.091 0 24.116c22.328-7.443 48.433-12.058 83.773-12.058 35.34 0 61.446 4.615 83.772 12.058M70.927 31.926c-1.646 0-2.49 1.338-2.71 2.976-.241 1.806-1.189 8.076-1.399 9.669-.126.953-.196 1.95-1.119 2.36-.922.41-2.046-.218-3.003-1.035L47.555 32.973c-.814-.713-1.838-1.047-2.815-1.047-2.14 0-4.198 1.331-4.198 4.588v20.187c0 1.573 1.106 2.578 2.428 2.578 1.459 0 2.406-.97 2.613-2.393 0 0 1.559-9.62 1.751-10.693.22-1.246.417-2.225 1.617-2.598 1.088-.338 2.113.295 3.646 1.637 1.509 1.321 14.28 12.884 14.28 12.884.977.827 1.69 1.162 3.073 1.162 1.254 0 3.533-.514 3.533-4.359V34.811c0-1.866-1.151-2.885-2.556-2.885M162.285 53.436c-11.129 2.402-23.863-.165-23.863-8.055 0-5.966 5.519-8.393 9.866-8.744 4.56-.365 8.125.596 9.961 2.505 1.146 1.192.827 2.82-1.423 2.953-2.074.125-5.961.246-9.197.37-1.837.07-2.819 1.054-2.819 2.38 0 1.05.79 2.255 2.902 2.265 3.03.015 10.722.061 14.54.072 2.522.006 3.765-1.408 3.765-4.317 0-4.605-4.164-11.596-16.35-11.596-11.04 0-19.028 5.513-19.028 14.525 0 12.78 18.76 16.68 32.506 11.93 1.303-.447 2.483-1.386 2.106-2.845-.33-1.294-1.386-1.787-2.966-1.443M33.179 53.436C22.05 55.838 9.317 53.27 9.317 45.38c0-5.966 5.516-8.393 9.866-8.744 4.558-.365 8.123.596 9.96 2.505 1.147 1.192.827 2.82-1.422 2.953-2.075.125-5.962.246-9.198.37-1.838.07-2.82 1.054-2.82 2.38 0 1.05.79 2.255 2.9 2.265 3.032.015 10.726.061 14.544.072 2.52.006 3.764-1.408 3.764-4.317 0-4.605-4.165-11.596-16.35-11.596-11.04 0-19.029 5.513-19.029 14.525 0 12.78 18.762 16.68 32.507 11.93 1.303-.447 2.483-1.386 2.105-2.845-.33-1.294-1.384-1.787-2.965-1.443M119.372 41.15c.243 6.966.9 12.746 1.082 14.77.238 2.615 1.585 3.359 2.938 3.359 1.299 0 2.675-.68 2.914-3.334.2-2.235.86-9.129 1.18-15.947.018-.356-.23-.508-.511-.457l-7.244 1.177c-.213.045-.366.22-.359.431M123.413 31.27c-3.324 0-4.292 2.61-4.253 4.21.006.297.038 1.12.084 2.145.009.233.218.45.497.416l7.56-1.23c.24-.049.355-.225.367-.417.018-.356.028-.723.033-.894.044-1.544-.946-4.23-4.288-4.23M112.3 42.38c-2.52 0-10.296.06-15.273.073-2.416.008-3.018 1.305-3.018 2.383 0 .936.647 2.147 2.9 2.264 3.432.182 7.798.385 9.813.488 2.714.14 2.75 1.539 1.833 2.736-1.842 2.403-6.325 3.978-10.974 3.978-6.08 0-12.767-3.467-12.767-8.962 0-5.154 5.725-10.833 22.733-8.436 1.494.21 2.967-.059 3.334-1.446.39-1.473-.566-2.422-2.498-2.932-3.853-1.016-7.365-1.256-10.724-1.256-11.447 0-20.625 5.48-20.625 14.33 0 9.45 9.146 14.073 20.545 14.073 12.733 0 18.933-6.946 18.933-13.02 0-3.092-1.57-4.272-4.211-4.272"></path></g></svg> 