<?xml version="1.0" encoding="utf-8"?>
<!-- Generator: Adobe Illustrator 16.0.0, SVG Export Plug-In . SVG Version: 6.00 Build 0)  -->
<!DOCTYPE svg PUBLIC "-//W3C//DTD SVG 1.1//EN" "http://www.w3.org/Graphics/SVG/1.1/DTD/svg11.dtd">
<svg version="1.1" id="Layer_1" xmlns="http://www.w3.org/2000/svg" xmlns:xlink="http://www.w3.org/1999/xlink" x="0px" y="0px"
	 width="141.73px" height="42.52px" viewBox="0 0 141.73 42.52" enable-background="new 0 0 141.73 42.52" xml:space="preserve">
<g>
	<g>
		<g>
			<path d="M60.952,36.256v-0.378h0.335v-2.61h-0.325v-0.379h2.547v0.881h-0.394v-0.502h-1.288v1.057l1.195-0.024v0.389
				l-1.195-0.021v1.21h1.353v-0.521h0.402v0.898H60.952z"/>
			<path d="M66.472,35.426v-2.158h-0.34v-0.379h1.17v0.379h-0.324v2.988h-0.521l-0.787-1.214c-0.098-0.15-0.197-0.302-0.297-0.454
				c-0.101-0.152-0.199-0.308-0.298-0.465c-0.049-0.078-0.098-0.158-0.147-0.238c-0.049-0.08-0.1-0.16-0.152-0.238
				c-0.003,0-0.005,0-0.005,0.002s-0.002,0.002-0.005,0.002v2.228H65.1c0,0.063,0.001,0.126,0.003,0.188
				c0.002,0.064,0.002,0.127,0.002,0.189h-1.18c0-0.063-0.001-0.125-0.002-0.189c-0.002-0.063-0.003-0.125-0.003-0.188h0.34
				c0-0.438,0-0.874,0.002-1.306s0.003-0.866,0.003-1.305h-0.34v-0.379h0.915c0.157,0.246,0.294,0.462,0.41,0.646
				c0.116,0.186,0.222,0.35,0.317,0.494l0.545,0.86c0.056,0.089,0.111,0.177,0.167,0.266c0.057,0.089,0.112,0.179,0.168,0.271
				H66.472z"/>
			<path d="M67.72,36.256v-0.378h0.335v-2.61H67.73v-0.379h2.547v0.881h-0.394v-0.502h-1.288v1.057l1.195-0.024v0.389l-1.195-0.021
				v1.21h1.353v-0.521h0.402v0.898H67.72z"/>
			<path d="M71.565,34.811v1.067h0.379v0.378h-1.234v-0.378h0.315v-2.615h-0.315v-0.378h1.539c0.344,0,0.609,0.082,0.797,0.246
				s0.279,0.4,0.279,0.709c0,0.078-0.01,0.162-0.029,0.25c-0.02,0.09-0.053,0.176-0.1,0.26c-0.049,0.083-0.111,0.158-0.189,0.227
				c-0.078,0.066-0.176,0.118-0.291,0.154l0.531,1.162l0.363,0.049v0.291c-0.064,0.025-0.141,0.045-0.229,0.059
				c-0.086,0.013-0.158,0.02-0.213,0.02c-0.119,0-0.205-0.026-0.26-0.078c-0.057-0.053-0.107-0.129-0.154-0.227l-0.525-1.195H71.565
				z M72.76,33.84c0-0.105-0.016-0.194-0.049-0.269s-0.076-0.134-0.131-0.181c-0.055-0.046-0.117-0.078-0.191-0.098
				c-0.074-0.021-0.15-0.03-0.229-0.03h-0.595v1.18h0.595c0.064,0,0.133-0.009,0.203-0.024c0.07-0.017,0.137-0.047,0.195-0.092
				c0.059-0.044,0.107-0.105,0.145-0.182C72.74,34.066,72.76,33.965,72.76,33.84z"/>
			<path d="M75.537,32.825c0.184,0,0.352,0.013,0.506,0.04c0.154,0.025,0.287,0.059,0.398,0.098v0.84h-0.395v-0.49
				c-0.064-0.018-0.143-0.031-0.23-0.043c-0.088-0.011-0.176-0.017-0.26-0.017c-0.188,0-0.348,0.032-0.48,0.096
				s-0.242,0.153-0.328,0.269c-0.088,0.114-0.152,0.254-0.193,0.418c-0.041,0.163-0.061,0.346-0.061,0.545
				c0,0.188,0.016,0.359,0.047,0.516c0.031,0.158,0.084,0.293,0.156,0.406c0.074,0.113,0.174,0.201,0.299,0.266
				c0.123,0.063,0.281,0.096,0.471,0.096c0.08,0,0.172-0.006,0.275-0.018c0.105-0.012,0.193-0.028,0.266-0.051v-0.944h-0.486v-0.368
				h1.229v0.368h-0.246v1.282c-0.176,0.057-0.355,0.098-0.539,0.126s-0.361,0.042-0.531,0.042c-0.283,0-0.52-0.043-0.711-0.131
				c-0.191-0.086-0.346-0.206-0.465-0.358c-0.117-0.152-0.201-0.333-0.252-0.544c-0.051-0.209-0.076-0.438-0.076-0.683
				c0-0.187,0.021-0.384,0.066-0.59c0.043-0.206,0.125-0.396,0.244-0.57c0.121-0.173,0.285-0.317,0.492-0.431
				C74.941,32.882,75.209,32.825,75.537,32.825z"/>
			<path d="M79.102,33.272h-0.291v-0.388h1.102v0.388h-0.275l-0.93,1.573v1.032h0.395v0.378H77.76v-0.378h0.393V34.86l-0.91-1.588
				h-0.27v-0.388h1.115v0.388h-0.285l0.629,1.185h0.021L79.102,33.272z"/>
			<path d="M82.424,34.811v1.067h0.379v0.378h-1.234v-0.378h0.314v-2.615h-0.314v-0.378h1.539c0.344,0,0.609,0.082,0.795,0.246
				c0.188,0.164,0.281,0.4,0.281,0.709c0,0.078-0.01,0.162-0.029,0.25c-0.02,0.09-0.053,0.176-0.102,0.26
				c-0.047,0.083-0.109,0.158-0.189,0.227c-0.078,0.066-0.174,0.118-0.289,0.154l0.531,1.162l0.363,0.049v0.291
				c-0.066,0.025-0.143,0.045-0.229,0.059c-0.088,0.013-0.158,0.02-0.215,0.02c-0.117,0-0.203-0.026-0.26-0.078
				c-0.057-0.053-0.107-0.129-0.152-0.227l-0.525-1.195H82.424z M83.617,33.84c0-0.105-0.016-0.194-0.049-0.269
				c-0.031-0.074-0.076-0.134-0.129-0.181c-0.055-0.046-0.119-0.078-0.193-0.098c-0.072-0.021-0.148-0.03-0.229-0.03h-0.594v1.18
				h0.594c0.066,0,0.135-0.009,0.205-0.024c0.07-0.017,0.135-0.047,0.193-0.092c0.061-0.044,0.107-0.105,0.146-0.182
				C83.6,34.066,83.617,33.965,83.617,33.84z"/>
			<path d="M84.748,36.256v-0.378h0.336v-2.61h-0.326v-0.379h2.547v0.881h-0.393v-0.502h-1.289v1.057l1.195-0.024v0.389
				l-1.195-0.021v1.21h1.354v-0.521h0.402v0.898H84.748z"/>
			<path d="M88.102,35.337l0.004,0.403c0.121,0.056,0.244,0.094,0.369,0.115s0.24,0.032,0.35,0.032c0.127,0,0.238-0.017,0.334-0.05
				c0.094-0.032,0.174-0.074,0.236-0.125s0.107-0.109,0.139-0.177s0.047-0.136,0.047-0.204c0-0.102-0.018-0.184-0.057-0.246
				c-0.037-0.062-0.09-0.113-0.156-0.152c-0.068-0.039-0.146-0.072-0.236-0.1c-0.09-0.028-0.189-0.057-0.297-0.087
				c-0.15-0.032-0.293-0.073-0.424-0.122c-0.131-0.05-0.246-0.109-0.344-0.18s-0.176-0.156-0.232-0.258
				c-0.059-0.102-0.086-0.224-0.086-0.364c0.002-0.161,0.035-0.302,0.098-0.425s0.146-0.227,0.252-0.308
				c0.107-0.082,0.232-0.145,0.375-0.187c0.143-0.043,0.297-0.064,0.465-0.064c0.07,0,0.15,0.004,0.234,0.01
				c0.086,0.007,0.172,0.018,0.26,0.032c0.086,0.015,0.172,0.036,0.258,0.063c0.084,0.028,0.164,0.062,0.234,0.102l0.006,0.703
				h-0.398l-0.004-0.408c-0.076-0.033-0.17-0.057-0.283-0.069s-0.215-0.02-0.303-0.02c-0.086,0-0.166,0.011-0.242,0.032
				c-0.078,0.021-0.145,0.053-0.203,0.096c-0.057,0.043-0.104,0.096-0.137,0.16c-0.035,0.063-0.053,0.137-0.053,0.219
				c0,0.078,0.021,0.146,0.063,0.203c0.041,0.058,0.096,0.107,0.164,0.15s0.148,0.079,0.238,0.11s0.186,0.058,0.283,0.081
				c0.137,0.033,0.273,0.071,0.406,0.115c0.133,0.045,0.25,0.104,0.355,0.178c0.105,0.073,0.189,0.167,0.254,0.279
				c0.063,0.113,0.096,0.257,0.096,0.431s-0.033,0.323-0.096,0.447c-0.064,0.124-0.154,0.228-0.268,0.31
				c-0.115,0.082-0.254,0.143-0.414,0.18s-0.338,0.057-0.531,0.057c-0.189,0-0.385-0.018-0.584-0.055
				c-0.201-0.035-0.387-0.1-0.561-0.191c0-0.117-0.002-0.236-0.002-0.356c-0.002-0.12-0.004-0.239-0.004-0.361H88.102z"/>
			<path d="M93.572,34.575c0,0.245-0.031,0.474-0.094,0.683c-0.063,0.211-0.154,0.393-0.277,0.549s-0.277,0.277-0.461,0.363
				c-0.184,0.088-0.396,0.131-0.639,0.131c-0.266,0-0.492-0.041-0.684-0.123c-0.189-0.082-0.346-0.197-0.467-0.347
				s-0.211-0.329-0.268-0.538c-0.057-0.21-0.086-0.444-0.086-0.703c0-0.236,0.027-0.461,0.082-0.674
				c0.053-0.213,0.141-0.399,0.262-0.561c0.121-0.16,0.277-0.287,0.467-0.383c0.191-0.096,0.422-0.143,0.693-0.143
				c0.275,0,0.508,0.047,0.695,0.143c0.189,0.096,0.34,0.223,0.455,0.381c0.115,0.159,0.197,0.344,0.246,0.556
				S93.572,34.342,93.572,34.575z M93.002,34.59c0-0.16-0.012-0.322-0.035-0.484s-0.066-0.307-0.133-0.435
				c-0.064-0.128-0.156-0.231-0.275-0.313c-0.117-0.08-0.27-0.12-0.457-0.12c-0.186,0-0.34,0.037-0.461,0.113
				c-0.121,0.075-0.219,0.176-0.289,0.302s-0.119,0.271-0.146,0.435c-0.027,0.164-0.041,0.334-0.041,0.507
				c0,0.423,0.072,0.745,0.219,0.966c0.145,0.222,0.385,0.332,0.719,0.332c0.158,0,0.293-0.033,0.406-0.101s0.207-0.159,0.279-0.275
				c0.074-0.116,0.129-0.254,0.162-0.413C92.984,34.945,93.002,34.773,93.002,34.59z"/>
			<path d="M96.934,35.03c0,0.388-0.107,0.695-0.326,0.923c-0.217,0.229-0.553,0.343-1.008,0.343c-0.236,0-0.438-0.028-0.605-0.087
				c-0.168-0.057-0.307-0.14-0.414-0.248c-0.109-0.108-0.188-0.241-0.238-0.398c-0.051-0.158-0.076-0.336-0.076-0.532v-1.768h-0.291
				v-0.378h1.156v0.378h-0.334v1.763c0,0.289,0.068,0.504,0.209,0.646c0.139,0.142,0.34,0.212,0.602,0.212
				c0.256,0,0.453-0.068,0.594-0.207c0.143-0.138,0.213-0.354,0.213-0.65v-1.763h-0.33v-0.378h1.15v0.378h-0.301V35.03z"/>
			<path d="M98.463,34.811v1.067h0.379v0.378h-1.234v-0.378h0.316v-2.615h-0.316v-0.378h1.539c0.344,0,0.609,0.082,0.797,0.246
				s0.279,0.4,0.279,0.709c0,0.078-0.01,0.162-0.029,0.25c-0.02,0.09-0.053,0.176-0.1,0.26c-0.049,0.083-0.111,0.158-0.189,0.227
				c-0.078,0.066-0.176,0.118-0.291,0.154l0.531,1.162l0.363,0.049v0.291c-0.064,0.025-0.141,0.045-0.229,0.059
				c-0.086,0.013-0.158,0.02-0.213,0.02c-0.119,0-0.205-0.026-0.26-0.078c-0.057-0.053-0.107-0.129-0.154-0.227l-0.525-1.195H98.463
				z M99.658,33.84c0-0.105-0.016-0.194-0.049-0.269s-0.076-0.134-0.131-0.181c-0.055-0.046-0.117-0.078-0.191-0.098
				c-0.074-0.021-0.15-0.03-0.229-0.03h-0.596v1.18h0.596c0.064,0,0.133-0.009,0.203-0.024c0.07-0.017,0.137-0.047,0.195-0.092
				c0.059-0.044,0.107-0.105,0.145-0.182C99.639,34.066,99.658,33.965,99.658,33.84z"/>
			<path d="M101.393,34.58c0,0.197,0.016,0.373,0.049,0.531c0.033,0.156,0.09,0.291,0.17,0.402s0.188,0.197,0.324,0.256
				s0.307,0.089,0.514,0.089c0.043,0,0.096-0.002,0.16-0.005c0.064-0.004,0.131-0.01,0.203-0.02s0.146-0.021,0.223-0.035
				c0.074-0.013,0.145-0.029,0.211-0.049l0.088,0.383c-0.064,0.027-0.139,0.05-0.219,0.069c-0.08,0.021-0.164,0.037-0.252,0.052
				c-0.09,0.015-0.178,0.026-0.27,0.034c-0.09,0.009-0.176,0.013-0.258,0.013c-0.285,0-0.523-0.043-0.717-0.131
				c-0.193-0.086-0.348-0.206-0.465-0.358s-0.199-0.333-0.25-0.544c-0.051-0.209-0.076-0.438-0.076-0.683
				c0-0.187,0.021-0.384,0.066-0.593c0.043-0.207,0.123-0.397,0.238-0.57c0.113-0.172,0.271-0.314,0.471-0.428
				c0.201-0.112,0.455-0.169,0.768-0.169c0.184,0,0.348,0.013,0.492,0.04c0.143,0.025,0.271,0.059,0.383,0.098v0.855h-0.393v-0.516
				c-0.076-0.021-0.154-0.034-0.236-0.043c-0.082-0.008-0.16-0.012-0.232-0.012c-0.176,0-0.326,0.031-0.451,0.096
				s-0.227,0.154-0.307,0.271c-0.082,0.116-0.141,0.257-0.178,0.421C101.412,34.198,101.393,34.381,101.393,34.58z"/>
			<path d="M103.703,36.256v-0.378h0.334v-2.61h-0.324v-0.379h2.547v0.881h-0.395v-0.502h-1.287v1.057l1.195-0.024v0.389
				l-1.195-0.021v1.21h1.352v-0.521h0.402v0.898H103.703z"/>
			<path d="M107.057,35.337l0.004,0.403c0.121,0.056,0.244,0.094,0.369,0.115s0.24,0.032,0.35,0.032c0.127,0,0.238-0.017,0.334-0.05
				c0.094-0.032,0.174-0.074,0.236-0.125s0.107-0.109,0.139-0.177s0.047-0.136,0.047-0.204c0-0.102-0.018-0.184-0.057-0.246
				c-0.037-0.062-0.09-0.113-0.156-0.152c-0.068-0.039-0.146-0.072-0.236-0.1c-0.09-0.028-0.189-0.057-0.297-0.087
				c-0.15-0.032-0.293-0.073-0.424-0.122c-0.131-0.05-0.246-0.109-0.344-0.18s-0.176-0.156-0.232-0.258
				c-0.059-0.102-0.086-0.224-0.086-0.364c0.002-0.161,0.035-0.302,0.098-0.425s0.146-0.227,0.252-0.308
				c0.107-0.082,0.232-0.145,0.375-0.187c0.143-0.043,0.297-0.064,0.465-0.064c0.07,0,0.15,0.004,0.234,0.01
				c0.086,0.007,0.172,0.018,0.26,0.032c0.086,0.015,0.172,0.036,0.258,0.063c0.084,0.028,0.164,0.062,0.234,0.102l0.006,0.703
				h-0.398l-0.004-0.408c-0.076-0.033-0.17-0.057-0.283-0.069s-0.215-0.02-0.303-0.02c-0.086,0-0.166,0.011-0.242,0.032
				c-0.078,0.021-0.145,0.053-0.203,0.096c-0.057,0.043-0.104,0.096-0.137,0.16c-0.035,0.063-0.053,0.137-0.053,0.219
				c0,0.078,0.021,0.146,0.063,0.203c0.041,0.058,0.096,0.107,0.164,0.15s0.148,0.079,0.238,0.11s0.186,0.058,0.283,0.081
				c0.137,0.033,0.273,0.071,0.406,0.115c0.133,0.045,0.25,0.104,0.355,0.178c0.105,0.073,0.189,0.167,0.254,0.279
				c0.063,0.113,0.096,0.257,0.096,0.431s-0.033,0.323-0.096,0.447c-0.064,0.124-0.154,0.228-0.268,0.31
				c-0.115,0.082-0.254,0.143-0.414,0.18s-0.338,0.057-0.531,0.057c-0.189,0-0.385-0.018-0.584-0.055
				c-0.201-0.035-0.387-0.1-0.561-0.191c0-0.117-0.002-0.236-0.002-0.356c-0.002-0.12-0.004-0.239-0.004-0.361H107.057z"/>
			<path d="M113.918,34.575c0,0.245-0.031,0.474-0.094,0.683c-0.063,0.211-0.154,0.393-0.277,0.549s-0.277,0.277-0.461,0.363
				c-0.184,0.088-0.396,0.131-0.639,0.131c-0.266,0-0.492-0.041-0.684-0.123c-0.189-0.082-0.346-0.197-0.467-0.347
				s-0.211-0.329-0.268-0.538c-0.057-0.21-0.086-0.444-0.086-0.703c0-0.236,0.027-0.461,0.082-0.674
				c0.053-0.213,0.141-0.399,0.262-0.561c0.121-0.16,0.277-0.287,0.467-0.383c0.191-0.096,0.422-0.143,0.693-0.143
				c0.275,0,0.508,0.047,0.695,0.143c0.189,0.096,0.34,0.223,0.455,0.381c0.115,0.159,0.197,0.344,0.246,0.556
				S113.918,34.342,113.918,34.575z M113.348,34.59c0-0.16-0.012-0.322-0.035-0.484s-0.066-0.307-0.133-0.435
				c-0.064-0.128-0.156-0.231-0.275-0.313c-0.117-0.08-0.27-0.12-0.457-0.12c-0.186,0-0.34,0.037-0.461,0.113
				c-0.121,0.075-0.219,0.176-0.289,0.302s-0.119,0.271-0.146,0.435c-0.027,0.164-0.041,0.334-0.041,0.507
				c0,0.423,0.072,0.745,0.219,0.966c0.145,0.222,0.385,0.332,0.719,0.332c0.158,0,0.293-0.033,0.406-0.101s0.207-0.159,0.279-0.275
				c0.074-0.116,0.129-0.254,0.162-0.413C113.33,34.945,113.348,34.773,113.348,34.59z"/>
			<path d="M114.369,36.256v-0.378h0.336v-2.61h-0.326v-0.379h2.557v0.881h-0.402v-0.502h-1.289v1.057l1.195-0.024v0.389
				l-1.195-0.021v1.21h0.469v0.378H114.369z"/>
			<path d="M121.557,35.03c0,0.388-0.109,0.695-0.326,0.923c-0.217,0.229-0.555,0.343-1.008,0.343c-0.236,0-0.438-0.028-0.607-0.087
				c-0.168-0.057-0.307-0.14-0.414-0.248s-0.188-0.241-0.238-0.398c-0.051-0.158-0.076-0.336-0.076-0.532v-1.768h-0.289v-0.378
				h1.154v0.378h-0.334v1.763c0,0.289,0.07,0.504,0.209,0.646s0.34,0.212,0.602,0.212c0.256,0,0.455-0.068,0.596-0.207
				c0.141-0.138,0.211-0.354,0.211-0.65v-1.763h-0.328v-0.378h1.148v0.378h-0.299V35.03z"/>
			<path d="M123.863,34.211l1.119,1.667h0.285v0.378h-1.203l-0.006-0.378h0.311l-0.895-1.337l-0.395,0.373v0.969h0.311v0.373h-1.166
				v-0.373h0.326v-2.63h-0.326v-0.364h1.17v0.364h-0.314v1.175l1.23-1.17H124v-0.369h1.166v0.369h-0.285L123.863,34.211z"/>
			<path d="M126.418,34.811v1.067h0.379v0.378h-1.234v-0.378h0.316v-2.615h-0.316v-0.378h1.539c0.344,0,0.609,0.082,0.797,0.246
				s0.279,0.4,0.279,0.709c0,0.078-0.01,0.162-0.029,0.25c-0.02,0.09-0.053,0.176-0.1,0.26c-0.049,0.083-0.111,0.158-0.189,0.227
				c-0.078,0.066-0.176,0.118-0.291,0.154l0.531,1.162l0.363,0.049v0.291c-0.064,0.025-0.141,0.045-0.229,0.059
				c-0.086,0.013-0.158,0.02-0.213,0.02c-0.119,0-0.205-0.026-0.26-0.078c-0.057-0.053-0.107-0.129-0.154-0.227l-0.525-1.195
				H126.418z M127.613,33.84c0-0.105-0.016-0.194-0.049-0.269s-0.076-0.134-0.131-0.181c-0.055-0.046-0.117-0.078-0.191-0.098
				c-0.074-0.021-0.15-0.03-0.229-0.03h-0.596v1.18h0.596c0.064,0,0.133-0.009,0.203-0.024c0.07-0.017,0.137-0.047,0.195-0.092
				c0.059-0.044,0.107-0.105,0.145-0.182C127.594,34.066,127.613,33.965,127.613,33.84z"/>
			<path d="M131.043,35.878c-0.025-0.085-0.055-0.178-0.088-0.28c-0.033-0.102-0.063-0.192-0.088-0.271h-1.264
				c-0.023,0.068-0.051,0.154-0.084,0.259c-0.033,0.104-0.063,0.201-0.088,0.292h0.334v0.378h-1.131v-0.378h0.275l1.018-2.993h0.674
				c0.16,0.486,0.326,0.986,0.496,1.496c0.17,0.511,0.336,1.01,0.496,1.497h0.275v0.378h-1.15v-0.378H131.043z M130.754,34.949
				c-0.066-0.223-0.133-0.442-0.201-0.66c-0.07-0.217-0.141-0.437-0.213-0.658c-0.012-0.049-0.025-0.099-0.041-0.147
				s-0.029-0.099-0.047-0.147h-0.01l-0.094,0.299c-0.029,0.089-0.063,0.189-0.098,0.302c-0.037,0.112-0.074,0.229-0.113,0.349
				s-0.076,0.236-0.113,0.353c-0.035,0.116-0.066,0.22-0.094,0.312H130.754z"/>
			<path d="M132.307,36.256v-0.378h0.32v-2.615h-0.32v-0.378h1.186v0.378h-0.324v2.615h0.324v0.378H132.307z"/>
			<path d="M136.58,35.426v-2.158h-0.34v-0.379h1.17v0.379h-0.324v2.988h-0.521l-0.787-1.214c-0.098-0.15-0.197-0.302-0.297-0.454
				s-0.199-0.308-0.297-0.465c-0.049-0.078-0.098-0.158-0.148-0.238c-0.049-0.08-0.1-0.16-0.152-0.238c-0.002,0-0.004,0-0.004,0.002
				s-0.002,0.002-0.006,0.002v2.228h0.334c0,0.063,0.002,0.126,0.004,0.188c0.002,0.064,0.002,0.127,0.002,0.189h-1.18
				c0-0.063-0.002-0.125-0.002-0.189c-0.002-0.063-0.004-0.125-0.004-0.188h0.34c0-0.438,0-0.874,0.002-1.306
				s0.004-0.866,0.004-1.305h-0.34v-0.379h0.914c0.158,0.246,0.295,0.462,0.41,0.646c0.117,0.186,0.223,0.35,0.318,0.494l0.545,0.86
				c0.055,0.089,0.111,0.177,0.166,0.266c0.057,0.089,0.113,0.179,0.168,0.271H136.58z"/>
			<path d="M137.826,36.256v-0.378h0.336v-2.61h-0.326v-0.379h2.547v0.881h-0.393v-0.502h-1.289v1.057l1.195-0.024v0.389
				l-1.195-0.021v1.21h1.354v-0.521h0.402v0.898H137.826z"/>
		</g>
	</g>
	<path fill-rule="evenodd" clip-rule="evenodd" d="M84.563,12.791c0,1.963,0,3.923,0,5.882c-0.919,0-2.753,0-2.753,0
		s-0.046-3.117,0-3.126c0.045-0.008-13.247,0-13.247,0l-0.016,2.501h6.869l0.012-1.498h2.754c0,0,0,3.791,0,6.001
		c-0.917,0-1.835,0-2.754,0c0-0.666,0-1.334,0-2.002c-2.251,0-6.865,0-6.865,0l-0.016,3.002c0,0,8.841,0,13.262,0
		c0-1.209,0-2.418,0-3.627c0.917,0,1.834,0,2.753,0c0,2.125,0,4.254,0,6.383c-7.84,0-23.524,0-23.524,0v-2.756h4.63v-8.005h-4.63
		c0,0,0-1.838,0-2.756C68.878,12.791,76.723,12.791,84.563,12.791z"/>
	<path fill-rule="evenodd" clip-rule="evenodd" d="M124.496,12.791c0,0.918,0,1.837,0,2.756c-1.543,0-3.342,0-4.885,0
		c-0.006,1.068-0.145,5.472,0.379,6.63c0.442,0.979,1.744,1.4,3.129,1.502c2.531,0.184,7.408,0.475,8.883-1.002
		c0.848-0.846,0.499-7.13,0.499-7.13c-1.501,0-3.001,0-4.501,0c0-0.919,0-1.838,0-2.756c4.086,0,8.174,0,12.26,0
		c0,0.918,0,1.837,0,2.756c-1.543,0-3.087,0-4.629,0c0,0,0.006,4.501-0.183,6.392c-0.16,1.621-0.716,2.963-2.444,3.742
		c-2.922,1.316-11.481,1.391-14.264-0.25c-2.902-1.713-1.837-5.869-2.097-9.884c-1.504,0-2.823-0.035-4.323-0.035l0.037-2.721
		C116.406,12.791,120.451,12.791,124.496,12.791z"/>
	<path fill-rule="evenodd" clip-rule="evenodd" d="M112.127,22.552c-0.596,1.215-1.579,1.613-2.642,1.613
		c-2.322,0-4.092-2.068-4.865-3.49c3.575,0,5.601-1.652,5.601-4.092c0-3.805-3.812-3.765-5.413-3.765
		c-1.69,0-17.956-0.027-17.956-0.027v2.756l4.255,0.013c0,0,0,5.368,0,7.993c-1.419,0-2.836,0-4.255,0c0,0.92,0,1.836,0,2.756
		c4.004,0,8.008,0,12.013,0c0-0.92,0-1.836,0-2.756c-1.545,0-4.629,0-4.629,0l0.005-2.877l6.499,0.031
		c0.896,1.379,1.437,2.301,2.255,3.35c2.749,3.52,10.936,4.154,11.633-1.252L112.127,22.552z M101.241,18.298
		c-2.595,0-7.006,0-7.006,0v-2.751c0,0,4.612,0,7.257,0c1.943,0,5.503-0.385,5.503,1.435
		C106.995,18.624,103.294,18.298,101.241,18.298z"/>
	
		<radialGradient id="SVGID_1_" cx="53.1758" cy="36.5264" r="46.8414" gradientTransform="matrix(0.9848 -0.1736 0.1736 0.9848 -10.2715 -8.2495)" gradientUnits="userSpaceOnUse">
		<stop  offset="0" style="stop-color:#6DCFF6"/>
		<stop  offset="0.4356" style="stop-color:#4A8ECC"/>
		<stop  offset="0.8098" style="stop-color:#3069B3"/>
		<stop  offset="0.8118" style="stop-color:#306AB3"/>
		<stop  offset="0.8809" style="stop-color:#3F7DC0"/>
		<stop  offset="0.9379" style="stop-color:#4789C8"/>
		<stop  offset="0.9755" style="stop-color:#4A8ECC"/>
	</radialGradient>
	<path fill="url(#SVGID_1_)" d="M38.204,1.003c0,0-31.108,5.484-31.438,5.543S6.344,6.773,6.28,6.861
		c-2.333,3.069-3.931,6.686-4.598,10.56c0,0,0.163-0.029,0.466-0.084c4.712-0.829,43.58-7.683,43.948-7.748
		c0.392-0.068,0.392-0.404,0.299-0.557c-1.94-3.227-4.593-5.928-7.706-7.924C38.61,1.058,38.204,1.003,38.204,1.003z"/>
	
		<radialGradient id="SVGID_2_" cx="53.8931" cy="34.3691" r="47.2831" gradientTransform="matrix(0.9848 -0.1736 0.1736 0.9848 -10.2715 -8.2495)" gradientUnits="userSpaceOnUse">
		<stop  offset="0.2147" style="stop-color:#6DCFF6"/>
		<stop  offset="0.3865" style="stop-color:#4A8ECC"/>
		<stop  offset="0.8466" style="stop-color:#3069B3"/>
		<stop  offset="0.8481" style="stop-color:#306AB3"/>
		<stop  offset="0.9019" style="stop-color:#3F7DC0"/>
		<stop  offset="0.9462" style="stop-color:#4789C8"/>
		<stop  offset="0.9755" style="stop-color:#4A8ECC"/>
	</radialGradient>
	<path fill="url(#SVGID_2_)" d="M44.432,36.335c0,0-31.107,5.484-31.437,5.541c-0.328,0.059-0.473-0.066-0.565-0.127
		c-3.24-2.086-5.979-4.938-7.93-8.352c0,0,0.161-0.029,0.464-0.082c4.712-0.83,43.581-7.684,43.948-7.75
		c0.393-0.066,0.508,0.248,0.471,0.422c-0.718,3.695-2.287,7.143-4.531,10.084C44.797,36.144,44.432,36.335,44.432,36.335z"/>
	
		<linearGradient id="SVGID_3_" gradientUnits="userSpaceOnUse" x1="10.7368" y1="27.0625" x2="38.7303" y2="30.5616" gradientTransform="matrix(0.9848 -0.1736 0.1736 0.9848 -10.2715 -8.2495)">
		<stop  offset="0" style="stop-color:#FFE600"/>
		<stop  offset="1" style="stop-color:#FFCB05"/>
	</linearGradient>
	<polygon fill="url(#SVGID_3_)" points="1.682,17.421 12.235,18.899 34.487,14.975 28.95,12.613 	"/>
	<radialGradient id="SVGID_4_" cx="36.0015" cy="19.562" r="34.9046" gradientUnits="userSpaceOnUse">
		<stop  offset="0" style="stop-color:#6DCFF6"/>
		<stop  offset="0.2454" style="stop-color:#4A8ECC"/>
		<stop  offset="0.7485" style="stop-color:#3069B3"/>
		<stop  offset="0.7511" style="stop-color:#306AB3"/>
		<stop  offset="0.8458" style="stop-color:#3F7DC0"/>
		<stop  offset="0.924" style="stop-color:#4789C8"/>
		<stop  offset="0.9755" style="stop-color:#4A8ECC"/>
	</radialGradient>
	<path fill="url(#SVGID_4_)" d="M35.833,19.728c-0.294-1.656-0.748-3.247-1.346-4.752L1.342,20.821
		c-0.046,1.617,0.069,3.266,0.362,4.924c0.22,1.254,0.536,2.471,0.937,3.641c0.085,0.254,0.181,0.502,0.276,0.752
		c0.094,0.145,0.208,0.246,0.357,0.318l0.997-0.174l31.92-5.631C36.24,23.034,36.124,21.386,35.833,19.728z"/>
	
		<linearGradient id="SVGID_5_" gradientUnits="userSpaceOnUse" x1="12.2832" y1="42.2539" x2="43.292" y2="41.842" gradientTransform="matrix(0.9848 -0.1736 0.1736 0.9848 -10.2715 -8.2495)">
		<stop  offset="0" style="stop-color:#FFCB05"/>
		<stop  offset="0.4847" style="stop-color:#FFE600"/>
		<stop  offset="0.9755" style="stop-color:#FFCB05"/>
	</linearGradient>
	<path fill="url(#SVGID_5_)" d="M36.192,24.651l-31.92,5.631l-0.997,0.174c0.099,0.049,0.21,0.092,0.349,0.125l0.646,0.092
		l8.596,1.25l36.133-6.371L36.192,24.651z"/>
</g>
</svg>
