<?xml version="1.0" encoding="UTF-8"?> <!-- Generator: Adobe Illustrator 22.1.0, SVG Export Plug-In . SVG Version: 6.00 Build 0) --> <svg xmlns="http://www.w3.org/2000/svg" xmlns:xlink="http://www.w3.org/1999/xlink" id="Layer_1" x="0px" y="0px" viewBox="0 0 323.2 57.4" style="enable-background:new 0 0 323.2 57.4;" xml:space="preserve"> <style type="text/css"> .st0{fill:#FFFFFF;} </style> <g> <path class="st0" d="M164.8,33.1c0.5,0,2.4-0.1,3.6-0.8c1.4-0.9,1.5-2.4,1.5-3.4v-4.8c0-1-0.1-2.4-1.3-3.4c-0.8-0.6-2-0.9-3.8-0.9 h-18.3v20.7h5.7c0,0,0-6.5,0-7.4h3.9c0.3,0.2,8.2,7.4,8.2,7.4h8.5c0,0-7.6-6-9.3-7.4C164.2,33.1,164.8,33.1,164.8,33.1z M152.3,28.6v-4.4c0.9,0,10.6,0,10.6,0c0.9,0,1.2,0.2,1.3,0.3c0.3,0.2,0.3,0.5,0.3,0.8v2.2c0,0.5,0,0.7-0.3,0.8 c-0.2,0.1-0.5,0.2-1.4,0.2C162.7,28.6,153.2,28.6,152.3,28.6z"></path> <path class="st0" d="M94.3,30c0.9,0,11.1,0,11.1,0v-5.1c0,0-10.2,0-11.1,0v-4.4c0.9,0,19,0,19,0v-5.1H87.8v25h25.8V35 c0,0-18.3,0-19.3,0V30z"></path> <path class="st0" d="M136.3,35.7h-12.9c0-0.9,0-16,0-16h-5.7v15.7c0,0.9,0,2.8,1.3,4c0.8,0.7,2.2,1.1,4.3,1.1h13.1 c2.2,0,3.6-0.3,4.4-1.1c0.8-0.8,1.3-2.1,1.3-3.9V19.7h-5.7C136.3,19.7,136.3,34.8,136.3,35.7z"></path> <path class="st0" d="M318.7,19.7c0,0-8.8,11.1-9.5,12c-0.7-0.9-9.5-12-9.5-12h-4.5v20.7h5.7c0,0,0-9.7,0-11.9 c1.4,1.8,7.5,9.5,7.5,9.5h1.4c0,0,6.1-7.7,7.5-9.5c0,2.2,0,11.9,0,11.9h5.7V19.7H318.7z"></path> <path class="st0" d="M274,32c0.9,0,9.6,0,9.6,0v-4.5c0,0-8.7,0-9.6,0v-3.3c0.9,0,16.4,0,16.4,0v-4.5h-22.2v20.7h22.4v-4.7 c0,0-15.7,0-16.6,0V32z"></path> <path class="st0" d="M195.4,19.7H180c-2.1,0-3.4,0.3-4.2,1.1c-1.2,1.1-1.2,3.2-1.2,4.1v10.4c0,0.8,0,2.9,1.1,4 c0.8,0.8,2.3,1.2,4.5,1.2h15.2c1.6,0,3.4-0.1,4.5-1.2c1.1-1.2,1.1-3.1,1.1-3.7V24.9c0-0.9,0-2.9-1.1-4 C198.6,19.7,196.3,19.7,195.4,19.7z M195.2,35.7h-15V24.5h15V35.7z"></path> <path class="st0" d="M257.8,27.3h-14.2c0-0.9,0-7.5,0-7.5h-5.7v20.7h5.7c0,0,0-7.4,0-8.3h14.2c0,0.9,0,8.3,0,8.3h5.7V19.7h-5.7 C257.8,19.7,257.8,26.4,257.8,27.3z"></path> <path class="st0" d="M226.5,15.4h-14.4c-1.4,0-3.6,0-5,1.3c-1.5,1.4-1.5,3.8-1.5,4.9v12.7c0,1,0,3.5,1.5,4.9c1.4,1.3,3.6,1.3,5,1.3 h14.4c1.4,0,3.6,0,5-1.3c1.5-1.4,1.5-3.8,1.5-4.9V31h-6.6c0,0,0,3.3,0,4.1h-14.1V20.8h14.1c0,0.7,0,3.7,0,3.7h6.6v-2.9 c0-1,0-3.5-1.5-4.9C230.2,15.4,227.9,15.4,226.5,15.4z"></path> <polygon class="st0" points="26.3,0 0,28.7 26.3,57.4 2.8,28.7 11,28.7 30.4,5 "></polygon> <path class="st0" d="M66,28.7h-8L34.4,0v21c-4.3,0-7.7,3.5-7.7,7.7H11l23.5,28.7V36.3c-3.6-0.7-6.2-3.8-6.2-7.6c0-4,3.1-7.3,7-7.7 c3.9,0.4,7,3.7,7,7.7h15.6L38.5,52.5l4.1,4.9l26.3-28.7L42.6,0L66,28.7z"></path> </g> </svg> 