<?xml version="1.0" encoding="UTF-8" standalone="no"?>
<!DOCTYPE svg PUBLIC "-//W3C//DTD SVG 1.1//EN" "http://www.w3.org/Graphics/SVG/1.1/DTD/svg11.dtd">
<svg width="100%" height="100%" viewBox="0 0 1250 417" version="1.1" xmlns="http://www.w3.org/2000/svg" xmlns:xlink="http://www.w3.org/1999/xlink" xml:space="preserve" xmlns:serif="http://www.serif.com/" style="fill-rule:evenodd;clip-rule:evenodd;stroke-linejoin:round;stroke-miterlimit:2;">
    <g transform="matrix(4.16667,0,0,4.16667,-120.833,-147.917)">
        <g transform="matrix(1,0,0,1,-4.08,-0.24)">
            <path d="M84.004,60.448L73.082,60.448C69.832,60.448 67.203,57.815 67.203,54.57L67.203,43.647C67.203,40.404 69.832,37.771 73.082,37.771L84.004,37.771C87.25,37.771 89.88,40.404 89.88,43.647L89.88,54.57C89.88,57.815 87.25,60.448 84.004,60.448Z" style="fill:rgb(7,116,187);fill-rule:nonzero;"/>
        </g>
        <g transform="matrix(1,0,0,1,-4.08,-0.24)">
            <path d="M55.749,84.932L43.462,84.932C39.812,84.932 36.85,81.979 36.85,78.322L36.85,66.031C36.85,62.383 39.812,59.42 43.462,59.42L55.749,59.42C59.401,59.42 62.362,62.383 62.362,66.031L62.362,78.322C62.362,81.979 59.401,84.932 55.749,84.932Z" style="fill:rgb(112,39,133);fill-rule:nonzero;"/>
        </g>
        <g transform="matrix(1,0,0,1,-4.08,-0.24)">
            <path d="M54.579,110.435L47.075,110.435C44.844,110.435 43.031,108.629 43.031,106.394L43.031,98.893C43.031,96.654 44.844,94.845 47.075,94.845L54.579,94.845C56.811,94.845 58.621,96.654 58.621,98.893L58.621,106.394C58.621,108.629 56.811,110.435 54.579,110.435Z" style="fill:rgb(173,45,145);fill-rule:nonzero;"/>
        </g>
        <g transform="matrix(1,0,0,1,-4.08,-0.24)">
            <path d="M74.729,134.149L65.855,134.149C63.218,134.149 61.08,132.016 61.08,129.374L61.08,120.5C61.08,117.858 63.218,115.724 65.855,115.724L74.729,115.724C77.367,115.724 79.505,117.858 79.505,120.5L79.505,129.374C79.505,132.016 77.367,134.149 74.729,134.149Z" style="fill:rgb(237,52,148);fill-rule:nonzero;"/>
        </g>
        <g transform="matrix(1,0,0,1,-4.08,-0.24)">
            <path d="M107.248,64.917L101.1,64.917C99.273,64.917 97.794,63.433 97.794,61.612L97.794,55.472C97.794,53.645 99.273,52.161 101.1,52.161L107.248,52.161C109.074,52.161 110.55,53.645 110.55,55.472L110.55,61.612C110.55,63.433 109.074,64.917 107.248,64.917Z" style="fill:rgb(237,52,148);fill-rule:nonzero;"/>
        </g>
        <g transform="matrix(1,0,0,1,-4.08,-0.24)">
            <path d="M241.788,69.021C243.742,69.021 245.324,67.439 245.324,65.48C245.324,63.523 243.742,61.934 241.788,61.934C239.832,61.934 238.237,63.523 238.237,65.48C238.237,67.439 239.832,69.021 241.788,69.021Z" style="fill:rgb(0,78,153);fill-rule:nonzero;"/>
        </g>
        <g transform="matrix(1,0,0,1,-4.08,-0.24)">
            <path d="M112.46,106.813C111.913,107.635 111.022,108.046 110.063,108.046C109.516,108.046 108.899,107.909 108.419,107.635C107.666,107.155 107.118,106.129 107.118,105.101C107.118,104.621 107.255,104.141 107.529,103.731L115.748,90.788L107.529,77.844C107.255,77.433 107.118,76.885 107.118,76.405C107.118,75.447 107.598,74.419 108.489,73.939C108.967,73.666 109.448,73.529 109.995,73.529C110.954,73.529 111.913,73.939 112.46,74.762L119.172,85.377L125.952,74.762C126.5,73.939 127.459,73.529 128.418,73.529C128.966,73.529 129.446,73.666 129.923,73.939C130.815,74.419 131.293,75.447 131.293,76.405C131.293,76.885 131.157,77.433 130.882,77.844L122.664,90.788L130.882,103.731C131.157,104.141 131.293,104.621 131.293,105.101C131.293,106.129 130.746,107.155 129.993,107.635C129.514,107.909 128.897,108.046 128.349,108.046C127.391,108.046 126.5,107.635 125.952,106.813L119.172,96.267L112.46,106.813Z" style="fill:rgb(0,78,153);fill-rule:nonzero;"/>
        </g>
        <g transform="matrix(1,0,0,1,-4.08,-0.24)">
            <path d="M153.541,78.941C146.966,78.941 141.761,84.145 141.761,90.788C141.761,97.363 146.966,102.567 153.541,102.567C160.186,102.567 165.389,97.363 165.389,90.788C165.389,84.145 160.186,78.941 153.541,78.941ZM141.761,77.57C144.843,74.762 149.021,73.05 153.541,73.05C163.405,73.05 171.281,80.927 171.281,90.788C171.281,100.515 163.405,108.389 153.541,108.389C149.021,108.389 144.843,106.676 141.761,103.869L141.761,119.005C141.761,120.511 140.392,121.812 138.818,121.812C137.378,121.812 135.941,120.511 135.941,119.005L135.941,76.131C135.941,74.626 137.378,73.324 138.818,73.324C140.392,73.324 141.761,74.626 141.761,76.131L141.761,77.57Z" style="fill:rgb(0,78,153);fill-rule:nonzero;"/>
        </g>
        <g transform="matrix(1,0,0,1,-4.08,-0.24)">
            <path d="M221.422,87.569L221.422,105.306C221.422,106.813 219.983,108.114 218.545,108.114C216.969,108.114 215.6,106.813 215.6,105.306L215.6,76.131C215.6,74.625 216.969,73.324 218.545,73.324C219.916,73.324 221.352,74.556 221.422,75.995C223.819,74.146 226.901,73.118 230.256,73.05C232.106,73.05 233.474,74.488 233.474,75.926C233.474,77.501 232.038,78.94 230.256,78.94C225.668,79.076 221.422,80.721 221.422,87.569Z" style="fill:rgb(0,78,153);fill-rule:nonzero;"/>
        </g>
        <g transform="matrix(1,0,0,1,-4.08,-0.24)">
            <path d="M241.829,73.324C240.254,73.324 238.885,74.625 238.885,76.131L238.885,105.306C238.885,106.813 240.254,108.114 241.829,108.114C243.268,108.114 244.705,106.813 244.705,105.306L244.705,76.131C244.705,74.625 243.268,73.324 241.829,73.324Z" style="fill:rgb(0,78,153);fill-rule:nonzero;"/>
        </g>
        <g transform="matrix(1,0,0,1,-4.08,-0.24)">
            <path d="M267.237,102.499C273.812,102.499 279.02,97.294 279.02,90.651C279.02,84.076 273.812,78.872 267.237,78.872C260.594,78.872 255.391,84.076 255.391,90.651C255.391,97.294 260.594,102.499 267.237,102.499ZM279.02,76.131C279.02,74.625 280.387,73.324 281.963,73.324C283.402,73.324 284.84,74.625 284.84,76.131L284.84,105.306C284.84,106.813 283.402,108.114 281.963,108.114C280.387,108.114 279.02,106.813 279.02,105.306L279.02,103.868C275.87,106.675 271.758,108.387 267.237,108.387C257.375,108.387 249.499,100.514 249.499,90.651C249.499,80.927 257.375,73.05 267.237,73.05C271.758,73.05 275.87,74.762 279.02,77.571L279.02,76.131Z" style="fill:rgb(0,78,153);fill-rule:nonzero;"/>
        </g>
        <g transform="matrix(1,0,0,1,-4.08,-0.24)">
            <path d="M314.495,87.911C314.495,83.05 310.248,78.803 305.385,78.803C300.66,78.803 296.276,80.721 296.276,87.569L296.276,105.306C296.276,106.813 294.838,108.114 293.399,108.114C291.823,108.114 290.455,106.813 290.455,105.306L290.455,76.131C290.455,74.625 291.823,73.324 293.399,73.324C294.769,73.324 296.207,74.556 296.276,75.995C298.743,74.076 301.893,73.05 305.315,73.05C313.26,73.05 320.315,79.283 320.315,87.089L320.315,105.306C320.315,106.813 318.879,108.114 317.44,108.114C315.864,108.114 314.495,106.813 314.495,105.306L314.495,87.911Z" style="fill:rgb(0,78,153);fill-rule:nonzero;"/>
        </g>
        <g transform="matrix(1,0,0,1,-4.08,-0.24)">
            <path d="M87.898,78.872C93.209,78.872 97.621,82.28 99.127,87.029L76.599,87.029C78.105,82.28 82.523,78.872 87.898,78.872ZM105.498,89.693C105.362,80.721 97.35,73.05 87.898,73.05C78.035,73.05 70.16,80.927 70.16,90.651C70.16,100.514 78.035,108.387 87.898,108.387C92.623,108.387 97.008,106.539 100.158,103.389C100.774,102.841 101.185,102.019 101.185,101.197C101.185,99.623 99.814,98.253 98.239,98.253C97.35,98.253 96.527,98.801 95.911,99.418C93.924,101.54 90.98,102.499 87.898,102.499C82.009,102.499 77.218,98.463 76.187,92.849L102.623,92.849C102.643,92.849 102.661,92.842 102.68,92.842L102.76,92.842C102.809,92.837 102.858,92.821 102.908,92.813C103.009,92.798 103.11,92.784 103.207,92.754C104.455,92.419 105.498,91.225 105.498,89.693Z" style="fill:rgb(0,78,153);fill-rule:nonzero;"/>
        </g>
        <g transform="matrix(1,0,0,1,-4.08,-0.24)">
            <path d="M193.071,78.872C198.38,78.872 202.794,82.28 204.301,87.029L181.77,87.029C183.276,82.28 187.694,78.872 193.071,78.872ZM210.672,89.693C210.534,80.721 202.521,73.05 193.071,73.05C183.207,73.05 175.329,80.927 175.329,90.651C175.329,100.514 183.207,108.387 193.071,108.387C197.795,108.387 202.179,106.539 205.329,103.389C205.946,102.841 206.356,102.019 206.356,101.197C206.356,99.623 204.987,98.253 203.413,98.253C202.521,98.253 201.698,98.801 201.082,99.418C199.096,101.54 196.151,102.499 193.071,102.499C187.182,102.499 182.389,98.463 181.359,92.849L207.75,92.849C207.768,92.849 207.788,92.842 207.805,92.842L207.931,92.842C208.01,92.836 208.087,92.811 208.165,92.795C208.205,92.787 208.246,92.784 208.286,92.772C209.575,92.474 210.672,91.262 210.672,89.693Z" style="fill:rgb(0,78,153);fill-rule:nonzero;"/>
        </g>
        <g transform="matrix(1,0,0,1,-4.08,-0.24)">
            <path d="M330.229,105.006C330.229,106.424 329.01,107.578 327.512,107.578C326.046,107.578 324.854,106.424 324.854,105.006C324.854,103.587 326.046,102.433 327.512,102.433C329.01,102.433 330.229,103.587 330.229,105.006ZM327.512,101.821C325.732,101.821 324.227,103.279 324.227,105.006C324.227,106.732 325.732,108.19 327.512,108.19C329.328,108.19 330.805,106.762 330.805,105.006C330.805,103.249 329.328,101.821 327.512,101.821Z" style="fill:rgb(0,78,153);fill-rule:nonzero;"/>
        </g>
        <g transform="matrix(1,0,0,1,-4.08,-0.24)">
            <path d="M327.964,104.266C327.964,104.272 327.959,104.828 327.446,104.828L327.167,104.828L327.167,103.727L327.446,103.727C327.959,103.727 327.964,104.244 327.964,104.266ZM328.048,105.304C328.405,105.088 328.616,104.705 328.616,104.266C328.616,103.601 328.11,103.099 327.437,103.099L326.963,103.099C326.704,103.099 326.517,103.302 326.517,103.582L326.517,106.574C326.517,106.747 326.664,106.888 326.846,106.888C327.03,106.888 327.167,106.753 327.167,106.574L327.167,105.464L327.414,105.464L327.999,106.713C328.047,106.82 328.157,106.888 328.278,106.888C328.33,106.888 328.386,106.875 328.425,106.856C328.541,106.811 328.616,106.703 328.616,106.582C328.616,106.544 328.616,106.501 328.59,106.448L328.048,105.304Z" style="fill:rgb(0,78,153);fill-rule:nonzero;"/>
        </g>
    </g>
</svg>