<?xml version="1.0" encoding="utf-8"?>
<!-- Generator: Adobe Illustrator 28.1.0, SVG Export Plug-In . SVG Version: 6.00 Build 0)  -->
<svg version="1.1" id="Laag_1" xmlns="http://www.w3.org/2000/svg" xmlns:xlink="http://www.w3.org/1999/xlink" x="0px" y="0px"
	 viewBox="0 0 642 215" style="enable-background:new 0 0 642 215;" xml:space="preserve" width="642" height="215">
<style type="text/css">
	.st0{fill:#FFFFFF;}
	.st1{fill-rule:evenodd;clip-rule:evenodd;fill:#FFFFFF;}
</style>
<g>
	<path class="st0" d="M476.3,106.9c-25.9,0-46.9-20.3-46.9-45.4s21-45.4,46.9-45.4h94.9v19.7h-90.2c-14.6,0-26.5,11.5-26.5,25.7
		c0,14.2,11.9,25.7,26.5,25.7h90.2v19.7H476.3z M180.2,60.2H98.9v-21h103l20.4-19.8H75.1V107h23.8V80h61L180.2,60.2L180.2,60.2z
		 M399.6,60.2L399.6,60.2l-41.2,0l41.2-40.2V60.2L399.6,60.2z M269.2,20.1l0,40.1h-41.2L269.2,20.1z M389,0l-95.2,92.6V0h-35.3
		L132.1,123.1h31.3l44.2-43h61.6v43h24.6L338,80h61.6v43h24.6V0L389,0L389,0z"/>
	<path class="st1" d="M642,150.5H0v2.6h642V150.5z"/>
	<path class="st0" d="M95.5,180.5v5.6h-13v8h12.3v5.6H82.4v9.1H96v5.6H75.1v-33.8H95.5z M110.7,180.5l8.9,23.1h0.1v-23.1h6.7v33.8
		H118l-9-23.7h-0.1v23.7h-6.7v-33.8L110.7,180.5L110.7,180.5z M155.4,180.5v5.6h-8v28.2h-7.4v-28.2h-8v-5.6H155.4L155.4,180.5z
		 M161.1,180.5h13.6c3.1,0,5.5,0.7,7.1,2.1c1.7,1.4,2.5,3.6,2.5,6.6c0,2.3-0.5,4.1-1.5,5.6c-1,1.4-2.5,2.4-4.6,2.8v0.1
		c1.3,0.1,2.3,0.5,3,0.9c0.8,0.4,1.3,1,1.8,1.8c0.4,0.8,0.7,1.8,0.8,3.1c0.1,1.2,0.2,2.8,0.3,4.5c0,1.8,0.1,3.2,0.4,4.1
		c0.2,1,0.6,1.6,1.3,1.9v0.3h-8c-0.4-0.5-0.6-1-0.7-1.6c-0.1-0.6-0.2-1.3-0.2-1.9l-0.2-6.5c-0.1-1.3-0.4-2.4-1.1-3.1
		c-0.7-0.8-1.7-1.1-3.2-1.1h-3.9v14.3h-7.3V180.5L161.1,180.5z M168.4,195.3h3.1c1.8,0,3.1-0.4,4.1-1.2c1-0.8,1.4-2.1,1.4-3.9
		c0-3.1-1.7-4.7-5.1-4.7h-3.5V195.3L168.4,195.3z M200.1,201.6h7.1l-3.5-15.2h-0.1L200.1,201.6L200.1,201.6z M199.1,180.5h9.1
		l9.6,33.8h-7.7l-1.7-7.2h-9.7l-1.7,7.2h-7.6L199.1,180.5z M231.4,180.5l8.9,23.1h0.1v-23.1h6.7v33.8h-8.4l-9-23.7h-0.1v23.7h-6.7
		v-33.8L231.4,180.5L231.4,180.5z M270.4,191.9c0-2.5-0.3-4.2-0.9-5.4c-0.6-1.1-1.8-1.7-3.5-1.7c-0.9,0-1.7,0.2-2.3,0.7
		c-0.6,0.5-1.1,1.2-1.4,2.2c-0.4,1-0.6,2.4-0.7,4c-0.1,1.7-0.2,3.7-0.2,6.1c0,2.5,0.1,4.6,0.3,6.2c0.2,1.6,0.5,2.8,0.9,3.7
		c0.4,0.9,0.9,1.5,1.5,1.8c0.6,0.3,1.3,0.5,2.1,0.5c0.7,0,1.3-0.1,1.8-0.3c0.6-0.2,1.1-0.6,1.5-1.2c0.4-0.6,0.8-1.5,1-2.6
		c0.2-1.1,0.4-2.6,0.4-4.4h7.4c0,1.8-0.2,3.6-0.5,5.2c-0.3,1.6-0.9,3.1-1.7,4.3c-0.8,1.3-2,2.2-3.5,3c-1.5,0.7-3.5,1.1-5.9,1.1
		c-2.8,0-5-0.4-6.6-1.3c-1.6-0.9-2.9-2.1-3.8-3.6c-0.9-1.5-1.4-3.4-1.7-5.5c-0.3-2.2-0.4-4.5-0.4-7.1c0-2.6,0.1-4.9,0.4-7.1
		c0.3-2.2,0.8-4,1.7-5.5c0.9-1.6,2.2-2.8,3.8-3.6c1.6-0.9,3.8-1.3,6.6-1.3c2.6,0,4.7,0.4,6.2,1.2c1.5,0.8,2.6,1.8,3.4,3
		c0.8,1.2,1.2,2.5,1.4,3.9c0.2,1.4,0.3,2.7,0.3,4L270.4,191.9L270.4,191.9L270.4,191.9z M305.1,180.5v5.6h-13v8h12.3v5.6h-12.3v9.1
		h13.5v5.6h-20.9v-33.8H305.1L305.1,180.5z M332.6,203.7v1c0,0.8,0.1,1.5,0.2,2.1c0.1,0.7,0.4,1.2,0.8,1.6c0.4,0.4,0.9,0.8,1.5,1
		s1.4,0.4,2.4,0.4c1.1,0,2.1-0.4,3-1c0.9-0.7,1.4-1.7,1.4-3.1c0-0.8-0.1-1.4-0.4-2c-0.2-0.6-0.6-1.1-1.1-1.5c-0.5-0.4-1.2-0.8-2-1.2
		c-0.8-0.4-1.9-0.7-3.1-1.1c-1.6-0.5-3-1.1-4.2-1.7c-1.2-0.6-2.2-1.3-3-2.1c-0.8-0.8-1.4-1.7-1.8-2.8c-0.4-1.1-0.6-2.3-0.6-3.7
		c0-3.4,1-5.8,3-7.5c2-1.6,4.8-2.5,8.3-2.5c1.6,0,3.1,0.2,4.5,0.5c1.4,0.3,2.6,0.9,3.6,1.6c1,0.8,1.8,1.7,2.4,2.8
		c0.6,1.1,0.9,2.5,0.9,4.1v1h-7c0-1.6-0.3-2.8-0.9-3.7c-0.6-0.9-1.6-1.3-3.1-1.3c-0.8,0-1.5,0.1-2,0.3c-0.5,0.2-1,0.5-1.3,0.9
		c-0.3,0.4-0.5,0.8-0.7,1.3c-0.1,0.5-0.2,1-0.2,1.5c0,1,0.3,1.9,0.7,2.6s1.5,1.4,3.1,2l5.7,2.3c1.4,0.6,2.5,1.1,3.4,1.8
		c0.9,0.6,1.6,1.3,2.1,2c0.5,0.7,0.9,1.5,1.1,2.4c0.2,0.9,0.3,1.8,0.3,2.8c0,3.6-1.1,6.2-3.4,7.9c-2.2,1.7-5.3,2.5-9.3,2.5
		c-4.1,0-7.1-0.9-8.9-2.6c-1.8-1.7-2.7-4.1-2.7-7.3v-1.4L332.6,203.7L332.6,203.7L332.6,203.7z M354.9,197.4c0-2.6,0.1-4.9,0.4-7.1
		c0.2-2.2,0.8-4,1.7-5.5c0.9-1.5,2.1-2.8,3.8-3.6c1.6-0.9,3.8-1.3,6.6-1.3c2.8,0,5,0.4,6.6,1.3c1.6,0.9,2.9,2.1,3.8,3.6
		c0.9,1.5,1.4,3.4,1.7,5.5c0.2,2.2,0.4,4.5,0.4,7.1c0,2.5-0.1,4.9-0.4,7.1c-0.3,2.1-0.8,4-1.7,5.5c-0.9,1.5-2.1,2.8-3.8,3.6
		c-1.6,0.9-3.8,1.3-6.6,1.3c-2.8,0-5-0.4-6.6-1.3c-1.6-0.9-2.9-2.1-3.8-3.6c-0.9-1.5-1.4-3.4-1.7-5.5
		C355,202.3,354.9,199.9,354.9,197.4z M362.3,197.4c0,2.3,0.1,4.2,0.2,5.8c0.1,1.6,0.4,2.9,0.7,3.9c0.4,1,0.9,1.7,1.5,2.2
		c0.7,0.5,1.5,0.7,2.6,0.7s2-0.2,2.6-0.7c0.7-0.5,1.2-1.2,1.5-2.2c0.4-1,0.6-2.3,0.7-3.9c0.1-1.6,0.2-3.5,0.2-5.8s0-4.2-0.2-5.8
		c-0.1-1.6-0.4-2.9-0.7-3.9c-0.4-1-0.9-1.7-1.5-2.2c-0.7-0.5-1.5-0.7-2.6-0.7s-2,0.2-2.6,0.7c-0.7,0.5-1.2,1.2-1.5,2.2
		c-0.4,1-0.6,2.3-0.7,3.9C362.3,193.2,362.3,195.1,362.3,197.4z M386.6,214.3v-33.8h7.4v28.2h13v5.6H386.6L386.6,214.3z
		 M419.7,180.5v23.6c0,0.9,0,1.6,0.2,2.4c0.1,0.7,0.3,1.3,0.7,1.9c0.3,0.5,0.8,0.9,1.3,1.2c0.5,0.3,1.3,0.5,2.1,0.5
		c0.9,0,1.6-0.1,2.1-0.5c0.6-0.3,1-0.7,1.3-1.2c0.3-0.5,0.5-1.1,0.7-1.9c0.1-0.7,0.2-1.5,0.2-2.4v-23.6h7.3v23.6
		c0,2.1-0.3,3.9-1,5.3c-0.6,1.4-1.5,2.5-2.6,3.3c-1.1,0.8-2.3,1.4-3.7,1.7c-1.4,0.3-2.8,0.5-4.3,0.5c-1.5,0-2.9-0.1-4.3-0.4
		c-1.4-0.3-2.6-0.8-3.7-1.6c-1.1-0.8-2-1.9-2.6-3.3c-0.7-1.4-1-3.2-1-5.5v-23.6L419.7,180.5L419.7,180.5z M464.1,180.5v5.6h-8v28.2
		h-7.3v-28.2h-8v-5.6H464.1z M470.2,214.3v-33.8h7.3v33.8H470.2z M484.8,197.4c0-2.6,0.1-4.9,0.4-7.1c0.3-2.2,0.8-4,1.7-5.5
		c0.9-1.5,2.1-2.8,3.8-3.6c1.6-0.9,3.8-1.3,6.6-1.3c2.8,0,5,0.4,6.6,1.3c1.6,0.9,2.9,2.1,3.8,3.6c0.9,1.5,1.4,3.4,1.7,5.5
		c0.3,2.2,0.4,4.5,0.4,7.1c0,2.5-0.1,4.9-0.4,7.1c-0.2,2.1-0.8,4-1.7,5.5c-0.9,1.5-2.1,2.8-3.8,3.6c-1.6,0.9-3.8,1.3-6.6,1.3
		c-2.8,0-5-0.4-6.6-1.3c-1.6-0.9-2.9-2.1-3.8-3.6c-0.9-1.5-1.4-3.4-1.7-5.5C484.9,202.3,484.8,199.9,484.8,197.4z M492.1,197.4
		c0,2.3,0.1,4.2,0.2,5.8c0.1,1.6,0.4,2.9,0.7,3.9c0.4,1,0.9,1.7,1.5,2.2c0.7,0.5,1.5,0.7,2.6,0.7c1.1,0,2-0.2,2.6-0.7
		c0.7-0.5,1.2-1.2,1.5-2.2c0.4-1,0.6-2.3,0.7-3.9c0.1-1.6,0.2-3.5,0.2-5.8s-0.1-4.2-0.2-5.8c-0.1-1.6-0.3-2.9-0.7-3.9
		c-0.4-1-0.9-1.7-1.5-2.2c-0.7-0.5-1.5-0.7-2.6-0.7c-1.1,0-2,0.2-2.6,0.7c-0.7,0.5-1.2,1.2-1.5,2.2c-0.3,1-0.6,2.3-0.7,3.9
		C492.2,193.2,492.1,195.1,492.1,197.4z M525,180.5l8.9,23.1h0.1v-23.1h6.7v33.8h-8.4l-9-23.7h-0.1v23.7h-6.7v-33.8L525,180.5
		L525,180.5z M554.3,203.7v1c0,0.8,0,1.5,0.2,2.1c0.1,0.7,0.4,1.2,0.8,1.6c0.4,0.4,0.9,0.8,1.5,1c0.6,0.3,1.4,0.4,2.4,0.4
		c1.1,0,2.1-0.4,3-1c0.9-0.7,1.3-1.7,1.3-3.1c0-0.8-0.1-1.4-0.3-2c-0.2-0.5-0.6-1.1-1.1-1.5c-0.5-0.4-1.2-0.8-2-1.2
		c-0.8-0.4-1.9-0.7-3.1-1.1c-1.6-0.5-3-1.1-4.2-1.7c-1.2-0.6-2.2-1.3-3-2.1s-1.4-1.7-1.8-2.8c-0.4-1.1-0.6-2.3-0.6-3.7
		c0-3.4,1-5.8,3-7.5c2-1.6,4.8-2.5,8.2-2.5c1.6,0,3.2,0.2,4.5,0.5c1.4,0.3,2.6,0.9,3.6,1.6c1,0.8,1.8,1.7,2.3,2.8
		c0.5,1.1,0.8,2.5,0.8,4.1v1h-7c0-1.6-0.3-2.8-0.9-3.7c-0.6-0.9-1.6-1.3-3.1-1.3c-0.8,0-1.5,0.1-2.1,0.3c-0.5,0.2-1,0.5-1.3,0.9
		c-0.3,0.4-0.5,0.8-0.7,1.3c-0.1,0.5-0.2,1-0.2,1.5c0,1,0.2,1.9,0.7,2.6c0.5,0.7,1.5,1.4,3.1,2l5.7,2.3c1.4,0.6,2.5,1.1,3.4,1.8
		c0.9,0.6,1.6,1.3,2.1,2c0.5,0.7,0.9,1.5,1.1,2.4c0.2,0.9,0.3,1.8,0.3,2.8c0,3.6-1.1,6.2-3.3,7.9c-2.2,1.7-5.3,2.5-9.3,2.5
		c-4.2,0-7.1-0.9-8.9-2.6c-1.8-1.7-2.7-4.1-2.7-7.3v-1.4L554.3,203.7L554.3,203.7L554.3,203.7z"/>
</g>
</svg>
