<?xml version="1.0" encoding="utf-8"?>
<!-- Generator: Adobe Illustrator 19.1.1, SVG Export Plug-In . SVG Version: 6.00 Build 0)  -->
<svg version="1.1" id="Layer_1" xmlns="http://www.w3.org/2000/svg" xmlns:xlink="http://www.w3.org/1999/xlink" x="0px" y="0px"
	 viewBox="0 0 94 35.2" style="enable-background:new 0 0 94 35.2;" xml:space="preserve">
<style type="text/css">
	.st0{fill:#FFFFFF;}
	.st1{fill:#00417C;}
</style>
<ellipse class="st0" cx="47" cy="17.6" rx="47" ry="17.4"/>
<g>
	<path class="st1" d="M65.3,19c-0.8-0.4-2.1,0.3-3.2,1.7c-0.9,1.1-1.4,2.3-1.4,3.4c0,0.4,0.1,0.9,0.5,1.1c0.8,0.4,1.8-0.2,2.5-0.8
		c0.5-0.4,0.8-0.8,1.2-1.3c0.4-0.5,0.6-0.9,0.9-1.5c0-0.1,0-0.1,0-0.1c-0.1,0-0.2-0.1-0.2-0.2c0,0,0-0.1,0-0.2
		C65.9,20.4,66.2,19.4,65.3,19z"/>
	<path class="st1" d="M47,2.9C23,2.9,3.5,9.5,3.5,17.6C3.5,25.7,23,32.4,47,32.4c24,0,43.5-6.6,43.5-14.7C90.5,9.5,71,2.9,47,2.9z
		 M24.7,27.3c-2.6,0-4.8-1.6-5.1-4.3c-0.1-1.5,0.3-2.9,1.1-4c0.8-1,2.1-1.8,3.2-2c0.4-0.1,0.8,0,1,0.2c0.3,0.4,0.2,0.8-0.1,0.9
		c-0.8,0.4-1.8,1.2-2.3,2.2c-0.4,0.8-0.5,1.8,0.1,2.7c1,1.6,3.9,1.6,6.6-0.9c0.7-0.6,1.3-1.2,1.9-1.9c1.2-1.3,1.6-1.8,3.1-4
		c0,0,0-0.1,0-0.1c0,0,0,0-0.1,0c-1,0-2,0.3-2.8,1c-0.3,0.2-0.6,0.2-0.8-0.1c-0.2-0.3-0.1-0.6,0.2-0.8c1.4-1,3-1.2,4.6-1.4
		c0,0,0.1,0,0.2-0.1c0.7-0.8,1.1-1.6,1.8-2.4c0.7-0.9,1.6-1.6,2.3-2.2c1-0.8,1.6-1.1,2.2-1.5c0.2-0.1,0-0.2-0.1-0.2
		c-3.5-0.7-7.2-1.5-10.6-0.2c-2.4,0.9-3.5,2.8-3,4.1c0.4,0.9,1.6,1.1,2.7,0.5c0.9-0.5,1.8-1.2,2.4-2.1c0.3-0.5,1.1-0.1,0.7,0.8
		c-1,2.4-3,4.3-5.3,4.4c-2,0.1-3.3-1.4-3.3-3.3c0-3.6,4-6,8.3-6.4c5.1-0.4,9.9,0.9,15,1.5c3.9,0.5,7.6,0.5,11.5-0.4
		c0.5-0.1,0.8,0.2,0.8,0.7c0,0.7-0.6,1.3-1.8,2c-1.5,0.8-3,1-4.6,1.1c-3.9,0-7.4-1.5-11.2-2.3c0,0.2,0,0.4-0.1,0.5
		c-2.1,1.5-3.9,3.1-5.2,5.2c0,0.1,0,0.1,0.1,0.1c1.1-0.1,2.1-0.1,3.1-0.2c0.2,0,0.2-0.1,0.2-0.2c-0.1-0.7,0.1-1.6,0.8-2.2
		c0.7-0.6,1.5-0.7,2.1-0.2c0.6,0.5,0.6,1.4,0.2,2c-0.4,0.7-0.9,1-1.5,1.2c0,0-0.1,0-0.1,0.1c0,0.2,0.8,0.6,0.9,0.7
		c0.1,0.1,0,0.3-0.1,0.4c-0.1,0.1-0.2,0.2-0.4,0.2c-0.1,0-0.2,0-0.4-0.1c-0.3-0.2-0.8-0.5-1.1-0.8c-0.1-0.1-0.1-0.1-0.4-0.1
		c-1.1,0.1-2.8,0.2-4,0.4c-0.3,0-0.3,0.1-0.4,0.2c-1.8,3-3.8,6.3-6,8.5C28.6,26.7,26.7,27.3,24.7,27.3z M74.6,12.6
		c-0.4,0.6-7.2,11.1-7.7,12.2c-0.1,0.3-0.2,0.6,0,0.8c0.4,0.5,1.2,0.2,1.7-0.1c1.5-1,2.5-2.3,3.7-3.4c0.1,0,0.2-0.1,0.3,0
		c0.2,0.2,0.4,0.4,0.6,0.5c0.1,0.1,0,0.2,0,0.2c-1.1,1.4-2.4,2.7-3.5,3.6c-1.8,1.4-3.7,1.8-4.6,0.9c-0.3-0.3-0.5-0.8-0.5-1.2
		c0-0.2-0.1-0.2-0.2-0.1c-1.1,1.1-3,2.3-4.7,1.4c-1.4-0.7-1.8-2.4-1.5-3.9c0,0,0-0.2-0.2-0.1c-0.3,0.2-0.7,0.5-1.2,0.6
		c-0.6,0.2-0.9,0.3-1.4,0.3c-0.7,0-1.3-0.3-1.8-1c-0.2-0.4-0.3-0.9-0.4-1.4c0,0-0.1-0.1-0.1,0c-1.2,1.8-2.3,3.5-3.4,5.3
		c-0.1,0.1-0.1,0.1-0.2,0.1c-0.7,0-1.5,0-2.3,0c-0.1,0-0.2-0.1-0.1-0.2c0.4-0.8,2.6-4,4.2-6.8c0.4-0.8,0.3-1.2,0.1-1.3
		c-0.3-0.2-1,0.1-1.5,0.5c-1.5,1.1-2.7,2.9-3.4,3.7c-0.4,0.5-0.7,1.1-1.7,2.2C43,27,40.9,28,39,27.3c-1.1-0.4-1.8-1.2-2.1-2.3
		c-0.1-0.2-0.2-0.3-0.3-0.1c-0.3,0.4-1,1-1.5,1.3c-0.1,0-0.2,0.1-0.3,0.1c-0.1-0.1-0.5-0.6-0.6-0.8c-0.1-0.1,0-0.3,0.1-0.3
		c0.8-0.7,1.2-1.1,1.5-1.5c0.2-0.3,0.4-0.7,0.7-1.2c0.5-1.2,1.5-3.4,3.7-4.5c0.8-0.4,1.6-0.7,2.6-0.9c0.4,0,0.7,0,0.8,0.3
		c0,0.1,0.2,0.4,0.2,0.6c0,0.1,0,0.2-0.1,0.3c-1.3,0.5-2.5,1.2-3.4,2.4c-1,1.3-1.3,2.9-0.6,3.8c0.5,0.7,1.3,0.8,2,0.5
		c1.1-0.4,2.1-1.4,2.6-2.6c0.5-1.3,0.6-2.8,0.2-4.1c-0.1-0.2,0-0.4,0.1-0.5c0.3-0.2,0.7-0.4,0.8-0.5c0.3-0.1,0.6,0,0.7,0.2
		c0.4,0.6,0.6,1.5,0.7,2.4c0,0.2,0.1,0.2,0.2,0.1c0.7-0.8,1.4-1.6,2.2-2.3c0.7-0.6,1.6-1,2.5-1c1.1,0,1.7,0.8,1.6,2.1
		c0,0.2,0.1,0.2,0.2,0c0.3-0.5,0.6-0.7,0.9-1c0.8-0.6,1.6-0.9,2.4-0.9c1,0.1,1.8,1,1.7,2.1c-0.1,0.7-0.5,1.3-1.1,1.6
		c-0.5,0.3-1.2,0.2-1.6-0.2c-0.4-0.3-0.5-0.8-0.4-1.3c0-0.1-0.1-0.2-0.2-0.1c-1,1-1.1,2.4-0.4,3c0.7,0.7,1.8,0.2,2.6-0.3
		c1.4-0.9,2.5-2.2,3.8-3.2c0.9-0.6,1.8-1.2,2.9-1.4c0.6-0.1,1.2,0,1.8,0.2c0.8,0.3,1.3,1,1.3,1.5c0,0.2,0.1,0.2,0.2,0
		c0.6-1,3.9-5.9,4.2-6.5c0.1-0.2,0.2-0.2,0.3-0.2c0.7,0,1.7,0,2.4,0C74.6,12.4,74.7,12.5,74.6,12.6z"/>
	<path class="st1" d="M42.4,14c0.4-0.1,0.7-0.4,1-0.7c0.2-0.3,0.3-0.7,0.1-0.9c-0.2-0.2-0.5-0.1-0.7,0.1c-0.4,0.4-0.6,0.9-0.5,1.4
		C42.3,14,42.3,14,42.4,14z"/>
	<path class="st1" d="M47,0C20.9,0,0,7.8,0,17.6c0,9.7,21.1,17.6,47,17.6c25.9,0,47-7.9,47-17.6C94,7.9,72.9,0,47,0z M47,33.7
		c-24.9,0-45-7.2-45-16.1C2,8.7,22.1,1.5,47,1.5c24.9,0,45,7.2,45,16.1C92,26.5,71.9,33.7,47,33.7z"/>
</g>
</svg>
