<?xml version="1.0" encoding="utf-8"?>
<!-- Generator: Adobe Illustrator 24.0.0, SVG Export Plug-In . SVG Version: 6.00 Build 0)  -->
<svg version="1.1" id="Capa_1" xmlns="http://www.w3.org/2000/svg" xmlns:xlink="http://www.w3.org/1999/xlink" x="0px" y="0px"
	 width="413.2px" height="138px" viewBox="0 0 413.2 138" style="enable-background:new 0 0 413.2 138;" xml:space="preserve">
<style type="text/css">
	.st0{fill:#4C4C4C;}
	.st1{fill:#939597;}
	.st2{fill-rule:evenodd;clip-rule:evenodd;fill:#006696;}
	.st3{fill:#006696;}
</style>
<g>
	<path class="st0" d="M6.8,123.8v-19.1H17l-0.3,2.1H9.5v6.5h6.2v2.1H9.5v8.4H6.8z"/>
	<path class="st0" d="M33.4,117.7c0,1.3-0.3,2.4-0.8,3.4c-0.5,1-1.3,1.7-2.3,2.3c-1,0.5-2.2,0.8-3.6,0.8c-2.1,0-3.8-0.6-4.9-1.8
		c-1.2-1.2-1.7-2.7-1.7-4.7v-13h2.6v12.8c0,1.5,0.3,2.6,1,3.3c0.7,0.7,1.7,1.1,3,1.1c1.4,0,2.4-0.4,3-1.1c0.7-0.7,1-1.8,1-3.3v-12.8
		h2.7V117.7z"/>
	<path class="st0" d="M51.7,123.8h-3.5l-7.8-16.2c0.1,1.3,0.2,2.5,0.3,3.5c0.1,1.1,0.1,2.4,0.1,3.9v8.8h-2.5v-19.1h3.4l7.8,16.2
		c-0.1-0.5-0.1-1.3-0.2-2.5c-0.1-1.2-0.1-2.3-0.1-3.3v-10.4h2.5V123.8z"/>
	<path class="st0" d="M67.7,106.7c1.7,1.3,2.6,3.8,2.6,7.4c0,3.5-0.9,6-2.6,7.5c-1.7,1.4-3.9,2.2-6.4,2.2h-4.6v-19.1h4
		C63.6,104.7,65.9,105.4,67.7,106.7z M59.4,106.8v14.9h2.1c1.8,0,3.2-0.5,4.3-1.6c1.1-1.1,1.7-3.1,1.7-5.9c0-2-0.3-3.6-0.9-4.6
		c-0.6-1.1-1.3-1.8-2.2-2.2c-0.9-0.4-1.9-0.5-3.1-0.5H59.4z"/>
	<path class="st0" d="M84.4,123.8l-1.4-4.8h-7.2l-1.4,4.8h-2.7l6.1-19.1h3.3l6.1,19.1H84.4z M76.3,116.8h6l-3-10L76.3,116.8z"/>
	<path class="st0" d="M99.3,104.8c0.8,0.3,1.6,0.8,2.4,1.4l-1.4,1.7c-1.2-0.9-2.4-1.4-3.7-1.4c-1.6,0-2.9,0.6-3.8,1.8
		c-1,1.2-1.5,3.2-1.5,5.9c0,2.6,0.5,4.6,1.4,5.8c1,1.2,2.2,1.9,3.8,1.9c0.8,0,1.5-0.1,2.1-0.4c0.6-0.3,1.3-0.7,1.9-1.2l1.3,1.7
		c-0.6,0.6-1.3,1.1-2.3,1.5c-0.9,0.4-2,0.6-3.2,0.6c-1.6,0-2.9-0.4-4.1-1.1c-1.2-0.8-2.2-1.9-2.8-3.4c-0.7-1.5-1-3.3-1-5.4
		c0-2.1,0.4-3.9,1.1-5.4c0.7-1.5,1.7-2.6,2.9-3.4c1.2-0.8,2.5-1.1,4-1.1C97.5,104.4,98.5,104.5,99.3,104.8z"/>
	<path class="st0" d="M107.7,104.7v19.1H105v-19.1H107.7z"/>
	<path class="st0" d="M124.1,105.5c1.2,0.8,2.2,1.9,2.8,3.4c0.7,1.5,1,3.3,1,5.4c0,2.1-0.3,3.8-1,5.3c-0.7,1.5-1.6,2.6-2.8,3.4
		c-1.2,0.8-2.6,1.2-4.2,1.2c-1.6,0-3-0.4-4.2-1.1c-1.2-0.8-2.2-1.9-2.8-3.4c-0.7-1.5-1-3.3-1-5.3c0-2.1,0.3-3.8,1-5.3
		c0.7-1.5,1.6-2.6,2.8-3.4c1.2-0.8,2.6-1.2,4.2-1.2C121.4,104.4,122.8,104.7,124.1,105.5z M115.9,108.4c-0.9,1.3-1.4,3.2-1.4,5.9
		c0,2.6,0.5,4.6,1.4,5.8c0.9,1.2,2.2,1.9,3.9,1.9c3.5,0,5.3-2.6,5.3-7.7c0-5.2-1.8-7.7-5.3-7.7C118.2,106.5,116.9,107.1,115.9,108.4
		z M122,98.5l1.1,2.1l-6,2.2l-0.7-1.4L122,98.5z"/>
	<path class="st0" d="M145.3,123.8h-3.5l-7.8-16.2c0.1,1.3,0.2,2.5,0.3,3.5c0.1,1.1,0.1,2.4,0.1,3.9v8.8h-2.5v-19.1h3.4l7.8,16.2
		c-0.1-0.5-0.1-1.3-0.2-2.5c-0.1-1.2-0.1-2.3-0.1-3.3v-10.4h2.5V123.8z"/>
	<path class="st0" d="M161.5,104.7v19.1h-2.6v-19.1H161.5z"/>
	<path class="st0" d="M178.2,115.1c0.8,0.7,1.2,1.8,1.2,3.3c0,3.6-2.5,5.4-7.6,5.4h-5.3v-19.1h4.5c2.4,0,4.3,0.4,5.6,1.2
		c1.3,0.8,1.9,2,1.9,3.6c0,1.1-0.3,2-1,2.8c-0.7,0.7-1.5,1.2-2.5,1.4C176.3,113.9,177.4,114.4,178.2,115.1z M169.2,106.8v6h2.9
		c1.1,0,2-0.3,2.7-0.8c0.7-0.5,1.1-1.3,1.1-2.3c0-1.1-0.4-1.9-1.1-2.3c-0.7-0.4-1.9-0.6-3.4-0.6H169.2z M175.4,121
		c0.8-0.5,1.2-1.3,1.2-2.6c0-1.3-0.4-2.2-1.2-2.7c-0.8-0.6-1.8-0.8-3.1-0.8h-3.1v6.9h2.6C173.4,121.7,174.6,121.4,175.4,121z"/>
	<path class="st0" d="M193.6,104.7l-0.3,2.1h-7.4v6.2h6.4v2.1h-6.4v6.5h7.9v2.1h-10.6v-19.1H193.6z"/>
	<path class="st0" d="M203.1,115.7h-3v8.1h-2.6v-19.1h5c2.4,0,4.2,0.5,5.4,1.4c1.2,0.9,1.8,2.3,1.8,4c0,1.3-0.3,2.4-1,3.2
		c-0.7,0.8-1.7,1.5-3.1,1.9l5.2,8.6h-3.1L203.1,115.7z M202.7,113.7c1.4,0,2.4-0.3,3.1-0.8c0.7-0.6,1.1-1.5,1.1-2.7
		c0-1.2-0.4-2-1.1-2.6c-0.7-0.5-1.9-0.8-3.4-0.8h-2.4v6.9H202.7z"/>
	<path class="st0" d="M225,105.5c1.2,0.8,2.2,1.9,2.8,3.4c0.7,1.5,1,3.3,1,5.4c0,2.1-0.3,3.8-1,5.3c-0.7,1.5-1.6,2.6-2.8,3.4
		c-1.2,0.8-2.6,1.2-4.2,1.2c-1.6,0-3-0.4-4.2-1.1c-1.2-0.8-2.2-1.9-2.8-3.4c-0.7-1.5-1-3.3-1-5.3c0-2.1,0.3-3.8,1-5.3
		c0.7-1.5,1.6-2.6,2.8-3.4c1.2-0.8,2.6-1.2,4.2-1.2C222.4,104.4,223.8,104.7,225,105.5z M216.9,108.4c-0.9,1.3-1.4,3.2-1.4,5.9
		c0,2.6,0.5,4.6,1.4,5.8c0.9,1.2,2.2,1.9,3.9,1.9c3.5,0,5.3-2.6,5.3-7.7c0-5.2-1.8-7.7-5.3-7.7C219.1,106.5,217.8,107.1,216.9,108.4
		z"/>
	<path class="st0" d="M242.9,123.8l-1.4-4.8h-7.2l-1.4,4.8h-2.7l6.1-19.1h3.3l6.1,19.1H242.9z M234.9,116.8h6l-3-10L234.9,116.8z"/>
	<path class="st0" d="M266.3,123.8h-2.5l-0.7-8.6c-0.3-3.4-0.4-6-0.5-7.8l-4.1,14.2H256l-4.3-14.3c0,2.3-0.1,5-0.4,8l-0.6,8.4h-2.5
		l1.6-19.1h3.5l4,13.9l3.8-13.9h3.6L266.3,123.8z"/>
	<path class="st0" d="M280.8,104.7l-0.3,2.1h-7.4v6.2h6.4v2.1h-6.4v6.5h7.9v2.1h-10.6v-19.1H280.8z"/>
	<path class="st0" d="M290.3,115.7h-3v8.1h-2.6v-19.1h5c2.4,0,4.2,0.5,5.4,1.4c1.2,0.9,1.8,2.3,1.8,4c0,1.3-0.3,2.4-1,3.2
		c-0.7,0.8-1.7,1.5-3.1,1.9l5.2,8.6h-3.1L290.3,115.7z M290,113.7c1.4,0,2.4-0.3,3.1-0.8c0.7-0.6,1.1-1.5,1.1-2.7
		c0-1.2-0.4-2-1.1-2.6c-0.7-0.5-1.9-0.8-3.4-0.8h-2.4v6.9H290z"/>
	<path class="st0" d="M303.9,104.7v19.1h-2.6v-19.1H303.9z"/>
	<path class="st0" d="M318.8,104.8c0.8,0.3,1.6,0.8,2.4,1.4l-1.4,1.7c-1.2-0.9-2.4-1.4-3.7-1.4c-1.6,0-2.9,0.6-3.8,1.8
		c-1,1.2-1.5,3.2-1.5,5.9c0,2.6,0.5,4.6,1.4,5.8c1,1.2,2.2,1.9,3.8,1.9c0.8,0,1.5-0.1,2.1-0.4c0.6-0.3,1.3-0.7,1.9-1.2l1.3,1.7
		c-0.6,0.6-1.3,1.1-2.3,1.5c-0.9,0.4-2,0.6-3.2,0.6c-1.6,0-2.9-0.4-4.1-1.1c-1.2-0.8-2.2-1.9-2.8-3.4c-0.7-1.5-1-3.3-1-5.4
		c0-2.1,0.4-3.9,1.1-5.4c0.7-1.5,1.7-2.6,2.9-3.4c1.2-0.8,2.5-1.1,4-1.1C317,104.4,318,104.5,318.8,104.8z"/>
	<path class="st0" d="M335.8,123.8l-1.4-4.8h-7.2l-1.4,4.8H323l6.1-19.1h3.3l6.1,19.1H335.8z M327.7,116.8h6l-3-10L327.7,116.8z"/>
	<path class="st0" d="M354.9,123.8h-3.5l-7.8-16.2c0.1,1.3,0.2,2.5,0.3,3.5c0.1,1.1,0.1,2.4,0.1,3.9v8.8h-2.5v-19.1h3.4l7.8,16.2
		c-0.1-0.5-0.1-1.3-0.2-2.5c-0.1-1.2-0.1-2.3-0.1-3.3v-10.4h2.5V123.8z"/>
	<path class="st0" d="M370.7,123.8l-1.4-4.8H362l-1.4,4.8h-2.7l6.1-19.1h3.3l6.1,19.1H370.7z M362.6,116.8h6l-3-10L362.6,116.8z"/>
</g>
<path class="st1" d="M366,10.3c-22.6,0-41,18.4-41,41c0,18.2,11.9,33.6,28.3,39H6.3v2h358.5c0.4,0,0.8,0,1.1,0c22.6,0,41-18.4,41-41
	S388.6,10.3,366,10.3z M392.9,30.9c0.5,2.2,0.8,4.4,0.9,6.8c-2.8-2.6-5.9-4.9-9.4-7c0.7-7.1,0.2-12.6-1.8-15.6
	C387.6,18.1,391.2,23.5,392.9,30.9z M355.3,89.7c3.3-1,7.2-4.8,11.1-10.4c3.7,0.8,7.5,1.2,11.1,1.2c0,0,0,0,0,0c0,0,0.1,0,0.1,0
	c-5.9,5.9-12.8,9.5-19.5,9.5C357.2,89.9,356.2,89.9,355.3,89.7z M365.4,51.7l-4,10.8c-3.6-1.5-7-3-10.2-4.7c0.9-3.4,2-6.9,3.3-10.5
	L365.4,51.7z M354.9,46.5c1.4-3.6,2.8-7.1,4.4-10.3c3.4,1,7,2.3,10.5,3.7l-4.1,11L354.9,46.5z M366.3,52l10.7,4.3
	c-1.3,3.5-2.8,6.9-4.3,10.1c-3.4-1-6.9-2.2-10.4-3.6L366.3,52z M366.6,51.2l4.1-11c3.5,1.4,6.9,3,10.1,4.6c-0.9,3.5-2,7-3.4,10.7
	c0,0,0,0.1,0,0.1L366.6,51.2z M371,39.3l4.5-12.1c0.1,0,0.2,0.1,0.3,0.1c2.7,1.1,5.2,2.4,7.6,3.7c-0.4,3.9-1.2,8.2-2.4,12.8
	C377.9,42.3,374.5,40.7,371,39.3z M370.2,39c-3.5-1.4-7-2.6-10.4-3.7c2-4.1,4.2-7.8,6.3-11c2.9,0.6,5.8,1.5,8.6,2.6L370.2,39z
	 M358.8,35.1c-4.3-1.3-8.5-2.2-12.3-2.8c2.1-3.5,4.4-6.6,6.9-9.3c0.4,0,0.7,0,1.1,0c3.4,0,7,0.4,10.5,1.1
	C362.9,27.3,360.8,31,358.8,35.1z M358.4,35.9c-1.5,3.2-3,6.7-4.3,10.3l-11.9-4.8c1.1-2.9,2.4-5.7,3.9-8.2
	C349.9,33.7,354.1,34.6,358.4,35.9z M353.8,47c-1.3,3.6-2.4,7-3.3,10.4c-4.2-2.2-7.9-4.5-11-6.8c0.6-2.7,1.4-5.4,2.4-8.2
	c0-0.1,0.1-0.2,0.1-0.2L353.8,47z M350.2,58.3c-1.2,4.5-2,8.8-2.5,12.6c-3.6-2.2-6.8-4.6-9.5-7.3c-0.1-3.8,0.2-7.9,1-12
	C342.4,53.9,346.1,56.1,350.2,58.3z M351.1,58.7c3.1,1.6,6.5,3.2,10.1,4.6c0,0,0,0,0,0l-4.5,12.1c-0.1-0.1-0.3-0.1-0.4-0.2
	c-2.7-1.1-5.2-2.4-7.6-3.7C349.1,67.6,349.9,63.3,351.1,58.7z M362,63.7c3.5,1.4,7,2.6,10.3,3.6c-2,4.1-4.2,7.8-6.3,11
	c-2.8-0.6-5.7-1.5-8.5-2.6L362,63.7z M377.5,79.6C377.5,79.6,377.5,79.6,377.5,79.6c-3.4,0-7-0.4-10.5-1.1c2.1-3.2,4.2-6.8,6.2-10.9
	c4.3,1.3,8.5,2.2,12.2,2.8c-2.1,3.5-4.4,6.6-6.9,9.3C378.2,79.6,377.8,79.6,377.5,79.6z M373.6,66.7c1.5-3.1,2.9-6.5,4.2-10
	l11.9,4.8c-1.1,2.8-2.4,5.5-3.8,8C382.1,68.9,378,68,373.6,66.7z M378.2,55.9c0,0,0-0.1,0-0.1c1.3-3.6,2.4-7.1,3.4-10.5
	c4.2,2.2,7.9,4.5,11,6.8c-0.6,2.7-1.4,5.5-2.4,8.2c-0.1,0.2-0.1,0.3-0.2,0.5L378.2,55.9z M381.8,44.3c1.2-4.5,2-8.8,2.5-12.7
	c3.6,2.1,6.8,4.6,9.6,7.3c0.1,3.9-0.2,7.9-1,12C389.6,48.7,386,46.5,381.8,44.3z M380.4,14.1c2.9,1.8,3.9,7.8,3.1,16
	c-2.3-1.3-4.8-2.5-7.4-3.6c-0.1,0-0.2-0.1-0.3-0.1L380.4,14.1C380.4,14,380.4,14.1,380.4,14.1z M378.9,13.5c0.2,0.1,0.4,0.1,0.6,0.2
	l-4.6,12.4c-2.8-1.1-5.6-1.9-8.4-2.6c4.4-6.2,8.7-10,11.9-10C378.6,13.5,378.8,13.5,378.9,13.5z M376.7,12.9
	c-3.3,1-7.2,4.8-11.1,10.4c-3.7-0.8-7.5-1.2-11.1-1.2c0,0-0.1,0-0.1,0c5.9-5.9,12.8-9.5,19.4-9.5C374.8,12.7,375.8,12.7,376.7,12.9z
	 M366,11.3c2.1,0,4.1,0.2,6.2,0.5c-6.6,0.5-13.3,4.3-19.1,10.3c-8.6,0.3-15.8,2.8-20.4,7.2C339.8,18.5,352.1,11.3,366,11.3z
	 M352.3,23.1c-2.4,2.7-4.7,5.7-6.6,9.1c-2.4-0.3-4.6-0.5-6.6-0.5c-3.8,0-6.7,0.6-8.6,1.7C334.3,27.3,342.2,23.5,352.3,23.1z
	 M329.2,35.6c1.3-2,4.7-3.1,9.8-3.1c1.9,0,3.9,0.2,6.1,0.4c-1.4,2.5-2.7,5.2-3.7,8l-12.3-5C329.1,35.9,329.2,35.8,329.2,35.6z
	 M328.8,36.9C328.8,36.9,328.8,36.9,328.8,36.9l12.3,4.9c0,0.1-0.1,0.2-0.1,0.3c-1,2.6-1.7,5.3-2.3,7.9
	C332,45.1,328.2,40.3,328.8,36.9z M328,39.3c0.9,3.4,4.6,7.6,10.4,11.8c-0.8,4-1.2,8-1.1,11.7C330.1,55.5,326.5,46.9,328,39.3z
	 M326,51.3c0-2.6,0.3-5.2,0.7-7.6c0.3,6.9,4.2,14.1,10.5,20.4c0.4,8.8,3.1,16.4,7.8,21.3C333.7,78.3,326,65.7,326,51.3z M338.2,64.9
	c2.7,2.5,5.9,4.9,9.4,7c-0.7,7.1-0.2,12.6,1.8,15.6C342.8,83.5,338.8,75.1,338.2,64.9z M351.6,88.5c-2.9-1.8-3.8-7.8-3-16
	c2.3,1.3,4.8,2.5,7.4,3.6c0.1,0.1,0.3,0.1,0.4,0.2l-4.6,12.4C351.7,88.6,351.6,88.6,351.6,88.5z M352.6,88.9l4.6-12.4
	c2.7,1,5.5,1.9,8.3,2.5c-4.4,6.2-8.7,10.1-12,10.1l0,0c-0.1,0-0.3,0-0.4,0C353,89,352.8,89,352.6,88.9z M366,91.3
	c-2.1,0-4.1-0.2-6.2-0.5c6.6-0.6,13.3-4.3,19.1-10.3c8.6-0.3,15.8-2.8,20.4-7.2C392.2,84.1,379.9,91.3,366,91.3z M379.8,79.5
	c2.4-2.7,4.7-5.7,6.6-9.1c2.4,0.3,4.6,0.5,6.6,0.5l0,0c3.8,0,6.7-0.6,8.6-1.7C397.7,75.3,389.8,79,379.8,79.5z M402.8,67
	c-1.3,2-4.7,3.1-9.8,3.1l0,0c-1.9,0-3.9-0.2-6.1-0.4c1.4-2.4,2.6-5,3.7-7.8l12.3,5C402.8,66.8,402.8,66.9,402.8,67z M403.3,65.7
	c0,0.1-0.1,0.2-0.1,0.3l-12.3-5c0.1-0.2,0.1-0.3,0.2-0.5c1-2.6,1.7-5.3,2.3-7.9C400.1,57.5,403.9,62.3,403.3,65.7z M404,63.3
	c-0.9-3.4-4.6-7.6-10.4-11.8c0.8-4,1.2-7.9,1.1-11.7c1.7,1.7,3.1,3.5,4.4,5.3C403.5,51.3,405.1,57.7,404,63.3z M399.9,44.6
	c-1.5-2.1-3.2-4.1-5.2-6.1c-0.1-2.7-0.4-5.3-1-7.9c-1.3-5.6-3.6-10.2-6.8-13.4c11.4,7,19.1,19.6,19.1,34c0,2.6-0.3,5.1-0.7,7.5
	C405,54.2,403.2,49.4,399.9,44.6z"/>
<g>
	<path class="st2" d="M363.3,66.4c0.1-1.8-1.6-1.8-1.6-1.8c1-0.2-2.4-2-2.4-2c0.8-2-2.4-4-2.4-4c-0.8-3.3-2.4-3.3-2.4-3.3
		c-2.5,0.1-2.9-1.9-2.9-1.9c-0.8,0.6-1.8,0.1-1.8,0.1c1.1-0.7-4.2-1.2-4.2-1.2c0.1-4.1-1.7-3.8-1.7-3.8c0.2-2.1-1.6-3-1.6-3
		s-2.2,1.1-2-1.7c0.2-2.8,1.6-2.2,4.3-2.4c2.8-0.3,3.2,1.5,3.2,1.5c-0.1,2.8,1,2.1,1,2.1c0.1-2.2,1.4-3.5,1.4-3.5
		c0.6,0.7,1.5-0.6,1.5-0.6c0.1-1.7,3-2.3,3-2.3c1.4,0.6,2.2-0.1,2.2-0.1c0-1.1,2-1.5,2-1.5c0,2.1,2,0.5,2,0.5s1.4,0.4,1.9-0.3
		c0.5-0.6-1.9-1.1-1.9-1.1l-0.4-1c-1.6-1.2,0.4-0.6,0.4-0.6c0.2,0.7,1.6,1.2,1.6,1.2c1.1,1.2,4.2,1.2,4.2,1.2
		c-0.5-0.1-0.8-1.9-0.8-1.9c1.4-1.5,0.3-1.9,0.3-1.9c-2-0.1-0.2-1.4-0.2-1.4c-2.2,0.1-1.9-2.2-1.9-2.2c0.6-1.8-0.9-1.9-0.9-1.9
		c-1.6,1-1.8-0.5-1.8-0.5c-1-3-4.1-3.6-4.1-3.6c-1.8-1.3-1,1.1-1,1.1c-0.8,0.4-0.1,3-0.1,3s-1.7-0.2-1.6,0.9c0.1,1.2-1,0.5-1,0.5
		c0-2.7-2.1-2.8-2.1-2.8c-0.3-1-1-1.7-1-1.7c-2.3,0.3-0.5-3.6,1.3-3.9c1.8-0.3,1.5-1.1,1.5-1.1l4.3-0.5c1.4-3-3.5-2.4-3.5-2.4
		c-0.8-1.1-1.6-2.5-2-2.6c-0.4-0.1-1.4,1.1-1.4,1.1l-2.7-0.5c-7.5,3.7-13.8,9.7-17.9,17.4c0.8,0.9,1.3,3.1,1.3,3.1l0.7,2.1
		c0,0,0.2,2.5,1.7,4.2c1.5,1.6,0.1-2,0.1-2c0.5-1.2-0.4-2-0.4-2c0.5-1.5,1.2,1.1,1.2,1.1c0.2,1.5,1.4,3.7,1.4,3.7l0.7,3.4l1.3,0.7
		c1.4,2,3.5,1.8,3.4,2.5c-0.1,0.7,2.1,3.8,3.5,4.9c1.4,1.1,0.4,3,0.4,3c-2.2,0.4-2.2,3.6-2.2,3.6c-1.3,1.1,0,3,0,3s-1.6,0.5,0.8,2.6
		c2.4,2.1,1,3.6,1,3.6l-0.9,3c-2-1-2.7,4.7-2.7,4.7c-3.1,3.2-1.2,3.5-1.2,3.5c-0.4,0-0.6,0.8-0.7,1.4c1,0.8,2,1.6,3,2.4l0.3-1.1
		c1.9,0.2,2-2.3,2-2.3c2.8,1,5.1-1.4,5.1-1.4l0.9,0.3l0.3-1.2c1.5,0,3.7-1.6,3.7-1.6c0.4-1.6,1.5-0.6,1.5-0.6c0-0.5,1.3-1.4,1.3-1.4
		c3.3-0.5,3.4-1.3,3.4-1.3s2.2-2.7,4.4-4.3C367.4,67.9,363.3,66.4,363.3,66.4z"/>
	<path class="st2" d="M346.5,46.2c0,0,1.2-0.6,2.3,0.3c1.1,0.9,3.5,3.5,1,2.5l-1.6-1.5C348.2,47.5,346.9,46.2,346.5,46.2z"/>
	<path class="st2" d="M354.4,20.6c1.7,0.9-0.9,1.6-0.2,0.2"/>
	<path class="st2" d="M353.3,22.6c0.2,0.3,0.5,0.4,0.9,0.5c0,1-1,0.6-1.6,0.3c0.1-0.3,0.4-0.5,0.7-0.5"/>
	<path class="st2" d="M355,23.4c0.3,0.2,0.5,0.3,0.5,0.7c-0.7,0.2-1.2-0.3-0.7-1c0,0.3,0.2,0.2,0.4,0.3"/>
	<path class="st2" d="M360.8,17.8c-0.1,0.2-0.1,0.4,0,0.6c1-0.9,0.9,0.8,0.4,1.3c-0.5,0.4-2.2,0.2-1.2,1.3c-0.2,0.1-0.4,0.4-0.6,0.5
		c0.1,0.8,0.6,0.4,1.1,0.8c0.6,0.4,0.4,0.5,0.7,1.1c0.3,0.5,1.5,1.4,1.1,1.8c0.7,0.3,1.3,0,1.9-0.4c-0.6-0.5-0.9-1.6-0.5-2.4
		c0.8,0.2,2.4,0.1,1.9,1.2c0.3-0.1,0.4-0.5,0.5-0.9c0.3,0.2,0.8,0.4,1.2,0.4c-0.4-0.2-0.4-0.7-0.7-1c-0.3-0.3-0.7-0.4-1.1-0.6
		c-0.2-0.2-0.5-0.4-0.6-0.7c-0.4-0.5-0.2-0.3-0.3-0.8c-0.1-0.5,0.1-0.6-0.3-1.1c-0.2-0.2-0.7-0.5-0.9-0.6c-0.8-0.5-0.9-0.8-1.6-1.5
		c-0.3,0.3-0.5,0.3-0.8,0.7"/>
	<path class="st2" d="M354.3,12.6c0.1,0,0.1-0.1,0.1-0.1c-0.2,0.9-0.6,1.9-0.7,2.8c0.5-0.2,1.2-0.3,1.6,0.2c0.1-0.2,0.3-0.4,0.3-0.7
		c0.3,0.5,2.7,3.1,2.6,0.9c-0.4-0.5-1-1-1-1.6c0.4-0.6,2.5-0.8,3.2-0.8c-0.3-0.9-0.8-1.4-1-2.2c-1.9,0.3-3.7,0.7-5.4,1.3
		C354.1,12.4,354.2,12.5,354.3,12.6z"/>
	<path class="st2" d="M370.8,22.2c0,0.1,0,0.3,0.1,0.4C370.9,22.4,370.8,22.3,370.8,22.2z M376.4,11.8c-3.9-1-7.9-1.5-11.8-1.3
		c-0.2,0.8,1.1,1.4,1.8,1.4c0.1,0.7-0.3,1-0.1,1.6c0.3,0.7,0.7,0.7,1.3,1c1.1,0.4,2.7,0.7,3.1,1.9c0.1,0.3-0.1,0.6,0,0.9
		c0.1,0.3,0.3,0.5,0.4,0.7c0.1,0.6,0.2,1.2,0,1.8c-0.2,0.5-0.7,0.7-0.7,1.4c-0.1,0.6,0.2,0.7,0.4,1c0-0.5,0.3-0.9,0.4-1.4
		c0.1,0,0.4,0.3,0.4,0.4c-0.1,0.4-0.2,0.9-0.2,1.4c1.3,0.2,0.7,1-0.1,1.2c-0.2-0.1-0.4-0.1-0.5-0.2c-0.5,0.9,0,1.5-0.1,2.3
		c-0.1,0.9-0.6,2-0.1,2.9c0.3,0.5,1.3,1.1,1.8,1.6c0.5,0.4,0.4,0.6,1,0.7c0.6,0.1,1.2-0.2,1.6-0.6c0.6-0.5,1.1-1.5,1.9-2
		c1-0.6,1.6,0,2.7,0.1c0.9,0.1,1.4-0.5,2.2-0.7c0.9-0.2,2.1-0.3,3-0.2c0.5,0,1,0.4,1.4-0.1c0.4-0.5-0.7-1,0.2-1.4
		c0.7-0.3,1,0.6,1.4-0.3c0.2-0.5-0.4-1,0.1-1.6c0.8,0.2,1.8-0.6,2-1.4c0.1-0.4-0.3-1,0-1.4c0.4-0.5,0.8,0.1,1.2,0.1
		c0.6,0,1.1-0.5,1.5-1.1C388.2,16.5,382.7,13.5,376.4,11.8z"/>
	<path class="st2" d="M364.2,37.5c1.1,0.3,0.2,1.4,0.6,2.2c0.4-0.3,0.7-0.6,1.2-0.7c0.4,0,1.1,0.3,1.6,0.4c0.4-0.7-0.7-0.9-0.8-1.7
		c-0.9,0.5-1.8-0.4-2.5,0"/>
	<path class="st2" d="M352,49.3c0,0,1.7,0.9,0.7,1.2c-0.4,0.1-1.2-0.7-1.7-0.6c0.6,0.2,0.8-0.3,0.8-0.8"/>
	<path class="st2" d="M353.9,50.5c0.2,0,0.6,0.2,0.8,0.2c0,0.4-0.2,0.8-0.5,1.1c-0.5-0.3-0.7-0.8-0.4-1.3"/>
	<path class="st2" d="M399.5,41.3c1.2,0.3,1.2,0.3,1.1,1.6c-0.1,1.4,0.3,1.2,1.5,0.8c1-0.3,1.6-0.3,2.1-1.3c0.2-0.4,0.1-0.7,0.2-1.1
		c0.2-0.7,0.4-0.5,0.7-0.8c0.1-0.1,0.1-0.1,0.2-0.2c-0.4-1.5-0.9-3-1.5-4.4c-0.6,0.5-0.5,1.1-1.9,0.4c-0.1,0.8-1.5,2.3-2.1,1.5
		c-0.6,0.3-1.6,1-1.8,1.7c-0.1,0.5,0.1,1,0.4,1.5C398.9,41.5,398.7,41.1,399.5,41.3z"/>
	<path class="st2" d="M389.8,40.8c0.9,0.1,0.6,1.5,1.4,2c0,0.2-0.1,0.3-0.1,0.5c-1-0.2-1.5,0.8-2.6,0.6c0.6-0.7,0.4-2.6,1.4-2.8"/>
	<path class="st2" d="M397.4,54.5c0.1,0.9,0.8,0.6,1.5,0.3c0.2-0.1,0.5-0.2,0.7-0.3c0.1-0.1,0-0.5,0.2-0.6c0.2-0.2,0.2-0.6,0.7-0.3
		c0.9,0.7-0.4,3.9,1.6,3.3c0.7-0.2,0.7-1,1.4-1.3c0.7-0.3,1.6,0,2.4,0c0.1-0.4-0.2-1.1-0.1-1.5c0.2-0.3,0.6-0.4,1-0.5
		c0.2-3.3,0-6.5-0.6-9.7c-0.3,0-0.5,0-0.7,0.1c-0.5,0.2-0.4,0.2-0.8,0.6c-0.7,0.6-1,0.9-2,0.9c-0.7,0-1.5-0.2-2.1-0.7
		c-0.5-0.4-1.1-2-1.7-2.1c-0.6-0.1-1.6,1.1-2.1,1.4c-0.8,0.3-1.7,0.4-2.4,0.7c-0.9,0.3-1.4,0.4-2.4,0.4c-0.6,0-2.1,0.1-1.5,1.2
		c0.1,0,0.2-0.1,0.3-0.1c0,0.5,0.1,0.9-0.1,1.4c-0.2,0.4-0.8,0.5-1,1c-0.5-0.6-1.5-0.3-1.9-1.2c-1,1.1-1.9,1.9-2.3,3.5
		c0.9,0.2,1.3,1.4,2.1,1.7c0.7,0.3,2.3,0.1,3-0.1c0.3-0.1,1-0.5,1.3-0.7c0.4-0.3,0.5-1,0.9-1.2c0.4-0.3,0.9,0.1,1.4,0.1
		c0.7,0,1.1-0.2,1.8-0.4c0.5,0.6,1.3,0.8,1.7,1.5C397.9,52.9,397.2,53.6,397.4,54.5z"/>
	<path class="st2" d="M406.5,56.5c-0.2,0.2-0.3,0.3-0.5,0.4c-0.6,0.3-1.4,0-1.9,0c-0.9,0.1-2.5,0.6-2.5,1.8c0.5,0.2,0.8,0.4,1.3,0.1
		c-0.1-0.2,0-0.7-0.1-0.8c0.8,0,0.3,0.5,0.6,0.8c0.4,0.4,0.7,0.4,1.1,0.6c0.4,0.2,0.9,0.6,1.4,0.7C406.1,59,406.3,57.7,406.5,56.5z"
		/>
	<path class="st2" d="M404.9,63.5c-0.3-0.8-0.3-1.7-0.8-2.4c-0.6-0.9-1.5-1.4-2.5-1.2c-1.1,0.2-1.7,0.5-2.7,0
		c-0.4-0.2-0.6-0.5-1.1-0.7c-0.8-0.3-0.6-0.1-1.2-0.9c-0.5-0.6-1.3-1.5-1.6-2.2c-0.2-0.8,0.3-1.8-1-2.1c-0.2,0-1,0.1-1.3,0.1
		c-0.4,0-0.8,0-1.3-0.1c-1.1-0.2-2,0-3-0.1c-1.1-0.1-1.7-0.6-2.8-0.1c-0.3,0.1-1.2,0.4-1.4,0.6c-0.4,0.3-0.6,1-1,1.4
		c-0.3-0.1-1.2-0.2-1.5-0.2c-0.6,0.2-0.7,0.6-1.1,1.1c-0.7,0.8-1.8,1.4-2.6,2.1c0.5,1,0,1.3-0.4,2.2c-0.4,1.1-0.4,1.6,0.1,2.6
		c0.5,0.8,0.5,1.9,0.9,2.7c0.3,0.5,0.7,0.7,0.9,1.1c0.2,0.3,0.1,0.8,0.4,1.1c0.6,0.7,1.8,0.7,2.5,1c0.3,0.1,0.5,0.4,1,0.3
		c0.6-0.2,0.7-0.7,1.4-0.7c0.3,0,1.1,0.4,1.3,0.6c0.1,0.1-0.1,0.4,0.1,0.6c0.2,0.2,0.5,0.1,0.7,0.3c0.5,0.4,1.8,1,1.8,1.7
		c0,0.1-0.6,0.8-0.7,0.8c-0.4,0.4-0.6,0.5-1,1c-0.4,0.6-0.5,0.3-0.5,1c0,0.1,0.1,1,0.2,1.1c0.3,1,0.8,1.4,0.9,2.4
		c0.1,1,0,1.5-0.8,2.3c-0.9,0.9-0.9,1.4-1,2.6c-0.1,0.9-0.9,1.9-1,2.8c-0.1,0.4,0.1,0.8,0.1,1.2C394.3,82.4,401.6,74.1,404.9,63.5z"
		/>
</g>
<g>
	<polygon class="st3" points="6.8,31.6 42.6,31.6 42.6,41.7 19.5,41.7 19.5,51.6 39.4,51.6 39.4,61.4 19.5,61.4 19.5,80.1 6.8,80.1 
			"/>
	<path class="st3" d="M90.3,60c0,14.1-6.5,21.1-21.1,21.1C54.5,81.1,48,74.1,48,60V31.6h12.6v29.2c0,6.3,2.3,9.4,8.5,9.4
		c6.2,0,8.5-3.2,8.5-9.4V31.6h12.6V60z"/>
	<polygon class="st3" points="98.6,31.6 111.5,31.6 128.4,61.5 128.5,61.5 128.5,31.6 140.4,31.6 140.4,80.1 127.4,80.1 110.6,49.8 
		110.5,49.8 110.5,80.1 98.6,80.1 	"/>
	<rect x="149.1" y="31.6" class="st3" width="12.6" height="48.5"/>
	<path class="st3" d="M170.5,31.6h22.7c8.4-0.1,17.5,2,17.5,12.2c0,4.4-2.6,7.9-6.4,9.8c5.2,1.5,8.4,6,8.4,11.5
		c0,11.5-8.5,15.1-18.9,15.1h-23.3V31.6z M183.1,50.7h9.8c2.2,0,5.2-1.1,5.2-4.6c0-3.5-2.5-4.7-5.2-4.7h-9.8V50.7z M183.1,70h10.1
		c4,0,6.8-1.4,6.8-5.4c0-4.3-3-5.7-6.8-5.7h-10.1V70z"/>
	<polygon class="st3" points="219.5,31.6 258.2,31.6 258.2,41.7 232.2,41.7 232.2,50.2 255.9,50.2 255.9,60 232.2,60 232.2,69.2 
		258.9,69.2 258.9,80.1 219.5,80.1 	"/>
	<path class="st3" d="M266.1,31.6h24.7c8.6,0,17,3.9,17,13.7c0,5.2-2.5,10.2-7.6,12.2v0.1c5.2,1.2,6.7,7,7.1,11.6
		c0.1,2,0.3,9.2,2,10.9h-12.5c-1.1-1.6-1.3-6.4-1.4-7.7c-0.3-4.9-1.2-9.9-7.1-9.9h-9.6v17.7h-12.6V31.6z M278.7,52.6h10.6
		c3.8,0,5.8-2,5.8-5.7c0-3.6-2.9-5.2-6.4-5.2h-10.1V52.6z"/>
</g>
</svg>
