<?xml version="1.0" encoding="utf-8"?>
<!-- Generator: Adobe Illustrator 16.0.3, SVG Export Plug-In . SVG Version: 6.00 Build 0)  -->
<!DOCTYPE svg PUBLIC "-//W3C//DTD SVG 1.1//EN" "http://www.w3.org/Graphics/SVG/1.1/DTD/svg11.dtd">
<svg version="1.1" id="Vrstva_1" xmlns="http://www.w3.org/2000/svg" xmlns:xlink="http://www.w3.org/1999/xlink" x="0px" y="0px"
	 width="60px" height="60px" viewBox="2 2 60 60" enable-background="new 2 2 60 60" xml:space="preserve">
<path fill="#FFFFFF" d="M60.371,28.496c0,0-0.616-3.962-2.34-5.707c-2.188-2.29-4.639-2.299-5.762-2.434
	c-7.924-0.572-20.163-0.576-20.163-0.576H31.89c0,0-12.237,0.004-20.159,0.576c-1.125,0.135-3.575,0.144-5.763,2.434
	c-1.725,1.745-2.34,5.707-2.34,5.707S3,33.15,3,37.805v4.361c0,4.654,0.629,9.311,0.629,9.311s0.588,3.963,2.313,5.707
	c2.188,2.291,5.075,2.219,6.354,2.459c4.602,0.439,19.562,0.578,19.562,0.578h0.285c0,0,14.96-0.139,19.562-0.578
	c1.279-0.24,4.166-0.168,6.354-2.459c1.726-1.744,2.313-5.707,2.313-5.707S61,46.82,61,42.166v-4.361
	C61,33.15,60.371,28.496,60.371,28.496z M25.809,47.453V31.296l15.597,8.118L25.809,47.453z"/>
</svg>
