<svg xmlns="http://www.w3.org/2000/svg" width="361.197" height="106.499" viewBox="0 0 361.197 106.499"><g transform="translate(-84.67 -204.903)"><path d="M128.243,263.2H96.2L96.2,272.4h24.519a2.937,2.937,0,0,1,2.927,2.941v12.168a2.844,2.844,0,0,1-2.868,2.82l-.08,0H107.589a2.85,2.85,0,0,1-2.949-2.747l0-.066.022-6.085H96.2v13.543a4.579,4.579,0,0,0,4.579,4.579h27.517a4.579,4.579,0,0,0,4.5-4.578l.016-27.337a4.619,4.619,0,0,0-4.568-4.444" fill="#7fae13"/><path d="M163.1,281.106h-6.053a2.956,2.956,0,0,0-2.844,3.029v6.2h-6.412a2.95,2.95,0,0,1-2.857-2.907l-.009-24.243h-9.193v31.781a4.6,4.6,0,0,0,4.625,4.576h27.325a4.59,4.59,0,0,0,4.58-4.338V263.185H163.1Z" fill="#7fae13"/><path d="M100.72,259.655l27.48.045a4.606,4.606,0,0,0,4.6-4.614V241.473l-15.133.009v5.573h5.986v1.062a2.4,2.4,0,0,1-2.432,2.367H108.242a2.957,2.957,0,0,1-2.938-2.947V235.388a2.949,2.949,0,0,1,2.956-2.94h.013l24.526.005v-9.247H100.723a4.525,4.525,0,0,0-4.521,4.529v27.349a4.513,4.513,0,0,0,4.449,4.575h.069" fill="#7fae13"/><path d="M178.146,296.17a9.37,9.37,0,0,1-9.334,9.407H99.782a9.374,9.374,0,0,1-9.338-9.407V226.62a9.374,9.374,0,0,1,9.338-9.408H151.4A18.926,18.926,0,0,0,168.989,242.8a18.583,18.583,0,0,0,9.157-2.4Zm-12.565-85.8v6.82l-5.7.014h-.058v5.842h5.759V237.32a13.909,13.909,0,0,1-2.739-25.935,13.632,13.632,0,0,1,2.738-1.009m17.141,13.472a13.9,13.9,0,0,1-4.575,10.319,13.691,13.691,0,0,1-5.84,3.144V223.055h5.8v-5.842H172.3v-6.825a13.612,13.612,0,0,1,3.137,1.212,13.908,13.908,0,0,1,7.278,12.25m5.071,0a18.76,18.76,0,0,0-32.943-12.465H98.86A14.383,14.383,0,0,0,84.67,225.7v71.77c0,7.12,6.647,13.935,14.19,13.935h70.647a14.809,14.809,0,0,0,14.465-14.548l-.038-61.539a18.918,18.918,0,0,0,3.858-11.464" fill="#7fae13"/><g style="isolation:isolate"><g style="isolation:isolate"><path d="M209.23,252.756a.425.425,0,0,1-.39-.42v-2.4a.419.419,0,0,1,.39-.39h4.59a.419.419,0,0,1,.39.39v3.66c0,3.329-1.68,6.09-5.61,6.09s-5.64-2.79-5.64-6.151v-6.359c0-3.39,1.71-6.18,5.64-6.18,3.9,0,5.55,2.7,5.61,6.029a.425.425,0,0,1-.42.391h-2.64a.449.449,0,0,1-.39-.42c-.06-1.53-.84-2.52-2.16-2.52-1.38,0-2.19,1.08-2.19,2.58v6.54c0,1.5.81,2.58,2.19,2.58,1.32,0,2.16-.99,2.16-2.551v-.869Z" fill="#040405"/><path d="M220.66,252.275v3.81h5.04a.419.419,0,0,1,.39.391v2.639a.425.425,0,0,1-.39.42h-8.1a.419.419,0,0,1-.39-.389v-17.46a.419.419,0,0,1,.39-.39h8.1a.425.425,0,0,1,.39.42v2.639a.419.419,0,0,1-.39.391h-5.04v4.079h4.02a.419.419,0,0,1,.39.391v2.639a.425.425,0,0,1-.39.42Z" fill="#040405"/><path d="M235.18,255.426a.508.508,0,0,1-.42-.391l-2.07-6.059v10.17a.424.424,0,0,1-.42.389h-2.64a.419.419,0,0,1-.39-.389v-17.46a.419.419,0,0,1,.39-.39h3.54a.543.543,0,0,1,.48.39l2.7,8.07,2.7-8.07a.543.543,0,0,1,.48-.39h3.54a.418.418,0,0,1,.39.39v17.46a.418.418,0,0,1-.39.389H240.43a.425.425,0,0,1-.421-.389v-10.17l-2.07,6.059a.507.507,0,0,1-.419.391Z" fill="#040405"/><path d="M250.66,252.275v3.81H255.7a.419.419,0,0,1,.39.391v2.639a.425.425,0,0,1-.39.42h-8.1a.419.419,0,0,1-.391-.389v-17.46a.419.419,0,0,1,.391-.39h8.1a.425.425,0,0,1,.39.42v2.639a.419.419,0,0,1-.39.391H250.66v4.079h4.019a.419.419,0,0,1,.39.391v2.639a.425.425,0,0,1-.39.42Z" fill="#040405"/><path d="M259.24,241.686a.419.419,0,0,1,.39-.39h2.64a.425.425,0,0,1,.42.39v17.46a.424.424,0,0,1-.42.389h-2.64a.419.419,0,0,1-.39-.389Z" fill="#040405"/><path d="M269.89,249.785v9.361a.424.424,0,0,1-.42.389h-2.64a.419.419,0,0,1-.391-.389v-17.46a.419.419,0,0,1,.391-.39h2.759c.21,0,.361.18.451.39l4.169,9.389v-9.389a.425.425,0,0,1,.42-.39h2.64a.419.419,0,0,1,.39.39v17.46a.419.419,0,0,1-.39.389h-2.76c-.21,0-.36-.18-.45-.389Z" fill="#040405"/><path d="M286.629,241.3c3.93,0,5.64,2.79,5.64,6.21v5.849c0,3.42-1.71,6.18-5.64,6.18H281.8a.419.419,0,0,1-.39-.389v-17.46a.419.419,0,0,1,.39-.39Zm2.19,6.029c0-1.5-.84-2.579-2.19-2.579h-1.77v11.339h1.77c1.35,0,2.19-1.05,2.19-2.609Z" fill="#040405"/><path d="M299.02,252.275v3.81h5.039a.419.419,0,0,1,.39.391v2.639a.425.425,0,0,1-.39.42h-8.1a.419.419,0,0,1-.39-.389v-17.46a.419.419,0,0,1,.39-.39h8.1a.425.425,0,0,1,.39.42v2.639a.419.419,0,0,1-.39.391H299.02v4.079h4.019a.42.42,0,0,1,.39.391v2.639a.425.425,0,0,1-.39.42Z" fill="#040405"/><path d="M306.7,253.865a.417.417,0,0,1,.39-.389h2.64a.423.423,0,0,1,.419.389v.811a1.347,1.347,0,0,0,1.441,1.409,1.4,1.4,0,0,0,1.53-1.409v-12.99a.418.418,0,0,1,.39-.39h2.639a.425.425,0,0,1,.42.39v12.33c0,3.6-1.65,5.67-4.979,5.67-3.271,0-4.89-2.071-4.89-5.67Z" fill="#040405"/><path d="M319.869,253.535V241.686a.418.418,0,0,1,.39-.39H322.9a.425.425,0,0,1,.42.39v11.879c0,1.531.811,2.611,2.19,2.611s2.19-1.08,2.19-2.611V241.686a.425.425,0,0,1,.42-.39h2.64a.42.42,0,0,1,.39.39v11.849c0,3.361-1.71,6.151-5.64,6.151S319.869,256.9,319.869,253.535Z" fill="#040405"/><path d="M340.418,252.756a.425.425,0,0,1-.39-.42v-2.4a.419.419,0,0,1,.39-.39h4.59a.419.419,0,0,1,.39.39v3.66c0,3.329-1.68,6.09-5.61,6.09s-5.64-2.79-5.64-6.151v-6.359c0-3.39,1.71-6.18,5.64-6.18,3.9,0,5.55,2.7,5.61,6.029a.426.426,0,0,1-.419.391h-2.641a.449.449,0,0,1-.39-.42c-.059-1.53-.841-2.52-2.16-2.52-1.38,0-2.19,1.08-2.19,2.58v6.54c0,1.5.81,2.58,2.19,2.58,1.319,0,2.16-.99,2.16-2.551v-.869Z" fill="#040405"/><path d="M351.848,252.275v3.81h5.039a.419.419,0,0,1,.39.391v2.639a.424.424,0,0,1-.39.42h-8.1a.419.419,0,0,1-.39-.389v-17.46a.419.419,0,0,1,.39-.39h8.1a.424.424,0,0,1,.39.42v2.639a.419.419,0,0,1-.39.391h-5.039v4.079h4.019a.42.42,0,0,1,.391.391v2.639a.425.425,0,0,1-.391.42Z" fill="#040405"/><path d="M363.878,249.785v9.361a.424.424,0,0,1-.42.389h-2.64a.419.419,0,0,1-.39-.389v-17.46a.419.419,0,0,1,.39-.39h2.76c.209,0,.359.18.449.39l4.17,9.389v-9.389a.425.425,0,0,1,.42-.39h2.641a.419.419,0,0,1,.389.39v17.46a.419.419,0,0,1-.389.389H368.5c-.211,0-.36-.18-.451-.389Z" fill="#040405"/><path d="M380.617,241.3c3.93,0,5.641,2.79,5.641,6.21v5.849c0,3.42-1.711,6.18-5.641,6.18h-4.83a.419.419,0,0,1-.39-.389v-17.46a.419.419,0,0,1,.39-.39Zm2.19,6.029c0-1.5-.84-2.579-2.19-2.579h-1.769v11.339h1.769c1.35,0,2.19-1.05,2.19-2.609Z" fill="#040405"/><path d="M398.107,241.3a.445.445,0,0,1,.39.39l2.31,12.54,1.65-12.54a.447.447,0,0,1,.42-.39h2.67a.419.419,0,0,1,.39.39l-2.58,17.46c-.06.209-.211.389-.39.389h-3.81a.443.443,0,0,1-.389-.389L397,249.995l-1.77,9.151a.444.444,0,0,1-.389.389h-3.811c-.179,0-.33-.18-.39-.389l-2.579-17.46a.419.419,0,0,1,.389-.39h2.67a.446.446,0,0,1,.42.39l1.65,12.54,2.31-12.54a.445.445,0,0,1,.39-.39Z" fill="#040405"/><path d="M411.937,252.275v3.81h5.04a.419.419,0,0,1,.39.391v2.639a.425.425,0,0,1-.39.42h-8.1a.419.419,0,0,1-.39-.389v-17.46a.419.419,0,0,1,.39-.39h8.1a.425.425,0,0,1,.39.42v2.639a.419.419,0,0,1-.39.391h-5.04v4.079h4.02a.42.42,0,0,1,.391.391v2.639a.425.425,0,0,1-.391.42Z" fill="#040405"/><path d="M431.437,259.146a.451.451,0,0,1-.419.419h-2.641c-.21,0-.359-.21-.42-.419l-1.561-4.771a7.888,7.888,0,0,1-1.229.061h-1.23v4.71a.451.451,0,0,1-.419.419h-2.641a.451.451,0,0,1-.359-.419v-17.43a.451.451,0,0,1,.359-.42h4.53c3.989,0,5.669,2.82,5.669,6.21v.779a6.5,6.5,0,0,1-1.8,4.861Zm-6.03-8.13c1.409,0,2.22-1.08,2.22-2.611v-1.08c0-1.5-.811-2.579-2.22-2.579h-1.47v6.27Z" fill="#040405"/><path d="M442.357,241.686c.09-.21.241-.39.45-.39h2.67a.42.42,0,0,1,.39.39l-3.45,8.219v.42l3.45,8.821a.42.42,0,0,1-.39.389h-2.67c-.209,0-.36-.18-.45-.389l-2.91-7.17h-1.71v7.17a.424.424,0,0,1-.42.389h-2.639a.419.419,0,0,1-.391-.389v-17.46a.419.419,0,0,1,.391-.39h2.639a.425.425,0,0,1,.42.39v6.78h1.62Z" fill="#040405"/></g></g><g style="isolation:isolate"><g style="isolation:isolate"><path d="M208.727,276.039h-2.9v5.184a.339.339,0,0,1-.336.312h-2.112a.335.335,0,0,1-.313-.312V267.254a.336.336,0,0,1,.313-.313h2.112a.34.34,0,0,1,.336.313v5.976h2.9v-5.976a.336.336,0,0,1,.312-.313h2.112a.34.34,0,0,1,.336.313v13.969a.339.339,0,0,1-.336.312h-2.112a.335.335,0,0,1-.312-.312Z" fill="#7fae13"/><path d="M217.271,275.727v3.048H221.3a.335.335,0,0,1,.312.312V281.2a.34.34,0,0,1-.312.336h-6.481a.335.335,0,0,1-.312-.312V267.254a.336.336,0,0,1,.312-.313H221.3a.341.341,0,0,1,.312.337v2.112a.335.335,0,0,1-.312.312h-4.032v3.265h3.216a.335.335,0,0,1,.312.311v2.113a.34.34,0,0,1-.312.336Z" fill="#7fae13"/><path d="M227.758,269.486c-.816,0-1.367.409-1.367,1.489,0,2.567,5.808.6,5.808,6.144,0,.192-.168,4.536-4.224,4.536-4.105,0-4.489-2.952-4.537-4.176a.335.335,0,0,1,.312-.312h2.088a.406.406,0,0,1,.36.312,1.631,1.631,0,0,0,3.24-.289c0-2.687-5.808-.935-5.808-6.264a4.165,4.165,0,1,1,8.329-.048.335.335,0,0,1-.312.312h-2.088a.406.406,0,0,1-.36-.312A1.3,1.3,0,0,0,227.758,269.486Z" fill="#7fae13"/><path d="M238.1,269.486c-.816,0-1.368.409-1.368,1.489,0,2.567,5.808.6,5.808,6.144,0,.192-.167,4.536-4.224,4.536-4.1,0-4.488-2.952-4.536-4.176a.335.335,0,0,1,.312-.312h2.088a.406.406,0,0,1,.36.312,1.631,1.631,0,0,0,3.24-.289c0-2.687-5.808-.935-5.808-6.264a4.165,4.165,0,1,1,8.329-.048.335.335,0,0,1-.312.312H239.9a.406.406,0,0,1-.36-.312A1.3,1.3,0,0,0,238.1,269.486Z" fill="#7fae13"/><path d="M247.606,275.727v3.048h4.032a.335.335,0,0,1,.312.312V281.2a.34.34,0,0,1-.312.336h-6.48a.335.335,0,0,1-.312-.312V267.254a.336.336,0,0,1,.312-.313h6.48a.341.341,0,0,1,.312.337v2.112a.335.335,0,0,1-.312.312h-4.032v3.265h3.216a.335.335,0,0,1,.312.311v2.113a.34.34,0,0,1-.312.336Z" fill="#7fae13"/><path d="M257.254,273.734v7.489a.339.339,0,0,1-.336.312h-2.112a.335.335,0,0,1-.312-.312V267.254a.336.336,0,0,1,.312-.313h2.208c.168,0,.288.145.36.313l3.336,7.513v-7.513a.34.34,0,0,1,.336-.313h2.112a.336.336,0,0,1,.312.313v13.969a.335.335,0,0,1-.312.312H260.95c-.168,0-.288-.143-.36-.312Z" fill="#7fae13"/><path d="M266.806,276.9a.34.34,0,0,1-.312-.336v-2.112a.335.335,0,0,1,.312-.311h5.808a.335.335,0,0,1,.312.311v2.112a.34.34,0,0,1-.312.336Z" fill="#7fae13"/><path d="M279.549,269.486c-.816,0-1.367.409-1.367,1.489,0,2.567,5.808.6,5.808,6.144,0,.192-.168,4.536-4.224,4.536-4.1,0-4.489-2.952-4.537-4.176a.335.335,0,0,1,.312-.312h2.088a.406.406,0,0,1,.36.312,1.631,1.631,0,0,0,3.24-.289c0-2.687-5.808-.935-5.808-6.264a4.165,4.165,0,1,1,8.329-.048.335.335,0,0,1-.312.312H281.35a.406.406,0,0,1-.36-.312A1.3,1.3,0,0,0,279.549,269.486Z" fill="#7fae13"/><path d="M286.293,267.254a.336.336,0,0,1,.312-.313h2.112a.34.34,0,0,1,.336.313v13.969a.339.339,0,0,1-.336.312h-2.112a.335.335,0,0,1-.312-.312Z" fill="#7fae13"/><path d="M294.837,275.727v3.048h4.032a.336.336,0,0,1,.313.312V281.2a.341.341,0,0,1-.313.336h-6.48a.335.335,0,0,1-.312-.312V267.254a.336.336,0,0,1,.312-.313h6.48a.341.341,0,0,1,.313.337v2.112a.336.336,0,0,1-.313.312h-4.032v3.265h3.216a.335.335,0,0,1,.312.311v2.113a.34.34,0,0,1-.312.336Z" fill="#7fae13"/><path d="M306.381,276.11a.341.341,0,0,1-.313-.336v-1.92a.337.337,0,0,1,.313-.312h3.672a.336.336,0,0,1,.312.312v2.929c0,2.664-1.344,4.872-4.488,4.872s-4.512-2.232-4.512-4.921v-5.088c0-2.712,1.367-4.944,4.512-4.944,3.12,0,4.44,2.16,4.488,4.824a.34.34,0,0,1-.336.312h-2.112a.36.36,0,0,1-.312-.336c-.048-1.224-.671-2.016-1.728-2.016-1.1,0-1.752.865-1.752,2.065v5.232c0,1.2.648,2.064,1.752,2.064,1.057,0,1.728-.792,1.728-2.04v-.7Z" fill="#7fae13"/><path d="M315.549,275.727v3.048h4.032a.335.335,0,0,1,.312.312V281.2a.34.34,0,0,1-.312.336H313.1a.335.335,0,0,1-.312-.312V267.254a.336.336,0,0,1,.312-.313h6.48a.341.341,0,0,1,.312.337v2.112a.335.335,0,0,1-.312.312h-4.032v3.265h3.217a.334.334,0,0,1,.311.311v2.113a.339.339,0,0,1-.311.336Z" fill="#7fae13"/><path d="M331.174,281.223a.361.361,0,0,1-.336.337h-2.113c-.168,0-.288-.168-.336-.337l-1.248-3.816a6.452,6.452,0,0,1-.985.048h-.983v3.768a.361.361,0,0,1-.336.337h-2.112a.361.361,0,0,1-.288-.337V267.278a.362.362,0,0,1,.288-.337h3.625c3.191,0,4.535,2.257,4.535,4.969v.624a5.194,5.194,0,0,1-1.44,3.889Zm-4.824-6.5c1.127,0,1.775-.865,1.775-2.088v-.864c0-1.2-.648-2.065-1.775-2.065h-1.177v5.017Z" fill="#7fae13"/><path d="M333.477,267.254a.336.336,0,0,1,.312-.313H335.9a.34.34,0,0,1,.336.313v11.521h4.034a.335.335,0,0,1,.311.312V281.2a.34.34,0,0,1-.311.336h-6.481a.335.335,0,0,1-.312-.312Z" fill="#7fae13"/><path d="M348.645,266.941c.144,0,.263.145.312.313l3,13.969a.335.335,0,0,1-.312.312h-2.112a.357.357,0,0,1-.336-.312l-.408-2.136h-3.576l-.408,2.136a.357.357,0,0,1-.336.312h-2.113a.334.334,0,0,1-.311-.312l3-13.969c.048-.168.168-.313.311-.313Zm-2.9,9.337h2.5l-1.151-6.072h-.168Z" fill="#7fae13"/><path d="M356.78,273.734v7.489a.339.339,0,0,1-.336.312h-2.112a.334.334,0,0,1-.312-.312V267.254a.336.336,0,0,1,.312-.313h2.208c.169,0,.288.145.36.313l3.336,7.513v-7.513a.34.34,0,0,1,.336-.313h2.113a.336.336,0,0,1,.311.313v13.969a.334.334,0,0,1-.311.312h-2.208a.43.43,0,0,1-.36-.312Z" fill="#7fae13"/><path d="M370.2,266.941c3.145,0,4.514,2.233,4.514,4.969v4.681c0,2.736-1.369,4.944-4.514,4.944h-3.863a.334.334,0,0,1-.312-.312V267.254a.336.336,0,0,1,.312-.313Zm1.753,4.826A1.824,1.824,0,0,0,370.2,269.7h-1.416v9.073H370.2c1.08,0,1.753-.84,1.753-2.088Z" fill="#7fae13"/></g></g></g></svg>