<svg xmlns="http://www.w3.org/2000/svg" width="361.197" height="106.498" viewBox="0 0 361.197 106.498"><g transform="translate(581.33 -554.904)"><path d="M-537.757,613.2H-569.8l-.005,9.206h24.519a2.937,2.937,0,0,1,2.927,2.941v12.168a2.843,2.843,0,0,1-2.868,2.82l-.08,0h-13.108a2.85,2.85,0,0,1-2.949-2.747l0-.066.022-6.085H-569.8v13.543a4.579,4.579,0,0,0,4.579,4.579h27.517a4.579,4.579,0,0,0,4.5-4.578l.016-27.337a4.619,4.619,0,0,0-4.568-4.444" fill="#7fae13"/><path d="M-502.9,631.106h-6.053a2.956,2.956,0,0,0-2.844,3.029v6.2h-6.412a2.95,2.95,0,0,1-2.857-2.907l-.009-24.243h-9.193v31.781a4.6,4.6,0,0,0,4.625,4.576h27.325a4.591,4.591,0,0,0,4.58-4.338V613.185H-502.9Z" fill="#7fae13"/><path d="M-565.28,609.655l27.48.045a4.606,4.606,0,0,0,4.6-4.614V591.473l-15.133.009v5.573h5.986v1.062a2.4,2.4,0,0,1-2.432,2.367h-12.979a2.957,2.957,0,0,1-2.938-2.947V585.388a2.949,2.949,0,0,1,2.956-2.94h.013l24.526.005v-9.247h-32.076a4.525,4.525,0,0,0-4.521,4.529v27.349a4.513,4.513,0,0,0,4.449,4.575h.069" fill="#7fae13"/><path d="M-487.854,646.17a9.37,9.37,0,0,1-9.334,9.407h-69.03a9.374,9.374,0,0,1-9.338-9.407V576.62a9.374,9.374,0,0,1,9.338-9.408H-514.6a18.929,18.929,0,0,0,11.058,24.377,18.927,18.927,0,0,0,6.536,1.209,18.583,18.583,0,0,0,9.157-2.4Zm-12.565-85.8v6.82l-5.7.014h-.058v5.842h5.759V587.32A13.907,13.907,0,0,1-510.449,570.4a13.909,13.909,0,0,1,7.292-9.016,13.634,13.634,0,0,1,2.738-1.009m17.141,13.472a13.9,13.9,0,0,1-4.575,10.319,13.68,13.68,0,0,1-5.84,3.144V573.055h5.8v-5.842H-493.7v-6.825a13.614,13.614,0,0,1,3.137,1.212,13.908,13.908,0,0,1,7.278,12.25m5.071,0a18.759,18.759,0,0,0-18.572-18.945,18.762,18.762,0,0,0-14.371,6.48H-567.14A14.384,14.384,0,0,0-581.33,575.7v71.77c0,7.12,6.647,13.935,14.19,13.935h70.647a14.808,14.808,0,0,0,14.465-14.548l-.038-61.539a18.917,18.917,0,0,0,3.858-11.464" fill="#7fae13"/><g style="isolation:isolate"><g style="isolation:isolate"><path d="M-456.77,602.756a.425.425,0,0,1-.39-.42v-2.4a.419.419,0,0,1,.39-.39h4.59a.419.419,0,0,1,.39.39v3.66c0,3.329-1.68,6.09-5.61,6.09s-5.64-2.79-5.64-6.151v-6.359c0-3.39,1.71-6.18,5.64-6.18,3.9,0,5.55,2.7,5.61,6.029a.425.425,0,0,1-.42.391h-2.64a.45.45,0,0,1-.39-.42c-.06-1.53-.84-2.52-2.16-2.52-1.38,0-2.19,1.08-2.19,2.58v6.54c0,1.5.81,2.58,2.19,2.58,1.32,0,2.16-.99,2.16-2.551v-.869Z" fill="#040405"/><path d="M-445.34,602.275v3.81h5.04a.419.419,0,0,1,.39.391v2.639a.425.425,0,0,1-.39.42h-8.1a.419.419,0,0,1-.39-.389v-17.46a.419.419,0,0,1,.39-.39h8.1a.425.425,0,0,1,.39.42v2.639a.419.419,0,0,1-.39.391h-5.04v4.079h4.02a.419.419,0,0,1,.39.391v2.639a.425.425,0,0,1-.39.42Z" fill="#040405"/><path d="M-430.82,605.426a.508.508,0,0,1-.42-.391l-2.07-6.059v10.17a.424.424,0,0,1-.42.389h-2.64a.419.419,0,0,1-.39-.389v-17.46a.419.419,0,0,1,.39-.39h3.54a.543.543,0,0,1,.48.39l2.7,8.07,2.7-8.07a.543.543,0,0,1,.48-.39h3.54a.418.418,0,0,1,.39.39v17.46a.418.418,0,0,1-.39.389h-2.639a.425.425,0,0,1-.421-.389v-10.17l-2.07,6.059a.507.507,0,0,1-.419.391Z" fill="#040405"/><path d="M-415.34,602.275v3.81h5.039a.419.419,0,0,1,.39.391v2.639a.425.425,0,0,1-.39.42h-8.1a.419.419,0,0,1-.391-.389v-17.46a.419.419,0,0,1,.391-.39h8.1a.425.425,0,0,1,.39.42v2.639a.419.419,0,0,1-.39.391h-5.039v4.079h4.019a.419.419,0,0,1,.39.391v2.639a.425.425,0,0,1-.39.42Z" fill="#040405"/><path d="M-406.76,591.686a.419.419,0,0,1,.39-.39h2.64a.425.425,0,0,1,.42.39v17.46a.424.424,0,0,1-.42.389h-2.64a.419.419,0,0,1-.39-.389Z" fill="#040405"/><path d="M-396.11,599.785v9.361a.424.424,0,0,1-.42.389h-2.64a.419.419,0,0,1-.391-.389v-17.46a.419.419,0,0,1,.391-.39h2.759c.21,0,.361.18.451.39l4.169,9.389v-9.389a.425.425,0,0,1,.42-.39h2.64a.419.419,0,0,1,.39.39v17.46a.419.419,0,0,1-.39.389h-2.76c-.21,0-.36-.18-.45-.389Z" fill="#040405"/><path d="M-379.371,591.3c3.93,0,5.64,2.79,5.64,6.21v5.849c0,3.42-1.71,6.18-5.64,6.18h-4.83a.419.419,0,0,1-.39-.389v-17.46a.419.419,0,0,1,.39-.39Zm2.19,6.029c0-1.5-.84-2.579-2.19-2.579h-1.77v11.339h1.77c1.35,0,2.19-1.05,2.19-2.609Z" fill="#040405"/><path d="M-366.981,602.275v3.81h5.04a.419.419,0,0,1,.39.391v2.639a.425.425,0,0,1-.39.42h-8.1a.419.419,0,0,1-.39-.389v-17.46a.419.419,0,0,1,.39-.39h8.1a.425.425,0,0,1,.39.42v2.639a.419.419,0,0,1-.39.391h-5.04v4.079h4.02a.419.419,0,0,1,.39.391v2.639a.425.425,0,0,1-.39.42Z" fill="#040405"/><path d="M-359.3,603.865a.418.418,0,0,1,.39-.389h2.64a.424.424,0,0,1,.42.389v.811a1.346,1.346,0,0,0,1.44,1.409,1.4,1.4,0,0,0,1.53-1.409v-12.99a.419.419,0,0,1,.39-.39h2.639a.425.425,0,0,1,.42.39v12.33c0,3.6-1.65,5.67-4.979,5.67-3.27,0-4.89-2.071-4.89-5.67Z" fill="#040405"/><path d="M-346.131,603.535V591.686a.419.419,0,0,1,.39-.39h2.639a.425.425,0,0,1,.42.39v11.879c0,1.531.81,2.611,2.19,2.611s2.19-1.08,2.19-2.611V591.686a.425.425,0,0,1,.42-.39h2.64a.419.419,0,0,1,.39.39v11.849c0,3.361-1.71,6.151-5.64,6.151S-346.131,606.9-346.131,603.535Z" fill="#040405"/><path d="M-325.582,602.756a.425.425,0,0,1-.39-.42v-2.4a.419.419,0,0,1,.39-.39h4.59a.419.419,0,0,1,.39.39v3.66c0,3.329-1.68,6.09-5.61,6.09s-5.64-2.79-5.64-6.151v-6.359c0-3.39,1.71-6.18,5.64-6.18,3.9,0,5.55,2.7,5.61,6.029a.425.425,0,0,1-.42.391h-2.64a.45.45,0,0,1-.39-.42c-.06-1.53-.84-2.52-2.16-2.52-1.38,0-2.19,1.08-2.19,2.58v6.54c0,1.5.81,2.58,2.19,2.58,1.32,0,2.16-.99,2.16-2.551v-.869Z" fill="#040405"/><path d="M-314.152,602.275v3.81h5.039a.419.419,0,0,1,.39.391v2.639a.425.425,0,0,1-.39.42h-8.1a.419.419,0,0,1-.391-.389v-17.46a.419.419,0,0,1,.391-.39h8.1a.425.425,0,0,1,.39.42v2.639a.419.419,0,0,1-.39.391h-5.039v4.079h4.019a.419.419,0,0,1,.39.391v2.639a.425.425,0,0,1-.39.42Z" fill="#040405"/><path d="M-302.122,599.785v9.361a.424.424,0,0,1-.42.389h-2.64a.419.419,0,0,1-.39-.389v-17.46a.419.419,0,0,1,.39-.39h2.76c.21,0,.36.18.45.39l4.17,9.389v-9.389a.425.425,0,0,1,.42-.39h2.639a.419.419,0,0,1,.39.39v17.46a.419.419,0,0,1-.39.389H-297.5c-.21,0-.36-.18-.451-.389Z" fill="#040405"/><path d="M-285.382,591.3c3.929,0,5.639,2.79,5.639,6.21v5.849c0,3.42-1.71,6.18-5.639,6.18h-4.83a.419.419,0,0,1-.391-.389v-17.46a.419.419,0,0,1,.391-.39Zm2.189,6.029c0-1.5-.84-2.579-2.189-2.579h-1.77v11.339h1.77c1.349,0,2.189-1.05,2.189-2.609Z" fill="#040405"/><path d="M-267.893,591.3a.445.445,0,0,1,.39.39l2.31,12.54,1.65-12.54a.448.448,0,0,1,.42-.39h2.67a.419.419,0,0,1,.39.39l-2.58,17.46c-.06.209-.21.389-.39.389h-3.81a.445.445,0,0,1-.39-.389l-1.77-9.151-1.77,9.151a.445.445,0,0,1-.39.389h-3.81c-.179,0-.33-.18-.39-.389l-2.579-17.46a.419.419,0,0,1,.39-.39h2.67a.449.449,0,0,1,.42.39l1.649,12.54,2.31-12.54a.445.445,0,0,1,.39-.39Z" fill="#040405"/><path d="M-254.063,602.275v3.81h5.04a.419.419,0,0,1,.39.391v2.639a.425.425,0,0,1-.39.42h-8.1a.419.419,0,0,1-.39-.389v-17.46a.419.419,0,0,1,.39-.39h8.1a.425.425,0,0,1,.39.42v2.639a.419.419,0,0,1-.39.391h-5.04v4.079h4.02a.419.419,0,0,1,.39.391v2.639a.425.425,0,0,1-.39.42Z" fill="#040405"/><path d="M-234.563,609.146a.452.452,0,0,1-.42.419h-2.64c-.21,0-.36-.21-.42-.419l-1.56-4.771a7.918,7.918,0,0,1-1.23.061h-1.23v4.71a.452.452,0,0,1-.42.419h-2.64a.452.452,0,0,1-.36-.419v-17.43a.452.452,0,0,1,.36-.42h4.53c3.99,0,5.67,2.82,5.67,6.21v.779a6.5,6.5,0,0,1-1.8,4.861Zm-6.03-8.13c1.41,0,2.22-1.08,2.22-2.611v-1.08c0-1.5-.81-2.579-2.22-2.579h-1.47v6.27Z" fill="#040405"/><path d="M-223.643,591.686c.09-.21.24-.39.45-.39h2.67a.419.419,0,0,1,.39.39l-3.45,8.219v.42l3.45,8.821a.419.419,0,0,1-.39.389h-2.67c-.21,0-.36-.18-.45-.389l-2.91-7.17h-1.71v7.17a.424.424,0,0,1-.42.389h-2.64a.419.419,0,0,1-.39-.389v-17.46a.419.419,0,0,1,.39-.39h2.64a.425.425,0,0,1,.42.39v6.78h1.62Z" fill="#040405"/></g></g><g style="isolation:isolate"><g style="isolation:isolate"><path d="M-460.177,623.734v7.489a.339.339,0,0,1-.336.312h-2.112a.335.335,0,0,1-.313-.312V617.254a.336.336,0,0,1,.313-.313h2.208c.168,0,.288.145.36.313l3.336,7.513v-7.513a.341.341,0,0,1,.336-.313h2.112a.337.337,0,0,1,.313.313v13.969a.335.335,0,0,1-.313.312h-2.208c-.168,0-.288-.143-.36-.312Z" fill="#7fae13"/><path d="M-442.321,621.622v5.112c0,2.689-1.344,4.921-4.488,4.921s-4.488-2.232-4.488-4.921v-5.112c0-2.712,1.343-4.944,4.488-4.944S-442.321,618.91-442.321,621.622Zm-2.76,5.137v-5.208c0-1.2-.624-2.065-1.728-2.065s-1.728.865-1.728,2.065v5.208c0,1.223.624,2.088,1.728,2.088S-445.081,627.982-445.081,626.759Z" fill="#7fae13"/><path d="M-430.921,631.223a.361.361,0,0,1-.336.337h-2.112c-.168,0-.288-.168-.336-.337l-1.248-3.816a6.438,6.438,0,0,1-.985.048h-.983v3.768a.361.361,0,0,1-.336.337h-2.113a.362.362,0,0,1-.288-.337V617.278a.363.363,0,0,1,.288-.337h3.625c3.192,0,4.536,2.257,4.536,4.969v.624a5.2,5.2,0,0,1-1.44,3.889Zm-4.824-6.5c1.128,0,1.776-.865,1.776-2.088v-.864c0-1.2-.648-2.065-1.776-2.065h-1.176v5.017Z" fill="#7fae13"/><path d="M-424.442,616.941c3.145,0,4.513,2.233,4.513,4.969v4.681c0,2.736-1.368,4.944-4.513,4.944h-3.864a.334.334,0,0,1-.312-.312V617.254a.336.336,0,0,1,.312-.313Zm1.753,4.826a1.824,1.824,0,0,0-1.753-2.065h-1.416v9.073h1.416c1.08,0,1.753-.84,1.753-2.088Z" fill="#7fae13"/><path d="M-413.09,616.941c3.145,0,4.513,2.233,4.513,4.969v4.681c0,2.736-1.368,4.944-4.513,4.944h-3.864a.334.334,0,0,1-.312-.312V617.254a.336.336,0,0,1,.312-.313Zm1.753,4.826a1.824,1.824,0,0,0-1.753-2.065h-1.416v9.073h1.416c1.08,0,1.753-.84,1.753-2.088Z" fill="#7fae13"/><path d="M-403.154,625.727v3.048h4.032a.335.335,0,0,1,.312.312V631.2a.34.34,0,0,1-.312.336h-6.48a.334.334,0,0,1-.312-.312V617.254a.336.336,0,0,1,.312-.313h6.48a.341.341,0,0,1,.312.337v2.112a.335.335,0,0,1-.312.312h-4.032v3.265h3.216a.336.336,0,0,1,.313.311v2.113a.34.34,0,0,1-.313.336Z" fill="#7fae13"/><path d="M-396.506,626.734v-9.48a.336.336,0,0,1,.312-.313h2.112a.341.341,0,0,1,.336.313v9.5c0,1.223.648,2.088,1.752,2.088s1.752-.865,1.752-2.088v-9.5a.341.341,0,0,1,.336-.313h2.113a.336.336,0,0,1,.312.313v9.48c0,2.689-1.369,4.921-4.513,4.921S-396.506,629.423-396.506,626.734Z" fill="#7fae13"/><path d="M-382.754,619.7h-2.593a.34.34,0,0,1-.312-.336v-2.112a.336.336,0,0,1,.312-.313h7.945a.336.336,0,0,1,.312.313v2.112a.34.34,0,0,1-.312.336h-2.592v11.521a.339.339,0,0,1-.337.312h-2.111a.334.334,0,0,1-.312-.312Z" fill="#7fae13"/><path d="M-371.426,619.486c-.817,0-1.368.409-1.368,1.489,0,2.567,5.808.6,5.808,6.144,0,.192-.168,4.536-4.224,4.536-4.105,0-4.489-2.952-4.537-4.176a.335.335,0,0,1,.312-.312h2.088a.406.406,0,0,1,.36.312,1.6,1.6,0,0,0,1.633,1.368,1.61,1.61,0,0,0,1.607-1.657c0-2.687-5.808-.935-5.808-6.264A3.879,3.879,0,0,1-371.4,616.7a3.892,3.892,0,0,1,4.176,4.176.335.335,0,0,1-.312.312h-2.088a.406.406,0,0,1-.36-.312A1.3,1.3,0,0,0-371.426,619.486Z" fill="#7fae13"/><path d="M-360.531,619.486c-1.1,0-1.752.865-1.752,2.065v5.232c0,1.2.648,2.064,1.752,2.064,1.056,0,1.68-.792,1.728-2.04a.36.36,0,0,1,.312-.336h2.113a.339.339,0,0,1,.336.312c-.024,2.664-1.344,4.872-4.489,4.872s-4.512-2.232-4.512-4.921v-5.088c0-2.712,1.368-4.944,4.512-4.944,3.12,0,4.441,2.16,4.489,4.824a.34.34,0,0,1-.336.312h-2.113a.36.36,0,0,1-.312-.336C-358.851,620.278-359.475,619.486-360.531,619.486Z" fill="#7fae13"/><path d="M-348.2,626.039h-2.9v5.184a.339.339,0,0,1-.336.312h-2.112a.334.334,0,0,1-.312-.312V617.254a.336.336,0,0,1,.312-.313h2.112a.341.341,0,0,1,.336.313v5.976h2.9v-5.976a.336.336,0,0,1,.312-.313h2.112a.341.341,0,0,1,.336.313v13.969a.339.339,0,0,1-.336.312h-2.112a.334.334,0,0,1-.312-.312Z" fill="#7fae13"/><path d="M-342.411,617.254a.336.336,0,0,1,.312-.313h2.112a.341.341,0,0,1,.336.313v11.521h4.032a.335.335,0,0,1,.312.312V631.2a.34.34,0,0,1-.312.336h-6.48a.334.334,0,0,1-.312-.312Z" fill="#7fae13"/><path d="M-327.243,616.941c.144,0,.264.145.312.313l3,13.969a.334.334,0,0,1-.312.312h-2.111a.358.358,0,0,1-.337-.312l-.408-2.136h-3.576l-.408,2.136a.357.357,0,0,1-.336.312h-2.112a.334.334,0,0,1-.312-.312l3-13.969c.048-.168.168-.313.312-.313Zm-2.9,9.337h2.5l-1.152-6.072h-.168Z" fill="#7fae13"/><path d="M-319.107,623.734v7.489a.339.339,0,0,1-.336.312h-2.113a.334.334,0,0,1-.312-.312V617.254a.336.336,0,0,1,.312-.313h2.208c.169,0,.288.145.361.313l3.336,7.513v-7.513a.341.341,0,0,1,.336-.313h2.112a.336.336,0,0,1,.312.313v13.969a.334.334,0,0,1-.312.312h-2.208c-.168,0-.288-.143-.36-.312Z" fill="#7fae13"/><path d="M-305.691,616.941c3.144,0,4.512,2.233,4.512,4.969v4.681c0,2.736-1.368,4.944-4.512,4.944h-3.865a.334.334,0,0,1-.312-.312V617.254a.336.336,0,0,1,.312-.313Zm1.752,4.826a1.824,1.824,0,0,0-1.752-2.065h-1.416v9.073h1.416c1.08,0,1.752-.84,1.752-2.088Z" fill="#7fae13"/></g></g></g></svg>