<svg xmlns="http://www.w3.org/2000/svg" width="361.196" height="106.499" viewBox="0 0 361.196 106.499"><g transform="translate(-640.67 -534.347)"><path d="M684.243,592.642H652.2l-.005,9.206h24.519a2.936,2.936,0,0,1,2.927,2.941v12.168a2.844,2.844,0,0,1-2.868,2.82l-.08,0H663.589a2.85,2.85,0,0,1-2.949-2.747l0-.066.022-6.085H652.2V624.42A4.579,4.579,0,0,0,656.776,629h27.517a4.579,4.579,0,0,0,4.5-4.578l.016-27.337a4.619,4.619,0,0,0-4.568-4.444" fill="#7fae13"/><path d="M719.1,610.55h-6.053a2.957,2.957,0,0,0-2.844,3.029v6.2h-6.412a2.95,2.95,0,0,1-2.857-2.907l-.009-24.243h-9.193V624.41a4.6,4.6,0,0,0,4.625,4.576h27.325a4.591,4.591,0,0,0,4.58-4.338V592.629H719.1Z" fill="#7fae13"/><path d="M656.72,589.1l27.48.045a4.607,4.607,0,0,0,4.6-4.614V570.917l-15.133.009V576.5h5.986v1.062a2.4,2.4,0,0,1-2.432,2.367H664.242a2.957,2.957,0,0,1-2.938-2.947V564.832a2.949,2.949,0,0,1,2.956-2.94h.013l24.526,0V552.65H656.723a4.525,4.525,0,0,0-4.521,4.529v27.349a4.513,4.513,0,0,0,4.449,4.575h.069" fill="#7fae13"/><path d="M734.146,625.614a9.371,9.371,0,0,1-9.334,9.407h-69.03a9.374,9.374,0,0,1-9.338-9.407v-69.55a9.374,9.374,0,0,1,9.338-9.408H707.4a18.928,18.928,0,0,0,17.594,25.586,18.593,18.593,0,0,0,9.157-2.405Zm-12.565-85.8v6.82l-5.7.014h-.058v5.842h5.759v14.274a13.909,13.909,0,0,1-2.739-25.935,13.573,13.573,0,0,1,2.738-1.009m17.141,13.472a13.9,13.9,0,0,1-4.575,10.319,13.691,13.691,0,0,1-5.84,3.144V552.5h5.8v-5.842H728.3v-6.825a13.616,13.616,0,0,1,3.137,1.212,13.908,13.908,0,0,1,7.278,12.25m5.071,0a18.76,18.76,0,0,0-32.943-12.465H654.86a14.383,14.383,0,0,0-14.19,14.312v71.77c0,7.12,6.647,13.935,14.19,13.935h70.647A14.809,14.809,0,0,0,739.972,626.3l-.038-61.539a18.917,18.917,0,0,0,3.858-11.464" fill="#7fae13"/><g style="isolation:isolate"><g style="isolation:isolate"><path d="M765.229,582.2a.424.424,0,0,1-.389-.42v-2.4a.419.419,0,0,1,.389-.39h4.59a.42.42,0,0,1,.391.39v3.66c0,3.329-1.681,6.09-5.61,6.09s-5.64-2.79-5.64-6.151V576.62c0-3.39,1.71-6.18,5.64-6.18,3.9,0,5.549,2.7,5.61,6.03a.425.425,0,0,1-.42.39h-2.641a.449.449,0,0,1-.389-.42c-.06-1.53-.84-2.52-2.16-2.52-1.38,0-2.19,1.08-2.19,2.58v6.54c0,1.5.81,2.58,2.19,2.58,1.32,0,2.16-.99,2.16-2.551V582.2Z" fill="#040405"/><path d="M776.66,581.72v3.809H781.7a.42.42,0,0,1,.391.391v2.64a.424.424,0,0,1-.391.419h-8.1a.418.418,0,0,1-.39-.389V571.13a.419.419,0,0,1,.39-.39h8.1a.425.425,0,0,1,.391.42v2.64a.42.42,0,0,1-.391.39H776.66v4.08h4.02a.417.417,0,0,1,.389.39v2.64a.424.424,0,0,1-.389.42Z" fill="#040405"/><path d="M791.18,584.87a.506.506,0,0,1-.42-.391l-2.071-6.059v10.17a.423.423,0,0,1-.419.389h-2.64a.418.418,0,0,1-.391-.389V571.13a.419.419,0,0,1,.391-.39h3.54a.541.541,0,0,1,.479.39l2.7,8.07,2.7-8.07a.543.543,0,0,1,.48-.39h3.54a.419.419,0,0,1,.39.39v17.46a.418.418,0,0,1-.39.389H796.43a.424.424,0,0,1-.421-.389V578.42l-2.07,6.059a.508.508,0,0,1-.419.391Z" fill="#040405"/><path d="M806.659,581.72v3.809h5.04a.419.419,0,0,1,.39.391v2.64a.424.424,0,0,1-.39.419h-8.1a.418.418,0,0,1-.391-.389V571.13a.419.419,0,0,1,.391-.39h8.1a.425.425,0,0,1,.39.42v2.64a.419.419,0,0,1-.39.39h-5.04v4.08h4.02a.418.418,0,0,1,.39.39v2.64a.425.425,0,0,1-.39.42Z" fill="#040405"/><path d="M815.239,571.13a.419.419,0,0,1,.391-.39h2.64a.424.424,0,0,1,.419.39v17.46a.423.423,0,0,1-.419.389h-2.64a.418.418,0,0,1-.391-.389Z" fill="#040405"/><path d="M825.89,579.229v9.361a.424.424,0,0,1-.42.389h-2.641a.418.418,0,0,1-.39-.389V571.13a.419.419,0,0,1,.39-.39h2.76c.21,0,.36.18.45.39l4.17,9.39v-9.39a.425.425,0,0,1,.42-.39h2.64a.419.419,0,0,1,.39.39v17.46a.418.418,0,0,1-.39.389h-2.76c-.21,0-.36-.179-.45-.389Z" fill="#040405"/><path d="M842.629,570.74c3.93,0,5.64,2.79,5.64,6.21v5.85c0,3.42-1.71,6.179-5.64,6.179H837.8a.418.418,0,0,1-.39-.389V571.13a.419.419,0,0,1,.39-.39Zm2.189,6.03c0-1.5-.839-2.58-2.189-2.58h-1.77v11.339h1.77c1.35,0,2.189-1.05,2.189-2.609Z" fill="#040405"/><path d="M855.019,581.72v3.809h5.04a.418.418,0,0,1,.389.391v2.64a.423.423,0,0,1-.389.419h-8.1a.418.418,0,0,1-.391-.389V571.13a.419.419,0,0,1,.391-.39h8.1a.424.424,0,0,1,.389.42v2.64a.418.418,0,0,1-.389.39h-5.04v4.08h4.019a.419.419,0,0,1,.391.39v2.64a.425.425,0,0,1-.391.42Z" fill="#040405"/><path d="M862.7,583.31a.419.419,0,0,1,.391-.39h2.64a.424.424,0,0,1,.419.39v.81a1.347,1.347,0,0,0,1.441,1.409,1.4,1.4,0,0,0,1.529-1.409V571.13a.419.419,0,0,1,.391-.39h2.639a.425.425,0,0,1,.42.39v12.33c0,3.6-1.65,5.67-4.979,5.67-3.271,0-4.891-2.07-4.891-5.67Z" fill="#040405"/><path d="M875.868,582.979V571.13a.419.419,0,0,1,.391-.39H878.9a.425.425,0,0,1,.42.39v11.88c0,1.53.81,2.61,2.19,2.61s2.19-1.08,2.19-2.61V571.13a.425.425,0,0,1,.42-.39h2.64a.419.419,0,0,1,.389.39v11.849c0,3.361-1.709,6.151-5.639,6.151S875.868,586.34,875.868,582.979Z" fill="#040405"/><path d="M896.418,582.2a.425.425,0,0,1-.39-.42v-2.4a.419.419,0,0,1,.39-.39h4.59a.418.418,0,0,1,.389.39v3.66c0,3.329-1.679,6.09-5.609,6.09s-5.64-2.79-5.64-6.151V576.62c0-3.39,1.71-6.18,5.64-6.18,3.9,0,5.55,2.7,5.609,6.03a.424.424,0,0,1-.419.39h-2.64a.449.449,0,0,1-.39-.42c-.06-1.53-.841-2.52-2.16-2.52-1.38,0-2.19,1.08-2.19,2.58v6.54c0,1.5.81,2.58,2.19,2.58,1.319,0,2.16-.99,2.16-2.551V582.2Z" fill="#040405"/><path d="M907.848,581.72v3.809h5.039a.419.419,0,0,1,.39.391v2.64a.424.424,0,0,1-.39.419h-8.1a.418.418,0,0,1-.39-.389V571.13a.419.419,0,0,1,.39-.39h8.1a.425.425,0,0,1,.39.42v2.64a.419.419,0,0,1-.39.39h-5.039v4.08h4.019a.418.418,0,0,1,.39.39v2.64a.425.425,0,0,1-.39.42Z" fill="#040405"/><path d="M919.878,579.229v9.361a.424.424,0,0,1-.42.389h-2.641a.418.418,0,0,1-.389-.389V571.13a.419.419,0,0,1,.389-.39h2.76c.21,0,.36.18.45.39l4.17,9.39v-9.39a.425.425,0,0,1,.42-.39h2.64a.419.419,0,0,1,.39.39v17.46a.418.418,0,0,1-.39.389H924.5c-.21,0-.359-.179-.45-.389Z" fill="#040405"/><path d="M936.617,570.74c3.93,0,5.64,2.79,5.64,6.21v5.85c0,3.42-1.71,6.179-5.64,6.179h-4.83a.418.418,0,0,1-.39-.389V571.13a.419.419,0,0,1,.39-.39Zm2.19,6.03c0-1.5-.84-2.58-2.19-2.58h-1.769v11.339h1.769c1.35,0,2.19-1.05,2.19-2.609Z" fill="#040405"/><path d="M954.106,570.74a.445.445,0,0,1,.391.39l2.31,12.54,1.65-12.54a.447.447,0,0,1,.42-.39h2.67a.419.419,0,0,1,.39.39l-2.581,17.46c-.059.21-.21.389-.389.389h-3.81a.444.444,0,0,1-.39-.389L953,579.439l-1.77,9.151a.444.444,0,0,1-.39.389h-3.81c-.179,0-.33-.179-.39-.389l-2.579-17.46a.419.419,0,0,1,.389-.39h2.67a.448.448,0,0,1,.42.39l1.65,12.54,2.31-12.54a.445.445,0,0,1,.39-.39Z" fill="#040405"/><path d="M967.937,581.72v3.809h5.04a.419.419,0,0,1,.39.391v2.64a.424.424,0,0,1-.39.419h-8.1a.418.418,0,0,1-.39-.389V571.13a.419.419,0,0,1,.39-.39h8.1a.425.425,0,0,1,.39.42v2.64a.419.419,0,0,1-.39.39h-5.04v4.08h4.02a.418.418,0,0,1,.39.39v2.64a.425.425,0,0,1-.39.42Z" fill="#040405"/><path d="M987.437,588.59a.452.452,0,0,1-.42.42h-2.64c-.21,0-.36-.21-.42-.42l-1.561-4.771a7.9,7.9,0,0,1-1.229.061h-1.23v4.71a.452.452,0,0,1-.42.42h-2.64a.452.452,0,0,1-.36-.42V571.16a.452.452,0,0,1,.36-.42h4.53c3.989,0,5.669,2.821,5.669,6.21v.779a6.493,6.493,0,0,1-1.8,4.861Zm-6.03-8.13c1.409,0,2.22-1.08,2.22-2.61v-1.08c0-1.5-.811-2.58-2.22-2.58h-1.47v6.27Z" fill="#040405"/><path d="M998.356,571.13c.09-.21.241-.39.451-.39h2.67a.419.419,0,0,1,.389.39l-3.449,8.22v.42l3.449,8.82a.418.418,0,0,1-.389.389h-2.67a.541.541,0,0,1-.451-.389l-2.909-7.17h-1.71v7.17a.424.424,0,0,1-.42.389h-2.64a.418.418,0,0,1-.39-.389V571.13a.419.419,0,0,1,.39-.39h2.64a.425.425,0,0,1,.42.39v6.78h1.619Z" fill="#040405"/></g></g><g style="isolation:isolate"><g style="isolation:isolate"><path d="M761.822,603.179v7.488a.339.339,0,0,1-.336.312h-2.112a.334.334,0,0,1-.312-.312V596.7a.335.335,0,0,1,.312-.312h2.208c.169,0,.288.144.36.312l3.337,7.513V596.7a.34.34,0,0,1,.336-.312h2.112a.335.335,0,0,1,.312.312v13.969a.335.335,0,0,1-.312.312h-2.208a.43.43,0,0,1-.36-.312Z" fill="#7fae13"/><path d="M779.8,610.667a.362.362,0,0,1-.336.337h-2.112c-.168,0-.289-.168-.336-.337l-1.248-3.815a6.593,6.593,0,0,1-.985.047H773.8v3.768a.362.362,0,0,1-.336.337h-2.112a.362.362,0,0,1-.289-.337V596.723a.362.362,0,0,1,.289-.337h3.624c3.192,0,4.536,2.257,4.536,4.968v.625a5.2,5.2,0,0,1-1.44,3.888Zm-4.824-6.5c1.128,0,1.776-.864,1.776-2.088v-.864c0-1.2-.648-2.065-1.776-2.065H773.8v5.017Z" fill="#7fae13"/><path d="M788.942,596.386a.357.357,0,0,1,.313.312l1.848,10.033,1.32-10.033a.358.358,0,0,1,.336-.312H794.9a.335.335,0,0,1,.311.312l-2.064,13.969c-.048.169-.168.312-.312.312h-3.048a.355.355,0,0,1-.312-.312l-1.416-7.32-1.416,7.32a.356.356,0,0,1-.313.312h-3.048c-.144,0-.263-.143-.312-.312L780.9,596.7a.335.335,0,0,1,.312-.312h2.137a.359.359,0,0,1,.336.312l1.32,10.033,1.847-10.033a.357.357,0,0,1,.313-.312Z" fill="#7fae13"/></g></g></g></svg>