<svg xmlns="http://www.w3.org/2000/svg" width="361.197" height="106.499" viewBox="0 0 361.197 106.499"><g transform="translate(581.33 -379.903)"><path d="M-537.757,438.2H-569.8l-.005,9.206h24.519a2.937,2.937,0,0,1,2.927,2.941v12.168a2.844,2.844,0,0,1-2.868,2.82l-.08,0h-13.108a2.85,2.85,0,0,1-2.949-2.747l0-.066.022-6.085H-569.8v13.543a4.579,4.579,0,0,0,4.579,4.579h27.517a4.579,4.579,0,0,0,4.5-4.578l.016-27.337a4.619,4.619,0,0,0-4.568-4.444" fill="#7fae13"/><path d="M-502.9,456.106h-6.053a2.956,2.956,0,0,0-2.844,3.029v6.2h-6.412a2.95,2.95,0,0,1-2.857-2.907l-.009-24.243h-9.193v31.781a4.6,4.6,0,0,0,4.625,4.576h27.325a4.59,4.59,0,0,0,4.58-4.338V438.185H-502.9Z" fill="#7fae13"/><path d="M-565.28,434.655l27.48.045a4.606,4.606,0,0,0,4.6-4.614V416.473l-15.133.009v5.573h5.986v1.062a2.4,2.4,0,0,1-2.432,2.367h-12.979a2.957,2.957,0,0,1-2.938-2.947V410.388a2.949,2.949,0,0,1,2.956-2.94h.013l24.526.005v-9.247h-32.076a4.525,4.525,0,0,0-4.521,4.529v27.349a4.513,4.513,0,0,0,4.449,4.575h.069" fill="#7fae13"/><path d="M-487.854,471.17a9.37,9.37,0,0,1-9.334,9.407h-69.03a9.374,9.374,0,0,1-9.338-9.407V401.62a9.374,9.374,0,0,1,9.338-9.408H-514.6a18.929,18.929,0,0,0,11.058,24.377,18.928,18.928,0,0,0,6.536,1.209,18.583,18.583,0,0,0,9.157-2.4Zm-12.565-85.8v6.82l-5.7.014h-.058v5.842h5.759V412.32a13.908,13.908,0,0,1-10.031-16.92,13.907,13.907,0,0,1,7.292-9.015,13.632,13.632,0,0,1,2.738-1.009m17.141,13.472a13.9,13.9,0,0,1-4.575,10.319,13.691,13.691,0,0,1-5.84,3.144V398.055h5.8v-5.842H-493.7v-6.825a13.613,13.613,0,0,1,3.137,1.212,13.908,13.908,0,0,1,7.278,12.25m5.071,0A18.76,18.76,0,0,0-496.781,379.9a18.767,18.767,0,0,0-14.371,6.481H-567.14A14.383,14.383,0,0,0-581.33,400.7v71.77c0,7.12,6.647,13.935,14.19,13.935h70.647a14.809,14.809,0,0,0,14.465-14.548l-.038-61.539a18.917,18.917,0,0,0,3.858-11.464" fill="#7fae13"/><g style="isolation:isolate"><g style="isolation:isolate"><path d="M-456.77,427.756a.425.425,0,0,1-.39-.42v-2.4a.419.419,0,0,1,.39-.39h4.59a.419.419,0,0,1,.39.39v3.66c0,3.329-1.68,6.09-5.61,6.09s-5.64-2.79-5.64-6.151v-6.359c0-3.39,1.71-6.18,5.64-6.18,3.9,0,5.55,2.7,5.61,6.029a.425.425,0,0,1-.42.391h-2.64a.449.449,0,0,1-.39-.42c-.06-1.53-.84-2.52-2.16-2.52-1.38,0-2.19,1.08-2.19,2.58v6.54c0,1.5.81,2.58,2.19,2.58,1.32,0,2.16-.99,2.16-2.551v-.869Z" fill="#040405"/><path d="M-445.34,427.275v3.81h5.04a.419.419,0,0,1,.39.391v2.639a.425.425,0,0,1-.39.42h-8.1a.419.419,0,0,1-.39-.389v-17.46a.419.419,0,0,1,.39-.39h8.1a.425.425,0,0,1,.39.42v2.639a.419.419,0,0,1-.39.391h-5.04v4.079h4.02a.419.419,0,0,1,.39.391v2.639a.425.425,0,0,1-.39.42Z" fill="#040405"/><path d="M-430.82,430.426a.508.508,0,0,1-.42-.391l-2.07-6.059v10.17a.424.424,0,0,1-.42.389h-2.64a.419.419,0,0,1-.39-.389v-17.46a.419.419,0,0,1,.39-.39h3.54a.543.543,0,0,1,.48.39l2.7,8.07,2.7-8.07a.543.543,0,0,1,.48-.39h3.54a.418.418,0,0,1,.39.39v17.46a.418.418,0,0,1-.39.389h-2.639a.425.425,0,0,1-.421-.389v-10.17l-2.07,6.059a.507.507,0,0,1-.419.391Z" fill="#040405"/><path d="M-415.34,427.275v3.81h5.039a.419.419,0,0,1,.39.391v2.639a.425.425,0,0,1-.39.42h-8.1a.419.419,0,0,1-.391-.389v-17.46a.419.419,0,0,1,.391-.39h8.1a.425.425,0,0,1,.39.42v2.639a.419.419,0,0,1-.39.391h-5.039v4.079h4.019a.419.419,0,0,1,.39.391v2.639a.425.425,0,0,1-.39.42Z" fill="#040405"/><path d="M-406.76,416.686a.419.419,0,0,1,.39-.39h2.64a.425.425,0,0,1,.42.39v17.46a.424.424,0,0,1-.42.389h-2.64a.419.419,0,0,1-.39-.389Z" fill="#040405"/><path d="M-396.11,424.785v9.361a.424.424,0,0,1-.42.389h-2.64a.419.419,0,0,1-.391-.389v-17.46a.419.419,0,0,1,.391-.39h2.759c.21,0,.361.18.451.39l4.169,9.389v-9.389a.425.425,0,0,1,.42-.39h2.64a.419.419,0,0,1,.39.39v17.46a.419.419,0,0,1-.39.389h-2.76c-.21,0-.36-.18-.45-.389Z" fill="#040405"/><path d="M-379.371,416.3c3.93,0,5.64,2.79,5.64,6.21v5.849c0,3.42-1.71,6.18-5.64,6.18h-4.83a.419.419,0,0,1-.39-.389v-17.46a.419.419,0,0,1,.39-.39Zm2.19,6.029c0-1.5-.84-2.579-2.19-2.579h-1.77v11.339h1.77c1.35,0,2.19-1.05,2.19-2.609Z" fill="#040405"/><path d="M-366.981,427.275v3.81h5.04a.419.419,0,0,1,.39.391v2.639a.425.425,0,0,1-.39.42h-8.1a.419.419,0,0,1-.39-.389v-17.46a.419.419,0,0,1,.39-.39h8.1a.425.425,0,0,1,.39.42v2.639a.419.419,0,0,1-.39.391h-5.04v4.079h4.02a.419.419,0,0,1,.39.391v2.639a.425.425,0,0,1-.39.42Z" fill="#040405"/><path d="M-359.3,428.865a.418.418,0,0,1,.39-.389h2.64a.424.424,0,0,1,.42.389v.811a1.346,1.346,0,0,0,1.44,1.409,1.4,1.4,0,0,0,1.53-1.409v-12.99a.419.419,0,0,1,.39-.39h2.639a.425.425,0,0,1,.42.39v12.33c0,3.6-1.65,5.67-4.979,5.67-3.27,0-4.89-2.071-4.89-5.67Z" fill="#040405"/><path d="M-346.131,428.535V416.686a.419.419,0,0,1,.39-.39h2.639a.425.425,0,0,1,.42.39v11.879c0,1.531.81,2.611,2.19,2.611s2.19-1.08,2.19-2.611V416.686a.425.425,0,0,1,.42-.39h2.64a.419.419,0,0,1,.39.39v11.849c0,3.361-1.71,6.151-5.64,6.151S-346.131,431.9-346.131,428.535Z" fill="#040405"/><path d="M-325.582,427.756a.425.425,0,0,1-.39-.42v-2.4a.419.419,0,0,1,.39-.39h4.59a.419.419,0,0,1,.39.39v3.66c0,3.329-1.68,6.09-5.61,6.09s-5.64-2.79-5.64-6.151v-6.359c0-3.39,1.71-6.18,5.64-6.18,3.9,0,5.55,2.7,5.61,6.029a.425.425,0,0,1-.42.391h-2.64a.449.449,0,0,1-.39-.42c-.06-1.53-.84-2.52-2.16-2.52-1.38,0-2.19,1.08-2.19,2.58v6.54c0,1.5.81,2.58,2.19,2.58,1.32,0,2.16-.99,2.16-2.551v-.869Z" fill="#040405"/><path d="M-314.152,427.275v3.81h5.039a.419.419,0,0,1,.39.391v2.639a.425.425,0,0,1-.39.42h-8.1a.419.419,0,0,1-.391-.389v-17.46a.419.419,0,0,1,.391-.39h8.1a.425.425,0,0,1,.39.42v2.639a.419.419,0,0,1-.39.391h-5.039v4.079h4.019a.419.419,0,0,1,.39.391v2.639a.425.425,0,0,1-.39.42Z" fill="#040405"/><path d="M-302.122,424.785v9.361a.424.424,0,0,1-.42.389h-2.64a.419.419,0,0,1-.39-.389v-17.46a.419.419,0,0,1,.39-.39h2.76c.21,0,.36.18.45.39l4.17,9.389v-9.389a.425.425,0,0,1,.42-.39h2.639a.419.419,0,0,1,.39.39v17.46a.419.419,0,0,1-.39.389H-297.5c-.21,0-.36-.18-.451-.389Z" fill="#040405"/><path d="M-285.382,416.3c3.929,0,5.639,2.79,5.639,6.21v5.849c0,3.42-1.71,6.18-5.639,6.18h-4.83a.419.419,0,0,1-.391-.389v-17.46a.419.419,0,0,1,.391-.39Zm2.189,6.029c0-1.5-.84-2.579-2.189-2.579h-1.77v11.339h1.77c1.349,0,2.189-1.05,2.189-2.609Z" fill="#040405"/><path d="M-267.893,416.3a.445.445,0,0,1,.39.39l2.31,12.54,1.65-12.54a.448.448,0,0,1,.42-.39h2.67a.419.419,0,0,1,.39.39l-2.58,17.46c-.06.209-.21.389-.39.389h-3.81a.445.445,0,0,1-.39-.389l-1.77-9.151-1.77,9.151a.445.445,0,0,1-.39.389h-3.81c-.179,0-.33-.18-.39-.389l-2.579-17.46a.419.419,0,0,1,.39-.39h2.67a.449.449,0,0,1,.42.39l1.649,12.54,2.31-12.54a.445.445,0,0,1,.39-.39Z" fill="#040405"/><path d="M-254.063,427.275v3.81h5.04a.419.419,0,0,1,.39.391v2.639a.425.425,0,0,1-.39.42h-8.1a.419.419,0,0,1-.39-.389v-17.46a.419.419,0,0,1,.39-.39h8.1a.425.425,0,0,1,.39.42v2.639a.419.419,0,0,1-.39.391h-5.04v4.079h4.02a.419.419,0,0,1,.39.391v2.639a.425.425,0,0,1-.39.42Z" fill="#040405"/><path d="M-234.563,434.146a.452.452,0,0,1-.42.419h-2.64c-.21,0-.36-.21-.42-.419l-1.56-4.771a7.914,7.914,0,0,1-1.23.061h-1.23v4.71a.452.452,0,0,1-.42.419h-2.64a.452.452,0,0,1-.36-.419v-17.43a.452.452,0,0,1,.36-.42h4.53c3.99,0,5.67,2.82,5.67,6.21v.779a6.5,6.5,0,0,1-1.8,4.861Zm-6.03-8.13c1.41,0,2.22-1.08,2.22-2.611v-1.08c0-1.5-.81-2.579-2.22-2.579h-1.47v6.27Z" fill="#040405"/><path d="M-223.643,416.686c.09-.21.24-.39.45-.39h2.67a.419.419,0,0,1,.39.39l-3.45,8.219v.42l3.45,8.821a.419.419,0,0,1-.39.389h-2.67c-.21,0-.36-.18-.45-.389l-2.91-7.17h-1.71v7.17a.424.424,0,0,1-.42.389h-2.64a.419.419,0,0,1-.39-.389v-17.46a.419.419,0,0,1,.39-.39h2.64a.425.425,0,0,1,.42.39v6.78h1.62Z" fill="#040405"/></g></g><g style="isolation:isolate"><g style="isolation:isolate"><path d="M-459.337,444.486c-.816,0-1.368.409-1.368,1.489,0,2.567,5.808.6,5.808,6.144,0,.192-.168,4.536-4.224,4.536-4.105,0-4.488-2.952-4.537-4.176a.335.335,0,0,1,.312-.312h2.089a.406.406,0,0,1,.36.312,1.6,1.6,0,0,0,1.632,1.368,1.611,1.611,0,0,0,1.608-1.657c0-2.687-5.808-.935-5.808-6.264a3.878,3.878,0,0,1,4.152-4.224,3.892,3.892,0,0,1,4.176,4.176.335.335,0,0,1-.312.312h-2.088a.406.406,0,0,1-.36-.312A1.3,1.3,0,0,0-459.337,444.486Z" fill="#7fae13"/><path d="M-446.953,441.941c.144,0,.264.145.312.313l3,13.969a.335.335,0,0,1-.312.312h-2.112a.357.357,0,0,1-.336-.312l-.408-2.136h-3.577l-.407,2.136a.357.357,0,0,1-.336.312h-2.113a.335.335,0,0,1-.312-.312l3-13.969c.049-.168.168-.313.312-.313Zm-2.9,9.337h2.5l-1.152-6.072h-.168Z" fill="#7fae13"/><path d="M-437.666,444.486c-1.1,0-1.751.865-1.751,2.065v5.232c0,1.2.647,2.064,1.751,2.064,1.057,0,1.681-.792,1.728-2.04a.36.36,0,0,1,.313-.336h2.112a.339.339,0,0,1,.336.312c-.024,2.664-1.344,4.872-4.489,4.872s-4.512-2.232-4.512-4.921v-5.088c0-2.712,1.368-4.944,4.512-4.944,3.121,0,4.441,2.16,4.489,4.824a.34.34,0,0,1-.336.312h-2.112a.36.36,0,0,1-.313-.336C-435.985,445.278-436.609,444.486-437.666,444.486Z" fill="#7fae13"/><path d="M-425.33,451.039h-2.9v5.184a.339.339,0,0,1-.336.312h-2.112a.335.335,0,0,1-.312-.312V442.254a.336.336,0,0,1,.312-.313h2.112a.34.34,0,0,1,.336.313v5.976h2.9v-5.976a.336.336,0,0,1,.312-.313h2.113a.34.34,0,0,1,.336.313v13.969a.339.339,0,0,1-.336.312h-2.113a.335.335,0,0,1-.312-.312Z" fill="#7fae13"/><path d="M-415.946,444.486c-.816,0-1.367.409-1.367,1.489,0,2.567,5.808.6,5.808,6.144,0,.192-.168,4.536-4.224,4.536-4.105,0-4.489-2.952-4.537-4.176a.335.335,0,0,1,.312-.312h2.088a.406.406,0,0,1,.36.312,1.6,1.6,0,0,0,1.632,1.368,1.61,1.61,0,0,0,1.608-1.657c0-2.687-5.808-.935-5.808-6.264a3.879,3.879,0,0,1,4.153-4.224,3.892,3.892,0,0,1,4.176,4.176.335.335,0,0,1-.312.312h-2.089a.405.405,0,0,1-.359-.312A1.3,1.3,0,0,0-415.946,444.486Z" fill="#7fae13"/><path d="M-406.442,450.727v3.048h4.032a.335.335,0,0,1,.312.312V456.2a.34.34,0,0,1-.312.336h-6.48a.335.335,0,0,1-.312-.312V442.254a.336.336,0,0,1,.312-.313h6.48a.341.341,0,0,1,.312.337v2.112a.335.335,0,0,1-.312.312h-4.032v3.265h3.216a.335.335,0,0,1,.312.311v2.113a.34.34,0,0,1-.312.336Z" fill="#7fae13"/><path d="M-396.794,448.734v7.489a.339.339,0,0,1-.336.312h-2.112a.335.335,0,0,1-.312-.312V442.254a.336.336,0,0,1,.312-.313h2.208c.168,0,.288.145.36.313l3.337,7.513v-7.513a.34.34,0,0,1,.336-.313h2.111a.336.336,0,0,1,.312.313v13.969a.335.335,0,0,1-.312.312H-393.1c-.168,0-.288-.143-.36-.312Z" fill="#7fae13"/></g></g></g></svg>