<?xml version="1.0" encoding="utf-8"?>
<!-- Generator: Adobe Illustrator 25.1.0, SVG Export Plug-In . SVG Version: 6.00 Build 0)  -->
<svg version="1.1" id="Ebene_1" xmlns="http://www.w3.org/2000/svg" xmlns:xlink="http://www.w3.org/1999/xlink" x="0px" y="0px"
	 viewBox="0 0 365 106.5" style="enable-background:new 0 0 365 106.5;" xml:space="preserve">
<style type="text/css">
	.st0{fill:#83BB26;}
	.st1{enable-background:new    ;}
</style>
<g id="Gruppe_74" transform="translate(-1299 -2556.366)">
	<g id="Gruppe_15" transform="translate(948.97 2331.685)">
		<path id="Pfad_1" class="st0" d="M393.6,283h-32l0,9.2h24.5c1.6,0,2.9,1.3,2.9,2.9v12.2c0,1.6-1.3,2.8-2.9,2.8c0,0-0.1,0-0.1,0
			h-13.1c-1.6,0.1-2.9-1.2-2.9-2.7c0,0,0,0,0-0.1l0-6.1h-8.5v13.5c0,2.5,2.1,4.6,4.6,4.6c0,0,0,0,0,0h27.5c2.5,0,4.5-2.1,4.5-4.6
			l0-27.3C398.1,285,396.1,283,393.6,283"/>
		<path id="Pfad_2" class="st0" d="M428.5,300.9h-6.1c-1.6,0.1-2.9,1.4-2.8,3v6.2h-6.4c-1.6,0-2.8-1.3-2.9-2.9l0-24.2h-9.2v31.8
			c0,2.5,2.1,4.6,4.6,4.6c0,0,0,0,0,0H433c2.4,0,4.4-1.9,4.6-4.3c0-0.1,0-32,0-32h-9.2L428.5,300.9z"/>
		<path id="Pfad_3" class="st0" d="M366.1,279.4l27.5,0c2.5,0,4.6-2.1,4.6-4.6c0,0,0,0,0,0v-13.6l-15.1,0v5.6h6v1.1
			c0,1.3-1.1,2.4-2.4,2.4c0,0,0,0,0,0h-12.9c-1.6,0-2.9-1.3-2.9-2.9v-12.1c0-1.6,1.3-2.9,3-2.9c0,0,0,0,0,0l24.5,0V243h-32.1
			c-2.5,0-4.5,2-4.5,4.5c0,0,0,0,0,0.1v27.3C361.5,277.4,363.5,279.4,366.1,279.4C366,279.4,366.1,279.4,366.1,279.4"/>
		<path id="Pfad_4" class="st0" d="M443.5,315.9c0,5.2-4.2,9.4-9.3,9.4h-69c-5.2,0-9.4-4.2-9.3-9.4v-69.6c0-5.2,4.2-9.4,9.3-9.4
			c0,0,0,0,0,0h51.6c-3.7,9.8,1.3,20.7,11.1,24.4c2.1,0.8,4.3,1.2,6.5,1.2c3.2,0,6.4-0.8,9.2-2.4V315.9z M430.9,230.1v1v5.8l-5.7,0
			h-0.1v5.8h5.8v14.3c-7.4-1.9-11.9-9.5-10-16.9c1-3.9,3.7-7.2,7.3-9C429.1,230.7,430,230.4,430.9,230.1 M448.1,243.6
			c0,3.9-1.7,7.7-4.6,10.3c-1.7,1.5-3.7,2.6-5.8,3.1v-14.3h5.1h0.7V237h-5.8v-6.8c1.1,0.3,2.1,0.7,3.1,1.2
			C445.3,233.8,448.1,238.5,448.1,243.6 M453.2,243.6c0.1-10.4-8.2-18.8-18.6-18.9c-5.5-0.1-10.8,2.3-14.4,6.5h-56
			c-7.8,0.1-14.2,6.5-14.2,14.3v71.8c0,7.1,6.6,13.9,14.2,13.9h70.6c7.9-0.2,14.3-6.6,14.5-14.5l0-61.5
			C451.8,251.8,453.2,247.8,453.2,243.6"/>
	</g>
	<g class="st1">
		<path d="M1423.6,2604.2c-0.2,0-0.4-0.2-0.4-0.4v-2.4c0-0.2,0.2-0.4,0.4-0.4h4.6c0.2,0,0.4,0.2,0.4,0.4v3.7c0,3.3-1.7,6.1-5.6,6.1
			s-5.6-2.8-5.6-6.2v-6.4c0-3.4,1.7-6.2,5.6-6.2c3.9,0,5.5,2.7,5.6,6c0,0.2-0.2,0.4-0.4,0.4h-2.6c-0.2,0-0.4-0.2-0.4-0.4
			c-0.1-1.5-0.8-2.5-2.2-2.5c-1.4,0-2.2,1.1-2.2,2.6v6.5c0,1.5,0.8,2.6,2.2,2.6c1.3,0,2.2-1,2.2-2.6v-0.9H1423.6z"/>
		<path d="M1435,2603.7v3.8h5c0.2,0,0.4,0.2,0.4,0.4v2.6c0,0.2-0.2,0.4-0.4,0.4h-8.1c-0.2,0-0.4-0.2-0.4-0.4v-17.5
			c0-0.2,0.2-0.4,0.4-0.4h8.1c0.2,0,0.4,0.2,0.4,0.4v2.6c0,0.2-0.2,0.4-0.4,0.4h-5v4.1h4c0.2,0,0.4,0.2,0.4,0.4v2.6
			c0,0.2-0.2,0.4-0.4,0.4H1435z"/>
		<path d="M1449.5,2606.9c-0.2,0-0.4-0.2-0.4-0.4l-2.1-6.1v10.2c0,0.2-0.2,0.4-0.4,0.4h-2.6c-0.2,0-0.4-0.2-0.4-0.4v-17.5
			c0-0.2,0.2-0.4,0.4-0.4h3.5c0.2,0,0.4,0.2,0.5,0.4l2.7,8.1l2.7-8.1c0.1-0.2,0.3-0.4,0.5-0.4h3.5c0.2,0,0.4,0.2,0.4,0.4v17.5
			c0,0.2-0.2,0.4-0.4,0.4h-2.6c-0.2,0-0.4-0.2-0.4-0.4v-10.2l-2.1,6.1c-0.1,0.2-0.2,0.4-0.4,0.4H1449.5z"/>
		<path d="M1465,2603.7v3.8h5c0.2,0,0.4,0.2,0.4,0.4v2.6c0,0.2-0.2,0.4-0.4,0.4h-8.1c-0.2,0-0.4-0.2-0.4-0.4v-17.5
			c0-0.2,0.2-0.4,0.4-0.4h8.1c0.2,0,0.4,0.2,0.4,0.4v2.6c0,0.2-0.2,0.4-0.4,0.4h-5v4.1h4c0.2,0,0.4,0.2,0.4,0.4v2.6
			c0,0.2-0.2,0.4-0.4,0.4H1465z"/>
		<path d="M1473.6,2593.2c0-0.2,0.2-0.4,0.4-0.4h2.6c0.2,0,0.4,0.2,0.4,0.4v17.5c0,0.2-0.2,0.4-0.4,0.4h-2.6c-0.2,0-0.4-0.2-0.4-0.4
			V2593.2z"/>
		<path d="M1484.2,2601.2v9.4c0,0.2-0.2,0.4-0.4,0.4h-2.6c-0.2,0-0.4-0.2-0.4-0.4v-17.5c0-0.2,0.2-0.4,0.4-0.4h2.8
			c0.2,0,0.4,0.2,0.5,0.4l4.2,9.4v-9.4c0-0.2,0.2-0.4,0.4-0.4h2.6c0.2,0,0.4,0.2,0.4,0.4v17.5c0,0.2-0.2,0.4-0.4,0.4h-2.8
			c-0.2,0-0.4-0.2-0.5-0.4L1484.2,2601.2z"/>
		<path d="M1501,2592.8c3.9,0,5.6,2.8,5.6,6.2v5.8c0,3.4-1.7,6.2-5.6,6.2h-4.8c-0.2,0-0.4-0.2-0.4-0.4v-17.5c0-0.2,0.2-0.4,0.4-0.4
			H1501z M1503.1,2598.8c0-1.5-0.8-2.6-2.2-2.6h-1.8v11.3h1.8c1.3,0,2.2-1,2.2-2.6V2598.8z"/>
		<path d="M1513.3,2603.7v3.8h5c0.2,0,0.4,0.2,0.4,0.4v2.6c0,0.2-0.2,0.4-0.4,0.4h-8.1c-0.2,0-0.4-0.2-0.4-0.4v-17.5
			c0-0.2,0.2-0.4,0.4-0.4h8.1c0.2,0,0.4,0.2,0.4,0.4v2.6c0,0.2-0.2,0.4-0.4,0.4h-5v4.1h4c0.2,0,0.4,0.2,0.4,0.4v2.6
			c0,0.2-0.2,0.4-0.4,0.4H1513.3z"/>
		<path d="M1521,2605.3c0-0.2,0.2-0.4,0.4-0.4h2.6c0.2,0,0.4,0.2,0.4,0.4v0.8c0,0.8,0.6,1.4,1.4,1.4c0.9,0,1.5-0.6,1.5-1.4v-13
			c0-0.2,0.2-0.4,0.4-0.4h2.6c0.2,0,0.4,0.2,0.4,0.4v12.3c0,3.6-1.7,5.7-5,5.7c-3.3,0-4.9-2.1-4.9-5.7V2605.3z"/>
		<path d="M1534.2,2605v-11.8c0-0.2,0.2-0.4,0.4-0.4h2.6c0.2,0,0.4,0.2,0.4,0.4v11.9c0,1.5,0.8,2.6,2.2,2.6s2.2-1.1,2.2-2.6v-11.9
			c0-0.2,0.2-0.4,0.4-0.4h2.6c0.2,0,0.4,0.2,0.4,0.4v11.8c0,3.4-1.7,6.2-5.6,6.2S1534.2,2608.4,1534.2,2605z"/>
		<path d="M1554.7,2604.2c-0.2,0-0.4-0.2-0.4-0.4v-2.4c0-0.2,0.2-0.4,0.4-0.4h4.6c0.2,0,0.4,0.2,0.4,0.4v3.7c0,3.3-1.7,6.1-5.6,6.1
			s-5.6-2.8-5.6-6.2v-6.4c0-3.4,1.7-6.2,5.6-6.2c3.9,0,5.6,2.7,5.6,6c0,0.2-0.2,0.4-0.4,0.4h-2.6c-0.2,0-0.4-0.2-0.4-0.4
			c-0.1-1.5-0.8-2.5-2.2-2.5c-1.4,0-2.2,1.1-2.2,2.6v6.5c0,1.5,0.8,2.6,2.2,2.6c1.3,0,2.2-1,2.2-2.6v-0.9H1554.7z"/>
		<path d="M1566.2,2603.7v3.8h5c0.2,0,0.4,0.2,0.4,0.4v2.6c0,0.2-0.2,0.4-0.4,0.4h-8.1c-0.2,0-0.4-0.2-0.4-0.4v-17.5
			c0-0.2,0.2-0.4,0.4-0.4h8.1c0.2,0,0.4,0.2,0.4,0.4v2.6c0,0.2-0.2,0.4-0.4,0.4h-5v4.1h4c0.2,0,0.4,0.2,0.4,0.4v2.6
			c0,0.2-0.2,0.4-0.4,0.4H1566.2z"/>
		<path d="M1578.2,2601.2v9.4c0,0.2-0.2,0.4-0.4,0.4h-2.6c-0.2,0-0.4-0.2-0.4-0.4v-17.5c0-0.2,0.2-0.4,0.4-0.4h2.8
			c0.2,0,0.4,0.2,0.5,0.4l4.2,9.4v-9.4c0-0.2,0.2-0.4,0.4-0.4h2.6c0.2,0,0.4,0.2,0.4,0.4v17.5c0,0.2-0.2,0.4-0.4,0.4h-2.8
			c-0.2,0-0.4-0.2-0.5-0.4L1578.2,2601.2z"/>
		<path d="M1594.9,2592.8c3.9,0,5.6,2.8,5.6,6.2v5.8c0,3.4-1.7,6.2-5.6,6.2h-4.8c-0.2,0-0.4-0.2-0.4-0.4v-17.5
			c0-0.2,0.2-0.4,0.4-0.4H1594.9z M1597.1,2598.8c0-1.5-0.8-2.6-2.2-2.6h-1.8v11.3h1.8c1.3,0,2.2-1,2.2-2.6V2598.8z"/>
		<path d="M1612.4,2592.8c0.2,0,0.4,0.2,0.4,0.4l2.3,12.5l1.7-12.5c0-0.2,0.2-0.4,0.4-0.4h2.7c0.2,0,0.4,0.2,0.4,0.4l-2.6,17.5
			c-0.1,0.2-0.2,0.4-0.4,0.4h-3.8c-0.2,0-0.4-0.2-0.4-0.4l-1.8-9.2l-1.8,9.2c0,0.2-0.2,0.4-0.4,0.4h-3.8c-0.2,0-0.3-0.2-0.4-0.4
			l-2.6-17.5c0-0.2,0.2-0.4,0.4-0.4h2.7c0.2,0,0.4,0.2,0.4,0.4l1.7,12.5l2.3-12.5c0-0.2,0.2-0.4,0.4-0.4H1612.4z"/>
		<path d="M1626.3,2603.7v3.8h5c0.2,0,0.4,0.2,0.4,0.4v2.6c0,0.2-0.2,0.4-0.4,0.4h-8.1c-0.2,0-0.4-0.2-0.4-0.4v-17.5
			c0-0.2,0.2-0.4,0.4-0.4h8.1c0.2,0,0.4,0.2,0.4,0.4v2.6c0,0.2-0.2,0.4-0.4,0.4h-5v4.1h4c0.2,0,0.4,0.2,0.4,0.4v2.6
			c0,0.2-0.2,0.4-0.4,0.4H1626.3z"/>
		<path d="M1645.8,2610.6c0,0.2-0.2,0.4-0.4,0.4h-2.6c-0.2,0-0.4-0.2-0.4-0.4l-1.6-4.8c-0.3,0.1-0.9,0.1-1.2,0.1h-1.2v4.7
			c0,0.2-0.2,0.4-0.4,0.4h-2.6c-0.1,0-0.4-0.2-0.4-0.4v-17.4c0-0.2,0.2-0.4,0.4-0.4h4.5c4,0,5.7,2.8,5.7,6.2v0.8
			c0,2-0.6,3.7-1.8,4.9L1645.8,2610.6z M1639.7,2602.5c1.4,0,2.2-1.1,2.2-2.6v-1.1c0-1.5-0.8-2.6-2.2-2.6h-1.5v6.3H1639.7z"/>
		<path d="M1656.7,2593.2c0.1-0.2,0.2-0.4,0.5-0.4h2.7c0.2,0,0.4,0.2,0.4,0.4l-3.5,8.2v0.4l3.5,8.8c0,0.2-0.2,0.4-0.4,0.4h-2.7
			c-0.2,0-0.4-0.2-0.5-0.4l-2.9-7.2h-1.7v7.2c0,0.2-0.2,0.4-0.4,0.4h-2.6c-0.2,0-0.4-0.2-0.4-0.4v-17.5c0-0.2,0.2-0.4,0.4-0.4h2.6
			c0.2,0,0.4,0.2,0.4,0.4v6.8h1.6L1656.7,2593.2z"/>
	</g>
	<g id="Gruppe_12" transform="translate(634 1723)">
		<g class="st1">
			<path class="st0" d="M788.1,906.7c-0.1,0-0.3-0.1-0.3-0.3l-1.7-4.8v8.1c0,0.2-0.2,0.3-0.3,0.3h-2.1c-0.1,0-0.3-0.1-0.3-0.3v-14
				c0-0.2,0.2-0.3,0.3-0.3h2.8c0.2,0,0.3,0.1,0.4,0.3l2.2,6.5l2.2-6.5c0-0.2,0.2-0.3,0.4-0.3h2.8c0.1,0,0.3,0.1,0.3,0.3v14
				c0,0.2-0.2,0.3-0.3,0.3h-2.1c-0.2,0-0.3-0.1-0.3-0.3v-8.1l-1.7,4.8c0,0.2-0.2,0.3-0.3,0.3H788.1z"/>
			<path class="st0" d="M800.6,904.2v3h4c0.2,0,0.3,0.2,0.3,0.3v2.1c0,0.2-0.1,0.3-0.3,0.3h-6.5c-0.1,0-0.3-0.1-0.3-0.3v-14
				c0-0.2,0.2-0.3,0.3-0.3h6.5c0.2,0,0.3,0.2,0.3,0.3v2.1c0,0.1-0.1,0.3-0.3,0.3h-4v3.3h3.2c0.2,0,0.3,0.2,0.3,0.3v2.1
				c0,0.2-0.1,0.3-0.3,0.3H800.6z"/>
			<path class="st0" d="M811.6,898c-1.1,0-1.8,0.9-1.8,2.1v5.2c0,1.2,0.6,2.1,1.8,2.1c1.1,0,1.7-0.8,1.7-2c0-0.2,0.2-0.3,0.3-0.3
				h2.1c0.2,0,0.3,0.1,0.3,0.3c0,2.7-1.3,4.9-4.5,4.9c-3.1,0-4.5-2.2-4.5-4.9v-5.1c0-2.7,1.4-4.9,4.5-4.9c3.1,0,4.4,2.2,4.5,4.8
				c0,0.2-0.2,0.3-0.3,0.3h-2.1c-0.1,0-0.3-0.2-0.3-0.3C813.3,898.7,812.6,898,811.6,898z"/>
			<path class="st0" d="M824.7,895.7c0.1-0.2,0.2-0.3,0.4-0.3h2.1c0.1,0,0.3,0.1,0.3,0.3l-2.8,6.6v0.3l2.8,7.1
				c0,0.2-0.2,0.3-0.3,0.3h-2.1c-0.2,0-0.3-0.1-0.4-0.3l-2.3-5.7H821v5.7c0,0.2-0.2,0.3-0.3,0.3h-2.1c-0.1,0-0.3-0.1-0.3-0.3v-14
				c0-0.2,0.2-0.3,0.3-0.3h2.1c0.2,0,0.3,0.1,0.3,0.3v5.4h1.3L824.7,895.7z"/>
			<path class="st0" d="M829.4,895.7c0-0.2,0.2-0.3,0.3-0.3h2.1c0.2,0,0.3,0.1,0.3,0.3v11.5h4c0.2,0,0.3,0.2,0.3,0.3v2.1
				c0,0.2-0.1,0.3-0.3,0.3h-6.5c-0.1,0-0.3-0.1-0.3-0.3V895.7z"/>
			<path class="st0" d="M841.3,904.2v3h4c0.2,0,0.3,0.2,0.3,0.3v2.1c0,0.2-0.1,0.3-0.3,0.3h-6.5c-0.1,0-0.3-0.1-0.3-0.3v-14
				c0-0.2,0.2-0.3,0.3-0.3h6.5c0.2,0,0.3,0.2,0.3,0.3v2.1c0,0.1-0.1,0.3-0.3,0.3h-4v3.3h3.2c0.2,0,0.3,0.2,0.3,0.3v2.1
				c0,0.2-0.1,0.3-0.3,0.3H841.3z"/>
			<path class="st0" d="M850.9,902.2v7.5c0,0.2-0.2,0.3-0.3,0.3h-2.1c-0.1,0-0.3-0.1-0.3-0.3v-14c0-0.2,0.2-0.3,0.3-0.3h2.2
				c0.2,0,0.3,0.1,0.4,0.3l3.3,7.5v-7.5c0-0.2,0.2-0.3,0.3-0.3h2.1c0.1,0,0.3,0.1,0.3,0.3v14c0,0.2-0.2,0.3-0.3,0.3h-2.2
				c-0.2,0-0.3-0.1-0.4-0.3L850.9,902.2z"/>
			<path class="st0" d="M864.4,895.4c3.9,0,3.9,3.1,3.9,3.9c0,1.1-0.2,2-1.4,2.9c1.9,0.9,2,3.6,2,3.6c0,4.2-3.2,4.2-4,4.2h-4.5
				c-0.1,0-0.3-0.1-0.3-0.3v-14c0-0.2,0.2-0.3,0.3-0.3H864.4z M865.5,899.8c0-0.9-0.2-1.6-1.2-1.6h-1.4v3.3h1.4
				C865.4,901.4,865.5,900.7,865.5,899.8z M866.2,905.8c0-0.8-0.2-1.6-1.1-1.6h-2.1v3h2.1C866,907.2,866.2,906.5,866.2,905.8z"/>
			<path class="st0" d="M870.9,905.2v-9.5c0-0.2,0.2-0.3,0.3-0.3h2.1c0.2,0,0.3,0.1,0.3,0.3v9.5c0,1.2,0.6,2.1,1.8,2.1
				c1.1,0,1.8-0.9,1.8-2.1v-9.5c0-0.2,0.2-0.3,0.3-0.3h2.1c0.1,0,0.3,0.1,0.3,0.3v9.5c0,2.7-1.4,4.9-4.5,4.9
				S870.9,907.9,870.9,905.2z"/>
			<path class="st0" d="M891.5,909.7c0,0.2-0.2,0.3-0.3,0.3H889c-0.2,0-0.3-0.2-0.3-0.3l-1.2-3.8c-0.2,0-0.7,0-1,0h-1v3.8
				c0,0.2-0.2,0.3-0.3,0.3H883c-0.1,0-0.3-0.2-0.3-0.3v-13.9c0-0.2,0.2-0.3,0.3-0.3h3.6c3.2,0,4.5,2.3,4.5,5v0.6
				c0,1.6-0.5,3-1.4,3.9L891.5,909.7z M886.7,903.2c1.1,0,1.8-0.9,1.8-2.1v-0.9c0-1.2-0.6-2.1-1.8-2.1h-1.2v5H886.7z"/>
			<path class="st0" d="M898.4,904.6c-0.2,0-0.3-0.2-0.3-0.3v-1.9c0-0.1,0.1-0.3,0.3-0.3h3.7c0.2,0,0.3,0.2,0.3,0.3v2.9
				c0,2.7-1.3,4.9-4.5,4.9s-4.5-2.2-4.5-4.9v-5.1c0-2.7,1.4-4.9,4.5-4.9c3.1,0,4.4,2.2,4.5,4.8c0,0.2-0.2,0.3-0.3,0.3H900
				c-0.1,0-0.3-0.2-0.3-0.3c0-1.2-0.7-2-1.7-2c-1.1,0-1.8,0.9-1.8,2.1v5.2c0,1.2,0.6,2.1,1.8,2.1c1.1,0,1.7-0.8,1.7-2v-0.7H898.4z"
				/>
			<path class="st0" d="M905.2,905.4c-0.2,0-0.3-0.2-0.3-0.3v-2.1c0-0.1,0.1-0.3,0.3-0.3h5.8c0.2,0,0.3,0.2,0.3,0.3v2.1
				c0,0.2-0.1,0.3-0.3,0.3H905.2z"/>
			<path class="st0" d="M916.7,910c-0.1,0-0.3-0.1-0.3-0.3l-3-14c0-0.2,0.2-0.3,0.3-0.3h2.1c0.2,0,0.3,0.1,0.3,0.3l2.1,11h0.2
				l2.1-11c0-0.2,0.2-0.3,0.3-0.3h2.1c0.1,0,0.3,0.1,0.3,0.3l-3,14c0,0.2-0.2,0.3-0.3,0.3H916.7z"/>
			<path class="st0" d="M933.7,900.1v5.1c0,2.7-1.3,4.9-4.5,4.9c-3.1,0-4.5-2.2-4.5-4.9v-5.1c0-2.7,1.3-4.9,4.5-4.9
				C932.4,895.1,933.7,897.4,933.7,900.1z M930.9,905.2V900c0-1.2-0.6-2.1-1.7-2.1c-1.1,0-1.7,0.9-1.7,2.1v5.2
				c0,1.2,0.6,2.1,1.7,2.1C930.3,907.3,930.9,906.4,930.9,905.2z"/>
			<path class="st0" d="M945.1,909.7c0,0.2-0.2,0.3-0.3,0.3h-2.1c-0.2,0-0.3-0.2-0.3-0.3l-1.2-3.8c-0.2,0-0.7,0-1,0h-1v3.8
				c0,0.2-0.2,0.3-0.3,0.3h-2.1c-0.1,0-0.3-0.2-0.3-0.3v-13.9c0-0.2,0.2-0.3,0.3-0.3h3.6c3.2,0,4.5,2.3,4.5,5v0.6
				c0,1.6-0.5,3-1.4,3.9L945.1,909.7z M940.3,903.2c1.1,0,1.8-0.9,1.8-2.1v-0.9c0-1.2-0.6-2.1-1.8-2.1h-1.2v5H940.3z"/>
			<path class="st0" d="M951.3,895.4c3.2,0,4.5,2.2,4.5,5v0.6c0,2.7-1.3,4.9-4.5,4.9h-1.2v3.8c0,0.2-0.2,0.3-0.3,0.3h-2.1
				c-0.1,0-0.3-0.1-0.3-0.3v-14c0-0.2,0.2-0.3,0.3-0.3H951.3z M950.2,903.2h1.2c1.1,0,1.8-0.8,1.8-2.1v-0.8c0-1.2-0.7-2.1-1.8-2.1
				h-1.2V903.2z"/>
			<path class="st0" d="M966.8,900.1v5.1c0,2.7-1.3,4.9-4.5,4.9s-4.5-2.2-4.5-4.9v-5.1c0-2.7,1.3-4.9,4.5-4.9
				S966.8,897.4,966.8,900.1z M964,905.2V900c0-1.2-0.6-2.1-1.7-2.1s-1.7,0.9-1.7,2.1v5.2c0,1.2,0.6,2.1,1.7,2.1
				S964,906.4,964,905.2z"/>
			<path class="st0" d="M974.2,906.7c-0.1,0-0.3-0.1-0.3-0.3l-1.7-4.8v8.1c0,0.2-0.2,0.3-0.3,0.3h-2.1c-0.1,0-0.3-0.1-0.3-0.3v-14
				c0-0.2,0.2-0.3,0.3-0.3h2.8c0.2,0,0.3,0.1,0.4,0.3l2.2,6.5l2.2-6.5c0-0.2,0.2-0.3,0.4-0.3h2.8c0.1,0,0.3,0.1,0.3,0.3v14
				c0,0.2-0.2,0.3-0.3,0.3h-2.1c-0.2,0-0.3-0.1-0.3-0.3v-8.1l-1.7,4.8c0,0.2-0.2,0.3-0.3,0.3H974.2z"/>
			<path class="st0" d="M988.6,906.7c-0.1,0-0.3-0.1-0.3-0.3l-1.7-4.8v8.1c0,0.2-0.2,0.3-0.3,0.3h-2.1c-0.1,0-0.3-0.1-0.3-0.3v-14
				c0-0.2,0.2-0.3,0.3-0.3h2.8c0.2,0,0.3,0.1,0.4,0.3l2.2,6.5l2.2-6.5c0-0.2,0.2-0.3,0.4-0.3h2.8c0.1,0,0.3,0.1,0.3,0.3v14
				c0,0.2-0.2,0.3-0.3,0.3h-2.1c-0.2,0-0.3-0.1-0.3-0.3v-8.1l-1.7,4.8c0,0.2-0.2,0.3-0.3,0.3H988.6z"/>
			<path class="st0" d="M1001,904.2v3h4c0.2,0,0.3,0.2,0.3,0.3v2.1c0,0.2-0.1,0.3-0.3,0.3h-6.5c-0.1,0-0.3-0.1-0.3-0.3v-14
				c0-0.2,0.2-0.3,0.3-0.3h6.5c0.2,0,0.3,0.2,0.3,0.3v2.1c0,0.1-0.1,0.3-0.3,0.3h-4v3.3h3.2c0.2,0,0.3,0.2,0.3,0.3v2.1
				c0,0.2-0.1,0.3-0.3,0.3H1001z"/>
			<path class="st0" d="M1016.6,909.7c0,0.2-0.2,0.3-0.3,0.3h-2.1c-0.2,0-0.3-0.2-0.3-0.3l-1.2-3.8c-0.2,0-0.7,0-1,0h-1v3.8
				c0,0.2-0.2,0.3-0.3,0.3h-2.1c-0.1,0-0.3-0.2-0.3-0.3v-13.9c0-0.2,0.2-0.3,0.3-0.3h3.6c3.2,0,4.5,2.3,4.5,5v0.6
				c0,1.6-0.5,3-1.4,3.9L1016.6,909.7z M1011.8,903.2c1.1,0,1.8-0.9,1.8-2.1v-0.9c0-1.2-0.6-2.1-1.8-2.1h-1.2v5H1011.8z"/>
			<path class="st0" d="M1021.7,902.2v7.5c0,0.2-0.2,0.3-0.3,0.3h-2.1c-0.1,0-0.3-0.1-0.3-0.3v-14c0-0.2,0.2-0.3,0.3-0.3h2.2
				c0.2,0,0.3,0.1,0.4,0.3l3.3,7.5v-7.5c0-0.2,0.2-0.3,0.3-0.3h2.1c0.1,0,0.3,0.1,0.3,0.3v14c0,0.2-0.2,0.3-0.3,0.3h-2.2
				c-0.2,0-0.3-0.1-0.4-0.3L1021.7,902.2z"/>
		</g>
	</g>
</g>
</svg>
