<svg xmlns="http://www.w3.org/2000/svg" width="361.197" height="106.499" viewBox="0 0 361.197 106.499"><g transform="translate(-84.67 -8.903)"><path d="M128.243,67.2H96.2L96.2,76.4h24.519a2.937,2.937,0,0,1,2.927,2.941V91.513a2.844,2.844,0,0,1-2.868,2.82l-.08,0H107.589a2.85,2.85,0,0,1-2.949-2.747l0-.066.022-6.085H96.2V98.976a4.579,4.579,0,0,0,4.579,4.579h27.517a4.579,4.579,0,0,0,4.5-4.578l.016-27.337a4.619,4.619,0,0,0-4.568-4.444" fill="#7fae13"/><path d="M163.1,85.106h-6.053a2.956,2.956,0,0,0-2.844,3.029v6.2h-6.412a2.95,2.95,0,0,1-2.857-2.907l-.009-24.243h-9.193V98.966a4.6,4.6,0,0,0,4.625,4.576h27.325a4.591,4.591,0,0,0,4.58-4.338V67.185H163.1Z" fill="#7fae13"/><path d="M100.72,63.655l27.48.045a4.606,4.606,0,0,0,4.6-4.614V45.473l-15.133.009v5.573h5.986v1.062a2.4,2.4,0,0,1-2.432,2.367H108.242a2.957,2.957,0,0,1-2.938-2.947V39.388a2.949,2.949,0,0,1,2.956-2.94h.013l24.526,0V27.206H100.723A4.525,4.525,0,0,0,96.2,31.735V59.084a4.513,4.513,0,0,0,4.449,4.575h.069" fill="#7fae13"/><path d="M178.146,100.17a9.37,9.37,0,0,1-9.334,9.407H99.782a9.374,9.374,0,0,1-9.338-9.407V30.62a9.374,9.374,0,0,1,9.338-9.408H151.4A18.926,18.926,0,0,0,168.989,46.8a18.583,18.583,0,0,0,9.157-2.4Zm-12.565-85.8v6.82l-5.7.014h-.058v5.842h5.759V41.32a13.909,13.909,0,0,1-2.739-25.935,13.632,13.632,0,0,1,2.738-1.009m17.141,13.472a13.9,13.9,0,0,1-4.575,10.319,13.691,13.691,0,0,1-5.84,3.144V27.055h5.8V21.213H172.3V14.388a13.613,13.613,0,0,1,3.137,1.212,13.908,13.908,0,0,1,7.278,12.25m5.071,0a18.76,18.76,0,0,0-32.943-12.465H98.86A14.383,14.383,0,0,0,84.67,29.7v71.77c0,7.12,6.647,13.935,14.19,13.935h70.647a14.809,14.809,0,0,0,14.465-14.548l-.038-61.539a18.918,18.918,0,0,0,3.858-11.464" fill="#7fae13"/><g style="isolation:isolate"><g style="isolation:isolate"><path d="M209.23,56.756a.425.425,0,0,1-.39-.42v-2.4a.419.419,0,0,1,.39-.39h4.59a.419.419,0,0,1,.39.39V57.6c0,3.329-1.68,6.09-5.61,6.09s-5.64-2.79-5.64-6.151V51.176c0-3.39,1.71-6.18,5.64-6.18,3.9,0,5.55,2.7,5.61,6.029a.425.425,0,0,1-.42.391h-2.64a.449.449,0,0,1-.39-.42c-.06-1.53-.84-2.52-2.16-2.52-1.38,0-2.19,1.08-2.19,2.58V57.6c0,1.5.81,2.58,2.19,2.58,1.32,0,2.16-.99,2.16-2.551v-.869Z" fill="#040405"/><path d="M220.66,56.275v3.81h5.04a.419.419,0,0,1,.39.391v2.639a.425.425,0,0,1-.39.42h-8.1a.419.419,0,0,1-.39-.389V45.686a.419.419,0,0,1,.39-.39h8.1a.425.425,0,0,1,.39.42v2.639a.419.419,0,0,1-.39.391h-5.04v4.079h4.02a.419.419,0,0,1,.39.391v2.639a.425.425,0,0,1-.39.42Z" fill="#040405"/><path d="M235.18,59.426a.508.508,0,0,1-.42-.391l-2.07-6.059v10.17a.424.424,0,0,1-.42.389h-2.64a.419.419,0,0,1-.39-.389V45.686a.419.419,0,0,1,.39-.39h3.54a.543.543,0,0,1,.48.39l2.7,8.07,2.7-8.07a.543.543,0,0,1,.48-.39h3.54a.418.418,0,0,1,.39.39v17.46a.418.418,0,0,1-.39.389H240.43a.425.425,0,0,1-.421-.389V52.976l-2.07,6.059a.507.507,0,0,1-.419.391Z" fill="#040405"/><path d="M250.66,56.275v3.81H255.7a.419.419,0,0,1,.39.391v2.639a.425.425,0,0,1-.39.42h-8.1a.419.419,0,0,1-.391-.389V45.686a.419.419,0,0,1,.391-.39h8.1a.425.425,0,0,1,.39.42v2.639a.419.419,0,0,1-.39.391H250.66v4.079h4.019a.419.419,0,0,1,.39.391v2.639a.425.425,0,0,1-.39.42Z" fill="#040405"/><path d="M259.24,45.686a.419.419,0,0,1,.39-.39h2.64a.425.425,0,0,1,.42.39v17.46a.424.424,0,0,1-.42.389h-2.64a.419.419,0,0,1-.39-.389Z" fill="#040405"/><path d="M269.89,53.785v9.361a.424.424,0,0,1-.42.389h-2.64a.419.419,0,0,1-.391-.389V45.686a.419.419,0,0,1,.391-.39h2.759c.21,0,.361.18.451.39l4.169,9.389V45.686a.425.425,0,0,1,.42-.39h2.64a.419.419,0,0,1,.39.39v17.46a.419.419,0,0,1-.39.389h-2.76c-.21,0-.36-.18-.45-.389Z" fill="#040405"/><path d="M286.629,45.3c3.93,0,5.64,2.79,5.64,6.21v5.849c0,3.42-1.71,6.18-5.64,6.18H281.8a.419.419,0,0,1-.39-.389V45.686a.419.419,0,0,1,.39-.39Zm2.19,6.029c0-1.5-.84-2.579-2.19-2.579h-1.77V60.085h1.77c1.35,0,2.19-1.05,2.19-2.609Z" fill="#040405"/><path d="M299.02,56.275v3.81h5.039a.419.419,0,0,1,.39.391v2.639a.425.425,0,0,1-.39.42h-8.1a.419.419,0,0,1-.39-.389V45.686a.419.419,0,0,1,.39-.39h8.1a.425.425,0,0,1,.39.42v2.639a.419.419,0,0,1-.39.391H299.02v4.079h4.019a.42.42,0,0,1,.39.391v2.639a.425.425,0,0,1-.39.42Z" fill="#040405"/><path d="M306.7,57.865a.417.417,0,0,1,.39-.389h2.64a.423.423,0,0,1,.419.389v.811a1.347,1.347,0,0,0,1.441,1.409,1.4,1.4,0,0,0,1.53-1.409V45.686a.418.418,0,0,1,.39-.39h2.639a.425.425,0,0,1,.42.39v12.33c0,3.6-1.65,5.67-4.979,5.67-3.271,0-4.89-2.071-4.89-5.67Z" fill="#040405"/><path d="M319.869,57.535V45.686a.418.418,0,0,1,.39-.39H322.9a.425.425,0,0,1,.42.39V57.565c0,1.531.811,2.611,2.19,2.611s2.19-1.08,2.19-2.611V45.686a.425.425,0,0,1,.42-.39h2.64a.42.42,0,0,1,.39.39V57.535c0,3.361-1.71,6.151-5.64,6.151S319.869,60.9,319.869,57.535Z" fill="#040405"/><path d="M340.418,56.756a.425.425,0,0,1-.39-.42v-2.4a.419.419,0,0,1,.39-.39h4.59a.419.419,0,0,1,.39.39V57.6c0,3.329-1.68,6.09-5.61,6.09s-5.64-2.79-5.64-6.151V51.176c0-3.39,1.71-6.18,5.64-6.18,3.9,0,5.55,2.7,5.61,6.029a.426.426,0,0,1-.419.391h-2.641a.449.449,0,0,1-.39-.42c-.059-1.53-.841-2.52-2.16-2.52-1.38,0-2.19,1.08-2.19,2.58V57.6c0,1.5.81,2.58,2.19,2.58,1.319,0,2.16-.99,2.16-2.551v-.869Z" fill="#040405"/><path d="M351.848,56.275v3.81h5.039a.418.418,0,0,1,.39.391v2.639a.424.424,0,0,1-.39.42h-8.1a.419.419,0,0,1-.39-.389V45.686a.419.419,0,0,1,.39-.39h8.1a.424.424,0,0,1,.39.42v2.639a.418.418,0,0,1-.39.391h-5.039v4.079h4.019a.42.42,0,0,1,.391.391v2.639a.425.425,0,0,1-.391.42Z" fill="#040405"/><path d="M363.878,53.785v9.361a.424.424,0,0,1-.42.389h-2.64a.419.419,0,0,1-.39-.389V45.686a.419.419,0,0,1,.39-.39h2.76c.209,0,.359.18.449.39l4.17,9.389V45.686a.425.425,0,0,1,.42-.39h2.641a.419.419,0,0,1,.389.39v17.46a.419.419,0,0,1-.389.389H368.5c-.211,0-.36-.18-.451-.389Z" fill="#040405"/><path d="M380.617,45.3c3.93,0,5.641,2.79,5.641,6.21v5.849c0,3.42-1.711,6.18-5.641,6.18h-4.83a.419.419,0,0,1-.39-.389V45.686a.419.419,0,0,1,.39-.39Zm2.19,6.029c0-1.5-.84-2.579-2.19-2.579h-1.769V60.085h1.769c1.35,0,2.19-1.05,2.19-2.609Z" fill="#040405"/><path d="M398.107,45.3a.445.445,0,0,1,.39.39l2.31,12.54,1.65-12.54a.447.447,0,0,1,.42-.39h2.67a.419.419,0,0,1,.39.39l-2.58,17.46c-.06.209-.211.389-.39.389h-3.81a.443.443,0,0,1-.389-.389L397,53.995l-1.77,9.151a.444.444,0,0,1-.389.389h-3.811c-.179,0-.33-.18-.39-.389l-2.579-17.46a.419.419,0,0,1,.389-.39h2.67a.446.446,0,0,1,.42.39l1.65,12.54,2.31-12.54a.445.445,0,0,1,.39-.39Z" fill="#040405"/><path d="M411.937,56.275v3.81h5.04a.419.419,0,0,1,.39.391v2.639a.425.425,0,0,1-.39.42h-8.1a.419.419,0,0,1-.39-.389V45.686a.419.419,0,0,1,.39-.39h8.1a.425.425,0,0,1,.39.42v2.639a.419.419,0,0,1-.39.391h-5.04v4.079h4.02a.42.42,0,0,1,.391.391v2.639a.425.425,0,0,1-.391.42Z" fill="#040405"/><path d="M431.437,63.146a.451.451,0,0,1-.419.419h-2.641c-.21,0-.359-.21-.42-.419L426.4,58.375a7.888,7.888,0,0,1-1.229.061h-1.23v4.71a.451.451,0,0,1-.419.419h-2.641a.451.451,0,0,1-.359-.419V45.716a.451.451,0,0,1,.359-.42h4.53c3.989,0,5.669,2.82,5.669,6.21v.779a6.5,6.5,0,0,1-1.8,4.861Zm-6.03-8.13c1.409,0,2.22-1.08,2.22-2.611v-1.08c0-1.5-.811-2.579-2.22-2.579h-1.47v6.27Z" fill="#040405"/><path d="M442.357,45.686c.09-.21.241-.39.45-.39h2.67a.42.42,0,0,1,.39.39l-3.45,8.219v.42l3.45,8.821a.42.42,0,0,1-.39.389h-2.67c-.209,0-.36-.18-.45-.389l-2.91-7.17h-1.71v7.17a.424.424,0,0,1-.42.389h-2.639a.419.419,0,0,1-.391-.389V45.686a.419.419,0,0,1,.391-.39h2.639a.425.425,0,0,1,.42.39v6.78h1.62Z" fill="#040405"/></g></g><g style="isolation:isolate"><g style="isolation:isolate"><path d="M207.287,70.941c3.864,0,3.912,3.073,3.912,3.889a3.227,3.227,0,0,1-1.368,2.9c1.944.937,1.992,3.553,1.992,3.553,0,4.248-3.168,4.248-3.984,4.248h-4.464a.335.335,0,0,1-.313-.312V71.254a.336.336,0,0,1,.313-.313Zm1.152,4.393c0-.864-.192-1.632-1.176-1.632h-1.44v3.265h1.44C208.247,76.967,208.439,76.246,208.439,75.334Zm.624,5.953c0-.841-.192-1.56-1.128-1.56h-2.112v3.048h2.112C208.871,82.775,209.063,82.079,209.063,81.287Z" fill="#7fae13"/><path d="M216.838,79.727v3.048h4.033a.335.335,0,0,1,.312.312V85.2a.34.34,0,0,1-.312.336H214.39a.335.335,0,0,1-.312-.312V71.254a.336.336,0,0,1,.312-.313h6.481a.341.341,0,0,1,.312.337V73.39a.335.335,0,0,1-.312.312h-4.033v3.265h3.217a.335.335,0,0,1,.312.311v2.113a.34.34,0,0,1-.312.336Z" fill="#7fae13"/><path d="M232.463,85.223a.361.361,0,0,1-.336.337h-2.112c-.168,0-.288-.168-.336-.337l-1.248-3.816a6.455,6.455,0,0,1-.985.048h-.984v3.768a.361.361,0,0,1-.336.337h-2.112a.362.362,0,0,1-.288-.337V71.278a.363.363,0,0,1,.288-.337h3.625c3.192,0,4.536,2.257,4.536,4.969v.624a5.2,5.2,0,0,1-1.44,3.889Zm-4.824-6.5c1.128,0,1.776-.865,1.776-2.088v-.864c0-1.2-.648-2.065-1.776-2.065h-1.177v5.017Z" fill="#7fae13"/><path d="M234.766,71.254a.336.336,0,0,1,.312-.313h2.112a.341.341,0,0,1,.336.313V82.775h4.033a.335.335,0,0,1,.312.312V85.2a.34.34,0,0,1-.312.336h-6.481a.335.335,0,0,1-.312-.312Z" fill="#7fae13"/><path d="M243.934,71.254a.336.336,0,0,1,.312-.313h2.112a.341.341,0,0,1,.336.313V85.223a.339.339,0,0,1-.336.312h-2.112a.335.335,0,0,1-.312-.312Z" fill="#7fae13"/><path d="M252.478,77.734v7.489a.339.339,0,0,1-.336.312H250.03a.335.335,0,0,1-.312-.312V71.254a.336.336,0,0,1,.312-.313h2.208c.168,0,.288.145.36.313l3.337,7.513V71.254a.341.341,0,0,1,.336-.313h2.111a.337.337,0,0,1,.313.313V85.223a.335.335,0,0,1-.313.312h-2.208c-.168,0-.288-.143-.36-.312Z" fill="#7fae13"/><path d="M262.029,80.9a.34.34,0,0,1-.312-.336V78.454a.335.335,0,0,1,.312-.311h5.809a.335.335,0,0,1,.312.311v2.112a.34.34,0,0,1-.312.336Z" fill="#7fae13"/><path d="M275.4,70.941c3.864,0,3.912,3.073,3.912,3.889a3.227,3.227,0,0,1-1.368,2.9c1.944.937,1.992,3.553,1.992,3.553,0,4.248-3.168,4.248-3.984,4.248h-4.465a.335.335,0,0,1-.312-.312V71.254a.336.336,0,0,1,.312-.313Zm1.152,4.393c0-.864-.192-1.632-1.176-1.632h-1.44v3.265h1.44C276.358,76.967,276.55,76.246,276.55,75.334Zm.624,5.953c0-.841-.192-1.56-1.128-1.56h-2.112v3.048h2.112C276.982,82.775,277.174,82.079,277.174,81.287Z" fill="#7fae13"/><path d="M290.926,85.223a.361.361,0,0,1-.336.337h-2.112c-.168,0-.289-.168-.336-.337l-1.248-3.816a6.455,6.455,0,0,1-.985.048h-.984v3.768a.361.361,0,0,1-.336.337h-2.112a.362.362,0,0,1-.288-.337V71.278a.363.363,0,0,1,.288-.337H286.1c3.191,0,4.536,2.257,4.536,4.969v.624a5.2,5.2,0,0,1-1.44,3.889Zm-4.824-6.5c1.127,0,1.775-.865,1.775-2.088v-.864c0-1.2-.648-2.065-1.775-2.065h-1.177v5.017Z" fill="#7fae13"/><path d="M298.87,70.941c.144,0,.263.145.312.313l3,13.969a.335.335,0,0,1-.313.312h-2.111a.357.357,0,0,1-.336-.312l-.408-2.136h-3.577l-.408,2.136a.357.357,0,0,1-.336.312h-2.112a.335.335,0,0,1-.312-.312l3-13.969c.048-.168.168-.313.312-.313Zm-2.9,9.337h2.5l-1.151-6.072h-.168Z" fill="#7fae13"/><path d="M307.005,77.734v7.489a.339.339,0,0,1-.336.312h-2.112a.335.335,0,0,1-.313-.312V71.254a.336.336,0,0,1,.313-.313h2.208c.169,0,.288.145.36.313l3.336,7.513V71.254a.341.341,0,0,1,.336-.313h2.112a.336.336,0,0,1,.312.313V85.223a.335.335,0,0,1-.312.312H310.7c-.168,0-.288-.143-.359-.312Z" fill="#7fae13"/><path d="M320.42,70.941c3.144,0,4.514,2.233,4.514,4.969v4.681c0,2.736-1.37,4.944-4.514,4.944h-3.863a.335.335,0,0,1-.313-.312V71.254a.336.336,0,0,1,.313-.313Zm1.753,4.826A1.824,1.824,0,0,0,320.42,73.7H319v9.073h1.416c1.08,0,1.753-.84,1.753-2.088Z" fill="#7fae13"/><path d="M330.356,79.727v3.048h4.033a.335.335,0,0,1,.312.312V85.2a.34.34,0,0,1-.312.336h-6.481a.335.335,0,0,1-.312-.312V71.254a.336.336,0,0,1,.312-.313h6.481a.341.341,0,0,1,.312.337V73.39a.335.335,0,0,1-.312.312h-4.033v3.265h3.216a.336.336,0,0,1,.313.311v2.113a.341.341,0,0,1-.313.336Z" fill="#7fae13"/><path d="M340,77.734v7.489a.339.339,0,0,1-.336.312h-2.111a.335.335,0,0,1-.313-.312V71.254a.336.336,0,0,1,.313-.313h2.207c.169,0,.289.145.361.313l3.336,7.513V71.254a.341.341,0,0,1,.336-.313h2.111a.336.336,0,0,1,.313.313V85.223a.335.335,0,0,1-.313.312H343.7a.43.43,0,0,1-.36-.312Z" fill="#7fae13"/><path d="M353.469,70.941c3.864,0,3.912,3.073,3.912,3.889a3.227,3.227,0,0,1-1.368,2.9c1.944.937,1.992,3.553,1.992,3.553,0,4.248-3.169,4.248-3.984,4.248h-4.464a.335.335,0,0,1-.313-.312V71.254a.336.336,0,0,1,.313-.313Zm1.152,4.393c0-.864-.192-1.632-1.177-1.632H352v3.265h1.44C354.429,76.967,354.621,76.246,354.621,75.334Zm.623,5.953c0-.841-.191-1.56-1.127-1.56H352v3.048h2.113C355.053,82.775,355.244,82.079,355.244,81.287Z" fill="#7fae13"/><path d="M360.02,80.734v-9.48a.336.336,0,0,1,.312-.313h2.111a.341.341,0,0,1,.336.313v9.505c0,1.223.649,2.088,1.753,2.088s1.752-.865,1.752-2.088V71.254a.341.341,0,0,1,.336-.313h2.112a.336.336,0,0,1,.313.313v9.48c0,2.689-1.369,4.921-4.513,4.921S360.02,83.423,360.02,80.734Z" fill="#7fae13"/><path d="M380.564,85.223a.361.361,0,0,1-.335.337h-2.113c-.168,0-.288-.168-.336-.337l-1.248-3.816a6.436,6.436,0,0,1-.984.048h-.984v3.768a.361.361,0,0,1-.335.337h-2.114a.362.362,0,0,1-.287-.337V71.278a.363.363,0,0,1,.287-.337h3.625c3.192,0,4.536,2.257,4.536,4.969v.624a5.2,5.2,0,0,1-1.44,3.889Zm-4.824-6.5c1.128,0,1.776-.865,1.776-2.088v-.864c0-1.2-.648-2.065-1.776-2.065h-1.176v5.017Z" fill="#7fae13"/><path d="M387.523,80.11a.34.34,0,0,1-.312-.336v-1.92a.336.336,0,0,1,.312-.312H391.2a.337.337,0,0,1,.313.312v2.929c0,2.664-1.344,4.872-4.488,4.872s-4.512-2.232-4.512-4.921V75.646c0-2.712,1.367-4.944,4.512-4.944,3.12,0,4.44,2.16,4.488,4.824a.34.34,0,0,1-.336.312H389.06a.36.36,0,0,1-.312-.336c-.049-1.224-.672-2.016-1.728-2.016-1.1,0-1.752.865-1.752,2.065v5.232c0,1.2.648,2.064,1.752,2.064,1.056,0,1.728-.792,1.728-2.04v-.7Z" fill="#7fae13"/></g></g></g></svg>