<svg xmlns="http://www.w3.org/2000/svg" width="361.197" height="106.499" viewBox="0 0 361.197 106.499"><g transform="translate(-84.67 -379.903)"><path d="M128.243,438.2H96.2L96.2,447.4h24.519a2.937,2.937,0,0,1,2.927,2.941v12.168a2.844,2.844,0,0,1-2.868,2.82l-.08,0H107.589a2.85,2.85,0,0,1-2.949-2.747l0-.066.022-6.085H96.2v13.543a4.579,4.579,0,0,0,4.579,4.579h27.517a4.579,4.579,0,0,0,4.5-4.578l.016-27.337a4.619,4.619,0,0,0-4.568-4.444" fill="#7fae13"/><path d="M163.1,456.106h-6.053a2.956,2.956,0,0,0-2.844,3.029v6.2h-6.412a2.95,2.95,0,0,1-2.857-2.907l-.009-24.243h-9.193v31.781a4.6,4.6,0,0,0,4.625,4.576h27.325a4.59,4.59,0,0,0,4.58-4.338V438.185H163.1Z" fill="#7fae13"/><path d="M100.72,434.655l27.48.045a4.606,4.606,0,0,0,4.6-4.614V416.473l-15.133.009v5.573h5.986v1.062a2.4,2.4,0,0,1-2.432,2.367H108.242a2.957,2.957,0,0,1-2.938-2.947V410.388a2.949,2.949,0,0,1,2.956-2.94h.013l24.526.005v-9.247H100.723a4.525,4.525,0,0,0-4.521,4.529v27.349a4.513,4.513,0,0,0,4.449,4.575h.069" fill="#7fae13"/><path d="M178.146,471.17a9.37,9.37,0,0,1-9.334,9.407H99.782a9.374,9.374,0,0,1-9.338-9.407V401.62a9.374,9.374,0,0,1,9.338-9.408H151.4A18.926,18.926,0,0,0,168.989,417.8a18.583,18.583,0,0,0,9.157-2.4Zm-12.565-85.8v6.82l-5.7.014h-.058v5.842h5.759V412.32a13.909,13.909,0,0,1-2.739-25.935,13.631,13.631,0,0,1,2.738-1.009m17.141,13.472a13.9,13.9,0,0,1-4.575,10.319,13.691,13.691,0,0,1-5.84,3.144V398.055h5.8v-5.842H172.3v-6.825a13.613,13.613,0,0,1,3.137,1.212,13.908,13.908,0,0,1,7.278,12.25m5.071,0a18.76,18.76,0,0,0-32.943-12.465H98.86A14.383,14.383,0,0,0,84.67,400.7v71.77c0,7.12,6.647,13.935,14.19,13.935h70.647a14.809,14.809,0,0,0,14.465-14.548l-.038-61.539a18.917,18.917,0,0,0,3.858-11.464" fill="#7fae13"/><g style="isolation:isolate"><g style="isolation:isolate"><path d="M209.23,427.756a.425.425,0,0,1-.39-.42v-2.4a.419.419,0,0,1,.39-.39h4.59a.419.419,0,0,1,.39.39v3.66c0,3.329-1.68,6.09-5.61,6.09s-5.64-2.79-5.64-6.151v-6.359c0-3.39,1.71-6.18,5.64-6.18,3.9,0,5.55,2.7,5.61,6.029a.425.425,0,0,1-.42.391h-2.64a.449.449,0,0,1-.39-.42c-.06-1.53-.84-2.52-2.16-2.52-1.38,0-2.19,1.08-2.19,2.58v6.54c0,1.5.81,2.58,2.19,2.58,1.32,0,2.16-.99,2.16-2.551v-.869Z" fill="#040405"/><path d="M220.66,427.275v3.81h5.04a.419.419,0,0,1,.39.391v2.639a.425.425,0,0,1-.39.42h-8.1a.419.419,0,0,1-.39-.389v-17.46a.419.419,0,0,1,.39-.39h8.1a.425.425,0,0,1,.39.42v2.639a.419.419,0,0,1-.39.391h-5.04v4.079h4.02a.419.419,0,0,1,.39.391v2.639a.425.425,0,0,1-.39.42Z" fill="#040405"/><path d="M235.18,430.426a.508.508,0,0,1-.42-.391l-2.07-6.059v10.17a.424.424,0,0,1-.42.389h-2.64a.419.419,0,0,1-.39-.389v-17.46a.419.419,0,0,1,.39-.39h3.54a.543.543,0,0,1,.48.39l2.7,8.07,2.7-8.07a.543.543,0,0,1,.48-.39h3.54a.418.418,0,0,1,.39.39v17.46a.418.418,0,0,1-.39.389H240.43a.425.425,0,0,1-.421-.389v-10.17l-2.07,6.059a.507.507,0,0,1-.419.391Z" fill="#040405"/><path d="M250.66,427.275v3.81H255.7a.419.419,0,0,1,.39.391v2.639a.425.425,0,0,1-.39.42h-8.1a.419.419,0,0,1-.391-.389v-17.46a.419.419,0,0,1,.391-.39h8.1a.425.425,0,0,1,.39.42v2.639a.419.419,0,0,1-.39.391H250.66v4.079h4.019a.419.419,0,0,1,.39.391v2.639a.425.425,0,0,1-.39.42Z" fill="#040405"/><path d="M259.24,416.686a.419.419,0,0,1,.39-.39h2.64a.425.425,0,0,1,.42.39v17.46a.424.424,0,0,1-.42.389h-2.64a.419.419,0,0,1-.39-.389Z" fill="#040405"/><path d="M269.89,424.785v9.361a.424.424,0,0,1-.42.389h-2.64a.419.419,0,0,1-.391-.389v-17.46a.419.419,0,0,1,.391-.39h2.759c.21,0,.361.18.451.39l4.169,9.389v-9.389a.425.425,0,0,1,.42-.39h2.64a.419.419,0,0,1,.39.39v17.46a.419.419,0,0,1-.39.389h-2.76c-.21,0-.36-.18-.45-.389Z" fill="#040405"/><path d="M286.629,416.3c3.93,0,5.64,2.79,5.64,6.21v5.849c0,3.42-1.71,6.18-5.64,6.18H281.8a.419.419,0,0,1-.39-.389v-17.46a.419.419,0,0,1,.39-.39Zm2.19,6.029c0-1.5-.84-2.579-2.19-2.579h-1.77v11.339h1.77c1.35,0,2.19-1.05,2.19-2.609Z" fill="#040405"/><path d="M299.02,427.275v3.81h5.039a.419.419,0,0,1,.39.391v2.639a.425.425,0,0,1-.39.42h-8.1a.419.419,0,0,1-.39-.389v-17.46a.419.419,0,0,1,.39-.39h8.1a.425.425,0,0,1,.39.42v2.639a.419.419,0,0,1-.39.391H299.02v4.079h4.019a.42.42,0,0,1,.39.391v2.639a.425.425,0,0,1-.39.42Z" fill="#040405"/><path d="M306.7,428.865a.417.417,0,0,1,.39-.389h2.64a.423.423,0,0,1,.419.389v.811a1.347,1.347,0,0,0,1.441,1.409,1.4,1.4,0,0,0,1.53-1.409v-12.99a.418.418,0,0,1,.39-.39h2.639a.425.425,0,0,1,.42.39v12.33c0,3.6-1.65,5.67-4.979,5.67-3.271,0-4.89-2.071-4.89-5.67Z" fill="#040405"/><path d="M319.869,428.535V416.686a.418.418,0,0,1,.39-.39H322.9a.425.425,0,0,1,.42.39v11.879c0,1.531.811,2.611,2.19,2.611s2.19-1.08,2.19-2.611V416.686a.425.425,0,0,1,.42-.39h2.64a.42.42,0,0,1,.39.39v11.849c0,3.361-1.71,6.151-5.64,6.151S319.869,431.9,319.869,428.535Z" fill="#040405"/><path d="M340.418,427.756a.425.425,0,0,1-.39-.42v-2.4a.419.419,0,0,1,.39-.39h4.59a.419.419,0,0,1,.39.39v3.66c0,3.329-1.68,6.09-5.61,6.09s-5.64-2.79-5.64-6.151v-6.359c0-3.39,1.71-6.18,5.64-6.18,3.9,0,5.55,2.7,5.61,6.029a.426.426,0,0,1-.419.391h-2.641a.449.449,0,0,1-.39-.42c-.059-1.53-.841-2.52-2.16-2.52-1.38,0-2.19,1.08-2.19,2.58v6.54c0,1.5.81,2.58,2.19,2.58,1.319,0,2.16-.99,2.16-2.551v-.869Z" fill="#040405"/><path d="M351.848,427.275v3.81h5.039a.419.419,0,0,1,.39.391v2.639a.424.424,0,0,1-.39.42h-8.1a.419.419,0,0,1-.39-.389v-17.46a.419.419,0,0,1,.39-.39h8.1a.424.424,0,0,1,.39.42v2.639a.418.418,0,0,1-.39.391h-5.039v4.079h4.019a.42.42,0,0,1,.391.391v2.639a.425.425,0,0,1-.391.42Z" fill="#040405"/><path d="M363.878,424.785v9.361a.424.424,0,0,1-.42.389h-2.64a.419.419,0,0,1-.39-.389v-17.46a.419.419,0,0,1,.39-.39h2.76c.209,0,.359.18.449.39l4.17,9.389v-9.389a.425.425,0,0,1,.42-.39h2.641a.419.419,0,0,1,.389.39v17.46a.419.419,0,0,1-.389.389H368.5c-.211,0-.36-.18-.451-.389Z" fill="#040405"/><path d="M380.617,416.3c3.93,0,5.641,2.79,5.641,6.21v5.849c0,3.42-1.711,6.18-5.641,6.18h-4.83a.419.419,0,0,1-.39-.389v-17.46a.419.419,0,0,1,.39-.39Zm2.19,6.029c0-1.5-.84-2.579-2.19-2.579h-1.769v11.339h1.769c1.35,0,2.19-1.05,2.19-2.609Z" fill="#040405"/><path d="M398.107,416.3a.445.445,0,0,1,.39.39l2.31,12.54,1.65-12.54a.447.447,0,0,1,.42-.39h2.67a.419.419,0,0,1,.39.39l-2.58,17.46c-.06.209-.211.389-.39.389h-3.81a.443.443,0,0,1-.389-.389L397,424.995l-1.77,9.151a.444.444,0,0,1-.389.389h-3.811c-.179,0-.33-.18-.39-.389l-2.579-17.46a.419.419,0,0,1,.389-.39h2.67a.446.446,0,0,1,.42.39l1.65,12.54,2.31-12.54a.445.445,0,0,1,.39-.39Z" fill="#040405"/><path d="M411.937,427.275v3.81h5.04a.419.419,0,0,1,.39.391v2.639a.425.425,0,0,1-.39.42h-8.1a.419.419,0,0,1-.39-.389v-17.46a.419.419,0,0,1,.39-.39h8.1a.425.425,0,0,1,.39.42v2.639a.419.419,0,0,1-.39.391h-5.04v4.079h4.02a.42.42,0,0,1,.391.391v2.639a.425.425,0,0,1-.391.42Z" fill="#040405"/><path d="M431.437,434.146a.451.451,0,0,1-.419.419h-2.641c-.21,0-.359-.21-.42-.419l-1.561-4.771a7.888,7.888,0,0,1-1.229.061h-1.23v4.71a.451.451,0,0,1-.419.419h-2.641a.451.451,0,0,1-.359-.419v-17.43a.451.451,0,0,1,.359-.42h4.53c3.989,0,5.669,2.82,5.669,6.21v.779a6.5,6.5,0,0,1-1.8,4.861Zm-6.03-8.13c1.409,0,2.22-1.08,2.22-2.611v-1.08c0-1.5-.811-2.579-2.22-2.579h-1.47v6.27Z" fill="#040405"/><path d="M442.357,416.686c.09-.21.241-.39.45-.39h2.67a.42.42,0,0,1,.39.39l-3.45,8.219v.42l3.45,8.821a.42.42,0,0,1-.39.389h-2.67c-.209,0-.36-.18-.45-.389l-2.91-7.17h-1.71v7.17a.424.424,0,0,1-.42.389h-2.639a.419.419,0,0,1-.391-.389v-17.46a.419.419,0,0,1,.391-.39h2.639a.425.425,0,0,1,.42.39v6.78h1.62Z" fill="#040405"/></g></g><g style="isolation:isolate"><g style="isolation:isolate"><path d="M205.823,448.734v7.489a.339.339,0,0,1-.336.312h-2.112a.335.335,0,0,1-.313-.312V442.254a.336.336,0,0,1,.313-.313h2.208c.168,0,.288.145.36.313l3.336,7.513v-7.513a.34.34,0,0,1,.336-.313h2.112a.337.337,0,0,1,.313.313v13.969a.335.335,0,0,1-.313.312h-2.208c-.168,0-.288-.143-.36-.312Z" fill="#7fae13"/><path d="M223.679,446.622v5.112c0,2.689-1.344,4.921-4.488,4.921s-4.488-2.232-4.488-4.921v-5.112c0-2.712,1.343-4.944,4.488-4.944S223.679,443.91,223.679,446.622Zm-2.76,5.137v-5.208c0-1.2-.624-2.065-1.728-2.065s-1.728.865-1.728,2.065v5.208c0,1.223.624,2.088,1.728,2.088S220.919,452.982,220.919,451.759Z" fill="#7fae13"/><path d="M235.079,456.223a.361.361,0,0,1-.336.337h-2.112c-.168,0-.288-.168-.336-.337l-1.248-3.816a6.446,6.446,0,0,1-.985.048h-.983v3.768a.361.361,0,0,1-.336.337H226.63a.362.362,0,0,1-.288-.337V442.278a.363.363,0,0,1,.288-.337h3.625c3.192,0,4.536,2.257,4.536,4.969v.624a5.2,5.2,0,0,1-1.44,3.889Zm-4.824-6.5c1.128,0,1.776-.865,1.776-2.088v-.864c0-1.2-.648-2.065-1.776-2.065h-1.176v5.017Z" fill="#7fae13"/><path d="M241.558,441.941c3.145,0,4.513,2.233,4.513,4.969v4.681c0,2.736-1.368,4.944-4.513,4.944h-3.864a.335.335,0,0,1-.312-.312V442.254a.336.336,0,0,1,.312-.313Zm1.753,4.826a1.824,1.824,0,0,0-1.753-2.065h-1.416v9.073h1.416c1.08,0,1.753-.84,1.753-2.088Z" fill="#7fae13"/><path d="M255.575,441.941a.357.357,0,0,1,.312.313l1.848,10.033,1.32-10.033a.359.359,0,0,1,.336-.313h2.136a.336.336,0,0,1,.312.313l-2.064,13.969c-.048.169-.168.312-.312.312h-3.048a.355.355,0,0,1-.312-.312l-1.416-7.321-1.416,7.321a.355.355,0,0,1-.313.312H249.91c-.144,0-.264-.143-.312-.312l-2.064-13.969a.336.336,0,0,1,.312-.313h2.136a.359.359,0,0,1,.336.313l1.321,10.033,1.848-10.033a.357.357,0,0,1,.312-.313Z" fill="#7fae13"/><path d="M266.662,450.727v3.048h4.032a.335.335,0,0,1,.312.312V456.2a.34.34,0,0,1-.312.336h-6.48a.335.335,0,0,1-.312-.312V442.254a.336.336,0,0,1,.312-.313h6.48a.341.341,0,0,1,.312.337v2.112a.335.335,0,0,1-.312.312h-4.032v3.265h3.216a.335.335,0,0,1,.312.311v2.113a.34.34,0,0,1-.312.336Z" fill="#7fae13"/><path d="M277.15,444.486c-.816,0-1.368.409-1.368,1.489,0,2.567,5.808.6,5.808,6.144,0,.192-.168,4.536-4.224,4.536-4.1,0-4.488-2.952-4.536-4.176a.335.335,0,0,1,.312-.312h2.088a.406.406,0,0,1,.36.312,1.631,1.631,0,0,0,3.24-.289c0-2.687-5.808-.935-5.808-6.264a4.165,4.165,0,1,1,8.329-.048.335.335,0,0,1-.312.312H278.95a.406.406,0,0,1-.36-.312A1.3,1.3,0,0,0,277.15,444.486Z" fill="#7fae13"/><path d="M285.838,444.7h-2.592a.34.34,0,0,1-.312-.336v-2.112a.336.336,0,0,1,.312-.313h7.944a.336.336,0,0,1,.312.313v2.112a.34.34,0,0,1-.312.336H288.6v11.521a.339.339,0,0,1-.336.312H286.15a.335.335,0,0,1-.312-.312Z" fill="#7fae13"/><path d="M297.742,441.941c3.145,0,4.512,2.233,4.512,4.969v4.681c0,2.736-1.367,4.944-4.512,4.944h-3.865a.335.335,0,0,1-.312-.312V442.254a.336.336,0,0,1,.312-.313Zm1.752,4.826a1.824,1.824,0,0,0-1.752-2.065h-1.416v9.073h1.416c1.08,0,1.752-.84,1.752-2.088Z" fill="#7fae13"/><path d="M307.678,450.727v3.048h4.031a.335.335,0,0,1,.312.312V456.2a.34.34,0,0,1-.312.336h-6.48a.335.335,0,0,1-.312-.312V442.254a.336.336,0,0,1,.312-.313h6.48a.341.341,0,0,1,.312.337v2.112a.335.335,0,0,1-.312.312h-4.031v3.265h3.216a.334.334,0,0,1,.311.311v2.113a.339.339,0,0,1-.311.336Z" fill="#7fae13"/><path d="M314.324,451.734v-9.48a.337.337,0,0,1,.313-.313h2.112a.34.34,0,0,1,.336.313v9.505c0,1.223.648,2.088,1.753,2.088s1.752-.865,1.752-2.088v-9.505a.34.34,0,0,1,.336-.313h2.111a.336.336,0,0,1,.313.313v9.48c0,2.689-1.369,4.921-4.512,4.921S314.324,454.423,314.324,451.734Z" fill="#7fae13"/><path d="M328.077,444.7h-2.593a.339.339,0,0,1-.311-.336v-2.112a.335.335,0,0,1,.311-.313h7.946a.336.336,0,0,1,.312.313v2.112a.34.34,0,0,1-.312.336h-2.592v11.521a.339.339,0,0,1-.336.312h-2.113a.335.335,0,0,1-.312-.312Z" fill="#7fae13"/><path d="M339.4,444.486c-.815,0-1.367.409-1.367,1.489,0,2.567,5.809.6,5.809,6.144,0,.192-.168,4.536-4.225,4.536-4.1,0-4.488-2.952-4.537-4.176a.335.335,0,0,1,.312-.312h2.088a.407.407,0,0,1,.361.312,1.631,1.631,0,0,0,3.24-.289c0-2.687-5.808-.935-5.808-6.264a4.164,4.164,0,1,1,8.328-.048.335.335,0,0,1-.312.312H341.2a.4.4,0,0,1-.359-.312A1.3,1.3,0,0,0,339.4,444.486Z" fill="#7fae13"/><path d="M350.3,444.486c-1.1,0-1.752.865-1.752,2.065v5.232c0,1.2.648,2.064,1.752,2.064,1.056,0,1.679-.792,1.728-2.04a.36.36,0,0,1,.312-.336h2.112a.339.339,0,0,1,.336.312c-.023,2.664-1.344,4.872-4.488,4.872s-4.512-2.232-4.512-4.921v-5.088c0-2.712,1.367-4.944,4.512-4.944,3.12,0,4.44,2.16,4.488,4.824a.34.34,0,0,1-.336.312h-2.112a.36.36,0,0,1-.312-.336C351.98,445.278,351.357,444.486,350.3,444.486Z" fill="#7fae13"/><path d="M362.637,451.039h-2.9v5.184a.339.339,0,0,1-.336.312h-2.112a.334.334,0,0,1-.311-.312V442.254a.336.336,0,0,1,.311-.313H359.4a.34.34,0,0,1,.336.313v5.976h2.9v-5.976a.336.336,0,0,1,.312-.313h2.112a.34.34,0,0,1,.335.313v13.969a.338.338,0,0,1-.335.312h-2.112a.335.335,0,0,1-.312-.312Z" fill="#7fae13"/><path d="M368.42,442.254a.336.336,0,0,1,.312-.313h2.112a.34.34,0,0,1,.336.313v11.521h4.033a.334.334,0,0,1,.311.312V456.2a.339.339,0,0,1-.311.336h-6.481a.335.335,0,0,1-.312-.312Z" fill="#7fae13"/><path d="M383.588,441.941c.144,0,.264.145.312.313l3,13.969a.335.335,0,0,1-.312.312h-2.111a.357.357,0,0,1-.336-.312l-.409-2.136h-3.576l-.408,2.136a.357.357,0,0,1-.336.312H377.3a.335.335,0,0,1-.312-.312l3-13.969c.048-.168.168-.313.312-.313Zm-2.9,9.337h2.5l-1.152-6.072h-.168Z" fill="#7fae13"/><path d="M391.725,448.734v7.489a.339.339,0,0,1-.336.312h-2.114a.334.334,0,0,1-.311-.312V442.254a.336.336,0,0,1,.311-.313h2.209c.168,0,.287.145.36.313l3.337,7.513v-7.513a.34.34,0,0,1,.336-.313h2.112a.337.337,0,0,1,.312.313v13.969a.335.335,0,0,1-.312.312H395.42c-.168,0-.287-.143-.359-.312Z" fill="#7fae13"/><path d="M405.14,441.941c3.144,0,4.512,2.233,4.512,4.969v4.681c0,2.736-1.368,4.944-4.512,4.944h-3.865a.335.335,0,0,1-.312-.312V442.254a.336.336,0,0,1,.312-.313Zm1.753,4.826a1.824,1.824,0,0,0-1.753-2.065h-1.416v9.073h1.416c1.08,0,1.753-.84,1.753-2.088Z" fill="#7fae13"/></g></g></g></svg>