<svg id="Logo" xmlns="http://www.w3.org/2000/svg" viewBox="0 0 718.73 117.09">
  <path d="M375,283.41c-5.79,0-10.29,1.95-13.37,6V268H351v57.81h10.66V321c3.08,4.05,7.58,6,13.37,6a18.62,18.62,0,0,0,14.19-6.3,23.14,23.14,0,0,0,0-30.94A18.79,18.79,0,0,0,375,283.41Zm6.15,30.18a11,11,0,0,1-8.18,3.23,10.74,10.74,0,0,1-8.11-3.23,11.54,11.54,0,0,1-3.23-8.41A11.18,11.18,0,0,1,373,293.54a10.67,10.67,0,0,1,8.18,3.31,11.74,11.74,0,0,1,3.31,8.33A11.33,11.33,0,0,1,381.19,313.59Z" transform="translate(-60.16 -238.38)"  style="fill:#000064;"/>
  <path d="M251.36,304.8H268c-2.29,6.5-8.16,11.34-16.68,11.34-11,0-18.77-8.48-18.77-19.22S240.25,277.7,251,277.7a18.23,18.23,0,0,1,16.37,9.84L277,282a30,30,0,1,0-26,45c16.59,0,29.28-12.38,29.28-29.2v-3h-28.9Z" transform="translate(-60.16 -238.38)"  style="fill:#000064;"/>
  <path d="M323.83,283.41a21.53,21.53,0,1,0,15.54,6.3A21.24,21.24,0,0,0,323.83,283.41Zm8,29.95a10.71,10.71,0,0,1-8,3.23,11.07,11.07,0,0,1-8-3.23,10.79,10.79,0,0,1-3.08-8.18A11.5,11.5,0,0,1,315.8,297a10.38,10.38,0,0,1,8-3.23,11.09,11.09,0,0,1,8,3.23,10.88,10.88,0,0,1,3.15,8.18A11.26,11.26,0,0,1,331.87,313.36Z" transform="translate(-60.16 -238.38)"  style="fill:#000064;"/>
  <rect x="225.9" y="29.64" width="10.66" height="57.81"  style="fill:#000064;"/>
  <path d="M432,289.41c-3.23-4.05-7.66-6-13.44-6a18.77,18.77,0,0,0-14.19,6.3,21.62,21.62,0,0,0-5.86,15.47,21.93,21.93,0,0,0,5.86,15.47,18.5,18.5,0,0,0,14.19,6.3c5.78,0,10.21-1.95,13.44-6v4.88h10.66v-41.3H432Zm-3.31,24.18a12,12,0,0,1-16.36,0,12.66,12.66,0,0,1,0-16.74,10.89,10.89,0,0,1,8.18-3.31,10.77,10.77,0,0,1,8.18,3.31,11.42,11.42,0,0,1,3.31,8.33A11.29,11.29,0,0,1,428.64,313.59Z" transform="translate(-60.16 -238.38)"  style="fill:#000064;"/>
  <path d="M547.49,283.41a21.65,21.65,0,1,0,15.47,6.3A21.06,21.06,0,0,0,547.49,283.41Zm8,29.95a10.65,10.65,0,0,1-8,3.23,10.52,10.52,0,0,1-8-3.23,11.42,11.42,0,0,1-3.23-8.18,11,11,0,0,1,3.23-8.18,11.41,11.41,0,0,1,15.91,0,12,12,0,0,1,0,16.36Z" transform="translate(-60.16 -238.38)"  style="fill:#000064;"/>
  <path d="M731.44,316.37a11,11,0,0,1-8-3.08,10.74,10.74,0,0,1-3.08-8.11c0-6.61,4.66-11.34,11-11.34a10.2,10.2,0,0,1,9.38,5.56l9.16-5.33c-3.37-6.53-10.43-10.66-18.47-10.66a21.07,21.07,0,0,0-15.61,6.23,20.85,20.85,0,0,0-6.16,15.54,21.13,21.13,0,0,0,6.16,15.47,21.92,21.92,0,0,0,34.23-4.43L740.9,311C739.25,314.34,735.72,316.37,731.44,316.37Z" transform="translate(-60.16 -238.38)"  style="fill:#000064;"/>
  <path d="M685.72,283.41c-6.39,0-11.57,2-15.7,6.23a22.89,22.89,0,0,0,.08,31.16c4.13,4.13,9.61,6.15,16.44,6.15,7.89,0,14-3,18-8.86l-8.56-4.95c-2,2.78-5.18,4.13-9.24,4.13-6.45,0-10.28-2.55-11.64-7.74h31.09a22.48,22.48,0,0,0,.45-4.35,21.92,21.92,0,0,0-5.93-15.54A19.5,19.5,0,0,0,685.72,283.41ZM674.9,301.28c1.21-5.26,5.11-8.34,10.82-8.34a10,10,0,0,1,10.21,8.34Z" transform="translate(-60.16 -238.38)" style="fill:#000064;"/>
  <path d="M778.89,294.74V284.53h-9.31V273l-10.66,3.23v8.33h-7.13v10.21h7.13v17.2c0,9.76,4,14.26,14.41,14.26a53,53,0,0,0,5.56-.37v-9.69c-1.2.08-2.25.08-3.23.08-4,0-6.08-.75-6.08-4.28v-17.2Z" transform="translate(-60.16 -238.38)"  style="fill:#000064;" />
  <rect x="390.03" y="29.64" width="10.66" height="57.81"  style="fill:#000064;"/>
  <path d="M497.27,277.7a18.12,18.12,0,0,1,16.29,9.84l9.76-5.56a30,30,0,1,0,0,29.88l-9.76-5.55a18.13,18.13,0,0,1-16.29,9.83c-10.82,0-18.47-8.48-18.47-19.22S486.45,277.7,497.27,277.7Z" transform="translate(-60.16 -238.38)"  style="fill:#000064;"/>
  <path d="M597.65,283.41c-5.63,0-9.76,1.87-12.32,5.78v-4.66H574.67v41.3h10.66v-22.3c0-6.83,3.53-10.21,9.09-10.21,5,0,8.18,2.93,8.18,8.48v24h10.66V300.45c0-5.33-1.42-9.46-4.5-12.54A15.1,15.1,0,0,0,597.65,283.41Z" transform="translate(-60.16 -238.38)"  style="fill:#000064;"/>
  <path d="M643.45,283.41c-5.63,0-9.76,1.87-12.32,5.78v-4.66H620.47v41.3h10.66v-22.3c0-6.83,3.53-10.21,9.09-10.21,4.95,0,8.18,2.93,8.18,8.48v24h10.66V300.45c0-5.33-1.42-9.46-4.5-12.54A15.1,15.1,0,0,0,643.45,283.41Z" transform="translate(-60.16 -238.38)"  style="fill:#000064;"/>
  <path d="M176.44,287.22H131.61a16.16,16.16,0,1,0,0,19.4h23.17a37.36,37.36,0,1,1-3.7-28.32l18.37-10.56a58.48,58.48,0,1,0,7,19.48Z" transform="translate(-60.16 -238.38)" style="fill:#000064;"/>
</svg>
