<svg xmlns="http://www.w3.org/2000/svg" viewBox="0 0 566.93 243.61"><defs><style>.cls-1{fill:#231f20;}</style></defs><title>aAsset 10</title><g id="Layer_2" data-name="Layer 2"><g id="Layer_1-2" data-name="Layer 1"><path class="cls-1" d="M109.17,242.45c-.71-.31-.84-.53-.84-1.51,0-2.45.17-5.13.22-5.84s.18-1.16.53-1.16.45.4.45.76a9.54,9.54,0,0,0,.4,2.27c1,3.3,3.61,4.5,6.37,4.5,4,0,6-2.72,6-5.08,0-2.18-.67-4.23-4.37-7.13l-2-1.61c-4.91-3.83-6.6-7-6.6-10.56,0-4.9,4.1-8.42,10.3-8.42a21.3,21.3,0,0,1,5.93.76c.4.09.62.22.62.53,0,.58-.18,1.87-.18,5.35,0,1-.13,1.34-.49,1.34s-.45-.27-.45-.8a5.41,5.41,0,0,0-1.15-2.95,5.68,5.68,0,0,0-4.86-2.18c-3.3,0-5.31,1.92-5.31,4.59,0,2.05,1,3.61,4.73,6.42l1.25.93C125,226.72,127,229.8,127,234a9,9,0,0,1-4.19,7.75,12.87,12.87,0,0,1-7.09,1.83A15.4,15.4,0,0,1,109.17,242.45Z"/><path class="cls-1" d="M137.12,222.22c0-6.78,0-8-.09-9.45s-.44-2.23-1.91-2.54a9.14,9.14,0,0,0-1.74-.13c-.49,0-.76-.09-.76-.41s.31-.4,1-.4c2.37,0,5.17.14,6.42.14,1.83,0,4.41-.14,6.46-.14,5.58,0,7.58,1.87,8.29,2.54a7.75,7.75,0,0,1,2.23,5.31c0,6.33-4.63,10.78-11,10.78a7.39,7.39,0,0,1-.94,0c-.22,0-.53-.09-.53-.4s.31-.49,1.25-.49c2.49,0,6-2.81,6-7.36a8.59,8.59,0,0,0-2.63-6.68,6.64,6.64,0,0,0-4.46-1.74,6.07,6.07,0,0,0-1.74.18c-.22.09-.35.35-.35.84v17.83c0,4.1,0,7.62.22,9.54.13,1.25.4,2.23,1.74,2.41a18.49,18.49,0,0,0,2.27.17c.49,0,.71.14.71.36s-.35.45-.84.45c-2.94,0-5.75-.14-6.91-.14s-3.83.14-5.62.14c-.58,0-.89-.14-.89-.45s.18-.36.72-.36a7.3,7.3,0,0,0,1.6-.17c.89-.18,1.11-1.16,1.29-2.45.22-1.88.22-5.4.22-9.5Z"/><path class="cls-1" d="M161,226.14c0-7.62,5-17.47,18.41-17.47,11.1,0,18,6.46,18,16.67S190.3,243.61,179,243.61C166.19,243.61,161,234,161,226.14Zm30.18.85c0-10-5.75-16.18-13.06-16.18-5.13,0-11,2.85-11,13.95,0,9.27,5.13,16.62,13.69,16.62C184,241.38,191.2,239.87,191.2,227Z"/><path class="cls-1" d="M206.32,222.22c0-6.78,0-8-.09-9.45s-.45-2.23-1.92-2.54a9.14,9.14,0,0,0-1.74-.13c-.49,0-.76-.09-.76-.41s.32-.4,1-.4c2.37,0,5.17.14,6.11.14,1.52,0,4.9-.14,6.29-.14,2.8,0,5.79.27,8.2,1.92a7.75,7.75,0,0,1,3,6.11c0,3.29-1.39,6.32-5.89,10,4,5,7.05,9,9.67,11.72,2.5,2.58,4.33,2.9,5,3a6.88,6.88,0,0,0,1.24.13c.36,0,.54.14.54.36s-.31.45-.85.45H231.9c-2.5,0-3.61-.23-4.77-.85-1.92-1-3.61-3.12-6.11-6.55-1.78-2.45-3.83-5.48-4.41-6.15a.92.92,0,0,0-.8-.31l-3.88-.09c-.22,0-.35.09-.35.35V230c0,4.14,0,7.66.22,9.54.13,1.29.4,2.27,1.74,2.45a20,20,0,0,0,2.18.17c.36,0,.53.14.53.36s-.31.45-.89.45c-2.58,0-5.88-.14-6.55-.14-.85,0-3.65.14-5.44.14-.58,0-.89-.14-.89-.45s.18-.36.72-.36a7.3,7.3,0,0,0,1.6-.17c.89-.18,1.12-1.16,1.29-2.45.23-1.88.23-5.4.23-9.5Zm5.26,3.52c0,.49.08.67.4.8a11.76,11.76,0,0,0,3.38.45c1.79,0,2.37-.18,3.17-.76,1.34-1,2.63-3,2.63-6.69,0-6.32-4.19-8.15-6.82-8.15a9.36,9.36,0,0,0-2.36.18c-.32.08-.4.26-.4.62Z"/><path class="cls-1" d="M243.76,211.79l-6.64.18c-2.58.09-3.65.31-4.32,1.29a5.19,5.19,0,0,0-.76,1.56c-.09.36-.22.53-.49.53s-.4-.22-.4-.71c0-.71.85-4.77.94-5.12.13-.58.26-.85.53-.85a10.55,10.55,0,0,0,1.92.53,44.38,44.38,0,0,0,4.45.23h17.65a21,21,0,0,0,3.08-.23,11.35,11.35,0,0,1,1.2-.22c.31,0,.36.27.36.94,0,.93-.14,4-.14,5.17,0,.44-.13.71-.4.71s-.44-.22-.49-.89l0-.49c-.09-1.16-1.29-2.41-5.26-2.5l-5.62-.13v18.27c0,4.1,0,7.62.23,9.54.13,1.25.4,2.23,1.73,2.41a18.81,18.81,0,0,0,2.28.17c.49,0,.71.14.71.36s-.35.45-.85.45c-2.94,0-5.74-.14-7-.14-1,0-3.84.14-5.62.14-.58,0-.89-.14-.89-.45s.18-.36.71-.36a7.33,7.33,0,0,0,1.61-.17c.89-.18,1.16-1.16,1.29-2.45.22-1.88.22-5.4.22-9.5Z"/><path class="cls-1" d="M266.59,242.45c-.71-.31-.85-.53-.85-1.51,0-2.45.18-5.13.23-5.84s.17-1.16.53-1.16.45.4.45.76a9.06,9.06,0,0,0,.4,2.27c1,3.3,3.61,4.5,6.37,4.5,4,0,6-2.72,6-5.08,0-2.18-.66-4.23-4.36-7.13l-2.05-1.61c-4.91-3.83-6.6-7-6.6-10.56,0-4.9,4.1-8.42,10.29-8.42a21.24,21.24,0,0,1,5.93.76c.4.09.63.22.63.53,0,.58-.18,1.87-.18,5.35,0,1-.14,1.34-.49,1.34s-.45-.27-.45-.8a5.37,5.37,0,0,0-1.16-2.95,5.66,5.66,0,0,0-4.86-2.18c-3.29,0-5.3,1.92-5.3,4.59,0,2.05,1,3.61,4.73,6.42l1.24.93c5.4,4.06,7.31,7.14,7.31,11.37a9,9,0,0,1-4.19,7.75,12.84,12.84,0,0,1-7.08,1.83A15.4,15.4,0,0,1,266.59,242.45Z"/><path class="cls-1" d="M309.25,231.62c-.22,0-.31.09-.4.36l-2.41,6.11a8.7,8.7,0,0,0-.66,2.71c0,.8.4,1.38,1.78,1.38h.67c.53,0,.67.09.67.36s-.27.45-.76.45c-1.43,0-3.34-.14-4.72-.14-.49,0-2.95.14-5.27.14-.57,0-.84-.09-.84-.45s.18-.36.53-.36,1,0,1.39-.08c2-.27,2.89-1.79,3.78-4l11.19-27.64c.53-1.29.8-1.78,1.25-1.78s.67.4,1.11,1.43c1.07,2.45,8.2,20.28,11.06,27.05,1.69,4,3,4.63,3.92,4.86a10,10,0,0,0,1.87.17c.36,0,.58,0,.58.36s-.4.45-2.05.45-4.86,0-8.43-.09c-.8-.05-1.33-.05-1.33-.36s.18-.36.62-.4a.72.72,0,0,0,.4-1l-3.56-9.19a.43.43,0,0,0-.45-.31Zm9.09-2.23c.23,0,.27-.13.23-.26l-4-11c-.05-.18-.09-.4-.22-.4s-.23.22-.27.4L310,229.08c-.05.18,0,.31.17.31Z"/><path class="cls-1" d="M338.23,222.22c0-6.78,0-8-.09-9.45s-.44-2.23-1.91-2.54a9.21,9.21,0,0,0-1.74-.13c-.49,0-.76-.09-.76-.41s.31-.4,1-.4c2.36,0,5.17.14,6.11.14,1.51,0,4.9-.14,6.28-.14,2.81,0,5.79.27,8.2,1.92a7.72,7.72,0,0,1,3,6.11c0,3.29-1.38,6.32-5.88,10,4,5,7,9,9.67,11.72,2.5,2.58,4.33,2.9,5,3a6.89,6.89,0,0,0,1.25.13c.36,0,.54.14.54.36s-.32.45-.85.45h-4.24c-2.49,0-3.6-.23-4.76-.85-1.92-1-3.62-3.12-6.11-6.55-1.78-2.45-3.83-5.48-4.41-6.15a.94.94,0,0,0-.81-.31l-3.87-.09c-.22,0-.36.09-.36.35V230c0,4.14,0,7.66.22,9.54.14,1.29.4,2.27,1.74,2.45a20.16,20.16,0,0,0,2.19.17c.35,0,.53.14.53.36s-.31.45-.89.45c-2.59,0-5.88-.14-6.55-.14-.85,0-3.66.14-5.44.14-.58,0-.89-.14-.89-.45s.18-.36.71-.36a7.4,7.4,0,0,0,1.61-.17c.89-.18,1.11-1.16,1.29-2.45.22-1.88.22-5.4.22-9.5Zm5.26,3.52c0,.49.09.67.4.8a11.88,11.88,0,0,0,3.39.45c1.78,0,2.36-.18,3.16-.76,1.34-1,2.63-3,2.63-6.69,0-6.32-4.19-8.15-6.82-8.15a9.46,9.46,0,0,0-2.36.18c-.31.08-.4.26-.4.62Z"/><path class="cls-1" d="M371.44,222.22c0-6.78,0-8-.09-9.45s-.44-2.23-1.91-2.54a9.21,9.21,0,0,0-1.74-.13c-.49,0-.76-.09-.76-.41s.32-.4,1-.4c1.21,0,2.5.05,3.61.05s2.19.09,2.81.09c1.43,0,10.3,0,11.14-.05a17.73,17.73,0,0,0,1.92-.27,4.57,4.57,0,0,1,.71-.17c.23,0,.27.17.27.4s-.22.85-.36,2.89c0,.45-.13,2.41-.22,3,0,.22-.13.49-.45.49s-.39-.23-.39-.63a4.83,4.83,0,0,0-.27-1.6c-.31-.8-.76-1.34-3-1.61-.76-.09-5.44-.18-6.33-.18-.22,0-.31.14-.31.45v11.28c0,.31,0,.49.31.49,1,0,6.11,0,7.13-.09s1.74-.22,2.14-.67.49-.58.71-.58.32.09.32.36-.18,1-.36,3.25c0,.89-.18,2.67-.18,3s0,.84-.4.84a.35.35,0,0,1-.4-.4,10.29,10.29,0,0,0-.18-1.6c-.22-.89-.84-1.56-2.49-1.74-.85-.09-5.26-.13-6.33-.13-.23,0-.27.17-.27.44v3.52c0,1.52,0,5.62,0,6.91.09,3.08.8,3.74,5.35,3.74a11.4,11.4,0,0,0,4.19-.53c1.16-.54,1.69-1.47,2-3.3.09-.49.18-.67.49-.67s.36.36.36.8a35.3,35.3,0,0,1-.58,5c-.31,1.16-.71,1.16-2.41,1.16-3.34,0-5.79-.09-7.71-.13s-3.29-.14-4.63-.14c-.49,0-1.47,0-2.54.05s-2.19.09-3.08.09c-.58,0-.89-.14-.89-.45s.18-.36.71-.36a7.33,7.33,0,0,0,1.61-.17c.89-.18,1.12-1.16,1.29-2.45.22-1.88.22-5.4.22-9.5Z"/><path class="cls-1" d="M401.67,236.93c.09,3.47.67,4.63,1.56,4.94a7,7,0,0,0,2.32.31c.49,0,.75.09.75.36s-.4.45-1,.45c-2.9,0-4.68-.14-5.53-.14-.4,0-2.49.14-4.81.14-.58,0-1-.05-1-.45s.26-.36.71-.36a7.88,7.88,0,0,0,2-.22c1.16-.36,1.33-1.65,1.38-5.52l.4-26.25c0-.9.13-1.52.58-1.52s.89.58,1.65,1.38c.53.58,7.31,7.71,13.81,14.17,3,3,9.05,9.45,9.81,10.17h.22l-.44-20c0-2.72-.45-3.56-1.52-4a7.47,7.47,0,0,0-2.36-.26c-.54,0-.71-.14-.71-.41s.49-.4,1.16-.4c2.31,0,4.45.14,5.39.14.49,0,2.18-.14,4.37-.14.58,0,1,.05,1,.4s-.27.41-.8.41a5,5,0,0,0-1.34.13c-1.25.36-1.6,1.29-1.65,3.79l-.49,28.12c0,1-.17,1.38-.58,1.38s-1-.49-1.51-1c-2.81-2.67-8.51-8.51-13.15-13.1-4.86-4.81-9.8-10.25-10.61-11.1h-.13Z"/><path class="cls-1" d="M442.73,231.62c-.22,0-.31.09-.4.36l-2.41,6.11a8.79,8.79,0,0,0-.67,2.71c0,.8.4,1.38,1.79,1.38h.66c.54,0,.67.09.67.36s-.26.45-.76.45c-1.42,0-3.34-.14-4.72-.14-.49,0-2.94.14-5.26.14-.58,0-.85-.09-.85-.45s.18-.36.54-.36,1,0,1.38-.08c2.05-.27,2.9-1.79,3.79-4l11.19-27.64c.53-1.29.8-1.78,1.25-1.78s.66.4,1.11,1.43c1.07,2.45,8.2,20.28,11,27.05,1.7,4,3,4.63,3.92,4.86a10.08,10.08,0,0,0,1.88.17c.35,0,.58,0,.58.36s-.41.45-2.05.45-4.86,0-8.43-.09c-.8-.05-1.34-.05-1.34-.36s.18-.36.63-.4a.73.73,0,0,0,.4-1l-3.57-9.19a.43.43,0,0,0-.44-.31Zm9.09-2.23c.23,0,.27-.13.23-.26l-4-11c0-.18-.09-.4-.22-.4s-.22.22-.27.4l-4.1,10.92c0,.18,0,.31.18.31Z"/><path class="cls-1" d="M565.11,184.6a22.56,22.56,0,0,1-5-.59,13.58,13.58,0,0,1-6-3.08c-2.72-2.55-5.44-7.15-8.07-13.67-15-37.45-27-67.82-35.8-90.27-2-4.93-3-5.57-3.65-5.57s-1.68.69-3.64,6l-34.88,93c-2.7,7.15-6.14,11.61-10.22,13.25h0a.73.73,0,0,0-.43.18l-.05,0c-2.81-.88-4.39-3.55-4.67-8-.17-2.73.26-87.76.46-91,.3-5,2.08-7.69,5.45-8.27a24.78,24.78,0,0,1,3.79-.45c1.32,0,1.51-.74,1.51-1.18,0-1-.92-1.48-2.74-1.48s-4.82.1-9.07.3l-6,.15-6.14-.15c-4.2-.2-7.36-.3-9.39-.3-1.81,0-2.74.5-2.74,1.48,0,.44.2,1.18,1.52,1.18a21.38,21.38,0,0,1,4.69.59c3,.76,4.71,3.5,5,8.13.17,2.74-.26,87.77-.46,91-.25,4.2-1.57,6.76-4,7.81-5.37-1.41-10.57-4.8-15.49-10.1-3.7-3.91-8.39-9.49-14-16.58-1.31-1.69-6.39-8.21-16.47-21.13,11.75-11,17.7-22.55,17.7-34.27a24,24,0,0,0-10.26-20.38c-6-4.36-15.12-6.58-27.1-6.58-1.76,0-5,.1-9.86.3l-7.5.15v.06c-.54-.08-2-.12-6-.21-4.32-.2-7.88-.3-10.6-.3-1.75,0-2.64.5-2.64,1.47,0,.44.19,1.18,1.46,1.18a24.06,24.06,0,0,1,4.94.43c3.82.87,5.82,3.55,6.11,8.19.19,3.26.29,14,.29,32V144c0,17.5-.25,28.3-.73,32.12-.57,4.79-1.94,7.45-4,7.91a22.25,22.25,0,0,1-4.21.59c-1.4,0-1.6.73-1.6,1.17,0,1,.88,1.47,2.63,1.47,2.47,0,7.11-.15,13.79-.44l6.21.14c4.62.2,8.63.3,11.93.3,1.75,0,2.64-.5,2.64-1.47,0-.44-.19-1.17-1.46-1.17a51.8,51.8,0,0,1-6.58-.59c-3.08-.47-4.93-3.13-5.5-7.9-.49-4.32-.73-15.13-.73-32.13v-3.56c0-.79.37-.9.74-.9l18.1.3a2.34,2.34,0,0,1,1.68.77c6.31,8.49,11.7,15.87,16.05,21.93,5.56,7.41,9.07,11.92,10.75,13.8,3.24,3.87,6.34,6.58,9.2,8.07,3.45,1.89,8.8,2.85,15.88,2.85h10.45a8.13,8.13,0,0,0,2.92-.39l2.31-.06,6.14.15c4.26.2,7.33.3,9.38.3a4,4,0,0,0,2.14-.44H469l.86,0,.61,0,13.4-.07H484l.08-.08a1.15,1.15,0,0,0,.38-.9c0-.54-.31-1.18-1.82-1.18h-1.53c-3.74,0-5.56-1.33-5.56-4.06a31.68,31.68,0,0,1,2.14-9.94l9.21-26.49a1.33,1.33,0,0,1,1.28-1h33a1.2,1.2,0,0,1,1.12.72l14.29,36.82a3.81,3.81,0,0,1,.32,2.91,1.51,1.51,0,0,1-1.06.76c-1.06.29-1.28.88-1.28,1.32s.58,1.19,4.88,1.33c6,.2,14.17.3,24.14.3.82,0,3.35,0,3.35-1.48C566.93,185.24,566.61,184.6,565.11,184.6ZM504,94.6c.1,0,.46.11,1,1.45l14.59,40.41a.77.77,0,0,1,0,.58c-.07.09-.23.1-.36.1H489.82a.3.3,0,0,1-.22-.06s-.09-.18,0-.61l13.52-40.41C503.66,94.69,503.94,94.6,504,94.6ZM358.41,132.34a1.64,1.64,0,0,1-.88-1.53V82.35a1.43,1.43,0,0,1,1-1.51,38.16,38.16,0,0,1,9.78-.88c7.72,0,13.89,2.61,18.33,7.76s6.84,12.43,6.84,21.6c0,10.91-3,18.52-8.85,22.59-2.69,1.84-6.35,2.77-10.88,2.77C366.16,134.68,361,133.89,358.41,132.34Z"/><path class="cls-1" d="M308,64.32c-13.71-12.5-31.61-18.84-53.22-18.84-23.75,0-42.87,8.56-56.82,25.44-11.82,14.12-17.81,30.34-17.81,48.21,0,19.25,5.8,36,17.24,49.72,13.45,16.13,32.38,24.31,56.26,24.31,22.24,0,40.72-7.67,54.93-22.79,13.7-14.5,20.64-32.75,20.64-54.24S322.05,77.2,308,64.32ZM291,173.9a48.69,48.69,0,0,1-32.28,11.56c-17.19,0-31.53-6.53-42.62-19.42-11.59-13.26-17.47-30.81-17.47-52.16,0-19.72,5.24-35.25,15.58-46.15,9.83-10.15,23-15.3,39.23-15.3A51.59,51.59,0,0,1,293,70c11.59,12.77,17.47,30.07,17.47,51.41C310.51,145.08,303.94,162.75,291,173.9Z"/><path class="cls-1" d="M106.25,130.56c-1.76,0-4.57.09-8.59.3L92,131l-6-.15c-4.27-.2-7.79-.3-10.48-.3-1.73,0-2.61.49-2.61,1.48,0,.44.19,1.18,1.44,1.18a19.68,19.68,0,0,1,4.87.44c2.8.77,4.55,2,5.2,3.59s1.13,5.53,1.13,11.55v25.45a5.29,5.29,0,0,1-2.76,5c-3.53,2.06-9,3.1-16.43,3.1-14.58,0-27.33-5.36-37.88-15.93A49.5,49.5,0,0,1,19,151.83a64.45,64.45,0,0,1-5.79-26.68C13.21,107.76,18,95,27.5,87.35c8-6.52,18.36-9.82,30.92-9.82A61.27,61.27,0,0,1,81.14,81.4c5.44,2.26,9.21,5,11.21,8.13a20.51,20.51,0,0,1,3,9.74c0,.62.17,2.51,1.3,2.51,1.59,0,1.59-2.58,1.59-3.43,0-6,.15-11.23.44-15.39.45-5,.54-5.74.56-5.83l-.1,0h.12c0-.66-.35-1.48-2-1.62A78,78,0,0,1,85.52,74a99.16,99.16,0,0,0-22.3-2.56c-16,0-29,3.19-38.82,9.48A49.5,49.5,0,0,0,7.3,99.72,64.47,64.47,0,0,0,0,130.39,62.36,62.36,0,0,0,5.4,155.8a48.07,48.07,0,0,0,12,17.46c11.92,10.68,28.07,16.09,48,16.09,12.49,0,22.91-2.27,31-6.77a3.39,3.39,0,0,0,1.73-2,37.94,37.94,0,0,0,.3-6.36V157.49c0-7.07.1-12.31.29-15.56.28-4.92,2-7.7,5.14-8.27a23,23,0,0,1,3.59-.44c1.26,0,1.45-.74,1.45-1.18C108.86,131.05,108,130.56,106.25,130.56Z"/><path class="cls-1" d="M184.61,165.89c-.87,0-1.43.73-1.66,2.18a17.2,17.2,0,0,1-3.93,8.84c-2.5,2.92-8.68,4.4-18.38,4.4s-15.95-1.09-18.23-3.21-3.3-13.75-3.3-34.24V117.22c0-18.16.1-29,.3-32.32.3-5,2.19-7.69,5.73-8.27,1.43-.1,2.82-.15,4.15-.15,1.6-.11,2.42-.61,2.42-1.48s-.93-1.48-2.75-1.48-5.06.1-9.84.3l-6.74.15-6.3-.15c-4.5-.2-8.23-.3-11.07-.3-1.82,0-2.74.5-2.74,1.48,0,.44.19,1.18,1.51,1.18a25.3,25.3,0,0,1,5.16.45c4,.87,6.09,3.58,6.39,8.27.2,3.28.3,14.15.3,32.32v26.34c0,17.68-.25,28.59-.76,32.45-.6,4.84-2,7.53-4.23,8a23.58,23.58,0,0,1-4.4.6c-1.45,0-1.67.74-1.67,1.18,0,1,.92,1.48,2.74,1.48s4.72-.1,8.77-.3l6.29-.15c1.85,0,7.07.15,15.51.45,8.59.3,17.23.45,25.67.45,4,0,6.42-.26,7.48-.77s1.93-1.6,2.47-3.48a53.07,53.07,0,0,0,2.32-15.05C185.82,167.79,185.82,165.89,184.61,165.89Z"/><path class="cls-1" d="M201.93,16.77h0l10.82,22,.25-.1a109.93,109.93,0,0,1,83.32,0l.24.1,10.83-21.95h0l.66-1.3-2.11,1.81L291.37,29.39V8.17l-12,19.13L274.45,4.87l-11,21.69L254.66,0l-8.75,26.56-11-21.69L229.94,27.3l-12-19.13V29.39l-15.58-13h0l-1.07-.91Z"/><path class="cls-1" d="M214.77,43.54l-.27.11,2.1,4.5.25-.11a99.06,99.06,0,0,1,75.62,0l.25.11,2.1-4.5-.27-.11a103.93,103.93,0,0,0-79.78,0Z"/></g></g></svg>