<?xml version="1.0" encoding="UTF-8"?> <svg xmlns="http://www.w3.org/2000/svg" width="108" height="86" viewBox="0 0 108 86" fill="none"><path d="M96.8784 35.9895C96.5366 35.9895 96.2107 36.0056 95.8941 36.0379V29.5694C95.8941 27.5291 94.2467 25.878 92.2161 25.878H87.7512L84.3485 5.78629C83.8598 2.93315 81.1592 1.01954 78.3164 1.51004L16.3506 12.2041C13.5078 12.6946 11.6012 15.405 12.0899 18.2558L13.3954 25.878C6.99623 26.2096 1.91177 30.8382 1.90259 37.9446V56.0605C1.90259 62.9458 7.01229 68.1363 13.7901 68.1363H20.6344L22.6626 79.9749C23.1513 82.828 25.8519 84.7416 28.6924 84.2511L90.6513 73.5593C93.283 73.1057 95.1094 70.7476 94.9442 68.1363H101.919C105.597 68.1363 105.597 64.4449 105.597 64.4449V45.6543C105.597 39.872 102.096 35.9895 96.8784 35.9895Z" fill="#E11B22"></path><path d="M69.4438 23.1562L58.3823 12.0545C56.8771 10.5439 54.4382 10.5439 52.933 12.0545L41.8715 23.1562C40.3664 24.6668 40.3664 27.1146 41.8715 28.6253L52.933 39.7269C54.4382 41.2376 56.8771 41.2376 58.3823 39.7269L69.4438 28.6253C70.9489 27.1146 70.9489 24.6668 69.4438 23.1562ZM46.3709 28.7035C44.8245 28.7035 43.5694 27.4439 43.5694 25.8919C43.5694 24.3398 44.8245 23.0802 46.3709 23.0802C47.9174 23.0802 49.1724 24.3398 49.1724 25.8919C49.1724 27.4439 47.9174 28.7035 46.3709 28.7035ZM55.6588 38.0183C54.1123 38.0183 52.8573 36.7587 52.8573 35.2066C52.8573 33.6545 54.1123 32.3949 55.6588 32.3949C57.2052 32.3949 58.4603 33.6545 58.4603 35.2066C58.4603 36.7587 57.2075 38.0183 55.6588 38.0183ZM52.855 25.8896C52.855 24.3375 54.1101 23.0779 55.6565 23.0779C57.2029 23.0779 58.458 24.3375 58.458 25.8896C58.458 27.4416 57.2029 28.7012 55.6565 28.7012C54.1101 28.7012 52.855 27.4416 52.855 25.8896ZM55.6588 19.3819C54.1123 19.3819 52.8573 18.1223 52.8573 16.5702C52.8573 15.0181 54.1123 13.7585 55.6588 13.7585C57.2052 13.7585 58.4603 15.0181 58.4603 16.5702C58.4603 18.1223 57.2075 19.3819 55.6588 19.3819ZM64.9398 28.7035C63.3933 28.7035 62.1383 27.4439 62.1383 25.8919C62.1383 24.3398 63.391 23.0802 64.9398 23.0802C66.4885 23.0802 67.7413 24.3398 67.7413 25.8919C67.7413 27.4439 66.4862 28.7035 64.9398 28.7035Z" fill="#FFDD00"></path><path d="M82.3753 40.1808H84.8994V43.0356H82.3753H81.8753V43.5356V56.9816C81.8753 58.2669 82.0913 59.1589 82.8191 59.6314C83.1614 59.8537 83.5648 59.9451 83.9798 59.9882C84.2582 60.0172 84.5678 60.0264 84.8994 60.0294V63.9472H83.3848C80.7763 63.9472 79.465 62.8621 78.7764 61.712C78.0638 60.5217 77.9813 59.195 77.9813 58.7132V43.5379V43.0379H77.4813H75.5331V40.1831H77.4813H78.6838L77.979 39.4745V33.0975H81.8753V39.6808V40.1808H82.3753ZM17.1009 49.1058H13.7141V45.7696H21.4972V56.0628C21.4972 60.7113 18.2276 63.9449 13.7878 63.9449C9.35141 63.9449 6.08057 60.6297 6.08057 56.0628V37.9468C6.08057 32.771 9.96518 30.0647 13.7878 30.0647C17.6123 30.0647 21.4972 32.7313 21.4972 37.9468V39.1808H17.6009V37.9468C17.6009 36.7726 17.2622 35.7699 16.5831 35.0578C15.9011 34.3426 14.9314 33.9788 13.7878 33.9788C12.635 33.9788 11.6674 34.3697 10.9903 35.0931C10.3172 35.8123 9.97689 36.8111 9.97689 37.9468V56.0628C9.97689 57.7606 10.6536 58.789 11.5179 59.3698C12.3485 59.9278 13.2887 60.0307 13.7878 60.0307C14.2804 60.0307 15.2228 59.9411 16.0564 59.3877C16.9253 58.8111 17.6009 57.7802 17.6009 56.0628V49.6058V49.1058H17.1009ZM71.8788 41.8587L71.8794 41.8594C72.8591 42.8836 73.3125 44.2594 73.3125 46.3865V60.6591V60.6614C73.3125 61.5315 73.4041 62.8631 73.6 63.9495H69.6874C69.5716 63.5425 69.5052 63.1151 69.468 62.7558C69.4446 62.53 69.4333 62.337 69.4279 62.2013C69.4252 62.1336 69.424 62.0804 69.4235 62.045L69.423 62.0055L69.423 61.9964V61.9949V61.9948C69.423 61.9948 69.423 61.9948 69.4221 61.9948L68.4423 61.8707C68.4383 61.8696 68.4384 61.8695 68.4384 61.8695L68.4385 61.8688L68.4388 61.8677L68.4392 61.8662L68.4369 61.8738C68.434 61.8835 68.4283 61.9012 68.4193 61.9257C68.4012 61.9749 68.37 62.0511 68.3209 62.1456C68.2227 62.3344 68.0536 62.5946 67.7756 62.8579C67.2299 63.3746 66.2148 63.9495 64.3525 63.9495C62.4846 63.9495 61.0722 63.3678 60.1211 62.3174C59.1634 61.2598 58.6116 59.6589 58.6116 57.5043C58.6116 55.1 59.4436 53.4647 60.7263 52.2229C62.0321 50.9586 63.8243 50.0827 65.7848 49.2609L65.7849 49.2609C67.0655 48.7237 68.0983 48.2308 68.7479 47.5962C69.085 47.2668 69.3308 46.8894 69.4551 46.4404C69.5784 45.9949 69.5721 45.5153 69.4629 44.9947C69.2987 44.2086 68.8239 43.7056 68.2766 43.4124C67.7457 43.1279 67.1505 43.0402 66.6859 43.0402C66.089 43.0402 65.3439 43.2266 64.741 43.7602C64.1893 44.2485 63.8017 44.9877 63.7261 46.0185L60.3666 47.0151C60.342 45.5051 60.6459 43.9089 61.4967 42.6495C62.445 41.2456 64.1246 40.1831 67.0209 40.1831C69.3466 40.1831 70.8435 40.7724 71.8788 41.8587ZM68.9253 51.4733C68.7415 51.0083 68.7414 51.0084 68.7414 51.0084L68.7412 51.0085L68.7407 51.0087L68.739 51.0093L68.7334 51.0115L68.7131 51.0197C68.6956 51.0268 68.6702 51.0371 68.6377 51.0506C68.5726 51.0776 68.4787 51.1172 68.3612 51.1686C68.1262 51.2714 67.7962 51.4215 67.413 51.6124C66.65 51.9923 65.6608 52.541 64.7901 53.206L64.79 53.2062C63.3033 54.3426 62.7787 55.5796 62.7787 56.8158C62.7787 57.7386 63.047 58.5887 63.6248 59.2129C64.2081 59.8431 65.0555 60.1873 66.0986 60.1873C66.7171 60.1873 67.2589 60.0405 67.7162 59.7467C68.1716 59.454 68.5122 59.0356 68.7624 58.5403C69.1976 57.6788 69.3798 56.5434 69.4161 55.2801H69.4253V54.7801V51.4733V50.738L68.7415 51.0083L68.9253 51.4733ZM101.417 45.6519V63.9403H97.5207V47.4642C97.5207 46.5821 97.3596 45.7376 96.8902 45.1037C96.4 44.4416 95.6356 44.0903 94.6207 44.0903C93.6065 44.0903 92.8407 44.4399 92.3485 45.1008C91.8769 45.7343 91.7138 46.5792 91.7138 47.4642V63.9403H87.8175V30.067H91.7138V42.329V43.8809L92.6198 42.6209C92.6424 42.5894 92.6657 42.5568 92.6898 42.523C93.2858 41.6879 94.363 40.1785 96.8761 40.1785C98.3862 40.1785 99.4975 40.737 100.242 41.6634C100.999 42.604 101.417 43.9745 101.417 45.6519ZM24.9661 47.4734C24.9661 45.597 25.3593 44.2248 25.9339 43.2174C26.508 42.2109 27.2786 41.5413 28.0756 41.0926C29.6859 40.1859 31.3982 40.1831 31.7624 40.1831C32.1622 40.1831 33.8739 40.1862 35.4752 41.0921C37.031 41.9722 38.561 43.7482 38.561 47.4734V56.6546C38.561 60.38 37.0249 62.1569 35.4652 63.0377C33.8601 63.9442 32.1479 63.9472 31.7624 63.9472C31.4196 63.9472 29.7066 63.9446 28.0906 63.0371C27.2906 62.5879 26.5163 61.9179 25.9392 60.911C25.3617 59.9033 24.9661 58.5311 24.9661 56.6546V47.4734ZM28.8624 56.7812C28.8624 58.1434 29.3275 58.9954 29.9878 59.4864C30.6204 59.9567 31.3471 60.0307 31.7624 60.0307C32.1733 60.0307 32.9018 59.9634 33.5365 59.4953C34.1997 59.0061 34.6646 58.1525 34.6646 56.7812V47.3467C34.6646 45.9686 34.2005 45.1137 33.5354 44.6258C32.8995 44.1593 32.17 44.0972 31.7624 44.0972C31.3504 44.0972 30.6227 44.166 29.9889 44.6348C29.3267 45.1244 28.8624 45.9777 28.8624 47.3467V56.7812ZM42.0298 57.6079V34.715L45.9261 38.6255V56.7927C45.9261 58.2229 46.2674 59.1098 46.9223 59.5929C47.3616 59.917 47.8807 60.0028 48.3261 60.0252V63.9432C47.4327 63.9203 46.623 63.8357 45.8983 63.694C44.0376 63.3287 43.0952 62.2905 42.5949 61.1218C42.0802 59.9197 42.0298 58.5654 42.0298 57.6079ZM51.2465 63.9472V43.9652L55.1428 47.8757V63.9472H51.2465Z" fill="white" stroke="white"></path></svg> 