<?xml version="1.0" encoding="UTF-8"?>
<svg width="181px" height="34px" viewBox="0 0 181 34" version="1.1" xmlns="http://www.w3.org/2000/svg" xmlns:xlink="http://www.w3.org/1999/xlink">
    <title>607C8E09-A036-4BBD-BCBC-E5DCA09283B0</title>
    <defs>
        <linearGradient x1="99.7660405%" y1="45.1665216%" x2="-1.10788782%" y2="52.0730393%" id="linearGradient-1">
            <stop stop-color="#4F2683" offset="0%"></stop>
            <stop stop-color="#4F2683" offset="11.85%"></stop>
            <stop stop-color="#4F2683" offset="12.09%"></stop>
            <stop stop-color="#684795" offset="30.94%"></stop>
            <stop stop-color="#836AA9" offset="54.92%"></stop>
            <stop stop-color="#947FB5" offset="74.59%"></stop>
            <stop stop-color="#9A87B9" offset="87.36%"></stop>
            <stop stop-color="#8C76AF" offset="100%"></stop>
        </linearGradient>
        <linearGradient x1="45.0026794%" y1="0.229862247%" x2="52.0650567%" y2="101.093972%" id="linearGradient-2">
            <stop stop-color="#4F2683" offset="0%"></stop>
            <stop stop-color="#4F2683" offset="11.85%"></stop>
            <stop stop-color="#4F2683" offset="12.09%"></stop>
            <stop stop-color="#684795" offset="30.94%"></stop>
            <stop stop-color="#836AA9" offset="54.92%"></stop>
            <stop stop-color="#947FB5" offset="74.59%"></stop>
            <stop stop-color="#9A87B9" offset="87.36%"></stop>
            <stop stop-color="#8C76AF" offset="100%"></stop>
        </linearGradient>
        <linearGradient x1="0.17512106%" y1="54.8736199%" x2="101.039231%" y2="47.9739763%" id="linearGradient-3">
            <stop stop-color="#4F2683" offset="0%"></stop>
            <stop stop-color="#4F2683" offset="11.85%"></stop>
            <stop stop-color="#4F2683" offset="12.09%"></stop>
            <stop stop-color="#684795" offset="30.94%"></stop>
            <stop stop-color="#836AA9" offset="54.92%"></stop>
            <stop stop-color="#947FB5" offset="74.59%"></stop>
            <stop stop-color="#9A87B9" offset="87.36%"></stop>
            <stop stop-color="#8C76AF" offset="100%"></stop>
        </linearGradient>
        <linearGradient x1="54.9333433%" y1="99.8209098%" x2="47.8681053%" y2="-1.04890602%" id="linearGradient-4">
            <stop stop-color="#4F2683" offset="0%"></stop>
            <stop stop-color="#4F2683" offset="11.85%"></stop>
            <stop stop-color="#4F2683" offset="12.09%"></stop>
            <stop stop-color="#684795" offset="30.94%"></stop>
            <stop stop-color="#836AA9" offset="54.92%"></stop>
            <stop stop-color="#947FB5" offset="74.59%"></stop>
            <stop stop-color="#9A87B9" offset="87.36%"></stop>
            <stop stop-color="#8C76AF" offset="100%"></stop>
        </linearGradient>
    </defs>
    <g id="Page-1" stroke="none" stroke-width="1" fill="none" fill-rule="evenodd">
        <g id="Home" transform="translate(-29.000000, -18.000000)" fill-rule="nonzero">
            <g id="logo" transform="translate(29.000000, 18.000000)">
                <path d="M70.607888,24.2884615 C68.9514147,24.2884615 68.3400972,23.5769231 68.3400972,22.4423077 C68.3400972,21.1346154 69.0894541,20.4615385 71.0417262,20.4615385 L73.6250357,20.4615385 L73.6250357,21.2115385 C73.6250357,23.2115385 72.3629608,24.2884615 70.607888,24.2884615 Z M66.1117462,22.6538462 C66.1117462,24.2115385 67.0385825,25.8846154 69.9374107,25.8846154 C71.6136039,25.8846154 72.7770792,25.25 73.5855959,24.25 L73.8616748,25.6346154 L75.6759074,25.6346154 L75.6759074,18.1730769 C75.6759074,14.9807692 73.7236353,14.4230769 71.3966848,14.4230769 C69.6416119,14.4230769 67.3343813,14.9230769 66.7822235,17.5 L69.0105744,17.5 C69.2866533,16.5384615 69.9571306,15.9807692 71.3769648,15.9807692 C72.5404401,15.9807692 73.6447556,16.3846154 73.6447556,18.1923077 L73.6447556,18.9807692 L71.1994856,18.9807692 C68.2217777,18.9807692 66.1117462,19.9423077 66.1117462,22.6538462 L66.1117462,22.6538462 Z M60.1957702,25.6346154 L62.2860817,25.6346154 L62.2860817,18.7884615 C62.2860817,17.1923077 63.2917977,16.4807692 64.5735925,16.4807692 C65.0074307,16.4807692 65.4609889,16.5 65.914547,16.5769231 L65.914547,14.5961538 C65.5201486,14.4615385 65.1651901,14.4423077 64.8102315,14.4423077 C63.6467562,14.4423077 62.7396399,15.1153846 62.2860817,16.0576923 L62.0297228,14.7307692 L60.1957702,14.7307692 L60.1957702,25.6346154 L60.1957702,25.6346154 Z M134.342669,25.6346154 L136.432981,25.6346154 L136.432981,18.7884615 C136.432981,17.1923077 137.438697,16.4807692 138.720492,16.4807692 C139.15433,16.4807692 139.607888,16.5 140.061446,16.5769231 L140.061446,14.5961538 C139.667048,14.4615385 139.312089,14.4423077 138.957131,14.4423077 C137.793655,14.4423077 136.886539,15.1153846 136.432981,16.0576923 L136.176622,14.7307692 L134.342669,14.7307692 L134.342669,25.6346154 L134.342669,25.6346154 Z M95.0408688,16.4807692 L95.0408688,14.6923077 L92.7533581,14.6923077 L92.7533581,11.5769231 L90.6038868,11.9038462 L90.6038868,14.6923077 L88.9868534,14.6923077 L88.9868534,16.4807692 L90.6038868,16.4807692 L90.6038868,23.4230769 C90.6038868,24.9807692 91.1954844,25.9230769 93.5421549,25.9230769 C94.0548728,25.9230769 94.8239497,25.8269231 95.2972278,25.6923077 L95.2972278,24.1346154 C94.8042298,24.2692308 94.3506716,24.2884615 94.015433,24.2884615 C93.029437,24.2884615 92.7533581,23.8269231 92.7533581,22.8269231 L92.7533581,16.4807692 L95.0408688,16.4807692 L95.0408688,16.4807692 Z M158.124893,16.4807692 L158.124893,14.6923077 L155.817662,14.6923077 L155.817662,11.5769231 L153.668191,11.9038462 L153.668191,14.6923077 L152.051157,14.6923077 L152.051157,16.4807692 L153.668191,16.4807692 L153.668191,23.4230769 C153.668191,24.9807692 154.259789,25.9230769 156.606459,25.9230769 C157.119177,25.9230769 157.888254,25.8269231 158.361532,25.6923077 L158.361532,24.1346154 C157.868534,24.2692308 157.414976,24.2884615 157.079737,24.2884615 C156.093741,24.2884615 155.817662,23.8269231 155.817662,22.8269231 L155.817662,16.4807692 L158.124893,16.4807692 L158.124893,16.4807692 Z M126.967419,24.2115385 C124.955987,24.2115385 123.654473,22.8461538 123.654473,20.1346154 C123.654473,17.5384615 124.995427,16.0769231 126.987139,16.0769231 C128.998571,16.0769231 130.181766,17.5192308 130.181766,20.25 C130.181766,22.9038462 128.959131,24.2115385 126.967419,24.2115385 L126.967419,24.2115385 Z M164.356388,24.2115385 C162.344956,24.2115385 161.043441,22.8461538 161.043441,20.1346154 C161.043441,17.5384615 162.384396,16.0769231 164.376107,16.0769231 C166.387539,16.0769231 167.570734,17.5192308 167.570734,20.25 C167.590454,22.9038462 166.348099,24.2115385 164.356388,24.2115385 L164.356388,24.2115385 Z M141.52072,25.6346154 L143.571592,25.6346154 L143.571592,19.3269231 C143.571592,17.5192308 144.380109,16.25 146.312661,16.25 C148.126893,16.25 148.679051,17 148.679051,18.8461538 L148.679051,25.6153846 L150.769363,25.6153846 L150.769363,18.2692308 C150.769363,15.75 149.684767,14.4423077 147.239497,14.4423077 C145.563304,14.4423077 144.320949,15.0384615 143.571592,16.0769231 L143.315233,14.6923077 L141.54044,14.6923077 L141.54044,25.6346154 L141.52072,25.6346154 L141.52072,25.6346154 Z M78.3775364,25.6346154 L80.4086882,25.6346154 L80.4086882,19.3269231 C80.4086882,17.5192308 81.2172049,16.25 83.1497571,16.25 C84.9639897,16.25 85.5161475,17 85.5161475,18.8461538 L85.5161475,25.6153846 L87.606459,25.6153846 L87.606459,18.2692308 C87.606459,15.75 86.5218634,14.4423077 84.0765933,14.4423077 C82.4004001,14.4423077 81.1580452,15.0384615 80.4086882,16.0769231 L80.1523292,14.6923077 L78.3775364,14.6923077 L78.3775364,25.6346154 L78.3775364,25.6346154 Z M171.771077,25.6346154 L173.802229,25.6346154 L173.802229,19.3269231 C173.802229,17.5192308 174.610746,16.25 176.543298,16.25 C178.357531,16.25 178.909688,17 178.909688,18.8461538 L178.909688,25.6153846 L181,25.6153846 L181,18.2692308 C181,15.75 179.915404,14.4423077 177.470134,14.4423077 C175.793941,14.4423077 174.551586,15.0384615 173.802229,16.0769231 L173.54587,14.6923077 L171.771077,14.6923077 L171.771077,25.6346154 Z M109.337811,10.9423077 L109.337811,9.17307692 L97.4072592,9.17307692 L97.4072592,10.9423077 L102.278079,10.9423077 L102.278079,25.6153846 L104.52615,25.6153846 L104.52615,10.9423077 L109.337811,10.9423077 Z M110.422406,25.6346154 L112.453558,25.6346154 L112.453558,19.3269231 C112.453558,17.5192308 113.242355,16.25 115.194627,16.25 C117.00886,16.25 117.561017,17 117.561017,18.8461538 L117.561017,25.6153846 L119.651329,25.6153846 L119.651329,18.2692308 C119.651329,15.75 118.566733,14.4423077 116.121463,14.4423077 C114.44527,14.4423077 113.202915,15.0384615 112.453558,16.0769231 L112.453558,9.17307692 L110.422406,9.17307692 L110.422406,25.6346154 Z M51.8148042,19.1153846 L55.7982281,19.1153846 L55.7982281,22.7692308 C54.575593,23.8076923 52.7219205,24.2115385 51.2232066,24.2115385 C47.4764218,24.2115385 45.3466705,21.8461538 45.3466705,17.6923077 C45.3466705,13.2884615 47.6341812,10.8461538 51.1837668,10.8461538 C53.2937982,10.8461538 54.8713918,11.5769231 56.3701057,12.9615385 L57.6913404,11.5 C56.3503858,10.0576923 54.0431552,9 51.4204058,9 C46.1354673,9 43,12.5961538 43,17.6346154 C43,22.5769231 45.6030294,26 51.2626465,26 C54.3783938,26 56.803944,24.6730769 58.0068591,23.4038462 L58.0068591,17.4423077 L51.8345241,17.4423077 L51.8345241,19.1153846 L51.8148042,19.1153846 Z M127.125179,14.4230769 C123.417834,14.4230769 121.465562,16.9230769 121.465562,20.2115385 C121.465562,23.6153846 123.398114,25.8653846 126.86882,25.8653846 C130.319806,25.8653846 132.469277,23.6538462 132.469277,20.1538462 C132.469277,16.5576923 130.477565,14.4230769 127.125179,14.4230769 L127.125179,14.4230769 Z M164.514147,14.4230769 C160.787082,14.4230769 158.85453,16.9230769 158.85453,20.2115385 C158.85453,23.6153846 160.787082,25.8653846 164.257788,25.8653846 C167.708774,25.8653846 169.858245,23.6538462 169.858245,20.1538462 C169.858245,16.5576923 167.866533,14.4230769 164.514147,14.4230769 L164.514147,14.4230769 Z" id="Shape" fill="#231F20"></path>
                <g id="Group">
                    <path d="M16.9204678,10.5360465 C19.5847953,11.3860465 21.6923977,13.3430233 23.1239766,16.15 C23.322807,16.5255814 23.4222222,17.0790698 23.302924,17.4151163 C23.3426901,17.2767442 23.4023392,17.1581395 23.4421053,17.0197674 C26.8619883,6.34534884 14.7532164,-0.830232558 8.60935673,2.39186047 C8.49005848,2.45116279 8.37076023,2.51046512 8.25146199,2.58953488 C0.357894737,7.25465116 -2.30643275,17.355814 2.1871345,25.2825581 C-1.03391813,19.1744186 6.16374269,7.13604651 16.9204678,10.5360465 Z" id="Path" fill="url(#linearGradient-1)"></path>
                    <path d="M10.3988304,17.0197674 C11.2538012,14.3709302 13.2222222,12.2755814 16.045614,10.8523256 C16.4233918,10.6546512 16.980117,10.555814 17.3181287,10.6744186 C17.1789474,10.6348837 17.0596491,10.5755814 16.9204678,10.5360465 C6.18362573,7.13604651 -1.03391813,19.1744186 2.1871345,25.2825581 C2.24678363,25.4011628 2.30643275,25.5197674 2.38596491,25.6383721 C7.09824561,33.505814 17.2385965,36.1546512 25.2116959,31.6674419 C19.0877193,34.8697674 6.97894737,27.694186 10.3988304,17.0197674 Z" id="Path" fill="url(#linearGradient-2)"></path>
                    <path d="M16.9204678,23.5034884 C14.2561404,22.6534884 12.148538,20.6965116 10.7169591,17.8895349 C10.5181287,17.5139535 10.4187135,16.9604651 10.5380117,16.6244186 C10.4982456,16.7627907 10.4385965,16.8813953 10.3988304,17.0197674 C6.97894737,27.694186 19.0877193,34.8697674 25.2315789,31.6674419 C25.3508772,31.6081395 25.4701754,31.5488372 25.5894737,31.4697674 C33.502924,26.7848837 36.1672515,16.7034884 31.6538012,8.77674419 C34.8549708,14.8651163 27.6573099,26.9034884 16.9204678,23.5034884 Z" id="Path" fill="url(#linearGradient-3)"></path>
                    <path d="M23.4421053,17.0197674 C22.5871345,19.6686047 20.6187135,21.7639535 17.7953216,23.1872093 C17.4175439,23.3848837 16.8608187,23.4837209 16.522807,23.3651163 C16.6619883,23.4046512 16.7812865,23.4639535 16.9204678,23.5034884 C27.6573099,26.9034884 34.8748538,14.8651163 31.6339181,8.75697674 C31.574269,8.63837209 31.5146199,8.51976744 31.4350877,8.40116279 C26.722807,0.53372093 16.5824561,-2.11511628 8.60935673,2.37209302 C14.7532164,-0.830232558 26.8619883,6.34534884 23.4421053,17.0197674 Z" id="Path" fill="url(#linearGradient-4)"></path>
                </g>
            </g>
        </g>
    </g>
</svg>