<?xml version="1.0" encoding="UTF-8"?>
<svg xmlns="http://www.w3.org/2000/svg" width="600" height="600" viewBox="0 0 600 600" fill="none">
  <path d="M0 0V400V600H600V400V0H0Z" fill="#FF1628"></path>
  <path d="M145.205 83.9389V92.4C145.205 108.07 140.193 120.761 130.167 130.472C120.139 140.189 107.133 145.044 91.311 145.044C74.3888 145.044 60.2888 139.561 49.161 128.594C38.0499 117.483 32.5499 103.994 32.5499 88.1667C32.5499 72.1833 38.0333 58.7222 49.0055 47.6111C60.1166 36.5 73.761 31 90.0555 31C110.583 31 128.444 41.0278 137.833 56.5556L119.344 67.2111C114.172 58.2778 102.889 52.0111 89.8999 52.0111C79.4036 52.0111 70.7851 55.4574 64.0444 62.35C57.3055 69.0889 54.0166 77.7056 54.0166 88.2056C54.0166 98.5444 57.4666 107.167 64.1999 113.9C71.111 120.606 80.1833 123.889 91.4666 123.889C108.233 123.889 119.511 116.056 123.428 103.05H90.211V83.9389H145.205Z" fill="white"></path>
  <path d="M177.589 77.9834C181.161 67.9556 190.094 62.939 200.217 62.939V85.5001C194.668 84.644 189.005 85.994 184.439 89.2612C179.828 92.5501 177.589 97.8779 177.589 105.372V142.822H158.383V64.489H177.583L177.589 77.9834Z" fill="white"></path>
  <path d="M232.644 111.983C235.311 121.855 242.672 126.711 254.739 126.711C262.417 126.711 268.372 124.05 272.289 118.878L288.583 128.278C280.905 139.389 269.467 145.044 254.422 145.044C241.417 145.044 231.089 141.128 223.239 133.294C215.389 125.461 211.489 115.589 211.489 103.683C211.489 91.9332 215.405 82.061 223.083 74.2387C230.761 66.2443 240.789 62.3276 252.855 62.3276C264.294 62.3276 273.85 66.2443 281.217 74.2387C288.739 82.2276 292.494 91.9443 292.494 103.683C292.452 106.468 292.19 109.245 291.711 111.989L232.644 111.983ZM272.283 96.3165C269.933 85.661 262.1 80.4888 252.839 80.4888C242.028 80.4888 234.661 86.2887 232.311 96.3165H272.283Z" fill="white"></path>
  <path d="M365.361 64.511H385.555V142.844H365.361V133.611C359.25 141.289 350.789 145.05 339.806 145.05C329.306 145.05 320.361 141.133 312.855 133.139C305.494 125.15 301.744 115.278 301.744 103.694C301.744 92.111 305.505 82.3832 312.855 74.3943C320.378 66.3999 329.311 62.3276 339.806 62.3276C350.772 62.3276 359.25 66.0887 365.361 73.7665V64.511ZM343.583 125.772C349.854 125.772 355.024 123.735 359.094 119.661C363.322 115.428 365.361 110.105 365.361 103.678C365.361 97.2499 363.322 91.9276 359.094 87.8499C355.022 83.6221 349.85 81.5832 343.583 81.5832C337.317 81.5832 332.144 83.6221 328.072 87.8499C324 91.9221 321.961 97.2499 321.961 103.678C321.961 110.105 324 115.428 328.072 119.661C332.146 123.735 337.317 125.772 343.583 125.772V125.772Z" fill="white"></path>
  <path d="M451.867 83.9389H434.156V116.528C434.156 124.989 440.267 125.144 451.861 124.522V142.856C424.128 145.989 413.939 138 413.939 116.533V83.9389H400.317V64.4945H413.944V48.6834L434.156 42.5723V64.5112H451.861L451.867 83.9389Z" fill="white"></path>
  <path d="M87.8611 170.934C98.3611 170.934 107.306 174.539 114.494 181.589C121.683 188.639 125.306 197.417 125.306 207.756C125.306 218.095 121.706 226.872 114.494 233.922C107.283 240.972 98.3833 244.578 87.8611 244.578H68.5889V280.611H46.9667V170.934H87.8611ZM87.8611 224.361C97.1056 224.361 103.844 217.139 103.844 207.756C103.844 198.195 97.1056 191.145 87.8611 191.145H68.5889V224.361H87.8611Z" fill="white"></path>
  <path d="M140.044 280.611V171.944H160.255V280.611H140.044Z" fill="white"></path>
  <path d="M241.422 202.267H261.633V280.6H241.422V271.367C235.311 279.045 226.85 282.806 215.867 282.806C205.367 282.806 196.422 278.889 188.917 270.895C181.556 262.906 177.806 253.033 177.806 241.45C177.806 229.867 181.567 220.139 188.917 212.15C196.439 204.156 205.372 200.083 215.867 200.083C226.833 200.083 235.311 203.845 241.422 211.522V202.267ZM219.644 263.528C225.915 263.528 231.085 261.491 235.156 257.417C239.383 253.184 241.422 247.861 241.422 241.433C241.422 235.006 239.383 229.683 235.156 225.606C231.083 221.378 225.911 219.339 219.644 219.339C213.378 219.339 208.206 221.378 204.133 225.606C200.061 229.678 198.022 235.006 198.022 241.433C198.022 247.861 200.061 253.184 204.133 257.417C208.204 261.495 213.374 263.533 219.644 263.533V263.528Z" fill="white"></path>
  <path d="M290.789 270.9C282.955 262.911 279.039 253.195 279.039 241.456C279.039 229.717 282.955 219.989 290.789 212.011C298.783 204.017 308.655 200.1 320.4 200.1C335.6 200.1 349.072 207.933 355.5 220.311L338.111 230.495C335 224.05 328.239 220 320.244 220C308.183 220 299.25 228.933 299.25 241.467C299.25 247.578 301.289 252.75 305.205 256.822C309.094 260.739 314.139 262.778 320.244 262.778C328.394 262.778 335.133 258.861 338.267 252.439L355.817 262.467C348.922 274.845 335.605 282.833 320.405 282.833C308.655 282.806 298.783 278.889 290.789 270.9Z" fill="white"></path>
  <path d="M388.1 249.745C390.767 259.617 398.128 264.472 410.194 264.472C417.872 264.472 423.828 261.811 427.744 256.639L444.039 266.039C436.361 277.15 424.922 282.806 409.878 282.806C396.872 282.806 386.544 278.889 378.694 271.056C370.844 263.222 366.944 253.333 366.944 241.439C366.944 229.689 370.861 219.817 378.539 211.995C386.217 204 396.244 200.083 408.311 200.083C419.75 200.083 429.305 204 436.672 211.995C444.194 219.983 447.95 229.7 447.95 241.439C447.908 244.224 447.646 247.001 447.167 249.745H388.1ZM427.739 234.078C425.389 223.422 417.555 218.25 408.294 218.25C397.483 218.25 390.117 224.05 387.767 234.078H427.739Z" fill="white"></path>
  <path d="M113.244 314.172V333.822H83.6333V418.372H62.0055V333.822H32.561V314.172H113.244Z" fill="white"></path>
  <path d="M146.928 420.556C135.333 420.556 125.461 416.639 117.483 408.645C109.506 400.65 105.556 390.795 105.556 379.2C105.556 367.606 109.472 357.889 117.467 349.9C125.461 341.911 135.333 337.833 146.911 337.833C158.489 337.833 168.378 341.906 176.356 349.9C184.333 357.895 188.422 367.606 188.422 379.2C188.422 390.795 184.35 400.667 176.356 408.645C168.361 416.622 158.522 420.556 146.928 420.556ZM146.928 400.811C153.039 400.811 158.039 398.772 162.128 394.7C166.217 390.628 168.239 385.456 168.239 379.189C168.239 372.922 166.2 367.75 162.128 363.678C158.056 359.606 153.039 357.567 146.928 357.567C140.817 357.567 135.817 359.606 131.728 363.678C127.811 367.75 125.772 372.922 125.772 379.189C125.772 385.456 127.811 390.628 131.728 394.7C135.8 398.784 140.817 400.822 146.928 400.822V400.811Z" fill="white"></path>
  <path d="M66.2222 562.539L35.5111 452.856H58.2333L79.2278 534.178L102.106 452.856H120.594L143.628 534.178L164.622 452.856H187.344L156.633 562.534H132.028L111.344 490.145L90.8167 562.534L66.2222 562.539Z" fill="white"></path>
  <path d="M226.839 564.733C215.244 564.733 205.372 560.817 197.394 552.822C189.417 544.828 185.483 534.961 185.483 523.378C185.483 511.795 189.4 502.067 197.394 494.078C205.389 486.089 215.261 482.011 226.839 482.011C238.417 482.011 248.306 486.083 256.283 494.078C264.261 502.072 268.333 511.772 268.333 523.367C268.333 534.961 264.261 544.833 256.267 552.811C248.272 560.789 238.433 564.733 226.839 564.733ZM226.839 544.989C232.95 544.989 237.95 542.95 242.039 538.878C246.128 534.806 248.15 529.633 248.15 523.367C248.15 517.1 246.111 511.928 242.039 507.856C237.967 503.783 232.95 501.745 226.839 501.745C220.728 501.745 215.728 503.783 211.639 507.856C207.722 511.928 205.683 517.1 205.683 523.367C205.683 529.633 207.722 534.806 211.667 538.889C215.711 542.95 220.728 545 226.839 545V544.989Z" fill="white"></path>
  <path d="M302.839 497.672C306.6 487.645 316 482.628 326.655 482.628V505.189C320.544 504.406 314.905 505.661 310.044 508.95C305.183 512.239 302.822 517.567 302.822 525.061V562.511H282.628V484.178H302.839V497.672Z" fill="white"></path>
  <path d="M413.778 562.539H390.278L361.761 526.984V562.539H341.544V452.856H361.756V518.667L388.706 484.223H412.839L381.344 522.923L413.778 562.539Z" fill="white"></path>
  <path d="M421.156 548.417C421.124 544.906 422.135 541.465 424.063 538.53C425.99 535.596 428.746 533.3 431.98 531.934C435.214 530.569 438.781 530.195 442.229 530.86C445.676 531.525 448.848 533.2 451.342 535.671C453.836 538.142 455.539 541.299 456.236 544.74C456.932 548.181 456.591 551.751 455.255 554.998C453.919 558.245 451.648 561.021 448.732 562.975C445.815 564.929 442.383 565.972 438.872 565.972C429.055 565.972 421.156 558.395 421.156 548.417ZM453.378 548.339C453.378 539.639 447.311 533.578 438.856 533.578C430.4 533.578 424.328 539.722 424.328 548.422C424.328 557.122 430.711 563.106 438.856 563.106C447 563.106 453.394 557.039 453.394 548.334L453.378 548.339ZM432.789 539.4H438.933C443.006 539.4 445.633 541.067 445.633 544.667V544.75C445.633 547.384 444.117 548.817 442.044 549.456L446.672 556.878H442.683L438.455 550.095H436.622V556.878H432.789V539.4ZM438.889 547.461C440.883 547.461 441.922 546.584 441.922 544.906V544.828C441.922 542.995 440.811 542.356 438.889 542.356H436.667V547.461H438.889Z" fill="white"></path>
</svg>
