<svg id="Layer_1" data-name="Layer 1" xmlns="http://www.w3.org/2000/svg" viewBox="0 0 1080 1080"><defs><style>.cls-1{fill:#FF1628;}.cls-2{fill:#fff;}</style></defs><title>gptw_logo</title><polygon class="cls-1" points="0 0 0 720 0 1080 1080 1080 1080 720 1080 0 0 0"/><path class="cls-2" d="M261.37,151.09v15.23q0,42.31-27.07,68.53c-18.05,17.49-41.46,26.23-69.94,26.23-30.46,0-55.84-9.87-75.87-29.61-20-20-29.9-44.28-29.9-72.77,0-28.77,9.87-53,29.62-73,20-20,44.56-29.9,73.89-29.9,36.95,0,69.1,18.05,86,46l-33.28,19.18c-9.31-16.08-29.62-27.36-53-27.36q-28.34,0-46.54,18.61c-12.13,12.13-18.05,27.64-18.05,46.54,0,18.61,6.21,34.13,18.33,46.25C128,217.09,144.33,223,164.64,223c30.18,0,50.48-14.1,57.53-37.51H162.38V151.09Z"/><path class="cls-2" d="M319.66,140.37c6.43-18.05,22.51-27.08,40.73-27.08v40.61a38.67,38.67,0,0,0-28.4,6.77c-8.3,5.92-12.33,15.51-12.33,29v67.41H285.09v-141h34.56Z"/><path class="cls-2" d="M418.76,201.57c4.8,17.77,18.05,26.51,39.77,26.51,13.82,0,24.54-4.79,31.59-14.1l29.33,16.92c-13.82,20-34.41,30.18-61.49,30.18-23.41,0-42-7.05-56.13-21.15s-21.15-31.87-21.15-53.3c0-21.15,7.05-38.92,20.87-53,13.82-14.39,31.87-21.44,53.59-21.44,20.59,0,37.79,7.05,51.05,21.44,13.54,14.38,20.3,31.87,20.3,53a95.21,95.21,0,0,1-1.41,14.95Zm71.35-28.2c-4.23-19.18-18.33-28.49-35-28.49-19.46,0-32.72,10.44-36.95,28.49Z"/><path class="cls-2" d="M657.65,116.12H694v141H657.65V240.5c-11,13.82-26.23,20.59-46,20.59-18.9,0-35-7.05-48.51-21.44-13.25-14.38-20-32.15-20-53s6.77-38.36,20-52.74c13.54-14.39,29.62-21.72,48.51-21.72,19.74,0,35,6.77,46,20.59Zm-39.2,110.27q16.93,0,27.92-11c7.61-7.62,11.28-17.2,11.28-28.77s-3.67-21.15-11.28-28.49c-7.33-7.61-16.64-11.28-27.92-11.28s-20.59,3.67-27.92,11.28c-7.33,7.33-11,16.92-11,28.49s3.67,21.15,11,28.77Q601.53,226.39,618.45,226.39Z"/><path class="cls-2" d="M813.36,151.09H781.48v58.66c0,15.23,11,15.51,31.87,14.39v33c-49.92,5.64-68.26-8.74-68.26-47.38V151.09H720.57v-35H745.1V87.63l36.38-11v39.49h31.87Z"/><path class="cls-2" d="M158.15,307.68c18.9,0,35,6.49,47.94,19.18s19.46,28.49,19.46,47.1-6.48,34.41-19.46,47.1-29,19.18-47.94,19.18H123.46V505.1H84.54V307.68Zm0,96.17c16.64,0,28.77-13,28.77-29.89,0-17.21-12.13-29.9-28.77-29.9H123.46v59.79Z"/><path class="cls-2" d="M252.08,505.1V309.5h36.38V505.1Z"/><path class="cls-2" d="M434.56,364.08h36.38v141H434.56V488.46c-11,13.82-26.23,20.59-46,20.59-18.9,0-35-7.05-48.51-21.44-13.25-14.38-20-32.15-20-53s6.77-38.36,20-52.74c13.54-14.39,29.62-21.72,48.51-21.72,19.74,0,35,6.77,46,20.59Zm-39.2,110.27q16.93,0,27.92-11c7.61-7.62,11.28-17.2,11.28-28.77s-3.67-21.15-11.28-28.49c-7.33-7.61-16.64-11.28-27.92-11.28s-20.59,3.67-27.92,11.28c-7.33,7.33-11,16.92-11,28.49s3.67,21.15,11,28.77Q378.43,474.36,395.36,474.36Z"/><path class="cls-2" d="M523.42,487.62c-14.1-14.38-21.15-31.87-21.15-53s7.05-38.64,21.15-53c14.39-14.39,32.16-21.44,53.3-21.44,27.36,0,51.61,14.1,63.18,36.38l-31.3,18.33C603,403.29,590.83,396,576.44,396c-21.71,0-37.79,16.08-37.79,38.64,0,11,3.67,20.31,10.72,27.64,7,7.05,16.08,10.72,27.07,10.72,14.67,0,26.8-7.05,32.44-18.61l31.59,18.05c-12.41,22.28-36.38,36.66-63.74,36.66C555.58,509.05,537.81,502,523.42,487.62Z"/><path class="cls-2" d="M698.58,449.54c4.8,17.77,18.05,26.51,39.77,26.51,13.82,0,24.54-4.79,31.59-14.1l29.33,16.92c-13.82,20-34.41,30.18-61.49,30.18-23.41,0-42-7.05-56.13-21.15S660.5,456,660.5,434.59c0-21.15,7.05-38.92,20.87-53,13.82-14.39,31.87-21.44,53.59-21.44,20.59,0,37.79,7.05,51.05,21.44,13.54,14.38,20.3,31.87,20.3,53a95.21,95.21,0,0,1-1.41,14.95Zm71.35-28.2c-4.23-19.18-18.33-28.49-35-28.49-19.46,0-32.72,10.44-36.95,28.49Z"/><path class="cls-2" d="M203.84,565.51v35.37h-53.3V753.07H111.61V600.88h-53V565.51Z"/><path class="cls-2" d="M264.47,757c-20.87,0-38.64-7.05-53-21.44S190,703.43,190,682.56s7.05-38.36,21.44-52.74,32.16-21.72,53-21.72,38.64,7.33,53,21.72,21.72,31.87,21.72,52.74-7.33,38.64-21.72,53S285.34,757,264.47,757Zm0-35.54c11,0,20-3.67,27.36-11s11-16.64,11-27.92-3.67-20.59-11-27.92-16.36-11-27.36-11-20,3.67-27.36,11c-7.05,7.33-10.72,16.64-10.72,27.92s3.67,20.59,10.72,27.92C244.44,717.81,253.47,721.48,264.47,721.48Z"/><path class="cls-2" d="M119.2,1012.57,63.92,815.14h40.9l37.79,146.38,41.18-146.38h33.28l41.46,146.38,37.79-146.38h40.9l-55.28,197.42H237.65l-37.23-130.3-36.95,130.3Z"/><path class="cls-2" d="M408.31,1016.52c-20.87,0-38.64-7.05-53-21.44s-21.44-32.15-21.44-53,7.05-38.36,21.44-52.74,32.16-21.72,53-21.72,38.64,7.33,53,21.72S483,921.19,483,942.06s-7.33,38.64-21.72,53S429.18,1016.52,408.31,1016.52Zm0-35.54c11,0,20-3.67,27.36-11s11-16.64,11-27.92-3.67-20.59-11-27.92-16.36-11-27.36-11-20,3.67-27.36,11c-7.05,7.33-10.72,16.64-10.72,27.92S373.9,962.65,381,970C388.28,977.31,397.31,981,408.31,981Z"/><path class="cls-2" d="M545.11,895.81c6.77-18.05,23.69-27.08,42.87-27.08v40.61c-11-1.41-21.15.85-29.9,6.77s-13,15.51-13,29v67.41H508.73v-141h36.38Z"/><path class="cls-2" d="M744.8,1012.57H702.5l-51.33-64v64H614.78V815.14h36.38V933.6l48.51-62h43.44l-56.69,69.66Z"/><path class="cls-2" d="M758.08,987.15a31.89,31.89,0,1,1,31.89,31.6C772.3,1018.75,758.08,1005.11,758.08,987.15Zm58-.14c0-15.66-10.92-26.57-26.14-26.57s-26.15,11.06-26.15,26.72,11.49,26.43,26.15,26.43S816.11,1002.67,816.11,987Zm-37.06-16.09h11.06c7.33,0,12.06,3,12.06,9.48v.15c0,4.74-2.73,7.32-6.46,8.47l8.33,13.36h-7.18l-7.61-12.21h-3.3v12.21h-6.9ZM790,985.43c3.59,0,5.46-1.58,5.46-4.6v-.14c0-3.3-2-4.45-5.46-4.45h-4v9.19Z"/></svg>