<svg xmlns="http://www.w3.org/2000/svg" width="86.827" height="79.999" viewBox="0 0 86.827 79.999">
  <g id="gulf-logo" transform="translate(-3.6 -2.2)">
    <path id="Path_68" data-name="Path 68" d="M46.9,2.2A39.88,39.88,0,0,0,15.467,17.462a39.324,39.324,0,0,0-5.294,8.909C7.4,27.394,5.681,28.854,5.1,30.79v.146l-.037.11A42.933,42.933,0,0,0,3.6,42.255a43.655,43.655,0,0,0,1.424,11.1h0l.11.365.037.073.037.073.037.073.037.073c.694,1.789,2.373,3.14,5,4.089a41.049,41.049,0,0,0,5.294,8.873,40.062,40.062,0,0,0,62.875,0A39.09,39.09,0,0,0,83.746,58.1c2.629-.949,4.309-2.337,5-4.089l.037-.073.037-.073.037-.073.037-.073.11-.365h0a43.655,43.655,0,0,0,1.424-11.1,42.933,42.933,0,0,0-1.461-11.209L88.93,30.9v-.146c-.584-1.935-2.3-3.4-5.075-4.418a40.71,40.71,0,0,0-5.294-8.909,40.014,40.014,0,0,0-8.58-8.069A41.088,41.088,0,0,0,46.9,2.2" fill="#fff"/>
    <path id="Path_69" data-name="Path 69" d="M49.444,6.5a38.316,38.316,0,0,0-21.981,6.864,38.751,38.751,0,0,0-8.252,7.777,37.936,37.936,0,0,0-5.367,9.165c-1.972.621-4.162,1.753-4.783,3.615v.073l-.037.11A41.431,41.431,0,0,0,7.6,44.911a42.155,42.155,0,0,0,1.387,10.7h0l.11.365.037.073.037.073c.694,1.753,2.811,2.811,4.71,3.432a39.164,39.164,0,0,0,5.367,9.165A36.938,36.938,0,0,0,27.5,76.458a38.508,38.508,0,0,0,43.888,0,39.515,39.515,0,0,0,8.252-7.741,37.936,37.936,0,0,0,5.367-9.165c1.9-.584,4.016-1.643,4.71-3.432l.037-.073.037-.073.11-.365h0a42.155,42.155,0,0,0,1.387-10.7A41.431,41.431,0,0,0,89.863,34.1l-.037-.11v-.073c-.584-1.9-2.775-2.994-4.783-3.615a37.253,37.253,0,0,0-5.367-9.165A38.368,38.368,0,0,0,49.444,6.5m0,1.534a36.9,36.9,0,0,1,34.4,23.551c2.41.657,4.089,1.643,4.455,2.811l.037.11a40.648,40.648,0,0,1,1.351,10.406,39.8,39.8,0,0,1-1.351,10.3l-.11.365c-.438,1.1-2.081,2.081-4.418,2.7a36.9,36.9,0,0,1-68.754.037c-2.337-.621-3.98-1.57-4.418-2.7l-.11-.365a40.014,40.014,0,0,1-1.351-10.3,40.861,40.861,0,0,1,1.351-10.406l.037-.11c.365-1.168,2.045-2.154,4.455-2.811A36.968,36.968,0,0,1,49.444,8.034" transform="translate(-2.539 -2.73)" fill="#002776"/>
    <path id="Path_70" data-name="Path 70" d="M65.95,66.891A204.123,204.123,0,0,1,33.6,64.445a35.131,35.131,0,0,0,64.7,0,204.123,204.123,0,0,1-32.35,2.446M33.6,37.133a35.131,35.131,0,0,1,64.7,0,204.123,204.123,0,0,0-32.35-2.446A199.9,199.9,0,0,0,33.6,37.133" transform="translate(-19.046 -8.571)" fill="#ff6319"/>
    <path id="Path_71" data-name="Path 71" d="M89.371,103.112V95.737h2.958V91.72H89.371V89.383c0-1.351,1.534-.913,1.534-.913a6.756,6.756,0,0,1,2.081.913v-3.87s-1.826-1.68-6.572-1.68c-3.505,0-3.505,2.665-3.505,2.665v5.112H80.134V95.7h2.775v7.339h6.463M69.07,84.345v18.731h6.645V84.345H69.07M46.14,91.72v7.85c0,.694,0,4.126,6.39,4.126a15.183,15.183,0,0,0,5.075-1.132v.548h6.682V91.684H57.605v7.96s-4.856,1.2-4.856-1.716V91.684l-6.609.037m-7.083-3.359a9.756,9.756,0,0,0-5.367-1.789c-1.643,0-7.668.365-7.668,6.682s6.1,6.207,6.1,6.207c2.848-.146,2.811-.694,2.811-.694V95.737H31.608V91.684H41.759v11.392H34.894v-.548a11.2,11.2,0,0,1-5.221,1.1C26.35,103.623,18.5,101.98,18.5,92.6c0-6.791,6.39-10.3,11.794-10.3,5.879,0,8.727,2.008,8.727,2.008v4.053Z" transform="translate(-9.46 -50.853)" fill="#002776"/>
  </g>
</svg>
