<?xml version="1.0" encoding="utf-8"?>
<!-- Generator: Adobe Illustrator 25.3.0, SVG Export Plug-In . SVG Version: 6.00 Build 0)  -->
<svg version="1.0" id="Layer_1" xmlns="http://www.w3.org/2000/svg" xmlns:xlink="http://www.w3.org/1999/xlink" x="0px" y="0px"
	 viewBox="0 0 243.6 225.1" style="enable-background:new 0 0 243.6 225.1;" xml:space="preserve">
<style type="text/css">
	.st0{fill:#FFFFFF;}
	.st1{fill:#002776;}
	.st2{fill:#FF6319;}
</style>
<g>
	<path class="st0" d="M122.2,2.2C99.7,2.2,78,9,59.6,21.8C50.7,28,42.8,35.5,36.1,44c-5.9,7.5-10.8,15.7-14.5,24.4
		c-7.6,2.8-12.3,6.8-13.9,12.1l0,0.1l0,0.1l0,0.1l0,0.1l-0.1,0.3c-2.7,10-4,20.3-4,30.7c0,10.3,1.3,20.5,3.9,30.4l0,0l0,0l0.3,1
		l0.1,0.2l0.1,0.2l0.1,0.2l0.1,0.2c1.9,4.9,6.5,8.6,13.7,11.2c3.8,8.7,8.7,16.9,14.5,24.3c6.7,8.5,14.6,15.9,23.5,22.1
		c18.4,12.8,40.1,19.6,62.6,19.6c22.5,0,44.2-6.8,62.6-19.6c8.9-6.2,16.8-13.6,23.5-22.1c5.9-7.5,10.8-15.6,14.5-24.3
		c7.2-2.6,11.8-6.4,13.7-11.2l0.1-0.2l0.1-0.2l0.1-0.2l0.1-0.2l0.3-1l0,0l0,0l0,0l0,0c2.6-9.9,3.9-20.1,3.9-30.4
		c0-10.4-1.3-20.7-4-30.7l-0.1-0.4l0-0.1l0-0.1l0-0.1l0-0.1c-1.6-5.3-6.3-9.3-13.9-12.1c-3.8-8.7-8.6-16.9-14.5-24.4
		c-6.7-8.5-14.6-15.9-23.5-22.1C166.4,9,144.7,2.2,122.2,2.2"/>
	<path class="st1" d="M122.2,6.5C100.5,6.5,79.7,13,62,25.3c-8.5,5.9-16.1,13.1-22.6,21.3c-6.1,7.7-11,16.1-14.7,25.1
		c-5.4,1.7-11.4,4.8-13.1,9.9l0,0.1l0,0.1l-0.1,0.3c-2.6,9.6-3.9,19.6-3.9,29.6c0,9.9,1.3,19.8,3.8,29.3l0,0l0,0l0.3,1l0.1,0.2
		l0.1,0.2c1.9,4.8,7.7,7.7,12.9,9.4c3.7,9,8.7,17.4,14.7,25.1c6.4,8.2,14,15.3,22.6,21.2c17.7,12.3,38.5,18.8,60.1,18.8
		c21.6,0,42.4-6.5,60.1-18.8c8.5-5.9,16.1-13.1,22.6-21.2c6.1-7.7,11-16.1,14.7-25.1c5.2-1.6,11-4.5,12.9-9.4l0.1-0.2l0.1-0.2l0.3-1
		l0,0l0,0c2.5-9.5,3.8-19.4,3.8-29.3c0-10-1.3-20-3.9-29.6l-0.1-0.3l0-0.1l0-0.1c-1.6-5.2-7.6-8.2-13.1-9.9
		c-3.7-9-8.6-17.5-14.7-25.1c-6.4-8.2-14-15.3-22.6-21.3C164.7,13,143.9,6.5,122.2,6.5 M122.2,10.7c42.9,0,79.6,26.8,94.2,64.5
		c6.6,1.8,11.2,4.5,12.2,7.7l0.1,0.3c2.4,9.1,3.7,18.6,3.7,28.5c0,9.8-1.3,19.2-3.7,28.2l-0.3,1c-1.2,3-5.7,5.7-12.1,7.4
		c-14.7,37.7-51.3,64.4-94.2,64.4S42.6,186.1,28,148.4c-6.4-1.7-10.9-4.3-12.1-7.4l-0.3-1c-2.4-9-3.7-18.5-3.7-28.2
		c0-9.8,1.3-19.4,3.7-28.5l0.1-0.3c1-3.2,5.6-5.9,12.2-7.7C42.6,37.5,79.3,10.7,122.2,10.7"/>
	<path class="st2" d="M122.2,155.9c-32.5,0-62.9-2.5-88.6-6.7c14.6,34.5,48.8,58.7,88.6,58.7s74-24.2,88.6-58.7
		C185.1,153.4,154.7,155.9,122.2,155.9 M33.6,74.4c14.6-34.5,48.8-58.7,88.6-58.7s74,24.2,88.6,58.7c-25.7-4.2-56.1-6.7-88.6-6.7
		S59.3,70.1,33.6,74.4"/>
	<path class="st1" d="M212.6,139.3l0-20.2h8.1v-11h-8.1v-6.4c0-3.7,4.2-2.5,4.2-2.5c3.1,0.7,5.7,2.5,5.7,2.5l0-10.6
		c0,0-5-4.6-18-4.6c-9.6,0-9.6,7.3-9.6,7.3c0,2.4,0,14,0,14l-7.6,0v11.2l7.6,0v20.1H212.6 M157,87.9v51.3h18.2V87.9L157,87.9
		 M94.2,108.1v21.5c0,1.9,0,11.3,17.5,11.3c0,0,6.1,0,13.9-3.1v1.5h18.3v-31.3l-18.3,0c0,0,0,20.3,0,21.8c0,0-13.3,3.3-13.3-4.7
		c0-8,0-17.1,0-17.1L94.2,108.1 M74.8,98.9c0,0-6.4-4.9-14.7-4.9c-4.5,0-21,1-21,18.3c0,17.3,16.7,17,16.7,17
		c7.8-0.4,7.7-1.9,7.7-1.9v-8.3h-9.1v-11.1h27.8v31.2H63.4l0-1.5c0,0-5.2,3-14.3,3c-9.1,0-30.6-4.5-30.6-30.2
		c0-18.6,17.5-28.2,32.3-28.2c16.1,0,23.9,5.5,23.9,5.5V98.9z"/>
</g>
</svg>
