<svg width="273" height="114" viewBox="0 0 273 114" fill="none" xmlns="http://www.w3.org/2000/svg">
<path fill-rule="evenodd" clip-rule="evenodd" d="M34.6196 38.8615C34.4238 36.1773 36.4425 33.8426 39.1267 33.6468C41.8134 33.4522 44.1494 35.4709 44.3439 38.1564C44.5397 40.8418 42.5198 43.1778 39.8343 43.3711C37.1501 43.5657 34.8141 41.5494 34.6196 38.8615Z" fill="black"/>
<path fill-rule="evenodd" clip-rule="evenodd" d="M91.8367 38.8615C92.0325 36.1773 90.0125 33.8426 87.3283 33.6468C84.6404 33.4522 82.3069 35.4709 82.1111 38.1564C81.9165 40.8418 83.9365 43.1778 86.6195 43.3711C89.3062 43.5657 91.6422 41.5494 91.8367 38.8615Z" fill="black"/>
<path fill-rule="evenodd" clip-rule="evenodd" d="M107.899 46.5051C107.325 44.3922 104.407 44.07 101.834 44.7392C99.8018 45.2696 92.7344 47.2313 86.4589 46.7765C81.9517 46.4494 77.5425 42.6982 74.8013 40.1317C77.5251 36.9902 81.0396 33.6194 81.8464 32.6776C83.0113 31.3182 83.2046 29.1854 82.2343 28.2138C81.2652 27.2448 79.5191 27.8297 77.773 28.9933C76.0306 30.1557 69.4341 36.7969 63.1424 36.7969C56.8532 36.7969 50.0411 30.1557 48.295 28.9933C46.5489 27.8297 44.027 28.0255 43.0567 28.9933C42.0876 29.9637 43.0592 31.3182 44.2241 32.6776C45.0482 33.6405 48.694 37.1364 51.4402 40.3312C48.6854 42.8878 44.3889 46.4593 39.997 46.7765C33.7227 47.2313 26.6528 45.2696 24.6229 44.7392C22.049 44.07 19.1318 44.3922 18.5568 46.5051C18.1974 47.8287 19.3189 49.2823 20.8258 50.265C22.3253 51.244 30.0991 52.7559 32.2852 56.0982C34.4712 59.4416 34.8045 85.2985 36.8406 86.1648C38.3252 86.7993 40.914 86.7993 42.3206 86.083C44.2935 85.0817 47.6221 56.8714 49.3013 53.2479C50.2307 51.2477 52.5704 48.2562 54.6585 45.7368C56.4554 54.1612 58.4234 85.5489 60.3182 86.2044C61.7507 86.7001 64.6035 86.7001 65.7498 86.2044C67.6186 85.3952 69.6646 53.181 71.4912 45.365C73.6525 47.9588 76.1793 51.1474 77.1546 53.2479C78.835 56.8714 82.1624 85.0817 84.134 86.083C85.5418 86.7993 88.1294 86.7993 89.6152 86.1648C91.6501 85.2985 91.9834 59.4416 94.1707 56.0982C96.358 52.7559 104.131 51.244 105.629 50.265C107.137 49.2823 108.257 47.8287 107.899 46.5051Z" fill="black"/>
<mask id="mask0_2304_129" style="mask-type:luminance" maskUnits="userSpaceOnUse" x="0" y="0" width="110" height="36">
<path fill-rule="evenodd" clip-rule="evenodd" d="M0.758301 35.5456V0H109.488V35.5456H0.758301Z" fill="white"/>
</mask>
<g mask="url(#mask0_2304_129)">
<path fill-rule="evenodd" clip-rule="evenodd" d="M58.3525 28.5151C58.3525 25.8209 60.5349 23.6411 63.229 23.6411C65.9181 23.6411 68.1042 25.8209 68.1042 28.5151C68.1042 31.2067 65.9181 33.389 63.229 33.389C60.5349 33.389 58.3525 31.2067 58.3525 28.5151Z" fill="black"/>
<path fill-rule="evenodd" clip-rule="evenodd" d="M108.872 28.8584C111.241 32.6195 106.279 34.0286 102.49 33.1648C99.3145 32.4411 68.1884 15.7967 63.5201 15.3667C58.8692 14.9441 30.8684 32.1598 27.7827 33.8104C23.2483 36.2344 19.2443 36.0039 15.0581 33.8328C13.6764 33.1127 3.01015 27.4816 0.684082 25.9102C3.01015 23.7378 35.383 4.30148 39.1516 2.41287C43.4865 0.236752 46.0703 -0.903355 50.8364 0.876204C54.1415 2.11421 107.889 27.3044 108.872 28.8584Z" fill="black"/>
</g>
<path fill-rule="evenodd" clip-rule="evenodd" d="M12.9635 53.0015C14.1755 53.1812 19.8996 55.6485 22.1661 56.8159C27.6151 59.6228 27.8977 62.4123 28.5198 66.9517C29.1828 71.7909 29.754 80.8065 29.8495 84.2218C27.5693 83.2441 18.6417 75.7726 16.5102 73.9299C14.8595 72.4998 13.0118 71.4786 13.0155 69.2604C13.018 68.414 12.6289 55.0846 12.9635 53.0015Z" fill="black"/>
<path fill-rule="evenodd" clip-rule="evenodd" d="M267.613 70.3976H268.737C269.486 70.3976 269.726 70.1337 269.726 69.5921C269.726 69.1212 269.373 68.8573 268.888 68.8573H267.613V70.3976ZM267.613 73.0485H266.929V68.2836H268.746C269.859 68.2836 270.408 68.7347 270.408 69.6381C270.408 70.4982 269.846 70.86 269.165 70.9492L270.54 73.0485H269.782L268.492 70.9691H267.613V73.0485ZM268.502 74.1613C270.399 74.1613 271.861 72.6643 271.861 70.6852C271.861 68.7347 270.399 67.2265 268.502 67.2265C266.577 67.2265 265.126 68.7347 265.126 70.6852C265.126 72.6643 266.577 74.1613 268.502 74.1613ZM268.502 66.6118C270.74 66.6118 272.61 68.3728 272.61 70.6852C272.61 73.0187 270.74 74.7785 268.502 74.7785C266.264 74.7785 264.377 73.0187 264.377 70.6852C264.377 68.3728 266.264 66.6118 268.502 66.6118Z" fill="black"/>
<path fill-rule="evenodd" clip-rule="evenodd" d="M130.501 26.5332C130.307 28.9299 130.258 31.7157 130.258 34.6961V40.3198C131.334 40.3706 132.409 40.419 133.974 40.419C135.539 40.419 136.613 40.3706 137.688 40.3198V34.6961C137.688 31.7157 137.639 28.9299 137.445 26.5332H146.685C146.198 31.5695 146.198 35.6764 146.198 43.988C146.198 52.2984 146.198 56.4065 146.685 61.4416H137.445C137.639 59.0473 137.688 56.2566 137.688 53.2786V46.1393C136.613 46.0898 135.539 46.0402 133.974 46.0402C132.409 46.0402 131.334 46.0898 130.258 46.1393V53.2786C130.258 56.2566 130.307 59.0473 130.501 61.4416H121.26C121.75 56.4065 121.75 52.2984 121.75 43.988C121.75 35.6764 121.75 31.5695 121.26 26.5332H130.501Z" fill="black"/>
<path fill-rule="evenodd" clip-rule="evenodd" d="M161.547 48.7297C158.47 49.5117 156.56 51.4201 156.56 53.8639C156.56 55.5766 157.637 56.8939 159.203 56.8939C160.227 56.8939 161.253 56.2569 161.547 55.8182V48.7297ZM150.938 36.6037C151.622 36.507 154.264 36.2158 156.072 36.2158C166.194 36.2158 169.274 40.1727 169.274 46.7246V52.8378C169.274 55.1837 169.274 57.8246 170.543 61.4419H162.772C162.185 60.66 161.991 60.1221 161.938 59.9263C160.62 60.9041 158.812 61.8311 156.465 61.8311C151.721 61.8311 148.639 58.557 148.639 54.4501C148.639 49.9529 152.208 46.9217 156.855 45.4061L160.913 44.085C160.864 42.3736 159.742 40.9076 157.442 40.9076C155.875 40.9076 153.431 41.64 150.938 43.4481V36.6037Z" fill="black"/>
<path fill-rule="evenodd" clip-rule="evenodd" d="M181.423 54.5972C181.423 56.0162 181.958 57.1377 183.524 57.1377C185.529 57.1377 186.949 55.0867 186.949 49.2685C186.949 45.1108 185.87 41.543 183.425 41.543C182.105 41.543 181.423 42.3733 181.423 43.5456V54.5972ZM181.423 26.5332V37.5823C182.643 36.8487 184.406 36.2154 186.165 36.2154C190.808 36.2154 195.162 39.6345 195.162 48.5336C195.162 55.4275 191.396 62.0277 184.455 62.0277C182.595 62.0277 180.443 61.3932 178.146 59.5839L175.408 61.9311L173.061 60.5121C173.502 57.3843 173.502 54.0594 173.502 50.5387V36.5067C173.502 34.6961 173.502 32.6935 173.013 26.5332H181.423Z" fill="black"/>
<path fill-rule="evenodd" clip-rule="evenodd" d="M206.184 36.8034C206.089 39.3426 206.089 43.0591 206.089 48.3371C206.089 54.9881 206.089 58.3143 206.529 61.4421H197.727C198.166 58.3143 198.166 54.9881 198.166 51.4674V46.7744C198.166 43.2525 198.166 39.9313 197.727 36.8034H206.184ZM202.13 26.1904C204.571 26.1904 206.529 28.1484 206.529 30.591C206.529 33.036 204.571 34.9903 202.13 34.9903C199.682 34.9903 197.727 33.036 197.727 30.591C197.727 28.1484 199.682 26.1904 202.13 26.1904Z" fill="black"/>
<path fill-rule="evenodd" clip-rule="evenodd" d="M219.68 29.3203C219.583 30.8347 219.532 33.7196 219.532 36.8029H223.202V41.4922H219.532V53.8153C219.532 55.8179 220.265 56.9444 222.221 56.9444C222.518 56.9444 222.808 56.9444 223.25 56.8936V61.2941C221.635 61.8307 219.975 62.0278 218.312 62.0278C216.112 62.0278 214.35 61.247 213.029 59.6819C212.001 58.4587 211.612 56.4065 211.612 53.9107V41.4922H208.777V36.8029H211.612C211.612 33.7196 211.564 30.8347 211.465 29.3203H219.68Z" fill="black"/>
<path fill-rule="evenodd" clip-rule="evenodd" d="M238.614 48.7297C235.532 49.5117 233.626 51.4201 233.626 53.8639C233.626 55.5766 234.703 56.8939 236.267 56.8939C237.293 56.8939 238.321 56.2569 238.614 55.8182V48.7297ZM228.004 36.6037C228.688 36.507 231.329 36.2158 233.138 36.2158C243.259 36.2158 246.34 40.1727 246.34 46.7246V52.8378C246.34 55.1837 246.34 57.8246 247.61 61.4419H239.836C239.251 60.66 239.056 60.1221 239.006 59.9263C237.686 60.9041 235.875 61.8311 233.53 61.8311C228.785 61.8311 225.709 58.557 225.709 54.4501C225.709 49.9529 229.278 46.9217 233.919 45.4061L237.98 44.085C237.929 42.3736 236.805 40.9076 234.508 40.9076C232.942 40.9076 230.499 41.64 228.004 43.4481V36.6037Z" fill="black"/>
<path fill-rule="evenodd" clip-rule="evenodd" d="M259.575 29.3203C259.477 30.8347 259.43 33.7196 259.43 36.8029H263.095V41.4922H259.43V53.8153C259.43 55.8179 260.161 56.9444 262.118 56.9444C262.412 56.9444 262.704 56.9444 263.143 56.8936V61.2941C261.531 61.8307 259.868 62.0278 258.206 62.0278C256.005 62.0278 254.245 61.247 252.925 59.6819C251.899 58.4587 251.508 56.4065 251.508 53.9107V41.4922H248.668V36.8029H251.508C251.508 33.7196 251.457 30.8347 251.36 29.3203H259.575Z" fill="black"/>
<path fill-rule="evenodd" clip-rule="evenodd" d="M129.22 69.9356C129.113 69.855 128.769 69.6704 128.187 69.6704C127.074 69.6704 126.544 70.5155 126.544 71.4202C126.544 71.9456 126.703 72.4785 126.809 72.7437H128.795V75.2854H126.783V80.6885C126.783 82.5945 126.783 84.3951 127.021 86.0916H122.253C122.492 84.3951 122.492 82.5945 122.492 80.6885V75.2854H121.036V72.7437H122.492V71.7089C122.492 70.145 122.757 69.0892 124.004 68.0556C125.062 67.2068 126.385 66.9155 127.55 66.9155C128.187 66.9155 128.875 67.0221 129.22 67.1547V69.9356Z" fill="black"/>
<path fill-rule="evenodd" clip-rule="evenodd" d="M133.759 79.4167C133.759 82.6214 134.447 83.7615 135.241 83.7615C136.038 83.7615 136.724 82.6214 136.724 79.4167C136.724 76.2132 136.038 75.0744 135.241 75.0744C134.447 75.0744 133.759 76.2132 133.759 79.4167ZM141.438 79.4169C141.438 83.9203 138.472 86.4075 135.242 86.4075C132.01 86.4075 129.045 83.9203 129.045 79.4169C129.045 74.9147 132.01 72.4238 135.242 72.4238C138.472 72.4238 141.438 74.9147 141.438 79.4169Z" fill="black"/>
<path fill-rule="evenodd" clip-rule="evenodd" d="M147.028 72.7436C147.187 73.2207 147.372 74.0943 147.4 74.5169C148.327 73.2752 149.439 72.4238 150.761 72.4238C151.054 72.4238 151.213 72.4523 151.345 72.5056V76.0276C151.054 75.9458 150.684 75.921 150.551 75.921C148.537 75.921 147.665 77.7761 147.665 80.6884C147.665 82.5943 147.665 84.395 147.903 86.0915H142.974C143.215 84.395 143.215 82.5943 143.215 80.6884V78.1454C143.215 76.2382 143.215 74.4376 142.764 72.7436H147.028Z" fill="black"/>
<path fill-rule="evenodd" clip-rule="evenodd" d="M165.462 67.1807C165.354 68.4806 165.329 69.9876 165.329 71.6035V74.6484C165.911 74.6769 166.493 74.7017 167.34 74.7017C168.189 74.7017 168.774 74.6769 169.352 74.6484V71.6035C169.352 69.9876 169.331 68.4806 169.221 67.1807H174.227C173.963 69.9095 173.963 72.1327 173.963 76.6361C173.963 81.1371 173.963 83.364 174.227 86.0916H169.221C169.331 84.7929 169.352 83.2847 169.352 81.6687V77.801C168.774 77.7762 168.189 77.7465 167.34 77.7465C166.493 77.7465 165.911 77.7762 165.329 77.801V81.6687C165.329 83.2847 165.354 84.7929 165.462 86.0916H160.458C160.721 83.364 160.721 81.1371 160.721 76.6361C160.721 72.1327 160.721 69.9095 160.458 67.1807H165.462Z" fill="black"/>
<path fill-rule="evenodd" clip-rule="evenodd" d="M183.892 86.0916C183.705 85.6938 183.574 85.2464 183.497 84.8994C182.515 85.8537 181.508 86.4076 180.133 86.4076C177.879 86.4076 176.4 84.7656 176.4 82.2239V78.1455C176.4 76.2383 176.4 74.4377 176.159 72.7437H180.687V81.6154C180.687 82.6737 181.11 83.2847 181.88 83.2847C182.544 83.2847 183.232 82.8063 183.232 81.8794V78.1455C183.232 76.2383 183.232 74.4377 182.994 72.7437H187.759C187.521 74.4377 187.521 76.2383 187.521 78.1455V80.6885C187.521 82.5944 187.521 84.3951 187.759 86.0916H183.892Z" fill="black"/>
<path fill-rule="evenodd" clip-rule="evenodd" d="M193.958 72.7436C194.142 73.1401 194.274 73.5912 194.357 73.932C195.336 73.0335 196.529 72.4238 197.852 72.4238C199.283 72.4238 200.181 73.2442 200.816 74.1191C201.774 73.2752 202.831 72.4238 204.553 72.4238C207.149 72.4238 208.129 74.253 208.129 76.874V80.6884C208.129 82.5943 208.129 84.395 208.365 86.0915H203.602C203.839 84.395 203.839 82.5943 203.839 80.6884V77.0066C203.839 76.0784 203.575 75.3918 202.754 75.3918C201.852 75.3918 201.348 76.0784 201.348 77.0066V80.6884C201.348 82.5943 201.348 84.395 201.587 86.0915H196.818C197.058 84.395 197.058 82.5943 197.058 80.6884V76.9545C197.058 76.0784 196.792 75.3918 195.972 75.3918C195.229 75.3918 194.568 76.0015 194.568 76.7959V80.6884C194.568 82.5943 194.568 84.395 194.805 86.0915H190.039C190.277 84.395 190.277 82.5943 190.277 80.6884V78.1454C190.277 76.2382 190.277 74.4376 190.039 72.7436H193.958Z" fill="black"/>
<path fill-rule="evenodd" clip-rule="evenodd" d="M216.685 79.2036C215.019 79.6286 213.985 80.6634 213.985 81.9857C213.985 82.9127 214.568 83.6277 215.417 83.6277C215.97 83.6277 216.53 83.2844 216.685 83.044V79.2036ZM210.94 72.6345C211.312 72.5849 212.74 72.4238 213.723 72.4238C219.206 72.4238 220.874 74.5714 220.874 78.1206V81.4294C220.874 82.6997 220.874 84.1335 221.558 86.0915H217.35C217.034 85.6689 216.925 85.3764 216.902 85.2699C216.184 85.8003 215.202 86.3034 213.935 86.3034C211.365 86.3034 209.694 84.5276 209.694 82.3043C209.694 79.868 211.628 78.2272 214.143 77.4044L216.342 76.6893C216.317 75.7624 215.705 74.9655 214.463 74.9655C213.615 74.9655 212.288 75.3646 210.94 76.3448V72.6345Z" fill="black"/>
<path fill-rule="evenodd" clip-rule="evenodd" d="M226.641 72.7436C226.825 73.1401 226.957 73.5912 227.038 73.932C228.018 72.9827 229.024 72.4238 230.401 72.4238C232.653 72.4238 234.135 74.0658 234.135 76.6088V80.6884C234.135 82.5943 234.135 84.395 234.375 86.0915H229.608C229.847 84.395 229.847 82.5943 229.847 80.6884V77.0326C229.847 76.2134 229.503 75.5517 228.706 75.5517C228.046 75.5517 227.304 76.0276 227.304 76.8207V80.6884C227.304 82.5943 227.304 84.395 227.54 86.0915H222.776C223.01 84.395 223.01 82.5943 223.01 80.6884V78.1454C223.01 76.2382 223.01 74.4376 222.776 72.7436H226.641Z" fill="black"/>
<path fill-rule="evenodd" clip-rule="evenodd" d="M240.519 72.7435C240.466 74.1191 240.466 76.1329 240.466 78.9918C240.466 82.5943 240.466 84.3949 240.706 86.0915H235.938C236.177 84.3949 236.177 82.5943 236.177 80.6883V78.1454C236.177 76.2382 236.177 74.4376 235.938 72.7435H240.519ZM238.321 66.9937C239.645 66.9937 240.706 68.0557 240.706 69.378C240.706 70.7052 239.645 71.7623 238.321 71.7623C237 71.7623 235.938 70.7052 235.938 69.378C235.938 68.0557 237 66.9937 238.321 66.9937Z" fill="black"/>
<path fill-rule="evenodd" clip-rule="evenodd" d="M248.066 68.6904C248.012 69.5133 247.988 71.0747 247.988 72.744H249.974V75.2857H247.988V81.9591C247.988 83.0446 248.385 83.6556 249.441 83.6556C249.603 83.6556 249.762 83.6556 250.001 83.6283V86.0114C249.126 86.3039 248.224 86.408 247.323 86.408C246.13 86.408 245.178 85.9866 244.465 85.139C243.909 84.4747 243.696 83.3644 243.696 82.0136V75.2857H242.158V72.744H243.696C243.696 71.0747 243.67 69.5133 243.618 68.6904H248.066Z" fill="black"/>
<path fill-rule="evenodd" clip-rule="evenodd" d="M255.826 72.7437C256.171 74.8082 257.177 78.5681 257.706 80.2919H257.76C258.501 77.5879 259.06 74.5443 259.296 72.7437H263.082C262.21 76.3722 260.222 83.7345 258.527 87.2032C257.653 88.9778 256.329 91.1229 252.701 91.1229C252.33 91.1229 251.775 91.0969 251.432 90.9916V87.601C251.667 87.7348 252.251 87.9988 252.914 87.9988C254.291 87.9988 255.217 86.8599 255.217 85.8797C255.217 85.3765 255.113 85.0593 254.053 82.2524C252.622 78.4913 251.535 74.517 251.246 72.7437H255.826Z" fill="black"/>
<path fill-rule="evenodd" clip-rule="evenodd" d="M125.597 100.125C124.415 100.125 123.746 102.044 123.746 104.229C123.746 106.415 124.415 108.334 125.597 108.334C126.78 108.334 127.449 106.415 127.449 104.229C127.449 102.044 126.78 100.125 125.597 100.125ZM125.598 110.118C122.675 110.118 121.069 107.108 121.069 104.229C121.069 101.352 122.675 98.3403 125.598 98.3403C128.52 98.3403 130.126 101.352 130.126 104.229C130.126 107.108 128.52 110.118 125.598 110.118Z" fill="black"/>
<path fill-rule="evenodd" clip-rule="evenodd" d="M136.439 95.6635C136.104 95.5519 135.77 95.5296 135.658 95.5296C134.967 95.5296 134.476 96.2881 134.476 97.7826V98.6525H136.305V100.394H134.476V102.846C134.476 103.738 134.498 108.602 134.61 109.806H131.844C131.955 108.402 132.022 106.84 132.022 105.502V100.394H130.438V98.6525H132.022C132.022 96.065 132.914 93.7451 135.881 93.7451C136.037 93.7451 136.238 93.7674 136.439 93.8356V95.6635Z" fill="black"/>
<path fill-rule="evenodd" clip-rule="evenodd" d="M146.342 93.8789C147.19 96.7341 148.016 99.5683 148.841 102.422H148.886C149.732 99.5894 150.557 96.7564 151.273 93.8789H155.22C155.154 95.6424 155.087 96.8234 155.087 100.125C155.087 103.047 155.065 107.53 155.265 109.806H152.41C152.499 105.59 152.477 101.375 152.566 97.1803H152.52C151.518 100.504 150.492 103.851 149.51 107.218H147.815C146.878 103.828 145.874 100.526 144.78 97.1803H144.737C144.78 101.195 144.848 105.233 144.915 109.272C144.915 109.449 144.937 109.74 144.937 109.806H142.328C142.484 107.352 142.595 105.145 142.595 99.9016C142.595 97.7615 142.549 96.3115 142.505 93.8789H146.342Z" fill="black"/>
<path fill-rule="evenodd" clip-rule="evenodd" d="M160.261 98.6524C160.104 100.504 160.15 102.357 160.15 104.208C160.15 106.527 160.24 108.824 160.328 109.806H157.584C157.785 107.798 157.695 105.769 157.695 103.761C157.695 101.285 157.584 99.2113 157.517 98.6524H160.261ZM160.416 95.6188C160.416 96.5334 159.881 97.4046 158.878 97.4046C157.896 97.4046 157.428 96.4888 157.428 95.6857C157.428 94.6819 158.076 93.8789 158.967 93.8789C159.77 93.8789 160.416 94.5704 160.416 95.6188Z" fill="black"/>
<path fill-rule="evenodd" clip-rule="evenodd" d="M169.072 101.219C168.559 100.616 167.756 100.394 167.131 100.394C166.15 100.394 164.544 101.151 164.544 104.14C164.544 107.309 166.484 108.155 167.533 108.155C168.203 108.155 168.893 107.822 169.384 107.33L170.209 108.446C169.607 109.159 168.135 110.118 166.573 110.118C163.674 110.118 161.913 107.465 161.913 104.742C161.913 101.597 164.454 98.3403 168.179 98.3403C168.648 98.3403 168.871 98.3862 169.072 98.4308V101.219Z" fill="black"/>
<path fill-rule="evenodd" clip-rule="evenodd" d="M173.176 93.8789C173.155 94.2358 173.132 94.6609 173.132 95.195V99.2994C174.069 98.6971 174.717 98.3402 175.542 98.3402C177.102 98.3402 178.531 99.857 178.531 102.021C178.531 104.586 178.531 107.666 178.753 109.806H176.076C176.165 107.397 176.165 104.989 176.165 102.578C176.165 101.106 175.542 100.394 174.404 100.394C174.135 100.394 173.645 100.459 173.199 100.751C173.132 101.798 173.221 108.134 173.356 109.806H170.656C170.768 108.803 170.791 106.327 170.791 103.738C170.768 100.459 170.679 95.2173 170.433 93.8789H173.176Z" fill="black"/>
<path fill-rule="evenodd" clip-rule="evenodd" d="M183.303 98.6524C183.146 100.504 183.192 102.357 183.192 104.208C183.192 106.527 183.282 108.824 183.37 109.806H180.626C180.827 107.798 180.738 105.769 180.738 103.761C180.738 101.285 180.626 99.2113 180.558 98.6524H183.303ZM183.458 95.6188C183.458 96.5334 182.924 97.4046 181.92 97.4046C180.939 97.4046 180.47 96.4888 180.47 95.6857C180.47 94.6819 181.118 93.8789 182.008 93.8789C182.812 93.8789 183.458 94.5704 183.458 95.6188Z" fill="black"/>
<path fill-rule="evenodd" clip-rule="evenodd" d="M189.706 107.934C190.107 107.934 190.531 107.777 190.843 107.553C190.887 107.108 190.932 105.791 190.932 103.872C190.932 100.394 190.51 100.082 189.594 100.082C188.59 100.082 187.542 101.263 187.542 104.208C187.542 106.549 188.323 107.934 189.706 107.934ZM193.05 98.3403L193.743 98.9438C193.363 100.037 193.386 103.026 193.386 107.374C193.386 107.754 193.431 109.494 193.431 109.984C193.431 112.906 191.447 113.955 188.746 113.955C187.609 113.955 186.471 113.732 185.356 113.486L185.98 110.854C186.448 111.211 187.564 112.081 188.992 112.081C190.464 112.081 190.91 111.1 190.91 109.785C190.91 109.56 190.887 109.337 190.865 109.159C190.442 109.382 189.548 109.806 188.723 109.806C187.072 109.806 184.91 108.356 184.91 104.876C184.91 101.063 187.118 98.3403 189.616 98.3403C190.531 98.3403 191.267 98.6749 191.936 99.2995L193.05 98.3403Z" fill="black"/>
<path fill-rule="evenodd" clip-rule="evenodd" d="M200.324 103.939C198.338 104.185 197.2 105.166 197.2 106.504C197.2 107.553 197.959 108.111 198.784 108.111C199.431 108.111 199.989 107.822 200.324 107.374V103.939ZM200.902 109.806C200.68 109.56 200.525 109.226 200.435 108.936C199.7 109.516 198.939 110.118 197.737 110.118C195.684 110.118 194.613 108.423 194.613 106.84C194.613 103.649 198.226 102.645 200.256 102.065C200.1 100.883 199.431 100.169 198.161 100.169C197.112 100.169 196.174 100.727 195.706 100.972V98.3402C196.174 98.2956 196.799 98.251 197.224 98.251C200.077 98.251 202.777 99.1655 202.777 102.445V106.393C202.777 107.553 202.955 108.69 203.245 109.806H200.902Z" fill="black"/>
<path fill-rule="evenodd" clip-rule="evenodd" d="M206.926 98.6526L207.171 99.7903C207.817 98.9203 208.799 98.3403 209.78 98.3403C211.79 98.3403 212.68 99.8126 212.68 102.333C212.68 103.917 212.68 108.735 212.859 109.806H210.16C210.203 109.449 210.272 106.84 210.272 106.415C210.272 105.925 210.227 103.783 210.227 103.069C210.227 101.285 209.87 100.616 208.911 100.616C208.129 100.616 207.684 101.196 207.327 101.709V105.545C207.327 106.973 207.351 108.402 207.461 109.806H204.807C204.828 108.691 204.873 106.215 204.873 104.43C204.873 102.422 204.74 99.3218 204.583 98.6526H206.926Z" fill="black"/>
</svg>
