<?xml version="1.0" encoding="UTF-8" standalone="no"?>
<!-- Generator: Adobe Illustrator 15.0.2, SVG Export Plug-In  -->

<svg
   xmlns:dc="http://purl.org/dc/elements/1.1/"
   xmlns:cc="http://creativecommons.org/ns#"
   xmlns:rdf="http://www.w3.org/1999/02/22-rdf-syntax-ns#"
   xmlns:svg="http://www.w3.org/2000/svg"
   xmlns="http://www.w3.org/2000/svg"
   xmlns:sodipodi="http://sodipodi.sourceforge.net/DTD/sodipodi-0.dtd"
   xmlns:inkscape="http://www.inkscape.org/namespaces/inkscape"
   version="1.1"
   x="0px"
   y="0px"
   width="550.79401"
   height="72.464996"
   viewBox="-322.518 -240.067 550.79401 72.464996"
   enable-background="new -322.518 -240.067 1203 850"
   xml:space="preserve"
   id="svg26"
   sodipodi:docname="hf-fh-logo.svg"
   inkscape:version="0.92.3 (2405546, 2018-03-11)"><metadata
   id="metadata30"><rdf:RDF><cc:Work
       rdf:about=""><dc:format>image/svg+xml</dc:format><dc:type
         rdf:resource="http://purl.org/dc/dcmitype/StillImage" /><dc:title></dc:title></cc:Work></rdf:RDF></metadata><sodipodi:namedview
   pagecolor="#ffffff"
   bordercolor="#666666"
   borderopacity="1"
   objecttolerance="10"
   gridtolerance="10"
   guidetolerance="10"
   inkscape:pageopacity="0"
   inkscape:pageshadow="2"
   inkscape:window-width="2560"
   inkscape:window-height="1356"
   id="namedview28"
   showgrid="false"
   inkscape:zoom="0.27764706"
   inkscape:cx="-169.42902"
   inkscape:cy="-112.468"
   inkscape:window-x="1912"
   inkscape:window-y="1192"
   inkscape:window-maximized="1"
   inkscape:current-layer="svg26" />
<defs
   id="defs2">
</defs>
<path
   d="m -16.758,-240.067 13.916,5.812 c 0,0 -2.5,5.238 -3.666,8.676 -1.075,3.167 -3.666,10.968 -3.666,10.968 0,0 -7.36,8.749 -11.168,23.9 -3.166,12.605 -3.2,22.434 -3.2,22.434 l -5.848,0.015 c 0,0 -0.784,-16.392 3.382,-36.364 2.808,-13.463 10.25,-35.441 10.25,-35.441 z"
   id="path4"
   inkscape:connector-curvature="0" />
<path
   d="m -322.518,-168.526 v -44.556 h 17.843 v 15.038 h 16.86 v -15.038 h 17.843 v 44.556 h -17.842 v -17.266 h -16.86 v 17.266 z"
   id="path6"
   inkscape:connector-curvature="0"
   style="fill:#d4021d" />
<path
   d="m -266.97,-168.526 19.506,-44.556 h 18.146 l 19.507,44.556 h -17.768 l -2.117,-5.879 h -17.767 l -2.042,5.879 z m 28.429,-31.127 -5.52,15.965 h 11.266 z"
   id="path8"
   inkscape:connector-curvature="0"
   style="fill:#d4021d" />
<path
   d="m -167.64,-188.762 -0.681,-10.149 v -14.171 h 17.087 v 44.556 h -16.709 l -19.431,-24.258 0.68,10.149 v 14.109 h -17.087 v -44.556 h 16.709 z"
   id="path10"
   inkscape:connector-curvature="0"
   style="fill:#d4021d" />
<path
   d="m -115.169,-200.399 c -0.302,-1.547 -1.285,-2.476 -2.57,-3.032 -1.285,-0.557 -2.873,-0.805 -4.612,-0.805 -3.931,0 -5.67,0.928 -5.67,2.537 0,6.684 31.301,2.537 31.301,18.75 0,10.334 -10.509,15.347 -25.479,15.347 -14.365,0 -23.741,-6.869 -24.119,-14.914 h 17.087 c 0.378,1.609 1.437,2.785 2.949,3.527 1.436,0.743 3.327,1.114 5.065,1.114 4.461,0 7.41,-1.176 7.41,-3.28 0,-6.745 -31.302,-2.104 -31.302,-19.122 0,-9.468 9.98,-14.233 23.59,-14.233 15.121,0 22.001,6.312 23.287,14.109 h -16.937 z"
   id="path12"
   inkscape:connector-curvature="0"
   style="fill:#d4021d" />
<path
   d="m -95.166,-168.526 19.507,-44.556 h 18.146 l 19.507,44.556 h -17.768 l -2.117,-5.879 h -17.768 l -2.042,5.879 z m 28.428,-31.127 -5.519,15.965 h 11.265 z"
   id="path14"
   inkscape:connector-curvature="0"
   style="fill:#d4021d" />
<path
   d="m 21.739,-168.526 v -44.556 h 42.34 v 10.396 H 39.583 v 8.106 H 59.09 v 10.396 H 39.583 v 15.656 H 21.739 Z"
   id="path16"
   inkscape:connector-curvature="0"
   style="fill:#d4021d" />
<path
   d="m 73.826,-168.526 v -44.556 H 91.67 v 34.159 h 24.497 v 10.396 H 73.826 Z"
   id="path18"
   inkscape:connector-curvature="0"
   style="fill:#d4021d" />
<path
   d="m 121.227,-168.526 v -44.556 h 44.381 v 10.396 h -26.537 v 6.374 h 22.455 v 10.396 h -22.455 v 6.993 h 27.596 v 10.396 h -45.44 z"
   id="path20"
   inkscape:connector-curvature="0"
   style="fill:#d4021d" />
<path
   d="m 190.7,-168.526 h -20.036 l 19.279,-23.145 -17.39,-21.411 h 20.036 l 7.712,11.386 7.788,-11.386 h 20.035 l -18.372,21.411 18.524,23.145 H 208.24 l -8.77,-12.5 z"
   id="path22"
   inkscape:connector-curvature="0"
   style="fill:#d4021d" />
<path
   d="m 3.63,-230.976 c 0,0 -13.028,14.514 -19.332,29.139 -7.668,17.785 -7.262,33.561 -7.262,33.561 l 13.558,-0.013 c 0,0 0.204,-12.593 6.704,-27.817 6.104,-14.297 16.666,-25.21 16.666,-25.21 z"
   id="path24"
   inkscape:connector-curvature="0"
   style="fill:#d4021d" />
</svg>