<?xml version="1.0" encoding="UTF-8"?> <svg xmlns="http://www.w3.org/2000/svg" height="72.465" viewBox="-322.518 -240.067 550.794 72.465" width="550.794"><path d="m-16.758-240.067 13.916 5.812s-2.5 5.238-3.666 8.676c-1.075 3.167-3.666 10.968-3.666 10.968s-7.36 8.749-11.168 23.9c-3.166 12.605-3.2 22.434-3.2 22.434l-5.848.015s-.784-16.392 3.382-36.364c2.808-13.463 10.25-35.441 10.25-35.441z"></path><path d="m-322.518-168.526v-44.556h17.843v15.038h16.86v-15.038h17.843v44.556h-17.842v-17.266h-16.86v17.266zm55.548 0 19.506-44.556h18.146l19.507 44.556h-17.768l-2.117-5.879h-17.767l-2.042 5.879zm28.429-31.127-5.52 15.965h11.266zm70.901 10.891-.681-10.149v-14.171h17.087v44.556h-16.709l-19.431-24.258.68 10.149v14.109h-17.087v-44.556h16.709zm52.471-11.637c-.302-1.547-1.285-2.476-2.57-3.032-1.285-.557-2.873-.805-4.612-.805-3.931 0-5.67.928-5.67 2.537 0 6.684 31.301 2.537 31.301 18.75 0 10.334-10.509 15.347-25.479 15.347-14.365 0-23.741-6.869-24.119-14.914h17.087c.378 1.609 1.437 2.785 2.949 3.527 1.436.743 3.327 1.114 5.065 1.114 4.461 0 7.41-1.176 7.41-3.28 0-6.745-31.302-2.104-31.302-19.122 0-9.468 9.98-14.233 23.59-14.233 15.121 0 22.001 6.312 23.287 14.109h-16.937zm20.003 31.873 19.507-44.556h18.146l19.507 44.556h-17.768l-2.117-5.879h-17.768l-2.042 5.879zm28.428-31.127-5.519 15.965h11.265zm88.477 31.127v-44.556h42.34v10.396h-24.496v8.106h19.507v10.396h-19.507v15.656h-17.844zm52.087 0v-44.556h17.844v34.159h24.497v10.396h-42.341zm47.401 0v-44.556h44.381v10.396h-26.537v6.374h22.455v10.396h-22.455v6.993h27.596v10.396h-45.44zm69.473 0h-20.036l19.279-23.145-17.39-21.411h20.036l7.712 11.386 7.788-11.386h20.035l-18.372 21.411 18.524 23.145h-20.036l-8.77-12.5zm-187.07-62.45s-13.028 14.514-19.332 29.139c-7.668 17.785-7.262 33.561-7.262 33.561l13.558-.013s.204-12.593 6.704-27.817c6.104-14.297 16.666-25.21 16.666-25.21z" fill="#d4021d"></path></svg> 