<svg id="Logo" xmlns="http://www.w3.org/2000/svg" xmlns:xlink="http://www.w3.org/1999/xlink" width="114" height="40.246" viewBox="0 0 114 40.246">
  <defs>
    <clipPath id="clip-path">
      <rect id="Rectangle_3" data-name="Rectangle 3" width="114" height="40" fill="none"/>
    </clipPath>
  </defs>
  <path id="Path_1" data-name="Path 1" d="M1.294,27.556,0,33.323H106.758l1.2-5.768Z" transform="translate(0 6.923)" fill="#ffd100"/>
  <g id="Group_2" data-name="Group 2">
    <g id="Group_1" data-name="Group 1" clip-path="url(#clip-path)">
      <path id="Path_2" data-name="Path 2" d="M92.151,23.8A2.116,2.116,0,0,1,90.217,25.4h0a1.124,1.124,0,0,1-1.2-1.16,1.451,1.451,0,0,1,.037-.328,2.109,2.109,0,0,1,1.919-1.605,1.13,1.13,0,0,1,1.221,1.165,1.741,1.741,0,0,1-.037.323M91,22.066h-.016a2.35,2.35,0,0,0-2.179,1.8,1.7,1.7,0,0,0-.04.378v0a1.376,1.376,0,0,0,1.447,1.405l.007,0a2.362,2.362,0,0,0,2.179-1.8,2.058,2.058,0,0,0,.037-.371A1.366,1.366,0,0,0,91,22.066" transform="translate(21.565 5.593)" fill="#58595b"/>
      <path id="Path_3" data-name="Path 3" d="M90.828,23.406a.33.33,0,0,1-.351.251H90.1l.107-.5h.368c.19,0,.286.087.252.253m-.164-.588H89.9l-.365,1.717h.379l.117-.555h.3l.246.555h.447l-.292-.615a.708.708,0,0,0,.487-.537c.075-.357-.144-.565-.554-.565" transform="translate(21.752 5.775)" fill="#58595b"/>
      <path id="Path_4" data-name="Path 4" d="M66.576,24.83c-.953-1.025-.383-3.066.1-5.369l1.667-7.824h6.845l1.239-5.824H69.583L70.8,0H64.344L60.115,20c-.638,2.987-.876,5.323.42,7.84,1.207,2.339,5.327,4.573,10.541,3.16l1.153-5.4c-3.536.437-4.958-.022-5.654-.764" transform="translate(14.48 0.246)"/>
      <path id="Path_5" data-name="Path 5" d="M26.021,0l-3.08,14.441H11.616L14.688,0H8.174L1.589,31H8.1l2.275-10.74H21.7L19.421,31h6.455L32.468,0Z" transform="translate(0.386 0.246)"/>
      <path id="Path_6" data-name="Path 6" d="M52.629,6.959c-2.258,1.886-3.542,4.353-4.374,8.25L45.119,29.955h6.458l2.6-12.229c.614-2.86,1.084-4.65,2.16-5.751,1.479-1.511,3.622-1.594,6.194-1.383l1.243-5.824a12.358,12.358,0,0,0-11.149,2.19" transform="translate(10.962 1.29)"/>
      <path id="Path_7" data-name="Path 7" d="M96.7,4.679H76.546L75.31,10.5H87.005L72.378,24.265l-1.19,5.6H91.348l1.243-5.82H80.828l14.7-13.826Z" transform="translate(17.296 1.38)"/>
      <path id="Path_8" data-name="Path 8" d="M43.868,13.918H33.513A6.5,6.5,0,0,1,40.16,9.47a3.771,3.771,0,0,1,3.708,4.447m-4.2-9.612a13.2,13.2,0,0,0-8.1,2.975c-6.609,5.183-9.89,23.131,4.3,23.131a18.362,18.362,0,0,0,10.615-3.306L43.92,22.773c-2.149,1.651-12.97,5.241-11.83-3.523H49.005c0-.017,2.157-7.027-.945-11.265-2.641-3.615-7.5-3.678-8.394-3.678" transform="translate(6.296 1.289)"/>
    </g>
  </g>
</svg>
