<svg xmlns="http://www.w3.org/2000/svg" width="300" height="132" viewBox="0 0 233.2 102.9"><path fill="#FFF" d="M0 0h233.2v102.9H0z"/><path fill="#868685" d="M213.4 46.1c-2.2 0-4 1.7-4 4s1.9 4 4 4l-.8-.8c-1.1-.3-2-1.1-2.3-2.3-.1-.3-.1-.6-.1-.9 0-1.9 1.4-3.3 3.2-3.3s3.2 1.4 3.2 3.3-1.4 3.3-3.2 3.3c-.3 0-.5 0-.8-.1l.8.8c2.2 0 4-1.7 4-4s-1.9-4-4-4"/><path fill="#868685" d="M212.5 49.8v-1.4h.9c.5 0 1 .1 1 .7 0 .7-.5.7-1.1.7h-.8zm1.5.6c.7-.1 1.2-.4 1.2-1.3s-.5-1.3-1.6-1.3h-1.7v4.6h.7v-2h.8l1.2 2h.8l-1.4-2z"/><path fill="#0C80B5" d="M45.5 72.6c0 1.9-1.3 3.1-3.2 3.1s-3.2-1.2-3.2-3.1v-9h-7.8v9c0 1.9-1.4 3.1-3.3 3.1s-3.1-1.2-3.1-3.1V49.3c0-1.9 1.3-3.1 3.2-3.1 1.9 0 3.2 1.2 3.2 3.1v8.6h7.8v-8.6c0-1.9 1.2-3.1 3.1-3.1 1.9 0 3.3 1.2 3.3 3.1v23.3zM87.9 64.4v8.2c0 1.9-1.3 3.1-3.2 3.1-1.9 0-3.2-1.2-3.2-3.1V49.5c0-1.9 1.2-3.1 3.1-3.1H97c1.7 0 2.8 1.2 2.8 2.9s-1.2 2.8-2.8 2.8h-9.1v6.5h7.8c1.7 0 2.8 1.2 2.8 2.9s-1.2 2.8-2.8 2.8l-7.8.1zM116.3 58l5.5-9.8c.7-1.2 1.8-2.1 3.5-2.1 1.9 0 3.1 1.2 3.1 3.2v23.5c0 1.8-1.4 3-3.2 3-1.8 0-3.1-1.2-3.1-3V59.1l-3.1 5.5c-.6 1-1.4 1.6-2.8 1.6s-2.3-.7-2.8-1.6l-3.3-5.7v14c0 1.7-1.3 2.8-3 2.8s-3-1.2-3-2.8V49.3c0-1.9 1.2-3.2 3.1-3.2 1.7 0 2.8.8 3.5 2.1l5.6 9.8zM179.8 72.6c0 1.9-1.2 3.1-3.1 3.1-1.3 0-2.4-.7-3.1-1.8l-8.4-15v14c0 1.7-1.2 2.8-2.9 2.8s-2.9-1.2-2.9-2.8V49.3c0-1.9 1.3-3.1 3.2-3.1 1.4 0 2.4.5 3.3 2l8.1 14.4V49c0-1.7 1.2-2.8 2.9-2.8s3 1.2 3 2.8v23.6h-.1zM206.4 72.6c0 1.9-1.2 3.1-3.1 3.1-1.3 0-2.4-.7-3.1-1.8l-8.4-15v14c0 1.7-1.2 2.8-2.9 2.8s-2.9-1.2-2.9-2.8V49.3c0-1.9 1.3-3.1 3.2-3.1 1.4 0 2.4.5 3.3 2l8.1 14.4V49c0-1.7 1.2-2.8 2.9-2.8s3 1.2 3 2.8v23.6h-.1zM154.8 71.3c-.6-2.3-1.4-4.5-2.1-6.7-1.6-5-3.1-10-4.7-15-.8-2.4-2.2-3.4-4.4-3.4-2 0-3.5 1-4.2 3-.6 1.6-1.1 3.3-1.6 5-1.8 5.8-3.6 11.7-5.4 17.5-.6 1.8.2 3.5 1.6 3.9 1.9.5 3.5-.3 4.1-2.2.2-.7.5-1.5.6-2.3.1-.7 1.8-6.4 1.8-6.4.9-3.4 1.8-6.6 2.7-9.9h.3c.9 3.2 1.8 6.5 2.8 9.9h-1.8c-1.8 0-2.7 1-2.7 2.7s1 2.7 2.7 2.7h1.4c1.9.1 2 .4 2.7 2.8.3 1.1.9 2.2 2.1 2.6 1.2.4 2.3.4 3.2-.5 1.2-1.1 1.3-2.4.9-3.7M63.5 70c-4.9 0-9-4-9-9 0-4.6 3.6-8.5 8.1-8.9V46c-7.9.5-14.1 7-14.1 14.9 0 8.3 6.7 15 15 15 8 0 14.5-6.2 14.9-14.1h-6.1c-.4 4.7-4.2 8.2-8.8 8.2"/><path fill="#868685" d="M71.4 53.7l-2 2.8 1.4 2.8c.2.5.8 1 1.5 1 .9 0 1.6-.7 1.6-1.5 0-.2 0-.4-.1-.7l-2.4-4.4zM76.9 46.1c-.9 0-1.5.6-1.5 1.5v4.1h-1.9c-.8 0-1.3.6-1.3 1.4 0 .8.5 1.3 1.3 1.3h1.9v4.3c0 .9.6 1.5 1.5 1.5s1.5-.6 1.5-1.5V47.6c.1-.9-.6-1.5-1.5-1.5M73.8 47.7c0-.8-.7-1.4-1.5-1.4-.5 0-1 .3-1.2.7l-3.7 5.6v-2.9c-.4.3-1 .5-1.5.5-.6 0-1.1-.2-1.5-.5v9.1c0 .9.6 1.5 1.5 1.5s1.5-.6 1.5-1.5v-1.6l6.1-8.7c.2-.3.3-.5.3-.8"/><path fill="#868685" d="M67.4 47.6c0 .8-.7 1.5-1.5 1.5s-1.5-.7-1.5-1.5.7-1.5 1.5-1.5 1.5.6 1.5 1.5M132.5 25.7c0-.5.3-.8.8-.8h3.6c2.9 0 4.9 1.8 4.9 4.6 0 2.9-2.1 4.7-4.9 4.7h-2.8v4.5c0 .5-.4.8-.8.8-.5 0-.8-.3-.8-.8v-13zm1.7.6v6.4h2.7c2 0 3.3-1.3 3.3-3.2 0-1.9-1.3-3.2-3.3-3.2h-2.7zM152 36.6c-.2 1.9-1.7 3.1-3.9 3.1-2.5 0-4.1-1.5-4.1-4v-3c0-2.6 1.7-4.2 4.1-4.2 2.4 0 4 1.6 4 4.2v.8c0 .5-.3.8-.8.8h-5.7v1.6c0 1.4.9 2.5 2.5 2.5s2.4-.9 2.5-2c.1-.4.3-.6.7-.6.4-.1.7.3.7.8m-6.5-3.7h5v-.5c0-1.6-.9-2.7-2.5-2.7s-2.5 1.2-2.5 2.7v.5zM156.3 30c.6-1 1.6-1.6 2.8-1.6.4 0 .8.3.8.8 0 .4-.3.7-.7.7-1.7 0-2.7 1.1-2.7 2.7v6.1c0 .5-.3.8-.8.8s-.8-.3-.8-.8v-9.5c0-.4.2-.7.7-.7.3 0 .6.1.7.6v.9zM163.9 34.2c-1.3-.4-2.5-1.2-2.5-2.8 0-1.6 1.5-3 3.7-3 2.1 0 3.5 1 3.8 2.5.1.5-.1 1-.7 1-.4 0-.6-.2-.7-.6-.3-.9-.9-1.6-2.3-1.6-1 0-2.2.5-2.2 1.6 0 .7.4 1.2 1.3 1.4l1.8.6c1.6.5 2.9 1.2 2.9 3.1 0 2-1.5 3.3-3.9 3.3-2.2 0-3.8-1.1-4-2.8 0-.4.2-.9.7-.9.4 0 .6.2.7.6.2 1 1 1.8 2.6 1.8 1.5 0 2.3-.8 2.3-1.8 0-.9-.4-1.3-1.4-1.6l-2.1-.8zM179.5 35.4c0 2.6-1.7 4.2-4.1 4.2-2.5 0-4.1-1.6-4.1-4.2v-2.9c0-2.6 1.7-4.2 4.1-4.2 2.5 0 4.1 1.6 4.1 4.2v2.9zm-6.6.2c0 1.5.9 2.7 2.5 2.7s2.5-1.2 2.5-2.7v-3.1c0-1.5-.9-2.7-2.5-2.7s-2.5 1.2-2.5 2.7v3.1zM183.8 29.9c.6-1 1.7-1.5 3-1.5 2.4 0 3.7 1.5 3.7 4v6.4c0 .5-.3.8-.8.8s-.8-.3-.8-.8v-6.4c0-1.4-.8-2.5-2.4-2.5-1.6 0-2.5 1.2-2.5 2.7v6.2c0 .5-.3.8-.8.8s-.8-.3-.8-.8v-9.5c0-.4.2-.7.7-.7.3 0 .6.2.7.6v.7zM200 38.2c-.6.9-1.7 1.5-2.9 1.5-2.3 0-3.7-1.6-3.7-4v-3.3c0-2.4 1.4-4 3.7-4 1.3 0 2.3.6 2.9 1.5l.1-.8c.1-.4.4-.6.7-.6.4 0 .7.3.7.7v9.6c0 .5-.2.7-.7.7-.3 0-.6-.1-.7-.6l-.1-.7zm-.2-2.7v-3.1c0-1.5-1-2.7-2.5-2.7-1.6 0-2.4 1.1-2.4 2.5v3.4c0 1.4.8 2.5 2.4 2.5 1.6.1 2.5-1.1 2.5-2.6M206.4 25.1v13.6c0 .5-.3.8-.8.8s-.8-.3-.8-.8V25.1c0-.5.3-.8.8-.8.4 0 .8.3.8.8"/></svg>