<?xml version="1.0" encoding="UTF-8"?>
<svg xmlns="http://www.w3.org/2000/svg" width="209" height="23" viewBox="0 0 209 23" fill="none">
  <path d="M15.2303 1.035H13.4074C13.334 1.035 13.2612 1.04931 13.1933 1.07712C13.1255 1.10492 13.0638 1.14567 13.0119 1.19704C12.9599 1.24842 12.9187 1.30941 12.8906 1.37653C12.8625 1.44365 12.848 1.51559 12.848 1.58825V9.81541H2.94171V1.58825C2.94171 1.51559 2.92724 1.44365 2.89913 1.37653C2.87102 1.30941 2.82981 1.24842 2.77786 1.19704C2.72591 1.14567 2.66424 1.10492 2.59637 1.07712C2.5285 1.04931 2.45575 1.035 2.38229 1.035H0.559429C0.411059 1.035 0.268766 1.09329 0.163853 1.19704C0.0589396 1.3008 0 1.44152 0 1.58825L0 21.1693C0 21.3161 0.0589396 21.4568 0.163853 21.5605C0.268766 21.6643 0.411059 21.7226 0.559429 21.7226H2.38229C2.53066 21.7226 2.67295 21.6643 2.77786 21.5605C2.88277 21.4568 2.94171 21.3161 2.94171 21.1693V12.6718H12.848V21.1755C12.848 21.2482 12.8625 21.3201 12.8906 21.3873C12.9187 21.4544 12.9599 21.5154 13.0119 21.5667C13.0638 21.6181 13.1255 21.6589 13.1933 21.6867C13.2612 21.7145 13.334 21.7288 13.4074 21.7288H15.2303C15.3787 21.7288 15.5209 21.6705 15.6259 21.5667C15.7308 21.463 15.7897 21.3223 15.7897 21.1755V1.59446C15.7897 1.44773 15.7308 1.30701 15.6259 1.20326C15.5209 1.09951 15.3787 1.04122 15.2303 1.04122" fill="#00594C"></path>
  <path d="M26.0386 19.1895C23.7286 19.1895 21.3934 17.4303 21.3934 14.0673C21.3934 10.7043 23.7286 8.94204 26.0386 8.94204C28.3486 8.94204 30.6554 10.7012 30.6554 14.0673C30.6554 17.4334 28.3329 19.1895 26.0386 19.1895ZM26.0386 6.08569C21.7109 6.08569 18.4517 9.50461 18.4517 14.0673C18.4517 18.63 21.7109 22.021 26.0386 22.021C30.3663 22.021 33.5972 18.602 33.5972 14.0673C33.5972 9.53258 30.3474 6.08569 26.0386 6.08569Z" fill="#00594C"></path>
  <path d="M38.6163 1.035H36.7934C36.6451 1.035 36.5028 1.09329 36.3979 1.19704C36.2929 1.3008 36.234 1.44152 36.234 1.58825V21.1693C36.234 21.3161 36.2929 21.4568 36.3979 21.5605C36.5028 21.6643 36.6451 21.7226 36.7934 21.7226H38.6163C38.7647 21.7226 38.907 21.6643 39.0119 21.5605C39.1168 21.4568 39.1757 21.3161 39.1757 21.1693V1.58825C39.1757 1.44152 39.1168 1.3008 39.0119 1.19704C38.907 1.09329 38.7647 1.035 38.6163 1.035" fill="#00594C"></path>
  <path d="M45.2163 1.035H43.3903C43.2424 1.03582 43.101 1.09448 42.9967 1.19814C42.8925 1.3018 42.834 1.44205 42.834 1.58825V21.1693C42.834 21.3155 42.8925 21.4558 42.9967 21.5594C43.101 21.6631 43.2424 21.7218 43.3903 21.7226H45.2163C45.3646 21.7226 45.5069 21.6643 45.6118 21.5605C45.7168 21.4568 45.7757 21.3161 45.7757 21.1693V1.58825C45.7757 1.44152 45.7168 1.3008 45.6118 1.19704C45.5069 1.09329 45.3646 1.035 45.2163 1.035" fill="#00594C"></path>
  <path d="M73.4486 6.08569C71.8975 6.10302 70.4154 6.72256 69.322 7.81069L69.2183 6.89691C69.2036 6.76171 69.1391 6.63658 69.0371 6.54543C68.935 6.45427 68.8026 6.40347 68.6652 6.40272H67.2572C67.1088 6.40272 66.9665 6.46101 66.8616 6.56476C66.7567 6.66851 66.6977 6.80923 66.6977 6.95596V21.1756C66.6977 21.3223 66.7567 21.463 66.8616 21.5668C66.9665 21.6705 67.1088 21.7288 67.2572 21.7288H69.08C69.2284 21.7288 69.3707 21.6705 69.4756 21.5668C69.5805 21.463 69.6394 21.3223 69.6394 21.1756V12.4729C69.631 12.015 69.7156 11.5601 69.8883 11.1352C70.0611 10.7103 70.3183 10.3241 70.6449 9.99937C70.9714 9.67469 71.3606 9.41819 71.7893 9.2451C72.218 9.07202 72.6776 8.98587 73.1406 8.99177C75.3154 8.99177 76.3746 10.1822 76.3746 12.6314V21.1756C76.3746 21.3223 76.4335 21.463 76.5384 21.5668C76.6433 21.6705 76.7856 21.7288 76.934 21.7288H78.7569C78.9052 21.7288 79.0475 21.6705 79.1524 21.5668C79.2574 21.463 79.3163 21.3223 79.3163 21.1756V11.8108C79.3163 8.44164 76.8994 6.08569 73.436 6.08569" fill="#00594C"></path>
  <path d="M89.1943 19.1895C86.6266 19.1895 84.766 17.0355 84.766 14.0673C84.766 11.0493 86.5857 8.94203 89.1943 8.94203C91.7463 8.94203 93.5943 11.0866 93.5943 14.0393C93.5943 16.992 91.7431 19.1895 89.1943 19.1895V19.1895ZM95.9263 1.035H94.1034C93.9551 1.035 93.8128 1.09329 93.7079 1.19704C93.6029 1.3008 93.544 1.44152 93.544 1.58825V7.80446C92.2973 6.68094 90.6673 6.06479 88.9806 6.07946C85.5234 6.07946 81.8211 8.87676 81.8211 14.0611C81.7733 16.192 82.5514 18.2604 83.996 19.8422C84.6345 20.5198 85.4056 21.062 86.2625 21.436C87.1193 21.81 88.044 22.008 88.9806 22.0178C89.877 22.0272 90.7661 21.8569 91.5942 21.5171C92.4222 21.1774 93.1721 20.6753 93.7986 20.0411L93.9212 21.2284C93.9358 21.3644 94.0007 21.4903 94.1033 21.5821C94.2059 21.6738 94.3391 21.7249 94.4774 21.7257H95.9263C96.0741 21.7257 96.2159 21.6678 96.3208 21.5647C96.4256 21.4617 96.4849 21.3217 96.4857 21.1755V1.59446C96.4857 1.44773 96.4268 1.30701 96.3219 1.20326C96.217 1.09951 96.0747 1.04122 95.9263 1.04122" fill="#00594C"></path>
  <path d="M172.926 6.16027C172.585 6.10196 172.239 6.07697 171.892 6.08567C171.15 6.09297 170.42 6.27256 169.76 6.60996C169.101 6.94736 168.531 7.43315 168.096 8.02824L167.97 6.91243C167.956 6.77617 167.891 6.65012 167.787 6.55919C167.683 6.46826 167.549 6.41907 167.411 6.42135H166.018C165.87 6.42135 165.728 6.47963 165.623 6.58339C165.518 6.68714 165.459 6.82786 165.459 6.97459V21.1755C165.459 21.3223 165.518 21.463 165.623 21.5667C165.728 21.6705 165.87 21.7288 166.018 21.7288H167.829C167.977 21.7288 168.119 21.6705 168.224 21.5667C168.329 21.463 168.388 21.3223 168.388 21.1755V12.5474C168.36 10.409 169.739 8.94202 171.88 8.94202C172.164 8.94208 172.448 8.96599 172.728 9.01351C173.143 9.08189 173.382 8.90162 173.379 8.46648V6.70108C173.379 6.41202 173.325 6.24108 172.914 6.16027" fill="#00594C"></path>
  <path d="M163.218 6.16027C162.876 6.10212 162.528 6.07713 162.181 6.08568C161.441 6.0954 160.714 6.27614 160.057 6.61344C159.401 6.95074 158.833 7.43526 158.4 8.02825L158.274 6.91244C158.26 6.77398 158.193 6.64612 158.087 6.55488C157.98 6.46364 157.843 6.41589 157.702 6.42136H156.307C156.158 6.42136 156.016 6.47964 155.911 6.5834C155.806 6.68715 155.747 6.82787 155.747 6.9746V21.1755C155.747 21.3223 155.806 21.463 155.911 21.5667C156.016 21.6705 156.158 21.7288 156.307 21.7288H158.133C158.281 21.7288 158.424 21.6705 158.528 21.5667C158.633 21.463 158.692 21.3223 158.692 21.1755V12.5474C158.661 10.4091 160.044 8.94203 162.181 8.94203C162.465 8.94191 162.749 8.96582 163.029 9.01352C163.444 9.0819 163.683 8.90163 163.68 8.46649V6.70108C163.68 6.41203 163.627 6.24108 163.218 6.16027Z" fill="#00594C"></path>
  <path d="M176.578 12.5847C177.075 10.4091 178.763 8.91718 180.853 8.91718C182.484 8.91718 184.244 9.89313 184.523 12.5847H176.578ZM180.878 6.08569C176.314 6.08569 173.486 9.67867 173.486 14.145C173.486 18.975 176.427 22.021 181.069 22.021C182.953 22.0762 184.811 21.5822 186.412 20.6006C186.482 20.5513 186.539 20.4853 186.576 20.4087C186.614 20.332 186.631 20.2473 186.626 20.1623V17.881C186.635 17.8087 186.621 17.7356 186.585 17.6721C186.549 17.6086 186.493 17.5581 186.426 17.5279C186.359 17.4977 186.284 17.4895 186.212 17.5044C186.14 17.5192 186.075 17.5564 186.026 17.6106C184.671 18.6337 183.016 19.1934 181.311 19.205C178.558 19.205 176.977 17.7349 176.544 15.3261H186.852C186.995 15.3273 187.132 15.2751 187.237 15.1799C187.342 15.0847 187.407 14.9537 187.418 14.8133C187.446 14.5024 187.475 14.173 187.475 13.8062C187.475 9.96772 185.435 6.09191 180.875 6.09191" fill="#00594C"></path>
  <path d="M197.315 19.1459C196.911 19.2207 196.503 19.2622 196.092 19.2703C194.295 19.2703 193.38 18.3223 193.38 16.4543V9.12852H197.032C197.105 9.12852 197.178 9.11421 197.246 9.0864C197.314 9.0586 197.376 9.01785 197.428 8.96648C197.48 8.9151 197.521 8.85411 197.549 8.78699C197.577 8.71987 197.591 8.64793 197.591 8.57527V6.95595C197.587 6.81248 197.525 6.6765 197.421 6.57675C197.317 6.47699 197.177 6.42127 197.032 6.42135H193.38V3.16717C193.38 3.09451 193.366 3.02257 193.337 2.95545C193.309 2.88833 193.268 2.82734 193.216 2.77596C193.164 2.72459 193.103 2.68384 193.035 2.65604C192.967 2.62823 192.894 2.61392 192.821 2.61392H191.086C191.012 2.61392 190.939 2.62823 190.872 2.65604C190.804 2.68384 190.742 2.72459 190.69 2.77596C190.638 2.82734 190.597 2.88833 190.569 2.95545C190.541 3.02257 190.526 3.09451 190.526 3.16717V6.42135H188.807C188.659 6.42135 188.517 6.47921 188.413 6.5823C188.308 6.68538 188.249 6.8253 188.248 6.97149V8.59081C188.248 8.73754 188.307 8.87826 188.412 8.98202C188.516 9.08577 188.659 9.14406 188.807 9.14406H190.448V16.5072C190.448 19.8546 192.582 22.021 195.888 22.021C196.439 22.0332 196.989 21.9852 197.529 21.878C197.654 21.8539 197.767 21.7867 197.848 21.6884C197.928 21.59 197.971 21.4668 197.969 21.3403V19.6899C197.969 19.2361 197.796 19.0682 197.315 19.1459" fill="#00594C"></path>
  <path d="M208.183 19.1459C207.78 19.2207 207.371 19.2622 206.96 19.2703C205.163 19.2703 204.248 18.3223 204.248 16.4543V9.12852H207.9C207.973 9.12852 208.046 9.11421 208.114 9.0864C208.182 9.0586 208.244 9.01785 208.296 8.96648C208.348 8.9151 208.389 8.85411 208.417 8.78699C208.445 8.71987 208.459 8.64793 208.459 8.57527V6.95595C208.455 6.81248 208.393 6.6765 208.289 6.57675C208.185 6.47699 208.045 6.42127 207.9 6.42135H204.248V3.16717C204.248 3.09451 204.234 3.02257 204.205 2.95545C204.177 2.88833 204.136 2.82734 204.084 2.77596C204.032 2.72459 203.971 2.68384 203.903 2.65604C203.835 2.62823 203.762 2.61392 203.689 2.61392H201.944C201.871 2.61392 201.798 2.62823 201.73 2.65604C201.662 2.68384 201.601 2.72459 201.549 2.77596C201.497 2.82734 201.456 2.88833 201.427 2.95545C201.399 3.02257 201.385 3.09451 201.385 3.16717V6.42135H199.666C199.518 6.42135 199.376 6.47921 199.271 6.5823C199.166 6.68538 199.107 6.8253 199.106 6.97149V8.59081C199.106 8.73754 199.165 8.87826 199.27 8.98202C199.375 9.08577 199.517 9.14406 199.666 9.14406H201.306V16.5072C201.306 19.8546 203.44 22.021 206.747 22.021C207.296 22.0333 207.845 21.9854 208.384 21.878C208.512 21.8564 208.627 21.7903 208.71 21.6916C208.792 21.5929 208.836 21.4683 208.833 21.3403V19.6899C208.833 19.2361 208.664 19.0682 208.183 19.1459Z" fill="#00594C"></path>
  <path d="M129.171 18.8538H123.734V12.6531H129.178C131.353 12.6531 132.471 14.1574 132.471 15.7612C132.471 17.365 131.371 18.8849 129.171 18.8538ZM123.734 3.93487H128.634C130.683 3.93487 131.623 5.33351 131.623 6.79743C131.623 8.26135 130.711 9.70973 128.631 9.70041H123.747L123.734 3.93487ZM132.641 10.9716C134.04 10.0392 134.785 8.17433 134.785 6.64824C134.785 3.30703 132.412 1.05365 128.882 1.05365H121.113C120.994 1.05365 120.881 1.10005 120.796 1.18273C120.712 1.26541 120.665 1.37766 120.664 1.495V21.2874C120.665 21.4048 120.712 21.517 120.796 21.5997C120.881 21.6824 120.994 21.7288 121.113 21.7288H129.074C133.436 21.7288 135.649 19.2423 135.649 15.7737C135.649 13.0945 134.143 11.5528 132.654 10.953" fill="#00594C"></path>
  <path d="M116.141 11.1519C115.757 10.8533 115.312 10.6412 114.837 10.5303C115.217 10.4117 115.574 10.231 115.893 9.99568C116.264 9.72818 116.584 9.3965 116.836 9.01662C117.076 8.63091 117.257 8.21189 117.373 7.77338C117.503 7.34239 117.571 6.89579 117.577 6.44622C117.575 6.02224 117.5 5.60174 117.354 5.20298C117.205 4.79014 116.944 4.42569 116.6 4.14933C116.271 3.86885 115.849 3.71736 115.415 3.72352C115.018 3.72487 114.636 3.87478 114.347 4.14311C114.198 4.27356 114.079 4.43277 113.996 4.61083C113.912 4.78889 113.867 4.98199 113.863 5.17811C113.844 5.5933 113.974 6.00163 114.23 6.33122C114.372 6.48092 114.545 6.59826 114.737 6.67502C114.929 6.75179 115.136 6.78614 115.343 6.77568C115.654 6.78534 115.959 6.68631 116.204 6.49595C116.265 6.43945 116.342 6.40167 116.424 6.38717C116.597 6.38717 116.622 6.57676 116.622 6.69798C116.618 6.93301 116.552 7.16295 116.431 7.36553C116.311 7.5681 116.139 7.73643 115.934 7.85419C115.532 8.12148 115.088 8.32006 114.62 8.44162C114.306 8.52554 113.991 8.59081 113.677 8.65608L113.177 8.75865C112.863 8.82703 112.565 8.92027 112.269 9.0073C112.03 9.07879 111.788 9.14717 111.549 9.21244C111.216 9.28887 110.891 9.39284 110.575 9.52325C110.15 9.70171 109.765 9.96037 109.441 10.2847C109.122 10.6209 108.949 11.0673 108.96 11.528C108.96 12.0284 109.089 12.2801 109.315 12.2801C109.541 12.2801 109.711 12.0968 109.89 11.9134C110.096 11.7097 110.341 11.5496 110.611 11.4427C110.881 11.3358 111.171 11.2845 111.461 11.2918C111.955 11.2832 112.44 11.4206 112.854 11.6865C113.264 11.9659 113.581 12.3597 113.765 12.8178C113.977 13.2562 114.091 13.734 114.101 14.2196C114.091 14.69 114.014 15.1566 113.872 15.6058C113.747 16.0597 113.572 16.4985 113.35 16.9143C113.132 17.3338 112.883 17.7368 112.605 18.1203C112.341 18.4777 111.999 18.8382 111.663 19.1957C111.326 19.5531 110.996 19.8795 110.657 20.2027C110.317 20.5259 110 20.7995 109.61 21.1134C109.323 21.3654 108.972 21.5371 108.595 21.6107C108.207 21.546 107.846 21.3723 107.555 21.1103C107.171 20.7995 106.879 20.5384 106.511 20.1965C106.144 19.8546 105.883 19.5562 105.569 19.2454L105.286 18.8911C105.028 18.6207 104.783 18.3658 104.575 18.1016C104.28 17.7242 104.012 17.3264 103.774 16.9112C103.533 16.5001 103.337 16.0646 103.189 15.612C103.037 15.1619 102.958 14.691 102.954 14.2165C102.952 13.7326 103.053 13.2537 103.252 12.8116C103.449 12.3585 103.777 11.9734 104.195 11.7051C104.605 11.4488 105.084 11.32 105.569 11.3353C105.91 11.3208 106.25 11.3726 106.571 11.4876C106.895 11.5983 107.185 11.7887 107.413 12.0408C107.46 12.1124 107.522 12.1726 107.596 12.2167C107.669 12.2609 107.752 12.2879 107.838 12.2957C108.07 12.2957 108.246 12.0191 108.246 11.6212C108.246 10.9312 107.778 10.3531 107.332 9.88068C107.08 9.61027 106.801 9.33987 106.505 9.05703C106.354 8.91095 106.191 8.76487 106.049 8.61257C105.645 8.24137 105.308 7.80398 105.053 7.3196C104.911 6.99117 104.805 6.64825 104.739 6.29703C104.658 5.94936 104.616 5.59394 104.613 5.23717C104.612 4.74684 104.683 4.25896 104.824 3.78879C104.965 3.33307 105.185 2.90505 105.474 2.52379C105.762 2.14412 106.126 1.82679 106.543 1.59136C106.961 1.35608 107.432 1.23086 107.913 1.22771C108.395 1.21006 108.877 1.27958 109.334 1.43284C109.79 1.60585 110.183 1.91007 110.462 2.30622C110.725 2.72625 110.854 3.21455 110.833 3.70798C110.833 4.3296 110.443 5.04135 109.943 5.04135C109.588 5.04135 109.431 4.51608 109.249 4.30163C109.135 4.16637 108.99 4.06 108.826 3.99135C108.662 3.92269 108.484 3.89374 108.306 3.9069C108.094 3.90468 107.884 3.95396 107.696 4.05041C107.507 4.14686 107.346 4.28754 107.225 4.46014C106.966 4.80402 106.835 5.22549 106.854 5.65365C106.846 5.92709 106.898 6.19895 107.007 6.45056C107.115 6.70218 107.278 6.92761 107.483 7.11135C107.685 7.2989 107.923 7.44448 108.183 7.5395C108.444 7.63452 108.72 7.67705 108.997 7.6646C109.493 7.69298 109.988 7.61393 110.449 7.43299C110.91 7.25205 111.325 6.97361 111.666 6.61717C112 6.26509 112.255 5.848 112.417 5.39257C112.596 4.957 112.689 4.49194 112.693 4.0219C112.704 3.55354 112.625 3.08738 112.461 2.64811C112.295 2.20783 112.031 1.8104 111.688 1.48568C111.333 1.1581 110.92 0.899727 110.468 0.724193C110.037 0.539007 109.584 0.408467 109.12 0.33568C108.652 0.255787 108.178 0.212141 107.703 0.205139C107.222 0.217312 106.743 0.271395 106.273 0.366761C105.797 0.439866 105.332 0.563884 104.883 0.736626C104.436 0.914759 104.014 1.14873 103.626 1.43284C103.238 1.71961 102.893 2.05975 102.602 2.44298C102.014 3.23044 101.692 4.18083 101.681 5.15946C101.682 5.66602 101.771 6.16861 101.945 6.64514C102.122 7.11825 102.385 7.55538 102.721 7.935C103.042 8.32401 103.41 8.67357 103.815 8.97622C104.173 9.22922 104.545 9.46368 104.927 9.67865C104.553 9.64111 104.176 9.64111 103.802 9.67865C103.361 9.72119 102.926 9.82045 102.511 9.97392C102.098 10.1362 101.71 10.3537 101.357 10.6204C100.998 10.8837 100.68 11.1979 100.414 11.5528C100.162 11.9121 99.969 12.3087 99.8423 12.7277C99.6956 13.1407 99.615 13.5738 99.6034 14.0114C99.6063 14.4617 99.6622 14.9103 99.77 15.3478C99.8752 15.7859 100.024 16.2128 100.213 16.6222C100.412 17.0251 100.641 17.4126 100.898 17.7815C101.137 18.1632 101.399 18.5297 101.684 18.8787C101.949 19.1696 102.23 19.4456 102.526 19.7054C102.881 20.0318 103.309 20.3954 103.692 20.6845C104.076 20.9735 104.475 21.247 104.89 21.4988C105.247 21.7259 105.616 21.9334 105.996 22.1204C106.442 22.3224 106.904 22.4654 107.281 22.5959C107.714 22.7525 108.169 22.8386 108.63 22.8508C109.084 22.8303 109.534 22.7476 109.965 22.6053C110.397 22.4715 110.817 22.3053 111.223 22.108C111.626 21.9135 112.016 21.6944 112.392 21.4522C112.774 21.2211 113.142 20.969 113.495 20.6969C113.856 20.4336 114.202 20.1514 114.532 19.8515C114.872 19.508 115.193 19.1469 115.494 18.7699C115.762 18.4624 116.011 18.1385 116.239 17.8001C116.468 17.4183 116.666 17.0192 116.833 16.6066C117.023 16.2072 117.176 15.7909 117.288 15.3634C117.378 14.9268 117.418 14.4816 117.408 14.0362C117.409 13.4946 117.302 12.9581 117.093 12.4573C116.886 11.9541 116.553 11.5113 116.125 11.1705" fill="#93C90E"></path>
  <path d="M144.82 19.1895C142.252 19.1895 140.388 17.0355 140.388 14.0673C140.388 11.0493 142.211 8.94202 144.82 8.94202C147.369 8.94202 149.22 11.0866 149.22 14.0393C149.22 16.992 147.365 19.1895 144.82 19.1895V19.1895ZM151.552 6.42134H149.936C149.798 6.42063 149.664 6.47085 149.562 6.56221C149.459 6.65357 149.394 6.77953 149.38 6.91553L149.286 7.93188C148.036 6.73099 146.358 6.06734 144.615 6.08567C141.158 6.08567 137.459 8.88296 137.459 14.0673C137.459 18.2788 140.347 22.0209 144.615 22.0209C146.356 22.0389 148.034 21.3778 149.286 20.1809L149.396 21.2315C149.41 21.3678 149.474 21.4941 149.577 21.5859C149.68 21.6778 149.813 21.7287 149.952 21.7288H151.567C151.714 21.7255 151.853 21.6658 151.955 21.5624C152.057 21.459 152.114 21.3201 152.114 21.1755V6.95904C152.11 6.81449 152.049 6.67726 151.944 6.57676C151.839 6.47626 151.698 6.42047 151.552 6.42134" fill="#00594C"></path>
  <path d="M55.7794 19.1894C53.2117 19.1894 51.3511 17.0355 51.3511 14.0673C51.3511 11.0493 53.1709 8.94202 55.7794 8.94202C58.3314 8.94202 60.1794 11.0866 60.1794 14.0393C60.1794 16.992 58.3283 19.1894 55.7794 19.1894V19.1894ZM62.5114 6.42134H60.896C60.7609 6.42162 60.6305 6.47024 60.5288 6.55822C60.4271 6.64621 60.3611 6.7676 60.3429 6.89999L60.236 7.93188C58.9874 6.73175 57.3099 6.06816 55.5689 6.08566C52.1117 6.08566 48.4094 8.88296 48.4094 14.0673C48.4094 18.2788 51.2977 22.0209 55.5689 22.0209C57.3079 22.0393 58.9841 21.378 60.2329 20.1809L60.3429 21.2315C60.3575 21.3675 60.4224 21.4934 60.525 21.5851C60.6276 21.6769 60.7608 21.728 60.8991 21.7288H62.5146C62.6629 21.7288 62.8052 21.6705 62.9101 21.5667C63.0151 21.463 63.074 21.3223 63.074 21.1755V6.95904C63.0699 6.81448 63.0087 6.67726 62.9036 6.57676C62.7984 6.47626 62.6577 6.42047 62.5114 6.42134" fill="#00594C"></path>
</svg>
