<?xml version="1.0" encoding="utf-8"?>
<!-- Generator: Adobe Illustrator 15.0.0, SVG Export Plug-In . SVG Version: 6.00 Build 0)  -->
<!DOCTYPE svg PUBLIC "-//W3C//DTD SVG 1.1//EN" "http://www.w3.org/Graphics/SVG/1.1/DTD/svg11.dtd">
<svg version="1.1" id="Calque_1" xmlns="http://www.w3.org/2000/svg" xmlns:xlink="http://www.w3.org/1999/xlink" x="0px" y="0px"
	 width="595.281px" height="81.175px" viewBox="0 380.254 595.281 81.175" enable-background="new 0 380.254 595.281 81.175"
	 xml:space="preserve">
<g id="logo">
	<g>
		<g>
			<g>
				<path fill="#FFFFFF" d="M176.919,402.733l7.077,0.833c3.122,0.416,3.539,3.122,3.539,4.787v8.534h-32.886v-8.534
					c0-1.665,0.417-4.371,3.539-4.787l7.077-0.833v-7.285h-42.877v7.285l7.077,0.833c3.122,0.416,3.539,3.122,3.539,4.787v27.891
					c0,1.665-0.417,4.371-3.539,4.787l-7.077,0.833v7.076h42.877v-7.284l-7.077-0.833c-3.122-0.416-3.539-3.122-3.539-4.787v-8.533
					h33.094v8.533c0,1.665-0.416,4.371-3.538,4.787l-7.285,0.833v7.284h42.877v-7.284l-7.077-0.833
					c-3.122-0.416-3.539-3.122-3.539-4.787v-27.683c0-1.665,0.417-4.371,3.539-4.787l7.077-0.833v-7.285h-42.877V402.733z"/>
				<path fill="#FFFFFF" d="M463.32,395.448h-53.076v7.285l6.244,0.625c2.289,0.208,3.746,1.249,3.746,4.371v28.307
					c0,1.665-0.416,4.371-3.537,4.787l-7.285,0.833v7.284h53.699c19.15,0,34.969-7.701,34.969-26.85
					C498.287,403.149,482.468,395.448,463.32,395.448 M459.365,438.741h-17.9v-33.094h17.9c10.615,0,14.154,4.995,14.154,16.443
					C473.519,433.746,469.98,438.741,459.365,438.741z"/>
				<path fill="#FFFFFF" d="M588.412,441.03c-3.33-0.416-4.371-2.497-5.412-4.162c-24.768-37.882-24.768-37.882-24.768-37.882
					c-1.873-2.706-3.123-3.539-5.621-3.539h-40.795v7.285l9.783,1.041c1.248,0.208,3.33,2.082,1.664,4.579l-18.316,29.764
					c-0.832,1.249-1.664,2.706-3.746,2.914l-7.285,0.833v7.076h34.344v-7.284l-5.828-0.625c-2.498-0.208-3.955-2.081-2.705-4.162
					l2.705-4.371h32.887l2.498,3.746c2.08,3.33-0.625,4.579-2.914,4.787l-6.037,0.625v7.284h46.416v-7.284L588.412,441.03
					 M528.259,423.131l10.199-16.443l10.822,16.443H528.259z"/>
				<path fill="#FFFFFF" d="M371.947,402.733l7.076,0.833c3.121,0.416,3.539,3.122,3.539,4.787v26.851l-28.309-37.466
					c-1.248-1.665-2.289-2.29-5.41-2.29c-1.873,0-36.842,0-36.842,0v7.285l7.076,0.833c3.123,0.416,3.539,3.122,3.539,4.787v27.891
					c0,1.665-0.416,4.371-3.539,4.787l-7.076,0.833v7.076h34.344v-7.284l-7.076-0.833c-3.123-0.416-3.539-3.122-3.539-4.787v-26.642
					l28.307,37.465c1.25,1.665,2.289,2.29,5.412,2.29c0.207,0,0.207,0,0.207,0c1.25,0,6.662,0,25.811,0v-40.796
					c0-1.665,0.416-4.371,3.537-4.787l7.078-0.833v-7.285h-34.344v7.285H371.947z"/>
				<path fill="#FFFFFF" d="M265.795,393.575c-34.968,0-43.917,15.194-43.917,28.723c0,13.321,8.95,28.724,43.917,28.724
					c34.968,0,43.917-15.194,43.917-28.724C309.712,408.769,300.763,393.575,265.795,393.575 M265.795,440.614
					c-13.529,0-19.149-5.62-19.149-18.316s5.62-18.316,19.149-18.316c13.529,0,19.148,5.62,19.148,18.316
					S279.324,440.614,265.795,440.614z"/>
			</g>
			<g>
				<path fill="#FFFFFF" d="M73.057,387.123c-2.29,10.199-3.122,14.986-4.995,22.479c-1.874,7.077-3.123,13.737-5.62,16.859
					c-2.498,3.33-5.62,3.954-7.909,4.163c-1.041,0.208-2.082,0.208-4.371,0.208c-2.498,0-3.33,0-4.371-0.208
					c-2.29-0.209-5.412-1.041-7.91-4.163c-2.498-3.122-3.747-9.783-5.62-16.859c-1.873-7.493-2.706-12.072-4.996-22.479
					c0,0-2.289,0-3.33,0.208c-1.457,0-2.498,0.208-3.538,0.416c0,0,1.249,21.022,1.873,29.972
					c0.625,9.366,1.665,25.186,2.706,37.257c0,0,1.873,0.209,5.203,0.417c3.331,0.208,4.788,0.208,4.788,0.208
					c1.457-5.204,3.122-12.696,4.995-15.61c1.665-2.498,3.955-2.706,5.412-2.914c2.082-0.208,3.955-0.417,4.787-0.417l0,0l0,0l0,0
					l0,0c0.833,0,2.706,0,4.787,0.417c1.457,0.208,3.747,0.416,5.412,2.914c1.873,3.122,3.746,10.406,4.995,15.61
					c0,0,1.457,0,4.787-0.208c3.122-0.208,5.204-0.417,5.204-0.417c1.041-11.863,2.082-27.891,2.706-37.257
					c0.624-8.95,1.873-29.972,1.873-29.972c-1.249-0.208-2.29-0.208-3.539-0.416C75.347,387.123,73.057,387.123,73.057,387.123z"/>
				<path fill="#FFFFFF" d="M99.699,399.611c-1.457-13.321-10.407-16.235-18.108-17.484c-3.955-0.625-11.031-1.249-15.402-1.457
					c-4.163-0.208-13.321-0.416-16.027-0.416c-2.706,0-12.072,0.208-16.027,0.416c-4.579,0.208-11.447,0.833-15.402,1.457
					c-7.909,1.249-16.859,4.163-18.108,17.484C0,403.149,0,407.937,0,413.14c0.208,8.534,0.833,14.153,1.249,18.108
					c0.208,2.706,1.457,10.823,2.914,15.194c2.082,5.828,3.747,7.493,5.828,9.158c3.955,3.122,10.199,4.163,11.656,4.371
					c7.285,1.248,21.855,1.457,28.307,1.457s21.022-0.209,28.307-1.457c1.457-0.208,7.701-1.249,11.656-4.371
					c2.082-1.665,3.955-3.33,6.036-9.158c1.457-4.163,2.498-12.488,2.914-15.194c0.416-3.955,1.249-9.783,1.249-18.108
					C100.115,407.937,100.115,403.149,99.699,399.611 M94.704,422.09c-0.833,10.615-1.665,17.067-3.122,21.854
					c-1.249,3.955-2.706,6.869-4.787,8.742c-3.539,3.33-8.534,3.954-11.448,4.371c-6.244,0.832-16.859,1.249-25.185,1.249
					s-18.94-0.417-25.185-1.249c-2.914-0.417-7.91-1.041-11.448-4.371c-2.082-1.873-3.747-4.787-4.788-8.742
					c-1.457-4.579-2.29-11.031-3.122-21.854c-0.833-6.452-0.624-16.859,0-22.479c1.041-8.326,5.204-12.697,14.154-14.154
					c4.163-0.833,9.782-1.249,14.986-1.457c4.163-0.208,11.24-0.416,15.194-0.416s10.823,0.208,15.194,0.416
					c5.412,0.208,10.823,0.833,14.986,1.457c8.95,1.666,13.113,5.828,14.154,14.154C95.12,405.23,95.328,415.638,94.704,422.09z"/>
			</g>
		</g>
	</g>
</g>
<g id="text_1_">
</g>
</svg>
