<svg width="128" height="72" viewBox="0 0 128 72" fill="none" xmlns="http://www.w3.org/2000/svg">
<path d="M37.5943 27.1089L38.7292 27.3483L38.7865 27.3731C38.8818 27.4149 38.9786 27.4568 39.0754 27.4932C39.7866 27.755 40.3265 28.1013 40.7254 28.5506C40.9702 28.8271 41.3018 29.1099 41.9021 29.1099C59.5038 29.1021 77.1062 29.1013 94.7063 29.1013H103.506C103.6 29.1013 103.693 29.0982 103.787 29.0959L103.898 29.0928H106.593L106.755 28.7892L111.068 20.7467L119.698 4.65179L120.152 3.80432H87.2138L87.0512 4.10798L80.5464 16.2328L77.7747 21.3998H71.8091L80.7966 4.64791L81.2514 3.80045H48.2117L48.049 4.10411L41.4923 16.3312L36.2673 26.0756L35.9048 26.7518L36.6554 26.9106L37.5943 27.1089ZM77.1713 6.24215L69.2055 21.093L68.1861 22.9932L67.7314 23.8407H79.2373L79.3999 23.537L79.7648 22.8569L84.5552 13.9267L88.6764 6.24602H116.075L109.749 18.0416L105.133 26.6503H103.837L103.709 26.6542C103.639 26.6565 103.574 26.6589 103.508 26.6589H96.1812C78.5223 26.6589 60.2691 26.6596 42.305 26.6674C41.6728 26.0399 40.8897 25.5589 39.9206 25.2017C39.8811 25.187 39.8447 25.1708 39.809 25.1553L39.7711 25.1382L39.6371 25.0801L39.5836 25.0577L43.6893 17.4002L49.6719 6.24292H77.1713V6.24215Z" fill="white"/>
<path d="M34.3964 45.0537H40.7424L39.867 44.0916L38.6702 42.7747H63.2096L113.268 42.7739C114.54 42.7739 115.901 42.7236 117.237 42.3556C119.037 41.8606 120.267 40.8536 120.995 39.2779C121.329 38.5552 121.727 37.8355 122.111 37.1391C122.27 36.8525 122.428 36.5659 122.583 36.2777C122.724 36.0159 122.869 35.7556 123.013 35.4953C123.261 35.0507 123.517 34.5905 123.753 34.1242C124.458 32.7221 124.062 31.1596 122.789 30.3245C122.451 30.1022 122.037 29.9139 121.558 29.7637C120.467 29.4228 119.352 29.3942 118.393 29.3942L64.298 29.3934H41.0375C40.2621 28.1036 38.9576 27.6783 38.014 27.4699C36.6708 27.1732 35.343 27.1337 34.3368 27.133C30.0049 27.126 25.6715 27.126 21.3397 27.126H15.6839L15.5213 27.4296L11.0213 35.823L6.5477 44.1691L6.09375 45.0166H21.3815L21.5442 44.7121L22.3769 43.1527L22.5148 42.8948L22.6922 43.0892C23.1593 43.6005 23.6264 44.1118 24.0881 44.6292C24.3507 44.9228 24.6544 45.0592 25.0441 45.0592C28.162 45.0545 31.2792 45.0537 34.3964 45.0537ZM10.1715 42.5756L17.1449 29.5685H21.3404C25.3539 29.5685 29.9019 29.5685 34.3337 29.5754C35.2191 29.577 36.378 29.6103 37.4881 29.8559C38.4936 30.0782 38.8243 30.3842 39.011 30.7754L39.3619 31.5097L39.5184 31.8374H64.2995L118.394 31.8382C119.174 31.8382 120.068 31.8583 120.831 32.0969C121.088 32.1775 121.302 32.2712 121.449 32.368C121.545 32.43 121.792 32.5927 121.573 33.0273C121.352 33.4587 121.122 33.8856 120.883 34.3078C120.732 34.5789 120.581 34.85 120.434 35.1227C120.297 35.3783 120.157 35.6317 120.016 35.8857L119.975 35.9609C119.567 36.6999 119.15 37.456 118.78 38.2554C118.36 39.1641 117.685 39.7032 116.591 40.0038C115.533 40.2943 114.368 40.3346 113.268 40.3346L63.2096 40.3353H33.1523L34.0277 41.2975L35.2253 42.6144H34.3972C31.4535 42.6144 28.5075 42.6151 25.5638 42.619C25.2199 42.2371 24.8729 41.8575 24.5343 41.4865L24.4886 41.4361L24.0471 40.9527C23.978 40.8773 23.9078 40.8029 23.8364 40.7296L23.7388 40.6274L22.5078 39.3337L21.9555 38.7558L21.5806 39.4584L20.7393 41.0348L20.3349 41.7917L19.9166 42.5749L10.1715 42.5756Z" fill="white"/>
<path d="M99.0959 43.0784H95.792L95.7045 43.0652C95.5922 43.0474 95.4659 43.0273 95.3234 43.0273C85.2847 43.0249 75.2452 43.0249 65.2065 43.0249H40.3262L40.1767 43.3735L40.155 43.4247L40.1356 43.4696L39.99 43.8089L40.2379 44.0823L41.3882 45.3504H36.9812L29.6709 45.3512C29.4284 45.3512 29.1852 45.3535 28.9419 45.3566L28.6344 45.3597H25.9262L25.7635 45.6634L24.0864 48.7914L14.0345 67.5365L13.5806 68.3839H46.6195L46.7821 68.0803L50.626 60.9085L56.3398 50.2493H62.3085L58.4864 57.3792L53.0475 67.5264L52.5936 68.3739H85.5318L85.6944 68.0702L98.6412 43.9251L99.0959 43.0784ZM56.6713 65.9329L59.8792 59.948L64.9129 50.5561L65.9315 48.6559L66.3855 47.8084H54.878L54.7153 48.1113L54.3505 48.7914L50.3742 56.2095L45.1569 65.9415H17.6591L27.388 47.7991H28.6413L28.9899 47.7952L29.1286 47.7937C29.3099 47.7914 29.4911 47.7898 29.6732 47.7898L36.9828 47.789H46.9007L46.0276 46.8269L44.7905 45.4628H65.2057C75.1507 45.4628 85.0964 45.4628 95.0429 45.4651L92.0559 51.0372L84.07 65.9314H56.6713V65.9329Z" fill="white"/>
<path d="M126.304 30.3307C125.574 28.7876 124.274 27.7186 122.442 27.1531C121.01 26.7115 119.598 26.6542 118.527 26.6534H111.739L117.56 15.727L124.171 3.31473L125.182 1.41761L125.632 0.571686H85.3939L85.3931 0.57246H46.2794L46.1167 0.875349L45.7511 1.55704L33.6719 24.0831L33.5046 24.3953H14.0353L13.8726 24.699L13.5077 25.3791L3.62706 43.8089L2.97945 45.0165L1.96078 46.9168L1.50684 47.7642H20.9762L15.8201 57.3792L9.66702 68.8549L8.64835 70.7543L8.19363 71.601H47.1493L48.1633 71.6049H87.7968L87.9595 71.3005L88.3236 70.6172L94.2543 59.4832L100.336 48.0648H104.776L104.942 47.7743L106.227 45.5193H107.935L113.304 45.5201C114.716 45.5201 116.384 45.455 118.045 44.9739C120.616 44.2295 122.442 42.7073 123.473 40.4492C123.713 39.9224 124.008 39.3903 124.293 38.8751C124.408 38.666 124.522 38.4622 124.632 38.2562C124.836 37.8789 125.042 37.5048 125.248 37.1298C125.535 36.6093 125.831 36.0716 126.117 35.5333C127.033 33.8081 127.098 32.0086 126.304 30.3307ZM51.279 69.164L60.5376 51.8877L60.9916 51.0402H56.8069L56.6442 51.3439L54.617 55.1258L47.0943 69.1586H12.2722L16.3685 61.5182L24.586 46.1925L24.7781 45.8346L24.5047 45.534L24.1584 45.1529L23.1297 44.0203L22.5836 43.4192L22.1978 44.1342L21.8027 44.8663L21.5579 45.3202H5.5846L11.5293 34.2318L15.4947 26.8339H34.9633L35.1259 26.5303L43.6425 10.6491L47.7381 3.01261H82.5648L78.5893 10.4229L73.5804 19.7598L73.1257 20.6073H77.3057L77.4684 20.3036L82.922 10.1402L86.748 3.01029H121.565L108.122 28.2461L107.671 29.092H118.526C119.423 29.092 120.596 29.1362 121.721 29.4832C122.889 29.8434 123.666 30.4608 124.096 31.3718C124.559 32.3541 124.515 33.341 123.959 34.3883C123.677 34.9161 123.391 35.4416 123.101 35.9647C122.893 36.3412 122.686 36.7177 122.482 37.095C122.373 37.2979 122.261 37.4993 122.15 37.7015C121.841 38.26 121.522 38.8372 121.249 39.4352C120.517 41.0387 119.245 42.0829 117.362 42.6275C115.998 43.0226 114.61 43.0776 113.313 43.0776L107.931 43.0768H100.222L100.06 43.382L94.4581 53.8972L86.3266 69.1632L51.279 69.164Z" fill="white"/>
<path d="M49.2408 70.3856L58.9533 52.2619H57.5396L47.8263 70.381H10.234L23.2969 46.019L22.8406 45.5162L22.286 46.5418H3.54639L14.7657 25.6146H34.2342L47.009 1.79409H84.6059L75.1668 19.3888H76.5767L86.0189 1.79254H123.6L109.705 27.8743H118.527C119.511 27.8743 120.802 27.9246 122.082 28.3189C123.595 28.7853 124.615 29.6142 125.201 30.852C125.832 32.1868 125.778 33.5688 125.039 34.96C124.758 35.4899 124.468 36.0159 124.178 36.5411C123.971 36.9183 123.762 37.2956 123.558 37.6752C123.448 37.8781 123.335 38.0819 123.223 38.2841C122.911 38.8496 122.616 39.3833 122.361 39.941C121.473 41.887 119.95 43.1489 117.704 43.7996C116.189 44.238 114.635 44.2977 113.315 44.2977L100.957 44.2969L87.0624 70.3833H49.2408V70.3856ZM45.8881 67.1638L55.6084 49.03H64.3465L54.6308 67.1538H84.7996L97.0546 44.2985H95.7121L95.6726 44.293C95.6199 44.2861 95.5665 44.2775 95.513 44.269C95.4499 44.2567 95.3859 44.249 95.3217 44.2458C84.8368 44.2435 74.3519 44.2435 63.8662 44.2435H42.0342L44.1443 46.5697L29.6707 46.5705C29.4399 46.5705 29.2098 46.5728 28.979 46.5759L28.6443 46.5798H26.655L15.6186 67.1638H45.8881ZM25.043 43.8399C28.1625 43.8352 31.2836 43.8344 34.4023 43.8344H37.9812L35.909 41.5554L113.266 41.5546C114.453 41.5546 115.717 41.5089 116.912 41.1805C118.364 40.7808 119.31 40.0146 119.885 38.7674C120.238 38.006 120.646 37.2669 121.04 36.5519C121.197 36.2692 121.353 35.9857 121.506 35.7014C121.651 35.4326 121.799 35.1669 121.946 34.9012C122.187 34.4673 122.437 34.0204 122.661 33.5765C123.092 32.7213 122.878 31.8459 122.118 31.3471C121.83 31.1671 121.519 31.0272 121.193 30.9311C120.267 30.6421 119.262 30.6173 118.392 30.6173L40.2873 30.615L40.1115 30.2486C39.7133 29.4151 39.0068 28.9418 37.7504 28.6637C36.5249 28.3925 35.2808 28.3569 34.3341 28.3553C29.9225 28.3484 25.5109 28.3484 21.0992 28.3484L16.4134 28.3476L8.13232 43.7957H20.6491L22.2364 40.8218L22.9522 41.5725C23.0219 41.6453 23.0831 41.7088 23.1435 41.7739L23.5859 42.2588C24.0592 42.7755 24.5317 43.2937 24.998 43.8166L25.019 43.8383H25.0228C25.0295 43.8394 25.0362 43.8399 25.043 43.8399ZM39.0983 26.1786L39.2818 26.2576C39.3531 26.2894 39.4244 26.3203 39.4972 26.3475C40.4035 26.6813 41.1038 27.1368 41.6391 27.7403C41.7708 27.889 41.8018 27.889 41.9025 27.889C59.9124 27.8813 77.9222 27.8805 95.9313 27.8805H103.508C103.589 27.8805 103.669 27.8782 103.749 27.8751L103.87 27.8712H105.864L118.115 5.02516H87.9462L78.5079 22.6198H69.7706L79.2105 5.02051H48.941L37.7488 25.8943L39.0983 26.1786Z" fill="#010101"/>
<path d="M103.886 28.5173C103.76 28.5203 103.634 28.5258 103.508 28.5258C82.9734 28.5265 62.4381 28.525 41.9037 28.5343C41.5644 28.5343 41.3715 28.4111 41.1561 28.1687C40.6464 27.5946 39.9934 27.2182 39.2745 26.9532C39.149 26.9075 39.0274 26.8494 38.9042 26.7975C38.9275 26.758 38.9507 26.7201 38.9724 26.6798C42.5319 20.0379 46.0907 13.3968 49.6487 6.75419C49.7509 6.56285 49.8508 6.44278 50.1119 6.44278C58.9088 6.45207 67.705 6.45052 76.5019 6.4513C76.5856 6.4513 76.6685 6.46834 76.7855 6.48151L67.3347 24.0963H79.3465C79.4131 23.9793 79.4844 23.8639 79.5487 23.7431L83.0137 17.2833C84.8945 13.7772 86.7785 10.2742 88.6539 6.76503C88.7763 6.53573 88.9034 6.42651 89.1784 6.44278C89.647 6.46989 90.118 6.45052 90.5882 6.45052H115.692C115.598 6.64186 115.542 6.76348 115.479 6.882C112.949 11.5989 110.416 16.3157 107.887 21.0333C106.551 23.5262 105.219 26.0221 103.886 28.5173ZM28.6409 45.9337C28.9848 45.9306 29.3288 45.9252 29.6727 45.9252L42.2995 45.9244H42.6892L40.6658 43.6942L40.7061 43.5982H60.2986C71.9733 43.5982 83.6481 43.5982 95.3237 43.6005C95.467 43.6005 95.6103 43.6346 95.7544 43.6516L83.9332 65.7044H57.0543L66.7607 47.5961H54.7319L45.0232 65.7029H18.0537C18.1103 65.5921 18.1498 65.5138 18.1908 65.4372C20.1786 61.7312 22.1671 58.0253 24.1533 54.3186C25.6499 51.5267 27.145 48.7302 28.6409 45.9337Z" fill="#7A0026"/>
<path d="M37.3688 42.2007L39.441 44.4797H39.0832C34.4035 44.4797 29.7246 44.4782 25.0449 44.4852C24.9445 44.4899 24.8443 44.4709 24.7526 44.4295C24.6609 44.3882 24.5803 44.3258 24.5174 44.2473C23.9069 43.5625 23.2857 42.8878 22.6667 42.21C22.5838 42.1194 22.4979 42.0318 22.3863 41.9149L21.0369 44.4426H7.05518L16.0287 27.7039H16.3417C22.3398 27.7054 28.338 27.7016 34.3369 27.7116C35.5291 27.7132 36.7197 27.7767 37.891 28.0354C39.087 28.2996 40.1282 28.7861 40.6944 29.9721H41.1158L118.394 29.9728C119.404 29.9728 120.415 30.0123 121.388 30.316C121.765 30.4345 122.145 30.5926 122.474 30.8087C123.509 31.4865 123.815 32.7259 123.239 33.8678C122.874 34.5929 122.461 35.2931 122.077 36.0081C121.536 37.0144 120.951 38.0029 120.473 39.0394C119.784 40.529 118.621 41.3811 117.084 41.8041C115.834 42.148 114.552 42.2015 113.267 42.2015H37.8453L37.3688 42.2007ZM16.9808 29.2842L9.7161 42.8321H20.0918L22.0369 39.1997C22.1338 39.2834 22.1795 39.3159 22.2174 39.357C23.2191 40.4593 24.223 41.5616 25.22 42.6686C25.3579 42.822 25.4965 42.9041 25.7181 42.9041C28.998 42.8963 32.2786 42.8987 35.5585 42.8979C35.6298 42.8979 35.701 42.884 35.8281 42.8708L32.3049 38.9983L33.0494 38.8387C34.8086 38.4584 36.1395 37.5001 36.9986 35.9082C37.591 34.8089 38.1797 33.7076 38.7648 32.6043C38.9197 32.3115 39.0808 32.0179 39.1994 31.7096C39.5154 30.8846 39.2505 30.2494 38.4503 29.8721C38.2837 29.7967 38.1118 29.7338 37.9359 29.6839C36.7801 29.3446 35.5848 29.2981 34.3981 29.2942C28.6982 29.2741 22.9975 29.2842 17.2976 29.2834L16.9808 29.2842ZM69.7346 31.5516L64.8814 40.6018C65.0557 40.6103 65.1649 40.6196 65.2757 40.6196C68.853 40.6204 72.4288 40.6336 76.0061 40.6111C76.9209 40.6002 77.8343 40.5352 78.7414 40.4167C80.1513 40.2416 81.2196 39.5452 81.861 38.2345C82.208 37.5257 82.6108 36.844 82.9834 36.1468C83.4916 35.1979 84.0091 34.2536 84.4925 33.2922C84.8116 32.657 84.6094 32.1821 83.9579 31.904C83.8743 31.8676 83.786 31.8421 83.6984 31.8165C82.9532 31.6027 82.1848 31.5601 81.421 31.5578C77.6267 31.5438 73.8317 31.55 70.0375 31.5493C69.9445 31.5516 69.8546 31.5516 69.7346 31.5516ZM52.8464 31.5516C51.2336 34.5634 49.6169 37.5567 47.9893 40.6204H48.3921C51.9827 40.6204 55.5716 40.6336 59.1621 40.6111C60.0662 40.6012 60.9688 40.5358 61.8649 40.4151C63.229 40.2377 64.2787 39.5777 64.931 38.3135C65.7079 36.8068 66.5337 35.3257 67.3331 33.8306C67.4617 33.5897 67.5919 33.3433 67.6786 33.0854C67.8514 32.5726 67.6763 32.1821 67.1844 31.9583C66.9877 31.8684 66.7777 31.7847 66.567 31.7592C65.8869 31.6755 65.2029 31.5655 64.5204 31.5616C60.7238 31.5423 56.928 31.5508 53.1315 31.55C53.0393 31.5516 52.9486 31.5516 52.8464 31.5516ZM114.35 34.2783H121.216C121.394 33.9576 121.57 33.6501 121.735 33.3371C122.104 32.64 121.954 32.2224 121.229 31.9265C121.123 31.8839 121.015 31.8359 120.903 31.8212C120.213 31.7274 119.522 31.5748 118.83 31.5678C116.055 31.5407 113.279 31.54 110.504 31.5655C109.762 31.5717 109.019 31.6569 108.284 31.7615C107.538 31.8684 106.864 32.1589 106.462 32.853C106.171 33.3588 105.905 33.8794 105.644 34.4023C105.458 34.7718 105.513 35.0716 105.859 35.3024C106.178 35.5147 106.532 35.7099 106.898 35.8091C108.036 36.1143 109.185 36.3699 110.33 36.6441C110.931 36.7882 111.535 36.9176 112.13 37.0787C112.582 37.2019 112.639 37.387 112.441 37.8177C112.12 38.518 111.464 38.635 110.89 38.549C110.582 38.5033 110.499 38.3228 110.628 38.0253C110.726 37.7991 110.847 37.5822 110.971 37.3359H104.01C103.705 37.9208 103.388 38.4909 103.105 39.0789C102.914 39.4747 103.028 39.8341 103.398 40.0619C103.609 40.1913 103.849 40.2858 104.087 40.3586C104.93 40.6165 105.809 40.6096 106.675 40.6135C109.322 40.6243 111.972 40.6073 114.619 40.56C115.288 40.5476 115.963 40.4237 116.616 40.2711C117.383 40.0921 118.132 39.7884 118.579 39.0998C118.982 38.4793 119.308 37.8022 119.611 37.1252C119.79 36.7231 119.605 36.3203 119.214 36.0957C118.996 35.9711 118.762 35.8767 118.518 35.8153C116.855 35.3969 115.188 34.9918 113.523 34.582C113.357 34.5417 113.181 34.5154 113.031 34.4395C112.9 34.3736 112.715 34.2512 112.708 34.1451C112.701 34.0312 112.852 33.8608 112.976 33.7973C113.197 33.6857 113.444 33.6075 113.689 33.568C114.25 33.4743 114.465 33.7059 114.35 34.2783ZM94.7372 31.5632L89.8918 40.6018H101.058L102.145 38.5506H97.9001L98.7422 36.985H102.978L104.104 34.9112H99.8523L100.55 33.6083H104.804L105.896 31.5632H94.7372ZM48.7438 36.9819L49.8702 34.9058H45.6173L46.3114 33.6145H50.5658L51.6588 31.5616H40.5039L35.6545 40.6034H46.8173C47.1721 39.9372 47.523 39.2756 47.9119 38.5428H43.666L44.5049 36.9819H48.7438ZM86.6351 31.5632L81.7967 40.5879C81.9268 40.6049 81.9911 40.6204 82.0554 40.6204C84.1872 40.622 86.3183 40.6196 88.4502 40.6251C88.6368 40.6258 88.7406 40.5561 88.8251 40.3934C89.1752 39.7234 89.5362 39.0603 89.8933 38.3948C90.8353 36.6403 91.7788 34.8857 92.72 33.1311C92.9943 32.6198 93.2631 32.1062 93.5497 31.5647C91.2242 31.5632 88.9467 31.5632 86.6351 31.5632ZM28.6408 45.9338C27.145 48.7295 25.6507 51.5252 24.1533 54.3201C22.1671 58.0268 20.1778 61.7328 18.1908 65.4387C18.1497 65.5154 18.111 65.5936 18.0537 65.7044H45.0232L54.7319 47.5977H66.7607L57.0543 65.706H83.9332L95.7543 43.6532H98.1348L85.1881 67.7983H53.5552L63.2701 49.6738H55.9961L46.2758 67.8076H14.543L26.272 45.9338H28.6408ZM103.886 28.5173C105.22 26.0229 106.551 23.5262 107.888 21.0334C110.417 16.3157 112.949 11.5989 115.48 6.88202C115.543 6.7635 115.599 6.64265 115.693 6.45054H90.5882C90.118 6.45054 89.647 6.4699 89.1783 6.44279C88.9033 6.42652 88.7763 6.53652 88.6539 6.76504C86.7792 10.2742 84.8953 13.778 83.0136 17.2833L79.5486 23.7431C79.4843 23.8624 79.4138 23.9794 79.3464 24.0963H67.3347L76.7854 6.48152C76.6677 6.46835 76.5856 6.45131 76.5019 6.45131C67.7042 6.44976 58.908 6.45131 50.1111 6.44201C49.85 6.44201 49.7509 6.56209 49.6479 6.75343C46.0903 13.3959 42.5316 20.0378 38.9716 26.679C38.9499 26.7185 38.9267 26.7573 38.9034 26.7968L36.7731 26.3475L48.5548 4.37524H80.2884L70.8485 21.9746H78.1202L87.5585 4.37989H119.191L106.249 28.5165L103.886 28.5173Z" fill="#FEFEFE"/>
<path d="M16.9806 29.2842H17.2951C22.9958 29.2849 28.6956 29.2749 34.3955 29.295C35.5831 29.2989 36.7784 29.3454 37.9334 29.6847C38.1084 29.7358 38.2835 29.7954 38.4477 29.8729C39.248 30.2502 39.5129 30.8854 39.1968 31.7104C39.0783 32.0187 38.9187 32.3123 38.763 32.6051C38.1781 33.7084 37.5894 34.8097 36.9968 35.909C36.1385 37.5009 34.8069 38.4591 33.0476 38.8395L32.3032 38.9991L35.8263 42.8715C35.7 42.8847 35.6288 42.8987 35.5567 42.8987C32.2769 42.8994 28.9962 42.8971 25.7163 42.9049C25.4956 42.9056 25.3569 42.8235 25.2182 42.6694C24.2213 41.5624 23.2173 40.4608 22.2157 39.3577C22.1777 39.3174 22.132 39.2841 22.0352 39.2005C21.3767 40.4283 20.7322 41.6313 20.09 42.8328H9.71436L16.9806 29.2842ZM23.6821 36.1375C24.3406 36.1375 24.9556 36.1685 25.5668 36.129C26.1842 36.0895 26.6746 35.7858 26.9775 35.2273C27.316 34.6045 27.6545 33.9824 27.9806 33.3526C28.2394 32.8522 28.0891 32.5238 27.5236 32.4509C26.9271 32.3735 26.3198 32.3673 25.714 32.3301C25.0246 33.6191 24.3607 34.8655 23.6821 36.1375ZM69.7344 31.5516H70.0357C73.8299 31.5523 77.625 31.5461 81.4192 31.5601C82.1838 31.5632 82.953 31.6042 83.6967 31.8188C83.7842 31.8444 83.8725 31.8699 83.9562 31.9064C84.6077 32.1845 84.8099 32.6593 84.4907 33.2945C84.0073 34.2559 83.4891 35.2002 82.9817 36.1491C82.6091 36.8455 82.2063 37.528 81.8592 38.2368C81.2178 39.5467 80.1503 40.2447 78.7397 40.419C77.8325 40.5375 76.9192 40.6025 76.0044 40.6134C72.4278 40.6351 68.8513 40.6227 65.2739 40.622C65.1639 40.622 65.0539 40.6119 64.8796 40.6041L69.7344 31.5516ZM72.9166 38.5242C73.2923 38.5242 73.596 38.5227 73.8997 38.5242C74.4993 38.5273 74.8796 38.2136 75.1259 37.6922C75.2476 37.4335 75.394 37.1864 75.528 36.9346C76.0029 36.0461 76.4831 35.1607 76.9502 34.269C77.14 33.9081 77.0603 33.7307 76.6567 33.6695C76.2988 33.6145 75.9308 33.6207 75.5636 33.599C74.6806 35.2404 73.7983 36.8821 72.9166 38.5242ZM52.8462 31.5516H53.1289C56.9255 31.5523 60.7221 31.543 64.5179 31.5632C65.2003 31.5671 65.8844 31.6771 66.5645 31.7607C66.7752 31.7871 66.9859 31.8715 67.1819 31.9598C67.6738 32.1837 67.8489 32.5733 67.6761 33.0869C67.5894 33.3449 67.46 33.5904 67.3306 33.8321C66.5304 35.3272 65.7062 36.8084 64.9284 38.315C64.2762 39.5793 63.2265 40.2401 61.8624 40.4167C60.9663 40.5377 60.0637 40.6032 59.1596 40.6127C55.5699 40.6344 51.9801 40.622 48.3896 40.622H47.9868C49.6174 37.5567 51.2334 34.5634 52.8462 31.5516ZM55.999 38.5707C56.4042 38.549 56.7218 38.5196 57.0394 38.5196C57.632 38.5196 57.9953 38.205 58.2347 37.6969C58.3222 37.5102 58.426 37.332 58.5228 37.15C59.0364 36.1917 59.5554 35.235 60.0636 34.2737C60.2542 33.9143 60.1783 33.7338 59.7731 33.6671C59.416 33.609 59.0465 33.6199 58.6723 33.599L55.999 38.5707ZM114.35 34.2783C114.464 33.7059 114.25 33.4742 113.693 33.5649C113.445 33.605 113.205 33.6823 112.98 33.7942C112.856 33.8569 112.705 34.0281 112.712 34.142C112.719 34.2489 112.903 34.3697 113.034 34.4364C113.184 34.5123 113.36 34.5386 113.527 34.5789C115.192 34.9895 116.859 35.3946 118.522 35.8121C118.763 35.8726 119.003 35.9686 119.218 36.0926C119.609 36.3172 119.794 36.7208 119.614 37.1221C119.312 37.7991 118.985 38.4762 118.582 39.0967C118.135 39.7846 117.386 40.089 116.62 40.2679C115.966 40.4206 115.292 40.5445 114.623 40.5569C111.975 40.6041 109.326 40.6212 106.678 40.6103C105.813 40.6065 104.934 40.6134 104.09 40.3555C103.849 40.2859 103.618 40.1862 103.402 40.0588C103.031 39.8318 102.919 39.4716 103.109 39.0758C103.391 38.4878 103.707 37.9177 104.013 37.3328H110.975C110.851 37.5791 110.73 37.796 110.631 38.0222C110.503 38.3197 110.586 38.5002 110.894 38.5459C111.468 38.6311 112.124 38.5149 112.445 37.8146C112.642 37.3831 112.586 37.1988 112.133 37.0756C111.538 36.9137 110.933 36.7843 110.334 36.641C109.189 36.366 108.039 36.1112 106.902 35.806C106.536 35.7076 106.182 35.5124 105.863 35.2993C105.516 35.0685 105.463 34.7702 105.647 34.3992C105.908 33.8771 106.174 33.3557 106.466 32.8499C106.867 32.1558 107.541 31.8645 108.288 31.7584C109.023 31.6538 109.767 31.5686 110.507 31.5624C113.283 31.5399 116.059 31.5361 118.834 31.5647C119.525 31.5717 120.216 31.7251 120.906 31.818C121.018 31.8335 121.126 31.88 121.232 31.9234C121.957 32.2193 122.108 32.6376 121.738 33.334C121.573 33.647 121.397 33.9545 121.22 34.2752C118.93 34.2783 116.653 34.2783 114.35 34.2783ZM94.737 31.5632H105.896L104.804 33.6083H100.55L99.8521 34.9112H104.104L102.978 36.985H98.742L97.8999 38.5505H102.145L101.057 40.6018H89.8916C91.5153 37.5714 93.1211 34.5774 94.737 31.5632Z" fill="#949699"/>
<path d="M48.7435 36.9819H44.5062L43.6672 38.5428H47.9131C47.5242 39.2756 47.1717 39.9364 46.8185 40.6034H35.6558L40.5051 31.5616H51.6601L50.567 33.6145H46.3126L45.6186 34.9058H49.8714C49.474 35.6348 49.1107 36.3041 48.7435 36.9819ZM86.6348 31.5632H93.5501C93.2635 32.1047 92.9947 32.619 92.7205 33.1295C91.7793 34.8849 90.8357 36.6395 89.8938 38.3933C89.5367 39.0595 89.1749 39.7226 88.8255 40.3919C88.7403 40.5546 88.6365 40.6235 88.4506 40.6235C86.3188 40.6181 84.1877 40.6204 82.0558 40.6189C81.9923 40.6189 81.928 40.6034 81.7971 40.5863L86.6348 31.5632Z" fill="#949699"/>
<path d="M23.6821 36.1375L25.7125 32.3301C26.319 32.368 26.9256 32.3735 27.5221 32.4509C28.0876 32.5237 28.2386 32.853 27.9791 33.3526C27.653 33.9816 27.3137 34.6045 26.9759 35.2273C26.6731 35.7858 26.1827 36.0895 25.5653 36.129C24.9557 36.1685 24.3398 36.1375 23.6821 36.1375ZM72.9167 38.5242L75.5621 33.5974C75.9301 33.6191 76.2972 33.6129 76.6551 33.6679C77.0587 33.7299 77.1385 33.9065 76.9487 34.2675C76.4816 35.1599 76.0013 36.0445 75.5265 36.9331C75.3917 37.1856 75.2468 37.4335 75.1244 37.6907C74.8773 38.2128 74.4977 38.5257 73.8981 38.5226L72.9167 38.5242ZM55.9991 38.5707L58.6724 33.599C59.0465 33.6199 59.416 33.609 59.7732 33.6671C60.1791 33.7337 60.255 33.9142 60.0636 34.2737C59.5547 35.235 59.0365 36.1917 58.5229 37.15C58.4253 37.332 58.3222 37.5102 58.2347 37.6969C57.9953 38.2058 57.6328 38.5195 57.0394 38.5195C56.7218 38.5188 56.4042 38.549 55.9991 38.5707Z" fill="#FEFEFE"/>
<path d="M102.788 45.5224L102.685 45.7044H102.146L101.379 47.0485H101.159L101.926 45.7044H101.387L101.491 45.5224H102.788ZM103.068 45.5224H103.378L103.101 46.813L104.294 45.5224H104.6L103.729 47.0485H103.524L104.037 46.1475C104.055 46.1158 104.085 46.0647 104.128 45.9926C104.171 45.9206 104.215 45.8431 104.262 45.761L103.071 47.0477H102.857L103.133 45.761L103.105 45.8075L103.011 45.9787C102.98 46.0353 102.949 46.0916 102.917 46.1475L102.404 47.0485H102.197L103.068 45.5224Z" fill="black"/>
</svg>
