<?xml version="1.0" encoding="UTF-8"?> <svg xmlns="http://www.w3.org/2000/svg" width="154" height="22" viewBox="0 0 154 22" fill="none"><g id="Ebene_1" clip-path="url(#clip0_429_1600)"><path id="Vector" d="M59.1476 3.10352V9.11839H52.5847V3.10352H48.9609V18.8912H52.5847V12.5434H59.1476V18.8912H62.7658V3.10352H62.5866H59.1476Z" fill="white"></path><path id="Vector_2" d="M76.033 3.10352L72.2463 9.35537L68.4651 3.10352H64.1948L70.4426 13.4236V18.8912H74.0555V13.4236L80.3033 3.10352H79.9719H76.033Z" fill="white"></path><path id="Vector_3" d="M91.946 3.10352V14.6762C91.946 15.1163 91.6254 15.4718 91.1745 15.4718H85.3722V3.10352H81.7539V18.8912H92.4458C93.3965 18.8912 94.1626 18.5977 94.7222 18.0222C95.2763 17.441 95.5534 16.6511 95.5534 15.6637V3.10352H91.9405H91.946Z" fill="white"></path><path id="Vector_4" d="M109.608 3.10352H98.9106V18.8912H102.529V6.52285H108.331C108.798 6.52285 109.097 6.9009 109.097 7.3128V18.8912H112.71V6.33665C112.71 5.34922 112.428 4.55363 111.879 3.9781C111.319 3.39692 110.559 3.10916 109.608 3.10916V3.10352Z" fill="white"></path><path id="Vector_5" d="M126.765 3.10352H116.073V18.8912H126.765C127.716 18.8912 128.476 18.5977 129.031 18.0222C129.59 17.441 129.867 16.6511 129.867 15.6637V6.33665C129.867 5.34922 129.585 4.55363 129.031 3.9781C128.471 3.40257 127.71 3.10916 126.765 3.10916V3.10352ZM126.254 7.34101V14.6593C126.254 15.0825 125.956 15.4775 125.483 15.4775H119.686V6.5285H125.461C125.934 6.5285 126.254 6.87269 126.254 7.34665V7.34101Z" fill="white"></path><path id="Vector_6" d="M136.175 3.10352C135.224 3.10352 134.458 3.39692 133.904 3.97246C133.344 4.54799 133.067 5.34358 133.067 6.33101V18.8912H136.675V14.0048H143.249V18.8912H146.861V3.10352H136.17H136.175ZM143.249 6.52285V10.5911H136.675V7.32408C136.675 6.93475 136.968 6.52285 137.446 6.52285H143.249Z" fill="white"></path><path id="Vector_7" d="M154.005 3.10352H150.387V18.8912H154.005V3.10352Z" fill="white"></path><path id="Vector_8" d="M20.6829 22C32.1028 22 41.3658 17.0741 41.3658 11.0028C41.3658 4.93152 32.1028 0 20.6829 0C9.26304 0 0 4.92588 0 10.9972C0 17.0685 9.2576 21.9944 20.6829 21.9944V22ZM24.5729 16.6002C24.2306 17.4296 23.633 19.207 22.2693 19.9123C21.8564 20.1211 21.3457 20.2283 20.8894 20.2395C20.7861 20.2395 20.7155 20.2395 20.6829 20.2395C16.8636 20.2395 13.3105 19.6866 10.3387 18.7499C10.3116 18.7443 10.2464 18.7161 10.2247 18.7048C9.95301 18.6089 9.81176 18.4791 9.81176 18.3155C9.81176 18.1688 9.88238 18.0672 9.98018 17.9656C10.0236 17.9205 10.0834 17.8641 10.1649 17.7907C10.8549 17.1983 12.9194 15.6409 16.8147 14.0893C18.1838 13.5476 19.8897 12.8705 21.6826 12.4811C22.7311 12.2498 26.6265 11.6348 24.5674 16.5945L24.5729 16.6002ZM35.0257 5.5127C35.0963 5.37728 35.1995 5.27007 35.3734 5.25314C35.4712 5.2475 35.6016 5.27007 35.8026 5.39985C38.2311 6.95153 39.6708 8.89254 39.6708 10.9915C39.6708 14.7833 34.9768 18.0446 28.2618 19.4722C27.8326 19.5568 27.5446 19.5568 27.4468 19.444C27.3816 19.3762 27.3599 19.2521 27.4468 19.1054C27.4903 19.0264 27.5392 18.9587 27.6261 18.8459C31.2824 14.3714 34.0695 7.76968 34.8573 5.86253C34.917 5.73275 34.9768 5.60297 35.0203 5.5127H35.0257ZM16.8527 5.37163C17.195 4.54219 17.7926 2.77045 19.1563 2.06514C19.5692 1.85073 20.0799 1.74917 20.5362 1.73788C20.6395 1.73788 20.7101 1.73788 20.7427 1.73788C24.562 1.73788 28.1151 2.2852 31.0923 3.22749C31.114 3.23314 31.1846 3.26135 31.2064 3.27263C31.478 3.36856 31.6247 3.49833 31.6247 3.66196C31.6247 3.80303 31.5541 3.91023 31.4563 4.0118C31.4128 4.05694 31.3531 4.11336 31.2661 4.18107C30.5816 4.77917 28.5117 6.33085 24.6163 7.88253C23.2472 8.42421 21.5413 9.10131 19.7485 9.49628C18.6945 9.72762 14.8046 10.3427 16.8582 5.37728L16.8527 5.37163ZM13.0986 2.51654C13.5333 2.43191 13.8158 2.43191 13.919 2.54475C13.9788 2.61811 13.9951 2.7366 13.919 2.8833C13.8701 2.9623 13.8266 3.03565 13.7397 3.14286C10.0834 7.61734 7.29634 14.2247 6.50857 16.1318C6.44881 16.2616 6.38905 16.3914 6.34015 16.476C6.26953 16.6114 6.17174 16.7243 5.99245 16.7356C5.89466 16.7412 5.76427 16.7186 5.55782 16.5889C3.12933 15.0372 1.68962 13.0962 1.68962 10.9972C1.68962 7.20544 6.38362 3.94409 13.1041 2.52218L13.0986 2.51654Z" fill="white"></path></g><defs><clipPath id="clip0_429_1600"><rect width="154" height="22" fill="white"></rect></clipPath></defs></svg> 