<?xml version="1.0" encoding="UTF-8"?>
<svg width="80px" height="80px" viewBox="0 0 80 80" version="1.1" xmlns="http://www.w3.org/2000/svg" xmlns:xlink="http://www.w3.org/1999/xlink">
    <title>FA23C785-9205-488F-B11F-350A6A9F19B7</title>
    <g id="Proton-Therapy" stroke="none" stroke-width="1" fill="none" fill-rule="evenodd">
        <g id="IBA-PT---homepage" transform="translate(-20.000000, -20.000000)">
            <rect fill="#FFFFFF" x="0" y="0" width="1440" height="7655"></rect>
            <g id="logos-/-IBA" transform="translate(20.000000, 20.000000)">
                <polygon id="Fill-1" fill="#69BE28" points="5.68434189e-15 80 80 80 80 -5.68434189e-15 5.68434189e-15 -5.68434189e-15"></polygon>
                <path d="M26.8386389,18.8001891 C28.0286915,17.7607565 29.6865892,17.7199054 30.539006,18.7086525 C31.3929369,19.698156 31.1211628,21.3412766 29.9303532,22.3799527 C28.7410576,23.4193853 27.0831598,23.4594799 26.230743,22.4722459 C25.3752981,21.4842553 25.6493433,19.8381087 26.8386389,18.8001891" id="Fill-2" fill="#FFFFFF"></path>
                <path d="M61.5171657,46.9292482 C61.7420039,46.5260331 62.6428707,44.0265532 61.4876415,42.4484917 C60.5269692,41.1344492 57.7289829,41.9378534 56.9621106,42.3584681 C52.0315682,45.0690118 50.8082062,49.6813995 50.4781407,51.2987991 C50.0632878,53.3330307 50.8301601,55.3793664 54.5350695,53.5993191 C56.6744389,52.5704775 59.615504,50.3304775 61.5171657,46.9292482 M70.4864681,51.6475461 C70.5515727,51.6490591 71.5145161,52.1241418 71.5145161,52.1241418 C71.5145161,52.1241418 67.5355615,55.9732199 63.4301828,53.4540709 C61.5217079,52.2852766 61.1060979,50.1988463 60.864605,50.5521324 C59.0189636,53.2520851 56.3685984,55.1788936 54.8030584,55.9656548 C53.9748666,56.382487 49.3251826,57.9189409 47.7967372,54.8218251 C47.3675007,53.9473097 46.0177145,49.6193664 50.6969227,43.5514704 C51.3101177,42.7526052 55.4101972,38.0948274 59.5768954,38.2037636 C63.2204853,38.468539 64.1796434,41.5906194 64.1796434,41.5906194 C64.1796434,41.5906194 63.5603921,45.209721 63.5429804,47.3082553 C63.4718195,55.5064586 69.2419092,52.3798392 70.4864681,51.6475461" id="Fill-4" fill="#FFFFFF"></path>
                <path d="M21.1927022,33.7056076 C21.6847723,32.5231962 22.534161,31.4202175 24.4297665,31.9323688 C25.9710814,32.3499574 25.5388168,32.8152057 25.5388168,32.8152057 C19.8633559,41.1253712 17.6202733,57.5981844 20.0533707,61.7264113 C20.7013892,62.7136454 20.329687,62.3732199 19.5295053,62.3119433 C17.0456868,62.1205485 16.7829971,59.8495319 16.7829971,59.8495319 C16.7829971,59.8495319 14.014535,51.0120851 21.1927022,33.7056076" id="Fill-6" fill="#FFFFFF"></path>
                <path d="M29.0025361,49.0842931 C29.6899201,47.1045296 31.5915818,44.7676974 32.1464855,44.0913853 C36.1943298,39.1423546 41.5647072,39.6946005 42.8720996,40.2075083 C49.1569704,42.6721891 45.5830274,51.1790449 43.7752375,53.3184303 C36.8786858,61.470487 27.3007305,60.1761135 26.4763239,60.0263262 C23.6086907,59.5013144 22.5246224,58.0382411 22.5246224,58.0382411 C22.5246224,58.0382411 23.639729,57.7764917 23.5791665,57.7757352 C24.8736894,59.1321418 30.1123434,59.3152151 32.6385556,58.3922837 C40.6767099,55.4517636 42.5291646,50.2651915 42.8720996,49.2068463 C43.5488853,47.1105816 44.0621522,42.5594704 38.4949468,43.6601797 C32.8853477,44.7676974 29.5566827,51.9204161 28.1395208,53.8305816 C27.9260381,54.1188085 25.5512321,52.9666572 25.7367046,50.7478392 C26.2053068,46.3086903 27.288618,39.9207943 30.3280972,32.5895414 C30.8178962,31.4063735 31.9118059,30.3185248 33.8127105,30.8193286 C35.1677959,31.1733712 34.6742117,31.6991395 34.6742117,31.6991395 C31.6960521,36.0618818 29.8844771,42.7213617 29.0025361,48.8376738 L29.0025361,49.0842931" id="Fill-8" fill="#FFFFFF"></path>
                <path d="M56.7886748,22.7659196 C56.7886748,22.7659196 58.6797381,22.339253 57.6153526,22.6554704 C25.8889436,31.1971253 13.2525834,29.9027518 10.5401416,27.6831773 C5.64139445,23.672208 14.6076687,19.2391111 23.7314054,19.794383 C23.7314054,19.794383 23.0531057,20.5940047 23.0220675,21.4579291 C21.5125478,21.6114988 14.3608766,21.9511678 14.7333359,25.2805296 C15.2935387,30.3173144 48.6816306,24.6647376 56.7886748,22.7659196" id="Fill-10" fill="#BFD492"></path>
            </g>
        </g>
    </g>
</svg>