<?xml version="1.0" encoding="utf-8"?>
<svg xmlns="http://www.w3.org/2000/svg" viewBox="0 0 179 148">
  <path fill="#df4432" d="M28.2 139.2c0-.98-.28-1.8-.84-2.5a5.66 5.66 0 0 0-2.2-1.59c-.9-.38-1.9-.72-2.99-1.03a58.7 58.7 0 0 1-3.27-1.03 15.7 15.7 0 0 1-2.99-1.37c-.9-.54-1.63-1.3-2.2-2.29s-.84-2.16-.84-3.52a7 7 0 0 1 2.5-5.43c1.67-1.5 3.86-2.24 6.58-2.24a10.91 10.91 0 0 1 5.25 1.29c.62.35 1.17.7 1.65 1.04s.84.65 1.05.9l.33.4-2.03 2.02a3.66 3.66 0 0 0-.98-.97 7.63 7.63 0 0 0-3-1.56c-.74-.2-1.49-.3-2.27-.3-1.85 0-3.33.47-4.42 1.42a4.37 4.37 0 0 0-1.65 3.43c0 .97.29 1.8.85 2.48.57.68 1.3 1.22 2.2 1.6.91.38 1.91.72 3 1.03 1.1.31 2.18.65 3.27 1.03 1.08.37 2.08.83 2.98 1.37.91.54 1.65 1.3 2.21 2.27.57.98.85 2.16.85 3.54 0 2.4-.84 4.34-2.52 5.83-1.69 1.5-4.01 2.24-6.98 2.24a13.13 13.13 0 0 1-6.13-1.5c-.7-.4-1.32-.8-1.86-1.23a5.99 5.99 0 0 1-1.12-1.06l-.37-.45 1.85-2.05a5.23 5.23 0 0 0 1.18 1.21 8.59 8.59 0 0 0 3.65 1.87c.9.26 1.84.39 2.8.39 2.07 0 3.67-.49 4.79-1.45s1.67-2.23 1.67-3.8zm37.46-16.76a14 14 0 0 1 4.23 10.29c0 4.04-1.4 7.46-4.23 10.29-2.83 2.82-6.26 4.24-10.3 4.24s-7.46-1.42-10.29-4.24-4.23-6.26-4.23-10.3 1.4-7.46 4.23-10.28c2.83-2.83 6.26-4.24 10.3-4.24s7.46 1.41 10.29 4.24zm-18.48 1.95c-2.22 2.24-3.33 5.02-3.33 8.34s1.11 6.09 3.33 8.34c2.22 2.24 4.95 3.37 8.19 3.37s5.96-1.13 8.18-3.37c2.22-2.25 3.33-5.03 3.33-8.34s-1.11-6.1-3.33-8.34c-2.22-2.25-4.95-3.37-8.18-3.37s-5.97 1.12-8.19 3.37zm51.9 22.47H81.52V118.6h3.03v25.45h14.53v2.82zM129.6 139h-13.32l-3.24 7.86h-3.23l11.71-28.27h2.82l11.71 28.27h-3.21L129.6 139zm-1.22-2.84-5.44-13.33-5.46 13.33h10.9zm18.64-17.57h11.3c2.5 0 4.57.8 6.22 2.43a8.14 8.14 0 0 1 2.47 6.05c0 1.2-.2 2.31-.6 3.31-.42 1-.9 1.78-1.47 2.35s-1.13 1.04-1.71 1.44a6.3 6.3 0 0 1-1.46.78l-.61.2 6.66 11.71h-3.43l-6.27-11.3h-8.06v11.3H147V118.6zm11.3 2.84h-8.26v11.3h8.26c1.72 0 3.1-.51 4.12-1.53s1.54-2.4 1.54-4.12-.52-3.1-1.54-4.12-2.4-1.53-4.12-1.53zM13.54 76.63V2.48h15.93v74.17H13.54zm146.26-20.1-.66.57a39.24 39.24 0 0 1-4.3 3.07 25.22 25.22 0 0 1-6.12 2.64 26.7 26.7 0 0 1-7.73 1.11c-6.94 0-12.73-2.32-17.38-6.98-4.66-4.65-6.99-10.45-6.99-17.38s2.33-12.72 6.99-17.38c4.65-4.65 10.44-6.98 17.38-6.98a24 24 0 0 1 7.4 1.16 27.9 27.9 0 0 1 5.84 2.54 24.7 24.7 0 0 1 4.1 3.18c.45.42.81.78 1.14 1.12l10.1-10.11a32.37 32.37 0 0 0-2.8-2.6 60.24 60.24 0 0 0-6-4.34 33.22 33.22 0 0 0-8.66-3.7A39.93 39.93 0 0 0 140.98.91c-11.31 0-20.86 3.78-28.63 11.33-7.78 7.56-11.67 16.66-11.67 27.31 0 10.66 3.89 19.77 11.67 27.34 7.77 7.57 17.32 11.35 28.63 11.35 3.86 0 7.59-.53 11.2-1.6a40.64 40.64 0 0 0 8.74-3.55 39.75 39.75 0 0 0 6.25-4.5 93.05 93.05 0 0 0 2.47-2.22l-9.85-9.85zm-75-18.97c5.04-3.37 8.32-8.86 8.32-15.07 0-10.26-8.91-20.01-19.9-20.01H37.86v74.17h33.61c7.35 0 14.79-2.74 19.08-6.91a20.37 20.37 0 0 0 6.28-14.47c0-7.83-4.93-14.57-12.04-17.7zm-31-21.84h14.8c2.61 0 4.68.72 6.2 2.17 1.52 1.45 2.28 3.38 2.28 5.8 0 2.4-.76 4.34-2.28 5.79-1.52 1.44-3.59 2.17-6.2 2.17H53.8V15.7zm24.13 44.94a10.03 10.03 0 0 1-7.22 2.75H53.8V44.3h16.9c2.9 0 5.3.92 7.22 2.77 1.91 1.84 2.87 4.11 2.87 6.8s-.96 4.95-2.87 6.77zm100.6 29.05c-27.72 7.18-57.72 11.05-88.69 11.27l-2.88.01c-30.26 0-59.62-3.5-86.82-10.2v2.83c27.23 6.65 56.58 10.12 86.83 10.12h2.89c30.93-.23 60.92-4.08 88.66-11.2V89.7z"/>
</svg>