<svg height="100" viewBox="0 0 163 100" width="163" xmlns="http://www.w3.org/2000/svg"><g fill="none" fill-rule="evenodd"><g fill="#787d8c" transform="translate(47 42)"><path d="m2.3.9h2.5v14.1h-2.5z"/><path d="m8 .9h2.8l2.5 6.9c.3.9.6 1.8.9 2.8h.1c.3-.9.6-1.9.9-2.8l2.4-6.9h2.9v14.1h-2.3v-6.5c0-1.3.2-3.2.3-4.5h-.1l-1.1 3.3-2.3 6.4h-1.5l-2.3-6.4-1.1-3.3h-.1c.1 1.3.3 3.2.3 4.5v6.5h-2.3z"/><path d="m23.7.9h2.8l2.5 6.9c.3.9.6 1.8.9 2.8h.1c.3-.9.6-1.9.9-2.8l2.4-6.9h2.9v14.1h-2.3v-6.5c0-1.3.2-3.2.3-4.5h-.1l-1.1 3.3-2.3 6.4h-1.5l-2.3-6.4-1.1-3.3h-.1c.1 1.3.3 3.2.3 4.5v6.5h-2.3z"/><path d="m42.4.9h2.9l4.6 14.1h-2.6l-1.1-3.8h-4.8l-1.1 3.8h-2.5zm-.4 8.4h3.6l-.5-1.7c-.5-1.5-.9-3.1-1.3-4.7h-.1c-.4 1.6-.8 3.2-1.3 4.7z" fill-rule="nonzero"/><path d="m51.5.9h2.6l4.4 8 1.4 3h.1c-.1-1.4-.3-3.2-.3-4.8v-6.1h2.4v14h-2.6l-4.4-8-1.4-3h-.1c.1 1.5.3 3.2.3 4.8v6.2h-2.4z"/><path d="m64.8 8.8v-7.9h2.5v8.1c0 3.1 1.1 4.1 2.9 4.1 1.7 0 2.9-1 2.9-4.1v-8.1h2.4v7.9c0 4.6-2.1 6.5-5.3 6.5-3.3 0-5.4-1.8-5.4-6.5z"/><path d="m78.2.9h8.5v2.1h-6v3.6h5.1v2.1h-5.1v4.2h6.2v2.1h-8.7z"/><path d="m89.6.9h2.5v12h5.9v2.1h-8.4z"/><path d="m5.1 22.2h2.9l4.6 14.1h-2.6l-1.1-3.8h-4.8l-1.1 3.8h-2.5zm-.4 8.3h3.6l-.5-1.7c-.5-1.5-.9-3.1-1.3-4.7h-.1c-.4 1.6-.8 3.2-1.3 4.7z" fill-rule="nonzero"/><path d="m14.1 22.2h2.5v12h5.9v2.1h-8.4z"/><path d="m24.8 22.2h4.5c2.9 0 5.1.9 5.1 3.5 0 1.3-.7 2.6-2 3.1v.1c1.6.3 2.7 1.4 2.7 3.3 0 2.8-2.3 4.1-5.4 4.1h-4.9zm4.3 5.8c2 0 2.8-.8 2.8-2 0-1.4-.9-1.9-2.8-1.9h-1.8v3.9zm.3 6.3c2.1 0 3.2-.8 3.2-2.3s-1.1-2.1-3.2-2.1h-2.1v4.5h2.1z" fill-rule="nonzero"/><path d="m37.4 22.2h8.5v2.1h-6v3.6h5.1v2.1h-5.1v4.2h6.2v2.1h-8.7z"/><path d="m48.9 22.2h4.8c2.9 0 5.2 1 5.2 4.2 0 2.2-1.1 3.5-2.8 4l3.4 5.9h-2.8l-3-5.5h-2.2v5.5h-2.5v-14.1zm4.5 6.6c1.9 0 3-.8 3-2.4s-1.1-2.2-3-2.2h-2v4.6z" fill-rule="nonzero"/><path d="m64.3 24.3h-4.1v-2.1h10.7v2.1h-4.1v12h-2.5z"/><path d="m73 22.2h2.5v14.1h-2.5z"/><path d="m79 22.2h2.6l4.4 8 1.4 3h.1c-.1-1.4-.3-3.2-.3-4.8v-6.1h2.4v14.1h-2.6l-4.4-8-1.4-3h-.2c.1 1.5.3 3.2.3 4.8v6.2h-2.3z"/><path d="m93 22.2h8.5v2.1h-6v3.6h5.1v2.1h-5.1v4.2h6.2v2.1h-8.7z"/><path d="m104.5 22.2h2.6l4.4 8 1.4 3h.1c-.1-1.4-.3-3.2-.3-4.8v-6.1h2.4v14.1h-2.6l-4.4-8-1.4-3h-.1c.1 1.5.3 3.2.3 4.8v6.2h-2.4z"/><path d="m2.3 43.4h3.8c4.3 0 6.9 2.3 6.9 7s-2.5 7.1-6.7 7.1h-3.9v-14.1zm3.6 12.1c2.9 0 4.5-1.6 4.5-5.1s-1.6-5-4.5-5h-1.1v10.1z" fill-rule="nonzero"/><path d="m14.9 43.4h2.5v14.1h-2.5z"/><path d="m23.8 43.4h2.9l4.6 14.1h-2.6l-1.1-3.8h-4.8l-1.1 3.8h-2.5zm-.4 8.4h3.6l-.5-1.7c-.5-1.5-.9-3.1-1.3-4.7h-.1c-.4 1.6-.8 3.2-1.3 4.7z" fill-rule="nonzero"/><path d="m33 43.4h2.5v6.4h.1l5-6.4h2.8l-4.3 5.5 5.1 8.6h-2.8l-3.8-6.7-2 2.5v4.1h-2.6z"/><path d="m44.6 50.4c0-4.6 2.5-7.3 6.2-7.3s6.2 2.7 6.2 7.3-2.5 7.4-6.2 7.4-6.2-2.8-6.2-7.4zm9.8 0c0-3.2-1.4-5.1-3.7-5.1-2.2 0-3.7 1.9-3.7 5.1s1.4 5.2 3.7 5.2 3.7-2 3.7-5.2z" fill-rule="nonzero"/><path d="m59.2 43.4h2.6l4.4 8 1.4 3h.1c-.1-1.4-.3-3.2-.3-4.8v-6.1h2.4v14.1h-2.6l-4.4-8-1.4-3h-.1c.1 1.5.3 3.2.3 4.8v6.2h-2.4z"/><path d="m72.8 43.4h2.5v14.1h-2.5z"/><path d="m78.3 43.4h8.5v2.1h-6v3.6h5.1v2.1h-5.1v4.2h6.2v2.1h-8.7z"/></g><path d="m28.1 14.7c-7.7 0-14 6.3-14 14v57h14v-57h28v-14z" fill="#a5c355"/><path d="m28.1.7v28h-28v14h28c7.7 0 14-6.3 14-14v-28z" fill="#faaf00"/><path d="m14.1 28.7h14v14h-14z" fill="#e6a000"/><path d="m28.1 14.7h14v14h-14z" fill="#a5af1e"/></g></svg>