<svg width="139" height="17" viewBox="0 0 139 17" fill="none" xmlns="http://www.w3.org/2000/svg">
<g clip-path="url(#clip0_4798_52241)">
<path d="M52.083 4.59766H50.7578V11.232H52.083V4.59766Z" fill="white"/>
<path d="M90.3955 4.59766H89.0703V11.232H90.3955V4.59766Z" fill="white"/>
<path d="M75.7969 11.232V4.59766H81.1077V5.52182H77.045V7.53538H79.9426V8.45762H77.045V11.232H75.7969Z" fill="white"/>
<path d="M125.97 11.232V5.52374H123.555V4.59766H129.662V5.52374H127.246V11.232H125.97Z" fill="white"/>
<path d="M115.536 4.59766H114.211V11.232H115.536V4.59766Z" fill="white"/>
<path d="M139.005 4.59766H137.68V11.232H139.005V4.59766Z" fill="white"/>
<path d="M104.454 11.232L100.381 6.52476V11.232H99.1328V4.59766H100.116L104.213 9.31646V4.59766H105.463V11.232H104.454Z" fill="white"/>
<path d="M66.1432 11.232L62.0685 6.52476V11.232H60.8203V4.59766H61.803L65.9021 9.31646V4.59766H67.1503V11.232H66.1432Z" fill="white"/>
<path d="M18.69 0.441908C10.0258 0.441908 3.04139 3.85228 3.04139 7.9505C3.04139 10.2734 5.8923 12.0891 10.2082 13.0958L17.7478 4.59776H18.69L12.1655 17C5.06155 15.7972 0 12.6674 0 8.85737C0 3.95796 8.37242 0 18.69 0C29.0076 0 37.3801 3.95796 37.3801 8.85737C37.3801 12.6674 32.3185 15.7972 25.2145 17L18.69 4.59776H19.6322L27.1698 13.0958C31.4878 12.0891 34.3367 10.2734 34.3367 7.9505C34.3367 3.85228 27.3522 0.441908 18.688 0.441908H18.69Z" fill="white"/>
</g>
<defs>
<clipPath id="clip0_4798_52241">
<rect width="139" height="17" fill="white"/>
</clipPath>
</defs>
</svg>
