<svg xmlns="http://www.w3.org/2000/svg" width="199" height="26" viewBox="0 0 199 26" fill="none">
    <g clip-path="url(#clip0_1248_12993)">
        <path d="M74.5452 7.03174H72.6484V17.1784H74.5452V7.03174Z" fill="white" />
        <path d="M129.379 7.03174H127.482V17.1784H129.379V7.03174Z" fill="white" />
        <path d="M108.49 17.1784V7.03174H116.092V8.44516H110.277V11.5247H114.424V12.9352H110.277V17.1784H108.49Z"
            fill="white" />
        <path d="M180.305 17.1784V8.4481H176.848V7.03174H185.589V8.4481H182.132V17.1784H180.305Z" fill="white" />
        <path d="M165.366 7.03174H163.469V17.1784H165.366V7.03174Z" fill="white" />
        <path d="M198.957 7.03174H197.061V17.1784H198.957V7.03174Z" fill="white" />
        <path
            d="M149.505 17.1784L143.675 9.97907V17.1784H141.889V7.03174H143.295L149.16 14.2487V7.03174H150.949V17.1784H149.505Z"
            fill="white" />
        <path
            d="M94.6697 17.1784L88.8373 9.97907V17.1784H87.0508V7.03174H88.4574L94.3246 14.2487V7.03174H96.1111V17.1784H94.6697Z"
            fill="white" />
        <path
            d="M26.7518 0.675859C14.3504 0.675859 4.35326 5.89173 4.35326 12.1596C4.35326 15.7123 8.4339 18.4892 14.6114 20.0289L25.4003 7.03187H26.7489L17.4072 26C7.2448 24.1605 0 19.3736 0 13.5466C0 6.05334 11.9838 0 26.7518 0C41.5198 0 53.5036 6.05334 53.5036 13.5466C53.5036 19.3736 46.2588 24.1605 36.0906 26L26.7518 7.03187H28.1004L38.8893 20.0289C45.0697 18.4892 49.1475 15.7123 49.1475 12.1596C49.1475 5.89173 39.1504 0.675859 26.7489 0.675859H26.7518Z"
            fill="white" />
    </g>
    <defs>
        <clipPath id="clip0_1248_12993">
            <rect width="198.957" height="26" fill="white" />
        </clipPath>
    </defs>
</svg>