<?xml version="1.0" encoding="utf-8"?>
<!-- Generator: Adobe Illustrator 21.0.2, SVG Export Plug-In . SVG Version: 6.00 Build 0)  -->
<svg version="1.1" id="Ebene_1" xmlns="http://www.w3.org/2000/svg" xmlns:xlink="http://www.w3.org/1999/xlink" x="0px" y="0px"
	 viewBox="0 0 582 65.7" style="enable-background:new 0 0 582 65.7;" xml:space="preserve">
<style type="text/css">
	.st0{fill:#E30613;}
	.st1{fill:#164194;}
</style>
<g>
	<path class="st0" d="M88,9.4C88,5.6,90.5,3,94.4,3c3.9,0,6.4,2.6,6.4,6.4v45.5c0,3.8-2.5,6.4-6.4,6.4c-3.9,0-6.4-2.6-6.4-6.4V9.4z"
		/>
	<path class="st0" d="M111.6,10.5c0-5.3,2.6-7.5,8.1-7.5c2.7,0,5,1,6.4,3.4l22.5,36.2h0.2V9.2c0-4.1,2.3-6.2,6.2-6.2
		c3.8,0,6.2,2,6.2,6.2v44.2c0,5.1-2.2,8-7.6,8c-4.1,0-5.4-0.9-7-3.4l-22.3-35.2H124v32.5c0,4.1-2.3,6.2-6.2,6.2
		c-3.8,0-6.2-2-6.2-6.2V10.5z"/>
	<path class="st0" d="M181.4,14.8h-9.1c-3.7,0-6.6-1.9-6.6-5.4c0-3.5,3-5.4,6.6-5.4h31.1c3.7,0,6.6,1.9,6.6,5.4c0,3.5-3,5.4-6.6,5.4
		h-9.1v40.1c0,3.8-2.5,6.4-6.4,6.4c-3.9,0-6.4-2.6-6.4-6.4V14.8z"/>
	<path class="st0" d="M214.7,11.5c0-5.7,3-7.5,7.5-7.5h28.1c3.8,0,6.5,1.1,6.5,5.2s-2.7,5.2-6.5,5.2h-22.8v12.2h19.8
		c3.4,0,6,0.9,6,4.9s-2.7,4.9-6,4.9h-19.8V50H251c3.8,0,6.5,1.1,6.5,5.2s-2.7,5.2-6.5,5.2h-28.8c-4.5,0-7.5-1.8-7.5-7.5V11.5z"/>
	<path class="st0" d="M275.9,29h10.8c4.9,0,9.7-1.3,9.7-7.6c0-6-3.7-7.6-9.3-7.6h-11.2V29z M263.1,11.5c0-5.7,3-7.5,7.5-7.5H290
		c15.3,0,19.3,8.4,19.3,15.6c0,6.1-3.6,12.1-9.7,13.5v0.2c6.6,0.9,7.7,5.7,7.7,11.4c0,6.5,1.7,8.9,1.7,11.6c0,3-3.1,5-6,5
		c-7,0-7.6-6.8-7.6-9.1c0-9.9-1.8-13.8-8.8-13.8h-10.7v16.5c0,3.8-2.5,6.4-6.4,6.4c-3.9,0-6.4-2.6-6.4-6.4V11.5z"/>
	<path class="st1" d="M484.8,29h10.8c4.9,0,9.7-1.3,9.7-7.6c0-6-3.7-7.6-9.3-7.6h-11.2V29z M471.9,11.5c0-5.7,3-7.5,7.5-7.5h19.4
		c15.3,0,19.3,8.4,19.3,15.6c0,6.1-3.6,12.1-9.7,13.5v0.2c6.6,0.9,7.7,5.7,7.7,11.4c0,6.5,1.7,8.9,1.7,11.6c0,3-3.1,5-6,5
		c-7,0-7.6-6.8-7.6-9.1c0-9.9-1.8-13.8-8.8-13.8h-10.7v16.5c0,3.8-2.5,6.4-6.4,6.4c-3.9,0-6.4-2.6-6.4-6.4V11.5z"/>
	<path class="st1" d="M347.3,27.7c11.7,2.7,14.7,9.6,14.7,16.2c0,10.2-7.7,17.8-23.2,17.8c-16.3,0-23.5-8.1-23.5-14.2
		c0-3.1,2.3-5.3,5.4-5.3c7,0,5.2,10.2,18.1,10.2c6.7,0,10.3-3.7,10.3-7.4c0-2.3-1.1-4.8-5.5-5.9l-14.5-3.7
		c-11.7-3-13.8-9.4-13.8-15.4c0-12.5,11.6-17.2,22.5-17.2c10,0,21.8,5.6,21.8,13.1c0,3.2-2.7,5.1-5.9,5.1c-5.9,0-4.9-8.4-16.8-8.4
		c-5.9,0-9.2,2.7-9.2,6.6s4.7,5.2,8.8,6.1L347.3,27.7z"/>
	<path class="st1" d="M380.5,29.8h10c5.2,0,9-3.1,9-8c0-5.6-4-8-10.3-8h-8.7V29.8z M367.7,11.5c0-5.7,3-7.5,7.5-7.5h17.6
		c10.8,0,19.5,5.3,19.5,17.8c0,10.2-7.1,17.8-19.6,17.8h-12.3v15.3c0,3.8-2.5,6.4-6.4,6.4c-3.9,0-6.4-2.6-6.4-6.4V11.5z"/>
	<path class="st1" d="M440.5,51.3c11.7,0,11.7-9.1,11.7-19.9S451,13,440.5,13c-10.5,0-11.7,7.7-11.7,18.5S428.4,51.3,440.5,51.3
		 M440.5,2.7C458.9,2.7,465,15,465,31.5c0,15.9-5.3,30.2-24.5,30.2c-20.2,0-24.5-13.1-24.5-30.2C416,15,422,2.7,440.5,2.7"/>
	<path class="st1" d="M535.2,14.8h-9.1c-3.7,0-6.6-1.9-6.6-5.4c0-3.5,3-5.4,6.6-5.4h31.1c3.7,0,6.6,1.9,6.6,5.4c0,3.5-3,5.4-6.6,5.4
		H548v40.1c0,3.8-2.5,6.4-6.4,6.4c-3.9,0-6.4-2.6-6.4-6.4V14.8z"/>
	<path class="st1" d="M571.6,9V7h1.7c0.3,0,0.6,0,0.9,0.2c0.3,0.2,0.5,0.5,0.5,0.8c0,0.3-0.1,0.5-0.3,0.7C574,9,573.6,9,573.1,9
		H571.6z M575.5,12.1l-1.3-2.6c0.8-0.2,1.2-0.8,1.2-1.5c0-0.5-0.3-1-0.7-1.2c-0.4-0.3-1-0.3-1.5-0.3h-2.5v5.7h0.8V9.6h1.7l1.2,2.5
		H575.5z"/>
	<path class="st1" d="M572.9,5.3c-2.3,0-4.1,1.9-4.1,4.1c0,2.3,1.9,4.1,4.1,4.1c2.3,0,4.1-1.9,4.1-4.1C577,7.1,575.1,5.3,572.9,5.3
		 M572.9,14.4c-2.8,0-5-2.2-5-5c0-2.8,2.2-5,5-5c2.8,0,5,2.2,5,5C577.8,12.1,575.6,14.4,572.9,14.4"/>
	<path class="st0" d="M7.7,16c0-7,5.6-12.6,12.6-12.6S32.9,9,32.9,16s-5.6,12.6-12.6,12.6S7.7,23,7.7,16"/>
	<path class="st1" d="M20.3,60.8c-1.7,0-3.1-1.5-3.1-3.4V36.7c0-1.9,1.3-3.4,3.1-3.4c19.8,0,21.4-26.9,49.9-26.9
		c1.7,0,3.1,1.5,3.1,3.4v20.5c0,1.9-1.4,3.4-3.1,3.4C50.8,33.7,49.6,60.8,20.3,60.8"/>
</g>
</svg>
