<svg width="155" height="16" viewBox="0 0 155 16" fill="none" xmlns="http://www.w3.org/2000/svg">
<g clip-path="url(#clip0_26402_2177)">
<path d="M21.7844 1.82559C21.7844 0.785458 22.4637 0.0849609 23.5251 0.0849609C24.5864 0.0849609 25.2657 0.785458 25.2657 1.82559V14.1745C25.2657 15.2146 24.5864 15.9151 23.5251 15.9151C22.4637 15.9151 21.7844 15.2146 21.7844 14.1745V1.82559Z" fill="#E30613"/>
<path d="M28.1897 2.12277C28.1897 0.679322 28.8902 0.0849609 30.3761 0.0849609C31.0979 0.0849609 31.7347 0.360914 32.1168 0.99773L38.2063 10.8233H38.2488V1.76191C38.2488 0.636868 38.8856 0.0849609 39.9231 0.0849609C40.9632 0.0849609 41.6 0.636868 41.6 1.76191V13.75C41.6 15.1297 41.0056 15.9151 39.541 15.9151C38.4372 15.9151 38.0763 15.6816 37.6305 14.9811L31.5834 5.43156H31.541V14.2382C31.541 15.3632 30.9042 15.9151 29.864 15.9151C28.8239 15.9151 28.1871 15.3632 28.1871 14.2382V2.12277H28.1897Z" fill="#E30613"/>
<path d="M47.1324 3.29019H44.6514C43.6537 3.29019 42.8471 2.78074 42.8471 1.82552C42.8471 0.870293 43.6537 0.36084 44.6514 0.36084H53.0919C54.0896 0.36084 54.8962 0.870293 54.8962 1.82552C54.8962 2.78074 54.0896 3.29019 53.0919 3.29019H50.611V14.1771C50.611 15.2172 49.9317 15.9177 48.8703 15.9177C47.809 15.9177 47.1297 15.2172 47.1297 14.1771V3.29019H47.1324Z" fill="#E30613"/>
<path d="M56.1539 2.39865C56.1539 0.849065 56.9605 0.36084 58.189 0.36084H65.8202C66.8391 0.36084 67.5821 0.658021 67.5821 1.76183C67.5821 2.86565 66.8418 3.16283 65.8202 3.16283H59.6325V6.47162H64.9923C65.9051 6.47162 66.6268 6.72635 66.6268 7.80893C66.6268 8.89152 65.9051 9.14625 64.9923 9.14625H59.6325V12.8398H65.99C67.0089 12.8398 67.7519 13.137 67.7519 14.2408C67.7519 15.3446 67.0089 15.6418 65.99 15.6418H58.189C56.9578 15.6418 56.1539 15.1535 56.1539 13.604V2.39865Z" fill="#E30613"/>
<path d="M69.2776 2.39865C69.2776 0.849065 70.0843 0.36084 71.3154 0.36084H76.5692C80.7085 0.36084 81.8097 2.63215 81.8097 4.60363C81.8097 6.25935 80.8332 7.89384 79.1801 8.27593V8.31839C80.9632 8.57311 81.2816 9.86797 81.2816 11.4176C81.2816 13.1794 81.7486 13.8348 81.7486 14.5592C81.7486 15.3658 80.9208 15.9177 80.1141 15.9177C78.2037 15.9177 78.0551 14.071 78.0551 13.4554C78.0551 10.7807 77.5669 9.70081 75.6564 9.70081H72.7562V14.1771C72.7562 15.2172 72.077 15.9177 71.0156 15.9177C69.9542 15.9177 69.275 15.2172 69.275 14.1771V2.39865H69.2776ZM72.7562 7.15089H75.6962C77.0123 7.15089 78.3284 6.81125 78.3284 5.09185C78.3284 3.45736 77.3307 3.03281 75.8023 3.03281H72.7562V7.15089Z" fill="#E30613"/>
<path d="M125.93 2.39865C125.93 0.849065 126.737 0.36084 127.968 0.36084H133.222C137.359 0.36084 138.462 2.63215 138.462 4.60363C138.462 6.25935 137.486 7.89384 135.833 8.27593V8.31839C137.616 8.57311 137.934 9.86797 137.934 11.4176C137.934 13.1794 138.401 13.8348 138.401 14.5592C138.401 15.3658 137.574 15.9177 136.767 15.9177C134.856 15.9177 134.708 14.071 134.708 13.4554C134.708 10.7807 134.22 9.70081 132.309 9.70081H129.412V14.1771C129.412 15.2172 128.732 15.9177 127.671 15.9177C126.61 15.9177 125.93 15.2172 125.93 14.1771V2.39865ZM129.412 7.15089H132.352C133.668 7.15089 134.984 6.81125 134.984 5.09185C134.984 3.45736 133.986 3.03281 132.458 3.03281H129.412V7.15089Z" fill="#164196"/>
<path d="M92.1287 6.79005C95.3101 7.51177 96.1194 9.401 96.1194 11.1841C96.1194 13.9436 94.0391 16 89.8388 16C85.4262 16 83.4521 13.7924 83.4521 12.1367C83.4521 11.2876 84.0677 10.6932 84.9168 10.6932C86.806 10.6932 86.3177 13.4527 89.8388 13.4527C91.6431 13.4527 92.6408 12.4551 92.6408 11.4362C92.6408 10.8206 92.3436 10.1413 91.1549 9.84411L87.2305 8.84643C84.0703 8.0398 83.4972 6.29917 83.4972 4.66468C83.4919 1.27363 86.6335 0 89.5814 0C92.2985 0 95.5012 1.52836 95.5012 3.56352C95.5012 4.43383 94.7582 4.94328 93.9091 4.94328C92.2959 4.94328 92.593 2.67197 89.3453 2.67197C87.732 2.67197 86.8405 3.41493 86.8405 4.47629C86.8405 5.53765 88.1141 5.87728 89.2153 6.13201L92.1287 6.79005Z" fill="#164196"/>
<path d="M97.6451 2.39865C97.6451 0.849065 98.4517 0.36084 99.6829 0.36084H104.47C107.399 0.36084 109.753 1.80429 109.753 5.19799C109.753 7.97875 107.821 10.0351 104.448 10.0351H101.126V14.1718C101.126 15.2119 100.447 15.9124 99.3857 15.9124C98.3244 15.9124 97.6451 15.2119 97.6451 14.1718V2.39865ZM101.124 7.36316H103.83C105.231 7.36316 106.269 6.51407 106.269 5.19799C106.269 3.66963 105.186 3.03281 103.467 3.03281H101.121V7.36316H101.124Z" fill="#164196"/>
<path d="M117.4 0C122.409 0 124.046 3.33267 124.046 7.80896C124.046 12.1154 122.622 16 117.4 16C111.926 16 110.753 12.4365 110.753 7.80896C110.753 3.33267 112.393 0 117.4 0ZM117.4 13.198C120.56 13.198 120.565 10.7383 120.565 7.80896C120.565 4.8796 120.244 2.80199 117.4 2.80199C114.555 2.80199 114.234 4.88226 114.234 7.80896C114.234 10.7383 114.131 13.198 117.4 13.198Z" fill="#164196"/>
<path d="M143.095 3.29019H140.614C139.617 3.29019 138.81 2.78074 138.81 1.82552C138.81 0.870293 139.617 0.36084 140.614 0.36084H149.055C150.052 0.36084 150.859 0.870293 150.859 1.82552C150.859 2.78074 150.052 3.29019 149.055 3.29019H146.574V14.1771C146.574 15.2172 145.895 15.9177 144.833 15.9177C143.772 15.9177 143.093 15.2172 143.093 14.1771V3.29019H143.095Z" fill="#164196"/>
<path d="M154.027 2.54456L153.674 1.83079C153.884 1.78038 154.009 1.61852 154.009 1.43543C154.009 1.30542 153.937 1.17805 153.818 1.09845C153.696 1.01885 153.555 1.00293 153.409 1.00293H152.735V2.54456H152.961V1.8759H153.417L153.751 2.5419H154.027V2.54456ZM152.961 1.71935V1.17009H153.409C153.502 1.17009 153.579 1.17275 153.658 1.22051C153.746 1.27092 153.783 1.34256 153.783 1.43278C153.783 1.50708 153.754 1.58137 153.69 1.63444C153.603 1.71404 153.502 1.71935 153.382 1.71935H152.961Z" fill="#164196"/>
<path d="M153.303 3.17076C152.555 3.17076 151.947 2.56313 151.947 1.81487C151.947 1.06661 152.555 0.458984 153.303 0.458984C154.051 0.458984 154.659 1.06661 154.659 1.81487C154.659 2.56313 154.051 3.17076 153.303 3.17076ZM153.303 0.69779C152.687 0.69779 152.183 1.19928 152.183 1.81752C152.183 2.43311 152.685 2.93461 153.303 2.93461C153.918 2.93461 154.42 2.43311 154.42 1.81752C154.423 1.19928 153.921 0.69779 153.303 0.69779Z" fill="#164196"/>
<path d="M0 3.61384C0 1.72462 1.53101 0.193604 3.42023 0.193604C5.30945 0.193604 6.84046 1.72462 6.84046 3.61384C6.84046 5.50306 5.30945 7.03407 3.42023 7.03407C1.53101 7.03407 0 5.50306 0 3.61384Z" fill="#E30613"/>
<path d="M3.42554 15.7665C2.95854 15.7665 2.5791 15.3526 2.5791 14.8431V9.2365C2.5791 8.72705 2.94527 8.31312 3.42554 8.31312C8.80663 8.31312 9.23383 1.02954 16.9658 1.02954C17.4328 1.02954 17.8123 1.44347 17.8123 1.95292V7.50118C17.8123 8.01063 17.4328 8.42456 16.9658 8.42456C11.6935 8.42456 11.3645 15.7665 3.42554 15.7665Z" fill="#164196"/>
</g>
<defs>
<clipPath id="clip0_26402_2177">
<rect width="154.659" height="16" fill="white"/>
</clipPath>
</defs>
</svg>
