<svg width="151" height="16" viewBox="0 0 151 16" fill="none" xmlns="http://www.w3.org/2000/svg">
  <path d="M21.7844 1.82559C21.7844 0.785458 22.4637 0.0849609 23.5251 0.0849609C24.5864 0.0849609 25.2657 0.785458 25.2657 1.82559V14.1745C25.2657 15.2146 24.5864 15.9151 23.5251 15.9151C22.4637 15.9151 21.7844 15.2146 21.7844 14.1745V1.82559Z" fill="#E30613"/>
  <path d="M28.1897 2.12277C28.1897 0.679322 28.8902 0.0849609 30.3761 0.0849609C31.0978 0.0849609 31.7346 0.360914 32.1167 0.99773L38.2063 10.8233H38.2487V1.76191C38.2487 0.636868 38.8855 0.0849609 39.923 0.0849609C40.9631 0.0849609 41.5999 0.636868 41.5999 1.76191V13.75C41.5999 15.1297 41.0056 15.9151 39.5409 15.9151C38.4371 15.9151 38.0762 15.6816 37.6305 14.9811L31.5834 5.43156H31.5409V14.2382C31.5409 15.3632 30.9041 15.9151 29.864 15.9151C28.8238 15.9151 28.187 15.3632 28.187 14.2382V2.12277H28.1897Z" fill="#E30613"/>
  <path d="M47.1324 3.29068H44.6515C43.6538 3.29068 42.8472 2.78123 42.8472 1.826C42.8472 0.870781 43.6538 0.361328 44.6515 0.361328H53.0919C54.0896 0.361328 54.8963 0.870781 54.8963 1.826C54.8963 2.78123 54.0896 3.29068 53.0919 3.29068H50.611V14.1776C50.611 15.2177 49.9317 15.9182 48.8704 15.9182C47.809 15.9182 47.1298 15.2177 47.1298 14.1776V3.29068H47.1324Z" fill="#E30613"/>
  <path d="M56.1538 2.39914C56.1538 0.849554 56.9604 0.361328 58.189 0.361328H65.8201C66.839 0.361328 67.582 0.658509 67.582 1.76232C67.582 2.86614 66.8417 3.16332 65.8201 3.16332H59.6324V6.47211H64.9923C65.9051 6.47211 66.6268 6.72683 66.6268 7.80942C66.6268 8.89201 65.9051 9.14674 64.9923 9.14674H59.6324V12.8403H65.99C67.0089 12.8403 67.7518 13.1374 67.7518 14.2413C67.7518 15.3451 67.0089 15.6423 65.99 15.6423H58.189C56.9578 15.6423 56.1538 15.154 56.1538 13.6044V2.39914Z" fill="#E30613"/>
  <path d="M69.2776 2.39914C69.2776 0.849554 70.0842 0.361328 71.3154 0.361328H76.5691C80.7084 0.361328 81.8096 2.63264 81.8096 4.60411C81.8096 6.25984 80.8331 7.89433 79.1801 8.27642V8.31887C80.9632 8.5736 81.2816 9.86846 81.2816 11.418C81.2816 13.1799 81.7486 13.8353 81.7486 14.5597C81.7486 15.3663 80.9207 15.9182 80.1141 15.9182C78.2036 15.9182 78.055 14.0714 78.055 13.4559C78.055 10.7812 77.5668 9.70129 75.6563 9.70129H72.7562V14.1776C72.7562 15.2177 72.0769 15.9182 71.0155 15.9182C69.9542 15.9182 69.2749 15.2177 69.2749 14.1776V2.39914H69.2776ZM72.7562 7.15138H75.6961C77.0122 7.15138 78.3283 6.81174 78.3283 5.09234C78.3283 3.45785 77.3306 3.0333 75.8023 3.0333H72.7562V7.15138Z" fill="#E30613"/>
  <path d="M125.93 2.39914C125.93 0.849554 126.737 0.361328 127.968 0.361328H133.222C137.359 0.361328 138.462 2.63264 138.462 4.60411C138.462 6.25984 137.486 7.89433 135.833 8.27642V8.31887C137.616 8.5736 137.934 9.86846 137.934 11.418C137.934 13.1799 138.401 13.8353 138.401 14.5597C138.401 15.3663 137.574 15.9182 136.767 15.9182C134.856 15.9182 134.708 14.0714 134.708 13.4559C134.708 10.7812 134.22 9.70129 132.309 9.70129H129.412V14.1776C129.412 15.2177 128.732 15.9182 127.671 15.9182C126.61 15.9182 125.93 15.2177 125.93 14.1776V2.39914ZM129.412 7.15138H132.352C133.668 7.15138 134.984 6.81174 134.984 5.09234C134.984 3.45785 133.986 3.0333 132.458 3.0333H129.412V7.15138Z" fill="#164196"/>
  <path d="M92.1287 6.79005C95.3102 7.51177 96.1195 9.401 96.1195 11.1841C96.1195 13.9436 94.0392 16 89.8389 16C85.4263 16 83.4521 13.7924 83.4521 12.1367C83.4521 11.2876 84.0677 10.6932 84.9168 10.6932C86.806 10.6932 86.3178 13.4527 89.8389 13.4527C91.6432 13.4527 92.6409 12.4551 92.6409 11.4362C92.6409 10.8206 92.3437 10.1413 91.155 9.84411L87.2306 8.84643C84.0704 8.0398 83.4973 6.29917 83.4973 4.66468C83.4919 1.27363 86.6336 0 89.5815 0C92.2986 0 95.5012 1.52836 95.5012 3.56352C95.5012 4.43383 94.7583 4.94328 93.9092 4.94328C92.2959 4.94328 92.5931 2.67197 89.3453 2.67197C87.7321 2.67197 86.8405 3.41493 86.8405 4.47629C86.8405 5.53765 88.1142 5.87728 89.2153 6.13201L92.1287 6.79005Z" fill="#164196"/>
  <path d="M97.645 2.39914C97.645 0.849554 98.4517 0.361328 99.6828 0.361328H104.47C107.399 0.361328 109.752 1.80478 109.752 5.19848C109.752 7.97924 107.821 10.0356 104.448 10.0356H101.126V14.1723C101.126 15.2124 100.447 15.9129 99.3856 15.9129C98.3243 15.9129 97.645 15.2124 97.645 14.1723V2.39914ZM101.124 7.36365H103.83C105.231 7.36365 106.269 6.51456 106.269 5.19848C106.269 3.67012 105.186 3.0333 103.467 3.0333H101.121V7.36365H101.124Z" fill="#164196"/>
  <path d="M117.4 0C122.409 0 124.046 3.33267 124.046 7.80896C124.046 12.1154 122.622 16 117.4 16C111.926 16 110.753 12.4365 110.753 7.80896C110.753 3.33267 112.393 0 117.4 0ZM117.4 13.198C120.56 13.198 120.565 10.7383 120.565 7.80896C120.565 4.8796 120.244 2.80199 117.4 2.80199C114.555 2.80199 114.234 4.88226 114.234 7.80896C114.234 10.7383 114.131 13.198 117.4 13.198Z" fill="#164196"/>
  <path d="M143.095 3.29068H140.614C139.617 3.29068 138.81 2.78123 138.81 1.826C138.81 0.870781 139.617 0.361328 140.614 0.361328H149.055C150.053 0.361328 150.859 0.870781 150.859 1.826C150.859 2.78123 150.053 3.29068 149.055 3.29068H146.574V14.1776C146.574 15.2177 145.895 15.9182 144.833 15.9182C143.772 15.9182 143.093 15.2177 143.093 14.1776V3.29068H143.095Z" fill="#164196"/>
  <path d="M0 3.61359C0 1.72437 1.53101 0.193359 3.42023 0.193359C5.30945 0.193359 6.84046 1.72437 6.84046 3.61359C6.84046 5.50281 5.30945 7.03382 3.42023 7.03382C1.53101 7.03382 0 5.50281 0 3.61359Z" fill="#E30613"/>
  <path d="M3.42554 15.7663C2.95854 15.7663 2.5791 15.3523 2.5791 14.8429V9.23626C2.5791 8.72681 2.94527 8.31288 3.42554 8.31288C8.80663 8.31288 9.23383 1.0293 16.9658 1.0293C17.4328 1.0293 17.8123 1.44323 17.8123 1.95268V7.50094C17.8123 8.01039 17.4328 8.42432 16.9658 8.42432C11.6935 8.42432 11.3645 15.7663 3.42554 15.7663Z" fill="#164196"/>
</svg>
