<svg id="Ebene_1" data-name="Ebene 1" xmlns="http://www.w3.org/2000/svg" width="200" height="24" viewBox="0 0 198.3 20.51">
  <title>logo-intersport</title>
  <g>
    <path d="M28.93,4.34a2.23,2.23,0,0,1,4.46,0V20.17a2.23,2.23,0,1,1-4.46,0V4.34Z" transform="translate(-1 -2)" fill="#e30f1b"/>
    <path d="M37.14,4.72c0-1.85.9-2.61,2.8-2.61a2.46,2.46,0,0,1,2.23,1.17L50,15.88H50V4.26a2.15,2.15,0,1,1,4.3,0V19.63c0,1.77-.76,2.78-2.64,2.78a2.31,2.31,0,0,1-2.45-1.2L41.5,9H41.44V20.26a1.94,1.94,0,0,1-2.15,2.15,1.94,1.94,0,0,1-2.15-2.15V4.72Z" transform="translate(-1 -2)" fill="#e30f1b"/>
    <path d="M61.43,6.22H58.25c-1.28,0-2.31-.65-2.31-1.88s1-1.88,2.31-1.88H69.07c1.28,0,2.31.65,2.31,1.88s-1,1.88-2.31,1.88H65.9v14a2.23,2.23,0,0,1-4.46,0v-14Z" transform="translate(-1 -2)" fill="#e30f1b"/>
    <path d="M73,5.07c0-2,1-2.61,2.61-2.61h9.78c1.31,0,2.26.38,2.26,1.8s-1,1.8-2.26,1.8H77.46V10.3h6.87c1.17,0,2.1.33,2.1,1.71s-0.93,1.71-2.1,1.71H77.46v4.73h8.15c1.31,0,2.26.38,2.26,1.8s-1,1.8-2.26,1.8h-10C74,22.05,73,21.43,73,19.44V5.07Z" transform="translate(-1 -2)" fill="#e30f1b"/>
    <path d="M94.29,11.17h3.77c1.69,0,3.37-.44,3.37-2.64s-1.28-2.64-3.24-2.64H94.29v5.28ZM89.83,5.07c0-2,1-2.61,2.61-2.61h6.74c5.31,0,6.72,2.91,6.72,5.44a4.68,4.68,0,0,1-3.37,4.71v0.05c2.28,0.33,2.69,2,2.69,4,0,2.26.6,3.1,0.6,4a2,2,0,0,1-2.09,1.74c-2.45,0-2.64-2.37-2.64-3.16,0-3.43-.63-4.82-3.08-4.82H94.29v5.74a2.23,2.23,0,1,1-4.46,0V5.07Z" transform="translate(-1 -2)" fill="#e30f1b"/>
    <path d="M166.93,11.17h3.77c1.69,0,3.37-.44,3.37-2.64s-1.28-2.64-3.24-2.64h-3.91v5.28Zm-4.46-6.09c0-2,1-2.61,2.61-2.61h6.74c5.31,0,6.72,2.91,6.72,5.44a4.68,4.68,0,0,1-3.37,4.71v0.05c2.28,0.33,2.69,2,2.69,4,0,2.26.6,3.1,0.6,4a2,2,0,0,1-2.09,1.74c-2.45,0-2.64-2.37-2.64-3.16,0-3.43-.63-4.82-3.08-4.82h-3.72v5.74a2.23,2.23,0,1,1-4.46,0V5.07Z" transform="translate(-1 -2)" fill="#11448f"/>
    <path d="M119.13,10.71c4.08,0.93,5.12,3.35,5.12,5.63,0,3.54-2.67,6.18-8.05,6.18-5.66,0-8.19-2.83-8.19-5a1.79,1.79,0,0,1,1.88-1.85c2.42,0,1.8,3.54,6.31,3.54,2.31,0,3.59-1.28,3.59-2.58,0-.79-0.38-1.66-1.9-2l-5-1.28c-4.05-1-4.79-3.26-4.79-5.36,0-4.35,4-6,7.81-6,3.48,0,7.59,2,7.59,4.57a1.85,1.85,0,0,1-2,1.77c-2.07,0-1.69-2.91-5.85-2.91-2.07,0-3.21,1-3.21,2.31s1.63,1.8,3,2.12Z" transform="translate(-1 -2)" fill="#11448f"/>
    <path d="M130.66,11.44h3.47a2.83,2.83,0,0,0,3.13-2.78c0-2-1.39-2.78-3.59-2.78h-3v5.55ZM126.2,5.07c0-2,1-2.61,2.61-2.61h6.14c3.75,0,6.78,1.85,6.78,6.2,0,3.56-2.48,6.2-6.8,6.2h-4.26v5.31a2.23,2.23,0,1,1-4.46,0V5.07Z" transform="translate(-1 -2)" fill="#11448f"/>
    <path d="M151.53,18.92c4.05,0,4.06-3.16,4.06-6.91s-0.41-6.42-4.06-6.42-4.06,2.67-4.06,6.42-0.13,6.91,4.06,6.91m0-16.92c6.42,0,8.52,4.27,8.52,10,0,5.52-1.83,10.5-8.52,10.5-7,0-8.52-4.57-8.52-10.5,0-5.74,2.1-10,8.52-10" transform="translate(-1 -2)" fill="#11448f"/>
    <path d="M184.48,6.22H181.3C180,6.22,179,5.56,179,4.34s1-1.88,2.31-1.88h10.82c1.28,0,2.31.65,2.31,1.88s-1,1.88-2.31,1.88h-3.18v14a2.23,2.23,0,0,1-4.46,0v-14Z" transform="translate(-1 -2)" fill="#11448f"/>
    <path d="M197.12,4.21V3.5h0.57a0.57,0.57,0,0,1,.32.06,0.3,0.3,0,0,1,.16.27,0.34,0.34,0,0,1-.12.26,0.54,0.54,0,0,1-.4.11h-0.54Zm1.37,1.06L198,4.35a0.51,0.51,0,0,0,.18-0.94,0.93,0.93,0,0,0-.52-0.12h-0.86v2h0.29V4.41h0.58l0.43,0.86h0.36Z" transform="translate(-1 -2)" fill="#11448f"/>
    <path d="M197.56,2.89A1.43,1.43,0,1,0,199,4.33a1.44,1.44,0,0,0-1.43-1.43m0,3.17a1.74,1.74,0,1,1,1.74-1.74,1.74,1.74,0,0,1-1.74,1.74" transform="translate(-1 -2)" fill="#11448f"/>
    <path d="M1,6.63A4.39,4.39,0,1,1,5.39,11,4.39,4.39,0,0,1,1,6.63" transform="translate(-1 -2)" fill="#e30f1b"/>
    <path d="M5.39,22.21A1.14,1.14,0,0,1,4.3,21V13.84a1.13,1.13,0,0,1,1.09-1.18c6.9,0,7.45-9.34,17.36-9.34A1.14,1.14,0,0,1,23.84,4.5v7.11a1.14,1.14,0,0,1-1.09,1.18c-6.76,0-7.18,9.41-17.36,9.41" transform="translate(-1 -2)" fill="#11448f"/>
  </g>
</svg>
