<?xml version="1.0" encoding="UTF-8"?>
<svg width="100px" height="48px" viewBox="0 0 100 48" version="1.1" xmlns="http://www.w3.org/2000/svg" xmlns:xlink="http://www.w3.org/1999/xlink">
    <!-- Generator: Sketch 55 (78076) - https://sketchapp.com -->
    <title>logo</title>
    <desc>Created with Sketch.</desc>
    <defs>
        <linearGradient x1="97.7434087%" y1="43.7284804%" x2="-5.26314482%" y2="65.6760629%" id="linearGradient-1">
            <stop stop-color="#242762" offset="0%"></stop>
            <stop stop-color="#344697" offset="100%"></stop>
        </linearGradient>
        <linearGradient x1="97.7434087%" y1="48.0102955%" x2="-5.26314482%" y2="54.9733931%" id="linearGradient-2">
            <stop stop-color="#344697" offset="0%"></stop>
            <stop stop-color="#242762" offset="100%"></stop>
        </linearGradient>
    </defs>
    <g id="🕹-[Setup]:-Symbols" stroke="none" stroke-width="1" fill="none" fill-rule="evenodd">
        <g id="Header-Copy-2" transform="translate(-150.000000, -26.000000)">
            <g id="logo" transform="translate(150.000000, 26.000000)">
                <path d="M55.9530792,47.6456727 L56.2560117,47.7922909 C57.5167155,47.8853818 58.7739003,47.9307636 60.0228739,47.9325091 L60.0228739,47.9325091 L60.172434,47.9325091 C76.971261,47.9092364 92.2806452,39.9959273 95.6228739,33.8112 L95.6228739,33.8112 C98.2656891,28.9192727 97.4290323,23.3524364 93.3307918,19.6730182 L93.3307918,19.6730182 C98.2073314,38.9268364 68.4217009,45.7329455 55.9530792,47.6456727" id="Fill-23" fill="url(#linearGradient-1)"></path>
                <path d="M55.2058651,-4.26325641e-14 C29.1093842,0.0218181818 12.8583578,11.3780364 12.8583578,11.3780364 L12.8583578,11.3780364 C30.6718475,5.03738182 39.6835777,5.14152727 53.516129,5.35069091 L53.516129,5.35069091 C66.5744868,5.5456 104.862757,11.1709091 97.2190616,32.9498182 L97.2190616,32.9498182 C97.1384164,33.1790545 96.9747801,33.3728 96.8472141,33.5813818 L96.8472141,33.5813818 C98.831085,31.4426182 99.7387097,28.3077818 99.7524927,24.8605091 L99.7524927,24.8605091 C99.8131965,10.7685818 81.9791789,0.678109091 57.6900293,0.032 L57.6900293,0.032 C56.9082111,0.0113454545 56.1304985,0.000872727273 55.3656891,-4.26325641e-14 L55.3656891,-4.26325641e-14 L55.2058651,-4.26325641e-14 Z" id="Fill-26" fill="url(#linearGradient-2)"></path>
                <path d="M72.229824,26.9719273 L72.229824,28.6952727 C71.6277713,28.3386182 71.0142815,28.1434182 70.4353959,28.1434182 C69.9491789,28.1434182 69.2776246,28.2816 69.2776246,28.7872 C69.2776246,29.7518545 72.8324633,28.9364364 72.8324633,31.9918545 C72.8324633,33.3701818 71.558563,34.2658909 70.0532845,34.2658909 C68.9532845,34.2658909 68.0614956,33.9904 67.3782111,33.5197091 L67.3782111,31.6698182 C68.1075367,32.2673455 68.9069501,32.5544727 69.7635484,32.5544727 C70.2960997,32.5544727 70.8406745,32.3592727 70.8406745,31.9112727 C70.8406745,30.8546909 67.2858358,31.6814545 67.2858358,28.8215273 C67.2858358,27.1447273 68.6521114,26.4436364 70.1459531,26.4436364 C70.8984457,26.4436364 71.6277713,26.6504727 72.229824,26.9719273" id="Fill-19" fill="#2F4696"></path>
                <path d="M78.7258358,30.3375418 C78.7258358,28.5115055 77.9381525,28.1205236 77.0932845,28.1205236 C76.2478299,28.1205236 75.4604399,28.5115055 75.4604399,30.3375418 C75.4604399,32.1638691 76.2478299,32.55456 77.0932845,32.55456 C77.9381525,32.55456 78.7258358,32.1638691 78.7258358,30.3375418 M80.7173314,30.3375418 C80.7173314,33.5654691 78.7490029,34.2429964 77.0932845,34.2429964 C75.437566,34.2429964 73.4689443,33.5654691 73.4689443,30.3375418 C73.4689443,27.1099055 75.437566,26.4320873 77.0932845,26.4320873 C78.7490029,26.4320873 80.7173314,27.1099055 80.7173314,30.3375418" id="Fill-20" fill="#2F4696"></path>
                <path d="M86.4950733,26.9719273 L86.4950733,28.6952727 C85.8930205,28.3386182 85.2792375,28.1434182 84.7006452,28.1434182 C84.2141349,28.1434182 83.5425806,28.2816 83.5425806,28.7872 C83.5425806,29.7518545 87.0974194,28.9364364 87.0974194,31.9918545 C87.0974194,33.3701818 85.8235191,34.2658909 84.3182405,34.2658909 C83.2182405,34.2658909 82.3267449,33.9904 81.6431672,33.5197091 L81.6431672,31.6698182 C82.3730792,32.2673455 83.1721994,32.5544727 84.0290909,32.5544727 C84.5616422,32.5544727 85.1056305,32.3592727 85.1056305,31.9112727 C85.1056305,30.8546909 81.551085,31.6814545 81.551085,28.8215273 C81.551085,27.1447273 82.9170674,26.4436364 84.4112023,26.4436364 C85.1634018,26.4436364 85.8930205,26.6504727 86.4950733,26.9719273" id="Fill-21" fill="#2F4696"></path>
                <polygon id="Fill-1" fill="#232762" points="-1.82076576e-14 24.8128 1.99120235 24.8128 1.99120235 17.1517091 -1.82076576e-14 17.1517091"></polygon>
                <polygon id="Fill-2" fill="#232762" points="10.3859238 17.1517673 10.3859238 24.8128582 8.41759531 24.8128582 5.25659824 20.2528582 5.25659824 24.8128582 3.26480938 24.8128582 3.26480938 17.1517673 5.25659824 17.1517673 8.39442815 21.7458036 8.39442815 17.1517673"></polygon>
                <polygon id="Fill-3" fill="#232762" points="17.5531965 17.1517673 17.5531965 18.9434764 15.3068622 18.9434764 15.3068622 24.8128582 13.3153666 24.8128582 13.3153666 18.9434764 11.0919062 18.9434764 11.0919062 17.1517673"></polygon>
                <polygon id="Fill-4" fill="#232762" points="20.1120235 18.7597091 20.1120235 20.1723636 23.0530792 20.1723636 23.0530792 21.7918545 20.1120235 21.7918545 20.1120235 23.1934545 23.5046921 23.1934545 23.5046921 24.8129455 18.1202346 24.8129455 18.1202346 17.1518545 23.5046921 17.1518545 23.5046921 18.7597091"></polygon>
                <path d="M27.5802933,20.7696582 C28.1011144,20.7696582 28.5761877,20.3792582 28.5761877,19.7700945 C28.5761877,19.1501673 28.1011144,18.7597673 27.5802933,18.7597673 L26.3993548,18.7597673 L26.3993548,20.7696582 L27.5802933,20.7696582 Z M30.8805865,24.8127127 L28.6571261,24.8127127 L27.2210557,22.2515491 L26.3993548,22.2515491 L26.3993548,24.8127127 L24.4078592,24.8127127 L24.4078592,17.1516218 L27.4527273,17.1516218 C29.2940762,17.1516218 30.5679765,18.0243491 30.5679765,19.64384 C30.5679765,20.9075491 29.9078592,21.6656582 29.0160704,21.9530764 L30.8805865,24.8127127 Z" id="Fill-5" fill="#232762"></path>
                <polygon id="Fill-7" fill="#232762" points="38.7194135 17.1517673 38.7194135 24.8128582 36.751085 24.8128582 33.590088 20.2528582 33.590088 24.8128582 31.5982991 24.8128582 31.5982991 17.1517673 33.590088 17.1517673 36.7279179 21.7458036 36.7279179 17.1517673"></polygon>
                <path d="M44.2657771,21.5163927 L43.489824,19.1387927 L42.702434,21.5163927 L44.2657771,21.5163927 Z M47.4962757,24.8129745 L45.3540469,24.8129745 L44.7517009,22.9750109 L42.227654,22.9750109 L41.6253079,24.8129745 L39.4833724,24.8129745 L42.5517009,17.1518836 L44.4273607,17.1518836 L47.4962757,24.8129745 Z" id="Fill-9" fill="#232762"></path>
                <polygon id="Fill-11" fill="#232762" points="52.8686804 17.1517673 52.8686804 18.9434764 50.622346 18.9434764 50.622346 24.8128582 48.6305572 24.8128582 48.6305572 18.9434764 46.4076833 18.9434764 46.4076833 17.1517673"></polygon>
                <polygon id="Fill-13" fill="#232762" points="53.4357771 24.8128 55.4272727 24.8128 55.4272727 17.1517091 53.4357771 17.1517091"></polygon>
                <path d="M61.6683578,20.9763491 C61.6683578,19.1503127 60.8809677,18.7596218 60.0358065,18.7596218 C59.1906452,18.7596218 58.4029619,19.1503127 58.4029619,20.9763491 C58.4029619,22.8026764 59.1906452,23.1933673 60.0358065,23.1933673 C60.8809677,23.1933673 61.6683578,22.8026764 61.6683578,20.9763491 M63.6598534,20.9763491 C63.6598534,24.2039855 61.6915249,24.8818036 60.0358065,24.8818036 C58.3797947,24.8818036 56.411173,24.2039855 56.411173,20.9763491 C56.411173,17.7487127 58.3797947,17.0711855 60.0358065,17.0711855 C61.6915249,17.0711855 63.6598534,17.7487127 63.6598534,20.9763491" id="Fill-15" fill="#232762"></path>
                <polygon id="Fill-16" fill="#232762" points="71.707478 17.1517673 71.707478 24.8128582 69.7388563 24.8128582 66.5778592 20.2528582 66.5778592 24.8128582 64.5860704 24.8128582 64.5860704 17.1517673 66.5778592 17.1517673 69.7156891 21.7458036 69.7156891 17.1517673"></polygon>
                <path d="M77.2417889,21.5163927 L76.466129,19.1387927 L75.678739,21.5163927 L77.2417889,21.5163927 Z M80.4725806,24.8129745 L78.3303519,24.8129745 L77.7282991,22.9750109 L75.2039589,22.9750109 L74.6019062,24.8129745 L72.4596774,24.8129745 L75.5282991,17.1518836 L77.4039589,17.1518836 L80.4725806,24.8129745 Z" id="Fill-17" fill="#232762"></path>
                <polygon id="Fill-18" fill="#232762" points="86.4936657 23.0325818 86.4936657 24.8129455 81.0746041 24.8129455 81.0746041 17.1518545 83.0660997 17.1518545 83.0660997 23.0325818"></polygon>
            </g>
        </g>
    </g>
</svg>