<?xml version="1.0" encoding="utf-8"?>
<!-- Generator: Adobe Illustrator 24.0.2, SVG Export Plug-In . SVG Version: 6.00 Build 0)  -->
<svg version="1.1" id="Layer_1" xmlns="http://www.w3.org/2000/svg" xmlns:xlink="http://www.w3.org/1999/xlink" x="0px" y="0px"
	 viewBox="0 0 154.7 16" style="enable-background:new 0 0 154.7 16;" xml:space="preserve">
<g>
	<g>
		<defs>
			<rect id="SVGID_1_" y="0" width="154.7" height="16"/>
		</defs>
		<clipPath id="SVGID_2_">
			<use xlink:href="#SVGID_1_"  style="overflow:visible;"/>
		</clipPath>
		<g style="clip-path:url(#SVGID_2_);">
			<path style="fill:#E30613;" d="M21.8,1.8c0-1,0.7-1.7,1.7-1.7c1.1,0,1.7,0.7,1.7,1.7v12.3c0,1-0.7,1.7-1.7,1.7
				c-1.1,0-1.7-0.7-1.7-1.7V1.8z"/>
			<path style="fill:#E30613;" d="M28.2,2.1c0-1.4,0.7-2,2.2-2c0.7,0,1.4,0.3,1.7,0.9l6.1,9.8l0,0v-9c0-1.1,0.6-1.7,1.7-1.7
				c1,0,1.7,0.6,1.7,1.7v12c0,1.4-0.6,2.2-2.1,2.2c-1.1,0-1.5-0.2-1.9-0.9l-6-9.5l0,0v8.8c0,1.1-0.6,1.7-1.7,1.7
				c-1,0-1.7-0.6-1.7-1.7V2.1L28.2,2.1z"/>
			<path style="fill:#E30613;" d="M47.1,3.3h-2.5c-1,0-1.8-0.5-1.8-1.5s0.8-1.5,1.8-1.5H53c1,0,1.8,0.5,1.8,1.5S54,3.3,53,3.3h-2.5
				v10.9c0,1-0.7,1.7-1.7,1.7c-1.1,0-1.7-0.7-1.7-1.7V3.3L47.1,3.3z"/>
			<path style="fill:#E30613;" d="M56.2,2.4c0-1.5,0.8-2,2-2h7.6c1,0,1.8,0.3,1.8,1.4s-0.7,1.4-1.8,1.4h-6.2v3.3H65
				c0.9,0,1.6,0.3,1.6,1.3S65.9,9.1,65,9.1h-5.4v3.7H66c1,0,1.8,0.3,1.8,1.4s-0.7,1.4-1.8,1.4h-7.8c-1.2,0-2-0.5-2-2V2.4z"/>
			<path style="fill:#E30613;" d="M69.3,2.4c0-1.5,0.8-2,2-2h5.3c4.1,0,5.2,2.3,5.2,4.2c0,1.7-1,3.3-2.6,3.7l0,0
				c1.8,0.3,2.1,1.5,2.1,3.1c0,1.8,0.5,2.4,0.5,3.1c0,0.8-0.8,1.4-1.6,1.4c-1.9,0-2.1-1.8-2.1-2.5c0-2.7-0.5-3.8-2.4-3.8h-2.9v4.5
				c0,1-0.7,1.7-1.7,1.7s-1.7-0.7-1.7-1.7L69.3,2.4L69.3,2.4z M72.8,7.2h2.9c1.3,0,2.6-0.3,2.6-2.1c0-1.6-1-2.1-2.5-2.1h-3V7.2z"/>
			<path style="fill:#164196;" d="M125.9,2.4c0-1.5,0.8-2,2-2h5.3c4.1,0,5.2,2.3,5.2,4.2c0,1.7-1,3.3-2.6,3.7l0,0
				c1.8,0.3,2.1,1.5,2.1,3.1c0,1.8,0.5,2.4,0.5,3.1c0,0.8-0.8,1.4-1.6,1.4c-1.9,0-2.1-1.8-2.1-2.5c0-2.7-0.5-3.8-2.4-3.8h-2.9v4.5
				c0,1-0.7,1.7-1.7,1.7c-1.1,0-1.7-0.7-1.7-1.7L125.9,2.4L125.9,2.4z M129.4,7.2h2.9c1.3,0,2.6-0.3,2.6-2.1c0-1.6-1-2.1-2.5-2.1h-3
				V7.2z"/>
			<path style="fill:#164196;" d="M92.1,6.8c3.2,0.7,4,2.6,4,4.4c0,2.8-2.1,4.8-6.3,4.8c-4.4,0-6.4-2.2-6.4-3.9
				c0-0.8,0.6-1.4,1.5-1.4c1.9,0,1.4,2.8,4.9,2.8c1.8,0,2.8-1,2.8-2c0-0.6-0.3-1.3-1.5-1.6l-3.9-1c-3.2-0.8-3.7-2.5-3.7-4.2
				c0-3.4,3.1-4.7,6.1-4.7c2.7,0,5.9,1.5,5.9,3.6c0,0.9-0.7,1.4-1.6,1.4c-1.6,0-1.3-2.3-4.6-2.3c-1.6,0-2.5,0.7-2.5,1.8
				s1.3,1.4,2.4,1.7L92.1,6.8z"/>
			<path style="fill:#164196;" d="M97.6,2.4c0-1.5,0.8-2,2-2h4.8c2.9,0,5.3,1.4,5.3,4.8c0,2.8-1.9,4.8-5.3,4.8h-3.3v4.1
				c0,1-0.7,1.7-1.7,1.7c-1.1,0-1.7-0.7-1.7-1.7V2.4H97.6z M101.1,7.4h2.7c1.4,0,2.4-0.8,2.4-2.2c0-1.5-1.1-2.2-2.8-2.2h-2.3
				L101.1,7.4L101.1,7.4z"/>
			<path style="fill:#164196;" d="M117.4,0c5,0,6.6,3.3,6.6,7.8c0,4.3-1.4,8.2-6.6,8.2c-5.5,0-6.6-3.6-6.6-8.2
				C110.8,3.3,112.4,0,117.4,0z M117.4,13.2c3.2,0,3.2-2.5,3.2-5.4s-0.3-5-3.2-5c-2.8,0-3.2,2.1-3.2,5
				C114.2,10.7,114.1,13.2,117.4,13.2z"/>
			<path style="fill:#164196;" d="M143.1,3.3h-2.5c-1,0-1.8-0.5-1.8-1.5s0.8-1.5,1.8-1.5h8.4c1,0,1.8,0.5,1.8,1.5S150,3.3,149,3.3
				h-2.5v10.9c0,1-0.7,1.7-1.7,1.7c-1.1,0-1.7-0.7-1.7-1.7V3.3L143.1,3.3z"/>
			<path style="fill:#164196;" d="M154,2.5l-0.4-0.7c0.2-0.1,0.3-0.2,0.3-0.4c0-0.1-0.1-0.3-0.2-0.3c0-0.1-0.1-0.1-0.3-0.1h-0.7v1.5
				h0.2V1.9h0.5l0.3,0.7L154,2.5L154,2.5z M153,1.7V1.2h0.4c0.1,0,0.2,0,0.2,0.1c0.1,0.1,0.1,0.1,0.1,0.2s0,0.1-0.1,0.2
				s-0.2,0.1-0.3,0.1H153V1.7z"/>
			<path style="fill:#164196;" d="M153.3,3.2c-0.7,0-1.4-0.6-1.4-1.4c0-0.7,0.6-1.4,1.4-1.4s1.4,0.6,1.4,1.4S154.1,3.2,153.3,3.2z
				 M153.3,0.7c-0.6,0-1.1,0.5-1.1,1.1s0.5,1.1,1.1,1.1s1.1-0.5,1.1-1.1C154.4,1.2,153.9,0.7,153.3,0.7z"/>
			<path style="fill:#E30613;" d="M0,3.6c0-1.9,1.5-3.4,3.4-3.4s3.4,1.5,3.4,3.4S5.3,7,3.4,7S0,5.5,0,3.6z"/>
			<path style="fill:#164196;" d="M3.4,15.8c-0.5,0-0.8-0.4-0.8-0.9V9.2c0-0.5,0.4-0.9,0.8-0.9C8.8,8.3,9.2,1,17,1
				c0.5,0,0.8,0.4,0.8,0.9v5.5c0,0.5-0.4,0.9-0.8,0.9C11.7,8.4,11.4,15.8,3.4,15.8z"/>
		</g>
	</g>
</g>
</svg>
