<svg width="225" height="24" viewBox="0 0 225 24" fill="none" xmlns="http://www.w3.org/2000/svg">
  <path d="M32.4602 2.79971C32.4602 1.24984 33.4724 0.206055 35.0539 0.206055C36.6354 0.206055 37.6475 1.24984 37.6475 2.79971V21.2004C37.6475 22.7503 36.6354 23.7941 35.0539 23.7941C33.4724 23.7941 32.4602 22.7503 32.4602 21.2004V2.79971Z" fill="#E30613"/>
  <path d="M42.0044 3.24253C42.0044 1.09169 43.0482 0.206055 45.2623 0.206055C46.3377 0.206055 47.2866 0.617244 47.856 1.56614L56.9298 16.2068H56.9931V2.70482C56.9931 1.02843 57.942 0.206055 59.4879 0.206055C61.0378 0.206055 61.9867 1.02843 61.9867 2.70482V20.5678C61.9867 22.6238 61.101 23.7941 58.9186 23.7941C57.2738 23.7941 56.7361 23.4461 56.0719 22.4024L47.0613 8.17284H46.998V21.2953C46.998 22.9717 46.0491 23.7941 44.4993 23.7941C42.9494 23.7941 42.0005 22.9717 42.0005 21.2953V3.24253H42.0044Z" fill="#E30613"/>
  <path d="M70.2304 4.98212H66.5336C65.047 4.98212 63.8451 4.223 63.8451 2.79965C63.8451 1.37631 65.047 0.617188 66.5336 0.617188H79.1105C80.5971 0.617188 81.799 1.37631 81.799 2.79965C81.799 4.223 80.5971 4.98212 79.1105 4.98212H75.4137V21.2043C75.4137 22.7542 74.4016 23.798 72.8201 23.798C71.2386 23.798 70.2264 22.7542 70.2264 21.2043V4.98212H70.2304Z" fill="#E30613"/>
  <path d="M83.6729 3.65366C83.6729 1.34468 84.8748 0.617188 86.7054 0.617188H98.0764C99.5946 0.617188 100.702 1.06001 100.702 2.70476C100.702 4.34952 99.5986 4.79234 98.0764 4.79234H88.8563V9.72265H96.8428C98.2029 9.72265 99.2783 10.1022 99.2783 11.7153C99.2783 13.3285 98.2029 13.708 96.8428 13.708H88.8563V19.2116H98.3294C99.8477 19.2116 100.955 19.6545 100.955 21.2992C100.955 22.944 99.8477 23.3868 98.3294 23.3868H86.7054C84.8709 23.3868 83.6729 22.6593 83.6729 20.3503V3.65366Z" fill="#E30613"/>
  <path d="M103.228 3.65366C103.228 1.34468 104.43 0.617188 106.265 0.617188H114.093C120.261 0.617188 121.902 4.00159 121.902 6.93922C121.902 9.40635 120.447 11.8419 117.984 12.4112V12.4745C120.64 12.854 121.115 14.7834 121.115 17.0924C121.115 19.7177 121.811 20.6943 121.811 21.7737C121.811 22.9756 120.577 23.798 119.375 23.798C116.529 23.798 116.307 21.0462 116.307 20.1289C116.307 16.1435 115.58 14.5344 112.733 14.5344H108.412V21.2043C108.412 22.7542 107.399 23.798 105.818 23.798C104.236 23.798 103.224 22.7542 103.224 21.2043V3.65366H103.228ZM108.412 10.7348H112.792C114.753 10.7348 116.714 10.2287 116.714 7.66671C116.714 5.2312 115.228 4.59861 112.95 4.59861H108.412V10.7348Z" fill="#E30613"/>
  <path d="M187.645 3.65366C187.645 1.34468 188.847 0.617188 190.681 0.617188H198.51C204.673 0.617188 206.318 4.00159 206.318 6.93922C206.318 9.40635 204.863 11.8419 202.4 12.4112V12.4745C205.057 12.854 205.531 14.7834 205.531 17.0924C205.531 19.7177 206.227 20.6943 206.227 21.7737C206.227 22.9756 204.994 23.798 203.792 23.798C200.945 23.798 200.724 21.0462 200.724 20.1289C200.724 16.1435 199.996 14.5344 197.149 14.5344H192.832V21.2043C192.832 22.7542 191.82 23.798 190.238 23.798C188.657 23.798 187.645 22.7542 187.645 21.2043V3.65366ZM192.832 10.7348H197.213C199.174 10.7348 201.135 10.2287 201.135 7.66671C201.135 5.2312 199.648 4.59861 197.371 4.59861H192.832V10.7348Z" fill="#164196"/>
  <path d="M137.278 10.1971C142.018 11.2725 143.224 14.0876 143.224 16.7445C143.224 20.8564 140.125 23.9205 133.866 23.9205C127.291 23.9205 124.349 20.631 124.349 18.1639C124.349 16.8987 125.266 16.013 126.532 16.013C129.347 16.013 128.619 20.1249 133.866 20.1249C136.554 20.1249 138.041 18.6383 138.041 17.1201C138.041 16.2028 137.598 15.1907 135.827 14.7478L129.979 13.2612C125.27 12.0593 124.416 9.46565 124.416 7.03014C124.409 1.97726 129.09 0.0794678 133.482 0.0794678C137.531 0.0794678 142.303 2.35682 142.303 5.38934C142.303 6.68617 141.196 7.44529 139.931 7.44529C137.527 7.44529 137.97 4.06088 133.13 4.06088C130.727 4.06088 129.398 5.16793 129.398 6.74943C129.398 8.33093 131.296 8.837 132.937 9.21656L137.278 10.1971Z" fill="#164196"/>
  <path d="M145.498 3.65366C145.498 1.34468 146.699 0.617188 148.534 0.617188H155.667C160.032 0.617188 163.538 2.76802 163.538 7.82486C163.538 11.9684 160.66 15.0325 155.635 15.0325H150.685V21.1964C150.685 22.7463 149.673 23.7901 148.091 23.7901C146.51 23.7901 145.498 22.7463 145.498 21.1964V3.65366ZM150.681 11.0511H154.714C156.801 11.0511 158.347 9.78591 158.347 7.82486C158.347 5.5475 156.734 4.59861 154.172 4.59861H150.677V11.0511H150.681Z" fill="#164196"/>
  <path d="M174.933 0.0794678C182.398 0.0794678 184.837 5.04537 184.837 11.7153C184.837 18.1322 182.714 23.9205 174.933 23.9205C166.777 23.9205 165.029 18.6107 165.029 11.7153C165.029 5.04537 167.473 0.0794678 174.933 0.0794678ZM174.933 19.7454C179.642 19.7454 179.65 16.0803 179.65 11.7153C179.65 7.3504 179.172 4.25462 174.933 4.25462C170.695 4.25462 170.216 7.35435 170.216 11.7153C170.216 16.0803 170.062 19.7454 174.933 19.7454Z" fill="#164196"/>
  <path d="M213.221 4.98212H209.525C208.038 4.98212 206.836 4.223 206.836 2.79965C206.836 1.37631 208.038 0.617188 209.525 0.617188H222.102C223.588 0.617188 224.79 1.37631 224.79 2.79965C224.79 4.223 223.588 4.98212 222.102 4.98212H218.405V21.2043C218.405 22.7542 217.393 23.798 215.811 23.798C214.23 23.798 213.218 22.7542 213.218 21.2043V4.98212H213.221Z" fill="#164196"/>
  <path d="M0 5.46429C0 2.64923 2.28131 0.36792 5.09637 0.36792C7.91144 0.36792 10.1927 2.64923 10.1927 5.46429C10.1927 8.27936 7.91144 10.5607 5.09637 10.5607C2.28131 10.5607 0 8.27936 0 5.46429Z" fill="#E30613"/>
  <path d="M5.10426 23.5726C4.4084 23.5726 3.84302 22.9558 3.84302 22.1967V13.8424C3.84302 13.0833 4.38863 12.4665 5.10426 12.4665C13.1224 12.4665 13.759 1.61353 25.2802 1.61353C25.9761 1.61353 26.5414 2.23031 26.5414 2.98943V11.2567C26.5414 12.0158 25.9761 12.6326 25.2802 12.6326C17.4241 12.6326 16.9339 23.5726 5.10426 23.5726Z" fill="#164196"/>
</svg>
