<svg xmlns="http://www.w3.org/2000/svg" fill="none" viewBox="0 0 227 24" height="24" width="227">
<path fill="#E30613" d="M32.6766 2.73839C32.6766 1.17819 33.6955 0.127441 35.2876 0.127441C36.8796 0.127441 37.8985 1.17819 37.8985 2.73839V21.2618C37.8985 22.822 36.8796 23.8727 35.2876 23.8727C33.6955 23.8727 32.6766 22.822 32.6766 21.2618V2.73839Z"></path>
<path fill="#E30613" d="M42.2846 3.18416C42.2846 1.01898 43.3353 0.127441 45.5642 0.127441C46.6468 0.127441 47.602 0.541372 48.1751 1.4966L57.3095 16.2349H57.3731V2.64286C57.3731 0.955302 58.3284 0.127441 59.8846 0.127441C61.4448 0.127441 62.4 0.955302 62.4 2.64286V20.625C62.4 22.6946 61.5085 23.8727 59.3115 23.8727C57.6557 23.8727 57.1144 23.5225 56.4458 22.4717L47.3751 8.14734H47.3115V21.3573C47.3115 23.0449 46.3562 23.8727 44.796 23.8727C43.2358 23.8727 42.2806 23.0449 42.2806 21.3573V3.18416H42.2846Z"></path>
<path fill="#E30613" d="M70.6985 4.93529H66.9771C65.4806 4.93529 64.2707 4.17111 64.2707 2.73827C64.2707 1.30544 65.4806 0.54126 66.9771 0.54126H79.6378C81.1343 0.54126 82.3443 1.30544 82.3443 2.73827C82.3443 4.17111 81.1343 4.93529 79.6378 4.93529H75.9164V21.2656C75.9164 22.8258 74.8975 23.8766 73.3055 23.8766C71.7134 23.8766 70.6945 22.8258 70.6945 21.2656V4.93529H70.6985Z"></path>
<path fill="#E30613" d="M84.2309 3.59798C84.2309 1.2736 85.4408 0.54126 87.2836 0.54126H98.7304C100.259 0.54126 101.373 0.987031 101.373 2.64275C101.373 4.29847 100.263 4.74425 98.7304 4.74425H89.4488V9.70743H97.4886C98.8577 9.70743 99.9403 10.0895 99.9403 11.7134C99.9403 13.3373 98.8577 13.7194 97.4886 13.7194H89.4488V19.2597H98.9851C100.513 19.2597 101.628 19.7054 101.628 21.3612C101.628 23.0169 100.513 23.4627 98.9851 23.4627H87.2836C85.4368 23.4627 84.2309 22.7303 84.2309 20.4059V3.59798Z"></path>
<path fill="#E30613" d="M103.916 3.59798C103.916 1.2736 105.126 0.54126 106.973 0.54126H114.854C121.063 0.54126 122.714 3.94823 122.714 6.90544C122.714 9.38902 121.25 11.8408 118.77 12.4139V12.4776C121.445 12.8597 121.922 14.802 121.922 17.1263C121.922 19.7691 122.623 20.7522 122.623 21.8388C122.623 23.0487 121.381 23.8766 120.171 23.8766C117.306 23.8766 117.083 21.1064 117.083 20.1831C117.083 16.1711 116.35 14.5512 113.485 14.5512H109.134V21.2656C109.134 22.8258 108.115 23.8766 106.523 23.8766C104.931 23.8766 103.912 22.8258 103.912 21.2656V3.59798H103.916ZM109.134 10.7263H113.544C115.518 10.7263 117.493 10.2169 117.493 7.63778C117.493 5.18604 115.996 4.54922 113.704 4.54922H109.134V10.7263Z"></path>
<path fill="#164196" d="M188.896 3.59798C188.896 1.2736 190.106 0.54126 191.952 0.54126H199.833C206.038 0.54126 207.694 3.94823 207.694 6.90544C207.694 9.38902 206.229 11.8408 203.749 12.4139V12.4776C206.424 12.8597 206.902 14.802 206.902 17.1263C206.902 19.7691 207.602 20.7522 207.602 21.8388C207.602 23.0487 206.36 23.8766 205.15 23.8766C202.285 23.8766 202.062 21.1064 202.062 20.1831C202.062 16.1711 201.329 14.5512 198.464 14.5512H194.117V21.2656C194.117 22.8258 193.099 23.8766 191.507 23.8766C189.914 23.8766 188.896 22.8258 188.896 21.2656V3.59798ZM194.117 10.7263H198.527C200.502 10.7263 202.476 10.2169 202.476 7.63778C202.476 5.18604 200.979 4.54922 198.687 4.54922H194.117V10.7263Z"></path>
<path fill="#164196" d="M138.193 10.1851C142.965 11.2677 144.179 14.1015 144.179 16.7761C144.179 20.9154 141.059 24 134.758 24C128.139 24 125.178 20.6886 125.178 18.205C125.178 16.9313 126.102 16.0398 127.375 16.0398C130.209 16.0398 129.477 20.1791 134.758 20.1791C137.465 20.1791 138.961 18.6826 138.961 17.1542C138.961 16.2308 138.515 15.2119 136.732 14.7662L130.846 13.2697C126.105 12.0597 125.246 9.44876 125.246 6.99701C125.238 1.91045 129.95 0 134.372 0C138.448 0 143.252 2.29254 143.252 5.34527C143.252 6.65075 142.137 7.41493 140.864 7.41493C138.444 7.41493 138.89 4.00796 134.018 4.00796C131.598 4.00796 130.261 5.12239 130.261 6.71443C130.261 8.30647 132.171 8.81592 133.823 9.19801L138.193 10.1851Z"></path>
<path fill="#164196" d="M146.468 3.59798C146.468 1.2736 147.678 0.54126 149.524 0.54126H156.704C161.099 0.54126 164.629 2.70643 164.629 7.79698C164.629 11.9681 161.731 15.0527 156.673 15.0527H151.69V21.2577C151.69 22.8179 150.671 23.8686 149.079 23.8686C147.487 23.8686 146.468 22.8179 146.468 21.2577V3.59798V3.59798ZM151.686 11.0447H155.745C157.847 11.0447 159.403 9.77111 159.403 7.79698C159.403 5.50444 157.779 4.54922 155.2 4.54922H151.682V11.0447H151.686Z"></path>
<path fill="#164196" d="M176.099 0C183.614 0 186.07 4.999 186.07 11.7134C186.07 18.1731 183.932 24 176.099 24C167.889 24 166.129 18.6547 166.129 11.7134C166.129 4.999 168.589 0 176.099 0ZM176.099 19.797C180.84 19.797 180.848 16.1075 180.848 11.7134C180.848 7.3194 180.366 4.20299 176.099 4.20299C171.833 4.20299 171.351 7.32338 171.351 11.7134C171.351 16.1075 171.196 19.797 176.099 19.797Z"></path>
<path fill="#164196" d="M214.643 4.93529H210.921C209.425 4.93529 208.215 4.17111 208.215 2.73827C208.215 1.30544 209.425 0.54126 210.921 0.54126H223.582C225.079 0.54126 226.289 1.30544 226.289 2.73827C226.289 4.17111 225.079 4.93529 223.582 4.93529H219.861V21.2656C219.861 22.8258 218.842 23.8766 217.25 23.8766C215.658 23.8766 214.639 22.8258 214.639 21.2656V4.93529H214.643Z"></path>
<path fill="#E30613" d="M0 5.42094C0 2.58711 2.29652 0.290588 5.13035 0.290588C7.96418 0.290588 10.2607 2.58711 10.2607 5.42094C10.2607 8.25477 7.96418 10.5513 5.13035 10.5513C2.29652 10.5513 0 8.25477 0 5.42094Z"></path>
<path fill="#164196" d="M5.1383 23.6498C4.43781 23.6498 3.86865 23.0289 3.86865 22.2647V13.8548C3.86865 13.0906 4.41791 12.4697 5.1383 12.4697C13.2099 12.4697 13.8507 1.54431 25.4487 1.54431C26.1492 1.54431 26.7184 2.16521 26.7184 2.92939V11.2518C26.7184 12.016 26.1492 12.6368 25.4487 12.6368C17.5403 12.6368 17.0468 23.6498 5.1383 23.6498Z"></path>
</svg>
