<?xml version="1.0" encoding="utf-8"?>
<!-- Generator: Adobe Illustrator 26.0.1, SVG Export Plug-In . SVG Version: 6.00 Build 0)  -->
<svg version="1.1" id="Calque_1" xmlns="http://www.w3.org/2000/svg" xmlns:xlink="http://www.w3.org/1999/xlink" x="0px" y="0px"
	 viewBox="0 0 756.17 283.46" style="enable-background:new 0 0 756.17 283.46;" xml:space="preserve">
<style type="text/css">
	.st0{fill:none;}
	.st1{fill:#FFCE00;}
</style>
<rect x="0" y="0" class="st0" width="756.17" height="283.46"/>
<g>
	<path d="M405.29,227.01c-4.52-1.37-6.5-2.24-6.5-4.83c0-2.32,3.08-3.14,5.72-3.14c2.31,0,4.79,0.69,6.48,1.79
		c0.4,0.26,0.89,0.34,1.35,0.21c0.46-0.12,0.84-0.44,1.06-0.86l0.77-1.54c0.38-0.76,0.13-1.68-0.58-2.15
		c-2.43-1.59-5.87-2.57-8.99-2.57c-6.55,0-10.96,3.37-10.96,8.37c0,6.51,5.49,8.15,9.91,9.48c4.62,1.39,6.64,2.28,6.61,5.02
		c0,2.76-3.25,3.74-6.29,3.74c-2.91,0-6.08-1.55-8.01-3.33c-0.38-0.35-0.88-0.56-1.39-0.5c-0.52,0.06-0.98,0.36-1.24,0.8l-0.89,1.5
		c-0.39,0.66-0.28,1.5,0.26,2.04c2.86,2.81,7.16,4.56,11.23,4.56c6.87,0,11.48-3.56,11.48-8.85
		C415.36,230.07,409.78,228.37,405.29,227.01"/>
	<path d="M435.55,214.98c-0.27-0.59-0.86-0.97-1.52-0.97h-1.82c-0.66,0-1.25,0.38-1.52,0.98l-12.8,28.23
		c-0.24,0.52-0.19,1.12,0.12,1.59c0.31,0.48,0.84,0.77,1.4,0.77h1.86c0.66,0,1.25-0.38,1.52-0.98l3.19-7.06h14.37l3.23,7.06
		c0.27,0.59,0.86,0.97,1.52,0.97h1.86c0.57,0,1.1-0.29,1.4-0.77c0.31-0.48,0.35-1.08,0.11-1.6L435.55,214.98z M428.22,232.51
		l4.89-10.85l4.95,10.85H428.22z"/>
	<path d="M456.86,214.01h-1.69c-0.92,0-1.67,0.75-1.67,1.67v28.23c0,0.92,0.75,1.67,1.67,1.67h1.69c0.92,0,1.67-0.75,1.67-1.67
		v-28.23C458.52,214.76,457.78,214.01,456.86,214.01"/>
	<path d="M492.08,214.01h-1.66c-0.92,0-1.67,0.75-1.67,1.67v20.56l-15.85-21.55c-0.31-0.43-0.81-0.68-1.34-0.68h-1.98
		c-0.92,0-1.67,0.75-1.67,1.67v28.23c0,0.92,0.75,1.67,1.67,1.67h1.69c0.92,0,1.67-0.75,1.67-1.67v-20.55l15.81,21.54
		c0.31,0.43,0.81,0.68,1.35,0.68h1.98c0.92,0,1.67-0.75,1.67-1.67v-28.23C493.75,214.76,493,214.01,492.08,214.01"/>
	<path d="M521.2,214.01h-20.76c-0.92,0-1.67,0.75-1.67,1.67v1.66c0,0.92,0.75,1.67,1.67,1.67h7.86v24.91c0,0.92,0.75,1.67,1.67,1.67
		h1.69c0.93,0,1.67-0.75,1.67-1.67V219h7.86c0.92,0,1.67-0.75,1.67-1.67v-1.66C522.87,214.76,522.12,214.01,521.2,214.01"/>
	<path d="M533.61,229.4h-9.01c-0.92,0-1.67,0.75-1.67,1.67v1.37c0,0.92,0.75,1.67,1.67,1.67h9.01c0.92,0,1.67-0.75,1.67-1.67v-1.37
		C535.28,230.15,534.54,229.4,533.61,229.4"/>
	<path d="M568.69,228.39h-1.54c-0.01,0-0.02,0-0.03,0h-5.01c-0.92,0-1.67,0.75-1.67,1.67v1.69c0,0.92,0.75,1.67,1.67,1.67h3.37v5.16
		c-1.97,1.35-4.33,2.08-6.73,2.08c-6.23,0-11.3-4.89-11.3-10.89c0-5.98,5.07-10.85,11.3-10.85c2.89,0,5.74,1.07,7.81,2.93
		c0.34,0.31,0.79,0.46,1.25,0.42c0.46-0.04,0.88-0.26,1.17-0.62l1.01-1.25c0.56-0.7,0.47-1.72-0.2-2.31
		c-3.03-2.66-6.96-4.13-11.04-4.13c-9.01,0-16.33,7.09-16.33,15.81c0,8.74,7.29,15.84,16.25,15.84c4.05,0,8.1-1.48,11.11-4.08
		c0.37-0.32,0.58-0.78,0.58-1.27v-10.22C570.36,229.14,569.62,228.39,568.69,228.39"/>
	<path d="M592.36,213.97c-8.98,0-16.29,7.09-16.29,15.81c0,8.74,7.31,15.84,16.29,15.84s16.29-7.11,16.29-15.84
		C608.65,221.06,601.34,213.97,592.36,213.97 M592.36,240.63c-6.18,0-11.22-4.87-11.22-10.85c0-5.96,5.03-10.81,11.22-10.81
		c6.18,0,11.22,4.85,11.22,10.81C603.58,235.76,598.55,240.63,592.36,240.63"/>
	<path d="M635.39,228.9c1.7-1.46,2.64-3.62,2.64-6.24c0-5.34-4.02-8.66-10.47-8.66H616c-0.92,0-1.67,0.75-1.67,1.67v28.24
		c0,0.92,0.75,1.67,1.67,1.67h11.63c7.4,0,11.81-3.46,11.81-9.26C639.44,233.04,637.96,230.43,635.39,228.9 M627.51,226.81h-8.15
		V219h8.15c2.5,0,5.48,0.67,5.48,3.86C633,225.49,631.15,226.81,627.51,226.81 M619.37,231.81h8.15c2.58,0,6.89,0.56,6.89,4.31
		c0,3.7-3.75,4.47-6.89,4.47h-8.15V231.81z"/>
	<path d="M659.93,214.98c-0.27-0.59-0.86-0.97-1.52-0.97h-1.82c-0.66,0-1.25,0.38-1.52,0.98l-12.8,28.23
		c-0.24,0.52-0.19,1.12,0.12,1.59c0.31,0.48,0.84,0.77,1.4,0.77h1.86c0.66,0,1.25-0.38,1.52-0.98l3.19-7.06h14.37l3.23,7.06
		c0.27,0.59,0.86,0.97,1.52,0.97h1.86c0.57,0,1.1-0.29,1.41-0.77c0.31-0.48,0.35-1.08,0.11-1.6L659.93,214.98z M652.6,232.51
		l4.89-10.85l4.95,10.85H652.6z"/>
	<path d="M681.23,214.01h-1.7c-0.92,0-1.67,0.75-1.67,1.67v28.23c0,0.92,0.75,1.67,1.67,1.67h1.7c0.92,0,1.67-0.75,1.67-1.67v-28.23
		C682.9,214.76,682.15,214.01,681.23,214.01"/>
	<path d="M716.45,214.01h-1.66c-0.92,0-1.67,0.75-1.67,1.67v20.56l-15.85-21.55c-0.31-0.43-0.81-0.68-1.35-0.68h-1.98
		c-0.92,0-1.67,0.75-1.67,1.67v28.23c0,0.92,0.75,1.67,1.67,1.67h1.7c0.92,0,1.67-0.75,1.67-1.67v-20.55l15.81,21.54
		c0.31,0.43,0.81,0.68,1.34,0.68h1.98c0.92,0,1.67-0.75,1.67-1.67v-28.23C718.12,214.76,717.37,214.01,716.45,214.01"/>
</g>
<g>
	<path d="M144.3,69.66c3.51,7.32,5.48,15.51,5.48,24.17c0,30.9-25.05,55.95-55.95,55.95c-4.81,0-9.48-0.61-13.94-1.75
		c9.02,18.8,28.23,31.78,50.47,31.78c30.9,0,55.95-25.05,55.95-55.95C186.31,97.77,168.46,75.85,144.3,69.66z"/>
</g>
<g>
	<path d="M535.51,76.12h-14.84c-2.3,0-4.36,1.42-5.18,3.56l-27.64,72.13l-27.73-72.13c-0.82-2.14-2.88-3.56-5.18-3.56h-14.84
		c-2.94,0-4.94,2.98-3.82,5.7l37.28,90.87c0.85,2.08,2.88,3.44,5.14,3.44h18.34c2.25,0,4.29-1.36,5.14-3.45l37.18-90.86
		C540.44,79.09,538.45,76.12,535.51,76.12z"/>
	<path d="M231.8,81.67v88.9c0,3.07-2.49,5.55-5.55,5.55h-11.64c-3.07,0-5.55-2.49-5.55-5.55v-88.9c0-3.07,2.49-5.55,5.55-5.55h11.64
		C229.32,76.12,231.8,78.6,231.8,81.67z"/>
	<path d="M712.73,73.97c-19.33-0.01-40.38,6.36-55.4,16.29c-1.55,1.02-2.43,2.79-2.43,4.65l0,75.65c0,3.07,2.49,5.56,5.56,5.56
		h12.07c3.07,0,5.56-2.49,5.56-5.56v-65.6c10.92-6.28,23.94-8.73,34.7-8.98c2.99-0.07,5.34-2.52,5.34-5.52l0-10.94
		C718.12,76.53,715.74,73.97,712.73,73.97z"/>
	<path d="M384.38,73.83c-28.76,0-53.16,22.11-53.16,52.29c0,29.23,23.06,52.29,53.16,52.29c30.1,0,53.16-23.06,53.16-52.29
		C437.54,95.94,413.14,73.83,384.38,73.83z M384.38,156.87c-16.91,0-30.69-13.89-30.69-30.74c0-17.9,14.86-30.74,30.69-30.74
		s30.69,12.85,30.69,30.74C415.06,142.98,401.29,156.87,384.38,156.87z"/>
	<path d="M250.84,152.23c1.65-2.5,5.06-3.34,7.54-1.65c7.83,5.33,17.55,6.72,25.43,6.72c7.29,0,18.17-2.87,18.17-10.78
		c0-6.36-8.75-8.09-22.74-11.53c-16.33-4.02-34.5-8.87-34.5-30.47c0-18.96,17.53-30.69,38.74-30.69c15.81,0,27.59,5.7,31.54,7.81
		c2.86,1.53,3.71,5.24,1.91,7.94l-5.59,8.38c-1.5,2.25-4.41,3.09-6.87,1.97c-2.7-1.23-11.82-5.31-20.88-5.31
		c-9.17,0-16.43,3.39-16.43,9.8c0,5.92,8.24,8.37,26.67,12.83c15.35,3.71,30.57,10.43,30.57,29.17c0,19.7-16.5,32-40.48,32
		c-11.44,0-27.18-3.94-36.48-10.75c-2.51-1.84-3.38-5.16-1.66-7.76L250.84,152.23z"/>
	<path d="M590.85,73.83c-30.63,0-52.67,22.85-52.67,52.23c0,32.69,26.09,52.35,57.35,52.35c20.14,0,31.64-6.55,39.6-11.9
		c3.01-2.02,3.46-6.27,0.81-8.75l-6.74-6.31c-1.8-1.68-4.49-1.99-6.6-0.74c-0.9,0.53-12,7.67-26.31,7.67
		c-19.49,0-30.7-11.76-33.48-22.09h74.79c2.82,0,5.24-2.11,5.52-4.91c0.19-1.85,0.28-3.64,0.28-5.32
		C643.41,96.14,620.04,73.83,590.85,73.83z M590.85,93.53c15.88,0,25.76,11.18,28.54,23.37h-56.91
		C565.41,103.71,575.07,93.53,590.85,93.53z"/>
</g>
<circle class="st1" cx="93.84" cy="93.83" r="55.95"/>
</svg>
