<svg id="isuzu-logo.207b7007" xmlns="http://www.w3.org/2000/svg" width="120" height="37.385" viewBox="0 0 145.588 46.559">
  <g id="Group_203" data-name="Group 203" transform="translate(0)">
    <path id="Path_159" data-name="Path 159" d="M130.543,25.058H130.3a41.188,41.188,0,0,1-9.049-1,6.272,6.272,0,0,1-5.242-6.641l0-16.612A.782.782,0,0,1,116.784,0H123.5a.776.776,0,0,1,.77.781l0,15.218s.039,2.7,5.393,2.9h1.5c5.356-.2,5.4-2.9,5.4-2.9l0-15.218A.776.776,0,0,1,137.344,0h6.716a.782.782,0,0,1,.771.809l0,16.612a6.274,6.274,0,0,1-5.242,6.641A41.191,41.191,0,0,1,130.543,25.058ZM7.4,24.905H.759A.775.775,0,0,1,0,24.115V.826A.775.775,0,0,1,.759.035H7.4a.774.774,0,0,1,.758.79V24.115A.775.775,0,0,1,7.4,24.905Zm23.68-14.94,7.845,2.9a6.31,6.31,0,0,1,4.3,5.952A6.079,6.079,0,0,1,36.779,24.9H14.867a.775.775,0,0,1-.77-.781V19.9a.775.775,0,0,1,.77-.781l17.476.02h1.38s1.655-.254-1.469-1.4L27.9,16.127,16.963,11.953l-.03,0c-4.188-2.112-3.825-5.4-3.825-5.4.317-6.819,7.04-6.5,7.04-6.5H41.109a.775.775,0,0,1,.77.78V5.063a.775.775,0,0,1-.77.781H22.66s-.968.156-.3.764Zm59.784,9.27,18.674-.021a.793.793,0,0,1,.789.8v4.318a.794.794,0,0,1-.789.8H87.133c-7.446,0-6.89-5.28-6.89-5.28,0-4.224,5.38-6.271,5.38-6.271l15.691-6.818c.683-.621-.308-.781-.308-.781H82.1a.794.794,0,0,1-.789-.8V.861a.794.794,0,0,1,.789-.8h21.481s7.4-.187,7.4,5.89a6.576,6.576,0,0,1-3.6,4.953l-1.144.613L91.957,17.895C89.069,19.088,90.869,19.234,90.869,19.234ZM62.129,25.06h-.241a41.094,41.094,0,0,1-9.05-1,6.273,6.273,0,0,1-5.242-6.64L47.6.81A.783.783,0,0,1,48.371,0h6.718a.777.777,0,0,1,.771.781l0,15.219s.038,2.7,5.394,2.9h1.5c5.355-.2,5.394-2.9,5.394-2.9l0-15.219A.777.777,0,0,1,68.93,0h6.717a.782.782,0,0,1,.771.808l0,16.613a6.274,6.274,0,0,1-5.243,6.64A41.091,41.091,0,0,1,62.129,25.06ZM81.593,40.527l.939-4.351h.96l.214-.986h-.956l.052-.268a.923.923,0,0,1,.205-.452.512.512,0,0,1,.4-.173,1.426,1.426,0,0,1,.58.134l.349-.965a2.408,2.408,0,0,0-1.025-.211,1.739,1.739,0,0,0-1.194.377,2.17,2.17,0,0,0-.6,1.2l-.079.362-.8.361-.131.624h.711l-.89,4.157a.989.989,0,0,1-.284.56.693.693,0,0,1-.467.172,1.564,1.564,0,0,1-.5-.09v1.042a2.3,2.3,0,0,0,.759.107,1.711,1.711,0,0,0,1.759-1.6Zm5.14-2.492a1.781,1.781,0,0,1-.408.737.811.811,0,0,1-.59.265q-.655,0-.654-.8a3.353,3.353,0,0,1,.164-1.046,1.915,1.915,0,0,1,.422-.771.806.806,0,0,1,.587-.263q.626,0,.625.848a3.467,3.467,0,0,1-.146,1.027Zm.971-2.427a1.809,1.809,0,0,0-1.353-.508,2.416,2.416,0,0,0-1.379.394,2.491,2.491,0,0,0-.9,1.111,4.068,4.068,0,0,0-.312,1.634,1.814,1.814,0,0,0,.508,1.346,1.843,1.843,0,0,0,1.36.506,2.346,2.346,0,0,0,2.267-1.473,3.976,3.976,0,0,0,.307-1.611,1.913,1.913,0,0,0-.5-1.4Zm3.024.474H90.7l.091-.891h-1l-1.034,4.815h1.314l.462-2.153a2.294,2.294,0,0,1,.543-1.13,1.2,1.2,0,0,1,.888-.394,1.309,1.309,0,0,1,.436.069l.289-1.249a1.509,1.509,0,0,0-.42-.048,1.836,1.836,0,0,0-1.54.982Zm5.809,2.645a1.206,1.206,0,0,1,.027-.229l.5-2.322H98.3l.219-.986H97.279l.214-1.025h-.847l-.576,1.016-.854.362-.127.633h.663l-.5,2.322a2.552,2.552,0,0,0-.053.483,1.065,1.065,0,0,0,.307.84,1.432,1.432,0,0,0,.962.271,2.709,2.709,0,0,0,1.162-.228v-.97a2.19,2.19,0,0,1-.708.151c-.256,0-.385-.107-.385-.319Zm6.652-1.465a3.77,3.77,0,0,0,.1-.775,1.469,1.469,0,0,0-.329-1.027,1.2,1.2,0,0,0-.932-.36,1.457,1.457,0,0,0-.768.2,2.36,2.36,0,0,0-.6.532h-.034q.282-.913.375-1.331c.061-.279.149-.678.262-1.2H99.946l-1.441,6.7h1.314l.427-1.994a3.986,3.986,0,0,1,.515-1.37.9.9,0,0,1,.728-.491q.471,0,.472.53a2.248,2.248,0,0,1-.07.513l-.6,2.812h1.314Zm4.05-.818a.631.631,0,0,1-.377.566,2.191,2.191,0,0,1-1.054.209h-.2a1.659,1.659,0,0,1,.446-.84,1.009,1.009,0,0,1,.724-.344q.458,0,.458.409Zm.528,3.277v-.978a4.554,4.554,0,0,1-.751.289,2.684,2.684,0,0,1-.69.082.867.867,0,0,1-.643-.226.841.841,0,0,1-.225-.619v-.086l.01-.091h.222a4.076,4.076,0,0,0,2.082-.437,1.375,1.375,0,0,0,.729-1.243,1.173,1.173,0,0,0-.433-.962,1.857,1.857,0,0,0-1.2-.351,2.565,2.565,0,0,0-1.391.385,2.663,2.663,0,0,0-.977,1.12,3.64,3.64,0,0,0-.36,1.626,1.817,1.817,0,0,0,.506,1.374,1.97,1.97,0,0,0,1.423.487,3.789,3.789,0,0,0,1.7-.371ZM113.96,33.3h-1.314l-1.44,6.7h1.314Zm3.1,4.732a1.773,1.773,0,0,1-.408.737.809.809,0,0,1-.589.265q-.655,0-.655-.8a3.419,3.419,0,0,1,.164-1.046,1.934,1.934,0,0,1,.424-.771.806.806,0,0,1,.587-.263q.625,0,.624.848a3.42,3.42,0,0,1-.146,1.027Zm.972-2.427a1.811,1.811,0,0,0-1.354-.508,2.419,2.419,0,0,0-1.38.394,2.5,2.5,0,0,0-.9,1.111,4.055,4.055,0,0,0-.312,1.634,1.814,1.814,0,0,0,.508,1.346,1.843,1.843,0,0,0,1.36.506,2.348,2.348,0,0,0,2.266-1.473,3.963,3.963,0,0,0,.307-1.611,1.919,1.919,0,0,0-.5-1.4Zm5.734,1.654a3.727,3.727,0,0,0,.1-.775,1.469,1.469,0,0,0-.33-1.027,1.2,1.2,0,0,0-.932-.36,1.832,1.832,0,0,0-1.548.982h-.027l.091-.891h-1l-1.034,4.815H120.4l.428-1.994a3.971,3.971,0,0,1,.515-1.37.9.9,0,0,1,.729-.491c.315,0,.471.177.471.53a2.248,2.248,0,0,1-.07.513l-.6,2.812h1.314Zm4.007-2.064a2.742,2.742,0,0,0-.725-.1,2.121,2.121,0,0,0-1.49.5,1.753,1.753,0,0,0-.548,1.359,1.474,1.474,0,0,0,.135.659,1.383,1.383,0,0,0,.419.483,1.884,1.884,0,0,0-.639.424.773.773,0,0,0-.194.527.64.64,0,0,0,.323.573,2.2,2.2,0,0,0-.937.524,1.061,1.061,0,0,0-.3.755,1.011,1.011,0,0,0,.509.894,2.62,2.62,0,0,0,1.416.325,3.349,3.349,0,0,0,1.947-.482,1.6,1.6,0,0,0,.681-1.392.978.978,0,0,0-.326-.79,2.014,2.014,0,0,0-1.036-.364l-.6-.078a1.3,1.3,0,0,1-.388-.1.219.219,0,0,1-.131-.211q0-.219.366-.336a1.86,1.86,0,0,0,.433.043,2.035,2.035,0,0,0,1.437-.489,1.931,1.931,0,0,0,.458-1.837l.759-.177.153-.715Zm-1.362,4.893a1.728,1.728,0,0,1,.6.151.289.289,0,0,1,.141.259.6.6,0,0,1-.336.547,2.038,2.038,0,0,1-1,.194q-.846,0-.845-.5a.57.57,0,0,1,.237-.469,1.44,1.44,0,0,1,.7-.245Zm1.021-3.666a1.568,1.568,0,0,1-.2.834.607.607,0,0,1-.53.33q-.45,0-.45-.513a1.511,1.511,0,0,1,.208-.825.618.618,0,0,1,.542-.33c.289,0,.432.168.432.5Zm6.18-.344h-.025l.092-.891h-1l-1.034,4.815h1.313l.462-2.153a2.289,2.289,0,0,1,.545-1.13,1.2,1.2,0,0,1,.888-.394,1.309,1.309,0,0,1,.436.069l.287-1.249a1.5,1.5,0,0,0-.419-.048,1.836,1.836,0,0,0-1.541.982Zm2.218,1.71a4.651,4.651,0,0,0-.105.918,1.492,1.492,0,0,0,.319,1.027,1.173,1.173,0,0,0,.921.355,1.828,1.828,0,0,0,1.549-.978h.027l-.092.891h1l1.034-4.815h-1.313l-.427,1.994a3.991,3.991,0,0,1-.516,1.37.9.9,0,0,1-.728.491q-.471,0-.471-.53A2.243,2.243,0,0,1,137.1,38l.6-2.812h-1.314Zm9.654-.529a3.77,3.77,0,0,0,.1-.775,1.465,1.465,0,0,0-.329-1.027,1.2,1.2,0,0,0-.932-.36,1.834,1.834,0,0,0-1.549.982h-.027l.092-.891h-1L140.8,40.005h1.314l.428-1.994a4,4,0,0,1,.514-1.37.908.908,0,0,1,.729-.491q.471,0,.471.53a2.2,2.2,0,0,1-.07.513l-.6,2.812h1.313Z" transform="translate(0)" fill="#d81e05"/>
    <path id="Path_160" data-name="Path 160" d="M64.6,46.979q.225-.548.474-1.093.379-.832.783-1.6a.862.862,0,0,1,.424-.282,1.067,1.067,0,0,1,.485-.043.607.607,0,0,1,.361.181.374.374,0,0,1,.071.376q-.3.564-.532,1.02t-.437.889q-.2.434-.384.9t-.357,1.041c.051-.058.137-.145.26-.26a5.284,5.284,0,0,1,.417-.354,4.568,4.568,0,0,1,.484-.325.894.894,0,0,1,.434-.145.669.669,0,0,1,.495.166,1.6,1.6,0,0,1,.353.47,3.6,3.6,0,0,1,.249.644,6.363,6.363,0,0,1,.157.694q.057.341.1.615c.026.183.051.318.074.4a.42.42,0,0,1-.126.39,1.118,1.118,0,0,1-.418.268,1.332,1.332,0,0,1-.51.086.508.508,0,0,1-.387-.151,2.488,2.488,0,0,1-.185-.716c-.034-.275-.058-.539-.075-.8s-.038-.477-.062-.665-.071-.291-.14-.311c-.079.01-.2.118-.349.325s-.317.446-.49.716l-.517.8a5.19,5.19,0,0,1-.411.571,1,1,0,0,1-.4.268,1.283,1.283,0,0,1-.463.094.689.689,0,0,1-.379-.1.3.3,0,0,1-.129-.318,13.633,13.633,0,0,1,.345-1.533q.167-.589.384-1.192l-.578.057q-.5.051-.987.108l-.916.109c-.287.034-.54.061-.755.079q-.324.926-.589,1.844t-.439,1.859a.794.794,0,0,1-.371.434,1.42,1.42,0,0,1-.569.188.929.929,0,0,1-.51-.079.329.329,0,0,1-.185-.369q.182-.954.451-1.88t.59-1.88c-.263.019-.505.038-.726.058s-.46.034-.72.043a.347.347,0,0,1-.337-.152.41.41,0,0,1-.024-.333.8.8,0,0,1,.244-.347.88.88,0,0,1,.459-.21q.4-.015.735-.043c.22-.019.467-.038.738-.058q.352-.954.734-1.9t.767-1.917a.813.813,0,0,1,.424-.412,1.415,1.415,0,0,1,.589-.137.77.77,0,0,1,.473.137.33.33,0,0,1,.09.412q-.755,1.866-1.468,3.7c.239-.029.505-.058.8-.087s.6-.063.921-.1.636-.073.955-.1Zm-18.08-.616a4.554,4.554,0,0,0-.046-1.266.334.334,0,0,1,.157-.34,1.526,1.526,0,0,1,.473-.26,1.361,1.361,0,0,1,.528-.079.37.37,0,0,1,.343.188c.031.279.054.54.068.781a6.868,6.868,0,0,1,0,.738q-.022.375-.08.809t-.16,1.013q.449-.738.9-1.418a6.465,6.465,0,0,1,.949-1.143,2.6,2.6,0,0,1,1.088-.614,1.3,1.3,0,0,1,.554-.037.776.776,0,0,1,.44.232,2.172,2.172,0,0,1,.253.615q.1.383.177.824t.123.889q.05.448.076.81.312-.68.8-1.765t1.084-2.806a.883.883,0,0,1,.333-.4.751.751,0,0,1,.39-.13.352.352,0,0,1,.287.13.417.417,0,0,1,.012.4q-.084.246-.276.8t-.46,1.266q-.267.708-.575,1.5t-.619,1.526q-.311.731-.6,1.309a7.234,7.234,0,0,1-.487.868.648.648,0,0,1-.3.239,1.217,1.217,0,0,1-.388.094.889.889,0,0,1-.363-.043.35.35,0,0,1-.216-.174,2.88,2.88,0,0,1-.2-.955c-.03-.414-.052-.863-.069-1.345s-.046-.969-.088-1.461a5.11,5.11,0,0,0-.265-1.3,2.011,2.011,0,0,0-.433.485q-.235.339-.486.795t-.518.984q-.266.528-.537,1.034t-.532.947a5.429,5.429,0,0,1-.5.731.932.932,0,0,1-.379.224,1.433,1.433,0,0,1-.457.079.889.889,0,0,1-.376-.072A.228.228,0,0,1,46,50.839a12.359,12.359,0,0,1,.124-1.352l.221-1.577Q46.458,47.108,46.519,46.363Zm10.653-.578a.255.255,0,0,1,.135.34.686.686,0,0,1-.352.4,1.553,1.553,0,0,1-.574.2.938.938,0,0,1-.5-.058.261.261,0,0,1-.135-.354.664.664,0,0,1,.346-.39,1.56,1.56,0,0,1,.581-.195A.922.922,0,0,1,57.172,45.784Zm-2.887,4.881.943-2.805a.8.8,0,0,1,.395-.405,1.236,1.236,0,0,1,.535-.13.688.688,0,0,1,.431.13.345.345,0,0,1,.087.405l-.941,2.805a.922.922,0,0,1-.407.348,1.221,1.221,0,0,1-.5.115.7.7,0,0,1-.408-.115A.33.33,0,0,1,54.285,50.665Zm18.936-.347a2.176,2.176,0,0,1-.166-.709,5.716,5.716,0,0,1,.022-.86,3.52,3.52,0,0,1,.243-.919.515.515,0,0,1,.3-.282,1.218,1.218,0,0,1,.47-.094,1,1,0,0,1,.438.094.323.323,0,0,1,.207.282,5.493,5.493,0,0,1-.107.665,2.213,2.213,0,0,0-.051.665c.025.366.074.569.149.608s.163-.024.266-.188a5,5,0,0,0,.345-.709q.191-.463.385-.955a6.121,6.121,0,0,1,.307-.665,3.951,3.951,0,0,1,.251-.42.885.885,0,0,1,.382-.282,1.254,1.254,0,0,1,.47-.094.935.935,0,0,1,.412.087.34.34,0,0,1,.2.275q-.064.52-.2,1.15t-.3,1.323q-.169.693-.362,1.432t-.4,1.475c.248-.029.48-.053.7-.073s.429-.036.637-.051l.642-.043c.218-.015.453-.027.7-.037a.386.386,0,0,1,.284.181.354.354,0,0,1,.017.3.833.833,0,0,1-.225.318,1.169,1.169,0,0,1-.417.246q-.707.029-1.307.073t-1.323.115a12.2,12.2,0,0,1-.412,1.164,7.273,7.273,0,0,1-.62,1.186,5.589,5.589,0,0,1-.867,1.041,3.4,3.4,0,0,1-1.164.716,7.106,7.106,0,0,1-1.933.42,9.3,9.3,0,0,1-1.877-.043,7.687,7.687,0,0,1-1.629-.384,6.213,6.213,0,0,1-1.214-.571,1.49,1.49,0,0,1-.63-.738,1.154,1.154,0,0,1,.03-.846,2.059,2.059,0,0,1,.686-.817,4.31,4.31,0,0,1,1.351-.651,29.922,29.922,0,0,1,3.425-.853q1.71-.318,3.393-.521.14-.463.243-.918t.238-.976l-.006.014a1.735,1.735,0,0,1-.9.578.865.865,0,0,1-.667-.145A1.282,1.282,0,0,1,73.222,50.318Zm-3.585,6.125a9.682,9.682,0,0,0,2.064-.123,4.109,4.109,0,0,0,.969-.261,2.15,2.15,0,0,0,.726-.506,3.449,3.449,0,0,0,.576-.861,9.564,9.564,0,0,0,.515-1.352q-.744.088-1.595.21t-1.726.289q-.875.166-1.707.369t-1.54.448a1.927,1.927,0,0,0-.737.39.419.419,0,0,0-.148.39.629.629,0,0,0,.267.348,2.473,2.473,0,0,0,.5.274A5.585,5.585,0,0,0,69.636,56.444Zm8.655-7.152a3.179,3.179,0,0,1,.652-.68A3.857,3.857,0,0,1,79.993,48a1.01,1.01,0,0,1,.471-.384,1.435,1.435,0,0,1,.558-.137,1.481,1.481,0,0,1,.465.079,1.6,1.6,0,0,1,.436.224,1.862,1.862,0,0,1,.346.326.8.8,0,0,1,.182.383,1.45,1.45,0,0,1-.082.817,1.659,1.659,0,0,1-.454.607,2.591,2.591,0,0,1-.712.42,4.756,4.756,0,0,1-.853.253,5.43,5.43,0,0,1-.863.1,4.478,4.478,0,0,1-.748-.029.874.874,0,0,1-.571-.26.637.637,0,0,1-.141-.485A1.382,1.382,0,0,1,78.291,49.292Zm1.408-.079a.59.59,0,0,0-.154.282c.007.077.069.13.185.159a1.264,1.264,0,0,0,.393.029,1.39,1.39,0,0,0,.421-.094.551.551,0,0,0,.282-.209.439.439,0,0,0,.019-.441.422.422,0,0,0-.34-.253H80.49a.544.544,0,0,0-.2.079,2.9,2.9,0,0,0-.3.2A1.807,1.807,0,0,0,79.7,49.212Zm3.72-.542q.174-.478.287-.8a.837.837,0,0,1,.355-.376,1.205,1.205,0,0,1,.5-.166A.883.883,0,0,1,85,47.4a.332.332,0,0,1,.206.3q-.072.217-.257.629t-.334.824a4.686,4.686,0,0,0-.206.716c-.037.2.007.3.134.289a.585.585,0,0,0,.406-.239,3.178,3.178,0,0,0,.384-.607q.194-.383.4-.875t.44-1.056a.46.46,0,0,1,.312-.253,1.38,1.38,0,0,1,.509-.065.792.792,0,0,1,.439.145.294.294,0,0,1,.1.362,6.365,6.365,0,0,1-.593,1.316,6.514,6.514,0,0,1-.951,1.273,3.9,3.9,0,0,1-1.168.853,1.538,1.538,0,0,1-1.252.043.685.685,0,0,1-.453-.557,2.458,2.458,0,0,1,.035-.874A6.434,6.434,0,0,1,83.42,48.67Zm3.807,2a2.659,2.659,0,0,1,.156-.535.791.791,0,0,1,.4-.4,1.274,1.274,0,0,1,.541-.13.684.684,0,0,1,.431.13.329.329,0,0,1,.074.4,4.917,4.917,0,0,1-.605,1.222,6.6,6.6,0,0,1-.837,1.02.782.782,0,0,1-.368.232.327.327,0,0,1-.26-.043.29.29,0,0,1-.118-.2.293.293,0,0,1,.083-.246,1.724,1.724,0,0,0,.3-.492,2.538,2.538,0,0,0,.122-.47C87.173,50.991,87.2,50.829,87.226,50.665Z" transform="translate(-12.005 -11.222)" fill="#63666a" fill-rule="evenodd"/>
  </g>
</svg>
