<?xml version="1.0" encoding="utf-8"?>
<!-- Generator: Adobe Illustrator 23.0.0, SVG Export Plug-In . SVG Version: 6.00 Build 0)  -->
<svg version="1.1" id="Capa_1" xmlns="http://www.w3.org/2000/svg" xmlns:xlink="http://www.w3.org/1999/xlink" x="0px" y="0px"
	 viewBox="0 0 813.6 349.9" style="enable-background:new 0 0 813.6 349.9;" xml:space="preserve">
<style type="text/css">
	.st0{fill:#93C01F;}
	.st1{fill:#009EE2;}
	.st2{fill:#606060;}
	.st3{fill:#E95A0C;}
	.st4{fill:#FFFFFF;}
	.st5{fill:#633080;}
	.st6{fill:#FFCB00;}
	.st7{fill:none;}
</style>
<path class="st0" d="M218,164h38.5c5.2,0,9.4,4.2,9.4,9.4v38.5c0,5.2-4.2,9.4-9.4,9.4H218c-5.2,0-9.4-4.2-9.4-9.4v-38.5
	C208.7,168.2,212.9,164,218,164"/>
<path class="st1" d="M101.9,40.5h79c10.6,0,19.2,8.6,19.2,19.2v79c0,10.6-8.6,19.2-19.2,19.2h-79c-10.6,0-19.2-8.6-19.2-19.2v-79
	C82.7,49.1,91.3,40.5,101.9,40.5"/>
<g>
	<path class="st2" d="M351.6,250.6c-10.7,0-20.2-2.3-28.5-7c-8.3-4.6-14.8-11.1-19.4-19.4c-4.7-8.3-7-17.8-7-28.5
		c0-3.5,1.1-6.4,3.4-8.6c2.3-2.2,5.1-3.3,8.5-3.3c3.5,0,6.4,1.1,8.6,3.3c2.2,2.2,3.3,5.1,3.3,8.6c0,6.6,1.3,12.3,4,17.4
		c2.7,5,6.3,9,11,11.8c4.6,2.8,10,4.2,16.1,4.2c6.1,0,11.5-1.4,16.2-4.2c4.7-2.8,8.4-6.7,11.1-11.8c2.7-5,4-10.8,4-17.4V81.6
		c0-3.5,1.1-6.4,3.3-8.6c2.2-2.2,5-3.3,8.3-3.3c3.5,0,6.4,1.1,8.7,3.3c2.3,2.2,3.4,5.1,3.4,8.6v114.1c0,10.7-2.4,20.2-7.1,28.5
		c-4.7,8.3-11.2,14.8-19.4,19.4C372,248.3,362.4,250.6,351.6,250.6z"/>
	<path class="st2" d="M452.7,248.3c-3.4,0-6.2-1.1-8.5-3.4s-3.4-5.1-3.4-8.5V81.6c0-3.5,1.1-6.4,3.4-8.6c2.3-2.2,5.1-3.3,8.5-3.3
		h41.4c13.1,0,25,2.2,35.8,6.5c10.7,4.3,20.1,10.5,28,18.5c7.9,8,14,17.4,18.3,28.2c4.3,10.8,6.4,22.8,6.4,35.9
		c0,13.1-2.1,25.1-6.4,36c-4.3,10.9-10.4,20.3-18.3,28.4c-7.9,8-17.3,14.2-28,18.5c-10.7,4.3-22.7,6.5-35.8,6.5H452.7z M464.6,227.3
		h29.5c12.8,0,24.1-2.9,34-8.8c9.8-5.9,17.6-13.9,23.2-24.2c5.6-10.3,8.5-22.1,8.5-35.3c0-13.4-2.8-25.2-8.5-35.4
		c-5.6-10.2-13.4-18.2-23.2-24c-9.8-5.8-21.1-8.7-34-8.7h-29.5V227.3z"/>
	<path class="st2" d="M620,248.3c-3.4,0-6.2-1.1-8.5-3.4s-3.4-5.1-3.4-8.5V81.6c0-3.5,1.1-6.4,3.4-8.6c2.3-2.2,5.1-3.3,8.5-3.3
		c4.6,0,8.1,2.1,10.5,6.4l71.6,143.4h-7.3l69.7-143.4c2.4-4.3,5.9-6.4,10.5-6.4c3.4,0,6.2,1.1,8.5,3.3c2.3,2.2,3.4,5.1,3.4,8.6
		v154.8c0,3.4-1.2,6.2-3.5,8.5c-2.4,2.3-5.1,3.4-8.3,3.4c-3.4,0-6.2-1.1-8.5-3.4s-3.4-5.1-3.4-8.5V114.5l4.6-1.1l-59.9,122.1
		c-2.6,4-6,5.9-10.3,5.9c-5,0-8.7-2.4-11-7.1l-59.2-118.7l4.6-1.1v121.9c0,3.4-1.1,6.2-3.4,8.5S623.4,248.3,620,248.3z"/>
</g>
<path class="st3" d="M226.9,64.6h58.4c7.8,0,14.2,6.4,14.2,14.2v58.4c0,7.8-6.4,14.2-14.2,14.2h-58.4c-7.8,0-14.2-6.4-14.2-14.2
	V78.8C212.7,70.9,219,64.6,226.9,64.6"/>
<path class="st4" d="M260.3,129.7c0,0.9-0.3,1.7-1,2.4c-0.7,0.7-1.4,1-2.4,1c-0.9,0-1.7-0.3-2.4-1c-0.7-0.7-1-1.4-1-2.4V85.8
	c0-0.9,0.3-1.7,1-2.4c0.7-0.7,1.4-1,2.4-1c0.9,0,1.7,0.3,2.4,1c0.7,0.7,1,1.4,1,2.4V129.7z"/>
<path class="st4" d="M173.9,99.2c0,9.4-3.3,17.5-10,24.1c-6.7,6.7-14.7,10-24.1,10c-9.4,0-17.5-3.3-24.1-10
	c-6.7-6.7-10-14.7-10-24.1c0-9.4,3.3-17.4,10-24.1c6.7-6.7,14.7-10,24.1-10c9.4,0,17.4,3.3,24.1,10c3.4,3.4,5.9,7,7.5,11
	C173,90.1,173.9,94.4,173.9,99.2 M139.7,74.1c-3.5,0-6.7,0.6-9.7,1.8c-2.9,1.2-5.6,3.1-8.1,5.5c-2.5,2.5-4.3,5.2-5.5,8.1
	c-1.2,2.9-1.8,6.1-1.8,9.6c0,6.9,2.4,12.9,7.3,17.7c4.9,4.9,10.8,7.3,17.7,7.3c6.9,0,12.9-2.4,17.7-7.3c4.9-4.9,7.3-10.8,7.3-17.7
	c0-6.9-2.4-12.8-7.3-17.7C152.6,76.6,146.7,74.1,139.7,74.1"/>
<path class="st5" d="M29.2,159.9h50.4c6.8,0,12.3,5.5,12.3,12.3v50.4c0,6.8-5.5,12.3-12.3,12.3H29.2c-6.8,0-12.3-5.5-12.3-12.3
	v-50.4C17,165.4,22.5,159.9,29.2,159.9"/>
<path class="st4" d="M56.5,212.8c0,0.7-0.3,1.4-0.8,1.9c-0.5,0.5-1.1,0.8-1.9,0.8c-0.7,0-1.4-0.3-1.9-0.8c-0.5-0.5-0.8-1.1-0.8-1.9
	v-34.6c0-0.7,0.3-1.4,0.8-1.9s1.1-0.8,1.9-0.8c0.7,0,1.4,0.3,1.9,0.8s0.8,1.1,0.8,1.9V212.8z"/>
<path class="st6" d="M119.3,169.1h64.9c8.7,0,15.8,7.1,15.8,15.8v64.9c0,8.7-7.1,15.8-15.8,15.8h-64.9c-8.7,0-15.8-7.1-15.8-15.8
	v-64.9C103.5,176.2,110.6,169.1,119.3,169.1"/>
<path class="st4" d="M155.4,241.7c0,1-0.4,1.9-1.1,2.6c-0.7,0.7-1.6,1.1-2.6,1.1c-1,0-1.9-0.4-2.6-1.1c-0.7-0.7-1.1-1.6-1.1-2.6V193
	c0-1,0.4-1.9,1.1-2.6c0.7-0.7,1.6-1.1,2.6-1.1c1,0,1.9,0.4,2.6,1.1c0.7,0.7,1.1,1.6,1.1,2.6V241.7z"/>
<rect y="1" class="st7" width="813.6" height="349.9"/>
<g>
	<path class="st2" d="M18.4,291.4c-0.6,0-1.1-0.2-1.5-0.6s-0.6-0.9-0.6-1.6c0-0.6,0.2-1.2,0.6-1.6s0.9-0.6,1.5-0.6h23.8
		c0.6,0,1.1,0.2,1.5,0.6c0.4,0.4,0.6,0.9,0.6,1.6c0,0.6-0.2,1.2-0.6,1.6c-0.4,0.4-0.9,0.6-1.5,0.6H18.4z M30.3,322.7
		c-0.7,0-1.2-0.2-1.6-0.7c-0.4-0.5-0.7-1-0.7-1.7v-33.2h4.6v33.2c0,0.7-0.2,1.2-0.7,1.7C31.5,322.4,31,322.7,30.3,322.7z"/>
	<path class="st2" d="M53.8,322.8c-2.5,0-4.6-0.5-6.6-1.6c-1.9-1.1-3.4-2.6-4.5-4.5c-1.1-1.9-1.6-4.1-1.6-6.5c0-2.5,0.5-4.7,1.5-6.6
		c1-1.9,2.4-3.4,4.2-4.5c1.8-1.1,3.9-1.6,6.2-1.6c2.3,0,4.3,0.5,6,1.6c1.7,1,2.9,2.5,3.8,4.3c0.9,1.8,1.3,4,1.3,6.4
		c0,0.6-0.2,1.1-0.6,1.4c-0.4,0.4-0.9,0.6-1.5,0.6H44.2v-3.6H62l-1.8,1.3c0-1.5-0.3-2.9-0.9-4.1c-0.6-1.2-1.4-2.1-2.4-2.8
		c-1-0.7-2.3-1-3.8-1c-1.7,0-3.1,0.4-4.3,1.1c-1.2,0.8-2.1,1.8-2.7,3.1s-0.9,2.8-0.9,4.5c0,1.7,0.4,3.2,1.1,4.5
		c0.7,1.3,1.8,2.3,3.1,3.1c1.3,0.8,2.8,1.1,4.5,1.1c0.9,0,1.9-0.2,2.8-0.5c1-0.3,1.7-0.8,2.3-1.2c0.4-0.3,0.9-0.5,1.4-0.5
		c0.5,0,1,0.1,1.4,0.5c0.5,0.5,0.8,1,0.8,1.5c0,0.5-0.2,1-0.7,1.4c-1,0.8-2.3,1.5-3.8,2C56.6,322.6,55.1,322.8,53.8,322.8z"/>
	<path class="st2" d="M80.2,322.8c-2.4,0-4.5-0.6-6.3-1.7c-1.9-1.1-3.3-2.6-4.4-4.5c-1.1-1.9-1.6-4-1.6-6.5c0-2.5,0.5-4.7,1.6-6.6
		c1-1.9,2.5-3.4,4.3-4.5c1.8-1.1,3.9-1.6,6.2-1.6c1.7,0,3.4,0.3,4.8,1c1.5,0.7,2.8,1.7,3.9,3.1c0.4,0.5,0.6,1,0.4,1.5
		c-0.1,0.5-0.4,1-1,1.4c-0.4,0.3-0.9,0.4-1.4,0.3c-0.5-0.1-1-0.4-1.4-0.8c-1.5-1.6-3.3-2.4-5.4-2.4c-1.5,0-2.8,0.4-4,1.1
		c-1.2,0.7-2.1,1.7-2.7,3c-0.7,1.3-1,2.8-1,4.5c0,1.6,0.3,3.1,1,4.4s1.6,2.3,2.8,3c1.2,0.7,2.6,1.1,4.1,1.1c1,0,1.9-0.1,2.7-0.4
		c0.8-0.3,1.5-0.7,2.2-1.2c0.5-0.4,1-0.6,1.5-0.7c0.5,0,0.9,0.1,1.3,0.4c0.5,0.4,0.8,0.9,0.8,1.4c0.1,0.5-0.1,1-0.5,1.4
		C86,321.8,83.4,322.8,80.2,322.8z"/>
	<path class="st2" d="M98.1,322.7c-0.7,0-1.2-0.2-1.6-0.7c-0.4-0.4-0.6-1-0.6-1.7v-20.3c0-0.7,0.2-1.3,0.6-1.7
		c0.4-0.4,1-0.6,1.6-0.6c0.7,0,1.2,0.2,1.6,0.6c0.4,0.4,0.6,1,0.6,1.7v20.3c0,0.7-0.2,1.2-0.6,1.7C99.4,322.5,98.8,322.7,98.1,322.7
		z M116.4,322.7c-0.7,0-1.2-0.2-1.6-0.7c-0.4-0.4-0.6-1-0.6-1.7v-11.2c0-1.7-0.3-3.1-0.9-4.2c-0.6-1.1-1.5-1.9-2.5-2.4
		c-1.1-0.5-2.3-0.8-3.6-0.8c-1.2,0-2.4,0.3-3.4,0.8c-1,0.5-1.8,1.2-2.4,2.1c-0.6,0.9-0.9,1.9-0.9,3h-2.8c0-1.9,0.5-3.6,1.4-5.1
		c0.9-1.5,2.1-2.7,3.7-3.6c1.6-0.9,3.3-1.3,5.3-1.3c2,0,3.9,0.4,5.5,1.3c1.6,0.9,2.9,2.2,3.8,3.9c0.9,1.7,1.4,3.9,1.4,6.4v11.2
		c0,0.7-0.2,1.2-0.6,1.7C117.6,322.5,117.1,322.7,116.4,322.7z"/>
	<path class="st2" d="M137.2,322.8c-2.4,0-4.5-0.5-6.4-1.6c-1.8-1.1-3.3-2.6-4.3-4.5c-1.1-1.9-1.6-4.1-1.6-6.5
		c0-2.5,0.5-4.7,1.6-6.6c1.1-1.9,2.5-3.4,4.3-4.5c1.8-1.1,4-1.6,6.4-1.6c2.4,0,4.5,0.5,6.3,1.6c1.8,1.1,3.3,2.6,4.3,4.5
		c1.1,1.9,1.6,4.1,1.6,6.6c0,2.5-0.5,4.6-1.6,6.5c-1,1.9-2.5,3.4-4.3,4.5C141.7,322.3,139.6,322.8,137.2,322.8z M137.2,318.7
		c1.5,0,2.9-0.4,4.1-1.1c1.2-0.7,2.1-1.7,2.8-3c0.7-1.3,1-2.8,1-4.4c0-1.7-0.3-3.2-1-4.4c-0.7-1.3-1.6-2.3-2.8-3
		c-1.2-0.7-2.6-1.1-4.1-1.1c-1.5,0-2.9,0.4-4.1,1.1c-1.2,0.7-2.1,1.7-2.8,3c-0.7,1.3-1,2.8-1,4.4c0,1.7,0.3,3.1,1,4.4
		c0.7,1.3,1.6,2.3,2.8,3C134.3,318.4,135.7,318.7,137.2,318.7z"/>
	<path class="st2" d="M162,322.7c-1.3,0-2.5-0.4-3.5-1.1c-1-0.7-1.8-1.7-2.4-3c-0.6-1.3-0.8-2.7-0.8-4.4v-24.9
		c0-0.7,0.2-1.2,0.6-1.6c0.4-0.4,0.9-0.6,1.6-0.6c0.7,0,1.2,0.2,1.6,0.6c0.4,0.4,0.6,1,0.6,1.6v24.9c0,1.1,0.2,2.1,0.6,2.8
		c0.4,0.7,0.9,1.1,1.6,1.1h1.1c0.6,0,1.1,0.2,1.4,0.6c0.4,0.4,0.6,1,0.6,1.6c0,0.7-0.3,1.2-0.8,1.6C163.7,322.5,163,322.7,162,322.7
		L162,322.7z"/>
	<path class="st2" d="M179.3,322.8c-2.4,0-4.5-0.5-6.4-1.6c-1.8-1.1-3.3-2.6-4.3-4.5c-1.1-1.9-1.6-4.1-1.6-6.5
		c0-2.5,0.5-4.7,1.6-6.6c1.1-1.9,2.5-3.4,4.3-4.5c1.8-1.1,4-1.6,6.4-1.6c2.4,0,4.5,0.5,6.3,1.6c1.8,1.1,3.3,2.6,4.3,4.5
		c1.1,1.9,1.6,4.1,1.6,6.6c0,2.5-0.5,4.6-1.6,6.5c-1,1.9-2.5,3.4-4.3,4.5C183.8,322.3,181.7,322.8,179.3,322.8z M179.3,318.7
		c1.5,0,2.9-0.4,4.1-1.1c1.2-0.7,2.1-1.7,2.8-3c0.7-1.3,1-2.8,1-4.4c0-1.7-0.3-3.2-1-4.4c-0.7-1.3-1.6-2.3-2.8-3
		c-1.2-0.7-2.6-1.1-4.1-1.1c-1.5,0-2.9,0.4-4.1,1.1c-1.2,0.7-2.1,1.7-2.8,3c-0.7,1.3-1,2.8-1,4.4c0,1.7,0.3,3.1,1,4.4
		c0.7,1.3,1.6,2.3,2.8,3C176.4,318.4,177.7,318.7,179.3,318.7z"/>
	<path class="st2" d="M208.4,322.8c-2.2,0-4.2-0.5-5.9-1.6c-1.7-1.1-3-2.6-4-4.5c-1-1.9-1.5-4.1-1.5-6.5c0-2.5,0.5-4.7,1.6-6.6
		c1.1-1.9,2.5-3.4,4.3-4.5c1.8-1.1,4-1.6,6.4-1.6c2.4,0,4.5,0.5,6.3,1.6c1.8,1.1,3.3,2.6,4.3,4.5c1.1,1.9,1.6,4.1,1.6,6.6h-2.6
		c0,2.5-0.5,4.6-1.4,6.5c-0.9,1.9-2.1,3.4-3.7,4.5C212.3,322.3,210.5,322.8,208.4,322.8z M209.2,333c-2.1,0-4.1-0.4-5.9-1.3
		s-3.4-2.1-4.7-3.7c-0.4-0.5-0.5-1-0.4-1.6c0.1-0.5,0.4-1,0.9-1.3c0.5-0.4,1.1-0.5,1.7-0.4c0.6,0.1,1,0.4,1.4,0.9
		c0.8,1,1.8,1.8,3,2.4c1.2,0.6,2.6,0.9,4.1,0.9c1.4,0,2.7-0.3,3.9-1s2.2-1.7,2.9-3.1c0.7-1.4,1.1-3,1.1-5v-6.5l1.5-4l2.9,1v9.8
		c0,2.4-0.5,4.6-1.6,6.5c-1,2-2.5,3.5-4.3,4.7C213.8,332.4,211.6,333,209.2,333z M209.3,318.7c1.5,0,2.9-0.4,4.1-1.1
		c1.2-0.7,2.1-1.7,2.8-3c0.7-1.3,1-2.8,1-4.4c0-1.7-0.3-3.2-1-4.4c-0.7-1.3-1.6-2.3-2.8-3c-1.2-0.7-2.6-1.1-4.1-1.1
		c-1.5,0-2.9,0.4-4.1,1.1c-1.2,0.7-2.1,1.7-2.8,3c-0.7,1.3-1,2.8-1,4.4c0,1.7,0.3,3.1,1,4.4c0.7,1.3,1.6,2.3,2.8,3
		C206.4,318.4,207.8,318.7,209.3,318.7z"/>
	<path class="st2" d="M231,322.7c-0.7,0-1.2-0.2-1.6-0.7c-0.4-0.4-0.6-1-0.6-1.7v-20.3c0-0.7,0.2-1.3,0.6-1.7c0.4-0.4,1-0.6,1.6-0.6
		c0.7,0,1.2,0.2,1.6,0.6c0.4,0.4,0.6,1,0.6,1.7v20.3c0,0.7-0.2,1.2-0.6,1.7C232.2,322.4,231.7,322.7,231,322.7z M231.2,293.8
		c-0.7,0-1.2-0.2-1.6-0.7c-0.4-0.4-0.6-1-0.6-1.7c0-0.6,0.2-1.2,0.5-1.5l4.4-4.5c0.4-0.5,1-0.7,1.6-0.7c0.7,0,1.2,0.2,1.6,0.7
		c0.4,0.5,0.6,1,0.6,1.7c0,0.3,0,0.6-0.1,0.9s-0.3,0.5-0.5,0.7l-4.3,4.4C232.3,293.6,231.8,293.8,231.2,293.8z"/>
	<path class="st2" d="M251.9,322.8c-2.2,0-4.1-0.6-5.8-1.7c-1.7-1.1-3.1-2.6-4.1-4.5c-1-1.9-1.5-4-1.5-6.5c0-2.4,0.5-4.6,1.6-6.5
		c1.1-1.9,2.5-3.4,4.4-4.5c1.9-1.1,3.9-1.7,6.2-1.7s4.4,0.6,6.2,1.7s3.3,2.6,4.4,4.5c1.1,1.9,1.6,4.1,1.6,6.5h-1.7
		c0,2.4-0.5,4.6-1.5,6.5c-1,1.9-2.4,3.4-4.1,4.5C256,322.3,254,322.8,251.9,322.8z M252.8,318.7c1.5,0,2.9-0.4,4-1.1
		c1.2-0.7,2.1-1.8,2.8-3.1c0.7-1.3,1-2.7,1-4.4c0-1.6-0.3-3.1-1-4.4c-0.7-1.3-1.6-2.3-2.8-3.1c-1.2-0.7-2.5-1.1-4-1.1
		c-1.5,0-2.8,0.4-4,1.1c-1.2,0.7-2.1,1.8-2.8,3.1c-0.7,1.3-1,2.8-1,4.4c0,1.6,0.3,3.1,1,4.4c0.7,1.3,1.6,2.3,2.8,3.1
		C249.9,318.4,251.3,318.7,252.8,318.7z M262.7,322.7c-0.7,0-1.2-0.2-1.6-0.7c-0.4-0.4-0.6-1-0.6-1.7v-7l0.8-4.8l3.7,1.6v10.2
		c0,0.7-0.2,1.2-0.6,1.7C263.9,322.5,263.4,322.7,262.7,322.7z"/>
	<path class="st2" d="M294.4,321.7c-0.6,0.2-1.1,0.3-1.6,0.1c-0.5-0.2-0.9-0.6-1.2-1.2l-10.2-19.8c-0.3-0.6-0.3-1.1-0.1-1.7
		c0.2-0.5,0.6-0.9,1.2-1.2c0.6-0.2,1.1-0.3,1.6-0.1c0.5,0.2,0.9,0.6,1.2,1.2l9.7,19.8c0.3,0.6,0.4,1.1,0.3,1.7
		C295.3,321,294.9,321.4,294.4,321.7z M289.1,333.6c-0.3,0-0.7-0.1-1.1-0.3c-1.3-0.6-1.7-1.6-1.1-2.9l13.6-31.4
		c0.6-1.3,1.5-1.6,2.8-1.1c1.3,0.6,1.7,1.5,1.1,2.9l-13.6,31.4C290.5,333.1,289.9,333.6,289.1,333.6z"/>
	<path class="st2" d="M333.2,323.1c-1.9,0-3.7-0.3-5.4-0.9c-1.7-0.6-3.2-1.5-4.5-2.6c-1.3-1.1-2.2-2.4-2.8-3.8
		c-0.3-0.6-0.3-1.2,0-1.8c0.3-0.5,0.8-0.9,1.6-1c0.5-0.1,1.1,0,1.6,0.3c0.5,0.3,0.9,0.7,1.2,1.3c0.4,0.8,0.9,1.5,1.8,2.1
		c0.8,0.6,1.8,1.2,3,1.6c1.2,0.4,2.4,0.6,3.6,0.6c1.4,0,2.7-0.2,3.9-0.7c1.2-0.5,2.2-1.1,2.9-2c0.7-0.9,1.1-1.9,1.1-3.2
		c0-1.6-0.6-3.1-1.8-4.3c-1.2-1.3-3.3-2.1-6.1-2.4c-3.7-0.4-6.6-1.5-8.7-3.3c-2.1-1.9-3.2-4.1-3.2-6.9c0-2,0.5-3.7,1.6-5.1
		c1.1-1.4,2.6-2.5,4.5-3.2s4-1.1,6.3-1.1c1.8,0,3.4,0.3,4.7,0.8c1.3,0.5,2.5,1.2,3.5,2.1c1,0.9,1.9,2,2.6,3.2
		c0.4,0.7,0.6,1.3,0.5,1.9c-0.1,0.6-0.4,1.1-0.9,1.4c-0.6,0.4-1.2,0.4-1.8,0.2c-0.7-0.2-1.1-0.6-1.5-1.2c-0.5-0.9-1.1-1.6-1.7-2.2
		c-0.7-0.6-1.5-1.1-2.4-1.4c-0.9-0.3-2-0.5-3.2-0.5c-2.2,0-4,0.4-5.5,1.3c-1.5,0.9-2.2,2.2-2.2,4c0,0.9,0.2,1.8,0.7,2.6
		c0.5,0.8,1.3,1.6,2.5,2.2c1.2,0.6,3,1,5.3,1.3c3.5,0.4,6.3,1.5,8.3,3.3c2,1.8,3,4.3,3,7.3c0,1.7-0.3,3.2-1,4.5
		c-0.7,1.3-1.6,2.3-2.8,3.2c-1.2,0.9-2.5,1.5-4,1.9C336.4,322.9,334.8,323.1,333.2,323.1z"/>
	<path class="st2" d="M363.4,322.8c-2.4,0-4.5-0.5-6.4-1.6c-1.8-1.1-3.3-2.6-4.3-4.5c-1.1-1.9-1.6-4.1-1.6-6.5
		c0-2.5,0.5-4.7,1.6-6.6c1.1-1.9,2.5-3.4,4.3-4.5c1.8-1.1,4-1.6,6.4-1.6c2.4,0,4.5,0.5,6.3,1.6c1.8,1.1,3.3,2.6,4.3,4.5
		c1.1,1.9,1.6,4.1,1.6,6.6c0,2.5-0.5,4.6-1.6,6.5c-1,1.9-2.5,3.4-4.3,4.5C367.9,322.3,365.8,322.8,363.4,322.8z M363.4,318.7
		c1.5,0,2.9-0.4,4.1-1.1c1.2-0.7,2.1-1.7,2.8-3c0.7-1.3,1-2.8,1-4.4c0-1.7-0.3-3.2-1-4.4c-0.7-1.3-1.6-2.3-2.8-3
		c-1.2-0.7-2.6-1.1-4.1-1.1c-1.5,0-2.9,0.4-4.1,1.1c-1.2,0.7-2.1,1.7-2.8,3c-0.7,1.3-1,2.8-1,4.4c0,1.7,0.3,3.1,1,4.4
		c0.7,1.3,1.6,2.3,2.8,3C360.5,318.4,361.9,318.7,363.4,318.7z"/>
	<path class="st2" d="M388.2,322.7c-1.3,0-2.5-0.4-3.5-1.1c-1-0.7-1.8-1.7-2.4-3c-0.6-1.3-0.8-2.7-0.8-4.4v-24.9
		c0-0.7,0.2-1.2,0.6-1.6c0.4-0.4,0.9-0.6,1.6-0.6c0.7,0,1.2,0.2,1.6,0.6c0.4,0.4,0.6,1,0.6,1.6v24.9c0,1.1,0.2,2.1,0.6,2.8
		c0.4,0.7,0.9,1.1,1.6,1.1h1.1c0.6,0,1.1,0.2,1.4,0.6c0.4,0.4,0.6,1,0.6,1.6c0,0.7-0.3,1.2-0.8,1.6
		C389.9,322.5,389.1,322.7,388.2,322.7L388.2,322.7z"/>
	<path class="st2" d="M406,322.9c-2,0-3.9-0.4-5.5-1.3c-1.6-0.9-2.9-2.2-3.8-3.9c-0.9-1.7-1.4-3.9-1.4-6.4V300
		c0-0.7,0.2-1.2,0.6-1.7c0.4-0.4,1-0.7,1.6-0.7c0.7,0,1.2,0.2,1.6,0.7c0.4,0.4,0.6,1,0.6,1.7v11.2c0,1.7,0.3,3.1,0.9,4.2
		s1.5,1.9,2.5,2.5c1.1,0.5,2.3,0.8,3.6,0.8c1.3,0,2.4-0.3,3.4-0.8c1-0.5,1.8-1.2,2.4-2.1c0.6-0.9,0.9-1.9,0.9-3h2.8
		c0,1.9-0.5,3.6-1.4,5.1c-0.9,1.5-2.1,2.7-3.7,3.6S407.9,322.9,406,322.9z M415.8,322.7c-0.7,0-1.2-0.2-1.6-0.7
		c-0.4-0.4-0.6-1-0.6-1.7V300c0-0.7,0.2-1.3,0.6-1.7c0.4-0.4,1-0.6,1.6-0.6c0.7,0,1.2,0.2,1.6,0.6c0.4,0.4,0.6,1,0.6,1.7v20.3
		c0,0.7-0.2,1.2-0.6,1.7C417,322.4,416.5,322.7,415.8,322.7z"/>
	<path class="st2" d="M437.1,322.8c-2.4,0-4.5-0.6-6.3-1.7c-1.9-1.1-3.3-2.6-4.4-4.5c-1.1-1.9-1.6-4-1.6-6.5c0-2.5,0.5-4.7,1.6-6.6
		c1-1.9,2.5-3.4,4.3-4.5c1.8-1.1,3.9-1.6,6.2-1.6c1.7,0,3.3,0.3,4.8,1c1.5,0.7,2.8,1.7,3.9,3.1c0.4,0.5,0.6,1,0.4,1.5
		c-0.1,0.5-0.4,1-1,1.4c-0.4,0.3-0.9,0.4-1.4,0.3c-0.5-0.1-1-0.4-1.4-0.8c-1.5-1.6-3.3-2.4-5.4-2.4c-1.5,0-2.8,0.4-4,1.1
		s-2.1,1.7-2.7,3c-0.7,1.3-1,2.8-1,4.5c0,1.6,0.3,3.1,1,4.4s1.6,2.3,2.8,3c1.2,0.7,2.6,1.1,4.1,1.1c1,0,1.9-0.1,2.7-0.4
		c0.8-0.3,1.5-0.7,2.2-1.2c0.5-0.4,1-0.6,1.5-0.7c0.5,0,0.9,0.1,1.3,0.4c0.5,0.4,0.8,0.9,0.8,1.4c0.1,0.5-0.1,1-0.5,1.4
		C443,321.8,440.3,322.8,437.1,322.8z"/>
	<path class="st2" d="M455.5,293.7c-0.8,0-1.5-0.3-2.1-0.9s-0.9-1.3-0.9-2.1c0-0.8,0.3-1.5,0.9-2.1s1.3-0.9,2.1-0.9
		c0.8,0,1.5,0.3,2.1,0.9s0.9,1.3,0.9,2.1c0,0.8-0.3,1.5-0.9,2.1S456.3,293.7,455.5,293.7z M455.5,322.7c-0.7,0-1.2-0.2-1.6-0.7
		c-0.4-0.4-0.6-1-0.6-1.7v-20.3c0-0.7,0.2-1.3,0.6-1.7c0.4-0.4,1-0.6,1.6-0.6c0.7,0,1.2,0.2,1.6,0.6c0.4,0.4,0.6,1,0.6,1.7v20.3
		c0,0.7-0.2,1.2-0.6,1.7C456.7,322.4,456.2,322.7,455.5,322.7z"/>
	<path class="st2" d="M477.2,322.8c-2.4,0-4.5-0.5-6.4-1.6c-1.8-1.1-3.3-2.6-4.3-4.5c-1.1-1.9-1.6-4.1-1.6-6.5
		c0-2.5,0.5-4.7,1.6-6.6c1.1-1.9,2.5-3.4,4.3-4.5c1.8-1.1,4-1.6,6.4-1.6c2.4,0,4.5,0.5,6.3,1.6c1.8,1.1,3.3,2.6,4.3,4.5
		c1.1,1.9,1.6,4.1,1.6,6.6c0,2.5-0.5,4.6-1.6,6.5c-1,1.9-2.5,3.4-4.3,4.5C481.8,322.3,479.6,322.8,477.2,322.8z M477.2,318.7
		c1.5,0,2.9-0.4,4.1-1.1s2.1-1.7,2.8-3c0.7-1.3,1-2.8,1-4.4c0-1.7-0.3-3.2-1-4.4c-0.7-1.3-1.6-2.3-2.8-3s-2.5-1.1-4.1-1.1
		c-1.5,0-2.9,0.4-4.1,1.1c-1.2,0.7-2.1,1.7-2.8,3c-0.7,1.3-1,2.8-1,4.4c0,1.7,0.3,3.1,1,4.4c0.7,1.3,1.6,2.3,2.8,3
		C474.3,318.4,475.7,318.7,477.2,318.7z"/>
	<path class="st2" d="M498.5,322.7c-0.7,0-1.2-0.2-1.6-0.7c-0.4-0.4-0.6-1-0.6-1.7v-20.3c0-0.7,0.2-1.3,0.6-1.7
		c0.4-0.4,1-0.6,1.6-0.6c0.7,0,1.2,0.2,1.6,0.6c0.4,0.4,0.6,1,0.6,1.7v20.3c0,0.7-0.2,1.2-0.6,1.7S499.2,322.7,498.5,322.7z
		 M516.8,322.7c-0.7,0-1.2-0.2-1.6-0.7s-0.6-1-0.6-1.7v-11.2c0-1.7-0.3-3.1-0.9-4.2c-0.6-1.1-1.5-1.9-2.5-2.4
		c-1.1-0.5-2.3-0.8-3.6-0.8c-1.2,0-2.4,0.3-3.4,0.8c-1,0.5-1.8,1.2-2.4,2.1c-0.6,0.9-0.9,1.9-0.9,3H498c0-1.9,0.5-3.6,1.4-5.1
		c0.9-1.5,2.1-2.7,3.7-3.6c1.6-0.9,3.3-1.3,5.3-1.3c2,0,3.9,0.4,5.5,1.3c1.6,0.9,2.9,2.2,3.8,3.9c0.9,1.7,1.4,3.9,1.4,6.4v11.2
		c0,0.7-0.2,1.2-0.6,1.7S517.4,322.7,516.8,322.7z"/>
	<path class="st2" d="M538,322.8c-2.5,0-4.6-0.5-6.6-1.6c-1.9-1.1-3.4-2.6-4.5-4.5c-1.1-1.9-1.6-4.1-1.6-6.5c0-2.5,0.5-4.7,1.5-6.6
		c1-1.9,2.4-3.4,4.2-4.5c1.8-1.1,3.9-1.6,6.2-1.6c2.3,0,4.3,0.5,6,1.6c1.7,1,2.9,2.5,3.8,4.3c0.9,1.8,1.3,4,1.3,6.4
		c0,0.6-0.2,1.1-0.6,1.4c-0.4,0.4-0.9,0.6-1.5,0.6h-17.9v-3.6h17.8l-1.8,1.3c0-1.5-0.3-2.9-0.9-4.1c-0.6-1.2-1.4-2.1-2.4-2.8
		c-1-0.7-2.3-1-3.8-1c-1.7,0-3.1,0.4-4.3,1.1c-1.2,0.8-2.1,1.8-2.7,3.1c-0.6,1.3-0.9,2.8-0.9,4.5c0,1.7,0.4,3.2,1.1,4.5
		c0.7,1.3,1.8,2.3,3.1,3.1s2.8,1.1,4.5,1.1c0.9,0,1.9-0.2,2.8-0.5c1-0.3,1.7-0.8,2.3-1.2c0.4-0.3,0.9-0.5,1.4-0.5
		c0.5,0,1,0.1,1.4,0.5c0.5,0.5,0.8,1,0.8,1.5c0,0.5-0.2,1-0.7,1.4c-1,0.8-2.3,1.5-3.8,2C540.8,322.6,539.4,322.8,538,322.8z"/>
	<path class="st2" d="M563,322.8c-2.1,0-4-0.3-5.8-1c-1.8-0.7-3.1-1.5-4.1-2.5c-0.4-0.5-0.6-1-0.6-1.7c0.1-0.6,0.4-1.1,0.9-1.5
		c0.6-0.5,1.2-0.7,1.8-0.6s1.1,0.3,1.5,0.8c0.5,0.6,1.3,1.1,2.4,1.6c1.1,0.5,2.3,0.8,3.7,0.8c1.7,0,3-0.3,3.9-0.9
		c0.9-0.6,1.4-1.3,1.4-2.2c0-0.9-0.4-1.7-1.3-2.4c-0.9-0.7-2.5-1.2-4.8-1.6c-3-0.6-5.2-1.5-6.5-2.7c-1.3-1.2-2-2.7-2-4.5
		c0-1.5,0.4-2.8,1.3-3.9c0.9-1,2-1.8,3.4-2.3c1.4-0.5,2.8-0.8,4.4-0.8c2,0,3.7,0.3,5.2,1c1.5,0.6,2.7,1.5,3.6,2.6
		c0.4,0.5,0.6,1,0.6,1.5c0,0.5-0.3,1-0.8,1.3c-0.5,0.3-1,0.4-1.7,0.3c-0.7-0.1-1.2-0.4-1.6-0.8c-0.7-0.7-1.5-1.2-2.4-1.5
		c-0.9-0.3-1.9-0.4-3-0.4c-1.3,0-2.4,0.2-3.3,0.7c-0.9,0.5-1.4,1.1-1.4,2c0,0.5,0.1,1,0.4,1.5c0.3,0.4,0.8,0.8,1.7,1.2
		c0.8,0.3,2,0.7,3.6,1c2.2,0.5,4,1,5.3,1.7c1.3,0.7,2.2,1.5,2.8,2.4c0.6,0.9,0.8,2,0.8,3.2c0,1.4-0.4,2.7-1.1,3.8
		c-0.7,1.1-1.8,2-3.2,2.7C566.9,322.5,565.1,322.8,563,322.8z"/>
	<path class="st2" d="M607.4,323.1c-2.4,0-4.6-0.5-6.7-1.4c-2.1-0.9-3.9-2.2-5.5-3.9s-2.8-3.6-3.6-5.8c-0.9-2.2-1.3-4.6-1.3-7.2
		c0-2.6,0.4-4.9,1.3-7.1c0.9-2.2,2.1-4.1,3.6-5.8c1.6-1.7,3.4-3,5.4-3.9s4.3-1.4,6.8-1.4c2.3,0,4.2,0.3,5.9,0.9c1.6,0.6,3.3,1.6,5,3
		c0.2,0.2,0.4,0.4,0.6,0.6c0.1,0.2,0.2,0.4,0.3,0.6c0,0.2,0.1,0.4,0.1,0.7c0,0.6-0.2,1.1-0.6,1.5c-0.4,0.4-0.9,0.6-1.5,0.6
		s-1.1-0.2-1.6-0.6c-1.1-1-2.2-1.7-3.4-2.2c-1.2-0.5-2.7-0.8-4.6-0.8c-1.8,0-3.4,0.4-4.9,1.1c-1.5,0.7-2.9,1.7-4.1,3
		c-1.2,1.3-2.1,2.8-2.7,4.4c-0.7,1.7-1,3.5-1,5.4c0,1.9,0.3,3.8,1,5.4s1.6,3.2,2.7,4.4s2.5,2.3,4.1,3c1.5,0.7,3.2,1.1,4.9,1.1
		c1.5,0,2.9-0.3,4.3-0.8c1.3-0.5,2.6-1.3,3.9-2.2c0.5-0.4,1.1-0.6,1.6-0.5c0.5,0,1,0.3,1.3,0.6c0.4,0.4,0.5,0.9,0.5,1.6
		c0,0.3-0.1,0.6-0.2,0.9c-0.1,0.3-0.3,0.6-0.6,0.8c-1.6,1.3-3.3,2.3-5.1,3S609.4,323.1,607.4,323.1z M619,317.5l-4.4-0.9v-8.2h-6.1
		c-0.7,0-1.2-0.2-1.6-0.6c-0.4-0.4-0.7-0.9-0.7-1.5c0-0.6,0.2-1.1,0.7-1.5c0.4-0.4,1-0.6,1.6-0.6h8.3c0.7,0,1.2,0.2,1.6,0.7
		c0.4,0.4,0.6,1,0.6,1.7V317.5z"/>
	<path class="st2" d="M631.7,322.7c-1.3,0-2.5-0.4-3.5-1.1c-1-0.7-1.8-1.7-2.4-3c-0.6-1.3-0.8-2.7-0.8-4.4v-24.9
		c0-0.7,0.2-1.2,0.6-1.6c0.4-0.4,0.9-0.6,1.6-0.6c0.7,0,1.2,0.2,1.6,0.6c0.4,0.4,0.6,1,0.6,1.6v24.9c0,1.1,0.2,2.1,0.6,2.8
		s0.9,1.1,1.6,1.1h1.1c0.6,0,1.1,0.2,1.4,0.6c0.4,0.4,0.6,1,0.6,1.6c0,0.7-0.3,1.2-0.8,1.6C633.4,322.5,632.7,322.7,631.7,322.7
		L631.7,322.7z"/>
	<path class="st2" d="M649,322.8c-2.4,0-4.5-0.5-6.4-1.6c-1.8-1.1-3.3-2.6-4.3-4.5c-1.1-1.9-1.6-4.1-1.6-6.5c0-2.5,0.5-4.7,1.6-6.6
		c1.1-1.9,2.5-3.4,4.3-4.5c1.8-1.1,4-1.6,6.4-1.6c2.4,0,4.5,0.5,6.3,1.6c1.8,1.1,3.3,2.6,4.3,4.5c1.1,1.9,1.6,4.1,1.6,6.6
		c0,2.5-0.5,4.6-1.6,6.5c-1,1.9-2.5,3.4-4.3,4.5C653.5,322.3,651.4,322.8,649,322.8z M649,318.7c1.5,0,2.9-0.4,4.1-1.1
		s2.1-1.7,2.8-3c0.7-1.3,1-2.8,1-4.4c0-1.7-0.3-3.2-1-4.4c-0.7-1.3-1.6-2.3-2.8-3s-2.5-1.1-4.1-1.1c-1.5,0-2.9,0.4-4.1,1.1
		c-1.2,0.7-2.1,1.7-2.8,3c-0.7,1.3-1,2.8-1,4.4c0,1.7,0.3,3.1,1,4.4c0.7,1.3,1.6,2.3,2.8,3C646.1,318.4,647.5,318.7,649,318.7z"/>
	<path class="st2" d="M680.2,322.8c-2.3,0-4.4-0.6-6.2-1.7c-1.8-1.1-3.3-2.6-4.4-4.5c-1.1-1.9-1.6-4.1-1.6-6.5v-20.8
		c0-0.7,0.2-1.3,0.6-1.7c0.4-0.4,1-0.6,1.6-0.6c0.7,0,1.2,0.2,1.6,0.6c0.4,0.4,0.6,1,0.6,1.7v12.3c1-1.3,2.3-2.3,3.8-3
		s3.1-1.1,4.8-1.1c2.2,0,4.1,0.6,5.8,1.7c1.7,1.1,3.1,2.6,4.1,4.5c1,1.9,1.5,4,1.5,6.5c0,2.4-0.5,4.6-1.6,6.5
		c-1.1,1.9-2.5,3.4-4.4,4.5S682.6,322.8,680.2,322.8z M680.2,318.7c1.5,0,2.9-0.4,4-1.1c1.2-0.7,2.1-1.8,2.8-3.1
		c0.7-1.3,1-2.8,1-4.4c0-1.6-0.3-3.1-1-4.4c-0.7-1.3-1.6-2.3-2.8-3c-1.2-0.7-2.5-1.1-4-1.1c-1.5,0-2.8,0.4-4,1.1
		c-1.2,0.7-2.1,1.8-2.8,3c-0.7,1.3-1,2.7-1,4.4c0,1.6,0.3,3.1,1,4.4c0.7,1.3,1.6,2.3,2.8,3.1C677.4,318.4,678.7,318.7,680.2,318.7z"
		/>
	<path class="st2" d="M709.4,322.8c-2.2,0-4.1-0.6-5.8-1.7c-1.7-1.1-3.1-2.6-4.1-4.5s-1.5-4-1.5-6.5c0-2.4,0.5-4.6,1.6-6.5
		c1.1-1.9,2.5-3.4,4.4-4.5c1.9-1.1,3.9-1.7,6.2-1.7s4.4,0.6,6.2,1.7c1.8,1.1,3.3,2.6,4.4,4.5c1.1,1.9,1.6,4.1,1.6,6.5h-1.7
		c0,2.4-0.5,4.6-1.5,6.5c-1,1.9-2.4,3.4-4.1,4.5C713.5,322.3,711.6,322.8,709.4,322.8z M710.3,318.7c1.5,0,2.9-0.4,4-1.1
		c1.2-0.7,2.1-1.8,2.8-3.1c0.7-1.3,1-2.7,1-4.4c0-1.6-0.3-3.1-1-4.4c-0.7-1.3-1.6-2.3-2.8-3.1c-1.2-0.7-2.5-1.1-4-1.1
		c-1.5,0-2.8,0.4-4,1.1c-1.2,0.7-2.1,1.8-2.8,3.1c-0.7,1.3-1,2.8-1,4.4c0,1.6,0.3,3.1,1,4.4c0.7,1.3,1.6,2.3,2.8,3.1
		C707.5,318.4,708.8,318.7,710.3,318.7z M720.2,322.7c-0.7,0-1.2-0.2-1.6-0.7s-0.6-1-0.6-1.7v-7l0.8-4.8l3.7,1.6v10.2
		c0,0.7-0.2,1.2-0.6,1.7C721.4,322.5,720.9,322.7,720.2,322.7z"/>
	<path class="st2" d="M735.1,322.7c-1.3,0-2.5-0.4-3.5-1.1c-1-0.7-1.8-1.7-2.4-3c-0.6-1.3-0.8-2.7-0.8-4.4v-24.9
		c0-0.7,0.2-1.2,0.6-1.6c0.4-0.4,0.9-0.6,1.6-0.6c0.7,0,1.2,0.2,1.6,0.6c0.4,0.4,0.6,1,0.6,1.6v24.9c0,1.1,0.2,2.1,0.6,2.8
		s0.9,1.1,1.6,1.1h1.1c0.6,0,1.1,0.2,1.4,0.6c0.4,0.4,0.6,1,0.6,1.6c0,0.7-0.3,1.2-0.8,1.6C736.8,322.5,736,322.7,735.1,322.7
		L735.1,322.7z"/>
	<path class="st2" d="M752.8,322.8c-2.5,0-4.6-0.5-6.6-1.6c-1.9-1.1-3.4-2.6-4.5-4.5c-1.1-1.9-1.6-4.1-1.6-6.5
		c0-2.5,0.5-4.7,1.5-6.6c1-1.9,2.4-3.4,4.2-4.5c1.8-1.1,3.9-1.6,6.2-1.6c2.3,0,4.3,0.5,6,1.6c1.7,1,2.9,2.5,3.8,4.3
		c0.9,1.8,1.3,4,1.3,6.4c0,0.6-0.2,1.1-0.6,1.4c-0.4,0.4-0.9,0.6-1.5,0.6h-17.9v-3.6H761l-1.8,1.3c0-1.5-0.3-2.9-0.9-4.1
		c-0.6-1.2-1.4-2.1-2.4-2.8c-1-0.7-2.3-1-3.8-1c-1.7,0-3.1,0.4-4.3,1.1c-1.2,0.8-2.1,1.8-2.7,3.1c-0.6,1.3-0.9,2.8-0.9,4.5
		c0,1.7,0.4,3.2,1.1,4.5c0.7,1.3,1.8,2.3,3.1,3.1s2.8,1.1,4.5,1.1c0.9,0,1.9-0.2,2.8-0.5c1-0.3,1.7-0.8,2.3-1.2
		c0.4-0.3,0.9-0.5,1.4-0.5c0.5,0,1,0.1,1.4,0.5c0.5,0.5,0.8,1,0.8,1.5c0,0.5-0.2,1-0.7,1.4c-1,0.8-2.3,1.5-3.8,2
		C755.5,322.6,754.1,322.8,752.8,322.8z"/>
	<path class="st2" d="M777.8,322.8c-2.1,0-4-0.3-5.8-1c-1.8-0.7-3.1-1.5-4.1-2.5c-0.4-0.5-0.6-1-0.6-1.7c0.1-0.6,0.4-1.1,0.9-1.5
		c0.6-0.5,1.2-0.7,1.8-0.6s1.1,0.3,1.5,0.8c0.5,0.6,1.3,1.1,2.4,1.6c1.1,0.5,2.3,0.8,3.7,0.8c1.7,0,3-0.3,3.9-0.9
		c0.9-0.6,1.4-1.3,1.4-2.2c0-0.9-0.4-1.7-1.3-2.4c-0.9-0.7-2.5-1.2-4.8-1.6c-3-0.6-5.2-1.5-6.5-2.7c-1.3-1.2-2-2.7-2-4.5
		c0-1.5,0.4-2.8,1.3-3.9c0.9-1,2-1.8,3.4-2.3c1.4-0.5,2.8-0.8,4.4-0.8c2,0,3.7,0.3,5.2,1c1.5,0.6,2.7,1.5,3.6,2.6
		c0.4,0.5,0.6,1,0.6,1.5c0,0.5-0.3,1-0.8,1.3c-0.5,0.3-1,0.4-1.7,0.3c-0.7-0.1-1.2-0.4-1.6-0.8c-0.7-0.7-1.5-1.2-2.4-1.5
		c-0.9-0.3-1.9-0.4-3-0.4c-1.3,0-2.4,0.2-3.3,0.7c-0.9,0.5-1.4,1.1-1.4,2c0,0.5,0.1,1,0.4,1.5c0.3,0.4,0.8,0.8,1.7,1.2
		c0.8,0.3,2,0.7,3.6,1c2.2,0.5,4,1,5.3,1.7c1.3,0.7,2.2,1.5,2.8,2.4c0.6,0.9,0.8,2,0.8,3.2c0,1.4-0.4,2.7-1.1,3.8
		c-0.7,1.1-1.8,2-3.2,2.7C781.6,322.5,779.9,322.8,777.8,322.8z"/>
</g>
</svg>
