<svg id="jll-logo-positive" data-name="JLL Logo Positive" xmlns="http://www.w3.org/2000/svg" viewBox="0 0 580.94 250.72"><defs><style>.cls-1{fill:#e30613;}</style></defs><title>JLL Logo Positive</title><path d="M350.66,50.17H287V56a60.15,60.15,0,0,1,7.59,1.09A12.32,12.32,0,0,1,300,59.53c3.81,3.24,3.73,9.31,3.73,20.3v73.79c0,15,1.34,36.28-19.93,36-9.13-.12-18.49-6.62-21.4-18.49h-7.32c3.1,19.89,13.69,33.38,39.37,33.38h.12c21.81,0,41.28-10,41.25-44.08V79.83c0-11-.08-16.81,3.72-20.06C342,57.7,344,56.67,350.66,56Z"/><path d="M423.74,50.17H360V56c6.66.65,8.67,1.67,11.1,3.75,3.05,2.6,3.6,6.86,3.7,14.1,0,2.2,0,4.64,0,7.38v88.26c0,2.74,0,5.18,0,7.38-.1,7.25-.65,11.5-3.7,14.1-2.43,2.08-4.44,3.1-11.1,3.75v5.86h96.27l10.15-29.47H459c-7.4,16.19-18.84,18.08-29.28,18.08-8.53,0-14.21-.48-18.24-3.09-3.25-2.08-4.46-7.56-4.52-16.85V79.83c0-11-.08-17.06,3.72-20.3,2.43-2.08,6.43-2.85,13.09-3.5V50.17Z"/><path d="M529.9,50.17H466.19V56c6.65.65,8.66,1.67,11.09,3.75,3.05,2.6,3.6,6.86,3.7,14.1,0,2.2,0,4.64,0,7.38v88.26c0,2.74,0,5.18,0,7.38-.1,7.25-.65,11.5-3.7,14.1-2.43,2.08-4.44,3.1-11.09,3.75v5.86h96.26l10.16-29.47h-7.48c-7.4,16.19-18.84,18.08-29.28,18.08-8.53,0-14.21-.48-18.24-3.09-3.25-2.08-4.46-7.56-4.52-16.85V79.83c0-11-.08-17.06,3.73-20.3,2.43-2.08,6.43-2.85,13.08-3.5V50.17Z"/><path class="cls-1" d="M102.63,246a56.33,56.33,0,0,0,8.48-4.87c.57-.4,1.16-.77,1.71-1.19a73.33,73.33,0,0,0,9.4-8.47,93.67,93.67,0,0,0,10.28-13.08A125.55,125.55,0,0,0,139.14,207a164.11,164.11,0,0,0,15.4-49.09,211.91,211.91,0,0,0,2.44-32.5h0a212,212,0,0,0-2.44-32.51,164,164,0,0,0-15.4-49.08c-.91-1.78-1.88-3.54-2.87-5.28A149.35,149.35,0,0,0,125.92,62.4,187.63,187.63,0,0,1,135,109.17c.37,5.37.51,10.78.52,16.19h0c0,5.41-.13,10.82-.5,16.19a181.34,181.34,0,0,1-12.81,56.64,141.2,141.2,0,0,1-10.28,20.17c-.93,1.52-1.8,3.07-2.79,4.55-2,3-4.2,5.94-6.52,8.81a107.57,107.57,0,0,1-8.48,9.39,87.52,87.52,0,0,1-10.25,8.63c-.29.21-.56.43-.86.64v.34h0A50.12,50.12,0,0,0,102.63,246Zm0-14.22Z"/><path class="cls-1" d="M141.8,246a56.43,56.43,0,0,0,8.49-4.87c.56-.4,1.15-.77,1.71-1.19,11.36-8.51,19.9-20.42,26.31-33a163.82,163.82,0,0,0,15.4-49.09,211.91,211.91,0,0,0,2.44-32.5h0a213.28,213.28,0,0,0-2.43-32.51,163.78,163.78,0,0,0-15.41-49.08c-5.92-11.59-13.68-22.61-23.79-30.93a118.59,118.59,0,0,0-9,11q1.45,2,2.82,4c16.16,24,23.91,52.73,25.88,81.36q.56,8.06.55,16.19c0,5.41-.18,10.82-.55,16.19-2,28.63-9.73,57.37-25.88,81.36-2,3-4.2,5.94-6.52,8.81a110.59,110.59,0,0,1-8.47,9.39,88.35,88.35,0,0,1-10.25,8.63l-.86.64v.34h0A50.12,50.12,0,0,0,141.8,246Z"/><path class="cls-1" d="M191.17,239.92c11.37-8.5,19.9-20.42,26.31-33a163.84,163.84,0,0,0,15.41-49.09,210.63,210.63,0,0,0,2.43-32.5h0a212,212,0,0,0-2.44-32.51,163.78,163.78,0,0,0-15.41-49.08c-6.41-12.55-14.94-24.47-26.31-33C182.69,4.45,172.06.27,161.4,0h0V.34c10.38,7.23,19.15,17.13,26.1,27.47,16.16,24,23.91,52.73,25.89,81.36q.54,8.06.55,16.19t-.55,16.19c-2,28.63-9.73,57.37-25.89,81.36-7,10.34-15.72,20.24-26.1,27.47v.34h0C172.06,250.45,182.69,246.27,191.17,239.92Z"/><path class="cls-1" d="M141.81,4.73a56.38,56.38,0,0,0-8.48,4.88c-.57.39-1.16.77-1.71,1.19a74,74,0,0,0-9.4,8.46,94.35,94.35,0,0,0-10.28,13.09,125.55,125.55,0,0,0-6.64,11.42A164,164,0,0,0,89.9,92.85a212,212,0,0,0-2.44,32.51h0a211.91,211.91,0,0,0,2.44,32.5A164.11,164.11,0,0,0,105.3,207c.91,1.78,1.88,3.54,2.87,5.28a148.45,148.45,0,0,0,10.35-23.91,187.63,187.63,0,0,1-9.11-46.77c-.37-5.37-.51-10.78-.52-16.19h0c0-5.41.13-10.82.5-16.19a181.34,181.34,0,0,1,12.81-56.64A141.84,141.84,0,0,1,132.5,32.35c.93-1.51,1.8-3.06,2.79-4.54,2-3,4.2-5.94,6.52-8.81a107.57,107.57,0,0,1,8.48-9.39A86.71,86.71,0,0,1,160.54,1c.29-.21.56-.44.86-.64V0h0A50.11,50.11,0,0,0,141.81,4.73Zm0,14.23Z"/><path class="cls-1" d="M102.64,4.73a56.49,56.49,0,0,0-8.49,4.88c-.56.39-1.15.77-1.71,1.19-11.36,8.5-19.9,20.42-26.31,33a163.76,163.76,0,0,0-15.4,49.08,212,212,0,0,0-2.44,32.51h0a211.89,211.89,0,0,0,2.43,32.5A164.13,164.13,0,0,0,66.13,207c5.92,11.59,13.68,22.61,23.79,30.93a119.93,119.93,0,0,0,9-10.95q-1.45-2-2.82-4c-16.15-24-23.91-52.73-25.88-81.36-.37-5.37-.55-10.78-.55-16.19s.18-10.82.55-16.19c2-28.63,9.73-57.37,25.88-81.36,2-3,4.2-5.94,6.52-8.81a110.59,110.59,0,0,1,8.47-9.39A88.35,88.35,0,0,1,121.36,1c.29-.21.57-.44.86-.64V0h0A50.11,50.11,0,0,0,102.64,4.73Z"/><path class="cls-1" d="M53.27,10.8C41.9,19.3,33.37,31.22,27,43.77A163.78,163.78,0,0,0,11.55,92.85a210.76,210.76,0,0,0-2.43,32.51h0a211.91,211.91,0,0,0,2.44,32.5A163.84,163.84,0,0,0,27,207c6.41,12.55,14.94,24.47,26.31,33,8.48,6.35,19.11,10.53,29.77,10.8h0v-.34C72.67,243.15,63.9,233.25,57,222.91c-16.16-24-23.91-52.73-25.89-81.36-.36-5.37-.54-10.78-.54-16.19s.18-10.82.54-16.19C33,80.54,40.79,51.8,57,27.81,63.9,17.47,72.67,7.57,83.05.34V0h0C72.38.27,61.75,4.45,53.27,10.8Z"/><path class="cls-1" d="M129.09,237.88a116.84,116.84,0,0,0,9-11q-1.46-2-2.82-4c-1-1.48-1.86-3-2.79-4.54a94.35,94.35,0,0,1-10.28,13.09,77.2,77.2,0,0,0,6.87,6.42"/><path class="cls-1" d="M150.29,241.11a56,56,0,0,1-8.48,4.88,50.11,50.11,0,0,0,19.58,4.73h0v-.34a87.27,87.27,0,0,1-11.1-9.27"/><path class="cls-1" d="M118.52,250.46c1.06-.11,2.12-.29,3.17-.47-1.07-.76-2.13-1.54-3.17-2.36a91.4,91.4,0,0,1-7.41-6.52,56.38,56.38,0,0,1-8.48,4.88,53,53,0,0,0,12.72,4c1.06.18,2.11.36,3.17.47m3.7.26v-.34c-.18-.13-.35-.27-.53-.39-1,.18-2.11.36-3.17.47,1.23.13,2.47.23,3.7.26Z"/><path class="cls-1" d="M115.35,12.84a118.43,118.43,0,0,0-9,11q1.45,2,2.82,4c1,1.48,1.86,3,2.8,4.54a94.28,94.28,0,0,1,10.27-13.09,75.85,75.85,0,0,0-6.87-6.42"/><path class="cls-1" d="M94.16,9.61a55.89,55.89,0,0,1,8.48-4.88A50.2,50.2,0,0,0,83.05,0h0V.34A87.36,87.36,0,0,1,94.16,9.61"/><path class="cls-1" d="M141.81,4.73a53,53,0,0,0-12.72-4C128,.55,127,.37,125.92.26h0c-1.23-.13-2.46-.23-3.7-.26h0V.34c.18.13.35.27.53.39h0c1.07.76,2.13,1.54,3.17,2.35a91.53,91.53,0,0,1,7.41,6.53,56.38,56.38,0,0,1,8.48-4.88"/></svg>
