<svg xmlns="http://www.w3.org/2000/svg" xmlns:xlink="http://www.w3.org/1999/xlink" width="158.896" height="50.748" viewBox="0 0 158.896 50.748">
  <defs>
    <clipPath id="clip-path">
      <path id="Path_634" data-name="Path 634" d="M705.861-1.266h158.9V-52.014h-158.9Z" transform="translate(-705.861 52.014)" fill="none"/>
    </clipPath>
  </defs>
  <g id="Group_1266" data-name="Group 1266" transform="translate(0 0)" clip-path="url(#clip-path)">
    <g id="Group_1233" data-name="Group 1233" transform="translate(0 16.266)">
      <path id="Path_601" data-name="Path 601" d="M-.151-.066V12.508a11.476,11.476,0,0,1-1.218,5.918,8.8,8.8,0,0,1-4.22,3.512l-.594-.821a5.828,5.828,0,0,0,2.548-2.606,12.075,12.075,0,0,0,.991-5.494V-.066c0-1.614-1.388-1.557-2.521-1.557V-2.7c.85,0,2.266.056,3.682.056S1.124-2.7,1.973-2.7v1.076c-.85,0-2.124-.057-2.124,1.557" transform="translate(6.182 2.699)" fill="#fff"/>
    </g>
    <g id="Group_1234" data-name="Group 1234" transform="translate(14.5 15.756)">
      <path id="Path_602" data-name="Path 602" d="M-.25-.036C-4.668-.036-7.33,3.532-7.33,8.6c0,3.709,1.274,8.807,7.023,8.807,3.823,0,6.768-2.719,6.768-8.383C6.461,4.269,4.79-.036-.25-.036M-.59,18.853c-5.976,0-9.685-3.908-9.685-9.827C-10.275,2.938-6.31-1.48-.109-1.48c6.287,0,9.486,4.531,9.486,10.166,0,5.238-3.625,10.166-9.967,10.166" transform="translate(10.275 1.48)" fill="#fff"/>
    </g>
    <g id="Group_1235" data-name="Group 1235" transform="translate(40.273 16.266)">
      <path id="Path_603" data-name="Path 603" d="M-.435-.481c-1.416,0-2.52.057-3.37.057V-1.5c.85,0,2.124.058,2.124-1.557V-9.713H-13.234v6.655c0,1.615,1.274,1.557,2.124,1.557V-.425c-.85,0-1.954-.057-3.37-.057s-2.52.057-3.37.057V-1.5c.85,0,2.124.058,2.124-1.557V-17.132c0-1.615-1.274-1.558-2.124-1.558v-1.075c.85,0,1.953.056,3.37.056s2.52-.056,3.37-.056v1.075c-.85,0-2.124-.057-2.124,1.558v6.116H-1.681v-6.116c0-1.615-1.274-1.558-2.124-1.558v-1.075c.85,0,2.011.056,3.426.056s2.464-.056,3.313-.056v1.075c-.85,0-2.124-.057-2.124,1.558V-3.058C.811-1.443,2.085-1.5,2.935-1.5V-.425c-.85,0-1.953-.057-3.37-.057" transform="translate(17.85 19.765)" fill="#fff"/>
    </g>
    <g id="Group_1236" data-name="Group 1236" transform="translate(61.505 22.099)">
      <path id="Path_604" data-name="Path 604" d="M-.053-.245A2.238,2.238,0,0,0,2.326,1.992,2.71,2.71,0,0,0,4.563.888l.028-3.6C1.845-2.4-.053-2.029-.053-.245M7.168,3.663A3.82,3.82,0,0,1,4.987,1.794,4.6,4.6,0,0,1,1.306,3.663,3.217,3.217,0,0,1-2.177.548,3.656,3.656,0,0,1,.655-2.963a16.416,16.416,0,0,1,3.936-.708V-5.484a2.648,2.648,0,0,0-2.86-2.831A3.843,3.843,0,0,0-1.384-6.7l-.651-.567a5.024,5.024,0,0,1,4.7-2.8c4.361,0,4.163,3.653,4.163,3.964L6.772-.245c0,1.472,1.359,2.039,2.577,2.548Z" transform="translate(2.177 10.071)" fill="#fff"/>
    </g>
    <g id="Group_1237" data-name="Group 1237" transform="translate(73.282 22.098)">
      <path id="Path_605" data-name="Path 605" d="M-.522-.336c-1.416,0-2.633.057-3.313.057V-1.355c1.161,0,2.124-.14,2.124-1.812V-9c0-1.783-1.3-2.888-3.2-2.888a4.2,4.2,0,0,0-3.115,1.443,6.493,6.493,0,0,1,.085.991v6.287c0,1.7,1.076,1.812,2.125,1.812V-.279c-.85,0-1.9-.057-3.314-.057s-2.633.057-3.312.057V-1.355c1.16,0,2.124-.14,2.124-1.812V-9c0-1.783-1.3-2.888-3.2-2.888a4.24,4.24,0,0,0-3.144,1.3v7.42c0,1.7,1.076,1.812,2.124,1.812V-.279c-.85,0-1.9-.057-3.313-.057s-2.634.057-3.313.057V-1.355c1.161,0,2.124-.14,2.124-1.812v-8.155c-1.133-.256-1.36-.283-2.407-.6v-1.075a17.074,17.074,0,0,0,3.794-.794h.935v2.039a5.722,5.722,0,0,1,4.531-2.039,4.148,4.148,0,0,1,3.766,2.295,6.528,6.528,0,0,1,4.842-2.295A4.03,4.03,0,0,1,.667-9.511v6.344c0,1.7,1.076,1.812,2.124,1.812V-.279c-.85,0-1.9-.057-3.313-.057" transform="translate(21.449 13.787)" fill="#fff"/>
    </g>
    <g id="Group_1238" data-name="Group 1238" transform="translate(96.215 13.915)">
      <path id="Path_606" data-name="Path 606" d="M-.193-.247A4.172,4.172,0,0,0-3.136.631V9.437a4.051,4.051,0,0,0,2.944.935c2.492,0,4.077-2.152,4.077-5.126,0-3.086-1.3-5.493-4.077-5.493M-1.1,11.817A7.306,7.306,0,0,1-5.516,10.4V-7.7c-1.133-.255-1.359-.311-2.408-.622V-9.394a17.03,17.03,0,0,0,3.8-.765h.992V-.53A5.929,5.929,0,0,1,1-1.974c3.455,0,5.437,2.831,5.437,6.2,0,3.681-2.407,7.59-7.532,7.59" transform="translate(7.924 10.159)" fill="#fff"/>
    </g>
    <g id="Group_1239" data-name="Group 1239" transform="translate(110.507 22.099)">
      <path id="Path_607" data-name="Path 607" d="M-.2-.061A3.705,3.705,0,0,0-3.34,1.157V8.123c0,1.7,1.188,1.813,2.321,1.813v1.075c-.849,0-1.983-.057-3.4-.057s-2.577.057-3.426.057V9.936c1.162,0,2.124-.141,2.124-1.813V-.032C-6.853-.287-7.078-.315-8.127-.627V-1.7a17.092,17.092,0,0,0,3.8-.793H-3.4V0A4.546,4.546,0,0,1,.369-2.5a3.425,3.425,0,0,1,1.075.17V.138A8.4,8.4,0,0,0-.2-.061" transform="translate(8.127 2.496)" fill="#fff"/>
    </g>
    <g id="Group_1240" data-name="Group 1240" transform="translate(119.838 22.099)">
      <path id="Path_608" data-name="Path 608" d="M-.167-.034c-3.171,0-4.022,3.087-4.022,5.494,0,2.662.963,5.55,4.05,5.55C3.032,11.009,3.8,7.98,3.8,5.432c0-2.35-.849-5.466-3.964-5.466M-.31,12.37c-3.879,0-6.569-2.435-6.569-6.768A6.853,6.853,0,0,1-.111-1.393c4.219,0,6.57,2.775,6.57,6.8A6.642,6.642,0,0,1-.31,12.37" transform="translate(6.879 1.393)" fill="#fff"/>
    </g>
    <g id="Group_1241" data-name="Group 1241" transform="translate(16.354 40.712)">
      <path id="Path_609" data-name="Path 609" d="M-.147-.046C-.125-.63-.428-1.289-1.961-1.289A2.659,2.659,0,0,0-4.955,1.693,2.994,2.994,0,0,0-1.865,5C-.709,5-.2,4.773-.2,3.865h.41s-.021.421-.021.745.021.745.021.745A19.019,19.019,0,0,1-1.908,5.6c-2.474,0-4.116-1.349-4.116-3.695,0-2.214,1.383-3.8,4.008-3.8A14.909,14.909,0,0,1-.093-1.71c.162,0,.357-.011.357-.011S.243-1.18.243-.856s.021.81.021.81Z" transform="translate(6.024 1.893)" fill="#fff"/>
    </g>
    <g id="Group_1242" data-name="Group 1242" transform="translate(23.099 42.979)">
      <path id="Path_610" data-name="Path 610" d="M-.02-.094A.855.855,0,0,0,.887.76,1.036,1.036,0,0,0,1.741.339l.011-1.373C.7-.915-.02-.775-.02-.094M2.735,1.4A1.459,1.459,0,0,1,1.9.685,1.756,1.756,0,0,1,.5,1.4,1.227,1.227,0,0,1-.831.209,1.4,1.4,0,0,1,.25-1.131a6.252,6.252,0,0,1,1.5-.27v-.692A1.01,1.01,0,0,0,.661-3.173a1.467,1.467,0,0,0-1.188.616l-.249-.216a1.917,1.917,0,0,1,1.793-1.07A1.4,1.4,0,0,1,2.605-2.331L2.584-.094c0,.562.518.779.982.973Z" transform="translate(0.831 3.843)" fill="#fff"/>
    </g>
    <g id="Group_1243" data-name="Group 1243" transform="translate(27.135 42.979)">
      <path id="Path_611" data-name="Path 611" d="M-.074-.017A1.467,1.467,0,0,0-1.231.427v3.2a1.69,1.69,0,0,0,1.156.389c.886,0,1.566-.573,1.566-2.009C1.492.707.822-.017-.074-.017M-.1,4.543a2.236,2.236,0,0,1-1.135-.206V5.883c0,.647.454.691.886.691v.411c-.324,0-.756-.021-1.3-.021s-.983.021-1.307.021V6.574c.443,0,.811-.054.811-.691V.243c-.432-.1-.519-.108-.918-.226V-.395A6.437,6.437,0,0,0-1.609-.7h.357v.67A1.952,1.952,0,0,1,.347-.7,2.2,2.2,0,0,1,2.486,1.745,2.623,2.623,0,0,1-.1,4.543" transform="translate(3.056 0.698)" fill="#fff"/>
    </g>
    <g id="Group_1244" data-name="Group 1244" transform="translate(32.774 40.548)">
      <path id="Path_612" data-name="Path 612" d="M-.032-.031A.6.6,0,0,1-.669-.657.6.6,0,0,1-.01-1.263a.588.588,0,0,1,.649.617.617.617,0,0,1-.67.616M.066,6.3c-.541,0-1,.02-1.263.02V5.911c.442,0,.81-.054.81-.691V2.109c-.432-.1-.519-.108-.919-.226V1.472a6.531,6.531,0,0,0,1.448-.3H.519V5.22c0,.648.411.691.81.691v.411c-.324,0-.723-.02-1.263-.02" transform="translate(1.307 1.263)" fill="#fff"/>
    </g>
    <g id="Group_1245" data-name="Group 1245" transform="translate(35.29 42.17)">
      <path id="Path_613" data-name="Path 613" d="M-.049-.151c-.724,0-1.394-.3-1.394-1.231l.055-3.145h-.627v-.41A4.431,4.431,0,0,0-.871-6.189H-.46L-.471-5.077H1.324v.55h-1.8L-.524-1.749c-.032.863.529.961.853.961a1.353,1.353,0,0,0,.941-.335l.249.335A2.087,2.087,0,0,1-.049-.151" transform="translate(2.016 6.189)" fill="#fff"/>
    </g>
    <g id="Group_1246" data-name="Group 1246" transform="translate(38.835 42.979)">
      <path id="Path_614" data-name="Path 614" d="M-.02-.094A.855.855,0,0,0,.887.76,1.036,1.036,0,0,0,1.741.339l.011-1.373C.7-.915-.02-.775-.02-.094M2.735,1.4A1.459,1.459,0,0,1,1.9.685,1.756,1.756,0,0,1,.5,1.4,1.227,1.227,0,0,1-.831.209,1.4,1.4,0,0,1,.25-1.131a6.252,6.252,0,0,1,1.5-.27v-.692A1.01,1.01,0,0,0,.661-3.173a1.47,1.47,0,0,0-1.189.616l-.248-.216a1.917,1.917,0,0,1,1.793-1.07A1.4,1.4,0,0,1,2.605-2.331L2.584-.094c0,.562.518.779.982.973Z" transform="translate(0.831 3.843)" fill="#fff"/>
    </g>
    <g id="Group_1247" data-name="Group 1247" transform="translate(43.282 39.857)">
      <path id="Path_615" data-name="Path 615" d="M-.034-.206c-.54,0-.94.021-1.263.021V-.6c.431,0,.81-.043.81-.692V-7.52c-.432-.1-.519-.119-.918-.238v-.41A6.465,6.465,0,0,0,.041-8.461H.419v7.174c0,.649.411.692.811.692v.411C.905-.185.506-.206-.034-.206" transform="translate(1.406 8.461)" fill="#fff"/>
    </g>
    <g id="Group_1248" data-name="Group 1248" transform="translate(47.636 40.754)">
      <path id="Path_616" data-name="Path 616" d="M-.2-.033V5.034c0,.616.486.6.81.6V6.04c-.324,0-.745-.021-1.285-.021s-.962.021-1.286.021V5.629c.324,0,.811.02.811-.6V0L-3.585,6.04h-.67L-6.761.605v4.31c0,.692.541.713.864.713V6.04c-.324-.012-.616-.021-1.156-.021s-.832.021-1.156.021V5.629c.324,0,.8-.021.8-.713V-.033c0-.811-.357-.9-.929-.9V-1.34s.367.011.907.011.907-.011.907-.011l2.83,6.18L-1.24-1.34s.411.011.95.011S.661-1.34.661-1.34v.411c-.53,0-.864-.021-.864.9" transform="translate(8.338 1.34)" fill="#fff"/>
    </g>
    <g id="Group_1249" data-name="Group 1249" transform="translate(57.06 42.979)">
      <path id="Path_617" data-name="Path 617" d="M-.02-.094A.855.855,0,0,0,.887.76,1.034,1.034,0,0,0,1.741.339l.011-1.373C.7-.915-.02-.775-.02-.094M2.735,1.4A1.459,1.459,0,0,1,1.9.685,1.754,1.754,0,0,1,.5,1.4,1.227,1.227,0,0,1-.83.209,1.394,1.394,0,0,1,.25-1.131a6.252,6.252,0,0,1,1.5-.27v-.692A1.01,1.01,0,0,0,.661-3.173a1.467,1.467,0,0,0-1.188.616l-.249-.216a1.917,1.917,0,0,1,1.793-1.07A1.4,1.4,0,0,1,2.605-2.331L2.584-.094c0,.562.518.779.983.973Z" transform="translate(0.83 3.843)" fill="#fff"/>
    </g>
    <g id="Group_1250" data-name="Group 1250" transform="translate(61.505 42.98)">
      <path id="Path_618" data-name="Path 618" d="M-.117-.128c-.54,0-1,.021-1.263.021V-.517c.443,0,.81-.055.81-.692V-3.435a1.1,1.1,0,0,0-1.221-1.1,1.622,1.622,0,0,0-1.2.5v2.83c0,.649.411.692.811.692v.411c-.324,0-.724-.021-1.264-.021s-1,.021-1.263.021V-.517c.443,0,.81-.055.81-.692V-4.32c-.431-.1-.518-.108-.918-.226v-.411a6.542,6.542,0,0,0,1.448-.3h.356v.778a2.186,2.186,0,0,1,1.73-.778A1.537,1.537,0,0,1,.336-3.629v2.42c0,.649.411.692.811.692v.411C.823-.107.423-.128-.117-.128" transform="translate(4.817 5.26)" fill="#fff"/>
    </g>
    <g id="Group_1251" data-name="Group 1251" transform="translate(67.635 42.979)">
      <path id="Path_619" data-name="Path 619" d="M-.02-.094A.855.855,0,0,0,.887.76,1.035,1.035,0,0,0,1.741.339l.011-1.373C.7-.915-.02-.775-.02-.094M2.735,1.4A1.459,1.459,0,0,1,1.9.685,1.756,1.756,0,0,1,.5,1.4,1.226,1.226,0,0,1-.83.209,1.394,1.394,0,0,1,.25-1.131a6.252,6.252,0,0,1,1.5-.27v-.692A1.01,1.01,0,0,0,.661-3.173a1.467,1.467,0,0,0-1.188.616l-.249-.216a1.917,1.917,0,0,1,1.793-1.07A1.4,1.4,0,0,1,2.605-2.331L2.584-.094c0,.562.518.779.983.973Z" transform="translate(0.83 3.843)" fill="#fff"/>
    </g>
    <g id="Group_1252" data-name="Group 1252" transform="translate(71.971 42.98)">
      <path id="Path_620" data-name="Path 620" d="M-.059-.013A1.186,1.186,0,0,0-1.248,1.273,1.182,1.182,0,0,0-.07,2.591a1.175,1.175,0,0,0,1.231-1.3A1.2,1.2,0,0,0-.059-.013M.178,4.849c-.431-.032-.7-.065-1.188-.119a1.11,1.11,0,0,0-.669.844c0,.68.8,1.048,1.761,1.048,1.016,0,1.653-.5,1.653-1.092,0-.573-.681-.606-1.556-.681M1.734.279a1.7,1.7,0,0,1,.324,1.016,1.937,1.937,0,0,1-2.1,1.815,1.836,1.836,0,0,1-.724-.075c-.162.064-.486.27-.486.55,0,.368.8.4,1.7.476.983.086,2.01.108,2.01,1.091a2.474,2.474,0,0,1-2.679,2.1c-1.34,0-2.215-.594-2.215-1.318a1.673,1.673,0,0,1,1-1.329c-.324-.118-.68-.324-.68-.723,0-.421.724-.855.95-.974a1.788,1.788,0,0,1-1.016-1.6A1.979,1.979,0,0,1-.027-.52a2.287,2.287,0,0,1,1.178.3H2.663v.5Z" transform="translate(2.436 0.52)" fill="#fff"/>
    </g>
    <g id="Group_1253" data-name="Group 1253" transform="translate(77.013 42.98)">
      <path id="Path_621" data-name="Path 621" d="M-.054-.013c-.778,0-1.2.767-1.231,1.491h2.42C1.134.829.809-.013-.054-.013M-1.3,1.921c0,1.7.993,2.031,1.674,2.031A1.751,1.751,0,0,0,1.761,3.4l.249.335a2.423,2.423,0,0,1-2.03.973c-1.46,0-2.2-1.156-2.2-2.625A2.361,2.361,0,0,1,.065-.543,2.043,2.043,0,0,1,2.085,1.736v.2Z" transform="translate(2.226 0.543)" fill="#fff"/>
    </g>
    <g id="Group_1254" data-name="Group 1254" transform="translate(81.391 42.98)">
      <path id="Path_622" data-name="Path 622" d="M-.2-.128c-.54,0-1,.021-1.263.021V-.517c.443,0,.811-.055.811-.692V-3.435a1.1,1.1,0,0,0-1.221-1.1,1.6,1.6,0,0,0-1.189.552,2.481,2.481,0,0,1,.032.378v2.4c0,.649.411.692.811.692v.411c-.324,0-.724-.021-1.264-.021s-1,.021-1.263.021V-.517c.442,0,.81-.055.81-.692V-3.435a1.1,1.1,0,0,0-1.221-1.1,1.62,1.62,0,0,0-1.2.5v2.83c0,.649.411.692.81.692v.411c-.324,0-.724-.021-1.263-.021s-1,.021-1.264.021V-.517c.442,0,.811-.055.811-.692V-4.32c-.432-.1-.519-.108-.918-.226v-.411a6.556,6.556,0,0,0,1.447-.3h.357v.778A2.18,2.18,0,0,1-4.65-5.26a1.582,1.582,0,0,1,1.437.875A2.492,2.492,0,0,1-1.365-5.26,1.536,1.536,0,0,1,.254-3.629v2.42c0,.649.411.692.811.692v.411C.741-.107.341-.128-.2-.128" transform="translate(8.182 5.26)" fill="#fff"/>
    </g>
    <g id="Group_1255" data-name="Group 1255" transform="translate(90.698 42.98)">
      <path id="Path_623" data-name="Path 623" d="M-.054-.013c-.779,0-1.2.767-1.231,1.491h2.42C1.134.829.81-.013-.054-.013M-1.3,1.921c0,1.7.993,2.031,1.674,2.031A1.751,1.751,0,0,0,1.761,3.4l.249.335a2.423,2.423,0,0,1-2.03.973c-1.459,0-2.2-1.156-2.2-2.625A2.361,2.361,0,0,1,.065-.543,2.043,2.043,0,0,1,2.085,1.736v.2Z" transform="translate(2.226 0.543)" fill="#fff"/>
    </g>
    <g id="Group_1256" data-name="Group 1256" transform="translate(95.076 42.98)">
      <path id="Path_624" data-name="Path 624" d="M-.117-.128c-.541,0-1,.021-1.263.021V-.517c.442,0,.81-.055.81-.692V-3.435a1.1,1.1,0,0,0-1.221-1.1,1.622,1.622,0,0,0-1.2.5v2.83c0,.649.411.692.81.692v.411c-.324,0-.723-.021-1.263-.021s-1,.021-1.263.021V-.517c.442,0,.81-.055.81-.692V-4.32c-.432-.1-.519-.108-.918-.226v-.411a6.553,6.553,0,0,0,1.448-.3h.356v.778A2.183,2.183,0,0,1-1.284-5.26,1.537,1.537,0,0,1,.336-3.629v2.42c0,.649.41.692.811.692v.411C.822-.107.422-.128-.117-.128" transform="translate(4.817 5.26)" fill="#fff"/>
    </g>
    <g id="Group_1257" data-name="Group 1257" transform="translate(100.93 42.17)">
      <path id="Path_625" data-name="Path 625" d="M-.049-.151c-.723,0-1.394-.3-1.394-1.231l.055-3.145h-.626v-.41A4.46,4.46,0,0,0-.87-6.189h.41L-.471-5.077H1.324v.55H-.48L-.524-1.749c-.032.863.529.961.853.961a1.351,1.351,0,0,0,.941-.335l.249.335A2.085,2.085,0,0,1-.049-.151" transform="translate(2.015 6.189)" fill="#fff"/>
    </g>
    <g id="Group_1258" data-name="Group 1258" transform="translate(106.041 40.711)">
      <path id="Path_626" data-name="Path 626" d="M-.161-.132V1.9a13.263,13.263,0,0,1-2.106.218A4.359,4.359,0,0,1-5.54,1.11,3.645,3.645,0,0,1-6.6-1.645,3.654,3.654,0,0,1-5.314-4.561a4.549,4.549,0,0,1,2.895-.854A19.037,19.037,0,0,1-.3-5.221c.118,0,.3-.011.3-.011s-.021.313-.021.855S0-3.524,0-3.524H-.409C-.4-4.28-.788-4.8-2.386-4.8-4.677-4.8-5.53-3.7-5.53-1.871A3.656,3.656,0,0,0-4.731.6a3.232,3.232,0,0,0,2.505.95,3.577,3.577,0,0,0,1.114-.118V-.132c0-.617-.53-.594-.962-.594v-.411c.324,0,.863.021,1.4.021S.326-1.137.649-1.137v.411c-.323,0-.81-.022-.81.594" transform="translate(6.599 5.415)" fill="#fff"/>
    </g>
    <g id="Group_1259" data-name="Group 1259" transform="translate(113.457 42.98)">
      <path id="Path_627" data-name="Path 627" d="M-.075-.023a1.418,1.418,0,0,0-1.2.464V3.1c0,.649.455.692.887.692V4.2c-.325,0-.756-.022-1.3-.022s-.983.022-1.307.022V3.791c.443,0,.811-.054.811-.692V-.012C-2.614-.11-2.7-.121-3.1-.24V-.65a6.49,6.49,0,0,0,1.447-.3H-1.3V0A1.731,1.731,0,0,1,.14-.952a1.316,1.316,0,0,1,.411.064V.053A3.21,3.21,0,0,0-.075-.023" transform="translate(3.1 0.952)" fill="#fff"/>
    </g>
    <g id="Group_1260" data-name="Group 1260" transform="translate(117.131 42.979)">
      <path id="Path_628" data-name="Path 628" d="M-.064-.013c-1.21,0-1.535,1.178-1.535,2.1C-1.6,3.1-1.23,4.2-.052,4.2c1.21,0,1.5-1.156,1.5-2.129,0-.9-.325-2.085-1.513-2.085M-.118,4.719A2.363,2.363,0,0,1-2.624,2.136,2.615,2.615,0,0,1-.041-.532,2.367,2.367,0,0,1,2.465,2.061,2.534,2.534,0,0,1-.118,4.719" transform="translate(2.624 0.532)" fill="#fff"/>
    </g>
    <g id="Group_1261" data-name="Group 1261" transform="translate(122.224 42.98)">
      <path id="Path_629" data-name="Path 629" d="M-.116-.131H-.493V-.878a2.344,2.344,0,0,1-1.783.735,1.591,1.591,0,0,1-1.611-1.8V-4.453a8.89,8.89,0,0,1-.863-.227v-.41a5.163,5.163,0,0,0,1.393-.3h.379v3.328A1.066,1.066,0,0,0-1.811-.845a1.615,1.615,0,0,0,1.221-.5V-4.453c-.432-.1-.518-.108-.919-.227v-.41a6.574,6.574,0,0,0,1.448-.3H.317v4.332c.432.1.519.076.919.194v.411A5.776,5.776,0,0,0-.116-.131" transform="translate(4.75 5.393)" fill="#fff"/>
    </g>
    <g id="Group_1262" data-name="Group 1262" transform="translate(127.906 42.979)">
      <path id="Path_630" data-name="Path 630" d="M-.074-.017A1.467,1.467,0,0,0-1.231.427v3.2a1.693,1.693,0,0,0,1.156.389c.886,0,1.567-.573,1.567-2.009,0-1.3-.67-2.022-1.567-2.022M-.1,4.543a2.24,2.24,0,0,1-1.135-.206V5.883c0,.647.454.691.886.691v.411c-.324,0-.756-.021-1.3-.021s-.982.021-1.307.021V6.574c.443,0,.811-.054.811-.691V.243c-.432-.1-.518-.108-.918-.226V-.395A6.425,6.425,0,0,0-1.609-.7h.357v.67A1.954,1.954,0,0,1,.347-.7a2.2,2.2,0,0,1,2.14,2.443A2.623,2.623,0,0,1-.1,4.543" transform="translate(3.056 0.698)" fill="#fff"/>
    </g>
    <g id="Group_1263" data-name="Group 1263" transform="translate(120.185 0.283)">
      <path id="Path_631" data-name="Path 631" d="M-.3-.2-.819-.229S-7.253-.663-9.678-3.178A10.541,10.541,0,0,1-12.353-8.4,72.572,72.572,0,0,0-4.115-3.287l.811.429,2.231,1.694" transform="translate(12.353 8.403)" fill="#fff"/>
    </g>
    <g id="Group_1264" data-name="Group 1264" transform="translate(129.233 5.828)">
      <path id="Path_632" data-name="Path 632" d="M-.162-.174C-1.557-.028-3.325.559-3.77,1.518a1.768,1.768,0,0,0,.06,1.364c.554-.855,3-1.129,3.847.178-.47-.491-2.255-.661-2.741,0a2,2,0,0,1,.846.536c-1.1-.074-2.092.054-2.173,1.222a4.5,4.5,0,0,1-.719-1.478c.423.456,1.278.606,1.3-.187-.505-.333-.1.307-.511.347.129-.194-.6-.321-.847-.536C-5.086.821-2.427.191-1.747-.141l-.014-.046h0C-1.85-.538-2.618-3.03-6.673-7.16A18.9,18.9,0,0,1,1.519-1.368L-.06-.213" transform="translate(6.673 7.16)" fill="#fff"/>
    </g>
    <g id="Group_1265" data-name="Group 1265" transform="translate(135.005 0)">
      <path id="Path_633" data-name="Path 633" d="M-.59,0c-4.542,1.2-7.738.946-9.478,1.253-.254.023-.951.157-.951.157A9.968,9.968,0,0,0-16.5,4.918c-1.562,2.05-2.273,4.765-4.44,6.315l-.365.283c2.315-1.134,3.3-4.142,4.913-6.348l-.017.06c-1.483,2.293-2.367,5.015-4.85,6.807-.3,1.081.757,2.268.268,2.74,1.588.97,2.944,3.907,3.378,4.521a4.361,4.361,0,0,0,.937,1.118c-1.833-.225-3.4-2.329-4.124-2.533-1.361,1.235-3.145-.766-3.448-1.024a6.286,6.286,0,0,0,2.93,2.365l-.021.309s-.049.982-.1,2.025h0v0c-.058,1.173-.119,2.422-.12,2.445a2.708,2.708,0,0,0,.01.381c-.018,2,.576,4.09,4.773,5.234,7.2,1.965,5.983-2.774,5.983-2.774h0a7.284,7.284,0,0,0-1.533-2.4l-5.3-6.9a7.9,7.9,0,0,0-.411-1.705,23.451,23.451,0,0,0,4.1-1.269c3.5-1.314,9.915-8.788,9.92-8.791.069-.05,1.427-1.772,1.847-2.419.034-.051.061-.1.095-.148C-.307.823-.095-.131-.59,0" transform="translate(24.249 0.012)" fill="#fff"/>
    </g>
  </g>
</svg>
