<svg width="590" height="114" xmlns="http://www.w3.org/2000/svg" xml:space="preserve" version="1.1">

 <g>
  <title>Layer 1</title>
  <path stroke="null" id="svg_1" fill="#02263E" d="m531.65626,100.35715l0.89083,0c2.92302,0 5.84605,-0.5846 5.84605,-4.23142c0,-3.66074 -2.78383,-4.24534 -5.8878,-4.24534l-0.75163,0l0,8.47677l-0.09743,0zm0,12.68036l-2.58896,0l0,-23.62082l3.49371,0c4.38454,0 8.43501,1.19705 8.43501,6.50025c0.18095,3.41019 -2.36626,6.3193 -5.69294,6.50025c-0.04176,0.01392 -0.0696,0.01392 -0.09743,0.01392l7.34932,10.6064l-3.15965,0l-6.9735,-10.36977l-0.6542,0l0,10.36977l-0.11135,0zm-16.77259,-18.65168l-3.96696,9.63206l7.82257,0l-3.85561,-9.63206zm-4.99698,11.90088l-2.78383,6.70904l-2.82559,0l10.64816,-24.73435l10.36977,24.73435l-2.82559,0l-2.72816,-6.70904l-9.85477,0zm-21.03185,-16.91178l11.97048,0l0,2.46369l-9.42327,0l0,7.02918l9.14489,0l0,2.36626l-9.14489,0l0,9.25624l9.42327,0l0,2.46369l-11.97048,0l0,-23.62082l0,0.04176zm-27.75481,17.73301l7.48851,-18.9579l7.40499,18.9579l6.08267,-17.69125l2.78383,0l-8.86651,24.81786l-7.48851,-19.04141l-7.39107,19.04141l-8.67164,-24.87354l2.76991,0l5.8878,17.74693zm-16.39677,5.92956l-2.58896,0l0,-21.19888l-5.55375,0l0,-2.46369l13.75213,0l0,2.46369l-5.65118,0l0,21.15712l0.04176,0.04176zm-12.06791,0l-2.54721,0l0,-23.62082l2.54721,0l0,23.62082zm-29.21632,-24.623l17.99747,19.27804l0,-18.31762l2.72816,0l0,24.67867l-17.99747,-19.27804l0,18.22018l-2.72816,0l0,-24.58124zm-7.54419,0.96042l3.29884,0l-10.84303,10.98222l11.21884,12.6386l-3.67466,0l-9.42327,-10.81519l-0.66812,0.68204l0,10.16099l-2.49153,0l0,-23.62082l2.58896,0l0,10.11923l9.99396,-10.14707zm-32.71003,23.66257l-2.58896,0l0,-21.19888l-5.56766,0l0,-2.46369l13.76605,0l0,2.46369l-5.65118,0l0,21.15712l0.04176,0.04176zm-13.98876,-19.04141c-0.75163,-1.55895 -2.3245,-2.49153 -3.9948,-2.40801c-2.0322,-0.08351 -3.74425,1.53111 -3.81385,3.61898c0,0.01392 0,0.02784 0,0.05568c0.38974,1.86517 1.80949,3.31276 3.6329,3.71642l1.55895,0.66812c3.68858,1.14137 5.79037,5.10833 4.67684,8.89434c-1.09961,3.77209 -4.98306,5.91564 -8.68556,4.78819c-2.60288,-0.79339 -4.49589,-3.06222 -4.88563,-5.81821l2.49153,-0.70988c0.22271,2.49153 2.26882,4.38454 4.7186,4.38454c2.60288,0 4.70468,-2.15747 4.70468,-4.82995c-0.20879,-2.3941 -1.93476,-4.3567 -4.24534,-4.82995l-1.50327,-0.2923c-2.78383,-0.66812 -4.82995,-3.10397 -5.03874,-6.027c0.09743,-3.42411 2.89519,-6.13835 6.2497,-6.027c0.05568,0 0.13919,0 0.20879,0c2.51937,-0.02784 4.82995,1.39192 5.98524,3.66074l-2.06004,1.15529zm-28.08887,-4.62116l11.9844,0l0,2.46369l-9.43719,0l0,7.02918l9.14489,0l0,2.36626l-9.08921,0l0,9.25624l9.42327,0l0,2.46369l-12.02615,0l0,-23.62082l0,0.04176zm-26.62735,-0.96042l17.99747,19.27804l0,-18.31762l2.58896,0l0,24.67867l-17.99747,-19.27804l0,18.22018l-2.58896,0l0,-24.58124zm-6.027,24.623l-2.58896,0l0,-23.62082l2.58896,0l0,23.62082zm-15.93744,-21.19888l0,7.02918l7.68338,0l0,2.36626l-7.68338,0l0,11.71993l-2.58896,0l0,-23.62082l10.50897,0l0,2.44977l-7.92,0l0,0.05568zm-21.11537,2.15747c-0.75163,-1.55895 -2.31058,-2.49153 -3.9948,-2.40801c-2.0322,-0.08351 -3.74425,1.53111 -3.81385,3.61898c0,0.01392 0,0.02784 0,0.05568c0.38974,1.86517 1.80949,3.31276 3.6329,3.71642l1.51719,0.66812c3.68858,1.14137 5.77645,5.10833 4.67684,8.89434c-1.11353,3.77209 -4.99698,5.91564 -8.68556,4.78819c-2.60288,-0.79339 -4.50981,-3.06222 -4.89954,-5.81821l2.50545,-0.70988c0.22271,2.49153 2.2549,4.38454 4.70468,4.38454c2.60288,0 4.7186,-2.15747 4.7186,-4.82995c-0.20879,-2.3941 -1.93476,-4.3567 -4.24534,-4.82995l-1.46151,-0.2923c-2.79775,-0.6542 -4.82995,-3.09005 -5.03874,-6.027c0.09743,-3.42411 2.89519,-6.13835 6.2497,-6.027c0.0696,0 0.13919,0 0.20879,0c2.51937,-0.02784 4.82995,1.39192 5.98524,3.66074l-2.06004,1.15529zm-15.72865,-4.18967l-3.49371,8.00352l-1.64246,-0.66812l2.86735,-8.19839l2.26882,0.86299zm-22.39593,20.72563c2.67248,0.23663 5.31712,-0.6542 7.30756,-2.46369c3.78601,-3.64682 3.96696,-9.75733 0.38974,-13.62686c-0.12527,-0.13919 -0.26446,-0.26446 -0.38974,-0.40366c-2.00436,-1.68422 -4.5794,-2.49153 -7.15445,-2.26882l-1.89301,0l0,18.76303l1.89301,0l-0.15311,0zm-4.42629,-21.15712l4.34278,0c3.24316,-0.27838 6.47241,0.73772 9.0057,2.85343c4.80211,4.56548 5.06657,12.24886 0.61244,17.16233c-0.19487,0.20879 -0.38974,0.41757 -0.61244,0.62636c-2.51937,2.21315 -5.81821,3.29884 -9.14489,2.99262l-4.20359,0l0,-23.63473zm-10.13315,21.2128l6.36106,0l0,2.44977l-8.95002,0l0,-23.62082l2.58896,0l0,21.17104zm-17.85828,-10.23058l0.80731,0c2.92302,0 5.83213,-0.5846 5.83213,-4.23142c0,-3.66074 -2.78383,-4.24534 -5.8878,-4.24534l-0.75163,0l0,8.47677zm0,12.68036l-2.54721,0l0,-23.62082l3.35452,0c4.38454,0 8.43501,1.19705 8.43501,6.50025c0.18095,3.41019 -2.36626,6.3193 -5.69294,6.50025c-0.02784,0.01392 -0.0696,0.01392 -0.09743,0.01392l7.34932,10.6064l-3.10397,0l-6.9735,-10.36977l-0.70988,0l0,10.36977l-0.01392,0zm-28.74307,-11.81737c0,5.31712 4.21751,9.64598 9.42327,9.64598c5.20577,0 9.42327,-4.32886 9.42327,-9.64598c0,-5.31712 -4.21751,-9.63206 -9.42327,-9.63206c-5.20577,-0.02784 -9.45111,4.25926 -9.47895,9.5903l0,0.04176l0.05568,0zm21.47727,0c0.02784,6.79255 -5.33104,12.31846 -11.97048,12.3463c-6.63944,0.02784 -12.04007,-5.47023 -12.06791,-12.24886c-0.02784,-6.79255 5.33104,-12.31846 11.9844,-12.3463l0.04176,0c6.6116,-0.01392 11.9844,5.44239 12.01224,12.2071l0,0.04176zm-50.65183,5.8878l7.50243,-18.9579l7.48851,18.9579l6.08267,-17.69125l2.78383,0l-8.86651,24.81786l-7.48851,-19.04141l-7.50243,19.04141l-8.85259,-24.87354l2.82559,0l6.027,17.74693zm-35.1598,-17.73301l11.97048,0l0,2.46369l-9.42327,0l0,7.02918l9.13097,0l0,2.36626l-9.08921,0l0,9.25624l9.42327,0l0,2.46369l-12.02615,0l0,-23.62082l0,0.04176l0.01392,0zm-8.5742,9.5903l0,-9.64598l2.58896,0l0,23.62082l-2.58896,0l0,-11.71993l-11.83129,0l0,11.6225l-2.54721,0l0,-23.6069l2.58896,0l0,9.63206l11.78953,0l0,0.09743zm-23.98271,14.07227l-2.60288,0l0,-21.19888l-5.47023,0l0,-2.46369l13.66862,0l0,2.46369l-5.65118,0l0,21.15712l0.05568,0.04176zm504.20768,-79.29746l-19.79305,-32.77962l12.24886,0l12.72211,22.66039l12.72211,-22.66039l12.24886,0l-19.79305,32.77962l0,23.62082l-10.36977,0l0,-23.62082l0.01392,0zm-57.50005,-32.77962l33.46166,0l0,8.68556l-23.09189,0l0,14.94918l19.79305,0l0,8.67164l-19.79305,0l0,15.42243l23.56514,0l0,8.67164l-33.93491,0l0,-56.40044zm-41.46518,0l10.84303,0l0,47.7288l21.67213,0l0,8.67164l-32.52908,0l0,-56.40044l0.01392,0zm-47.13028,47.7288l8.95002,0c9.89652,0 16.96746,-7.71122 16.96746,-19.27804c0,-11.56682 -7.07093,-19.27804 -16.96746,-19.27804l-8.95002,0l0,38.55608zm-10.36977,-47.7288l19.79305,0c14.42025,-0.44541 26.44641,11.14925 26.8779,25.88964c0.01392,0.68204 0.01392,1.378 -0.01392,2.07395c0.68204,14.72647 -10.43937,27.2398 -24.8457,27.93576c-0.68204,0.02784 -1.35016,0.02784 -2.01828,0.01392l-19.79305,0l0,-55.91327zm-45.23727,0l33.46166,0l0,8.68556l-23.09189,0l0,14.94918l19.79305,0l0,8.67164l-19.79305,0l0,15.42243l23.56514,0l0,8.67164l-33.93491,0l0,-56.40044zm-67.86983,0l8.95002,0l17.91396,25.06841l17.44071,-25.06841l9.42327,0l0,56.40044l-9.89652,0l0,-39.05717l-13.66862,19.76521l-6.59768,0l-13.66862,-19.76521l0,39.05717l-9.89652,0l0,-56.40044zm-46.18378,43.87319c4.5794,3.24316 9.50679,5.09441 15.08837,5.28928c6.12443,0 10.36977,-3.36844 10.36977,-8.18447c0,-11.56682 -26.86398,-5.79037 -26.86398,-25.55558c0,-9.63206 8.01744,-16.38285 19.79305,-16.38285c4.99698,0.02784 9.9522,1.00218 14.6012,2.89519l0,9.64598c-4.23142,-2.75599 -9.13097,-4.25926 -14.14187,-4.34278c-5.65118,0 -9.89652,2.89519 -9.89652,7.71122c0,11.09357 26.85006,5.79037 26.85006,25.55558c0,10.13315 -8.47677,16.87002 -19.79305,16.87002c-5.53983,-0.12527 -10.99614,-1.43367 -16.02095,-3.85561l0,-9.64598l0.01392,0zm-79.17219,-43.87319l8.95002,0l27.81048,39.04325l0,-39.04325l9.89652,0l0,56.40044l-9.42327,0l-27.33723,-39.05717l0,39.05717l-9.89652,0l0,-56.40044zm-60.79889,0l10.36977,0l0,23.63473l25.44423,0l0,-23.63473l10.84303,0l0,56.40044l-10.84303,0l0,-24.10799l-25.44423,0l0,24.10799l-10.36977,0l0,-56.40044zm-37.69309,48.21597c9.42327,0 16.02095,-8.19839 16.02095,-20.23846c0,-12.05399 -6.59768,-20.2663 -16.02095,-20.2663c-9.42327,0 -16.02095,8.19839 -16.02095,20.2663c-0.01392,12.02615 6.59768,20.23846 16.02095,20.23846m0,-49.17639c15.5477,0 26.86398,12.05399 26.86398,29.41119c0,17.35719 -11.31628,29.41119 -26.86398,29.41119c-15.56162,0 -26.86398,-12.05399 -26.86398,-29.41119c0,-17.37111 11.30236,-29.41119 26.86398,-29.41119m-37.23375,41.45126c0.23663,9.10313 -6.77863,16.67515 -15.68689,16.9257c-0.5846,0.01392 -1.16921,0 -1.75381,-0.05568c-3.88345,-0.15311 -7.6973,-0.96042 -11.31628,-2.40801l0,-9.15881c2.6864,1.68422 5.80429,2.51937 8.95002,2.40801c4.78819,0.16703 8.79691,-3.67466 8.95002,-8.5742c0,-0.19487 0,-0.38974 0,-0.5846l0,-39.04325l10.84303,0l0,40.49084l0.01392,0z" class="st0"/>
 </g>
</svg>