<?xml version="1.0" encoding="utf-8"?>
<!-- Generator: Adobe Illustrator 22.0.1, SVG Export Plug-In . SVG Version: 6.00 Build 0)  -->
<svg version="1.1" id="Layer_1" xmlns="http://www.w3.org/2000/svg" xmlns:xlink="http://www.w3.org/1999/xlink" x="0px" y="0px"
	 viewBox="0 0 2500 2444" style="enable-background:new 0 0 2500 2444;" xml:space="preserve">
<style type="text/css">
	.st0{fill:#231F20;}
	.st1{fill:#FFFFFF;}
	.st2{display:none;fill:#E5173F;}
	.st3{fill:#221E1F;}
	.st4{fill:#E5173F;}
</style>
<g id="_x23_231f20ff">
	<path class="st0" d="M1381.1,63.3c67.3-40,144.8-67.8,223.7-62.8c59.7,3.5,118.5,32.4,155.4,80c42.5,52.6,63.3,124,47.6,190.8
		c-17.7,84.5-83.5,149.3-155.4,192.4c11.1,40,22.3,80.5,34.9,120c16.7,0,32.9,0.5,49.6,0.5c-1.5-74.4,23.8-150.9,75.4-205.5
		c14.7-15.2,31.4-28.3,51.1-35.9c20.8-7.6,48.6,0,56.7,21.8c8.6,31.4-9.1,61.3-24.8,87.1c-29.4,44.5-73.4,83.5-79,139.7
		c133.6,16.7,263.7,75.9,357.4,173.6c97.7,97.7,158.4,232.4,161.5,371.1c50.1,2.5,100.2,26.3,126.6,69.9
		c33.9,56.2,42,124.5,34.9,188.8c-10.6,82-48.1,157.9-95.7,225.3c-56.7,80.5-127.6,150.3-203.5,212.1c-13.7,11.6-30.9,19.7-39,36.4
		c-23.3,41-57.2,76.4-98.7,99.2c-70.4,38.5-153.9,52.1-232.4,37c-17.7-2.5-34.9-9.1-52.1-12.1c-124.5-11.6-250.1-21.3-373.6-43
		c-90.6-16.7-181.2-43-261.7-90.1c-67.3-39.5-126-98.2-151.9-173.1c-17.2-50.6-23.8-108.3-6.1-159.5c14.2-41,44-73.9,78-99.7
		c-29.4-70.9-43-147.3-44-223.7c3-120.5,42.5-240.5,111.9-338.7c-12.7-12.7-24.3-25.8-35.4-39.5c-51.1,27.8-112.4,37.5-169.6,25.3
		c-61.8-11.6-123-46.1-153.9-102.8c-30.4-56.2-33.4-128.1-4.6-185.8c25.3-51.6,71.4-89.6,120-117.9c79.5-46.6,169.6-71.4,260.2-87.6
		C1183.7,232.9,1272.3,129.1,1381.1,63.3 M1389.7,91.6c-123,74.4-204.5,202.5-247.5,337.6c-4.6,12.1-7.6,32.4-24.8,31.9
		c-0.5-26.3,10.6-50.6,16.7-75.4c-81,17.2-162.5,40-234.9,81.5c-44,25.3-85,59.7-107.8,105.8c-29.9,60.2-20.8,138.7,24.3,189.3
		c30.4,34.4,74.4,54.2,119.5,62.3c45.6,7.1,95.7,5.6,136.2-19.7c-37.5-32.9-74.4-66.3-114.4-96.7c-5.6-3.5-9.1-8.1-9.6-14.7
		c76.4,23.8,135.7,81.5,190.3,137.2c3.5,2.5,9.1,12.1,13.7,6.1c61.3-75.9,142.8-133.1,230.8-174.6c-25.3-48.1-44-101.7-42-156.9
		c1-34.4,5.1-70.9,22.8-100.7c13.2-21.3,40.5-34.9,64.8-25.3c14.7,5.6,23.3,21.3,27.3,35.9c17.2,69.9-12.7,142.2,9.6,211.6
		c62.3-19.2,125.5-37,191.3-39c-19.2-71.9-40.5-143.8-48.1-218.2c-1.5-22.3-2.5-45.6,2-67.3c2-1,5.6-2.5,7.6-3
		c7.1,45.6,17.7,90.6,27.8,135.7c66.8-37.5,123-102.3,137.2-179.2c17.7-98.2-53.7-204-152.9-221.7
		C1545.1,19.2,1461.1,49.1,1389.7,91.6 M1865,365.5c-21.8,7.6-39,24.3-52.6,42.5c-26.3,38-48.1,80-54.7,126
		c-8.1,44-3.5,89.1-5.6,133.1c-18.2-12.1-11.1-39.5-14.7-58.2c-89.6-4-178.7,13.2-263.7,41.5c6.1,24.3,26.8,43,29.9,68.3
		c-6.1-2.5-12.1-6.6-16.2-12.1c-26.8-30.4-46.6-67.3-52.6-107.3c-7.1-38.5,2-77.5,1.5-115.9c-0.5-25.8,2.5-54.7-13.7-76.4
		c-13.2-9.1-32.4-2.5-40.5,10.1c-15.7,23.8-19.7,53.2-19.7,81c-1.5,70.9,24.3,140.7,64.3,198.4c8.6,16.2,25.3,28.9,27.8,47.6
		c-27.8-11.6-40-43-61.3-61.3c-35.4,16.7-69.4,36.4-101.7,59.2c-107.3,74.4-187.8,186.8-224.3,312.3c-37,116.9-28.3,246,15.7,359.4
		c69.4-35.4,153.9-33.9,224.3-2c2,3.5,3.5,7.1,5.1,10.6c-37.5-5.6-74.9-12.1-112.9-11.6c-51.1-1-102.8,16.2-141.2,49.6
		c-30.9,26.8-52.1,64.8-56.7,105.8c-7.1,74.9,21.8,151.9,73.9,205.5c65.8,68.3,155.4,107.8,246.5,130.1
		c128.1,31.4,259.2,45.1,389.8,56.2c-12.7-9.1-25.8-18.2-34.4-31.4l2-7.1c24.8,5.6,47.1,19.2,71.4,27.3
		c79,34.9,171.6,45.1,253.1,13.7c71.9-25.8,131.1-84.5,156.4-156.4c5.6-9.6,5.1-25.8,17.2-29.4c0.5,11.6,0.5,23.8,0.5,35.4
		c68.8-53.2,132.1-113.9,184.8-183.8c47.1-62.8,86.1-133.6,101.2-211.6c12.1-58.7,7.6-121-15.2-176.7
		c-14.2-33.9-41.5-61.8-75.9-74.4c-43-16.7-92.1-9.1-132.6,11.1v-8.1c19.7-16.2,44.5-24.8,69.4-30.4c-3-160-85-315.9-214.6-410
		c-83.5-60.2-181.7-101.7-284.5-110.9c-1.5,19.2-1.5,39-3.5,58.2c-9.6-6.1-11.1-18.2-11.6-28.3c-1.5-33.9-0.5-69.4,13.7-100.7
		c20.8-48.6,59.2-86.1,83.5-132.6c6.1-13.2,12.7-29.9,2.5-43C1888.3,360.9,1874.7,363.5,1865,365.5L1865,365.5z"/>
	<path class="st0" d="M1944.5,887.9c41-12.7,85.6-0.5,120.5,22.3c40.5,27.3,67.8,69.4,88.6,112.4c23.3,48.6,34.9,102.8,35.9,156.4
		c8.1,0,19.2,1,13.7,12.7c-61.3,34.4-126.6,61.3-188.3,94.7c-21.8,10.6-42,23.8-64.3,32.4c-39-48.1-63.8-105.8-80.5-164.5
		c-14.7-54.7-25.3-113.4-11.6-169.6C1868.1,941.1,1900,900.6,1944.5,887.9 M1888.3,963.8c-20.8,48.1-18.2,104.3-5.1,153.9
		c5.1-30.9,17.7-63.8,46.1-80.5c36.4-23.8,87.6-19.7,120,9.6c-10.6,26.8-23.8,53.2-34.4,80.5c22.8-13.7,45.1-28.9,66.8-44
		c23.8,38,38,82.5,38,127.6c16.7-7.1,32.9-14.2,49.1-22.3c-3.5-83.5-29.9-168.6-86.1-231.8c-27.3-30.9-66.8-55.2-109.3-51.1
		C1937.4,906.6,1902.5,929.9,1888.3,963.8L1888.3,963.8z M1488.9,985.6c61.8-3,117.4,35.9,153.9,83c47.6,61.3,62.8,140.2,68.3,216.2
		c2,34.4,1.5,69.4-3,103.8c-38,0-76.4,0-114.4,1c-73.4,3-145.8,12.7-218.2,23.8c-1.5-3.5-5.1-10.1-6.6-13.7c6.1-3,12.1-5.6,18.2-8.6
		c-33.9-64.3-57.7-135.7-57.7-208.6c0-55.2,17.2-112.4,58.2-150.9C1415.5,1005.8,1450.5,985.1,1488.9,985.6 M1462.1,1015.5
		c-39.5,10.6-69.9,42.5-88.1,78c-23.3,46.6-27.3,102.3-13.2,152.4c4-49.6,38.5-98.2,87.6-110.9c35.9-10.1,74.4,4,103.3,25.8
		c-13.2,30.9-27.8,61.3-38,93.6c25.3-15.7,49.6-32.9,75.4-46.6c27.8,48.6,31.4,106.3,23.3,160.5c24.8,0,50.1-0.5,74.9-1
		c4-68.8-1.5-139.2-22.8-205.5c-18.2-55.7-54.2-107.3-106.8-135.7C1528.9,1010.4,1494,1006.9,1462.1,1015.5L1462.1,1015.5z
		 M2211.8,1373.4c13.7-2,26.3-12.1,41-10.1c-18.2,24.3-52.1,28.9-68.8,54.7c-48.1,62.8-87.1,132.6-116.4,206
		c-19.7,45.6-46.6,93.1-92.6,116.4c-47.1,20.8-103.3,17.7-149.3-3.5c-43.5-19.2-81.5-48.6-125-68.3
		c-55.7-25.3-112.4-48.1-170.6-66.3c-13.2-3.5-27.3-9.6-41.5-4.6c-26.3,8.1-54.7,10.1-82,5.1c1-1.5,3-5.1,4-6.6
		c33.4-4.6,67.3-16.2,90.1-42c7.6-7.1,12.7-19.7,24.8-19.7c2,13.7-4,26.3-10.1,38.5c34.9,14.2,72.9,18.7,109.8,24.3
		c104.3,12.7,212.6,12.1,313.9-19.7c77.5-24.8,151.9-66.8,202.5-131.1c10.6-14.2,21.8-28.9,27.8-46.1c-14.7-2.5-32.9-7.6-37.5-24.3
		C2159.2,1376.9,2186,1381,2211.8,1373.4 M1927.3,1644.2c6.6,10.1,14.2,19.7,19.7,29.9c-52.1-36.4-125-28.9-176.2,4.6
		c42,31.9,94.7,55.2,148.3,51.1c52.1-4.6,96.7-44.5,115.4-92.1c-17.2-7.1-35.4-14.7-54.7-13.2
		C1960.7,1625.5,1943.5,1634.1,1927.3,1644.2L1927.3,1644.2z"/>
	<path class="st0" d="M1936.4,1395.6c12.7,9.1,22.3,23.8,21.8,40c1.5,21.3-14.2,39.5-31.9,49.6c-26.8,13.2-59.2,13.7-88.1,6.1
		c-21.3-7.1-47.1-20.2-51.1-45.1c30.9,20.2,69.4,28.3,105.8,19.2c19.2-4.6,38.5-15.2,47.1-33.9
		C1945.5,1418.9,1940.5,1406.8,1936.4,1395.6L1936.4,1395.6z"/>
</g>
<g id="_x23_ffffffff">
	<path class="st1" d="M1389.7,91.6c71.4-42.5,155.9-72.4,239.9-59.2c99.2,17.7,170.1,123.5,152.9,221.7
		c-14.2,76.9-70.4,141.7-137.2,179.2c-10.1-45.1-20.8-90.1-27.8-135.7c-2,1-5.6,2.5-7.6,3c-4.6,22.3-3.5,45.1-2,67.3
		c7.6,74.4,28.9,146.3,48.1,218.2c-65.3,2.5-129.1,20.2-191.3,39c-22.3-69.4,7.6-141.7-9.6-211.6c-4-14.7-12.1-29.9-27.3-35.9
		c-24.3-9.6-51.6,3.5-64.8,25.3c-17.7,30.4-21.8,66.3-22.8,100.7c-2,55.2,16.7,108.8,42,156.9c-87.6,41.5-169.6,98.7-230.8,174.6
		c-4.6,6.1-10.1-3.5-13.7-6.1c-54.7-55.7-113.9-113.4-190.3-137.2c0,6.6,4,11.1,9.6,14.7c39.5,30.4,76.9,63.8,114.4,96.7
		c-40.5,24.8-90.1,26.3-136.2,19.7c-44.5-8.1-88.6-27.8-119.5-62.3c-45.1-50.6-54.2-128.6-24.3-189.3
		c22.8-46.1,63.8-80.5,107.8-105.8c72.4-41.5,153.4-64.3,234.9-81.5c-6.1,25.3-17.2,49.6-16.7,75.4c17.2,0.5,19.7-19.7,24.8-31.9
		C1184.7,294.1,1266.7,166,1389.7,91.6L1389.7,91.6z M1871.1,810.4c43-19.2,93.1-25.3,138.7-11.6c52.1,15.2,95.2,51.6,129.6,92.1
		c67.3,74.9,99.2,177.2,101.2,276.9v8.1c40.5-20.2,89.6-27.8,132.6-11.1c34.4,12.7,61.8,40.5,75.9,74.4
		c22.3,55.7,26.8,117.9,15.2,176.7c-15.2,77.5-54.2,148.8-101.2,211.6c-52.6,69.9-115.9,130.6-184.8,183.8c0-11.6,0-23.8-0.5-35.4
		c-12.1,3.5-11.6,19.7-17.2,29.4c-25.3,72.4-84.5,130.6-156.4,156.4c-81.5,31.4-174.1,21.3-253.1-13.7
		c-24.3-8.1-46.6-21.8-71.4-27.3l-2,7.1c9.1,13.2,22.3,22.3,34.4,31.4c-131.1-11.1-262.2-24.8-389.8-56.2
		c-90.6-22.3-180.7-61.8-246.5-130.1c-52.1-53.7-81-130.6-73.9-205.5c4.6-40.5,25.8-79,56.7-105.8c38.5-33.4,90.1-51.1,141.2-49.6
		c38-0.5,75.4,6.6,112.9,11.6c-1.5-3.5-3.5-7.1-5.1-10.6c-52.6-100.2-80.5-219.2-53.2-331.1c15.7-66.8,57.2-128.6,117.4-163
		c61.8-35.9,139.7-45.1,206.5-18.2c78.5,30.9,141.7,93.1,182.2,166.5c0.5-40-3-80.5,8.1-119.5
		C1784.1,891.9,1817.5,836.8,1871.1,810.4 M1944.5,887.9c-44.5,12.7-76.4,53.2-86.6,97.2c-13.2,56.2-2.5,114.9,11.6,169.6
		c16.7,58.7,41.5,116.4,80.5,164.5c22.8-8.1,43-21.8,64.3-32.4c61.8-33.4,127.1-60.2,188.3-94.7c5.6-11.1-5.6-12.7-13.7-12.7
		c-1.5-53.7-12.7-107.8-35.9-156.4c-20.2-43.5-48.1-85.6-88.6-112.4C2030.1,887.4,1985,875.2,1944.5,887.9 M1488.9,985.6
		c-38.5-0.5-73.4,20.2-101.2,45.6c-40.5,38.5-58.2,96.2-58.2,150.9c0,72.9,23.3,144.3,57.7,208.6c-6.1,3-12.1,5.6-18.2,8.6
		c1.5,3.5,5.1,10.1,6.6,13.7c72.4-11.6,145.3-21.3,218.2-23.8c38-0.5,76.4-1,114.4-1c4-34.4,5.1-69.4,3-103.8
		c-5.6-75.4-20.8-154.9-68.3-216.2C1606.9,1021.5,1550.7,982.6,1488.9,985.6 M2211.8,1373.4c-25.8,7.6-52.6,4-79.5,3
		c4.6,16.7,22.8,21.8,37.5,24.3c-6.1,17.2-17.2,31.4-27.8,46.1c-51.1,64.3-125.5,106.3-202.5,131.1
		c-101.2,31.9-209.6,32.4-313.9,19.7c-37.5-5.1-74.9-10.1-109.8-24.3c6.1-11.6,12.1-24.3,10.1-38.5c-12.1-0.5-16.7,12.7-24.8,19.7
		c-22.8,25.8-56.7,37.5-90.1,42c-1,1.5-3,5.1-4,6.6c27.3,5.1,55.2,3,82-5.1c13.7-5.6,27.8,1,41.5,4.6
		c58.2,18.2,115.4,40.5,170.6,66.3c43.5,19.7,81.5,49.1,125,68.3c46.6,21.3,102.3,24.8,149.3,3.5c46.1-23.3,72.9-70.9,92.6-116.4
		c29.4-73.4,67.8-143.3,116.4-206c16.7-25.8,50.6-30.4,68.8-54.7C2238.1,1361.2,2226,1370.8,2211.8,1373.4 M1936.4,1395.6
		c4,11.6,9.1,23.3,4,35.4c-8.6,18.7-27.8,29.9-47.1,33.9c-35.9,9.1-74.9,1-105.8-19.2c4,24.8,29.4,38,51.1,45.1
		c28.3,7.6,60.7,7.1,88.1-6.1c17.7-10.1,33.4-28.3,31.9-49.6C1958.7,1418.9,1949.1,1404.7,1936.4,1395.6 M1939,1803.6
		c-50.1,11.1-100.2-7.1-145.8-26.3c35.4,45.6,100.2,58.7,154.9,47.1c48.1-9.6,92.6-43.5,104.8-92.6
		C2023,1766.2,1985,1796,1939,1803.6L1939,1803.6z"/>
	<path class="st1" d="M1888.3,963.8c14.2-33.9,49.1-57.2,85.6-57.7c42.5-4,82,20.8,109.3,51.1c56.2,63.3,82.5,148.3,86.1,231.8
		c-16.2,8.1-32.4,15.2-49.1,22.3c0.5-45.1-14.2-89.6-38-127.6c-21.8,15.2-44,29.9-66.8,44c10.6-26.8,23.3-53.2,34.4-80.5
		c-32.4-29.4-83.5-33.4-120-9.6c-28.3,16.7-41.5,49.1-46.1,80.5C1870.1,1068.1,1867.6,1011.9,1888.3,963.8L1888.3,963.8z
		 M1462.1,1015.5c31.9-8.6,66.8-5.1,96.2,11.1c52.6,27.8,88.6,80,106.8,135.7c21.3,65.8,26.8,136.2,22.8,205.5
		c-24.8,0.5-50.1,0.5-74.9,1c8.1-54.2,4.6-112.4-23.3-160.5c-26.3,14.2-50.6,30.9-75.4,46.6c10.6-31.9,24.8-62.3,38-93.6
		c-28.9-22.3-66.8-35.9-103.3-25.8c-49.1,13.2-83.5,61.3-87.6,110.9c-14.7-50.1-10.1-105.8,13.2-152.4
		C1392.2,1057.5,1422.6,1026.1,1462.1,1015.5L1462.1,1015.5z"/>
</g>
<path class="st2" d="M1867,366.5c9.6-2,23.3-4.6,30.4,4.6c10.1,12.7,4,29.9-2.5,43c-24.3,46.6-62.8,84-83.5,132.6
	c-13.7,31.4-15.2,66.8-13.7,100.7c0.5,10.1,1.5,22.3,11.6,28.3c2-19.2,2-39,3.5-58.2c102.8,9.1,201.5,50.6,284.5,110.9
	c129.6,94.2,211.1,250.1,214.6,410c-24.8,5.6-49.6,13.7-69.4,30.4c-2-99.7-33.9-202-101.2-276.9c-34.9-40.5-77.5-76.9-129.6-92.1
	c-45.6-13.7-95.7-7.6-138.7,11.6c-53.7,25.8-87.1,81-102.3,137.2c-11.1,39-8.1,79.5-8.1,119.5c-40-72.9-103.8-135.7-182.2-166.5
	c-66.8-26.8-144.8-17.7-206.5,18.2c-60.2,34.4-101.7,96.2-117.4,163c-27.3,111.9,0.5,230.8,53.2,331.1
	c-70.4-31.4-154.9-33.4-224.3,2c-44-113.9-52.6-242.5-15.7-359.4c36.4-125.5,116.9-237.9,224.3-312.3
	c31.9-22.3,65.8-42.5,101.7-59.2c21.3,18.2,32.9,49.6,61.3,61.3c-2.5-19.2-19.2-31.4-27.8-47.6c-40.5-57.7-65.8-127.1-64.3-198.4
	c0-27.8,4-57.2,19.7-81c8.6-12.7,27.3-19.2,40.5-10.1c16.2,21.8,13.2,50.6,13.7,76.4c0.5,39-8.6,77.5-1.5,115.9
	c6.1,40,25.8,76.9,52.6,107.3c4,5.6,10.1,9.1,16.2,12.1c-3-25.3-23.3-44-29.9-68.3c85-28.3,174.1-45.6,263.7-41.5
	c4,19.2-3.5,46.1,14.7,58.2c2-44.5-3-89.1,5.6-133.1c6.6-46.1,28.3-88.6,54.7-126C1828.1,390.8,1845.3,374.1,1867,366.5L1867,366.5z
	 M1929.3,1645.2c15.7-10.1,33.4-18.7,52.6-19.2c19.2-1.5,37.5,6.1,54.7,13.2c-18.7,47.6-63.3,87.6-115.4,92.1
	c-53.7,4-106.3-19.2-148.3-51.1c51.6-33.4,124.5-41.5,176.2-4.6C1943.5,1664.4,1935.9,1654.8,1929.3,1645.2L1929.3,1645.2z
	 M1078.4,1938.3c25.3-4.6,53.2,9.1,65.3,31.9c16.7,30.4,4,73.9-28.9,87.6c-36.4,18.2-85.6-7.6-89.1-48.6
	C1020.2,1975.7,1045.5,1942.3,1078.4,1938.3L1078.4,1938.3z M224.4,1987.9c18.2-19.2,50.6-21.8,71.9-6.6
	c15.2,10.1,23.3,29.4,22.8,47.6c0,75.9,0,151.9,0.5,227.8c2,41.5,0,86.1-24.3,122c-39.5,62.3-124.5,80-191.3,57.7
	c-49.1-15.2-89.1-56.2-101.7-106.3v-20.2c4.6-34.4,46.1-51.1,75.4-37c24.8,11.6,31.9,42,53.2,58.2c20.2,15.2,53.7,12.7,68.3-9.1
	c10.1-13.2,10.1-29.9,10.1-45.6c-0.5-79,0-158.4-0.5-237.9C208.2,2020.8,211.2,2001.1,224.4,1987.9L224.4,1987.9z M1192.8,2023.3
	c0-34.4,38-59.7,70.4-49.6c24.8,5.6,42,30.4,42,55.2c0.5,33.9,0,68.3,0,102.3c66.8-25.3,149.3,2,187.8,62.3
	c34.9,52.1,33.9,125-1,177.2c-20.2,31.9-52.6,55.7-89.1,66.8c-37,11.1-78,8.6-114.4-4c-39-13.7-71.4-44.5-85.6-83.5
	c-9.1-23.3-11.6-48.6-11.1-72.9C1192.8,2192.4,1192.3,2107.9,1192.8,2023.3 M1347.2,2221.3c-29.4,4-53.2,31.4-51.6,60.7
	c0,32.9,30.9,61.8,63.3,58.7c28.9-0.5,53.7-25.3,56.7-53.7C1421.1,2250.1,1384.1,2214.7,1347.2,2221.3L1347.2,2221.3z M915.4,2002.1
	c18.2-4,38.5,0,51.6,13.7c13.7,12.1,17.7,31.4,17.7,49.1c-0.5,104.8,0,209.6,0,314.4c1,27.3-18.7,54.7-47.1,58.2
	c-31.9,6.1-63.8-21.3-63.3-53.7v-328.5C874.4,2030.4,892.1,2007.1,915.4,2002.1L915.4,2002.1z M743.3,2007.6c32.9-20.2,81,4,82,43
	c0.5,110.9,0.5,221.7,0,333.1c0.5,28.9-25.3,54.7-54.2,53.7c-29.4,2-56.2-24.8-55.2-53.7c0-72.4-2-145.3,0-217.7
	c0-39-2-78,0.5-116.4C717.4,2031.4,729.1,2016.2,743.3,2007.6L743.3,2007.6z M2222.4,2103.8c26.8-4,50.1,26.8,38,51.6
	c-9.6,23.8-44.5,29.9-61.3,10.6C2178.9,2145.3,2193.1,2105.3,2222.4,2103.8 M2219.9,2109.9c-15.2,4-27.3,19.2-23.8,35.4
	c2.5,25.3,38.5,35.4,54.2,15.2C2270,2140.3,2246.7,2102.3,2219.9,2109.9z M501.3,2115.5c82.5-10.1,165,52.1,178.2,134.1
	c17.7,83.5-41.5,173.6-125,190.8c-69.4,17.2-146.8-16.7-181.2-79.5c-30.4-52.6-27.8-122,6.1-172.1
	C406.1,2147.3,452.2,2120,501.3,2115.5 M508.4,2220.7c-26.8,4-50.6,28.3-50.1,56.7c-3,29.4,20.8,57.2,49.6,61.8
	c33.9,6.1,68.8-22.3,68.8-57.2C579.7,2245.6,543.8,2214.2,508.4,2220.7L508.4,2220.7z M1582.1,2166.6
	c45.6-53.7,129.1-66.8,190.3-34.4c40,20.2,67.8,60.7,74.9,104.8c3,18.2,6.6,38-1.5,54.7c-8.1,17.2-29.4,22.8-46.6,23.3
	c-50.1,1-100.7-1-150.9,1c21.8,41,75.9,41.5,114.4,28.9c18.2-6.1,41.5-11.1,57.7,1.5c16.2,13.2,15.7,38,5.1,54.7
	c-13.2,19.7-35.9,29.4-57.7,36.4c-59.2,16.2-128.1,6.6-174.1-36.4C1529.4,2342.2,1524.8,2231.9,1582.1,2166.6 M1646.8,2244.5
	c35.9,0.5,71.9,0.5,107.8,0c-3.5-17.7-14.2-35.4-31.9-41.5C1691.9,2188.9,1649.4,2208.6,1646.8,2244.5z M1067.7,2118.5
	c32.9-13.7,73.9,10.1,75.4,46.6c0.5,72.4,0,145.3,0,217.7c0.5,28.3-24.3,54.2-52.6,54.2c-29.9,2.5-56.7-23.8-56.7-53.7
	c-0.5-70.9,0-141.7,0-212.6C1032.8,2148.4,1046.5,2126.6,1067.7,2118.5L1067.7,2118.5z M1958.2,2132.2
	c49.6-25.8,113.4-23.3,160.5,8.1c46.1,29.9,69.4,88.1,63.3,141.7c-3.5,22.3-28.3,32.9-48.6,32.9c-50.6,1-100.7,0-151.4,0.5
	c7.6,19.2,26.8,30.4,46.6,34.4c25.3,4,51.1,1,74.9-7.6c17.7-5.1,40.5-7.6,53.7,7.6c14.7,16.2,10.1,42-3.5,57.7
	c-15.2,16.7-37.5,25.3-58.7,31.4c-55.7,13.2-120,4-164-34.4c-50.1-42.5-67.8-115.9-48.6-177.7
	C1892.9,2186.3,1920.7,2151.4,1958.2,2132.2 M1977.9,2244.5h108.8c-4-25.8-27.8-47.6-54.7-46.1
	C2005.8,2197.5,1981.5,2218.2,1977.9,2244.5z"/>
<path class="st1" d="M2211.8,2122c9.6,0.5,19.7-1,28.3,2.5c2,12.7,1,26.3,0,39c-3-6.1-5.6-12.7-8.1-19.2c-3.5,0-10.1-0.5-13.7-1
	c0,4-0.5,12.1-0.5,15.7c-1.5,0-4.6-0.5-6.1-0.5L2211.8,2122 M2219.4,2129.1c-6.1,8.1,8.6,13.2,13.7,7.1
	C2239.1,2128.6,2224.4,2123,2219.4,2129.1z"/>
<path id="_x23_221e1fff" class="st3" d="M1939,1803.6c46.1-7.6,84-37,113.9-71.4c-12.1,48.6-56.7,83-104.8,92.6
	c-54.7,11.1-119-1.5-154.9-47.1C1838.7,1796.6,1888.8,1814.3,1939,1803.6L1939,1803.6z"/>
<path class="st4" d="M1864,366.3c9.6-2,23.3-4.6,30.4,4.6c10.1,12.7,4,29.9-2.5,43c-24.3,46.6-62.8,84-83.5,132.6
	c-13.7,31.4-15.2,66.8-13.7,100.7c0.5,10.1,1.5,22.3,11.6,28.3c2-19.2,2-39,3.5-58.2c102.8,9.1,201.5,50.6,284.5,110.9
	c129.6,94.2,211.1,250.1,214.6,410c-24.8,5.6-49.6,13.7-69.4,30.4c-2-99.7-33.9-202-101.2-276.9c-34.9-40.5-77.5-76.9-129.6-92.1
	c-45.6-13.7-95.7-7.6-138.7,11.6c-53.7,25.8-87.1,81-102.3,137.2c-11.1,39-8.1,79.5-8.1,119.5c-40-72.9-103.8-135.7-182.2-166.5
	c-66.8-26.8-144.8-17.7-206.5,18.2c-60.2,34.4-101.7,96.2-117.4,163c-27.3,111.9,0.5,230.8,53.2,331.1
	c-70.4-31.4-154.9-33.4-224.3,2c-44-113.9-52.6-242.5-15.7-359.4c36.4-125.5,116.9-237.9,224.3-312.3
	c31.9-22.3,65.8-42.5,101.7-59.2c21.3,18.2,32.9,49.6,61.3,61.3c-2.5-19.2-19.2-31.4-27.8-47.6c-40.5-57.7-65.8-127.1-64.3-198.4
	c0-27.8,4-57.2,19.7-81c8.6-12.7,27.3-19.2,40.5-10.1c16.2,21.8,13.2,50.6,13.7,76.4c0.5,39-8.6,77.5-1.5,115.9
	c6.1,40,25.8,76.9,52.6,107.3c4,5.6,10.1,9.1,16.2,12.1c-3-25.3-23.3-44-29.9-68.3c85-28.3,174.1-45.6,263.7-41.5
	c4,19.2-3.5,46.1,14.7,58.2c2-44.5-3-89.1,5.6-133.1c6.6-46.1,28.3-88.6,54.7-126C1825.1,390.6,1842.3,373.8,1864,366.3L1864,366.3z
	"/>
<path class="st4" d="M1926.3,1644.9c15.7-10.1,33.4-18.7,52.6-19.2c19.2-1.5,37.5,6.1,54.7,13.2c-18.7,47.6-63.3,87.6-115.4,92.1
	c-53.7,4-106.3-19.2-148.3-51.1c51.6-33.4,124.5-41.5,176.2-4.6C1940.5,1664.2,1932.9,1654.6,1926.3,1644.9L1926.3,1644.9z"/>
<path class="st1" d="M1075.4,1938c25.3-4.6,53.2,9.1,65.3,31.9c16.7,30.4,4,73.9-28.9,87.6c-36.4,18.2-85.6-7.6-89.1-48.6
	C1017.2,1975.5,1042.5,1942.1,1075.4,1938L1075.4,1938z"/>
<path class="st1" d="M223.4,1988.7c18.2-19.2,50.6-21.8,71.9-6.6c15.2,10.1,23.3,29.4,22.8,47.6c0,75.9,0,151.9,0.5,227.8
	c2,41.5,0,86.1-24.3,122c-39.5,62.3-124.5,80-191.3,57.7C53.8,2422,13.8,2381,1.2,2330.9v-20.2c4.6-34.4,46.1-51.1,75.4-37
	c24.8,11.6,31.9,42,53.2,58.2c20.2,15.2,53.7,12.7,68.3-9.1c10.1-13.2,10.1-29.9,10.1-45.6c-0.5-79,0-158.4-0.5-237.9
	C207.2,2021.6,210.2,2001.8,223.4,1988.7L223.4,1988.7z"/>
<path class="st1" d="M1492,2194.2c-38.5-60.2-121-87.6-187.8-62.3c0-33.9,0.5-68.3,0-102.3c0-24.8-17.2-49.6-42-55.2
	c-32.4-10.1-70.4,15.2-70.4,49.6v0c-0.5,84.5,0,169.1-1,253.6c-0.5,24.3,2,49.6,11.1,72.9c14.2,39,46.6,69.9,85.6,83.5
	c36.4,12.7,77.5,15.2,114.4,4c36.4-11.1,68.8-34.9,89.1-66.8C1525.9,2319.2,1526.9,2246.3,1492,2194.2z M1414.5,2287.8
	c-3,28.3-27.8,53.2-56.7,53.7c-32.4,3-63.3-25.8-63.3-58.7c-1.5-29.4,22.3-56.7,51.6-60.7h0
	C1383.1,2215.4,1420.1,2250.9,1414.5,2287.8z"/>
<path class="st1" d="M914.4,2002.8c18.2-4,38.5,0,51.6,13.7c13.7,12.1,17.7,31.4,17.7,49.1c-0.5,104.8,0,209.6,0,314.4
	c1,27.3-18.7,54.7-47.1,58.2c-31.9,6.1-63.8-21.3-63.3-53.7V2056C873.4,2031.2,891.1,2007.9,914.4,2002.8L914.4,2002.8z"/>
<path class="st1" d="M742.3,2008.4c32.9-20.2,81,4,82,43c0.5,110.9,0.5,221.7,0,333.1c0.5,28.9-25.3,54.7-54.2,53.7
	c-29.4,2-56.2-24.8-55.2-53.7c0-72.4-2-145.3,0-217.7c0-39-2-78,0.5-116.4C716.4,2032.2,728.1,2017,742.3,2008.4L742.3,2008.4z"/>
<path class="st1" d="M2221.4,2104.6L2221.4,2104.6c-29.4,1.5-43.5,41.5-23.3,62.3c16.7,19.2,51.6,13.2,61.3-10.6
	C2271.5,2131.4,2248.2,2100.5,2221.4,2104.6z M2249.3,2161.3c-15.7,20.2-51.6,10.1-54.2-15.2c-3.5-16.2,8.6-31.4,23.8-35.4
	C2245.7,2103.1,2269,2141,2249.3,2161.3z"/>
<path class="st1" d="M678.5,2250.4c-13.2-82-95.7-144.3-178.2-134.1c-49.1,4.6-95.2,31.9-122,73.4c-33.9,50.1-36.4,119.5-6.1,172.1
	c34.4,62.8,111.9,96.7,181.2,79.5C637,2424,696.2,2333.9,678.5,2250.4z M575.7,2282.8c0,34.9-34.9,63.3-68.8,57.2
	c-28.9-4.6-52.6-32.4-49.6-61.8c-0.5-28.3,23.3-52.6,50.1-56.7l0,0C542.8,2214.9,578.7,2246.3,575.7,2282.8z"/>
<path class="st1" d="M1846.3,2237.7c-7.1-44-34.9-84.5-74.9-104.8c-61.3-32.4-144.8-19.2-190.3,34.4l0,0
	c-57.2,65.3-52.6,175.7,11.6,234.4c46.1,43,114.9,52.6,174.1,36.4c21.8-7.1,44.5-16.7,57.7-36.4c10.6-16.7,11.1-41.5-5.1-54.7
	c-16.2-12.7-39.5-7.6-57.7-1.5c-38.5,12.7-92.6,12.1-114.4-28.9c50.1-2,100.7,0,150.9-1c17.2-0.5,38.5-6.1,46.6-23.3
	C1852.9,2275.7,1849.3,2255.9,1846.3,2237.7z M1645.8,2245.3c2.5-35.9,45.1-55.7,75.9-41.5c17.7,6.1,28.3,23.8,31.9,41.5
	C1717.7,2245.8,1681.8,2245.8,1645.8,2245.3z"/>
<path class="st1" d="M1066.7,2119.3c32.9-13.7,73.9,10.1,75.4,46.6c0.5,72.4,0,145.3,0,217.7c0.5,28.3-24.3,54.2-52.6,54.2
	c-29.9,2.5-56.7-23.8-56.7-53.7c-0.5-70.9,0-141.7,0-212.6C1031.8,2149.1,1045.5,2127.4,1066.7,2119.3L1066.7,2119.3z"/>
<path class="st1" d="M2117.6,2141c-47.1-31.4-110.9-33.9-160.5-8.1c-37.5,19.2-65.3,54.2-75.9,94.7c-19.2,61.8-1.5,135.2,48.6,177.7
	c44,38.5,108.3,47.6,164,34.4c21.3-6.1,43.5-14.7,58.7-31.4c13.7-15.7,18.2-41.5,3.5-57.7c-13.2-15.2-35.9-12.7-53.7-7.6
	c-23.8,8.6-49.6,11.6-74.9,7.6c-19.7-4-39-15.2-46.6-34.4c50.6-0.5,100.7,0.5,151.4-0.5c20.2,0,45.1-10.6,48.6-32.9
	C2187,2229.1,2163.7,2170.9,2117.6,2141z M1976.9,2245.3c3.5-26.3,27.8-47.1,54.2-46.1c26.8-1.5,50.6,20.2,54.7,46.1H1976.9z"/>
</svg>
