<svg xmlns="http://www.w3.org/2000/svg" xmlns:xlink="http://www.w3.org/1999/xlink" width="100%" height="100%" viewBox="0 0 2835 2164" style="enable-background:new 0 0 2835 2164;background-color:transparent;" version="1.1">
<style>
	.color-card-fg {fill: #ffed00;}
	.color-card-bg {fill: #e5007d;}
	.color-text {fill: #e5007d;}
</style>

<g class="color-card-bg">
	<path d="M2305.42,349.167l249.166,937.916c14.167,52.917 -17.5,107.5 -70.416,121.25l-1799.58,477.917c-52.916,14.167 -107.5,-17.5 -121.25,-70.417l-249.166,-937.916c-14.167,-52.917 17.5,-107.5 70.416,-121.25l1799.58,-478.334c52.916,-14.166 107.5,17.5 121.25,70.834Z" />
</g>
<g>
	<g class="color-card-fg">
		<path d="M2336.67,630l-0,970.417c-0,55 -44.584,99.166 -99.167,99.166l-1862.08,0c-55,0 -99.167,-44.583 -99.167,-99.166l0,-970.417c0,-55 44.583,-99.167 99.167,-99.167l1862.08,0c54.583,-0.416 99.167,44.167 99.167,99.167Z" />
	</g>
	
	<g class="jl-signet color-text">
		<path d="M810,725l192.083,0l-108.75,407.917l-192.5,-0l109.167,-407.917Z" />
		<path d="M525.833,937.917l193.75,-0l-110,407.916l-139.166,-203.75l55.416,-204.166Z" />
	</g>
	<g class="jl-title color-text">
		<g class="jl-junge">
			<path d="M1057.92,888.333c-0,-3.75 0.833,-6.666 2.083,-10c1.25,-3.333 3.333,-5.833 5.417,-8.333c2.5,-2.5 5,-4.167 8.333,-5.417c3.333,-1.25 6.25,-2.083 10,-2.083c3.75,-0 6.667,0.833 10,2.083c3.333,1.25 5.833,3.334 8.333,5.417c2.5,2.5 4.167,5 5.417,8.333c1.25,3.334 2.083,6.667 2.083,10c0,3.334 -0.833,6.667 -2.083,10c-1.25,3.334 -3.333,5.834 -5.417,8.334c-2.083,2.5 -5,4.166 -8.333,5.416c-3.333,1.25 -6.25,2.084 -10,2.084c-3.75,-0 -6.667,-0.834 -10,-2.084c-3.333,-1.25 -5.833,-3.333 -8.333,-5.416c-2.5,-2.5 -4.167,-5 -5.417,-8.334c-1.667,-2.916 -2.083,-6.25 -2.083,-10Zm48.75,50l-0,194.167l-45.834,0l0,-194.167l45.834,0Z" />
			<path d="M1181.25,938.333l0,72.917c0,15.833 7.917,24.167 23.333,24.167c15.417,-0 23.334,-7.917 23.334,-24.167l-0,-72.917l45.833,0l0,81.667c0,17.5 -5.833,30.833 -17.083,39.583c-11.667,8.75 -28.75,13.334 -51.667,13.334c-22.917,-0 -40,-4.167 -51.667,-12.917c-11.666,-8.75 -17.5,-22.083 -17.5,-39.583l0,-81.667l45.417,-0.417Z"/>
			<path d="M1302.5,938.333l45.833,0l0,16.25c6.25,-7.5 12.5,-12.5 18.75,-15.416c6.25,-2.5 13.75,-3.75 22.5,-3.75c9.167,-0 16.667,1.666 23.334,4.583c6.666,2.917 12.083,7.083 16.666,12.5c3.75,4.583 6.25,9.167 7.5,14.583c1.25,5.417 2.084,11.667 2.084,18.334l-0,82.5l-45.834,-0l0,-65.417c0,-6.25 -0.416,-11.667 -1.25,-15.417c-0.833,-3.75 -2.5,-7.083 -5,-9.583c-2.083,-2.083 -4.166,-3.333 -6.666,-4.167c-2.5,-0.833 -5,-1.25 -7.917,-1.25c-7.917,0 -13.75,2.5 -17.917,7.084c-4.166,4.583 -6.25,11.25 -6.25,20l0,69.166l-45.833,0l0,-130Z" />
			<path d="M1612.92,938.333l-0,120.834c-0,7.083 -0.417,13.75 -1.25,19.583c-0.834,5.833 -2.084,10.833 -3.75,15c-2.084,5.417 -5,10.833 -9.584,15.417c-4.166,4.583 -9.583,8.75 -15.416,12.5c-6.25,3.75 -12.917,6.25 -20.417,8.333c-7.5,2.083 -15.833,2.917 -25,2.917c-10,-0 -19.167,-1.25 -27.917,-3.75c-8.333,-2.5 -15.833,-6.25 -22.083,-10.417c-6.25,-4.583 -11.667,-9.583 -15.417,-15.833c-4.166,-5.834 -6.666,-12.5 -7.916,-19.584l51.666,0c3.334,8.75 10.417,12.917 21.667,12.917c9.583,0 17.083,-2.5 22.083,-7.917c5,-5.416 7.917,-12.916 7.917,-22.5l0,-12.5c-3.333,3.334 -6.667,5.834 -9.583,7.917c-3.334,2.083 -6.25,3.75 -9.584,5c-3.333,1.25 -6.666,2.5 -10,2.917c-3.333,0.416 -7.5,0.833 -11.666,0.833c-9.167,0 -17.917,-1.667 -25.417,-4.583c-7.917,-3.334 -14.583,-7.5 -20,-13.334c-5.833,-5.833 -10,-12.5 -13.333,-20.416c-3.334,-7.917 -4.584,-17.084 -4.584,-26.667c0,-9.583 1.667,-19.167 5,-27.5c3.334,-8.333 7.917,-15.833 13.75,-22.083c5.834,-6.25 12.5,-11.25 20.834,-15c8.333,-3.75 16.666,-5.417 26.25,-5.417c15.416,0 28.333,5.833 38.75,17.083l-0,-13.75l45,0Zm-102.5,64.167c-0,4.167 0.833,7.917 2.083,11.667c1.667,3.75 3.75,6.666 6.25,9.583c2.5,2.917 5.833,4.583 9.167,6.25c3.75,1.667 7.5,2.5 11.666,2.5c4.167,0 7.917,-0.833 11.667,-2.5c3.75,-1.667 6.667,-3.75 9.167,-6.25c2.5,-2.5 4.583,-5.833 6.25,-9.583c1.666,-3.75 2.5,-7.5 2.5,-11.667c-0,-4.167 -0.834,-7.917 -2.5,-11.667c-1.667,-3.75 -3.75,-6.666 -6.25,-9.166c-2.5,-2.5 -5.834,-4.584 -9.584,-6.25c-3.75,-1.667 -7.5,-2.5 -11.25,-2.5c-3.75,-0 -7.916,0.833 -11.25,2.5c-3.333,1.666 -6.666,3.75 -9.166,6.25c-2.5,2.5 -5,5.833 -6.25,9.166c-1.667,3.75 -2.5,7.5 -2.5,11.667Z" />
			<path d="M1685.83,1010.83c0,19.584 9.167,29.584 27.917,29.584c10,-0 17.5,-4.167 22.5,-12.084l44.167,0c-8.75,29.584 -31.25,44.584 -67.084,44.584c-10.833,-0 -20.833,-1.667 -30,-5c-9.166,-3.334 -16.666,-7.917 -23.333,-14.167c-6.667,-6.25 -11.667,-13.333 -15,-21.667c-3.75,-8.333 -5.417,-17.916 -5.417,-28.333c0,-10.417 1.667,-20.417 5,-29.167c3.334,-8.75 8.334,-16.25 14.584,-22.083c6.25,-6.25 13.75,-10.833 22.5,-14.167c8.75,-3.333 18.75,-5 30,-5c11.25,0 20.833,1.667 29.583,5c8.75,3.334 16.25,7.917 22.083,14.167c5.834,6.25 10.834,13.75 13.75,22.917c2.917,9.166 4.584,19.166 4.584,30.416l-0,4.584l-95.834,0.416Zm53.75,-26.666c-1.666,-6.25 -4.583,-11.667 -9.166,-15.417c-4.584,-3.75 -10.417,-5.833 -17.084,-5.833c-7.083,-0 -12.916,1.666 -17.5,5.416c-4.583,3.75 -7.5,8.75 -8.333,15.834l52.083,-0Z" />
		</g>
		<g class="jl-liberale">
			<rect x="1152.5" y="1135.42" width="45.833" height="209.583" />
			<path d="M1224.58,1165.83c0,-3.75 0.834,-6.666 2.084,-10c1.25,-3.333 3.333,-5.833 5.416,-8.333c2.5,-2.5 5,-4.167 8.334,-5.417c3.333,-1.25 6.25,-2.083 10,-2.083c3.75,0 6.666,0.833 10,2.083c3.333,1.25 5.833,3.334 8.333,5.417c2.5,2.5 4.167,5 5.417,8.333c1.25,3.334 2.083,6.25 2.083,10c-0,3.75 -0.833,6.667 -2.083,10c-1.25,3.334 -3.334,5.834 -5.417,8.334c-2.5,2.5 -5,4.166 -8.333,5.416c-3.334,1.25 -6.25,2.084 -10,2.084c-3.75,-0 -6.667,-0.834 -10,-2.084c-3.334,-1.25 -5.834,-3.333 -8.334,-5.416c-2.5,-2.5 -4.166,-5 -5.416,-8.334c-1.667,-2.916 -2.084,-6.25 -2.084,-10Zm48.75,50l0,129.584l-45.833,-0l0,-129.584l45.833,0Z" />
			<path d="M1347.92,1135.42l-0,92.916c10.833,-11.25 24.166,-17.083 40.416,-17.083c9.584,0 18.334,1.667 26.25,5.417c7.917,3.75 15,8.333 20.417,14.583c5.833,6.25 10,13.333 13.333,21.667c3.334,8.333 4.584,17.083 4.584,26.666c-0,9.584 -1.667,18.75 -5,27.084c-3.334,8.333 -7.917,15.833 -13.75,22.083c-5.834,6.25 -12.917,11.25 -20.834,14.583c-7.916,3.334 -16.666,5.417 -25.833,5.417c-16.667,0 -30,-6.25 -40,-18.333l0,14.583l-45.833,0l-0,-209.583l46.25,-0Zm57.916,145.416c0,-4.166 -0.833,-7.916 -2.083,-11.666c-1.667,-3.75 -3.75,-6.667 -6.25,-9.584c-2.5,-2.5 -5.833,-5 -9.167,-6.25c-3.75,-1.666 -7.5,-2.5 -11.666,-2.5c-4.167,0 -7.917,0.834 -11.25,2.084c-3.75,1.666 -6.667,3.75 -9.167,6.25c-2.5,2.5 -4.583,5.833 -6.25,9.583c-1.667,3.75 -2.5,7.5 -2.5,11.667c0,4.166 0.833,7.916 2.083,11.25c1.667,3.75 3.75,6.666 6.25,9.166c2.5,2.5 5.834,4.584 9.584,6.25c3.75,1.667 7.5,2.5 11.666,2.5c4.167,0 7.917,-0.833 11.25,-2.083c3.75,-1.667 6.667,-3.75 9.167,-6.25c2.5,-2.5 4.583,-5.833 6.25,-9.167c1.25,-3.75 2.083,-7.5 2.083,-11.25Z" />
			<path d="M1518.33,1288.33c0,19.584 9.167,29.584 27.917,29.584c10,-0 17.5,-4.167 22.5,-12.084l44.167,0c-8.75,29.584 -31.25,44.584 -67.084,44.584c-10.833,-0 -20.833,-1.667 -30,-5c-9.166,-3.334 -16.666,-7.917 -23.333,-14.167c-6.667,-6.25 -11.667,-13.333 -15,-21.667c-3.75,-8.333 -5.417,-17.916 -5.417,-28.333c0,-10.417 1.667,-20.417 5,-29.167c3.334,-8.75 8.334,-16.25 14.584,-22.083c6.25,-5.833 13.75,-10.833 22.5,-14.167c8.75,-3.333 18.75,-5 30,-5c11.25,0 20.833,1.667 29.583,5c8.75,3.334 16.25,7.917 22.083,14.167c5.834,6.25 10.834,13.75 13.75,22.917c2.917,9.166 4.584,19.166 4.584,30.416l-0,4.584l-95.834,0.416Zm53.75,-26.666c-1.666,-6.25 -4.583,-11.667 -9.166,-15.417c-4.584,-3.75 -10.417,-5.833 -17.084,-5.833c-7.083,-0 -12.916,2.083 -17.5,5.416c-4.583,3.75 -7.5,8.75 -8.333,15.834l52.083,-0Z" />
			<path d="M1638.33,1215.83l45.834,0l-0,21.25c5,-7.916 10.833,-13.75 17.916,-17.916c7.084,-4.167 15.417,-6.25 24.584,-6.25l3.75,-0c1.25,-0 2.916,-0 5,0.416l-0,43.75c-6.25,-2.916 -12.5,-4.583 -19.584,-4.583c-10.416,0 -18.75,3.333 -23.75,9.583c-5,6.25 -7.916,15.417 -7.916,27.5l-0,55.417l-45.834,0l0,-129.167Z" />
			<path d="M1855.42,1215.83l45.833,0l0,129.584l-45.833,-0l-0,-14.584c-10,12.5 -22.917,18.334 -39.584,18.334c-9.583,-0 -18.333,-1.667 -25.833,-5c-7.917,-3.334 -15,-8.334 -20.833,-14.584c-5.834,-6.25 -10.417,-13.75 -13.75,-22.083c-3.334,-8.333 -5,-17.5 -5,-27.5c-0,-9.167 1.666,-17.917 4.583,-26.25c2.917,-8.333 7.5,-15.833 13.333,-21.667c5.834,-6.25 12.5,-11.25 20.417,-14.583c7.917,-3.333 16.667,-5.417 26.25,-5.417c16.25,0 29.583,5.834 40,17.084l0.417,-13.334Zm-57.5,64.167c-0,4.167 0.833,8.333 2.083,11.667c1.667,3.75 3.75,6.666 6.25,9.583c2.5,2.917 5.833,4.583 9.167,6.25c3.75,1.667 7.5,2.083 11.666,2.083c4.167,0 7.917,-0.833 11.667,-2.083c3.75,-1.667 6.667,-3.75 9.167,-6.25c2.5,-2.5 4.583,-5.833 6.25,-9.167c1.666,-3.75 2.5,-7.5 2.5,-11.25c-0,-3.75 -0.834,-7.916 -2.5,-11.666c-1.667,-3.75 -3.75,-6.667 -6.25,-9.584c-2.5,-2.5 -5.834,-4.583 -9.167,-6.25c-3.75,-1.666 -7.5,-2.083 -11.667,-2.083c-4.166,0 -8.333,0.833 -11.666,2.083c-3.75,1.667 -6.667,3.75 -9.167,6.25c-2.5,2.5 -4.583,5.834 -6.25,9.167c-1.25,3.75 -2.083,7.5 -2.083,11.25Z" />
			<rect x="1930" y="1135.42" width="45.833" height="209.583" />
			<path d="M2046.25,1288.33c0,19.584 9.167,29.584 27.917,29.584c10,-0 17.5,-4.167 22.5,-12.084l44.166,0c-8.75,29.584 -31.25,44.584 -67.083,44.584c-10.833,-0 -20.833,-1.667 -30,-5c-9.167,-3.334 -16.667,-7.917 -23.333,-14.167c-6.667,-6.25 -11.667,-13.333 -15,-21.667c-3.75,-8.333 -5.417,-17.916 -5.417,-28.333c-0,-10.417 1.667,-20.417 5,-29.167c3.333,-8.75 8.333,-16.25 14.583,-22.083c6.25,-5.833 13.75,-10.833 22.5,-14.167c8.75,-3.333 18.75,-5 30,-5c11.25,0 20.834,1.667 29.584,5c8.75,3.334 16.25,7.917 22.083,14.167c5.833,6.25 10.833,13.75 13.75,22.917c2.917,9.166 5,19.166 5,30.416l0,4.584l-96.25,0.416Zm53.75,-26.666c-1.667,-6.25 -4.583,-11.667 -9.167,-15.417c-4.583,-3.75 -10.416,-5.833 -17.083,-5.833c-7.083,-0 -12.917,2.083 -17.5,5.416c-4.583,3.334 -7.5,8.75 -8.333,15.834l52.083,-0Z" />
		</g>
	</g>

	<g class="subline-text color-text" transform="matrix(1 0 0 1 2140 1510)">
		<path d="M-368.40-90.48L-356.64-90.48Q-324.24-90.48-324.24-65.76L-324.24-65.76Q-324.24-60.36-326.94-55.44Q-329.64-50.52-333.96-48.48L-333.96-48.48L-333.96-48.24Q-326.28-46.92-321.06-40.20Q-315.84-33.48-315.84-25.32L-315.84-25.32Q-315.84-13.56-324.42-6.78Q-333 0-346.92 0L-346.92 0L-368.40 0L-368.40-90.48ZM-357.12-80.40L-357.12-50.40L-353.88-50.40Q-346.08-50.40-342-52.38Q-337.92-54.36-336.36-57.42Q-334.80-60.48-334.80-65.52L-334.80-65.52Q-334.80-69.72-336.06-72.90Q-337.32-76.08-341.40-78.24Q-345.48-80.40-353.76-80.40L-353.76-80.40L-357.12-80.40ZM-357.12-10.08L-348.12-10.08Q-337.92-10.08-332.52-14.10Q-327.12-18.12-327.12-26.04L-327.12-26.04Q-327.12-33.72-333.24-37.56Q-339.36-41.40-351-41.40L-351-41.40L-357.12-41.40L-357.12-10.08ZM-268.32-55.08L-268.32-55.08L-273.24-45.24Q-274.68-46.56-276.42-47.04Q-278.16-47.52-279.84-47.52L-279.84-47.52Q-286.56-47.52-289.74-42.72Q-292.92-37.92-292.92-28.20L-292.92-28.20L-292.92 0L-303.72 0L-303.72-56.16L-292.92-56.16L-292.92-47.04L-292.56-47.04Q-290.52-52.08-286.50-54.96Q-282.48-57.84-277.20-57.84L-277.20-57.84Q-275.04-57.84-272.70-57.12Q-270.36-56.40-268.32-55.08ZM-215.16-27.24L-215.16-27.24L-215.16-26.28L-258-26.28Q-257.76-18.12-252.90-12.90Q-248.04-7.68-241.08-7.68L-241.08-7.68Q-234.84-7.68-231.12-10.62Q-227.40-13.56-224.28-18.60L-224.28-18.60L-215.16-13.44Q-219.12-6.12-226.02-2.10Q-232.92 1.92-241.20 1.92L-241.20 1.92Q-253.32 1.92-261.06-6.24Q-268.80-14.40-268.80-27.60L-268.80-27.60Q-268.80-41.40-261.48-49.62Q-254.16-57.84-241.44-57.84L-241.44-57.84Q-229.20-57.84-222.18-49.86Q-215.16-41.88-215.16-27.24ZM-257.40-34.44L-225.96-34.44Q-226.92-40.92-230.94-44.70Q-234.96-48.48-241.56-48.48L-241.56-48.48Q-247.68-48.48-252.06-44.46Q-256.44-40.44-257.40-34.44L-257.40-34.44ZM-164.16-47.88L-164.16-47.88Q-161.52-52.44-156.84-55.14Q-152.16-57.84-146.88-57.84L-146.88-57.84Q-137.64-57.84-132.96-51.78Q-128.28-45.72-128.28-34.20L-128.28-34.20L-128.28 0L-139.08 0L-139.08-32.28Q-139.08-40.44-141.60-44.34Q-144.12-48.24-149.52-48.24L-149.52-48.24Q-155.64-48.24-158.76-43.62Q-161.88-39-161.88-28.20L-161.88-28.20L-161.88 0L-172.68 0L-172.68-30.36Q-172.68-39.84-175.14-44.04Q-177.60-48.24-183-48.24L-183-48.24Q-189.12-48.24-192.30-43.62Q-195.48-39-195.48-28.20L-195.48-28.20L-195.48 0L-206.28 0L-206.28-56.16L-195.48-56.16L-195.48-49.08L-195.24-49.08Q-192.84-52.80-188.82-55.32Q-184.80-57.84-180.36-57.84L-180.36-57.84Q-174.96-57.84-170.94-55.20Q-166.92-52.56-164.16-47.88ZM-64.56-27.24L-64.56-27.24L-64.56-26.28L-107.40-26.28Q-107.16-18.12-102.30-12.90Q-97.44-7.68-90.48-7.68L-90.48-7.68Q-84.24-7.68-80.52-10.62Q-76.80-13.56-73.68-18.60L-73.68-18.60L-64.56-13.44Q-68.52-6.12-75.42-2.10Q-82.32 1.92-90.60 1.92L-90.60 1.92Q-102.72 1.92-110.46-6.24Q-118.20-14.40-118.20-27.60L-118.20-27.60Q-118.20-41.40-110.88-49.62Q-103.56-57.84-90.84-57.84L-90.84-57.84Q-78.60-57.84-71.58-49.86Q-64.56-41.88-64.56-27.24ZM-106.80-34.44L-75.36-34.44Q-76.32-40.92-80.34-44.70Q-84.36-48.48-90.96-48.48L-90.96-48.48Q-97.08-48.48-101.46-44.46Q-105.84-40.44-106.80-34.44L-106.80-34.44ZM-7.44-34.08L-7.44-34.08L-7.44 0L-18.24 0L-18.24-32.76Q-18.24-41.16-20.88-44.70Q-23.52-48.24-30.60-48.24L-30.60-48.24Q-37.92-48.24-41.22-43.68Q-44.52-39.12-44.52-27.60L-44.52-27.60L-44.52 0L-55.32 0L-55.32-56.16L-44.52-56.16L-44.52-48.60L-44.28-48.60Q-41.64-53.16-37.08-55.50Q-32.52-57.84-27.36-57.84L-27.36-57.84Q-17.16-57.84-12.30-51.90Q-7.44-45.96-7.44-34.08Z" />
	</g>
</g>
</svg>
