<svg xmlns="http://www.w3.org/2000/svg" xmlns:xlink="http://www.w3.org/1999/xlink" width="100%" height="100%" viewBox="0 0 2835 2164" style="enable-background:new 0 0 2835 2164;background-color:transparent;" version="1.1">
<style>
	.color-card-fg {fill: #ffed00;}
	.color-card-bg {fill: #e5007d;}
	.color-text {fill: #e5007d;}
</style>

<g class="color-card-bg">
	<path d="M2305.42,349.167l249.166,937.916c14.167,52.917 -17.5,107.5 -70.416,121.25l-1799.58,477.917c-52.916,14.167 -107.5,-17.5 -121.25,-70.417l-249.166,-937.916c-14.167,-52.917 17.5,-107.5 70.416,-121.25l1799.58,-478.334c52.916,-14.166 107.5,17.5 121.25,70.834Z" />
</g>
<g>
	<g class="color-card-fg">
		<path d="M2336.67,630l-0,970.417c-0,55 -44.584,99.166 -99.167,99.166l-1862.08,0c-55,0 -99.167,-44.583 -99.167,-99.166l0,-970.417c0,-55 44.583,-99.167 99.167,-99.167l1862.08,0c54.583,-0.416 99.167,44.167 99.167,99.167Z" />
	</g>
	
	<g class="jl-signet color-text">
		<path d="M810,725l192.083,0l-108.75,407.917l-192.5,-0l109.167,-407.917Z" />
		<path d="M525.833,937.917l193.75,-0l-110,407.916l-139.166,-203.75l55.416,-204.166Z" />
	</g>
	<g class="jl-title color-text">
		<g class="jl-junge">
			<path d="M1057.92,888.333c-0,-3.75 0.833,-6.666 2.083,-10c1.25,-3.333 3.333,-5.833 5.417,-8.333c2.5,-2.5 5,-4.167 8.333,-5.417c3.333,-1.25 6.25,-2.083 10,-2.083c3.75,-0 6.667,0.833 10,2.083c3.333,1.25 5.833,3.334 8.333,5.417c2.5,2.5 4.167,5 5.417,8.333c1.25,3.334 2.083,6.667 2.083,10c0,3.334 -0.833,6.667 -2.083,10c-1.25,3.334 -3.333,5.834 -5.417,8.334c-2.083,2.5 -5,4.166 -8.333,5.416c-3.333,1.25 -6.25,2.084 -10,2.084c-3.75,-0 -6.667,-0.834 -10,-2.084c-3.333,-1.25 -5.833,-3.333 -8.333,-5.416c-2.5,-2.5 -4.167,-5 -5.417,-8.334c-1.667,-2.916 -2.083,-6.25 -2.083,-10Zm48.75,50l-0,194.167l-45.834,0l0,-194.167l45.834,0Z" />
			<path d="M1181.25,938.333l0,72.917c0,15.833 7.917,24.167 23.333,24.167c15.417,-0 23.334,-7.917 23.334,-24.167l-0,-72.917l45.833,0l0,81.667c0,17.5 -5.833,30.833 -17.083,39.583c-11.667,8.75 -28.75,13.334 -51.667,13.334c-22.917,-0 -40,-4.167 -51.667,-12.917c-11.666,-8.75 -17.5,-22.083 -17.5,-39.583l0,-81.667l45.417,-0.417Z"/>
			<path d="M1302.5,938.333l45.833,0l0,16.25c6.25,-7.5 12.5,-12.5 18.75,-15.416c6.25,-2.5 13.75,-3.75 22.5,-3.75c9.167,-0 16.667,1.666 23.334,4.583c6.666,2.917 12.083,7.083 16.666,12.5c3.75,4.583 6.25,9.167 7.5,14.583c1.25,5.417 2.084,11.667 2.084,18.334l-0,82.5l-45.834,-0l0,-65.417c0,-6.25 -0.416,-11.667 -1.25,-15.417c-0.833,-3.75 -2.5,-7.083 -5,-9.583c-2.083,-2.083 -4.166,-3.333 -6.666,-4.167c-2.5,-0.833 -5,-1.25 -7.917,-1.25c-7.917,0 -13.75,2.5 -17.917,7.084c-4.166,4.583 -6.25,11.25 -6.25,20l0,69.166l-45.833,0l0,-130Z" />
			<path d="M1612.92,938.333l-0,120.834c-0,7.083 -0.417,13.75 -1.25,19.583c-0.834,5.833 -2.084,10.833 -3.75,15c-2.084,5.417 -5,10.833 -9.584,15.417c-4.166,4.583 -9.583,8.75 -15.416,12.5c-6.25,3.75 -12.917,6.25 -20.417,8.333c-7.5,2.083 -15.833,2.917 -25,2.917c-10,-0 -19.167,-1.25 -27.917,-3.75c-8.333,-2.5 -15.833,-6.25 -22.083,-10.417c-6.25,-4.583 -11.667,-9.583 -15.417,-15.833c-4.166,-5.834 -6.666,-12.5 -7.916,-19.584l51.666,0c3.334,8.75 10.417,12.917 21.667,12.917c9.583,0 17.083,-2.5 22.083,-7.917c5,-5.416 7.917,-12.916 7.917,-22.5l0,-12.5c-3.333,3.334 -6.667,5.834 -9.583,7.917c-3.334,2.083 -6.25,3.75 -9.584,5c-3.333,1.25 -6.666,2.5 -10,2.917c-3.333,0.416 -7.5,0.833 -11.666,0.833c-9.167,0 -17.917,-1.667 -25.417,-4.583c-7.917,-3.334 -14.583,-7.5 -20,-13.334c-5.833,-5.833 -10,-12.5 -13.333,-20.416c-3.334,-7.917 -4.584,-17.084 -4.584,-26.667c0,-9.583 1.667,-19.167 5,-27.5c3.334,-8.333 7.917,-15.833 13.75,-22.083c5.834,-6.25 12.5,-11.25 20.834,-15c8.333,-3.75 16.666,-5.417 26.25,-5.417c15.416,0 28.333,5.833 38.75,17.083l-0,-13.75l45,0Zm-102.5,64.167c-0,4.167 0.833,7.917 2.083,11.667c1.667,3.75 3.75,6.666 6.25,9.583c2.5,2.917 5.833,4.583 9.167,6.25c3.75,1.667 7.5,2.5 11.666,2.5c4.167,0 7.917,-0.833 11.667,-2.5c3.75,-1.667 6.667,-3.75 9.167,-6.25c2.5,-2.5 4.583,-5.833 6.25,-9.583c1.666,-3.75 2.5,-7.5 2.5,-11.667c-0,-4.167 -0.834,-7.917 -2.5,-11.667c-1.667,-3.75 -3.75,-6.666 -6.25,-9.166c-2.5,-2.5 -5.834,-4.584 -9.584,-6.25c-3.75,-1.667 -7.5,-2.5 -11.25,-2.5c-3.75,-0 -7.916,0.833 -11.25,2.5c-3.333,1.666 -6.666,3.75 -9.166,6.25c-2.5,2.5 -5,5.833 -6.25,9.166c-1.667,3.75 -2.5,7.5 -2.5,11.667Z" />
			<path d="M1685.83,1010.83c0,19.584 9.167,29.584 27.917,29.584c10,-0 17.5,-4.167 22.5,-12.084l44.167,0c-8.75,29.584 -31.25,44.584 -67.084,44.584c-10.833,-0 -20.833,-1.667 -30,-5c-9.166,-3.334 -16.666,-7.917 -23.333,-14.167c-6.667,-6.25 -11.667,-13.333 -15,-21.667c-3.75,-8.333 -5.417,-17.916 -5.417,-28.333c0,-10.417 1.667,-20.417 5,-29.167c3.334,-8.75 8.334,-16.25 14.584,-22.083c6.25,-6.25 13.75,-10.833 22.5,-14.167c8.75,-3.333 18.75,-5 30,-5c11.25,0 20.833,1.667 29.583,5c8.75,3.334 16.25,7.917 22.083,14.167c5.834,6.25 10.834,13.75 13.75,22.917c2.917,9.166 4.584,19.166 4.584,30.416l-0,4.584l-95.834,0.416Zm53.75,-26.666c-1.666,-6.25 -4.583,-11.667 -9.166,-15.417c-4.584,-3.75 -10.417,-5.833 -17.084,-5.833c-7.083,-0 -12.916,1.666 -17.5,5.416c-4.583,3.75 -7.5,8.75 -8.333,15.834l52.083,-0Z" />
		</g>
		<g class="jl-liberale">
			<rect x="1152.5" y="1135.42" width="45.833" height="209.583" />
			<path d="M1224.58,1165.83c0,-3.75 0.834,-6.666 2.084,-10c1.25,-3.333 3.333,-5.833 5.416,-8.333c2.5,-2.5 5,-4.167 8.334,-5.417c3.333,-1.25 6.25,-2.083 10,-2.083c3.75,0 6.666,0.833 10,2.083c3.333,1.25 5.833,3.334 8.333,5.417c2.5,2.5 4.167,5 5.417,8.333c1.25,3.334 2.083,6.25 2.083,10c-0,3.75 -0.833,6.667 -2.083,10c-1.25,3.334 -3.334,5.834 -5.417,8.334c-2.5,2.5 -5,4.166 -8.333,5.416c-3.334,1.25 -6.25,2.084 -10,2.084c-3.75,-0 -6.667,-0.834 -10,-2.084c-3.334,-1.25 -5.834,-3.333 -8.334,-5.416c-2.5,-2.5 -4.166,-5 -5.416,-8.334c-1.667,-2.916 -2.084,-6.25 -2.084,-10Zm48.75,50l0,129.584l-45.833,-0l0,-129.584l45.833,0Z" />
			<path d="M1347.92,1135.42l-0,92.916c10.833,-11.25 24.166,-17.083 40.416,-17.083c9.584,0 18.334,1.667 26.25,5.417c7.917,3.75 15,8.333 20.417,14.583c5.833,6.25 10,13.333 13.333,21.667c3.334,8.333 4.584,17.083 4.584,26.666c-0,9.584 -1.667,18.75 -5,27.084c-3.334,8.333 -7.917,15.833 -13.75,22.083c-5.834,6.25 -12.917,11.25 -20.834,14.583c-7.916,3.334 -16.666,5.417 -25.833,5.417c-16.667,0 -30,-6.25 -40,-18.333l0,14.583l-45.833,0l-0,-209.583l46.25,-0Zm57.916,145.416c0,-4.166 -0.833,-7.916 -2.083,-11.666c-1.667,-3.75 -3.75,-6.667 -6.25,-9.584c-2.5,-2.5 -5.833,-5 -9.167,-6.25c-3.75,-1.666 -7.5,-2.5 -11.666,-2.5c-4.167,0 -7.917,0.834 -11.25,2.084c-3.75,1.666 -6.667,3.75 -9.167,6.25c-2.5,2.5 -4.583,5.833 -6.25,9.583c-1.667,3.75 -2.5,7.5 -2.5,11.667c0,4.166 0.833,7.916 2.083,11.25c1.667,3.75 3.75,6.666 6.25,9.166c2.5,2.5 5.834,4.584 9.584,6.25c3.75,1.667 7.5,2.5 11.666,2.5c4.167,0 7.917,-0.833 11.25,-2.083c3.75,-1.667 6.667,-3.75 9.167,-6.25c2.5,-2.5 4.583,-5.833 6.25,-9.167c1.25,-3.75 2.083,-7.5 2.083,-11.25Z" />
			<path d="M1518.33,1288.33c0,19.584 9.167,29.584 27.917,29.584c10,-0 17.5,-4.167 22.5,-12.084l44.167,0c-8.75,29.584 -31.25,44.584 -67.084,44.584c-10.833,-0 -20.833,-1.667 -30,-5c-9.166,-3.334 -16.666,-7.917 -23.333,-14.167c-6.667,-6.25 -11.667,-13.333 -15,-21.667c-3.75,-8.333 -5.417,-17.916 -5.417,-28.333c0,-10.417 1.667,-20.417 5,-29.167c3.334,-8.75 8.334,-16.25 14.584,-22.083c6.25,-5.833 13.75,-10.833 22.5,-14.167c8.75,-3.333 18.75,-5 30,-5c11.25,0 20.833,1.667 29.583,5c8.75,3.334 16.25,7.917 22.083,14.167c5.834,6.25 10.834,13.75 13.75,22.917c2.917,9.166 4.584,19.166 4.584,30.416l-0,4.584l-95.834,0.416Zm53.75,-26.666c-1.666,-6.25 -4.583,-11.667 -9.166,-15.417c-4.584,-3.75 -10.417,-5.833 -17.084,-5.833c-7.083,-0 -12.916,2.083 -17.5,5.416c-4.583,3.75 -7.5,8.75 -8.333,15.834l52.083,-0Z" />
			<path d="M1638.33,1215.83l45.834,0l-0,21.25c5,-7.916 10.833,-13.75 17.916,-17.916c7.084,-4.167 15.417,-6.25 24.584,-6.25l3.75,-0c1.25,-0 2.916,-0 5,0.416l-0,43.75c-6.25,-2.916 -12.5,-4.583 -19.584,-4.583c-10.416,0 -18.75,3.333 -23.75,9.583c-5,6.25 -7.916,15.417 -7.916,27.5l-0,55.417l-45.834,0l0,-129.167Z" />
			<path d="M1855.42,1215.83l45.833,0l0,129.584l-45.833,-0l-0,-14.584c-10,12.5 -22.917,18.334 -39.584,18.334c-9.583,-0 -18.333,-1.667 -25.833,-5c-7.917,-3.334 -15,-8.334 -20.833,-14.584c-5.834,-6.25 -10.417,-13.75 -13.75,-22.083c-3.334,-8.333 -5,-17.5 -5,-27.5c-0,-9.167 1.666,-17.917 4.583,-26.25c2.917,-8.333 7.5,-15.833 13.333,-21.667c5.834,-6.25 12.5,-11.25 20.417,-14.583c7.917,-3.333 16.667,-5.417 26.25,-5.417c16.25,0 29.583,5.834 40,17.084l0.417,-13.334Zm-57.5,64.167c-0,4.167 0.833,8.333 2.083,11.667c1.667,3.75 3.75,6.666 6.25,9.583c2.5,2.917 5.833,4.583 9.167,6.25c3.75,1.667 7.5,2.083 11.666,2.083c4.167,0 7.917,-0.833 11.667,-2.083c3.75,-1.667 6.667,-3.75 9.167,-6.25c2.5,-2.5 4.583,-5.833 6.25,-9.167c1.666,-3.75 2.5,-7.5 2.5,-11.25c-0,-3.75 -0.834,-7.916 -2.5,-11.666c-1.667,-3.75 -3.75,-6.667 -6.25,-9.584c-2.5,-2.5 -5.834,-4.583 -9.167,-6.25c-3.75,-1.666 -7.5,-2.083 -11.667,-2.083c-4.166,0 -8.333,0.833 -11.666,2.083c-3.75,1.667 -6.667,3.75 -9.167,6.25c-2.5,2.5 -4.583,5.834 -6.25,9.167c-1.25,3.75 -2.083,7.5 -2.083,11.25Z" />
			<rect x="1930" y="1135.42" width="45.833" height="209.583" />
			<path d="M2046.25,1288.33c0,19.584 9.167,29.584 27.917,29.584c10,-0 17.5,-4.167 22.5,-12.084l44.166,0c-8.75,29.584 -31.25,44.584 -67.083,44.584c-10.833,-0 -20.833,-1.667 -30,-5c-9.167,-3.334 -16.667,-7.917 -23.333,-14.167c-6.667,-6.25 -11.667,-13.333 -15,-21.667c-3.75,-8.333 -5.417,-17.916 -5.417,-28.333c-0,-10.417 1.667,-20.417 5,-29.167c3.333,-8.75 8.333,-16.25 14.583,-22.083c6.25,-5.833 13.75,-10.833 22.5,-14.167c8.75,-3.333 18.75,-5 30,-5c11.25,0 20.834,1.667 29.584,5c8.75,3.334 16.25,7.917 22.083,14.167c5.833,6.25 10.833,13.75 13.75,22.917c2.917,9.166 5,19.166 5,30.416l0,4.584l-96.25,0.416Zm53.75,-26.666c-1.667,-6.25 -4.583,-11.667 -9.167,-15.417c-4.583,-3.75 -10.416,-5.833 -17.083,-5.833c-7.083,-0 -12.917,2.083 -17.5,5.416c-4.583,3.334 -7.5,8.75 -8.333,15.834l52.083,-0Z" />
		</g>
	</g>

	<g class="subline-text color-text" transform="matrix(1 0 0 1 2140 1510)">
		<path d="M-361.20-78.72L-361.20-78.72L-370.20-73.32Q-372.72-77.52-376.14-79.68Q-379.56-81.84-384.72-81.84L-384.72-81.84Q-390.72-81.84-395.28-78.12Q-399.84-74.40-399.84-69L-399.84-69Q-399.84-64.68-396.66-61.50Q-393.48-58.32-387.36-56.04L-387.36-56.04L-380.76-53.52Q-369.36-49.20-363.84-42.72Q-358.32-36.24-358.32-26.28L-358.32-26.28Q-358.32-13.92-366.78-6Q-375.24 1.92-387.24 1.92L-387.24 1.92Q-397.80 1.92-405.66-5.04Q-413.52-12-415.20-23.40L-415.20-23.40L-403.80-25.80Q-403.80-18.48-398.76-13.56Q-393.72-8.64-386.28-8.64L-386.28-8.64Q-379.32-8.64-374.46-13.68Q-369.60-18.72-369.60-26.28L-369.60-26.28Q-369.60-32.16-373.14-36Q-376.68-39.84-385.20-43.44L-385.20-43.44L-391.44-46.08Q-402.24-50.64-406.68-56.16Q-411.12-61.68-411.12-69L-411.12-69Q-411.12-79.08-403.38-85.74Q-395.64-92.40-384.48-92.40L-384.48-92.40Q-376.92-92.40-370.92-88.86Q-364.92-85.32-361.20-78.72ZM-345.60-77.64L-334.80-77.64L-334.80-56.16L-324.24-56.16L-324.24-46.08L-334.80-46.08L-334.80 0L-345.60 0L-345.60-46.08L-351.48-46.08L-351.48-56.16L-345.60-56.16L-345.60-77.64ZM-318.84-56.16L-308.04-56.16L-308.04-24.60Q-308.04-15.96-304.74-12.06Q-301.44-8.16-295.08-8.16L-295.08-8.16Q-288-8.16-285.06-12.48Q-282.12-16.80-282.12-24.60L-282.12-24.60L-282.12-56.16L-271.32-56.16L-271.32-23.40Q-271.32-11.28-277.44-4.68Q-283.56 1.92-295.08 1.92L-295.08 1.92Q-306.96 1.92-312.90-4.92Q-318.84-11.76-318.84-23.52L-318.84-23.52L-318.84-56.16ZM-255.36-77.64L-244.56-77.64L-244.56-56.16L-234-56.16L-234-46.08L-244.56-46.08L-244.56 0L-255.36 0L-255.36-46.08L-261.24-46.08L-261.24-56.16L-255.36-56.16L-255.36-77.64ZM-226.44-77.64L-215.64-77.64L-215.64-56.16L-205.08-56.16L-205.08-46.08L-215.64-46.08L-215.64 0L-226.44 0L-226.44-46.08L-232.32-46.08L-232.32-56.16L-226.44-56.16L-226.44-77.64ZM-157.68-46.56L-157.68-46.56L-157.44-46.56L-157.44-56.16L-146.64-56.16L-146.64-0.36Q-146.64 16.08-153.18 24.12Q-159.72 32.16-174 32.16L-174 32.16Q-186.12 32.16-193.50 25.20Q-200.88 18.24-201.12 6.72L-201.12 6.72L-190.32 6.72Q-190.32 14.04-185.70 18.30Q-181.08 22.56-173.52 22.56L-173.52 22.56Q-164.88 22.56-161.16 17.64Q-157.44 12.72-157.44 2.52L-157.44 2.52L-157.44-8.76L-157.68-8.76Q-160.92-3.96-165.78-1.02Q-170.64 1.92-176.76 1.92L-176.76 1.92Q-188.52 1.92-196.08-6.54Q-203.64-15-203.64-28.44L-203.64-28.44Q-203.64-40.80-196.02-49.32Q-188.40-57.84-177.24-57.84L-177.24-57.84Q-170.76-57.84-165.78-54.72Q-160.80-51.60-157.68-46.56ZM-156.84-28.08L-156.84-28.08Q-156.84-37.20-162.06-42.72Q-167.28-48.24-175.20-48.24L-175.20-48.24Q-182.76-48.24-187.80-42.36Q-192.84-36.48-192.84-28.08L-192.84-28.08Q-192.84-19.32-187.80-13.50Q-182.76-7.68-175.08-7.68L-175.08-7.68Q-166.92-7.68-161.88-13.38Q-156.84-19.08-156.84-28.08ZM-90.96-46.80L-90.96-46.80L-90.72-46.80L-90.72-56.16L-79.92-56.16L-79.92 0L-90.72 0L-90.72-8.76L-90.96-8.76Q-94.20-3.96-99.06-1.02Q-103.92 1.92-110.04 1.92L-110.04 1.92Q-122.04 1.92-129.48-6.78Q-136.92-15.48-136.92-28.44L-136.92-28.44Q-136.92-36.72-133.32-43.56Q-129.72-50.40-123.72-54.12Q-117.72-57.84-110.40-57.84L-110.40-57.84Q-104.28-57.84-99.30-54.84Q-94.32-51.84-90.96-46.80ZM-90.12-28.08L-90.12-28.08Q-90.12-37.20-95.28-42.72Q-100.44-48.24-108.48-48.24L-108.48-48.24Q-116.04-48.24-121.08-42.36Q-126.12-36.48-126.12-28.08L-126.12-28.08Q-126.12-19.44-121.08-13.56Q-116.04-7.68-108.36-7.68L-108.36-7.68Q-100.20-7.68-95.16-13.38Q-90.12-19.08-90.12-28.08ZM-29.76-55.08L-29.76-55.08L-34.68-45.24Q-36.12-46.56-37.86-47.04Q-39.60-47.52-41.28-47.52L-41.28-47.52Q-48.00-47.52-51.18-42.72Q-54.36-37.92-54.36-28.20L-54.36-28.20L-54.36 0L-65.16 0L-65.16-56.16L-54.36-56.16L-54.36-47.04L-54.00-47.04Q-51.96-52.08-47.94-54.96Q-43.92-57.84-38.64-57.84L-38.64-57.84Q-36.48-57.84-34.14-57.12Q-31.80-56.40-29.76-55.08ZM-19.80-77.64L-9.00-77.64L-9.00-56.16L1.56-56.16L1.56-46.08L-9.00-46.08L-9.00 0L-19.80 0L-19.80-46.08L-25.68-46.08L-25.68-56.16L-19.80-56.16L-19.80-77.64Z" />
	</g>
</g>
</svg>
