<?xml version="1.0" encoding="UTF-8" standalone="no"?>
<!DOCTYPE svg PUBLIC "-//W3C//DTD SVG 1.1//EN" "http://www.w3.org/Graphics/SVG/1.1/DTD/svg11.dtd">
<svg width="100%" height="100%" viewBox="0 0 443 98" version="1.1" xmlns="http://www.w3.org/2000/svg" xmlns:xlink="http://www.w3.org/1999/xlink" xml:space="preserve" xmlns:serif="http://www.serif.com/" style="fill-rule:evenodd;clip-rule:evenodd;stroke-linejoin:round;stroke-miterlimit:2;">
    <g transform="matrix(1,0,0,1,-23244.2,-2516.21)">
        <g transform="matrix(2.66667,0,0,2.66667,22731,1785.83)">
            <g transform="matrix(1,0,0,1,205.559,287.673)">
                <path d="M0,-13.448L-13.133,0L-13.133,-11.428C-13.133,-12.185 -12.059,-13.448 -11.112,-13.448L0,-13.448Z" style="fill:white;fill-rule:nonzero;"/>
            </g>
        </g>
        <g transform="matrix(2.66667,0,0,2.66667,22731,1785.83)">
            <g transform="matrix(1,0,0,1,205.559,296.765)">
                <path d="M0,13.448L-13.133,0L-13.133,11.428C-13.133,12.185 -12.059,13.448 -11.112,13.448L0,13.448Z" style="fill:white;fill-rule:nonzero;"/>
            </g>
        </g>
        <g transform="matrix(2.66667,0,0,2.66667,22731,1785.83)">
            <g transform="matrix(1,0,0,1,226.013,274.225)">
                <path d="M0,35.988L-11.442,35.988C-17.393,29.89 -27.057,19.882 -27.591,19.171L-27.59,19.131L-27.693,19.045C-27.705,19.031 -27.989,18.699 -27.989,17.962C-27.989,17.24 -27.717,16.907 -27.716,16.903L-27.676,16.88L-27.602,16.769C-27.057,16.043 -17.393,6.097 -11.442,0L0,0L-17.449,17.962L0,35.988Z" style="fill:white;fill-rule:nonzero;"/>
            </g>
        </g>
        <g transform="matrix(2.66667,0,0,2.66667,22731,1785.83)">
            <g transform="matrix(1,0,0,1,241.14,288.022)">
                <path d="M0,8.457L9.813,8.457L6.509,-1.381C6.295,-2.006 6.044,-2.741 5.757,-3.588C5.47,-4.434 5.186,-5.351 4.907,-6.337C4.643,-5.334 4.372,-4.405 4.093,-3.551C3.813,-2.696 3.551,-1.956 3.304,-1.332L0,8.457ZM23.079,22.191L16.619,22.191C15.895,22.191 15.299,22.022 14.831,21.685C14.362,21.349 14.038,20.917 13.857,20.391L11.737,14.128L-1.923,14.128L-4.044,20.391C-4.208,20.851 -4.529,21.266 -5.005,21.636C-5.482,22.005 -6.066,22.191 -6.756,22.191L-13.265,22.191L0.641,-13.734L9.172,-13.734L23.079,22.191Z" style="fill:white;fill-rule:nonzero;"/>
            </g>
        </g>
        <g transform="matrix(2.66667,0,0,2.66667,22731,1785.83)">
            <g transform="matrix(1,0,0,1,286.333,288.788)">
                <path d="M0,6.95C0.304,7.625 0.596,8.316 0.875,9.023C1.155,8.299 1.45,7.596 1.763,6.912C2.075,6.23 2.396,5.568 2.725,4.926L11.946,-13.241C12.11,-13.553 12.279,-13.796 12.452,-13.969C12.624,-14.141 12.817,-14.269 13.031,-14.351C13.244,-14.433 13.487,-14.475 13.758,-14.475L21.069,-14.475L21.069,21.425L13.722,21.425L13.722,0.763C13.722,-0.239 13.771,-1.324 13.869,-2.492L4.352,15.976C4.056,16.552 3.657,16.987 3.156,17.283C2.655,17.579 2.083,17.727 1.443,17.727L0.308,17.727C-0.333,17.727 -0.904,17.579 -1.406,17.283C-1.907,16.987 -2.306,16.552 -2.601,15.976L-12.168,-2.516C-12.103,-1.941 -12.053,-1.37 -12.02,-0.803C-11.987,-0.235 -11.971,0.287 -11.971,0.763L-11.971,21.425L-19.319,21.425L-19.319,-14.475L-12.008,-14.475C-11.737,-14.475 -11.495,-14.433 -11.281,-14.351C-11.067,-14.269 -10.874,-14.141 -10.701,-13.969C-10.529,-13.796 -10.36,-13.553 -10.196,-13.241L-0.949,5C-0.62,5.626 -0.305,6.276 0,6.95" style="fill:white;fill-rule:nonzero;"/>
            </g>
        </g>
        <g transform="matrix(2.66667,0,0,2.66667,22731,1785.83)">
            <g transform="matrix(-1,0,0,1,636.691,-10.775)">
                <rect x="314.154" y="285.063" width="8.383" height="35.925" style="fill:white;"/>
            </g>
        </g>
        <g transform="matrix(2.66667,0,0,2.66667,22731,1785.83)">
            <g transform="matrix(1,0,0,1,353.545,283.584)">
                <path d="M0,17.334C0.198,17.334 0.394,17.371 0.592,17.445C0.789,17.519 0.978,17.646 1.159,17.827L4.463,21.303C3.016,23.194 1.204,24.62 -0.974,25.581C-3.152,26.543 -5.729,27.024 -8.704,27.024C-11.433,27.024 -13.878,26.56 -16.039,25.631C-18.201,24.702 -20.034,23.42 -21.537,21.784C-23.042,20.149 -24.197,18.209 -25.002,15.966C-25.807,13.722 -26.21,11.285 -26.21,8.655C-26.21,5.975 -25.75,3.514 -24.829,1.27C-23.909,-0.974 -22.622,-2.909 -20.971,-4.537C-19.318,-6.164 -17.342,-7.429 -15.041,-8.334C-12.74,-9.238 -10.2,-9.69 -7.422,-9.69C-6.074,-9.69 -4.804,-9.571 -3.612,-9.332C-2.421,-9.094 -1.307,-8.765 -0.271,-8.346C0.764,-7.927 1.717,-7.425 2.589,-6.842C3.46,-6.259 4.232,-5.613 4.907,-4.907L2.096,-1.134C1.915,-0.904 1.701,-0.694 1.455,-0.505C1.208,-0.316 0.863,-0.222 0.419,-0.222C0.123,-0.222 -0.156,-0.287 -0.419,-0.419C-0.682,-0.55 -0.962,-0.71 -1.257,-0.9C-1.553,-1.089 -1.878,-1.294 -2.231,-1.516C-2.585,-1.738 -3.004,-1.943 -3.489,-2.133C-3.974,-2.321 -4.541,-2.481 -5.19,-2.614C-5.84,-2.745 -6.6,-2.811 -7.471,-2.811C-8.984,-2.811 -10.364,-2.543 -11.613,-2.009C-12.863,-1.475 -13.935,-0.71 -14.831,0.284C-15.727,1.278 -16.426,2.483 -16.927,3.896C-17.429,5.31 -17.679,6.896 -17.679,8.655C-17.679,10.496 -17.429,12.131 -16.927,13.561C-16.426,14.992 -15.743,16.196 -14.881,17.174C-14.017,18.152 -13.011,18.895 -11.86,19.405C-10.709,19.915 -9.477,20.169 -8.162,20.169C-7.406,20.169 -6.715,20.133 -6.09,20.058C-5.466,19.984 -4.886,19.857 -4.352,19.676C-3.818,19.496 -3.308,19.261 -2.823,18.973C-2.338,18.686 -1.849,18.329 -1.356,17.901C-1.159,17.737 -0.946,17.601 -0.715,17.494C-0.485,17.388 -0.247,17.334 0,17.334" style="fill:white;fill-rule:nonzero;"/>
            </g>
        </g>
    </g>
</svg>
