<?xml version="1.0" encoding="UTF-8"?>
<svg xmlns="http://www.w3.org/2000/svg" viewBox="0 0 265 45" width="265" height="45">
  <path d="M79.357 0C78.4 0 78 .38 77.997 1.37v1.224c-.002.931.544 1.262 1.36 1.259h7.788v14.576c0 1.256.4 1.725 1.775 1.725h2.315c1.573.003 1.698-.497 1.698-1.725V8.148l-1.527-4.296h8.919c1.18 0 1.491-.279 1.489-1.145V1.114C101.81.334 101.482 0 100.324 0zM27.928 0c-1.732-.003-2.398.76-2.398 2.165v15.628c0 1.737.938 2.365 2.398 2.36h18.717c1.074 0 1.416-.735 1.416-1.366v-1.576c0-.656-.402-1.363-1.416-1.367h-15.44v-4.876l3.977 1.171h9.265c1.074.003 1.453-.768 1.453-1.393V9.21c.001-.633-.438-1.371-1.454-1.368h-13.24V4.329h14.696c1.28.003 1.42-.655 1.42-1.381v-1.62C47.319.662 47.194 0 45.902 0ZM2.782.482C1.96.482.996.943.996 2.161v15.984c0 .979.49 1.717 1.881 1.717h1.445c1.392.003 1.951-.727 1.951-1.717v-4.64l3.197-2.302 8.238 7.471c3.122 3.569 6.9-.206 4.956-2.066l-.644-.616-8.035-7.23 6.475-4.839c1.205-.822 1.876-1.695.762-2.994-1.334-1.556-2.535-.814-3.338-.232L6.274 8.823V2.16C6.269.981 5.752.483 4.698.483Zm65.92 18.607c.824.674 1.079 1.064 2.367 1.064h2.32c.939 0 2.267-.327 2.274-2.003V1.607C75.663.402 75.206 0 74.305 0h-2.792c-1.375-.003-1.603.319-1.609 1.765v11.75L57.468 1.065C56.644.39 56.388 0 55.1 0h-2.432c-.94 0-2.267.328-2.274 2.004v16.543c0 1.205.457 1.606 1.357 1.606h2.905c1.374.003 1.602-.318 1.608-1.764V6.64ZM106.013 0c-1.39 0-1.866.618-1.866 2.063V18c0 1.71.505 2.155 2.008 2.151h1.942c1.186.019 1.66-.482 1.622-2.15V4.22l6.311 14.434c.437.978.916 1.499 2.218 1.499h2.939c1.302 0 1.781-.521 2.218-1.498l6.31-14.435v13.781c-.036 1.669.438 2.17 1.624 2.152h1.941c1.503.003 2.009-.443 2.009-2.151V2.062c0-1.444-.477-2.062-1.868-2.062h-5.28c-1.911 0-2.18.661-2.7 2.06l-5.723 12.98-5.723-12.98c-.52-1.4-.79-2.06-2.7-2.06Zm43.12 0c-1.626 0-1.851.275-2.568 1.563l-8.628 15.831c-.914 1.576.363 2.754 1.261 2.76h2.237c1.037 0 1.15-.303 1.855-1.478l1.526-2.718h10.877l1.528 2.718c.703 1.175.816 1.477 1.854 1.477h2.237c.9-.003 2.176-1.183 1.26-2.759l-8.627-15.831C153.23.275 153.004-.001 151.377 0h-1.736zm1.122 5.209 3.764 7.05h-7.507zM177.872.198c-3.131-.28-4.59-.33-6.96.3-2.874.764-4.621 2.327-5.139 4.147-.646 2.274.302 4.65 3.189 5.883 1.523.65 3.052 1.024 4.688 1.287 2.9.468 4.37.587 6.463.863 2.425.318 2.598 2.832-.142 3.237-2.065.305-7.82-.019-9.672-1.24-3.7-2.442-6.23.426-4.541 2.262.732.796 1.178.984 1.362 1.075 5.924 2.932 14.58 2.786 18.477-.033 1.446-1.046 2.08-2.063 2.085-3.676.006-2.523-2.353-3.934-4.151-4.716-4.687-2.038-9.061-1.355-11.728-2.686-1.607-.802-.337-2.574 1.817-2.769 2.824-.254 5.5.357 7.267 1.43 1.164.708 2.118 1.237 3.252 1.011 1.929-.384 2.497-1.997 1.289-3.272-.889-.94-2.227-1.653-3.309-2.104-1.51-.629-2.86-.877-4.247-1.001zM243.45.002c-1.747 0-2.417.726-2.417 2.58v15.58c-.002 1.362.85 1.992 1.643 1.992h2.263c1.16 0 1.81-.637 1.81-1.991v-5.394h-.01v-1.276l3.932 1.254h2.233c3.565-.063 5.097.506 5.097 2.075v1.705c0 1.924.882 3.626 2.998 3.626h2.124c.94 0 1.752-.735 1.453-1.554-.803-1.784-.713-2.95-.703-3.672 0-.535-.04-1.005-.134-1.42-.097-.437-.303-.876-.594-1.325h-.003c-.307-.52-.802-.951-1.453-1.312l-.006-.003c-.339-.195-.822-.33-1.242-.493 1.078-.436 2.69-1.097 3.298-1.686.831-.806 1.262-1.864 1.262-3.063 0-1.803-.937-3.276-2.64-4.216l-.006-.003C260.672.45 258.344.003 255.36.003zm3.3 3.446h6.962c2.807.093 4.66.618 4.717 2.54.057 1.92-1.955 2.752-4.717 2.767h-6.963zM191.375 0c-.958 0-1.356.38-1.36 1.369v1.224c-.003.931.544 1.262 1.36 1.26h7.788v14.575c0 1.256.4 1.726 1.774 1.726h2.315c1.574.003 1.699-.498 1.699-1.726V8.148l-1.526-4.296h8.917c1.18 0 1.492-.279 1.49-1.145V1.114C213.83.334 213.5 0 212.343 0zm27.19 0c-1.733-.003-2.4.76-2.4 2.165v15.628c0 1.737.938 2.365 2.4 2.36h18.716c1.073 0 1.416-.735 1.416-1.366v-1.576c0-.656-.402-1.363-1.417-1.367h-15.44v-4.876l3.978 1.171h9.264c1.074.003 1.454-.768 1.454-1.393V9.21c.002-.633-.438-1.371-1.454-1.368h-13.24V4.329h14.696c1.28.003 1.42-.655 1.42-1.381v-1.62C237.956.662 237.83 0 236.539 0z"></path>
  <path d="M.291 24.404c-.194 0-.291.099-.291.293v19.828c0 .195.097.293.291.293h1.488c.195 0 .291-.098.291-.293l-.029-15.484c0-.058.01-.086.03-.086.038 0 .078.018.116.057l7.815 15.601c.058.136.175.205.35.205h1.576c.194 0 .29-.098.29-.293V24.697c0-.194-.096-.293-.29-.293h-1.489c-.194 0-.29.099-.29.293l.029 15.543c0 .059-.02.086-.059.086-.02 0-.049-.018-.088-.056L2.217 24.61c-.059-.137-.175-.206-.35-.206H.291zm53.68 0c-.195 0-.293.099-.293.293v1.225c0 .194.098.29.293.29h8.601c.078 0 .098.05.059.147l-8.865 16.418a.968.968 0 0 0-.088.38v1.368c0 .195.098.293.293.293h10.7c.195 0 .292-.098.292-.293v-1.224c0-.195-.097-.291-.291-.291H56.07c-.077 0-.097-.05-.058-.147l8.865-16.416c.058-.155.086-.281.086-.379v-1.37c0-.195-.097-.294-.291-.294H53.97zm41.709 0c-.195 0-.291.099-.291.293v19.828c0 .195.096.293.29.293h1.489c.194 0 .291-.098.291-.293V24.697c0-.194-.097-.293-.291-.293H95.68zm41.482 0c-.194 0-.293.099-.293.293v6.823c0 .058-.02.097-.058.117-.04 0-.067-.03-.086-.088-.311-.564-.73-.982-1.254-1.254-.506-.292-1.168-.438-1.985-.438-1.302 0-2.351.351-3.148 1.051-.778.68-1.312 1.75-1.604 3.207-.213.953-.32 2.11-.32 3.47 0 1.187.126 2.315.379 3.384.35 1.419.884 2.46 1.603 3.12.74.642 1.721.962 2.946.962 1.536 0 2.663-.574 3.383-1.72.038-.04.066-.06.086-.06.038 0 .058.03.058.088v1.166c0 .195.099.293.293.293h1.486c.195 0 .291-.098.291-.293V24.697c0-.194-.096-.293-.29-.293h-1.487zM21.578 29.83c-1.4 0-2.567.398-3.5 1.195-.914.797-1.448 1.846-1.603 3.149-.078.622-.118 1.428-.118 2.42v.933c0 .428.01.972.03 1.633.02.661.068 1.235.146 1.72.214 1.284.768 2.305 1.662 3.063.895.74 2.05 1.108 3.47 1.108 1.243 0 2.304-.312 3.179-.934.875-.622 1.476-1.476 1.806-2.564a.247.247 0 0 0-.027-.205c-.02-.078-.079-.127-.176-.147l-1.342-.262c-.174-.038-.29.03-.35.206a3.193 3.193 0 0 1-1.165 1.544c-.525.37-1.158.555-1.897.555-.894 0-1.631-.254-2.214-.76-.564-.525-.895-1.205-.993-2.04a38.59 38.59 0 0 1-.058-2.012c0-.078.04-.118.117-.118h8.049c.194 0 .29-.096.29-.29 0-1.711-.029-2.888-.087-3.53-.117-1.4-.641-2.527-1.574-3.383-.933-.855-2.148-1.28-3.645-1.28zm51.658 0c-1.4 0-2.567.398-3.5 1.195-.913.797-1.448 1.846-1.603 3.149-.078.622-.117 1.428-.117 2.42v.933c0 .428.01.972.029 1.633.02.661.069 1.235.146 1.72.214 1.284.768 2.305 1.663 3.063.894.74 2.05 1.108 3.468 1.108 1.244 0 2.305-.312 3.18-.934.875-.622 1.476-1.476 1.807-2.564a.247.247 0 0 0-.028-.205c-.02-.078-.078-.127-.176-.147l-1.341-.262c-.175-.038-.292.03-.35.206a3.193 3.193 0 0 1-1.166 1.544c-.525.37-1.158.555-1.896.555-.895 0-1.632-.254-2.215-.76-.564-.525-.895-1.205-.992-2.04a38.59 38.59 0 0 1-.06-2.012c0-.078.04-.118.118-.118h8.049c.194 0 .291-.096.291-.29 0-1.711-.03-2.888-.088-3.53-.117-1.4-.641-2.527-1.574-3.383-.933-.855-2.148-1.28-3.645-1.28zm13.465 0c-1.36 0-2.506.349-3.44 1.049-.913.68-1.44 1.585-1.575 2.713a.243.243 0 0 0 .029.203.318.318 0 0 0 .234.088l1.604.088c.194 0 .3-.089.32-.264a2.191 2.191 0 0 1 .904-1.486c.506-.39 1.137-.584 1.895-.584.972 0 1.701.291 2.187.875.506.563.758 1.342.758 2.334v1.107c0 .078-.037.117-.115.117h-2.713c-1.73 0-3.1.408-4.111 1.225-.992.797-1.487 1.972-1.487 3.527 0 1.497.426 2.578 1.282 3.239.874.66 1.925.99 3.15.99.817 0 1.556-.136 2.217-.408a3.949 3.949 0 0 0 1.633-1.225c.039-.039.068-.049.088-.03.038.02.056.05.056.089v1.048c0 .195.099.293.293.293h1.486c.195 0 .293-.098.293-.293V34.73c0-1.478-.447-2.665-1.341-3.56-.875-.893-2.092-1.339-3.647-1.339zm19.479 0c-1.361 0-2.507.349-3.44 1.049-.913.68-1.44 1.585-1.576 2.713a.243.243 0 0 0 .03.203.318.318 0 0 0 .234.088l1.603.088c.195 0 .301-.089.32-.264a2.191 2.191 0 0 1 .905-1.486c.505-.39 1.138-.584 1.896-.584.972 0 1.7.291 2.186.875.505.563.76 1.342.76 2.334v1.107c0 .078-.04.117-.118.117h-2.712c-1.73 0-3.1.408-4.112 1.225-.991.797-1.486 1.972-1.486 3.527 0 1.497.428 2.578 1.283 3.239.875.66 1.924.99 3.149.99.816 0 1.555-.136 2.216-.408a3.949 3.949 0 0 0 1.633-1.225c.039-.039.069-.049.088-.03.039.02.059.05.059.089v1.048c0 .195.096.293.29.293h1.487c.194 0 .293-.098.293-.293V34.73c0-1.478-.448-2.665-1.342-3.56-.875-.893-2.091-1.339-3.646-1.339zm14.49.027c-1.575 0-2.74.564-3.498 1.692-.039.039-.078.049-.117.03-.02-.02-.03-.048-.03-.087v-1.138c0-.195-.096-.291-.29-.291h-1.489c-.194 0-.29.096-.29.29v14.172c0 .195.096.293.29.293h1.488c.195 0 .291-.098.291-.293V35.05c0-1.03.272-1.847.817-2.45.564-.621 1.303-.933 2.217-.933.913 0 1.633.302 2.158.904.525.603.787 1.41.787 2.42v9.535c0 .195.097.293.29.293h1.487c.195 0 .293-.098.293-.293V34.7c0-1.497-.398-2.674-1.195-3.53-.778-.874-1.848-1.312-3.21-1.312zm-91.484.206c-.175 0-.262.067-.262.203l.03.117 3.585 14.172c.039.175.147.263.322.263h1.516c.175 0 .281-.088.32-.263l2.567-10.79c.02-.058.039-.087.058-.087.04 0 .069.03.088.088l2.654 10.789c.04.175.146.263.32.263H41.9c.195 0 .301-.088.32-.263l3.647-14.143c.04-.097.03-.174-.03-.232-.038-.059-.107-.088-.204-.088l-1.487-.03c-.174 0-.28.087-.32.262l-2.654 11.17c-.02.058-.04.086-.059.086-.02 0-.039-.028-.058-.086l-2.711-11.17c-.02-.175-.128-.262-.323-.262h-1.34c-.174 0-.283.087-.322.262l-2.652 11.2c-.02.058-.04.085-.059.085-.019 0-.039-.027-.058-.086l-2.625-11.199c-.039-.175-.146-.262-.32-.262h-1.46zm-7.579 1.574c.856 0 1.556.262 2.1.787.564.525.893 1.205.99 2.04.078.778.117 1.45.117 2.015 0 .077-.039.115-.117.115h-6.152c-.078 0-.117-.038-.117-.115 0-.545.02-1.225.058-2.041.098-.836.419-1.509.963-2.014.564-.525 1.284-.787 2.158-.787zm51.659 0c.855 0 1.555.262 2.1.787.563.525.892 1.205.99 2.04.077.778.117 1.45.117 2.015 0 .077-.04.115-.118.115h-6.152c-.078 0-.117-.038-.117-.115 0-.545.02-1.225.059-2.041.097-.836.418-1.509.962-2.014.564-.525 1.284-.787 2.159-.787zm60.543 0c.66 0 1.185.175 1.574.525.408.35.73.855.963 1.516.31.913.465 2.167.465 3.761 0 1.575-.144 2.801-.436 3.676-.233.7-.555 1.234-.963 1.604-.408.37-.952.552-1.633.552-.738 0-1.332-.183-1.779-.552-.428-.37-.769-.914-1.021-1.633-.312-.855-.467-2.072-.467-3.647 0-1.574.185-2.848.554-3.82.545-1.322 1.46-1.982 2.743-1.982zm-46.873 6.095h2.566c.078 0 .115.038.115.116v2.363c0 .953-.359 1.7-1.078 2.244-.7.525-1.536.79-2.508.79-.816 0-1.477-.206-1.982-.614-.506-.428-.758-1.069-.758-1.924 0-.953.33-1.682.99-2.187.661-.525 1.546-.788 2.655-.788zm19.478 0h2.566c.078 0 .118.038.118.116v2.363c0 .953-.361 1.7-1.08 2.244-.7.525-1.536.79-2.508.79-.817 0-1.477-.206-1.983-.614-.505-.428-.757-1.069-.757-1.924 0-.953.329-1.682.99-2.187.66-.525 1.546-.788 2.654-.788z" fill="#999"></path>
</svg>
