<?xml version="1.0" encoding="UTF-8"?>
<svg width="238px" height="56px" viewBox="0 0 238 56" version="1.1" xmlns="http://www.w3.org/2000/svg" xmlns:xlink="http://www.w3.org/1999/xlink">
    <title>kia-logo-b</title>
    <g id="Reveal" stroke="none" stroke-width="1" fill="none" fill-rule="evenodd">
        <g id="Artboard" transform="translate(-1865.000000, -3201.000000)">
            <g id="kia-logo-b" transform="translate(1865.000000, 3201.000000)">
                <rect id="backgroundrect" x="0" y="0" width="238" height="56"></rect>
                <g id="Layer-1" fill="#131E29" fill-rule="nonzero">
                    <g id="svg_1">
                        <path d="M138.073793,49.5741606 C138.073793,50.0263493 138.216578,50.2881428 138.478352,50.2881428 C138.692531,50.2643434 138.882912,50.1691458 139.049495,50.0501487 L213.226677,1.9039524 C214.480058,1.02782478 215.981613,0.577324454 217.510249,0.61878453 L233.811619,0.61878453 C236.310369,0.61878453 238,2.28474288 238,4.78368041 L238,35.9133022 C238,39.6736082 237.167083,41.8631534 233.835416,43.8623034 L214.059594,55.7620059 C213.862447,55.8988932 213.632514,55.9810185 213.393261,56 C213.155284,56 212.917308,55.8096048 212.917308,55.119422 L212.917308,18.80153 C212.917308,18.3731407 212.79832,18.0875478 212.512749,18.0875478 C212.303778,18.1115906 212.105822,18.1940786 211.941606,18.3255419 L157.730627,53.5486613 C156.493151,54.3816405 155.041496,54.8338292 153.566043,54.8100297 L117.631637,54.8100297 C115.109089,54.8100297 113.443256,53.1440714 113.443256,50.6213345 L113.443256,5.75945601 C113.443256,5.42626434 113.30047,5.11687208 113.014899,5.11687208 C112.806562,5.14332142 112.609234,5.22554754 112.443756,5.35486613 L76.6759324,26.8219295 C76.3189681,27.0599235 76.2237776,27.2265193 76.2237776,27.3931152 C76.2237776,27.5359116 76.2951705,27.678708 76.5331467,27.9405015 L102.091791,53.4772631 C102.424958,53.8104547 102.662934,54.0722482 102.662934,54.3578411 C102.662934,54.5958351 102.282172,54.7862303 101.830017,54.7862303 L78.7463254,54.7862303 C76.9377062,54.7862303 75.5336466,54.5244369 74.5579442,53.5486613 L59.0656934,38.079048 C58.9469761,37.9370563 58.7745563,37.85084 58.589741,37.841054 C58.4217684,37.8488217 58.2582982,37.8978665 58.1137886,37.9838504 L32.2219778,53.5486613 C30.6513349,54.5006375 29.580442,54.7624309 28.0335966,54.7624309 L4.21217878,54.7624309 C1.66583342,54.7862303 0,53.0964726 0,50.5975351 L0,20.0628984 C0,16.278793 0.832916708,14.1130472 4.18838116,12.1138972 L24.0831917,0.166595835 C24.2392595,0.0643736751 24.4203011,0.00676522586 24.6067393,8.65908291e-16 C24.9161084,8.65908291e-16 25.0826917,0.309392265 25.0826917,0.999575011 L25.0826917,41.8869528 C25.0826917,42.3153421 25.1778822,42.5057374 25.4872513,42.5057374 C25.7014299,42.481938 25.8918108,42.3867403 26.0821918,42.2677433 L93.2866713,1.83255419 C94.5717428,0.951976201 96.1423858,0.52358691 97.7130287,0.594985125 L133.885411,0.594985125 C136.384162,0.594985125 138.073793,2.26094348 138.073793,4.759881 L138.049995,49.5741606 L138.073793,49.5741606 Z" id="svg_2"></path>
                    </g>
                </g>
            </g>
        </g>
    </g>
</svg>