<svg xmlns="http://www.w3.org/2000/svg" width="79" height="18" viewBox="0 0 79 18" fill="none"><path d="M45.8366 15.9648C45.8366 16.1101 45.8776 16.1894 45.9731 16.1894C46.0413 16.1894 46.0958 16.163 46.164 16.1233L70.774 0.621145C71.2105 0.343612 71.6061 0.198238 72.1927 0.198238H77.6085C78.4407 0.198238 79 0.740088 79 1.54626V11.5507C79 12.7533 78.7272 13.4537 77.6085 14.1013L71.0468 17.9207C70.9649 17.9736 70.8831 18 70.8285 18C70.7467 18 70.6785 17.9471 70.6785 17.7225V6.03965C70.6785 5.90749 70.6375 5.81498 70.542 5.81498C70.4738 5.81498 70.4193 5.84141 70.3511 5.88106L52.3574 17.207C51.8527 17.5242 51.4434 17.6167 50.9796 17.6167H39.043C38.2108 17.6167 37.6515 17.0749 37.6515 16.2687V1.86344C37.6515 1.75771 37.597 1.6652 37.5151 1.6652C37.4469 1.6652 37.3923 1.69163 37.3241 1.73128L25.4557 8.64317C25.3329 8.70925 25.3056 8.77533 25.3056 8.82819C25.3056 8.88106 25.3193 8.92071 25.4148 9L33.8864 17.207C33.9955 17.3128 34.0774 17.4053 34.0774 17.4846C34.0774 17.5771 33.9546 17.63 33.8045 17.63H26.1378C25.5376 17.63 25.0737 17.5374 24.7463 17.2203L19.6033 12.2379C19.5488 12.185 19.5079 12.1586 19.4533 12.1586C19.4124 12.1586 19.3442 12.185 19.2896 12.2115L10.6952 17.2203C10.1768 17.5242 9.82214 17.6167 9.30375 17.6167H1.39147C0.559317 17.6167 0 17.0749 0 16.2687V6.44934C0 5.23348 0.272838 4.54626 1.39147 3.89868L7.99413 0.0528636C8.06234 0.0132161 8.11691 0 8.17147 0C8.26696 0 8.32153 0.105727 8.32153 0.317181V13.4537C8.32153 13.5859 8.36246 13.652 8.45795 13.652C8.51252 13.652 8.58073 13.6123 8.64894 13.5727L30.9534 0.581498C31.4854 0.277533 31.8128 0.185022 32.4267 0.185022H44.4315C45.2637 0.185022 45.823 0.726872 45.823 1.53304L45.8366 15.9648Z" fill="#05141F"></path></svg>