<?xml version="1.0" encoding="utf-8"?>
<!-- Generator: Adobe Illustrator 25.2.0, SVG Export Plug-In . SVG Version: 6.00 Build 0)  -->
<svg version="1.1" id="Layer_1" xmlns="http://www.w3.org/2000/svg" xmlns:xlink="http://www.w3.org/1999/xlink" x="0px" y="0px"
	 viewBox="0 0 68 34" style="enable-background:new 0 0 68 34;" xml:space="preserve">
<style type="text/css">
	.st0{fill:#FFFFFF;}
</style>
<path class="st0" d="M39.4,23.1c0,0.1,0,0.2,0.1,0.2c0,0,0.1,0,0.2-0.1l21-13.6c0.4-0.2,0.7-0.4,1.2-0.4h4.6c0.7,0,1.2,0.5,1.2,1.2
	v8.8c0,1.1-0.2,1.7-1.2,2.2l-5.6,3.4c-0.1,0-0.1,0.1-0.2,0.1c-0.1,0-0.1,0-0.1-0.2V14.4c0-0.1,0-0.2-0.1-0.2c0,0-0.1,0-0.2,0.1
	L45,24.2c-0.4,0.3-0.8,0.4-1.2,0.4H33.6c-0.7,0-1.2-0.5-1.2-1.2V10.7c0-0.1,0-0.2-0.1-0.2c0,0-0.1,0-0.2,0.1L22,16.7
	c-0.1,0.1-0.1,0.1-0.1,0.2c0,0,0,0.1,0.1,0.2l7.2,7.2c0.1,0.1,0.2,0.2,0.2,0.2c0,0.1-0.1,0.1-0.2,0.1h-6.5c-0.5,0-0.9-0.1-1.2-0.4
	l-4.4-4.4c0,0-0.1-0.1-0.1-0.1c0,0-0.1,0-0.1,0l-7.3,4.4c-0.4,0.3-0.8,0.4-1.2,0.4H1.5c-0.7,0-1.2-0.5-1.2-1.2v-8.6
	c0-1.1,0.2-1.7,1.2-2.2l5.6-3.4c0.1,0,0.1,0,0.2,0c0.1,0,0.1,0.1,0.1,0.3v11.6c0,0.1,0,0.2,0.1,0.2c0.1,0,0.1,0,0.2-0.1l19-11.4
	c0.5-0.3,0.7-0.4,1.2-0.4h10.2c0.7,0,1.2,0.5,1.2,1.2L39.4,23.1L39.4,23.1z"/>
</svg>
