<svg id="Logo" xmlns="http://www.w3.org/2000/svg" viewBox="0 0 113.7402 36.2835"><defs><style>.cls-1{fill:#00b0e9;}.cls-2{fill:#000f3c;}</style></defs><path class="cls-1" d="M96.2621,24.6082a9.05,9.05,0,0,0,1.3242.0317,2.1742,2.1742,0,0,0,1.4474-.6978,2.7367,2.7367,0,0,0,.6848-1.3322,2.6012,2.6012,0,0,0,.0063-1.016L96.9527,6.2034h4.7824l1.5455,11.23h.0631l5.7416-11.23h4.6562l-10.39,18.4305a7.3013,7.3013,0,0,1-2.5767,2.8549,7.3963,7.3963,0,0,1-3.776.8577c-.4646,0-.9208-.017-1.3691-.0453-.4471-.0313-.6076-.0661-1.064-.1071Z"/><path class="cls-1" d="M94.4967,8.017a3.6407,3.6407,0,0,0-1.4915-1.41,5.1642,5.1642,0,0,0-1.92-.6817A17.6026,17.6026,0,0,0,88.6111,5.75a14.4228,14.4228,0,0,0-2.7483.27,8.95,8.95,0,0,0-2.5611.9061A6.7583,6.7583,0,0,0,81.2671,8.61,6.1049,6.1049,0,0,0,80.069,11.248h4.4888A3.0629,3.0629,0,0,1,85.74,9.3472a3.8307,3.8307,0,0,1,2.1819-.5719,7.2755,7.2755,0,0,1,1.1136.08,2.1554,2.1554,0,0,1,.8716.3173,1.3946,1.3946,0,0,1,.5311.6651,2.0665,2.0665,0,0,1-.5163,2.2174,3.5961,3.5961,0,0,1-1.2883.5548,12.9882,12.9882,0,0,1-1.7862.2843q-.9957.0949-2.0332.2528a20.39,20.39,0,0,0-2.0778.429,6.7313,6.7313,0,0,0-1.8992.8071,5.1531,5.1531,0,0,0-1.4887,1.4412,5.382,5.382,0,0,0-.8455,2.2964,4.8462,4.8462,0,0,0,.09,2.1865,3.9384,3.9384,0,0,0,2.22,2.3519,8.78,8.78,0,0,0,3.3167.6262,13.947,13.947,0,0,0,4.3327-.644,7.4381,7.4381,0,0,0,4.4693-3.518A7.3276,7.3276,0,0,0,93.78,16.96l1.0114-6.5494A3.6179,3.6179,0,0,0,94.4967,8.017ZM88.6333,18.52a4.4279,4.4279,0,0,1-4.49,1.41,2.2651,2.2651,0,0,1-.856-.3325,1.6118,1.6118,0,0,1-.2681-2.2858c.7164-1.0175,2.0165-1.1633,3.0667-1.3152A12.3691,12.3691,0,0,0,89.55,15.27,7.1291,7.1291,0,0,1,88.6333,18.52Z"/><path class="cls-1" d="M78.7823,9.9147a5.5438,5.5438,0,0,0-4.1353.4423,5.1511,5.1511,0,0,0-2.2,2.5989,9.3947,9.3947,0,0,0-.5564,1.8268c-.3766,2.036-.7725,4.0723-1.1654,6.1071q-.1575.8245-.3189,1.6489h-4.49c.5912-3.0743,1.1378-6.1546,1.77-9.2277a9.0671,9.0671,0,0,1,6.6062-7.0128A14.3152,14.3152,0,0,1,79.52,6.083Z"/><path class="cls-1" d="M46.947,9.9718a5.2377,5.2377,0,0,0-4.05.4425,3.9462,3.9462,0,0,0-1.6988,2.5989,8.3371,8.3371,0,0,0-.2066,1.827c.0153,2.0358.0107,4.072.0107,6.1062,0,.55-.0014,1.1-.0014,1.65H36.5091c0-3.0748-.0471-6.1551-.0047-9.2285a7.0662,7.0662,0,0,1,5.2567-7.0127A13.98,13.98,0,0,1,46.947,6.14Z"/><path class="cls-1" d="M26.041,18.6956c2.6633,0,3.2-2.6081,3.1858-4.736-.0146-2.036-.0109-4.072-.0109-6.1068,0-.55.0016-1.1.0016-1.6494H33.71c0,3.0745.0468,6.1534.0046,9.2277a7.0614,7.0614,0,0,1-4.5312,6.8011,10.4185,10.4185,0,0,1-3.1434.6092,10.4117,10.4117,0,0,1-3.1441-.6092,7.0645,7.0645,0,0,1-4.5327-6.8011c-.0415-3.0743.0054-6.1532.0054-9.2277H22.86c0,.5494.0014,1.0992.0014,1.6494,0,2.0348.0042,4.0708-.01,6.1068-.0155,2.1279.5218,4.736,3.1868,4.736Z"/><path class="cls-1" d="M63.293,8.017a4.5531,4.5531,0,0,0-1.7083-1.41,7.63,7.63,0,0,0-2.3118-.6817A18.1492,18.1492,0,0,0,56.7717,5.75a13.7894,13.7894,0,0,0-2.7063.27,7.7277,7.7277,0,0,0-2.4217.9061A5.39,5.39,0,0,0,49.87,8.61,5.2534,5.2534,0,0,0,49.08,11.248h4.4891a2.5417,2.5417,0,0,1,.8878-1.9008,3.42,3.42,0,0,1,2.0945-.5719,7.53,7.53,0,0,1,1.1255.08,2.5008,2.5008,0,0,1,.9209.3173,1.75,1.75,0,0,1,.6339.6651,1.9472,1.9472,0,0,1-.1733,2.2174,3.04,3.04,0,0,1-1.2034.5548,12.1122,12.1122,0,0,1-1.7422.2843q-.9816.0949-1.9947.2528a18.6807,18.6807,0,0,0-2.0119.429,5.6891,5.6891,0,0,0-1.7745.8071,4.0989,4.0989,0,0,0-1.2654,1.4412,4.7634,4.7634,0,0,0-.4907,2.2964,5.1254,5.1254,0,0,0,.4274,2.1865,4.91,4.91,0,0,0,2.5828,2.3519A9.5449,9.5449,0,0,0,55,23.2853a13.0355,13.0355,0,0,0,4.2322-.644,6.4929,6.4929,0,0,0,4.2124-3.518,6.42,6.42,0,0,0,.5136-2.1629V10.411A3.9473,3.9473,0,0,0,63.293,8.017ZM59.1734,18.52c-.8711,1.4912-2.7888,1.6867-4.328,1.41a2.6756,2.6756,0,0,1-.9187-.3325,1.72,1.72,0,0,1-.6241-2.2858c.5685-1.0175,1.8628-1.1633,2.902-1.3152A11.5318,11.5318,0,0,0,59.6,15.27,6.4534,6.4534,0,0,1,59.1734,18.52Z"/><rect class="cls-1" width="4.492" height="22.5965"/><rect class="cls-1" width="4.492" height="22.5965"/><path class="cls-1" d="M11.5637,15.0355a4.7689,4.7689,0,0,1-.8894-2.2723,2.9724,2.9724,0,0,1,.9193-1.86l4.4095-4.6688H10.2545L7.9581,8.9379A6.053,6.053,0,0,0,6.1407,12.736c0,2.08,1.8174,4.6952,1.8174,4.6952l3.4528,5.1653h5.2949Z"/><path class="cls-2" d="M5.2549,31.67a1.9536,1.9536,0,0,1-2.17,1.9219H1.1084v2.582H0V29.7659H3.085A1.9661,1.9661,0,0,1,5.2549,31.67Zm-1.1074,0A1.0619,1.0619,0,0,0,2.9756,30.635H1.1084v2.0967H2.9756A1.0759,1.0759,0,0,0,4.1475,31.67Zm6.3232,2.1972A2.2584,2.2584,0,0,1,8.127,36.2835a2.4181,2.4181,0,0,1,0-4.834A2.2593,2.2593,0,0,1,10.4707,33.8674Zm-3.6894,0A1.4046,1.4046,0,0,0,8.127,35.4505a1.406,1.406,0,0,0,1.3554-1.5831,1.3677,1.3677,0,1,0-2.7011,0ZM13.15,32.21c-.5127,0-.8428.2559-.8428.5762,0,.4033.3662.4853,1.0713.65.9795.2285,1.7764.3662,1.7764,1.3916,0,.9795-.7422,1.4551-1.877,1.4551A1.8319,1.8319,0,0,1,11.19,34.5354h.9532a1.0323,1.0323,0,0,0,1.1347.9795c.5039,0,.8975-.1738.8975-.6406,0-.4033-.3027-.4668-1.0986-.65-.9522-.2285-1.74-.3848-1.74-1.3916,0-.9707.7881-1.3828,1.8223-1.3828a1.6993,1.6993,0,0,1,1.9414,1.584H14.166A.9007.9007,0,0,0,13.15,32.21Zm4.6846,0c-.5127,0-.8428.2559-.8428.5762,0,.4033.3662.4853,1.0713.65.9795.2285,1.7764.3662,1.7764,1.3916,0,.9795-.7413,1.4551-1.877,1.4551a1.8306,1.8306,0,0,1-2.0869-1.7481h.9512a1.0337,1.0337,0,0,0,1.1357.9795c.5039,0,.8975-.1738.8975-.6406,0-.4033-.3028-.4668-1.0987-.65-.9521-.2285-1.7392-.3848-1.7392-1.3916,0-.9707.7871-1.3828,1.8213-1.3828a1.6993,1.6993,0,0,1,1.9414,1.584h-.9346A.9013.9013,0,0,0,17.835,32.21Zm2.99-2.5273H22.08v1.0713H20.8252Zm.11,1.8769H21.961v4.6143H20.9356ZM24.458,35.387h-.01l.01.7871H23.4326V29.7659H24.458l-.01,2.5078h.01A1.5861,1.5861,0,0,1,25.94,31.45a2.1857,2.1857,0,0,1,2.1885,2.3994A2.2013,2.2013,0,0,1,25.94,36.2835,1.6116,1.6116,0,0,1,24.458,35.387ZM24.4121,33.83v.0645a1.388,1.388,0,0,0,1.3731,1.5469c.8056,0,1.3369-.65,1.3369-1.5928a1.367,1.367,0,1,0-2.71-.0186Zm6.0391,2.4258A1.2226,1.2226,0,0,1,29.17,34.929V29.7659h1.0254V34.81c0,.33.1739.55.4209.55a1.3308,1.3308,0,0,0,.5762-.1562V36.11A2.4018,2.4018,0,0,1,30.4512,36.2561Zm1.27-2.3711A2.2493,2.2493,0,0,1,34.02,31.45a2.1667,2.1667,0,0,1,2.1788,2.4541v.1738H32.7471v.0371a1.3016,1.3016,0,0,0,1.2539,1.3643,1.1053,1.1053,0,0,0,1.1084-.7881h1.0527A2.0669,2.0669,0,0,1,34.02,36.2835,2.2134,2.2134,0,0,1,31.7217,33.885Zm3.48-.457a1.13,1.13,0,0,0-1.1817-1.2,1.2353,1.2353,0,0,0-1.2451,1.2ZM41.2481,32.21c-.5127,0-.8428.2559-.8428.5762,0,.4033.3662.4853,1.0713.65.98.2285,1.7763.3662,1.7763,1.3916,0,.9795-.7421,1.4551-1.8769,1.4551a1.8319,1.8319,0,0,1-2.0879-1.7481h.9531a1.0324,1.0324,0,0,0,1.1348.9795c.5039,0,.8975-.1738.8975-.6406,0-.4033-.3028-.4668-1.0987-.65-.9521-.2285-1.74-.3848-1.74-1.3916,0-.9707.7881-1.3828,1.8223-1.3828a1.6993,1.6993,0,0,1,1.9414,1.584h-.9346A.9007.9007,0,0,0,41.2481,32.21Zm4.4736.1739v2.17a.75.75,0,0,0,.833.8232,1.6866,1.6866,0,0,0,.7783-.1914v.8789a1.9051,1.9051,0,0,1-.8789.1914,1.58,1.58,0,0,1-1.7578-1.6113V32.3841h-.8975V31.56h.01c.6494,0,.8877-.22.8877-.8056v-.6231h1.0254V31.56h1.7031v.8243Zm6.416.7958v2.9942h-.9892v-.6777H51.13a1.83,1.83,0,0,1-1.5654.7236,1.3326,1.3326,0,0,1-1.5108-1.3184c0-.8877.6592-1.5566,2.5547-1.5566h.54v-.1738a.96.96,0,0,0-1.9043-.1377h-.9883c.0273-.9981.7959-1.584,1.95-1.584C51.4229,31.45,52.1377,32.1,52.1377,33.18Zm-.9892,1.2276v-.376h-.54c-1.1992,0-1.5469.3574-1.5469.8057,0,.4033.3106.6416.8057.6416A1.1972,1.1972,0,0,0,51.1485,34.4075Zm5.3808-2.8936v1.0987c-1.4473-.1465-2.0508.3935-2.0508,1.7031v1.8584H53.4531V31.56h1.0254v1.2178A1.9255,1.9255,0,0,1,56.5293,31.5139Zm2.542.87v2.17a.75.75,0,0,0,.833.8232,1.6866,1.6866,0,0,0,.7783-.1914v.8789a1.9051,1.9051,0,0,1-.8789.1914,1.58,1.58,0,0,1-1.7578-1.6113V32.3841h-.8974V31.56h.01c.6494,0,.8877-.22.8877-.8056v-.6231h1.0254V31.56h1.7031v.8243Zm4.3379-.1739c-.5127,0-.8428.2559-.8428.5762,0,.4033.3662.4853,1.0713.65.9795.2285,1.7764.3662,1.7764,1.3916,0,.9795-.7412,1.4551-1.877,1.4551A1.8306,1.8306,0,0,1,61.45,34.5354h.9512a1.0337,1.0337,0,0,0,1.1357.9795c.5039,0,.8975-.1738.8975-.6406,0-.4033-.3027-.4668-1.0986-.65-.9522-.2285-1.7393-.3848-1.7393-1.3916,0-.9707.7871-1.3828,1.8213-1.3828a1.6993,1.6993,0,0,1,1.9414,1.584h-.9346A.9013.9013,0,0,0,63.4092,32.21Zm9.709,1.19v2.7744H72.1026V33.5374c0-.7325-.3575-1.19-.9434-1.19a1.2812,1.2812,0,0,0-1.2813,1.4375v2.39H68.8526V29.7659h1.0253V32.43a1.5647,1.5647,0,0,1,1.52-.98C72.5235,31.45,73.1182,32.2376,73.1182,33.4Zm.9853.4853A2.2494,2.2494,0,0,1,76.4014,31.45a2.1674,2.1674,0,0,1,2.18,2.4541v.1738H75.1289v.0371a1.3017,1.3017,0,0,0,1.2549,1.3643,1.1049,1.1049,0,0,0,1.1074-.7881H78.544a2.0669,2.0669,0,0,1-2.1426,1.5928A2.2135,2.2135,0,0,1,74.1035,33.885Zm3.48-.457a1.13,1.13,0,0,0-1.1816-1.2,1.2352,1.2352,0,0,0-1.2451,1.2Zm5.1875-1.9141v1.0987c-1.4472-.1465-2.0508.3935-2.0508,1.7031v1.8584H79.6944V31.56H80.72v1.2178A1.9255,1.9255,0,0,1,82.7705,31.5139Zm.4824,2.3711A2.2494,2.2494,0,0,1,85.5508,31.45,2.1666,2.1666,0,0,1,87.73,33.9036v.1738H84.2783v.0371a1.3016,1.3016,0,0,0,1.2539,1.3643,1.1052,1.1052,0,0,0,1.1084-.7881h1.0528a2.0669,2.0669,0,0,1-2.1426,1.5928A2.2135,2.2135,0,0,1,83.2529,33.885Zm3.48-.457a1.13,1.13,0,0,0-1.1816-1.2,1.2352,1.2352,0,0,0-1.2451,1.2Z"/></svg>