<?xml version="1.0" encoding="utf-8"?>
<!-- Generator: Adobe Illustrator 26.5.0, SVG Export Plug-In . SVG Version: 6.00 Build 0)  -->
<svg version="1.1" id="Lidl_Logo" xmlns="http://www.w3.org/2000/svg" xmlns:xlink="http://www.w3.org/1999/xlink" x="0px" y="0px"
	 viewBox="0 0 60 60" style="enable-background:new 0 0 60 60;" xml:space="preserve">
<style type="text/css">
	.st0{fill:#0050AA;}
	.st1{fill:#FFFFFF;}
	.st2{fill:#FFF000;}
	.st3{fill:#E60A14;}
</style>
<path class="st0" d="M0.5,0.5h59v59h-59V0.5z"/>
<path class="st1" d="M59.5,0.5v59h-59v-59H59.5z M60,0H0v60h60V0z"/>
<path class="st2" d="M30,3.8C15.6,3.8,3.9,15.6,3.9,30S15.6,56.2,30,56.2s26.1-11.7,26.2-26.1l0,0C56.2,15.6,44.4,3.9,30,3.8
	C30,3.9,30,3.9,30,3.8z"/>
<path class="st3" d="M28.4,30.7l-4.6-4.6l-5.3,5.3v1.8l1.3-1.3l3.7,3.7L22.1,37l0.9,0.9l7.4-7.4v-1.8L28.4,30.7L28.4,30.7z"/>
<path class="st0" d="M6.8,25.1H15v1.8h-1.4v5.7l4.8-2.6v4.9H6.8v-1.8h1.4v-6.2H6.8C6.8,26.9,6.8,25.1,6.8,25.1z M41.5,25.1v1.8h1.4
	v6.2h-1.4v1.8h11.6V30l-4.8,2.6v-5.7h1.4v-1.8L41.5,25.1L41.5,25.1z"/>
<path class="st3" d="M23.1,19.6c1.6,0,2.9,1.3,2.9,2.9s-1.3,2.9-2.9,2.9s-2.9-1.3-2.9-2.9l0,0l0,0l0,0
	C20.2,20.9,21.5,19.6,23.1,19.6L23.1,19.6L23.1,19.6z"/>
<path class="st3" d="M30,2.1L30,2.1C14.6,2.1,2.1,14.6,2.1,30S14.6,57.9,30,57.9S57.9,45.4,57.9,30l0,0C57.9,14.6,45.4,2.1,30,2.1
	L30,2.1z M30,56.2C15.6,56.2,3.9,44.4,3.9,30S15.6,3.9,30,3.9S56.2,15.6,56.2,30l0,0l0,0C56.1,44.4,44.4,56.1,30,56.2L30,56.2
	L30,56.2z"/>
<path class="st0" d="M36.9,25.1h-7.8v1.8h1.4v6.2h-1.4v1.8h7.8C42.7,34.9,42.8,25.1,36.9,25.1z"/>
<path class="st2" d="M35.8,31.8h-0.4v-3.7h0.3C37.5,28.2,37.5,31.8,35.8,31.8L35.8,31.8z"/>
</svg>
