<?xml version="1.0" encoding="UTF-8"?> <!-- Generator: Adobe Illustrator 25.1.0, SVG Export Plug-In . SVG Version: 6.00 Build 0) --> <svg xmlns="http://www.w3.org/2000/svg" xmlns:xlink="http://www.w3.org/1999/xlink" version="1.1" id="Layer_1" x="0px" y="0px" viewBox="0 0 355.9 87.2" style="enable-background:new 0 0 355.9 87.2;" xml:space="preserve"> <style type="text/css"> .st0{fill-rule:evenodd;clip-rule:evenodd;fill:#FFFFFF;} .st1{fill:#FFFFFF;} </style> <g> <path class="st0" d="M1,58.6l33.7-19.4H17.6l32-17.6H33.9L76.3,1L48.6,58.6C48.6,58.6,0.8,58.6,1,58.6"></path> <polygon class="st0" points="34.8,59.9 48.1,59.9 43.6,69 30.5,69 "></polygon> <polygon class="st1" points="49.1,68.8 76.9,12.5 93,12.5 72.1,54.9 83.9,54.9 77,68.8 "></polygon> <path class="st1" d="M101.1,68.9c-5.6,0-9.4-1.5-11.4-4.4s-2-7.2-0.2-12.8c2.5-7.4,6.2-13.4,11.2-17.8s10.5-6.7,16.4-6.7 c5.6,0,9.4,1.5,11.4,4.4s2,7.2,0.1,12.8c-2.5,7.5-6.2,13.4-11.2,17.8C112.5,66.7,107,68.9,101.1,68.9 M103.6,52.7 c-0.5,1.4-0.6,2.5-0.4,3.2s0.7,1.1,1.5,1.1c1.4,0,3.1-1.3,5-4s3.5-5.9,4.7-9.5c0.5-1.5,0.6-2.5,0.5-3.3c-0.2-0.7-0.7-1.1-1.6-1.1 c-1.4,0-3,1.4-5,4.1C106.4,45.9,104.8,49.1,103.6,52.7z"></path> <path class="st1" d="M166.7,29.3H182l-20.6,39.9c-3.4,6.7-7.1,11.2-11,13.5s-9.4,3.5-16.5,3.5c-5.7,0-9.6-1-11.5-2.9 s-2.2-5-0.7-9.2c0.1-0.2,0.2-0.4,0.3-0.8c0.1-0.3,0.2-0.6,0.3-0.8h13.5l-0.3,0.8c-0.3,0.8-0.2,1.5,0.3,2.1c0.5,0.5,1.2,0.8,2.2,0.8 c1.4,0,2.7-0.5,3.8-1.4c1.2-0.9,2.2-2.3,3.2-4.1l3.5-6.9c-2,1.8-4.1,3.1-6.2,4c-2.1,0.9-4.1,1.3-6.2,1.3c-3.4,0-5.6-1.2-6.6-3.6 s-0.8-5.7,0.6-10c2.7-7.8,6.6-14.3,11.8-19.5c5.1-5.2,10.2-7.8,15.2-7.8c2,0,3.5,0.4,4.6,1.2c1.1,0.8,2,2.2,2.6,4L166.7,29.3z M157.5,40.2c-1.6,0-3.3,1.2-5.3,3.7s-3.5,5.4-4.7,8.8c-0.6,1.6-0.7,2.8-0.6,3.5c0.2,0.8,0.7,1.1,1.7,1.1c1.5,0,3.3-1.2,5.2-3.7 c2-2.4,3.5-5.4,4.7-8.8c0.5-1.5,0.7-2.7,0.5-3.5C158.9,40.6,158.4,40.2,157.5,40.2z"></path> <polygon class="st1" points="215.7,37.7 198.5,68.8 180.5,68.8 215.4,12.9 235.8,12.9 226.8,41.5 245.5,12.9 267,12.9 247.1,68.8 228.1,68.8 240.5,39.9 220.7,68.8 205.7,68.8 "></polygon> <path class="st1" d="M272.5,68.8l2-4.4c-2.5,1.9-4.8,3.3-6.8,4.2c-2.1,0.9-4.1,1.3-6.1,1.3c-3.4,0-5.7-1.2-6.9-3.6 s-1.1-5.8,0.3-10.1c2.5-8,6.2-14.6,11.4-19.9c5.1-5.3,10.3-8,15.4-8c2,0,3.6,0.4,4.9,1.3c1.2,0.9,2.2,2.2,2.8,4.1l2.1-4.3h15.6 l-19,39.5L272.5,68.8L272.5,68.8z M281.9,40.6c-1.6,0-3.3,1.2-5.2,3.6c-1.9,2.4-3.4,5.3-4.4,8.7c-0.5,1.5-0.6,2.7-0.3,3.5 c0.2,0.8,0.8,1.2,1.8,1.2c1.6,0,3.3-1.2,5.2-3.7c1.9-2.4,3.3-5.4,4.4-8.8c0.5-1.5,0.6-2.6,0.3-3.4C283.4,41,282.8,40.6,281.9,40.6z "></path> <polygon class="st1" points="314.3,49.4 310.2,29.4 329.6,29.4 329.9,37.2 336.2,29.4 354.9,29.4 332.2,50 337.3,68.8 318.5,68.8 318.3,60.7 310.6,68.8 292.3,68.8 "></polygon> </g> </svg> 