<svg xmlns="http://www.w3.org/2000/svg" viewBox="0 0 399.17 135.27"><defs><style>.cls-1{fill:#1d1d1b;}.cls-2{fill:#d0122d;}</style></defs><g id="Calque_2" data-name="Calque 2"><g id="Calque_2-2" data-name="Calque 2"><path class="cls-1" d="M0,63.11H9.65v5.47c.8-.89,1.44-1.72,2.19-2.42A14.84,14.84,0,0,1,32.92,67a19,19,0,0,1,4.89,10.84,30.38,30.38,0,0,1-1,13.76,16.63,16.63,0,0,1-7.93,9.72,14.1,14.1,0,0,1-17.23-2.62,4.57,4.57,0,0,0-1.24-1v16.92c-.13.09-.15.11-.17.11H0ZM27.74,82.68a21.19,21.19,0,0,0-1.33-7c-1.4-3.19-3.76-5.17-7.32-5.21a7.92,7.92,0,0,0-7.58,4.87,13.27,13.27,0,0,0-1.21,5.18,19.68,19.68,0,0,0,1.24,9,8.33,8.33,0,0,0,8.38,5.31c3.39-.3,6.08-2.71,7-6.49C27.31,86.49,27.46,84.57,27.74,82.68Z"/><path class="cls-1" d="M222.52,53.57h-9.37V48.21c-.57.64-1,1.12-1.38,1.56-6.73,7-17.61,5.95-23.15-2.18A20.4,20.4,0,0,1,185.3,37c-.28-4.58.06-9.07,2.15-13.26a15.22,15.22,0,0,1,14.74-8.33,14.44,14.44,0,0,1,9.43,4.33,4.27,4.27,0,0,1,.52.72l.22-.15V1.16h10.16Zm-10-18.71c-.16-1.48-.24-3-.49-4.41a8.62,8.62,0,0,0-3.94-6.38c-4.09-2.45-10.07-1-11.84,5a21,21,0,0,0,.17,11.78,7.81,7.81,0,0,0,3.65,4.7c4.13,2.46,9.37.54,11.29-4.12A18.18,18.18,0,0,0,212.53,34.86Z"/><path class="cls-1" d="M123.64,82.33c0,8.86-4.93,16.73-12.55,19.7A21.69,21.69,0,0,1,92,100.72C87.39,98.16,84.7,93.93,83.19,89a21.79,21.79,0,0,1,9.17-24.66,19.06,19.06,0,0,1,9.26-2.55,20.62,20.62,0,0,1,12.9,3.11c5.13,3.35,7.76,8.29,8.82,14.18.08.43.13.87.17,1.31C123.57,81.12,123.61,81.86,123.64,82.33ZM93.42,81.11c.07,3.49.35,6,1.36,8.35,1.5,3.56,4.33,5.21,8,5.44s6.2-1.47,8-4.53a13.41,13.41,0,0,0,1.73-5.53c.35-3.84,0-7.54-2.36-10.78a9.17,9.17,0,0,0-13.94-.9A12.17,12.17,0,0,0,93.42,81.11Z"/><path class="cls-1" d="M81.16,82.66c-.12,8.66-5,16.45-12.69,19.41a21.68,21.68,0,0,1-18.43-1c-5.48-2.86-8.5-7.82-9.81-13.77a21.67,21.67,0,0,1,9.29-22.8A18.74,18.74,0,0,1,59,61.79,20.68,20.68,0,0,1,72.1,65c4.76,3.15,7.36,7.74,8.51,13.21C80.92,79.65,81,81.17,81.16,82.66Zm-30.29-.29-.22,0A61.31,61.31,0,0,0,52,88.75c1.17,3.74,3.93,5.7,7.79,6.12a8.14,8.14,0,0,0,8-3.65c3.14-4.41,3.19-12.44.11-16.89-2.27-3.28-5.52-4.31-9.3-3.77-3.4.49-5.54,2.62-6.73,5.74A15.67,15.67,0,0,0,50.87,82.37Z"/><path class="cls-1" d="M64,55.3c-5.4,0-9-.65-12.21-2.42a19.45,19.45,0,0,1-9-11.12A21.72,21.72,0,0,1,51.4,16.18a17.3,17.3,0,0,1,7.44-2.46A22.14,22.14,0,0,1,71.7,15.53c5.77,2.81,9.1,7.6,10.47,13.7,1.73,7.68,0,14.58-5.52,20.29C72.73,53.55,67.84,55.37,64,55.3ZM52.38,33.72l.21,0a21.52,21.52,0,0,0,1.18,7c1.5,3.93,4.51,5.76,8.57,5.88,3.72.11,6.33-1.79,7.9-5a16.18,16.18,0,0,0,.11-14.16c-1.68-3.76-5-5.52-9.4-5.25a8.42,8.42,0,0,0-7.46,6.05A52.08,52.08,0,0,0,52.38,33.72Z"/><path class="cls-1" d="M264.76,41.21a26.13,26.13,0,0,1-3.83,6.42c-3.36,4.31-8,6.06-13.21,6.39a28,28,0,0,1-9.07-.78c-5.52-1.48-9.49-4.81-11.46-10.18a23.47,23.47,0,0,1,.55-18.52c2.72-5.85,7.59-9,13.94-9.89a22.28,22.28,0,0,1,10.8,1c6,2.21,9.61,6.61,11,12.82a34.38,34.38,0,0,1,.79,8.09c0,.16,0,.32-.05.56H236.94a9.71,9.71,0,0,0,2.3,6.56,8.88,8.88,0,0,0,9.36,2.37,6.63,6.63,0,0,0,4-4.35c.16-.42.32-.61.81-.61,3.65,0,7.3,0,11,0A4.17,4.17,0,0,1,264.76,41.21ZM253.37,30.06c.21-4.41-4.07-8.48-9.25-7.85-4,.49-7.53,4.42-6.9,7.85Z"/><path class="cls-1" d="M204,85.72h-27.3c-.21,4.74,2.82,8.52,7.07,9.18a11.51,11.51,0,0,0,3.75-.08c2.51-.49,3.92-2.27,4.74-4.57.15-.43.33-.61.8-.6,3.66,0,7.31,0,11,0l.36,0a2.2,2.2,0,0,1-.09.42,23.3,23.3,0,0,1-6.39,8.77,16.66,16.66,0,0,1-9.16,3.53,27,27,0,0,1-11.88-1.09,15.42,15.42,0,0,1-9.61-8.81,23.27,23.27,0,0,1,.35-19.79c2.79-5.78,7.74-8.83,14.06-9.59a22,22,0,0,1,11.7,1.57c5.69,2.52,8.82,7.06,10,13,.37,1.94.47,3.92.66,5.89C204,84.28,204,84.94,204,85.72Zm-27.14-7.16H193c.16-4.44-3.55-7.87-8.35-7.88C180.32,70.68,176.3,74.76,176.81,78.56Z"/><path class="cls-1" d="M264.61,85.71H237.35c-.22,4.91,3,8.57,7.05,9.18a11.24,11.24,0,0,0,3.75-.07c2.47-.47,3.91-2.21,4.72-4.49a.86.86,0,0,1,1-.69c3.65,0,7.31,0,11,0a2.08,2.08,0,0,1,.28.07c-.26.58-.48,1.16-.76,1.71a24.53,24.53,0,0,1-5.14,6.9,15.84,15.84,0,0,1-8.57,3.89,26.52,26.52,0,0,1-12.7-.79c-6.63-2.17-10.28-7-11.5-13.69a23.85,23.85,0,0,1,1.09-13.45c2.69-6.66,7.8-10.3,14.86-11.17a21.72,21.72,0,0,1,11.54,1.53c5.41,2.35,8.57,6.58,9.9,12.26A33.65,33.65,0,0,1,264.61,85.71Zm-10.89-7.15a7.34,7.34,0,0,0-4.35-7,7.87,7.87,0,0,0-8.77.74,6.76,6.76,0,0,0-3.11,6.22Z"/><path class="cls-1" d="M166.41,27.35c-3.21,0-6.14,0-9.08,0a.69.69,0,0,1-.47-.34,3.51,3.51,0,0,1-.33-.83,5.92,5.92,0,0,0-5-4.3,10.78,10.78,0,0,0-6.23.5,3.52,3.52,0,0,0-2.14,1.93,2.7,2.7,0,0,0,1.49,3.63,50.59,50.59,0,0,0,5.74,1.71c3,.77,6.08,1.43,9.12,2.18,6.48,1.59,8.62,7.26,7.3,12.71-1.45,6-5.36,9.32-11.28,10.48a27,27,0,0,1-12.72-.48,15,15,0,0,1-9.43-7.45,8.89,8.89,0,0,1-.91-6.34h9.42c.26,1.13.44,2.24.79,3.3a4,4,0,0,0,1.11,1.66,8.29,8.29,0,0,0,6.18,2,20.81,20.81,0,0,0,4.34-.84,3.59,3.59,0,0,0,2.43-2.61,2.85,2.85,0,0,0-2-3.67c-3.58-.94-7.19-1.79-10.77-2.71a35,35,0,0,1-4-1.23c-5.84-2.29-7.3-7.59-6.31-12.56.89-4.38,3.66-7.16,7.8-8.58a23.78,23.78,0,0,1,15.14-.2,12.77,12.77,0,0,1,8.18,6.81A44.7,44.7,0,0,1,166.41,27.35Z"/><path class="cls-1" d="M84.57,15.41H94.4v1.06c0,6.13,0,12.26,0,18.39,0,2.52.15,5,.42,7.55A5.13,5.13,0,0,0,99.54,47a7.53,7.53,0,0,0,8.61-7.14c.18-2.49.29-5,.31-7.49.05-5.3,0-10.61,0-15.91v-1h9.76V54h-9.06v-5.6l-.84,1c-4.32,5.37-12.17,7.05-18,3.84a10.53,10.53,0,0,1-5.4-8.3A38.5,38.5,0,0,1,84.58,40c0-7.86,0-15.72,0-23.58Z"/><path class="cls-1" d="M148.6,56.54h11v6.21h7.21v8.93h-7.22c0,.8,0,1.5,0,2.21,0,5.43-.1,10.87-.13,16.31,0,2.22.78,3.12,3,3.27,1.44.09,2.89,0,4.34,0a3,3,0,0,1,.09.44c0,2.55,0,5.11,0,7.8H166c-2.64,0-5.28-.07-7.91,0-6,.18-8.45-3.24-9.16-8a43.54,43.54,0,0,1-.32-6.16c0-10,0-20.11,0-30.16Z"/><path class="cls-1" d="M39.39.35V53.64H29.21V.35Z"/><path class="cls-1" d="M146.43,72.23a29.68,29.68,0,0,0-4,0c-3.49.51-5.84,3.08-6.36,6.81a21.3,21.3,0,0,0-.2,2.87c0,6.08,0,12.15,0,18.22v1H125.74V63.42h8.76v6.37l.24.07c.12-.24.24-.47.35-.72,1.48-3.26,3.78-5.6,7.35-6.39a15.87,15.87,0,0,1,3.52-.1.67.67,0,0,1,.45.43C146.43,66.15,146.43,69.22,146.43,72.23Z"/><path class="cls-1" d="M205.77,63.39h8.77v6.43l.26.07.41-.9a10.31,10.31,0,0,1,7.28-6.24,15.2,15.2,0,0,1,3.51-.09c.16,0,.46.33.46.51,0,3,0,6,0,9.12-.67-.05-1.25-.11-1.84-.13-4.92-.2-8.15,2.62-8.62,7.53-.09.92-.14,1.86-.14,2.79,0,5.88,0,11.75,0,17.63v1H205.77Z"/><path class="cls-1" d="M131,53.74H120.54v-38H131Z"/><path class="cls-1" d="M120.31,10.32V0h11.16V10.32Z"/><path class="cls-2" d="M347.94.69c0,6.32.09,12.26.11,18.58s.05,12.75,0,19.12c0,4.21,0,8.41-.16,12.61-.44,10.86-5.15,19.39-14.69,24.73-12.8,7.18-30.62,3.92-39.15-11.7a28.19,28.19,0,0,1-3.41-12.68A28.82,28.82,0,0,1,308.62,24a34.57,34.57,0,0,1,8.28-1.72c.85-.1,1.69-.17,2.6-.26v15c-1.11.15-2.23.25-3.33.46-7.17,1.38-13.4,9.68-9.41,18.45,2.05,4.5,5.45,7.42,10.45,8.08,8.29,1.11,14.65-4.24,15.57-11.64a50.76,50.76,0,0,0,.21-6.17q0-22.42,0-44.85c0-.36,0-.36,0-.71Z"/><path class="cls-2" d="M357.34.69V5.83q0,20,0,39.9c0,5.05,0,10.13-1.5,15-4.37,14.56-13.92,23.9-28.81,27-12.58,2.64-23.88-.74-33.39-9.4a36.9,36.9,0,0,1-12-23.83c-1.92-16.82,7.94-31.41,20.41-37.77a34.67,34.67,0,0,1,12-3.43l5.43-.6v5.82c-1.43.1-2.85.15-4.26.31a31.47,31.47,0,0,0-16.52,7,30,30,0,0,0-11.69,23.28A32.11,32.11,0,0,0,313.5,82.23c13.88,2.7,28.37-4.29,34.52-16.64a33.93,33.93,0,0,0,3.57-15.09c.05-10,.1-19.89.1-29.84,0-6.78-.08-13.21-.12-20Z"/><path class="cls-2" d="M398.47,57.87c-2.56,11.48-8.78,20.26-19.13,26a34.69,34.69,0,0,1-14,4.54c-1.25.11-2.52,0-3.84,0V82.69c11.14,0,19.92-4.81,26.45-13.7a30.05,30.05,0,0,0,5.79-19.28,31.39,31.39,0,0,0-9.95-22.28,31.83,31.83,0,0,0-22.62-9V12.65c2.6.32,5.19.47,7.7,1,11.34,2.26,19.75,8.59,25.5,18.58a35.64,35.64,0,0,1,4.49,14.08C399.4,50.66,399.17,52,398.47,57.87Z"/><path class="cls-2" d="M361.58,79.41V63.92a13,13,0,0,0,10.58-5.17A12.52,12.52,0,0,0,375,50.26a13,13,0,0,0-4.2-9.37,12.55,12.55,0,0,0-9.43-3.82V21.92a27.31,27.31,0,0,1,17,5.67,27.82,27.82,0,0,1,11.24,19.23C391.55,60.39,382.54,78.1,361.58,79.41Z"/><path class="cls-2" d="M319.87,39.34v6.9a13.51,13.51,0,0,1-1.39.36,3.77,3.77,0,0,0-3.24,3.86,3.89,3.89,0,0,0,3.2,3.93,4.92,4.92,0,0,0,3.19-.52,2.87,2.87,0,0,0,1.65-2.79q-.06-24.69-.07-49.38v-1H329c0,.27,0,.44,0,.73q0,17.14.07,34.28c0,5.11-.13,10.23.08,15.33a9.72,9.72,0,0,1-13.61,9,10.27,10.27,0,0,1-3.71-16.42,13.2,13.2,0,0,1,3.56-2.45A47.07,47.07,0,0,1,319.87,39.34Z"/><path class="cls-2" d="M347.89,81.55v19.79H333.35a3.35,3.35,0,0,1-.08-.54c0-3.3,0-6.59,0-9.89a1,1,0,0,1,.5-.76,16.52,16.52,0,0,1,2.4-1.06,29.92,29.92,0,0,0,10-6.18C346.73,82.48,347.25,82.08,347.89,81.55Z"/><path class="cls-2" d="M357.26,101.36h-5.52v-.9c0-7.25,0-14.51,0-21.76a2.87,2.87,0,0,1,.4-1.37c1.65-2.69,3.34-5.35,5.11-8.17Z"/><path class="cls-2" d="M361.3,40.52c4-.31,9.31,3.54,9.7,9,.44,6-3.15,10.17-9.65,11.31,0-.2,0-4.19-.06-5.89.55,0,3.8-2.3,3.92-4s-.19-3.13-1.75-3.75a11.78,11.78,0,0,0-2.11-.58S361.3,41.53,361.3,40.52Z"/><path class="cls-2" d="M329.24,91.37a3.8,3.8,0,0,1,.05.43v9.52h-5.18a5.3,5.3,0,0,1-.07-.59c0-2.58,0-5.16,0-7.74,0-.38,0-.7.49-.78Z"/><path class="cls-1" d="M255.2,127.28h-7.7v-.71h7.7Z"/><path class="cls-1" d="M151.67,127.28H144v-.71h7.7Z"/><path d="M175.68,131.64a2.72,2.72,0,0,0-.93-2,6.77,6.77,0,0,0-3.26-1.4,9.49,9.49,0,0,1-3.54-1.34,2.83,2.83,0,0,1-1.1-2.43,3,3,0,0,1,1.24-2.47,5.18,5.18,0,0,1,3.35-1,5.5,5.5,0,0,1,3.58,1.07,3.23,3.23,0,0,1,1.25,2.78l0,.07h-.58a2.89,2.89,0,0,0-1.14-2.29,4.66,4.66,0,0,0-3.08-.94,4.42,4.42,0,0,0-2.92.83,2.45,2.45,0,0,0-1,1.92,2.4,2.4,0,0,0,.84,1.84,7.88,7.88,0,0,0,3.33,1.33,9,9,0,0,1,3.48,1.46,3.07,3.07,0,0,1,1.19,2.57,3.13,3.13,0,0,1-1.32,2.61,5.65,5.65,0,0,1-3.51,1,5.92,5.92,0,0,1-3.76-1.08,3,3,0,0,1-1.28-2.61l0-.07h.56a2.69,2.69,0,0,0,1.4,2.35,6.17,6.17,0,0,0,3,.72,4.71,4.71,0,0,0,3-.89A2.59,2.59,0,0,0,175.68,131.64Z"/><path d="M184.62,117.56v3.7H188v.7h-3.37v9.5a3.9,3.9,0,0,0,.57,2.4,1.83,1.83,0,0,0,1.51.72l.61,0,.73-.09.13.62a3.51,3.51,0,0,1-.66.14c-.23,0-.49,0-.77,0a2.54,2.54,0,0,1-2.11-.9,4.79,4.79,0,0,1-.71-2.91V122h-2.54v-.7h2.54v-3.7Z"/><path d="M193.14,127.87a7.26,7.26,0,0,1,1.67-4.94,5.87,5.87,0,0,1,8.68,0,7.21,7.21,0,0,1,1.67,4.94v.53a7.24,7.24,0,0,1-1.67,4.95,5.85,5.85,0,0,1-8.67,0,7.24,7.24,0,0,1-1.68-4.95Zm.69.53a6.82,6.82,0,0,0,1.44,4.39,4.78,4.78,0,0,0,3.9,1.79,4.69,4.69,0,0,0,3.86-1.8,6.74,6.74,0,0,0,1.45-4.38v-.53a6.74,6.74,0,0,0-1.46-4.35,5,5,0,0,0-7.75,0,6.78,6.78,0,0,0-1.44,4.35Z"/><path d="M217.5,121.76l-.89-.08a4,4,0,0,0-3,1.19,5.72,5.72,0,0,0-1.49,3.13v9h-.69V121.26H212l.13,2.39v.47a4.93,4.93,0,0,1,1.7-2.29,4.58,4.58,0,0,1,2.78-.82,3.12,3.12,0,0,1,.54,0l.42.1Z"/><path d="M227.7,135.27a5.29,5.29,0,0,1-4.1-1.88,6.89,6.89,0,0,1-1.67-4.74v-.81a7.28,7.28,0,0,1,1.66-4.91,5.26,5.26,0,0,1,4.17-1.92,4.66,4.66,0,0,1,3.64,1.5,5.91,5.91,0,0,1,1.36,4.11v1H222.62v1a6.34,6.34,0,0,0,1.42,4.22,4.55,4.55,0,0,0,3.66,1.71,6.21,6.21,0,0,0,2.37-.46,5.09,5.09,0,0,0,1.84-1.21l.37.53a5.45,5.45,0,0,1-1.87,1.31A6.42,6.42,0,0,1,227.7,135.27Zm.06-13.57a4.57,4.57,0,0,0-3.5,1.47,6.07,6.07,0,0,0-1.54,3.74l0,.08h9.32v-.42a5.28,5.28,0,0,0-1.16-3.5A3.89,3.89,0,0,0,227.76,121.7Z"/></g></g></svg>