<?xml version="1.0" encoding="UTF-8" standalone="no"?>
<svg
   xmlns:dc="http://purl.org/dc/elements/1.1/"
   xmlns:cc="http://creativecommons.org/ns#"
   xmlns:rdf="http://www.w3.org/1999/02/22-rdf-syntax-ns#"
   xmlns:svg="http://www.w3.org/2000/svg"
   xmlns="http://www.w3.org/2000/svg"
   viewBox="0 0 197.33333 82.666664"
   height="82.666664"
   width="197.33333"
   xml:space="preserve"
   id="svg2"
   version="1.1"><metadata
     id="metadata8"><rdf:RDF><cc:Work
         rdf:about=""><dc:format>image/svg+xml</dc:format><dc:type
           rdf:resource="http://purl.org/dc/dcmitype/StillImage" /></cc:Work></rdf:RDF></metadata><defs
     id="defs6"><clipPath
       id="clipPath20"
       clipPathUnits="userSpaceOnUse"><path
         style="clip-rule:evenodd"
         id="path18"
         d="m 679.879,118.574 c 40.168,0 77.156,24.301 77.156,62.571 0,38.765 -31.191,65.109 -77.137,65.109 h -26.234 c -61.793,0 -112.391,-44.449 -112.391,-108.691 V 0 H 435.969 v 137.203 c 0,76.688 83.273,137.219 183.695,137.219 h 73.602 c 75.679,0 167.199,-23.094 167.199,-93.277 0,-71.528 -83.863,-93.2739 -167.219,-93.2739 H 553.688 v 30.7029 z" /></clipPath><clipPath
       id="clipPath26"
       clipPathUnits="userSpaceOnUse"><path
         id="path24"
         d="M 0,0 H 1480 V 620 H 0 Z" /></clipPath><clipPath
       id="clipPath36"
       clipPathUnits="userSpaceOnUse"><path
         id="path34"
         d="m 940.773,0 h 103.258 V 274.422 H 940.773 Z" /></clipPath><clipPath
       id="clipPath46"
       clipPathUnits="userSpaceOnUse"><path
         style="clip-rule:evenodd"
         id="path44"
         d="m 1418.1,130.395 h -181.48 c 7.31,-52.938 50.7,-92.5942 101.84,-92.5942 h 136.25 V 6.14453 h -165.8 c -100.11,0 -183.28,61.59767 -183.28,139.63247 0,78.004 83.13,139.621 183.23,139.621 h 165.85 v -30.984 h -136.26 c -51.36,0 -94.9,-39.996 -101.91,-93.266 h 181.56 z" /></clipPath><clipPath
       id="clipPath52"
       clipPathUnits="userSpaceOnUse"><path
         id="path50"
         d="M 0,0 H 1480 V 620 H 0 Z" /></clipPath><clipPath
       id="clipPath62"
       clipPathUnits="userSpaceOnUse"><path
         style="clip-rule:evenodd"
         id="path60"
         d="m 109.34,216.598 c 0,-11.227 13.988,-21.289 38.875,-27.797 25.086,-6.567 56.644,-14.156 89,-21.692 C 301.117,152.258 368.426,132.461 368.426,86.5039 368.426,34.9961 271.727,0.00390625 140.398,0.00390625 92.2539,0.00390625 46.4805,4.50781 0,17.2539 L 14.8086,42.332 C 57.1016,27.4219 117.289,24.6055 161.691,24.6055 c 53.868,0 97.567,16.4297 97.567,40.414 0,13.7774 -14.246,25.3985 -38.067,31.4453 -24.363,6.1872 -55.519,13.8592 -87.226,20.6762 -62.6408,13.476 -128.69547,31.226 -128.69547,79.5 0,46.41 69.97267,82.683 199.05047,82.683 40.668,0 100.004,-5.113 137.946,-19.605 l -16.762,-20.055 c -39.285,10.731 -83.899,14.758 -124.602,14.758 -67.949,0 -91.562,-18.285 -91.562,-37.824" /></clipPath><clipPath
       id="clipPath68"
       clipPathUnits="userSpaceOnUse"><path
         id="path66"
         d="M 0,0 H 1480 V 620 H 0 Z" /></clipPath><clipPath
       id="clipPath78"
       clipPathUnits="userSpaceOnUse"><path
         style="clip-rule:evenodd"
         id="path76"
         d="m 852.477,478.297 c 0,76.519 64.886,138.531 144.898,138.531 80.025,0 144.895,-62.012 144.895,-138.531 0,-76.512 -64.87,-138.535 -144.895,-138.535 -80.012,0 -144.898,62.023 -144.898,138.535" /></clipPath><clipPath
       id="clipPath84"
       clipPathUnits="userSpaceOnUse"><path
         id="path82"
         d="M 0,0 H 1480 V 620 H 0 Z" /></clipPath><clipPath
       id="clipPath94"
       clipPathUnits="userSpaceOnUse"><path
         style="clip-rule:evenodd"
         id="path92"
         d="m 852.477,478.297 c 0,76.519 64.886,138.531 144.898,138.531 65.625,0 121.075,-41.711 138.895,-98.902 -11.35,16.125 -24.63,30.898 -39.51,44.035 -2.85,-1.102 -5.76,-2.289 -8.78,-3.555 19.42,-14.472 36.61,-31.554 51.03,-50.691 1.67,-7.442 2.74,-15.137 3.11,-22.973 -18.98,25.922 -44.95,49.121 -72.35,65.469 -4.01,-1.938 -8.13,-4.004 -12.29,-6.176 32,-15.367 62.42,-38.918 84.79,-66.414 -0.04,-6.016 -0.45,-11.914 -1.25,-17.726 -27.41,32.312 -63.77,57.367 -105.47,71.656 -5.18,-3.192 -10.43,-6.613 -15.69,-10.242 46.98,-10.961 88.48,-35.289 119.97,-68.481 -1.02,-5.25 -2.36,-10.383 -3.97,-15.402 -36.62,35.797 -85.79,59.707 -140.743,65.078 -5.976,-4.996 -11.879,-10.316 -17.668,-15.953 l 2.293,0.019 c 59.078,0 112.838,-21.414 153.488,-56.57 -1.93,-4.957 -4.15,-9.793 -6.64,-14.473 -37.91,29.325 -86.04,46.883 -138.555,46.883 -11.914,0 -23.605,-0.898 -35.008,-2.652 -5.648,-7.012 -11.089,-14.43 -16.246,-22.25 18.934,5.097 38.91,7.82 59.535,7.82 46.754,0 90.004,-13.984 125.624,-37.84 -3.08,-4.965 -6.51,-9.742 -10.21,-14.273 -31.4,17.769 -68,27.961 -107.12,27.961 -31.063,0 -60.571,-6.438 -87.13,-17.977 -4.054,-8.551 -7.789,-17.519 -11.128,-26.883 31.218,17.629 67.648,27.766 106.558,27.766 32.58,0 63.39,-7.102 90.91,-19.785 -26.49,-27.395 -64.37,-44.535 -106.445,-44.535 -80.012,0 -144.898,62.023 -144.898,138.535" /></clipPath><clipPath
       id="clipPath100"
       clipPathUnits="userSpaceOnUse"><path
         id="path98"
         d="M 0,0 H 1480 V 620 H 0 Z" /></clipPath></defs><g
     transform="matrix(1.3333333,0,0,-1.3333333,0,82.666667)"
     id="g10"><g
       transform="scale(0.1)"
       id="g12"><g
         id="g14"><g
           clip-path="url(#clipPath20)"
           id="g16"><g
             clip-path="url(#clipPath26)"
             id="g22"><path
               id="path28"
               style="fill:#1f1a5a;fill-opacity:1;fill-rule:nonzero;stroke:none"
               d="M 385.969,0 H 910.465 V 324.422 H 385.969 Z" /></g></g></g><g
         id="g30"><g
           clip-path="url(#clipPath36)"
           id="g32"><path
             id="path38"
             style="fill:#1f1a5a;fill-opacity:1;fill-rule:nonzero;stroke:none"
             d="m 890.773,0 h 203.258 V 324.422 H 890.773 Z" /></g></g><g
         id="g40"><g
           clip-path="url(#clipPath46)"
           id="g42"><g
             clip-path="url(#clipPath52)"
             id="g48"><path
               id="path54"
               style="fill:#1f1a5a;fill-opacity:1;fill-rule:nonzero;stroke:none"
               d="m 1075.63,0 h 449.078 V 335.398 H 1075.63 Z" /></g></g></g><g
         id="g56"><g
           clip-path="url(#clipPath62)"
           id="g58"><g
             clip-path="url(#clipPath68)"
             id="g64"><path
               id="path70"
               style="fill:#1f1a5a;fill-opacity:1;fill-rule:nonzero;stroke:none"
               d="M 0,0 H 418.426 V 329.324 H 0 Z" /></g></g></g><g
         id="g72"><g
           clip-path="url(#clipPath78)"
           id="g74"><g
             clip-path="url(#clipPath84)"
             id="g80"><path
               id="path86"
               style="fill:#fefefe;fill-opacity:1;fill-rule:nonzero;stroke:none"
               d="m 802.477,289.762 h 389.797 V 666.828 H 802.477 Z" /></g></g></g><g
         id="g88"><g
           clip-path="url(#clipPath94)"
           id="g90"><g
             clip-path="url(#clipPath100)"
             id="g96"><path
               id="path102"
               style="fill:#d21518;fill-opacity:1;fill-rule:nonzero;stroke:none"
               d="m 802.477,289.762 h 389.797 V 666.828 H 802.477 Z" /></g></g></g></g></g></svg>