<?xml version="1.0" encoding="UTF-8"?>
<svg xmlns="http://www.w3.org/2000/svg" id="Layer_2" viewBox="0 0 273.34 61.25">
  <defs>
    <style>.cls-1{fill:#fff;}</style>
  </defs>
  <g id="Layer_1-2">
    <g>
      <g>
        <g>
          <path class="cls-1" d="M123.29,6.44h5.76l-7.93,20.88c-1.5,3.89-3.82,6.32-8.87,6.32h-2.58v-4.75h2.69c1.8,0,2.51-.97,3.03-2.17l.45-1.01-6.92-19.27h5.84l4.23,13.62,4.3-13.62Z"></path>
          <path class="cls-1" d="M142.44,13.51c0-2.17-.94-3.26-2.73-3.26-2.36,0-3.74,2.21-3.74,4.98v11.04h-5.61V6.44h5.09v2.84h.15c1.31-2.32,3.48-3.29,5.91-3.29,2.66,0,4.83,1.35,5.8,3.71,1.5-2.66,3.67-3.71,6.1-3.71,3.82,0,6.62,2.36,6.62,7.15v13.14h-5.61V13.55c0-2.17-.94-3.29-2.77-3.29-2.32,0-3.52,1.98-3.59,4.6v11.41h-5.61V13.51Z"></path>
          <path class="cls-1" d="M164.37,33.49V6.44h5.16v2.84c1.31-2.25,3.59-3.29,6.36-3.29,4.57,0,8.31,2.92,8.31,10.37s-3.74,10.37-8.31,10.37c-2.36,0-4.72-.9-5.91-2.66v9.43h-5.61Zm5.5-17.14c0,4.68,1.91,6.17,4.34,6.17,2.77,0,4.27-1.68,4.27-6.17s-1.53-6.17-4.27-6.17c-2.43,0-4.34,1.5-4.34,6.17Z"></path>
          <path class="cls-1" d="M193.3,.45V8.68c1.35-1.83,3.56-2.69,5.76-2.69,4.04,0,7.07,2.36,7.07,7.15v13.14h-5.61V13.55c0-2.1-.97-3.29-2.99-3.29-2.66,0-4.23,2.17-4.23,4.98v11.04h-5.61V.45h5.61Z"></path>
          <path class="cls-1" d="M219.46,26.72c-6.4,0-10.1-3.74-10.1-10.37s3.71-10.37,10.1-10.37,10.1,3.71,10.1,10.37-3.7,10.37-10.1,10.37Zm0-4.19c3.03,0,4.38-2.28,4.38-6.17s-1.35-6.17-4.38-6.17-4.38,2.25-4.38,6.17,1.35,6.17,4.38,6.17Z"></path>
          <path class="cls-1" d="M238.05,6.44v2.84h.15c1.31-2.32,3.93-3.29,6.25-3.29,3.93,0,7,2.36,7,7.11v13.17h-5.61V13.55c0-1.98-.82-3.29-2.99-3.29-2.69,0-4.27,2.21-4.27,5.01v11h-5.61V6.44h5.09Z"></path>
          <path class="cls-1" d="M267.58,6.44h5.76l-7.93,20.88c-1.5,3.89-3.82,6.32-8.87,6.32h-2.58v-4.75h2.69c1.8,0,2.51-.97,3.03-2.17l.45-1.01-6.92-19.27h5.84l4.23,13.62,4.3-13.62Z"></path>
          <path class="cls-1" d="M94.19,60.8v-21.11h-7.82v-4.72h21.48v4.72h-7.86v21.11h-5.8Z"></path>
          <path class="cls-1" d="M126.07,40.97v19.83h-5.16v-2.84c-1.31,2.25-3.59,3.29-6.36,3.29-4.57,0-8.31-2.92-8.31-10.37s3.74-10.37,8.31-10.37c2.36,0,4.72,.9,5.91,2.66v-2.21h5.61Zm-5.5,9.92c0-4.68-1.91-6.17-4.34-6.17-2.77,0-4.27,1.68-4.27,6.17s1.53,6.17,4.27,6.17c2.43,0,4.34-1.5,4.34-6.17Z"></path>
          <path class="cls-1" d="M130.35,60.8v-25.82h5.61v25.82h-5.61Z"></path>
          <path class="cls-1" d="M166.58,40.97v2.84h.15c1.31-2.32,3.93-3.29,6.25-3.29,3.93,0,7,2.36,7,7.11v13.17h-5.61v-12.72c0-1.98-.82-3.29-2.99-3.29-2.69,0-4.27,2.21-4.27,5.01v11h-5.61v-19.83h5.09Z"></path>
          <path class="cls-1" d="M183.74,36.63h5.61v4.34h5.73v4.19h-5.73v9.51c0,1.8,.6,2.43,2.36,2.43,.75,0,1.8-.15,2.73-.45l.41,4.12c-1.42,.22-3.11,.49-4.72,.49-3.33,0-6.4-1.05-6.4-5.69v-18.94Z"></path>
        </g>
        <path class="cls-1" d="M93.02,7.63c0-1.83,1.5-2.99,4.12-2.99s4.6,1.04,5.1,3.54h5.48c-.13-5.86-4.46-8.19-10.36-8.19s-10.22,2.77-10.22,7.78c0,11.04,14.93,5.8,14.93,10.85,0,2.54-2.25,3.48-4.6,3.48-2.58,0-4.97-.89-5.51-3.92h-5.6c.09,6.54,5.65,8.53,11,8.53s10.63-2.32,10.63-8.57c0-10.52-14.97-5.46-14.97-10.52Z"></path>
        <path class="cls-1" d="M152.78,54.67c-.51,1.83-2.04,2.39-3.94,2.39-2.47,0-4.12-1.46-4.23-4.79h13.32v-2.62c0-5.24-2.84-9.13-9.39-9.13-6.06,0-9.73,4.19-9.73,10.37,0,6.96,3.93,10.37,9.77,10.37,5.44,0,8.97-2.16,9.52-6.58h-5.32Zm-4.2-10.03c2.58,0,3.67,1.61,3.67,3.52v.15h-7.52c.19-2.13,1.38-3.67,3.85-3.67Z"></path>
      </g>
      <path class="cls-1" d="M67.28,18.22H24.19l-2.8-5.35h47.53c.78,0,1.27,.93,.88,1.68l-1.63,3.12c-.18,.35-.52,.56-.88,.56ZM75.77,1.72c-.32-.64-.91-1.02-1.57-1.02H1.88c-.64,0-1.25,.33-1.59,.92-.37,.64-.38,1.41-.04,2.06L13.75,29.47c.32,.61,.92,.99,1.56,.99H53.93l-7.78,14.85H25.25c-.63,0-1.25,.32-1.59,.91-.37,.63-.39,1.41-.05,2.06l1.8,3.49c.32,.62,.92,1.01,1.57,1.01h7.37v3.96c0,.28-.02,1.44-.01,2.61,0,1.26,1.24,2.06,2.24,1.45l4.71-2.86c.26-.49,.4-.64,.4-1.21v-3.96h7.35c.64,0,1.24-.38,1.56-.99l13.47-25.73c.33-.62,.37-1.4,.05-2.03-.32-.64-.91-1.02-1.57-1.02H18.17l-7.77-14.85h61.98c.64,0,1.24-.38,1.56-.99l1.79-3.42c.33-.62,.37-1.4,.05-2.03ZM40.95,40.34H20.08c-.36,0-.7-.21-.88-.56l-1.63-3.12c-.39-.74,.1-1.68,.88-1.68h25.31l-2.8,5.35Z"></path>
    </g>
  </g>
</svg>
