<?xml version="1.0" encoding="utf-8"?>
<!-- Generator: Adobe Illustrator 21.0.0, SVG Export Plug-In . SVG Version: 6.00 Build 0)  -->
<svg version="1.1" id="Warstwa_1" xmlns="http://www.w3.org/2000/svg" xmlns:xlink="http://www.w3.org/1999/xlink" x="0px" y="0px"
	 width="360.1px" height="123.3px" viewBox="0 0 360.1 123.3" style="enable-background:new 0 0 360.1 123.3;" xml:space="preserve"
	>
<style type="text/css">
	.st0{fill:#FFFFFF;}
</style>
<path class="st0" d="M0.1,123.2L0,123l18.3-61.2c10-33.7,18.3-61.4,18.4-61.5L36.8,0h6.1L43,0.2l0.1,0.1L24.9,61.5
	c-10,33.7-18.2,61.4-18.3,61.5l-0.1,0.3H0.2L0.1,123.2z M12.2,123.2l-0.1-0.2l18.3-61.2c10-33.7,18.3-61.4,18.4-61.5L49,0h6.3
	l0.1,0.2l0.1,0.1L37.2,61.5c-10.1,33.7-18.3,61.4-18.4,61.5l-0.1,0.3h-6.3L12.2,123.2z M24.4,123.2l-0.1-0.2l18.2-61.2
	C52.6,28.1,60.9,0.4,60.9,0.2L61.1,0h6.3l0.1,0.2l0.1,0.1L49.3,61.5c-10,33.7-18.3,61.4-18.4,61.5l-0.2,0.3h-6.3L24.4,123.2z
	 M36.7,123.2l-0.1-0.2l18.2-61.2C64.8,28.1,73,0.4,73.1,0.2L73.2,0h6.3l0.1,0.2l0.1,0.1L61.5,61.5c-10,33.7-18.3,61.4-18.4,61.5
	l-0.2,0.3h-6.1L36.7,123.2z M85.5,123.2l-0.1-0.2l14.5-48.6c8-26.8,14.5-48.8,14.6-49l0.1-0.3H78.2l-0.1-0.1L78,24.8l3.6-12.1
	c2-6.7,3.7-12.2,3.8-12.4L85.6,0h109.8l0.1,0.2l0.1,0.1l-3.6,12.1c-2,6.7-3.7,12.2-3.7,12.4l-0.2,0.3l-36.5,0.1L136.9,74
	c-8,26.9-14.6,49-14.7,49.1l-0.1,0.2H85.6L85.5,123.2z M201.3,123.1c0-0.1,0-27.8,0-61.6l0-61.5H232l0.1,30.3l0.1,30.2l14.9-30.1
	c8.2-16.6,15-30.2,15.1-30.3l0.2-0.2H299l0.1,0.2c0,0.1,0.7,13.7,1.6,30.2c0.8,16.4,1.5,29.9,1.5,30l0.1,0l13.3-29.9
	c7.3-16.4,13.4-30,13.5-30.2l0.2-0.3h30.6l0.1,0.2l0.1,0.1l-27.4,61.3c-15.1,33.7-27.5,61.4-27.6,61.5l-0.1,0.2h-30.6l-0.1-0.2
	c0-0.1-1.6-14.9-3.3-32.8l-3.3-32.6L250.2,90c-9.6,17.7-17.7,32.5-17.9,32.8l-0.3,0.6h-30.6L201.3,123.1z M250.1,77.8
	c11.7-21.4,21.4-39.1,21.6-39.5l0.4-0.6l0.1,0.2l0.1,0.1l3.9,38.7c2.1,21.3,3.9,39,4,39.3l0.1,0.6h21.2L325.9,62
	c13.5-30.1,24.5-54.8,24.6-55l0.1-0.3h-17.8l-17.6,39.5c-9.7,21.8-17.7,39.8-17.8,40l-0.2,0.3l-0.2-0.1l-0.1-0.2L295,47.9
	c-1.1-21.1-2-39-2.1-39.8l-0.1-1.4h-27.3l-19.7,39.8c-10.9,21.9-19.8,39.8-19.9,39.9l-0.2,0.1l-0.2-0.2V6.8h-17.9l0.1,27.4
	c0,15.1,0.1,39.8,0.2,55l0.1,27.5h20.9L250.1,77.8z"/>
</svg>
