<?xml version="1.0" encoding="UTF-8"?>
<svg xmlns="http://www.w3.org/2000/svg" width="431.999" height="77.614">
  <path data-name="Path 3157" d="m110.268 25.922 9.9 26.4 9.944-26.4h5.72v31.416h-3.96V31.202h-.088l-9.812 26.136h-3.564l-9.81-26.136h-.088v26.136h-3.96V25.922Z" fill="#386097"></path>
  <path data-name="Path 3158" d="M150.716 34.063q8.491 0 8.492 6.115V53.29q0 1.276 1.188 1.275a3.15 3.15 0 0 0 1.144-.22v2.9a5.425 5.425 0 0 1-2.684.616q-3.168 0-3.168-3.521a9.975 9.975 0 0 1-8.008 3.521 8.436 8.436 0 0 1-5.522-1.65 5.779 5.779 0 0 1-2-4.729 6.229 6.229 0 0 1 1.98-4.841q1.98-1.8 9.2-2.728a7.625 7.625 0 0 0 3.322-.946 2.184 2.184 0 0 0 .858-1.87q0-3.738-5.06-3.739a6.92 6.92 0 0 0-4.158 1.034 4.144 4.144 0 0 0-1.518 3.277h-3.74q.433-7.606 9.674-7.606Zm-6.6 17.159a2.927 2.927 0 0 0 1.144 2.464 5.237 5.237 0 0 0 3.256.88 8 8 0 0 0 4.994-1.5 4.391 4.391 0 0 0 1.958-3.564V45.59a5.972 5.972 0 0 1-2.64.924l-3.83.572a7.377 7.377 0 0 0-3.7 1.342 3.435 3.435 0 0 0-1.182 2.794Z" fill="#386097"></path>
  <path data-name="Path 3159" d="M176.015 34.063q7.832 0 7.832 8.14v15.135h-3.74V41.806a4.474 4.474 0 0 0-1.188-3.168 4.523 4.523 0 0 0-3.476-1.275 6.31 6.31 0 0 0-4.95 1.936 7.285 7.285 0 0 0-1.738 5.06v12.98h-3.74V34.59h3.52v3.608h.088a8.056 8.056 0 0 1 7.392-4.135Z" fill="#386097"></path>
  <path data-name="Path 3160" d="M199.873 34.063a9.571 9.571 0 0 1 7.656 3.277 12.877 12.877 0 0 1 2.816 8.69 12.591 12.591 0 0 1-2.838 8.58 9.514 9.514 0 0 1-7.546 3.256 10.5 10.5 0 0 1-4.136-.858 6.968 6.968 0 0 1-3.212-2.706h-.088v11.753h-3.74V34.59h3.74v3.08h.088q1.803-3.606 7.26-3.607Zm-7.48 11.879a9.774 9.774 0 0 0 1.87 6.293 6.405 6.405 0 0 0 5.3 2.331 5.992 5.992 0 0 0 5.035-2.311 10.413 10.413 0 0 0 1.782-6.49 9.261 9.261 0 0 0-1.914-6.071 6.339 6.339 0 0 0-5.17-2.332 6.168 6.168 0 0 0-5.038 2.288 9.662 9.662 0 0 0-1.87 6.291Z" fill="#386097"></path>
  <path data-name="Path 3161" d="M224.019 34.063a10.387 10.387 0 0 1 8.074 3.256 13.941 13.941 0 0 1 0 17.2 10.252 10.252 0 0 1-8.074 3.345 10.451 10.451 0 0 1-8.03-3.234 12.172 12.172 0 0 1-3.014-8.646 12.348 12.348 0 0 1 2.97-8.69 10.419 10.419 0 0 1 8.074-3.231Zm-7.084 11.924a9.366 9.366 0 0 0 1.98 6.2 6.666 6.666 0 0 0 10.186.022 9.281 9.281 0 0 0 2-6.226 9.464 9.464 0 0 0-1.98-6.227 6.365 6.365 0 0 0-5.148-2.4 6.269 6.269 0 0 0-5.038 2.42 9.409 9.409 0 0 0-2 6.2Z" fill="#386097"></path>
  <path data-name="Path 3162" d="m240.43 34.59 5.148 18.612h.088l4.576-18.612h4.092l4.8 18.612h.044l5.1-18.612h3.871l-7.216 22.7-.044.044h-3.96l-4.663-18.079h-.044l-4.576 18.084h-4.048l-7.3-22.748Z" fill="#386097"></path>
  <path data-name="Path 3163" d="M279.674 34.063a9.086 9.086 0 0 1 7.567 3.476 14.331 14.331 0 0 1 2.729 9.107v.44h-17.029v.264a7.247 7.247 0 0 0 1.892 5.258 6.882 6.882 0 0 0 5.192 1.958q4.884 0 5.9-4.443h3.7a9.187 9.187 0 0 1-3.3 5.786 10.243 10.243 0 0 1-6.424 1.958q-5.369 0-8.14-3.521a13.368 13.368 0 0 1-2.772-8.536 12.028 12.028 0 0 1 3.036-8.4 9.9 9.9 0 0 1 7.649-3.347Zm6.336 9.724a6.888 6.888 0 0 0-2-4.6 6.237 6.237 0 0 0-4.6-1.826 6.1 6.1 0 0 0-4.4 1.738 7.132 7.132 0 0 0-2.068 4.686Z" fill="#386097"></path>
  <path data-name="Path 3164" d="M305.766 34.063v3.96q-4.225 0-6.227 2.222t-2 6.93v10.163h-3.741V34.59h3.521v4.8h.088q2.6-5.323 7.832-5.323Z" fill="#386097"></path>
  <path data-name="Path 3165" d="M323.057 25.174a14.991 14.991 0 0 1 9.175 2.662 11.228 11.228 0 0 1 4.334 7.767h-4.181a7.843 7.843 0 0 0-3.036-5.126 10.347 10.347 0 0 0-6.292-1.782 9.609 9.609 0 0 0-7.832 3.607q-2.947 3.609-2.947 9.725a13.586 13.586 0 0 0 2.97 8.932 9.622 9.622 0 0 0 7.81 3.607 10.129 10.129 0 0 0 7.217-2.684 9.261 9.261 0 0 0 2.859-7.084v-.484h-10.036v-3.52h13.771v16.544h-2.64l-1.1-3.916a11.331 11.331 0 0 1-4.355 3.454 13.567 13.567 0 0 1-5.721 1.21 14.008 14.008 0 0 1-10.691-4.576 15.892 15.892 0 0 1-4.264-11.264q0-7.479 3.982-12.276t10.977-4.796Z" fill="#386097"></path>
  <path data-name="Path 3166" d="M353.87 34.063v3.96q-4.225 0-6.227 2.222t-2 6.93v10.163h-3.745V34.59h3.521v4.8h.088q2.6-5.323 7.832-5.323Z" fill="#386097"></path>
  <path data-name="Path 3167" d="M365.736 34.063a10.387 10.387 0 0 1 8.074 3.256 13.941 13.941 0 0 1 0 17.2 10.252 10.252 0 0 1-8.074 3.345 10.453 10.453 0 0 1-8.03-3.234 12.176 12.176 0 0 1-3.014-8.646 12.35 12.35 0 0 1 2.97-8.69 10.421 10.421 0 0 1 8.074-3.231Zm-7.084 11.924a9.366 9.366 0 0 0 1.98 6.2 6.666 6.666 0 0 0 10.186.022 9.281 9.281 0 0 0 2-6.226 9.464 9.464 0 0 0-1.979-6.227 6.365 6.365 0 0 0-5.148-2.4 6.269 6.269 0 0 0-5.038 2.42 9.409 9.409 0 0 0-2 6.2Z" fill="#386097"></path>
  <path data-name="Path 3168" d="M384.18 34.59v15.488a4.419 4.419 0 0 0 1.232 3.233 4.53 4.53 0 0 0 3.388 1.254 6.351 6.351 0 0 0 5.017-1.936 7.344 7.344 0 0 0 1.716-5.06V34.59h3.74v22.748h-3.521V53.73h-.088a7.875 7.875 0 0 1-7.392 4.137q-7.833 0-7.832-8.1V34.59Z" fill="#386097"></path>
  <path data-name="Path 3169" d="M415.244 34.063a9.572 9.572 0 0 1 7.656 3.277 12.876 12.876 0 0 1 2.815 8.69 12.593 12.593 0 0 1-2.838 8.58 9.512 9.512 0 0 1-7.546 3.256 10.5 10.5 0 0 1-4.136-.858 6.966 6.966 0 0 1-3.212-2.706h-.085v11.753h-3.74V34.59h3.74v3.08h.088q1.802-3.606 7.258-3.607Zm-7.48 11.879a9.774 9.774 0 0 0 1.87 6.293 6.406 6.406 0 0 0 5.3 2.331 5.991 5.991 0 0 0 5.038-2.31 10.41 10.41 0 0 0 1.782-6.49 9.261 9.261 0 0 0-1.914-6.071 6.337 6.337 0 0 0-5.17-2.332 6.168 6.168 0 0 0-5.038 2.288 9.662 9.662 0 0 0-1.87 6.291Z" fill="#386097"></path>
  <path data-name="Path 3170" d="M8.598 46.755a4.433 4.433 0 0 1-8.33-3.031l8.953-24.582a4.434 4.434 0 0 1 8.331 3.038L8.598 46.755Z" fill="#386097" fill-rule="evenodd"></path>
  <path data-name="Path 3171" d="M23.898 53.187a5.806 5.806 0 1 1-10.913-3.969l12.147-33.351a5.804 5.804 0 0 1 10.907 3.975Z" fill="#4c79af" fill-rule="evenodd"></path>
  <path data-name="Path 3172" d="M43.144 61.038a7.78 7.78 0 0 1-14.622-5.323l15.966-43.833a7.781 7.781 0 0 1 14.624 5.323Z" fill="#5c7d70" fill-rule="evenodd"></path>
  <path data-name="Path 3173" d="M67.315 70.846a10.291 10.291 0 0 1-19.34-7.038L68.754 6.771A10.289 10.289 0 1 1 88.09 13.81Z" fill="#c25700" fill-rule="evenodd"></path>
  <path data-name="Path 3174" d="M425.473 27.765a3.349 3.349 0 0 1 .736-1.067 3.433 3.433 0 0 1 1.085-.71 3.4 3.4 0 0 1 4.433 1.776 3.251 3.251 0 0 1 .271 1.33 3.328 3.328 0 0 1-.271 1.351 3.446 3.446 0 0 1-.729 1.076 3.3 3.3 0 0 1-1.076.709 3.531 3.531 0 0 1-2.625 0 3.328 3.328 0 0 1-1.085-.709 3.385 3.385 0 0 1-.736-1.076 3.328 3.328 0 0 1-.271-1.351 3.251 3.251 0 0 1 .268-1.329Zm.555 2.481a2.823 2.823 0 0 0 .588.917 2.716 2.716 0 0 0 .886.61 2.751 2.751 0 0 0 1.107.221 2.7 2.7 0 0 0 1.094-.221 2.728 2.728 0 0 0 .881-.61 2.811 2.811 0 0 0 .588-.917 3.058 3.058 0 0 0 .213-1.153 2.975 2.975 0 0 0-.213-1.13 2.743 2.743 0 0 0-1.469-1.514 2.7 2.7 0 0 0-1.094-.221 2.756 2.756 0 0 0-1.993.827 2.787 2.787 0 0 0-.588.908 2.989 2.989 0 0 0-.213 1.13 3.072 3.072 0 0 0 .213 1.153Zm2.789-3.114a1.617 1.617 0 0 1 1.044.28 1.037 1.037 0 0 1 .339.85.961.961 0 0 1-.3.782 1.342 1.342 0 0 1-.741.294l1.13 1.744h-.66l-1.075-1.7h-.651v1.7h-.615v-3.95Zm-.271 1.754q.209 0 .394-.014a1 1 0 0 0 .33-.077.519.519 0 0 0 .23-.194.663.663 0 0 0 .086-.366.569.569 0 0 0-.077-.316.529.529 0 0 0-.2-.181.875.875 0 0 0-.28-.086 2.264 2.264 0 0 0-.312-.022h-.814v1.256Z" fill="#386097"></path>
</svg>
