<?xml version="1.0" encoding="utf-8"?>
<!-- Generator: Adobe Illustrator 26.0.1, SVG Export Plug-In . SVG Version: 6.00 Build 0)  -->
<svg version="1.1" id="Layer_1" xmlns="http://www.w3.org/2000/svg" xmlns:xlink="http://www.w3.org/1999/xlink" x="0px" y="0px"
	 viewBox="0 0 444 90" style="enable-background:new 0 0 444 90;" xml:space="preserve">
<style type="text/css">
	.st0{fill:#386097;}
	.st1{fill-rule:evenodd;clip-rule:evenodd;fill:#386097;}
	.st2{fill-rule:evenodd;clip-rule:evenodd;fill:#4C79AF;}
	.st3{fill-rule:evenodd;clip-rule:evenodd;fill:#5C7D70;}
	.st4{fill-rule:evenodd;clip-rule:evenodd;fill:#C25700;}
</style>
<path class="st0" d="M116.2695312,32.1171265l9.8999023,26.4003906l9.9438477-26.4004059h5.7202148v31.4160004h-3.9600067
	V37.3974152h-0.0883789l-9.8119965,26.1357269h-3.5639954l-9.8119965-26.1357422h-0.0878906v26.1357422h-3.9600067V32.1171417
	L116.2695312,32.1171265z"/>
<path class="st0" d="M156.7177734,40.2577667c5.6606598,0,8.491394,2.0384216,8.4921875,6.1152344v13.1122894
	c0,0.8505859,0.3959961,1.2757263,1.1880035,1.2753906c0.3915253-0.0015259,0.7793427-0.0760498,1.1435547-0.2197266v2.9042969
	c-0.8266449,0.4327698-1.7509613,0.6450195-2.6835938,0.6162109c-2.1123047,0-3.1683044-1.1734924-3.1679993-3.5205078
	c-1.9850464,2.3438721-4.9392242,3.6425476-8.0083008,3.5205078c-1.9773407,0.1151428-3.9321442-0.4690857-5.5220032-1.6503906
	c-1.3697052-1.177063-2.1103668-2.9267578-2.0019989-4.7294922c-0.0821381-1.8259277,0.6417847-3.5958252,1.9799957-4.8408203
	c1.3198242-1.2021484,4.3850861-2.1113281,9.1958008-2.7275391c1.1652374-0.0570984,2.3018188-0.3808594,3.3222656-0.9462891
	c0.5801392-0.4411469,0.901947-1.1426392,0.8579102-1.8701172c0-2.4921875-1.6866913-3.7386017-5.0600586-3.7392578
	c-1.4604187-0.1038055-2.9161224,0.2582855-4.1577148,1.0341797c-0.9805298,0.8028564-1.5397949,2.0102386-1.5180664,3.2773438
	h-3.7401581C147.3305664,42.7948761,150.5572968,40.2577667,156.7177734,40.2577667z M150.1176758,57.4169312
	c-0.0458832,0.9592285,0.3816223,1.8799438,1.1439972,2.4638672c0.9585571,0.6443176,2.103241,0.9536438,3.2558594,0.8798828
	c1.7850037,0.0736389,3.5432434-0.4527283,4.9941406-1.4951172c1.19664-0.7961426,1.9279633-2.1274719,1.9579926-3.5644531
	v-3.9159851c-0.7944946,0.5126038-1.6993713,0.8292236-2.6401367,0.9238281l-3.8276367,0.5722656
	c-1.3307953,0.1046143-2.6082916,0.5683594-3.6962891,1.3417969
	C150.4972839,55.3193359,150.0583344,56.3516846,150.1176758,57.4169312z"/>
<path class="st0" d="M182.0170898,40.2577667c5.2211914,0,7.8318634,2.7132263,7.8320007,8.1396484v15.1357269h-3.7397461
	V48.0009155c0.0339203-1.1707916-0.3926086-2.308197-1.1880035-3.1679993
	c-0.9236603-0.9015961-2.1884918-1.3656769-3.4760742-1.2753906c-1.8545685-0.1152039-3.6656342,0.592926-4.9501953,1.9355469
	c-1.1999207,1.4051208-1.821106,3.2136993-1.737793,5.0595703v12.9804688h-3.7402344V40.7851105h3.5200043v3.6083984h0.0878906
	C176.1068878,41.7262115,178.9686432,40.1251373,182.0170898,40.2577667z"/>
<path class="st0" d="M205.8745117,40.2577667c2.9183502-0.1331787,5.7377472,1.073761,7.6557617,3.2773438
	c1.9691772,2.455307,2.9709015,5.5468292,2.815918,8.6904144c0.1483917,3.1126709-0.8627472,6.1697693-2.8378906,8.5800781
	c-1.8926392,2.1717529-4.6673889,3.368988-7.5458984,3.2558594c-1.4226532-0.0029602-2.8298798-0.2949829-4.1362305-0.8583984
	c-1.3234558-0.5502319-2.4450378-1.4951782-3.2119141-2.7060547h-0.0878906v11.7479858h-3.7397461V40.7850037h3.7397461v3.0800781
	h0.0878906C199.8168945,41.4608612,202.2369843,40.2584076,205.8745117,40.2577667z M198.394516,52.1366882
	c-0.1209564,2.2504883,0.5395355,4.4736328,1.8696289,6.2929993c1.295105,1.5773621,3.264389,2.4431458,5.3022461,2.3310547
	c1.9558716,0.0996704,3.8370361-0.7626953,5.0380859-2.3095703c1.295929-1.9065552,1.9225922-4.1892395,1.7817383-6.4902344
	c0.0994415-2.1863403-0.5786591-4.3372803-1.9140625-6.0712738c-1.260025-1.5479584-3.1755676-2.4120026-5.1699219-2.3320007
	c-1.9464417-0.075592-3.814209,0.7726746-5.0380859,2.2880859c-1.3381195,1.8145905-1.9994965,4.0400238-1.8696136,6.2909088
	L198.394516,52.1366882z"/>
<path class="st0" d="M230.0205078,40.2577667c3.0383301-0.1494446,5.9894409,1.0405731,8.0742188,3.2558594
	c3.9598389,5.050766,3.9598389,12.152359,0,17.2031097c-2.0575867,2.2637024-5.0185852,3.4902954-8.0742188,3.3447266
	c-3.01828,0.1331482-5.9464874-1.0463257-8.0297852-3.234375c-2.0915985-2.3797302-3.1729126-5.4812317-3.0141602-8.6455078
	c-0.1640472-3.170929,0.8996735-6.2832184,2.9702148-8.6904297
	C224.0379791,41.2879028,226.9866028,40.1070404,230.0205078,40.2577667z M222.9365082,52.1816101
	c-0.1029663,2.2380066,0.5996857,4.4388123,1.9804688,6.203125c2.3695221,2.8179016,6.5747528,3.1813965,9.3926544,0.8118896
	c0.2859497-0.240448,0.551178-0.5045166,0.7929077-0.7894287c1.4005432-1.7635803,2.1120911-3.9762268,2.0020142-6.2255859
	c0.1002502-2.2447205-0.6014404-4.4518738-1.9795532-6.2266083c-1.244751-1.562912-3.151123-2.4506531-5.1484375-2.3974762
	c-1.9659119-0.0280304-3.8311157,0.8678741-5.0380859,2.4199371c-1.3853455,1.763382-2.0953217,3.9635773-2.0019531,6.2041168
	L222.9365082,52.1816101z"/>
<path class="st0" d="M246.4316406,40.7850952l5.1484375,18.6123047h0.0878906l4.5761719-18.6123047h4.0917969l4.7958984,18.6123047
	h0.0439453l5.1044922-18.6123047h3.8710938l-7.2158203,22.7041016l-0.0439453,0.0439453h-3.9599915l-4.6640625-18.0839996
	h-0.0439453l-4.5761719,18.0839996h-4.0478516l-7.3037109-22.7480011L246.4316406,40.7850952z"/>
<path class="st0" d="M285.6757812,40.2577667c2.9361572-0.1337128,5.7555847,1.1612244,7.5673828,3.4755859
	c1.919342,2.6368866,2.8818359,5.8495636,2.7285156,9.1074066v0.4404297h-17.0283203v0.2636719
	c-0.0976868,1.9349976,0.5835571,3.8285522,1.8916016,5.2578125c1.379303,1.3524475,3.2634888,2.0629578,5.1923828,1.9580078
	c3.2558594,0,5.221344-1.4811096,5.8964844-4.4433594h3.6953125c-0.3374329,2.2735901-1.514801,4.3381042-3.2998047,5.7861328
	c-1.8603821,1.3560181-4.1233521,2.0457764-6.4238281,1.9580078c-3.5791016,0-6.2923279-1.1734924-8.1396484-3.5205078
	c-1.8802185-2.4408569-2.8595886-5.4562683-2.7724609-8.5361328c-0.1044922-3.0870361,0.9826355-6.0959625,3.0361328-8.4033203
	C279.9532776,41.411911,282.7553711,40.1881561,285.6757812,40.2577667z M292.0117188,49.9813843
	c-0.065979-1.72966-0.7807312-3.3710632-2.0020142-4.5976562c-1.2155457-1.2166901-2.8795471-1.8774719-4.5986328-1.8261871
	c-1.640564-0.0358124-3.2264099,0.5907745-4.3994141,1.7382965c-1.2458191,1.2518616-1.9828491,2.9214783-2.0683594,4.6855469
	H292.0117188z"/>
<path class="st0" d="M311.7675781,40.2577667v3.9600067c-2.8164062,0-4.8919373,0.7405548-6.2265625,2.2216797
	c-1.3349609,1.4814453-2.0022888,3.7913513-2.0020142,6.9296875v10.1640625h-3.7402344V40.785202h3.5205078v4.7958984h0.0878906
	c1.7304688-3.5488281,4.3411255-5.3232422,7.8320007-5.3232422L311.7675781,40.2577667z"/>
<path class="st0" d="M329.0585938,31.3690948c3.2667542-0.1369171,6.488678,0.7979431,9.1748047,2.6621094
	c2.4521179,1.881958,4.0199585,4.6915436,4.3340149,7.7666016h-4.1806641
	c-0.2984009-2.0415039-1.3892517-3.8832092-3.0361328-5.1260071c-1.8495178-1.2586517-4.0571289-1.8839722-6.2919922-1.7822266
	c-3.033905-0.1021118-5.9376831,1.2353668-7.8320007,3.6074219c-1.9648132,2.40625-2.9472351,5.6477814-2.9472656,9.7246094
	c-0.105957,3.2359467,0.9472046,6.4033661,2.9697266,8.9316254c1.8908081,2.3639832,4.783844,3.7003784,7.8095703,3.6074219
	c2.6650696,0.090332,5.2582397-0.8739624,7.2167969-2.6835938c1.9280701-1.8398743,2.9700012-4.4212341,2.859375-7.0840149
	v-0.484375h-10.031311v-3.5194702H342.875v16.5439453h-2.6396484l-1.1005859-3.9159851
	c-1.1424866,1.4951477-2.6393738,2.682251-4.3554688,3.4541016c-1.7962952,0.8143311-3.7485352,1.2272644-5.7207031,1.2099915
	c-4.0585632,0.0959778-7.959137-1.5735474-10.6914062-4.5761719c-2.8457336-3.0489807-4.3788452-7.0944519-4.2685547-11.2636871
	c0-4.9863129,1.3274841-9.0784302,3.9824219-12.2763519C320.7353516,32.9687042,324.3945312,31.3700714,329.0585938,31.3690948z"/>
<path class="st0" d="M359.8720703,40.2577667v3.9600067c-2.8164062,0-4.8919373,0.7405548-6.2265625,2.2216797
	c-1.3349609,1.4814453-2.0022888,3.7913513-2.0020142,6.9296875v10.1640625h-3.7402344V40.785202h3.5205078v4.7958984h0.0878906
	c1.7304382-3.5488281,4.3411255-5.3232422,7.8320007-5.3232422L359.8720703,40.2577667z"/>
<path class="st0" d="M371.7382812,40.2577667c3.0383301-0.1494446,5.9894409,1.0405731,8.0742188,3.2558594
	c3.9598389,5.0507507,3.9598389,12.152359,0,17.2031097c-2.0575867,2.2637024-5.0185852,3.4902954-8.0742188,3.3447266
	c-3.0184021,0.1330566-5.9467163-1.0463867-8.0302734-3.234375c-2.0910645-2.3800354-3.1721191-5.4813538-3.0136719-8.6455078
	c-0.1639709-3.1708374,0.8995361-6.2830505,2.9697266-8.6904297
	C365.7555237,41.2879791,368.7042236,40.1071472,371.7382812,40.2577667z M364.6542664,52.1816101
	c-0.1029663,2.2380371,0.5996704,4.4388123,1.9804688,6.203125c2.3695068,2.8179016,6.5747375,3.1813965,9.3926392,0.8118896
	c0.2859497-0.240448,0.551178-0.5045471,0.7929077-0.7894287c1.4005432-1.7635803,2.1120911-3.9762268,2.0020142-6.2255859
	c0.1002502-2.2446899-0.6014099-4.4518433-1.9794922-6.2265625c-1.244751-1.562912-3.151123-2.4506531-5.1484375-2.3974762
	c-1.9659119-0.0280304-3.8311157,0.8678741-5.0380859,2.4199371c-1.3853455,1.7633667-2.0953369,3.963562-2.0019836,6.204071
	L364.6542664,52.1816101z"/>
<path class="st0" d="M390.1816406,40.7850952v15.4882812c-0.0457764,1.2005005,0.3992004,2.3679199,1.2324219,3.2333984
	c0.9065552,0.8695679,2.1334534,1.3237,3.3876953,1.2539062c1.8763123,0.1295166,3.7135315-0.5793457,5.0166016-1.9355469
	c1.1868286-1.4113159,1.7993164-3.2174377,1.7158203-5.0595703V40.7850952h3.7402344v22.7479858h-3.5205078v-3.6083984h-0.0879211
	c-1.4493713,2.6993713-4.3327942,4.3130798-7.3916016,4.1367188c-5.2216797,0-7.8323364-2.6988831-7.8320007-8.0966797V40.7850952
	H390.1816406z"/>
<path class="st0" d="M421.2460938,40.2577667c2.9184875-0.1331787,5.7380371,1.073761,7.65625,3.2773438
	c1.9690247,2.455368,2.9705811,5.5468903,2.8154297,8.6904144c0.1481628,3.1126404-0.8629456,6.1696777-2.8378906,8.5800781
	c-1.8925171,2.171936-4.6673584,3.3692017-7.5458984,3.2558594c-1.4225159-0.0028992-2.8295898-0.2949524-4.1357422-0.8583984
	c-1.3235474-0.5501099-2.4451599-1.4950867-3.2119141-2.7060547h-0.0878906v11.7479858h-3.7402344V40.7850037h3.7402344v3.0800781
	h0.0878906C415.1884766,41.4608612,417.6083984,40.2584076,421.2460938,40.2577667z M413.765625,52.1366882
	c-0.1208191,2.2505493,0.539856,4.4736938,1.8701172,6.2929993c1.295105,1.5771179,3.2640991,2.4428406,5.3017578,2.3310547
	c1.9559021,0.099884,3.8371582-0.7625122,5.0380859-2.3095703c1.2963257-1.9064026,1.9231567-4.1891785,1.7822266-6.4902344
	c0.0994568-2.1863403-0.5786743-4.3372803-1.9140625-6.0712738c-1.2598877-1.5481262-3.1755371-2.4122009-5.1699219-2.3320007
	c-1.9464417-0.075592-3.814209,0.7726746-5.0380859,2.2880859c-1.3382874,1.8145294-1.9998474,4.0399628-1.8701172,6.2909088
	V52.1366882z"/>
<path class="st1" d="M14.6017685,52.9522095c-0.8385429,2.3005066-3.3832321,3.4856262-5.6837234,2.6470947
	c-2.2992287-0.8380737-3.4845695-3.3806152-2.6482773-5.680481l8.9529991-24.5818634
	c0.8423538-2.2992859,3.3891602-3.4803619,5.688446-2.6380157c2.2945099,0.8406067,3.4763298,3.3792419,2.6424751,5.6762085
	l-8.951931,24.5769958L14.6017685,52.9522095z"/>
<path class="st2" d="M29.897541,59.3822021c-1.0960732,3.0135498-4.427578,4.5679626-7.4411201,3.4718933
	c-3.0135384-1.0960999-4.5679512-4.4275818-3.4718781-7.4411316l0,0l12.1492004-33.3509979
	c1.1074524-3.008316,4.4439468-4.5492706,7.4522629-3.4418182c2.9945068,1.102356,4.5376205,4.4152222,3.4547348,7.4168243
	L29.897541,59.3822021z"/>
<path class="st3" d="M49.1460037,67.2333069c-1.4764175,4.0353088-5.9445648,6.1097107-9.9798737,4.6332703
	c-4.0261993-1.4730835-6.102005-5.9256287-4.6417847-9.9565125l15.9651718-43.8326263
	c1.4696808-4.0382996,5.9347839-6.1205902,9.9730835-4.6509094c4.0383072,1.4696808,6.1205978,5.9347839,4.6509171,9.9730835
	L49.1460037,67.2333069z"/>
<path class="st4" d="M73.3170929,77.040863c-1.9472275,5.3393555-7.8541718,8.0892334-13.1935349,6.1419983
	c-5.3341217-1.9453125-8.0848007-7.8432617-6.146904-13.1800842l20.7794113-57.036438
	c1.9438171-5.339386,7.8480148-8.0920258,13.1873932-6.1482086s8.0920258,7.8480072,6.1482086,13.1873932L73.3170929,77.040863z"/>
<path class="st0" d="M431.4745178,33.9601288c0.173645-0.4001007,0.4237671-0.7624207,0.7363281-1.0666046
	c0.3132935-0.3033905,0.6815186-0.5443115,1.0849915-0.7098541c1.7149353-0.722641,3.6920166,0.0695801,4.4334412,1.776474
	c0.1826172,0.418869,0.2748413,0.8715515,0.2707214,1.328476c0.0050354,0.464386-0.0871582,0.9246826-0.2706909,1.3512878
	c-0.1734314,0.401825-0.4218445,0.7669373-0.7319336,1.0758057c-0.3085632,0.3049774-0.6742554,0.5460815-1.0761719,0.7094727
	c-0.8425903,0.3374023-1.7827454,0.3374023-2.6253357,0c-0.4046631-0.1630859-0.7733154-0.4041443-1.0849915-0.7094727
	c-0.3128357-0.3074951-0.5629272-0.6728821-0.7363281-1.0758057c-0.1837769-0.4265594-0.2762451-0.8868561-0.2714233-1.3512878
	C431.1992188,34.8316345,431.291687,34.3789673,431.4745178,33.9601288z M432.0299072,36.4412994
	c0.134491,0.3410339,0.334137,0.6525879,0.587738,0.9172974c0.2515869,0.2604065,0.5527039,0.467865,0.8856506,0.6101837
	c0.3497314,0.1495514,0.7266846,0.2249451,1.1070557,0.221405c0.3760681,0.0033417,0.7486572-0.0720825,1.0938416-0.221405
	c0.3312073-0.1431122,0.6307373-0.3505096,0.8812561-0.6101837c0.2538452-0.2645111,0.4535217-0.5761261,0.587738-0.9172974
	c0.1445312-0.3669281,0.2167053-0.7583466,0.2125854-1.1526794c0.0032654-0.3868713-0.0689392-0.7706604-0.2125854-1.1298828
	c-0.2683411-0.6802368-0.7971497-1.2251892-1.4689941-1.513855c-0.3451843-0.1493225-0.7177734-0.2247467-1.0938416-0.221405
	c-0.7490234-0.0066833-1.4684753,0.2918243-1.9927368,0.8268127c-0.2533875,0.2615204-0.4530334,0.5701599-0.587738,0.9084625
	c-0.1433105,0.3593292-0.2154846,0.743042-0.2125854,1.1298828
	C431.8135376,35.6829376,431.8857117,36.0742798,432.0299072,36.4412994z M434.8185425,33.3271484
	c0.3697815-0.0290375,0.7383118,0.0699158,1.0438232,0.2802582c0.2385864,0.2153625,0.3638306,0.5291748,0.3391113,0.8496246
	c0.0252991,0.2924652-0.0844116,0.5804443-0.2979126,0.7819366c-0.2116699,0.1708069-0.4702454,0.2733002-0.7414856,0.293869
	l1.1298828,1.7444611h-0.6598206l-1.0754395-1.6992188h-0.651001v1.6992188h-0.6149902v-3.9501495H434.8185425z
	 M434.5471191,35.0808105c0.1390076,0,0.269989-0.0044098,0.3935547-0.0136108
	c0.113678-0.0066071,0.2253723-0.032608,0.3302917-0.0768738c0.0942383-0.0405579,0.1743774-0.1081238,0.2302551-0.1941833
	c0.0634766-0.1112366,0.0933533-0.2384796,0.0860596-0.366333c0.0055847-0.1107025-0.0212402-0.2206421-0.07724-0.3163147
	c-0.0495605-0.0762787-0.117981-0.1384735-0.1986084-0.1805878c-0.0879211-0.0442352-0.1826782-0.0733337-0.2802734-0.0860596
	c-0.1033325-0.0146637-0.2075195-0.0221558-0.3118896-0.0224457h-0.8135681v1.2563934L434.5471191,35.0808105z"/>
</svg>
