<?xml version="1.0" encoding="UTF-8" standalone="no"?><!DOCTYPE svg PUBLIC "-//W3C//DTD SVG 1.1//EN" "http://www.w3.org/Graphics/SVG/1.1/DTD/svg11.dtd"><svg width="100%" height="100%" viewBox="0 0 1410 404" version="1.1" xmlns="http://www.w3.org/2000/svg" xmlns:xlink="http://www.w3.org/1999/xlink" xml:space="preserve" xmlns:serif="http://www.serif.com/" style="fill-rule:evenodd;clip-rule:evenodd;stroke-miterlimit:10;"><path d="M66.8,79.9l-38.8,192l76.7,0l19.3,-98.6c2.7,-13.9 6.2,-25.1 11.5,-30.9c5.3,-5.9 9.6,-11.3 22,-11c12.7,0.4 18.8,6.8 19.9,17.8c0.7,6.6 -0.8,14.6 -2.7,23.4l-21,99.3l77.8,0.1l19.5,-98.7c2.4,-12.1 4.5,-25.7 14,-34.6c4.7,-4.4 11.3,-7.3 18.5,-7.6c14.1,-0.6 24.1,12.4 20.8,28.3l-23.8,112.5l77.2,0l24.4,-115.3c2.1,-10.1 3.5,-19.3 3.5,-27.3c0.1,-30.9 -27.7,-57.7 -65.2,-57.2c-25,0.3 -45.8,10.2 -66.7,34.6c-11.2,-29.9 -34.3,-34.3 -53.6,-34.6c-26,-0.4 -51.9,12.9 -63.9,33.7l0.3,-25.8l-69.7,-0.1Z" style="fill:#ff0000;"/><path d="M503.2,216.5c-5.6,5.6 -12.8,10.1 -21.1,12.1c-14.6,3.4 -31,-1.1 -30.1,-14.7c1.3,-20.9 32.9,-24.1 44.2,-26.1c11.3,-2 15.4,-2.5 21,-3.9c-1.8,16.6 -6.7,25.4 -14,32.6Zm-24.7,-73.2c5.1,-14.4 16.2,-24.2 34.1,-24.2c8.9,0 18.4,2.6 17.8,14.5c-0.3,6.1 -5.2,11.8 -13.3,13.4c-15.9,3.2 -41.2,3.7 -58,6c-21.2,3 -46,8.4 -60.8,22.6c-10.7,10.2 -17.6,23.6 -18.4,42.7c-1.3,33.2 28.1,57.6 65.2,57.5c27.6,-0.1 50.8,-11.4 57.6,-19.8l0,15.8l79.5,0l-1.3,-3.5c-1.8,-6 -4.5,-12.1 -1.1,-27.5l19.8,-90.6c4.1,-18.6 4.3,-38.6 -8.3,-54c-11.4,-13.9 -38,-23.2 -67.6,-24.2c-41.2,-1.4 -71.6,6.1 -90,18.1c-20.5,13.3 -28.8,35.5 -30.1,53.2l74.9,0Z" style="fill:#ff0000;"/><path d="M619.5,80.1l-8.6,43.3l23.8,0l-20.1,89.9c-9,40.2 8.7,58.6 53.9,58.6c13,0 25.8,0 39.3,0l8.7,-54.1c-20.3,-2.4 -27.9,1.2 -23.8,-19.9l14.4,-74.7l31,0l8.6,-43l-31.8,0l13.3,-58.3l-16.3,0c-24.1,18.4 -40.3,31.3 -62.6,33.9l-5.5,24.2l-24.3,0l0,0.1Z" style="fill:#ff0000;"/><path d="M1165.8,154.1l-77.3,0c1.3,-14.2 -3.2,-25.7 -21.6,-25.2c-21.5,-1.7 -33,19.8 -37.3,43c-3.9,16.5 -5,49.8 23,47.1c17.2,-0.3 25.4,-14 29.5,-30.7l77.5,0c-10.8,46.2 -35.7,90.6 -111.4,88.1c-60.1,0 -104.5,-37.2 -96.7,-99.5c8,-63.6 51.4,-104.9 120.1,-104.9c37.7,0 83.9,10 92.5,53.4c1.7,9 2.3,18.3 1.7,28.7Z" style="fill:#ff0000;"/><path d="M870.8,150.8l-58.5,0c4.4,-15.2 16.9,-26.2 32.2,-26.2c21.6,0.1 27.3,12.1 26.3,26.2Zm-68.6,43.1c-3.8,16.1 7.3,29.8 25.8,30.2c13.8,0.3 23.7,-5.5 29.4,-14.4l74.4,0c-15.9,52.8 -73.3,69.4 -109.2,66.3c-70.2,0.5 -100.2,-38.5 -94.7,-98.6c6,-63.6 62.4,-107.7 121.3,-104.8c60.9,-0.6 96.4,25.9 92,101.3c-0.7,6.5 -1.7,14 -3,20l-136,0Z" style="fill:#ff0000;"/><path d="M1308.3,175.7c-4.8,21.4 -12.4,46.4 -38,47.2c-29.3,1 -26.9,-33.5 -24.1,-48.9c4.2,-22.3 17,-50.3 39.9,-50.3c25.5,0 27.1,30.2 22.2,52Zm-18.9,-103.7c-70.4,0.6 -113.9,42.7 -119.7,106c-5.6,61.1 23.6,97.5 93.8,98.4c69.8,0.9 111.8,-40.7 122.3,-103.9c11.9,-72.3 -34.1,-101 -96.4,-100.5Z" style="fill:#ff0000;"/><g><path d="M52.6,320.2l4.9,0l8.6,47.1l-4.7,0l-2.4,-14.7l-21.5,0l-8.7,14.7l-5,0l28.8,-47.1Zm-12.9,28.7l18.6,0l-4,-24.8l-0.1,0l-14.5,24.8Z" style="fill-rule:nonzero;stroke:#000;stroke-width:1.5px;"/><path d="M105.2,320.2l4.5,0l-9.3,43.3l26.1,0l-0.9,3.8l-30.6,0l10.2,-47.1Z" style="fill-rule:nonzero;stroke:#000;stroke-width:1.5px;"/><path d="M197.4,368.8l-2.6,2.7l-6.6,-6.2c-3.4,1.9 -7.4,3 -12,3c-12.3,0 -19.3,-8.2 -19.3,-20.1c0,-15 9.4,-29 25.6,-29c12,0 19.5,7.9 19.5,19.7c0,9.7 -3.7,18.9 -10.6,24.3l6,5.6Zm-15,-14l5.9,5.5c5.9,-4.6 9.2,-12.6 9.2,-20.3c0,-9.8 -4.8,-17 -15.1,-17c-14.2,0 -21.1,12.8 -21.1,25.6c0,9.6 5.8,15.8 15.6,15.8c3,0 5.8,-0.8 8.2,-2.1l-5.3,-4.9l2.6,-2.6Z" style="fill-rule:nonzero;stroke:#000;stroke-width:1.5px;"/><path d="M237.8,320.2l4.5,0l-6.3,30c-0.3,1.4 -0.5,2.6 -0.5,4.1c-0.3,6.9 5.1,10.2 12.9,10.2c8.4,0 13.6,-4.5 15.2,-12.4l6.7,-31.9l4.5,0l-6.7,32.2c-2.3,11.1 -9.5,15.9 -20.3,15.9c-8.2,0 -16.8,-3.7 -16.8,-13.5c0,-1 0.1,-2.3 0.4,-3.8l6.4,-30.8Z" style="fill-rule:nonzero;stroke:#000;stroke-width:1.5px;"/><path d="M309.1,320.2l4.5,0l-10,47.1l-4.5,0l10,-47.1Z" style="fill-rule:nonzero;stroke:#000;stroke-width:1.5px;"/><path d="M348.3,320.2l4.5,0l-9.3,43.3l26.1,0l-0.9,3.8l-30.5,0l10.1,-47.1Z" style="fill-rule:nonzero;stroke:#000;stroke-width:1.5px;"/><path d="M408.1,320.2l31.6,0l-0.9,3.8l-27.1,0l-3.6,17l25.3,0l-0.9,3.8l-25.2,0l-4,18.6l27.7,0l-0.9,3.8l-32.1,0l10.1,-47Z" style="fill-rule:nonzero;stroke:#000;stroke-width:1.5px;"/><path d="M470.4,320.2l20.1,0c7.9,0 12.3,4 12.3,11.7c0,6.9 -5,12.4 -11.9,12.9l0,0.1c4.4,0.9 6,4.2 6,8.4c0,3.3 -0.7,6.6 -0.7,9.8c0,1.1 0.1,3.2 0.8,4.1l-4.6,0c-0.5,-0.3 -0.7,-4.4 -0.7,-4.8c0,-2.8 0.7,-5.7 0.7,-8.4c0,-4.5 -1.6,-7.7 -6.5,-7.7l-16.6,0l-4.4,20.9l-4.5,0l10,-47Zm-0.3,22.4l15.9,0c6.8,0 12.3,-3.3 12.3,-10.3c0,-5.5 -2.3,-8.2 -8.1,-8.2l-16.2,0l-3.9,18.5Z" style="fill-rule:nonzero;stroke:#000;stroke-width:1.5px;"/><path d="M580.5,320.2l15.2,0c13.5,0 18,7.5 18,18.9c0,14.8 -8.9,28.2 -25.8,28.2l-17.6,0l10.2,-47.1Zm-4.9,43.3l11.4,0c15.6,0.1 22.2,-12.2 22.2,-25.3c0,-9.4 -4.8,-14.2 -14.2,-14.2l-10.8,0l-8.6,39.5Z" style="fill-rule:nonzero;stroke:#000;stroke-width:1.5px;"/><path d="M650,320.2l31.6,0l-0.9,3.8l-27.1,0l-3.6,17l25.3,0l-0.9,3.8l-25.2,0l-4,18.6l27.8,0l-0.9,3.8l-32.2,0l10.1,-47Z" style="fill-rule:nonzero;stroke:#000;stroke-width:1.5px;"/><path d="M755,320.2l6.5,0l7.3,42.3l25.9,-42.3l6.5,0l-10.1,47.1l-4.4,0l9.7,-42.6l-0.1,0l-26.1,42.6l-4.5,0l-7.6,-43.3l-0.1,0l-8.9,43.3l-4.4,0l10.3,-47.1Z" style="fill-rule:nonzero;stroke:#000;stroke-width:1.5px;"/><path d="M849.2,320.2l4.9,0l8.6,47.1l-4.7,0l-2.4,-14.7l-21.5,0l-8.7,14.7l-5,0l28.8,-47.1Zm-12.9,28.7l18.7,0l-4,-24.8l-0.1,0l-14.6,24.8Z" style="fill-rule:nonzero;stroke:#000;stroke-width:1.5px;"/><path d="M934.1,368.8l-2.6,2.7l-6.6,-6.2c-3.4,1.9 -7.4,3 -12,3c-12.3,0 -19.3,-8.2 -19.3,-20.1c0,-15 9.4,-29 25.6,-29c12,0 19.5,7.9 19.5,19.7c0,9.7 -3.7,18.9 -10.6,24.3l6,5.6Zm-15,-14l5.9,5.5c5.9,-4.6 9.2,-12.6 9.2,-20.3c0,-9.8 -4.8,-17 -15.1,-17c-14.2,0 -21.1,12.8 -21.1,25.6c0,9.6 5.8,15.8 15.6,15.8c3,0 5.8,-0.8 8.2,-2.1l-5.3,-4.9l2.6,-2.6Z" style="fill-rule:nonzero;stroke:#000;stroke-width:1.5px;"/><path d="M974.5,320.2l4.5,0l-6.3,30c-0.3,1.4 -0.5,2.6 -0.5,4.1c-0.3,6.9 5.1,10.2 12.9,10.2c8.4,0 13.6,-4.5 15.2,-12.4l6.7,-31.9l4.5,0l-6.7,32.2c-2.3,11.1 -9.5,15.9 -20.3,15.9c-8.3,0 -16.8,-3.7 -16.8,-13.5c0,-1 0.1,-2.3 0.4,-3.8l6.4,-30.8Z" style="fill-rule:nonzero;stroke:#000;stroke-width:1.5px;"/><path d="M1045.8,320.2l4.5,0l-10,47.1l-4.5,0l10,-47.1Z" style="fill-rule:nonzero;stroke:#000;stroke-width:1.5px;"/><path d="M1084.8,320.2l5.1,0l18.8,42.1l0.1,0l8.7,-42.1l4.4,0l-10.3,47.1l-5,0l-18.8,-42.1l-0.1,0l-8.8,42.1l-4.3,0l10.2,-47.1Z" style="fill-rule:nonzero;stroke:#000;stroke-width:1.5px;"/><path d="M1169.4,320.2l4.9,0l8.6,47.1l-4.7,0l-2.4,-14.7l-21.5,0l-8.7,14.7l-5,0l28.8,-47.1Zm-12.9,28.7l18.6,0l-4,-24.8l-0.1,0l-14.5,24.8Z" style="fill-rule:nonzero;stroke:#000;stroke-width:1.5px;"/><path d="M1221.8,320.2l20.1,0c7.9,0 12.3,4 12.3,11.7c0,6.9 -5,12.4 -11.9,12.9l0,0.1c4.4,0.9 6,4.2 6,8.4c0,3.3 -0.7,6.6 -0.7,9.8c0,1.1 0.1,3.2 0.8,4.1l-4.6,0c-0.5,-0.3 -0.7,-4.4 -0.7,-4.8c0,-2.8 0.7,-5.7 0.7,-8.4c0,-4.5 -1.6,-7.7 -6.5,-7.7l-16.6,0l-4.4,20.9l-4.5,0l10,-47Zm-0.2,22.4l15.9,0c6.8,0 12.3,-3.3 12.3,-10.3c0,-5.5 -2.3,-8.2 -8.1,-8.2l-16.2,0l-3.9,18.5Z" style="fill-rule:nonzero;stroke:#000;stroke-width:1.5px;"/><path d="M1289,320.2l4.5,0l-10,47.1l-4.5,0l10,-47.1Z" style="fill-rule:nonzero;stroke:#000;stroke-width:1.5px;"/><path d="M1341.6,320.2l4.9,0l8.6,47.1l-4.7,0l-2.4,-14.7l-21.5,0l-8.7,14.7l-5,0l28.8,-47.1Zm-12.8,28.7l18.6,0l-4,-24.8l-0.1,0l-14.5,24.8Z" style="fill-rule:nonzero;stroke:#000;stroke-width:1.5px;"/></g></svg>