<?xml version="1.0" encoding="utf-8"?>
<!-- Generator: Adobe Illustrator 16.0.4, SVG Export Plug-In . SVG Version: 6.00 Build 0)  -->
<!DOCTYPE svg PUBLIC "-//W3C//DTD SVG 1.1//EN" "http://www.w3.org/Graphics/SVG/1.1/DTD/svg11.dtd">
<svg version="1.1" id="Layer_1" xmlns="http://www.w3.org/2000/svg" xmlns:xlink="http://www.w3.org/1999/xlink" x="0px" y="0px"
	 width="360px" height="100px" viewBox="0 0 360 100" enable-background="new 0 0 360 100" xml:space="preserve">
<path fill-rule="evenodd" clip-rule="evenodd" fill="#FF0000" d="M30.569,67.537c-6.344,0-12.66,0-19.116,0
	c3.245-16.068,6.476-32.069,9.699-48.033c0.741-0.207,16.388-0.245,17.414-0.047c0,1.992,0,4.003,0,6.216
	c0.271-0.273,0.421-0.387,0.524-0.534c3.227-4.617,7.77-6.943,13.256-7.643c2.153-0.274,4.293-0.134,6.409,0.273
	c4.253,0.817,7.2,3.289,8.951,7.224c0.141,0.316,0.286,0.63,0.479,1.054c0.313-0.333,0.554-0.583,0.788-0.837
	c2.08-2.274,4.356-4.318,7.14-5.689c5.259-2.592,10.679-2.985,16.13-0.723c4.234,1.757,7.184,4.825,8.567,9.278
	c0.615,1.98,0.603,4.005,0.377,6.033c-0.446,4.012-1.478,7.914-2.293,11.855c-1.417,6.85-2.883,13.691-4.329,20.536
	c-0.066,0.314-0.148,0.626-0.219,0.923c-0.682,0.201-18.384,0.228-19.273,0.021c0.239-1.17,0.471-2.345,0.719-3.517
	c1.728-8.167,3.457-16.333,5.189-24.499c0.334-1.576,0.245-3.104-0.513-4.549c-1.194-2.277-3.626-3.238-6.339-2.516
	c-1.812,0.482-3.229,1.516-4.272,3.071c-1.053,1.57-1.578,3.345-1.942,5.168c-1.252,6.254-2.481,12.513-3.716,18.771
	c-0.489,2.48-0.971,4.961-1.461,7.441c-0.045,0.229-0.122,0.452-0.197,0.727c-6.433,0-12.863,0-19.397,0
	c0.122-0.662,0.218-1.262,0.343-1.854c1.714-8.14,3.449-16.276,5.133-24.421c0.266-1.288,0.351-2.619,0.435-3.936
	c0.037-0.573-0.089-1.174-0.234-1.739c-0.486-1.886-1.768-2.952-3.644-3.269c-2.448-0.414-4.563,0.127-6.294,2.084
	c-1.293,1.461-2.114,3.121-2.566,4.961c-0.602,2.453-1.113,4.93-1.604,7.408c-1.326,6.689-2.619,13.385-3.93,20.077
	C30.737,67.075,30.646,67.291,30.569,67.537z"/>
<path fill-rule="evenodd" clip-rule="evenodd" fill="#FF0000" d="M150.705,67.521c-6.605,0-13.123,0-19.737,0
	c-0.21-1.198,0.029-2.433-0.136-3.668c-0.128,0.029-0.23,0.021-0.282,0.068c-1.86,1.723-4.121,2.701-6.492,3.45
	c-3.207,1.014-6.503,1.4-9.849,1.081c-3.788-0.362-7.218-1.669-10.034-4.303c-3.225-3.015-4.556-6.742-4.118-11.145
	c0.366-3.687,1.74-6.87,4.408-9.467c1.72-1.674,3.792-2.765,6.015-3.597c2.88-1.078,5.87-1.733,8.91-2.093
	c3.24-0.384,6.5-0.592,9.748-0.922c1.783-0.181,3.559-0.437,5.333-0.695c0.83-0.121,1.568-0.492,2.199-1.055
	c1.11-0.989,1.503-2.462,1.017-3.859c-0.36-1.033-1.143-1.596-2.155-1.909c-3.557-1.1-7.793,0.483-9.791,3.688
	c-0.31,0.497-0.571,1.03-0.796,1.57c-0.173,0.416-0.426,0.606-0.869,0.564c-0.146-0.014-0.294-0.001-0.441-0.001
	c-5.504,0-11.007,0-16.511,0c-0.347,0-0.694,0-1.156,0c0.062-0.573,0.086-1.031,0.163-1.48c0.821-4.82,3.005-8.824,7.091-11.648
	c2.377-1.644,5.051-2.632,7.831-3.342c4.596-1.172,9.278-1.499,14.003-1.416c3.908,0.068,7.735,0.593,11.43,1.92
	c1.472,0.529,2.879,1.191,4.188,2.055c3.032,2.002,4.558,4.896,5.017,8.432c0.378,2.915-0.162,5.74-0.781,8.563
	c-1.588,7.236-3.161,14.475-4.752,21.709c-0.511,2.322-0.529,4.607,0.362,6.852C150.59,67.059,150.628,67.255,150.705,67.521z
	 M134.451,45.556c-0.173-0.012-0.29-0.043-0.398-0.024c-2.747,0.482-5.5,0.935-8.236,1.468c-1.791,0.349-3.534,0.88-5.102,1.867
	c-0.858,0.541-1.595,1.203-2.098,2.096c-1.386,2.456-0.424,4.909,2.26,5.745c1.555,0.484,3.127,0.459,4.701,0.089
	C130.647,55.604,134.299,51.014,134.451,45.556z"/>
<path fill-rule="evenodd" clip-rule="evenodd" fill="#FF0000" d="M240.401,47.968c-11.419,0-22.768,0-34.15,0
	c-0.466,1.561-0.275,2.979,0.422,4.331c0.785,1.522,2.07,2.476,3.677,2.969c2.192,0.672,4.362,0.517,6.47-0.37
	c1.189-0.5,2.185-1.278,2.949-2.318c0.288-0.392,0.59-0.582,1.093-0.581c5.709,0.015,11.418,0.009,17.127,0.012
	c0.202,0.001,0.403,0.039,0.736,0.073c-0.106,0.371-0.18,0.698-0.293,1.013c-1.577,4.379-4.334,7.848-8.138,10.498
	c-3.612,2.517-7.642,3.98-11.961,4.722c-3.16,0.543-6.333,0.372-9.507,0.239c-2.655-0.111-5.267-0.504-7.809-1.297
	c-4.199-1.311-7.721-3.576-10.202-7.291c-1.665-2.492-2.625-5.262-3.042-8.204c-0.703-4.965-0.443-9.889,1.298-14.618
	c3.697-10.038,10.887-16.246,21.188-18.909c2.317-0.599,4.692-0.769,7.087-0.739c2.65,0.033,5.295,0.086,7.912,0.554
	c2.893,0.517,5.645,1.411,8.115,3.052c3.444,2.288,5.544,5.541,6.699,9.443c1.079,3.649,1.374,7.398,1.164,11.179
	c-0.098,1.757-0.396,3.503-0.614,5.252C240.586,47.265,240.497,47.546,240.401,47.968z M223.552,37.059
	c0-0.47,0.041-0.968-0.007-1.458c-0.201-2.052-1.099-3.65-3.08-4.468c-1.56-0.644-3.203-0.822-4.85-0.516
	c-3.497,0.649-5.599,2.892-6.758,6.141c-0.035,0.099-0.004,0.221-0.004,0.321C209.675,37.298,222.743,37.291,223.552,37.059z"/>
<path fill-rule="evenodd" clip-rule="evenodd" fill="#FF0000" d="M323.326,68.697c-4.602,0.023-8.56-0.428-12.372-1.801
	c-4.343-1.563-7.788-4.21-9.964-8.36c-1.189-2.27-1.864-4.703-2.141-7.233c-0.587-5.373-0.073-10.651,1.791-15.731
	c3.378-9.206,10.016-14.799,19.451-17.15c3.909-0.974,7.891-1.218,11.914-0.962c3.396,0.216,6.719,0.764,9.899,2.007
	c3.656,1.428,6.722,3.619,8.856,6.981c1.628,2.565,2.503,5.403,2.676,8.405c0.431,7.485-1.206,14.516-5.149,20.913
	c-4.08,6.617-10.094,10.549-17.647,12.178C327.884,68.536,325.905,68.697,323.326,68.697z M323.824,55.349
	c2.685,0,4.873-1.053,6.44-3.224c0.698-0.968,1.299-2.041,1.749-3.146c1.271-3.121,2.065-6.375,2.226-9.751
	c0.095-1.982-0.114-3.942-0.987-5.767c-0.848-1.77-2.226-2.865-4.194-3.123c-2.096-0.275-3.958,0.3-5.584,1.646
	c-1.077,0.892-1.937,1.968-2.652,3.162c-1.438,2.399-2.321,5.003-2.844,7.738c-0.461,2.417-0.604,4.848-0.148,7.277
	C318.469,53.567,320.562,55.354,323.824,55.349z"/>
<path fill-rule="evenodd" clip-rule="evenodd" fill="#FF0000" d="M297.678,37.871c-6.48,0-12.85,0-19.269,0
	c-0.02-0.247-0.041-0.446-0.048-0.645c-0.014-0.412,0-0.825-0.03-1.235c-0.171-2.389-1.46-3.897-3.817-4.271
	c-1.062-0.168-2.176-0.19-3.248-0.086c-1.509,0.146-2.781,0.896-3.859,1.961c-1.04,1.028-1.827,2.234-2.397,3.569
	c-1.424,3.34-2.195,6.821-2.111,10.465c0.027,1.181,0.239,2.338,0.675,3.445c0.868,2.207,2.534,3.364,4.895,3.334
	c0.789-0.01,1.594-0.08,2.362-0.25c1.658-0.365,2.904-1.367,3.863-2.744c0.782-1.121,1.303-2.365,1.701-3.665
	c0.104-0.335,0.211-0.669,0.329-1.046c6.421,0,12.821,0,19.275,0c-0.014,0.159-0.009,0.299-0.04,0.43
	c-0.792,3.332-1.895,6.549-3.554,9.56c-3.353,6.085-8.43,9.891-15.228,11.27c-5.897,1.197-11.81,1.154-17.663-0.369
	c-2.756-0.718-5.312-1.902-7.627-3.574c-4.447-3.211-7.115-7.55-7.962-12.947c-1.213-7.728,1.386-18.341,7.673-24.929
	c3.769-3.949,8.347-6.455,13.617-7.73c3.625-0.878,7.307-1.151,11.034-0.96c3.335,0.171,6.616,0.601,9.798,1.645
	c2.082,0.683,4.039,1.617,5.793,2.947c2.599,1.972,4.333,4.525,5.165,7.687C297.701,32.375,297.832,35.063,297.678,37.871z"/>
<path fill-rule="evenodd" clip-rule="evenodd" fill="#FF0000" d="M167.775,13.336c0.784-0.169,1.536-0.304,2.272-0.497
	c2.448-0.639,4.671-1.779,6.736-3.209c2.055-1.423,4.057-2.923,6.062-4.416c0.447-0.333,0.887-0.516,1.45-0.499
	c1.023,0.032,2.048,0.009,3.204,0.009c-1.122,4.95-2.214,9.771-3.332,14.706c2.686,0,5.234,0,7.92,0
	c-0.249,1.894-0.68,3.646-1.03,5.411c-0.348,1.752-0.699,3.503-1.062,5.326c-2.629,0-5.179,0-7.779,0
	c-0.256,1.284-0.503,2.489-0.735,3.697c-0.979,5.079-1.961,10.158-2.92,15.241c-0.146,0.776-0.249,1.575-0.243,2.362
	c0.008,1.217,0.54,1.852,1.743,2.084c0.949,0.184,1.923,0.238,2.886,0.349c0.489,0.057,0.979,0.111,1.448,0.165
	c0.085,0.812-1.794,12.705-2.132,13.513c-0.259,0-0.55,0-0.84,0c-3.001,0-6.003,0.015-9.004-0.004
	c-2.358-0.015-4.708-0.178-6.979-0.87c-0.894-0.272-1.784-0.619-2.604-1.063c-2.611-1.413-3.945-3.685-4.268-6.602
	c-0.253-2.286,0.112-4.513,0.607-6.729c1.589-7.113,3.177-14.227,4.764-21.34c0.043-0.196,0.068-0.396,0.122-0.717
	c-1-0.145-1.958-0.054-2.907-0.069c-0.964-0.016-1.927-0.003-3.02-0.003c0.725-3.642,1.422-7.147,2.131-10.711
	c0.377-0.017,0.692-0.042,1.007-0.043c1.383-0.005,2.766,0.001,4.149-0.003c0.913-0.003,0.915-0.007,1.112-0.866
	c0.349-1.518,0.694-3.037,1.045-4.555C167.631,13.777,167.709,13.559,167.775,13.336z"/>
<path fill-rule="evenodd" clip-rule="evenodd" d="M239.998,79.651c0.612,0,1.127,0,1.751,0c0.161,3.119,0.055,6.224,0.271,9.385
	c0.137-0.233,0.288-0.459,0.409-0.699c1.331-2.654,2.675-5.302,3.969-7.974c0.286-0.591,0.626-0.859,1.275-0.775
	c0.315,0.042,0.64,0.008,1.053,0.008c0.065,1.615,0.128,3.162,0.19,4.709c0.062,1.546,0.014,3.099,0.151,4.641
	c0.07,0.015,0.14,0.03,0.21,0.045c1.507-3.104,3.015-6.206,4.54-9.344c0.532,0,1.05,0,1.672,0c-0.148,0.324-0.258,0.587-0.388,0.839
	c-1.776,3.45-3.555,6.898-5.334,10.347c-0.54,1.047-0.59,1.067-1.953,0.797c-0.125-3.343-0.251-6.707-0.377-10.071
	c-0.062-0.02-0.125-0.038-0.187-0.058c-0.144,0.269-0.294,0.533-0.431,0.806c-1.409,2.812-2.816,5.625-4.223,8.438
	c-0.582,1.163-0.621,1.181-2.055,0.877C240.362,87.688,240.183,83.731,239.998,79.651z"/>
<path fill-rule="evenodd" clip-rule="evenodd" d="M115.19,85.223c0.118,0.123,0.15,0.18,0.198,0.204
	c1.397,0.712,1.809,1.604,1.348,3.093c-0.585,1.889-1.935,2.951-3.86,3.112c-1.783,0.148-3.583,0.09-5.375,0.12
	c-0.318,0.006-0.637,0.001-1.096,0.001c0.914-4.104,1.804-8.098,2.708-12.157c0.456,0,0.833,0,1.21,0
	c1.441,0,2.881-0.003,4.322,0.002c0.353,0.001,0.708,0.005,1.056,0.047c1.311,0.158,2.136,1.263,1.942,2.562
	c-0.186,1.25-0.793,2.194-1.952,2.752C115.536,85.034,115.384,85.12,115.19,85.223z M108.397,90.187
	c0.148,0.058,0.229,0.116,0.309,0.116c1.382-0.001,2.766,0.036,4.144-0.037c0.502-0.026,1.032-0.246,1.474-0.506
	c0.704-0.417,1.155-1.663,0.939-2.415c-0.214-0.747-0.819-1.119-1.519-1.15c-1.46-0.064-2.925-0.02-4.469-0.02
	C108.982,87.515,108.69,88.85,108.397,90.187z M109.533,84.767c1.43,0,2.694,0.06,3.95-0.017c1.375-0.082,2.433-1.098,2.537-2.28
	c0.07-0.806-0.288-1.281-1.095-1.421c-0.23-0.039-0.469-0.04-0.704-0.041c-1.059-0.004-2.117-0.005-3.176,0.002
	c-0.227,0.001-0.454,0.043-0.699,0.069C110.078,82.297,109.819,83.467,109.533,84.767z"/>
<path fill-rule="evenodd" clip-rule="evenodd" d="M212.251,85.896c1.086,0.742,1.134,1.796,1.009,2.916
	c-0.103,0.931-0.172,1.865-0.263,2.871c-0.47,0-1.008,0-1.634,0c0.032-0.484,0.05-0.917,0.092-1.347
	c0.07-0.701,0.2-1.399,0.224-2.102c0.032-0.916-0.384-1.482-1.307-1.569c-1.394-0.131-2.8-0.117-4.249-0.166
	c-0.412,1.793-0.797,3.474-1.193,5.197c-0.492,0-0.95,0-1.547,0c0.9-4.044,1.789-8.034,2.68-12.041
	c0.307-0.024,0.538-0.058,0.768-0.058c1.764-0.005,3.528-0.011,5.292,0.004c0.438,0.003,0.886,0.035,1.311,0.136
	c0.946,0.223,1.568,0.979,1.629,1.95c0.104,1.651-0.569,2.903-1.985,3.756c-0.125,0.076-0.262,0.135-0.391,0.204
	C212.562,85.718,212.437,85.791,212.251,85.896z M206.422,85.372c1.664-0.006,3.217,0.124,4.749-0.13
	c1.349-0.224,2.36-1.499,2.368-2.802c0.005-0.87-0.477-1.521-1.336-1.554c-1.575-0.061-3.154-0.018-4.798-0.018
	C207.079,82.364,206.764,83.808,206.422,85.372z"/>
<path fill-rule="evenodd" clip-rule="evenodd" d="M75.016,79.645c0.336-0.021,0.567-0.047,0.799-0.047
	c1.794-0.003,3.588,0.012,5.383-0.003c2.708-0.022,3.238,1.866,2.6,3.779c-0.314,0.941-0.962,1.599-1.803,2.086
	c-0.252,0.146-0.512,0.28-0.82,0.449c0.938,0.609,1.147,1.467,1.041,2.478c-0.114,1.077-0.168,2.16-0.253,3.302
	c-0.494,0-1.035,0-1.666,0c0.046-0.531,0.079-0.994,0.127-1.454c0.064-0.614,0.17-1.226,0.207-1.841
	c0.061-1.024-0.337-1.536-1.327-1.748c-0.285-0.061-0.58-0.098-0.872-0.101c-1.111-0.011-2.223-0.005-3.368-0.005
	c-0.406,1.768-0.792,3.449-1.185,5.164c-0.514,0-0.973,0-1.548,0C73.23,87.665,74.115,83.689,75.016,79.645z M75.364,85.371
	c1.645-0.002,3.169,0.12,4.673-0.116c1.343-0.211,2.356-1.389,2.439-2.651c0.069-1.056-0.458-1.686-1.511-1.742
	c-0.672-0.036-1.349-0.013-2.023-0.014c-0.843-0.001-1.686,0-2.58,0C76.031,82.352,75.716,83.774,75.364,85.371z"/>
<path fill-rule="evenodd" clip-rule="evenodd" d="M186.702,79.646c2.951,0,5.82,0,8.738,0c-0.017,0.25-0.014,0.449-0.05,0.642
	c-0.032,0.171-0.106,0.335-0.188,0.576c-2.356,0-4.73,0-7.204,0c-0.291,1.298-0.57,2.543-0.873,3.896c2.227,0,4.361,0,6.608,0
	c-0.106,0.496-0.188,0.881-0.285,1.332c-2.19,0-4.33,0-6.55,0c-0.331,1.388-0.648,2.719-0.995,4.171
	c2.488,0.149,4.911-0.009,7.448,0.096c-0.096,0.471-0.179,0.884-0.272,1.341c-3.005,0-5.962,0-9.058,0
	C184.919,87.671,185.8,83.703,186.702,79.646z"/>
<path fill-rule="evenodd" clip-rule="evenodd" d="M37.338,79.332c0.118,0,0.235-0.004,0.353,0c2.938,0.102,4.705,2.162,4.373,5.091
	c-0.238,2.102-0.904,4.021-2.475,5.51c-1.886,1.788-4.131,2.413-6.669,1.846c-1.598-0.357-2.568-1.42-2.88-2.994
	c-0.69-3.485,1.236-7.42,4.4-8.812C35.396,79.551,36.289,79.327,37.338,79.332z M40.554,84.163
	c-0.025-0.206-0.049-0.528-0.104-0.845c-0.266-1.565-1.242-2.498-2.823-2.674c-1.951-0.216-3.498,0.53-4.689,2.052
	c-0.996,1.271-1.433,2.764-1.512,4.34c-0.122,2.411,1.563,3.913,3.973,3.655c1.555-0.166,2.769-0.89,3.691-2.138
	C40.03,87.283,40.427,85.83,40.554,84.163z"/>
<path fill-rule="evenodd" clip-rule="evenodd" d="M127.786,91.615c0.885-3.976,1.771-7.949,2.665-11.965c2.952,0,5.849,0,8.833,0
	c-0.104,0.43-0.19,0.789-0.293,1.219c-2.412,0-4.784,0-7.25,0c-0.289,1.302-0.564,2.545-0.863,3.891c2.213,0,4.292,0,6.488,0
	c-0.051,0.471-0.092,0.853-0.143,1.32c-2.237,0-4.402,0-6.649,0c-0.309,1.408-0.602,2.743-0.916,4.176
	c0.87,0.12,1.657,0.055,2.438,0.065c0.824,0.011,1.647,0.003,2.471,0.003c0.785,0,1.571,0,2.467,0
	c-0.104,0.511-0.184,0.901-0.259,1.271C136.063,91.796,128.722,91.818,127.786,91.615z"/>
<path fill-rule="evenodd" clip-rule="evenodd" d="M271.877,91.694c-0.611,0-1.129,0-1.765,0c-0.161-1.162-0.323-2.339-0.498-3.602
	c-0.333-0.018-0.646-0.045-0.96-0.047c-1.029-0.005-2.059,0.018-3.088-0.011c-0.468-0.012-0.756,0.132-0.975,0.564
	c-0.412,0.812-0.922,1.574-1.32,2.393c-0.282,0.581-0.655,0.863-1.303,0.763c-0.225-0.034-0.453-0.037-0.785-0.062
	c0.186-0.349,0.322-0.626,0.479-0.894c2.003-3.425,4.032-6.836,5.997-10.283c0.405-0.711,0.858-1.052,1.659-0.922
	c0.2,0.032,0.405,0.033,0.717,0.058C270.646,83.646,271.256,87.635,271.877,91.694z M269.399,86.726
	c-0.033-1.68-0.494-4.744-0.768-5.179c-0.89,1.303-2.597,4.548-2.714,5.179C267.059,86.726,268.193,86.726,269.399,86.726z"/>
<path fill-rule="evenodd" clip-rule="evenodd" d="M315.066,79.658c0.519,0,1.003,0,1.57,0c-0.285,1.305-0.55,2.533-0.823,3.761
	c-0.307,1.376-0.624,2.75-0.932,4.126c-0.051,0.229-0.085,0.463-0.113,0.695c-0.124,1.001,0.354,1.838,1.31,2.128
	c1.486,0.452,2.849,0.185,4.028-0.859c0.504-0.446,0.776-1.026,0.925-1.67c0.475-2.061,0.946-4.122,1.419-6.184
	c0.15-0.654,0.3-1.309,0.459-2.004c0.502,0,0.956,0,1.505,0c-0.08,0.427-0.138,0.793-0.218,1.153
	c-0.525,2.351-1.048,4.702-1.587,7.05c-0.516,2.246-2.073,3.684-4.386,3.971c-0.805,0.1-1.649,0.134-2.445,0.006
	c-1.948-0.312-2.92-1.641-2.631-3.581c0.194-1.305,0.524-2.59,0.805-3.881c0.3-1.378,0.609-2.754,0.921-4.129
	C314.918,80.045,314.999,79.858,315.066,79.658z"/>
<path fill-rule="evenodd" clip-rule="evenodd" d="M53.871,79.653c0.526,0,0.983,0,1.517,0c-0.332,1.498-0.654,2.925-0.961,4.354
	c-0.297,1.378-0.596,2.755-0.862,4.139c-0.193,1.009,0.33,1.914,1.274,2.22c1.859,0.603,4.462-0.071,5.009-2.669
	c0.496-2.355,1.046-4.699,1.575-7.048c0.07-0.312,0.152-0.622,0.243-0.989c0.499,0,0.983,0,1.543,0
	c-0.03,0.266-0.036,0.521-0.09,0.764c-0.53,2.379-1.092,4.751-1.6,7.135c-0.841,3.949-4.669,4.965-7.514,4.158
	c-1.442-0.409-2.247-1.643-2.116-3.149c0.053-0.609,0.213-1.213,0.346-1.813c0.476-2.151,0.959-4.3,1.443-6.447
	C53.722,80.105,53.793,79.912,53.871,79.653z"/>
<path fill-rule="evenodd" clip-rule="evenodd" d="M336.706,86.657c-0.4,1.725-0.776,3.349-1.165,5.028c-0.487,0-0.939,0-1.526,0
	c0.825-4.019,1.771-7.971,2.641-11.996c0.243-0.033,0.467-0.088,0.69-0.09c1.559-0.007,3.118,0.018,4.677-0.008
	c2.621-0.042,3.353,1.745,2.832,3.705c-0.463,1.738-1.771,3.011-3.565,3.211c-1.193,0.132-2.405,0.107-3.608,0.148
	C337.39,86.666,337.098,86.657,336.706,86.657z M336.945,85.367c1.422,0.002,2.731,0.074,4.041-0.082
	c0.23-0.027,0.462-0.096,0.682-0.175c1.071-0.385,1.823-1.477,1.79-2.58c-0.029-0.974-0.52-1.589-1.483-1.636
	c-1.315-0.063-2.637-0.016-4.041-0.016C337.611,82.341,337.293,83.789,336.945,85.367z"/>
<path fill-rule="evenodd" clip-rule="evenodd" d="M281.902,79.643c0.662,0,1.21,0,1.829,0c0.75,1.926,1.499,3.854,2.291,5.889
	c0.263-0.276,0.445-0.451,0.608-0.643c1.236-1.455,2.519-2.877,3.685-4.388c0.648-0.84,1.368-1.093,2.464-0.79
	c-0.227,0.274-0.414,0.517-0.616,0.746c-1.688,1.92-3.371,3.846-5.078,5.75c-0.37,0.411-0.579,0.857-0.689,1.39
	c-0.277,1.349-0.584,2.691-0.89,4.091c-0.516,0-0.99,0-1.554,0c0.276-1.275,0.492-2.484,0.811-3.666
	c0.227-0.84,0.159-1.566-0.223-2.359c-0.815-1.692-1.533-3.432-2.288-5.152C282.138,80.25,282.04,79.984,281.902,79.643z"/>
<path fill-rule="evenodd" clip-rule="evenodd" d="M15.274,85.535c0.265-0.281,0.447-0.458,0.611-0.65
	c1.257-1.479,2.571-2.915,3.74-4.461c0.651-0.86,1.385-0.926,2.417-0.743c-0.246,0.305-0.43,0.553-0.633,0.783
	c-1.651,1.877-3.294,3.76-4.965,5.62c-0.427,0.476-0.695,0.98-0.817,1.613c-0.255,1.323-0.574,2.635-0.877,3.997
	c-0.526,0-1.009,0-1.575,0c0.051-0.307,0.08-0.562,0.138-0.812c0.244-1.059,0.47-2.123,0.757-3.17
	c0.173-0.63,0.116-1.182-0.157-1.774c-0.824-1.787-1.604-3.595-2.396-5.396c-0.116-0.264-0.211-0.536-0.348-0.886
	c0.626,0,1.166,0,1.748,0C13.691,81.589,14.462,83.511,15.274,85.535z"/>
<path fill-rule="evenodd" clip-rule="evenodd" d="M170.923,91.751c-0.431,0-0.752,0.007-1.073-0.003
	c-0.143-0.004-0.286-0.039-0.533-0.076c0.784-3.571,1.562-7.11,2.364-10.762c-1.376,0-2.629,0-3.993,0
	c0.111-0.472,0.195-0.83,0.29-1.232c3.139,0,6.245,0,9.418,0c-0.019,0.209-0.024,0.401-0.057,0.588
	c-0.031,0.172-0.093,0.34-0.167,0.603c-1.228,0-2.482,0-3.822,0C172.537,84.51,171.741,88.082,170.923,91.751z"/>
<path fill-rule="evenodd" clip-rule="evenodd" d="M157.848,79.658c-0.09,0.448-0.159,0.789-0.247,1.227c-1.29,0-2.571,0-3.912,0
	c-0.814,3.656-1.611,7.229-2.412,10.826c-0.535,0-0.997,0-1.571,0c0.258-1.84,0.755-3.58,1.117-5.345
	c0.364-1.779,0.783-3.548,1.207-5.447c-1.332,0-2.576,0-3.929,0c0.111-0.489,0.193-0.848,0.287-1.261
	C151.521,79.658,154.624,79.658,157.848,79.658z"/>
</svg>
