<svg xmlns="http://www.w3.org/2000/svg" width="102" height="22.434"><g data-name="Grupo 35"><g class="icon" data-name="Grupo 1"><path class="change" data-name="Trazado 1" d="M37.076 8.821a4.147 4.147 0 00-6.469 0l-7.953 9.908a2.518 2.518 0 00-.626 1.528 2.171 2.171 0 002.133 2.131 2.565 2.565 0 002.11-1.112l7.2-9.077 7.405 9.286a2.335 2.335 0 001.924.9 2.455 2.455 0 002.412-2.315 2.51 2.51 0 00-.51-1.621z" fill="#00205b"/><path class="change" data-name="Trazado 2" d="M23.192 9.447a2.171 2.171 0 00-2.133-2.131 2.566 2.566 0 00-2.11 1.111l-7.2 9.077-7.4-9.285a2.334 2.334 0 00-1.924-.9A2.454 2.454 0 00.013 9.634a2.506 2.506 0 00.51 1.621l7.629 9.631a4.148 4.148 0 006.469 0l7.953-9.908a2.522 2.522 0 00.618-1.531z" fill="#00205b"/><path class="change" data-name="Trazado 3" d="M83.961 7.316h-9.483a2.265 2.265 0 00-2.3 2.269v10.6a2.251 2.251 0 002.3 2.2h9.414a7.576 7.576 0 007.721-7.524 7.349 7.349 0 00-7.652-7.545zm-.673 11.229h-6.515v-7.386h6.515a3.626 3.626 0 013.687 3.7 3.577 3.577 0 01-3.687 3.686z" fill="#00205b"/><path class="change" data-name="Trazado 4" d="M67.243 12.803a5.376 5.376 0 00-5.612-5.487H50.85a2.259 2.259 0 00-2.227 2.245v10.6a2.2 2.2 0 002.249 2.223 2.247 2.247 0 002.319-2.223v-1.643h7.462l2.49 2.97a2.212 2.212 0 001.809.9 2.292 2.292 0 002.272-2.2 2.12 2.12 0 00-.44-1.389l-1.608-1.806a5.374 5.374 0 002.067-4.19zm-14.052-1.875h7.327a1.993 1.993 0 110 3.982h-7.327z" fill="#00205b"/><path class="change" data-name="Trazado 5" d="M100.025.003a2.035 2.035 0 00-1.369.532l-2.574 2.154a1.728 1.728 0 00-.579 1.343 1.785 1.785 0 001.762 1.805 1.992 1.992 0 001.252-.416l2.759-1.9a1.921 1.921 0 00.719-1.5 1.978 1.978 0 00-1.97-2.018z" fill="#00205b"/><path class="change" data-name="Trazado 6" d="M98.034 7.316a2.24 2.24 0 00-2.3 2.223v10.627a2.193 2.193 0 002.272 2.223 2.227 2.227 0 002.3-2.223V9.539a2.221 2.221 0 00-2.272-2.223z" fill="#00205b"/></g></g></svg>