<?xml version="1.0" encoding="utf-8"?>
<!-- Generator: Adobe Illustrator 20.0.0, SVG Export Plug-In . SVG Version: 6.00 Build 0)  -->
<svg version="1.1" id="Layer_1" xmlns="http://www.w3.org/2000/svg" xmlns:xlink="http://www.w3.org/1999/xlink" x="0px" y="0px"
	 viewBox="0 0 60.9 48.7" style="enable-background:new 0 0 60.9 48.7;" xml:space="preserve">
<style type="text/css">
	.st0{fill:#FEBB15;}
</style>
<g>
	<path class="st0" d="M40,0c-4.9,0-9.3,6.6-12.2,16.8C25,6.6,20.6,0,15.7,0C7,0,0,21.8,0,48.7h7c0-25,3.9-45.2,8.7-45.2
		c4.8,0,8.7,18.7,8.7,41.7h7c0-23.1,3.9-41.7,8.7-41.7c4.8,0,8.7,20.2,8.7,45.2h7C55.7,21.8,48.7,0,40,0"/>
	<path class="st0" d="M59.1,45.2c-0.9,0-1.7,0.7-1.7,1.7c0,1,0.8,1.7,1.7,1.7c0.9,0,1.7-0.7,1.7-1.7C60.9,46,60.1,45.2,59.1,45.2
		 M59.1,48.4c-0.8,0-1.4-0.6-1.4-1.5c0-0.8,0.6-1.5,1.4-1.5c0.8,0,1.4,0.6,1.4,1.5C60.6,47.8,59.9,48.4,59.1,48.4"/>
</g>
<path class="st0" d="M60,46.5c0-0.4-0.2-0.6-0.7-0.6h-0.8v2h0.3v-0.9h0.3l0.5,0.9H60l-0.6-0.9C59.7,47,60,46.9,60,46.5 M59.1,46.8
	h-0.3v-0.6h0.4c0.2,0,0.4,0,0.4,0.3C59.6,46.8,59.4,46.8,59.1,46.8"/>
</svg>
