<?xml version="1.0" encoding="UTF-8" standalone="no"?>
<!DOCTYPE svg PUBLIC "-//W3C//DTD SVG 1.1//EN" "http://www.w3.org/Graphics/SVG/1.1/DTD/svg11.dtd">
<svg width="100%" height="100%" viewBox="0 0 128 97" version="1.1" xmlns="http://www.w3.org/2000/svg" xmlns:xlink="http://www.w3.org/1999/xlink" xml:space="preserve" xmlns:serif="http://www.serif.com/" style="fill-rule:evenodd;clip-rule:evenodd;stroke-linejoin:round;stroke-miterlimit:2;">
    <g transform="matrix(1,0,0,1,-23.853,-21.852)">
        <path d="M145.135,113.248L145.135,111.949L145.819,111.949C146.3,111.949 146.547,112.223 146.547,112.617C146.547,112.972 146.302,113.248 145.819,113.248L145.135,113.248ZM146.462,115.684L147.868,115.684L146.984,114.033C147.465,113.758 147.749,113.207 147.749,112.617C147.749,111.673 147.145,110.966 146.019,110.966L143.891,110.966L143.891,115.686L145.135,115.686L145.135,114.233L145.739,114.233L146.462,115.684ZM145.698,117.969C142.805,117.969 140.996,115.924 140.996,113.442C140.996,111.006 142.807,108.959 145.698,108.959C148.553,108.959 150.399,111.008 150.399,113.442C150.399,115.925 148.554,117.969 145.698,117.969ZM145.698,118.676C148.997,118.676 151.206,116.238 151.206,113.443C151.206,110.691 148.997,108.252 145.698,108.252C142.402,108.252 140.19,110.691 140.19,113.443C140.19,116.237 142.402,118.676 145.698,118.676Z" style="fill:rgb(241,185,39);fill-rule:nonzero;"/>
        <path d="M105.133,28.771C114.893,28.771 122.801,69.037 122.801,118.7L136.939,118.7C136.939,65.214 122.7,21.852 105.133,21.852C95.143,21.852 86.226,34.887 80.392,55.263C74.563,34.887 65.65,21.852 55.655,21.852C38.092,21.852 23.853,65.212 23.853,118.7L37.987,118.7C37.987,69.036 45.897,28.771 55.655,28.771C65.415,28.771 73.328,65.94 73.328,111.785L87.46,111.785C87.46,65.94 95.37,28.771 105.133,28.771Z" style="fill:rgb(241,185,39);fill-rule:nonzero;"/>
    </g>
</svg>
