<?xml version="1.0" encoding="utf-8"?>
<!-- Generator: Adobe Illustrator 19.2.1, SVG Export Plug-In . SVG Version: 6.00 Build 0)  -->
<svg version="1.0" id="Layer_1" xmlns="http://www.w3.org/2000/svg" xmlns:xlink="http://www.w3.org/1999/xlink" x="0px" y="0px"
	 viewBox="0 0 91 45.4" style="enable-background:new 0 0 91 45.4;" xml:space="preserve">
<style type="text/css">
	.st0{fill-rule:evenodd;clip-rule:evenodd;fill:#FFFFFF;}
</style>
<g>
	<path class="st0" d="M53.2,3.2C58,5,61.5,8.9,63.6,14c-2.4-4.5-6.2-7.8-10.9-9.5c-4.7-1.8-10.2-2.5-15-0.7
		C42.7,1.3,48.5,1.4,53.2,3.2L53.2,3.2z"/>
	<path class="st0" d="M87.2,37.7c0,0.8-0.5,1.2-1.5,1.2h-1.3v-2.5h1.3C86.7,36.4,87.2,36.9,87.2,37.7L87.2,37.7z M91,45.2l-1.7-3.6
		c-0.3-0.7-0.7-1.1-1.3-1.3c1.3-0.6,1.9-1.4,1.9-2.6c0-2.1-1.4-3.1-4.2-3.1h-3.9v10.6h2.7v-4.3c0.1,0,0.2,0,0.3,0
		c1,0,1.5,0.3,1.9,1.3l1.4,3.1H91L91,45.2z M80,45.2v-2h-4.6v-2.5h4.2v-2h-4.2v-2.2h4.4v-2h-7.1v10.6H80L80,45.2z M72.1,34.5h-2.9
		l-2.8,6.2l-2.6-6.2h-2.8l4.8,10.7h1.1L72.1,34.5L72.1,34.5z M58.6,39.9c0,1.9-1.3,3.3-3,3.3c-1.8,0-3-1.3-3-3.3
		c0-1.9,1.3-3.3,3-3.3C57.3,36.6,58.6,37.9,58.6,39.9L58.6,39.9z M61.4,39.9c0-1.6-0.6-2.9-1.7-4c-1.1-1-2.4-1.5-4.1-1.5
		c-1.7,0-3,0.5-4.1,1.5c-1.1,1-1.7,2.4-1.7,4c0,1.6,0.6,2.9,1.7,4c1.1,1,2.4,1.5,4.1,1.5c1.7,0,3-0.5,4.1-1.5
		C60.8,42.8,61.4,41.4,61.4,39.9L61.4,39.9z M48.8,44.3v-2.5c-1.3,0.9-2.6,1.3-3.9,1.3c-2,0-3.2-1.3-3.2-3.3c0-2,1.3-3.3,3.5-3.3
		c1.2,0,2.4,0.4,3.5,1.1v-2.5c-1.2-0.6-2.4-0.9-3.7-0.9c-3.7,0-6,2.3-6,5.5c0,1.6,0.6,3,1.7,4c1,1,2.4,1.5,4.1,1.5
		C46.2,45.4,47.5,45,48.8,44.3L48.8,44.3z M37.3,45.2V34.5h-2.7v10.6H37.3L37.3,45.2z M30.2,39.8c0,1.9-1.2,3.2-3.1,3.2h-2v-6.3h2
		C29,36.7,30.2,38,30.2,39.8L30.2,39.8z M33,39.8c0-1.7-0.7-3.2-2.1-4.2c-1.3-1-2.7-1.1-4.4-1.1h-4v10.6h4c1.5,0,2.8,0,4-0.8
		C32.1,43.3,33,41.7,33,39.8L33,39.8z M20.8,45.2v-2h-4.6v-2.5h4.2v-2h-4.2v-2.2h4.4v-2h-7.1v10.6H20.8L20.8,45.2z M11.5,45.2V34.5
		H9.2l-3.4,4.3l-3.4-4.3H0v10.6h2.6v-6.6l3.1,3.9l3.2-3.9v6.6H11.5L11.5,45.2z"/>
	<path class="st0" d="M38.4,1.2c-4.7,1.9-8.2,5.8-10.2,11c2.4-4.5,6-7.9,10.7-9.7c4.7-1.8,10.1-2.1,15-0.4
		C48.9-0.3,43.1-0.7,38.4,1.2L38.4,1.2z"/>
	<path class="st0" d="M44.7,3.9c-4.7,0.2-8.9,2.6-12.2,6.6c3.4-3.2,7.6-5.1,12.3-5.3c4.6-0.2,9.7,0.7,13.4,3.7
		C54.5,5.2,49.3,3.7,44.7,3.9L44.7,3.9z"/>
	<path class="st0" d="M45.3,12.1c1.4,0,2.5,1.1,2.5,2.5c0,1.4-1.1,2.5-2.5,2.5c-1.4,0-2.5-1.1-2.5-2.5
		C42.8,13.3,43.9,12.1,45.3,12.1L45.3,12.1z"/>
	<path class="st0" d="M49.7,27.2c0-7.6,10.5-11.1,16.6-12l0,0c-6.1,0-16.3,0.6-20.9,5.2v0l0,0l0,0l0,0l0,0l0,0
		c-4.6-4.6-14.8-5.2-20.9-5.2l0,0c6.1,0.9,16.6,4.4,16.6,12C43.9,27.2,46.8,27.2,49.7,27.2L49.7,27.2z"/>
</g>
</svg>
