<svg width="152" height="51" viewBox="0 0 152 51" fill="none" xmlns="http://www.w3.org/2000/svg">
<path d="M127.179 51H25.618C11.4996 51 0 39.6414 0 25.5568C0 11.5857 11.2719 0.227171 25.1625 0H127.179C140.956 0.454343 152 11.6993 152 25.5568H148.47C148.47 13.6303 138.906 3.9755 127.065 3.52116H25.1625C13.2075 3.74833 3.52959 13.5167 3.52959 25.5568C3.52959 31.6904 6.03446 37.1425 10.0195 41.118C14.0045 45.0935 19.5835 47.5924 25.618 47.5924H127.065C138.906 47.2517 148.47 37.4833 148.47 25.6704H152C152 39.3007 140.956 50.5457 127.179 51Z" fill="white"/>
<path d="M150.292 25.5568C150.292 12.7216 140.045 2.15814 127.179 1.81738H25.1625C12.1828 2.04455 1.82172 12.4944 1.82172 25.5568C1.82172 38.7327 12.5243 49.2962 25.7318 49.2962H127.179C139.931 48.8419 150.292 38.392 150.292 25.5568Z" fill="#00708D"/>
<path d="M41.7858 27.2606C42.9243 27.2606 43.8352 26.3519 43.8352 25.216C43.8352 24.0802 42.9243 23.1715 41.7858 23.1715H17.1925C16.0539 23.1715 15.1431 24.0802 15.1431 25.216C15.1431 26.3519 16.0539 27.2606 17.1925 27.2606H27.6674V39.6414C27.6674 40.7773 28.5783 41.686 29.7169 41.686C30.8554 41.686 31.7663 40.7773 31.7663 39.6414V27.2606H41.7858ZM37.2315 28.3964H32.9049V39.5278C32.9049 41.3452 31.4247 42.7082 29.7169 42.7082C27.8951 42.7082 26.5288 41.2316 26.5288 39.5278V28.3964H17.3064C15.4846 28.3964 14.1183 26.9198 14.1183 25.216C14.1183 23.5123 15.5985 22.0356 17.3064 22.0356H41.8996C43.7213 22.0356 45.0876 23.5123 45.0876 25.216C45.0876 27.0334 43.6075 28.3964 41.8996 28.3964H36.0929H37.2315Z" fill="white"/>
<path d="M41.7858 29.7595C44.2906 29.7595 46.3401 27.7149 46.3401 25.216C46.3401 22.7171 44.2906 20.6726 41.7858 20.6726H17.1925C14.6876 20.6726 12.6382 22.7171 12.6382 25.216C12.6382 27.7149 14.6876 29.7595 17.1925 29.7595H24.5932C24.7071 29.7595 24.9348 29.873 25.0487 29.9866C25.1625 30.1002 25.2764 30.2138 25.2764 30.441V39.5278C25.2764 42.0267 27.3258 44.1849 29.8307 44.1849C32.3356 44.1849 34.385 42.0267 34.385 39.5278V30.441C34.385 30.3274 34.4989 30.1002 34.6127 29.9866C34.7266 29.873 34.8404 29.7595 35.0681 29.7595H41.7858ZM35.4097 30.8953V39.4142C35.4097 42.5947 32.9049 45.3207 29.7168 45.3207C26.5288 45.3207 24.024 42.5947 24.024 39.4142V30.8953H17.3063C14.1183 30.8953 11.6135 28.2828 11.6135 25.216C11.6135 22.0356 14.2322 19.5367 17.3063 19.5367H41.8996C45.0876 19.5367 47.5925 22.1492 47.5925 25.216C47.5925 28.3964 44.9738 30.8953 41.8996 30.8953H38.5977H35.4097Z" fill="white"/>
<path d="M24.4794 11.6993C24.4794 14.5389 26.7566 16.8107 29.603 16.8107C32.4495 16.8107 34.7266 14.5389 34.7266 11.6993C34.7266 8.85966 32.4495 6.58794 29.603 6.58794C26.7566 6.70153 24.4794 8.97325 24.4794 11.6993ZM23.227 11.6993C23.227 8.17815 26.0734 5.3385 29.603 5.3385C33.1326 5.3385 35.979 8.17815 35.979 11.6993C35.979 15.2205 33.1326 18.0601 29.603 18.0601C26.0734 18.1737 23.227 15.334 23.227 11.6993Z" fill="white"/>
<path d="M27.212 11.6993C27.212 13.0623 28.3506 14.1982 29.7169 14.1982C31.0832 14.1982 32.2217 13.0623 32.2217 11.6993C32.2217 10.3363 31.0832 9.20043 29.7169 9.20043C28.2367 9.31402 27.212 10.4499 27.212 11.6993ZM25.8457 11.6993C25.8457 9.65478 27.5536 7.95099 29.603 7.95099C31.6524 7.95099 33.3603 9.65478 33.3603 11.6993C33.3603 13.7439 31.6524 15.4476 29.603 15.4476C27.5536 15.5612 25.8457 13.8574 25.8457 11.6993Z" fill="white"/>
<path d="M70.9333 16.5836C71.1611 15.902 71.7303 15.7885 72.4135 15.7885C73.3243 15.7885 74.0075 16.0156 74.0075 16.9243V32.2584C74.0075 32.9399 73.5521 33.2807 72.8689 33.2807C72.1858 33.2807 71.7303 32.9399 71.7303 32.2584V19.9911L66.7206 32.7127C66.4929 33.1671 66.1513 33.2807 65.6959 33.2807C65.2405 33.2807 64.785 33.1671 64.6712 32.7127L59.6614 19.9911V32.1448C59.6614 32.8263 59.3199 33.1671 58.5229 33.1671C57.8397 33.1671 57.3843 32.8263 57.3843 32.1448V17.0379C57.3843 16.0156 58.1813 15.902 58.9783 15.902C59.5476 15.902 60.2307 16.0156 60.5723 16.6971L65.6959 29.8731L70.9333 16.5836Z" fill="white"/>
<path d="M88.9229 23.3986C89.606 23.3986 89.9476 23.853 89.9476 24.4209C89.9476 24.9888 89.606 25.4432 88.9229 25.4432H80.9528V31.2361H89.7199C90.2892 31.2361 90.7446 31.5768 90.7446 32.2583C90.7446 32.9398 90.403 33.2806 89.7199 33.2806H79.8142C79.0172 33.2806 78.6757 32.9398 78.6757 32.1447V17.1514C78.6757 16.3563 79.0172 16.0156 79.8142 16.0156H89.3783C90.0614 16.0156 90.403 16.3563 90.403 17.0378C90.403 17.7193 90.0614 18.1737 89.3783 18.1737H81.0667V23.3986H88.9229Z" fill="white"/>
<path d="M97.1206 31.1225H100.195C101.447 31.1225 102.927 31.0089 104.066 30.441C106.001 29.3051 106.685 26.579 106.685 24.5345C106.685 23.1715 106.457 21.6949 105.774 20.4454C104.635 18.4009 102.813 18.0601 100.65 18.0601H97.2345V31.1225H97.1206ZM100.992 16.0156C102.358 16.0156 103.838 16.1291 104.977 16.6971C108.051 18.0601 108.962 21.3541 108.962 24.5345C108.962 26.1247 108.734 27.9421 108.051 29.3051C106.343 32.7127 103.383 33.2806 99.8532 33.2806H95.982C95.185 33.2806 94.8434 32.9398 94.8434 32.1447V17.1514C94.8434 16.3563 95.185 16.0156 95.982 16.0156H100.992Z" fill="white"/>
<path d="M115.338 32.2584C115.338 32.9399 114.882 33.3942 114.085 33.3942C113.402 33.3942 112.947 32.9399 112.947 32.2584V16.9243C112.947 16.1292 113.402 15.7885 114.199 15.7885C114.882 15.7885 115.338 16.2428 115.338 16.9243V32.2584Z" fill="white"/>
<path d="M129.57 29.3051C129.456 29.1915 129.342 28.9643 129.342 28.7372C129.342 28.1692 129.912 27.4877 130.595 27.4877C130.822 27.4877 130.936 27.4877 131.164 27.7149L132.189 28.8507C132.872 27.6013 133.214 26.0111 133.214 24.4209C133.214 20.2182 130.823 17.7193 127.407 17.7193C124.219 17.7193 121.714 20.2182 121.714 24.6481C121.714 28.6236 123.763 31.5768 127.521 31.5768C129.115 31.5768 130.026 31.0089 130.709 30.5545L129.57 29.3051ZM135.491 32.1447C135.718 32.3719 135.832 32.5991 135.832 32.8262C135.832 33.3942 135.263 33.9621 134.694 33.9621C134.352 33.9621 134.124 33.8485 134.011 33.6213L132.303 31.9176C131.847 32.2583 130.367 33.3942 127.521 33.3942C122.511 33.3942 119.323 29.9866 119.323 24.5345C119.323 22.9443 119.551 21.4677 120.234 19.9911C121.372 17.7193 123.649 15.6748 127.407 15.6748C132.303 15.6748 135.605 18.9688 135.605 24.5345C135.605 28.0556 134.238 29.873 133.783 30.4409L135.491 32.1447Z" fill="white"/>
</svg>
