<?xml version="1.0" encoding="UTF-8"?>
<svg id="Laag_1" data-name="Laag 1" xmlns="http://www.w3.org/2000/svg" viewBox="0 0 417.94 146.35">
  <defs>
    <style>
      .cls-1 {
        fill: #fff;
      }

      .cls-2 {
        fill: #00697f;
      }
    </style>
  </defs>
  <path class="cls-1" d="m417.93,73.2c0,39.64-31.51,71.9-70.87,73.14h-.26s-273.08,0-273.61,0h0C32.77,146.34,0,113.6,0,73.17h0C0,33.21,32.02.75,71.97,0h275.1c39.36,1.23,70.86,33.52,70.87,73.17h0"/>
  <path class="cls-2" d="m409.48,73.24c0-35.07-27.88-63.63-62.68-64.71H71.97c-35.18.66-63.51,29.37-63.51,64.71s28.99,64.72,64.73,64.72h273.61c34.8-1.09,62.68-29.63,62.68-64.69"/>
  <path class="cls-1" d="m116.61,57.42H51.21c-8.72,0-15.81,7.09-15.81,15.82s7.09,15.81,15.81,15.82h16.9v21.76c.02,8.7,7,16.27,15.83,16.31,8.81-.04,15.8-7.61,15.81-16.31v-21.76h16.86c8.72,0,15.81-7.09,15.82-15.82,0-8.73-7.1-15.82-15.82-15.82Zm0,28.26h-18.55c-.45,0-.89.18-1.2.5-.31.31-.49.74-.49,1.19v23.46c-.01,6.88-5.67,12.91-12.43,12.93-6.78-.01-12.44-6.04-12.44-12.93v-23.46c0-.45-.18-.88-.49-1.19-.31-.31-.75-.5-1.2-.5h-18.59c-6.85,0-12.42-5.58-12.43-12.43.01-6.86,5.58-12.43,12.43-12.44h65.4c6.84.01,12.42,5.59,12.44,12.44-.01,6.84-5.6,12.42-12.44,12.44Z"/>
  <path class="cls-1" d="m116.55,64.32H51.25c-4.92,0-8.92,3.99-8.92,8.91s3.99,8.92,8.92,8.92h23.76v29.19c0,4.93,4,8.91,8.92,8.92,4.93,0,8.91-4,8.91-8.92v-29.19h23.71c4.92,0,8.91-4,8.91-8.92s-3.99-8.91-8.91-8.91Zm0,14.45h-27.09v32.57c0,3.05-2.47,5.52-5.52,5.53-3.06,0-5.53-2.48-5.54-5.53v-32.57h-27.15c-3.05,0-5.53-2.49-5.54-5.53,0-3.05,2.48-5.52,5.54-5.53h65.3c3.04,0,5.52,2.48,5.53,5.53,0,3.05-2.49,5.53-5.53,5.53Z"/>
  <path class="cls-1" d="m203.98,92.27c0,.86-.27,2.89-3.03,2.89-1.83,0-3.08-.91-3.08-2.89l.26-27.26c0-3.34,0-4.53.33-6.96.14-.72.27-1.43.32-2.09-.19.78-.46,1.64-.71,2.48-1.12,3.75-1.44,4.47-3.34,9.4l-10.25,25.8c-.26.66-.65,1.51-2.89,1.51-2.03,0-2.49-.85-2.76-1.51l-10.5-26.66c-2.3-6.3-2.75-7.61-3.74-11.49.39,3.34.39,3.93.52,8.85l.4,27.92c0,.86-.26,2.89-2.96,2.89s-3.09-1.9-3.09-2.81v-41.24c0-.72.13-1.45.79-2.17.26-.27.98-.99,3.54-.99,3.02,0,3.68.92,4.07,2.03l12.61,32.38c.59,1.57.79,2.03,1.32,4.27.46-1.84.79-2.76,1.37-4.27l12.48-32.38c.4-1.04,1.05-2.03,4.07-2.03,3.86,0,4.26,1.78,4.26,3.16v41.17Z"/>
  <path class="cls-1" d="m222.64,54.12v14.17h21.21c.79,0,2.7.2,2.7,2.76s-1.91,2.7-2.7,2.7h-21.21v15.43h23.44c.79,0,2.7.2,2.7,2.76s-1.9,2.82-2.7,2.82h-26.58c-2.63,0-3.02-1.58-3.09-3.08v-40.19c.14-1.92.79-3.09,3.09-3.09h25.47c.85,0,2.82.25,2.82,2.89s-2.03,2.83-2.82,2.83h-22.33Z"/>
  <path class="cls-1" d="m263.29,94.77c-.86,0-3.09-.13-3.09-3.08v-40.26c0-1.98.86-3.09,3.09-3.09h11.88c6.04,0,12.48.4,17.4,5.58,4.66,4.92,5.64,11.95,5.64,17.14,0,8.15-2.36,14.45-5.97,18.13-5.39,5.39-12.87,5.58-18.52,5.58h-10.44Zm3.15-5.52h4.66c8.86,0,14.51-.13,18.19-6.44,2.23-3.81,2.63-8.93,2.63-11.75,0-3.34-.52-7.35-2.37-10.64-3.09-5.52-8.21-6.24-11.96-6.5-1.11-.06-3.67-.06-5.51-.06h-5.65v35.39Z"/>
  <path class="cls-1" d="m315.29,92.14c0,.85-.26,3.01-3.09,3.01-1.71,0-3.09-1.04-3.09-3.01v-41.11c0-.92.34-3.02,3.09-3.02s3.09,2.17,3.09,3.02v41.11Z"/>
  <path class="cls-1" d="m360.99,91.48c-1.31.99-5.32,3.95-12.87,3.95-13.34,0-21.87-9.2-21.87-23.78,0-4.2.65-8.34,2.56-12.27,2.95-5.98,9.26-11.7,19.31-11.7,13.13,0,21.93,9,21.93,23.97,0,2.3-.19,4.73-.79,7.16-1.18,4.79-3.28,7.55-4.07,8.59l4.4,4.47c.53.59.85,1.12.85,1.9,0,1.52-1.57,3.02-3.02,3.02-.85,0-1.31-.38-1.9-.85l-4.53-4.47Zm-.26-8.54c1.78-3.22,2.82-7.48,2.82-11.88,0-11.23-6.5-18.05-15.43-18.05s-15.37,6.63-15.37,18.52c0,10.58,5.39,18.52,15.43,18.52,4.27,0,6.71-1.45,8.6-2.7l-3.08-3.15c-.4-.4-.59-.92-.59-1.39,0-1.37,1.64-3.35,3.42-3.35.52,0,.85.2,1.38.54l2.82,2.95Z"/>
  <path class="cls-1" d="m66.59,36.64c0-9.57,7.76-17.35,17.34-17.35h0c9.57,0,17.34,7.78,17.34,17.35h0c0,9.58-7.78,17.32-17.34,17.32h0c-9.57,0-17.34-7.76-17.34-17.32h0Zm3.38,0c.01,7.7,6.25,13.93,13.96,13.94h0c7.7-.01,13.95-6.25,13.96-13.94h0c-.01-7.7-6.27-13.95-13.96-13.96h0c-7.7.01-13.94,6.26-13.96,13.96h0Z"/>
  <path class="cls-1" d="m73.42,36.64c0-5.8,4.69-10.51,10.51-10.51h0c5.8,0,10.51,4.71,10.51,10.51h0c0,5.81-4.71,10.51-10.51,10.51h0c-5.81,0-10.5-4.7-10.51-10.51h0Zm3.38,0c0,3.94,3.18,7.12,7.13,7.13h0c3.93-.01,7.11-3.19,7.12-7.13h0c0-3.93-3.2-7.12-7.12-7.13h0c-3.94,0-7.12,3.19-7.13,7.13h0Z"/>
</svg>