<svg width="161" height="26" xmlns="http://www.w3.org/2000/svg" xmlns:xlink="http://www.w3.org/1999/xlink"><defs><circle id="a" cx="13" cy="13" r="13"/></defs><g fill="none" fill-rule="evenodd"><path d="M0-11h162v48H0z"/><path d="M46.922 22.238h-1.127l-2.577-7.435a46.368 46.368 0 01-.723-2.251h-.043c-.255.853-.51 1.575-.744 2.251l-2.684 7.435h-1.149L33 7.762h1.683l3.13 9.621c.254.81.488 1.53.68 2.252h.04c.193-.7.469-1.42.746-2.207l2.43-6.824-.96-2.842h1.64l3.214 9.533c.276.832.554 1.53.746 2.23h.042c.17-.722.362-1.376.617-2.162l3.066-9.601h1.64l-4.792 14.476zm12.375-1.272c-.774.819-1.86 1.272-3.134 1.272-1.233 0-2.298-.432-3.07-1.25-.898-.947-1.38-2.39-1.38-4.073 0-1.68.503-3.08 1.38-4.028.794-.84 1.858-1.316 3.09-1.316 1.276 0 2.34.475 3.135 1.316.875.947 1.378 2.348 1.378 4.028 0 1.681-.502 3.103-1.399 4.051m-3.113-8.06c-1.86 0-2.924 1.552-2.924 3.965 0 2.412 1.107 4.009 2.945 4.009 1.839 0 2.945-1.597 2.945-4.009 0-2.413-1.063-3.965-2.966-3.965m8.46 9.332c-1.19 0-1.702-.826-1.702-1.94V6.239h1.497v13.326c0 1.002.226 1.203.8 1.203.102 0 .266 0 .513-.065l.184 1.18c-.45.245-.799.356-1.292.356m5.998-.001c-1.51 0-2.247-.896-2.247-2.263v-7.173h-1.71v-1.389h1.71v-2.33l1.625-.56v2.891h3.224l-.578 1.389H70.02v6.679c0 .897.333 1.3 1.023 1.3.756 0 1.445-.426 1.868-.763l.51 1.165c-.778.582-1.8 1.054-2.779 1.054m5.214-5.045c0 1.941 1.124 3.665 3.391 3.665.865 0 1.817-.345 2.422-.733l.476 1.078c-.737.603-2.033 1.035-3.22 1.035-3.199 0-4.755-2.608-4.755-5.517 0-2.953 1.685-5.15 4.148-5.15 2.636 0 4.086 2.09 4.086 5.257v.366h-6.548zm2.485-4.287c-1.514 0-2.464 1.336-2.464 2.952h4.819c0-1.421-.8-2.952-2.355-2.952zm10.905.536a2.376 2.376 0 00-.931-.177c-.58 0-1.532.53-2.153 1.254v7.72h-1.513V11.835h1.243l.208 1.187c1.346-1.297 2.092-1.452 2.794-1.452.435 0 .809.177.995.31l-.643 1.56zm4.347 8.796c-1.435 0-2.3-.388-2.956-.776l.59-1.229c.467.3 1.331.733 2.43.733 1.224 0 2.112-.56 2.112-1.509 0-2.5-4.541-1.615-4.541-5.192 0-1.466 1.036-2.694 3.317-2.694 1.055 0 1.856.235 2.511.538v1.38c-.695-.3-1.413-.602-2.45-.602-1.013 0-1.857.365-1.857 1.292 0 2.284 4.625 1.704 4.625 5.041 0 2.135-1.732 3.018-3.78 3.018m18.074 0l-5.898-6.546h-.023v6.546h-1.636V7.762h1.636v6.656h.023l5.494-6.611h2.04l-6.078 7.116 6.616 7.315zm5.374 0c-1.19 0-1.703-.826-1.703-1.94V6.239h1.496v13.326c0 1.002.226 1.203.801 1.203.102 0 .267 0 .513-.065l.184 1.18c-.45.245-.8.356-1.29.356m9.741-.222l-.417-1.082c-.77.662-1.982 1.303-3.37 1.303-1.405 0-3.167-.728-3.167-3.666v-7h1.605v6.845c0 1.745.727 2.43 2.027 2.43 1.32 0 2.333-.84 2.772-1.392V11.57h1.608v6.073c0 3.29.066 3.93.222 4.373h-1.28zm14.324.221h-1.448l-2.592-8.548h-.065l-2.568 8.548h-1.404l-3.47-10.667h1.626l2.545 8.411h.066l2.57-8.41h1.448l2.59 8.433h.065l2.503-8.434h1.558zm5.859-5.045c0 1.941 1.124 3.665 3.392 3.665.865 0 1.816-.345 2.42-.733l.475 1.078c-.735.603-2.03 1.035-3.218 1.035-3.2 0-4.755-2.608-4.755-5.517 0-2.953 1.685-5.15 4.149-5.15 2.635 0 4.085 2.09 4.085 5.257v.366h-6.548zm2.485-4.287c-1.514 0-2.465 1.336-2.465 2.952h4.82c0-1.421-.8-2.952-2.355-2.952zm10.905.536a2.37 2.37 0 00-.932-.177c-.578 0-1.532.53-2.154 1.254v7.72h-1.51V11.835h1.241l.209 1.187c1.345-1.297 2.09-1.452 2.794-1.452.435 0 .81.177.995.31l-.643 1.56z" fill="#474747"/><mask id="b" fill="#fff"><use xlink:href="#a"/></mask><use fill="#007AC3" xlink:href="#a"/><path fill="#85BC20" mask="url(#b)" d="M3.824 3.824h18.353v18.353H3.824z"/><path fill="#A6D1EA" mask="url(#b)" d="M0 9.941h26v6.118H0z"/><path fill="#409BD2" mask="url(#b)" d="M9.941 9.941H26v6.118H9.941z"/><path fill="#A6D1EA" mask="url(#b)" d="M9.941 0h6.118v26H9.941z"/><path fill="#409BD2" mask="url(#b)" d="M9.941 9.941h6.118V26H9.941z"/><path fill="#A4CD58" mask="url(#b)" d="M9.941 9.941h12.235v12.235H9.941z"/><path fill="#D4E8B1" mask="url(#b)" d="M3.824 3.824h12.235v12.235H3.824z"/><path fill="#409BD2" mask="url(#b)" d="M0 0h9.941v9.941H0z"/><path fill="#E5202E" mask="url(#b)" d="M9.941 9.941h6.118v6.118H9.941z"/><path fill="#A4CD58" mask="url(#b)" d="M3.824 3.824h6.118v6.118H3.824z"/><path fill="#85BC20" mask="url(#b)" d="M16.059 16.059h6.118v6.118h-6.118z"/><g fill="#474747"><path d="M23.938 23.75h.483c.098 0 .185.012.248.035.204.058.303.206.303.376 0 .241-.19.366-.366.407v.007c.106.05.27.347.456.675H24.7c-.205-.356-.326-.592-.393-.597h-.054v.597h-.315v-1.5zm.39.663c.163 0 .306-.062.306-.216 0-.092-.041-.162-.126-.183a.433.433 0 00-.171-.023h-.084v.422h.076z"/><path d="M26 24.5a1.5 1.5 0 11-3 0 1.5 1.5 0 013 0zm-1.5-1.184a1.184 1.184 0 100 2.368 1.184 1.184 0 000-2.368z"/></g></g></svg>