<svg xmlns="http://www.w3.org/2000/svg" viewBox="0 0 537.7 248.6"><path fill="#fff" d="M13.5 142.2c0-59 103.3-89.9 202.1-98 1.7-10 10.9-16 19.9-16h.5c-.1-.9-.2-1.9-.2-2.9 0-10.7 9-19.1 19.8-19.1 1.4 0 2.8.2 4.2.4 1 .2 2.1.5 3.1.8 1.7.4 3.4.8 5.9.8 2.5 0 4.2-.4 6-.8 1.1-.3 2-.6 3.1-.8 1.3-.3 2.7-.4 4.2-.4 10.8 0 19.7 8.4 19.7 19.1 0 1 0 1.9-.2 2.9h.6c9 0 18.1 6 19.8 16 98.8 8.2 202.1 39 202.1 98 0 69.8-144.9 100.2-255.5 100.2-110.5 0-255.1-30.4-255.1-100.2"/><path fill="#2a8046" d="M269 236.1c-134.8 0-247.9-40.8-248.3-89 13.1 43.3 116.6 76 248.3 76 131.8 0 234.9-32.7 248-76-.3 48.2-113.2 89-248 89m0-187.9c-134.8 0-247.9 40.8-248.3 89 13.1-43.3 116.6-76 248.3-76 131.8 0 234.9 32.7 248 76-.3-48.1-113.1-89-248-89"/><path fill="#003d9c" d="M95.4 103.6l-9.6 73.1h18.8c1.5-10.6 2.3-21.3 4.2-31.9l12.7 32h1.4l13-31.5 4.2 31.6h19.3l-10-73.2h-15l-11.8 32.6-12.4-32.7H95.4m75.9.3v73.2h37.1l4.9-19-23.7.1V149h15.5v-18.6h-15.2v-8.2h23l-3.6-18.2-38-.1m188.4-.1V177h38.5l5.5-18.9h-23.4v-54.3h-20.6m51 .1v73.2h37.1l4.9-19-23.7.1V149h15.5v-18.6h-15.3v-8.2h23.1l-3.6-18.2-38-.1m-138.4 23.3c-5.7-3.5-9.5-5.5-16.3-5.5-9.9 0-17.5 8.2-17.5 18.5 0 11.1 6.6 19.5 17.5 19.5 2.3 0 4.6-.4 6.8-.9v-11.3h-7.1v-9.8h25.8v35.6c-7.7 3.6-16.2 5.1-24.6 5.1-21.2 0-36.7-14.1-36.7-37 0-22 15.6-38.9 36.5-38.9 8.7 0 15.5 2.2 23.2 6.2l-7.6 18.5m66.8 0c-5.7-3.5-9.5-5.5-16.2-5.5-9.9 0-17.6 8.2-17.5 18.5 0 11.1 6.7 19.5 17.5 19.5 2.3 0 4.6-.4 6.7-.9v-11.3h-7.1v-9.8h25.7v35.6c-7.7 3.6-16.2 5.1-24.6 5.1-21.2 0-36.7-14.1-36.7-37 0-22 15.6-38.9 36.5-38.9 8.7 0 15.6 2.2 23.2 6.2l-7.5 18.5"/><path fill="#fff" d="M322.1 44.4c.2 1 .3 2.1.3 3.2 0 1.9-.2 3.5-.5 4.8-.2 1.2-.5 2.2-.9 3.3-.5 1.4-.8 2.6-.8 5.1 0 2.7.4 4.1.8 5.4.3 1 .6 2 .8 3.1.3 1.3.5 2.7.5 4.5 0 9.8-7.7 19.9-20 19.9-7.7 0-13.4-4.8-17.1-8.7-1.4-1.4-2.7-2.9-3.9-4.4.5 5.7 1.6 12.9 1.6 12.9H255s1.1-7.2 1.6-12.9c-1.2 1.5-2.6 3-3.9 4.4-3.8 3.9-9.4 8.7-17.1 8.7-12.4 0-20.1-10.1-20.1-19.9 0-1.8.2-3.2.5-4.5.2-1.1.6-2 .9-3.1.4-1.3.8-2.6.8-5.4 0-2.4-.4-3.6-.8-5.1-.3-1.1-.7-2.1-.9-3.3-.3-1.3-.5-2.9-.5-4.8 0-1.1.1-2.1.2-3.2h106.4"/><path d="M322.2 44.4c.2 1 .3 2.1.3 3.2 0 1.9-.2 3.5-.5 4.8-.3 1.2-.6 2.2-.9 3.3-.5 1.4-.8 2.6-.8 5.1 0 2.7.4 4.1.8 5.4.3 1 .6 2 .9 3.1.3 1.3.5 2.7.5 4.5 0 9.8-7.7 19.9-20.1 19.9-7.7 0-13.3-4.8-17.1-8.7-1.4-1.4-2.7-2.9-3.9-4.4.5 5.7 1.6 12.9 1.6 12.9h-28s1.1-7.2 1.6-12.9c-1.2 1.5-2.5 3-3.9 4.4-3.8 3.9-9.4 8.7-17.1 8.7-12.3 0-20.1-10.1-20.1-19.9 0-1.8.2-3.3.5-4.5.2-1.1.5-2 .9-3.1.4-1.3.8-2.6.8-5.4 0-2.4-.4-3.6-.8-5.1-.3-1.1-.7-2.1-.9-3.3-.3-1.3-.5-2.9-.5-4.8 0-1.1.1-2.2.2-3.2h106.5z" fill="none"/><path fill="#003d9c" d="M268.9 14.4c-6.4 0-9-2-13.2-2-7.6 0-13.6 5.9-13.6 12.9 0 4.6 1.5 8 5.1 11.4l13.2 12.4c2.2 2 .1 4.5-2 2.3L245 38.3s-3-3.9-9.6-3.9c-7.2 0-14 5.3-14 13.1 0 5.7 2.3 6.5 2.3 13.2 0 7-2.1 7.8-2.1 12.9 0 6.7 5.4 13.7 13.9 13.7 10 0 16.3-12.4 22.1-17 4.2-3.3 5.4.1 5.4 5.8s-.8 11-.8 11h13.5s-.8-5.4-.8-11c0-5.7 1.1-9.1 5.3-5.8 5.8 4.6 12.1 17 22.2 17 8.5 0 13.9-6.9 13.9-13.7 0-5.2-2.1-5.9-2.1-12.9 0-6.6 2.2-7.5 2.2-13.2 0-7.9-6.8-13.1-13.9-13.1-6.6 0-9.6 3.9-9.6 3.9l-13.4 13.2c-2.1 2.1-4.2-.3-2-2.3l13.3-12.4c3.6-3.3 5.1-6.7 5.1-11.4 0-7.1-6-12.9-13.6-12.9-4.4-.1-7 1.9-13.4 1.9"/></svg>