<?xml version="1.0" encoding="UTF-8"?>
<svg id="Layer_2" data-name="Layer 2" xmlns="http://www.w3.org/2000/svg" viewBox="0 0 1069.02 195.56">
  <defs>
    <style>
      .cls-1 {
        fill: #fff;
      }
    </style>
  </defs>
  <g id="Layer_1-2" data-name="Layer 1">
    <g>
      <g>
        <path class="cls-1" d="M518.21,107.73c-.39-.39-.58-.85-.58-1.39v-58.6c0-.54.19-1,.58-1.39s.85-.58,1.39-.58h10.81c.72,0,1.27.16,1.66.49.39.33.7.79.94,1.39l17.51,44.04c.18.36.42.54.72.54s.54-.18.72-.54l17.51-44.04c.23-.6.54-1.06.89-1.39.36-.33.9-.49,1.61-.49h10.9c.59,0,1.07.19,1.43.58.36.39.54.85.54,1.39v58.6c0,.54-.18,1-.54,1.39-.36.39-.83.58-1.43.58h-6.79c-.54,0-1-.19-1.39-.58-.39-.39-.58-.85-.58-1.39v-39.93c0-.42-.19-.65-.58-.71-.39-.06-.67.12-.85.54l-16.08,39.93c-.3.78-.63,1.33-.99,1.65-.36.33-.81.49-1.34.49h-6.07c-.6,0-1.06-.16-1.39-.49-.33-.33-.64-.88-.94-1.65l-16.17-39.93c-.18-.42-.46-.59-.85-.54-.39.06-.58.3-.58.71v39.93c0,.54-.19,1-.58,1.39-.39.39-.85.58-1.39.58h-6.7c-.54,0-1-.19-1.39-.58Z"/>
        <path class="cls-1" d="M601.34,106.84c-3.34-1.99-5.88-4.84-7.64-8.53-1.75-3.69-2.63-7.95-2.63-12.77s.88-8.98,2.63-12.64c1.76-3.66,4.29-6.52,7.6-8.58,3.3-2.06,7.25-3.08,11.83-3.08s8.34.89,11.61,2.68c3.27,1.79,5.81,4.33,7.59,7.64,1.79,3.31,2.68,7.25,2.68,11.84v3.22c0,.77-.22,1.39-.67,1.83-.45.45-1,.67-1.65.67h-29.75c-.3,0-.54.08-.72.22-.18.15-.27.34-.27.58.12,2.38.7,4.42,1.74,6.12,1.04,1.7,2.41,2.98,4.11,3.84,1.7.86,3.56,1.3,5.59,1.3,2.26,0,4.17-.43,5.72-1.3,1.55-.86,2.8-2.1,3.75-3.71.36-.59.7-1.03,1.03-1.3.33-.27.73-.4,1.21-.4h6.88c.54,0,.98.21,1.34.63.36.42.45.95.27,1.61-1.13,3.93-3.47,7.1-7.01,9.52-3.54,2.41-7.93,3.62-13.18,3.62-4.71,0-8.73-1-12.06-2.99ZM624.26,80.62c.15-.18.22-.39.22-.63,0-1.85-.46-3.56-1.39-5.14-.93-1.58-2.24-2.85-3.93-3.8-1.7-.95-3.68-1.43-5.94-1.43-3.27,0-5.93,1-7.95,2.99-2.02,2-3.13,4.45-3.3,7.37,0,.24.09.45.27.63.18.18.42.27.72.27h20.64c.3,0,.52-.09.67-.27Z"/>
        <path class="cls-1" d="M641.54,107.78c-.36-.36-.54-.77-.54-1.25v-41.99c0-.47.18-.89.54-1.25s.77-.54,1.25-.54h4.65c.59,0,1.07.13,1.43.4.36.27.68.58.98.94.3.42.59.75.9.99.3.24.65.36,1.07.36.48,0,.92-.12,1.34-.36.41-.24.83-.54,1.25-.9,1.31-.89,2.66-1.61,4.07-2.14,1.4-.54,3.35-.8,5.85-.8,3.39,0,6.43.74,9.11,2.23,2.68,1.49,4.78,3.66,6.3,6.52,1.52,2.86,2.28,6.25,2.28,10.18v26.35c0,.48-.18.9-.54,1.25-.36.36-.77.54-1.25.54h-6.7c-.48,0-.89-.18-1.25-.54-.36-.36-.54-.77-.54-1.25v-24.66c0-3.34-.92-5.93-2.77-7.77-1.84-1.85-4.32-2.77-7.41-2.77s-5.6.92-7.5,2.77c-1.91,1.85-2.86,4.44-2.86,7.77v24.66c0,.48-.18.9-.54,1.25-.36.36-.77.54-1.25.54h-6.61c-.48,0-.9-.18-1.25-.54Z"/>
        <path class="cls-1" d="M697.24,108.14c-3.13-1.13-5.55-2.83-7.28-5.09-1.73-2.26-2.65-4.97-2.77-8.13-.06-.54.07-.97.4-1.3.33-.33.82-.49,1.48-.49h6.61c.59,0,1.04.16,1.34.49.3.33.54.76.72,1.3.18,1.49.71,2.71,1.61,3.66.9.95,2.1,1.68,3.62,2.19,1.52.51,3.32.76,5.41.76,3.16,0,5.57-.55,7.24-1.65,1.66-1.1,2.5-2.55,2.5-4.33,0-1.43-.43-2.55-1.3-3.35s-2.4-1.39-4.6-1.74l-10.09-1.61c-4.59-.71-7.95-2.19-10.1-4.42-2.14-2.23-3.21-5.14-3.21-8.71,0-2.92.81-5.46,2.46-7.64,1.64-2.17,3.93-3.85,6.88-5.05,2.95-1.19,6.36-1.79,10.23-1.79,3.63,0,6.88.54,9.74,1.61,2.86,1.07,5.12,2.65,6.79,4.74,1.67,2.08,2.59,4.56,2.77,7.41.06.54-.09.97-.45,1.3-.36.33-.86.49-1.52.49h-6.25c-.54,0-.97-.15-1.3-.45-.33-.3-.55-.74-.67-1.34-.42-1.79-1.4-3.14-2.95-4.06-1.55-.92-3.63-1.38-6.25-1.38-2.86,0-5.06.49-6.61,1.47-1.55.98-2.32,2.34-2.32,4.06,0,1.43.54,2.53,1.61,3.31,1.07.77,2.95,1.34,5.63,1.7l8.93,1.34c4.71.78,8.07,2.25,10.09,4.42,2.02,2.18,3.04,5.11,3.04,8.8,0,3.04-.79,5.7-2.37,8-1.58,2.29-3.89,4.07-6.92,5.32-3.04,1.25-6.73,1.88-11.08,1.88s-7.91-.57-11.03-1.7Z"/>
        <path class="cls-1" d="M747.59,108.05c-2.92-1.19-5.36-2.95-7.33-5.27-1.79-2.15-3.16-4.66-4.11-7.55-.95-2.89-1.43-6.12-1.43-9.69,0-2.38.22-4.62.67-6.7.45-2.08,1.07-4,1.88-5.76.8-1.75,1.8-3.35,2.99-4.78,1.97-2.33,4.41-4.08,7.33-5.27,2.91-1.19,6.19-1.79,9.82-1.79s7.03.67,10.01,2.01c2.98,1.34,5.36,3.28,7.14,5.81,1.79,2.53,2.86,5.44,3.22,8.71.06.54-.07.97-.4,1.3s-.73.49-1.21.49h-6.97c-.42,0-.79-.12-1.12-.36-.33-.24-.55-.6-.67-1.08-.6-1.96-1.71-3.59-3.35-4.87-1.64-1.28-3.89-1.92-6.75-1.92-1.97,0-3.72.34-5.27,1.03-1.55.69-2.83,1.71-3.84,3.08-1.02,1.19-1.78,2.64-2.28,4.33-.51,1.7-.76,3.62-.76,5.76s.25,4.06.76,5.76c.5,1.7,1.26,3.14,2.28,4.33,1.01,1.37,2.29,2.4,3.84,3.08,1.55.69,3.3,1.03,5.27,1.03,2.68,0,4.9-.64,6.66-1.92,1.75-1.28,2.9-2.9,3.44-4.87.12-.47.34-.83.67-1.07.32-.24.7-.36,1.12-.36h6.97c.48,0,.88.18,1.21.54s.46.78.4,1.25c-.36,3.27-1.46,6.16-3.3,8.66-1.85,2.5-4.26,4.44-7.24,5.81-2.98,1.37-6.25,2.06-9.83,2.06s-6.91-.6-9.82-1.79Z"/>
        <path class="cls-1" d="M786.18,107.78c-.36-.36-.54-.77-.54-1.25v-60.75c0-.48.18-.9.54-1.25.36-.36.77-.54,1.25-.54h6.61c.48,0,.89.18,1.25.54.36.36.54.77.54,1.25v16.88c0,.6.13,1.04.4,1.34.27.3.64.45,1.12.45.36,0,.74-.09,1.16-.27.41-.18.81-.39,1.16-.63,1.01-.72,2.2-1.28,3.57-1.7,1.37-.42,3.25-.63,5.63-.63,3.45,0,6.52.76,9.2,2.28,2.68,1.52,4.78,3.75,6.3,6.7,1.52,2.95,2.28,6.45,2.28,10.49v25.82c0,.48-.18.9-.54,1.25-.36.36-.77.54-1.25.54h-6.7c-.48,0-.89-.18-1.25-.54-.36-.36-.54-.77-.54-1.25v-24.21c0-3.45-.92-6.15-2.77-8.09-1.84-1.93-4.32-2.9-7.41-2.9s-5.6.97-7.5,2.9c-1.91,1.94-2.86,4.63-2.86,8.09v24.21c0,.48-.18.9-.54,1.25-.36.36-.77.54-1.25.54h-6.61c-.48,0-.9-.18-1.25-.54Z"/>
        <path class="cls-1" d="M843,106.84c-3.34-1.99-5.88-4.84-7.64-8.53-1.75-3.69-2.63-7.95-2.63-12.77s.88-8.98,2.63-12.64c1.76-3.66,4.29-6.52,7.6-8.58,3.3-2.06,7.25-3.08,11.83-3.08s8.34.89,11.61,2.68c3.27,1.79,5.81,4.33,7.59,7.64,1.79,3.31,2.68,7.25,2.68,11.84v3.22c0,.77-.22,1.39-.67,1.83-.45.45-1,.67-1.65.67h-29.75c-.3,0-.54.08-.72.22s-.27.34-.27.58c.12,2.38.7,4.42,1.74,6.12,1.04,1.7,2.41,2.98,4.11,3.84,1.7.86,3.56,1.3,5.59,1.3,2.26,0,4.17-.43,5.72-1.3,1.55-.86,2.8-2.1,3.75-3.71.36-.59.7-1.03,1.03-1.3.33-.27.73-.4,1.21-.4h6.88c.54,0,.98.21,1.34.63.36.42.45.95.27,1.61-1.13,3.93-3.47,7.1-7.01,9.52-3.54,2.41-7.93,3.62-13.18,3.62-4.71,0-8.73-1-12.06-2.99ZM865.91,80.62c.15-.18.22-.39.22-.63,0-1.85-.46-3.56-1.39-5.14-.93-1.58-2.24-2.85-3.93-3.8-1.7-.95-3.68-1.43-5.94-1.43-3.27,0-5.93,1-7.95,2.99-2.02,2-3.13,4.45-3.3,7.37,0,.24.09.45.27.63s.42.27.72.27h20.64c.3,0,.52-.09.67-.27Z"/>
        <path class="cls-1" d="M883.2,107.78c-.36-.36-.54-.77-.54-1.25v-41.99c0-.47.18-.89.54-1.25.36-.36.77-.54,1.25-.54h4.65c.59,0,1.07.13,1.43.4.36.27.68.58.98.94.3.42.59.75.9.99.3.24.65.36,1.07.36.48,0,.92-.12,1.34-.36.41-.24.83-.54,1.25-.9,1.31-.89,2.66-1.61,4.07-2.14,1.4-.54,3.35-.8,5.85-.8,3.39,0,6.43.74,9.11,2.23,2.68,1.49,4.78,3.66,6.3,6.52,1.52,2.86,2.28,6.25,2.28,10.18v26.35c0,.48-.18.9-.54,1.25-.36.36-.77.54-1.25.54h-6.7c-.48,0-.89-.18-1.25-.54-.36-.36-.54-.77-.54-1.25v-24.66c0-3.34-.92-5.93-2.77-7.77-1.84-1.85-4.32-2.77-7.41-2.77s-5.6.92-7.5,2.77c-1.91,1.85-2.86,4.44-2.86,7.77v24.66c0,.48-.18.9-.54,1.25-.36.36-.77.54-1.25.54h-6.61c-.48,0-.9-.18-1.25-.54Z"/>
        <path class="cls-1" d="M523.44,193.51c-.36-.36-.54-.77-.54-1.25v-33.14c0-.59-.3-.89-.89-.89h-9.2c-.48,0-.9-.18-1.25-.54-.36-.36-.54-.77-.54-1.25v-6.16c0-.48.18-.9.54-1.25.36-.36.77-.54,1.25-.54h9.2c.3,0,.52-.09.67-.27.15-.18.22-.39.22-.63v-3.66c0-4.23,1.35-7.65,4.07-10.27,2.71-2.62,6.24-3.93,10.58-3.93h7.33c.48,0,.89.18,1.25.54.36.36.54.78.54,1.25v6.16c0,.3-.19.6-.58.89-.39.3-.79.45-1.21.45h-6.52c-1.61,0-2.89.46-3.84,1.38-.95.93-1.43,2.22-1.43,3.89v3.31c0,.6.3.9.9.9h11.79c.48,0,.9.18,1.25.54.36.36.54.77.54,1.25v6.16c0,.48-.18.9-.54,1.25-.36.36-.78.54-1.25.54h-11.79c-.24,0-.45.07-.63.22-.18.15-.27.37-.27.67v33.14c0,.48-.18.89-.54,1.25-.36.36-.77.54-1.25.54h-6.61c-.48,0-.89-.18-1.25-.54Z"/>
        <path class="cls-1" d="M561.27,193.38c-2.59-1.46-4.63-3.6-6.12-6.43-1.49-2.83-2.23-6.18-2.23-10.05v-26.62c0-.48.18-.9.54-1.25.36-.36.77-.54,1.25-.54h6.61c.48,0,.89.18,1.25.54.36.36.54.77.54,1.25v24.92c0,3.22.9,5.74,2.68,7.55,1.79,1.82,4.17,2.73,7.15,2.73s5.36-.91,7.15-2.73c1.79-1.81,2.68-4.33,2.68-7.55v-24.92c0-.48.18-.9.54-1.25.36-.36.77-.54,1.25-.54h6.7c.48,0,.9.18,1.25.54.36.36.54.77.54,1.25v41.99c0,.48-.18.89-.54,1.25-.36.36-.77.54-1.25.54h-4.74c-.54,0-.98-.1-1.34-.31-.36-.21-.69-.49-.99-.85-.3-.42-.58-.71-.85-.89-.27-.18-.67-.27-1.21-.27-.36,0-.74.11-1.16.31-.42.21-.83.43-1.25.67-1.19.89-2.49,1.59-3.89,2.1-1.4.51-3.29.76-5.67.76-3.34,0-6.3-.73-8.89-2.19ZM559.75,141.38c-.27-.27-.4-.61-.4-1.03v-8.31c0-.36.13-.69.4-.98.27-.3.61-.45,1.03-.45h7.32c.42,0,.76.15,1.03.45.27.3.4.63.4.98v8.31c0,.42-.13.76-.4,1.03-.27.27-.61.4-1.03.4h-7.32c-.42,0-.76-.13-1.03-.4ZM576.64,141.38c-.27-.27-.4-.61-.4-1.03v-8.31c0-.36.13-.69.4-.98.27-.3.61-.45,1.03-.45h7.42c.41,0,.76.15,1.03.45.27.3.4.63.4.98v8.31c0,.42-.13.76-.4,1.03-.27.27-.61.4-1.03.4h-7.42c-.42,0-.76-.13-1.03-.4Z"/>
        <path class="cls-1" d="M602.37,193.51c-.39-.36-.58-.77-.58-1.25v-41.99c0-.48.19-.9.58-1.25.39-.36.82-.54,1.3-.54h4.56c.54,0,.97.13,1.3.4.32.27.55.73.67,1.39.24,1.07.49,1.86.76,2.37.27.51.7.76,1.3.76.36,0,.74-.13,1.16-.4.41-.27.86-.58,1.34-.94,1.25-1.07,2.57-1.93,3.97-2.59,1.4-.65,3.29-.98,5.68-.98h4.56c.47,0,.89.18,1.25.54.36.36.54.77.54,1.25v7.06c0,.48-.18.89-.54,1.25-.36.36-.78.54-1.25.54h-5.1c-3.39,0-6.22,1-8.48,2.99-2.27,1.99-3.4,5.14-3.4,9.43v20.73c0,.48-.18.89-.54,1.25-.36.36-.77.54-1.25.54h-6.52c-.48,0-.91-.18-1.3-.54Z"/>
        <path class="cls-1" d="M665.35,193.47c-.39-.39-.58-.85-.58-1.39v-58.61c0-.54.19-1,.58-1.39.39-.39.85-.58,1.39-.58h10.81c.72,0,1.27.17,1.66.49.39.33.7.79.94,1.38l17.51,44.05c.18.36.42.54.72.54s.54-.18.72-.54l17.51-44.05c.23-.59.54-1.05.89-1.38.36-.33.9-.49,1.61-.49h10.9c.59,0,1.07.19,1.43.58.36.39.54.85.54,1.39v58.61c0,.54-.18,1-.54,1.39-.36.39-.83.58-1.43.58h-6.79c-.54,0-1-.19-1.39-.58s-.58-.85-.58-1.39v-39.93c0-.42-.19-.65-.58-.72-.39-.06-.67.12-.85.54l-16.08,39.93c-.3.77-.63,1.33-.99,1.65-.36.33-.81.49-1.34.49h-6.07c-.6,0-1.06-.16-1.39-.49-.33-.33-.64-.88-.94-1.65l-16.17-39.93c-.18-.41-.46-.59-.85-.54-.39.06-.58.3-.58.72v39.93c0,.54-.19,1-.58,1.39-.39.39-.85.58-1.39.58h-6.7c-.54,0-1-.19-1.39-.58Z"/>
        <path class="cls-1" d="M748.48,192.57c-3.34-1.99-5.88-4.84-7.64-8.53-1.75-3.69-2.63-7.95-2.63-12.77s.88-8.98,2.63-12.64c1.76-3.66,4.29-6.52,7.6-8.58,3.3-2.05,7.25-3.08,11.83-3.08s8.34.9,11.61,2.68c3.27,1.79,5.81,4.33,7.59,7.64,1.79,3.31,2.68,7.25,2.68,11.84v3.22c0,.78-.22,1.39-.67,1.83-.45.45-1,.67-1.65.67h-29.75c-.3,0-.54.07-.72.22-.18.15-.27.35-.27.58.12,2.38.7,4.42,1.74,6.12,1.04,1.7,2.41,2.98,4.11,3.84,1.7.86,3.56,1.3,5.59,1.3,2.26,0,4.17-.43,5.72-1.3,1.55-.86,2.8-2.1,3.75-3.71.36-.6.7-1.03,1.03-1.3.33-.27.73-.4,1.21-.4h6.88c.54,0,.98.21,1.34.63.36.42.45.95.27,1.61-1.13,3.93-3.47,7.1-7.01,9.51-3.54,2.41-7.93,3.62-13.18,3.62-4.71,0-8.73-1-12.06-2.99ZM771.39,166.35c.15-.18.22-.39.22-.63,0-1.84-.46-3.56-1.39-5.14-.93-1.58-2.24-2.84-3.93-3.8-1.7-.95-3.68-1.43-5.94-1.43-3.27,0-5.93,1-7.95,2.99s-3.13,4.45-3.3,7.37c0,.24.09.45.27.63s.42.27.72.27h20.64c.3,0,.52-.09.67-.27Z"/>
        <path class="cls-1" d="M788.68,193.51c-.36-.36-.54-.77-.54-1.25v-41.99c0-.48.18-.9.54-1.25.36-.36.77-.54,1.25-.54h4.65c.59,0,1.07.13,1.43.4.36.27.68.58.98.94.3.42.59.74.9.98.3.24.65.36,1.07.36.48,0,.92-.12,1.34-.36.41-.24.83-.54,1.25-.89,1.31-.89,2.66-1.61,4.07-2.14,1.4-.54,3.35-.81,5.85-.81,3.39,0,6.43.75,9.11,2.24,2.68,1.49,4.78,3.66,6.3,6.52,1.52,2.86,2.28,6.25,2.28,10.18v26.35c0,.48-.18.89-.54,1.25-.36.36-.77.54-1.25.54h-6.7c-.48,0-.89-.18-1.25-.54-.36-.36-.54-.77-.54-1.25v-24.66c0-3.34-.92-5.92-2.77-7.77-1.84-1.84-4.32-2.77-7.41-2.77s-5.6.92-7.5,2.77c-1.91,1.85-2.86,4.44-2.86,7.77v24.66c0,.48-.18.89-.54,1.25-.36.36-.77.54-1.25.54h-6.61c-.48,0-.9-.18-1.25-.54Z"/>
        <path class="cls-1" d="M844.38,193.87c-3.13-1.13-5.55-2.83-7.28-5.09-1.73-2.26-2.65-4.97-2.77-8.13-.06-.54.07-.97.4-1.3.33-.33.82-.49,1.48-.49h6.61c.59,0,1.04.16,1.34.49.3.33.54.76.72,1.3.18,1.49.71,2.71,1.61,3.66.9.95,2.1,1.68,3.62,2.19,1.52.51,3.32.76,5.41.76,3.16,0,5.57-.55,7.24-1.65,1.66-1.1,2.5-2.55,2.5-4.33,0-1.43-.43-2.55-1.3-3.35-.86-.81-2.4-1.39-4.6-1.74l-10.09-1.61c-4.59-.72-7.95-2.19-10.1-4.42-2.14-2.23-3.21-5.14-3.21-8.71,0-2.92.81-5.46,2.46-7.64,1.64-2.17,3.93-3.86,6.88-5.05,2.95-1.19,6.36-1.79,10.23-1.79,3.63,0,6.88.54,9.74,1.61,2.86,1.07,5.12,2.65,6.79,4.73,1.67,2.09,2.59,4.56,2.77,7.42.06.54-.09.97-.45,1.3-.36.33-.86.49-1.52.49h-6.25c-.54,0-.97-.15-1.3-.45-.33-.3-.55-.74-.67-1.34-.42-1.79-1.4-3.14-2.95-4.07-1.55-.92-3.63-1.39-6.25-1.39-2.86,0-5.06.49-6.61,1.48-1.55.98-2.32,2.34-2.32,4.06,0,1.43.54,2.53,1.61,3.31,1.07.78,2.95,1.34,5.63,1.7l8.93,1.34c4.71.77,8.07,2.25,10.09,4.42,2.02,2.17,3.04,5.11,3.04,8.8,0,3.04-.79,5.7-2.37,8-1.58,2.29-3.89,4.06-6.92,5.31-3.04,1.25-6.73,1.88-11.08,1.88s-7.91-.57-11.03-1.7Z"/>
        <path class="cls-1" d="M894.72,193.78c-2.92-1.19-5.36-2.95-7.33-5.27-1.79-2.14-3.16-4.66-4.11-7.55-.95-2.89-1.43-6.12-1.43-9.69,0-2.38.22-4.62.67-6.7.45-2.08,1.07-4.01,1.88-5.76.8-1.76,1.8-3.35,2.99-4.78,1.97-2.32,4.41-4.08,7.33-5.27,2.91-1.19,6.19-1.79,9.82-1.79s7.03.67,10.01,2.01c2.98,1.34,5.36,3.27,7.14,5.81,1.79,2.53,2.86,5.43,3.22,8.71.06.54-.07.97-.4,1.3-.33.33-.73.49-1.21.49h-6.97c-.42,0-.79-.12-1.12-.36-.33-.24-.55-.59-.67-1.07-.6-1.97-1.71-3.59-3.35-4.87-1.64-1.28-3.89-1.92-6.75-1.92-1.97,0-3.72.34-5.27,1.03-1.55.68-2.83,1.71-3.84,3.08-1.02,1.19-1.78,2.64-2.28,4.33-.51,1.7-.76,3.62-.76,5.76s.25,4.07.76,5.76c.5,1.7,1.26,3.14,2.28,4.33,1.01,1.37,2.29,2.4,3.84,3.08,1.55.68,3.3,1.03,5.27,1.03,2.68,0,4.9-.64,6.66-1.92,1.75-1.28,2.9-2.9,3.44-4.87.12-.48.34-.83.67-1.08.32-.24.7-.36,1.12-.36h6.97c.48,0,.88.18,1.21.54.33.36.46.77.4,1.25-.36,3.28-1.46,6.16-3.3,8.67-1.85,2.5-4.26,4.44-7.24,5.8-2.98,1.37-6.25,2.06-9.83,2.06s-6.91-.6-9.82-1.79Z"/>
        <path class="cls-1" d="M931.53,193.51c-.36-.36-.54-.77-.54-1.25v-60.75c0-.47.18-.89.54-1.25.36-.36.77-.54,1.25-.54h6.61c.48,0,.89.18,1.25.54.36.36.54.78.54,1.25v16.89c0,.6.13,1.04.4,1.34.27.3.64.45,1.12.45.36,0,.74-.09,1.16-.27.41-.18.81-.39,1.16-.63,1.01-.71,2.2-1.28,3.57-1.7,1.37-.41,3.25-.63,5.63-.63,3.45,0,6.52.76,9.2,2.28,2.68,1.52,4.78,3.75,6.3,6.7,1.52,2.95,2.28,6.45,2.28,10.5v25.82c0,.48-.18.89-.54,1.25-.36.36-.77.54-1.25.54h-6.7c-.48,0-.89-.18-1.25-.54-.36-.36-.54-.77-.54-1.25v-24.21c0-3.45-.92-6.15-2.77-8.08-1.84-1.93-4.32-2.9-7.41-2.9s-5.6.97-7.5,2.9c-1.91,1.93-2.86,4.63-2.86,8.08v24.21c0,.48-.18.89-.54,1.25-.36.36-.77.54-1.25.54h-6.61c-.48,0-.9-.18-1.25-.54Z"/>
        <path class="cls-1" d="M988.35,192.57c-3.34-1.99-5.88-4.84-7.64-8.53-1.75-3.69-2.63-7.95-2.63-12.77s.88-8.98,2.63-12.64c1.76-3.66,4.29-6.52,7.6-8.58,3.3-2.05,7.25-3.08,11.83-3.08s8.34.9,11.61,2.68c3.27,1.79,5.81,4.33,7.59,7.64,1.79,3.31,2.68,7.25,2.68,11.84v3.22c0,.78-.22,1.39-.67,1.83-.45.45-1,.67-1.65.67h-29.75c-.3,0-.54.07-.72.22-.18.15-.27.35-.27.58.12,2.38.7,4.42,1.74,6.12,1.04,1.7,2.41,2.98,4.11,3.84,1.7.86,3.56,1.3,5.59,1.3,2.26,0,4.17-.43,5.72-1.3,1.55-.86,2.8-2.1,3.75-3.71.36-.6.7-1.03,1.03-1.3.33-.27.73-.4,1.21-.4h6.88c.54,0,.98.21,1.34.63.36.42.45.95.27,1.61-1.13,3.93-3.47,7.1-7.01,9.51-3.54,2.41-7.93,3.62-13.18,3.62-4.71,0-8.73-1-12.06-2.99ZM1011.26,166.35c.15-.18.22-.39.22-.63,0-1.84-.46-3.56-1.39-5.14-.93-1.58-2.24-2.84-3.93-3.8-1.7-.95-3.68-1.43-5.94-1.43-3.27,0-5.93,1-7.95,2.99-2.02,1.99-3.13,4.45-3.3,7.37,0,.24.09.45.27.63.18.18.42.27.72.27h20.64c.3,0,.52-.09.67-.27Z"/>
        <path class="cls-1" d="M1028.55,193.51c-.36-.36-.54-.77-.54-1.25v-41.99c0-.48.18-.9.54-1.25.36-.36.77-.54,1.25-.54h4.65c.59,0,1.07.13,1.43.4.36.27.68.58.98.94.3.42.59.74.9.98.3.24.65.36,1.07.36.48,0,.92-.12,1.34-.36.41-.24.83-.54,1.25-.89,1.31-.89,2.66-1.61,4.07-2.14,1.4-.54,3.35-.81,5.85-.81,3.39,0,6.43.75,9.11,2.24,2.68,1.49,4.78,3.66,6.3,6.52,1.52,2.86,2.28,6.25,2.28,10.18v26.35c0,.48-.18.89-.54,1.25-.36.36-.77.54-1.25.54h-6.7c-.48,0-.89-.18-1.25-.54-.36-.36-.54-.77-.54-1.25v-24.66c0-3.34-.92-5.92-2.77-7.77-1.84-1.84-4.32-2.77-7.41-2.77s-5.6.92-7.5,2.77c-1.91,1.85-2.86,4.44-2.86,7.77v24.66c0,.48-.18.89-.54,1.25-.36.36-.77.54-1.25.54h-6.61c-.48,0-.9-.18-1.25-.54Z"/>
      </g>
      <g>
        <path class="cls-1" d="M463.86.08h-24.97c-1.99,0-3.76,1.02-4.81,2.55l-47.93,76.22c-.94,1.49-3.12,1.49-4.06,0L334.75,3.34c-1.11-1.87-2.92-3.26-5.2-3.26h-24.76c-3.2,0-5.83,2.62-5.83,5.83v182.25c0,3.2,2.62,5.83,5.83,5.83h24.76c3.2,0,5.83-2.62,5.83-5.83v-111.76c0-2.48,3.24-3.41,4.56-1.31l29.63,47.13c1.57,2.5,4.32,4.02,7.27,4.02h14.6c2.94,0,5.68-1.51,7.26-4l30.03-47.45c1.32-2.09,4.56-1.15,4.56,1.32v112.06c0,3.2,2.62,5.83,5.83,5.83h24.76c3.2,0,5.83-2.62,5.83-5.83V5.91c0-3.2-2.62-5.83-5.83-5.83Z"/>
        <path class="cls-1" d="M87.18,78.85l28.92-46c.98-1.55,3.38-.86,3.38.97v52.48c0,3.08-.87,6.09-2.52,8.7l-17.24,27.23c-1.57,2.5-4.3,4.01-7.24,4.01h-14.61c-2.96,0-5.7-1.52-7.28-4.02l-29.62-47.12c-1.31-2.1-4.55-1.17-4.55,1.31v111.76c0,3.2-2.62,5.83-5.83,5.83H5.83c-3.2,0-5.83-2.62-5.83-5.83V5.9C0,2.7,2.62.08,5.83.08h24.76c2.27,0,4.08,1.38,5.2,3.25l47.33,75.52c.94,1.51,3.11,1.51,4.06,0Z"/>
        <rect class="cls-1" x="134.35" y="0" width="36.41" height="193.91" rx="5.83" ry="5.83"/>
        <rect class="cls-1" x="185.58" y=".07" width="98.44" height="36.41" rx="5.83" ry="5.83"/>
        <rect class="cls-1" x="185.58" y="67.71" width="98.44" height="36.41" rx="5.83" ry="5.83"/>
      </g>
    </g>
  </g>
</svg>