<svg xmlns="http://www.w3.org/2000/svg" width="311.8" height="225.98"><style type="text/css">.st0{fill:#FFFFFF;}</style><path d="M127.87 4.75C55.15 11.55 0 44.37 0 83.85c0 26.87 25.6 50.67 64.87 65.25.54.2.75-.1.32-.47C46.4 133.13 35 112.77 35 90.47c0-41.6 39.64-76.44 92.88-85.6.5-.08.5-.15 0-.12zm-56.82 15.7C40.65 36.1 21.2 60 21.2 86.78c0 21.3 12.34 40.8 32.68 55.75 1.14.84 1.02 1-.2.27C29.7 128 13.12 108.12 13.12 86.15c0-26.85 23.83-50.8 57.74-65.9 1.4-.6 1.54-.48.2.2zm216.1 19.98c-.16.92-.37 1.84-.68 2.76-.85 2.43-1.8 4.76-2.84 7.1.04-.06.06-.1.08-.17 9.5 10.9 15 23.14 15 36.03 0 22.8-17.86 43.35-43.3 58.3-.33.17-.37.13-.07-.08 21.9-15.18 35.26-35.4 35.26-57.6 0-11.08-3.33-21.65-9.4-31.36.05-.08.1-.14.13-.2-2.25 4.52-4.85 9.25-7.8 14.8 2.14 6.56 3.27 13.4 3.27 20.45 0 22.62-11.72 43.25-30.98 58.82-.17.13-.1.25.1.18 39.87-14.56 65.9-38.53 65.9-65.63-.02-16-9.1-30.9-24.68-43.42zM183.8 4.73c-.45-.04-.47.04-.04.1 18.13 3.1 34.66 9.18 48.6 17.48 5.54-1.46 10.93-2.54 16.1-3.17-18.8-7.13-40.78-12.16-64.66-14.4zM162.6 104.9l10.25-1.62-.57-21.98-15.4 4.7 5.6 7.23.07 5.3h.03s2-.3 2.52-.4c.43-.1.6-.33.62-.5 0-.02 0-.04 0-.06-.08-.38-.73-4.1-1-5.3-.07-.32-.1-.5.17-.98.2-.37.72-1.25 1.2-2 .1-.2.18-.32.3-.04.33.34 1.04 1 1.12 1.16.05.17 2.03 7.3 2.07 7.36.02.05.9.58.9.92 0 .23.03.5 0 .7.13.22-.12.5-.25.62-.1.1-.4.32-.36.43.03.12.3 1 .3 1s.08.26-.27.33c-.2.03-7 1.15-10.43 1.72l1.35.4 1.75-.3v1.3zm-51.56-38.25l-.32-5.35-7.5 4.35.2 5.1 7.62-4.1zm-7.18 15.82l8-3.7-.35-5.16-7.82 3.94.18 4.93zm9.98-23l.4 5.47 7.64-4.1-.62-5.65-7.42 4.28zm-11.35.15s-3.92-4.76-4.7-5.7c-.82-.94-4.14-1.93-8.3-1.1-4.16.82-5.2 2.23-5.2 3.05 0 .85.05 14.95.05 14.95l18.14-11.2zm20.8 13.83l-.6-5.47-7.98 4 .38 5.28 8.2-3.8zM148.13 3.8l5.47 1.14.9 11.8-.97.65s-2.9 9.77-3.62 14.28c8.63.85 13.4 1.82 13.4 1.82s-3.42-11.64-4.08-14.03c-.66-2.38-1.22-4.2-2.3-3.84 0 0-.03 0-.03.03l-1.4-10.32 5.4 1.1-.16-1.03-5.4-1.15-.53-4.06-.83-.2-.73.47.26 3.36-5.47-1.18.1 1.16zm-82.88 96.63l7.65-3.57.05-3.9-7.53 3.77-.18 3.7zm18.54-12.9l-7.64 3.82-.1 4.05 7.75-3.6v-4.28zm172.72-69.4c-21.8 0-57.04 15.23-70.94 22.65-.4.2-.8.38-1.16.58l-.27.18c-3.94-1.5-21.98-7.66-53.35-8.25-1.95.03-3.5.37-5.8 1.76-1.34.84-2.58 1.63-3.48 2.2l-1.28.88 1.15 9.8 7.2-4.32 3.8 33.2h-.1L86.93 96.2s22.28-2.12 27.07-2.46c4.78-.36 18.12-1.63 21.63-2.34 0 0 3.18-7.32 6.03-13.23.32-.64.66-1.33 1.02-2.05.2-.4.4-.77.58-1.13h-.04c.02-.03.02-.03.02-.05 44.8-23.5 79.48-44.2 116.42-41.87 6.87.96 16.3 3.5 9.43 23.25l-.43 1.45c-5.52 16.5-15.33 44.4-24.36 80.6 17.1-49.58 29.5-67.82 37.4-83.95 8.16-16.12 15.88-36.3-25.2-36.3zm-119.97 24.3l-.75-5.97c1.86.07 3.76.17 5.68.3l.77 5.8c-1.98-.07-3.88-.1-5.7-.12zm7.56.2l-.76-5.76c1.9.13 3.8.3 5.73.5l.73 5.63c-1.92-.13-3.84-.26-5.7-.36zm7.57.53l-.73-5.6c1.94.2 3.87.42 5.77.67l.73 5.5c-1.92-.22-3.84-.4-5.76-.57zm7.64.78l-.7-5.45c1.96.27 3.9.56 5.78.87l.7 5.35c-1.9-.28-3.82-.53-5.77-.78zm7.68 1.08l-.7-5.3c2.04.37 4 .75 5.83 1.18l.68 5.18c-1.83-.37-3.8-.73-5.8-1.06zm7.67 1.32l-.68-5.03c2.16.54 4.14 1.1 5.88 1.67l.1.68c-1.77.9-3.52 1.8-5.3 2.7zM83.78 76.9l-7.44 4.3-.08 4.15 7.52-4.03V76.9zm17.36-5.27L96.67 74l-.08-5.92-1.2.68-4.84 2.84.1 5.58-4.54 2.5.1 7.02 4.57-2.28.03 5.5L97 87.05l-.14-5.65 4.5-2.25-.22-7.52zm-48.6 50s.47 2.88 3.27 3.16l-.14-12.37 6.44-2.6.27-5.5-10.05 4.42.22 12.87zM166.3 89.12zm2.66 9.25s.22-.05.35.07c.28.2.93.7 1.14.88.07.05.1.13.1.2 0-.17 0-.52 0-.67 0-.35-.08-.45-.3-.6-.25-.2-.6-.5-.6-.5s-1.85-6.57-1.95-6.93c-.1-.38-.16-.5-.63-.96l-.74-.7c.04.04.08.13.13.3.15.47 2.5 8.9 2.5 8.9zm46.62-1.77c-18.13 2.74-52.95 8.26-52.95 8.26v-1.27l-1.77.27-1.4-.4h.03c-.14-.02-.3-.1-.37-.28l-.22-1c-.37-.23-.7-.45-.05-1.42.25-.37.1-.72.1-.72s-1.2-3.7-1.92-5.96l.2 11.08s-50.75 9-88.13 20.22c-1.05.32-1.02.5.07.28 16.17-3.35 36.4-6.9 69.58-11.48 6.18-.75 22.2-2.6 24.7-2.85 25.35-2.4 46.9-4.43 55.93-4.98 18.96-1.13 31.28-1.27 33.38.9 1.22-4.15 2.43-8.13 3.6-11.93-11.17-4.2-25.8-1-40.78 1.26zm-56.88-3.66c.34.14.5.37.6.6.1.2 2.14 4.9 2.14 4.9s.17.84.92.7c.04 0 .08 0 .13-.02 0 0 .03 0 .05 0 .3.02.26.32.26.32l-.14.9 1.9-.27s.1-.76.13-1c.03-.2.12-.28.33-.3.58-.1.8-.68.7-1.16-.07.2-.25.42-.72.5-.54.1-1.74.28-2.42.4l-.03-5.3-5.67-7.2.1 6.08c.56.27 1.44.74 1.72.86zM137.27 194.48c0 .7-.04 1.64-.15 2.63l-1.95 18.95h8.5c-1.2-1.1-1.53-1.87-1.53-3.38 0-.72.05-1.65.23-3.24l1.37-12.7c.15-1.5.2-2.85.2-4.1 0-4.6-2.88-7.27-7.96-7.27-3.38 0-6.05 1.1-8.73 3.66l1.32-12.44h-8.74c1.43 1.03 1.8 1.74 1.8 3.27 0 .33 0 .86-.05 1.3l-.2 1.65-2.8 26.75c-.5 4.36-.82 5.24-2.5 6.5h10.37c-1.2-1.1-1.58-1.87-1.58-3.38 0-.34.04-1 .1-1.48l.16-1.77 1.1-10.53c.4-3.44.86-4.85 2.14-6.38 1.18-1.5 2.82-2.25 4.58-2.25 2.64 0 4.32 1.65 4.32 4.2zM89 164.8c0-1 .05-1.74.4-3.66l2.9-18.57 8.74 19.8 8.9-13.27c.82-1.28 1.6-2.38 2.1-3.27l1.7-2.74.52-.8-1.17 19.6c-.24 4.2-.93 5.8-2.92 7.33h13.15c-2.27-1.34-2.72-2.56-2.72-6.92 0-.63.07-1.98.07-2.96l1-21.3c.16-4.08.9-5.65 3.65-7.63h-10.54l-12.16 18.7-8.45-18.7H84c1.57 1.46 2.02 2.56 2.02 4.78 0 1.22-.1 2.75-.34 4.08l-4.02 22.58c-.75 4.25-1.7 5.94-4.36 7.4h13.68C89.5 168.18 89 167 89 164.8zm5.32 50.5c2.05.58 4.66 1 6.48 1 8.25 0 14.13-5.26 14.13-12.64 0-5.06-2.14-7.74-9.77-12.04-3.6-2.1-4.5-3.08-4.5-5.07 0-2.67 2.28-4.6 5.42-4.6 3.55 0 6.58 2 8.32 5.54l.58-12.06c-1.05.87-1.44 1.04-2.44 1.04-.4 0-.75-.06-1.63-.24-1.9-.4-3-.52-4.46-.52-7.8 0-13.62 5.17-13.62 12.16 0 4.3 1.75 6.64 7.57 10.13 5.98 3.55 6.68 4.32 6.68 6.76 0 3.14-2.44 5.3-5.94 5.3-4.08 0-7.57-2.44-10.07-7.05l-.34 12.7c.45-.65.8-.87 1.45-.87.36 0 .75.06 1.17.17l.97.3zm57.28-60.8c.1-1.47.15-3.16.15-3.98 0-7.8-4.24-12.55-11.3-12.55-8.78 0-15.37 7.7-15.37 17.96 0 8.3 4.85 13.53 12.55 13.53 1.15 0 2.6-.1 3.93-.33l1.86-.27c1.04-.1 1.86-.2 2.35-.2.8 0 1.2.14 1.78.8l2.74-9.7c-3.02 3.2-6.34 4.8-10.17 4.8-4.8 0-8.23-3.6-8.23-8.63 0-.27 0-.77.06-1.42h19.64zm-12.08-11.9c3.4 0 5.03 1.97 5.32 6.5l.04.5h-12.15c1.02-4.54 3.43-7 6.8-7zm18.88 43.58h-8.74c1.37 1.03 1.76 1.8 1.76 3.28 0 .7 0 1-.23 2.95l-1.8 17.14c-.5 4.37-.84 5.24-2.53 6.5h10.37c-1.2-1.1-1.52-1.85-1.52-3.36 0-.72.06-1.88.2-3.23l2.48-23.27zm20.42-.8c-2.6 0-4.92 1.03-7.1 3.16l.22-2.35h-8.45c1.34 1.02 1.72 1.8 1.72 3.32 0 .7 0 .93-.2 2.9l-2.84 27.06c-.45 4.3-.83 5.23-2.52 6.5h10.37c-1.25-1.1-1.57-1.87-1.57-3.37 0-.34.05-1 .1-1.48l.16-1.75.5-4.48c1.52 1.37 3.1 1.96 5.36 1.96 7.68 0 13.9-8.3 13.9-18.6 0-7.7-3.87-12.9-9.66-12.9zm-5.4 26.57c-1.7 0-2.85-.65-3.73-2.2l1.75-16.52c1.47-1.75 3-2.57 4.75-2.57 3.38 0 5.3 2.9 5.3 7.93 0 7.66-3.45 13.35-8.1 13.35zm43.6-26.18c.12-.06.38-.2.38-.5 0-.42-.26-.6-.77-.6-.15 0-.47.03-.56.06.02.1.02.16.02.33v1.1c0 .25 0 .44-.03.57.08 0 .24 0 .34 0 .07-.02.1-.02.1-.1v-.75h.05c.1 0 .17.04.26.2.14.26.22.4.3.5.1.12.16.16.3.16.1 0 .2-.02.25-.04v-.02c-.1-.08-.2-.22-.34-.5-.1-.18-.22-.35-.3-.4zm-.23-.13c-.05.02-.2.03-.3.02v-.73c.03-.02.1-.02.12-.02.2 0 .38.12.38.4 0 .2-.14.3-.2.34zm-.1-1.86c-1.08 0-1.97.87-1.97 1.95 0 1.1.88 1.96 1.98 1.96 1.08 0 1.96-.88 1.96-1.97 0-1.08-.88-1.95-1.95-1.95zm0 3.6c-.92 0-1.65-.73-1.65-1.64 0-.9.73-1.62 1.66-1.63.9.02 1.63.74 1.63 1.64 0 .9-.74 1.63-1.62 1.63zm-13.97 10.2c-3.47-1.62-3.98-2.1-3.98-3.63 0-2.2 1.8-3.67 4.55-3.67 3.27 0 5.33 1.42 7.5 5.08l.9-10.32c-.78.7-1.2.94-2.1.94-.48 0-1.3-.06-2.28-.23l-1.26-.17c-.75-.1-2.13-.2-3.04-.2-6.56 0-11.08 3.87-11.08 9.43 0 3.9 1.52 5.7 6.93 8.25 4.44 2.12 5.16 2.84 5.16 4.87 0 2.4-1.9 4.03-4.62 4.03-4.03 0-7.36-2.57-9-6.88l-.44 11.9c.77-.66 1.32-.88 2.2-.88.5 0 .98.06 2.05.22 2.66.43 3.8.54 5.44.54 6.76 0 11.3-3.98 11.3-10.05 0-2.22-.72-4.18-2.13-5.55-1.26-1.26-2.14-1.8-6.07-3.66zm16.16-55.5c0 .38 0 .86-.07 1.3l-.17 1.63-.97 9.35c-.55 5.18-2.68 7.7-6.45 7.7-2.93 0-4.47-1.58-4.47-4.58 0-.93.06-1.54.1-2.3l1.75-16.37h-8.74c1.36 1.03 1.74 1.8 1.74 3.28 0 .4 0 .87-.06 1.3l-.17 1.64-1.3 12c-.05.83-.1 1.65-.1 2.3 0 4.74 3.23 8.03 7.96 8.03 3.23 0 6.27-1.26 8.74-3.6l-.3 2.28c-.54 5.18-3.37 7.58-8.88 7.58-4.1 0-6.7-1.07-9.34-3.93l.3 10c1.17-1.1 1.72-1.36 2.88-1.36.32 0 .75.06 1.14.1l1.3.17c1.32.22 3.06.33 4.58.33 5.24 0 8.85-1.3 11.3-4.04 2.02-2.3 2.88-4.9 3.5-10.58l2.68-25.5h-8.73c1.38 1.04 1.76 1.8 1.76 3.3zm-62.53 32.37c-2.22 0-4.13 1.9-4.13 4.1 0 1.96 1.4 3.38 3.32 3.38 2.24 0 4.16-1.92 4.16-4.14 0-1.93-1.43-3.35-3.35-3.35zM157 145l-1.8 17.15c-.5 4.37-.84 5.24-2.52 6.5h10.37c-1.2-1.1-1.52-1.86-1.52-3.4 0-.7.04-1.85.2-3.2l1.1-10.37c.55-4.97 3.06-8.1 6.6-8.1 1.48 0 2.8.5 3.82 1.55l.77-7.1c-.5-.07-.8-.07-1.1-.07-3.33 0-6.12 1.48-9.44 4.92l.45-4.1h-8.47c1.37 1.04 1.75 1.8 1.75 3.34 0 .4 0 .82-.04 1.26L157 145zm32.92-1.73c2.78 0 4.5 1.14 5.94 4l.27-9.8c-.64.77-1.2 1.04-2.13 1.04-.43 0-.6 0-1.57-.2-1.38-.22-2.24-.33-3.16-.33-8.6 0-15.26 7.7-15.26 17.7 0 8.07 4.84 13.8 11.6 13.8 1.03 0 2.5-.1 3.76-.32l1.14-.22c.38-.06 1.1-.1 1.48-.1.55 0 .86.1 1.3.43l1.75-9.33c-1.86 2.84-4.15 4.25-6.93 4.25-4.3 0-7.08-3.44-7.08-8.8 0-6.88 3.87-12.1 8.9-12.1z" class="st0"/></svg>