<?xml version="1.0" encoding="UTF-8"?>
<svg xmlns="http://www.w3.org/2000/svg" id="Calque_1" viewBox="0 0 250 182">
  <path d="m146.42,5.36c-.36-.03-.37.02-.02.08,14.23,2.44,27.22,7.21,38.18,13.73,4.35-1.15,8.59-2,12.64-2.49-14.75-5.62-32.03-9.57-50.8-11.31m81.19,28.03c-.1.73-.27,1.45-.52,2.17-.67,1.92-1.41,3.76-2.23,5.59.02-.04.04-.09.06-.13,7.45,8.57,11.77,18.17,11.77,28.31,0,17.92-14.04,34.06-34.04,45.81-.24.14-.27.11-.04-.05,17.21-11.93,27.71-27.82,27.71-45.26,0-8.7-2.61-17.02-7.36-24.64.03-.06.05-.11.08-.16-1.77,3.56-3.81,7.27-6.13,11.65,1.68,5.15,2.58,10.52,2.58,16.05,0,17.77-9.22,33.98-24.35,46.23-.13.11-.08.21.09.14,31.32-11.44,51.77-30.27,51.77-51.58,0-12.57-7.12-24.28-19.39-34.12M57.84,17.7c-23.9,12.3-39.17,31.08-39.17,52.12,0,16.75,9.68,32.05,25.67,43.81.89.66.8.8-.14.21-18.85-11.62-31.89-27.24-31.89-44.51,0-21.1,18.72-39.91,45.36-51.77,1.1-.49,1.21-.4.17.14m44.64-12.33C45.34,10.7,2,36.49,2,67.5c0,21.12,20.11,39.82,50.97,51.28.43.16.59-.09.25-.37-14.76-12.18-23.71-28.18-23.71-45.71,0-32.67,31.14-60.05,72.98-67.26.39-.07.38-.13,0-.09" fill="#fff" stroke-width="0"></path>
  <path d="m43.3,97.19s.36,2.27,2.56,2.49l-.12-9.72,5.07-2.04.21-4.32-7.91,3.48.19,10.11Zm38.18-39.28l-3.51,1.86-.07-4.65-.92.54-3.81,2.22.07,4.38-3.56,1.97.09,5.51,3.59-1.79.03,4.33,4.84-2.28-.11-4.44,3.53-1.77-.18-5.89Zm-13.65,4.14l-5.84,3.38-.05,3.27,5.9-3.17v-3.47Zm71.41-24l-.54-3.95c1.7.41,3.26.85,4.63,1.31l.07.53c-1.38.7-2.77,1.4-4.16,2.12m-6.04-1.04l-.55-4.17c1.6.29,3.14.6,4.59.92l.53,4.08c-1.45-.3-2.98-.58-4.57-.84m-6.02-.85l-.56-4.28c1.55.21,3.07.45,4.55.7l.55,4.2c-1.48-.22-3-.43-4.54-.62m-6-.61l-.58-4.4c1.52.16,3.03.34,4.53.53l.56,4.31c-1.5-.17-3.01-.31-4.51-.44m-5.97-.4l-.59-4.54c1.49.11,3,.24,4.5.38l.58,4.44c-1.51-.12-3.02-.21-4.49-.28m-5.93-.17l-.59-4.7c1.46.05,2.95.13,4.45.23l.6,4.58c-1.53-.06-3.03-.1-4.46-.11m94.26-19.11c-17.11,0-44.81,11.98-55.74,17.8-.31.15-.62.3-.92.46l-.2.13c-3.1-1.17-17.26-6.01-41.91-6.47-1.55.03-2.78.29-4.55,1.39-1.06.66-2.03,1.27-2.75,1.74l-.99.68.9,7.7,5.66-3.4,2.98,26.09h-.06s-35.65,15.22-35.65,15.22c0,0,17.49-1.66,21.26-1.94,3.77-.28,14.25-1.28,17.01-1.83,0,0,2.48-5.75,4.73-10.39h0c.25-.51.52-1.05.8-1.62.15-.31.3-.6.45-.89h-.02s0-.01.01-.02c35.2-18.47,62.45-34.74,91.46-32.9,5.41.75,12.82,2.75,7.42,18.26l-.32,1.14c-4.34,12.96-12.05,34.9-19.16,63.34,13.43-38.95,23.18-53.29,29.38-65.97,6.41-12.67,12.48-28.53-19.8-28.53m-135.72,54.53l-6,3.01-.07,3.18,6.07-2.82v-3.37Zm-14.57,10.14l6.02-2.8.03-3.07-5.92,2.97-.14,2.9ZM118.4,4.63l4.29.89.71,9.26-.75.51s-2.28,7.69-2.85,11.23c6.78.67,10.52,1.43,10.52,1.43,0,0-2.68-9.15-3.2-11.02-.52-1.87-.96-3.31-1.82-3.02,0,0-.02.01-.03.02l-1.09-8.11,4.23.87-.11-.82-4.24-.92-.43-3.18-.66-.14-.58.36.21,2.65-4.29-.93.08.92Zm-19.51,54.71l-.47-4.3-6.27,3.15.29,4.15,6.46-3Zm-16.35-10.87s-3.06-3.74-3.69-4.48c-.63-.73-3.24-1.52-6.51-.87-3.27.65-4.11,1.77-4.11,2.41s.04,11.75.04,11.75l14.27-8.81Zm8.92-.1l.3,4.29,6.02-3.23-.49-4.43-5.83,3.37Zm-7.83,18.07l6.26-2.91-.26-4.07-6.16,3.09.16,3.89Zm5.64-12.44l-.26-4.21-5.9,3.42.16,4.02,6.01-3.23Zm40.51,30.06l8.05-1.28-.45-17.27-12.1,3.69,4.42,5.68.04,4.16h.03s1.57-.24,1.98-.31c.33-.07.46-.26.49-.39,0-.02,0-.03,0-.04-.06-.31-.58-3.22-.78-4.17-.06-.24-.09-.4.13-.76.17-.28.57-.97.94-1.56.09-.15.16-.24.24-.03.27.26.82.8.87.92.05.13,1.6,5.74,1.63,5.78.03.04.71.46.72.73,0,.17.01.4,0,.55.09.17-.11.39-.22.48-.08.07-.3.25-.27.34.03.09.24.77.24.77,0,0,.07.22-.21.27-.16.03-5.5.91-8.19,1.36l1.06.31,1.38-.23v1.02h0Z" fill="#fff" stroke-width="0"></path>
  <path d="m126.7,74.65c.26.11.39.29.46.46s1.69,3.87,1.69,3.87c0,0,.13.65.72.56.03,0,.06-.01.1-.02.02,0,.03,0,.05,0,.23,0,.2.25.2.25l-.11.71,1.49-.22s.09-.6.11-.77c.02-.17.09-.23.26-.26.46-.08.62-.52.55-.9-.06.14-.19.33-.56.38-.43.07-1.38.22-1.91.31l-.03-4.14-4.46-5.69.09,4.79c.43.21,1.12.57,1.34.67m44.69,2.88c-14.24,2.14-41.6,6.49-41.6,6.49v-.99s-1.4.22-1.4.22l-1.08-.32h.01c-.11-.02-.23-.08-.28-.22l-.18-.79c-.3-.17-.55-.35-.05-1.11.19-.29.09-.56.09-.56,0,0-.95-2.92-1.52-4.69l.15,8.71s-39.88,7.08-69.24,15.9c-.82.25-.79.4.06.22,12.7-2.64,28.6-5.43,54.67-9.03,4.86-.59,17.46-2.05,19.4-2.24,19.93-1.9,36.84-3.49,43.95-3.91,14.9-.89,24.57-1,26.24.7.96-3.25,1.9-6.38,2.82-9.36-8.78-3.31-20.26-.78-32.04.99m-36.63,1.39s.18-.04.27.05c.22.17.72.57.89.7.06.04.08.1.08.15,0-.12,0-.4,0-.52-.01-.27-.08-.36-.23-.47-.2-.15-.48-.38-.48-.38,0,0-1.45-5.18-1.53-5.46-.08-.28-.12-.4-.49-.75l-.57-.56s.06.11.1.25c.1.36,1.95,7,1.95,7m-2.08-7.27" fill="#fff" stroke-width="0"></path>
  <path d="m151.23,114.2c2.18,0,3.55.9,4.67,3.13l.21-7.68c-.51.6-.94.81-1.67.81-.35,0-.47,0-1.24-.17-1.07-.17-1.75-.26-2.48-.26-6.74,0-11.97,6.04-11.97,13.9,0,6.34,3.78,10.85,9.1,10.85.82,0,1.97-.09,2.96-.26l.9-.18c.3-.04.87-.08,1.16-.08.43,0,.68.08,1.03.34l1.37-7.33c-1.46,2.23-3.26,3.34-5.44,3.34-3.39,0-5.58-2.7-5.58-6.9,0-5.41,3.05-9.52,7-9.52m-25.87,1.37l-1.41,13.47c-.39,3.43-.65,4.12-1.97,5.1h8.14c-.94-.85-1.19-1.46-1.19-2.66,0-.56.04-1.46.17-2.53l.86-8.15c.43-3.9,2.4-6.35,5.18-6.35,1.17,0,2.19.39,3.01,1.21l.6-5.58c-.39-.05-.64-.05-.86-.05-2.62,0-4.81,1.16-7.42,3.86l.35-3.21h-6.65c1.07.81,1.37,1.41,1.37,2.61,0,.3,0,.65-.04.99l-.13,1.29Zm-.48,23.13c-1.76,0-3.26,1.5-3.26,3.22,0,1.55,1.11,2.66,2.62,2.66,1.76,0,3.26-1.51,3.26-3.26,0-1.51-1.12-2.62-2.63-2.62m49.12-25.45c0,.3,0,.68-.04,1.03l-.13,1.29-.77,7.33c-.42,4.08-2.09,6.05-5.06,6.05-2.31,0-3.51-1.24-3.51-3.6,0-.73.04-1.2.09-1.8l1.37-12.87h-6.86c1.08.82,1.38,1.42,1.38,2.58,0,.3,0,.68-.04,1.03l-.13,1.29-1.03,9.43c-.04.64-.08,1.29-.08,1.8,0,3.72,2.53,6.31,6.26,6.31,2.53,0,4.93-.99,6.86-2.83l-.22,1.8c-.43,4.08-2.66,5.96-6.99,5.96-3.22,0-5.28-.86-7.34-3.09l.21,7.85c.94-.86,1.37-1.07,2.27-1.07.26,0,.6.04.9.08l1.02.13c1.04.17,2.41.26,3.61.26,4.11,0,6.95-1.03,8.88-3.18,1.58-1.8,2.26-3.86,2.74-8.32l2.11-20.03h-6.86c1.07.82,1.37,1.42,1.37,2.58m-12.69,43.63c-2.74-1.29-3.13-1.67-3.13-2.87,0-1.72,1.42-2.88,3.56-2.88,2.57,0,4.2,1.11,5.91,3.99l.68-8.11c-.59.56-.94.73-1.63.73-.38,0-1.02-.05-1.8-.17l-.99-.13c-.6-.09-1.67-.17-2.4-.17-5.15,0-8.7,3.05-8.7,7.42,0,3.05,1.19,4.47,5.44,6.48,3.48,1.67,4.07,2.23,4.07,3.82,0,1.89-1.5,3.17-3.64,3.17-3.18,0-5.79-2.02-7.08-5.4l-.35,9.35c.6-.52,1.03-.69,1.72-.69.39,0,.76.05,1.62.17,2.07.34,2.96.43,4.26.43,5.31,0,8.88-3.13,8.88-7.9,0-1.76-.56-3.3-1.68-4.37-.98-1-1.67-1.42-4.76-2.88m10.97-8.03c-.71,0-1.29-.58-1.29-1.29s.58-1.29,1.29-1.29,1.28.58,1.29,1.29c0,.71-.58,1.29-1.29,1.29m0-2.83c-.85,0-1.54.69-1.54,1.54s.69,1.54,1.54,1.54,1.54-.69,1.54-1.54-.69-1.54-1.54-1.54m.07,1.46s-.18.03-.24.02v-.58s.08,0,.11,0c.16,0,.29.09.29.3,0,.17-.1.24-.16.27m.18.11c.1-.05.31-.16.31-.41,0-.32-.2-.46-.6-.46-.12,0-.37.03-.44.05,0,.07,0,.13,0,.26v.85c0,.21,0,.36,0,.46.05,0,.19,0,.26,0,.04,0,.06-.02.06-.07v-.59h.05c.08,0,.13.02.21.16.1.2.15.3.22.39.07.09.13.11.23.11s.19,0,.21-.03h0c-.06-.08-.14-.19-.27-.41-.09-.15-.16-.28-.23-.33m-34.26,20.57c-1.33,0-2.23-.52-2.92-1.71l1.37-13c1.16-1.37,2.36-2.02,3.74-2.02,2.66,0,4.16,2.27,4.16,6.23,0,6.04-2.7,10.5-6.35,10.5m4.25-20.89c-2.06,0-3.86.82-5.58,2.49l.17-1.85h-6.65c1.07.81,1.37,1.41,1.37,2.62,0,.56,0,.73-.17,2.28l-2.22,21.27c-.35,3.39-.65,4.12-1.98,5.11h8.15c-.99-.86-1.25-1.46-1.25-2.65,0-.27.05-.78.09-1.17l.12-1.38.4-3.52c1.2,1.08,2.44,1.55,4.2,1.55,6.04,0,10.93-6.52,10.93-14.62,0-6.05-3.04-10.13-7.58-10.13m-16.05.64h-6.86c1.07.82,1.37,1.41,1.37,2.58,0,.56,0,.77-.18,2.32l-1.41,13.46c-.38,3.43-.64,4.11-1.97,5.11h8.15c-.94-.86-1.2-1.46-1.2-2.66,0-.56.04-1.46.17-2.54l1.93-18.27Zm-14.83-34.23c2.66,0,3.95,1.54,4.17,5.09l.04.39h-9.56c.81-3.55,2.7-5.48,5.35-5.48m9.49,9.34c.08-1.16.13-2.49.13-3.13,0-6.13-3.35-9.86-8.88-9.86-6.9,0-12.09,6.04-12.09,14.11,0,6.52,3.81,10.63,9.86,10.63.9,0,2.06-.08,3.09-.26l1.45-.21c.82-.09,1.46-.17,1.84-.17.64,0,.95.13,1.42.63l2.15-7.63c-2.36,2.53-4.98,3.78-7.98,3.78-3.77,0-6.47-2.83-6.47-6.78,0-.22,0-.6.04-1.12h15.44Zm-45,47.77c1.61.46,3.66.78,5.08.78,6.49,0,11.11-4.12,11.11-9.92,0-3.98-1.69-6.09-7.68-9.47-2.84-1.65-3.52-2.42-3.52-3.98,0-2.1,1.78-3.61,4.25-3.61,2.79,0,5.16,1.56,6.54,4.34l.46-9.47c-.82.69-1.14.83-1.92.83-.33,0-.6-.05-1.28-.19-1.51-.31-2.37-.41-3.52-.41-6.13,0-10.71,4.07-10.71,9.56,0,3.38,1.38,5.21,5.95,7.95,4.71,2.79,5.26,3.39,5.26,5.3,0,2.47-1.92,4.16-4.67,4.16-3.2,0-5.94-1.92-7.91-5.53l-.27,9.97c.37-.5.64-.69,1.14-.69.29,0,.6.05.92.14l.77.23Zm-4.19-39.67c0-.77.04-1.37.32-2.88l2.29-14.59,6.85,15.55,7-10.43c.64-1.01,1.24-1.87,1.65-2.56l1.33-2.15.41-.63-.92,15.4c-.18,3.3-.73,4.57-2.29,5.76h10.34c-1.78-1.05-2.15-2.02-2.15-5.44,0-.5.04-1.56.04-2.33l.78-16.74c.14-3.2.73-4.44,2.88-5.99h-8.28l-9.55,14.68-6.63-14.68h-8c1.23,1.14,1.6,2.01,1.6,3.75,0,.96-.09,2.15-.27,3.2l-3.15,17.75c-.6,3.34-1.33,4.67-3.43,5.8h10.75c-1.15-.82-1.56-1.73-1.56-3.48m37.93,23.32c0,.55-.04,1.29-.13,2.06l-1.54,14.88h6.69c-.94-.86-1.2-1.46-1.2-2.66,0-.56.04-1.29.18-2.54l1.07-9.99c.13-1.16.18-2.23.18-3.21,0-3.61-2.28-5.71-6.27-5.71-2.65,0-4.75.86-6.86,2.87l1.02-9.77h-6.86c1.12.82,1.42,1.37,1.42,2.57,0,.26,0,.68-.04,1.02l-.17,1.29-2.19,21.02c-.38,3.42-.65,4.11-1.97,5.1h8.15c-.94-.86-1.24-1.46-1.24-2.66,0-.26.04-.78.08-1.16l.13-1.38.87-8.28c.3-2.7.68-3.81,1.67-5.01.94-1.17,2.23-1.76,3.61-1.76,2.1,0,3.42,1.29,3.42,3.3" fill="#fff" stroke-width="0"></path>
</svg>
