<svg width="172" height="55" viewBox="0 0 172 55" fill="none" xmlns="http://www.w3.org/2000/svg">
<g clip-path="url(#clip0_314_2)">
<path d="M89.37 19.93H91.96V23.72H82.3V19.93H84.86V6.14L78.32 23.71H75.13L68.39 6.14V19.92H71.15V23.71H61.29V19.92H63.88V3.79H61.29V0H70.19L76.63 16.74L83.06 0H91.96V3.79H89.37V19.93Z" fill="#5F8AC7"/>
<path d="M119.75 30.19H114.27V26.4H117.23L118.43 23.48L113.05 9.75997H110.73V5.96997H119.1V9.75997H117.37L120.53 18.43L123.88 9.75997H122.15V5.96997H130.42V9.75997H128.19L119.75 30.19Z" fill="#5F8AC7"/>
<path d="M155.47 9.00001C156.24 7.43001 157.84 6.40001 159.13 6.03001C160.42 5.66001 161.56 5.77001 161.85 5.78001V9.93001C161.24 9.90001 160.42 9.90001 159.64 10.02C158.86 10.14 158.03 10.56 157.3 11.22C155.97 12.35 155.77 13.78 155.77 15.44V19.92H158.06V23.71H149.43V19.92H151.72V9.76001H149.43V5.97H155.47V8.99001V9.00001Z" fill="#5F8AC7"/>
<path d="M65.62 47.01C65.62 48.97 66.95 50.63 69.14 50.63C71.1 50.63 72.63 49.4 72.63 47.38C72.63 45.02 70.4 44.42 68.58 43.89C66.85 43.39 65.39 42.96 63.93 41.86C62.24 40.6 61.34 38.8 61.34 36.68C61.34 32.76 64.69 29.84 68.51 29.84C70.14 29.84 71.73 30.37 72.73 31.67V30.34H76.18V36.72H72.13C72.1 34.96 70.8 33.63 69.04 33.63C67.28 33.63 65.82 34.73 65.82 36.59C65.82 38.91 67.88 39.41 69.71 39.94C71.54 40.44 73.26 40.94 74.79 42.1C76.32 43.33 77.15 45.09 77.15 47.08C77.15 51.36 73.96 54.52 69.64 54.52C67.81 54.52 66.22 53.89 65.09 52.49V54.05H61.5V47.01H65.62Z" fill="#5F8AC7"/>
<path d="M78.67 45.12C78.67 39.94 82.89 35.79 88.04 35.79C93.19 35.79 97.27 40.04 97.27 45.09C97.27 50.14 93.15 54.52 87.94 54.52C82.73 54.52 78.67 50.24 78.67 45.12ZM93.29 45.18C93.29 42.29 91 39.77 88.04 39.77C85.08 39.77 82.66 42.13 82.66 45.08C82.66 48.03 84.92 50.53 87.94 50.53C90.96 50.53 93.29 48.14 93.29 45.18Z" fill="#5F8AC7"/>
<path d="M115.47 50.26H117.76V54.05H111.75V51.86C110.59 53.59 108.46 54.52 106.4 54.52C104.51 54.52 102.71 53.72 101.48 52.26C100.18 50.73 99.92 49.04 99.92 47.11V40.1H97.63V36.31H103.97V45.91C103.97 47.04 104 48.27 104.67 49.23C105.33 50.26 106.46 50.76 107.66 50.76C108.79 50.76 109.95 50.2 110.65 49.3C111.41 48.24 111.41 47.04 111.41 45.81V40.1H109.12V36.31H115.46V50.26H115.47Z" fill="#5F8AC7"/>
<path d="M121.65 40.1H119.36V36.31H125.7V38.83C126.76 36.87 128.76 35.91 130.95 35.91C132.88 35.91 134.77 36.71 136.06 38.1C137.52 39.73 137.55 41.29 137.55 43.31V50.25H139.84V54.04H131.2V50.25H133.49V44.5C133.49 43.4 133.49 42.27 132.79 41.31C132.06 40.35 130.86 39.88 129.67 39.88C128.48 39.88 127.18 40.38 126.45 41.37C125.69 42.37 125.69 43.89 125.69 45.09V50.24H127.98V54.03H119.35V50.24H121.64V40.08L121.65 40.1Z" fill="#5F8AC7"/>
<path d="M155.51 51.39C154.18 53.38 152.06 54.31 149.7 54.31C144.75 54.31 140.67 50.09 140.67 45.18C140.67 40.27 144.66 36.01 149.67 36.01C151.93 36.01 154.12 37.07 155.52 38.9V34.12H153.2V30.33H159.58V50.26H161.87V54.05H155.53V51.39H155.51ZM155.61 45.12C155.61 42.2 153.19 39.81 150.3 39.81C147.41 39.81 144.89 42.23 144.89 45.26C144.89 48.29 147.28 50.61 150.24 50.61C153.2 50.61 155.62 48.12 155.62 45.13L155.61 45.12Z" fill="#5F8AC7"/>
<path d="M168.18 47.72C169.91 47.72 171.28 49.12 171.28 50.88C171.28 52.64 169.9 54.05 168.17 54.05C166.44 54.05 165.04 52.66 165.04 50.88C165.04 49.1 166.44 47.72 168.17 47.72H168.18ZM168.17 48.21C166.78 48.21 165.64 49.4 165.64 50.88C165.64 52.36 166.78 53.56 168.18 53.56C169.58 53.57 170.71 52.38 170.71 50.89C170.71 49.4 169.59 48.21 168.18 48.21H168.17ZM167.58 52.72H167.02V49.2C167.31 49.16 167.6 49.12 168.02 49.12C168.55 49.12 168.91 49.23 169.12 49.39C169.33 49.54 169.44 49.78 169.44 50.12C169.44 50.58 169.13 50.86 168.75 50.98V51.01C169.06 51.07 169.27 51.35 169.34 51.87C169.43 52.42 169.51 52.63 169.57 52.74H168.98C168.89 52.63 168.81 52.31 168.74 51.84C168.66 51.39 168.43 51.22 167.98 51.22H167.59V52.74L167.58 52.72ZM167.58 50.77H167.99C168.45 50.77 168.85 50.6 168.85 50.17C168.85 49.86 168.62 49.55 167.99 49.55C167.81 49.55 167.68 49.56 167.58 49.58V50.77Z" fill="#5F8AC7"/>
<path d="M0 0V11.49C2.68 7.31 5.74 3.46 9.13 0H0Z" fill="white"/>
<path d="M25.62 0H18.54C11.13 4.96 4.81 11.43 0 18.97V37.25C3.92 21.44 13.25 8.15 25.62 0Z" fill="white"/>
<path d="M8.16 54.05C8.16 25.39 28.71 2.16 54.05 2.16V0C24.2 0 0 24.2 0 54.05H8.16Z" fill="white"/>
<path d="M18.36 54.05C18.36 31.36 34.34 12.97 54.0499 12.97V10.81C29.83 10.81 10.2 30.17 10.2 54.05H18.36Z" fill="white"/>
<path d="M28.56 54.05C28.56 37.33 39.97 23.78 54.06 23.78V21.62C35.47 21.62 20.41 36.14 20.41 54.05H28.57H28.56Z" fill="white"/>
<path d="M38.75 54.05C38.75 43.3 45.6 34.59 54.05 34.59V32.43C41.1 32.43 30.59 42.11 30.59 54.05H38.75Z" fill="white"/>
<path d="M48.95 54.05C48.95 49.27 51.23 45.4 54.05 45.4V43.24C46.73 43.24 40.79 48.08 40.79 54.05H48.95Z" fill="white"/>
<path d="M110.69 14.95C110.69 12.43 109.96 10.17 108.2 8.31001C106.47 6.55001 104.02 5.45001 101.56 5.45001C96.28 5.45001 92.33 9.67001 92.33 14.92C92.33 20.17 96.48 24.19 101.66 24.19C105.35 24.19 108.63 21.9 110.03 18.51H105.81C104.81 19.97 103.29 20.64 101.53 20.64C99.01 20.64 96.75 18.85 96.22 16.39H110.57L110.7 14.96L110.69 14.95ZM101.36 9.07001C103.92 9.07001 106.12 10.62 106.88 13.07H96.23C96.81 10.83 99.04 9.07001 101.36 9.07001Z" fill="#5F8AC7"/>
<path d="M148.51 14.95C148.51 12.43 147.78 10.17 146.02 8.31001C144.29 6.55001 141.84 5.45001 139.38 5.45001C134.1 5.45001 130.15 9.67001 130.15 14.92C130.15 20.17 134.3 24.19 139.48 24.19C143.17 24.19 146.45 21.9 147.85 18.51H143.63C142.63 19.97 141.11 20.64 139.35 20.64C136.83 20.64 134.57 18.85 134.04 16.39H148.39L148.52 14.96L148.51 14.95ZM139.18 9.07001C141.74 9.07001 143.94 10.62 144.7 13.07H134.05C134.63 10.83 136.86 9.07001 139.18 9.07001Z" fill="#5F8AC7"/>
</g>
<defs>
<clipPath id="clip0_314_2">
<rect width="171.28" height="54.51" fill="white"/>
</clipPath>
</defs>
</svg>
