<svg id="图层_1" data-name="图层 1" xmlns="http://www.w3.org/2000/svg" viewBox="0 0 129.48 160.81"><defs><style>.cls-1{fill:#d22937;}.cls-2,.cls-3{fill:#fff;}.cls-3{fill-rule:evenodd;}</style></defs><title>Logo nuevo</title><path class="cls-1" d="M141.26,50.47v-12l-7.42-7.43H96.27l-7.7,7.43v12H50.07V191.9H179.55V50.47Zm-45-12h37.57v12H96.27Z" transform="translate(-50.07 -31.08)"/><path class="cls-2" d="M135.41,134.38a4.32,4.32,0,1,1-4.31-4.4,4.36,4.36,0,0,1,4.31,4.4" transform="translate(-50.07 -31.08)"/><rect class="cls-2" x="96.07" y="99.85" width="17.59" height="5.6"/><path class="cls-2" d="M159.3,146.43c0,.29,0,.58,0,.88,0,8-6.13,14.4-13.68,14.4S132,155.26,132,147.3c0-.29,0-.58,0-.87h-5c0,.3,0,.58,0,.88,0,10.88,8.38,19.71,18.72,19.71s18.72-8.82,18.72-19.71c0-.29,0-.58,0-.87Z" transform="translate(-50.07 -31.08)"/><polygon class="cls-3" points="73.24 85.31 73.24 51.51 77.63 51.51 94.42 71.66 94.42 51.51 100.07 51.51 100.07 85.31 96.73 85.31 78.93 64.61 78.93 85.31 73.24 85.31"/><polygon class="cls-3" points="15.38 85.31 15.38 51.51 21.32 51.51 34.23 76.02 47.13 51.51 52.79 51.51 52.79 85.31 45.32 85.31 45.32 66.44 34.99 85.31 30.6 85.31 21.08 66.17 21.08 85.31 15.38 85.31"/><rect class="cls-2" x="59.59" y="51.51" width="6.85" height="33.8"/><rect class="cls-2" x="106.87" y="51.51" width="6.85" height="33.8"/><path class="cls-3" d="M85.65,164.14c2.53-1.83,5.58-7.46,2.68-12.18C87,149.75,83.91,147.59,80,146l-.69-.27c-2.79-1.09-7.46-2.93-7-6.34.37-2.42,3-3.75,7.38-3.75a21.77,21.77,0,0,1,7.19,1.13l.93-4.8a36.68,36.68,0,0,0-8.56-1c-3.18,0-7.55.49-10.33,2.81a9.42,9.42,0,0,0-3.11,6.59A8.52,8.52,0,0,0,68,146.78c2.13,2.29,5.34,3.61,8.18,4.77,2.52,1,4.69,1.92,5.72,3.29a3.84,3.84,0,0,1,.56,4c-.74,1.66-2.66,2.77-5.12,3-.63.05-1.29.08-2,.08a24.19,24.19,0,0,1-8.71-1.53l-.89,4.9a29.23,29.23,0,0,0,9.67,1.62C78.39,166.84,82.58,166.37,85.65,164.14Z" transform="translate(-50.07 -31.08)"/><path class="cls-3" d="M107.42,131.08a.26.26,0,0,1-.16,0c-4.07,0-6.81,1-8.86,3.16-3.49,3.23-5.2,8.46-4.94,15.14.31,7.94,2.95,17.39,13.71,17.39h.35c5.94,0,13.15-3,13.71-17.39.26-6.67-1.44-11.9-4.92-15.12C114.23,132.09,111.5,131.11,107.42,131.08Zm6.78,18.31c0,4.74-1,12.69-6.76,12.87l-.1,0-.09,0c-5.78-.18-6.72-8.13-6.76-12.87-.06-6.78.69-13.75,6.69-14.1h.11a.22.22,0,0,1,.15,0h.06C113.51,135.64,114.26,142.62,114.2,149.39Z" transform="translate(-50.07 -31.08)"/></svg>