<?xml version="1.0" encoding="utf-8"?>
<!-- Generator: Adobe Illustrator 23.0.1, SVG Export Plug-In . SVG Version: 6.00 Build 0)  -->
<svg version="1.1" id="Ebene_1" xmlns="http://www.w3.org/2000/svg" xmlns:xlink="http://www.w3.org/1999/xlink" x="0px" y="0px"
	 viewBox="0 0 200 51" style="enable-background:new 0 0 200 51;" xml:space="preserve">
<style type="text/css">
	.st0{fill:#1D1D1B;}
	.st1{fill:#E1251B;}
	.st2{fill:#FBFBFB;}
</style>
<g>
	<path class="st0" d="M2.2,23.7c0-0.8-0.2-1-0.4-1.4c4.2-2,4.6-5.2,10.7-5.2c3.3,0,6.3,1.1,8.2,4.3c2.2-2,3.6-4.3,8.9-4.3
		c5.5,0,10,4.8,10,10.3v10.9c0,1.9,0.5,2.4,1,2.8h-5.2c0.9-0.6,0.9-1.3,0.9-2.7V28c0-4.2-3.1-7.6-7.3-7.6c-3.8,0-5.8,3.1-6.6,3.8
		v14.2c0,1.9,0.5,2.4,1,2.8h-5.2c0.9-0.6,0.9-1.3,0.9-2.7V28c0-4.2-3.1-7.6-7.3-7.6c-3.8,0-5.7,3.1-6.6,3.8v15.3
		c0,0.9,0.8,1.4,1.2,1.7H1.4c0.6-0.5,0.7-1.1,0.7-2.3V23.7z"/>
	<path class="st0" d="M42.1,29.6c0-6.9,5.7-12.4,12.5-12.4c6.8,0,12.5,5.5,12.5,12.4c0,6.9-5.7,12.4-12.5,12.4
		C47.8,42,42.1,36.5,42.1,29.6z M54.6,20.4c-5,0-9.2,4.1-9.2,9.2c0,5,4.2,9.2,9.2,9.2c5,0,9.2-4.1,9.2-9.2
		C63.8,24.5,59.6,20.4,54.6,20.4z"/>
	<path class="st0" d="M89.7,9c0-0.5-0.2-1.1-0.8-1.6H93v26.2c0,1.1,0,2.8,0.5,3.2c-1,0.2-1.9,0.8-2.7,1.3C87.5,40,85.6,42,81.5,42
		c-7,0-12.4-5.5-12.4-12.6c0-7.2,6-12.2,12.7-12.2c3.2,0,5.9,0.7,7.7,3.5l0.2-0.1V9z M89.7,24.2c-2.4-2.5-4-3.8-8.5-3.8
		c-5.2,0-8.8,4.2-8.8,9.3c0,4.9,4.2,9,9.1,9c4.2,0,6.4-2.7,8.2-3.6V24.2z"/>
	<path class="st0" d="M128,20.5c1.9-1.6,3-3.2,7.4-3.2c5.7,0,10.4,4.8,10.4,10.3v10.9c0,1.9,0.5,2.4,1.1,2.8h-5.4
		c0.9-0.6,1-1.3,1-2.7V28.1c0-4.2-3.2-7.6-7.6-7.6c-4,0-5.9,3.1-6.8,3.8v15.3c0,0.9,0.8,1.4,1.2,1.7h-5.4c0.7-0.5,0.8-1.1,0.8-2.3
		V9.6c0-0.9,0-1.7-0.8-2.1h4.1V20.5z"/>
	<path class="st0" d="M171,20.8c1.4,0.9,1.7,1.1,3.2,1.1c-0.9,0.6-0.9,1.5-0.9,3.5v14.4c0,0.5,0.2,1,1,1.5H170v-2.6l-0.2-0.1
		c-1.8,2.8-4.6,3.5-8,3.5c-7,0-13.3-5-13.3-12.2c0-7.1,5.6-12.6,12.9-12.6C165.7,17.2,168,18.8,171,20.8z M170,24.1
		c-1.8-0.9-4.1-3.6-8.5-3.6c-5.1,0-9.5,4.1-9.5,9c0,5.1,3.7,9.3,9.1,9.3c4.7,0,6.4-1.3,8.9-3.8V24.1z"/>
	<path class="st0" d="M177.5,41.3c0.8-0.4,0.9-1.5,0.9-3.4V20.2c0-0.9,0-1.7-0.8-2.1h4.1v21.3c0,1,0.3,1.7,0.9,1.9H177.5z
		 M182.2,12.2c0,1.2-1,2.1-2.2,2.1c-1.2,0-2.2-0.9-2.2-2.1c0-1.2,1-2.1,2.2-2.1C181.2,10.1,182.2,11.1,182.2,12.2z"/>
	<path class="st0" d="M197.4,20.5h-0.9c-2.7,0-6.4,1.6-6.4,6.7v12.2c0,1,0.3,1.7,0.9,1.9h-5.1c0.8-0.4,0.9-1.5,0.9-3.4V19.7
		c0-0.6-0.3-1.2-0.5-1.7h3.6v3.1h0.1c1.1-2.9,3.6-3.8,6.1-3.8c0.5,0,0.9-0.1,1.3-0.5V20.5z"/>
	<polygon class="st0" points="97.5,7.2 94.8,14.2 96.5,14.2 101.2,7.2 	"/>
	<polygon class="st1" points="100.8,6.4 103.2,6.4 99.9,11.5 93.9,50.6 115.1,50.5 122.8,0.1 101.8,0.1 	"/>
	<path class="st2" d="M113,22.1c-1.2-1-2.8-1.7-4.4-1.7c-2.1,0-3.9,0.7-3.9,3c0,5.3,10.7,2.7,10.7,11.4c0,4.1-3.4,7.2-7.7,7.2
		c-1.8,0-3.2-0.2-4.2-0.5c-1-0.2-1.7-0.5-2.2-0.5c-0.3,0-0.7,0.3-0.9,0.6h0v-5.7c1.6,1.7,3.9,2.9,6.4,2.9c2.6,0,5.2-0.7,5.2-3.6
		c0-6.7-10.7-3.5-10.7-11.8c0-3.8,3-6.2,7-6.2c1.4,0,3,0.5,3.8,0.5c0.3,0,0.8-0.1,1.1-0.4V22.1z"/>
	<path class="st0" d="M126.5,43.7c1.6,0,2.2,1.1,2.2,2.1c0,1-0.6,2-2.5,2h-0.9v2.6h-1.3v-6.7H126.5z M125.6,46.7
		c0.7,0,1.8,0.1,1.8-0.9c0-1-1.1-0.9-1.8-0.9h-0.3v1.9H125.6z"/>
	<path class="st0" d="M145.4,50.4H144l-0.4-1.7h-2l-0.4,1.7h-1.4l1.9-6.7h1.8L145.4,50.4z M142.6,44.9L142.6,44.9l-0.7,2.8h1.4
		L142.6,44.9z"/>
	<path class="st0" d="M159.4,43.7c1.5,0,2.1,1.1,2.1,1.9c0,0.7-0.5,1.4-1.1,1.7l1.3,3h-1.4l-1.2-2.8h-1v2.8h-1.3v-6.7H159.4z
		 M158.7,46.5c0.6,0,1.5,0,1.5-0.8c0-0.9-0.9-0.8-1.6-0.8h-0.5v1.6H158.7z"/>
	<path class="st0" d="M173.4,50.4v-6.7h1.3v6.7H173.4z"/>
	<path class="st0" d="M189.8,45.7c-0.1-0.5-0.4-0.9-0.9-0.9c-0.4,0-0.8,0.3-0.8,0.8c0,1.3,3.1,0.5,3.1,2.9c0,0.8-0.6,2-2.3,2
		c-1.3,0-2.2-0.6-2.4-1.9l1.3-0.2c0.1,0.6,0.4,1,1,1c0.5,0,1-0.3,1-0.8c0-1.3-3.1-0.6-3.1-2.8c0-1.2,1-2.1,2.2-2.1
		c1.1,0,2,0.7,2.1,1.9L189.8,45.7z"/>
</g>
</svg>
