<svg id="Logo" xmlns="http://www.w3.org/2000/svg" width="171.406" height="45.27" viewBox="0 0 171.406 45.27">
  <g id="Logo_couleur" data-name="Logo couleur" transform="translate(-268.002 -683.002)">
    <g id="Groupe_735" data-name="Groupe 735" transform="translate(-728.998 142.686)">
      <path id="Tracé_210" data-name="Tracé 210" d="M1072.748,288.92l-22.676,22.634,22.676,22.635Z" transform="translate(-30.541 251.396)" fill="#009ee2"/>
      <path id="Tracé_211" data-name="Tracé 211" d="M409.633,288.92v45.269l22.677-22.635Z" transform="translate(587.366 251.396)" fill="#009ee2"/>
      <path id="Tracé_212" data-name="Tracé 212" d="M409.633,952h45.207l-22.6-22.678Z" transform="translate(587.366 -366.413)"/>
    </g>
    <path id="Tracé_219" data-name="Tracé 219" d="M399.042,421.426l-6.385-9.922H388.73v20.983h3.627V417.5l6.564,9.833h.12l6.625-9.892v15.048h3.687V411.5h-3.927Zm24.879-10.282a10.751,10.751,0,0,0-11,10.852v.06a10.972,10.972,0,0,0,21.942-.06v-.06A10.651,10.651,0,0,0,423.921,411.144ZM431,422.055a7.09,7.09,0,0,1-7.074,7.4A7.189,7.189,0,0,1,416.786,422v-.06a7.09,7.09,0,0,1,7.074-7.4A7.189,7.189,0,0,1,431,422Zm17.5-10.911A10.752,10.752,0,0,0,437.5,422v.06A10.972,10.972,0,0,0,459.44,422v-.06A10.651,10.651,0,0,0,448.5,411.144Zm7.075,10.911a7.09,7.09,0,0,1-7.075,7.4A7.189,7.189,0,0,1,441.365,422v-.06a7.09,7.09,0,0,1,7.074-7.4A7.19,7.19,0,0,1,455.574,422Zm24.309-3.867v-.06a6.343,6.343,0,0,0-1.739-4.527,8.455,8.455,0,0,0-6.055-2.1h-9.353v20.983h3.687v-7.314h4.616l5.156,7.314h4.346l-5.666-7.944C477.814,423.7,479.883,421.635,479.883,418.188Zm-13.459,3.717v-7.044h5.366c2.727,0,4.346,1.229,4.346,3.477v.06c0,2.128-1.679,3.507-4.317,3.507ZM487.2,429.19v-5.636h10.522v-3.3H487.2V414.8h11.87v-3.3H483.509v20.983h15.707v-3.3Z" transform="translate(-59.809 283.609)"/>
  </g>
</svg>
