<?xml version="1.0" encoding="UTF-8"?> <svg xmlns="http://www.w3.org/2000/svg" id="Graphics" viewBox="0 0 442.89 165.48"><path d="M124.11,124.14a41.37,41.37,0,0,1,82.74,0Zm0,82.74a41.37,41.37,0,0,1,41.37-41.37,41.37,41.37,0,0,1-41.37-41.37,41.37,41.37,0,0,0,0,82.74Zm0,0a41.37,41.37,0,0,0,82.74,0Zm41.37-41.37a41.37,41.37,0,0,1,41.37,41.37,41.37,41.37,0,1,0,0-82.74A41.37,41.37,0,0,1,165.48,165.51Z" transform="translate(-82.74 -82.77)" style="fill:#00827a"></path><path d="M352.5,124.14h25.63v82.73h-19V151.23l-24.31,55.64-25.58-55.71v55.71H291.53V124.14h25.33L335.13,167Zm93.23,24.43c0-16.34-12.56-25.84-27.58-25.84S387,131.44,387,148.39c0,14.69,16.17,22.24,25.4,24.62,5.07,1.34,17.86,2.77,17.86,11.91,0,8.69-8.94,11.06-15.63,11.06-8.62,0-13.68-6-12.94-15.17H384.76c-.59,20.58,13.4,28.25,29.74,28.63,18.89.43,33.31-7.64,33.31-25.83s-16.36-21.17-29.15-25.32c-5-1.61-14.12-3-14.12-11.48,0-7.07,6.1-10.46,12.34-10.46,8,0,12.19,4,12.79,12.22h16.06m35.75-24.52H455.12V206.7h26.36c21.91,0,44.15-12.66,44.15-41.25S503.39,124.05,481.48,124.05Zm-1.19,67.61-7.3,0V139.24h7.3c20.09,0,27.34,13.1,27.34,26.21S500.38,191.66,480.29,191.66Z" transform="translate(-82.74 -82.77)" style="fill:#2f3e4a"></path></svg> 