<svg width="142" height="60" viewBox="0 0 142 60" fill="none" xmlns="http://www.w3.org/2000/svg"><path fill-rule="evenodd" clip-rule="evenodd" d="M41.768 44.428c-.191.07-.185.258-.24.393-.809 1.947-1.547 3.925-2.433 5.836-.454.98-.425 1.722.308 2.522.508.554.883 1.227 1.328 1.84.302.417.621.82 1.038 1.37v-11.96zm70.106-28.391c0-.504.032-1.012-.006-1.514-.252-3.418-1.487-6.353-4.226-8.568-.522-.422-.845-.39-1.34.04-4.716 4.088-5.821 14.34 1.974 18.378.653.338.944.23 1.322-.334 1.63-2.428 2.348-5.104 2.276-8.002zM58.365 3.39c-.25.156-.274.428-.365.651C53.507 15.13 49.02 26.22 44.534 37.31c-.297.733-.287.748.52.748 8.65.002 17.298.002 25.947 0 .91 0 .909-.003.57-.877-4.26-10.982-8.52-21.964-12.786-32.943-.11-.286-.145-.623-.42-.846zm43.362 27.4c1.141.292 2.103.51 3.049.786 3.037.88 5.355 2.61 6.617 5.585.588 1.388.924 2.838 1.097 4.323.35 3.038.258 6.097.408 9.143.097 1.995.256 3.981.566 5.954.079.505.313.764.816.865 1.446.293 2.898.528 4.374.632 4.274.295 8.475.02 12.523-1.535 2.703-1.04 5.076-2.564 6.781-4.921 2.402-3.319 2.786-7.028 1.765-10.9-.948-3.598-3.499-5.78-6.764-7.268-2.808-1.28-5.806-1.935-8.792-2.637-4.819-1.135-9.718-1.97-14.37-3.743-.24-.091-.431-.088-.634.087-2.096 1.826-4.564 2.91-7.436 3.629zM74.294 16.547c0 4.248.003 8.494-.006 12.742-.002.467.032.783.648.776 7.725-.095 15.453.212 23.174-.166 3.314-.163 6.34-1.328 9.034-3.295.426-.313.421-.488-.05-.762-1.464-.85-2.784-1.887-3.846-3.216-1.502-1.88-2.16-4.068-2.358-6.431-.357-4.238.683-8.007 3.685-11.14.526-.549.527-.566-.206-.798-2.502-.794-5.077-1.136-7.695-1.14-7.174-.012-14.347.005-21.52-.02-.731-.003-.878.247-.873.915.026 4.18.013 8.358.013 12.535zm45.504 43.45c-1.507-.17-3.027-.223-4.524-.517-4.267-.837-8.187-2.356-11.275-5.569-2.657-2.763-4.028-6.105-4.584-9.83-.19-1.27-.272-2.551-.3-3.838-.015-.742.442-.73.935-.773.498-.043.82.034.858.665.117 1.947.299 3.888.786 5.79 1.304 5.096 4.492 8.532 9.31 10.551.46.193.643.103.564-.42-.573-3.756-.603-7.544-.659-11.33-.031-2.146-.258-4.266-1.011-6.292-1.197-3.214-3.667-4.957-6.879-5.815-1.904-.51-3.852-.718-5.817-.72-7.337-.005-14.674.006-22.013-.015-.69-.002-.936.18-.903.89.087 1.858-.076 3.719.092 5.577.112 1.22.698 2.278 1.13 3.382 2.084 5.326 4.207 10.638 6.316 15.955.076.192.153.384.215.581.041.138.034.261-.123.348-.597.331-1.76-.062-2.015-.696A25101.93 25101.93 0 0175.19 46.15l-.651-1.626-.124.032c-.038.795-.106 1.59-.108 2.384-.011 3.605-.002 7.212-.009 10.817-.001.284.133.676-.198.813-.425.176-.911.149-1.356.007-.234-.076-.19-.343-.191-.545-.007-.666-.005-1.332-.005-1.999l.002-15.226c0-.906-.002-.909-.926-.909H44.488c-.932 0-.934.003-.934.972l.002 16.742c0 1.044-.01.964-1.007 1.066-1.153.122-1.891-.273-2.47-1.266-.578-.99-1.307-1.89-1.975-2.828-.09-.126-.144-.338-.321-.33-.23.008-.226.264-.29.419-.476 1.146-.93 2.3-1.405 3.445-.193.463-1.717.803-2.062.462-.216-.213-.019-.434.062-.63.64-1.574 1.249-3.163 1.955-4.711.327-.716.245-1.226-.21-1.862-5.462-7.63-10.89-15.285-16.334-22.927C13.721 20.338 7.937 12.232 2.154 4.123c-.091-.129-.189-.255-.412-.555v.956L1.74 57.093c0 .23.001.46-.001.69-.008.776-.827 1.21-1.527.815-.168-.094-.195-.244-.202-.406C0 57.962 0 57.732 0 57.503V2.453c0-1.17.006-1.103 1.165-1.192.972-.075 1.536.283 2.092 1.067 9.499 13.396 19.027 26.77 28.552 40.147 1.68 2.361 3.364 4.719 5.053 7.075.112.155.17.435.428.38.19-.042.21-.283.276-.45 1.311-3.212 2.622-6.422 3.926-9.637.273-.67.326-1.376.326-2.096-.008-11.827-.009-23.655-.012-35.482 0-.935.04-.978.878-.978.822 0 .873.049.873.915l.005 27.974v4.134c.388-.14.382-.379.449-.546 4.27-10.489 8.53-20.984 12.801-31.473.142-.347.158-.854.595-.95a4.208 4.208 0 011.854.008c.35.083.383.488.5.78 2.765 6.96 5.533 13.918 8.29 20.882 1.378 3.481 2.734 6.972 4.102 10.457.048.124.102.246.153.37l.236-.01v-4.143l.007-27.354c0-1.048.003-1.05 1.081-1.05 7.178-.001 14.354-.012 21.53.006 2.885.006 5.761.165 8.571.918.849.228 1.672.526 2.472.881.371.165.675.171 1.037-.034C110.981.93 115.051.1 119.313.013c3.38-.068 6.732.105 9.989 1.122 6.643 2.074 10.281 6.66 11.312 13.418.121.793.169 1.596.246 2.395.048.491-.225.668-.671.629-.414-.037-.97.22-1.047-.532-.173-1.644-.406-3.28-.877-4.872-1.343-4.535-4.371-7.453-8.773-9.043-2.297-.83-4.685-1.148-7.116-1.291-3.679-.219-7.272.146-10.778 1.296-.877.288-1.729.638-2.556 1.05-.337.17-.336.29-.052.526 2.962 2.461 4.247 5.73 4.636 9.455.33 3.175.001 6.233-1.442 9.119-.277.553-.585 1.102-.957 1.593-.38.502-.292.698.293.892 2.761.915 5.593 1.56 8.422 2.215 3.931.911 7.866 1.805 11.708 3.051 1.781.58 3.503 1.312 5.069 2.343 2.716 1.787 4.36 4.303 4.974 7.485.034.178.083.355.125.532v5.926c-.063.22-.134.436-.186.66-.591 2.578-1.863 4.766-3.8 6.572-2.959 2.757-6.563 4.157-10.466 4.939-1.446.29-2.917.34-4.377.507-1.068-.002-2.129-.002-3.191-.002z" fill="#fff"/></svg>