<?xml version="1.0" encoding="UTF-8"?>
<svg width="1000px" height="177px" xmlns="http://www.w3.org/2000/svg" viewBox="0 0 407.4 72.2">
  <path d="M310.4 38.6V20.4h5.7c3.4 0 5.1 1.9 5.1 5 0 1.8-.8 3.1-2.3 3.9 1.7.6 3 2.2 3 4.3 0 3.4-2.2 5.2-5.6 5.2h-5.9zm8-13.1c0-1.6-.8-2.6-2.6-2.6h-2.7v5.2h2.8c1.7 0 2.5-1 2.5-2.6zm-2.6 4.9h-2.6v5.7h2.7c2 0 3.1-.9 3.1-2.9 0-1.9-1.3-2.8-3.2-2.8zm8 0c0-3.6 2.4-5.5 5.4-5.5s5.4 1.8 5.4 5.5v3c0 3.6-2.4 5.5-5.4 5.5s-5.4-1.8-5.4-5.5v-3zm2.8 3c0 1.8 1 3 2.7 3s2.7-1.1 2.7-3v-3c0-1.8-1-3-2.7-3s-2.7 1.1-2.7 3v3zm10.4-8.2h8.5v2.2l-5.7 8.9h5.9v2.4h-8.9v-2.1l5.7-8.9H337v-2.5zm10.6 5.3c0-3.6 2.2-5.6 5.1-5.6 2.8 0 5 2 5 5.6v2.3h-7.3v.6c0 1.9 1 2.9 3 2.9 1.9 0 3.2-.4 3.8-.5l.2 2.4c-.6.2-2.2.7-4.3.7-3.2 0-5.5-1.9-5.5-5.5v-2.9zm2.7.4h4.7v-.5c0-2-.8-3-2.3-3-1.6 0-2.3 1-2.3 3v.5zm12.7-5.7l.2 1.5c1.2-1 2.6-1.7 4-1.8.5 0 .9 0 1.3.1.9.2 1.5.8 1.9 1.7 1.3-1.1 2.8-1.9 4.3-1.9 2.1 0 3.3 1.3 3.3 3.8v9.9h-2.8v-9c0-1.2-.5-1.9-1.6-1.9-.8 0-2 .4-3 1.2v9.6H368v-9c0-1.2-.5-1.9-1.6-1.9-.8 0-2 .4-3 1.2v9.6h-2.8V25.2h2.4zm22 5.9h2.4v-1.2c0-1.5-.5-2.4-2.4-2.4-1.3 0-2.7.4-3.4.6l-.3-2.5c.8-.3 2.4-.8 4.1-.8 3.4 0 4.7 1.7 4.7 5.2v5.1c0 .7.3 1.1.8 1.1.3 0 .6-.1.8-.1v2.3c-.3.2-1 .3-1.7.3-1 0-1.8-.5-2.2-1.4-.9.7-2.1 1.4-3.5 1.4-2.1 0-3.7-1.2-3.7-3.8.1-2.5 2.1-3.8 4.4-3.8zm2.4 4.7V33h-2.2c-1.2 0-2 .6-2 1.9 0 1.2.8 1.7 1.6 1.7 1.1.1 1.8-.3 2.6-.8zm9.1-10.6l.2 1.5c1.3-1 2.8-1.8 4.3-1.8 2.2 0 3.4 1.3 3.4 3.8v9.9h-2.8v-9c0-1.2-.5-1.9-1.7-1.9-.9 0-2 .4-3.1 1.2v9.6H394V25.2h2.5zm-111.1 9v1.5h.8c.5 0 .8-.2.8-.7v-.1c0-.4-.3-.7-.8-.7h-.8zm2.1.8c0 .6-.4.9-.9 1l.9 1.4h-.5l-.8-1.4h-.7v1.4h-.5v-3.6h1.3c.7 0 1.3.4 1.3 1v.2zm-1.3 3.5c1.6 0 2.9-1.3 2.9-2.9 0-1.6-1.3-2.9-2.9-2.9-1.6 0-2.9 1.3-2.9 2.9 0 1.6 1.3 2.9 2.9 2.9m0-6.3c1.9 0 3.4 1.5 3.4 3.4s-1.5 3.4-3.4 3.4-3.4-1.5-3.4-3.4c0-1.8 1.5-3.4 3.4-3.4"></path>
  <path d="M52.7 7.2c0 .5-.1.9-.3 1.3-.4.7-1 1.2-1.8 1.4-.8 2.9-1.9 6.4-3.5 10.4.3.3.5.8.6 1.2 0 .2.1.3.1.5 0 .7-.3 1.4-.7 1.9-.5.5-1.1.9-1.9.9-2.7 5.7-6.5 11.7-11.6 17.3-.3-.8-.9-1.5-1.8-1.7 4.8-5.3 8.4-11.1 11-16.5-.3-.3-.4-.7-.5-1.1-.1-.2-.1-.4-.1-.7 0-.7.2-1.3.6-1.8.5-.6 1.2-1 2-1 1.5-3.8 2.6-7.2 3.3-9.9-.3-.2-.5-.5-.7-.8-.2-.4-.3-.8-.3-1.3 0-.4.1-.8.3-1.2.4-.7 1-1.3 1.8-1.5.2-1 .3-1.6.3-1.6.1-.7.7-1.1 1.4-1.1.7.1 1.2.7 1.1 1.4 0 .2-.1.8-.3 1.8.3.2.5.5.7.9.2.3.3.8.3 1.2zM28.2 43.8c-.2.2-.5.4-.7.6-.5.5-.6 1.2-.1 1.7.2.3.6.4.9.4.3 0 .6-.1.8-.3.3-.2.5-.5.8-.7-.8-.2-1.4-.8-1.7-1.7zm9.9 12.9c-.5.7-1 1.3-1.6 2-.4.5-.4 1.3.2 1.8.2.2.5.3.8.3.4 0 .7-.2 1-.5.6-.7 1.2-1.4 1.7-2.2-.9-.1-1.7-.6-2.1-1.4zm4.9-2.5C55 37 57.1 21.4 57.3 13.1c0-.7-.5-1.3-1.2-1.3s-1.3.5-1.3 1.2c-.1 8-2.2 23-13.7 39.6.8.2 1.6.8 1.9 1.6z" fill="#91c846"></path>
  <path d="M4.4 21.4C3.6 19.3 3.2 18 3.2 18c-.2-.7.2-1.3.9-1.5.7-.2 1.3.2 1.5.9 0 .1.3 1.2 1.1 3.1h-.1c-.9-.1-1.6.3-2.2.9zm14.2-8.9c-.2-1.6-.3-2.4-.3-2.5 0-.7-.6-1.2-1.2-1.2-.7 0-1.2.6-1.2 1.2 0 .2 0 1.2.3 3 .5-.4 1.1-.6 1.7-.6.3.1.5.1.7.1zm26.8 43.6l-2.1-.6v-.1c0-.4-.1-.8-.3-1.2-.4-.8-1.1-1.4-2-1.6-.2 0-.4-.1-.6-.1h-.5c-2.5-2.9-4.7-5.6-6.7-8.3.2-.4.3-.9.3-1.3 0-.3-.1-.6-.2-.9-.3-.8-.9-1.5-1.8-1.7-.3-.1-.6-.1-.9-.1h-.4c-3.9-5.8-6.5-11.1-8.3-15.5-.5.5-1.2.9-2 .9h-.4c1.8 4.6 4.6 10 8.6 16.1.1.3-.1.8-.1 1.3 0 .3.1.6.1.9.3.8.9 1.5 1.7 1.8.3.1.6.2.9.2h.4c1.8 2.4 3.7 4.9 5.9 7.4C21.3 45.9 12.8 33.2 8.7 25c-.5.6-1.3 1-2.1 1h-.1c4.3 8.8 13.7 22.8 31.4 30.2l.3.6c.4.8 1.2 1.3 2.1 1.4h.4c.6 0 1.1-.2 1.5-.4.9.3 1.8.6 2.7.8h.3c.5 0 1-.4 1.2-.9 0-.7-.4-1.4-1-1.6zM20.4 20c-.3-.9-.6-1.8-.8-2.6-.5.4-1.1.6-1.7.6-.3 0-.5 0-.7-.1.2.9.5 1.9.9 3 .5-.5 1.2-.9 2-.9h.3z" fill="#00467d"></path>
  <path d="M49.8 23.6c-.2.6-1 1-1.6.7-.4-.2-.8-.3-1.2-.4.4-.5.7-1.1.7-1.9 0-.2 0-.4-.1-.5.5.2 1 .3 1.4.5.7.2 1 .9.8 1.6zm4.1-17.5s-.6-.1-1.5-.1c.2.4.3.8.3 1.2 0 .5-.1.9-.3 1.3.8 0 1.2.1 1.3.1.7.1 1.3-.4 1.4-1.1 0-.7-.5-1.3-1.2-1.4zM8.7 25c.4-.5.7-1.1.7-1.8 0-.2 0-.5-.1-.7 2.3-1.9 4.7-3.5 7.1-5 .2.2.5.3.8.4.2.1.5.1.7.1.7 0 1.3-.2 1.7-.6.6-.5 1-1.3 1-2.2C31 10.1 41.1 8.7 47.3 8.5c-.2-.4-.3-.8-.3-1.3 0-.4.1-.8.3-1.2-6.5.3-17 1.7-27.8 7-.3-.2-.6-.4-.9-.4-.2-.1-.5-.1-.7-.1-.7 0-1.3.2-1.7.6-.6.5-1 1.3-1 2.2v.2c-2.5 1.5-5 3.2-7.5 5.2-.3-.1-.6-.2-1-.2h-.1c-.9 0-1.6.4-2.2 1-.4.5-.6 1.1-.6 1.8 0 .3 0 .5.1.7-.4.4-.9.8-1.3 1.3-.5.5-.5 1.3 0 1.8.2.2.6.4.9.4.3 0 .6-.1.9-.4l1.2-1.2c.3 0 .6.1.9.1h.1c.9 0 1.6-.4 2.1-1zm13.4-.3c.3-.4.6-.8.7-1.3 4.9-1.1 12.1-2 19.4-.7-.1-.2-.1-.4-.1-.7 0-.7.2-1.3.6-1.8-7.7-1.4-15.3-.4-20.5.8-.4-.5-1.1-.9-1.8-.9h-.3c-.8 0-1.5.3-2 .9-.4.4-.6.9-.7 1.4-1.2.4-1.9.7-2 .7-.6.3-.9 1-.7 1.6.2.5.7.8 1.2.8.2 0 .3 0 .5-.1 0 0 .7-.3 1.8-.6.4.5 1 .8 1.7.9h.4c.6-.1 1.3-.5 1.8-1z" fill="#00b0db"></path>
  <path d="M70.4 13.7v24.7h-4.2v-32h4.4L85.1 31V6.3h4.2v32h-4.4L70.4 13.7zm22.7 10.2c0-6.2 4.3-9.6 9.2-9.6 5 0 9.2 3.4 9.2 9.6V28H97.3v1.2c0 3.7 2.1 5.8 6.1 5.8 3.7 0 6.3-.7 7.4-1l.4 3.6c-1.1.4-4.1 1.2-7.9 1.2-5.7 0-10.1-3.4-10.1-9.6v-5.3zm4.2 1h10.2v-1c0-4-1.7-6-5.1-6s-5.1 2-5.1 6v1zm22.2-20.7v34.2h-4.1V4.2h4.1zm10.8 34.6c-3.4 0-6.1-.7-7.5-1.2l.6-3.4c1.2.4 3.8 1.1 6.3 1.1 3.3 0 4.9-.5 4.9-2.9 0-2.5-1.2-3.4-5.7-4.4-4.3-1.1-6.2-2.5-6.2-7.1 0-3.7 3.2-6.5 8.2-6.5 3.1 0 5.3.5 6.5.9l-.5 3.5c-1.2-.3-3.5-.8-5.7-.8-2.9 0-4.7.8-4.7 3.1 0 2.2 1 2.9 5.2 3.9 5 1.2 6.6 2.9 6.6 7.1.3 4.6-2.7 6.7-8 6.7zm11-15.2c0-6.2 4.7-9.3 10-9.3s10 3.1 10 9.3v5.9c0 6.2-4.7 9.3-10 9.3s-10-3.1-10-9.3v-5.9zm4.1 5.6c0 3.7 2.1 6 5.9 6 3.7 0 5.9-2.2 5.9-6v-5.3c0-3.7-2.1-6-5.9-6-3.7 0-5.9 2.2-5.9 6v5.3zm23.3-14.4l.3 2.9c2.6-1.9 5.5-3.3 8.5-3.3 4 0 6.5 2.3 6.5 6.6v17.5h-4.1V22.1c0-2.5-1-3.8-3.6-3.8-1.9 0-4.5.9-6.8 2.6v17.5h-4.1V14.8h3.3zm35.8 19.8h13.4v3.8h-17.6v-32h4.2v28.2zm23.2-9.2h5v-2.5c0-2.9-1-4.8-4.9-4.8-2.4 0-5 .6-6.4 1l-.4-3.5c1.4-.5 4.4-1.3 7.3-1.3 6.3 0 8.5 3.1 8.5 9.1v9.9c0 1.2.6 1.9 1.6 1.9.5 0 1.1-.1 1.5-.2l.1 3.2c-.6.3-1.6.5-2.8.5-1.9 0-3.2-1-3.9-2.3-1.6 1.2-4 2.3-6.7 2.3-4 0-7-2.1-7-6.5.1-4.5 3.6-6.8 8.1-6.8zm5 8.3v-5.3H228c-2.7 0-4.3 1.3-4.3 3.7 0 2.3 1.7 3.4 3.5 3.4 2 0 3.8-.7 5.5-1.8zm29.5-4.5c0 6.2-4.2 9.6-10.2 9.6-4 0-7-.8-9.1-1.8V4.2h4V17c1.9-1.5 4.1-2.7 7.1-2.7 4.2 0 8.1 3.4 8.1 9.6v5.3zm-15.1-8.8v14c1.3.4 3 .8 5.1.8 4.3 0 5.9-2.5 5.9-6.2v-4.8c0-3.7-1.4-6.1-5-6.1-2.3 0-4.5 1-6 2.3zm25.4 18.4c-3.4 0-6.1-.7-7.5-1.2l.6-3.4c1.2.4 3.8 1.1 6.3 1.1 3.3 0 4.9-.5 4.9-2.9 0-2.5-1.2-3.4-5.7-4.4-4.3-1.1-6.2-2.5-6.2-7.1 0-3.7 3.2-6.5 8.2-6.5 3.1 0 5.3.5 6.5.9l-.5 3.5c-1.2-.3-3.5-.8-5.7-.8-2.9 0-4.7.8-4.7 3.1 0 2.2 1 2.9 5.2 3.9 5 1.2 6.6 2.9 6.6 7.1.2 4.6-2.8 6.7-8 6.7zM75.1 66.2L74 62.8h-5.6l-1.1 3.5h-1.4L70.3 53h1.9l4.4 13.3h-1.5zm-6.3-4.6h4.8l-2.4-7.4-2.4 7.4zm17.1 4.8c-1.7 0-2.9-.4-3.7-.6l.2-1.2c.7.2 1.9.6 3.3.6 1.9 0 3.1-.5 3.1-2.3 0-1.4-.6-2-2.3-2.6l-1.8-.6c-1.7-.5-2.3-1.8-2.3-3.5 0-2 1.6-3.5 4-3.5 1.7 0 2.6.3 3.3.5l-.2 1.2c-.7-.2-1.7-.5-3-.5-1.7 0-2.8.8-2.8 2.2 0 1.3.4 2 1.8 2.4l1.8.6c2 .6 2.9 1.7 2.9 3.7 0 2.4-1.6 3.6-4.3 3.6zm6-6.3c0-2.5 1.8-3.8 4-3.8s4 1.3 4 3.8v2.5c0 2.5-1.8 3.8-4 3.8s-4-1.3-4-3.8v-2.5zm1.3 2.4c0 1.7 1 2.7 2.7 2.7 1.6 0 2.7-1 2.7-2.7v-2.4c0-1.7-1-2.7-2.7-2.7-1.6 0-2.7 1-2.7 2.7v2.4zm8.1-6h1.7l.1-2.7h1.2v2.7h2.6v1.1h-2.6v6.1c0 1.2.6 1.5 1.5 1.5.5 0 1-.1 1.3-.2l.1 1.1c-.4.1-1 .2-1.7.2-1.5 0-2.6-.8-2.6-2.5v-6.3h-1.6v-1zm7.2 3.6c0-2.4 1.7-3.9 3.7-3.9s3.7 1.4 3.7 3.9v1.6h-6.1v.7c0 1.7 1 2.7 2.8 2.7 1.5 0 2.6-.3 3-.5l.1 1.2c-.5.2-1.7.5-3.2.5-2.4 0-4.1-1.4-4.1-3.9v-2.3zm1.3.6h4.8v-.6c0-1.7-.9-2.7-2.4-2.7s-2.4.9-2.4 2.7v.6zm9.6-4.2l.1 1.6c.8-.9 2.3-1.8 3.4-1.8v1.3c-1.1.1-2.4.8-3.3 1.7v6.9h-1.3v-9.8h1.1zm13.1 8.7c-.2 0-.4.1-.6.1-.5 0-.7-.3-.7-.8v-4.7c0-2.3-1-3.5-3.4-3.5-1 0-2.1.2-2.8.5V58c.7-.2 1.7-.4 2.7-.4 1.6 0 2.2.8 2.2 2.1V61h-2.3c-1.9 0-3.3 1-3.3 2.8 0 1.7 1.2 2.6 2.9 2.6 1.1 0 2.1-.5 2.9-1.1.2.7.7 1.1 1.5 1.1.4 0 .8-.1 1-.2l-.1-1zm-2.6-.9c-.8.6-1.6 1-2.6 1s-1.7-.6-1.7-1.6c0-1.2.7-1.8 2-1.8h2.2v2.4zm16.8 1.9v-6.1h-6.5v6.1h-1.4V53h1.4v6h6.5v-6h1.4v13.3h-1.4zm3.5-6.1c0-2.4 1.7-3.9 3.7-3.9s3.7 1.4 3.7 3.9v1.6h-6.1v.7c0 1.7 1 2.7 2.8 2.7 1.5 0 2.6-.3 3-.5l.1 1.2c-.5.2-1.7.5-3.2.5-2.4 0-4.1-1.4-4.1-3.9v-2.3zm1.4.6h4.8v-.6c0-1.7-.9-2.7-2.4-2.7s-2.4.9-2.4 2.7v.6zm16 4.5c-.2 0-.4.1-.6.1-.5 0-.7-.3-.7-.8v-4.7c0-2.3-1-3.5-3.4-3.5-1 0-2.1.2-2.8.5V58c.7-.2 1.7-.4 2.7-.4 1.6 0 2.2.8 2.2 2.1V61h-2.3c-1.9 0-3.3 1-3.3 2.8 0 1.7 1.2 2.6 2.9 2.6 1.1 0 2.1-.5 2.9-1.1.2.7.7 1.1 1.5 1.1.4 0 .8-.1 1-.2l-.1-1zm-2.7-.9c-.8.6-1.6 1-2.6 1s-1.7-.6-1.7-1.6c0-1.2.7-1.8 2-1.8h2.2v2.4zm6.1-12.2v14.1h-1.3V52.1h1.3zm2 4.4h1.7l.1-2.7h1.2v2.7h2.6v1.1H176v6.1c0 1.2.6 1.5 1.5 1.5.5 0 1-.1 1.3-.2l.1 1.1c-.4.1-1 .2-1.7.2-1.5 0-2.6-.8-2.6-2.5v-6.3H173v-1zm9.1-4.4v5.5c1.1-.8 2.4-1.4 3.6-1.4 1.7 0 2.6.9 2.6 2.7v7.3H187v-6.9c0-1.1-.5-1.8-1.7-1.8-.9 0-2.1.4-3.1 1.2v7.5h-1.3V52.1h1.2zm14.7 10.3c0 1.7 1 2.8 2.7 2.8.9 0 1.9-.2 2.2-.3l.1 1.2c-.4.1-1.4.3-2.4.3-2.3 0-4-1.4-4-3.9v-2.4c0-2.5 1.7-3.9 3.9-3.9 1.2 0 2 .3 2.3.4l-.2 1.2c-.2-.1-1.1-.3-2.1-.3-1.7 0-2.6 1.1-2.6 2.8v2.1zm6.6-2.3c0-2.5 1.8-3.8 4-3.8s4 1.3 4 3.8v2.5c0 2.5-1.8 3.8-4 3.8s-4-1.3-4-3.8v-2.5zm1.3 2.4c0 1.7 1 2.7 2.7 2.7 1.6 0 2.7-1 2.7-2.7v-2.4c0-1.7-1-2.7-2.7-2.7-1.6 0-2.7 1-2.7 2.7v2.4zm10-6l.1 1.2c1.1-.8 2.4-1.4 3.5-1.4 1.2 0 2 .5 2.4 1.5 1.2-.9 2.4-1.5 3.6-1.5 1.6 0 2.5.9 2.5 2.7v7.3h-1.3v-6.9c0-1.1-.5-1.8-1.6-1.8-.9 0-2 .4-3.1 1.2v7.5h-1.3v-6.9c0-1.1-.5-1.7-1.6-1.7-.9 0-2 .4-3 1.2v7.5h-1.3v-9.8h1.1zm16.1 0l.1 1.1c.8-.7 1.9-1.3 3.2-1.3 1.8 0 3.3 1.4 3.3 3.9v2.4c0 2.4-1.7 3.9-4.1 3.9-.9 0-1.7-.2-2.3-.4v4.6h-1.3V56.5h1.1zm.2 2.2v6.1c.6.2 1.4.4 2.3.4 1.9 0 2.7-1.1 2.7-2.8v-2.2c0-1.7-.7-2.8-2.3-2.8-1 .1-2 .7-2.7 1.3zm16.2 6.5c-.2 0-.4.1-.6.1-.5 0-.7-.3-.7-.8v-4.7c0-2.3-1-3.5-3.4-3.5-1 0-2.1.2-2.8.5V58c.7-.2 1.7-.4 2.7-.4 1.6 0 2.2.8 2.2 2.1V61h-2.3c-1.9 0-3.3 1-3.3 2.8 0 1.7 1.2 2.6 2.9 2.6 1.1 0 2.1-.5 2.9-1.1.2.7.7 1.1 1.5 1.1.4 0 .8-.1 1-.2l-.1-1zm-2.7-.9c-.8.6-1.6 1-2.6 1s-1.7-.6-1.7-1.6c0-1.2.7-1.8 2-1.8h2.2v2.4zm5.8-7.8l.1 1.2c1.1-.8 2.4-1.4 3.6-1.4 1.7 0 2.6.9 2.6 2.7v7.3h-1.3v-6.9c0-1.1-.5-1.8-1.7-1.8-.9 0-2.1.4-3.1 1.2v7.5h-1.3v-9.8h1.1zm10.1 14.1l1.8-4.4h-.3l-3.6-9.7h1.4l3 8.4 3.2-8.4h1.4l-5.5 14.1h-1.4zM53.7 54.8v1.5h.8c.5 0 .8-.2.8-.7v-.1c0-.4-.3-.7-.8-.7h-.8zm2.1.8c0 .6-.4.9-.9 1l.9 1.4h-.5l-.8-1.4h-.7V58h-.5v-3.6h1.3c.7 0 1.3.4 1.3 1v.2zm-1.3 3.5c1.6 0 2.9-1.3 2.9-2.9 0-1.6-1.3-2.9-2.9-2.9-1.6 0-2.9 1.3-2.9 2.9 0 1.6 1.3 2.9 2.9 2.9m0-6.3c1.9 0 3.4 1.5 3.4 3.4s-1.5 3.4-3.4 3.4-3.4-1.5-3.4-3.4 1.5-3.4 3.4-3.4"></path>
  <path fill="none" stroke="#000" stroke-width=".297" stroke-miterlimit="10" d="M298.5 5v34.2"></path>
</svg>
