<?xml version="1.0" encoding="utf-8"?>
<!-- Generator: Adobe Illustrator 27.7.0, SVG Export Plug-In . SVG Version: 6.00 Build 0)  -->
<svg version="1.1" id="Laag_1" xmlns="http://www.w3.org/2000/svg" xmlns:xlink="http://www.w3.org/1999/xlink" x="0px" y="0px"
	 viewBox="0 0 495.9 100.9" style="enable-background:new 0 0 495.9 100.9;" xml:space="preserve">
<style type="text/css">
	.st0{fill-rule:evenodd;clip-rule:evenodd;fill:#FFFFFF;}
	.st1{fill:#FFFFFF;}
</style>
<g>
	<path class="st0" d="M492.1,41.6c-1-0.7-2.3-1-3.6-1l0,0h-76.8c2,2.3,3.1,5.3,3.1,8.9v20h81.1v-20
		C495.9,45.8,494.4,43.2,492.1,41.6z M438.4,60.4h-1.2l-0.5-1.8c-1,1.3-2.7,2.2-4.7,2.2c-2.4,0-3.6-0.9-4.3-1.6
		c-2.2-2-2.2-4.5-2.2-6c0-3.4,2.1-7.3,6.7-7.3c2.6,0,5.6,1.5,6,4.7h-1.9c-0.6-2.5-2.7-3-4.2-3c-2.5,0-4.6,2-4.6,5.7
		c0,2.9,0.9,5.8,4.7,5.8c0.7,0,1.9-0.1,2.9-0.9c1.2-1,1.6-2.2,1.6-3.8h-4.4v-1.6h6.2L438.4,60.4L438.4,60.4z M446.4,51.7h-0.7
		c-1.6,0-2.6,1.3-2.6,2.8v6h-1.7V50.1h1.6v1.7l0,0c0.7-1.2,1.6-2,2.9-2c0.2,0,0.3,0,0.5,0.1V51.7z M451.9,60.7
		c-3.3,0-4.8-2.8-4.8-5.4s1.5-5.4,4.8-5.4s4.8,2.8,4.8,5.4S455.2,60.7,451.9,60.7z M463,59.2c1.6,0,2.6-1.3,2.7-2h1.7
		c-0.1,0.5-0.5,2-1.8,2.8c-0.5,0.3-1.1,0.7-2.8,0.7c-2.9,0-4.6-2.2-4.6-5.2c0-3.2,1.5-5.7,4.9-5.7c3,0,4.4,2.4,4.4,6H460
		C460,58,461,59.2,463,59.2z M474,60.7c-1.4,0-2.3-0.6-2.7-1.4l0,0v5.2h-1.7V50.1h1.6v1.5l0,0c0.4-0.6,1.2-1.8,3.1-1.8
		c2.7,0,4.3,2.2,4.3,5.1C478.5,57.4,477.5,60.7,474,60.7z"/>
	<path class="st0" d="M473.9,51.4c-2.5,0-2.8,2.7-2.8,4.4c0,2.7,1.7,3.5,2.8,3.5c1.9,0,2.8-1.7,2.8-4
		C476.7,53.9,476.6,51.4,473.9,51.4z"/>
	<path class="st0" d="M462.9,51.4c-1.6,0-2.9,1.5-2.9,3.1h5.7C465.6,52.8,465,51.4,462.9,51.4z"/>
	<ellipse class="st0" cx="451.9" cy="55.2" rx="3" ry="3.9"/>
</g>
<g>
	<path class="st1" d="M190.5,30.5h7.6v38.9H190l-15.9-27.8H174v27.8h-7.6V30.5h8.6l15.4,27.1h0.1V30.5z"/>
	<path class="st1" d="M230.1,61c-2,6.9-7.8,9.2-12.7,9.2c-8.1,0-14.4-3.9-14.4-15.8c0-3.5,1.2-14.6,13.8-14.6
		c5.7,0,13.6,2.7,13.6,15.9v1.4h-19.8c0.2,2.2,0.7,7,6.8,7c2.1,0,4.3-1.1,4.9-3.1H230.1z M222.6,52.1c-0.4-4.7-3.4-6.1-5.9-6.1
		c-3.6,0-5.5,2.3-5.9,6.1H222.6z"/>
	<path class="st1" d="M244,40.6h4.7V46H244v15.7c0,1.7,0.1,2.3,3.1,2.3c0.5,0,1-0.1,1.6-0.1v5.7c-1.2,0.1-2.4,0.1-3.6,0.1h-1
		c-6.6,0-7.8-2.5-7.8-6.2V46h-3.9v-5.4h3.9v-7.8h7.6L244,40.6L244,40.6z"/>
	<path class="st1" d="M262.6,40.6h4.7V46h-4.7v15.7c0,1.7,0.1,2.3,3.1,2.3c0.5,0,1-0.1,1.6-0.1v5.7c-1.2,0.1-2.4,0.1-3.6,0.1h-1
		c-6.6,0-7.8-2.5-7.8-6.2V46H251v-5.4h3.9v-7.8h7.6L262.6,40.6L262.6,40.6z"/>
	<path class="st1" d="M297.2,61c-2,6.9-7.8,9.2-12.7,9.2c-8.1,0-14.4-3.9-14.4-15.8c0-3.5,1.2-14.6,13.8-14.6
		c5.7,0,13.6,2.7,13.6,15.9v1.4h-19.8c0.2,2.2,0.7,7,6.8,7c2.1,0,4.3-1.1,4.9-3.1H297.2z M289.7,52.1c-0.4-4.7-3.4-6.1-5.9-6.1
		c-3.6,0-5.5,2.3-5.9,6.1H289.7z"/>
	<path class="st1" d="M300.4,40.6h7.3v5h0.1c1.6-2.9,3.3-5.7,7.9-5.7c0.5,0,1,0.1,1.5,0.1v7.7c-0.7-0.1-1.5-0.1-2.2-0.1
		c-5.9,0-7,3.7-7,6.9v15h-7.6V40.6z"/>
	<path class="st1" d="M346.8,69.4h-7.4v-3.6h-0.1c-1.8,3.3-5.2,4.4-8.4,4.4c-8.6,0-12.1-7.6-12.1-15.5c0-10,5.6-14.9,12-14.9
		c4.9,0,7.2,2.7,8.4,4.5h0.1V30.5h7.6v38.9H346.8z M332.8,64c4.8,0,6.7-4,6.7-8.3c0-4.6-1.3-9.3-6.5-9.3c-4.8,0-6.5,4.3-6.5,8.8
		C326.6,58.6,327.9,64,332.8,64z"/>
	<path class="st1" d="M377.3,61c-2,6.9-7.8,9.2-12.7,9.2c-8.1,0-14.4-3.9-14.4-15.8c0-3.5,1.2-14.6,13.8-14.6
		c5.7,0,13.6,2.7,13.6,15.9v1.4h-19.8c0.2,2.2,0.7,7,6.8,7c2.1,0,4.3-1.1,4.9-3.1H377.3z M369.8,52.1c-0.4-4.7-3.4-6.1-5.9-6.1
		c-3.6,0-5.5,2.3-5.9,6.1H369.8z"/>
	<path class="st1" d="M407.6,69.4H400V51.9c0-2.1-0.1-5.7-4.9-5.7c-3.4,0-6,2.3-6,6.7v16.5h-7.6V40.6h7.3v4.2h0.1c1-1.7,3.2-5,8.7-5
		c5.6,0,10,3.3,10,9.7V69.4z"/>
</g>
<g>
	<g>
		<path class="st1" d="M407.6,69.4H400V51.9c0-2.1-0.1-5.7-4.9-5.7c-3.4,0-6,2.3-6,6.7v16.5h-7.6V40.6h7.3v4.2h0.1
			c1-1.7,3.2-5,8.7-5c5.6,0,10,3.3,10,9.7V69.4z"/>
	</g>
</g>
<g>
	<path class="st1" d="M176.9,89.3h-10.1v-1.5l7.9-9.9h-7.3v-1.5h9.5v1.5l-7.9,9.8h7.9V89.3z"/>
	<path class="st1" d="M178.5,82.8c0.1-2.2,1.6-3.1,3.9-3.1c0.8,0,3.5,0.2,3.5,2.6v5.4c0,0.4,0.2,0.6,0.5,0.6c0.1,0,0.3,0,0.5-0.1
		v1.1c-0.3,0.1-0.5,0.2-0.9,0.2c-1.4,0-1.6-0.7-1.7-1.4c-0.6,0.7-1.6,1.5-3.4,1.5c-1.7,0-2.9-1.1-2.9-2.7c0-0.8,0.2-2.6,2.8-2.9
		l2.6-0.3c0.4,0,0.8-0.2,0.8-1.1c0-1-0.7-1.5-2.2-1.5c-1.8,0-2,1.1-2.1,1.8L178.5,82.8L178.5,82.8z M184.2,84.5
		c-0.3,0.2-0.6,0.3-2.6,0.6c-0.8,0.1-2,0.3-2,1.5c0,1,0.5,1.6,1.7,1.6c1.5,0,2.9-0.9,2.9-2.2L184.2,84.5L184.2,84.5z"/>
	<path class="st1" d="M196.1,89.3h-1.6v-5.8c0-1.6-0.5-2.5-2-2.5c-0.9,0-2.5,0.6-2.5,3.1v5.1h-1.6v-9.4h1.5v1.3l0,0
		c0.3-0.5,1.2-1.6,2.8-1.6c1.5,0,3.3,0.6,3.3,3.3v6.5H196.1z"/>
	<path class="st1" d="M206.2,89.3h-1.5V88l0,0c-0.7,1.3-1.8,1.6-2.7,1.6c-3.2,0-4.1-3-4.1-5.2c0-2.6,1.4-4.7,3.9-4.7
		c1.7,0,2.4,1.1,2.8,1.6v-0.1v-4.8h1.6V89.3z M202,88.2c1,0,2.6-0.7,2.6-3.2c0-1.5-0.3-4-2.5-4c-2.4,0-2.6,2.3-2.6,3.5
		C199.5,86.6,200.3,88.2,202,88.2z"/>
	<path class="st1" d="M221.3,86.3c-0.1,0.4-0.5,1.8-1.7,2.6c-0.4,0.3-1,0.6-2.5,0.6c-2.6,0-4.2-2-4.2-4.7c0-2.9,1.4-5.2,4.5-5.2
		c2.7,0,4,2.2,4,5.5h-6.8c0,2,0.9,3.1,2.7,3.1c1.5,0,2.4-1.1,2.4-1.8L221.3,86.3L221.3,86.3z M219.8,83.9c-0.1-1.5-0.7-2.8-2.6-2.8
		c-1.5,0-2.6,1.3-2.6,2.8H219.8z"/>
	<path class="st1" d="M230.9,89.3h-1.5v-5.8c0-1.6-0.5-2.5-2-2.5c-0.9,0-2.5,0.6-2.5,3.1v5.1h-1.6v-9.4h1.5v1.3l0,0
		c0.3-0.5,1.2-1.6,2.8-1.6c1.5,0,3.3,0.6,3.3,3.3V89.3z"/>
	<path class="st1" d="M244,82.4h5.6v6.9h-1.1l-0.4-1.7c-0.9,1.2-2.5,2-4.2,2c-2.2,0-3.3-0.8-3.9-1.5c-2-1.9-2-4.1-2-5.4
		c0-3.1,1.9-6.7,6.1-6.7c2.4,0,5.1,1.4,5.4,4.2h-1.7c-0.6-2.2-2.4-2.7-3.9-2.7c-2.3,0-4.2,1.8-4.2,5.2c0,2.6,0.9,5.3,4.3,5.3
		c0.6,0,1.7-0.1,2.6-0.8c1.1-0.9,1.4-2,1.4-3.4h-4L244,82.4L244,82.4z"/>
	<path class="st1" d="M254,89.3h-1.6v-9.4h1.5v1.6l0,0c0.6-1.1,1.5-1.8,2.6-1.8c0.2,0,0.3,0,0.4,0.1v1.6h-0.5
		c-1.5,0-2.4,1.1-2.4,2.5V89.3z"/>
	<path class="st1" d="M258.4,78.2v-1.8h1.6v1.8H258.4z M260,89.3h-1.6v-9.4h1.6V89.3z"/>
	<path class="st1" d="M270,89.3h-1.6v-5.8c0-1.6-0.5-2.5-2-2.5c-0.9,0-2.5,0.6-2.5,3.1v5.1h-1.5v-9.4h1.5v1.3l0,0
		c0.3-0.5,1.2-1.6,2.8-1.6c1.5,0,3.3,0.6,3.3,3.3V89.3L270,89.3z"/>
	<path class="st1" d="M280.1,89.3h-1.5V88l0,0c-0.7,1.3-1.8,1.6-2.7,1.6c-3.2,0-4.1-3-4.1-5.2c0-2.6,1.4-4.7,3.9-4.7
		c1.7,0,2.4,1.1,2.8,1.6v-0.1v-4.8h1.6L280.1,89.3L280.1,89.3z M276,88.2c1,0,2.6-0.7,2.6-3.2c0-1.5-0.3-4-2.5-4
		c-2.4,0-2.6,2.3-2.6,3.5C273.4,86.6,274.2,88.2,276,88.2z"/>
	<path class="st1" d="M287.8,76.1h1.3v13.5h-1.3V76.1z"/>
	<path class="st1" d="M300.5,89.3h-1.8l-3.3-12.9h1.9l2.4,10.5l0,0l2.9-10.5h1.9l2.9,10.5l0,0l2.4-10.5h1.9l-3.4,12.9h-1.9
		l-2.9-10.7l0,0L300.5,89.3z"/>
	<path class="st1" d="M312.8,78.2v-1.8h1.6v1.8H312.8z M314.3,89.3h-1.6v-9.4h1.6V89.3z"/>
	<path class="st1" d="M324.3,89.3h-1.6v-5.8c0-1.6-0.5-2.5-2-2.5c-0.9,0-2.5,0.6-2.5,3.1v5.1h-1.6v-9.4h1.5v1.3l0,0
		c0.3-0.5,1.2-1.6,2.8-1.6c1.5,0,3.3,0.6,3.3,3.3v6.5H324.3z"/>
	<path class="st1" d="M334.3,89.3h-1.6v-5.8c0-1.6-0.5-2.5-2-2.5c-0.9,0-2.5,0.6-2.5,3.1v5.1h-1.6v-9.4h1.5v1.3l0,0
		c0.3-0.5,1.2-1.6,2.8-1.6c1.5,0,3.3,0.6,3.3,3.3v6.5H334.3z"/>
	<path class="st1" d="M336.7,78.2v-1.8h1.6v1.8H336.7z M338.2,89.3h-1.6v-9.4h1.6V89.3z"/>
	<path class="st1" d="M348.2,89.3h-1.6v-5.8c0-1.6-0.5-2.5-2-2.5c-0.9,0-2.5,0.6-2.5,3.1v5.1h-1.6v-9.4h1.5v1.3l0,0
		c0.3-0.5,1.2-1.6,2.8-1.6c1.5,0,3.3,0.6,3.3,3.3v6.5H348.2z"/>
	<path class="st1" d="M358.3,88.5c0,1.3,0,4.7-4.4,4.7c-1.1,0-3.3-0.3-3.6-2.8h1.6c0.3,1.5,1.7,1.5,2.1,1.5c2.7,0,2.7-2.2,2.7-3.3
		v-0.4l0,0v0.1c-0.4,0.7-1.2,1.3-2.5,1.3c-3.2,0-4.1-3-4.1-5.2c0-2.6,1.4-4.7,3.9-4.7c1.7,0,2.4,1.1,2.8,1.6l0,0V80h1.5V88.5z
		 M354.3,88.2c1,0,2.6-0.7,2.6-3.2c0-1.5-0.3-4-2.5-4c-2.4,0-2.6,2.3-2.6,3.5C351.7,86.6,352.5,88.2,354.3,88.2z"/>
	<path class="st1" d="M373.4,86.3c-0.1,0.4-0.5,1.8-1.7,2.6c-0.4,0.3-1,0.6-2.5,0.6c-2.6,0-4.2-2-4.2-4.7c0-2.9,1.4-5.2,4.5-5.2
		c2.7,0,4,2.2,4,5.5h-6.8c0,2,0.9,3.1,2.7,3.1c1.5,0,2.4-1.1,2.4-1.8L373.4,86.3L373.4,86.3z M371.9,83.9c-0.1-1.5-0.7-2.8-2.6-2.8
		c-1.5,0-2.6,1.3-2.6,2.8H371.9z"/>
	<path class="st1" d="M383.1,89.3h-1.6v-5.8c0-1.6-0.5-2.5-2-2.5c-0.9,0-2.5,0.6-2.5,3.1v5.1h-1.6v-9.4h1.5v1.3l0,0
		c0.3-0.5,1.2-1.6,2.8-1.6c1.5,0,3.3,0.6,3.3,3.3v6.5H383.1z"/>
	<path class="st1" d="M398,76.4h2l-4.7,12.9h-1.9l-4.7-12.9h1.9l3.7,11l0,0L398,76.4z"/>
	<path class="st1" d="M407.9,86.3c-0.1,0.4-0.5,1.8-1.7,2.6c-0.4,0.3-1,0.6-2.5,0.6c-2.6,0-4.2-2-4.2-4.7c0-2.9,1.4-5.2,4.5-5.2
		c2.7,0,4,2.2,4,5.5h-6.8c0,2,0.9,3.1,2.7,3.1c1.5,0,2.4-1.1,2.4-1.8L407.9,86.3L407.9,86.3z M406.4,83.9c-0.1-1.5-0.7-2.8-2.6-2.8
		c-1.5,0-2.6,1.3-2.6,2.8H406.4z"/>
	<path class="st1" d="M411.7,89.3h-1.6v-9.4h1.5v1.6l0,0c0.6-1.1,1.5-1.8,2.6-1.8c0.2,0,0.3,0,0.4,0.1v1.6H414
		c-1.5,0-2.4,1.1-2.4,2.5v5.4H411.7z"/>
	<path class="st1" d="M424,89.3h-2l-2.9-4.7l-1.3,1.2v3.5h-1.5V76.4h1.5v7.5l4-4h2l-3.6,3.5L424,89.3z"/>
	<path class="st1" d="M428.6,79.6c3,0,4.4,2.5,4.4,4.9s-1.4,4.9-4.4,4.9s-4.4-2.5-4.4-4.9C424.2,82.2,425.6,79.6,428.6,79.6z
		 M428.6,88.2c2.3,0,2.7-2.3,2.7-3.6s-0.5-3.6-2.7-3.6c-2.3,0-2.7,2.3-2.7,3.6S426.3,88.2,428.6,88.2z"/>
	<path class="st1" d="M438.5,79.6c3,0,4.4,2.5,4.4,4.9s-1.4,4.9-4.4,4.9s-4.4-2.5-4.4-4.9C434.2,82.2,435.6,79.6,438.5,79.6z
		 M438.5,88.2c2.3,0,2.7-2.3,2.7-3.6s-0.5-3.6-2.7-3.6c-2.3,0-2.7,2.3-2.7,3.6S436.3,88.2,438.5,88.2z"/>
	<path class="st1" d="M444.6,79.9h1.5v1.3l0,0c0.4-0.5,1.1-1.6,2.8-1.6c2.5,0,3.9,2,3.9,4.7c0,2.2-0.9,5.2-4.1,5.2
		c-1.3,0-2.1-0.6-2.5-1.3l0,0v4.7h-1.6L444.6,79.9L444.6,79.9z M448.6,88.2c1.7,0,2.5-1.6,2.5-3.6c0-1.2-0.1-3.5-2.6-3.5
		c-2.3,0-2.5,2.5-2.5,4C446.1,87.5,447.6,88.2,448.6,88.2z"/>
</g>
<path class="st0" d="M100.3,32.1"/>
<path class="st1" d="M121.4,2c-3.8-1.3-7.9-2-12.5-2c-9,0-15.4,2.9-19.7,6.4V2.1h-4.5h-20h-4.5v4.5v49.3c0,0,1.8-1.1,4.5-2.7V6.5h20
	v11.6H85c2.8-4.8,8.8-13.7,23.9-13.7c15.5,0,27.6,9.1,27.6,26.6v47.2h-20.9V37.7c0-5.8-0.3-15.7-13.6-15.7
	c-9.3,0-16.4,6.3-16.4,18.4v0.2c2.8-1.7,4.6-2.8,4.6-2.8c9.5-5.6,9.8-7,20.9,0.3v40.2v4.5l0,0l0,0l11.9,6.7h23.5V42.2
	C146.6,26.1,135.3,5.3,121.4,2z"/>
<path class="st1" d="M101.8,45.4l5,2.9v-5.2l-2.8-1.6c-2.3-1.4-5.2-1.3-7.5,0.1L0,100.9h8.5l90.3-55.4
	C99.8,44.9,100.9,44.9,101.8,45.4z"/>
<path class="st1" d="M101.8,59.8l5,2.9v-5.2l-2.8-1.6c-2.3-1.4-5.2-1.3-7.5,0.1l-73.1,44.8h8.5l66.8-41
	C99.8,59.3,100.9,59.3,101.8,59.8z"/>
<path class="st1" d="M106.9,72l-2.8-1.6c-2.3-1.4-5.2-1.3-7.5,0.1L47,100.9h8.5l43.4-26.6c0.9-0.5,2-0.6,2.9,0l5,2.9V72H106.9z"/>
</svg>
