<svg xmlns="http://www.w3.org/2000/svg" width="121.913" height="57.001" viewBox="0 0 121.913 57.001">
  <g id="Group_78927" data-name="Group 78927" transform="translate(-276.819 -36.14)">
    <g id="Group_8" data-name="Group 8" transform="translate(276.819 48.806)">
      <path id="Path_6" data-name="Path 6" d="M324.561,85.386h10.072v.443h-9.441v7.124h10.838L336,93.43h-10.8v15.132h9.816v.579l-12.781-.034-.035-23.721Z" transform="translate(-293.358 -66.757)" fill="#7973b5"/>
      <g id="Group_7" data-name="Group 7">
        <path id="Path_7" data-name="Path 7" d="M397.3,85.86v2.372q0,1.144.035,2.236t.033,2.15v2.765q0,1.775-.119,3.6t-.426,3.84a8.812,8.812,0,0,1-2.131,3.857,7.125,7.125,0,0,1-3.765,2.253,11.465,11.465,0,0,1-1.244.2,11.986,11.986,0,0,1-1.278.068,10.466,10.466,0,0,1-2.9-.409,8.957,8.957,0,0,1-2.625-1.227A7.21,7.21,0,0,1,379.866,103a32.634,32.634,0,0,1-.562-5.768q-.069-1.365-.068-2.8V91.219q.033-.648.034-1.3V87.635c0-.341-.006-.677-.017-1.007s-.029-.655-.052-.973c.138.023.285.046.444.068s.33.046.512.068h.478c.226,0,.443-.005.647-.017a4.775,4.775,0,0,0,.51-.051,4.123,4.123,0,0,0,.512-.034q-.035,1.366-.034,3.073V99.07q.032,1.366.034,3a6.665,6.665,0,0,0,1.142,3.857,6.241,6.241,0,0,0,3.118,2.389,6.788,6.788,0,0,0,1.278.358,7.414,7.414,0,0,0,1.312.119,8.551,8.551,0,0,0,2.454-.426,5.8,5.8,0,0,0,2.045-1.144,7.017,7.017,0,0,0,2.471-3.7,20.917,20.917,0,0,0,.7-4.557q.033-.581.033-1.16V96.645l.069-10.922Z" transform="translate(-314.138 -66.855)" fill="#7973b5"/>
        <path id="Path_8" data-name="Path 8" d="M426.083,86.093h-6.1l.035,23.107-3.2-.034V86.093h-6.237v-.546h15.507Z" transform="translate(-325.574 -66.815)" fill="#7973b5"/>
        <path id="Path_9" data-name="Path 9" d="M449.69,102.3l-.034,6.782h-2.9V103.49l-8.725-17.621h3.273l8.042,15.644,7.636-15.575h.51Z" transform="translate(-335.582 -66.933)" fill="#7973b5"/>
        <path id="Path_10" data-name="Path 10" d="M297.535,60.026a14.873,14.873,0,0,1,1.918,2.738,16.911,16.911,0,0,1,.486,1.978,11.348,11.348,0,0,1,.183,2.039,11.067,11.067,0,0,1-.456,3.134,8.029,8.029,0,0,1-1.43,2.769q.426.305.882.669t.943.73a25.245,25.245,0,0,1,2.465,2.586,10.827,10.827,0,0,1,1.795,3.013q.183.608.335,1.247a9.779,9.779,0,0,1,.212,1.247,8.457,8.457,0,0,1,.153,1.247c.02.426.03.843.03,1.247a14.359,14.359,0,0,1-.942,5.111,10.546,10.546,0,0,1-3.073,4.321,16.824,16.824,0,0,1-8.457,3.559,81.991,81.991,0,0,1-9.859.7h-3.986q-.883,0-1.734.061V92.641q0-3.65.031-8.884t.031-10.77q-.062-4.5-.061-8.793t-.06-7.759q1.337-.121,2.677-.182l2.678-.122q.668-.06,1.338-.06h1.34a40.375,40.375,0,0,1,5.233.334,19.488,19.488,0,0,1,4.808,1.247,18.867,18.867,0,0,1,2.524,2.373m-3.8-1.886a18.735,18.735,0,0,0-6.876-1.156q-1.157,0-2.313.092t-2.251.213l-.062,40.1H284a60.892,60.892,0,0,0,6.632-.334q3.043-.334,5.963-.944a12.471,12.471,0,0,0,4.96-3.681,10.1,10.1,0,0,0,2.4-5.507,4.99,4.99,0,0,0,.182-.7,3.889,3.889,0,0,0,.061-.7,4.378,4.378,0,0,0,.061-.7v-.7a12.094,12.094,0,0,0-1.187-5.2,11.464,11.464,0,0,0-3.377-4.23,2.927,2.927,0,0,0-.973-.76,2.3,2.3,0,0,0-.913-.213,1.74,1.74,0,0,0-.791.182l-.73.365c-.163.121-.316.234-.456.334a3.516,3.516,0,0,1-.456.274,8.694,8.694,0,0,1-1.28.852,3.006,3.006,0,0,1-1.46.365h-.121a.171.171,0,0,1-.122-.061h-.243a4.362,4.362,0,0,1-.73.061h-.669a6.309,6.309,0,0,1-2.221-.4,4.525,4.525,0,0,1-1.916-1.43,2.251,2.251,0,0,0-.123-.214.367.367,0,0,1-.06-.213.244.244,0,0,1-.061-.182v-.182a1.623,1.623,0,0,1,.456-.913,3.566,3.566,0,0,1,.822-.67l.091-.09a.124.124,0,0,1,.091-.031,5.259,5.259,0,0,1,1.612-.67,7.443,7.443,0,0,1,1.613-.182,5.237,5.237,0,0,1,.578.031,4.532,4.532,0,0,0,.517.03q.791.123,1.582.3c.526.122,1.055.264,1.582.427q.547.121,1.1.273t1.034.274a6.9,6.9,0,0,0,1.521-2.495,8.659,8.659,0,0,0,.487-2.86v-.487a2.838,2.838,0,0,0-.062-.548,8.1,8.1,0,0,0-.274-1.491,10.047,10.047,0,0,0-.517-1.429,8.465,8.465,0,0,0-4.868-4.808m2.616,14.787q-.73-.3-1.4-.548a5.4,5.4,0,0,0-1.338-.3,4.32,4.32,0,0,0-.852-.152c-.285-.02-.588-.031-.912-.031a13.229,13.229,0,0,0-1.521.092q-.793.092-1.643.274a1.88,1.88,0,0,0-.882.517,1.027,1.027,0,0,0-.336.883v.152a.2.2,0,0,0,.062.153,1.038,1.038,0,0,0,.182.334,1.326,1.326,0,0,0,.3.274,10.251,10.251,0,0,0,1.339.426,9.052,9.052,0,0,0,1.46.244,1.168,1.168,0,0,0,.365.06h.851a9.147,9.147,0,0,0,2.343-.548,5.528,5.528,0,0,0,1.978-1.277Z" transform="translate(-276.862 -56.071)" fill="#7973b5"/>
        <rect id="Rectangle_2" data-name="Rectangle 2" width="121.912" height="0.653" transform="translate(0 43.681)" fill="#7973b5"/>
        <path id="Path_11" data-name="Path 11" d="M350.416,100.825l-3.613,8.282h-.477l9.952-23.722,10.394,23.722H363.4l-3.579-8.282-.205-.477-4.532-10.668-4.5,10.668" transform="translate(-302.155 -66.757)" fill="#7973b5"/>
        <path id="Path_12" data-name="Path 12" d="M360.66,107.566a1.9,1.9,0,1,1-1.9-1.9,1.895,1.895,0,0,1,1.9,1.9" transform="translate(-305.998 -74.15)" fill="#7973b5"/>
      </g>
    </g>
    <path id="Path_13" data-name="Path 13" d="M350.518,50.256a14.114,14.114,0,1,0-28.228,0V64.368H336.4A14.113,14.113,0,0,0,350.518,50.256Zm-13.04-1.12H338.5v5.71a1.8,1.8,0,1,0,3.6,0v-5.71h1.026v5.71a1.8,1.8,0,1,0,3.6,0v-5.71h1.014v5.71a2.8,2.8,0,0,1-2.825,2.813,2.658,2.658,0,0,1-2.306-1.28,2.626,2.626,0,0,1-2.306,1.28,2.8,2.8,0,0,1-2.824-2.813Zm-7.1,8.378h-1.026v-5.65a1.932,1.932,0,1,0-3.863,0v5.65h-1.026v-5.65a2.958,2.958,0,0,1,5.915,0Zm.7-2.511V51.646a2.321,2.321,0,0,1,2.511-2.511h2.97v.978h-2.97a1.358,1.358,0,0,0-1.485,1.533v1.195h3.924v.954h-3.924V55a1.354,1.354,0,0,0,1.485,1.521h2.97v.99h-2.97A2.328,2.328,0,0,1,331.08,55Z" transform="translate(-16.575)" fill="#7973b5"/>
  </g>
</svg>
