<svg xmlns="http://www.w3.org/2000/svg" width="381" height="76"><g fill="none" fill-rule="evenodd"><path fill="#004C81" d="M101.24 49.185L111.964.843h9.641l11.709 32.942h.133L140.754.843h8.705l-10.722 48.342h-8.906l-12.12-34.415h-.133l-7.634 34.415h-8.704m60.956-16.077c.694-3.571-.73-5.654-3.705-5.654-2.978 0-5.325 2.083-6.215 5.654h9.92zm-10.845 4.168c-1.089 5.357.831 7.442 3.707 7.442 2.877 0 4.503-1.292 6.437-3.078l3.847 2.779c-3.195 3.67-7.02 5.257-11.979 5.257-6.697 0-9.758-5.207-7.944-13.393 1.819-8.184 7.189-13.391 14.183-13.391 6.757-.051 9.261 5.655 7.885 11.855l-.561 2.529h-15.575zm20.042-13.888h5.856l-.045 16.071h.1l7.283-16.071h5.707l.006 16.071h.1l7.233-16.071h5.853l-12.367 25.793h-5.556l-.253-16.073h-.1l-7.335 16.073h-5.556l-.926-25.793m46.801 6.794c-.944-1.338-2.269-2.728-4.206-2.728-2.38 0-3.691.993-4.034 2.53-.979 4.415 12.338 2.531 10.247 11.954-1.188 5.358-5.787 7.738-11.193 7.738-4.115 0-7.08-1.834-8.613-5.207l4.798-3.075c.998 1.982 2.547 3.721 5.176 3.721 2.183 0 3.936-1.194 4.32-2.929.978-4.413-12.27-2.828-10.278-11.805 1.066-4.812 5.728-7.489 10.193-7.489 3.423 0 6.557 1.289 8.208 3.919l-4.618 3.371m19.216-2.332c-3.426 0-5.656 2.681-6.932 8.433-1.277 5.755-.235 8.435 3.19 8.435 3.424 0 5.652-2.68 6.929-8.435 1.278-5.752.234-8.433-3.187-8.433zm1.097-4.958c6.996 0 10.057 5.207 8.241 13.391-1.816 8.186-7.188 13.393-14.18 13.393-6.991 0-10.055-5.207-8.238-13.393 1.813-8.184 7.186-13.391 14.177-13.391zm8.749 26.289l5.724-25.793h5.654l-.616 2.776c2.633-1.585 5.639-3.272 8.662-3.272 5.159 0 6.888 3.372 5.726 8.63l-3.918 17.659h-6.149l3.718-16.767c.768-3.471-.08-4.564-2.165-4.564-2.678 0-5.051 1.54-6.357 2.73l-4.127 18.601h-6.152M312.5 14.934c-1.138-4.83-3.377-6.844-8.207-6.844-6.842 0-11.713 6.844-14.095 17.576-2.261 10.196.137 16.634 6.577 16.634 6.035 0 10.818-4.024 12.254-9.592h-9.19l1.727-7.78h18.111l-5.43 24.481h-6.71l1.102-4.962c-4.841 4.294-8.762 5.635-13.858 5.635-13.152 0-16.934-10.463-13.897-24.149C283.62 13.592 291.262.311 306.755.311c9.661 0 14.133 5.232 14.838 12.342l-9.093 2.281m23.242 21.892c-4.291.793-8.987 1.636-9.792 5.255-.429 1.932.571 3.024 2.304 3.024 1.932 0 4.726-1.637 6.255-2.727l1.233-5.552zm-2.094 12.343l.098-2.23c-2.851 1.684-5.414 2.726-8.636 2.726-4.659 0-6.252-3.321-5.469-6.841 1.295-5.849 6.735-8.922 17.012-10.112l.485-2.182c.439-1.983-.904-3.073-3.087-3.073-2.874 0-4.8 1.537-6.355 3.173l-3.293-3.023c2.192-2.726 6.914-4.809 10.659-4.71 6.908.149 9.32 2.677 7.607 10.41l-2.693 12.144c-.289 1.29-.474 2.577-.33 3.718h-5.998zm10.802 0l7.937-35.788h6.147l-7.937 35.788h-6.147M87.234.835H15.835L.006 72.233h71.399L87.234.835zm-6.296 5.053L67.349 67.18H6.303L19.891 5.888h61.047z"></path><path fill="#791127" d="M38.629 7.914l22.73 29.207H41.888l24.254 28.502-41.54-36.052h18.875L22.449 7.914h16.18"></path><path fill="#004C81" d="M96.104 72.197l2.825-12.776h2.442l-1.127 5.096h4.919l1.127-5.096h2.442l-2.825 12.776h-2.442l1.213-5.485h-4.92l-1.212 5.485h-2.442m19.727-10.9c-1.999 0-3.256 1.522-3.918 4.513-.696 2.991-.095 4.512 1.922 4.512 1.999 0 3.257-1.521 3.918-4.512.662-2.991.077-4.513-1.922-4.513zm-2.45 11.078c-3.486 0-4.833-2.388-3.91-6.565.924-4.177 3.328-6.565 6.814-6.565s4.833 2.388 3.91 6.565c-.924 4.177-3.327 6.565-6.814 6.565zm7.572-.178l2.825-12.776h8.459l-.453 2.053h-6.018l-.673 3.043h4.371l-.453 2.053h-4.371l-.791 3.575h6.212l-.455 2.052h-8.653m14.872-7.184h1.804c1.911 0 2.629-.602 2.894-1.804.267-1.203-.326-1.806-1.67-1.806h-2.23l-.798 3.61zm-4.031 7.184l2.826-12.776h5.096c2.902 0 3.697 1.681 3.25 3.788-.331 1.575-1.41 2.848-3.064 3.291l1.553 5.697h-2.707l-1.256-5.201h-2.105l-1.151 5.201h-2.442zm16.079-7.68h2.442c1.167 0 1.9-.672 2.096-1.557.196-.884-.24-1.557-1.408-1.557h-2.442l-.688 3.114zm-1.261 5.699h2.442c1.416 0 2.177-.636 2.446-1.858.271-1.221-.209-1.858-1.624-1.858h-2.441l-.823 3.716zm-.054-10.795h4.742c2.549 0 4.006.85 3.644 3.132-.295 1.328-1.07 2.354-2.589 2.902 1.513.672 1.911 1.435 1.482 3.38-.438 1.983-2.141 3.362-5.398 3.362h-4.706l2.825-12.776zm9.448 12.776l2.826-12.776h2.442l-2.826 12.776h-2.442m14.555-9.094c-.302-1.275-.893-1.806-2.167-1.806-1.805 0-3.089 1.806-3.715 4.637-.595 2.689.038 4.388 1.737 4.388 1.593 0 2.854-1.062 3.231-2.53h-2.424l.455-2.053h4.776l-1.427 6.458h-1.77l.29-1.309c-1.277 1.133-2.311 1.487-3.655 1.487-3.469 0-4.469-2.761-3.67-6.371.72-3.255 2.732-6.759 6.82-6.759 2.548 0 3.729 1.379 3.916 3.256l-2.397.602m3.185 9.094l2.824-12.776h8.459l-.453 2.053h-6.017l-.673 3.043h4.371l-.454 2.053h-4.371l-.791 3.575h6.212l-.455 2.052h-8.652m14.871-7.184h1.805c1.912 0 2.629-.602 2.895-1.804.266-1.203-.326-1.806-1.672-1.806h-2.229l-.799 3.61zm-4.03 7.184l2.825-12.776h5.096c2.902 0 3.698 1.681 3.251 3.788-.332 1.575-1.409 2.848-3.064 3.291l1.554 5.697h-2.707l-1.257-5.201h-2.105l-1.151 5.201h-2.442zm25.582-9.378c-.151-.991-.765-1.663-1.915-1.663-1.062 0-1.915.424-2.135 1.415-.486 2.195 6.199 1.734 5.283 5.874-.58 2.62-2.515 3.93-5.346 3.93-2.087 0-3.794-1.168-4.109-3.027l2.214-.884c.318 1.203.903 2 2.336 2 1.22 0 2.261-.46 2.534-1.699.556-2.513-6.136-2.017-5.267-5.946.504-2.283 2.7-3.574 4.912-3.574 2.053 0 3.526 1.026 3.876 2.884l-2.383.69m8.025 4.973c-1.531.283-3.207.583-3.493 1.875-.153.691.203 1.08.822 1.08.69 0 1.686-.584 2.232-.972l.439-1.983zm-.743 4.405l.033-.796c-1.018.602-1.931.974-3.081.974-1.664 0-2.233-1.186-1.956-2.441.462-2.089 2.403-3.186 6.071-3.611l.173-.779c.156-.707-.324-1.097-1.102-1.097-1.027 0-1.714.549-2.268 1.133l-1.178-1.08c.783-.973 2.47-1.716 3.806-1.681 2.464.053 3.328.956 2.717 3.716l-.958 4.335c-.102.46-.168.921-.117 1.327h-2.14zm8.485-7.431l-1.642 7.431h-2.195l1.643-7.431h-1.273l.391-1.769h1.256l.25-1.133c.439-1.983 1.376-2.619 3.181-2.619h1.452l-.39 1.769h-.604c-.92 0-1.3.283-1.457.992l-.219.991h1.859l-.393 1.769h-1.859m8.135 1.698c.245-1.273-.263-2.017-1.324-2.017-1.062 0-1.9.744-2.216 2.017h3.54zm-3.87 1.487c-.386 1.911.299 2.655 1.325 2.655 1.027 0 1.606-.461 2.295-1.098l1.373.991c-1.138 1.309-2.503 1.876-4.271 1.876-2.389 0-3.482-1.858-2.836-4.778.644-2.92 2.56-4.778 5.054-4.778 2.412-.018 3.306 2.018 2.817 4.23l-.199.902h-5.558zm8.947-4.954l.674-3.044h2.195l-.673 3.044h1.804l-.389 1.769h-1.807l-1.15 5.202c-.109.496.108.638.656.638.336 0 .713-.107 1.049-.178l-.402 1.805c-.615.07-1.163.142-1.763.142-1.629 0-2.086-.814-1.795-2.124l1.211-5.485h-1.273l.39-1.769h1.273m2.796 10.688c.321.07.586.07.905.07.761 0 1.233-.212 1.61-.726.312-.442.512-.708.594-1.08.075-.335-.015-.725-.04-1.095l-.722-7.857h2.211l.271 5.662h.034l2.827-5.662h2.194l-4.941 9.219c-1.555 2.636-2.491 3.345-4.296 3.345-.531 0-.788-.037-1.046-.071l.399-1.805m22.733-10.866c-.153-.991-.764-1.663-1.915-1.663-1.061 0-1.917.424-2.135 1.415-.486 2.195 6.198 1.734 5.283 5.874-.58 2.62-2.514 3.93-5.345 3.93-2.089 0-3.794-1.168-4.11-3.027l2.213-.884c.318 1.203.903 2 2.337 2 1.22 0 2.261-.46 2.535-1.699.553-2.513-6.137-2.017-5.269-5.946.505-2.283 2.702-3.574 4.914-3.574 2.053 0 3.525 1.026 3.875 2.884l-2.383.69m7.566 1.77c-1.22 0-2.016.955-2.47 3.008-.455 2.052-.082 3.009 1.14 3.009 1.22 0 2.017-.957 2.47-3.009.453-2.053.081-3.008-1.14-3.008zm.392-1.77c2.495 0 3.588 1.858 2.942 4.778-.645 2.92-2.561 4.778-5.057 4.778-2.494 0-3.586-1.858-2.942-4.778.647-2.92 2.562-4.778 5.057-4.778zm3.849 9.378l2.825-12.776h2.196l-2.827 12.776h-2.194m14.437-9.2l-2.036 9.2h-2.015l.218-.99c-.941.566-2.01 1.168-3.09 1.168-1.84 0-2.459-1.204-2.045-3.08l1.395-6.298h2.194l-1.324 5.98c-.274 1.239.03 1.629.772 1.629.957 0 1.804-.549 2.269-.974l1.468-6.635h2.194m2.754 0l.675-3.044h2.194l-.673 3.044h1.804l-.392 1.769h-1.804l-1.15 5.202c-.11.496.106.638.656.638.334 0 .712-.107 1.048-.178l-.4 1.805c-.617.07-1.164.142-1.765.142-1.629 0-2.086-.814-1.797-2.124l1.215-5.485h-1.274l.39-1.769h1.273m6.284-1.7l.453-2.052h2.195l-.455 2.052h-2.193zm-.216 10.9h-2.194l2.034-9.2h2.194l-2.034 9.2zm7.608-7.608c-1.222 0-2.018.955-2.47 3.008-.455 2.052-.082 3.009 1.138 3.009 1.222 0 2.018-.957 2.471-3.009.453-2.053.081-3.008-1.139-3.008zm.39-1.77c2.495 0 3.589 1.858 2.942 4.778-.644 2.92-2.559 4.778-5.056 4.778-2.493 0-3.587-1.858-2.942-4.778.646-2.92 2.562-4.778 5.056-4.778zm3.621 9.378l2.034-9.2h2.017l-.219.99c.939-.566 2.01-1.168 3.089-1.168 1.841 0 2.46 1.204 2.044 3.079l-1.392 6.299h-2.196l1.324-5.98c.274-1.239-.029-1.628-.773-1.628-.955 0-1.803.549-2.267.972l-1.467 6.636h-2.194m15.949-6.777c-.336-.477-.811-.973-1.501-.973-.85 0-1.318.354-1.439.902-.347 1.576 4.403.903 3.659 4.265-.424 1.911-2.062 2.761-3.99 2.761-1.469 0-2.528-.655-3.076-1.858l1.71-1.098c.358.709.911 1.328 1.849 1.328.779 0 1.403-.425 1.54-1.044.35-1.575-4.378-1.008-3.669-4.212.38-1.716 2.042-2.672 3.635-2.672 1.221 0 2.339.46 2.928 1.397l-1.646 1.204m47.26-32.312c.693-3.571-.73-5.654-3.706-5.654-2.977 0-5.324 2.083-6.215 5.654h9.921zm-10.846 4.168c-1.089 5.357.832 7.442 3.708 7.442 2.877 0 4.502-1.292 6.437-3.078l3.846 2.779c-3.194 3.67-7.02 5.257-11.978 5.257-6.697 0-9.758-5.207-7.944-13.393 1.818-8.184 7.188-13.391 14.182-13.391 6.757-.051 9.261 5.655 7.886 11.855l-.562 2.529h-15.575z"></path></g></svg>