<?xml version="1.0" encoding="UTF-8"?>
<svg id="SVGDoc" xmlns="http://www.w3.org/2000/svg" xmlns:xlink="http://www.w3.org/1999/xlink" xmlns:avocode="https://avocode.com/" version="1.1" viewBox="0 0 194 29">
  <defs>
    <style>
      .cls-1 {
        clip-path: url(#clippath);
      }

      .cls-2 {
        fill: none;
      }

      .cls-2, .cls-3 {
        stroke-width: 0px;
      }

      .cls-3 {
        fill: #fff;
      }
    </style>
    <clipPath id="clippath">
      <rect class="cls-2" x="-22.8" y="-21.7" width="236.2" height="73.2"/>
    </clipPath>
  </defs>
  <g class="cls-1">
    <path class="cls-3" d="M182.9,7.9c-5.6,0-10.2,4.7-10.2,10.4s4.6,10.4,10.2,10.4,10.2-4.7,10.2-10.4-4.6-10.4-10.2-10.4M182.9,24.5c-3.4,0-6.1-2.8-6.1-6.2s2.7-6.2,6.1-6.2,6.1,2.8,6.1,6.2-2.7,6.2-6.1,6.2"/>
    <path class="cls-3" d="M175.1,7.8c.2-.2.4-.4.7-.5,2-1.4,4.3-2.1,6.8-2.2.2,0,.4-.2.4-.4V1.3c0-.2-.2-.5-.4-.4-3.2,0-6.3,1.1-9,2.9-.3.2-.7.5-1,.7-.2.2-.2.4,0,.6l2,2.5c.2.2.4.2.6,0h0Z"/>
    <path class="cls-3" d="M170.9,13.1c-1.5-5.9-6.3-10.1-12-10.1h-6.5c-1,0-1.3.3-1.3,1.5,0,2.8.8,5.4,2,7.6-1.3,1.7-2,3.9-2,6.2,0,5.7,4.6,10.4,10.2,10.4s9.2-3.7,10-8.5c.4-2.4.2-4.6-.4-7M161.2,24.5c-3.4,0-6.1-2.8-6.1-6.2s.3-2,.7-2.9c2,1.8,4.6,2.9,7.4,2.9h4.1c0,3.4-2.7,6.2-6.1,6.2h0Z"/>
    <path class="cls-3" d="M10.9,8.1c-2.8,0-4.9,1.5-5.9,4h-.1v-3.5H0v19.5h5v-11.1c0-2.7,1.6-4.5,4-4.5s3.8,1.8,3.8,4.4v11.3h5v-12.3c0-4.5-2.5-7.8-7-7.8h0Z"/>
    <polygon class="cls-3" points="54.7 8.6 50 14.9 45.3 8.6 39.7 8.6 47.1 18.6 40 28.1 45.5 28.1 49.8 22.2 54.2 28.1 59.8 28.1 52.7 18.6 60.1 8.6 54.7 8.6"/>
    <path class="cls-3" d="M68.9,3.4h-5v5.2h-3.1v3.9h3.1v9.4c0,4.3,2.6,6.7,6.4,6.7s2.8-.2,3.9-.6l-.6-4.1c-.6.2-1.3.3-2,.3-1.7,0-2.6-.9-2.6-2.9v-8.8h5.2v-3.9h-5.2V3.4h0Z"/>
    <path class="cls-3" d="M87.9,8.1c-2.5,0-4.7,1.5-5.8,3.4h-.1V.9h-5v27.2h5v-2.9h.1c1,1.9,3.2,3.4,5.8,3.4,5,0,8.7-4.1,8.7-10.3s-3.7-10.3-8.7-10.3M86.8,24.3c-2.8,0-4.9-2.4-4.9-5.9s2.1-5.9,4.9-5.9,4.8,2.4,4.8,5.9-1.9,5.9-4.8,5.9"/>
    <rect class="cls-3" x="99.6" y="8.6" width="5" height="19.5"/>
    <path class="cls-3" d="M102.1,0c-1.8,0-3.2,1.4-3.2,3.1s1.4,3,3.2,3,3.1-1.3,3.1-3-1.4-3.1-3.1-3.1"/>
    <polygon class="cls-3" points="127.5 8.6 122.2 8.6 113.9 18.1 113.9 .9 108.9 .9 108.9 28.1 113.9 28.1 113.9 23 117.2 19.6 121.4 28.1 126.4 28.1 120.5 16.3 127.5 8.6"/>
    <path class="cls-3" d="M146,16.4c-.7-4.8-3.8-8.4-9.4-8.4s-9.5,4.2-9.5,10.3,3.7,10.3,9.5,10.3,7.6-2.2,9-5.1l-3.9-1.8c-1.1,2-2.7,2.8-5,2.8s-3.3-1.1-4.1-2.7l7.2-2.9h0s1.5-.6,1.5-.6l4.7-1.8h0ZM132.9,17.8l-1,.4h0c0-3.3,1.8-6.3,4.8-6.3s3.5,1,4.2,2.7l-7.9,3.1Z"/>
    <path class="cls-3" d="M39.6,16.4c-.7-4.8-3.8-8.4-9.4-8.4s-9.5,4.2-9.5,10.3,3.7,10.3,9.5,10.3,7.6-2.2,9-5.1l-3.9-1.8c-1.1,2-2.7,2.8-5,2.8s-3.3-1.1-4.1-2.7l7.2-2.9h0s1.5-.6,1.5-.6l4.7-1.8h0ZM26.4,17.8l-1,.4h0c0-3.3,1.8-6.3,4.8-6.3s3.5,1,4.2,2.7l-7.9,3.1Z"/>
  </g>
</svg>