<svg viewBox="0 0 275.43 117.72" xmlns="http://www.w3.org/2000/svg"><g fill="#2d4752"><path d="m17.3 90.24a9.11 9.11 0 0 0 -4.26 1 36.35 36.35 0 0 0 -4.39 2.76v22.36h-8.65v-32.24h5.66l1.46 3.46a26 26 0 0 1 6.39-3.33 18.42 18.42 0 0 1 6-1.2q6.12 0 8.59 3.46t2.46 9.65v20.23h-8.56v-19.83a7.71 7.71 0 0 0 -1.23-4.66 4 4 0 0 0 -3.43-1.66"/><path d="m61.59 100.15a10 10 0 0 0 -2.33-6.85 8 8 0 0 0 -11.94.06 10.21 10.21 0 0 0 -2.32 6.93 10 10 0 0 0 2.33 6.85 8 8 0 0 0 11.95-.07 10.21 10.21 0 0 0 2.36-6.92m-8.32 17a19 19 0 0 1 -9.08-2.07 14.42 14.42 0 0 1 -6-5.89 18.05 18.05 0 0 1 -2.24-8.9 18.33 18.33 0 0 1 2.13-9 14.68 14.68 0 0 1 6-6 18.82 18.82 0 0 1 9.08-2.1 19.16 19.16 0 0 1 9.08 2.06 14.57 14.57 0 0 1 6 5.89 18.25 18.25 0 0 1 2.12 9 18.43 18.43 0 0 1 -2.12 9 14.71 14.71 0 0 1 -6 6 18.82 18.82 0 0 1 -9.08 2.1"/><path d="m85.71 84.18h5.86l2.66 6.66h-8.52v13.7a6.7 6.7 0 0 0 1.23 4.2 4.17 4.17 0 0 0 3.5 1.59 8.13 8.13 0 0 0 3.52-.86l2.53 6.25a8.78 8.78 0 0 1 -3 1.4 12.27 12.27 0 0 1 -3.56.6c-4 0-7.18-1-9.45-3.06s-3.39-4.9-3.39-8.59v-15.23h-4.28v-6.66h4.32v-7.65l8.58-1.53z"/><path d="m111.42 102.22a4.53 4.53 0 0 0 -3.42 1.33 4.38 4.38 0 0 0 -1.3 3.19 3.33 3.33 0 0 0 1.16 2.53 4.23 4.23 0 0 0 3 1.06 10 10 0 0 0 7.12-3.19v-4.92zm1.27-11a21.19 21.19 0 0 0 -4.86.63 23.66 23.66 0 0 0 -4.52 1.5l-2.31-7.17a18.34 18.34 0 0 1 5.52-2 27.79 27.79 0 0 1 6-.9 16.12 16.12 0 0 1 7.06 1.53 12.82 12.82 0 0 1 5.12 4.19 10.51 10.51 0 0 1 1.9 6.12v21.23h-5.66l-1.47-3.46q-4.05 4.26-8.51 4.26c-3.86 0-6.77-1-8.72-2.83a10.12 10.12 0 0 1 -2.93-7.62 9.25 9.25 0 0 1 3.33-7.62c2.22-1.8 5.19-2.69 8.92-2.69h6.32a5.43 5.43 0 0 0 -1.43-3.83 5.09 5.09 0 0 0 -3.76-1.36"/><path d="m148.56 92.63a27.81 27.81 0 0 0 -6 4.06v19.7h-8.65v-32.27h4.52l2.86 5.39a27.7 27.7 0 0 1 5.46-3.73 12.06 12.06 0 0 1 5.52-1.66l1.73 6.88a12.87 12.87 0 0 0 -5.42 1.59"/><path d="m166.86 116.39h-8.65v-32.27h8.65zm.53-41.72a4.66 4.66 0 0 1 -1.39 3.46 4.83 4.83 0 0 1 -3.49 1.4 4.63 4.63 0 0 1 -3.4-1.4 5 5 0 0 1 0-6.92 4.63 4.63 0 0 1 3.4-1.4 4.83 4.83 0 0 1 3.49 1.4 4.65 4.65 0 0 1 1.43 3.46"/><path d="m183.77 117.19a23.37 23.37 0 0 1 -5.79-.87 14.8 14.8 0 0 1 -5.39-2.46l2.6-5.86a21.36 21.36 0 0 0 8.45 2.2 9 9 0 0 0 3.66-.73c1.1-.49 1.66-1.18 1.66-2.06 0-1.73-1.89-3.18-5.66-4.33a25.43 25.43 0 0 1 -7.65-3.92 7.39 7.39 0 0 1 -3.06-6.06 8.63 8.63 0 0 1 3.41-7.22q3.41-2.62 9.19-2.63a20.76 20.76 0 0 1 5.52.93 19.83 19.83 0 0 1 5.52 2.46l-2.59 5.79a33 33 0 0 0 -4.49-1.66 15.84 15.84 0 0 0 -4.1-.53 4.46 4.46 0 0 0 -2.76.83 2.44 2.44 0 0 0 -1.1 2c0 .58.44 1.1 1.3 1.57a29.43 29.43 0 0 0 3.76 1.56 25.49 25.49 0 0 1 7.85 4.39 8.25 8.25 0 0 1 3.13 6.52 8.84 8.84 0 0 1 -3.46 7.49q-3.47 2.63-10 2.63"/><path d="m207.57 113.19a3.1 3.1 0 0 1 -.94 2.27 3 3 0 0 1 -2.19.93 3.19 3.19 0 0 1 -3.2-3.2 2.87 2.87 0 0 1 .94-2.16 3.12 3.12 0 0 1 2.26-.9 3 3 0 0 1 2.19.9 2.91 2.91 0 0 1 .94 2.16"/><path d="m238.13 100.35q0-6.25-2.59-9.95t-7.85-3.69a10.68 10.68 0 0 0 -4.73 1 13.54 13.54 0 0 0 -3.79 2.79v19.83a16.08 16.08 0 0 0 3.73 2.53 10.59 10.59 0 0 0 4.65.93 9 9 0 0 0 7.82-3.76 16.48 16.48 0 0 0 2.76-9.68m4.19-.06a21.31 21.31 0 0 1 -1.83 8.71 14 14 0 0 1 -5.12 6.06 14.35 14.35 0 0 1 -8 2.19q-4.26 0-8.71-3.59l-.87 2.73h-2.79v-46.31l4.13-.67v16.9a13.48 13.48 0 0 1 8.45-3.06q7 0 10.85 4.66t3.85 12.38"/><path d="m261.73 86.71a8.86 8.86 0 0 0 -7.12 3 13.91 13.91 0 0 0 -3 8h19.63q-1.07-10.91-9.51-10.91m.2-3.46q6.84 0 10.18 4.69t3.32 12.54h-24q.06 6.19 2.93 9.82t9 3.63a18.12 18.12 0 0 0 5.05-.7 27.82 27.82 0 0 0 5.06-2.1l1.4 3.06a30.3 30.3 0 0 1 -5.36 2.3 20.44 20.44 0 0 1 -5.95.76q-8.13 0-12.25-4.65t-4.12-12.51c0-5 1.34-9.07 3.89-12.18s6.13-4.66 10.75-4.66"/></g><path d="m121.22 0h60.9v11.55h-60.9zm84 17.15h-60.9v11.55h60.9zm-43.05 17.15h-60.89v11.55h60.89zm-24.17 17.15h-60.87v11.55h60.87z" fill="#00b4c0"/></svg>