<svg xmlns="http://www.w3.org/2000/svg" width="71.967" height="29.068" viewBox="0 0 71.967 29.068">
  <g id="NutrienAgSolutions_Logo_ForLightBackgrounds_RGB" transform="translate(-38.25 -42)">
    <path id="SVGID_1_" d="M57.3,48.335a9.32,9.32,0,0,1,2.853,3.075,10.951,10.951,0,0,1,.92,2.644c2.026.035,2.877.955,4.053,3.063.256.466.524.932.78,1.374h0c-.373-.571-.792-1.2-1.165-1.712a4.658,4.658,0,0,0-3.6-2.259c-.4-.012-.5-.012-.652-.012s-.349,0-.955-.012c1.805,1,1.945,3.482,3.086,5.1a6.474,6.474,0,0,0,4.635,3.226,9.719,9.719,0,0,0,1.665.186,7.5,7.5,0,0,1-1.467-1.945,18.492,18.492,0,0,1-1.258-3.04c-.512-1.607-1.013-3.575-1.258-4.623-.512-2.131-1.351-4.076-3.866-4.833A13.763,13.763,0,0,0,58.01,48.3c-.431.023-.71.035-.71.035" transform="translate(-16.831 -5.566)" fill="#88d600"/>
    <g id="Group_140" data-name="Group 140" transform="translate(38.25 42)">
      <path id="Path_168" data-name="Path 168" d="M43.007,211a.388.388,0,0,0-.291-.1.935.935,0,0,0-.349.07.116.116,0,0,0-.058.047l-4.041,6.778a.106.106,0,0,0,0,.116.122.122,0,0,0,.1.058h.617a.122.122,0,0,0,.1-.058l1.083-1.852h2.888l.268,1.805a.113.113,0,0,0,.116.093h.641a.132.132,0,0,0,.093-.035.091.091,0,0,0,.023-.093l-1.06-6.557a.654.654,0,0,0-.14-.268m-.082,4.321H40.6l1.863-3.191Z" transform="translate(-38.25 -191.23)"/>
      <path id="Path_169" data-name="Path 169" d="M98.275,228.193a.48.48,0,0,0-.14-.012.672.672,0,0,0-.431.151.928.928,0,0,0-.175.2.887.887,0,0,0-.186-.163,1.393,1.393,0,0,0-.4-.186,2.127,2.127,0,0,0-.582-.082,2.5,2.5,0,0,0-1.211.314,2.866,2.866,0,0,0-.99.885,3.8,3.8,0,0,0-.582,1.4,2.424,2.424,0,0,0,.186,1.887,1.62,1.62,0,0,0,1.467.7,2.229,2.229,0,0,0,1.339-.419,5.44,5.44,0,0,1-.245.827,1.639,1.639,0,0,1-1.759,1.083,1.491,1.491,0,0,1-.943-.256.866.866,0,0,1-.256-.245.149.149,0,0,0-.082-.058.091.091,0,0,0-.093.023c-.082.07-.163.14-.221.2a.491.491,0,0,0-.128.221.435.435,0,0,0,.128.384,1.385,1.385,0,0,0,.617.338,3.1,3.1,0,0,0,.9.116,2.54,2.54,0,0,0,2.55-1.467,5.958,5.958,0,0,0,.361-1.2l.978-4.5a.131.131,0,0,0-.012-.093.229.229,0,0,0-.093-.047m-.943,1.118-.559,2.539a.626.626,0,0,1-.21.291,2.253,2.253,0,0,1-.5.279,1.857,1.857,0,0,1-.617.1.932.932,0,0,1-.92-.466,2.052,2.052,0,0,1-.058-1.409,2.64,2.64,0,0,1,.687-1.386,1.633,1.633,0,0,1,1.2-.466,1.2,1.2,0,0,1,.978.512" transform="translate(-86.484 -206.427)"/>
      <path id="Path_170" data-name="Path 170" d="M168.9,210.426a1.862,1.862,0,0,0-.524-.221,3.155,3.155,0,0,0-.815-.1,2.812,2.812,0,0,0-1.689.5,2.17,2.17,0,0,0-.9,1.374,1.685,1.685,0,0,0,.012.873,1.231,1.231,0,0,0,.5.652,4.53,4.53,0,0,0,1.106.512,2.586,2.586,0,0,1,.78.361.667.667,0,0,1,.268.408,1.415,1.415,0,0,1-.023.617,1.533,1.533,0,0,1-.582.943,1.955,1.955,0,0,1-1.176.338,2.257,2.257,0,0,1-.908-.175,1.37,1.37,0,0,1-.594-.477.118.118,0,0,0-.082-.047.132.132,0,0,0-.093.035.973.973,0,0,0-.361.489.333.333,0,0,0,.116.338,1.552,1.552,0,0,0,.687.431,3.176,3.176,0,0,0,1.095.175,2.9,2.9,0,0,0,1.805-.559,2.493,2.493,0,0,0,.955-1.526,1.872,1.872,0,0,0-.012-.92,1.331,1.331,0,0,0-.489-.7,2.944,2.944,0,0,0-.978-.478,3.608,3.608,0,0,1-.85-.361.861.861,0,0,1-.338-.384.939.939,0,0,1-.012-.512,1.3,1.3,0,0,1,.524-.827,1.808,1.808,0,0,1,1.083-.3,1.487,1.487,0,0,1,1.269.547.144.144,0,0,0,.093.047h.116a.106.106,0,0,0,.082-.035,1.075,1.075,0,0,0,.291-.419.353.353,0,0,0-.116-.361c-.035-.093-.116-.151-.245-.233" transform="translate(-149.194 -190.523)"/>
      <path id="Path_171" data-name="Path 171" d="M214.435,228.1a2.629,2.629,0,0,0-1.269.314,3,3,0,0,0-1,.92,3.663,3.663,0,0,0-.582,1.363,2.513,2.513,0,0,0,.186,1.9,1.7,1.7,0,0,0,1.549.722,2.521,2.521,0,0,0,1.828-.71,3.6,3.6,0,0,0,1-1.9,2.541,2.541,0,0,0-.175-1.91,1.693,1.693,0,0,0-1.537-.7m-1.025,4.507a.94.94,0,0,1-.932-.466,2.159,2.159,0,0,1-.058-1.421,2.787,2.787,0,0,1,.7-1.4,1.584,1.584,0,0,1,1.188-.5.947.947,0,0,1,.932.443,2.045,2.045,0,0,1,.047,1.409,2.991,2.991,0,0,1-.687,1.444,1.563,1.563,0,0,1-1.188.489" transform="translate(-191.312 -206.427)"/>
      <path id="Path_172" data-name="Path 172" d="M259.364,207.5a.437.437,0,0,0-.116.012.126.126,0,0,0-.093.093l-1.351,6.231a2.051,2.051,0,0,0-.07.687.576.576,0,0,0,.21.384.714.714,0,0,0,.443.116,1.864,1.864,0,0,0,.454-.058.1.1,0,0,0,.082-.093l.047-.21a.091.091,0,0,0-.023-.093.118.118,0,0,0-.082-.047.418.418,0,0,1-.245-.07.159.159,0,0,1-.058-.14,1.573,1.573,0,0,1,.035-.373l1.258-5.776a.56.56,0,0,0-.07-.489.5.5,0,0,0-.419-.175" transform="translate(-232.165 -188.226)"/>
      <path id="Path_173" data-name="Path 173" d="M283.126,228.8h-.035a.113.113,0,0,0-.116.093l-.78,3.575c-.012.035-.047.128-.233.245a2.677,2.677,0,0,1-.606.28,2.2,2.2,0,0,1-.7.116c-.85,0-.885-.408-.9-.547a2.384,2.384,0,0,1,.058-.722l.512-2.352a.6.6,0,0,0-.07-.512.558.558,0,0,0-.466-.175h-.047a.113.113,0,0,0-.116.093L279,231.8a4.076,4.076,0,0,0-.116.932,1.018,1.018,0,0,0,.361.85,1.563,1.563,0,0,0,1.048.3,3.193,3.193,0,0,0,1.048-.175,3.152,3.152,0,0,0,.629-.3l-.058.245a.091.091,0,0,0,.023.093.144.144,0,0,0,.093.047h.594a.113.113,0,0,0,.116-.093l.908-4.2a.624.624,0,0,0-.07-.524.548.548,0,0,0-.454-.175" transform="translate(-250.861 -207.046)"/>
      <path id="Path_174" data-name="Path 174" d="M329.033,217.756h-1.444l.175-.8a.527.527,0,0,0-.07-.477.5.5,0,0,0-.419-.175.437.437,0,0,0-.117.012.126.126,0,0,0-.093.093l-1.048,4.81a2.874,2.874,0,0,0-.082.885c.047.373.28.815,1.13.815a1.965,1.965,0,0,0,.582-.093,2.069,2.069,0,0,0,.536-.256c.186-.128.28-.233.3-.326.023-.116-.035-.256-.186-.443a.118.118,0,0,0-.082-.047.132.132,0,0,0-.093.035,2.107,2.107,0,0,1-.268.21,1.192,1.192,0,0,1-.641.21.443.443,0,0,1-.373-.14.868.868,0,0,1-.047-.7l.629-2.9h1.5a.113.113,0,0,0,.116-.093l.1-.466a.091.091,0,0,0-.023-.093c-.035-.047-.058-.058-.093-.058" transform="translate(-292.424 -196.001)"/>
      <path id="Path_175" data-name="Path 175" d="M365.033,214a.655.655,0,0,0-.419.163.7.7,0,0,0-.233.4.513.513,0,0,0,.07.419.453.453,0,0,0,.373.186.655.655,0,0,0,.419-.163.7.7,0,0,0,.233-.4.514.514,0,0,0-.07-.419.411.411,0,0,0-.373-.186" transform="translate(-326.386 -193.969)"/>
      <path id="Path_176" data-name="Path 176" d="M356.97,228.8h-.035a.113.113,0,0,0-.116.093L356,232.655a2.113,2.113,0,0,0-.07.7.5.5,0,0,0,.21.373.786.786,0,0,0,.431.116,1.863,1.863,0,0,0,.454-.058.1.1,0,0,0,.082-.093l.047-.21a.091.091,0,0,0-.023-.093.118.118,0,0,0-.082-.047c-.163-.012-.221-.047-.245-.07a.2.2,0,0,1-.058-.151,1.707,1.707,0,0,1,.047-.384l.71-3.261a.56.56,0,0,0-.07-.489.517.517,0,0,0-.466-.186" transform="translate(-318.929 -207.046)"/>
      <path id="Path_177" data-name="Path 177" d="M379.135,228.1a2.629,2.629,0,0,0-1.269.314,3,3,0,0,0-1,.92,3.664,3.664,0,0,0-.582,1.363,2.513,2.513,0,0,0,.186,1.9,1.7,1.7,0,0,0,1.549.722,2.521,2.521,0,0,0,1.828-.71,3.6,3.6,0,0,0,1-1.9,2.541,2.541,0,0,0-.175-1.91,1.706,1.706,0,0,0-1.537-.7m.85,2.574a2.991,2.991,0,0,1-.687,1.444,1.554,1.554,0,0,1-1.188.477.94.94,0,0,1-.932-.466,2.159,2.159,0,0,1-.058-1.421,2.787,2.787,0,0,1,.7-1.4,1.584,1.584,0,0,1,1.188-.5.947.947,0,0,1,.932.443,2.165,2.165,0,0,1,.047,1.421" transform="translate(-336.831 -206.427)"/>
      <path id="Path_178" data-name="Path 178" d="M426.272,228.4a1.616,1.616,0,0,0-1.036-.3,3.262,3.262,0,0,0-1.06.175,2.934,2.934,0,0,0-.664.326.454.454,0,0,0-.093-.256.548.548,0,0,0-.454-.175h-.047a.113.113,0,0,0-.116.093l-1.036,4.763a.091.091,0,0,0,.023.093.144.144,0,0,0,.093.047h.594a.113.113,0,0,0,.116-.093l.769-3.505a.331.331,0,0,1,.1-.2,2.136,2.136,0,0,1,.652-.373,2.213,2.213,0,0,1,.792-.151c.85,0,.885.408.9.547a2.2,2.2,0,0,1-.07.722l-.629,2.9a.091.091,0,0,0,.023.093.144.144,0,0,0,.093.047h.594a.113.113,0,0,0,.116-.093l.629-2.9a4.075,4.075,0,0,0,.116-.932,1.1,1.1,0,0,0-.408-.827" transform="translate(-377.098 -206.427)"/>
      <path id="Path_179" data-name="Path 179" d="M471.694,228.554a1.332,1.332,0,0,0-.547-.338,2.292,2.292,0,0,0-.78-.116,2.536,2.536,0,0,0-.885.163,2.037,2.037,0,0,0-.71.466,1.493,1.493,0,0,0-.384.734,1.318,1.318,0,0,0,0,.641.978.978,0,0,0,.338.477,2.61,2.61,0,0,0,.85.361,2.847,2.847,0,0,1,.71.256.508.508,0,0,1,.221.256.741.741,0,0,1,.012.361.927.927,0,0,1-.4.594,1.361,1.361,0,0,1-.8.221,1.8,1.8,0,0,1-1.2-.466.126.126,0,0,0-.082-.035.106.106,0,0,0-.082.035c-.093.1-.175.186-.221.245a.657.657,0,0,0-.1.2.34.34,0,0,0,.14.349,1.737,1.737,0,0,0,.606.268,3.335,3.335,0,0,0,.85.1,2.316,2.316,0,0,0,1.351-.408,1.787,1.787,0,0,0,.734-1.095,1.318,1.318,0,0,0,0-.675.925.925,0,0,0-.291-.443,1.868,1.868,0,0,0-.443-.268c-.163-.07-.326-.128-.5-.186a2.7,2.7,0,0,1-.664-.256.534.534,0,0,1-.21-.221.451.451,0,0,1-.012-.279.75.75,0,0,1,.361-.5,1.363,1.363,0,0,1,.722-.186,1.058,1.058,0,0,1,1.036.547.122.122,0,0,0,.1.058h.093a.106.106,0,0,0,.093-.047c.058-.082.1-.151.151-.21a.753.753,0,0,0,.1-.221.42.42,0,0,0-.163-.384" transform="translate(-417.617 -206.427)"/>
      <path id="Path_180" data-name="Path 180" d="M144.107,48.5,141.3,59.272a9.056,9.056,0,0,0,1.968,3.424l3.086-11.809.023-.093a1.747,1.747,0,0,0,.047-.431c.012-1.118-1-1.84-2.318-1.863" transform="translate(-129.299 -47.743)"/>
      <path id="Path_181" data-name="Path 181" d="M59.761,105.6,57.7,113.484h2.865l1.176-4.554a6.49,6.49,0,0,0-1.98-3.331" transform="translate(-55.435 -98.193)"/>
      <path id="Path_182" data-name="Path 182" d="M192.155,94.488h-1.991c-.361,0-.571-.1-.617-.291a2.017,2.017,0,0,1,.082-.862,5.216,5.216,0,0,1-1.374.92,5.062,5.062,0,0,1-2.189.419,2.892,2.892,0,0,1-2.131-.617,2.134,2.134,0,0,1-.547-1.607,6.278,6.278,0,0,1,.14-1.083c.082-.4.163-.78.268-1.153l1.572-6.021a2.387,2.387,0,0,1,.361-.058,6.012,6.012,0,0,1,.664-.035,3.439,3.439,0,0,1,.687.07,1.346,1.346,0,0,1,.571.256,1.012,1.012,0,0,1,.326.524,1.846,1.846,0,0,1-.058.885L186.809,90.1c-.082.338-.151.629-.2.9a2.03,2.03,0,0,0-.012.7.668.668,0,0,0,.338.454,1.748,1.748,0,0,0,.839.163,3.174,3.174,0,0,0,1.479-.338,1.346,1.346,0,0,0,.792-.838l1.817-6.929a2.387,2.387,0,0,1,.361-.058,6.014,6.014,0,0,1,.664-.035,2.617,2.617,0,0,1,.675.082,1.268,1.268,0,0,1,.559.279,1.092,1.092,0,0,1,.314.571,1.882,1.882,0,0,1-.058.9Z" transform="translate(-166.481 -79.197)"/>
      <path id="Path_183" data-name="Path 183" d="M284.515,68.63a3.451,3.451,0,0,1,.047-.908,9.349,9.349,0,0,1,.21-.955l2.62-10.074.338-.047.338-.035c.116-.012.233-.012.349-.012a3.439,3.439,0,0,1,.687.07,1.345,1.345,0,0,1,.571.256,1.046,1.046,0,0,1,.326.536,1.846,1.846,0,0,1-.058.885l-.4,1.526,3.063.012-.571,2.213-3.063-.012-1.211,4.647c-.268,1.013.023,1.526.85,1.526a2.185,2.185,0,0,0,.606-.093c.2-.07.384-.14.559-.221a3.015,3.015,0,0,0,.443-.245,2.669,2.669,0,0,0,.268-.2,5.112,5.112,0,0,1,.291.827,1.237,1.237,0,0,1,0,.652,1.208,1.208,0,0,1-.373.559,3.225,3.225,0,0,1-.78.5,5.14,5.14,0,0,1-1.106.361,6.106,6.106,0,0,1-1.328.14,3.008,3.008,0,0,1-1.98-.524,2.029,2.029,0,0,1-.7-1.386" transform="translate(-255.825 -54.9)"/>
      <path id="Path_184" data-name="Path 184" d="M353.041,84.116a3.673,3.673,0,0,1,.478-.431,3.723,3.723,0,0,1,.652-.431,4.62,4.62,0,0,1,.769-.326,3.013,3.013,0,0,1,1.4-.082,1.583,1.583,0,0,1,.5.163.656.656,0,0,1,.314.326.75.75,0,0,1,.023.512,4.09,4.09,0,0,1-.524,1.083,12.223,12.223,0,0,1-.757,1.06,2.268,2.268,0,0,0-.617-.466,1.936,1.936,0,0,0-.827-.163,2.123,2.123,0,0,0-1.234.384,1.627,1.627,0,0,0-.7.932l-1.747,6.685-2.97-.012,2.679-10.272.268-.047q.14-.017.314-.035c.116-.012.256-.012.419-.012a2.1,2.1,0,0,1,1.141.279.924.924,0,0,1,.419.85" transform="translate(-311.75 -78.049)"/>
      <path id="Path_185" data-name="Path 185" d="M427.848,43.6a1.951,1.951,0,0,1-.769,1.13,2.016,2.016,0,0,1-1.234.431,1.233,1.233,0,0,1-1.025-.443,1.2,1.2,0,0,1-.163-1.13,2.127,2.127,0,0,1,2-1.584,1.24,1.24,0,0,1,1.013.443,1.223,1.223,0,0,1,.175,1.153m-3.633,13.87a2.271,2.271,0,0,1-.408.07c-.21.012-.431.023-.664.023a1.967,1.967,0,0,1-1.293-.361c-.291-.245-.349-.722-.163-1.444l2.271-8.7a2.385,2.385,0,0,1,.361-.058,6.019,6.019,0,0,1,.664-.035,3.439,3.439,0,0,1,.687.07,1.346,1.346,0,0,1,.571.256,1.013,1.013,0,0,1,.326.524,1.846,1.846,0,0,1-.058.885Z" transform="translate(-376.938 -42)"/>
      <path id="Path_186" data-name="Path 186" d="M475.645,87.156a2.791,2.791,0,0,0,.035-1.689c-.151-.431-.582-.652-1.281-.652a2.3,2.3,0,0,0-1.607.617,3.472,3.472,0,0,0-.978,1.724Zm-2.131,4.4a3.725,3.725,0,0,0,.99-.116,4.762,4.762,0,0,0,.815-.291,4.513,4.513,0,0,0,.664-.384c.2-.14.373-.268.536-.384a4.2,4.2,0,0,1,.326.839,1.553,1.553,0,0,1,.07.839,1.519,1.519,0,0,1-.769.862,5.228,5.228,0,0,1-1.456.594,7.823,7.823,0,0,1-2.038.245,7.152,7.152,0,0,1-1.957-.268,3.232,3.232,0,0,1-1.537-.92,3.3,3.3,0,0,1-.8-1.747,6.711,6.711,0,0,1,.245-2.772,7.045,7.045,0,0,1,2.6-3.995,6.368,6.368,0,0,1,1.852-.955,6.59,6.59,0,0,1,1.91-.3,4.406,4.406,0,0,1,1.98.384,2.594,2.594,0,0,1,1.118,1.025,3.2,3.2,0,0,1,.4,1.467,6.6,6.6,0,0,1-.21,1.735c-.023.082-.047.186-.081.3s-.07.245-.1.373-.082.256-.117.384-.081.221-.1.291l-6.417-.012a2.93,2.93,0,0,0,.221,1.991,1.953,1.953,0,0,0,1.875.815" transform="translate(-418.213 -78.049)"/>
      <path id="Path_187" data-name="Path 187" d="M560.593,93.816,557.6,93.8l2.667-10.213.268-.047q.14-.017.314-.035c.116-.012.256-.012.419-.012a2.284,2.284,0,0,1,1.153.256.863.863,0,0,1,.419.885,4.948,4.948,0,0,1,1.374-.92A5.062,5.062,0,0,1,566.4,83.3a2.892,2.892,0,0,1,2.131.617,2.134,2.134,0,0,1,.547,1.607,6.278,6.278,0,0,1-.14,1.083c-.082.4-.175.78-.268,1.153l-1.6,6.044h-2.97l1.537-5.928c.081-.314.151-.617.2-.885a1.835,1.835,0,0,0,.012-.71.668.668,0,0,0-.338-.454,1.747,1.747,0,0,0-.838-.163A3.174,3.174,0,0,0,563.2,86a1.346,1.346,0,0,0-.792.839Z" transform="translate(-497.117 -78.49)"/>
      <path id="Path_188" data-name="Path 188" d="M513.977,226.115a.839.839,0,1,1-.839-.815A.83.83,0,0,1,513.977,226.115Zm-1.467,0a.634.634,0,0,0,.641.652.619.619,0,0,0,.617-.641.629.629,0,1,0-1.258-.012Zm.512.431h-.186v-.815a1.927,1.927,0,0,1,.315-.023.5.5,0,0,1,.279.058.228.228,0,0,1,.081.175.2.2,0,0,1-.163.186v.012a.249.249,0,0,1,.151.2.578.578,0,0,0,.058.21h-.21a1.7,1.7,0,0,1-.07-.2c-.012-.093-.07-.128-.163-.128h-.093v.326Zm0-.466h.093c.1,0,.186-.035.186-.116s-.058-.128-.175-.128a.259.259,0,0,0-.1.012v.233Z" transform="translate(-457.093 -203.953)"/>
    </g>
  </g>
</svg>
