<?xml version="1.0" encoding="utf-8"?>
<!-- Generator: Adobe Illustrator 21.1.0, SVG Export Plug-In . SVG Version: 6.00 Build 0)  -->
<svg version="1.1" id="Layer_1" xmlns="http://www.w3.org/2000/svg" xmlns:xlink="http://www.w3.org/1999/xlink" x="0px" y="0px"
	 viewBox="0 0 754 242" style="enable-background:new 0 0 754 242;" xml:space="preserve">
<style type="text/css">
	.st0{fill:url(#SVGID_1_);}
	.st1{fill:none;stroke:url(#SVGID_2_);stroke-width:0.75;stroke-miterlimit:10;}
	.st2{fill:url(#SVGID_3_);}
	.st3{fill:none;stroke:url(#SVGID_4_);stroke-width:0.75;stroke-miterlimit:10;}
	.st4{fill:url(#SVGID_5_);}
	.st5{fill:none;stroke:url(#SVGID_6_);stroke-width:0.75;stroke-miterlimit:10;}
	.st6{fill:url(#SVGID_7_);}
	.st7{fill:none;stroke:url(#SVGID_8_);stroke-width:0.75;stroke-miterlimit:10;}
	.st8{fill:url(#SVGID_9_);}
	.st9{fill:none;stroke:url(#SVGID_10_);stroke-width:0.75;stroke-miterlimit:10;}
	.st10{fill:url(#SVGID_11_);}
	.st11{fill:none;stroke:url(#SVGID_12_);stroke-width:0.75;stroke-miterlimit:10;}
	.st12{fill:url(#SVGID_13_);}
	.st13{fill:none;stroke:url(#SVGID_14_);stroke-width:0.75;stroke-miterlimit:10;}
	.st14{fill:url(#SVGID_15_);}
	.st15{fill:none;stroke:url(#SVGID_16_);stroke-width:0.75;stroke-miterlimit:10;}
	.st16{fill:url(#SVGID_17_);}
	.st17{fill:none;stroke:url(#SVGID_18_);stroke-width:0.75;stroke-miterlimit:10;}
	.st18{fill:url(#SVGID_19_);}
	.st19{fill:none;stroke:url(#SVGID_20_);stroke-width:0.75;stroke-miterlimit:10;}
	.st20{fill:url(#SVGID_21_);}
	.st21{fill:none;stroke:url(#SVGID_22_);stroke-width:0.5;stroke-miterlimit:10;}
	.st22{fill:url(#SVGID_23_);}
	.st23{fill:none;stroke:url(#SVGID_24_);stroke-width:0.5;stroke-miterlimit:10;}
	.st24{fill:url(#SVGID_25_);}
	.st25{fill:none;stroke:url(#SVGID_26_);stroke-width:0.5;stroke-miterlimit:10;}
	.st26{fill:url(#SVGID_27_);}
	.st27{fill:none;stroke:url(#SVGID_28_);stroke-width:0.5;stroke-miterlimit:10;}
	.st28{fill:url(#SVGID_29_);}
	.st29{fill:none;stroke:url(#SVGID_30_);stroke-width:0.5;stroke-miterlimit:10;}
	.st30{fill:url(#SVGID_31_);}
	.st31{fill:none;stroke:url(#SVGID_32_);stroke-width:0.5;stroke-miterlimit:10;}
	.st32{fill:url(#SVGID_33_);}
	.st33{fill:none;stroke:url(#SVGID_34_);stroke-width:0.5;stroke-miterlimit:10;}
	.st34{fill:url(#SVGID_35_);}
	.st35{fill:none;stroke:url(#SVGID_36_);stroke-width:0.5;stroke-miterlimit:10;}
	.st36{fill:url(#SVGID_37_);}
	.st37{fill:none;stroke:url(#SVGID_38_);stroke-width:0.5;stroke-miterlimit:10;}
	.st38{fill:url(#SVGID_39_);}
	.st39{fill:none;stroke:url(#SVGID_40_);stroke-width:0.5;stroke-miterlimit:10;}
	.st40{opacity:0.3;}
	.st41{fill:#EDDB8B;}
</style>
<title>OWFLogo_white</title>
<g>
	<g id="Layer_1_1_">
		
			<image style="overflow:visible;opacity:0.8;enable-background:new    ;" width="98" height="99" xlink:href="600FBF5A266FCFB4.png"  transform="matrix(0.9949 0 0 0.9949 198.2494 37.7437)">
		</image>
		
			<linearGradient id="SVGID_1_" gradientUnits="userSpaceOnUse" x1="298.4539" y1="240.9716" x2="276.554" y2="196.7916" gradientTransform="matrix(1 0 0 -1 -38 301.58)">
			<stop  offset="0.33" style="stop-color:#FFFFFF"/>
			<stop  offset="0.91" style="stop-color:#E5E4B9"/>
		</linearGradient>
		<path class="st0" d="M248.6,45.4c-22.2,0-39.1,16.9-39.1,39.1s16.9,39.1,39.1,39.1s39.1-16.8,39.1-39.1S270.8,45.4,248.6,45.4z
			 M248.6,114c-16.5,0-29-12.9-29-29.6s12.4-29.6,29-29.6s29.1,13.1,29.1,29.6S265.2,114,248.6,114L248.6,114z"/>
		
			<linearGradient id="SVGID_2_" gradientUnits="userSpaceOnUse" x1="314.6855" y1="189.0183" x2="258.3813" y2="245.3123" gradientTransform="matrix(1 0 0 -1 -38 301.58)">
			<stop  offset="0" style="stop-color:#FFFFFF"/>
			<stop  offset="5.000000e-02" style="stop-color:#EDECDE"/>
			<stop  offset="0.12" style="stop-color:#DAD7BA"/>
			<stop  offset="0.18" style="stop-color:#CBC79F"/>
			<stop  offset="0.25" style="stop-color:#C1BB8B"/>
			<stop  offset="0.31" style="stop-color:#BAB47F"/>
			<stop  offset="0.38" style="stop-color:#B8B27B"/>
			<stop  offset="0.45" style="stop-color:#C6C195"/>
			<stop  offset="0.6" style="stop-color:#EAE8D8"/>
			<stop  offset="0.68" style="stop-color:#FFFFFF"/>
			<stop  offset="0.72" style="stop-color:#FAFAF9"/>
			<stop  offset="0.77" style="stop-color:#EDECE7"/>
			<stop  offset="0.83" style="stop-color:#D7D6C9"/>
			<stop  offset="0.9" style="stop-color:#B9B7A0"/>
			<stop  offset="0.98" style="stop-color:#938F6B"/>
			<stop  offset="1" style="stop-color:#858159"/>
		</linearGradient>
		<path class="st1" d="M248.6,45.4c-22.2,0-39.1,16.9-39.1,39.1s16.9,39.1,39.1,39.1s39.1-16.8,39.1-39.1S270.8,45.4,248.6,45.4z
			 M248.6,114c-16.5,0-29-12.9-29-29.6s12.4-29.6,29-29.6s29.1,13.1,29.1,29.6S265.2,114,248.6,114L248.6,114z"/>
		
			<image style="overflow:visible;opacity:0.8;enable-background:new    ;" width="88" height="96" xlink:href="600FBF5A266FCFB5.png"  transform="matrix(0.9944 0 0 0.9944 287.2485 39.7628)">
		</image>
		
			<linearGradient id="SVGID_3_" gradientUnits="userSpaceOnUse" x1="392.8764" y1="231.7102" x2="369.0563" y2="183.6502" gradientTransform="matrix(1 0 0 -1 -38 301.58)">
			<stop  offset="0.33" style="stop-color:#FFFFFF"/>
			<stop  offset="0.91" style="stop-color:#E5E4B9"/>
		</linearGradient>
		<path class="st2" d="M338.8,46.5H328l-28.6,75.9h10.8l7.7-21.2h30.7l7.9,21.2h10.8L338.8,46.5z M321.1,91.9l12.2-32.8l12.2,32.8
			C345.5,91.9,321.1,91.9,321.1,91.9z"/>
		
			<linearGradient id="SVGID_4_" gradientUnits="userSpaceOnUse" x1="400.5626" y1="173.5262" x2="342.1268" y2="231.962" gradientTransform="matrix(1 0 0 -1 -38 301.58)">
			<stop  offset="0" style="stop-color:#FFFFFF"/>
			<stop  offset="5.000000e-02" style="stop-color:#EDECDE"/>
			<stop  offset="0.12" style="stop-color:#DAD7BA"/>
			<stop  offset="0.18" style="stop-color:#CBC79F"/>
			<stop  offset="0.25" style="stop-color:#C1BB8B"/>
			<stop  offset="0.31" style="stop-color:#BAB47F"/>
			<stop  offset="0.38" style="stop-color:#B8B27B"/>
			<stop  offset="0.45" style="stop-color:#C6C195"/>
			<stop  offset="0.6" style="stop-color:#EAE8D8"/>
			<stop  offset="0.68" style="stop-color:#FFFFFF"/>
			<stop  offset="0.72" style="stop-color:#FAFAF9"/>
			<stop  offset="0.77" style="stop-color:#EDECE7"/>
			<stop  offset="0.83" style="stop-color:#D7D6C9"/>
			<stop  offset="0.9" style="stop-color:#B9B7A0"/>
			<stop  offset="0.98" style="stop-color:#938F6B"/>
			<stop  offset="1" style="stop-color:#858159"/>
		</linearGradient>
		<path class="st3" d="M338.8,46.5H328l-28.6,75.9h10.8l7.7-21.2h30.7l7.9,21.2h10.8L338.8,46.5z M321.1,91.9l12.2-32.8l12.2,32.8
			C345.5,91.9,321.1,91.9,321.1,91.9z"/>
		
			<image style="overflow:visible;opacity:0.8;enable-background:new    ;" width="71" height="96" xlink:href="600FBF5A266FCFB3.png"  transform="matrix(0.9933 0 0 0.9933 374.2386 39.8144)">
		</image>
		
			<linearGradient id="SVGID_5_" gradientUnits="userSpaceOnUse" x1="425.0209" y1="249.4128" x2="399.9609" y2="198.8429" gradientTransform="matrix(1 0 0 -1 0 306.78)">
			<stop  offset="0.33" style="stop-color:#FFFFFF"/>
			<stop  offset="0.91" style="stop-color:#E5E4B9"/>
		</linearGradient>
		<polygon class="st4" points="386.3,46.5 395.9,46.5 395.9,83.6 424.2,46.5 435.8,46.5 412.3,77.5 436.9,122.4 425.5,122.4 
			405.6,85.5 395.9,97.7 395.9,122.4 386.3,122.4 		"/>
		
			<linearGradient id="SVGID_6_" gradientUnits="userSpaceOnUse" x1="443.551" y1="190.0239" x2="379.418" y2="254.147" gradientTransform="matrix(1 0 0 -1 0 306.78)">
			<stop  offset="0" style="stop-color:#FFFFFF"/>
			<stop  offset="5.000000e-02" style="stop-color:#EDECDE"/>
			<stop  offset="0.12" style="stop-color:#DAD7BA"/>
			<stop  offset="0.18" style="stop-color:#CBC79F"/>
			<stop  offset="0.25" style="stop-color:#C1BB8B"/>
			<stop  offset="0.31" style="stop-color:#BAB47F"/>
			<stop  offset="0.38" style="stop-color:#B8B27B"/>
			<stop  offset="0.45" style="stop-color:#C6C195"/>
			<stop  offset="0.6" style="stop-color:#EAE8D8"/>
			<stop  offset="0.68" style="stop-color:#FFFFFF"/>
			<stop  offset="0.72" style="stop-color:#FAFAF9"/>
			<stop  offset="0.77" style="stop-color:#EDECE7"/>
			<stop  offset="0.83" style="stop-color:#D7D6C9"/>
			<stop  offset="0.9" style="stop-color:#B9B7A0"/>
			<stop  offset="0.98" style="stop-color:#938F6B"/>
			<stop  offset="1" style="stop-color:#858159"/>
		</linearGradient>
		<polygon class="st5" points="386.3,46.5 395.9,46.5 395.9,83.6 424.2,46.5 435.8,46.5 412.3,77.5 436.9,122.4 425.5,122.4 
			405.6,85.5 395.9,97.7 395.9,122.4 386.3,122.4 		"/>
		
			<image style="overflow:visible;opacity:0.8;enable-background:new    ;" width="60" height="96" xlink:href="600FBF5A266FCFBC.png"  transform="matrix(0.9925 0 0 0.9925 444.2244 39.8508)">
		</image>
		
			<linearGradient id="SVGID_7_" gradientUnits="userSpaceOnUse" x1="483.9487" y1="238.059" x2="463.8087" y2="197.439" gradientTransform="matrix(1 0 0 -1 0 306.78)">
			<stop  offset="0.33" style="stop-color:#FFFFFF"/>
			<stop  offset="0.91" style="stop-color:#E5E4B9"/>
		</linearGradient>
		<polygon class="st6" points="455.7,122.4 455.7,46.5 465.3,46.5 465.3,113.2 496.6,113.2 496.6,122.4 		"/>
		
			<linearGradient id="SVGID_8_" gradientUnits="userSpaceOnUse" x1="497.9" y1="184.93" x2="438.75" y2="244.08" gradientTransform="matrix(1 0 0 -1 0 306.78)">
			<stop  offset="0" style="stop-color:#FFFFFF"/>
			<stop  offset="5.000000e-02" style="stop-color:#EDECDE"/>
			<stop  offset="0.12" style="stop-color:#DAD7BA"/>
			<stop  offset="0.18" style="stop-color:#CBC79F"/>
			<stop  offset="0.25" style="stop-color:#C1BB8B"/>
			<stop  offset="0.31" style="stop-color:#BAB47F"/>
			<stop  offset="0.38" style="stop-color:#B8B27B"/>
			<stop  offset="0.45" style="stop-color:#C6C195"/>
			<stop  offset="0.6" style="stop-color:#EAE8D8"/>
			<stop  offset="0.68" style="stop-color:#FFFFFF"/>
			<stop  offset="0.72" style="stop-color:#FAFAF9"/>
			<stop  offset="0.77" style="stop-color:#EDECE7"/>
			<stop  offset="0.83" style="stop-color:#D7D6C9"/>
			<stop  offset="0.9" style="stop-color:#B9B7A0"/>
			<stop  offset="0.98" style="stop-color:#938F6B"/>
			<stop  offset="1" style="stop-color:#858159"/>
		</linearGradient>
		<polygon class="st7" points="455.7,122.4 455.7,46.5 465.3,46.5 465.3,113.2 496.6,113.2 496.6,122.4 		"/>
		
			<image style="overflow:visible;opacity:0.8;enable-background:new    ;" width="88" height="96" xlink:href="600FBF5A266FCFBF.png"  transform="matrix(0.9944 0 0 0.9944 496.2485 39.7628)">
		</image>
		
			<linearGradient id="SVGID_9_" gradientUnits="userSpaceOnUse" x1="601.0902" y1="231.738" x2="577.2702" y2="183.678" gradientTransform="matrix(1 0 0 -1 -38 301.58)">
			<stop  offset="0.33" style="stop-color:#FFFFFF"/>
			<stop  offset="0.91" style="stop-color:#E5E4B9"/>
		</linearGradient>
		<path class="st8" d="M547,46.5h-10.8l-28.6,75.9h10.8l7.7-21.2h30.7l7.9,21.2h10.8L547,46.5z M529.4,91.9l12.2-32.8l12.2,32.8
			C553.8,91.9,529.4,91.9,529.4,91.9z"/>
		
			<linearGradient id="SVGID_10_" gradientUnits="userSpaceOnUse" x1="608.7585" y1="173.5229" x2="550.3865" y2="231.9049" gradientTransform="matrix(1 0 0 -1 -38 301.58)">
			<stop  offset="0" style="stop-color:#FFFFFF"/>
			<stop  offset="5.000000e-02" style="stop-color:#EDECDE"/>
			<stop  offset="0.12" style="stop-color:#DAD7BA"/>
			<stop  offset="0.18" style="stop-color:#CBC79F"/>
			<stop  offset="0.25" style="stop-color:#C1BB8B"/>
			<stop  offset="0.31" style="stop-color:#BAB47F"/>
			<stop  offset="0.38" style="stop-color:#B8B27B"/>
			<stop  offset="0.45" style="stop-color:#C6C195"/>
			<stop  offset="0.6" style="stop-color:#EAE8D8"/>
			<stop  offset="0.68" style="stop-color:#FFFFFF"/>
			<stop  offset="0.72" style="stop-color:#FAFAF9"/>
			<stop  offset="0.77" style="stop-color:#EDECE7"/>
			<stop  offset="0.83" style="stop-color:#D7D6C9"/>
			<stop  offset="0.9" style="stop-color:#B9B7A0"/>
			<stop  offset="0.98" style="stop-color:#938F6B"/>
			<stop  offset="1" style="stop-color:#858159"/>
		</linearGradient>
		<path class="st9" d="M547,46.5h-10.8l-28.6,75.9h10.8l7.7-21.2h30.7l7.9,21.2h10.8L547,46.5z M529.4,91.9l12.2-32.8l12.2,32.8
			C553.8,91.9,529.4,91.9,529.4,91.9z"/>
		
			<image style="overflow:visible;opacity:0.8;enable-background:new    ;" width="84" height="96" xlink:href="600FBF5A266FCFBD.png"  transform="matrix(0.9941 0 0 0.9941 578.2473 39.7743)">
		</image>
		
			<linearGradient id="SVGID_11_" gradientUnits="userSpaceOnUse" x1="636.8765" y1="252.035" x2="610.5665" y2="198.965" gradientTransform="matrix(1 0 0 -1 0 306.78)">
			<stop  offset="0.33" style="stop-color:#FFFFFF"/>
			<stop  offset="0.91" style="stop-color:#E5E4B9"/>
		</linearGradient>
		<polygon class="st10" points="604.6,67.9 604.6,122.4 595,122.4 595,55.1 589.8,47.2 589.8,46.5 601.4,46.5 644.9,105.8 
			644.9,46.5 654.5,46.5 654.5,122.4 644.9,122.4 		"/>
		
			<linearGradient id="SVGID_12_" gradientUnits="userSpaceOnUse" x1="658.9771" y1="188.1077" x2="587.9225" y2="259.1523" gradientTransform="matrix(1 0 0 -1 0 306.78)">
			<stop  offset="0" style="stop-color:#FFFFFF"/>
			<stop  offset="5.000000e-02" style="stop-color:#EDECDE"/>
			<stop  offset="0.12" style="stop-color:#DAD7BA"/>
			<stop  offset="0.18" style="stop-color:#CBC79F"/>
			<stop  offset="0.25" style="stop-color:#C1BB8B"/>
			<stop  offset="0.31" style="stop-color:#BAB47F"/>
			<stop  offset="0.38" style="stop-color:#B8B27B"/>
			<stop  offset="0.45" style="stop-color:#C6C195"/>
			<stop  offset="0.6" style="stop-color:#EAE8D8"/>
			<stop  offset="0.68" style="stop-color:#FFFFFF"/>
			<stop  offset="0.72" style="stop-color:#FAFAF9"/>
			<stop  offset="0.77" style="stop-color:#EDECE7"/>
			<stop  offset="0.83" style="stop-color:#D7D6C9"/>
			<stop  offset="0.9" style="stop-color:#B9B7A0"/>
			<stop  offset="0.98" style="stop-color:#938F6B"/>
			<stop  offset="1" style="stop-color:#858159"/>
		</linearGradient>
		<polygon class="st11" points="604.6,67.9 604.6,122.4 595,122.4 595,55.1 589.8,47.2 589.8,46.5 601.4,46.5 644.9,105.8 
			644.9,46.5 654.5,46.5 654.5,122.4 644.9,122.4 		"/>
		
			<image style="overflow:visible;opacity:0.8;enable-background:new    ;" width="84" height="96" xlink:href="600FBF5A266FCFB2.png"  transform="matrix(0.9941 0 0 0.9941 670.2473 39.7743)">
		</image>
		
			<linearGradient id="SVGID_13_" gradientUnits="userSpaceOnUse" x1="756.698" y1="240.0245" x2="733.208" y2="192.6345" gradientTransform="matrix(1 0 0 -1 -38 301.58)">
			<stop  offset="0.33" style="stop-color:#FFFFFF"/>
			<stop  offset="0.91" style="stop-color:#E5E4B9"/>
		</linearGradient>
		<path class="st12" d="M709,46.5h-26.8v75.9H709c22.7,0,37.1-15.7,37.1-38S731.6,46.5,709,46.5z M708.9,113.2h-17.1V55.6h17.1
			c17,0,27.2,12.3,27.2,28.8S725.8,113.2,708.9,113.2L708.9,113.2z"/>
		
			<linearGradient id="SVGID_14_" gradientUnits="userSpaceOnUse" x1="771.814" y1="187.0286" x2="711.6063" y2="247.2363" gradientTransform="matrix(1 0 0 -1 -38 301.58)">
			<stop  offset="0" style="stop-color:#FFFFFF"/>
			<stop  offset="5.000000e-02" style="stop-color:#EDECDE"/>
			<stop  offset="0.12" style="stop-color:#DAD7BA"/>
			<stop  offset="0.18" style="stop-color:#CBC79F"/>
			<stop  offset="0.25" style="stop-color:#C1BB8B"/>
			<stop  offset="0.31" style="stop-color:#BAB47F"/>
			<stop  offset="0.38" style="stop-color:#B8B27B"/>
			<stop  offset="0.45" style="stop-color:#C6C195"/>
			<stop  offset="0.6" style="stop-color:#EAE8D8"/>
			<stop  offset="0.68" style="stop-color:#FFFFFF"/>
			<stop  offset="0.72" style="stop-color:#FAFAF9"/>
			<stop  offset="0.77" style="stop-color:#EDECE7"/>
			<stop  offset="0.83" style="stop-color:#D7D6C9"/>
			<stop  offset="0.9" style="stop-color:#B9B7A0"/>
			<stop  offset="0.98" style="stop-color:#938F6B"/>
			<stop  offset="1" style="stop-color:#858159"/>
		</linearGradient>
		<path class="st13" d="M709,46.5h-26.8v75.9H709c22.7,0,37.1-15.7,37.1-38S731.6,46.5,709,46.5z M708.9,113.2h-17.1V55.6h17.1
			c17,0,27.2,12.3,27.2,28.8S725.8,113.2,708.9,113.2L708.9,113.2z"/>
		
			<image style="overflow:visible;opacity:0.8;enable-background:new    ;" width="198" height="195" xlink:href="600FBF5A266FCFB6.png"  transform="matrix(0.9975 0 0 0.9975 0.2496 -0.2541)">
		</image>
		
			<linearGradient id="SVGID_15_" gradientUnits="userSpaceOnUse" x1="217.3051" y1="251.0084" x2="24.2351" y2="139.5583" gradientTransform="matrix(1 0 0 -1 -38 301.58)">
			<stop  offset="0.33" style="stop-color:#FFFFFF"/>
			<stop  offset="1" style="stop-color:#E5E4B9"/>
		</linearGradient>
		<path class="st14" d="M190.3,95.7c0,38.8-25,73.1-62,84.9v-12.3c40.1-14.8,60.6-59.4,45.8-99.5S114.6,8.2,74.5,23
			s-60.6,59.4-45.8,99.5c7.8,21.1,24.4,37.8,45.5,45.7v12.3c-46.9-14.9-72.9-64.9-58-111.8S81.1-4.2,128,10.7
			C165.1,22.4,190.3,56.8,190.3,95.7z"/>
		
			<linearGradient id="SVGID_16_" gradientUnits="userSpaceOnUse" x1="139.1496" y1="295.4558" x2="139.1496" y2="120.4668" gradientTransform="matrix(1 0 0 -1 -38 301.58)">
			<stop  offset="0" style="stop-color:#FFFFFF"/>
			<stop  offset="1" style="stop-color:#8F8B60"/>
		</linearGradient>
		<path class="st15" d="M190.3,95.7c0,38.8-25,73.1-62,84.9v-12.3c40.1-14.8,60.6-59.4,45.8-99.5S114.6,8.2,74.5,23
			s-60.6,59.4-45.8,99.5c7.8,21.1,24.4,37.8,45.5,45.7v12.3c-46.9-14.9-72.9-64.9-58-111.8S81.1-4.2,128,10.7
			C165.1,22.4,190.3,56.8,190.3,95.7z"/>
		
			<image style="overflow:visible;opacity:0.8;enable-background:new    ;" width="80" height="168" xlink:href="600FBF5A266FCFB7.png"  transform="matrix(0.9952 0 0 0.9952 92.194 74.9074)">
		</image>
		
			<linearGradient id="SVGID_17_" gradientUnits="userSpaceOnUse" x1="171.5363" y1="186.9036" x2="49.4463" y2="116.4236" gradientTransform="matrix(1 0 0 -1 0 306.78)">
			<stop  offset="0.33" style="stop-color:#FFFFFF"/>
			<stop  offset="1" style="stop-color:#E5E4B9"/>
		</linearGradient>
		<polygon class="st16" points="155,98.9 116.1,137.9 116.1,120.4 146.3,90.2 137.6,81.6 116.1,103.2 116.1,81.4 103.9,81.4 
			103.9,229.4 116.1,229.4 116.1,155 163.6,107.5 		"/>
		
			<linearGradient id="SVGID_18_" gradientUnits="userSpaceOnUse" x1="133.8277" y1="225.755" x2="133.8277" y2="77.005" gradientTransform="matrix(1 0 0 -1 0 306.78)">
			<stop  offset="0" style="stop-color:#FFFFFF"/>
			<stop  offset="1" style="stop-color:#8F8B60"/>
		</linearGradient>
		<polygon class="st17" points="155,98.9 116.1,137.9 116.1,120.4 146.3,90.2 137.6,81.6 116.1,103.2 116.1,81.4 103.9,81.4 
			103.9,229.4 116.1,229.4 116.1,155 163.6,107.5 		"/>
		
			<image style="overflow:visible;opacity:0.8;enable-background:new    ;" width="79" height="168" xlink:href="E246A8078E290553.png"  transform="matrix(0.9951 0 0 0.9951 27.1924 74.9092)">
		</image>
		
			<linearGradient id="SVGID_19_" gradientUnits="userSpaceOnUse" x1="126.8058" y1="177.3172" x2="35.2159" y2="124.4472" gradientTransform="matrix(1 0 0 -1 0 306.78)">
			<stop  offset="0.33" style="stop-color:#FFFFFF"/>
			<stop  offset="1" style="stop-color:#E5E4B9"/>
		</linearGradient>
		<polygon class="st18" points="86.3,103.2 64.9,81.6 56.3,90.2 86.3,120.4 86.3,137.9 47.5,98.9 38.9,107.5 86.3,155 86.3,229.4 
			98.5,229.4 98.5,81.4 86.3,81.4 		"/>
		
			<linearGradient id="SVGID_20_" gradientUnits="userSpaceOnUse" x1="68.6225" y1="225.755" x2="68.6225" y2="77.005" gradientTransform="matrix(1 0 0 -1 0 306.78)">
			<stop  offset="0" style="stop-color:#FFFFFF"/>
			<stop  offset="1" style="stop-color:#8F8B60"/>
		</linearGradient>
		<polygon class="st19" points="86.3,103.2 64.9,81.6 56.3,90.2 86.3,120.4 86.3,137.9 47.5,98.9 38.9,107.5 86.3,155 86.3,229.4 
			98.5,229.4 98.5,81.4 86.3,81.4 		"/>
		
			<image style="overflow:visible;opacity:0.8;enable-background:new    ;" width="66" height="54" xlink:href="E246A8078E290551.png"  transform="matrix(0.9926 0 0 0.9926 208.2437 145.6912)">
		</image>
		
			<linearGradient id="SVGID_21_" gradientUnits="userSpaceOnUse" x1="242.9" y1="125.6182" x2="242.9" y2="147.1582" gradientTransform="matrix(1 0 0 -1 0 306.78)">
			<stop  offset="0" style="stop-color:#ECDA89"/>
			<stop  offset="1" style="stop-color:#FDF9E1"/>
		</linearGradient>
		<polygon class="st20" points="261.5,152.4 253.7,181.1 244.6,152.4 240.1,152.4 241.3,156 232,181.1 224.2,152.4 219.4,152.4 
			229.3,186.7 234.1,186.7 243.4,161.9 251.6,186.7 256.5,186.7 266.4,152.4 		"/>
		
			<linearGradient id="SVGID_22_" gradientUnits="userSpaceOnUse" x1="261.0063" y1="124.1495" x2="224.7909" y2="160.3548" gradientTransform="matrix(1 0 0 -1 0 306.78)">
			<stop  offset="0" style="stop-color:#FFE59C"/>
			<stop  offset="2.000000e-02" style="stop-color:#F7DF98"/>
			<stop  offset="0.11" style="stop-color:#DCCC8C"/>
			<stop  offset="0.2" style="stop-color:#C8BD82"/>
			<stop  offset="0.29" style="stop-color:#BCB57D"/>
			<stop  offset="0.38" style="stop-color:#B8B27B"/>
			<stop  offset="0.5" style="stop-color:#D0CC8A"/>
			<stop  offset="0.68" style="stop-color:#FFFFA6"/>
			<stop  offset="0.73" style="stop-color:#F9F9A2"/>
			<stop  offset="0.79" style="stop-color:#E7E797"/>
			<stop  offset="0.86" style="stop-color:#CBC985"/>
			<stop  offset="0.95" style="stop-color:#A3A06C"/>
			<stop  offset="1" style="stop-color:#858159"/>
		</linearGradient>
		<polygon class="st21" points="261.5,152.4 253.7,181.1 244.6,152.4 240.1,152.4 241.3,156 232,181.1 224.2,152.4 219.4,152.4 
			229.3,186.7 234.1,186.7 243.4,161.9 251.6,186.7 256.5,186.7 266.4,152.4 		"/>
		
			<image style="overflow:visible;opacity:0.8;enable-background:new    ;" width="55" height="56" xlink:href="E246A8078E290557.png"  transform="matrix(0.991 0 0 0.991 274.2488 144.7452)">
		</image>
		
			<linearGradient id="SVGID_23_" gradientUnits="userSpaceOnUse" x1="341.5019" y1="120.0782" x2="341.5019" y2="142.2482" gradientTransform="matrix(1 0 0 -1 -38 301.58)">
			<stop  offset="0" style="stop-color:#ECDA89"/>
			<stop  offset="1" style="stop-color:#FDF9E1"/>
		</linearGradient>
		<path class="st22" d="M303.5,151.9c-9.8,0-17.7,7.9-17.7,17.7s7.9,17.7,17.7,17.7c9.8,0,17.7-7.9,17.7-17.7
			c0.2-9.6-7.4-17.5-16.9-17.7C304,151.9,303.8,151.9,303.5,151.9z M303.5,182.9c-7.4,0.1-13.5-5.8-13.6-13.2s5.8-13.5,13.2-13.6
			c7.4-0.1,13.5,5.8,13.6,13.2c0,0.1,0,0.1,0,0.2c0.2,7.2-5.4,13.2-12.6,13.4C303.9,182.9,303.7,182.9,303.5,182.9L303.5,182.9z"/>
		
			<linearGradient id="SVGID_24_" gradientUnits="userSpaceOnUse" x1="354.3106" y1="119.2787" x2="328.7506" y2="144.8387" gradientTransform="matrix(1 0 0 -1 -38 301.58)">
			<stop  offset="0" style="stop-color:#FFE59C"/>
			<stop  offset="2.000000e-02" style="stop-color:#F7DF98"/>
			<stop  offset="0.11" style="stop-color:#DCCC8C"/>
			<stop  offset="0.2" style="stop-color:#C8BD82"/>
			<stop  offset="0.29" style="stop-color:#BCB57D"/>
			<stop  offset="0.38" style="stop-color:#B8B27B"/>
			<stop  offset="0.5" style="stop-color:#D0CC8A"/>
			<stop  offset="0.68" style="stop-color:#FFFFA6"/>
			<stop  offset="0.73" style="stop-color:#F9F9A2"/>
			<stop  offset="0.79" style="stop-color:#E7E797"/>
			<stop  offset="0.86" style="stop-color:#CBC985"/>
			<stop  offset="0.95" style="stop-color:#A3A06C"/>
			<stop  offset="1" style="stop-color:#858159"/>
		</linearGradient>
		<path class="st23" d="M303.5,151.9c-9.8,0-17.7,7.9-17.7,17.7s7.9,17.7,17.7,17.7c9.8,0,17.7-7.9,17.7-17.7
			c0.2-9.6-7.4-17.5-16.9-17.7C304,151.9,303.8,151.9,303.5,151.9z M303.5,182.9c-7.4,0.1-13.5-5.8-13.6-13.2s5.8-13.5,13.2-13.6
			c7.4-0.1,13.5,5.8,13.6,13.2c0,0.1,0,0.1,0,0.2c0.2,7.2-5.4,13.2-12.6,13.4C303.9,182.9,303.7,182.9,303.5,182.9L303.5,182.9z"/>
		
			<image style="overflow:visible;opacity:0.8;enable-background:new    ;" width="54" height="56" xlink:href="E246A8078E290552.png"  transform="matrix(0.9908 0 0 0.9908 331.2487 144.7498)">
		</image>
		
			<linearGradient id="SVGID_25_" gradientUnits="userSpaceOnUse" x1="398.0019" y1="120.0782" x2="398.0019" y2="142.2482" gradientTransform="matrix(1 0 0 -1 -38 301.58)">
			<stop  offset="0" style="stop-color:#ECDA89"/>
			<stop  offset="1" style="stop-color:#FDF9E1"/>
		</linearGradient>
		<path class="st24" d="M360,151.9c-9.8,0-17.7,7.9-17.7,17.7s7.9,17.7,17.7,17.7c9.8,0,17.7-7.9,17.7-17.7
			c0.2-9.6-7.4-17.5-16.9-17.7C360.5,151.9,360.2,151.9,360,151.9z M360,182.9c-7.4,0.1-13.5-5.8-13.6-13.2s5.8-13.5,13.2-13.6
			c7.4-0.1,13.5,5.8,13.6,13.2c0,0.1,0,0.1,0,0.2c0.2,7.2-5.4,13.2-12.6,13.4C360.4,182.9,360.2,182.9,360,182.9L360,182.9z"/>
		
			<linearGradient id="SVGID_26_" gradientUnits="userSpaceOnUse" x1="410.798" y1="119.2862" x2="385.2481" y2="144.8462" gradientTransform="matrix(1 0 0 -1 -38 301.58)">
			<stop  offset="0" style="stop-color:#FFE59C"/>
			<stop  offset="2.000000e-02" style="stop-color:#F7DF98"/>
			<stop  offset="0.11" style="stop-color:#DCCC8C"/>
			<stop  offset="0.2" style="stop-color:#C8BD82"/>
			<stop  offset="0.29" style="stop-color:#BCB57D"/>
			<stop  offset="0.38" style="stop-color:#B8B27B"/>
			<stop  offset="0.5" style="stop-color:#D0CC8A"/>
			<stop  offset="0.68" style="stop-color:#FFFFA6"/>
			<stop  offset="0.73" style="stop-color:#F9F9A2"/>
			<stop  offset="0.79" style="stop-color:#E7E797"/>
			<stop  offset="0.86" style="stop-color:#CBC985"/>
			<stop  offset="0.95" style="stop-color:#A3A06C"/>
			<stop  offset="1" style="stop-color:#858159"/>
		</linearGradient>
		<path class="st25" d="M360,151.9c-9.8,0-17.7,7.9-17.7,17.7s7.9,17.7,17.7,17.7c9.8,0,17.7-7.9,17.7-17.7
			c0.2-9.6-7.4-17.5-16.9-17.7C360.5,151.9,360.2,151.9,360,151.9z M360,182.9c-7.4,0.1-13.5-5.8-13.6-13.2s5.8-13.5,13.2-13.6
			c7.4-0.1,13.5,5.8,13.6,13.2c0,0.1,0,0.1,0,0.2c0.2,7.2-5.4,13.2-12.6,13.4C360.4,182.9,360.2,182.9,360,182.9L360,182.9z"/>
		
			<image style="overflow:visible;opacity:0.8;enable-background:new    ;" width="49" height="54" xlink:href="E246A8078E29054D.png"  transform="matrix(0.9899 0 0 0.9899 389.2478 145.7649)">
		</image>
		
			<linearGradient id="SVGID_27_" gradientUnits="userSpaceOnUse" x1="453.55" y1="120.4182" x2="453.55" y2="141.9582" gradientTransform="matrix(1 0 0 -1 -38 301.58)">
			<stop  offset="0" style="stop-color:#ECDA89"/>
			<stop  offset="1" style="stop-color:#FDF9E1"/>
		</linearGradient>
		<path class="st26" d="M413.2,152.4h-12.1v34.3h12.1c10.2,0,16.8-7.1,16.8-17.2S423.5,152.4,413.2,152.4z M413.2,182.6h-7.7v-26
			h7.7c7.7,0,12.3,5.6,12.3,13S420.9,182.6,413.2,182.6z"/>
		
			<linearGradient id="SVGID_28_" gradientUnits="userSpaceOnUse" x1="462.5013" y1="118.3528" x2="435.1709" y2="145.6932" gradientTransform="matrix(1 0 0 -1 -38 301.58)">
			<stop  offset="0" style="stop-color:#FFE59C"/>
			<stop  offset="2.000000e-02" style="stop-color:#F7DF98"/>
			<stop  offset="0.11" style="stop-color:#DCCC8C"/>
			<stop  offset="0.2" style="stop-color:#C8BD82"/>
			<stop  offset="0.29" style="stop-color:#BCB57D"/>
			<stop  offset="0.38" style="stop-color:#B8B27B"/>
			<stop  offset="0.5" style="stop-color:#D0CC8A"/>
			<stop  offset="0.68" style="stop-color:#FFFFA6"/>
			<stop  offset="0.73" style="stop-color:#F9F9A2"/>
			<stop  offset="0.79" style="stop-color:#E7E797"/>
			<stop  offset="0.86" style="stop-color:#CBC985"/>
			<stop  offset="0.95" style="stop-color:#A3A06C"/>
			<stop  offset="1" style="stop-color:#858159"/>
		</linearGradient>
		<path class="st27" d="M413.2,152.4h-12.1v34.3h12.1c10.2,0,16.8-7.1,16.8-17.2S423.5,152.4,413.2,152.4z M413.2,182.6h-7.7v-26
			h7.7c7.7,0,12.3,5.6,12.3,13S420.9,182.6,413.2,182.6z"/>
		
			<image style="overflow:visible;opacity:0.8;enable-background:new    ;" width="37" height="54" xlink:href="E246A8078E29054E.png"  transform="matrix(0.9874 0 0 0.9874 471.2325 145.831)">
		</image>
		
			<linearGradient id="SVGID_29_" gradientUnits="userSpaceOnUse" x1="491.45" y1="125.6182" x2="491.45" y2="147.1582" gradientTransform="matrix(1 0 0 -1 0 306.78)">
			<stop  offset="0" style="stop-color:#ECDA89"/>
			<stop  offset="1" style="stop-color:#FDF9E1"/>
		</linearGradient>
		<polygon class="st28" points="500.7,156.5 500.7,152.4 482.2,152.4 482.2,186.7 486.6,186.7 486.6,172.9 499.7,172.9 499.7,168.7 
			486.6,168.7 486.6,156.5 		"/>
		
			<linearGradient id="SVGID_30_" gradientUnits="userSpaceOnUse" x1="497.85" y1="130.83" x2="478.02" y2="150.66" gradientTransform="matrix(1 0 0 -1 0 306.78)">
			<stop  offset="0" style="stop-color:#FFE59C"/>
			<stop  offset="2.000000e-02" style="stop-color:#F7DF98"/>
			<stop  offset="0.11" style="stop-color:#DCCC8C"/>
			<stop  offset="0.2" style="stop-color:#C8BD82"/>
			<stop  offset="0.29" style="stop-color:#BCB57D"/>
			<stop  offset="0.38" style="stop-color:#B8B27B"/>
			<stop  offset="0.5" style="stop-color:#D0CC8A"/>
			<stop  offset="0.68" style="stop-color:#FFFFA6"/>
			<stop  offset="0.73" style="stop-color:#F9F9A2"/>
			<stop  offset="0.79" style="stop-color:#E7E797"/>
			<stop  offset="0.86" style="stop-color:#CBC985"/>
			<stop  offset="0.95" style="stop-color:#A3A06C"/>
			<stop  offset="1" style="stop-color:#858159"/>
		</linearGradient>
		<polygon class="st29" points="500.7,156.5 500.7,152.4 482.2,152.4 482.2,186.7 486.6,186.7 486.6,172.9 499.7,172.9 499.7,168.7 
			486.6,168.7 486.6,156.5 		"/>
		
			<image style="overflow:visible;opacity:0.8;enable-background:new    ;" width="38" height="54" xlink:href="E246A8078E29054F.png"  transform="matrix(0.9877 0 0 0.9877 512.2346 145.8252)">
		</image>
		
			<linearGradient id="SVGID_31_" gradientUnits="userSpaceOnUse" x1="533.45" y1="125.6182" x2="533.45" y2="147.1582" gradientTransform="matrix(1 0 0 -1 0 306.78)">
			<stop  offset="0" style="stop-color:#ECDA89"/>
			<stop  offset="1" style="stop-color:#FDF9E1"/>
		</linearGradient>
		<polygon class="st30" points="528.6,182.6 528.6,152.4 524.2,152.4 524.2,186.7 542.7,186.7 542.7,182.6 		"/>
		
			<linearGradient id="SVGID_32_" gradientUnits="userSpaceOnUse" x1="543.375" y1="120.255" x2="516.475" y2="147.155" gradientTransform="matrix(1 0 0 -1 0 306.78)">
			<stop  offset="0" style="stop-color:#FFE59C"/>
			<stop  offset="2.000000e-02" style="stop-color:#F7DF98"/>
			<stop  offset="0.11" style="stop-color:#DCCC8C"/>
			<stop  offset="0.2" style="stop-color:#C8BD82"/>
			<stop  offset="0.29" style="stop-color:#BCB57D"/>
			<stop  offset="0.38" style="stop-color:#B8B27B"/>
			<stop  offset="0.5" style="stop-color:#D0CC8A"/>
			<stop  offset="0.68" style="stop-color:#FFFFA6"/>
			<stop  offset="0.73" style="stop-color:#F9F9A2"/>
			<stop  offset="0.79" style="stop-color:#E7E797"/>
			<stop  offset="0.86" style="stop-color:#CBC985"/>
			<stop  offset="0.95" style="stop-color:#A3A06C"/>
			<stop  offset="1" style="stop-color:#858159"/>
		</linearGradient>
		<polygon class="st31" points="528.6,182.6 528.6,152.4 524.2,152.4 524.2,186.7 542.7,186.7 542.7,182.6 		"/>
		
			<image style="overflow:visible;opacity:0.8;enable-background:new    ;" width="54" height="56" xlink:href="E246A8078E290571.png"  transform="matrix(0.9908 0 0 0.9908 550.2488 144.7498)">
		</image>
		
			<linearGradient id="SVGID_33_" gradientUnits="userSpaceOnUse" x1="617.1019" y1="120.0782" x2="617.1019" y2="142.2482" gradientTransform="matrix(1 0 0 -1 -38 301.58)">
			<stop  offset="0" style="stop-color:#ECDA89"/>
			<stop  offset="1" style="stop-color:#FDF9E1"/>
		</linearGradient>
		<path class="st32" d="M579.1,151.9c-9.8,0-17.7,7.9-17.7,17.7s7.9,17.7,17.7,17.7s17.7-7.9,17.7-17.7l0,0
			c0.2-9.6-7.4-17.5-16.9-17.7C579.6,151.9,579.3,151.9,579.1,151.9z M579.1,182.9c-7.4,0.1-13.5-5.8-13.6-13.2s5.8-13.5,13.2-13.6
			s13.5,5.8,13.6,13.2c0,0.1,0,0.1,0,0.2c0.2,7.2-5.4,13.2-12.6,13.4C579.5,182.9,579.3,182.9,579.1,182.9L579.1,182.9z"/>
		
			<linearGradient id="SVGID_34_" gradientUnits="userSpaceOnUse" x1="629.8831" y1="119.3012" x2="604.333" y2="144.8612" gradientTransform="matrix(1 0 0 -1 -38 301.58)">
			<stop  offset="0" style="stop-color:#FFE59C"/>
			<stop  offset="2.000000e-02" style="stop-color:#F7DF98"/>
			<stop  offset="0.11" style="stop-color:#DCCC8C"/>
			<stop  offset="0.2" style="stop-color:#C8BD82"/>
			<stop  offset="0.29" style="stop-color:#BCB57D"/>
			<stop  offset="0.38" style="stop-color:#B8B27B"/>
			<stop  offset="0.5" style="stop-color:#D0CC8A"/>
			<stop  offset="0.68" style="stop-color:#FFFFA6"/>
			<stop  offset="0.73" style="stop-color:#F9F9A2"/>
			<stop  offset="0.79" style="stop-color:#E7E797"/>
			<stop  offset="0.86" style="stop-color:#CBC985"/>
			<stop  offset="0.95" style="stop-color:#A3A06C"/>
			<stop  offset="1" style="stop-color:#858159"/>
		</linearGradient>
		<path class="st33" d="M579.1,151.9c-9.8,0-17.7,7.9-17.7,17.7s7.9,17.7,17.7,17.7s17.7-7.9,17.7-17.7l0,0
			c0.2-9.6-7.4-17.5-16.9-17.7C579.6,151.9,579.3,151.9,579.1,151.9z M579.1,182.9c-7.4,0.1-13.5-5.8-13.6-13.2s5.8-13.5,13.2-13.6
			s13.5,5.8,13.6,13.2c0,0.1,0,0.1,0,0.2c0.2,7.2-5.4,13.2-12.6,13.4C579.5,182.9,579.3,182.9,579.1,182.9L579.1,182.9z"/>
		
			<image style="overflow:visible;opacity:0.8;enable-background:new    ;" width="55" height="56" xlink:href="E246A8078E290573.png"  transform="matrix(0.991 0 0 0.991 606.2488 144.7452)">
		</image>
		
			<linearGradient id="SVGID_35_" gradientUnits="userSpaceOnUse" x1="673.502" y1="120.0782" x2="673.502" y2="142.2482" gradientTransform="matrix(1 0 0 -1 -38 301.58)">
			<stop  offset="0" style="stop-color:#ECDA89"/>
			<stop  offset="1" style="stop-color:#FDF9E1"/>
		</linearGradient>
		<path class="st34" d="M635.5,151.9c-9.8,0-17.7,7.9-17.7,17.7s7.9,17.7,17.7,17.7s17.7-7.9,17.7-17.7l0,0
			c0.2-9.6-7.4-17.5-16.9-17.7C636,151.9,635.8,151.9,635.5,151.9z M635.5,182.9c-7.4,0.1-13.5-5.8-13.6-13.2s5.8-13.5,13.2-13.6
			s13.5,5.8,13.6,13.2c0,0.1,0,0.1,0,0.2c0.2,7.2-5.4,13.2-12.6,13.4C636,182.9,635.8,182.9,635.5,182.9L635.5,182.9z"/>
		
			<linearGradient id="SVGID_36_" gradientUnits="userSpaceOnUse" x1="686.3305" y1="119.2587" x2="660.7705" y2="144.8187" gradientTransform="matrix(1 0 0 -1 -38 301.58)">
			<stop  offset="0" style="stop-color:#FFE59C"/>
			<stop  offset="2.000000e-02" style="stop-color:#F7DF98"/>
			<stop  offset="0.11" style="stop-color:#DCCC8C"/>
			<stop  offset="0.2" style="stop-color:#C8BD82"/>
			<stop  offset="0.29" style="stop-color:#BCB57D"/>
			<stop  offset="0.38" style="stop-color:#B8B27B"/>
			<stop  offset="0.5" style="stop-color:#D0CC8A"/>
			<stop  offset="0.68" style="stop-color:#FFFFA6"/>
			<stop  offset="0.73" style="stop-color:#F9F9A2"/>
			<stop  offset="0.79" style="stop-color:#E7E797"/>
			<stop  offset="0.86" style="stop-color:#CBC985"/>
			<stop  offset="0.95" style="stop-color:#A3A06C"/>
			<stop  offset="1" style="stop-color:#858159"/>
		</linearGradient>
		<path class="st35" d="M635.5,151.9c-9.8,0-17.7,7.9-17.7,17.7s7.9,17.7,17.7,17.7s17.7-7.9,17.7-17.7l0,0
			c0.2-9.6-7.4-17.5-16.9-17.7C636,151.9,635.8,151.9,635.5,151.9z M635.5,182.9c-7.4,0.1-13.5-5.8-13.6-13.2s5.8-13.5,13.2-13.6
			s13.5,5.8,13.6,13.2c0,0.1,0,0.1,0,0.2c0.2,7.2-5.4,13.2-12.6,13.4C636,182.9,635.8,182.9,635.5,182.9L635.5,182.9z"/>
		
			<image style="overflow:visible;opacity:0.8;enable-background:new    ;" width="42" height="54" xlink:href="E246A8078E290576.png"  transform="matrix(0.9885 0 0 0.9885 665.2415 145.8022)">
		</image>
		
			<linearGradient id="SVGID_37_" gradientUnits="userSpaceOnUse" x1="726.0499" y1="120.4182" x2="726.0499" y2="141.9582" gradientTransform="matrix(1 0 0 -1 -38 301.58)">
			<stop  offset="0" style="stop-color:#ECDA89"/>
			<stop  offset="1" style="stop-color:#FDF9E1"/>
		</linearGradient>
		<path class="st36" d="M690.6,170.8c4-1,7.1-3.8,7.1-8.8c0-6.1-4.4-9.6-10.8-9.6h-10.2v34.3h4.3v-14.3h3.6c4.5,0,8.8,5.8,10.3,14.3
			h4.5C698.2,178.6,694.7,172.7,690.6,170.8z M686.8,168.2H681v-11.7h5.8c3.6,0,6.3,2.2,6.3,5.9S690.4,168.2,686.8,168.2
			L686.8,168.2z"/>
		
			<linearGradient id="SVGID_38_" gradientUnits="userSpaceOnUse" x1="738.7383" y1="115.6786" x2="709.683" y2="144.7339" gradientTransform="matrix(1 0 0 -1 -38 301.58)">
			<stop  offset="0" style="stop-color:#FFE59C"/>
			<stop  offset="2.000000e-02" style="stop-color:#F7DF98"/>
			<stop  offset="0.11" style="stop-color:#DCCC8C"/>
			<stop  offset="0.2" style="stop-color:#C8BD82"/>
			<stop  offset="0.29" style="stop-color:#BCB57D"/>
			<stop  offset="0.38" style="stop-color:#B8B27B"/>
			<stop  offset="0.5" style="stop-color:#D0CC8A"/>
			<stop  offset="0.68" style="stop-color:#FFFFA6"/>
			<stop  offset="0.73" style="stop-color:#F9F9A2"/>
			<stop  offset="0.79" style="stop-color:#E7E797"/>
			<stop  offset="0.86" style="stop-color:#CBC985"/>
			<stop  offset="0.95" style="stop-color:#A3A06C"/>
			<stop  offset="1" style="stop-color:#858159"/>
		</linearGradient>
		<path class="st37" d="M690.6,170.8c4-1,7.1-3.8,7.1-8.8c0-6.1-4.4-9.6-10.8-9.6h-10.2v34.3h4.3v-14.3h3.6c4.5,0,8.8,5.8,10.3,14.3
			h4.5C698.2,178.6,694.7,172.7,690.6,170.8z M686.8,168.2H681v-11.7h5.8c3.6,0,6.3,2.2,6.3,5.9S690.4,168.2,686.8,168.2
			L686.8,168.2z"/>
		
			<image style="overflow:visible;opacity:0.8;enable-background:new    ;" width="39" height="56" xlink:href="E246A8078E29056A.png"  transform="matrix(0.988 0 0 0.988 709.2338 144.8275)">
		</image>
		
			<linearGradient id="SVGID_39_" gradientUnits="userSpaceOnUse" x1="768.5" y1="120.0782" x2="768.5" y2="142.2482" gradientTransform="matrix(1 0 0 -1 -38 301.58)">
			<stop  offset="0" style="stop-color:#ECDA89"/>
			<stop  offset="1" style="stop-color:#FDF9E1"/>
		</linearGradient>
		<path class="st38" d="M738.7,158.7c-2.1-1.7-4.8-2.6-7.5-2.7c-3.7,0-6,1.9-6,4.8c0,1.8,1,3.2,3.2,4.5l6,3.7
			c4.2,2.7,5.8,5.2,5.8,8.8c0,4.9-3.6,9.3-10.8,9.3c-2.9,0-5.8-0.7-8.4-2.1v-5.1c2.3,2,5.3,3,8.3,3.1c4.1,0,6.4-2.4,6.4-5
			c0-1.8-1.2-3.5-3.7-5l-5.9-3.8c-3.9-2.4-5.3-5-5.3-8.4c0-4.4,3-9,10.8-9c2.6,0,5.1,0.6,7.4,1.9L738.7,158.7z"/>
		
			<linearGradient id="SVGID_40_" gradientUnits="userSpaceOnUse" x1="779.4384" y1="120.7968" x2="757.0318" y2="143.1935" gradientTransform="matrix(1 0 0 -1 -38 301.58)">
			<stop  offset="0" style="stop-color:#FFE59C"/>
			<stop  offset="2.000000e-02" style="stop-color:#F7DF98"/>
			<stop  offset="0.11" style="stop-color:#DCCC8C"/>
			<stop  offset="0.2" style="stop-color:#C8BD82"/>
			<stop  offset="0.29" style="stop-color:#BCB57D"/>
			<stop  offset="0.38" style="stop-color:#B8B27B"/>
			<stop  offset="0.5" style="stop-color:#D0CC8A"/>
			<stop  offset="0.68" style="stop-color:#FFFFA6"/>
			<stop  offset="0.73" style="stop-color:#F9F9A2"/>
			<stop  offset="0.79" style="stop-color:#E7E797"/>
			<stop  offset="0.86" style="stop-color:#CBC985"/>
			<stop  offset="0.95" style="stop-color:#A3A06C"/>
			<stop  offset="1" style="stop-color:#858159"/>
		</linearGradient>
		<path class="st39" d="M738.7,158.7c-2.1-1.7-4.8-2.6-7.5-2.7c-3.7,0-6,1.9-6,4.8c0,1.8,1,3.2,3.2,4.5l6,3.7
			c4.2,2.7,5.8,5.2,5.8,8.8c0,4.9-3.6,9.3-10.8,9.3c-2.9,0-5.8-0.7-8.4-2.1v-5.1c2.3,2,5.3,3,8.3,3.1c4.1,0,6.4-2.4,6.4-5
			c0-1.8-1.2-3.5-3.7-5l-5.9-3.8c-3.9-2.4-5.3-5-5.3-8.4c0-4.4,3-9,10.8-9c2.6,0,5.1,0.6,7.4,1.9L738.7,158.7z"/>
	</g>
</g>
<g>
	<g class="st40">
		<path d="M675.7,225c0-0.3,0-0.5,0.1-0.7c0.1-0.2,0.2-0.4,0.4-0.6c0.2-0.2,0.4-0.3,0.6-0.4c0.2-0.1,0.5-0.1,0.7-0.1
			c0.3,0,0.5,0,0.7,0.1c0.2,0.1,0.4,0.2,0.6,0.4c0.2,0.2,0.3,0.4,0.4,0.6c0.1,0.2,0.1,0.5,0.1,0.7c0,0.3,0,0.5-0.1,0.7
			c-0.1,0.2-0.2,0.4-0.4,0.6c-0.2,0.2-0.4,0.3-0.6,0.4s-0.5,0.1-0.7,0.1c-0.3,0-0.5,0-0.7-0.1c-0.2-0.1-0.4-0.2-0.6-0.4
			c-0.2-0.2-0.3-0.4-0.4-0.6C675.8,225.5,675.7,225.3,675.7,225z"/>
		<path d="M688.2,208.9c0.1,0,0.2,0,0.3,0.1c0.1,0,0.2,0.1,0.2,0.2c0.1,0.1,0.2,0.2,0.2,0.3l9.3,11.9c0-0.3,0-0.6-0.1-0.8
			c0-0.3,0-0.5,0-0.8v-10.8h2.9v17.7h-1.7c-0.3,0-0.5,0-0.7-0.1c-0.2-0.1-0.3-0.2-0.5-0.4l-9.3-11.8c0,0.3,0,0.5,0.1,0.8
			c0,0.3,0,0.5,0,0.7v10.9h-2.9v-17.7h1.7C688,208.9,688.1,208.9,688.2,208.9z"/>
		<path d="M719.9,208.9v2.6H712v4.9h6.2v2.5H712v5h7.9v2.6h-11.2v-17.7H719.9z"/>
		<path d="M738.9,208.9v2.7h-5.3v15h-3.3v-15h-5.3v-2.7H738.9z"/>
	</g>
	<g>
		<g>
			<path class="st41" d="M674.7,224c0-0.3,0-0.5,0.1-0.7c0.1-0.2,0.2-0.4,0.4-0.6c0.2-0.2,0.4-0.3,0.6-0.4c0.2-0.1,0.5-0.1,0.7-0.1
				c0.3,0,0.5,0,0.7,0.1c0.2,0.1,0.4,0.2,0.6,0.4c0.2,0.2,0.3,0.4,0.4,0.6c0.1,0.2,0.1,0.5,0.1,0.7c0,0.3,0,0.5-0.1,0.7
				c-0.1,0.2-0.2,0.4-0.4,0.6c-0.2,0.2-0.4,0.3-0.6,0.4s-0.5,0.1-0.7,0.1c-0.3,0-0.5,0-0.7-0.1c-0.2-0.1-0.4-0.2-0.6-0.4
				c-0.2-0.2-0.3-0.4-0.4-0.6C674.8,224.5,674.7,224.3,674.7,224z"/>
			<path class="st41" d="M687.2,207.9c0.1,0,0.2,0,0.3,0.1c0.1,0,0.2,0.1,0.2,0.2c0.1,0.1,0.2,0.2,0.2,0.3l9.3,11.9
				c0-0.3,0-0.6-0.1-0.8c0-0.3,0-0.5,0-0.8v-10.8h2.9v17.7h-1.7c-0.3,0-0.5,0-0.7-0.1c-0.2-0.1-0.3-0.2-0.5-0.4l-9.3-11.8
				c0,0.3,0,0.5,0.1,0.8c0,0.3,0,0.5,0,0.7v10.9h-2.9v-17.7h1.7C687,207.9,687.1,207.9,687.2,207.9z"/>
			<path class="st41" d="M718.9,207.9v2.6H711v4.9h6.2v2.5H711v5h7.9v2.6h-11.2v-17.7H718.9z"/>
			<path class="st41" d="M737.9,207.9v2.7h-5.3v15h-3.3v-15h-5.3v-2.7H737.9z"/>
		</g>
	</g>
</g>
</svg>
