<svg width="72" height="40" viewBox="0 0 72 40" xmlns="http://www.w3.org/2000/svg">
    <g fill="none" fill-rule="evenodd">
        <path d="M33.105 9.535V30.48a4.613 4.613 0 0 1-9.226 0v-9.821L7.85 36.669a4.61 4.61 0 0 1-6.523-6.516l16.029-16.01H7.524a4.608 4.608 0 1 1 0-9.215h20.968a4.61 4.61 0 0 1 4.613 4.607z" fill="#FFF"/>
        <path d="m69.884 9.86-16.03 16.012h9.832a4.608 4.608 0 1 1 0 9.215H42.718a4.611 4.611 0 0 1-4.613-4.608V9.535a4.613 4.613 0 0 1 9.226 0v9.821l16.03-16.011a4.61 4.61 0 0 1 6.523 6.516z" fill="#FF7900"/>
    </g>
</svg>
