<svg xmlns="http://www.w3.org/2000/svg" xmlns:xlink="http://www.w3.org/1999/xlink" width="263" height="84" viewBox="0 0 263 84">
  <defs>
    <clipPath id="clip-path">
      <rect id="Rectangle_425" data-name="Rectangle 425" width="260" height="108" transform="translate(-0.189 0.336)"/>
    </clipPath>
    <clipPath id="clip-Azlogo_white">
      <rect width="263" height="84"/>
    </clipPath>
  </defs>
  <g id="Azlogo_white" data-name="Azlogo white" clip-path="url(#clip-Azlogo_white)">
    <g id="_300x125" data-name="300x125" transform="translate(2.189 -0.336)" clip-path="url(#clip-path)">
      <g id="overhead_door_salt_lake_logo" transform="translate(0.868 1.733)">
        <g id="logo" transform="translate(0 0)">
          <path id="Path_4378" d="M15.775,18.145v10.7c0,1.784,0,2.348,2.066,2.348v.376H10.329V31.2c2.066,0,2.066-.563,2.066-2.348v-10.7H11.267c-1.6,0-2.535.469-3.1,3.005H7.7V17.3H20.47v3.85h-.376c-.563-2.535-1.5-3.005-3.1-3.005Z" transform="translate(-3.287 -16.971)" fill="#fff"/>
          <path id="Path_4379" d="M27.026,23.034a3.8,3.8,0,0,1,2.817-1.6c2.159,0,2.723,1.6,2.723,3.944v3.944c0,.939,0,1.878,1.033,1.878v.376H28.622V31.2c.939,0,.939-.939.939-1.878V25.288c0-1.409,0-2.441-.939-2.441-.658,0-1.314.751-1.6,1.314v5.164c0,.939,0,1.878.939,1.878v.376H22.987V31.2c1.033,0,1.033-.939,1.033-1.878V19.656c0-1.128,0-1.878-1.221-1.878V17.4h4.131v5.634Z" transform="translate(-4.208 -16.978)" fill="#fff"/>
          <path id="Path_4380" d="M38.517,25.931c0-1.6.282-3.383,1.5-3.383,1.314,0,1.314,2.348,1.314,3.383Zm5.446.751c0-2.348-1.221-4.882-3.662-4.882-2.911,0-4.6,2.441-4.6,5.258,0,2.723,1.221,5.258,4.226,5.258,2.066,0,3.193-1.221,4.037-3.005l-.376-.282a2.577,2.577,0,0,1-2.256,1.6c-1.972,0-2.817-2.348-2.817-3.944Z" transform="translate(-4.996 -17.246)" fill="#fff"/>
          <path id="Path_4381" d="M65.685,21.975h-.377A5.7,5.7,0,0,0,60.05,17.75c-3.662,0-4.6,3.662-4.6,6.667,0,3.1.751,6.572,4.511,6.572a6.965,6.965,0,0,0,2.348-.469V28.264c0-1.784,0-2.348-2.066-2.348v-.376h7.043v.376c-1.69,0-1.69.563-1.69,2.348v2.442c-1.784,1.128-4.7,1.221-6.1,1.221-4.6,0-7.888-3.1-7.888-7.23a7.715,7.715,0,0,1,7.6-7.7h.282a7.661,7.661,0,0,1,3.193.563,3.117,3.117,0,0,0,1.5.469c.563,0,.845-.563,1.033-1.033h.376Z" transform="translate(-5.967 -16.952)" fill="#fff"/>
          <path id="Path_4382" d="M72.317,25.931c0-1.6.282-3.383,1.5-3.383,1.314,0,1.314,2.348,1.314,3.383Zm5.446.751c0-2.348-1.221-4.882-3.662-4.882-2.911,0-4.6,2.441-4.6,5.258,0,2.723,1.221,5.258,4.226,5.258,2.066,0,3.192-1.221,4.037-3.005l-.376-.282a2.577,2.577,0,0,1-2.256,1.6c-1.972,0-2.817-2.348-2.817-3.944Z" transform="translate(-7.059 -17.246)" fill="#fff"/>
          <path id="Path_4383" d="M83.726,23.3a3.8,3.8,0,0,1,2.817-1.6c2.159,0,2.723,1.6,2.723,3.944v3.944c0,.939,0,1.878,1.033,1.878v.376H85.322v-.376c.939,0,.939-.939.939-1.878V25.55c0-1.409,0-2.441-.939-2.441-.658,0-1.314.751-1.6,1.314v5.164c0,.939,0,1.878.939,1.878v.376H79.687v-.376c1.033,0,1.033-.939,1.033-1.878V24.329c0-1.128,0-1.878-1.221-1.878v-.376h4.226Z" transform="translate(-7.669 -17.24)" fill="#fff"/>
          <path id="Path_4384" d="M101.471,29.606c0,1.221,0,1.878,1.128,1.878v.376H98.561V30.639h0a3.6,3.6,0,0,1-2.911,1.5c-1.69,0-2.629-1.314-2.629-3.192V24.256c0-1.128,0-1.878-1.221-1.878V22h4.131v6.948c0,.751,0,1.784.939,1.784.751,0,1.314-.751,1.69-1.314v-5.07c0-1.128,0-1.878-1.221-1.878v-.376h4.131Z" transform="translate(-8.419 -17.258)" fill="#fff"/>
          <path id="Path_4385" d="M108.531,29.3c0,1.221,0,1.878,1.128,1.878v.376H104.4v-.376c1.221,0,1.221-.658,1.221-1.878V24.043c0-1.128,0-1.878-1.221-1.878v-.376h4.131Zm-1.5-12.3a1.582,1.582,0,0,1,1.6,1.6,1.648,1.648,0,0,1-1.6,1.6,1.582,1.582,0,0,1-1.6-1.6,1.648,1.648,0,0,1,1.6-1.6Z" transform="translate(-9.188 -16.953)" fill="#fff"/>
          <path id="Path_4386" d="M115.126,23.3a3.8,3.8,0,0,1,2.817-1.6c2.159,0,2.723,1.6,2.723,3.944v3.944c0,.939,0,1.878,1.033,1.878v.376h-4.976v-.376c.939,0,.939-.939.939-1.878V25.55c0-1.409,0-2.441-.939-2.441-.658,0-1.314.751-1.6,1.314v5.164c0,.939,0,1.878.939,1.878v.376h-4.976v-.376c1.033,0,1.033-.939,1.033-1.878V24.329c0-1.128,0-1.878-1.221-1.878v-.376h4.131Z" transform="translate(-9.585 -17.24)" fill="#fff"/>
          <path id="Path_4387" d="M126.717,25.931c0-1.6.282-3.383,1.5-3.383,1.314,0,1.314,2.348,1.314,3.383Zm5.446.751c0-2.348-1.221-4.882-3.662-4.882-2.911,0-4.6,2.441-4.6,5.258,0,2.723,1.221,5.258,4.226,5.258,2.066,0,3.192-1.221,4.037-3.005l-.376-.282a2.577,2.577,0,0,1-2.256,1.6c-1.972,0-2.817-2.348-2.817-3.944Z" transform="translate(-10.378 -17.246)" fill="#fff"/>
          <path id="Path_4388" d="M134.7,30.884a1.784,1.784,0,1,1,1.784,1.784h0a1.847,1.847,0,0,1-1.784-1.784Z" transform="translate(-11.037 -17.692)" fill="#fff"/>
          <path id="Path_4389" d="M152.075,18.145v10.7c0,1.784,0,2.348,2.066,2.348v.376h-7.512V31.2c2.066,0,2.066-.563,2.066-2.348v-10.7h-1.128c-1.6,0-2.535.469-3.1,3.005H144V17.3h12.77v3.85h-.376c-.563-2.535-1.5-3.005-3.1-3.005Z" transform="translate(-11.605 -16.971)" fill="#fff"/>
          <path id="Path_4390" d="M163.326,23.034a3.8,3.8,0,0,1,2.817-1.6c2.159,0,2.723,1.6,2.723,3.944v3.944c0,.939,0,1.878,1.033,1.878v.376h-4.976V31.2c.939,0,.939-.939.939-1.878V25.288c0-1.409,0-2.441-.939-2.441-.658,0-1.314.751-1.6,1.314v5.164c0,.939,0,1.878.939,1.878v.376h-4.976V31.2c1.033,0,1.033-.939,1.033-1.878V19.656c0-1.128,0-1.878-1.221-1.878V17.4h4.131Z" transform="translate(-12.527 -16.978)" fill="#fff"/>
          <path id="Path_4391" d="M174.817,25.931c0-1.6.282-3.383,1.5-3.383,1.314,0,1.314,2.348,1.314,3.383Zm5.446.751c0-2.348-1.221-4.882-3.662-4.882-2.911,0-4.6,2.441-4.6,5.258,0,2.723,1.221,5.258,4.226,5.258,2.066,0,3.193-1.221,4.037-3.005l-.376-.282a2.577,2.577,0,0,1-2.256,1.6c-1.972,0-2.817-2.348-2.817-3.944Z" transform="translate(-13.314 -17.246)" fill="#fff"/>
          <path id="Path_4392" d="M195.611,31.069c-3.286,0-3.756-4.131-3.756-6.667s.469-6.667,3.756-6.667,3.756,4.131,3.756,6.667S198.9,31.069,195.611,31.069Zm0,.845a7.247,7.247,0,0,0,7.606-6.853V24.5a7.559,7.559,0,1,0-15.118,0,7.176,7.176,0,0,0,7.043,7.418Z" transform="translate(-14.296 -16.938)" fill="#fff"/>
          <path id="Path_4393" d="M209.831,24.235h0c.658-1.033,1.69-2.535,3.1-2.535a1.251,1.251,0,0,1,1.314,1.128v.187c0,.751-.376,1.5-1.128,1.5-1.033,0-1.221-.845-1.69-.845s-1.6.563-1.6,3.756v2.066c0,1.221,0,1.878,1.314,1.878v.376H205.7v-.376c1.221,0,1.221-.658,1.221-1.878V24.235c0-1.128,0-1.878-1.221-1.878v-.376h4.131Z" transform="translate(-15.371 -17.24)" fill="#fff"/>
          <path id="Path_4394" d="M219.731,29.3c0,1.221,0,1.878,1.128,1.878v.376H215.6v-.376c1.221,0,1.221-.658,1.221-1.878V24.043c0-1.128,0-1.878-1.221-1.878v-.376h4.131Zm-1.5-12.3a1.6,1.6,0,1,1-1.6,1.6h0a1.648,1.648,0,0,1,1.6-1.6Z" transform="translate(-15.975 -16.953)" fill="#fff"/>
          <path id="Path_4395" d="M225.411,25.462c0-2.723.751-3.1,1.409-3.1.751,0,1.409.563,1.409,3.005,0,2.066-.469,2.911-1.409,2.911C225.97,28.278,225.411,27.622,225.411,25.462Zm3.286-3.286a5.053,5.053,0,0,0-2.066-.376c-2.066,0-4.131,1.314-4.131,3.568a3.724,3.724,0,0,0,2.629,3.193h0a3.127,3.127,0,0,0-2.256,2.629,2.145,2.145,0,0,0,1.314,1.878h0c-.658.187-1.6.563-1.6,1.409,0,1.784,3.192,1.972,4.511,1.972,4.319,0,5.071-2.066,5.071-3.193,0-2.535-2.441-2.535-4.789-2.535-1.784,0-2.441,0-2.441-.845a1.041,1.041,0,0,1,1.033-1.033H227.2c2.348,0,4.037-1.6,4.037-3.286a3.259,3.259,0,0,0-.939-2.348h1.878V21.987H228.7Zm1.6,12.112c0,1.314-2.159,1.5-3.1,1.5s-3.005-.094-3.005-1.409c0-.751.376-1.033,2.256-1.033,3.379,0,3.849.283,3.849.944Z" transform="translate(-16.395 -17.246)" fill="#fff"/>
          <path id="Path_4396" d="M237.631,29.3c0,1.221,0,1.878,1.128,1.878v.376H233.5v-.376c1.221,0,1.221-.658,1.221-1.878V24.043c0-1.128,0-1.878-1.221-1.878v-.376h4.131Zm-1.5-12.3a1.582,1.582,0,1,1-1.133.463A1.6,1.6,0,0,1,236.129,17Z" transform="translate(-17.067 -16.953)" fill="#fff"/>
          <path id="Path_4397" d="M244.226,23.3a3.8,3.8,0,0,1,2.817-1.6c2.159,0,2.723,1.6,2.723,3.944v3.944c0,.939,0,1.878,1.033,1.878v.376h-4.976v-.376c.939,0,.939-.939.939-1.878V25.55c0-1.409,0-2.441-.939-2.441-.658,0-1.314.751-1.6,1.314v5.164c0,.939,0,1.878.939,1.878v.376h-4.976v-.376c1.033,0,1.033-.939,1.033-1.878V24.329c0-1.128,0-1.878-1.221-1.878v-.376h4.131V23.3Z" transform="translate(-17.464 -17.24)" fill="#fff"/>
          <path id="Path_4398" d="M258.365,29.869a1.514,1.514,0,0,1-1.221.563,1.128,1.128,0,0,1-1.128-1.033v-.094c0-1.128,1.409-2.256,2.348-2.723Zm0-4.226c-3.944,1.878-5.164,2.723-5.164,4.511a1.968,1.968,0,0,0,1.784,2.066h.187a4.771,4.771,0,0,0,3.192-1.6,1.682,1.682,0,0,0,1.784,1.6h.094a2.57,2.57,0,0,0,2.348-1.5l-.282-.282c-.187.187-.282.376-.563.376-.469,0-.469-.469-.469-1.033V24.989c0-2.066-1.128-3.286-3.568-3.286-1.6,0-4.319.845-4.319,2.817a1.443,1.443,0,0,0,1.5,1.314,1.274,1.274,0,0,0,1.409-1.128v-.094c0-.658-.658-.939-.658-1.314,0-.563.939-.751,1.409-.751a1.251,1.251,0,0,1,1.314,1.128v1.972Z" transform="translate(-18.27 -17.24)" fill="#fff"/>
          <path id="Path_4399" d="M268.231,29.325c0,1.221,0,1.878,1.128,1.878v.376H264.1V31.2c1.221,0,1.221-.658,1.221-1.878V19.656c0-1.128,0-1.878-1.221-1.878V17.4h4.131Z" transform="translate(-18.935 -16.978)" fill="#fff"/>
          <path id="Path_4400" d="M271,30.883a1.783,1.783,0,0,1,1.784-1.784,1.726,1.726,0,0,1,1.784,1.784,1.783,1.783,0,0,1-1.784,1.784A1.847,1.847,0,0,1,271,30.883Z" transform="translate(-19.355 -17.692)" fill="#fff"/>
          <path id="Path_4401" d="M261.311,65.08A245.057,245.057,0,0,0,227.6,47.428l-6.761,15.3a227.737,227.737,0,0,0-177.278,0L36.8,47.428A268.74,268.74,0,0,0,3,65.08L18.024,94c3.944-2.629,8.075-4.882,12.112-7.136l7.044,13.8a194.222,194.222,0,0,1,190.142,0l7.043-13.8c4.131,2.256,8.263,4.6,12.112,7.136l14.835-28.92Z" transform="translate(-3 -18.649)" fill="#fff" stroke="#fff" stroke-width="0.463" fill-rule="evenodd"/>
          <path id="Path_4402" d="M248.9,94.7a3.515,3.515,0,0,0,0,4.882,3.429,3.429,0,0,0,4.882,0h0A3.453,3.453,0,1,0,248.9,94.7Zm5.352,5.352a3.967,3.967,0,1,1,1.221-2.909,4.12,4.12,0,0,1-1.221,2.909Zm-2.159-4.413a3.337,3.337,0,0,0-.939-.187H250.5v1.6h.658a2.068,2.068,0,0,0,.751-.094.789.789,0,0,0,.376-1.033c0-.094-.094-.187-.187-.282Zm-.751-.658a2.776,2.776,0,0,1,1.221.187,1.02,1.02,0,0,1,.658,1.128.986.986,0,0,1-.469.845,1.357,1.357,0,0,1-.658.187.954.954,0,0,1,.751.469c.187.187.187.469.282.658V99.3h-.751v-.658A1.118,1.118,0,0,0,252,97.609a2.742,2.742,0,0,0-.845-.187H250.5v1.784h-.751V94.793Z" transform="translate(-17.912 -21.601)" fill="#fff" stroke="#fff" stroke-width="0.463" fill-rule="evenodd"/>
          <path id="Path_4403" d="M32.564,56.5A241.3,241.3,0,0,0,7.4,70.115l9.577,18.5a1.338,1.338,0,0,1,.376-.187q5.071-3.239,10.422-6.2L23.264,73.4Z" transform="translate(-3.269 -19.364)" fill="#ed3024" stroke="#fff" stroke-width="0.463" fill-rule="evenodd"/>
          <path id="Path_4404" d="M30.325,87.756,29.1,85.5c-2.723,1.5-5.352,3.1-8.075,4.7h0c-.845.563-1.784,1.033-2.629,1.6l1.221,2.256c2.066-1.409,4.226-2.629,6.385-3.944h0C27.509,89.35,28.916,88.505,30.325,87.756Z" transform="translate(-3.94 -21.134)" fill="#ed3024" stroke="#fff" stroke-width="0.463" fill-rule="evenodd"/>
          <path id="Path_4405" d="M239.023,77.461a220.2,220.2,0,0,0-210.423,0l5.446,10.7h0l3.47,6.853c4.6-2.441,9.484-4.789,14.273-6.948H51.7a200.779,200.779,0,0,1,164.223,0h0Q223.1,91.31,230,95.113l3.568-7.043h0Z" transform="translate(-4.563 -19.01)" fill="#ed3024" stroke="#fff" stroke-width="0.463" fill-rule="evenodd"/>
          <path id="Path_4406" d="M212.7,89.456h0a198.766,198.766,0,0,0-156.526,0h0c-5.913,2.536-11.644,5.353-17.278,8.451l1.128,2.256A190.425,190.425,0,0,1,62.656,89.55h0a196.815,196.815,0,0,1,143.381,0h-.094a187.508,187.508,0,0,1,22.911,10.611l1.128-2.256A183.851,183.851,0,0,0,212.7,89.456Z" transform="translate(-5.191 -20.395)" fill="#ed3024" stroke="#fff" stroke-width="0.463" fill-rule="evenodd"/>
          <path id="Path_4407" d="M259.309,90.2h0c-2.629-1.6-5.258-3.193-7.981-4.7L250.2,87.756c1.409.845,2.817,1.6,4.319,2.441h0c2.159,1.221,4.319,2.535,6.385,3.944l1.128-2.256C261.092,91.322,260.247,90.758,259.309,90.2Z" transform="translate(-18.086 -21.134)" fill="#ed3024" stroke="#fff" stroke-width="0.463" fill-rule="evenodd"/>
          <path id="Path_4408" d="M272.164,70.115A232.146,232.146,0,0,0,247,56.5l9.3,17-4.511,8.826c3.47,1.878,6.948,4.037,10.329,6.1h0a.712.712,0,0,0,.376.187l.094-.187h0Z" transform="translate(-17.891 -19.364)" fill="#ed3024" stroke="#fff" stroke-width="0.463" fill-rule="evenodd"/>
          <path id="Path_4409" d="M273.929,65.963A252.492,252.492,0,0,0,243.6,50l1.972,3.662A229.467,229.467,0,0,1,272.8,68.218C272.708,68.218,273.929,65.963,273.929,65.963Z" transform="translate(-17.684 -18.967)" fill="#ed3024" stroke="#fff" stroke-width="0.463" fill-rule="evenodd"/>
          <path id="Path_4410" d="M253.126,71.788,241.952,51.6,236.6,63.807a178.364,178.364,0,0,1,16.526,7.981Z" transform="translate(-17.256 -19.065)" fill="#ed3024" stroke="#fff" stroke-width="0.463" fill-rule="evenodd"/>
          <path id="Path_4411" d="M240.78,73.442A222.106,222.106,0,0,0,134.018,46.4h-.563A222.468,222.468,0,0,0,26.6,73.442L27.728,75.7a222.14,222.14,0,0,1,211.926,0l1.128-2.256Z" transform="translate(-4.44 -18.747)" fill="#ed3024" stroke="#fff" stroke-width="0.463" fill-rule="evenodd"/>
          <path id="Path_4412" d="M43.526,63.807,38.174,51.6,27,71.788c5.446-2.911,10.986-5.634,16.526-7.981Z" transform="translate(-4.465 -19.065)" fill="#ed3024" stroke="#fff" stroke-width="0.463" fill-rule="evenodd"/>
          <path id="Path_4413" d="M35.829,50A227.566,227.566,0,0,0,5.5,65.963L6.721,68.31A229.47,229.47,0,0,1,33.955,53.756Z" transform="translate(-3.152 -18.967)" fill="#ed3024" stroke="#fff" stroke-width="0.463" fill-rule="evenodd"/>
          <path id="Path_4414" d="M233.422,73.5l-.939,1.972a10.432,10.432,0,0,0,1.5.658l-1.972,4.037h0L230.136,84.2l-1.6-.658-.94,1.972,5.071,2.535.939-1.974-1.5-.751,1.5-3.192,1.5.751c.658.469.939,1.128.563,2.629-.845,3.193.094,4.131,2.911,5.446l.939-2.066-1.314-.563c-1.314-.658.094-2.817-.187-4.882a3.838,3.838,0,0,0,2.723-2.066,3.924,3.924,0,0,0,.376-.939h0C241.966,76.411,235.675,74.628,233.422,73.5Zm5.352,6.853h0c-.751,1.409-4.131-.094-4.131-.094l1.5-3.1c1.784.751,3.286,1.784,2.629,3.193Z" transform="translate(-16.707 -20.401)" fill="#fff" stroke="#fff" stroke-width="0.463" fill-rule="evenodd"/>
          <path id="Path_4415" d="M63.792,79.933l-.187-10.516h0v-.094l1.6-.563-.756-2.16-5.634,2.159.282.751h0l.469,1.314,1.69-.658.187,8.075-5.352-6.1,1.784-.658-.847-2.159-.187.094L51.3,71.482l.845,2.066,1.6-.563,6.1,7.043h0l1.784,2.066,1.972-.751.187-1.409Z" transform="translate(-5.947 -19.98)" fill="#fff" stroke="#fff" stroke-width="0.463" fill-rule="evenodd"/>
          <path id="Path_4416" d="M81.412,70.644l-2.159.658.658,2.348-3.568,1.03L75.4,71.486l3.1-.939-.469-1.5h0l-.187-.658-2.159.658h0l-.845.282-.187-.282h0l-.843-3,3.568-1.033.658,2.256,2.256-.658c-.658-2.256-.658-2.441-1.314-4.511L69.3,65.01l.658,2.159,1.69-.469.658,2.256h0l1.878,6.291-1.6.469.658,2.159,9.577-2.817C82.164,72.991,82.07,72.71,81.412,70.644Z" transform="translate(-7.046 -19.705)" fill="#fff" stroke="#fff" stroke-width="0.475" fill-rule="evenodd"/>
          <path id="Path_4417" d="M224.016,69.541l-.187-.094c-.282-.094-.469-.282-.751-.376a7.4,7.4,0,0,0-5.822.376h0a6.981,6.981,0,0,0-3.005,9.39,3.573,3.573,0,0,0,.845,1.221h0a7,7,0,0,0,9.859.845l.845-.845h0a7.114,7.114,0,0,0-1.784-10.516Zm.845,7.7a4.537,4.537,0,0,1-2.629,2.629h-.187a4.4,4.4,0,0,1-3.1,0h-.187a4.705,4.705,0,0,1-2.723-5.916v-.094a4.616,4.616,0,0,1,6.009-2.723h0a4.765,4.765,0,0,1,2.818,6.1Z" transform="translate(-15.846 -20.105)" fill="#fff" stroke="#fff" stroke-width="0.47" fill-rule="evenodd"/>
          <path id="Path_4418" d="M206.516,63.643l-.187-.094a7.358,7.358,0,0,0-6.572,0h0a6.981,6.981,0,0,0-3.005,9.39,3.574,3.574,0,0,0,.845,1.221h0a7,7,0,0,0,9.859.845l.845-.845h0a6.754,6.754,0,0,0,1.128-1.972,6.608,6.608,0,0,0-2.912-8.545Zm.845,7.7a4.537,4.537,0,0,1-2.629,2.629h-.187a4.4,4.4,0,0,1-3.1,0h-.187a4.646,4.646,0,0,1-2.629-6.009v-.094a4.616,4.616,0,0,1,6.009-2.723h0a4.858,4.858,0,0,1,2.724,6.2Z" transform="translate(-14.778 -19.747)" fill="#fff" stroke="#fff" stroke-width="0.47" fill-rule="evenodd"/>
          <path id="Path_4419" d="M100.648,71.027c-2.911.658-4.226.469-5.446-2.256h0c-.094-.094-.094-.187-.187-.376-.658-1.6-1.221-1.972-2.348-1.69l-1.314.282.376,1.69h0l.376,1.69,1.69-.282.469,2.256-5.54,1.221-.469-2.256,1.69-.282-.474-2.158h0L88.061,62.2c-.563.187-1.128.282-1.6.469L86,60.416c2.723-.563,9.578-3.383,10.611,1.69a3.7,3.7,0,0,1-.845,3.383c1.128,1.033,1.5,2.723,2.159,3.383h0a.954.954,0,0,0,.939.282l1.314-.282Zm-6.291-8.544c.376,1.69-1.878,2.256-3.383,2.441l-.658-3.383c1.878-.469,3.662-.658,4.037.939Z" transform="translate(-8.066 -19.524)" fill="#fff" stroke="#fff" stroke-width="0.463" fill-rule="evenodd"/>
          <path id="Path_4420" d="M117.76,66.273l-1.69.187-1.128-8.451h0l-.094-.469,1.69-.187-.282-2.256-5.634.751.282,2.159V58.2l1.69-.282v.094h0l.469,3.193-5.164.658-.469-3.383,1.69-.187v-.282h0l-.282-1.878-5.54.751.187,1.221h0l.094.939,1.69-.282,1.223,8.923-1.69.282.094.563h0l.187,1.5,5.54-.751-.094-.845h0l-.187-1.314-1.69.187-.469-3.383,5.164-.658.469,3.383-1.69.187.187,1.6h0l.094.658,4.7-.563h.094l.845-.094Z" transform="translate(-9.121 -19.278)" fill="#fff" stroke="#fff" stroke-width="0.463" fill-rule="evenodd"/>
          <path id="Path_4421" d="M133.323,62.825l-2.256.094.094,2.441-3.756.187-.187-3.383,3.192-.187-.094-2.256-3.192.187-.094-2.066h0l-.094-1.221,3.85-.187.094,1.5h0v.751l2.256-.187v-.658h0c-.094-2.441-.094-1.972-.187-3.85l-10.047.563.187,2.256,1.69-.094.094,1.221h0l.376,7.7-1.69.094.187,2.256,9.953-.563a31.038,31.038,0,0,1-.376-4.6Z" transform="translate(-10.318 -19.21)" fill="#fff" stroke="#fff" stroke-width="0.463" fill-rule="evenodd"/>
          <path id="Path_4422" d="M146.182,61.612l-1.221-3.286-1.314,3.193Zm5.258,3.85-.094,2.256-5.352-.094.094-2.256H147.5l-.469-1.314L142.9,63.96l-.563,1.314h1.314l-.094,2.256-5.352-.094.094-2.256h1.6l2.911-7.23h0l.658-1.6h-1.69l.094-2.256c1.314,0,4.037.094,4.037.094s.563,1.6,1.314,3.756h0c.845,2.441,1.972,5.446,2.629,7.512Z" transform="translate(-11.251 -19.217)" fill="#fff" stroke="#fff" stroke-width="0.463" fill-rule="evenodd"/>
          <path id="Path_4423" d="M186.788,58.633l-2.348-.469-.376-.094-2.441-.469-.094.469h0l-.376,1.69q.7.141,1.69.282l-1.784,8.544h0l-.094.282c-.469-.094-1.221-.282-1.6-.376v.094l-.469,2.159,5.164,1.033a6.953,6.953,0,0,0,7.324-3.193h0a8.486,8.486,0,0,0,.751-1.972,6.814,6.814,0,0,0-5.353-7.981Zm1.784,9.953c-1.314,1.128-3.383,1.033-5.258.751l.187-.751h0l1.69-8.075c2.817.658,5.54,2.066,4.789,5.634a4.564,4.564,0,0,1-1.409,2.441Z" transform="translate(-13.735 -19.431)" fill="#fff" stroke="#fff" stroke-width="0.5" fill-rule="evenodd"/>
          <path id="Path_4424" d="M162.492,55.082l-2.348-.187h-.376l-2.44-.095-.094.469h0l-.187,1.784c.469.094,1.128,0,1.69.094l-.751,8.733h0v.285a10.456,10.456,0,0,0-1.6-.187v.094L156.2,68.23l5.258.376a6.767,6.767,0,0,0,6.853-4.037h0a5.118,5.118,0,0,0,.469-2.066A6.928,6.928,0,0,0,162.492,55.082Zm2.911,9.671c-1.221,1.221-3.193,1.5-5.164,1.411l.094-.751h0l.751-8.169c2.911.376,5.726,1.409,5.446,4.976a5.172,5.172,0,0,1-1.128,2.535Z" transform="translate(-12.349 -19.26)" fill="#fff" stroke="#fff" stroke-width="0.5" fill-rule="evenodd"/>
          <path id="Path_4425" d="M248.9,94.7a3.515,3.515,0,0,0,0,4.882,3.429,3.429,0,0,0,4.882,0h0A3.453,3.453,0,1,0,248.9,94.7Zm5.352,5.352a3.967,3.967,0,1,1,1.221-2.909,4.12,4.12,0,0,1-1.221,2.909Zm-2.159-4.413a3.337,3.337,0,0,0-.939-.187H250.5v1.6h.658a2.068,2.068,0,0,0,.751-.094.789.789,0,0,0,.376-1.033c0-.094-.094-.187-.187-.282Zm-.751-.658a2.776,2.776,0,0,1,1.221.187,1.02,1.02,0,0,1,.658,1.128.986.986,0,0,1-.469.845,1.357,1.357,0,0,1-.658.187.954.954,0,0,1,.751.469c.187.187.187.469.282.658V99.3h-.751v-.658A1.118,1.118,0,0,0,252,97.609a2.742,2.742,0,0,0-.845-.187H250.5v1.784h-.751V94.793Z" transform="translate(-17.912 -21.601)" fill="#fff" fill-rule="evenodd"/>
          <path id="Path_4426" d="M48.916,75.641l-.187-.094c-.282-.094-.469-.282-.751-.376a7.4,7.4,0,0,0-5.822.376h0a6.981,6.981,0,0,0-3.005,9.39A3.573,3.573,0,0,0,40,86.158h0A7,7,0,0,0,49.855,87l.845-.845h0a7.114,7.114,0,0,0-1.784-10.516Zm.845,7.794a4.537,4.537,0,0,1-2.629,2.629h-.187a4.4,4.4,0,0,1-3.1,0h-.187a4.577,4.577,0,0,1-2.629-5.916v-.094a4.616,4.616,0,0,1,6.009-2.723h0a4.882,4.882,0,0,1,2.724,6.1Z" transform="translate(-5.16 -20.477)" fill="#fff" stroke="#fff" stroke-width="0.47" fill-rule="evenodd"/>
        </g>
      </g>
    </g>
  </g>
</svg>
