<svg width="178" height="35" viewBox="0 0 178 35" fill="none" xmlns="http://www.w3.org/2000/svg">
<g clip-path="url(#clip0_2725_12422)">
<path d="M178 34.6282V9.66616H173.609V34.6282H178ZM168.179 34.6282L159.13 25.5463C164.879 24.8027 166.955 21.9082 166.955 17.6593C166.955 13.3042 163.655 9.66616 156.841 9.66616H145.077V34.6282H149.469V12.8794H156.495C159.929 12.8794 162.537 14.632 162.537 17.8452C162.537 20.8991 160.195 22.8376 155.963 22.8376H151.199V22.9439L162.617 34.6282H168.179ZM125.063 35C131.531 35 136.667 31.8134 136.667 25.8384V9.66616H132.276V25.7056C132.382 29.4499 129.428 31.654 125.17 31.654C120.911 31.654 118.01 29.4499 118.01 25.7056V9.66616H113.645V25.8118C113.725 31.8134 118.569 35 125.063 35ZM74.5481 9.66616L74.628 27.5379L58.2599 9.66616H54.9596V34.6282H59.2446V16.5971L75.7458 34.6282H78.8331V9.66616H74.5481ZM29.9151 26.5819L35.3179 13.4901L40.8272 26.5819H29.9151ZM4.39145 34.6282V12.8794H10.0338C14.6914 12.8794 17.0601 15.1366 17.0601 18.4294C17.0601 22.5986 14.2389 24.2716 10.4596 24.2716H6.06818V24.3778L10.1136 27.3786H11.7638C17.8586 27.3786 21.4782 23.3422 21.4782 18.4029C21.4782 13.8354 17.6456 9.69272 10.8322 9.69272H0V34.6548H4.39145M91.4486 34.6282V12.8794H97.0909C101.749 12.8794 104.144 15.1366 104.144 18.4294C104.144 22.5986 101.323 24.2716 97.5434 24.2716H93.1519V24.3778L97.1974 27.352H98.8475C104.942 27.352 108.562 23.3156 108.562 18.3763C108.562 13.8088 104.729 9.66616 97.916 9.66616H87.0837V34.6282H91.4486ZM37.8463 9.66616H32.8427L21.8242 34.6282H26.5882L28.7706 29.3171H41.9716L44.1806 34.6282H48.8914L37.8463 9.66616ZM63.6627 3.98331C62.4384 3.98331 61.4004 4.48786 59.8834 5.81563L57.9405 3.42564C59.9898 1.16844 61.6666 0 63.7159 0C66.1645 0 68.2138 2.33687 70.2632 2.33687C71.4874 2.33687 72.5254 1.77921 73.9094 0.504552L75.8523 2.89454C73.8029 5.1783 72.2327 6.32018 70.1833 6.32018C67.6549 6.32018 65.712 3.98331 63.6627 3.98331Z" fill="black"/>
</g>
<defs>
<clipPath id="clip0_2725_12422">
<rect width="178" height="35" fill="white"/>
</clipPath>
</defs>
</svg>
