<svg width="256" height="58" viewBox="0 0 256 58" fill="none" xmlns="http://www.w3.org/2000/svg">
<path d="M0 43.0115H3.76595C4.31603 43.0115 4.8238 43.0539 5.33157 43.1813C5.83934 43.3087 6.26248 43.4785 6.6433 43.6908C7.02413 43.9031 7.32033 44.2853 7.5319 44.7099C7.74347 45.1345 7.87041 45.644 7.87041 46.2809C7.87041 46.9178 7.74347 47.5547 7.48959 47.9793C7.2357 48.4039 6.9395 48.7435 6.51636 48.9983C6.09322 49.2531 5.62777 49.3804 5.07769 49.4654C4.5276 49.5503 3.97752 49.5927 3.38512 49.5927H1.98876V54.2208H0V43.0115ZM3.17355 47.8943H4.06215C4.35835 47.8943 4.65454 47.8094 4.90843 47.7245C5.16231 47.6396 5.37388 47.4697 5.54314 47.2574C5.7124 47.0451 5.79702 46.7479 5.79702 46.3658C5.79702 45.9837 5.7124 45.7289 5.58545 45.5591C5.45851 45.3892 5.24694 45.1769 5.03537 45.092C4.78149 44.9646 4.5276 44.9222 4.27372 44.8797C3.97752 44.8797 3.72364 44.8372 3.46975 44.8372H2.07339V47.9793H3.25818L3.17355 47.8943Z" fill="#6F625A"/>
<path d="M10.7474 46.6205H12.6515V47.8094C12.8631 47.3848 13.1593 47.0026 13.5401 46.7903C13.9209 46.5356 14.3864 46.4082 14.8942 46.4082C15.4019 46.4082 15.1057 46.4082 15.2327 46.4082C15.3596 46.4082 15.4443 46.4507 15.5712 46.4931V48.3189C15.4019 48.2764 15.275 48.234 15.1057 48.234H14.6403C14.2171 48.234 13.8363 48.3189 13.5824 48.4887C13.3286 48.6586 13.117 48.8284 12.99 49.0407C12.8631 49.253 12.7362 49.4653 12.6938 49.6776C12.6515 49.8899 12.6092 50.0597 12.6092 50.1447V54.2208H10.7051V46.6205H10.7474Z" fill="#6F625A"/>
<path d="M17.4756 50.4419C17.4756 49.8474 17.5602 49.2955 17.8141 48.786C18.0257 48.3189 18.3219 47.8943 18.7027 47.5122C19.0835 47.13 19.5067 46.9177 20.0144 46.7054C20.5222 46.5356 21.0723 46.4082 21.6224 46.4082C22.1724 46.4082 22.7225 46.4931 23.2303 46.7054C23.7381 46.9177 24.1612 47.1725 24.542 47.5122C24.9229 47.8518 25.2191 48.2764 25.4306 48.786C25.6422 49.253 25.7691 49.805 25.7691 50.4419C25.7691 51.0788 25.6422 51.5883 25.4306 52.0978C25.2191 52.5649 24.9229 52.9895 24.542 53.3716C24.1612 53.7537 23.7381 53.966 23.2303 54.1783C22.7225 54.3906 22.1724 54.4756 21.6224 54.4756C21.0723 54.4756 20.5222 54.3906 20.0144 54.1783C19.5067 53.966 19.0835 53.7113 18.7027 53.3716C18.3219 53.0319 18.0257 52.6073 17.8141 52.0978C17.6025 51.6308 17.4756 51.0788 17.4756 50.4419ZM19.2951 50.4419C19.2951 50.7391 19.2951 51.0363 19.422 51.2911C19.549 51.5458 19.6759 51.8006 19.8452 52.0129C20.0567 52.2252 20.2683 52.395 20.5645 52.5224C20.8607 52.6498 21.1569 52.6922 21.4954 52.6922C21.8339 52.6922 22.1724 52.6498 22.4263 52.5224C22.7225 52.395 22.9341 52.2252 23.1457 52.0129C23.3572 51.8006 23.4842 51.5458 23.5688 51.2911C23.6534 51.0363 23.7381 50.7391 23.7381 50.4419C23.7381 50.1447 23.7381 49.8474 23.5688 49.5927C23.4842 49.3379 23.3149 49.0832 23.1457 48.8709C22.9341 48.6586 22.7225 48.4887 22.4263 48.3614C22.1301 48.234 21.8339 48.1915 21.4954 48.1915C21.1569 48.1915 20.8184 48.234 20.5645 48.3614C20.2683 48.4887 20.0567 48.6586 19.8452 48.8709C19.6336 49.0832 19.5067 49.3379 19.422 49.5927C19.3374 49.8474 19.2951 50.1447 19.2951 50.4419Z" fill="#6F625A"/>
<path d="M28.6888 46.6205H30.466V47.7669C30.7199 47.2999 31.1007 46.9602 31.5662 46.7479C32.0316 46.5356 32.5394 46.4507 33.0471 46.4507C33.5549 46.4507 34.1473 46.5356 34.6128 46.7479C35.0782 46.9602 35.459 47.215 35.7976 47.5971C36.1361 47.9368 36.39 48.3614 36.5592 48.8709C36.7285 49.3804 36.8131 49.8899 36.8131 50.4419C36.8131 50.9939 36.7285 51.5459 36.5592 52.0129C36.39 52.48 36.1361 52.9046 35.7976 53.2867C35.459 53.6264 35.0782 53.9236 34.6551 54.1359C34.2319 54.3482 33.7242 54.4331 33.1741 54.4331C32.624 54.4331 32.4971 54.4331 32.2432 54.3057C31.9893 54.2208 31.7354 54.1359 31.5238 54.0085C31.3123 53.8811 31.143 53.7538 30.9738 53.6264C30.8045 53.499 30.7199 53.3716 30.5929 53.2442H30.5506V57.8299H28.6465V46.6205H28.6888ZM34.9513 50.4419C34.9513 50.1447 34.909 49.8475 34.782 49.5927C34.6974 49.3379 34.5281 49.0832 34.3589 48.8709C34.1473 48.6586 33.9357 48.4888 33.6395 48.3614C33.3857 48.234 33.0471 48.1915 32.7086 48.1915C32.3701 48.1915 32.0316 48.234 31.7777 48.3614C31.5238 48.4888 31.27 48.6586 31.0584 48.8709C30.8468 49.0832 30.7199 49.3379 30.6352 49.5927C30.5506 49.8475 30.466 50.1447 30.466 50.4419C30.466 50.7391 30.5083 51.0363 30.6352 51.2911C30.7199 51.5458 30.8891 51.8006 31.0584 52.0129C31.27 52.2252 31.4815 52.395 31.7777 52.5224C32.0739 52.6498 32.3701 52.6923 32.7086 52.6923C33.0471 52.6923 33.3857 52.6498 33.6395 52.5224C33.8934 52.395 34.1473 52.2252 34.3589 52.0129C34.5705 51.8006 34.6974 51.5458 34.782 51.2911C34.8667 51.0363 34.9513 50.7391 34.9513 50.4419Z" fill="#6F625A"/>
<path d="M41.383 51.0789C41.4253 51.6308 41.6792 52.0979 42.06 52.3951C42.4408 52.6923 42.9063 52.8622 43.414 52.8622C43.9218 52.8622 44.3026 52.7772 44.5988 52.5649C44.895 52.3526 45.1912 52.1403 45.4451 51.8431L46.7992 52.8622C46.376 53.4141 45.8683 53.7963 45.3182 54.051C44.7681 54.3058 44.218 54.3907 43.5833 54.3907C42.9486 54.3907 42.4831 54.3058 41.9754 54.0935C41.4676 53.8812 41.0445 53.6264 40.6636 53.2868C40.2828 52.9471 39.9866 52.5225 39.775 52.013C39.5635 51.5459 39.4365 50.9939 39.4365 50.357C39.4365 49.7201 39.5212 49.2106 39.775 48.7011C39.9866 48.2341 40.2828 47.8095 40.6636 47.4273C41.0445 47.0876 41.4676 46.8329 41.9754 46.6206C42.4831 46.4083 43.0332 46.3234 43.5833 46.3234C44.1334 46.3234 44.5988 46.4083 45.022 46.5781C45.4451 46.748 45.8259 47.0452 46.1221 47.3849C46.4183 47.7245 46.6722 48.1491 46.8415 48.6586C47.0107 49.1682 47.0954 49.7626 47.0954 50.3995V50.909H41.3407V51.0789C41.3689 51.0789 41.383 51.0789 41.383 51.0789ZM45.2335 49.6777C45.2335 49.1257 45.0643 48.6587 44.7258 48.3614C44.3873 48.0642 43.9218 47.8944 43.3294 47.8944C42.737 47.8944 42.3139 48.0642 41.9754 48.3614C41.6369 48.7011 41.4253 49.1257 41.383 49.6777H45.2759H45.2335Z" fill="#6F625A"/>
<path d="M50.1849 46.6205H52.089V47.8094C52.3006 47.3848 52.5968 47.0026 52.9776 46.7903C53.3584 46.5356 53.8239 46.4082 54.3317 46.4082C54.8394 46.4082 54.5432 46.4082 54.6702 46.4082C54.7971 46.4082 54.8818 46.4507 55.0087 46.4931V48.3189C54.8394 48.2764 54.7125 48.234 54.5432 48.234H54.0778C53.6546 48.234 53.2738 48.3189 53.0199 48.4887C52.7661 48.6586 52.5545 48.8284 52.4275 49.0407C52.3006 49.253 52.1737 49.4653 52.1313 49.6776C52.089 49.8899 52.0467 50.0597 52.0467 50.1447V54.2208H50.1426V46.6205H50.1849Z" fill="#6F625A"/>
<path d="M56.6582 48.2341V46.6206H58.2238V44.4127H60.128V46.6206H62.2013V48.2341H60.128V51.546C60.128 51.9281 60.2126 52.2253 60.3395 52.4376C60.4665 52.6499 60.7627 52.7773 61.1858 52.7773C61.6089 52.7773 61.5243 52.7773 61.7359 52.7348C61.9475 52.7348 62.0744 52.6499 62.2013 52.565V54.1785C61.9898 54.2634 61.7359 54.3483 61.482 54.3908C61.2281 54.4332 60.9319 54.4332 60.7204 54.4332C60.2126 54.4332 59.7894 54.3908 59.4932 54.2634C59.1547 54.136 58.9009 53.9662 58.7316 53.7539C58.5623 53.5416 58.4354 53.2443 58.3508 52.9047C58.2661 52.565 58.2661 52.1828 58.2661 51.7158V48.2341H56.6582Z" fill="#6F625A"/>
<path d="M63.9365 46.6205H66.0099L68.1256 51.8855L70.0298 46.6205H71.9762L68.4218 55.8343C68.2949 56.1739 68.1256 56.5136 67.9564 56.7684C67.7871 57.0231 67.6178 57.2779 67.364 57.4477C67.1524 57.6176 66.8985 57.7874 66.6023 57.8723C66.3061 57.9572 65.9253 57.9997 65.5021 57.9997C65.079 57.9997 64.5289 57.9572 64.0635 57.8299L64.3174 56.1315C64.4866 56.1739 64.6135 56.2164 64.7828 56.2588C64.9521 56.2588 65.1213 56.3013 65.2906 56.3013C65.4598 56.3013 65.7137 56.3013 65.883 56.2588C66.0522 56.2164 66.1792 56.1739 66.2638 56.0465C66.3907 55.9616 66.4754 55.8342 66.5177 55.7069C66.6023 55.5795 66.6869 55.4097 66.7716 55.1974L67.1524 54.3057L63.9365 46.6629V46.6205Z" fill="#6F625A"/>
<path d="M80.4814 43.0114H84.3743C84.9244 43.0114 85.4322 43.0539 85.94 43.1813C86.4477 43.2662 86.8709 43.436 87.2517 43.6908C87.6325 43.9455 87.9287 44.2427 88.1826 44.6673C88.3942 45.0919 88.5211 45.6015 88.5211 46.2384C88.5211 46.8753 88.3095 47.7244 87.8441 48.2764C87.3786 48.8284 86.7439 49.1681 85.94 49.2955L88.9019 54.2632H86.49L83.9089 49.5078H82.4702V54.2632H80.4814V43.0539C80.4814 43.0256 80.4814 43.0256 80.4814 43.0539V43.0114ZM84.0358 47.7669H84.8821C85.1783 47.7669 85.4322 47.682 85.6438 47.5971C85.8976 47.5121 86.0669 47.3423 86.2362 47.13C86.4054 46.9177 86.4477 46.6205 86.4477 46.2808C86.4477 45.9411 86.3631 45.6864 86.2362 45.4741C86.1092 45.2618 85.94 45.1344 85.6861 45.007C85.4745 44.9221 85.2206 44.8372 84.9667 44.7947C84.7129 44.7947 84.459 44.7523 84.2051 44.7523H82.4702V47.7669H84.0358Z" fill="#6F625A"/>
<path d="M93.006 51.0789C93.0483 51.6308 93.3022 52.0979 93.683 52.3951C94.0639 52.6923 94.5293 52.8622 95.0371 52.8622C95.5449 52.8622 95.8834 52.7772 96.2219 52.5649C96.5604 52.3526 96.8143 52.1403 97.0682 51.8431L98.4222 52.8622C97.9991 53.4141 97.4913 53.7963 96.9412 54.051C96.3911 54.3058 95.8411 54.3907 95.2063 54.3907C94.5716 54.3907 94.1062 54.3058 93.5984 54.0935C93.0906 53.8812 92.6675 53.6264 92.2867 53.2868C91.9058 52.9471 91.6096 52.5225 91.3981 52.013C91.1865 51.5459 91.0596 50.9939 91.0596 50.357C91.0596 49.7201 91.1442 49.2106 91.3981 48.7011C91.6096 48.2341 91.9058 47.8095 92.2867 47.4273C92.6675 47.0452 93.0906 46.8329 93.5984 46.6206C94.1062 46.4083 94.6563 46.3234 95.2063 46.3234C95.7564 46.3234 96.2219 46.4083 96.645 46.5781C97.0682 46.748 97.449 47.0452 97.7452 47.3849C98.0414 47.7245 98.2953 48.1491 98.4645 48.6586C98.6338 49.1682 98.7184 49.7626 98.7184 50.3995V50.909H92.9637V51.0789C92.9919 51.0789 92.9919 51.0789 92.9637 51.0789H93.006ZM96.9412 49.6777C96.9412 49.1257 96.772 48.6587 96.4335 48.3614C96.0949 48.0218 95.6295 47.8944 95.0371 47.8944C94.4447 47.8944 94.0216 48.0642 93.683 48.3614C93.3445 48.7011 93.133 49.1257 93.0906 49.6777H96.9835H96.9412Z" fill="#6F625A"/>
<path d="M105.87 48.7435C105.49 48.234 105.024 47.9793 104.389 47.9793C103.755 47.9793 103.882 48.0217 103.628 48.1491C103.374 48.2765 103.247 48.4888 103.247 48.7435C103.247 48.9983 103.332 49.1257 103.543 49.253C103.755 49.3804 104.009 49.4653 104.305 49.5078C104.601 49.5503 104.939 49.6776 105.278 49.7201C105.616 49.805 105.955 49.9324 106.251 50.1022C106.547 50.2721 106.801 50.4844 107.013 50.7816C107.224 51.0788 107.309 51.461 107.309 51.9705C107.309 52.48 107.224 52.8197 107.013 53.1169C106.801 53.4141 106.547 53.6689 106.251 53.8812C105.955 54.0935 105.574 54.2208 105.193 54.3058C104.812 54.3907 104.432 54.4331 104.009 54.4331C103.585 54.4331 102.866 54.3482 102.401 54.1784C101.893 54.0085 101.47 53.7113 101.089 53.2443L102.358 52.0554C102.612 52.3101 102.866 52.5649 103.12 52.7347C103.416 52.9046 103.755 52.9895 104.135 52.9895C104.516 52.9895 104.432 52.9895 104.559 52.947C104.686 52.9046 104.855 52.8621 104.982 52.7772C105.109 52.6923 105.193 52.6074 105.278 52.5224C105.363 52.4375 105.405 52.2677 105.405 52.1403C105.405 51.8855 105.32 51.6732 105.109 51.5459C104.897 51.4185 104.643 51.3336 104.347 51.2487C104.051 51.1637 103.712 51.0788 103.374 51.0364C103.035 50.9939 102.697 50.8665 102.401 50.6967C102.104 50.5268 101.851 50.3145 101.639 50.0598C101.427 49.805 101.343 49.4229 101.343 48.9134C101.343 48.4039 101.427 48.1066 101.597 47.8094C101.766 47.5122 102.02 47.2574 102.274 47.0451C102.57 46.8328 102.866 46.7055 103.247 46.6205C103.628 46.5356 104.009 46.4932 104.347 46.4932C104.686 46.4932 105.363 46.5781 105.828 46.7479C106.293 46.9178 106.717 47.215 107.013 47.6396L105.743 48.786H105.87V48.7435Z" fill="#6F625A"/>
<path d="M109.213 48.2341V46.6206H110.779V44.4127H112.683V46.6206H114.756V48.2341H112.683V51.546C112.683 51.9281 112.767 52.2253 112.894 52.4376C113.021 52.6499 113.317 52.7773 113.74 52.7773C114.164 52.7773 114.079 52.7773 114.291 52.7348C114.502 52.7348 114.629 52.6499 114.756 52.565V54.1785C114.544 54.2634 114.333 54.3483 114.037 54.3908C113.74 54.3908 113.487 54.4332 113.275 54.4332C112.767 54.4332 112.344 54.3908 112.048 54.2634C111.709 54.136 111.456 53.9662 111.286 53.7539C111.117 53.5416 110.99 53.2443 110.905 52.9047C110.821 52.565 110.821 52.1828 110.821 51.7158V48.2341H109.213Z" fill="#6F625A"/>
<path d="M117.083 50.4419C117.083 49.8474 117.168 49.2955 117.422 48.786C117.633 48.3189 117.929 47.8943 118.31 47.5122C118.691 47.13 119.114 46.9177 119.622 46.7054C120.13 46.4931 120.68 46.4082 121.23 46.4082C121.78 46.4082 122.33 46.4931 122.838 46.7054C123.345 46.9177 123.769 47.1725 124.149 47.5122C124.53 47.8518 124.826 48.2764 125.038 48.786C125.25 49.253 125.377 49.805 125.377 50.4419C125.377 51.0788 125.25 51.5883 125.038 52.0978C124.826 52.5649 124.53 52.9895 124.149 53.3716C123.769 53.7537 123.345 53.966 122.838 54.1783C122.33 54.3906 121.78 54.4756 121.23 54.4756C120.68 54.4756 120.13 54.3906 119.622 54.1783C119.114 53.966 118.691 53.7113 118.31 53.3716C117.929 53.0319 117.633 52.6073 117.422 52.0978C117.21 51.6308 117.083 51.0788 117.083 50.4419ZM118.987 50.4419C118.987 50.7391 119.029 51.0363 119.156 51.2911C119.241 51.5458 119.41 51.8006 119.58 52.0129C119.791 52.2252 120.003 52.395 120.299 52.5224C120.595 52.6498 120.891 52.6922 121.23 52.6922C121.568 52.6922 121.864 52.6498 122.161 52.5224C122.457 52.395 122.668 52.2252 122.88 52.0129C123.092 51.8006 123.219 51.5458 123.303 51.2911C123.388 51.0363 123.472 50.7391 123.472 50.4419C123.472 50.1447 123.43 49.8474 123.303 49.5927C123.219 49.3379 123.049 49.0832 122.88 48.8709C122.668 48.6586 122.457 48.4887 122.161 48.3614C121.864 48.234 121.568 48.1915 121.23 48.1915C120.891 48.1915 120.595 48.234 120.299 48.3614C120.045 48.4887 119.791 48.6586 119.58 48.8709C119.368 49.0832 119.241 49.3379 119.156 49.5927C119.072 49.8474 118.987 50.1447 118.987 50.4419Z" fill="#6F625A"/>
<path d="M128.339 46.6205H130.243V47.8094C130.454 47.3848 130.75 47.0026 131.131 46.7903C131.512 46.5356 131.978 46.4082 132.485 46.4082C132.993 46.4082 132.697 46.4082 132.824 46.4082C132.951 46.4082 133.035 46.4507 133.162 46.4931V48.3189C132.993 48.2764 132.866 48.234 132.697 48.234H132.231C131.808 48.234 131.427 48.3189 131.174 48.4887C130.92 48.6586 130.708 48.8284 130.539 49.0407C130.412 49.253 130.285 49.4653 130.243 49.6776C130.2 49.8899 130.158 50.0597 130.158 50.1447V54.2208H128.254V46.6205H128.339Z" fill="#6F625A"/>
<path d="M140.398 53.1593C140.144 53.5839 139.764 53.9236 139.34 54.0934C138.917 54.2633 138.452 54.3906 137.944 54.3906C137.436 54.3906 137.267 54.3482 136.929 54.2633C136.59 54.1783 136.294 54.0085 136.04 53.8387C135.786 53.6688 135.574 53.4141 135.405 53.1168C135.236 52.8196 135.151 52.5224 135.151 52.0978C135.151 51.6732 135.236 51.3335 135.363 51.0363C135.532 50.7391 135.701 50.5268 135.955 50.3145C136.209 50.1022 136.505 49.9748 136.802 49.8474C137.098 49.7201 137.479 49.6351 137.817 49.5927C138.156 49.5502 138.536 49.5078 138.875 49.4653C139.214 49.4228 139.552 49.4653 139.891 49.4653H140.356V49.253C140.356 48.786 140.187 48.4463 139.891 48.1915C139.594 47.9368 139.129 47.8518 138.663 47.8518C138.198 47.8518 137.902 47.9368 137.563 48.0641C137.225 48.1915 136.929 48.4038 136.675 48.6586L135.659 47.6395C136.082 47.2149 136.548 46.8753 137.14 46.7054C137.69 46.5356 138.283 46.4082 138.875 46.4082C139.467 46.4082 139.848 46.4507 140.229 46.578C140.61 46.7054 140.906 46.8328 141.16 47.0451C141.414 47.2149 141.583 47.4697 141.71 47.7245C141.837 47.9792 141.922 48.234 142.006 48.4887C142.091 48.7435 142.091 48.9982 142.091 49.2105V54.2208H140.398V53.1593ZM140.356 50.824H139.087C138.748 50.824 138.452 50.9089 138.156 50.9939C137.859 51.0788 137.606 51.2062 137.436 51.3335C137.267 51.4609 137.14 51.7157 137.14 51.9704C137.14 52.2252 137.14 52.3101 137.267 52.4375C137.352 52.5649 137.436 52.6498 137.563 52.7347C137.69 52.8196 137.817 52.8621 137.986 52.9045C138.156 52.947 138.283 52.947 138.452 52.947C139.087 52.947 139.594 52.7772 139.891 52.4799C140.187 52.1827 140.356 51.7581 140.356 51.2062V50.7816C140.356 50.8099 140.356 50.824 140.356 50.824Z" fill="#6F625A"/>
<path d="M144.587 48.2341V46.6206H146.153V44.4127H148.057V46.6206H150.13V48.2341H148.057V51.546C148.057 51.9281 148.141 52.2253 148.268 52.4376C148.395 52.6499 148.691 52.7773 149.115 52.7773C149.538 52.7773 149.453 52.7773 149.665 52.7348C149.876 52.7348 150.003 52.6499 150.13 52.565V54.1785C149.918 54.2634 149.707 54.3483 149.411 54.3908C149.115 54.3908 148.861 54.4332 148.649 54.4332C148.141 54.4332 147.718 54.3908 147.422 54.2634C147.083 54.136 146.83 53.9662 146.66 53.7539C146.491 53.5416 146.364 53.2443 146.279 52.9047C146.195 52.565 146.195 52.1828 146.195 51.7158V48.2341H144.587Z" fill="#6F625A"/>
<path d="M152.627 44.0305C152.627 43.7333 152.754 43.4361 152.965 43.2238C153.177 43.0115 153.473 42.8841 153.812 42.8841C154.15 42.8841 154.446 43.0115 154.7 43.2238C154.954 43.4361 155.039 43.6908 155.039 44.0305C155.039 44.3702 154.912 44.6249 154.7 44.8372C154.489 45.0495 154.193 45.1769 153.812 45.1769C153.431 45.1769 153.177 45.0495 152.965 44.8372C152.754 44.6249 152.627 44.3277 152.627 44.0305ZM152.881 46.6205H154.785V54.2208H152.881V46.6205Z" fill="#6F625A"/>
<path d="M157.789 50.4419C157.789 49.8474 157.874 49.2955 158.128 48.786C158.339 48.3189 158.635 47.8943 159.016 47.5122C159.397 47.13 159.82 46.9177 160.328 46.7054C160.836 46.4931 161.386 46.4082 161.936 46.4082C162.486 46.4082 163.036 46.4931 163.544 46.7054C164.052 46.9177 164.475 47.1725 164.856 47.5122C165.236 47.8518 165.533 48.2764 165.744 48.786C165.956 49.253 166.083 49.805 166.083 50.4419C166.083 51.0788 165.956 51.5883 165.744 52.0978C165.533 52.5649 165.236 52.9895 164.856 53.3716C164.475 53.7537 164.052 53.966 163.544 54.1783C163.036 54.3906 162.486 54.4756 161.936 54.4756C161.386 54.4756 160.836 54.3906 160.328 54.1783C159.82 53.966 159.397 53.7113 159.016 53.3716C158.635 53.0319 158.339 52.6073 158.128 52.0978C157.916 51.6308 157.789 51.0788 157.789 50.4419ZM159.735 50.4419C159.735 50.7391 159.778 51.0363 159.905 51.2911C159.989 51.5458 160.159 51.8006 160.328 52.0129C160.539 52.2252 160.751 52.395 161.047 52.5224C161.343 52.6498 161.64 52.6922 161.978 52.6922C162.317 52.6922 162.613 52.6498 162.909 52.5224C163.205 52.395 163.417 52.2252 163.628 52.0129C163.84 51.8006 163.967 51.5458 164.052 51.2911C164.136 51.0363 164.221 50.7391 164.221 50.4419C164.221 50.1447 164.178 49.8474 164.052 49.5927C163.967 49.3379 163.798 49.0832 163.628 48.8709C163.417 48.6586 163.205 48.4887 162.909 48.3614C162.613 48.234 162.317 48.1915 161.978 48.1915C161.64 48.1915 161.343 48.234 161.047 48.3614C160.793 48.4887 160.539 48.6586 160.328 48.8709C160.116 49.0832 159.989 49.3379 159.905 49.5927C159.82 49.8474 159.735 50.1447 159.735 50.4419Z" fill="#6F625A"/>
<path d="M169.087 46.6205H170.864V47.8519C171.033 47.4697 171.33 47.13 171.668 46.8753C172.007 46.6205 172.514 46.4507 173.149 46.4507C173.784 46.4507 174.08 46.5356 174.418 46.7054C174.757 46.8753 175.053 47.0876 175.265 47.3848C175.476 47.6396 175.646 47.9792 175.73 48.3189C175.815 48.6586 175.857 49.0407 175.857 49.4229V54.2208H173.953V49.6352C173.953 49.3804 173.868 49.1256 173.784 48.9133C173.699 48.7011 173.572 48.4888 173.361 48.3614C173.149 48.1915 172.895 48.1491 172.599 48.1491C172.303 48.1491 172.007 48.1915 171.795 48.3189C171.583 48.4463 171.414 48.5737 171.245 48.7435C171.076 48.9133 170.991 49.1256 170.949 49.3379C170.906 49.5927 170.864 49.805 170.864 50.0598V54.2208H168.96V46.6205H169.087Z" fill="#6F625A"/>
<path d="M185.462 43.0114H192.867V44.7947H187.451V47.5546H192.571V49.3379H187.451V52.3525H193.121V54.1358H185.462V42.9265V43.0114Z" fill="#6F625A"/>
<path d="M198.114 50.1446L195.491 46.6205H197.775L199.299 48.9133L200.949 46.6205H203.107L200.526 50.1446L203.573 54.2208H201.288L199.299 51.5034L197.31 54.2208H195.067L198.114 50.1446Z" fill="#6F625A"/>
<path d="M205.942 46.6205H207.72V47.7669C208.016 47.2999 208.354 46.9602 208.82 46.7479C209.285 46.5356 209.793 46.4507 210.301 46.4507C210.808 46.4507 211.401 46.5356 211.866 46.7479C212.332 46.9602 212.713 47.215 213.051 47.5971C213.39 47.9368 213.601 48.3614 213.813 48.8709C214.024 49.3804 214.067 49.8899 214.067 50.4419C214.067 50.9939 213.982 51.5459 213.813 52.0129C213.644 52.48 213.39 52.9046 213.051 53.2867C212.713 53.6688 212.332 53.9236 211.909 54.1359C211.486 54.3482 210.978 54.4331 210.428 54.4331C209.878 54.4331 209.751 54.4331 209.497 54.3057C209.201 54.2208 208.989 54.1359 208.777 54.0085C208.566 53.8811 208.397 53.7538 208.227 53.6264L207.847 53.2442V57.8299H205.942V46.6205ZM212.205 50.4419C212.205 50.1447 212.205 49.8475 212.078 49.5927C211.951 49.3379 211.824 49.0832 211.655 48.8709C211.443 48.6586 211.232 48.4888 210.935 48.3614C210.639 48.234 210.343 48.1915 210.005 48.1915C209.666 48.1915 209.37 48.234 209.074 48.3614C208.777 48.4888 208.566 48.6586 208.354 48.8709C208.143 49.0832 208.016 49.3379 207.931 49.5927C207.847 49.8475 207.804 50.1447 207.804 50.4419C207.804 50.7391 207.804 51.0363 207.931 51.2911C208.058 51.5458 208.185 51.8006 208.354 52.0129C208.566 52.2252 208.777 52.395 209.074 52.5224C209.37 52.6498 209.666 52.6923 210.005 52.6923C210.343 52.6923 210.639 52.6498 210.935 52.5224C211.232 52.395 211.443 52.2252 211.655 52.0129C211.866 51.8006 211.993 51.5458 212.078 51.2911C212.163 51.0363 212.205 50.7391 212.205 50.4419Z" fill="#6F625A"/>
<path d="M218.637 51.0789C218.721 51.6308 218.933 52.0979 219.314 52.3951C219.695 52.6923 220.16 52.8622 220.668 52.8622C221.176 52.8622 221.514 52.7772 221.853 52.5649C222.191 52.3526 222.445 52.1403 222.699 51.8431L224.053 52.8622C223.63 53.4141 223.122 53.7963 222.572 54.051C222.022 54.3058 221.472 54.3907 220.837 54.3907C220.202 54.3907 219.737 54.3058 219.229 54.0935C218.722 53.8812 218.298 53.6264 217.918 53.2868C217.537 52.9471 217.241 52.5225 217.029 52.013C216.817 51.5459 216.69 50.9939 216.69 50.357C216.69 49.7201 216.775 49.2106 217.029 48.7011C217.241 48.2341 217.537 47.8095 217.918 47.4273C218.298 47.0452 218.722 46.8329 219.229 46.6206C219.737 46.4083 220.287 46.3234 220.837 46.3234C221.387 46.3234 221.853 46.4083 222.276 46.5781C222.699 46.748 223.08 47.0452 223.376 47.3849C223.672 47.7245 223.926 48.1491 224.095 48.6586C224.265 49.1682 224.349 49.7626 224.349 50.3995V50.909H218.595V51.0789H218.637ZM222.53 49.6777C222.53 49.1257 222.361 48.6587 222.022 48.3614C221.683 48.0642 221.218 47.8944 220.626 47.8944C220.033 47.8944 219.61 48.0642 219.272 48.3614C218.933 48.7011 218.721 49.1257 218.679 49.6777H222.572H222.53Z" fill="#6F625A"/>
<path d="M227.438 46.6205H229.342V47.8094C229.554 47.3848 229.85 47.0026 230.231 46.7903C230.612 46.5356 231.077 46.4082 231.585 46.4082C232.093 46.4082 231.797 46.4082 231.923 46.4082C232.05 46.4082 232.135 46.4507 232.262 46.4931V48.3189C232.093 48.2764 231.966 48.234 231.796 48.234H231.331C230.908 48.234 230.527 48.3189 230.273 48.4887C230.019 48.6586 229.808 48.8284 229.638 49.0407C229.512 49.253 229.385 49.4653 229.342 49.6776C229.3 49.8899 229.258 50.0597 229.258 50.1447V54.2208H227.354V46.6205H227.438Z" fill="#6F625A"/>
<path d="M233.954 48.2341V46.6206H235.52V44.4127H237.424V46.6206H239.497V48.2341H237.424V51.546C237.424 51.9281 237.508 52.2253 237.635 52.4376C237.762 52.6499 238.059 52.7773 238.482 52.7773C238.905 52.7773 238.82 52.7773 239.032 52.7348C239.243 52.7348 239.37 52.6499 239.497 52.565V54.1785C239.286 54.2634 239.074 54.3483 238.778 54.3908C238.482 54.4332 238.228 54.4332 238.016 54.4332C237.508 54.4332 237.085 54.3908 236.789 54.2634C236.451 54.136 236.239 53.9662 236.027 53.7539C235.858 53.5416 235.731 53.2443 235.647 52.9047C235.562 52.565 235.562 52.1828 235.562 51.7158V48.2341H233.954Z" fill="#6F625A"/>
<path d="M246.225 48.7435C245.844 48.234 245.379 47.9793 244.744 47.9793C244.109 47.9793 244.236 48.0217 243.982 48.1491C243.728 48.2765 243.601 48.4888 243.601 48.7435C243.601 48.9983 243.686 49.1257 243.898 49.253C244.109 49.338 244.363 49.4653 244.659 49.5078C244.955 49.5503 245.294 49.6776 245.632 49.7201C245.971 49.805 246.309 49.9324 246.606 50.1022C246.902 50.2721 247.156 50.4844 247.367 50.7816C247.579 51.0788 247.664 51.461 247.664 51.9705C247.664 52.48 247.579 52.8197 247.367 53.1169C247.156 53.4141 246.902 53.6689 246.606 53.8812C246.309 54.0935 245.929 54.2208 245.548 54.3058C245.167 54.3907 244.786 54.4331 244.363 54.4331C243.94 54.4331 243.221 54.3482 242.755 54.1784C242.247 54.0085 241.824 53.7113 241.443 53.2443L242.713 52.0554C242.967 52.3101 243.221 52.5649 243.474 52.7347C243.771 52.9046 244.109 52.9895 244.49 52.9895C244.871 52.9895 244.786 52.9895 244.913 52.947C245.04 52.947 245.209 52.8621 245.336 52.7772C245.463 52.6923 245.548 52.6074 245.632 52.5224C245.717 52.4375 245.759 52.2677 245.759 52.1403C245.759 51.8855 245.675 51.6732 245.463 51.5459C245.252 51.4185 244.998 51.3336 244.702 51.2487C244.405 51.1637 244.067 51.0788 243.728 51.0364C243.39 50.9939 243.051 50.8665 242.755 50.6967C242.459 50.5268 242.205 50.3145 241.993 50.0598C241.782 49.805 241.697 49.4229 241.697 48.9134C241.697 48.4039 241.782 48.1066 241.951 47.8094C242.12 47.5122 242.374 47.2574 242.628 47.0451C242.924 46.8328 243.221 46.7055 243.601 46.6205C243.982 46.5356 244.363 46.4932 244.702 46.4932C245.04 46.4932 245.717 46.5781 246.183 46.7479C246.648 46.9178 247.071 47.215 247.367 47.6396L246.098 48.786H246.225C246.225 48.7577 246.225 48.7435 246.225 48.7435Z" fill="#6F625A"/>
<path d="M154.15 3.48157L136.505 35.2414H145.433L148.057 30.1887H165.744L168.283 35.2414H178.438L161.766 3.48157H154.15ZM157.239 13.2898L163.247 25.136H150.849L157.239 13.2898Z" fill="black"/>
<path d="M216.605 3.48157H207V35.2414H216.605V3.48157Z" fill="black"/>
<path d="M139.298 19.3615C139.298 9.00133 131.808 3.48157 123.176 3.48157H114.502V11.2517H122.584C127.789 11.2517 130.116 14.1814 130.116 19.3615C130.116 24.5416 128.423 26.5797 124.657 27.3015V35.2414C132.655 34.647 139.34 29.1697 139.34 19.3615" fill="black"/>
<path d="M204.546 3.48157H195.153L186.478 23.2678L177.381 3.48157H167.521L182.881 35.2414H189.144L204.546 3.48157Z" fill="black"/>
<path d="M228.031 11.4641C228.031 9.55342 230.146 8.74669 233.193 8.74669C238.651 8.74669 242.079 10.4451 245.887 12.0161V4.58564C241.91 3.5666 238.567 2.71741 233.701 2.71741C228.835 2.71741 220.16 4.96777 220.16 12.8653C220.16 24.754 239.963 20.8902 239.963 26.325C239.963 31.7599 238.101 29.6369 233.912 29.6369C229.723 29.6369 223.926 27.4714 220.414 25.773V33.8828C224.392 34.6896 229.258 35.6237 234.081 35.6237C243.433 35.6237 247.791 31.1654 247.791 25.1361C247.791 12.7379 227.988 16.9839 227.988 11.4217L228.031 11.4641Z" fill="black"/>
<path d="M44.3449 13.2901L50.3535 25.1363H37.9555L44.3449 13.2901ZM41.2983 3.48187L23.6533 35.2418H32.5816L35.2051 30.189H52.8923L55.4312 35.2418H65.5865L48.9148 3.48187H41.2983Z" fill="#B4985B"/>
<path d="M97.8305 3.48187V25.2213C97.8305 32.2696 94.4877 35.7513 81.4973 35.7513C68.5069 35.7513 65.1641 32.2696 65.1641 25.2213V3.48187H74.1346V21.0602C74.1346 26.6649 76.3773 28.4482 81.5396 28.4482C86.7019 28.4482 88.9446 26.6649 88.9446 21.0602V3.48187H97.9151H97.8305Z" fill="#B4985B"/>
<path d="M101.512 3.48187V35.2418H121.526V27.7264H111.159V3.48187H101.512Z" fill="#B4985B"/>
<path d="M9.47836 35.2417H0.126953V3.48181H12.5673C28.562 3.48181 31.2278 6.79367 31.2278 13.5448C31.2278 20.2959 28.0965 23.0133 18.1951 23.0133C8.29357 23.0133 11.4248 22.9284 9.52067 22.8859V35.2417H9.47836ZM9.47836 17.7058C10.7478 17.7907 11.9749 17.7907 13.202 17.7058C20.9032 17.6209 22.2149 15.7951 22.2149 13.2051C22.2149 10.615 20.7339 8.78928 13.202 8.74682C11.9326 8.74682 10.7055 8.74682 9.43604 8.8742V17.6634H9.47836V17.7058Z" fill="#B4985B"/>
<path d="M248.341 0.551978H246.902V0H250.414V0.551978H248.976V4.50073H248.383V0.551978H248.341Z" fill="#6F625A"/>
<path d="M251.303 0H252.234L253.672 3.39678L255.069 0H256V4.50073H255.407V0.806736L253.884 4.50073H253.461L251.937 0.806736V4.50073H251.345V0H251.303Z" fill="#6F625A"/>
</svg>
