<svg xmlns="http://www.w3.org/2000/svg" xmlns:xlink="http://www.w3.org/1999/xlink" id="Logo" style="enable-background:new 0 0 630.0 187.2;" version="1.1" viewBox="0 0 630.0 187.2" x="0px" y="0px" xml:space="preserve">
    <g id="XMLID_1_">
        <path d="M133.7,12.1c39.6,22.5,48.8,73.1,21.2,124.2c-24.2,45-77,64.1-116.4,41.3   C-0.8,154.6-8.5,90.8,8.5,54.1C33,0.7,90-12.9,133.7,12.1" id="XMLID_5_" style="fill:#007FA3;"></path>
        <path d="M132.8,50.8c7.7,8.3,10.2,20.8,8.8,31.1c-1.5,11.7-8.7,22.6-20.5,29.8   c-9.4,5.7-21.7,8-33.8,8.1c-0.1,1.9-0.5,8.5-0.7,9.6c-0.3,1.5-0.8,2.4-1.5,3.2c-1.3,1.7-3.6,2.8-5.8,3.4c-1.8,0.5-3.5,0.7-4.8,0.7   c-0.2,0-0.4,0-0.6,0c-1.3-0.1-2.8-0.8-3.7-1.8c-0.9-1-1.4-2.3-1.5-3.7l-0.1-1.3c-0.3-1.1-1.7-58.1-1.4-57.1   c0.2-6.8,11.2-8,17.2-6.8c6,1.2,4.5,8.5,4.3,17.5c0,0-0.3,11.8-0.8,24.2c7.6-0.3,13.7-2.5,19.4-5.3c11.5-5.7,17.5-14.4,17.5-27.2   c0-12.8-12.5-27.2-35.6-27.2c-23.1,0-33,5.8-44.1,15.1c-2.5,2.1-4.5,4.2-6.3,5.6c-1.8,1.4-6.7,1.6-8-1.6c-1.6-3.9,1.4-8.2,3.1-10.3   c2.7-3.3,9.4-9.9,16.8-13.8c8.5-4.4,18.9-9.2,33.3-9.6c13.1-0.3,33.7,0.7,48.6,17.5 M82.8,145.2c-1.2-0.9-2.6-1.6-3.9-1.9   c-0.5-0.1-0.9-0.1-1.4-0.1c-2.6,0-5.1,1.4-6.7,3.8c-1.4,2-1.9,4.3-1.6,6.6c0.2,1.5,0.8,2.7,1.6,3.7c0.9,1.1,2.3,1.9,4,2.4   c1,0.3,2,0.4,3,0.4h0c2.2,0,4.2-0.7,5.8-1.9c1.8-1.5,2.8-3.6,2.8-5.9C86.3,149.6,85,146.9,82.8,145.2" id="XMLID_2_" style="fill:#FFFFFF;"></path>
    </g>
    <g>
        <g>
            <g>
                <g>
                    <path d="M388.6,131.8c-0.7,0.1-1.4,0.3-2,0.3c-3.4,0-4.4-2.8-4.4-7.2V92.3c0-12.3-7.3-18.5-21.8-18.5      c-13,0-23.1,6.1-23.1,14c0,4,2.4,7.4,7,7.4c5.5,0,7.5-4.5,7.5-7c0-2.2-0.7-4.6-3.2-7.2c2.3-2.4,6.3-3.8,10.9-3.8      c7.5,0,10.7,4.5,10.7,14.9v8c-14,3.6-35,6.4-35,22.4c0,6.8,4.3,14.4,16.4,14.4c6.6,0,13.1-3.1,19.2-9.6c0.6,7,3.4,9.6,9.7,9.6      c3.2,0,6.7-1,8.9-2.3c0.8-0.5,1.2-1.2,0.9-2C390.1,131.7,389.3,131.6,388.6,131.8z M370.3,122.5c-1.5,2.3-6.8,8.2-12.8,8.2      c-7.7,0-9.4-5.7-9.4-10.5c0-7.9,6-12.5,22.1-16.5V122.5z" style="fill:#3D3935;"></path>
                    <path d="M431.9,73.8c-6,0-11.7,3.4-16.6,11.4v-9c0-1-0.7-1.7-1.8-1.7l-16,0.4c-0.9,0-1.4,0.8-1.4,1.5      c0,0.6,0.3,1.4,1.2,1.5c5.3,0.7,6,3.2,6,5.8l0,44.8c0,3.2-0.8,4.2-5.9,4.5c-0.7,0-1.3,0.7-1.3,1.4c0,0.8,0.6,1.4,1.4,1.4h25      c0.8,0,1.4-0.6,1.4-1.4c0-0.7-0.6-1.4-1.3-1.4c-5.8-0.3-7.3-1.2-7.3-4.6V91.6c2.3-5.2,7.1-10.4,12.1-11.5      c-0.2,0.9-0.4,1.9-0.4,2.7c0,4.5,3.1,7.6,7.6,7.6c4.4,0,7.4-3.1,7.4-7.6C442,78.7,439.3,73.8,431.9,73.8z" style="fill:#3D3935;"></path>
                    <path d="M622.3,133c-5.1-0.3-5.9-1.4-5.9-4.5V91.9c0-11.5-6.1-18.2-17.5-18.2c-9.9,0-16.8,5.5-21.3,12      v-9.6c0-1-0.7-1.7-1.8-1.7l-16,0.4c-0.9,0-1.4,0.8-1.4,1.5c0,0.6,0.3,1.4,1.2,1.5c5.3,0.7,6,3.2,6,5.8l0,44.8      c0,3.2-0.8,4.2-5.9,4.5c-0.7,0-1.3,0.7-1.3,1.4c0,0.8,0.6,1.4,1.4,1.4h23c0.8,0,1.4-0.6,1.4-1.4c0-0.7-0.6-1.4-1.3-1.4      c-4.8-0.3-5.3-1.4-5.3-4.5V93.6c3.7-7.5,10.2-13.1,16.4-13.1c7.7,0,10.4,4.2,10.4,14.9v33.1c0,3.1-0.7,4.2-4.7,4.5      c-0.7,0.1-1.3,0.7-1.3,1.4c0,0.8,0.7,1.4,1.4,1.4h22.4c0.8,0,1.4-0.6,1.4-1.4C623.7,133.7,623.1,133.1,622.3,133z" style="fill:#3D3935;"></path>
                    <path d="M525.8,73.8c-17.1,0-30.1,14.1-30.1,31.5c0,17.4,13,31.5,30.1,31.5s30.1-14.1,30.1-31.5      C555.9,87.9,542.9,73.8,525.8,73.8z M525.8,133.5c-13,0-16.5-12.6-16.5-28.2s3.5-28.2,16.5-28.2c13,0,16.5,12.6,16.5,28.2      S538.8,133.5,525.8,133.5z" style="fill:#3D3935;"></path>
                    <path d="M203.8,52.9c9.3,0.9,11.3,4.1,11.3,8.7v62.5c0,4.6-2,7.8-11.2,8.7c-1,0.1-1.3,0.8-1.3,1.5      c0,0.7,0.5,1.5,1.4,1.5h36.5c0.9,0,1.4-0.8,1.4-1.5c0-0.7-0.3-1.4-1.3-1.5c-10-0.8-12.1-3.9-12.1-8.7v-22.7h11.3      c16.1,0,34.9-4.7,34.9-25.8c0-20.8-20.1-25.7-37-25.7h-33.8c-0.9,0-1.4,0.8-1.4,1.5C202.5,52.1,202.8,52.8,203.8,52.9z       M228.5,53.9h9.4c18.9,0,21.6,10.5,21.6,21.8c0,11.4-2.7,21.8-21.6,21.8h-9.4V53.9z" style="fill:#3D3935;"></path>
                    <path d="M302.8,73.8c-15.9,0-28.8,14.4-28.8,32.1c0,17.9,12.1,30.9,28.8,30.9c13.9,0,21.2-7.7,24.5-14.1      c0.6-1.2,0.4-2.4-0.3-2.8c-0.7-0.4-1.5-0.1-1.9,0.5c-4.5,6-9.7,10.2-17.5,10.2c-17.7,0-21.1-18.2-20.4-29.2h38.4      c1.9,0,2.3-1.1,2.3-3C327.9,89.9,323.5,73.8,302.8,73.8 M287.4,97.4c1.3-13.1,6.6-20.2,14.6-20.2c10.7,0,12.6,9.1,12.6,16.4      c0,1.3-0.1,2.5-0.1,3.8H287.4z" style="fill:#3D3935;"></path>
                    <path d="M470.2,98.2C459.3,95,454.8,92,454.8,87c0-5.6,4.5-9.8,10.6-9.8c7.1,0,11.7,3.8,17.7,15.2      c0.4,0.8,0.8,1.3,1.6,1.3c1,0,1.5-0.7,1.5-1.9V75.5c0-1.2-0.2-1.8-1-1.8c-0.5,0-0.9,0.2-1.5,0.8l-2.6,2.7      c-3.1-1.7-8.4-3.5-13.4-3.5c-12.7,0-21.3,7.9-21.3,19.1c0,10.5,7.2,14.2,19,17.7c11.7,3.5,15.9,6.5,15.9,12.7      c0,6.9-6.7,10-11.4,10c-8.8,0-14.7-4.4-20.6-17.2c-0.4-0.8-0.8-1.5-1.7-1.5c-1,0-1.5,0.7-1.5,1.9v18.6c0,1.1,0.5,1.7,1.1,1.7      c0.5,0,1-0.2,1.6-0.8l3.6-3.6c4.5,2.9,10.4,4.4,16,4.4c13,0,20.6-8.3,20.6-20.1C489.1,107.1,484,102.2,470.2,98.2z" style="fill:#3D3935;"></path>
                </g>
            </g>
        </g>
    </g>
</svg>