<?xml version="1.0" encoding="UTF-8"?>
<svg width="74px" height="105px" viewBox="0 0 74 105" version="1.1" xmlns="http://www.w3.org/2000/svg" xmlns:xlink="http://www.w3.org/1999/xlink">
    <title>pefc-14-01-01</title>
    <defs>
        <path d="M1.546875,10 L1.546875,7.38964844 L3.19482422,7.38964844 C4.03857422,7.38964844 4.65161133,7.21020508 5.03393555,6.85131836 C5.41625977,6.49243164 5.60742188,6.015625 5.60742188,5.42089844 C5.60742188,5.12207031 5.54663086,4.83569336 5.42504883,4.56176758 C5.3034668,4.2878418 5.12402344,4.07104492 4.88671875,3.91137695 C4.64941406,3.75170898 4.39233398,3.65283203 4.11547852,3.61474609 C3.83862305,3.57666016 3.50830078,3.55761719 3.12451172,3.55761719 L3.12451172,3.55761719 L0.694335938,3.55761719 L0.694335938,10 L1.546875,10 Z M3.20361328,6.625 L1.546875,6.625 L1.546875,4.32226562 L3.18603516,4.32226562 C3.56396484,4.32226562 3.84887695,4.34643555 4.04077148,4.39477539 C4.23266602,4.44311523 4.39453125,4.56616211 4.52636719,4.76391602 C4.65820313,4.96166992 4.72412109,5.18945312 4.72412109,5.44726562 C4.72412109,6.23242188 4.21728516,6.625 3.20361328,6.625 L3.20361328,6.625 Z M11.5268555,10 L11.5268555,9.23535156 L7.56738281,9.23535156 L7.56738281,7.05566406 L11.1313477,7.05566406 L11.1313477,6.29101562 L7.56738281,6.29101562 L7.56738281,4.32226562 L11.3774414,4.32226562 L11.3774414,3.55761719 L6.71484375,3.55761719 L6.71484375,10 L11.5268555,10 Z M13.5791016,10 L13.5791016,7.08203125 L16.6069336,7.08203125 L16.6069336,6.31738281 L13.5791016,6.31738281 L13.5791016,4.32226562 L17.0727539,4.32226562 L17.0727539,3.55761719 L12.7265625,3.55761719 L12.7265625,10 L13.5791016,10 Z M20.9882813,10.1098633 C21.6416016,10.1098633 22.2019043,9.93188477 22.6691895,9.57592773 C23.1364746,9.2199707 23.4638672,8.68017578 23.6513672,7.95654297 L23.6513672,7.95654297 L22.8032227,7.74121094 C22.6772461,8.2890625 22.4567871,8.69921875 22.1418457,8.97167969 C21.8269043,9.24414062 21.4174805,9.38037109 20.9135742,9.38037109 C20.2983398,9.38037109 19.7995605,9.16210938 19.4172363,8.72558594 C19.0349121,8.2890625 18.84375,7.62255859 18.84375,6.72607422 C18.84375,5.94970703 19.0253906,5.33081055 19.3886719,4.86938477 C19.7519531,4.40795898 20.2851563,4.17724609 20.9882813,4.17724609 C21.4189453,4.17724609 21.777832,4.29003906 22.0649414,4.515625 C22.3520508,4.74121094 22.565918,5.078125 22.706543,5.52636719 L22.706543,5.52636719 L23.5415039,5.32861328 C23.362793,4.71337891 23.0507813,4.24609375 22.6054688,3.92675781 C22.1601563,3.60742188 21.6240234,3.44775391 20.9970703,3.44775391 C20.1064453,3.44775391 19.3776855,3.73852539 18.810791,4.32006836 C18.2438965,4.90161133 17.9604492,5.70654297 17.9604492,6.73486328 C17.9604492,7.66357422 18.201416,8.45825195 18.6833496,9.11889648 C19.1652832,9.77954102 19.9335938,10.1098633 20.9882813,10.1098633 Z M24.6401367,10.215332 L26.503418,3.55761719 L25.8662109,3.55761719 L24.0029297,10.215332 L24.6401367,10.215332 Z M29.878418,10 L29.878418,3.52685547 L29.3642578,3.52685547 C29.0332031,4.17138672 28.4121094,4.71191406 27.5009766,5.1484375 L27.5009766,5.1484375 L27.5009766,5.91308594 C28.1630859,5.65234375 28.6918945,5.33447266 29.0874023,4.95947266 L29.0874023,4.95947266 L29.0874023,10 L29.878418,10 Z M35.2265625,10 L35.2265625,8.46191406 L36.0966797,8.46191406 L36.0966797,7.73242188 L35.2265625,7.73242188 L35.2265625,3.55761719 L34.5761719,3.55761719 L31.6450195,7.73242188 L31.6450195,8.46191406 L34.4355469,8.46191406 L34.4355469,10 L35.2265625,10 Z M34.4355469,7.73242188 L32.418457,7.73242188 L34.4179688,4.82324219 L34.4355469,4.82324219 L34.4355469,7.73242188 Z M39.2211914,8.06640625 L39.2211914,7.27099609 L36.8041992,7.27099609 L36.8041992,8.06640625 L39.2211914,8.06640625 Z M42.0117188,10.1098633 C42.6884766,10.1098633 43.2077637,9.83959961 43.5695801,9.29907227 C43.9313965,8.75854492 44.1123047,7.93310547 44.1123047,6.82275391 C44.1123047,4.62548828 43.4121094,3.52685547 42.0117188,3.52685547 C41.3378906,3.52685547 40.8200684,3.79858398 40.458252,4.34204102 C40.0964355,4.88549805 39.9155273,5.71240234 39.9155273,6.82275391 C39.9155273,9.01416016 40.6142578,10.1098633 42.0117188,10.1098633 Z M42.0117188,9.45947266 C41.7275391,9.45947266 41.4902344,9.36791992 41.2998047,9.18481445 C41.109375,9.00170898 40.9658203,8.72265625 40.8691406,8.34765625 C40.7724609,7.97265625 40.7241211,7.46435547 40.7241211,6.82275391 C40.7241211,5.89697266 40.8310547,5.22460938 41.0449219,4.80566406 C41.2587891,4.38671875 41.578125,4.17724609 42.0029297,4.17724609 C42.2929688,4.17724609 42.5339355,4.26879883 42.7258301,4.4519043 C42.9177246,4.63500977 43.0612793,4.91333008 43.1564941,5.28686523 C43.251709,5.66040039 43.2993164,6.17236328 43.2993164,6.82275391 C43.2993164,7.75732422 43.190918,8.43041992 42.9741211,8.84204102 C42.7573242,9.25366211 42.4365234,9.45947266 42.0117188,9.45947266 Z M47.8916016,10 L47.8916016,3.52685547 L47.3774414,3.52685547 C47.0463867,4.17138672 46.425293,4.71191406 45.5141602,5.1484375 L45.5141602,5.1484375 L45.5141602,5.91308594 C46.1762695,5.65234375 46.7050781,5.33447266 47.1005859,4.95947266 L47.1005859,4.95947266 L47.1005859,10 L47.8916016,10 Z M52.2290039,8.06640625 L52.2290039,7.27099609 L49.8120117,7.27099609 L49.8120117,8.06640625 L52.2290039,8.06640625 Z M55.0195313,10.1098633 C55.6962891,10.1098633 56.2155762,9.83959961 56.5773926,9.29907227 C56.939209,8.75854492 57.1201172,7.93310547 57.1201172,6.82275391 C57.1201172,4.62548828 56.4199219,3.52685547 55.0195313,3.52685547 C54.3457031,3.52685547 53.8278809,3.79858398 53.4660645,4.34204102 C53.104248,4.88549805 52.9233398,5.71240234 52.9233398,6.82275391 C52.9233398,9.01416016 53.6220703,10.1098633 55.0195313,10.1098633 Z M55.0195313,9.45947266 C54.7353516,9.45947266 54.4980469,9.36791992 54.3076172,9.18481445 C54.1171875,9.00170898 53.9736328,8.72265625 53.8769531,8.34765625 C53.7802734,7.97265625 53.7319336,7.46435547 53.7319336,6.82275391 C53.7319336,5.89697266 53.8388672,5.22460938 54.0527344,4.80566406 C54.2666016,4.38671875 54.5859375,4.17724609 55.0107422,4.17724609 C55.3007813,4.17724609 55.541748,4.26879883 55.7336426,4.4519043 C55.9255371,4.63500977 56.0690918,4.91333008 56.1643066,5.28686523 C56.2595215,5.66040039 56.3071289,6.17236328 56.3071289,6.82275391 C56.3071289,7.75732422 56.1987305,8.43041992 55.9819336,8.84204102 C55.7651367,9.25366211 55.4443359,9.45947266 55.0195313,9.45947266 Z M60.8994141,10 L60.8994141,3.52685547 L60.3852539,3.52685547 C60.0541992,4.17138672 59.4331055,4.71191406 58.5219727,5.1484375 L58.5219727,5.1484375 L58.5219727,5.91308594 C59.184082,5.65234375 59.7128906,5.33447266 60.1083984,4.95947266 L60.1083984,4.95947266 L60.1083984,10 L60.8994141,10 Z" id="path-1"></path>
    </defs>
    <g id="Page-1" stroke="none" stroke-width="1" fill="none" fill-rule="evenodd">
        <g id="pefc-14-01-01" transform="translate(0.514000, 0.000000)" fill-rule="nonzero">
            <g id="logo" fill="#FFFFFF">
                <path d="M9.07323059,73.5489862 L-2.88657986e-15,73.5489862 L-2.88657986e-15,77.3527981 L8.81752051,77.3527981 C10.7239039,77.3527981 11.291043,78.1965419 11.291043,79.2532116 C11.291043,80.3327658 10.7239039,81.1844695 8.81752051,81.1844695 L-2.88657986e-15,81.1804895 L-2.88657986e-15,89.688571 L4.37891083,89.688571 L4.37891083,84.9892763 L9.07323059,84.9892763 C13.0531541,84.9892763 15.6719438,82.4689898 15.6719438,79.2532116 C15.6719438,76.0394234 13.0531541,73.5489862 9.07323059,73.5489862" id="Fill-8"></path>
                <polyline id="Fill-9" points="19.8369337 89.688571 34.3716143 89.688571 34.3716143 85.888739 24.2168395 85.888739 24.2168395 83.341588 31.1259867 83.341588 31.1259867 79.5357861 24.2168395 79.5357861 24.2168395 77.3527981 34.3716143 77.3527981 34.3716143 73.5489862 19.8369337 73.5489862 19.8369337 89.688571"></polyline>
                <polyline id="Fill-10" points="39.1594623 89.688571 43.541358 89.688571 43.541358 83.341588 50.4544852 83.341588 50.4544852 79.5357861 43.541358 79.5357861 43.541358 77.3527981 53.7011077 77.3527981 53.7011077 73.5489862 39.1594623 73.5489862 39.1594623 89.688571"></polyline>
                <path d="M65.3443739,77.044354 C66.8567449,77.044354 68.1323103,77.6065182 69.0785372,78.6711478 L72.6057444,76.2175249 C70.6625467,74.186769 68.0178875,73.2385522 65.3443739,73.2385522 C60.0520707,73.2385522 55.8114622,76.8861521 55.8114622,81.6172861 C55.8114622,86.3484202 60.0520707,90 65.3443739,90 C68.0039578,90 70.6326973,89.061733 72.573905,87.0528667 L69.0218232,84.7673956 C68.1064408,85.6608884 66.7930661,86.200168 65.3443739,86.200168 C62.7275742,86.200168 60.3366352,84.1664271 60.3366352,81.6172861 C60.3366352,79.0691401 62.7275742,77.044354 65.3443739,77.044354" id="Fill-11"></path>
                <path d="M43.0478475,51.296239 L43.0478475,43.9403454 L53.4453977,43.9403454 L39.5992438,15.6102549 L33.0960488,27.9689124 C33.2711655,28.87335 33.3617087,29.8066421 33.3617087,30.7628187 C33.3617087,36.3944104 30.1986645,41.2976762 25.5262343,43.856767 L25.2804741,43.9403454 L36.1247706,43.9403454 L36.1247706,51.296239 L43.0478475,51.296239" id="Fill-12"></path>
                <path d="M13.9824662,43.0448626 L13.9824662,51.5131448 L20.9055431,51.5131448 L20.9055431,43.1732151 C26.4237071,41.7643222 30.4941738,36.8431468 30.4941738,30.9807195 C30.4941738,24.0267982 24.7571141,18.3882415 17.6798152,18.3882415 C10.5985363,18.3882415 4.86048157,24.0267982 4.86048157,30.9807195 C4.86048157,36.674 8.70508767,41.4837376 13.9824662,43.0448626" id="Fill-13"></path>
                <path d="M10.5985363,17.2081942 C11.291043,16.8500011 12.0124041,16.5405621 12.7616247,16.2878369 C19.7603202,9.06328078 29.4812833,4.35403631 39.174387,4.35403631 C54.4901276,4.35403631 64.1563668,16.1117253 61.5037478,30.9777345 L67.6258651,25.2675393 L71.7132465,29.8066421 C73.766887,13.0193247 62.3295819,0 44.6049926,0 C31.7498397,0 18.8608575,6.85342826 10.4134698,17.0261127 C10.4134698,17.0261127 10.3657107,17.0977513 10.4353594,17.1733699 C10.5119729,17.2579433 10.5985363,17.2081942 10.5985363,17.2081942" id="Fill-14"></path>
                <path d="M28.1291043,67.6497446 C46.9939417,67.6497446 65.9244478,52.8981582 70.7908992,34.5566807 L66.8278904,30.1588653 L59.9625224,36.5585823 C54.7080284,50.5310987 39.9663918,61.3166914 25.3013687,61.3166914 C10.1716895,61.3166914 0.55818427,49.8445619 2.87847967,35.2342627 C2.60983483,34.2950008 2.42277843,33.3159396 2.33323015,32.3120039 C2.33323015,32.3120039 2.33920004,32.2433502 2.24268689,32.2533 C2.18298804,32.2582749 2.16209344,32.3120039 2.16209344,32.3120039 C2.01981117,32.8154642 1.88747872,33.3189245 1.76211113,33.8233798 C-2.79092135,52.5101156 9.01353174,67.6497446 28.1291043,67.6497446" id="Fill-15"></path>
            </g>
            <g id="PEFC/14-01-01" transform="translate(4.950844, 92.619629)">
                <use fill="#000000" xlink:href="#path-1"></use>
                <use fill="#FFFFFF" xlink:href="#path-1"></use>
            </g>
        </g>
    </g>
</svg>