<?xml version="1.0" encoding="UTF-8"?>
<svg width="74px" height="105px" viewBox="0 0 74 105" version="1.1" xmlns="http://www.w3.org/2000/svg" xmlns:xlink="http://www.w3.org/1999/xlink">
    <title>pefc-05-01-01</title>
    <defs>
        <path d="M6.49771875,102.619629 L6.49771875,100.009277 L8.14566797,100.009277 C8.98941797,100.009277 9.60245508,99.8298341 9.9847793,99.4709474 C10.3671035,99.1120606 10.5582656,98.635254 10.5582656,98.0405274 C10.5582656,97.7416993 10.4974746,97.4553224 10.3758926,97.1813966 C10.2543105,96.9074708 10.0748672,96.6906739 9.8375625,96.531006 C9.60025781,96.371338 9.34317773,96.272461 9.06632227,96.2343751 C8.7894668,96.1962892 8.45914453,96.1772462 8.07535547,96.1772462 L8.07535547,96.1772462 L5.64517969,96.1772462 L5.64517969,102.619629 L6.49771875,102.619629 Z M8.15445703,99.244629 L6.49771875,99.244629 L6.49771875,96.9418946 L8.13687891,96.9418946 C8.51480859,96.9418946 8.7997207,96.9660645 8.99161523,97.0144044 C9.18350977,97.0627442 9.345375,97.1857911 9.47721094,97.383545 C9.60904687,97.5812989 9.67496484,97.8090821 9.67496484,98.0668946 C9.67496484,98.8520509 9.16812891,99.244629 8.15445703,99.244629 L8.15445703,99.244629 Z M16.4776992,102.619629 L16.4776992,101.854981 L12.5182266,101.854981 L12.5182266,99.6752931 L16.0821914,99.6752931 L16.0821914,98.9106446 L12.5182266,98.9106446 L12.5182266,96.9418946 L16.3282852,96.9418946 L16.3282852,96.1772462 L11.6656875,96.1772462 L11.6656875,102.619629 L16.4776992,102.619629 Z M18.5299453,102.619629 L18.5299453,99.7016603 L21.5577773,99.7016603 L21.5577773,98.9370118 L18.5299453,98.9370118 L18.5299453,96.9418946 L22.0235977,96.9418946 L22.0235977,96.1772462 L17.6774062,96.1772462 L17.6774062,102.619629 L18.5299453,102.619629 Z M25.939125,102.729492 C26.5924453,102.729492 27.152748,102.551514 27.6200332,102.195557 C28.0873184,101.8396 28.4147109,101.299805 28.6022109,100.576172 L28.6022109,100.576172 L27.7540664,100.36084 C27.6280898,100.908692 27.4076309,101.318848 27.0926895,101.591309 C26.777748,101.86377 26.3683242,102 25.864418,102 C25.2491836,102 24.7504043,101.781738 24.3680801,101.345215 C23.9857559,100.908692 23.7945937,100.242188 23.7945937,99.3457032 C23.7945937,98.569336 23.9762344,97.9504395 24.3395156,97.4890138 C24.7027969,97.027588 25.236,96.7968751 25.939125,96.7968751 C26.3697891,96.7968751 26.7286758,96.9096681 27.0157852,97.135254 C27.3028945,97.3608399 27.5167617,97.697754 27.6573867,98.1459962 L27.6573867,98.1459962 L28.4923477,97.9482423 C28.3136367,97.3330079 28.001625,96.8657228 27.5563125,96.5463868 C27.111,96.2270509 26.5748672,96.0673829 25.9479141,96.0673829 C25.0572891,96.0673829 24.3285293,96.3581544 23.7616348,96.9396974 C23.1947402,97.5212403 22.911293,98.326172 22.911293,99.3544923 C22.911293,100.283203 23.1522598,101.077881 23.6341934,101.738525 C24.116127,102.39917 24.8844375,102.729492 25.939125,102.729492 Z M29.5909805,102.834961 L31.4542617,96.1772462 L30.8170547,96.1772462 L28.9537734,102.834961 L29.5909805,102.834961 Z M33.95475,102.729492 C34.6315078,102.729492 35.1507949,102.459229 35.5126113,101.918701 C35.8744277,101.378174 36.0553359,100.552734 36.0553359,99.4423829 C36.0553359,97.2451173 35.3551406,96.1464845 33.95475,96.1464845 C33.2809219,96.1464845 32.7630996,96.418213 32.4012832,96.96167 C32.0394668,97.505127 31.8585586,98.3320313 31.8585586,99.4423829 C31.8585586,101.633789 32.5572891,102.729492 33.95475,102.729492 Z M33.95475,102.079102 C33.6705703,102.079102 33.4332656,101.987549 33.2428359,101.804443 C33.0524062,101.621338 32.9088516,101.342285 32.8121719,100.967285 C32.7154922,100.592285 32.6671523,100.083984 32.6671523,99.4423829 C32.6671523,98.5166017 32.7740859,97.8442384 32.9879531,97.4252931 C33.2018203,97.0063478 33.5211562,96.7968751 33.9459609,96.7968751 C34.236,96.7968751 34.4769668,96.8884278 34.6688613,97.0715333 C34.8607559,97.2546388 35.0043105,97.5329591 35.0995254,97.9064942 C35.1947402,98.2800294 35.2423477,98.7919923 35.2423477,99.4423829 C35.2423477,100.376953 35.1339492,101.050049 34.9171523,101.46167 C34.7003555,101.873291 34.3795547,102.079102 33.95475,102.079102 Z M38.9073867,102.729492 C39.5636367,102.729492 40.0939102,102.506104 40.498207,102.059326 C40.9025039,101.612549 41.1046523,101.069824 41.1046523,100.431152 C41.1046523,99.7983399 40.9054336,99.2922364 40.5069961,98.9128419 C40.1085586,98.5334474 39.6412734,98.3437501 39.1051406,98.3437501 C38.6832656,98.3437501 38.2760391,98.4785157 37.8834609,98.748047 L37.8834609,98.748047 L38.2306289,97.0297853 L40.7970352,97.0297853 L40.7970352,96.2651368 L37.6022109,96.2651368 L36.973793,99.5786134 L37.7208633,99.666504 C37.9933242,99.2534181 38.3829727,99.0468751 38.8898086,99.0468751 C39.2911758,99.0468751 39.6193008,99.1772462 39.8741836,99.4379884 C40.1290664,99.6987306 40.2565078,100.054688 40.2565078,100.505859 C40.2565078,100.948242 40.1319961,101.321045 39.8829727,101.624268 C39.6339492,101.92749 39.3087539,102.079102 38.9073867,102.079102 C38.5851211,102.079102 38.314125,101.97876 38.0943984,101.778076 C37.8746719,101.577393 37.7311172,101.273438 37.6637344,100.866211 L37.6637344,100.866211 L36.8375625,100.927734 C36.8961562,101.522461 37.1217422,101.971436 37.5143203,102.274658 C37.9068984,102.577881 38.3712539,102.729492 38.9073867,102.729492 Z M44.1720352,100.686035 L44.1720352,99.8906251 L41.755043,99.8906251 L41.755043,100.686035 L44.1720352,100.686035 Z M46.9625625,102.729492 C47.6393203,102.729492 48.1586074,102.459229 48.5204238,101.918701 C48.8822402,101.378174 49.0631484,100.552734 49.0631484,99.4423829 C49.0631484,97.2451173 48.3629531,96.1464845 46.9625625,96.1464845 C46.2887344,96.1464845 45.7709121,96.418213 45.4090957,96.96167 C45.0472793,97.505127 44.8663711,98.3320313 44.8663711,99.4423829 C44.8663711,101.633789 45.5651016,102.729492 46.9625625,102.729492 Z M46.9625625,102.079102 C46.6783828,102.079102 46.4410781,101.987549 46.2506484,101.804443 C46.0602187,101.621338 45.9166641,101.342285 45.8199844,100.967285 C45.7233047,100.592285 45.6749648,100.083984 45.6749648,99.4423829 C45.6749648,98.5166017 45.7818984,97.8442384 45.9957656,97.4252931 C46.2096328,97.0063478 46.5289687,96.7968751 46.9537734,96.7968751 C47.2438125,96.7968751 47.4847793,96.8884278 47.6766738,97.0715333 C47.8685684,97.2546388 48.012123,97.5329591 48.1073379,97.9064942 C48.2025527,98.2800294 48.2501602,98.7919923 48.2501602,99.4423829 C48.2501602,100.376953 48.1417617,101.050049 47.9249648,101.46167 C47.708168,101.873291 47.3873672,102.079102 46.9625625,102.079102 Z M52.8424453,102.619629 L52.8424453,96.1464845 L52.3282852,96.1464845 C51.9972305,96.7910157 51.3761367,97.3315431 50.4650039,97.7680665 L50.4650039,97.7680665 L50.4650039,98.5327149 C51.1271133,98.2719728 51.6559219,97.9541017 52.0514297,97.5791017 L52.0514297,97.5791017 L52.0514297,102.619629 L52.8424453,102.619629 Z M57.1798477,100.686035 L57.1798477,99.8906251 L54.7628555,99.8906251 L54.7628555,100.686035 L57.1798477,100.686035 Z M59.970375,102.729492 C60.6471328,102.729492 61.1664199,102.459229 61.5282363,101.918701 C61.8900527,101.378174 62.0709609,100.552734 62.0709609,99.4423829 C62.0709609,97.2451173 61.3707656,96.1464845 59.970375,96.1464845 C59.2965469,96.1464845 58.7787246,96.418213 58.4169082,96.96167 C58.0550918,97.505127 57.8741836,98.3320313 57.8741836,99.4423829 C57.8741836,101.633789 58.5729141,102.729492 59.970375,102.729492 Z M59.970375,102.079102 C59.6861953,102.079102 59.4488906,101.987549 59.2584609,101.804443 C59.0680312,101.621338 58.9244766,101.342285 58.8277969,100.967285 C58.7311172,100.592285 58.6827773,100.083984 58.6827773,99.4423829 C58.6827773,98.5166017 58.7897109,97.8442384 59.0035781,97.4252931 C59.2174453,97.0063478 59.5367812,96.7968751 59.9615859,96.7968751 C60.251625,96.7968751 60.4925918,96.8884278 60.6844863,97.0715333 C60.8763809,97.2546388 61.0199355,97.5329591 61.1151504,97.9064942 C61.2103652,98.2800294 61.2579727,98.7919923 61.2579727,99.4423829 C61.2579727,100.376953 61.1495742,101.050049 60.9327773,101.46167 C60.7159805,101.873291 60.3951797,102.079102 59.970375,102.079102 Z M65.8502578,102.619629 L65.8502578,96.1464845 L65.3360977,96.1464845 C65.005043,96.7910157 64.3839492,97.3315431 63.4728164,97.7680665 L63.4728164,97.7680665 L63.4728164,98.5327149 C64.1349258,98.2719728 64.6637344,97.9541017 65.0592422,97.5791017 L65.0592422,97.5791017 L65.0592422,102.619629 L65.8502578,102.619629 Z" id="path-1"></path>
    </defs>
    <g id="Page-1" stroke="none" stroke-width="1" fill="none" fill-rule="evenodd">
        <g id="pefc-05-01-01" transform="translate(0.514000, 0.000000)" fill-rule="nonzero">
            <g id="logo" fill="#FFFFFF">
                <path d="M9.07323059,73.5489862 L-2.88657986e-15,73.5489862 L-2.88657986e-15,77.3527981 L8.81752051,77.3527981 C10.7239039,77.3527981 11.291043,78.1965419 11.291043,79.2532116 C11.291043,80.3327658 10.7239039,81.1844695 8.81752051,81.1844695 L-2.88657986e-15,81.1804895 L-2.88657986e-15,89.688571 L4.37891083,89.688571 L4.37891083,84.9892763 L9.07323059,84.9892763 C13.0531541,84.9892763 15.6719438,82.4689898 15.6719438,79.2532116 C15.6719438,76.0394234 13.0531541,73.5489862 9.07323059,73.5489862" id="Fill-8"></path>
                <polyline id="Fill-9" points="19.8369337 89.688571 34.3716143 89.688571 34.3716143 85.888739 24.2168395 85.888739 24.2168395 83.341588 31.1259867 83.341588 31.1259867 79.5357861 24.2168395 79.5357861 24.2168395 77.3527981 34.3716143 77.3527981 34.3716143 73.5489862 19.8369337 73.5489862 19.8369337 89.688571"></polyline>
                <polyline id="Fill-10" points="39.1594623 89.688571 43.541358 89.688571 43.541358 83.341588 50.4544852 83.341588 50.4544852 79.5357861 43.541358 79.5357861 43.541358 77.3527981 53.7011077 77.3527981 53.7011077 73.5489862 39.1594623 73.5489862 39.1594623 89.688571"></polyline>
                <path d="M65.3443739,77.044354 C66.8567449,77.044354 68.1323103,77.6065182 69.0785372,78.6711478 L72.6057444,76.2175249 C70.6625467,74.186769 68.0178875,73.2385522 65.3443739,73.2385522 C60.0520707,73.2385522 55.8114622,76.8861521 55.8114622,81.6172861 C55.8114622,86.3484202 60.0520707,90 65.3443739,90 C68.0039578,90 70.6326973,89.061733 72.573905,87.0528667 L69.0218232,84.7673956 C68.1064408,85.6608884 66.7930661,86.200168 65.3443739,86.200168 C62.7275742,86.200168 60.3366352,84.1664271 60.3366352,81.6172861 C60.3366352,79.0691401 62.7275742,77.044354 65.3443739,77.044354" id="Fill-11"></path>
                <path d="M43.0478475,51.296239 L43.0478475,43.9403454 L53.4453977,43.9403454 L39.5992438,15.6102549 L33.0960488,27.9689124 C33.2711655,28.87335 33.3617087,29.8066421 33.3617087,30.7628187 C33.3617087,36.3944104 30.1986645,41.2976762 25.5262343,43.856767 L25.2804741,43.9403454 L36.1247706,43.9403454 L36.1247706,51.296239 L43.0478475,51.296239" id="Fill-12"></path>
                <path d="M13.9824662,43.0448626 L13.9824662,51.5131448 L20.9055431,51.5131448 L20.9055431,43.1732151 C26.4237071,41.7643222 30.4941738,36.8431468 30.4941738,30.9807195 C30.4941738,24.0267982 24.7571141,18.3882415 17.6798152,18.3882415 C10.5985363,18.3882415 4.86048157,24.0267982 4.86048157,30.9807195 C4.86048157,36.674 8.70508767,41.4837376 13.9824662,43.0448626" id="Fill-13"></path>
                <path d="M10.5985363,17.2081942 C11.291043,16.8500011 12.0124041,16.5405621 12.7616247,16.2878369 C19.7603202,9.06328078 29.4812833,4.35403631 39.174387,4.35403631 C54.4901276,4.35403631 64.1563668,16.1117253 61.5037478,30.9777345 L67.6258651,25.2675393 L71.7132465,29.8066421 C73.766887,13.0193247 62.3295819,0 44.6049926,0 C31.7498397,0 18.8608575,6.85342826 10.4134698,17.0261127 C10.4134698,17.0261127 10.3657107,17.0977513 10.4353594,17.1733699 C10.5119729,17.2579433 10.5985363,17.2081942 10.5985363,17.2081942" id="Fill-14"></path>
                <path d="M28.1291043,67.6497446 C46.9939417,67.6497446 65.9244478,52.8981582 70.7908992,34.5566807 L66.8278904,30.1588653 L59.9625224,36.5585823 C54.7080284,50.5310987 39.9663918,61.3166914 25.3013687,61.3166914 C10.1716895,61.3166914 0.55818427,49.8445619 2.87847967,35.2342627 C2.60983483,34.2950008 2.42277843,33.3159396 2.33323015,32.3120039 C2.33323015,32.3120039 2.33920004,32.2433502 2.24268689,32.2533 C2.18298804,32.2582749 2.16209344,32.3120039 2.16209344,32.3120039 C2.01981117,32.8154642 1.88747872,33.3189245 1.76211113,33.8233798 C-2.79092135,52.5101156 9.01353174,67.6497446 28.1291043,67.6497446" id="Fill-15"></path>
            </g>
            <g id="PEFC/05-01-01">
                <use fill="#000000" xlink:href="#path-1"></use>
                <use fill="#FFFFFF" xlink:href="#path-1"></use>
            </g>
        </g>
    </g>
</svg>