<?xml version="1.0" encoding="utf-8"?>
<!-- Generator: Adobe Illustrator 22.0.1, SVG Export Plug-In . SVG Version: 6.00 Build 0)  -->
<svg version="1.1" id="Livello_1" xmlns="http://www.w3.org/2000/svg" xmlns:xlink="http://www.w3.org/1999/xlink" x="0px" y="0px"
	 viewBox="0 0 396.9 85" style="enable-background:new 0 0 396.9 85;" xml:space="preserve">
<style type="text/css">
	.st0{fill:#027398;}
	.st1{fill:#76B82D;}
	.st2{clip-path:url(#SVGID_2_);fill:url(#SVGID_3_);}
	.st3{fill:none;stroke:#FFFFFF;stroke-width:1.079;stroke-linecap:round;stroke-linejoin:round;stroke-miterlimit:10;}
</style>
<g>
	<path class="st0" d="M93.4,39.1c0,1.1-0.9,1.9-2.6,2.3c-1,0.3-2.2,0.5-3.5,0.5H72.5v-9.8h14.8c4.1,0,6.1,0.9,6.1,2.7V39.1z
		 M98.3,41.1v-8c0-4.9-3.7-7.4-11-7.4H67.6v33.2h4.9V48.5h14.8c2.6,0,4.8-0.4,6.8-1.3C96.9,45.8,98.3,43.8,98.3,41.1 M101.8,58.8
		h4.9V25.6h-4.9V58.8z M123,58.8h19.7v-6.5H123c-4,0-6-1-6-2.9V35.7c0-2.4,2-3.6,6-3.6h19.7v-6.5H123c-2.6,0-4.8,0.5-6.8,1.4
		c-2.8,1.3-4.2,3.3-4.2,6v18.4c0,2.8,1.4,4.9,4.2,6.1C118,58.4,120.3,58.8,123,58.8 M159.6,58.8h19.7v-6.5h-19.7c-4,0-6-1-6-2.9
		V35.7c0-2.4,2-3.6,6-3.6h19.7v-6.5h-19.7c-2.6,0-4.8,0.5-6.8,1.4c-2.8,1.3-4.2,3.3-4.2,6v18.4c0,2.8,1.4,4.9,4.2,6.1
		C154.6,58.4,156.9,58.8,159.6,58.8 M184.9,58.8h4.9V25.6h-4.9V58.8z M224.5,58c0.4-0.7,0.6-1.5,0.6-2.4v-30h-4.9v23.3l-21.9-22.6
		c-0.6-0.6-1.2-0.9-1.8-0.9c-0.7,0-1.2,0.3-1.6,1c-0.4,0.7-0.6,1.5-0.6,2.4v29.9h4.9V35.5l21.9,22.6c0.6,0.6,1.2,0.9,1.8,0.9
		C223.6,59.1,224.1,58.7,224.5,58 M234.7,25.6h-4.9v33.2h4.9V25.6z"/>
	<path class="st1" d="M243.9,32.1h25.8v-6.5H239v33.2h4.9V42.6h19.8V36h-19.8V32.1z M303.9,51.5V25.6H299v24.1c0,1.7-2,2.6-6.1,2.6
		h-8.8c-4.1,0-6.1-0.9-6.1-2.6V25.6h-4.9v25.9c0,2.5,1.4,4.5,4.3,5.9c2.1,1,4.3,1.5,6.7,1.5h8.8C300.3,58.8,303.9,56.4,303.9,51.5
		 M307.5,58.8h30.7v-6.5h-25.8v-9.8h21.1V36h-21.1v-3.9h25.8v-6.5h-30.7V58.8z M341.1,58.8h22.3v-6.5h-17.4V25.6h-4.9V58.8z
		 M371,34.6V34c0-1,0.7-1.5,2.2-1.8c0.4-0.1,1.4-0.1,2.9-0.1h18.7v-6.5H376c-6.7,0-10,2.2-10,6.6v4.2c0,4.1,3.3,6.2,10,6.2h8.8
		c4.1,0,6.1,0.8,6.1,2.5v4.8c0,1.7-2,2.5-6.1,2.5H366v6.5h18.8c2.6,0,4.9-0.4,6.8-1.3c2.8-1.3,4.2-3.3,4.2-6.1v-8.1
		c0-2.9-1.4-4.9-4.2-6.2c-1.8-0.8-4.1-1.2-6.8-1.2H376h-1.1c-0.2,0-0.5,0-0.6,0h-0.4C371.9,36.1,371,35.6,371,34.6"/>
</g>
<g>
	<path class="st0" d="M37.6,16.2H21.3c-5,0-9.2,0.6-12.7,2c-5.2,2-7.8,5.2-7.8,9.7v28.9c0,4.2,2.6,7.3,8,9.3c3.8,1.5,8,2.3,12.5,2.3
		h16.3c4.8,0,9-0.6,12.6-2c5.2-2,7.9-5.2,7.9-9.5V27.8C58.1,20.1,51.2,16.2,37.6,16.2"/>
	<path class="st1" d="M29.3,37c-14.2,16.3,2.1,25.4,2.1,25.4c2.1,1.1,4.3,1.7,6.9,1.7c3.9,0,7.4-1.4,10.2-4.3
		c2.9-2.9,4.3-6.4,4.2-10.4c-0.1-4-2.1-7.9-5.8-11.6L29.4,20.4L28.9,21L12.6,37.3L12,37.8c-3.7,3.7-5.7,7.6-5.8,11.6
		c-0.1,4,1.3,7.5,4.2,10.4c2.8,2.8,6.2,4.2,10.2,4.3c2.5,0,4.8-0.6,6.9-1.7c0,0,16.3-9.1,2.1-25.4"/>
</g>
<g>
	<defs>
		<path id="SVGID_1_" d="M24.1,45.8c-0.2,1.2-0.4,2.5-0.4,3.8v0.8c0,2,0.4,3.9,1.1,5.6c1.2,2.8,4.1,5.9,6.7,3.2
			c2.4-2.5,3.5-6.3,3.7-9.7c0.1-2.6,0-5-1.1-7.3c-0.8-1.6-2.5-4.9-4.4-5.3l-0.4-0.2C26.9,37,24.5,43.7,24.1,45.8"/>
	</defs>
	<clipPath id="SVGID_2_">
		<use xlink:href="#SVGID_1_"  style="overflow:visible;"/>
	</clipPath>
	
		<linearGradient id="SVGID_3_" gradientUnits="userSpaceOnUse" x1="-97.8394" y1="652.244" x2="-95.6528" y2="652.244" gradientTransform="matrix(-5.000000e-07 -10.7449 10.7449 -5.000000e-07 -6978.8496 -991.0621)">
		<stop  offset="0" style="stop-color:#04488C"/>
		<stop  offset="1" style="stop-color:#00A8E2"/>
	</linearGradient>
	<rect x="23.7" y="36.7" class="st2" width="11.6" height="25.2"/>
</g>
<g>
	<path class="st3" d="M29.4,20.4L12,37.8 M29.4,20.4l17.4,17.4c3.7,3.7,5.7,7.6,5.8,11.6c0.1,4-1.3,7.5-4.2,10.4
		c-2.8,2.8-6.2,4.2-10.2,4.3c-2.5,0-4.8-0.6-6.9-1.7c0,0-16.3-9.1-2.1-25.4 M12,37.8c-3.7,3.7-5.7,7.6-5.8,11.6
		c-0.1,4,1.3,7.5,4.2,10.4c2.8,2.8,6.2,4.2,10.2,4.3c2.5,0,4.8-0.6,6.9-1.7c0,0,16.3-9.1,2.1-25.4"/>
</g>
</svg>
