<svg xmlns="http://www.w3.org/2000/svg" fill="none" viewBox="0 0 293 80">
  <path fill="#0C3399" fill-rule="evenodd" d="M59.83.354C26.252 4.631 1.016 50.784 0 54.468 33.662 14.2 75.412 2.386 70.077 31.264c-.085.548-.001.509.794.132l.01-.005c7.03-3.557 20.41-35.06-11.051-31.037Zm-39.294 41.58v29.979s39.167-16.302 33.155-35.06c-4.658-14.566-33.155 5.081-33.155 5.081Zm40.014 5.04c-.212 7.705-26.972 24.812-40.056 28.665v1.99H60.55V46.973ZM250.795 55.018c0 14.65-10.501 24.982-25.025 24.982-14.523 0-25.024-10.331-25.024-24.982 0-13.677 12.025-23.288 25.024-23.288 13-.043 25.025 9.57 25.025 23.288Zm-35.272.212c0 6.225 4.616 10.797 10.205 10.797 5.631 0 10.204-4.572 10.204-10.797 0-4.996-4.615-9.57-10.204-9.57s-10.205 4.574-10.205 9.57ZM99.505 33.212h24.22c9.739 0 16.471 4.488 16.471 14.904 0 10.67-5.759 15.37-16.048 15.37h-10.204v15.032H99.505V33.212Zm14.481 20.748h5.505c4.277 0 8.468 0 8.468-5.505 0-5.716-3.895-5.758-8.468-5.758h-5.505V53.96Zm46.534 24.516h-14.269V33.212h14.269v45.264Zm39.379-12.025h-14.82.042V33.21h-14.269v45.265h29.047V66.451Zm52.039-21.299v-11.94h40.141v11.94h-12.491v33.324h-15.159V45.152h-12.491Z" clip-rule="evenodd"/>
</svg>
