<svg width="58" height="60" viewBox="0 0 58 60" fill="none" xmlns="http://www.w3.org/2000/svg">
<g id="Logo">
<g id="vector">
<path id="Vector" d="M20.7891 2.96417C20.7891 4.56077 22.1491 5.70587 23.506 5.70587C25.09 5.70587 26.4501 4.56404 26.4501 2.96417C26.4501 1.36431 25.0933 0 23.5092 0C22.1491 0 20.7891 1.36758 20.7891 2.96417Z" fill="#8E6145"></path>
<path id="Vector_2" d="M25.9944 47.6787V12.3245L21.2422 12.3147V47.6787H25.9944Z" fill="#8E6145"></path>
<path id="Vector_3" d="M30.2969 47.6787H35.2828L39.126 32.6222L39.3533 32.6288L42.9726 47.6787H48.1824L42.0669 27.8324L47.7312 12.3147H42.5246L39.3533 24.1845L39.126 24.1812L35.9547 12.3147H30.7481L36.4091 27.8324L30.2969 47.6787Z" fill="#8E6145"></path>
<path id="Vector_4" d="M52.0234 57.0391C52.0234 58.6291 53.166 60.0065 54.7501 60C56.3309 60 57.4638 58.6291 57.4638 57.0391C57.4638 55.6682 56.3309 54.2974 54.7501 54.2974C53.1693 54.2974 52.0234 55.6617 52.0234 57.0391Z" fill="#8E6145"></path>
<path id="Vector_5" d="M57.2261 47.6853V12.3246H52.25V47.6787L57.2261 47.6853Z" fill="#8E6145"></path>
<path id="Vector_6" d="M0.1875 56.8068H4.94291V47.6787C5.78038 47.875 6.89376 47.9764 7.8838 47.9077C13.996 47.2272 16.0313 40.3828 16.0313 29.8871C16.0313 19.3914 14.4472 12.7728 7.8838 12.0824C5.89724 11.8534 1.8949 12.5895 0.1875 13.4598V56.81V56.8068ZM11.0552 29.8871C11.0552 36.9605 10.6007 41.9794 7.88704 43.5759C7.54946 43.7821 6.77366 43.8017 6.10174 43.805C5.51745 43.805 5.01108 43.805 4.94616 43.805V16.1982C5.67651 15.9234 7.10475 15.894 7.88704 16.1982C10.6007 17.3335 11.0552 22.3556 11.0552 29.8871Z" fill="#8E6145"></path>
</g>
</g>
</svg>
