<svg width="120" height="42" viewBox="0 0 120 42" fill="none" xmlns="http://www.w3.org/2000/svg">
<path d="M15.7063 19.09C15.937 18.3916 16.3473 17.7673 16.8785 17.2827L7.48045 7.12094C9.7391 5.04285 12.5294 3.5343 15.6237 2.82041L15.0147 0.221069C7.89628 1.87794 2.1893 7.20929 0 14.1074L15.7047 19.0925C15.7052 19.0916 15.7057 19.0908 15.7063 19.09Z" fill="#BF388C"/>
<path d="M19.6941 2.35791C18.2939 2.35791 16.9315 2.51856 15.623 2.82048L18.7781 16.2872C19.0846 16.2167 19.4035 16.1788 19.7313 16.1788C20.356 16.1788 20.9485 16.315 21.4823 16.5575L27.2322 4.00438C24.9384 2.948 22.3852 2.35791 19.6941 2.35791Z" fill="#F26E1E"/>
<path d="M15.4917 20.4191C15.4917 20.4048 15.4926 20.3907 15.4927 20.3765L1.65162 20.3892C1.65162 20.3961 1.65137 20.403 1.65137 20.41C1.65137 27.7085 5.98682 33.9872 12.2204 36.8297L17.9562 24.2693C16.5016 23.5975 15.4917 22.1267 15.4917 20.4191Z" fill="#0F3780"/>
<path d="M36.9569 25.6379C36.0108 28.7528 34.2457 31.511 31.9117 33.6616L22.6241 23.5172C22.0827 24.0228 21.4087 24.3878 20.6599 24.5551L23.8067 37.9714C20.1972 38.848 16.2886 38.5993 12.6148 37.0087C12.4815 36.9512 12.3515 36.8898 12.2204 36.8291L11.1201 39.2389C13.7362 40.4339 16.6441 41.1007 19.7081 41.1007C29.0447 41.1007 36.9357 34.9159 39.5106 26.42L36.9569 25.6379Z" fill="#0EB4DA"/>
<path d="M23.8009 21.609C23.5841 22.3511 23.1751 23.0044 22.624 23.5173L31.9116 33.6617C34.2476 31.5094 36.0114 28.7558 36.9568 25.6381L23.8009 21.609Z" fill="#009B43"/>
<path d="M31.7728 6.99573L22.5381 17.2407C23.4172 18.0175 23.9723 19.1527 23.9723 20.4182C23.9723 20.8317 23.9121 21.2309 23.8016 21.6087L36.9576 25.6378C37.4607 23.9786 37.7318 22.2186 37.7318 20.395C37.7318 15.078 35.4317 10.2983 31.7728 6.99573Z" fill="#CADA4F"/>
<path d="M18.7787 16.2871L15.6236 2.81995C12.5293 3.5337 9.73912 5.04238 7.48047 7.12047L16.8785 17.2822C17.4069 16.801 18.0579 16.4527 18.7787 16.2871Z" fill="#B81200"/>
<path d="M105.579 11.7129V17.9124H116.528V22.5451H105.579V30.8345C105.579 32.3958 104.313 33.6617 102.752 33.6617H99.9863V9.82387C99.9863 8.26254 101.252 6.9967 102.813 6.9967H119.399V11.7129H105.579Z" fill="#0F3780"/>
<path d="M97.4595 33.6608L84.8396 20.3283L96.8321 6.99573H89.7591L78.977 19.033V6.99573H76.2061C74.6447 6.99573 73.3789 8.26143 73.3789 9.82289V33.6608H76.1497C77.711 33.6608 78.9769 32.3951 78.9769 30.8336V21.6997L90.1218 33.6608H97.4595Z" fill="#0F3780"/>
<path d="M67.5415 9.28609C65.6973 7.78397 63.0101 6.99573 59.6248 6.99573H51.7901C50.2287 6.99573 48.9629 8.26143 48.9629 9.82289V33.6607H51.6865C53.2479 33.6607 54.5137 32.395 54.5137 30.8335V24.6058H59.6248C63.0107 24.6058 65.6979 23.8069 67.542 22.2941C69.3915 20.777 70.3702 18.5607 70.3702 15.7799C70.3702 12.999 69.3914 10.7928 67.5415 9.28609ZM59.4579 11.5867C61.3987 11.5867 62.7561 11.9798 63.6261 12.6917C64.4887 13.3975 64.9027 14.4423 64.9027 15.8216C64.9027 17.2007 64.489 18.2233 63.6282 18.9082C62.7584 19.6 61.4006 19.9731 59.4579 19.9731H54.5136V11.5869L59.4579 11.5867Z" fill="#0F3780"/>
<path d="M20.6602 24.5553C20.3623 24.6217 20.0535 24.6562 19.7356 24.6562C19.1045 24.6562 18.4946 24.5161 17.9564 24.2688L12.2207 36.8293C12.3518 36.89 12.4818 36.9514 12.6151 37.0089C16.2889 38.5995 20.1974 38.8482 23.807 37.9716L20.6602 24.5553Z" fill="#0A2555"/>
</svg>
