<svg xmlns="http://www.w3.org/2000/svg" xmlns:xlink="http://www.w3.org/1999/xlink" id="Layer_1" x="0px" y="0px" viewBox="0 0 1200 500" style="enable-background:new 0 0 1200 500;" xml:space="preserve"><style type="text/css">	.st0{fill:#BF388C;}	.st1{fill:#F26E1E;}	.st2{fill:#CAC9C9;}	.st3{fill:#0F3780;}	.st4{fill:#0EB4DA;}	.st5{fill:#009B43;}	.st6{fill:#CADA4F;}	.st7{fill:#B81200;}	.st8{fill:#0A2555;}</style><path class="st0" d="M257.608,237.767c1.797-5.439,4.992-10.3,9.128-14.074l-73.182-79.129 c17.588-16.182,39.316-27.929,63.411-33.488l-4.742-20.241c-55.431,12.902-99.871,54.417-116.919,108.132l122.292,38.819 C257.6,237.779,257.604,237.773,257.608,237.767z"></path><path class="st1" d="M288.665,107.474c-10.903,0-21.512,1.251-31.701,3.602l24.568,104.865c2.387-0.549,4.87-0.844,7.423-0.844 c4.864,0,9.478,1.06,13.635,2.949l44.774-97.751C329.502,112.069,309.621,107.474,288.665,107.474z"></path><path class="st2" d="M288.985,247.75"></path><path class="st3" d="M255.94,248.112c0-0.111,0.007-0.221,0.008-0.332l-107.78,0.099c0,0.054-0.002,0.108-0.002,0.162 c0,56.833,33.76,105.725,82.301,127.86l44.664-97.808C263.804,272.862,255.94,261.409,255.94,248.112z"></path><path class="st4" d="M423.089,288.757c-7.367,24.255-21.112,45.733-39.287,62.48l-72.322-78.994 c-4.216,3.937-9.464,6.779-15.295,8.082l24.504,104.472c-28.107,6.826-58.543,4.89-87.151-7.496 c-1.038-0.448-2.05-0.926-3.071-1.399l-8.568,18.765c20.371,9.306,43.015,14.498,66.874,14.498 c72.704,0,134.151-48.161,154.202-114.318L423.089,288.757z"></path><path class="st5" d="M320.644,257.383c-1.688,5.779-4.873,10.866-9.164,14.86l72.322,78.994c18.19-16.76,31.925-38.202,39.287-62.48 L320.644,257.383z"></path><path class="st6" d="M382.715,143.592l-71.91,79.777c6.846,6.049,11.168,14.889,11.168,24.743c0,3.22-0.469,6.329-1.329,9.271 l102.445,31.374c3.918-12.92,6.029-26.625,6.029-40.825C429.118,206.528,411.207,169.309,382.715,143.592z"></path><path class="st7" d="M281.534,215.944l-24.569-104.868c-24.095,5.558-45.822,17.306-63.41,33.488l73.182,79.129 C270.852,219.946,275.921,217.234,281.534,215.944z"></path><path class="st3" d="M957.441,180.32v48.275h85.26v36.075h-85.26v64.549c0,12.158-9.856,22.015-22.015,22.015h-21.534V165.61 c0-12.158,9.856-22.015,22.015-22.015h129.152v36.725H957.441z"></path><path class="st3" d="M894.22,351.23l-98.271-103.82l93.385-103.82h-55.077l-83.96,93.734v-93.734H728.72 c-12.158,0-22.015,9.856-22.015,22.015V351.23h21.576c12.158,0,22.015-9.856,22.015-22.015v-71.126l86.785,93.141H894.22z"></path><path class="st3" d="M661.246,161.426c-14.361-11.697-35.286-17.835-61.647-17.835h-61.009c-12.158,0-22.015,9.856-22.015,22.015 V351.23h21.209c12.158,0,22.015-9.856,22.015-22.015V280.72h39.8c26.366,0,47.291-6.221,61.651-18.001 c14.402-11.814,22.023-29.072,22.023-50.726C683.273,190.338,675.651,173.159,661.246,161.426z M598.299,179.341 c15.113,0,25.683,3.061,32.458,8.604c6.717,5.496,9.941,13.632,9.941,24.373c0,10.739-3.222,18.702-9.925,24.035 c-6.773,5.387-17.346,8.292-32.474,8.292h-38.501v-65.303H598.299z"></path><path class="st8" d="M296.186,280.326c-2.32,0.517-4.724,0.786-7.2,0.786c-4.914,0-9.663-1.091-13.854-3.017l0,0l-44.664,97.808 c1.021,0.473,2.033,0.951,3.071,1.399c28.608,12.386,59.043,14.322,87.151,7.496L296.186,280.326L296.186,280.326z"></path></svg>