<svg xmlns="http://www.w3.org/2000/svg" xmlns:xlink="http://www.w3.org/1999/xlink" id="Warstwa_1" x="0px" y="0px" viewBox="0 0 1080 533.03" style="enable-background:new 0 0 1080 533.03;" xml:space="preserve"><style type="text/css">	.st0{fill:#FFFFFF;}	.st1{fill:none;stroke:#000000;stroke-miterlimit:10;}	.st2{fill:url(#SVGID_1_);}</style><g>	<path class="st0" d="M132.79,318.86h-13.49v-59.28h44.62c12.84,0,23.29-10.45,23.29-23.29v-0.58c0-12.84-10.45-23.29-23.29-23.29   h-45.13v-13.49h45.13c20.28,0,36.79,16.5,36.79,36.78v0.58c0,20.28-16.5,36.78-36.79,36.78h-31.13V318.86z"></path>	<path class="st0" d="M279.57,316.61c-29.64,0-53.76-27.37-53.76-61.02s24.12-61.02,53.76-61.02c29.64,0,53.76,27.37,53.76,61.02   S309.21,316.61,279.57,316.61z M279.57,208.07c-22.2,0-40.27,21.32-40.27,47.52s18.06,47.52,40.27,47.52   c22.2,0,40.27-21.32,40.27-47.52S301.77,208.07,279.57,208.07z"></path>	<polygon class="st0" points="425.83,316.61 359.3,316.61 359.3,199.29 372.8,199.29 372.8,303.12 425.83,303.12  "></polygon>	<polygon class="st0" points="533.95,316.4 548.38,316.4 503.54,197.92 490.88,198.01 447.89,316.4 462.25,316.4 472.71,287.59    510.21,287.59 505.17,274.1 477.61,274.1 497.36,219.72  "></polygon>	<path class="st0" d="M585.52,316.4V212.43h31.34c10.32,0,18.72,8.4,18.72,18.72v3.48c0,10.32-8.4,18.72-18.72,18.72h-14.17   l38.76,63.05h15.97l-31.41-50.88c13.32-3.95,23.06-16.31,23.06-30.89v-3.48c0-17.76-14.45-32.21-32.21-32.21h-44.84V316.4H585.52z"></path>	<path class="st0" d="M928.73,248.02c-15.3-6.96-24.58-11.84-24.34-20.91c0.31-11.66,8.31-16.03,14.97-17.64   c10.63-2.57,25.14,0.6,33.41,9.06l6.84-12.09c-12-10.19-29.7-13.41-43.42-10.09c-15.43,3.73-24.88,15.1-25.28,30.4   c-0.49,18.65,16.9,26.56,32.24,33.55c14.75,6.71,24.42,11.77,24.57,20.65c0.16,9.74-2.89,15.85-9.32,18.66   c-12.39,5.42-33.86-2.11-41.74-9.64l-9.32,9.76c8.21,7.85,25.08,15.25,40.82,15.25c5.49,0,10.85-0.9,15.65-3   c6.64-2.9,17.74-10.83,17.41-31.24C960.91,262.66,943.82,254.88,928.73,248.02z"></path>	<g>		<path class="st0" d="M139.65,368.04c0,0.75-0.07,1.26-0.22,1.55c-0.23,0.52-0.69,0.93-1.38,1.25c-0.83,0.37-1.99,0.69-3.48,0.95    c-1.49,0.26-2.98,0.39-4.47,0.39c-1.58,0-2.94-0.19-4.09-0.56c-1.15-0.37-2.09-0.97-2.84-1.81c-0.75-0.83-1.3-1.95-1.66-3.35    c-0.36-1.4-0.54-3.11-0.54-5.12c0-2.26,0.21-4.16,0.62-5.7c0.42-1.53,1.05-2.75,1.89-3.63c0.85-0.89,1.91-1.52,3.18-1.89    c1.28-0.37,2.8-0.56,4.58-0.56c0.77,0,1.61,0.06,2.49,0.19c0.89,0.13,1.58,0.29,2.06,0.49v-9.81c0-0.66,0.33-0.99,0.99-0.99h1.94    c0.6,0,0.9,0.33,0.9,0.99V368.04z M135.82,366.19v-11.27c0-0.77-0.24-1.26-0.73-1.46c-0.34-0.14-0.87-0.26-1.57-0.37    c-0.7-0.1-1.38-0.15-2.04-0.15c-1.32,0-2.46,0.17-3.42,0.49c-0.96,0.33-1.73,1.03-2.3,2.09c-0.57,1.06-0.86,2.95-0.86,5.68    c0,2.04,0.19,3.58,0.58,4.64c0.39,1.06,0.96,1.83,1.72,2.3c0.76,0.47,1.78,0.71,3.08,0.71c1.98,0,3.51-0.21,4.6-0.64    c0.37-0.17,0.63-0.42,0.77-0.73C135.76,367.13,135.82,366.7,135.82,366.19z"></path>		<path class="st0" d="M166.82,368.04c0,0.8-0.14,1.41-0.43,1.81c-0.34,0.46-0.76,0.79-1.25,0.99c-0.8,0.37-1.98,0.69-3.53,0.95    c-1.55,0.26-3.07,0.39-4.56,0.39c-2.58,0-4.51-0.54-5.78-1.63c-1.28-1.09-1.91-2.84-1.91-5.25c0-1.26,0.2-2.31,0.6-3.14    c0.4-0.83,1.02-1.51,1.85-2.02c1.38-0.83,3.61-1.25,6.71-1.25c1.98,0,3.47,0.06,4.47,0.17v-1.76c0-1.29-0.1-2.18-0.3-2.67    c-0.23-0.66-0.74-1.1-1.53-1.31c-0.79-0.21-1.71-0.32-2.77-0.32c-1.46,0-3.03,0.17-4.69,0.52c-0.95,0.2-1.48,0.3-1.59,0.3    c-0.34,0-0.59-0.2-0.73-0.6c-0.2-0.66-0.3-1.23-0.3-1.72c0-0.46,0.26-0.76,0.77-0.9c1.06-0.32,2.24-0.57,3.55-0.75    c1.3-0.19,2.5-0.28,3.59-0.28c1.72,0,3.08,0.12,4.09,0.37c1,0.24,1.78,0.65,2.32,1.23c0.4,0.4,0.74,0.98,1.01,1.74    c0.27,0.76,0.41,2.06,0.41,3.89V368.04z M163,362.06c-1.26-0.11-2.61-0.17-4.04-0.17c-2.38,0-3.99,0.27-4.82,0.82    c-0.69,0.43-1.03,1.26-1.03,2.49c0,0.89,0.15,1.61,0.45,2.17c0.3,0.56,0.77,0.98,1.42,1.25c0.65,0.27,1.51,0.41,2.6,0.41    c1.89,0,3.37-0.22,4.43-0.65c0.4-0.17,0.67-0.42,0.82-0.73c0.11-0.34,0.17-0.83,0.17-1.46V362.06z"></path>		<path class="st0" d="M182.78,363.39c0,1.78,0.24,3.03,0.73,3.74c0.57,0.89,2.08,1.39,4.52,1.51c0.54,0.03,0.82,0.33,0.82,0.9    l-0.09,1.63c-0.09,0.52-0.43,0.77-1.03,0.77c-1.98,0-3.53-0.16-4.67-0.47c-1.13-0.32-2.04-0.89-2.73-1.72    c-0.4-0.49-0.74-1.17-1.01-2.04c-0.27-0.87-0.41-2.37-0.41-4.49v-9.72h-2.62c-0.23,0-0.43-0.09-0.6-0.26    c-0.17-0.17-0.26-0.39-0.26-0.65v-1.51c0-0.26,0.09-0.48,0.26-0.67c0.17-0.19,0.4-0.28,0.69-0.28h2.62l0.13-4.77    c0.06-0.72,0.34-1.08,0.86-1.08h1.98c0.54,0,0.82,0.36,0.82,1.08v4.77h4.52c0.32,0,0.57,0.08,0.75,0.24    c0.19,0.16,0.28,0.38,0.28,0.67v1.51c0,0.32-0.09,0.55-0.28,0.71c-0.19,0.16-0.42,0.24-0.71,0.24h-4.56V363.39z"></path>		<path class="st0" d="M213.1,368.04c0,0.8-0.14,1.41-0.43,1.81c-0.34,0.46-0.76,0.79-1.25,0.99c-0.8,0.37-1.98,0.69-3.53,0.95    c-1.55,0.26-3.07,0.39-4.56,0.39c-2.58,0-4.51-0.54-5.78-1.63c-1.28-1.09-1.91-2.84-1.91-5.25c0-1.26,0.2-2.31,0.6-3.14    c0.4-0.83,1.02-1.51,1.85-2.02c1.38-0.83,3.61-1.25,6.71-1.25c1.98,0,3.47,0.06,4.47,0.17v-1.76c0-1.29-0.1-2.18-0.3-2.67    c-0.23-0.66-0.74-1.1-1.53-1.31c-0.79-0.21-1.71-0.32-2.77-0.32c-1.46,0-3.03,0.17-4.69,0.52c-0.95,0.2-1.48,0.3-1.59,0.3    c-0.34,0-0.59-0.2-0.73-0.6c-0.2-0.66-0.3-1.23-0.3-1.72c0-0.46,0.26-0.76,0.77-0.9c1.06-0.32,2.24-0.57,3.55-0.75    c1.3-0.19,2.5-0.28,3.59-0.28c1.72,0,3.08,0.12,4.09,0.37c1,0.24,1.78,0.65,2.32,1.23c0.4,0.4,0.74,0.98,1.01,1.74    c0.27,0.76,0.41,2.06,0.41,3.89V368.04z M209.27,362.06c-1.26-0.11-2.61-0.17-4.04-0.17c-2.38,0-3.99,0.27-4.82,0.82    c-0.69,0.43-1.03,1.26-1.03,2.49c0,0.89,0.15,1.61,0.45,2.17c0.3,0.56,0.77,0.98,1.42,1.25c0.65,0.27,1.51,0.41,2.6,0.41    c1.89,0,3.37-0.22,4.43-0.65c0.4-0.17,0.67-0.42,0.82-0.73c0.11-0.34,0.17-0.83,0.17-1.46V362.06z"></path>		<path class="st0" d="M242.13,343.18c0,0.86-0.19,1.48-0.58,1.87c-0.39,0.39-0.97,0.58-1.74,0.58c-1.55,0-2.32-0.8-2.32-2.41    c0-1.66,0.77-2.49,2.32-2.49C241.35,340.73,242.13,341.54,242.13,343.18z M241.78,370.7c0,0.66-0.32,0.99-0.95,0.99h-2.02    c-0.6,0-0.9-0.33-0.9-0.99v-19.61c0-0.69,0.3-1.03,0.9-1.03h2.06c0.6,0,0.9,0.33,0.9,0.99V370.7z"></path>		<path class="st0" d="M256.75,370.7c0,0.66-0.32,0.99-0.95,0.99h-2.02c-0.6,0-0.9-0.33-0.9-0.99v-16.73c0-1.26,0.47-2.11,1.42-2.54    c1.23-0.57,2.81-1.02,4.73-1.33c1.92-0.32,3.68-0.47,5.29-0.47c1.86,0,3.25,0.21,4.17,0.65c0.92,0.43,1.55,1.09,1.89,1.98    c0.29,0.77,0.43,2.18,0.43,4.21v14.24c0,0.66-0.3,0.99-0.9,0.99h-2.06c-0.6,0-0.9-0.33-0.9-0.99v-13.46    c0-1.26-0.09-2.16-0.26-2.71c-0.17-0.52-0.53-0.9-1.08-1.14c-0.55-0.24-1.38-0.37-2.49-0.37c-2.15,0-3.91,0.29-5.29,0.86    c-0.4,0.2-0.67,0.4-0.82,0.6c-0.17,0.2-0.26,0.6-0.26,1.2V370.7z"></path>		<path class="st0" d="M286.86,363.39c0,1.78,0.24,3.03,0.73,3.74c0.57,0.89,2.08,1.39,4.52,1.51c0.54,0.03,0.82,0.33,0.82,0.9    l-0.09,1.63c-0.09,0.52-0.43,0.77-1.03,0.77c-1.98,0-3.53-0.16-4.67-0.47c-1.13-0.32-2.04-0.89-2.73-1.72    c-0.4-0.49-0.74-1.17-1.01-2.04c-0.27-0.87-0.41-2.37-0.41-4.49v-9.72h-2.62c-0.23,0-0.43-0.09-0.6-0.26    c-0.17-0.17-0.26-0.39-0.26-0.65v-1.51c0-0.26,0.09-0.48,0.26-0.67c0.17-0.19,0.4-0.28,0.69-0.28h2.62l0.13-4.77    c0.06-0.72,0.34-1.08,0.86-1.08h1.98c0.54,0,0.82,0.36,0.82,1.08v4.77h4.52c0.32,0,0.57,0.08,0.75,0.24    c0.19,0.16,0.28,0.38,0.28,0.67v1.51c0,0.32-0.09,0.55-0.28,0.71c-0.19,0.16-0.42,0.24-0.71,0.24h-4.56V363.39z"></path>		<path class="st0" d="M303.41,362.02c0.03,2.35,0.49,4.07,1.4,5.16c0.9,1.09,2.6,1.63,5.1,1.63c1.95,0,3.61-0.2,4.99-0.6l1.12-0.22    c0.34,0,0.59,0.17,0.73,0.52c0.29,0.72,0.43,1.28,0.43,1.68c0,0.37-0.23,0.66-0.69,0.86c-1.78,0.75-4.11,1.12-7.01,1.12    c-3.64,0-6.22-0.88-7.74-2.65c-1.52-1.76-2.28-4.62-2.28-8.58c0-2.01,0.21-3.73,0.62-5.18c0.42-1.45,1.04-2.63,1.87-3.55    c0.83-0.92,1.86-1.59,3.1-2.02c1.23-0.43,2.67-0.65,4.3-0.65c1.81,0,3.34,0.29,4.6,0.86c1.26,0.57,2.19,1.57,2.8,2.99    c0.6,1.42,0.9,3.76,0.9,7.03c0,0.69-0.11,1.13-0.34,1.33c-0.09,0.06-0.22,0.12-0.41,0.17c-0.19,0.06-0.35,0.09-0.49,0.09H303.41z     M303.46,358.92h10.45l0.04-0.99c0-1.75-0.34-3.04-1.03-3.87c-0.69-0.83-1.95-1.25-3.78-1.25c-1.78,0-3.15,0.45-4.13,1.36    C304.03,355.07,303.51,356.65,303.46,358.92z"></path>		<path class="st0" d="M331.15,365.03c0,1.2,0.16,2.05,0.47,2.54c0.4,0.57,1.22,0.95,2.45,1.12c0.49,0.09,0.73,0.37,0.73,0.86    c0,0.66-0.06,1.19-0.17,1.59c-0.12,0.43-0.47,0.65-1.08,0.65c-2.78,0-4.63-0.76-5.55-2.28c-0.49-0.8-0.73-2.14-0.73-4v-25.07    c0-0.66,0.32-0.99,0.95-0.99h2.06c0.57,0,0.86,0.33,0.86,0.99V365.03z"></path>		<path class="st0" d="M347.02,365.03c0,1.2,0.16,2.05,0.47,2.54c0.4,0.57,1.22,0.95,2.45,1.12c0.49,0.09,0.73,0.37,0.73,0.86    c0,0.66-0.06,1.19-0.17,1.59c-0.12,0.43-0.47,0.65-1.08,0.65c-2.78,0-4.63-0.76-5.55-2.28c-0.49-0.8-0.73-2.14-0.73-4v-25.07    c0-0.66,0.32-0.99,0.95-0.99h2.06c0.57,0,0.86,0.33,0.86,0.99V365.03z"></path>		<path class="st0" d="M363.24,343.18c0,0.86-0.19,1.48-0.58,1.87c-0.39,0.39-0.97,0.58-1.74,0.58c-1.55,0-2.32-0.8-2.32-2.41    c0-1.66,0.77-2.49,2.32-2.49C362.46,340.73,363.24,341.54,363.24,343.18z M362.89,370.7c0,0.66-0.32,0.99-0.95,0.99h-2.02    c-0.6,0-0.9-0.33-0.9-0.99v-19.61c0-0.69,0.3-1.03,0.9-1.03h2.06c0.6,0,0.9,0.33,0.9,0.99V370.7z"></path>		<path class="st0" d="M387.32,371.05c-1.12,0.72-3,1.08-5.63,1.08c-1.55,0-2.81-0.16-3.78-0.47c-0.98-0.32-1.82-0.79-2.54-1.42    c-0.72-0.63-1.33-1.64-1.85-3.03c-0.52-1.39-0.77-3.35-0.77-5.87c0-1.66,0.14-3.25,0.41-4.75c0.27-1.51,0.76-2.77,1.46-3.81    c0.7-1.03,1.69-1.82,2.97-2.37c1.28-0.54,3.02-0.82,5.23-0.82c2.92,0,5.32,0.29,7.18,0.86c0.86,0.26,1.29,0.89,1.29,1.89v18.06    c0,2.32-0.2,4.16-0.6,5.5c-1.12,3.84-5.71,5.76-13.76,5.76c-0.72,0-1.12-0.27-1.2-0.82c-0.06-0.32-0.09-0.8-0.09-1.46    c0-0.32,0.08-0.57,0.24-0.77c0.16-0.2,0.38-0.32,0.67-0.34c2.95-0.11,5.23-0.38,6.84-0.8c1.61-0.42,2.69-1.14,3.27-2.17    c0.46-0.8,0.69-1.95,0.69-3.44V371.05z M387.45,366.4v-11.7c0-0.69-0.23-1.12-0.69-1.29c-0.83-0.29-2.11-0.43-3.83-0.43    c-1.29,0-2.4,0.17-3.33,0.52c-0.93,0.34-1.66,1.03-2.17,2.06c-0.52,1.03-0.77,2.9-0.77,5.59c0,2.04,0.18,3.58,0.54,4.62    c0.36,1.05,0.91,1.81,1.66,2.28c0.75,0.47,1.76,0.71,3.05,0.71c2.01,0,3.54-0.23,4.6-0.69c0.46-0.2,0.73-0.44,0.82-0.73    C387.41,367.18,387.45,366.86,387.45,366.4z"></path>		<path class="st0" d="M405.04,362.02c0.03,2.35,0.49,4.07,1.4,5.16c0.9,1.09,2.6,1.63,5.1,1.63c1.95,0,3.61-0.2,4.99-0.6l1.12-0.22    c0.34,0,0.59,0.17,0.73,0.52c0.29,0.72,0.43,1.28,0.43,1.68c0,0.37-0.23,0.66-0.69,0.86c-1.78,0.75-4.11,1.12-7.01,1.12    c-3.64,0-6.22-0.88-7.74-2.65c-1.52-1.76-2.28-4.62-2.28-8.58c0-2.01,0.21-3.73,0.62-5.18c0.42-1.45,1.04-2.63,1.87-3.55    c0.83-0.92,1.86-1.59,3.1-2.02c1.23-0.43,2.67-0.65,4.3-0.65c1.81,0,3.34,0.29,4.6,0.86c1.26,0.57,2.19,1.57,2.8,2.99    c0.6,1.42,0.9,3.76,0.9,7.03c0,0.69-0.11,1.13-0.34,1.33c-0.09,0.06-0.22,0.12-0.41,0.17c-0.19,0.06-0.35,0.09-0.49,0.09H405.04z     M405.08,358.92h10.45l0.04-0.99c0-1.75-0.34-3.04-1.03-3.87c-0.69-0.83-1.95-1.25-3.78-1.25c-1.78,0-3.15,0.45-4.13,1.36    C405.65,355.07,405.14,356.65,405.08,358.92z"></path>		<path class="st0" d="M432.78,370.7c0,0.66-0.32,0.99-0.95,0.99h-2.02c-0.6,0-0.9-0.33-0.9-0.99v-16.73c0-1.26,0.47-2.11,1.42-2.54    c1.23-0.57,2.81-1.02,4.73-1.33c1.92-0.32,3.68-0.47,5.29-0.47c1.86,0,3.25,0.21,4.17,0.65c0.92,0.43,1.55,1.09,1.89,1.98    c0.29,0.77,0.43,2.18,0.43,4.21v14.24c0,0.66-0.3,0.99-0.9,0.99h-2.06c-0.6,0-0.9-0.33-0.9-0.99v-13.46    c0-1.26-0.09-2.16-0.26-2.71c-0.17-0.52-0.53-0.9-1.08-1.14c-0.55-0.24-1.38-0.37-2.49-0.37c-2.15,0-3.91,0.29-5.29,0.86    c-0.4,0.2-0.67,0.4-0.82,0.6c-0.17,0.2-0.26,0.6-0.26,1.2V370.7z"></path>		<path class="st0" d="M460.6,360.81c0,3.07,0.46,5.17,1.38,6.3c0.92,1.13,2.35,1.7,4.3,1.7c1.61,0,3.08-0.16,4.43-0.47    c0.66-0.14,1.05-0.22,1.16-0.22c0.32,0,0.52,0.17,0.6,0.52c0.26,0.95,0.39,1.51,0.39,1.68c0,0.49-0.23,0.8-0.69,0.95    c-1.69,0.6-3.77,0.9-6.24,0.9c-1.49,0-2.81-0.19-3.96-0.56c-1.15-0.37-2.11-0.98-2.9-1.83c-0.79-0.85-1.38-1.98-1.78-3.4    c-0.4-1.42-0.6-3.15-0.6-5.18c0-3.04,0.39-5.38,1.16-7.01c0.77-1.63,1.89-2.82,3.33-3.55c1.45-0.73,3.3-1.1,5.57-1.1    c1.95,0,3.63,0.19,5.03,0.56c0.23,0.06,0.41,0.17,0.54,0.32c0.13,0.16,0.19,0.34,0.19,0.54c0,0.34-0.13,0.99-0.39,1.94    c-0.11,0.37-0.36,0.56-0.73,0.56c-0.29,0-0.69-0.06-1.2-0.17c-1.15-0.23-2.31-0.34-3.48-0.34c-1.29,0-2.39,0.22-3.31,0.65    c-0.92,0.43-1.61,1.18-2.09,2.24C460.84,356.88,460.6,358.55,460.6,360.81z"></path>		<path class="st0" d="M484.6,362.02c0.03,2.35,0.49,4.07,1.4,5.16c0.9,1.09,2.6,1.63,5.1,1.63c1.95,0,3.61-0.2,4.99-0.6l1.12-0.22    c0.34,0,0.59,0.17,0.73,0.52c0.29,0.72,0.43,1.28,0.43,1.68c0,0.37-0.23,0.66-0.69,0.86c-1.78,0.75-4.11,1.12-7.01,1.12    c-3.64,0-6.22-0.88-7.74-2.65c-1.52-1.76-2.28-4.62-2.28-8.58c0-2.01,0.21-3.73,0.62-5.18c0.42-1.45,1.04-2.63,1.87-3.55    c0.83-0.92,1.86-1.59,3.1-2.02c1.23-0.43,2.67-0.65,4.3-0.65c1.81,0,3.34,0.29,4.6,0.86c1.26,0.57,2.19,1.57,2.8,2.99    c0.6,1.42,0.9,3.76,0.9,7.03c0,0.69-0.11,1.13-0.34,1.33c-0.09,0.06-0.22,0.12-0.41,0.17c-0.19,0.06-0.35,0.09-0.49,0.09H484.6z     M484.64,358.92h10.45l0.04-0.99c0-1.75-0.34-3.04-1.03-3.87c-0.69-0.83-1.95-1.25-3.78-1.25c-1.78,0-3.15,0.45-4.13,1.36    C485.22,355.07,484.7,356.65,484.64,358.92z"></path>	</g>	<path class="st1" d="M673.48,316.61"></path>	<path class="st1" d="M876.31,199.51"></path>	<linearGradient id="SVGID_1_" gradientUnits="userSpaceOnUse" x1="700.6062" y1="333.1821" x2="849.1781" y2="184.6102">		<stop offset="0" style="stop-color:#2763AA"></stop>		<stop offset="1" style="stop-color:#168ACD"></stop>	</linearGradient>	<path class="st2" d="M855.28,192.39l-62.99-36.37c-10.77-6.22-24.03-6.22-34.8,0l-62.99,36.37c-10.77,6.22-17.4,17.71-17.4,30.14   v72.73c0,12.43,6.63,23.92,17.4,30.14l62.99,36.37c10.77,6.22,24.03,6.22,34.8,0l62.99-36.37c10.77-6.22,17.4-17.71,17.4-30.14   v-72.73C872.68,210.1,866.05,198.61,855.28,192.39z M774.89,193.91c8.19,0,14.84,6.64,14.84,14.84c0,8.19-6.64,14.84-14.84,14.84   s-14.84-6.64-14.84-14.84C760.05,200.55,766.7,193.91,774.89,193.91z M839.68,218.94l-44.72,38.02c-4.53,3.85-7.59,9.16-8.67,15.01   l-10.56,57.73c-0.2,1.11-1.79,1.11-2,0l-10.59-57.86c-1.06-5.77-4.05-11.02-8.49-14.86l-44.57-38.58   c-0.85-0.74-0.05-2.11,1.01-1.72l54.87,20.13c5.66,2.08,11.87,2.1,17.55,0.08l55.16-19.68   C839.75,216.83,840.54,218.21,839.68,218.94z"></path></g></svg>