<svg width="122" height="52" viewBox="0 0 122 52" fill="none" xmlns="http://www.w3.org/2000/svg">
<mask id="mask0_2301_451" style="mask-type:luminance" maskUnits="userSpaceOnUse" x="0" y="0" width="122" height="52">
<path d="M121.98 0H0V51.153H121.98V0Z" fill="white"/>
</mask>
<g mask="url(#mask0_2301_451)">
<path d="M0 -0.000976562V51.152H23.609V43.2831H7.87V7.87003H23.609V-0.000976562H0Z" fill="#00896E"/>
<path d="M98.3721 -0.000976562V7.86902H114.108V43.2831H98.3721V51.152H121.981V-0.000976562H98.3721Z" fill="#00896E"/>
</g>
<path d="M21.4281 25.0128H20.6851V19.6778H21.326C23.384 19.6778 24.4181 20.5508 24.4181 22.3038C24.4181 24.1038 23.4214 25.0068 21.4281 25.0128ZM22.6161 15.7448H14.4751V19.6778H15.7391V35.4179H20.6851V29.0018H22.3851C27.0657 29.0018 29.4094 26.7725 29.4161 22.3138C29.4606 21.4304 29.3193 20.5475 29.0013 19.722C28.6833 18.8966 28.1957 18.1471 27.5701 17.5219C26.9029 16.9128 26.1214 16.4421 25.2711 16.1373C24.4207 15.8324 23.5183 15.6994 22.6161 15.7459" fill="#161615"/>
<path d="M46.4829 29.7709C46.0102 30.3038 45.4262 30.7262 44.7721 31.0083C44.118 31.2903 43.4098 31.425 42.6978 31.4029C41.9865 31.4213 41.2797 31.2849 40.6264 31.0031C39.973 30.7213 39.3887 30.3009 38.9138 29.7709C37.8887 28.6208 37.3523 27.1162 37.4189 25.5769C37.3546 24.041 37.8839 22.5392 38.8969 21.3829C39.3744 20.8526 39.9616 20.4327 40.6179 20.1524C41.2741 19.8721 41.9836 19.7382 42.6969 19.7599C43.4082 19.7361 44.116 19.8692 44.7702 20.1497C45.4243 20.4302 46.0087 20.8512 46.4819 21.3829C47.4332 22.5738 47.9513 24.0527 47.9513 25.5769C47.9513 27.1011 47.4341 28.58 46.4829 29.7709ZM42.6969 15.3519C40.6437 15.3391 38.6333 15.9378 36.9215 17.0716C35.2098 18.2053 33.8743 19.823 33.0851 21.7184C32.2958 23.6138 32.0887 25.7013 32.49 27.7149C32.8912 29.7284 33.8827 31.577 35.3382 33.0252C36.7937 34.4733 38.6473 35.4554 40.6629 35.8464C42.6785 36.2374 44.7648 36.0197 46.6562 35.2209C48.5476 34.4221 50.1584 33.0784 51.2835 31.3609C52.4086 29.6435 52.997 27.63 52.9738 25.5769C53.0153 24.2214 52.7772 22.872 52.2745 21.6124C51.7718 20.3529 51.0152 19.2104 50.0518 18.2559C49.0876 17.2977 47.938 16.5463 46.6734 16.0476C45.4087 15.549 44.0556 15.3136 42.6969 15.3559" fill="#161615"/>
<path d="M64.0949 25.0131H62.6249V19.6781H63.9659C66.0239 19.6781 67.0546 20.5535 67.0579 22.3042C67.0579 24.1042 66.0709 25.0071 64.0949 25.0131ZM70.9009 25.7301C71.7223 24.684 72.1407 23.3778 72.0799 22.0491C72.1153 21.1938 71.9637 20.341 71.6355 19.5503C71.3073 18.7596 70.8106 18.0501 70.1799 17.4711C68.6999 16.2467 66.8103 15.6298 64.8929 15.7451H56.4199V19.6781H57.6839V35.4182H62.6289V27.0441L66.9349 35.4162H72.8799L67.7289 27.3511C68.341 27.3108 68.9384 27.1461 69.4847 26.8671C70.0309 26.588 70.5146 26.2005 70.9059 25.7282" fill="#161615"/>
<path d="M75.166 19.6801H79.636V35.4182H84.566V19.6801H89.011V15.7441H75.166V19.6801Z" fill="#161615"/>
<path d="M97.2341 28.8441L99.8911 19.7301L102.539 28.8441H97.2341ZM102.948 15.7441H93.8691V19.6791H95.4991L90.0991 35.4171H95.2991L96.0991 32.5562H103.668L104.462 35.4171H109.689L102.948 15.7441Z" fill="#161615"/>
</svg>
