<svg xmlns="http://www.w3.org/2000/svg" width="134" height="41" viewBox="0 0 134 41"><g><g><g><path fill="#a1cf77" d="M96.817.23l.008 16.697c0 9.295 7.558 16.856 16.847 16.856v-5.609c-6.198 0-11.24-5.045-11.24-11.247l.005-.668h.023l2.838-.003a7.776 7.776 0 0 0 7.768-7.786L113.058 0 96.817.015V.23"></path></g><g><path fill="#00175a" d="M15.872 15.738c5.649 0 9.333 3.699 9.333 9.33 0 5.633-3.684 9.297-9.333 9.297-3.96 0-7.337-1.967-8.565-5.021h-.031v11.603H0V16.315h5.18c.632 0 1.176.442 1.306 1.06l.729 3.453h.03c1.228-3.088 4.636-5.09 8.627-5.09zm2.06 9.33c0-2.408-2.15-4.003-5.466-4.003C9.18 21.065 7 22.66 7 25.069s2.18 3.97 5.466 3.97c3.316 0 5.466-1.561 5.466-3.97z"></path></g><g><path fill="#00175a" d="M83.592 15.738c-3.5 0-6.723 1.9-8.197 5.09h-.03c-.89-3.122-3.316-5.09-7-5.09-3.623 0-6.6 1.934-8.044 5.022h-.03l-.727-3.391a1.331 1.331 0 0 0-1.302-1.054H53.33a.038.038 0 0 0-.038.039v17.43c0 .02.017.038.038.038h7.2a.039.039 0 0 0 .038-.038v-8.003c0-3.087 1.627-4.953 4.39-4.953 2.241 0 3.592 1.458 3.592 3.901v9.055c0 .02.017.038.038.038h7.169a.039.039 0 0 0 .038-.038v-8.003c0-3.087 1.627-4.953 4.39-4.953 2.272 0 3.593 1.458 3.593 3.901v9.055c0 .02.017.038.038.038h7.2a.039.039 0 0 0 .038-.038V23.542c0-4.682-2.764-7.804-7.46-7.804"></path></g><g><path fill="#00175a" d="M39.83 20.65c2.231 0 3.796 1.059 4.322 2.765l6.71-1.413c-1.118-3.803-5.49-6.261-11.34-6.261-7.368 0-12.28 3.69-12.28 9.31 0 5.62 4.912 9.311 12.28 9.311 5.85 0 10.222-2.458 11.34-6.261l-6.71-1.413c-.526 1.706-2.09 2.765-4.323 2.765-3.254 0-5.341-1.659-5.341-4.402 0-2.742 2.087-4.4 5.341-4.4"></path></g><g><path fill="#00175a" d="M133.913 33.553l-.008-16.697C133.905 7.56 126.346 0 117.055 0v5.61c6.2 0 11.242 5.044 11.242 11.246l-.005.668h-.023l-2.838.003a7.777 7.777 0 0 0-7.769 7.786l.008 8.47 16.243-.015v-.215"></path></g></g></g></svg>