<svg width="182.5" height="58.4" xmlns="http://www.w3.org/2000/svg">
 <style type="text/css">.st0{fill:#009FE3;}
	.st1{fill:#FFFFFF;}</style>

 <g>
  <title>background</title>
  <rect fill="none" id="canvas_background" height="60.4" width="184.5" y="-1" x="-1"/>
 </g>
 <g>
  <title>Layer 1</title>
  <g id="svg_1">
   <rect id="svg_2" height="58.7" width="182.2" class="st0" y="0.228572" x="0.242859"/>
   <g id="svg_3">
    <g id="svg_4">
     <path id="svg_5" d="m40.942859,46.828572l0,-24.9l6.8,0l0,3.1c1,-2 2.8,-3.3 5.5,-3.6c1,-0.1 2.1,0.1 2.8,0.4l0.2,0.1l0,6.3l-0.3,-0.1c-0.7,-0.1 -1.5,-0.3 -2.5,-0.3c-3,0 -5.2,2.1 -5.3,5.1l0,14l-7.2,0l0,-0.1z" class="st1"/>
     <path id="svg_6" d="m167.442859,47.228572c-8.7,0 -9.4,-7.2 -9.4,-9.4l0,-9.9l-3.4,0l0,-5.7l3.6,0l0,-6.3l7,0l0,6.3l5.9,0l0,5.7l-5.9,0l0,9.7c0,1.6 0.5,3.5 3.1,3.5c1,0 1.9,-0.1 2.5,-0.4l0.3,-0.1l0,6.1l-0.2,0c-1.2,0.3 -2.4,0.5 -3.5,0.5z" class="st1"/>
     <path id="svg_7" d="m119.142859,46.828572l0,-14.5c0,-2.7 -1.6,-4.5 -4.1,-4.5c-2.2,0 -4.5,1.6 -4.5,4.7l0,14.3l-7.2,0l0,-14.5c0,-2.7 -1.8,-4.5 -4.3,-4.5c-2.6,0 -4.3,1.9 -4.3,4.7l0,14.3l-7.2,0l0,-24.9l6.8,0l0,3.6c1.2,-2.4 3.6,-4.2 6.9,-4.2c3.9,0 6.1,2 7.4,3.8c1.4,-2.3 4.1,-3.8 7.1,-3.8c7.4,0 10.8,5.6 10.8,10.8l0,14.7l-7.4,0z" class="st1"/>
     <path id="svg_8" d="m141.142859,21.328572c-3.4,0 -7.3,1.2 -10,3.2l-0.2,0.1l2.7,5l0.2,-0.3c1.6,-1.2 4.3,-2.4 6.6,-2.4c3.3,0 4.9,1.6 5,4.1l-3.9,0.1c-7.8,0.3 -11.9,3 -11.9,8c0,3.9 2.9,7.9 9.5,7.9c1,0 4.6,-0.7 6.5,-3.4l0,3l6.8,0l0,-14.7c0.2,-4.9 -2.8,-10.6 -11.3,-10.6zm4.5,16.1c0,3.3 -2.9,4.8 -5.6,4.8c-2.3,0 -3.8,-1.3 -3.8,-2.9c0,-1.8 1.3,-3.5 5,-3.6l4.4,-0.1l0,1.8z" class="st1"/>
     <path id="svg_9" d="m70.542859,21.328572c-7.7,0 -13.3,5.5 -13.3,13c0,7.6 5.6,13 13.3,13c7.7,0 13.3,-5.5 13.3,-13c0.1,-7.5 -5.6,-13 -13.3,-13zm0,20.1c-3.7,0 -6.3,-2.8 -6.3,-7c0,-4.3 2.6,-7 6.3,-7c3.7,0 6.3,2.8 6.3,7c0.1,4.2 -2.6,7 -6.3,7z" class="st1"/>
     <path id="svg_10" d="m25.842859,11.828572l-13.1,0l0,35l7.4,0l0,-12.5l5.7,0c6.8,0 11.9,-4.8 11.9,-11.2c0.1,-6.4 -5.1,-11.3 -11.9,-11.3zm-0.2,16.6l-5.7,0l0,-10.7l5.7,0c3,0 5.2,2.5 5.2,5.4c-0.1,2.9 -2.2,5.3 -5.2,5.3z" class="st1"/>
    </g>
   </g>
  </g>
 </g>
</svg>