<?xml version="1.0" encoding="utf-8"?>
<!-- Generator: Adobe Illustrator 27.4.0, SVG Export Plug-In . SVG Version: 6.00 Build 0)  -->
<svg version="1.1" id="Layer_1" xmlns="http://www.w3.org/2000/svg" xmlns:xlink="http://www.w3.org/1999/xlink" x="0px" y="0px"
	 viewBox="0 0 787.9 177.6" style="enable-background:new 0 0 787.9 177.6;" xml:space="preserve">
<style type="text/css">
	.st0{fill:#003E7E;}
</style>
<g>
	<g>
		<path class="st0" d="M430.3,129.4h20.5l6.6-45.6h0.2l18.2,45.6h8.2l19-45.6h0.2l5.8,45.6h20.5l-12-79.2H497l-17,42.3l-16.1-42.3
			h-20.3L430.3,129.4z M379.7,67.5c12.3,0,22.4,10,22.4,20.9c0,13.7-10.1,23.6-22.4,23.6s-22.4-10-22.4-23.6
			C357.4,77.5,367.5,67.5,379.7,67.5z M379.7,47.6c-22.8,0-43.8,16.8-43.8,40.7c0,25.6,18.4,43.7,43.8,43.7
			c25.4,0,43.8-18.1,43.8-43.7C423.5,64.4,402.5,47.6,379.7,47.6z M289.2,66h2c6.7,0,14.3,1.3,14.3,9.9s-7.6,9.9-14.3,9.9h-2V66z
			 M309.5,97c11.2-2,17.3-11.4,17.3-22.4c0-16.9-11.9-24.4-27.5-24.4h-30.8v79.2h20.6V98.9h0.2l19.4,30.5h25.6L309.5,97z
			 M219.8,66.8h3.5c8,0,14.8,0.1,14.8,10.1c0,9.7-7.4,9.7-14.8,9.7h-3.5V66.8z M199.2,129.4h20.6v-26.3h11.7c18,0,28-8.2,28-26.9
			c0-18.2-11.8-26-28.8-26h-31.5L199.2,129.4L199.2,129.4z M750,65h8.1v56.6h17.4v7.6H750V65z M698.6,65v25.6h31.3V65h8.1v64.3h-8.1
			v-31h-31.3v31h-8.1V65H698.6z M675.7,129.2l-7.5-17.9h-26.3l-7.6,17.9h-8.9l28.3-64.3h3.3l27.6,64.3H675.7z M643.6,104.8h23
			l-11.4-27.2L643.6,104.8z M775.5,57.6H616.7v71.6h-8.1V57.6h-59.5V50h226.4V57.6z M570.6,64.2c7.6,0,13.5,3.8,17,10.3l-6.5,4.1
			c-2.6-4.4-5.2-6.9-10.7-6.9c-5.4,0-9.9,3.8-9.9,9.1c0,5.1,5.6,7.5,9.6,9.2l4.2,1.8c8.2,3.5,15.5,7.7,15.5,17.9
			c0,11.1-9.1,19.7-20.4,19.7c-10.8,0-18.2-6.8-20.3-16.9l7.9-2.2c0.9,6.2,5.2,11.6,12.2,11.6c6.5,0,12.5-4.9,12.5-11.5
			c0-7-5.9-9.4-11.3-11.8l-3.9-1.6c-7.4-3.3-14.1-7.1-14.1-16.3C552.4,70.5,561,64.2,570.6,64.2z"/>
	</g>
	<path class="st0" d="M115.9,26.1c6-4.1,17.6-7.9,28.9,0.6l2.6,1.9l-8.9,14.8c7.4,16.2,26.6,74.2,27.8,85.8
		c0.5,4.8-13.2,17.6-18.9,19.7c-2.4,0.9-3.6,0-13.5-6.9c-10-7-25-17.5-35.7-21.5c-23.6-8.8-31.6-17.4-31.5-33.9
		c0-7.4,1.9-12.8,7-20.9l6.1,3.9c-4.4,6.9-5.9,11.2-5.9,17.1c0,11.6,4,18.7,26.9,27.2c11.5,4.3,27.1,15.2,37.3,22.4
		c3,2.1,6.4,4.5,8.1,5.5c4.4-2.4,11.4-9.9,12.9-12.4c-1.8-12.3-21.3-71.3-28-84.5l-0.7-1.5l7.4-12.4c-10-5.2-18.8,1.9-19.2,2.3
		l-1.8,1.5c-5.3-2.9-11-5-17-6.4L99.5,13c-3.5-0.5-7.1-0.7-10.7-0.7c-1.2,0-2.4,0-3.5,0.1l-1.6,14.2c-7.7,0.2-15.1,1.7-22,4.3
		l-7.5-10.4c-4.3,2.1-8.3,4.7-12.1,7.5l5.4,10.3c-6,4.2-11.4,9.3-15.7,15.2l-9.3-3.8c-2.3,3.8-4.3,7.9-6,12.1l7.8,4.5
		c-2.6,5.8-4.4,12.1-5.2,18.7l-7.6,0.5c-0.1,1.4-0.1,2.8-0.1,4.3c0,2.9,0.2,5.7,0.5,8.5l7.1,0.2c0.5,6.3,1.9,12.4,4,18.1l-5.5,3.3
		c1.7,4,3.7,7.8,6,11.4l5.6-2.6c3.7,5.9,8.3,11.1,13.6,15.6l-3.1,5.2C53,160.6,70.2,167.3,89,167.3c16.2,0,31.3-5,43.7-13.5l5.3,5
		c-13.8,9.8-30.7,15.6-49,15.6c-22.7,0-43.3-8.9-58.5-23.5l3.2-5.3c-2.5-2.5-4.8-5.1-7-8l-5.6,2.6c-5.2-7-9.4-14.9-12.2-23.4
		l5.7-3.4c-0.7-2.6-1.3-5.3-1.8-8l-7-0.2c-0.9-5-1.4-10.2-1.4-15.5c0-3.7,0.2-7.3,0.7-10.9l8.2-0.7c0.6-3,1.4-6,2.4-8.9L7.9,65
		c2.7-8.8,6.7-16.9,11.9-24.2l9.7,4.1c2.7-3.1,5.6-6,8.8-8.6L33,26.2c6.9-6.1,14.8-11,23.4-14.6l7.9,10.9c4.2-1.2,8.5-2.1,12.9-2.6
		l1.6-14.1c3.3-0.4,6.6-0.6,9.9-0.6c6,0,11.9,0.6,17.6,1.8l0.4,15.6C109.9,23.6,113,24.8,115.9,26.1"/>
</g>
</svg>
