<?xml version="1.0" encoding="UTF-8"?>
<svg width="244px" height="82px" viewBox="0 0 244 82" version="1.1" xmlns="http://www.w3.org/2000/svg" xmlns:xlink="http://www.w3.org/1999/xlink">
    <!-- Generator: Sketch 59 (86127) - https://sketch.com -->
    <title>logo</title>
    <desc>Created with Sketch.</desc>
    <defs>
        <path d="M231.568377,78.5383 L233.063236,76.7549403 C234.423385,77.9310461 235.782692,78.5986455 237.539393,78.5986455 C239.080979,78.5986455 240.055099,77.8892684 240.055099,76.8148638 L240.055099,76.7751961 C240.055099,75.7594491 239.479636,75.2133849 236.854056,74.6069751 C233.837818,73.8727002 232.137948,72.9814423 232.137948,70.3654824 L232.137948,70.3249706 C232.137948,67.8913134 234.16912,66.2067011 236.975295,66.2067011 C239.036356,66.2067011 240.66845,66.8358987 242.107741,67.9934367 L240.769904,69.8776537 C239.502789,68.9264723 238.227676,68.4196538 236.930251,68.4196538 C235.468228,68.4196538 234.630922,69.1703866 234.630922,70.1021562 L234.630922,70.1435119 C234.630922,71.2373283 235.270373,71.724735 237.984356,72.3720785 C240.975757,73.1008675 242.538813,74.182446 242.538813,76.5321258 L242.538813,76.5709495 C242.538813,79.2274212 240.458387,80.8111763 237.476247,80.8111763 C235.317943,80.8111763 233.269932,80.0579115 231.568377,78.5383 L231.568377,78.5383 Z M224.011995,73.4481711 C225.806584,73.4481711 226.93099,72.5155575 226.93099,71.0744375 L226.93099,71.0339257 C226.93099,69.5134702 225.841103,68.679182 223.998104,68.679182 L220.382406,68.679182 L220.382406,73.4481711 L224.011995,73.4481711 Z M217.894062,66.4117916 L224.195538,66.4117916 C225.981706,66.4117916 227.377637,66.939288 228.291981,67.8322338 C229.037095,68.5998465 229.462694,69.6573712 229.462694,70.8942447 L229.462694,70.9305365 C229.462694,73.2612264 228.068026,74.6664767 226.084423,75.2357507 L229.900922,80.6056637 L226.970982,80.6056637 L223.49673,75.6581698 L220.382406,75.6581698 L220.382406,80.6056637 L217.894062,80.6056637 L217.894062,66.4117916 Z M204.32078,66.4117916 L214.836569,66.4117916 L214.836569,68.6428902 L206.81628,68.6428902 L206.81628,72.3332548 L213.915911,72.3332548 L213.915911,74.5651974 L206.81628,74.5651974 L206.81628,78.3745651 L214.938023,78.3745651 L214.938023,80.6056637 L204.32078,80.6056637 L204.32078,66.4117916 Z M195.502756,68.7226477 L191.008497,68.7226477 L191.008497,66.4117916 L202.505985,66.4117916 L202.505985,68.7226477 L198.015937,68.7226477 L198.015937,80.6056637 L195.502756,80.6056637 L195.502756,68.7226477 Z M176.845859,66.4117916 L179.148977,66.4117916 L186.733143,76.2244899 L186.733143,66.4117916 L189.184442,66.4117916 L189.184442,80.6056637 L187.107384,80.6056637 L179.290001,70.5081174 L179.290001,80.6056637 L176.845859,80.6056637 L176.845859,66.4117916 Z M170.570063,80.6060857 L173.055039,80.6060857 L173.055039,66.4117916 L170.570063,66.4117916 L170.570063,80.6060857 Z M147.551934,66.4117916 L150.244027,66.4117916 L153.622298,76.936399 L157.099075,66.3729679 L159.215283,66.3729679 L162.686167,76.936399 L166.062755,66.4117916 L168.676968,66.4117916 L163.735642,80.709897 L161.597964,80.709897 L158.116977,70.5081174 L154.640199,80.709897 L152.49284,80.709897 L147.551934,66.4117916 Z M136.780196,73.4481711 C138.549105,73.4481711 139.69035,72.5155575 139.69035,71.0744375 L139.69035,71.0339257 C139.69035,69.5134702 138.592465,68.679182 136.753675,68.679182 L133.137978,68.679182 L133.137978,73.4481711 L136.780196,73.4481711 Z M130.644161,66.4117916 L136.955319,66.4117916 C138.742329,66.4117916 140.130262,66.939288 141.047973,67.8322338 C141.792666,68.5998465 142.219949,69.6573712 142.219949,70.8942447 L142.219949,70.9305365 C142.219949,73.2612264 140.817282,74.6664767 138.847151,75.2357507 L142.665334,80.6056637 L139.720239,80.6056637 L136.251881,75.6581698 L133.137978,75.6581698 L133.137978,80.6056637 L130.644161,80.6056637 L130.644161,66.4117916 Z M115.104114,74.5846092 L115.104114,66.4117916 L117.582776,66.4117916 L117.582776,74.480376 C117.582776,77.1195457 118.942925,78.5383 121.17111,78.5383 C123.371933,78.5383 124.726609,77.2005692 124.726609,74.5846092 L124.726609,66.4117916 L127.221688,66.4117916 L127.221688,74.4601201 C127.221688,78.7007688 124.833114,80.8314321 121.124804,80.8314321 C117.447224,80.8314321 115.104114,78.7007688 115.104114,74.5846092 L115.104114,74.5846092 Z M110.500404,73.5498724 L110.500404,73.5068287 C110.500404,70.7541417 108.499963,68.4563675 105.689999,68.4563675 C102.874563,68.4563675 100.912429,70.707722 100.912429,73.4684269 L100.912429,73.5068287 C100.912429,76.2666896 102.912871,78.5585558 105.724939,78.5585558 C108.538271,78.5585558 110.500404,76.3105773 110.500404,73.5498724 L110.500404,73.5498724 Z M98.2990576,73.5498724 L98.2990576,73.5068287 C98.2990576,69.5134702 101.378441,66.1674553 105.724939,66.1674553 C110.078173,66.1674553 113.114197,69.4721145 113.114197,73.4684269 L113.114197,73.5068287 C113.114197,77.5035631 110.036076,80.85 105.689999,80.85 C101.335081,80.85 98.2990576,77.5466068 98.2990576,73.5498724 L98.2990576,73.5498724 Z M86.4429049,68.7226477 L81.9482258,68.7226477 L81.9482258,66.4117916 L93.4377151,66.4117916 L93.4377151,68.7226477 L88.9497714,68.7226477 L88.9497714,80.6056637 L86.4429049,80.6056637 L86.4429049,68.7226477 Z M67.8020052,73.5498724 L67.8020052,73.5068287 C67.8020052,69.4721145 70.8186644,66.1674553 75.1049642,66.1674553 C77.7166519,66.1674553 79.2965461,67.078969 80.6503803,68.3782981 L79.0536474,70.2236913 C77.9195586,69.1703866 76.7046439,68.4563675 75.0855996,68.4563675 C72.3762473,68.4563675 70.4136928,70.6883101 70.4136928,73.4684269 L70.4136928,73.5068287 C70.4136928,76.2839915 72.3762473,78.5585558 75.0855996,78.5585558 C76.8284086,78.5585558 77.9385022,77.8496007 79.151733,76.7114746 L80.7514127,78.3340534 C79.2742348,79.8764527 77.6560324,80.85 75.0081415,80.85 C70.8805467,80.85 67.8020052,77.6250983 67.8020052,73.5498724 L67.8020052,73.5498724 Z M55.6789585,66.4117916 L66.1842238,66.4117916 L66.1842238,68.6428902 L58.1685653,68.6428902 L58.1685653,72.3332548 L65.2690386,72.3332548 L65.2690386,74.5651974 L58.1685653,74.5651974 L58.1685653,78.3745651 L66.2793626,78.3745651 L66.2793626,80.6056637 L55.6789585,80.6056637 L55.6789585,66.4117916 Z M46.0463606,68.7226477 L41.5508395,68.7226477 L41.5508395,66.4117916 L53.0487482,66.4117916 L53.0487482,68.7226477 L48.5532271,68.7226477 L48.5532271,80.6056637 L46.0463606,80.6056637 L46.0463606,68.7226477 Z M39.3243379,73.5498724 L39.3243379,73.5068287 C39.3243379,70.7541417 37.314635,68.4563675 34.5088809,68.4563675 C31.6883929,68.4563675 29.731311,70.707722 29.731311,73.4684269 L29.731311,73.5068287 C29.731311,76.2666896 31.7321736,78.5585558 34.5387696,78.5585558 C37.353785,78.5585558 39.3243379,76.3105773 39.3243379,73.5498724 L39.3243379,73.5498724 Z M27.1221492,73.5498724 L27.1221492,73.5068287 C27.1221492,69.5134702 30.1926923,66.1674553 34.5387696,66.1674553 C38.8941082,66.1674553 41.9292901,69.4721145 41.9292901,73.4684269 L41.9292901,73.5068287 C41.9292901,77.5035631 38.8541162,80.85 34.5088809,80.85 C30.1527004,80.85 27.1221492,77.5466068 27.1221492,73.5498724 L27.1221492,73.5498724 Z M19.6491189,73.4481711 C21.431078,73.4481711 22.5655877,72.5155575 22.5655877,71.0744375 L22.5655877,71.0339257 C22.5655877,69.5134702 21.4744377,68.679182 19.6276495,68.679182 L16.0119523,68.679182 L16.0119523,73.4481711 L19.6491189,73.4481711 Z M13.5223455,66.4117916 L19.8288724,66.4117916 C21.6158831,66.4117916 23.0097093,66.939288 23.9206848,67.8322338 C24.6687456,68.5998465 25.0905559,69.6573712 25.0905559,70.8942447 L25.0905559,70.9305365 C25.0905559,73.2612264 23.6958877,74.6664767 21.7118639,75.2357507 L25.5384662,80.6056637 L22.600949,80.6056637 L19.1262762,75.6581698 L16.0119523,75.6581698 L16.0119523,80.6056637 L13.5223455,80.6056637 L13.5223455,66.4117916 Z M5.37997557,73.7946307 C7.26633477,73.7946307 8.4366268,72.738372 8.4366268,71.2605382 L8.4366268,71.2200265 C8.4366268,69.555248 7.23981377,68.679182 5.37997557,68.679182 L2.49002782,68.679182 L2.49002782,73.7946307 L5.37997557,73.7946307 Z M0,66.4117916 L5.58667104,66.4117916 C8.88074841,66.4117916 10.962016,68.2972746 10.962016,71.1554609 L10.962016,71.1959726 C10.962016,74.3774087 8.41978806,76.0442972 5.30125449,76.0442972 L2.49002782,76.0442972 L2.49002782,80.6056637 L0,80.6056637 L0,66.4117916 Z M88.3591528,29.8596699 C88.3591528,38.0983191 82.5758896,45.1148646 73.8639495,45.1148646 C65.2433595,45.1148646 59.303075,37.9350062 59.303075,29.696357 L59.303075,29.5330442 C59.303075,21.293973 65.0812867,14.2757395 73.7069283,14.2757395 C82.4121329,14.2757395 88.3591528,21.4543319 88.3591528,29.696357 L88.3591528,29.8596699 Z M32.3674149,22.1088494 C32.3674149,26.5959444 28.946205,29.5330442 23.3321711,29.5330442 L15.8444069,29.5330442 L15.8444069,14.4390523 L23.2492403,14.4390523 C28.946205,14.4390523 32.3674149,17.0520583 32.3674149,21.9451145 L32.3674149,22.1088494 Z M167.944062,1.14234612 L158.012156,34.1821861 L147.026145,0.979033243 L133.444022,0.979033243 L122.452117,34.1821861 L112.521473,1.14234612 L95.8414444,1.14234612 L100.161843,14.1917621 C94.9430979,5.67332884 85.4018501,0 73.8639495,0 C62.1012517,0 52.3276294,5.97379077 47.1400364,14.8336196 C44.4626776,6.14807557 36.2201172,1.14234612 24.4746792,1.14234612 L0.0606194431,1.14234612 L0.0606194431,58.2529 L15.8444069,58.2529 L15.8444069,41.9334286 L23.6567377,41.9334286 C32.0946274,41.9334286 39.1538457,39.3925841 43.499923,34.5067018 C45.7074811,48.6638601 57.8250552,59.3914481 73.7069283,59.3914481 C91.2869877,59.3914481 104.467086,46.0947419 104.467086,29.696357 L104.467086,29.5330442 C104.467086,28.6046506 104.415307,27.6922929 104.330271,26.7871091 L114.881843,58.6588612 L128.637405,58.6588612 L140.027125,25.7789581 L151.505669,58.6588612 L165.262073,58.6588612 L184.304576,1.14234612 L167.944062,1.14234612 Z M238.914696,41.0767745 C238.846499,40.8168243 238.680638,40.6020278 238.447842,40.4686767 L231.424406,36.6825188 L237.594118,34.2585676 C237.950679,34.0598069 238.08623,33.5968761 237.898058,33.2314266 L236.999711,31.5560982 C236.868369,31.3121839 236.610736,31.1594209 236.337107,31.1594209 C236.212079,31.1594209 236.088736,31.1906487 235.978442,31.2514163 L228.658644,35.1932911 L218.797881,29.8702198 L228.666643,24.5509466 L235.978442,28.4966193 C236.088736,28.5548549 236.212079,28.5839727 236.337107,28.5839727 C236.615788,28.5839727 236.868369,28.4320538 236.996343,28.1813875 L237.898058,26.511545 C238.092966,26.1397656 237.959098,25.6916047 237.56423,25.4700562 L231.433668,23.0617188 L238.436897,19.2835789 C238.680638,19.1400999 238.846499,18.9236154 238.914696,18.6628212 C238.993838,18.405825 238.95549,18.1332149 238.822083,17.9006945 L237.874062,16.2570158 C237.698519,15.944738 237.363007,15.7523073 237.00771,15.7523073 C236.827535,15.7523073 236.653675,15.799993 236.502969,15.8865024 L229.711907,20.0735575 L230.70876,13.5190987 C230.715496,13.3135861 230.646036,13.1198895 230.507958,12.9734565 C230.366934,12.8240695 230.180445,12.7413581 229.979643,12.7333401 L228.064658,12.6700406 C227.665159,12.6700406 227.325437,12.9983543 227.301863,13.4043155 L227.037495,21.7235661 L217.490775,27.6133794 L217.815341,16.3823489 L224.87456,11.9902032 C225.230699,11.7686548 225.33552,11.299394 225.116616,10.9542004 L224.119763,9.33246559 C223.980423,9.1138711 223.734577,8.97925403 223.475261,8.97925403 C223.334236,8.97925403 223.199106,9.02018775 223.057239,9.11133912 L217.90627,13.2334067 L218.14075,5.25639572 C218.14075,4.68838764 217.685262,4.23600676 217.135898,4.23600676 L215.238173,4.23600676 C214.6846,4.23600676 214.238794,4.68838764 214.238794,5.2450018 L214.47159,13.2334067 L209.295784,9.09277124 C209.173703,9.02018775 209.04194,8.97925403 208.901336,8.97925403 C208.634442,8.97925403 208.396174,9.1138711 208.251361,9.33795155 L207.258718,10.9495584 C207.038972,11.299394 207.145477,11.7686548 207.498249,11.9965332 L214.561256,16.378551 L214.881613,27.6159114 L205.332367,21.7223001 L205.069261,13.4005175 C205.048213,12.9983543 204.708913,12.6700406 204.28163,12.6700406 L202.393166,12.7333401 C201.978933,12.74389 201.65184,13.0975236 201.661944,13.5482165 L202.657534,20.0722915 L195.881627,15.8919883 C195.720817,15.799993 195.544852,15.7523073 195.368888,15.7523073 C195.006855,15.7523073 194.678079,15.944738 194.499167,16.2570158 L193.554935,17.9006945 C193.277517,18.3834591 193.442536,18.9974649 193.924545,19.277249 L200.949665,23.0617188 L194.775743,25.4886241 C194.414973,25.6916047 194.279843,26.1410316 194.476014,26.511545 L195.375202,28.1813875 C195.501072,28.4320538 195.758283,28.5839727 196.043279,28.5839727 C196.164097,28.5839727 196.285336,28.5548549 196.398576,28.4966193 L203.709534,24.5509466 L213.578716,29.8702198 L203.709534,35.1932911 L196.398576,31.2514163 C196.294597,31.1906487 196.164097,31.1594209 196.036964,31.1594209 C195.758283,31.1594209 195.501072,31.3121839 195.375202,31.5611622 L194.476014,33.2314266 C194.279843,33.6019401 194.419183,34.0598069 194.808579,34.2729155 L200.946718,36.6825188 L193.932544,40.4606588 C193.695959,40.5978078 193.525046,40.8168243 193.458112,41.0767745 C193.381496,41.3346147 193.415594,41.6072248 193.554935,41.8439652 L194.499167,43.4872219 C194.678079,43.8011877 195.009381,43.9940404 195.375202,43.9940404 C195.544852,43.9940404 195.720817,43.9471987 195.870682,43.8602673 L202.657534,39.6698362 L201.661944,46.223873 C201.65184,46.6454481 201.976407,46.9961276 202.393166,47.0125855 L204.286681,47.0750411 L204.305204,47.0750411 C204.715648,47.0750411 205.048213,46.7530573 205.065473,46.3386562 L205.332367,38.0206716 L214.881613,32.1295923 L214.561256,43.3677967 L207.50751,47.7519244 C207.332808,47.8599557 207.211569,48.0287545 207.166526,48.2220292 C207.113905,48.4199458 207.152213,48.6237704 207.258718,48.7929912 L208.255571,50.4067081 C208.396174,50.6282566 208.638231,50.7649836 208.901336,50.7649836 C209.04194,50.7649836 209.180017,50.7219399 209.326093,50.6350085 L214.464854,46.511253 L214.238794,54.484888 C214.238794,55.052896 214.6846,55.5078089 215.238173,55.5078089 L217.135898,55.5078089 C217.685262,55.5078089 218.14075,55.052896 218.14075,54.5005019 L217.90627,46.509143 L223.078288,50.6514664 C223.199106,50.7219399 223.334236,50.7649836 223.476524,50.7649836 C223.734577,50.7649836 223.980423,50.6307886 224.119763,50.4067081 L225.116616,48.7929912 C225.220596,48.6237704 225.254694,48.4199458 225.210913,48.2220292 C225.159555,48.0287545 225.043789,47.8599557 224.872034,47.7519244 L217.815341,43.3623107 L217.490775,32.1295923 L227.037495,38.0232036 L227.301863,46.3411882 C227.325437,46.7530573 227.65674,47.0750411 228.070972,47.0750411 L228.085706,47.0750411 L229.979643,47.0125855 C230.401453,46.9961276 230.72602,46.6454481 230.707497,46.1964432 L229.714012,39.6719462 L236.49497,43.8514054 C236.653675,43.9471987 236.827535,43.9940404 236.999711,43.9940404 C237.363007,43.9940404 237.698519,43.8011877 237.874062,43.4872219 L238.822083,41.8439652 C238.95549,41.6072248 238.993838,41.3346147 238.914696,41.0767745 L238.914696,41.0767745 Z M242.521974,57.5093411 C242.521974,58.0841011 242.051752,58.5529399 241.478814,58.5529399 L190.893573,58.5529399 C190.321898,58.5529399 189.84873,58.0841011 189.84873,57.5093411 L189.84873,2.23531857 C189.84873,1.65676057 190.321898,1.19129778 190.893573,1.19129778 L241.478814,1.19129778 C242.051752,1.19129778 242.521974,1.65676057 242.521974,2.23531857 L242.521974,57.5093411 Z" id="path-1"></path>
    </defs>
    <g id="Our-Work" stroke="none" stroke-width="1" fill="none" fill-rule="evenodd">
        <g id="pow-sticker-sheet" transform="translate(-148.000000, -46.000000)">
            <g id="logo" transform="translate(134.000000, 38.000000)">
                <g id="POW-logo" transform="translate(14.849315, 8.662500)">
                    <mask id="mask-2" fill="white">
                        <use xlink:href="#path-1"></use>
                    </mask>
                    <use id="Fill-1" fill="#061F30" xlink:href="#path-1"></use>
                    <g id="color/navy" mask="url(#mask-2)" fill="#00263E">
                        <g transform="translate(-12.000000, -7.000000)" id="Rectangle">
                            <rect x="0" y="0" width="266" height="96"></rect>
                        </g>
                    </g>
                </g>
            </g>
        </g>
    </g>
</svg>