<svg xmlns="http://www.w3.org/2000/svg" xmlns:xlink="http://www.w3.org/1999/xlink" width="113" height="56" viewBox="0 0 113 56">
    <defs>
        <linearGradient id="prefix__b" x1="0%" x2="100%" y1="50%" y2="50%">
            <stop offset="0%" stop-color="#48B0B3"/>
            <stop offset="29.442%" stop-color="#1A95D3"/>
            <stop offset="42.57%" stop-color="#16488D"/>
            <stop offset="55.439%" stop-color="#E41C3F"/>
            <stop offset="100%" stop-color="#ED6723"/>
        </linearGradient>
        <path id="prefix__a" d="M65.615.31l-10.03 10.24c-.195.196-.304.463-.303.74v7.91l-4.108-3.086c-.385-.279-.908-.27-1.284.023l-9.335 7.53c-.25.201-.394.504-.393.824v12.016h-2.117v-6.623c0-2.327-1.59-4.798-4.54-4.798-2.948 0-4.539 2.483-4.539 4.823v6.597l-2.14-.002v-4.491c0-1.821-1.247-3.754-3.555-3.754-2.31 0-3.556 1.935-3.556 3.758v4.49l-2.131.002-.001-.2c-.003-.904-.007-2.064-.007-2.53 0-1.545-1.452-2.903-3.105-2.903-1.657 0-3.107 1.35-3.107 2.888v2.743l-9.35-.003c-.427.001-.811.259-.974.653-.163.395-.072.849.23 1.15.2.198.464.309.744.309l10.399.002c.28 0 .547-.111.744-.31.197-.198.307-.467.304-.746v-3.605c0-.393.423-.97 1.01-.97.576 0 1.008.529 1.008 1.004l.01 3.577c0 .58.47 1.051 1.05 1.053l4.228-.003c.578 0 1.049-.476 1.049-1.056v-5.545c0-.57.303-1.649 1.456-1.649s1.456 1.075 1.456 1.645v5.546c0 .582.471 1.055 1.05 1.055l4.238.003c.275 0 .545-.113.742-.31.194-.195.307-.467.307-.746v-7.653c0-.94.511-2.711 2.441-2.711 1.793 0 2.442 1.606 2.442 2.687v7.677c0 .58.47 1.056 1.049 1.056h4.215c.578 0 1.049-.476 1.049-1.056V24.998l.074-.06 8.237-6.643 4.71 3.54v15.727c0 .58.472 1.056 1.05 1.056h4.205c.578 0 1.05-.476 1.05-1.056V24.464c-.002-.331-.158-.644-.422-.844l-3.785-2.844v-9.053l.058-.058 7.874-8.04v33.937c0 .58.47 1.056 1.049 1.056h4.247c.58 0 1.05-.476 1.05-1.056V15.477h1.562l.058.055 5.365 5.1v16.93c0 .58.47 1.057 1.049 1.057h4.264c.579 0 1.048-.476 1.048-1.057v-5.126l5.87 5.838c.197.198.461.305.737.305h8.72c.564-.001 1.026-.447 1.048-1.01v-.09c-.022-.563-.485-1.008-1.048-1.01h-8.287l-.06-.06-7.29-7.252c-.302-.297-.753-.383-1.144-.218-.39.164-.643.547-.642.97v6.598h-2.167V20.175c0-.288-.12-.57-.328-.767l-6.056-5.755c-.194-.184-.452-.287-.72-.286h-3.029c-.577 0-1.048.473-1.048 1.055v22.085h-2.15V1.05c0-.43-.256-.812-.652-.976C66.635.024 66.503 0 66.37 0c-.28 0-.556.108-.754.31h-.001zM57.38 23.41l2.107 1.584v11.514H57.38V23.41z"/>
    </defs>
    <g fill="none" fill-rule="evenodd">
        <path fill="#17428B" fill-rule="nonzero" d="M4.565 48.971c-1.565-.475-2.25-.775-2.25-1.67 0-.8 1.065-1.086 1.98-1.086.798 0 1.656.238 2.24.62.138.09.308.116.467.073.16-.043.293-.152.367-.3l.265-.53c.13-.263.045-.582-.2-.742-.84-.549-2.034-.891-3.112-.891-2.267 0-3.791 1.165-3.791 2.897 0 2.252 1.901 2.821 3.428 3.28 1.597.478 2.296.785 2.288 1.737 0 .955-1.124 1.295-2.175 1.295-1.008 0-2.105-.537-2.771-1.151-.128-.125-.305-.188-.483-.172-.178.02-.337.123-.43.276l-.308.52c-.135.227-.096.52.093.704.989.976 2.475 1.578 3.884 1.578 2.375 0 3.973-1.23 3.973-3.059.017-2.322-1.913-2.909-3.466-3.379m10.47-4.161c-.094-.205-.299-.336-.524-.336h-.63c-.226 0-.431.132-.525.338l-4.43 9.769c-.082.178-.067.386.039.551.106.165.29.265.486.265h.643c.227 0 .433-.133.527-.34l1.102-2.441h4.973l1.118 2.444c.093.205.3.337.524.337h.644c.196 0 .379-.1.485-.266.106-.165.12-.373.04-.551l-4.473-9.77h.001zm-2.537 6.063l1.693-3.753 1.713 3.753h-3.406zm9.906-6.4h-.586c-.32 0-.578.26-.578.578v9.767c.001.319.259.577.578.579h.586c.153 0 .3-.061.41-.17.108-.109.168-.256.167-.41v-9.766c0-.153-.06-.3-.169-.409-.108-.108-.255-.169-.408-.168m12.186 0h-.574c-.153 0-.3.06-.408.169-.108.108-.168.255-.168.408v7.113l-5.483-7.456c-.109-.147-.28-.234-.464-.234h-.687c-.319 0-.577.259-.577.577v9.767c0 .319.259.579.577.579h.587c.153 0 .3-.061.41-.17.108-.109.169-.256.168-.41v-7.109l5.469 7.454c.109.148.282.235.465.235h.686c.318 0 .576-.26.576-.58v-9.766c0-.319-.258-.577-.577-.577m10.075 0H37.48c-.152 0-.299.06-.407.17-.108.107-.168.254-.168.407v.574c0 .318.257.576.575.576h2.722v8.617c0 .319.259.577.578.579h.585c.153 0 .301-.06.41-.17.109-.108.17-.256.169-.41v-8.616h2.72c.318 0 .577-.259.577-.576v-.574c0-.319-.258-.577-.577-.577m4.296 5.324h-3.117c-.32 0-.578.259-.578.578v.474c0 .32.259.578.578.58h3.117c.319 0 .577-.26.577-.58v-.474c0-.153-.06-.3-.168-.409-.109-.108-.255-.169-.409-.169m12.136-.351h-.53l-.01.001h-1.734c-.32 0-.58.259-.58.577v.587c0 .319.26.578.58.578h1.167v1.785c-.687.47-1.499.72-2.33.721-2.155 0-3.909-1.69-3.909-3.768 0-2.072 1.754-3.756 3.909-3.756 1.001 0 1.985.37 2.702 1.014.118.105.274.158.432.145.158-.011.304-.088.402-.213l.35-.433c.194-.242.165-.593-.069-.797-1.057-.924-2.413-1.432-3.817-1.429-3.115 0-5.651 2.453-5.651 5.469 0 3.024 2.522 5.482 5.622 5.482 1.402 0 2.802-.514 3.843-1.412.127-.11.2-.27.2-.439v-3.534c0-.153-.06-.3-.168-.409-.109-.108-.256-.169-.409-.169m8.188-4.988c-3.107 0-5.635 2.453-5.635 5.468 0 3.024 2.528 5.482 5.636 5.482 3.107 0 5.635-2.458 5.635-5.482 0-3.015-2.528-5.468-5.635-5.468m0 9.223c-2.14 0-3.882-1.684-3.882-3.755 0-2.061 1.742-3.739 3.882-3.739s3.879 1.678 3.879 3.739c0 2.07-1.74 3.756-3.88 3.756m14.886-4.057c.587-.505.912-1.252.912-2.157 0-1.848-1.387-2.995-3.621-2.995h-3.998c-.153 0-.3.06-.407.169-.109.108-.17.255-.169.408v9.767c0 .32.258.579.576.579h4.027c2.558 0 4.084-1.2 4.084-3.204 0-1.135-.514-2.04-1.403-2.567h-.001zm-2.724-.723h-2.82V46.2h2.82c.865 0 1.896.232 1.896 1.337 0 .905-.637 1.365-1.896 1.365v.001zm-2.82 1.728h2.82c.891 0 2.385.193 2.385 1.49 0 1.28-1.297 1.547-2.385 1.547h-2.82v-3.037zm14.036-5.82c-.095-.205-.3-.337-.526-.337h-.628c-.227 0-.433.131-.526.338L86.55 54.58c-.082.179-.067.387.04.552.107.165.29.265.487.264h.643c.227 0 .433-.133.526-.34l1.104-2.441h4.97l1.118 2.444c.095.205.3.337.526.337h.64c.197 0 .38-.1.486-.266.107-.165.122-.372.042-.551l-4.472-9.77zm-2.539 6.062l1.694-3.753 1.713 3.753h-3.407zm9.907-6.4h-.587c-.318 0-.577.26-.577.578v9.767c0 .319.259.577.577.579h.587c.32 0 .58-.26.58-.58v-9.766c0-.153-.062-.3-.17-.409-.109-.108-.256-.169-.41-.168m12.185 0h-.572c-.153 0-.3.06-.408.169-.109.108-.17.255-.169.408v7.113l-5.483-7.456c-.109-.147-.282-.234-.465-.234h-.686c-.153 0-.3.06-.409.168-.108.109-.17.256-.17.409v9.767c.001.319.26.577.578.579h.587c.319 0 .578-.26.578-.58v-7.109l5.47 7.454c.108.147.28.235.465.235h.685c.319 0 .576-.26.576-.58v-9.766c0-.153-.06-.3-.169-.408-.108-.108-.255-.17-.408-.17"/>
        <g transform="translate(5.793)">
            <mask id="prefix__c" fill="#fff">
                <use xlink:href="#prefix__a"/>
            </mask>
            <path fill="url(#prefix__b)" fill-rule="nonzero" d="M0.966 0L101.379 0 101.379 38.621 0.966 38.621z" mask="url(#prefix__c)"/>
        </g>
    </g>
</svg>
