<svg xmlns="http://www.w3.org/2000/svg" xmlns:xlink="http://www.w3.org/1999/xlink" width="117" height="58" viewBox="0 0 117 58"><defs><path id="a" d="M66.958.322L56.57 10.926a1.085 1.085 0 0 0-.314.767v8.193l-4.254-3.196a1.107 1.107 0 0 0-1.33.023l-9.669 7.8a1.09 1.09 0 0 0-.407.853v12.445h-2.192v-6.86c0-2.41-1.648-4.969-4.702-4.969-3.054 0-4.701 2.572-4.701 4.995v6.833l-2.216-.002v-4.652c0-1.886-1.292-3.888-3.683-3.888-2.392 0-3.683 2.004-3.683 3.892v4.651l-2.207.002-.001-.207c-.003-.937-.007-2.138-.007-2.62 0-1.601-1.504-3.007-3.216-3.007-1.716 0-3.218 1.398-3.218 2.991v2.841l-9.684-.003a1.093 1.093 0 0 0-.77 1.867c.206.205.48.32.77.32l10.77.002a1.084 1.084 0 0 0 1.086-1.094V35.17c0-.407.438-1.005 1.046-1.005.596 0 1.044.548 1.044 1.04l.011 3.705A1.09 1.09 0 0 0 16.13 40l4.379-.003c.598 0 1.086-.493 1.086-1.094V33.16c0-.59.314-1.707 1.508-1.707s1.508 1.113 1.508 1.703V38.9c0 .603.488 1.093 1.087 1.093l4.39.003c.285 0 .564-.117.768-.32.201-.203.318-.485.318-.774v-7.926c0-.973.53-2.808 2.529-2.808 1.857 0 2.529 1.664 2.529 2.783v7.951c0 .601.487 1.094 1.086 1.094h4.366c.598 0 1.086-.493 1.086-1.094V25.891l.077-.063 8.531-6.88 4.879 3.666v16.29c0 .6.488 1.093 1.087 1.093h4.355c.599 0 1.087-.493 1.087-1.094V25.338a1.1 1.1 0 0 0-.437-.874l-3.92-2.946v-9.376l.06-.06 8.156-8.327v35.148c0 .601.487 1.094 1.086 1.094h4.399c.6 0 1.088-.493 1.088-1.094V16.03h1.617l.06.057 5.557 5.282v17.535c0 .601.487 1.094 1.086 1.094h4.416c.6 0 1.086-.493 1.086-1.094v-5.31l6.08 6.047c.204.205.477.316.763.316h9.031A1.09 1.09 0 0 0 104 38.91v-.092a1.09 1.09 0 0 0-1.086-1.046h-8.583l-.062-.062-7.55-7.512a1.088 1.088 0 0 0-1.85.78v6.833h-2.244V20.896c0-.299-.125-.59-.34-.795l-6.272-5.96a1.08 1.08 0 0 0-.746-.297H72.13c-.598 0-1.086.49-1.086 1.093v22.874h-2.227V1.087c0-.444-.265-.84-.675-1.01A1.038 1.038 0 0 0 67.74 0c-.29 0-.576.112-.781.322zm-8.529 23.923l2.183 1.641v11.925h-2.183V24.245z"/><linearGradient id="b" x1="0%" y1="50%" y2="50%"><stop offset="0%" stop-color="#48B0B3"/><stop offset="29.442%" stop-color="#1A95D3"/><stop offset="42.57%" stop-color="#16488D"/><stop offset="55.439%" stop-color="#E41C3F"/><stop offset="100%" stop-color="#ED6723"/></linearGradient></defs><g fill="none" fill-rule="evenodd"><path d="M4.728 50.72c-1.621-.492-2.33-.803-2.33-1.729 0-.83 1.103-1.125 2.05-1.125.827 0 1.716.246 2.32.641a.596.596 0 0 0 .484.076.595.595 0 0 0 .38-.31l.275-.55a.599.599 0 0 0-.208-.768c-.87-.568-2.106-.923-3.223-.923-2.348 0-3.926 1.207-3.926 3.001 0 2.332 1.969 2.922 3.55 3.396 1.654.496 2.378.814 2.37 1.8 0 .989-1.164 1.341-2.253 1.341-1.044 0-2.18-.556-2.87-1.192a.632.632 0 0 0-.5-.178.6.6 0 0 0-.445.286l-.319.538c-.14.236-.1.538.096.73 1.024 1.01 2.564 1.634 4.023 1.634 2.46 0 4.115-1.275 4.115-3.168.017-2.405-1.982-3.013-3.59-3.5m10.844-4.31a.598.598 0 0 0-.543-.348h-.652a.598.598 0 0 0-.544.35L9.243 56.53a.597.597 0 0 0 .544.845h.666a.6.6 0 0 0 .546-.352l1.142-2.528h5.15l1.158 2.531c.097.213.31.349.543.349h.667a.598.598 0 0 0 .543-.846L15.57 46.41zm-2.628 6.28l1.754-3.887 1.774 3.887h-3.528zm10.26-6.628h-.607a.598.598 0 0 0-.598.598v10.116a.6.6 0 0 0 .598.599h.607a.597.597 0 0 0 .598-.6V46.66a.597.597 0 0 0-.598-.598m12.621 0h-.594a.597.597 0 0 0-.597.598v7.367l-5.679-7.722a.598.598 0 0 0-.48-.243h-.712a.598.598 0 0 0-.597.598v10.116c0 .33.268.599.597.599h.608a.598.598 0 0 0 .599-.6v-7.363l5.664 7.72a.598.598 0 0 0 .482.243h.71c.33 0 .597-.268.597-.6V46.66a.598.598 0 0 0-.598-.598m10.435 0h-7.44a.597.597 0 0 0-.596.598v.594c0 .33.266.597.596.597h2.819v8.925a.6.6 0 0 0 .598.599h.606a.598.598 0 0 0 .6-.6v-8.924h2.817c.33 0 .598-.268.598-.597v-.594a.598.598 0 0 0-.598-.598m4.45 5.515H47.48a.598.598 0 0 0-.598.598v.491a.6.6 0 0 0 .598.6h3.229c.33 0 .597-.268.597-.6v-.491a.596.596 0 0 0-.597-.598m12.569-.364h-.549l-.011.001h-1.795c-.332 0-.6.268-.6.598v.608c0 .33.268.598.6.598h1.208v1.849a4.283 4.283 0 0 1-2.413.747c-2.232 0-4.048-1.75-4.048-3.903 0-2.146 1.816-3.89 4.048-3.89 1.037 0 2.056.384 2.799 1.05a.597.597 0 0 0 .447.15.58.58 0 0 0 .417-.22l.363-.449c.2-.25.17-.614-.072-.825a5.99 5.99 0 0 0-3.954-1.48c-3.226 0-5.853 2.54-5.853 5.664 0 3.132 2.612 5.678 5.823 5.678 1.452 0 2.902-.532 3.98-1.463a.596.596 0 0 0 .208-.454v-3.66a.598.598 0 0 0-.598-.599m8.48-5.166c-3.218 0-5.836 2.54-5.836 5.663 0 3.132 2.618 5.678 5.837 5.678 3.218 0 5.837-2.546 5.837-5.678 0-3.123-2.619-5.663-5.837-5.663m0 9.552c-2.216 0-4.02-1.744-4.02-3.889 0-2.135 1.804-3.872 4.02-3.872 2.216 0 4.018 1.737 4.018 3.872 0 2.145-1.802 3.89-4.018 3.89m15.417-4.202c.608-.523.945-1.296.945-2.234 0-1.914-1.437-3.102-3.751-3.102h-4.14a.597.597 0 0 0-.597.598v10.116c0 .331.267.599.597.599h4.17c2.65 0 4.23-1.242 4.23-3.318 0-1.176-.532-2.112-1.453-2.659zm-2.821-.748h-2.92v-2.8h2.92c.896 0 1.964.24 1.964 1.385 0 .937-.66 1.414-1.964 1.414zm-2.92 1.789h2.92c.923 0 2.47.2 2.47 1.544 0 1.325-1.343 1.602-2.47 1.602h-2.92v-3.146zm14.536-6.028a.6.6 0 0 0-.544-.349h-.651a.597.597 0 0 0-.545.35L89.642 56.53a.597.597 0 0 0 .546.845h.666a.596.596 0 0 0 .545-.352l1.143-2.528h5.148l1.158 2.531c.098.213.31.349.544.349h.664a.6.6 0 0 0 .546-.846L95.97 46.41zm-2.629 6.279l1.754-3.887 1.774 3.887h-3.528zm10.261-6.628h-.608a.598.598 0 0 0-.598.598v10.116a.6.6 0 0 0 .598.599h.608a.6.6 0 0 0 .6-.6V46.66a.599.599 0 0 0-.6-.598m12.62 0h-.593a.596.596 0 0 0-.597.598v7.367l-5.679-7.722a.599.599 0 0 0-.482-.243h-.71a.598.598 0 0 0-.599.598v10.116a.6.6 0 0 0 .598.599h.608c.33 0 .598-.268.598-.6v-7.363l5.666 7.72c.111.152.29.243.481.243h.71c.33 0 .596-.268.596-.6V46.66a.597.597 0 0 0-.597-.598" fill="#17428B"/><g transform="translate(7)"><mask id="c" fill="#fff"><use xlink:href="#a"/></mask><use fill="#F00" xlink:href="#a"/><path fill="url(#b)" mask="url(#c)" d="M0 0h104v40H0z"/></g></g></svg>