<svg xmlns="http://www.w3.org/2000/svg" version="1.1" id="Layer_1" x="0" y="0" width="210" height="240" viewBox="0 0 210 240" enable-background="new 0 0 210 240" xml:space="preserve"><g id="Layer_1_1_" display="none"><g display="inline"><path fill="#DA251C" d="M104.87 240c-7.04-9.01-15-15.12-25.95-18.99 -11.12-3.94-22.2-7.29-33.25-11.38 -5.45-2.02-10.54-4.36-15.48-7.8 -5.07-3.53-9.31-7.01-13.27-11.62 -14.36-16.7-18.68-37.45-16.3-58.39 2.5-21.95 8.61-42.57 9.02-64.31C9.89 54.1 7.8 41 3.8 27.95 1.61 20.9 7.3 13.3 14.7 14.7c14.91 2.8 28.1 9.2 43.1 8.81 17.64-0.44 33.9-8.8 45.71-21.66C103.91 1.3 104.5 0.7 105 0c0.51 0.7 1.1 1.3 1.5 1.8 11.81 12.9 28.1 21.2 45.7 21.66 15 0.4 28.19-6.06 43.11-8.81 7.38-1.36 13.1 6.3 10.9 13.3 -4.04 13.1-6.11 26.15-5.85 39.55 0.41 21.7 6.5 42.4 9 64.3 2.38 20.94-1.94 41.69-16.3 58.39 -3.96 4.61-8.21 8.09-13.28 11.63 -4.94 3.44-10.03 5.79-15.48 7.8 -11.05 4.09-22.12 7.45-33.25 11.39C120.13 224.9 111.9 231 104.9 240H104.87z"/><path fill="#DA251C" stroke="#FFFFFF" stroke-width="2.97" d="M104.87 228.69c-3.45-3.97-8.17-8.38-13.1-11.16s-14.72-5.72-23.6-8.69c-8.88-2.97-22.63-6.39-39.98-19.3C10.84 176.6 8.5 150.9 8.4 143.6c-0.23-19.42 9.22-51.27 9.82-73.61 0.3-11.15-4.03-36.43-5.37-40.75 -1.33-4.32-0.15-5.51 2.87-5.87 3.02-0.37 17.2 6.5 43 7.62 25.82 1.1 46.28-19 46.28-19s20.42 20.1 46.2 19c25.82-1.09 39.97-7.99 43-7.62 3.02 0.4 4.2 1.6 2.9 5.87 -1.3 4.27-5.67 29.6-5.36 40.8 0.6 22.3 10 54.2 9.8 73.61 -0.08 7.25-2.42 32.99-19.77 45.9 -17.35 12.9-31.1 16.33-39.98 19.3 -8.88 2.97-18.67 5.91-23.6 8.69 -4.89 2.76-9.89 7.16-13.29 11.15H104.87z"/><path fill="#FFFFFF" stroke="#FFFFFF" stroke-width="0.3" d="M117.65 84.12L134.49 76c0 0 0.2 1.9 0 4.6 -0.1 1.8 0.3 5.8 0.3 5.8s-2.17-7.4-4.1-6.09c-1.06 0.73-1.97 1.45-1.97 2.9 0 1.4 0 28.8 0 28.8s0.15 1.6 0.8 2.46c0.61 0.9 1.2 1.6 1.2 1.6l-7.74 4.06c0 0 0.46-0.87 0.76-2.17 0.3-1.3 0.61-2.32 0.76-3.48s0-29.57 0-29.57 -0.1-2.19-1.52-1.45c-1.67 0.87-2.01 1.42-3.64 6.09 -0.3 0.87-1.22 2.75-1.22 2.75L117.65 84.12z"/><path fill="#FFFFFF" stroke="#FFFFFF" stroke-width="0.3" d="M70.33 54.69l7.58-3.77c0 0-1.21 2.03-1.36 2.8 -0.15 0.7 0 11.2 0 11.16l9.71-4.93c0 0 0-8.84 0-9.71 0-1.74-1.82-2.61-1.82-2.61l7.43-3.91c0 0-1.36 3.19-1.52 4.2 -0.15 1 0 26.8 0 26.81 0 2.2 1.4 2.6 1.4 2.61l-6.07 3.3c0 0 0.61-1.59 0.61-2.9 0-1.3 0-14.93 0-14.93l-9.86 4.78c0 0 0 13.2 0 14.35s1.67 2.3 1.7 2.32l-7.28 3.8c0 0 1.52-1.88 1.52-3.62 0-1.74 0-26.23 0-27.39 0-1.16-2.04-2.36-2.07-2.36H70.33z"/><path fill="#FFFFFF" stroke="#FFFFFF" stroke-width="0.3" d="M94.4 43.05l16.53-8.41c0 0 0.3 0.1 0.5 1 0.15 0.9 0.2 4.5 0.2 4.49 0-0.01-2.58-2.17-4.25-1.59s-5.76 2.32-5.92 3.5c-0.15 1.2 0 11.3 0 11.31 0.76 0.4 1.4 0.1 3.03-1.01 1.63-1.11 2.88-2.46 4.7-2.75 1.82-0.29 3.64-0.15 5.16-1.02 1.52-0.87 3.34-3.04 3.34-3.04s1.22 0.73-0.91 3.48c-2.12 2.75-4.4 2.61-6.52 3.2 -2.12 0.58-4.55 0.14-6.37 1.74 -1.82 1.59-2.43 1.74-2.43 2.9 0 1.16 0 7.2 0 9.13s0.31 4.3 2.7 3.9c2.43-0.43 5.31-2.17 6.52-3.48 1.22-1.3 4.7-6.38 4.7-6.38v5.8L95.51 76.11c0 0 1.22-2.03 1.37-4.2s0-23.91 0-25.51C96.82 44.8 95 43.1 94.4 43.05L94.4 43.05z"/><path fill="#FFFFFF" stroke="#FFFFFF" stroke-width="0.3" d="M35.14 135.57c0 0 1.67-2.32 1.36-3.62 -0.3-1.3-1.67-5.22-6.22-4.64 -4.55 0.58-6.98 3.04-6.82 6.09 0.15 3 2.9 6.2 8.3 10.3 5.46 4.1 8.3 6.7 8.3 13.91 0 7.25-5.46 13.77-12.59 13.19 -7.13-0.58-10.31-4.2-9.86-7.83 0.46-3.62 1.52-5.51 5.31-5.65 3.79-0.15 3.9 2.3 3.9 2.32 0 0.02-5.16-0.14-4.7 3.9 0.46 4.1 3.6 4.3 5.3 4.35 1.7 0.05 8.49-1.88 8.65-8.99 0.16-7.11-7.43-10.87-10.62-13.48 -3.19-2.61-6.83-5.94-6.22-11.45 0.61-5.51 5.31-9.13 9.86-9.27 4.55-0.15 8.3 2 8.3 2.03l2.58-2.03 1.97 0.29c0 0-2.58 1.3-2.73 5.51 -0.15 4.2 0.3 7 0.3 6.96s-1.97-1.31-1.97-2.17c0 0-0.61 0.15-1.36 0.29 -0.58 0.13-1.07 0.03-1.07 0h0.03V135.57z"/><path fill="#FFFFFF" stroke="#FFFFFF" stroke-width="0.3" d="M45.6 155.42c0.3-1.59 7.13-34.35 8.04-36.81 0.91-2.46 3.03-3.33 3.03-3.33s0 0.9 0 1.88c0 1 0.2 2.8 0.6 4.64 0.46 1.9 6.8 25.9 7.4 27.4s1.52 1.3 1.5 1.31l-7.73 4.64c0.61-0.72 1.21-3.77 1.21-4.64 0-0.87-0.91-4.93-1.06-5.8 -0.15-0.87-0.46-0.87-1.06-0.58 -0.61 0.29-5.92 2.9-6.52 3.19 -0.61 0.29-0.3 0.58-0.76 1.6 -0.45 1.01-1.37 7.39-1.52 8.41 -0.15 1 1.8 1.7 1.8 1.74l-7.89 4.3c2.05-4.76 2.66-6.36 2.96-7.94l0 0V155.42zM52.13 143.98c0.61-0.29 4.55-2.03 5.01-2.46 0.46-0.43 0.61-0.72 0.61-1.59 0-0.87-1.67-7.1-2.43-9.42 -0.76-2.32-1.36-0.29-1.52 0.6 -0.15 0.87-2.43 11.31-2.43 11.31 -0.45 1.4 0.13 1.9 0.73 1.57h0.03V143.98z"/><path fill="#FFFFFF" stroke="#FFFFFF" stroke-width="0.3" d="M66.23 111.22l8.8-4.35c0 0-1.67 2.9-1.82 4.5 -0.15 1.6 0 28.8 0 29.86 0 1 1.2 2.8 2.7 2.03 1.5-0.77 2.73-1.59 3.34-3.62 0.61-2.03 0.61-6.96 3.79-8.55 0 0-1.06 4.35-1.21 5.51 -0.15 1.2 0.3 5.5 0.3 5.51l-13.8 7.25c0 0 0.46-1.01 0.46-2.03 0-1.01 0-31.89 0-33.48 0.03-1.63-2.58-2.63-2.58-2.62h0.02V111.22z"/><path fill="#FFFFFF" stroke="#FFFFFF" stroke-width="0.3" d="M79.13 104.7l9.1-4.64c0 0-1.06 2.03-1.21 3.6 -0.15 1.57 3.64 18.4 3.6 18.41 0.3 1.2 1.2 0.9 1.67-0.29 0.46-1.16 3.94-22.03 4.1-23.04 0.15-1.01-1.67-2.03-1.67-2.03l8.19-4.49c0 0-1.06 1.16-1.82 3.33 -0.76 2.17-9.1 39.57-9.56 40.6 -0.45 1.02-1.06 2.32-1.06 2.32s-0.76-4.35-1.36-7.1c-0.61-2.75-5.92-23.19-6.22-24.35 -0.26-1.11-3.18-2.41-3.78-2.31h0.02V104.7z"/><path fill="#FFFFFF" stroke="#FFFFFF" stroke-width="0.3" d="M100.21 126.15c0.3-1.59 7.13-34.35 8.04-36.81s3.03-3.33 3.03-3.33 0 0.9 0 1.89c0 1 0.2 2.8 0.6 4.64 0.46 1.9 6.8 25.9 7.4 27.4 0.6 1.4 1.5 1.3 1.5 1.31l-7.74 4.64c0.61-0.73 1.21-3.77 1.21-4.64s-0.91-4.93-1.06-5.8c-0.15-0.87-0.45-0.87-1.06-0.58s-5.92 2.9-6.52 3.19c-0.61 0.29-0.3 0.58-0.76 1.6 -0.45 1.01-1.36 7.39-1.52 8.41 -0.15 1 1.8 1.7 1.8 1.74l-7.89 4.3c2.05-4.78 2.65-6.38 2.95-7.94h0.02V126.15zM106.73 114.7c0.61-0.29 4.55-2.03 5-2.46 0.46-0.43 0.61-0.72 0.61-1.59 0-0.87-1.67-7.1-2.43-9.42s-1.36-0.29-1.52 0.58c-0.15 0.87-2.43 11.31-2.43 11.3 -0.45 1.5 0.13 1.9 0.73 1.6h0.04V114.7z"/><path fill="#FFFFFF" stroke="#FFFFFF" stroke-width="0.3" d="M137.37 74.26l7.89-4.35c0 0-1.17 2.03-1.36 4.1 -0.15 1.6 0 30 0 31.6 0 1.4 1.5 2.8 1.5 2.75l-7.13 4.06c0 0 1.22-2.44 1.22-4.64 0-2.46 0-28.26 0-30.58 0.02-2.4-2.08-2.9-2.08-2.94H137.37z"/><path fill="#FFFFFF" stroke="#FFFFFF" stroke-width="0.3" d="M166.95 80.35c0.46 16.52-6.98 22.47-10.46 22.9 -3.49 0.44-8.8-2.32-8.95-18.41 -0.15-16.09 6.99-21.28 11.53-21.59 2.13-0.15 7.44 0.55 7.84 17.1H166.95zM158.31 65.71c-2.43 0-5.77 4.93-6.22 17.97 -0.45 13.2 1.8 17.1 4.7 16.96 2.88-0.14 5.61-4.64 6.07-18.41 0.46-13.77-2.13-16.53-4.56-16.52H158.31z"/><path fill="#FFFFFF" stroke="#FFFFFF" stroke-width="0.3" d="M167.71 57.74c0 0 5.01-2.46 5.61-2.75 0.61-0.29 0.6 0.1 0.9 0.73 0.31 0.6 5.5 13.6 5.8 14.35 0.3 0.7 1.7 1.9 1.82-0.29 0.15-2.17 0.3-10.29 0.91-13.62s0.3-6.23-0.61-7.68c-0.91-1.45-2.12-2.46-2.12-2.46s1.52-2.61 3.79-1.88c2.28 0.7 2.9 2.2 2.7 6.09 -0.15 3.91-1.52 10.87-1.97 17.68 -0.45 6.81-0.61 10.7 0 13.8 0.6 3 1.2 5.9 2.1 7.25 0.91 1.31-1.52 1.01-2.73-0.87 -1.21-1.88-7.43-16.23-7.89-17.39 -0.46-1.16-2.12-3.05-2.12-0.29 0 1.7 0 18.3 0 19.28s1.36 2.3 1.4 2.32l-5.01 3c0 0 0.61-1 0.76-3.48 0.15-2.46 0-28.55 0-28.55 -0.31-5.64-3.35-5.24-3.35-5.2h0.01V57.74z"/><path fill="#FFFFFF" stroke="#FFFFFF" stroke-width="0.3" d="M81.4 193.98c0.3-1.59 8.49-38.55 9.4-41.02 0.91-2.46 3.03-3.33 3.03-3.33s0 0.9 0 1.88c0 1 0.2 2.8 0.6 4.64 0.46 1.9 6.8 29.6 7.4 31 0.6 1.4 1.52 1.3 1.5 1.31l-7.73 4.64c0.61-0.72 1.21-3.77 1.21-4.64s-0.91-4.93-1.06-5.8 -0.46-0.87-1.06-0.58c-0.61 0.29-7.28 3.48-7.89 3.77 -0.61 0.29-0.3 0.58-0.76 1.6 -0.45 1.01-1.36 7.39-1.52 8.4 -0.15 1 1.8 1.7 1.8 1.74l-7.89 4.3C80.49 197.2 81.1 195.6 81.4 193.98zM87.92 182.53c0.61-0.29 5.92-2.61 6.37-3.04s0.61-0.72 0.61-1.59c0-0.87-1.67-10.73-2.43-13.04 -0.76-2.32-1.37-0.29-1.52 0.6 -0.15 0.87-3.79 15.51-3.79 15.51 -0.45 1.43 0.14 1.83 0.74 1.56H87.92z"/><path fill="#FFFFFF" stroke="#FFFFFF" stroke-width="0.3" d="M105.22 148.03c0 0 5.92-4.06 11.07-4.2 5.15-0.14 9.86-0.29 9.9 10.15 0 6.23-7.43 11.45-7.43 11.45s0.01 4.9 2.7 10.29c2.38 4.8 3.5 7.1 7.7 7.8 1.22 0.2 2.9 0 2.9 0.05 0 0.05-3.33 3.17-7.76 0.24 -4.05-2.68-6.83-7.54-8.49-12.47 -1.67-4.93-2.12-6.23-3.64-5.94 0 0 0 13.6 0 15.07s1.21 2.5 1.2 2.46l-6.98 4.06c0 0 1.06-1.88 1.21-4.2 0.15-2.32 0-30 0-32.18 0-2.18-2.38-2.61-2.39-2.58H105.22zM115.98 164.41c3.34-1.02 5.46-5.8 5.31-11.3 -0.16-5.8-2.27-6.67-5.16-6.81s-3.94 1.89-3.94 2.9c0 1 0 14.8 0 14.8s1.75 1 3.81 0.41H115.98z"/><path fill="#FFFFFF" stroke="#FFFFFF" stroke-width="0.3" d="M127.82 136.87l5.76-2.9c0 0 2.6 4.8 4.2 7.7 1.67 2.9 3 4.9 3 4.93 0 0.03 3.79-10.87 5.46-15.36s0.91-4.35 2.73-5.36c1.82-1.01 5.01-2.61 5.01-2.61s-2.58 2.59-2.58 4.93c0 1.3 0 30.4 0 30.44 0.15 2 1.8 2.5 1.8 2.47l-7.13 4.49c0 0 1.06-2.32 1.21-4.64 0.15-2.32 0-18.55 0-20.44 0-1.89-0.91-0.72-1.67 1.6 -0.76 2.32-4.7 12.61-4.7 12.61s-5.61-8.69-6.07-9.42c-0.45-0.72-0.91-0.72-0.91 2.75 0 3.48 0 21 0 21.02 0 1.6 1.4 2.2 1.4 2.17l-6.82 3.77c0 0 1.82-2.46 1.82-4.2s0-30 0-31.45 -2.51-2.46-2.53-2.48h0.02V136.87z"/><path fill="#FFFFFF" stroke="#FFFFFF" stroke-width="0.3" d="M156.18 122.33l8.34-4.64c0 0-1.67 2.32-1.67 4.2 0 1.9 5 11 5 11.01s0.6 1 1.52-0.72c0.91-1.74 6.98-17.1 6.98-17.1 0.76-1.88-0.91-5.65-2.12-5.65 -1.21 0-1.97 0-1.97 0s1.06-3.04 4.1-2.17c3.03 0.9 4.7 2.5 3.8 6.1 -0.91 3.62-8.8 21.31-9.4 22.9 -0.61 1.6-0.76 0.87-0.91 3.48 -0.15 2.6 0 10.4 0 10.4 0 1.2 1.5 1.3 1.5 1.31l-8.34 4.78c0 0 2.73-3.62 2.88-5.8 0.15-2.17 0-9.27 0-11.3s-5.76-12.75-6.83-14.64c-1.05-1.88-2.85-2.18-2.85-2.15h-0.03V122.33z"/><path fill="#FFFFFF" stroke="#FFFFFF" stroke-width="0.3" d="M47.58 61.51l16.84-8.12c0 0 0.3 2.9 0.9 5.6 0.61 2.6 0.6 5.7 0.6 5.73 0 0.03-3.38-8.27-5.31-6.96 -1.06 0.73-1.97 1.45-1.97 2.9 0 1.45 0 28.8 0 28.8s0.15 1.6 0.8 2.47c0.61 0.9 1.2 1.6 1.2 1.59l-7.73 4.06c0 0 0.46-0.87 0.76-2.17 0.3-1.3 0.61-2.32 0.76-3.48 0.15-1.16 0-29.57 0-29.57s-0.1-2.19-1.52-1.45c-1.67 0.87-2.97 5.44-4.63 10.5 -0.38 1.16-2.05 3.91-2.05 3.91L47.58 61.51z"/></g></g><g id="Layer_2"><path fill="#DA251C" d="M105 240c1.44-1.47 5.05-4.71 8.9-7.6 7.66-5.73 18.38-9.4 29.68-13.36 8.83-3.09 17.96-6.48 26.45-10.83 9.98-5.1 17.61-11.09 23.33-18.31 6.86-8.66 11.03-19.06 12.76-31.8 1.94-14.3 0.65-31.76-3.83-51.9 -7.18-32.28-2.43-52.98 0.71-66.69 0.92-4.02 1.79-7.81 2.07-10.92 0.04-0.38 0.06-0.76 0.06-1.13 0-6.68-5.48-12.12-12.21-12.12 -3.36 0-6.89 0.99-9.93 1.8 -1.73 0.46-3.54 0.99-5.39 1.53 -7.66 2.23-17.2 5-27.23 5 -14.22 0-26.93-5.64-38.83-16.85 -2.37-2.23-5.32-5.49-6.53-6.82 -1.22 1.33-4.17 4.59-6.54 6.82C86.57 18.03 73.86 23.67 59.64 23.67c-10.03 0-19.57-2.77-27.23-5 -1.85-0.54-3.66-1.07-5.39-1.53 -3.05-0.81-6.57-1.8-9.93-1.8 -6.73 0-12.21 5.44-12.21 12.12 0 0.38 0.02 0.76 0.05 1.14 0.28 3.1 1.15 6.9 2.07 10.92 3.14 13.7 7.89 34.41 0.71 66.69 -4.48 20.14-5.77 37.6-3.83 51.9 1.73 12.74 5.9 23.15 12.76 31.8 5.72 7.22 13.35 13.21 23.33 18.31 8.5 4.34 17.63 7.74 26.46 10.83 11.3 3.96 22.03 7.63 29.68 13.36C99.95 235.29 103.56 238.53 105 240z"/><path fill="#FFFFFF" d="M105 231.27c-0.87-0.76-3-2.66-4.81-4.03 -8.03-6.11-19.76-10.25-31.58-14.39 -17.38-6.08-35.36-12.57-46.78-27 -6.11-7.71-9.83-17.07-11.4-28.62 -1.83-13.53-0.58-30.22 3.74-49.61 7.5-33.72 2.55-55.29-0.72-69.56 -0.87-3.8-1.69-7.39-1.94-10.06 -0.02-0.18-0.02-0.35-0.02-0.53 0-3.06 2.51-5.55 5.59-5.55 0.87 0 2.48 0.26 3.31 0.41 2.8 0.5 6.35 1.54 10.15 2.65 8.07 2.35 18.11 5.26 29.09 5.26 16 0 30.61-6.39 43.38-18.65 0.67-0.64 1.41-1.36 1.98-1.97 0.57 0.61 1.31 1.33 1.98 1.98 12.77 12.26 27.39 18.65 43.38 18.65 10.98 0 21.02-2.92 29.09-5.26 3.81-1.11 7.36-2.15 10.15-2.65 0.84-0.15 2.44-0.41 3.31-0.41 3.08 0 5.59 2.49 5.59 5.55 0 0.18-0.01 0.35-0.03 0.53 -0.24 2.67-1.06 6.26-1.94 10.06 -3.27 14.28-8.22 35.85-0.72 69.56 4.31 19.39 5.57 36.08 3.74 49.61 -1.56 11.55-5.29 20.91-11.4 28.62 -11.43 14.43-29.4 20.92-46.78 27 -11.82 4.14-23.55 8.28-31.58 14.39C108 228.61 105.88 230.51 105 231.27zM105 226.87c9.24-8.01 21.92-12.45 35.28-17.13 16.94-5.93 34.45-12.26 45.28-25.93 5.73-7.23 9.24-16.07 10.72-27.02 1.78-13.15 0.54-29.45-3.69-48.46 -7.66-34.43-2.61-56.44 0.73-71 0.85-3.68 1.65-7.19 1.87-9.64 0.01-0.07 0.01-0.15 0.01-0.23 0-1.25-1.02-2.26-2.28-2.26l0 0c-3.07 0.18-7.48 1.46-12.53 2.93 -8.27 2.4-18.57 5.4-30.02 5.4 -16.74 0-31.62-6.45-45.36-19.27C91.26 27.07 76.38 33.52 59.64 33.53c-11.46 0-21.75-2.99-30.02-5.4 -5.05-1.47-9.46-2.75-12.53-2.93l0 0c-1.26 0-2.28 1.01-2.28 2.26 0 0.08 0 0.15 0.01 0.23 0.22 2.45 1.02 5.95 1.87 9.64 3.34 14.56 8.38 36.57 0.72 71 -4.23 19.01-5.47 35.31-3.69 48.46 1.48 10.95 4.99 19.79 10.72 27.02 10.83 13.68 28.34 20 45.28 25.93C83.08 214.42 95.76 218.86 105 226.87zM91.99 76.9c0 2.58 1.32 3.44 1.58 3.61l-7.21 3.26c0.25-0.4 1.58-2.45 1.58-5.03V65.59l-9.36 4.22v13.13c0 2.58 1.32 3.44 1.58 3.61l-7.21 3.26c0.26-0.4 1.58-2.45 1.58-5.03V56.4c0-2.58-1.32-3.43-1.58-3.61l7.21-3.24c-0.25 0.4-1.58 2.45-1.58 5.03V66.4l9.36-4.21V50.36c0-2.58-1.32-3.44-1.58-3.61l7.21-3.25c-0.26 0.4-1.58 2.45-1.58 5.03V76.9M114.36 49.74c-1.95 4.44-7.2 1.02-12.13 7.5V42.12l1.82-0.82c5.38-2.42 7.99 1.62 8.49 2.55l-1.53-8.19L96.6 42.14c0.26 0.17 1.58 1.03 1.58 3.61v28.37c0 2.58-1.32 4.63-1.58 5.03l16.99-7.65 0.94-9.69c-0.49 1.42-3.41 8.32-8.79 10.74l-3.52 1.58V59.97C106.16 54.89 114.61 58.47 114.36 49.74M59.13 91.26c0 2.85-1.39 5.07-1.66 5.51l7.38-3.32c-0.27-0.19-1.47-1.31-1.47-4.15l-0.01-33.32c6.07-2.94 7.42 3.8 7.94 4.84l-1.37-10.61 -18.3 8.24 -0.71 11.23c0.52-1.5 2.61-9.58 8.18-11.79L59.13 91.26zM151.46 167.46v-31.51c0-2.82 1.45-5.05 1.72-5.49l-6.07 2.74 0 0 -6.43 23.16 -7.54-16.88 -6.19 2.79c0.59 0 3.69 1.42 3.69 4.5v30.07c0 2.82-1.44 5.06-1.72 5.49l6.49-2.93c-0.28-0.18-1.73-1.12-1.73-3.94v-23.29l6.85 14.68 6.52-23.21v25.81c0 2.82-1.45 5.05-1.72 5.49l7.87-3.54C152.91 171.21 151.46 170.28 151.46 167.46M115.9 170.14c6.26 0.48 10.42 19.08 19.44 16.06 -14.59 9.67-16.64-17.28-24.08-14.14v13.49c0 2.82 1.44 3.75 1.73 3.94l-7.88 3.57c0.28-0.44 1.73-2.68 1.73-5.49V156.05c0-2.81-1.44-3.75-1.73-3.94l7.74-3.48c7.6-3.42 11.23 3.68 11.23 8.42C124.08 160.73 123.08 167.73 115.9 170.14M111.26 169.37c6.4-2.13 7.78-5.9 7.78-11.67 0-4.91-2.26-7.86-5.68-6.59l-2.1 0.94V169.37M96.09 197.1c0.23-0.45 1.44-2.74 0.9-5.6l-1.2-5.5 -8.7 3.92 -1.17 6.57c-0.52 3.34 0.7 4.54 0.93 4.78l-6.39 2.87c0.36-0.5 1.71-2.86 2.24-6.2l7.19-40c0.45-2.26 0.77-4.05 3.56-5.27l7.86 36.89c0.72 3 2.14 3.89 2.5 4.07L96.09 197.1zM94.98 182.34l-3.61-16.19 -3.51 19.4L94.98 182.34zM168.3 146.88c7.15-17.73 11.05-30.55 5.27-31.12 -1-0.1-2.7 0.51-3.38 3.35 3.53-1.23 2.96 7.66-3.33 24.02l-4.99-11.86c-0.76-2.47 0.48-4.67 0.86-5.1l-7.92 3.57c0.34 0.16 1.6 1.15 2.6 3.55l6.48 15.91v12.7c0 2.82-1.44 5.06-1.73 5.49l7.88-3.53c-0.28-0.19-1.73-1.12-1.73-3.94v-13.04H168.3zM138.73 82.79c0-2.82 1.45-5.05 1.73-5.49l-7.88 3.55c0.28 0.19 1.73 1.12 1.73 3.94v31.55c0 2.82-1.45 5.04-1.73 5.48l7.88-3.55c-0.28-0.19-1.73-1.12-1.73-3.94V82.79zM153.31 71.24c7.01-3.24 9.23 5.08 9.23 16.61 0 11.53-2.22 21.9-9.23 25.14 -7 3.24-9.23-5.08-9.23-16.61C144.08 84.85 146.31 74.47 153.31 71.24M153.29 110.1c3.4-1.51 4.48-10 4.48-19.88 0-9.88-1.08-17.41-4.48-15.9 -3.4 1.51-4.48 10-4.48 19.88C148.81 104.07 149.89 111.6 153.29 110.1M119.09 123.17c0 2.82-1.44 5.06-1.72 5.49l7.88-3.55c-0.28-0.19-1.73-1.12-1.73-3.94l-0.01-33.47c5.49-2.81 7.15 2.48 7.68 3.5l-1.66-8.98 -17.09 7.71 -0.76 10.24c0.54-1.5 2.64-8.33 7.42-10.47L119.09 123.17zM87.68 143.61l7.35-41.17c0.5-3.04 1.79-5.21 2.13-5.67l-6.27 2.83c0.22 0.21 1.39 1.28 0.89 4.31l-4.43 28.21 -4.81-24.05c-0.52-2.58 0.64-4.68 0.86-5.1l-7.48 3.37c0.34 0.16 1.86 1.06 2.38 3.65l4.56 21.89C83.24 133.97 84.73 143.96 87.68 143.61M55.69 156.43c0.23-0.41 1.38-2.52 0.86-5.1l-1.07-5.14 -7.51 3.36 -1.06 6.12c-0.5 3.04 0.66 4.1 0.89 4.32l-6.02 2.72c0.34-0.46 1.63-2.63 2.13-5.67l6.46-37.67c0.33-1.93 1.35-3.25 3.22-3.88l7.07 34.02c0.52 2.58 2.04 3.48 2.38 3.65L55.69 156.43zM54.78 142.8l-3.11-15.12 -3.02 17.88L54.78 142.8zM107.83 132.97c0.23-0.41 1.38-2.52 0.86-5.1l-1.07-5.14 -7.51 3.36 -1.06 6.12c-0.5 3.04 0.66 4.1 0.89 4.31l-6.02 2.72c0.34-0.46 1.63-2.63 2.13-5.67l6.46-37.67c0.33-1.93 1.35-3.25 3.22-3.88l7.07 34.02c0.52 2.58 2.04 3.48 2.38 3.64L107.83 132.97zM106.92 119.33l-3.11-15.12 -3.02 17.88L106.92 119.33zM80.91 135.28c-4.15 0.62-2.57 7.82-10.63 11.86V113.63c0-2.82 1.45-5.05 1.73-5.49l-7.88 3.52c0.28 0.19 1.73 1.13 1.73 3.94v31.54c0 2.82-1.45 5.06-1.73 5.49l14.73-6.63C78.51 143.33 78.96 138.77 80.91 135.28M30.85 121.85c4.31-0.05 6.93 5.5 2.99 8.46 1.54 0.29 2.89-0.51 3.34-1.25 0.28 1.17 1.73 2.64 2.5 2.61 -0.55-1.42-2.38-7.63 1.62-13.17 -1.92 0.07-3.74 1.35-4.63 2.83 -2.09-2.32-4.56-2.59-5.88-2.59 -5.8 0-9.35 4.82-9.35 10.66 0 13.66 15.58 17.07 15.58 29.54 0 3.31-2 8.2-6.56 8.41 -5.21 0.25-6.45-3.7-6.45-6.53 0-4.55 2.84-5.7 4.52-6.42 -3.25-0.99-8.71 1.21-8.71 6.78 0 6.88 5.79 9.54 10.4 9.16 6.01-0.49 10.58-5.92 10.58-13.16 0-14.73-15.75-19.82-15.75-28.77C25.03 124.1 27.86 121.88 30.85 121.85M170.44 76.72c3.52 9.16 11.35 20.99 14.3 23.56 -5.3-23.67-0.66-44.3-1.69-47.52 -1.04-3.25-4.61-2.57-5.68 1.01 4.7-1.59 0.65 16.66 2.68 32.65 -0.87-1.06-6.75-12.05-9.61-22.6l-4.42 1.99c0.28 0.19 1.73 1.13 1.73 3.95v31.52c0 2.82-1.45 5.06-1.73 5.51l6.15-2.77c-0.28-0.19-1.73-1.13-1.73-3.95V76.72"/></g></svg>