<svg width="168" height="48" viewBox="0 0 168 48" fill="none" xmlns="http://www.w3.org/2000/svg">
<g id="Main/red">
<path id="logo color" fill-rule="evenodd" clip-rule="evenodd" d="M26.8935 9.72286L30.9876 16.8486C31.4518 17.6564 31.7027 18.5501 31.7415 19.451C36.1247 20.6016 39.1494 23.0455 39.1494 25.8744C39.1494 29.8097 33.2957 33 26.0748 33C18.8537 33 13 29.8097 13 25.8744C13 23.0456 16.0251 20.6024 20.4079 19.4517C20.3619 20.5176 20.6128 21.5934 21.162 22.5491L25.2559 29.675C25.5681 30.2183 25.7838 30.8005 25.9036 31.3977L26.0748 31.0999C27.0881 29.3361 27.0881 27.163 26.0748 25.3994L22.7896 19.6809C21.7865 17.9203 21.7897 15.7561 22.7995 13.9983L22.9705 13.7005C23.0905 14.2976 23.306 14.8799 23.6182 15.4233L28.5312 23.9743C28.8434 24.5178 29.0591 25.1 29.1789 25.6972L29.3501 25.3994C30.3632 23.6356 30.3632 21.4626 29.3501 19.6989L26.0746 13.9981C25.0614 12.2343 25.0614 10.0616 26.0748 8.29779L26.2458 8C26.3656 8.59715 26.5813 9.17943 26.8935 9.72286ZM44.0859 31.618C44.135 30.6061 44.2823 29.9152 44.5523 29.1254C45.9277 29.7672 47.696 30.0877 49.0468 30.0877C51.3308 30.0877 52.6079 29.3475 52.6079 27.8914C52.6079 26.46 51.6747 25.7936 49.3661 24.782L48.1135 24.2391C45.8049 23.2271 44.2332 21.919 44.2332 19.3032C44.2332 16.4899 46.1735 14.6882 50.152 14.6882C51.7483 14.6882 53.2464 14.9104 54.6463 15.4039C54.5726 16.3911 54.4008 17.1562 54.1551 17.8718C52.8289 17.3782 51.2571 17.1562 50.1273 17.1562C47.9908 17.1562 47.0084 17.9953 47.0084 19.3032C47.0084 20.5865 47.9662 21.3268 49.6852 22.0674L51.0116 22.6348C54.1306 23.9675 55.4321 25.3742 55.4321 27.7681C55.4321 30.6061 53.2955 32.5558 49.1204 32.5558C47.1066 32.5558 45.4612 32.2597 44.0859 31.618ZM89.9397 30.1372C90.7254 30.1372 91.4625 29.9891 92.0518 29.7672C91.9782 30.5073 91.8798 31.3466 91.7325 32.062C90.9957 32.3582 90.2099 32.4569 89.4485 32.4569C86.8207 32.4569 85.1506 31.2477 85.1506 28.237V15.2804C85.9857 15.009 87.0171 14.8855 87.8524 14.8855V19.5499H92.1255C92.0764 20.389 92.0027 21.1541 91.8798 21.8697H87.8524V27.9163C87.8524 29.5203 88.6382 30.1372 89.9397 30.1372ZM131.962 14.8855V32.1611H129.482L129.335 30.5815C128.647 31.7415 127.591 32.4569 125.823 32.4569C122.581 32.4569 120.419 30.0877 120.419 25.942C120.419 21.5982 122.728 19.1305 127.272 19.1305C127.984 19.1305 128.647 19.2045 129.285 19.3278V15.2557C130.12 14.9597 131.078 14.8855 131.962 14.8855ZM145.544 26.8795H136.924C137.268 29.076 138.545 30.1371 140.951 30.1371C142.425 30.1371 143.923 29.8163 145.274 29.1993C145.176 29.9151 145.029 30.8527 144.856 31.667C143.628 32.2348 142.327 32.4568 140.878 32.4568C136.359 32.4568 134.173 29.9396 134.173 25.7197C134.173 22.0425 135.868 19.1304 140.166 19.1304C144.021 19.1304 145.692 21.6721 145.692 24.7819C145.692 25.547 145.642 26.1639 145.544 26.8795ZM154.755 21.5489C154.902 21.0306 155 20.0435 155 19.2289C154.411 19.155 153.477 19.1304 152.642 19.1304C151.12 19.1304 149.18 19.4264 148.025 19.8213V32.1609H150.727V21.5981C151.39 21.4996 152.053 21.45 152.716 21.45C153.477 21.45 154.116 21.4747 154.755 21.5489ZM142.966 24.6091H136.875C137.096 22.5115 138.103 21.4008 140.018 21.4008C141.885 21.4008 142.966 22.5855 142.966 24.6091ZM129.285 21.697V29.2979C128.549 29.8657 127.665 30.2361 126.584 30.2361C124.177 30.2361 123.17 28.459 123.17 25.942C123.17 23.1286 124.447 21.4501 127.124 21.4501C127.836 21.4501 128.573 21.549 129.285 21.697ZM118.257 32.1609V23.8687C118.257 20.8825 116.809 19.1304 112.29 19.1304C110.988 19.1304 109.097 19.4017 107.378 19.8213V32.1609H110.079V21.6476C110.816 21.5242 111.578 21.45 112.216 21.45C114.918 21.45 115.556 22.388 115.556 24.3376V32.1609H118.257ZM101.729 29.3475V21.5982C101.164 21.4997 100.55 21.4501 99.7886 21.4501C96.9887 21.4501 95.6872 23.1779 95.6872 25.942C95.6872 28.459 96.6943 30.2361 99.1009 30.2361C100.157 30.2361 101.017 29.8906 101.729 29.3475ZM104.43 32.1609V19.8213C103.006 19.3277 101.557 19.1304 99.7886 19.1304C95.2451 19.1304 92.9366 21.5981 92.9366 25.9419C92.9366 30.0876 95.0978 32.4568 98.3396 32.4568C100.059 32.4568 101.115 31.7661 101.803 30.6802L101.95 32.1609H104.43ZM82.4484 32.1609V23.8687C82.4484 20.8825 80.9996 19.1304 76.4806 19.1304C75.1789 19.1304 73.2879 19.4017 71.5688 19.8213V32.1609H74.2702V21.6476C75.0071 21.5242 75.7683 21.45 76.407 21.45C79.1084 21.45 79.747 22.388 79.747 24.3376V32.1609H82.4484ZM65.9195 29.3475V21.5982C65.3547 21.4997 64.7408 21.4501 63.9794 21.4501C61.1796 21.4501 59.8781 23.1779 59.8781 25.942C59.8781 28.459 60.885 30.2361 63.2918 30.2361C64.3478 30.2361 65.2074 29.8906 65.9195 29.3475ZM68.6211 32.1609V19.8213C67.1967 19.3277 65.7477 19.1304 63.9794 19.1304C59.4359 19.1304 57.1274 21.5981 57.1274 25.9419C57.1274 30.0876 59.2886 32.4568 62.5304 32.4568C64.2494 32.4568 65.3056 31.7661 65.9934 30.6802L66.1407 32.1609H68.6211Z" fill="#EC0000"/>
</g>
</svg>
