<svg width="137" height="24" viewBox="0 0 183 32" fill="none" xmlns="http://www.w3.org/2000/svg">
	<path d="M24.107 14.6595C24.0577 13.506 23.7351 12.3614 23.1371 11.3289L17.8714 2.2062C17.4704 1.50962 17.1927 0.766011 17.0381 0L16.8186 0.380765C15.5151 2.63848 15.5151 5.42031 16.8186 7.67803L21.0317 14.9753C22.3353 17.233 22.3353 20.0148 21.0317 22.2726L20.8122 22.6533C20.6577 21.8895 20.3799 21.1437 19.979 20.4471L16.1221 13.7658L13.6583 9.50122C13.2574 8.80465 12.9796 8.06103 12.8251 7.29502L12.6056 7.67579C11.3065 9.92679 11.302 12.6974 12.5921 14.9507L16.8186 22.2703C18.1222 24.528 18.1222 27.3099 16.8186 29.5676L16.5991 29.9483C16.4446 29.1846 16.1669 28.4387 15.7659 27.7421L10.5002 18.6194C9.79464 17.3965 9.47211 16.019 9.53034 14.655C3.89277 16.1288 0 19.2555 0 22.8773C0 27.9146 7.5302 32 16.8186 32C26.1071 32 33.6373 27.9168 33.6373 22.8773C33.6373 19.26 29.7468 16.1333 24.107 14.6595ZM39.9871 30.235C40.0498 28.9404 40.2402 28.0557 40.5874 27.0433C42.3568 27.8653 44.6302 28.2752 46.3683 28.2752C49.3069 28.2752 50.9487 27.3278 50.9487 25.4643C50.9487 23.6321 49.7482 22.7787 46.7782 21.4841L45.1678 20.7898C42.1978 19.4952 40.1753 17.8198 40.1753 14.4713C40.1753 10.8697 42.6704 8.56275 47.7883 8.56275C49.8422 8.56275 51.7685 8.8472 53.5693 9.47883C53.4752 10.7421 53.2534 11.7231 52.9376 12.6392C51.2309 12.0076 49.2106 11.7231 47.757 11.7231C45.0088 11.7231 43.7455 12.7982 43.7455 14.4713C43.7455 16.1154 44.9774 17.0628 47.1881 18.0102L48.8948 18.7359C52.9063 20.4426 54.5816 22.2434 54.5816 25.3075C54.5816 28.9404 51.8334 31.4356 46.4624 31.4356C43.8732 31.4356 41.7566 31.057 39.9871 30.235ZM71.5504 15.1343V30.9316H68.3587L68.1683 29.0367C67.2835 30.4277 65.924 31.3101 63.7133 31.3101C59.5428 31.3101 56.7632 28.2775 56.7632 22.9691C56.7632 17.4077 59.7332 14.2496 65.5768 14.2496C67.8525 14.2496 69.7182 14.5027 71.5504 15.1343ZM68.0742 27.3278V17.4077C67.3485 17.2823 66.5579 17.2173 65.5791 17.2173C61.9775 17.2173 60.3021 19.428 60.3021 22.9669C60.3021 26.19 61.5967 28.4634 64.6943 28.4634C66.0517 28.4656 67.1581 28.0244 68.0742 27.3278ZM89.3366 20.315V30.9294H85.8604V20.9152C85.8604 18.4201 85.0384 17.2196 81.5645 17.2196C80.7425 17.2196 79.7637 17.3136 78.8163 17.4727V30.9316H75.3401V15.1343C77.5508 14.5968 79.9832 14.2496 81.6586 14.2496C87.4731 14.2496 89.3366 16.4916 89.3366 20.315ZM98.9745 28.3402C99.9846 28.3402 100.934 28.1498 101.691 27.8653C101.597 28.8128 101.47 29.8879 101.281 30.8039C100.334 31.1825 99.3239 31.3101 98.3428 31.3101C94.963 31.3101 92.815 29.7624 92.815 25.9077V9.32204C93.8901 8.97487 95.2161 8.81585 96.2912 8.81585V14.7872H101.788C101.725 15.8623 101.631 16.841 101.472 17.7571H96.2912V25.4979C96.2889 27.5495 97.2991 28.3402 98.9745 28.3402ZM117.614 15.1343V30.9316H114.422L114.232 29.0367C113.347 30.4277 111.988 31.3101 109.777 31.3101C105.606 31.3101 102.827 28.2775 102.827 22.9691C102.827 17.4077 105.797 14.2496 111.641 14.2496C113.918 14.2496 115.782 14.5027 117.614 15.1343ZM114.138 27.3278V17.4077C113.412 17.2823 112.622 17.2173 111.643 17.2173C108.041 17.2173 106.366 19.428 106.366 22.9669C106.366 26.19 107.66 28.4634 110.758 28.4634C112.118 28.4656 113.224 28.0244 114.138 27.3278ZM135.403 20.315V30.9294H131.926V20.9152C131.926 18.4201 131.104 17.2196 127.63 17.2196C126.808 17.2196 125.83 17.3136 124.882 17.4727V30.9316H121.406V15.1343C123.617 14.5968 126.049 14.2496 127.725 14.2496C133.537 14.2496 135.403 16.4916 135.403 20.315ZM153.032 8.81585V30.9316H149.84L149.65 28.9091C148.765 30.3941 147.406 31.3101 145.132 31.3101C140.962 31.3101 138.182 28.2775 138.182 22.9691C138.182 17.4077 141.152 14.2496 146.996 14.2496C147.912 14.2496 148.765 14.3437 149.587 14.5027V9.28844C150.662 8.90992 151.894 8.81585 153.032 8.81585ZM149.587 27.2651V17.5354C148.671 17.345 147.724 17.2196 146.808 17.2196C143.365 17.2196 141.721 19.3675 141.721 22.9691C141.721 26.1922 143.016 28.4656 146.113 28.4656C147.502 28.4656 148.64 27.9908 149.587 27.2651ZM170.502 24.1697H159.413C159.854 26.9806 161.498 28.3402 164.594 28.3402C166.489 28.3402 168.417 27.9303 170.155 27.1396C170.03 28.0557 169.839 29.2562 169.618 30.2978C168.039 31.0234 166.363 31.3079 164.5 31.3079C158.687 31.3079 155.874 28.0848 155.874 22.6824C155.874 17.9744 158.054 14.2474 163.584 14.2474C168.545 14.2474 170.693 17.5018 170.693 21.4819C170.693 22.4629 170.63 23.2536 170.502 24.1697ZM159.35 21.2624H167.185C167.185 18.671 165.794 17.1546 163.393 17.1546C160.93 17.1546 159.635 18.5769 159.35 21.2624ZM182.667 14.375C182.667 15.4188 182.541 16.682 182.351 17.345C181.529 17.2509 180.709 17.2196 179.728 17.2196C178.875 17.2196 178.021 17.2823 177.17 17.41V30.9316H173.694V15.1343C175.179 14.6281 177.674 14.2496 179.634 14.2496C180.709 14.2496 181.91 14.281 182.667 14.375Z" fill="#EC0000" />
</svg>
