<svg xmlns="http://www.w3.org/2000/svg" xmlns:xlink="http://www.w3.org/1999/xlink" id="Capa_1" x="0px" y="0px" width="673.8px" height="159.671px" viewBox="0 0 673.8 159.671" xml:space="preserve"><g>	<defs>		<rect id="SVGID_1_" width="673.8" height="159.671"></rect>	</defs>	<clipPath id="SVGID_2_">		<use xlink:href="#SVGID_1_"></use>	</clipPath>	<path clip-path="url(#SVGID_2_)" d="M443.305,139.101h-26.233V93.646c0-8.49-15.533-5.621-15.533-5.621v56.145  c0,7.284,7.376,9.999,24.661,8.154C444.943,150.324,444.082,144.149,443.305,139.101 M375.475,88.028v58.479  c0,8.492,15.534,5.623,15.534,5.623v-0.002V93.65C391.009,85.159,375.475,88.028,375.475,88.028 M368.985,87.825h-41.783  c-9.701,0-7.177,13.979-7.177,13.979h0.002h16.699v44.703c0,8.492,15.588,5.623,15.588,5.623v-0.002v-50.324h9.494  C372.092,101.804,368.985,87.825,368.985,87.825 M510.853,125.427l6.497-17.361l6.126,17.361H510.853z M526.063,91.632  c-3.049-7.63-16.029-3.602-16.029-3.602l-23.564,58.599c-3.045,8.259,14.388,5.501,14.388,5.501l4.787-12.785h22.741l2.531,7.178  c3.425,8.965,18.668,5.607,18.668,5.607L526.063,91.632z M647.689,125.427l-6.126-17.361l-6.495,17.361H647.689z M673.8,152.13  c0,0-15.246,3.357-18.668-5.607l-2.53-7.178h-22.744l-4.784,12.785c0,0-17.437,2.758-14.389-5.501l23.564-58.599  c0,0,12.979-4.028,16.031,3.602L673.8,152.13z M217.626,125.427l6.496-17.361l6.126,17.361H217.626z M232.836,91.632  c-3.05-7.63-16.03-3.602-16.03-3.602l-23.564,58.599c-3.048,8.259,14.39,5.501,14.39,5.501l4.784-12.785h22.742l2.53,7.178  c3.425,8.965,18.668,5.607,18.668,5.607L232.836,91.632z M591.436,88.028v39.042l-20.718-33.42c-2.083-3.36-5.497-4.938-8.86-5.622  c-1.527-0.354-3.191-0.47-4.725-0.464c-3.104-0.019-5.433,0.464-5.433,0.464v58.479c0,8.492,15.531,5.623,15.531,5.623v-0.002  v-39.042l20.721,33.421c2.083,3.36,5.493,4.938,8.857,5.623c1.529,0.354,3.191,0.471,4.729,0.465  c3.104,0.02,5.431-0.465,5.431-0.465v-0.002V93.65C606.969,85.159,591.436,88.028,591.436,88.028 M298.98,88.028v39.042  l-20.718-33.42c-2.083-3.36-5.497-4.938-8.86-5.622c-1.53-0.354-3.192-0.47-4.727-0.464c-3.105-0.019-5.431,0.464-5.431,0.464  v58.479c0,8.492,15.532,5.623,15.532,5.623v-0.002v-39.042l20.72,33.421c2.081,3.36,5.493,4.938,8.858,5.623  c1.527,0.354,3.191,0.471,4.728,0.465c3.102,0.02,5.431-0.465,5.431-0.465v-0.002V93.65  C314.513,85.159,298.98,88.028,298.98,88.028 M140.002,148.033c0,0,1.133-11.799,11.756-10.008  c11.785,1.986,25.736,3.724,25.294-4.02c-0.465-8.136-34.123-7.507-34.331-29.108c-0.27-28.21,48.54-14.337,48.54-14.337  s0.318,11.844-10.009,11.157c-7.897-0.524-22.628-2.96-23.003,2.911c-0.477,7.444,35.273,8.491,34.331,29.017  C191.087,166.188,140.002,148.033,140.002,148.033 M485.145,139.131l-22.218-0.072v-17.812V93.64  c0-8.487-15.543-5.614-15.543-5.614v56.146c0,6.001,5.115,9.816,20.65,8.155C486.789,150.33,485.921,144.171,485.145,139.131"></path></g><g>	<defs>		<path id="SVGID_3_" d="M86.574,0c-0.926,0.001-1.717,0.008-2.304,0.019c-5.423,0-14.11,0.849-15.216,0.981   C63.1,1.709,61.583,1.982,54.895,3.4C44.68,5.564,29.723,11.44,21.028,19.207c-3.845,3.18-7.192,7.245-8.324,8.763   c-0.8,1.071-2.026,3.903-2.306,5.244c-0.43,1.612-0.38,3.732-0.377,3.871h0.007c0.319-0.353,12.511-13.528,48.655-12.275   c0,0,12.215-3.603,33.875-5.35c21.691-1.75,45.543-1.592,51.245-1.544c3.033,0.028,7.931,0.071,11.658,0.035   c0.923-0.008,1.731-0.004,2.424,0.002c1.995,0.015,3.03,0.03,3.09-0.291c0.043-0.235-0.015-0.871-1.797-1.906   c-4.959-2.884-14.024-6.536-22.234-8.834c-6.178-1.939-16.847-3.941-17.785-4.101c-9.46-1.617-17.479-2.247-21.931-2.543   C94.094,0.07,90.084,0.005,87.15,0H86.574z"></path>	</defs>	<clipPath id="SVGID_4_">		<use xlink:href="#SVGID_3_"></use>	</clipPath>			<radialGradient id="SVGID_5_" cx="-84" cy="380.6709" r="1" gradientTransform="matrix(235.989 0 0 235.989 20041.5742 -89832.0859)" gradientUnits="userSpaceOnUse">		<stop offset="0" style="stop-color:#DD006D"></stop>		<stop offset="0.4551" style="stop-color:#DD006D"></stop>		<stop offset="0.5167" style="stop-color:#D8006C"></stop>		<stop offset="0.5964" style="stop-color:#CC0068"></stop>		<stop offset="0.6859" style="stop-color:#B80061"></stop>		<stop offset="0.7827" style="stop-color:#9C0056"></stop>		<stop offset="0.8842" style="stop-color:#790045"></stop>		<stop offset="0.8989" style="stop-color:#740042"></stop>		<stop offset="1" style="stop-color:#740042"></stop>	</radialGradient>	<rect x="9.968" clip-path="url(#SVGID_4_)" fill="url(#SVGID_5_)" width="151.05" height="37.085"></rect></g><g>	<defs>		<path id="SVGID_6_" d="M10.094,37.217c0,0-1.588-0.341-0.964,4.254c0.623,4.596,14.523,24.951,14.523,24.951   c23.294-14.455,80.274-19.845,91.234-21.649c10.767-1.827,8.952-11.845-38.531-18.562c-8.059-1.049-15.223-1.49-21.58-1.49   C20.952,24.722,10.094,37.217,10.094,37.217"></path>	</defs>	<clipPath id="SVGID_7_">		<use xlink:href="#SVGID_6_"></use>	</clipPath>			<radialGradient id="SVGID_8_" cx="-84" cy="380.6709" r="1" gradientTransform="matrix(267.4659 0 0 267.4659 22711.6348 -101819.5547)" gradientUnits="userSpaceOnUse">		<stop offset="0" style="stop-color:#FFCC00"></stop>		<stop offset="0.4551" style="stop-color:#FFCC00"></stop>		<stop offset="0.5197" style="stop-color:#FBC800"></stop>		<stop offset="0.6049" style="stop-color:#EDBE00"></stop>		<stop offset="0.7016" style="stop-color:#D8AC00"></stop>		<stop offset="0.8059" style="stop-color:#B99300"></stop>		<stop offset="0.8989" style="stop-color:#987900"></stop>		<stop offset="1" style="stop-color:#987900"></stop>	</radialGradient>	<rect x="8.506" y="24.721" clip-path="url(#SVGID_7_)" fill="url(#SVGID_8_)" width="117.148" height="41.701"></rect></g><g>	<defs>		<path id="SVGID_9_" d="M97.355,34.39C49.573,36.299,22.789,58.384,23.45,59.001c0.705,0.486,39.109,27.821,48.412,22.602   c9.305-5.22,34.882-10.711,55.259-11.937c19.319-1.161,43.091-5.939,49.988-13.161c4.729-4.951-0.486-13.048-31.899-18.413   c-16.533-2.48-20.909-2.804-32.319-3.598c-0.759-0.04-1.513-0.074-2.263-0.104H97.355z"></path>	</defs>	<clipPath id="SVGID_10_">		<use xlink:href="#SVGID_9_"></use>	</clipPath>			<radialGradient id="SVGID_11_" cx="-84" cy="380.6709" r="1" gradientTransform="matrix(235.987 0 0 235.987 20041.4121 -89831.3516)" gradientUnits="userSpaceOnUse">		<stop offset="0" style="stop-color:#86BD40"></stop>		<stop offset="0.4551" style="stop-color:#86BD40"></stop>		<stop offset="0.5191" style="stop-color:#7DB33E"></stop>		<stop offset="0.6491" style="stop-color:#679738"></stop>		<stop offset="0.8318" style="stop-color:#406829"></stop>		<stop offset="0.8989" style="stop-color:#2F5320"></stop>		<stop offset="1" style="stop-color:#2F5320"></stop>	</radialGradient>	<rect x="22.789" y="34.39" clip-path="url(#SVGID_10_)" fill="url(#SVGID_11_)" width="159.049" height="52.432"></rect></g><g>	<defs>		<path id="SVGID_12_" d="M68.77,77.552l-29.662,25.407l27.911,6.614c11.088-7.294,38.124-9.434,38.124-9.434   c1.75-0.195,38.803-3.112,7.683-17.02c-14.719-5.348-26.104-6.622-33.61-6.622C72.389,76.498,68.77,77.552,68.77,77.552"></path>	</defs>	<clipPath id="SVGID_13_">		<use xlink:href="#SVGID_12_"></use>	</clipPath>			<radialGradient id="SVGID_14_" cx="-84" cy="380.6709" r="1" gradientTransform="matrix(235.9945 0 0 235.9945 20042.0352 -89834.1797)" gradientUnits="userSpaceOnUse">		<stop offset="0" style="stop-color:#009DDF"></stop>		<stop offset="0.4551" style="stop-color:#009DDF"></stop>		<stop offset="0.5127" style="stop-color:#009BDB"></stop>		<stop offset="0.5884" style="stop-color:#0092D0"></stop>		<stop offset="0.6742" style="stop-color:#0085BE"></stop>		<stop offset="0.7667" style="stop-color:#0072A3"></stop>		<stop offset="0.85" style="stop-color:#005C86"></stop>		<stop offset="1" style="stop-color:#005C86"></stop>	</radialGradient>	<rect x="39.108" y="76.498" clip-path="url(#SVGID_13_)" fill="url(#SVGID_14_)" width="104.838" height="33.075"></rect></g><g>	<defs>		<path id="SVGID_15_" d="M9.64,37.472c-0.483,0.66,1.617,11.148,1.617,11.148c17.7-16.85,47.58-23.838,47.58-23.838   c-1.949-0.082-3.826-0.121-5.639-0.121C21.215,24.662,10.142,36.788,9.64,37.472"></path>	</defs>	<clipPath id="SVGID_16_">		<use xlink:href="#SVGID_15_"></use>	</clipPath>			<linearGradient id="SVGID_17_" gradientUnits="userSpaceOnUse" x1="-84" y1="380.6699" x2="-83" y2="380.6699" gradientTransform="matrix(49.2691 0 0 49.2691 4148.1694 -18718.6836)">		<stop offset="0" style="stop-color:#4B0800"></stop>		<stop offset="0.4751" style="stop-color:#6B0E00"></stop>		<stop offset="0.5917" style="stop-color:#720F00"></stop>		<stop offset="0.7833" style="stop-color:#841103"></stop>		<stop offset="0.9503" style="stop-color:#981108"></stop>		<stop offset="0.9594" style="stop-color:#9B1109"></stop>		<stop offset="0.9696" style="stop-color:#A4110B"></stop>		<stop offset="0.9802" style="stop-color:#B3110E"></stop>		<stop offset="0.991" style="stop-color:#C80F12"></stop>		<stop offset="1" style="stop-color:#DE0C15"></stop>	</linearGradient>	<rect x="9.157" y="24.661" clip-path="url(#SVGID_16_)" fill="url(#SVGID_17_)" width="49.68" height="23.959"></rect></g><g>	<defs>		<path id="SVGID_18_" d="M62.343,39.769c-27.765,7.532-39.002,19.147-39.002,19.147l4.096,5.337c0,0,10.754-4.821,23.924-8.364   c15.247-4.564,40.656-8.092,44.623-8.588c5.092-0.638,18.069-1.575,22.466-3.763c7.503-3.734-6.47-9.089-6.47-9.089   s-3.224-0.42-8.963-0.42C94.361,34.03,79.986,34.984,62.343,39.769"></path>	</defs>	<clipPath id="SVGID_19_">		<use xlink:href="#SVGID_18_"></use>	</clipPath>			<linearGradient id="SVGID_20_" gradientUnits="userSpaceOnUse" x1="-83.9995" y1="380.6709" x2="-82.9995" y2="380.6709" gradientTransform="matrix(97.3233 0 0 97.3233 8198.4727 -36998.9883)">		<stop offset="0" style="stop-color:#293907"></stop>		<stop offset="0.144" style="stop-color:#37470E"></stop>		<stop offset="0.4431" style="stop-color:#596918"></stop>		<stop offset="0.5525" style="stop-color:#67761B"></stop>		<stop offset="0.6627" style="stop-color:#6F7F1E"></stop>		<stop offset="0.8867" style="stop-color:#819725"></stop>		<stop offset="1" style="stop-color:#89A429"></stop>	</linearGradient>	<rect x="23.341" y="34.029" clip-path="url(#SVGID_19_)" fill="url(#SVGID_20_)" width="102.612" height="30.224"></rect></g><g>	<defs>		<rect id="SVGID_21_" width="673.8" height="159.671"></rect>	</defs>	<clipPath id="SVGID_22_">		<use xlink:href="#SVGID_21_"></use>	</clipPath>	<path clip-path="url(#SVGID_22_)" fill="#005A2F" d="M66.845,77.942c-0.187-0.128,3.22-0.986,7.911-1.378  c3.149-0.262,6.902-0.258,10.443,0.108c0,0-10.96,3.126-11.503,4.173C73.696,80.846,66.669,78.095,66.845,77.942"></path>	<path clip-path="url(#SVGID_22_)" fill="#0095DB" d="M38.618,137.857c0,0,3.98,1.73,8.689,3.585  c3.423,1.348,7.343,2.792,9.476,3.982c0,0,6.923,3.408,1.946,5.832c-5.196,2.53-12.679,2.044-18.065-0.012  c-1.281-0.442-2.84-1.034-4.474-1.911c-2.091-1.123-4.393-2.498-6.649-4.227c-2.001-1.533-3.956-3.352-5.877-5.418  c-5.934-6.383-10.865-15.471-12.209-18.397c-1.292-2.815-2.058-6.014-2.058-6.014L38.618,137.857z"></path>	<path clip-path="url(#SVGID_22_)" fill="#86BD40" d="M63.449,128.724c0,0,7.54,0.929,11.44,2.335  c1.452,0.522,2.387,1.442,1.967,2.267c-1.442,2.823-12.314,13.735-36.037,5.395c0,0-3.648-1.029-7.432-2.371  c-3.785-1.342-19.883-14.229-22.305-17.717c-2.423-3.487-3.211-5.215-5.006-10.552c-1.911-5.68-4.134-13.73-4.998-21.451  l1.045,0.249L63.449,128.724z"></path>	<path clip-path="url(#SVGID_22_)" fill="#DD006D" d="M12.752,27.88c0,0-1.085,1.369-1.906,3.803  c-0.902,2.674-1.403,6.605,0.571,11.244c3.817,8.965,18.957,22.619,55.31,34.114c4.231,1.251,7.247,2.225,9.39,3.622  c5.123,3.338,4.786,7.148-1.055,11.423c-7.325,5.36-10.988,7.463-21.096,9.273c-16.415,2.94-33.241-2.967-42.305-10.511  c-6.446-5.366-8.894-9.958-10.19-13.313c-1.126-2.914-1.43-5.011-1.43-5.144c-0.022-0.348-0.139-5.229,0.715-12.219  C1.858,51.152,4.702,38.625,12.752,27.88"></path>	<path clip-path="url(#SVGID_22_)" fill="#FFCC00" d="M1.13,72.191c0,0,29.472,27.628,34.975,28.762  c1.951,0.403,4.554,0.828,8.509,1.195c2.638,0.245,6.226,1.045,9.105,1.613c2.758,0.544,7.429,2.445,13.684,4.445  c7.223,2.31,15.308,4.079,19.206,4.532c0.893,0.104,2.007,0.314,3.085,0.362c3.319,0.145,6.966,0.283,8.212,3.51  c1.404,3.638-1.521,7.72-4.617,9.003c-8.403,3.483-15.594,1.314-20.934,4.74c0,0-40.59-4.864-64.758-28.806  c0,0-6.099-7.043-6.875-17.482c-0.774-10.405-0.706-12.607-0.706-12.607L1.13,72.191z"></path>	<path clip-path="url(#SVGID_22_)" fill="#0095DB" d="M78.628,150.037c-6.559,0-10.916,2.408-12.258,4.816  c-0.291,0.521-0.441,1.045-0.439,1.543c0.002,1.797,1.96,3.274,6.264,3.274c1.255,0,2.709-0.126,4.371-0.406  c3.03-0.516,6.877-2.219,8.666-4.417c0.656-0.807,1.136-1.576,1.134-2.264c-0.003-0.935-0.897-1.718-3.454-2.226  C81.396,150.137,79.967,150.036,78.628,150.037"></path>	<path clip-path="url(#SVGID_22_)" fill="#DB0812" d="M2.532,50.702c0,0-2.286,14.767,16.22,30.975  c13.323,11.667,31.678,20.179,31.678,20.179s-5.328,0.61-12.084-0.193c-8.112-0.964-21.661-4.421-31.514-15.361  c-5.754-6.39-6.796-13.979-6.796-13.979s-0.539-9.084,2.572-22.34L2.532,50.702z"></path>	<path clip-path="url(#SVGID_22_)" fill="#89A429" d="M1.19,87.449c0,0,3.316,16.926,31.823,30.099  c21.182,9.787,39.366,12.787,39.366,12.787s-5.827,0.408-13.737-0.125c-8.99-0.606-19.063-2.677-27.886-6.518  c-11.343-4.94-20.824-13.038-25.864-23.423c-1.104-2.274-2.122-4.771-2.757-7.241c-0.256-0.992-0.441-2.237-0.63-3.453  C1.395,88.871,1.254,88.169,1.19,87.449"></path>	<path clip-path="url(#SVGID_22_)" fill="#008E4D" d="M7.351,111.667c0,0,1.512,3.432,4.632,7.302  c2.29,2.843,5.474,6.049,9.571,9.033c4.366,3.182,10.569,6.813,16.088,9.313c5.213,2.36,9.515,4.073,9.515,4.073  s-3.438,0.1-7.942-0.713c-4.777-0.86-10.634-2.785-15.177-5.795c-4.415-2.924-8.183-6.341-11.193-11.24  C9.674,118.479,7.351,111.667,7.351,111.667"></path></g></svg>