<?xml version="1.0" encoding="UTF-8"?><svg version="1.1" width="180px" height="32px" viewBox="0 0 180.0 32.0" xmlns="http://www.w3.org/2000/svg" xmlns:xlink="http://www.w3.org/1999/xlink"><defs><clipPath id="i0"><path d="M1920,0 L1920,6242 L0,6242 L0,0 L1920,0 Z"></path></clipPath><clipPath id="i1"><path d="M16.7904065,0 C16.942254,0.76435225 17.215712,1.50966848 17.6114425,2.2052671 L22.8011845,11.3262088 C23.3895936,12.3602007 23.7076347,13.5041536 23.7568527,14.6572886 C29.3129709,16.1300048 33.1471207,19.258183 33.1471207,22.8792822 C33.1471207,27.9164375 25.7268976,32 16.5736707,32 C7.42022304,32 0,27.9164375 0,22.8792822 C0,19.258407 3.83459117,16.1311246 9.39026798,14.6581844 C9.33200091,16.0225073 9.650042,17.3995955 10.3461569,18.6228278 L15.5356782,27.7439935 C15.9314087,28.4393682 16.2048666,29.1846844 16.3567141,29.9490367 L16.5736707,29.5678683 C17.8581947,27.3101962 17.8581947,24.5286975 16.5736707,22.2712493 L12.4093409,14.9515631 C11.1378386,12.6979221 11.1418114,9.92784508 12.4219213,7.67778734 L12.6386571,7.29661901 C12.7907253,8.06097126 13.0639626,8.80628749 13.4596931,9.50188611 L19.6874276,20.4471505 C20.0831581,21.1427492 20.356616,21.8880654 20.5084636,22.6524176 L20.7254201,22.2712493 C22.0097234,20.0135772 22.0097234,17.2320785 20.7254201,14.9746303 L16.57345,7.67756339 C15.2891467,5.41989124 15.2891467,2.63884048 16.5736707,0.381168336 Z M47.0941383,8.56083479 C49.1175948,8.56083479 51.0165715,8.84525534 52.7910687,9.4770273 C52.6977089,10.7405712 52.4798695,11.7199185 52.1684497,12.6358871 C50.4873123,12.0041151 48.4949758,11.7199185 47.0627977,11.7199185 C44.3544825,11.7199185 43.1092446,12.7939981 43.1092446,14.4680482 C43.1092446,16.1107449 44.3233626,17.0582908 46.5024186,18.0062847 L48.1837767,18.7325649 C52.1373298,20.4384164 53.7871266,22.239 53.7871266,25.3031276 C53.7871266,28.9358724 51.0788114,31.4313828 45.7864399,31.4313828 C43.2337243,31.4313828 41.148028,31.052454 39.4046508,30.2309937 C39.4668906,28.9358724 39.6536101,28.0514812 39.9959292,27.0405565 C41.7393064,27.8620168 43.9808229,28.2722991 45.6930802,28.2722991 C48.5883356,28.2722991 50.2072331,27.3247531 50.2072331,25.4610146 C50.2072331,23.6288536 49.024235,22.7758159 46.0978597,21.4809185 L44.5100821,20.7859917 C41.5837068,19.4906465 39.5913703,17.8163724 39.5913703,14.4680482 C39.5913703,10.8671048 42.0509469,8.56083479 47.0941383,8.56083479 Z M161.195848,14.2470064 C166.08344,14.2470064 168.200477,17.5003744 168.200477,21.4809185 C168.200477,22.4602658 168.138237,23.2499248 168.013537,24.1658933 L157.086475,24.1658933 C157.522374,26.9774017 159.141051,28.3356778 162.191906,28.3356778 C164.059984,28.3356778 165.959181,27.9249477 167.671218,27.1352887 C167.546738,28.0514812 167.360019,29.2516464 167.141959,30.2939246 C165.585301,31.0206527 163.935504,31.3048493 162.098546,31.3048493 C156.370496,31.3048493 153.599941,28.0828347 153.599941,22.6813076 C153.599941,17.9744833 155.748098,14.2470064 161.195848,14.2470064 Z M150.797163,8.81345399 L150.797163,30.9261444 L147.652948,30.9261444 L147.466449,28.904295 C146.59443,30.3891047 145.255832,31.3048493 143.014536,31.3048493 C138.905383,31.3048493 136.165507,28.2722991 136.165507,22.9657282 C136.165507,17.4056422 139.091882,14.2470064 144.851273,14.2470064 C145.753971,14.2470064 146.59443,14.3417386 147.403989,14.4996256 L147.403989,9.28733895 C148.462507,8.90841014 149.676404,8.81345399 150.797163,8.81345399 Z M110.013745,14.2470064 C112.255041,14.2470064 114.091999,14.4996256 115.897395,15.1313975 L115.897395,30.9261444 L112.75318,30.9261444 L112.566682,29.0308286 C111.694662,30.4206821 110.356064,31.3048493 108.177008,31.3048493 C104.067635,31.3048493 101.3282,28.2722991 101.3282,22.9657282 C101.3282,17.4056422 104.254354,14.2470064 110.013745,14.2470064 Z M94.8832881,8.81345399 L94.8832881,14.7838222 L100.299918,14.7838222 C100.237679,15.8579017 100.144319,16.837249 99.9884986,17.7532176 L94.8832881,17.7532176 L94.8832881,25.492816 C94.8832881,27.5460189 95.879346,28.3356778 97.5291427,28.3356778 C98.5252006,28.3356778 99.4594601,28.1459895 100.206559,27.8620168 C100.113199,28.8093388 99.9884986,29.8836423 99.8017792,30.7993869 C98.8677404,31.1785397 97.8716825,31.3048493 96.9065238,31.3048493 C93.5755896,31.3048493 91.4585528,29.7571088 91.4585528,25.9033222 L91.4585528,9.31891635 C92.5170712,8.97156494 93.8245489,8.81345399 94.8832881,8.81345399 Z M64.6217116,14.2470064 C66.8632281,14.2470064 68.6999651,14.4996256 70.5055821,15.1313975 L70.5055821,30.9261444 L67.3613674,30.9261444 L67.1746479,29.0308286 C66.302849,30.4206821 64.9640306,31.3048493 62.7849746,31.3048493 C58.6756013,31.3048493 55.9361662,28.2722991 55.9361662,22.9657282 C55.9361662,17.4056422 58.8623208,14.2470064 64.6217116,14.2470064 Z M180,14.373092 C180,15.4158181 179.87552,16.679362 179.688801,17.3427114 C178.879462,17.2477552 178.069903,17.2161778 177.104745,17.2161778 C176.264286,17.2161778 175.423607,17.2795566 174.583149,17.4056422 L174.583149,30.9261444 L171.158634,30.9261444 L171.158634,15.1313975 C172.621932,14.6259352 175.081288,14.2470064 177.011385,14.2470064 C178.069903,14.2470064 179.252901,14.2785838 180,14.373092 Z M125.860181,14.2470064 C131.588452,14.2470064 133.424968,16.4896737 133.424968,20.3121068 L133.424968,30.9261444 L130.000895,30.9261444 L130.000895,20.9123013 C130.000895,18.4167909 129.191336,17.2161778 125.766821,17.2161778 C124.957483,17.2161778 123.992324,17.311134 123.058506,17.469021 L123.058506,30.9261444 L119.633992,30.9261444 L119.633992,15.1313975 C121.813048,14.5943578 124.210164,14.2470064 125.860181,14.2470064 Z M80.4683682,14.2470064 C86.1966391,14.2470064 88.0331553,16.4896737 88.0331553,20.3121068 L88.0331553,30.9261444 L84.6088615,30.9261444 L84.6088615,20.9123013 C84.6088615,18.4167909 83.7993023,17.2161778 80.3750084,17.2161778 C79.5654493,17.2161778 78.6005113,17.311134 77.6664725,17.469021 L77.6664725,30.9261444 L74.2421786,30.9261444 L74.2421786,15.1313975 C76.4212346,14.5943578 78.8183507,14.2470064 80.4683682,14.2470064 Z M144.664333,17.2161778 C141.270938,17.2161778 139.652261,19.3645608 139.652261,22.9657282 C139.652261,26.1875188 140.92884,28.4622114 143.979695,28.4622114 C145.349412,28.4622114 146.470171,27.9881025 147.403989,27.2613744 L147.403989,17.5321758 C146.501291,17.3427114 145.567252,17.2161778 144.664333,17.2161778 Z M110.013745,17.2161778 C106.46453,17.2161778 104.814734,19.4277156 104.814734,22.9657282 C104.814734,26.1875188 106.091312,28.4622114 109.141946,28.4622114 C110.480323,28.4622114 111.570403,28.0199038 112.47288,27.3247531 L112.47288,17.4056422 C111.757122,17.2795566 110.978463,17.2161778 110.013745,17.2161778 Z M64.6217116,17.2161778 C61.0727174,17.2161778 59.4229206,19.4277156 59.4229206,22.9657282 C59.4229206,26.1875188 60.6992784,28.4622114 63.7501333,28.4622114 C65.088731,28.4622114 66.1783693,28.0199038 67.0810675,27.3247531 L67.0810675,17.4056422 C66.3650888,17.2795566 65.5868703,17.2161778 64.6217116,17.2161778 Z M161.009129,17.153023 C158.580893,17.153023 157.304535,18.5746779 157.024235,21.2596527 L164.745063,21.2596527 C164.745063,18.6694101 163.375346,17.153023 161.009129,17.153023 Z"></path></clipPath></defs><g transform="translate(-232.0 -121.0)"><g clip-path="url(#i0)"><g transform="translate(232.0 121.0)"><g clip-path="url(#i1)"><polygon points="0,0 180,0 180,32 0,32 0,0" stroke="none" fill="#EC0000"></polygon></g></g></g></g></svg>