<svg xmlns="http://www.w3.org/2000/svg" viewBox="0 0 815.4 142.8" width="250" height="70"><title>Santander</title><path d="M107.5,65.4a33.25,33.25,0,0,0-4.3-14.9L79.7,9.8A32.44,32.44,0,0,1,76,0L75,1.7a32.71,32.71,0,0,0,0,32.6L93.8,66.9a32.71,32.71,0,0,1,0,32.6l-1,1.7a32.44,32.44,0,0,0-3.7-9.8L71.9,61.6l-11-19a32.44,32.44,0,0,1-3.7-9.8l-1,1.7A32.77,32.77,0,0,0,56.1,67h0L75,99.7a32.71,32.71,0,0,1,0,32.6L74,134a32.44,32.44,0,0,0-3.7-9.8L46.8,83.1a31.88,31.88,0,0,1-4.3-17.7C17.3,72,0,85.9,0,102.1c0,22.5,33.6,40.7,75.1,40.7s75.1-18.2,75.1-40.7C150.1,85.9,132.7,72,107.5,65.4Zm70.9,69.5a46,46,0,0,1,2.7-14.2,65.47,65.47,0,0,0,25.8,5.5c13.1,0,20.5-4.2,20.5-12.6,0-8.2-5.4-12-18.6-17.8l-7.2-3.1c-13.3-5.8-22.3-13.3-22.3-28.2,0-16.1,11.1-26.4,34-26.4a77.54,77.54,0,0,1,25.8,4.1,54.11,54.11,0,0,1-2.8,14.1,71.84,71.84,0,0,0-23.1-4.1c-12.3,0-17.9,4.8-17.9,12.3,0,7.3,5.5,11.6,15.4,15.8l7.6,3.2c17.9,7.6,25.4,15.7,25.4,29.3,0,16.2-12.3,27.4-36.2,27.4C195.8,140.3,186.3,138.6,178.4,134.9ZM319.3,67.5V138H305.1l-.8-8.5c-4,6.2-10,10.2-19.9,10.2-18.6,0-31-13.5-31-37.2,0-24.8,13.3-38.9,39.4-38.9C302.8,63.5,311.2,64.7,319.3,67.5Zm-15.5,54.4V77.6a60.75,60.75,0,0,0-11.1-.8c-16.1,0-23.6,9.9-23.6,25.7,0,14.4,5.8,24.5,19.6,24.5A24.3,24.3,0,0,0,303.8,121.9Zm95-31.3V138H383.3V93.3c0-11.1-3.7-16.5-19.2-16.5a79,79,0,0,0-12.3,1.1V138H336.3V67.5c9.9-2.4,20.7-3.9,28.2-3.9C390.4,63.5,398.8,73.6,398.8,90.6Zm43,35.9a34.41,34.41,0,0,0,12.1-2.1c-.4,4.2-1,9-1.8,13.1a34.82,34.82,0,0,1-13.1,2.3c-15.1,0-24.7-6.9-24.7-24.1V41.6a52,52,0,0,1,15.5-2.3V66h24.5a126.47,126.47,0,0,1-1.4,13.3H429.8v34.6C429.8,122.9,434.3,126.5,441.8,126.5Zm83.2-59V138H510.8l-.8-8.5c-4,6.2-10,10.2-19.9,10.2-18.6,0-31-13.5-31-37.2,0-24.8,13.3-38.9,39.4-38.9A76.86,76.86,0,0,1,525,67.5Zm-15.5,54.4V77.6a60.75,60.75,0,0,0-11.1-.8c-16.1,0-23.6,9.9-23.6,25.7,0,14.4,5.8,24.5,19.6,24.5A24.3,24.3,0,0,0,509.5,121.9Zm94.9-31.3V138H588.9V93.3c0-11.1-3.7-16.5-19.2-16.5a79,79,0,0,0-12.3,1.1V138H541.9V67.5c9.9-2.4,20.7-3.9,28.2-3.9C596.1,63.5,604.4,73.6,604.4,90.6Zm78.7-51.3V138H668.9l-.8-9c-4,6.6-10,10.7-20.2,10.7-18.6,0-31-13.5-31-37.2,0-24.8,13.3-38.9,39.4-38.9a61.71,61.71,0,0,1,11.6,1.1V41.4C672.5,39.7,678,39.3,683.1,39.3Zm-15.3,82.4V78.3a65.44,65.44,0,0,0-12.4-1.4c-15.4,0-22.7,9.6-22.7,25.7,0,14.4,5.8,24.5,19.6,24.5A26.15,26.15,0,0,0,667.8,121.7Zm93.3-13.9H711.6c2,12.6,9.3,18.6,23.1,18.6a58.92,58.92,0,0,0,24.8-5.4c-.6,4.1-1.4,9.5-2.4,14.1-7.1,3.2-14.5,4.5-22.9,4.5-26,0-38.5-14.4-38.5-38.5,0-21,9.7-37.7,34.4-37.7,22.1,0,31.7,14.5,31.7,32.3A59.71,59.71,0,0,1,761.1,107.8ZM711.3,94.9h35c0-11.6-6.2-18.3-16.9-18.3C718.4,76.5,712.6,82.9,711.3,94.9ZM815.4,64.1A60.92,60.92,0,0,1,814,77.4a105,105,0,0,0-11.7-.6,87.37,87.37,0,0,0-11.4.8V138H775.4V67.5c6.6-2.3,17.8-3.9,26.5-3.9A108.94,108.94,0,0,1,815.4,64.1Z" fill="#ec0000"/></svg>