<svg xmlns="http://www.w3.org/2000/svg" xmlns:xlink="http://www.w3.org/1999/xlink" id="Layer_1" x="0px" y="0px" viewBox="0 0 586.5 157.3" style="enable-background:new 0 0 586.5 157.3;" xml:space="preserve"><style type="text/css">	.st0{fill:#DA291C;}	.st1{fill:#222221;}</style><g>	<g id="save-the-children-name-outline">		<path d="M173.2,67.6c-0.2,0.4-0.5,0.7-0.8,1c-0.3,0.2-0.7,0.3-1.1,0.3c-0.5,0-0.9-0.1-1.3-0.4c-0.5-0.3-1-0.5-1.6-0.9   c-0.7-0.3-1.3-0.6-2-0.9c-0.8-0.3-1.7-0.4-2.6-0.4c-1.4-0.1-2.7,0.3-3.8,1.1c-0.8,0.7-1.3,1.8-1.2,2.9c0,0.7,0.2,1.4,0.8,2   s1.2,1,2,1.3c0.9,0.4,1.8,0.8,2.8,1c1,0.3,2.1,0.7,3.2,1c1.1,0.4,2.2,0.8,3.2,1.4c1,0.5,2,1.2,2.8,2s1.5,1.8,2,2.9   c0.5,1.3,0.8,2.7,0.8,4.2c0,1.7-0.3,3.4-0.9,5.1c-0.6,1.5-1.5,2.9-2.7,4.1c-1.3,1.2-2.8,2.2-4.4,2.8c-1.9,0.7-3.9,1-5.9,1   c-1.2,0-2.5-0.1-3.7-0.4c-1.2-0.2-2.5-0.6-3.7-1.1c-1.2-0.4-2.3-1-3.3-1.6s-1.9-1.3-2.7-2.1l2.7-4.2c0.2-0.3,0.5-0.6,0.8-0.8   c0.4-0.2,0.7-0.3,1.2-0.3c0.6,0,1.1,0.2,1.6,0.5s1.2,0.7,1.8,1.1c0.8,0.4,1.5,0.8,2.4,1.1c1,0.4,2.1,0.5,3.2,0.5   c1.4,0.1,2.7-0.3,3.8-1.1c1-0.9,1.5-2.1,1.4-3.4c0-0.8-0.2-1.6-0.8-2.2c-0.5-0.6-1.2-1.1-2-1.4c-0.9-0.4-1.8-0.7-2.8-1   s-2.1-0.6-3.2-0.9c-1.1-0.4-2.2-0.8-3.2-1.3s-2-1.2-2.8-2c-0.9-0.9-1.5-2-2-3.1c-0.5-1.5-0.8-3-0.8-4.6c0-1.5,0.3-2.9,0.9-4.3   c0.6-1.4,1.5-2.7,2.6-3.7c1.2-1.1,2.6-2,4.2-2.6c1.8-0.7,3.8-1,5.7-1c1.2,0,2.3,0.1,3.5,0.3c1.1,0.2,2.2,0.5,3.2,0.8   c1,0.4,1.9,0.8,2.9,1.3c0.9,0.5,1.6,1.1,2.4,1.7L173.2,67.6z"></path>		<path d="M199.3,98.7c-0.6,0-1.2-0.1-1.7-0.3c-0.5-0.3-0.8-0.8-1-1.3l-0.6-1.5c-0.7,0.6-1.3,1.1-1.9,1.5c-0.6,0.4-1.3,0.8-1.9,1.1   c-0.7,0.3-1.4,0.5-2.1,0.7c-0.8,0.2-1.7,0.2-2.5,0.2c-1.1,0-2.3-0.1-3.4-0.5c-0.9-0.3-1.8-0.8-2.6-1.4c-0.7-0.6-1.3-1.4-1.6-2.3   c-0.4-1-0.6-2.1-0.6-3.2c0-1,0.3-2,0.7-2.9c0.6-1.1,1.5-2.1,2.5-2.8c1.5-1,3.1-1.7,4.8-2.1c2.5-0.6,5.1-0.9,7.7-0.8v-1.2   c0.1-1.2-0.2-2.5-1-3.5c-0.7-0.7-1.7-1.1-2.8-1.1c-0.8,0-1.6,0.1-2.3,0.3c-0.6,0.2-1.1,0.4-1.6,0.7c-0.5,0.3-0.9,0.5-1.4,0.7   s-1.1,0.3-1.6,0.3s-1-0.1-1.4-0.4s-0.7-0.6-0.9-1l-1.5-2.5c1.6-1.4,3.4-2.5,5.4-3.2c2.1-0.7,4.2-1.1,6.4-1.1c1.5,0,3,0.2,4.4,0.8   c1.3,0.5,2.4,1.2,3.3,2.2c0.9,1,1.6,2.1,2.1,3.4c0.5,1.4,0.7,2.8,0.7,4.3v16.8h-3.6V98.7z M190,93.8c0.9,0,1.9-0.2,2.7-0.5   c0.9-0.4,1.7-1,2.4-1.8v-3.7c-1.3,0-2.7,0.1-4,0.3c-0.9,0.1-1.7,0.4-2.5,0.8c-0.5,0.2-1,0.6-1.3,1.1c-0.2,0.4-0.4,0.8-0.4,1.3   c-0.1,0.7,0.2,1.5,0.8,2C188.4,93.7,189.2,93.9,190,93.8z"></path>		<path d="M222.9,98.7h-7.3l-10.5-27h6.7c0.5,0,1,0.1,1.4,0.4c0.4,0.2,0.6,0.6,0.8,1l3.7,12.1c0.3,1,0.6,1.9,0.8,2.9   s0.5,1.9,0.7,2.8c0.2-0.9,0.4-1.9,0.7-2.8s0.6-1.9,0.9-2.9l3.9-12.1c0.1-0.4,0.4-0.8,0.8-1c0.4-0.3,0.9-0.4,1.4-0.4h6.4   L222.9,98.7z"></path>		<path d="M247.6,71.3c1.7,0,3.3,0.3,4.9,0.8c1.4,0.5,2.7,1.3,3.8,2.4c1.1,1.1,2,2.4,2.5,3.9c0.6,1.7,0.9,3.4,0.9,5.2   c0,0.5,0,1-0.1,1.5c0,0.3-0.1,0.6-0.3,0.9c-0.1,0.2-0.3,0.4-0.6,0.5c-0.3,0.1-0.6,0.1-0.9,0.1h-15.6c0.1,1.8,0.8,3.6,2.1,4.9   c1.2,1,2.7,1.6,4.3,1.5c0.8,0,1.6-0.1,2.4-0.3c0.6-0.2,1.2-0.5,1.8-0.8c0.5-0.3,1-0.5,1.5-0.8c0.4-0.2,0.9-0.3,1.4-0.3   c0.6,0,1.1,0.2,1.5,0.7l2.3,2.9c-0.8,0.9-1.7,1.7-2.7,2.3c-0.9,0.6-1.9,1.1-3,1.4c-1,0.3-2,0.6-3,0.7s-1.9,0.2-2.9,0.2   c-1.8,0-3.6-0.3-5.3-0.9c-1.6-0.6-3.1-1.5-4.3-2.7c-1.3-1.3-2.3-2.8-2.9-4.5c-0.8-2-1.1-4.1-1.1-6.3c0-1.7,0.3-3.5,0.9-5.1   c1.2-3.2,3.7-5.8,6.8-7.1C243.8,71.7,245.7,71.3,247.6,71.3z M247.8,76.9c-1.3-0.1-2.6,0.4-3.6,1.3c-1,1.1-1.6,2.4-1.7,3.8h10.1   c0-0.6-0.1-1.3-0.2-1.9c-0.2-0.6-0.4-1.1-0.8-1.6c-0.4-0.5-0.9-0.9-1.5-1.2C249.3,77,248.5,76.9,247.8,76.9L247.8,76.9z"></path>		<path d="M284.6,99.1c-1.2,0-2.3-0.2-3.4-0.6c-1.9-0.7-3.4-2.2-4-4.1c-0.4-1-0.5-2.1-0.5-3.2V77.3h-2.3c-0.8,0-1.5-0.6-1.5-1.4   c0-0.1,0-0.1,0-0.2v-3.1l4.3-0.8l1.6-6.6c0.2-0.8,0.9-1.4,1.8-1.2h4.2v7.9h6.6v5.5h-6.6v13.4c0,0.6,0.1,1.1,0.5,1.5   c0.3,0.4,0.8,0.6,1.3,0.6c0.3,0,0.5,0,0.7-0.1s0.4-0.1,0.5-0.2s0.3-0.1,0.4-0.2s0.3-0.1,0.5-0.1s0.4,0,0.6,0.2s0.3,0.3,0.5,0.5   l2.4,3.8c-1.1,0.8-2.2,1.4-3.5,1.8C287.4,98.9,286,99.1,284.6,99.1z"></path>		<path d="M295.9,98.7V59.8h8.1v14.3c1-0.8,2-1.5,3.2-2c1.3-0.5,2.7-0.8,4.1-0.8c1.3,0,2.7,0.2,3.9,0.8c1.1,0.5,2.1,1.2,2.9,2.1   c0.8,1,1.4,2.1,1.8,3.2c0.4,1.3,0.6,2.7,0.6,4.1v17.1h-8.1v-17c0.1-1.1-0.3-2.2-0.9-3.1c-0.7-0.8-1.7-1.2-2.7-1.1   c-0.9,0-1.7,0.2-2.5,0.6s-1.6,0.9-2.2,1.5v19.2C304.1,98.7,295.9,98.7,295.9,98.7z"></path>		<path d="M337.8,71.3c1.7,0,3.3,0.3,4.9,0.8c1.4,0.5,2.7,1.3,3.8,2.4c1.1,1.1,2,2.4,2.5,3.9c0.6,1.7,0.9,3.4,0.9,5.2   c0,0.5,0,1-0.1,1.5c0,0.3-0.1,0.6-0.3,0.9c-0.1,0.2-0.3,0.4-0.6,0.5c-0.3,0.1-0.6,0.1-0.9,0.1h-15.5c0.1,1.8,0.8,3.6,2.1,4.9   c1.2,1,2.7,1.6,4.3,1.5c0.8,0,1.6-0.1,2.4-0.3c0.6-0.2,1.2-0.5,1.8-0.8c0.5-0.3,1-0.5,1.5-0.8c0.4-0.2,0.9-0.3,1.4-0.3   c0.6,0,1.1,0.2,1.5,0.7l2.3,2.9c-0.8,0.9-1.7,1.7-2.7,2.3c-0.9,0.6-1.9,1.1-3,1.4c-1,0.3-2,0.6-3,0.7s-1.9,0.2-2.9,0.2   c-1.8,0-3.6-0.3-5.3-0.9c-1.6-0.6-3.1-1.5-4.3-2.7c-1.3-1.3-2.3-2.8-2.9-4.5c-0.8-2-1.1-4.1-1.1-6.3c0-1.7,0.3-3.5,0.9-5.1   c1.2-3.2,3.7-5.8,6.8-7.1C334,71.7,335.9,71.3,337.8,71.3z M338,76.9c-1.3-0.1-2.6,0.4-3.6,1.3c-1,1.1-1.6,2.4-1.7,3.8h10.1   c0-0.6-0.1-1.3-0.2-1.9c-0.2-0.6-0.4-1.1-0.8-1.6s-0.9-0.9-1.5-1.2C339.5,77,338.8,76.9,338,76.9z"></path>		<path d="M392,88.6c0.2,0,0.4,0,0.6,0.1s0.4,0.2,0.6,0.4l3.6,3.8c-1.5,2-3.6,3.6-5.9,4.6c-2.7,1.1-5.5,1.6-8.4,1.6   c-2.7,0-5.4-0.5-8-1.5c-2.3-1-4.3-2.4-6-4.2c-1.7-1.8-2.9-4-3.8-6.3c-0.9-2.6-1.3-5.2-1.3-7.9c0-2.7,0.5-5.5,1.5-8   c1-2.4,2.4-4.5,4.2-6.3c1.8-1.8,4-3.2,6.4-4.1c2.6-1,5.4-1.5,8.3-1.5c1.4,0,2.8,0.1,4.1,0.4c1.2,0.2,2.5,0.6,3.6,1.1   c1.1,0.4,2.1,1,3.1,1.6c0.9,0.6,1.8,1.3,2.5,2.1l-3.1,4.1c-0.2,0.3-0.4,0.5-0.7,0.7c-0.3,0.2-0.7,0.3-1.1,0.3   c-0.3,0-0.6-0.1-0.9-0.2c-0.3-0.2-0.6-0.3-0.9-0.5s-0.7-0.4-1.1-0.7c-0.4-0.3-0.9-0.5-1.4-0.7c-0.6-0.2-1.2-0.4-1.8-0.5   c-0.8-0.2-1.6-0.2-2.5-0.2c-1.5,0-3.1,0.3-4.5,0.9c-1.3,0.6-2.5,1.4-3.5,2.5s-1.8,2.5-2.3,3.9c-0.6,1.7-0.8,3.4-0.8,5.2   c0,1.8,0.2,3.6,0.8,5.3c0.5,1.4,1.2,2.8,2.2,3.9c0.9,1,2,1.9,3.3,2.4c1.3,0.6,2.6,0.8,4,0.8c0.8,0,1.5,0,2.2-0.1   c0.6-0.1,1.3-0.2,1.9-0.4c0.6-0.2,1.1-0.5,1.7-0.8s1.1-0.7,1.6-1.2c0.2-0.2,0.4-0.3,0.7-0.4C391.4,88.7,391.7,88.6,392,88.6z"></path>		<path d="M400.9,98.7V59.8h8.1v14.3c1-0.8,2-1.5,3.2-2c1.3-0.5,2.7-0.8,4.1-0.8c1.3,0,2.7,0.2,3.9,0.8c1.1,0.5,2.1,1.2,2.9,2.1   c0.8,1,1.4,2.1,1.8,3.2c0.4,1.3,0.6,2.7,0.6,4.1v17.1h-8.1v-17c0.1-1.1-0.3-2.2-0.9-3.1c-0.7-0.8-1.7-1.2-2.7-1.1   c-0.9,0-1.7,0.2-2.5,0.6s-1.6,0.9-2.2,1.5v19.2C409.1,98.7,400.9,98.7,400.9,98.7z"></path>		<path d="M440.8,64.4c0,0.6-0.1,1.2-0.4,1.8c-0.3,0.6-0.6,1.1-1.1,1.5s-1,0.8-1.6,1c-0.6,0.3-1.3,0.4-1.9,0.4s-1.3-0.1-1.8-0.4   c-0.6-0.2-1.1-0.6-1.5-1s-0.8-0.9-1-1.5c-0.3-0.6-0.4-1.2-0.4-1.8c0-0.6,0.1-1.3,0.4-1.8c0.2-0.6,0.6-1.1,1-1.5s1-0.8,1.5-1   c0.6-0.2,1.2-0.4,1.8-0.4c0.7,0,1.3,0.1,1.9,0.4c1.2,0.5,2.1,1.4,2.6,2.5C440.7,63.1,440.8,63.7,440.8,64.4z M439.9,71.8v27h-8.1   v-27H439.9z"></path>		<path d="M455.3,59.8v38.9h-8.1V59.8H455.3z"></path>		<path d="M481,98.7c-0.4,0-0.9-0.1-1.3-0.3c-0.4-0.2-0.6-0.6-0.7-1l-0.6-2.1c-0.5,0.6-1.1,1.1-1.7,1.6s-1.2,0.9-1.9,1.2   c-0.7,0.3-1.4,0.6-2.2,0.8c-0.8,0.2-1.7,0.3-2.6,0.3c-1.4,0-2.7-0.3-3.9-0.9c-1.2-0.6-2.3-1.6-3.1-2.7c-0.9-1.3-1.6-2.8-2-4.3   c-0.5-1.9-0.8-3.9-0.7-5.8c0-1.9,0.3-3.8,0.8-5.6c0.5-1.6,1.3-3.1,2.4-4.5c1-1.2,2.2-2.2,3.7-3c1.5-0.7,3.1-1.1,4.7-1.1   c1.2,0,2.4,0.2,3.5,0.6c0.9,0.4,1.8,0.9,2.6,1.6V59.8h8.1v38.9C486.1,98.7,481,98.7,481,98.7z M472.8,93c0.5,0,1.1-0.1,1.6-0.2   s0.9-0.3,1.3-0.5s0.8-0.5,1.1-0.8c0.4-0.3,0.7-0.7,1.1-1.1V79c-0.5-0.6-1.2-1.1-2-1.4c-0.7-0.3-1.5-0.4-2.2-0.4s-1.4,0.1-2.1,0.4   s-1.2,0.8-1.6,1.4c-0.5,0.8-0.9,1.6-1.1,2.5c-0.3,1.2-0.4,2.5-0.4,3.8c0,1.2,0.1,2.4,0.3,3.6c0.2,0.8,0.4,1.6,0.9,2.4   c0.3,0.5,0.8,1,1.3,1.3C471.6,92.8,472.2,93,472.8,93z"></path>		<path d="M492.4,98.7v-27h4.8c0.3,0,0.7,0,1,0.1c0.2,0.1,0.5,0.2,0.7,0.3c0.2,0.2,0.3,0.4,0.4,0.6c0.1,0.3,0.2,0.6,0.2,0.9l0.4,2.5   c0.9-1.4,2-2.6,3.3-3.6c1.2-0.9,2.6-1.3,4-1.3c1.1-0.1,2.1,0.3,3,0.9l-1,5.9c0,0.3-0.2,0.6-0.4,0.8c-0.2,0.2-0.5,0.2-0.8,0.2   s-0.7,0-1-0.1c-0.5-0.1-1-0.1-1.5-0.1c-2.1,0-3.8,1.1-5,3.4v16.5C500.5,98.7,492.4,98.7,492.4,98.7z"></path>		<path d="M524.9,71.3c1.7,0,3.3,0.3,4.9,0.8c1.4,0.5,2.7,1.3,3.8,2.4s2,2.4,2.5,3.9c0.6,1.7,0.9,3.4,0.9,5.2c0,0.5,0,1-0.1,1.5   c0,0.3-0.1,0.6-0.3,0.9c-0.1,0.2-0.3,0.4-0.6,0.5s-0.6,0.1-0.9,0.1h-15.5c0.1,1.8,0.8,3.6,2.1,4.9c1.2,1,2.7,1.6,4.3,1.5   c0.8,0,1.6-0.1,2.4-0.3c0.6-0.2,1.2-0.5,1.8-0.8c0.5-0.3,1-0.5,1.5-0.8c0.4-0.2,0.9-0.3,1.4-0.3c0.6,0,1.1,0.2,1.5,0.7l2.3,2.9   c-0.8,0.9-1.7,1.7-2.7,2.3c-0.9,0.6-1.9,1.1-3,1.4c-1,0.3-2,0.6-3,0.7s-1.9,0.2-2.9,0.2c-1.8,0-3.6-0.3-5.3-0.9   c-1.6-0.6-3.1-1.5-4.3-2.7c-1.3-1.3-2.3-2.8-2.9-4.5c-0.8-2-1.1-4.1-1.1-6.3c0-1.7,0.3-3.5,0.9-5.1c1.2-3.2,3.7-5.8,6.8-7.1   C521.1,71.7,523,71.3,524.9,71.3z M525.1,76.9c-1.3-0.1-2.6,0.4-3.6,1.3c-1,1.1-1.6,2.4-1.7,3.8h10c0-0.6-0.1-1.3-0.2-1.9   c-0.2-0.6-0.4-1.1-0.8-1.6c-0.4-0.5-0.9-0.9-1.5-1.2C526.6,77,525.8,76.9,525.1,76.9z"></path>		<path d="M542.2,98.7v-27h5c0.4,0,0.9,0.1,1.3,0.3c0.4,0.2,0.6,0.6,0.7,1l0.5,1.6c0.5-0.5,1.1-0.9,1.6-1.4c0.6-0.4,1.2-0.8,1.8-1.1   c0.7-0.3,1.3-0.5,2.1-0.7s1.6-0.3,2.4-0.2c1.3,0,2.7,0.2,3.9,0.8c1.1,0.5,2.1,1.2,2.9,2.1c0.8,1,1.4,2.1,1.8,3.2   c0.4,1.3,0.6,2.7,0.6,4.1v17.1h-8.1V81.6c0.1-1.1-0.3-2.2-0.9-3.1c-0.7-0.8-1.7-1.2-2.7-1.1c-0.9,0-1.7,0.2-2.5,0.6   s-1.6,0.9-2.2,1.5v19.2C550.4,98.7,542.2,98.7,542.2,98.7z"></path>	</g>	<g id="save-the-children-symbol">		<path class="st0" d="M120.2,49.4c4.8-5.6,6.9-8.2,6.4-9.7c-0.6-1.3-1.8-2.3-3.1-2.6c-1.8-0.7-4.3-1-5.5-0.3   c-1,0.8-1.9,1.8-2.7,2.8l-1.5,1.7l0,0c-1-1-2-2-3-2.8c-7.3-6.4-16.3-10.5-25.9-12c-3.9-4.1-8.9-6-13.9-5.3   c-4.3,0.7-8.1,3.3-10.4,7c-9.9,3-18.7,8.6-25.7,16.3l0,0c-1.6-0.5-5,0.1-7.2,1.3c-1,0.4-1.8,1.3-2.1,2.3c-0.1,0.7,0.2,1.7,2.8,4.8   l0,0c-6.9,10.9-9.8,23.8-8.4,36.6c1.5,12.8,7.6,24.6,17.3,33.1c3.4,3,7.2,5.5,11.2,7.4c18.8,9.1,40.8,8.3,58.9-2.1l0,0   c1.5-0.9,2-2.7,1.3-4.2l-0.2-0.5c-3-6.6-12-26.9-7-45.3c2.1-7.7,8.2-15.9,13.4-22.4l0,0c5.6,8.6,8.4,18.8,8,29.1   c-0.3,9.4-3.5,18.5-9.2,26c-0.3,0.3-0.3,0.7-0.2,1.1l0.6,1.3c0.3,0.5,0.9,0.8,1.4,0.5c0.2-0.1,0.3-0.2,0.4-0.3l0,0   C130.8,94.6,132.6,68.7,120.2,49.4z M54.7,93c-2,10.1-2.4,20.5-1.3,30.8l0,0c-3.8-1.9-7.4-4.4-10.7-7.2   c-8.8-7.6-14.7-18-16.8-29.5c-2-10.7-0.2-21.8,5.1-31.3l0,0l0,0l0,0c2,2.1,4.4,4.5,6.9,6.9c6.1,6.1,13.1,13,16.5,17.9   C56.4,83.4,55.8,87,54.7,93 M108.2,47.3c-11.3,11.4-22,17.6-31.7,18.3C69,66.2,61.1,63.9,53,59c-5.4-3.4-10.5-7.4-15-11.9   l-0.3-0.3l0,0c5.6-6,12.6-10.3,20.5-12.7l0,0l0,0l0,0c-0.8,3.2-1,6.4-0.5,9.7c0.8,5.7,3.8,10.8,8.3,14.3c6.4,5,15.6,3.8,20.6-2.5   c0.2-0.3,0.4-0.5,0.6-0.8c3.3-4.7,4.5-10.5,3.6-16.2c-0.2-1.1-0.4-2.2-0.7-3.2l0,0c5.7,2.2,11,5.3,15.5,9.4   C106.4,45.5,107.3,46.3,108.2,47.3L108.2,47.3z"></path>	</g></g></svg>