<?xml version="1.0" encoding="utf-8"?>
<!-- Generator: Adobe Illustrator 22.0.1, SVG Export Plug-In . SVG Version: 6.00 Build 0)  -->
<svg version="1.1" id="Layer_1" xmlns="http://www.w3.org/2000/svg" xmlns:xlink="http://www.w3.org/1999/xlink" x="0px" y="0px"
	 viewBox="0 0 500.9 108.5" style="enable-background:new 0 0 500.9 108.5;" xml:space="preserve">
<style type="text/css">
	.st0{clip-path:url(#SVGID_2_);}
	.st1{clip-path:url(#SVGID_2_);fill:#DA291C;}
</style>
<g>
	<defs>
		<rect id="SVGID_1_" width="500.9" height="108.5"/>
	</defs>
	<clipPath id="SVGID_2_">
		<use xlink:href="#SVGID_1_"  style="overflow:visible;"/>
	</clipPath>
	<path class="st0" d="M139.7,43.7c-0.2,0.3-0.5,0.6-0.8,0.9c-0.3,0.2-0.7,0.3-1,0.3c-0.4,0-0.8-0.1-1.2-0.3
		c-0.4-0.2-0.9-0.5-1.4-0.8c-0.6-0.3-1.2-0.6-1.8-0.8c-0.8-0.2-1.6-0.4-2.4-0.3c-1.2-0.1-2.4,0.3-3.4,1c-0.8,0.7-1.2,1.6-1.1,2.6
		c0,0.7,0.2,1.3,0.7,1.8c0.5,0.5,1.1,0.9,1.8,1.2c0.8,0.4,1.6,0.7,2.5,0.9c0.9,0.3,1.9,0.6,2.9,0.9c1,0.3,1.9,0.8,2.9,1.2
		c0.9,0.5,1.8,1.1,2.5,1.8c0.8,0.8,1.4,1.7,1.8,2.6c0.5,1.2,0.7,2.5,0.7,3.7c0,1.6-0.3,3.1-0.8,4.6c-0.5,1.4-1.4,2.6-2.4,3.7
		c-1.1,1.1-2.5,1.9-3.9,2.5c-1.7,0.6-3.5,0.9-5.3,0.9c-1.1,0-2.2-0.1-3.3-0.3c-1.1-0.2-2.2-0.5-3.3-1c-1-0.4-2-0.9-3-1.5
		c-0.9-0.5-1.7-1.2-2.4-1.9l2.4-3.8c0.2-0.3,0.4-0.5,0.7-0.7c0.3-0.2,0.7-0.3,1-0.3c0.5,0,1,0.2,1.5,0.5c0.5,0.3,1,0.6,1.7,1
		c0.7,0.4,1.4,0.7,2.1,1c0.9,0.3,1.9,0.5,2.8,0.5c1.2,0.1,2.4-0.3,3.4-1c0.9-0.8,1.3-1.9,1.2-3.1c0-0.7-0.2-1.4-0.7-2
		c-0.5-0.5-1.1-1-1.8-1.3c-0.8-0.4-1.6-0.7-2.5-0.9c-0.9-0.3-1.9-0.5-2.9-0.9c-1-0.3-1.9-0.7-2.9-1.2c-0.9-0.5-1.8-1.1-2.5-1.8
		c-0.8-0.8-1.4-1.8-1.8-2.8c-0.5-1.3-0.7-2.7-0.7-4.1c0-1.3,0.3-2.6,0.8-3.9c0.5-1.3,1.3-2.4,2.3-3.3c1.1-1,2.4-1.8,3.8-2.3
		c1.6-0.6,3.4-0.9,5.1-0.9c1.1,0,2.1,0.1,3.1,0.3c1,0.2,2,0.4,2.9,0.7c0.9,0.3,1.7,0.7,2.6,1.2c0.8,0.4,1.5,1,2.1,1.6L139.7,43.7z"
		/>
	<path class="st0" d="M163.2,71.6c-0.5,0-1.1-0.1-1.6-0.3c-0.4-0.3-0.7-0.7-0.9-1.2l-0.5-1.3c-0.6,0.5-1.2,1-1.8,1.4
		c-0.5,0.4-1.1,0.7-1.7,1c-0.6,0.3-1.3,0.5-1.9,0.6c-0.7,0.1-1.5,0.2-2.3,0.2c-1,0-2-0.1-3-0.4c-0.8-0.3-1.6-0.7-2.3-1.3
		c-0.6-0.6-1.1-1.3-1.5-2.1c-0.4-0.9-0.5-1.9-0.5-2.9c0-0.9,0.2-1.8,0.7-2.6c0.5-1,1.3-1.9,2.3-2.5c1.3-0.9,2.8-1.5,4.3-1.9
		c2.3-0.6,4.6-0.8,6.9-0.7v-1c0.1-1.1-0.2-2.2-0.9-3.1c-0.7-0.7-1.6-1-2.5-1c-0.7,0-1.4,0.1-2.1,0.3c-0.5,0.2-1,0.4-1.5,0.6
		c-0.4,0.2-0.8,0.4-1.3,0.6c-0.5,0.2-1,0.3-1.4,0.3c-0.5,0-0.9-0.1-1.3-0.4c-0.3-0.2-0.6-0.5-0.8-0.9l-1.3-2.3
		c1.4-1.3,3.1-2.2,4.9-2.9c1.8-0.6,3.8-1,5.7-0.9c1.4,0,2.7,0.2,4,0.7c1.1,0.4,2.1,1.1,3,2c0.8,0.9,1.5,1.9,1.9,3
		c0.4,1.2,0.7,2.5,0.7,3.8v15.1H163.2z M154.9,67.2c0.8,0,1.7-0.1,2.5-0.5c0.8-0.4,1.5-0.9,2.1-1.6v-3.3c-1.2,0-2.4,0.1-3.6,0.3
		c-0.8,0.1-1.5,0.4-2.2,0.7c-0.5,0.2-0.9,0.5-1.1,1c-0.2,0.4-0.3,0.8-0.3,1.2c-0.1,0.7,0.2,1.3,0.7,1.8
		C153.5,67.1,154.2,67.3,154.9,67.2"/>
	<path class="st0" d="M184.4,71.6h-6.6l-9.4-24.2h6c0.5,0,0.9,0.1,1.3,0.4c0.3,0.2,0.6,0.5,0.7,0.9l3.4,10.9
		c0.3,0.9,0.5,1.8,0.8,2.6c0.2,0.8,0.4,1.7,0.6,2.5c0.2-0.8,0.4-1.7,0.6-2.5c0.2-0.8,0.5-1.7,0.8-2.6l3.5-10.9
		c0.1-0.4,0.4-0.7,0.7-0.9c0.4-0.2,0.8-0.4,1.2-0.4h5.8L184.4,71.6z"/>
	<path class="st0" d="M206.7,47c1.5,0,3,0.2,4.4,0.7c1.3,0.5,2.5,1.2,3.4,2.2c1,1,1.8,2.2,2.2,3.5c0.6,1.5,0.8,3.1,0.8,4.7
		c0,0.4,0,0.9-0.1,1.3c0,0.3-0.1,0.6-0.3,0.8c-0.1,0.2-0.3,0.3-0.5,0.4c-0.3,0.1-0.5,0.1-0.8,0.1h-14c0.1,1.6,0.7,3.2,1.8,4.4
		c1.1,0.9,2.4,1.4,3.9,1.4c0.7,0,1.5-0.1,2.2-0.3c0.6-0.2,1.1-0.4,1.6-0.7c0.5-0.2,0.9-0.5,1.3-0.7c0.4-0.2,0.8-0.3,1.3-0.3
		c0.5,0,1,0.2,1.3,0.6l2.1,2.6c-0.7,0.8-1.5,1.5-2.4,2.1c-0.8,0.5-1.7,0.9-2.7,1.3c-0.9,0.3-1.8,0.5-2.7,0.6
		c-0.9,0.1-1.7,0.2-2.6,0.2c-1.6,0-3.2-0.3-4.8-0.8c-1.5-0.5-2.8-1.4-3.9-2.5c-1.2-1.2-2.1-2.5-2.6-4.1c-0.7-1.8-1-3.7-1-5.7
		c0-1.6,0.3-3.1,0.8-4.6c1.1-2.9,3.3-5.2,6.1-6.4C203.2,47.3,204.9,47,206.7,47 M206.8,52c-1.2-0.1-2.4,0.4-3.2,1.2
		c-0.9,0.9-1.4,2.1-1.5,3.4h9c0-0.6-0.1-1.1-0.2-1.7c-0.1-0.5-0.4-1-0.7-1.5c-0.4-0.4-0.8-0.8-1.3-1C208.2,52.1,207.5,52,206.8,52"
		/>
	<path class="st0" d="M239.9,72c-1,0-2.1-0.2-3-0.5c-1.7-0.6-3-2-3.6-3.7c-0.3-0.9-0.5-1.9-0.5-2.9V52.4h-2.1
		c-0.7,0-1.3-0.5-1.4-1.3c0-0.1,0-0.1,0-0.2v-2.8l3.9-0.7l1.4-5.9c0.2-0.7,0.8-1.2,1.6-1.1h3.8v7.1h5.9v5h-5.9v12
		c0,0.5,0.1,1,0.4,1.4c0.3,0.4,0.7,0.6,1.2,0.5c0.2,0,0.4,0,0.7-0.1c0.2,0,0.3-0.1,0.5-0.2c0.1-0.1,0.3-0.1,0.4-0.2
		c0.1-0.1,0.3-0.1,0.4-0.1c0.2,0,0.4,0,0.5,0.2c0.2,0.1,0.3,0.3,0.4,0.5l2.2,3.4c-1,0.7-2,1.2-3.2,1.6C242.4,71.8,241.2,72,239.9,72
		"/>
	<path class="st0" d="M250,71.6v-35h7.2v12.9c0.9-0.7,1.8-1.3,2.8-1.8c1.2-0.5,2.4-0.7,3.7-0.7c1.2,0,2.4,0.2,3.5,0.7
		c1,0.4,1.9,1.1,2.6,1.9c0.7,0.9,1.3,1.9,1.6,2.9c0.4,1.2,0.6,2.4,0.5,3.7v15.4h-7.2V56.2c0.1-1-0.2-2-0.8-2.8
		c-0.6-0.7-1.5-1.1-2.4-1c-0.8,0-1.5,0.2-2.2,0.5c-0.7,0.4-1.4,0.8-2,1.4v17.3H250z"/>
	<path class="st0" d="M287.7,47c1.5,0,3,0.2,4.4,0.7c1.3,0.5,2.5,1.2,3.4,2.2c1,1,1.8,2.2,2.2,3.5c0.6,1.5,0.8,3.1,0.8,4.7
		c0,0.4,0,0.9-0.1,1.3c0,0.3-0.1,0.6-0.3,0.8c-0.1,0.2-0.3,0.3-0.5,0.4c-0.3,0.1-0.5,0.1-0.8,0.1h-14c0.1,1.6,0.7,3.2,1.8,4.4
		c1.1,0.9,2.4,1.4,3.9,1.4c0.7,0,1.5-0.1,2.2-0.3c0.6-0.2,1.1-0.4,1.6-0.7c0.5-0.2,0.9-0.5,1.3-0.7c0.4-0.2,0.8-0.3,1.3-0.3
		c0.5,0,1,0.2,1.3,0.6l2.1,2.6c-0.7,0.8-1.5,1.5-2.4,2.1c-0.8,0.5-1.7,0.9-2.7,1.3c-0.9,0.3-1.8,0.5-2.7,0.6
		c-0.9,0.1-1.7,0.2-2.6,0.2c-1.6,0-3.2-0.3-4.8-0.8c-1.5-0.5-2.8-1.4-3.9-2.5c-1.2-1.2-2.1-2.5-2.6-4.1c-0.7-1.8-1-3.7-1-5.7
		c0-1.6,0.3-3.1,0.8-4.6c1.1-2.9,3.3-5.2,6.1-6.4C284.3,47.3,286,47,287.7,47 M287.9,52c-1.2-0.1-2.4,0.4-3.2,1.2
		c-0.9,0.9-1.4,2.1-1.5,3.4h9c0-0.6-0.1-1.1-0.2-1.7c-0.1-0.5-0.4-1-0.7-1.5c-0.4-0.4-0.8-0.8-1.3-1C289.3,52.1,288.6,52,287.9,52"
		/>
	<path class="st0" d="M336.4,62.6c0.2,0,0.4,0,0.6,0.1c0.2,0.1,0.4,0.2,0.6,0.4l3.2,3.4c-1.4,1.8-3.2,3.3-5.3,4.2
		c-2.4,1-5,1.5-7.6,1.4c-2.5,0-4.9-0.4-7.2-1.4c-2-0.9-3.9-2.1-5.4-3.8c-1.5-1.6-2.6-3.6-3.4-5.7c-0.8-2.3-1.2-4.7-1.2-7.1
		c0-2.5,0.4-4.9,1.3-7.2c0.9-2.1,2.1-4.1,3.8-5.7c1.7-1.6,3.6-2.9,5.8-3.7c2.4-0.9,4.9-1.4,7.4-1.3c1.2,0,2.5,0.1,3.7,0.3
		c1.1,0.2,2.2,0.5,3.3,1c1,0.4,1.9,0.9,2.8,1.5c0.8,0.5,1.6,1.2,2.3,1.9l-2.7,3.7c-0.2,0.2-0.4,0.4-0.6,0.6c-0.3,0.2-0.7,0.3-1,0.3
		c-0.3,0-0.6-0.1-0.8-0.2c-0.3-0.1-0.6-0.3-0.8-0.5c-0.3-0.2-0.6-0.4-1-0.6c-0.4-0.2-0.8-0.4-1.2-0.6c-0.5-0.2-1.1-0.4-1.7-0.5
		c-0.7-0.1-1.5-0.2-2.2-0.2c-1.4,0-2.8,0.2-4,0.8c-1.2,0.5-2.3,1.3-3.1,2.2c-0.9,1-1.6,2.2-2,3.5c-0.5,1.5-0.8,3.1-0.7,4.6
		c0,1.6,0.2,3.2,0.7,4.8c0.4,1.3,1.1,2.5,2,3.5c0.8,0.9,1.8,1.7,2.9,2.2c1.1,0.5,2.4,0.8,3.6,0.7c0.7,0,1.4,0,2-0.1
		c0.6-0.1,1.1-0.2,1.7-0.4c0.5-0.2,1-0.4,1.5-0.7c0.5-0.3,1-0.7,1.4-1c0.2-0.2,0.4-0.3,0.6-0.4C335.9,62.6,336.2,62.6,336.4,62.6"/>
	<path class="st0" d="M344.5,71.6v-35h7.2v12.9c0.9-0.7,1.8-1.3,2.8-1.8c1.2-0.5,2.4-0.7,3.7-0.7c1.2,0,2.4,0.2,3.5,0.7
		c1,0.4,1.9,1.1,2.6,1.9c0.7,0.9,1.3,1.9,1.6,2.9c0.4,1.2,0.6,2.4,0.5,3.7v15.4h-7.2V56.2c0.1-1-0.2-2-0.8-2.8
		c-0.6-0.7-1.5-1.1-2.4-1c-0.8,0-1.5,0.2-2.2,0.5c-0.7,0.4-1.4,0.8-2,1.4v17.3H344.5z"/>
	<path class="st0" d="M380.3,40.8c0,0.6-0.1,1.1-0.4,1.6c-0.2,0.5-0.6,1-1,1.3c-0.4,0.4-0.9,0.7-1.4,0.9c-0.5,0.2-1.1,0.3-1.7,0.3
		c-0.6,0-1.1-0.1-1.7-0.3c-0.5-0.2-1-0.5-1.4-0.9c-0.4-0.4-0.7-0.8-0.9-1.3c-0.2-0.5-0.3-1.1-0.3-1.6c0-0.6,0.1-1.1,0.3-1.7
		c0.2-0.5,0.5-1,0.9-1.4c0.4-0.4,0.9-0.7,1.4-0.9c0.5-0.2,1.1-0.3,1.7-0.3c0.6,0,1.2,0.1,1.7,0.3c1.1,0.4,1.9,1.2,2.4,2.3
		C380.2,39.6,380.3,40.2,380.3,40.8 M379.5,71.6h-7.2V47.4h7.2V71.6z"/>
	<rect x="386.1" y="36.7" class="st0" width="7.2" height="35"/>
	<path class="st0" d="M416.4,71.6c-0.4,0-0.8-0.1-1.1-0.3c-0.3-0.2-0.5-0.5-0.6-0.9l-0.6-1.8c-0.5,0.5-1,1-1.5,1.4
		c-0.5,0.4-1.1,0.8-1.7,1.1c-0.6,0.3-1.3,0.5-2,0.7c-0.8,0.2-1.5,0.3-2.3,0.2c-1.2,0-2.4-0.3-3.5-0.8c-1.1-0.6-2.1-1.4-2.8-2.4
		c-0.8-1.2-1.5-2.5-1.8-3.9c-0.5-1.7-0.7-3.5-0.7-5.2c0-1.7,0.2-3.4,0.7-5c0.5-1.5,1.2-2.8,2.1-4c0.9-1.1,2-2,3.3-2.7
		c1.3-0.6,2.8-1,4.2-1c1.1,0,2.2,0.2,3.2,0.5c0.9,0.4,1.6,0.8,2.3,1.4V36.7h7.2v35H416.4z M409.1,66.5c0.5,0,1,0,1.4-0.2
		c0.4-0.1,0.8-0.2,1.2-0.4c0.4-0.2,0.7-0.4,1-0.7c0.3-0.3,0.7-0.6,0.9-1V53.9c-0.5-0.6-1.1-1-1.8-1.3c-0.6-0.2-1.3-0.4-2-0.4
		c-0.6,0-1.3,0.1-1.8,0.4c-0.6,0.3-1.1,0.7-1.5,1.3c-0.5,0.7-0.8,1.5-1,2.3c-0.3,1.1-0.4,2.2-0.3,3.4c0,1.1,0.1,2.2,0.3,3.2
		c0.1,0.7,0.4,1.5,0.8,2.1c0.3,0.5,0.7,0.9,1.2,1.2C408,66.3,408.5,66.5,409.1,66.5"/>
	<path class="st0" d="M426.7,71.6V47.4h4.3c0.3,0,0.6,0,0.9,0.1c0.2,0.1,0.4,0.2,0.6,0.3c0.2,0.1,0.3,0.3,0.4,0.5
		c0.1,0.3,0.2,0.5,0.2,0.8l0.4,2.3c0.8-1.3,1.8-2.4,3-3.2c1-0.8,2.3-1.2,3.6-1.2c1,0,1.9,0.2,2.7,0.8l-0.9,5.3
		c0,0.3-0.2,0.5-0.4,0.7c-0.2,0.1-0.5,0.2-0.7,0.2c-0.3,0-0.6,0-0.9-0.1c-0.4-0.1-0.9-0.1-1.4-0.1c-1.9,0-3.4,1-4.5,3v14.9H426.7z"
		/>
	<path class="st0" d="M455.9,47c1.5,0,3,0.2,4.4,0.7c1.3,0.5,2.5,1.2,3.4,2.2c1,1,1.8,2.2,2.2,3.5c0.6,1.5,0.8,3.1,0.8,4.7
		c0,0.4,0,0.9-0.1,1.3c0,0.3-0.1,0.6-0.3,0.8c-0.1,0.2-0.3,0.3-0.5,0.4c-0.3,0.1-0.5,0.1-0.8,0.1h-14c0.1,1.6,0.7,3.2,1.8,4.4
		c1.1,0.9,2.4,1.4,3.9,1.4c0.7,0,1.5-0.1,2.2-0.3c0.6-0.2,1.1-0.4,1.6-0.7c0.5-0.2,0.9-0.5,1.3-0.7c0.4-0.2,0.8-0.3,1.3-0.3
		c0.5,0,1,0.2,1.3,0.6l2.1,2.6c-0.7,0.8-1.5,1.5-2.4,2.1c-0.8,0.5-1.7,0.9-2.7,1.3c-0.9,0.3-1.8,0.5-2.7,0.6
		c-0.9,0.1-1.7,0.2-2.6,0.2c-1.6,0-3.2-0.3-4.8-0.8c-1.5-0.5-2.8-1.4-3.9-2.5c-1.2-1.2-2.1-2.5-2.6-4.1c-0.7-1.8-1-3.7-1-5.7
		c0-1.6,0.3-3.1,0.8-4.6c1.1-2.9,3.3-5.2,6.1-6.4C452.5,47.3,454.2,47,455.9,47 M456.1,52c-1.2-0.1-2.4,0.4-3.2,1.2
		c-0.9,0.9-1.4,2.1-1.5,3.4h9c0-0.6-0.1-1.1-0.2-1.7c-0.1-0.5-0.4-1-0.7-1.5c-0.4-0.4-0.8-0.8-1.3-1C457.4,52.1,456.7,52,456.1,52"
		/>
	<path class="st0" d="M471.4,71.6V47.4h4.5c0.4,0,0.8,0.1,1.1,0.3c0.3,0.2,0.5,0.5,0.6,0.9l0.4,1.4c0.5-0.4,0.9-0.8,1.4-1.2
		c0.5-0.4,1-0.7,1.6-0.9c0.6-0.3,1.2-0.5,1.8-0.6c0.7-0.2,1.4-0.2,2.2-0.2c1.2,0,2.4,0.2,3.5,0.7c1,0.4,1.9,1.1,2.6,1.9
		c0.7,0.9,1.3,1.8,1.6,2.9c0.4,1.2,0.6,2.4,0.5,3.7v15.4h-7.2V56.2c0.1-1-0.2-2-0.8-2.8c-0.6-0.7-1.5-1.1-2.4-1
		c-0.8,0-1.5,0.2-2.2,0.5c-0.7,0.4-1.4,0.8-2,1.4v17.3H471.4z"/>
	<path class="st1" d="M92.1,27.3c4.3-5.1,6.2-7.4,5.8-8.7c-0.5-1.2-1.6-2-2.8-2.4c-1.6-0.6-3.8-0.9-4.9-0.2
		c-0.9,0.8-1.7,1.6-2.4,2.5l-1.4,1.5c-0.9-0.9-1.8-1.8-2.7-2.5C77.1,11.8,69,8.1,60.4,6.7C56.9,3,52.3,1.3,47.9,2
		c-3.9,0.7-7.3,3-9.3,6.3c-8.9,2.7-16.8,7.8-23.1,14.6v0c-1.4-0.4-4.5,0.1-6.4,1.2c-0.9,0.4-1.6,1.2-1.9,2.1
		c-0.1,0.6,0.1,1.5,2.5,4.3c-6.2,9.8-8.8,21.4-7.5,32.9C3.4,75,9,85.6,17.7,93.2c3,2.7,6.4,4.9,10.1,6.7c16.9,8.1,36.7,7.4,52.9-1.9
		l0,0c1.3-0.8,1.8-2.4,1.1-3.8l-0.2-0.4c-2.7-6-10.8-24.1-6.3-40.7c1.9-6.9,7.3-14.3,12-20.1c5,7.8,7.5,16.9,7.2,26.1
		c-0.3,8.4-3.2,16.6-8.2,23.4c-0.2,0.3-0.3,0.7-0.1,1l0.5,1.2c0.2,0.5,0.8,0.7,1.3,0.5c0.1-0.1,0.3-0.2,0.4-0.3
		C101.7,67.9,103.3,44.7,92.1,27.3 M33.3,66.5c-1.8,9.1-2.2,18.4-1.2,27.6l0,0c-3.4-1.7-6.7-3.9-9.6-6.4
		C14.6,80.8,9.2,71.5,7.4,61.2C5.6,51.5,7.2,41.6,11.9,33c1.8,1.9,3.9,4,6.2,6.2c5.5,5.5,11.8,11.7,14.8,16.1
		C34.7,57.9,34.2,61.1,33.3,66.5 M81.3,25.4C71.2,35.6,61.5,41.2,52.8,41.8c-6.7,0.5-13.8-1.5-21.2-6c-4.9-3.1-9.4-6.7-13.5-10.7
		l-0.3-0.3c5-5.4,11.4-9.3,18.4-11.4v0h0h0c-0.8,2.8-0.9,5.8-0.4,8.7c0.7,5.1,3.4,9.7,7.5,12.9c5.7,4.5,14,3.5,18.5-2.3
		c0.2-0.2,0.4-0.5,0.5-0.7c2.9-4.2,4.1-9.5,3.2-14.5c-0.2-1-0.4-1.9-0.7-2.9c5.1,2,9.8,4.8,14,8.4C79.7,23.8,80.5,24.6,81.3,25.4
		L81.3,25.4z"/>
</g>
</svg>
