<?xml version="1.0" encoding="UTF-8"?>
<svg id="Livello_2" data-name="Livello 2" xmlns="http://www.w3.org/2000/svg" viewBox="0 0 546.89 115.34">
  <defs>
    <style>
      .cls-1, .cls-2 {
        stroke-width: 0px;
      }

      .cls-2 {
        fill: #da291c;
      }
    </style>
  </defs>
  <g id="Livello_1-2" data-name="Livello 1">
    <g id="save-the-children-name-outline">
      <path class="cls-1" d="m153.45,46.55c-.22.37-.5.7-.84.96-.34.23-.73.34-1.14.32-.47-.02-.92-.15-1.32-.39-.47-.26-1.01-.55-1.61-.87-.66-.35-1.34-.64-2.05-.87-.85-.27-1.73-.4-2.62-.39-1.35-.11-2.7.28-3.79,1.08-.84.74-1.3,1.82-1.24,2.93-.02.73.25,1.43.75,1.96.57.56,1.23,1.02,1.97,1.34.9.41,1.83.75,2.79,1.03,1.04.31,2.11.66,3.2,1.04,1.09.39,2.16.84,3.2,1.35,1.03.51,1.97,1.18,2.79,1.98.84.84,1.51,1.84,1.97,2.93.53,1.32.79,2.74.75,4.16.01,1.73-.3,3.45-.94,5.06-.61,1.55-1.53,2.95-2.72,4.11-1.26,1.21-2.75,2.15-4.39,2.76-1.9.7-3.91,1.03-5.93,1-1.25,0-2.49-.13-3.71-.38-1.25-.25-2.47-.6-3.66-1.06-1.15-.44-2.26-.98-3.32-1.61-.98-.58-1.89-1.29-2.7-2.09l2.68-4.23c.2-.33.49-.6.83-.78.35-.19.75-.3,1.15-.29.58.01,1.14.19,1.62.51.54.34,1.16.71,1.85,1.12.76.44,1.55.82,2.37,1.12,1.01.36,2.09.53,3.16.51,1.36.08,2.71-.3,3.83-1.08.97-.87,1.48-2.14,1.37-3.44.04-.81-.23-1.6-.75-2.22-.55-.61-1.22-1.09-1.97-1.42-.9-.4-1.82-.74-2.77-.99-1.04-.28-2.1-.6-3.19-.95-1.09-.35-2.16-.78-3.19-1.29-1.03-.51-1.97-1.19-2.77-2.01-.85-.9-1.52-1.95-1.97-3.11-.54-1.47-.79-3.03-.75-4.59,0-1.47.3-2.93.88-4.28.6-1.41,1.49-2.67,2.6-3.72,1.22-1.14,2.64-2.02,4.2-2.61,1.82-.68,3.76-1.01,5.7-.98,1.17,0,2.34.09,3.49.28,1.1.18,2.18.46,3.23.83.99.35,1.94.79,2.85,1.31.85.49,1.65,1.07,2.37,1.73l-2.24,4.2Z"/>
      <path class="cls-1" d="m179.53,77.64c-.59.03-1.19-.07-1.73-.31-.47-.31-.81-.77-.98-1.3l-.57-1.48c-.68.57-1.33,1.08-1.95,1.51-.61.43-1.26.8-1.94,1.11-.68.31-1.4.53-2.13.68-.83.15-1.67.23-2.51.22-1.14.01-2.27-.15-3.35-.48-.94-.29-1.82-.77-2.56-1.42-.71-.64-1.27-1.44-1.62-2.33-.4-1.03-.59-2.12-.57-3.22.02-1.03.27-2.03.73-2.95.59-1.12,1.46-2.07,2.52-2.75,1.49-.95,3.12-1.65,4.84-2.07,2.51-.61,5.09-.89,7.67-.83v-1.15c.11-1.23-.24-2.46-.98-3.45-.73-.74-1.74-1.13-2.77-1.06-.79-.02-1.58.08-2.34.31-.56.19-1.1.42-1.62.7-.48.26-.94.49-1.39.7-.51.22-1.06.33-1.61.31-.5.02-1-.12-1.42-.4-.38-.26-.7-.6-.92-1l-1.46-2.52c1.58-1.41,3.42-2.5,5.42-3.21,2.05-.71,4.21-1.07,6.38-1.05,1.51-.02,3,.25,4.41.79,1.25.49,2.39,1.24,3.33,2.21.92.97,1.64,2.11,2.09,3.37.5,1.37.74,2.81.73,4.26v16.85h-3.69Zm-9.26-4.91c.94.02,1.87-.17,2.73-.54.89-.44,1.69-1.04,2.37-1.76v-3.7c-1.33-.02-2.67.08-3.98.32-.86.15-1.69.41-2.47.79-.51.23-.95.61-1.26,1.08-.23.4-.35.85-.35,1.31-.08.73.2,1.46.75,1.95.66.42,1.43.62,2.21.57Z"/>
      <path class="cls-1" d="m203.19,77.64h-7.33l-10.45-26.96h6.71c.51-.02,1.01.12,1.44.4.37.24.64.59.79,1l3.74,12.09c.29.99.58,1.95.84,2.89s.5,1.87.69,2.81c.19-.93.42-1.87.7-2.81s.57-1.9.88-2.89l3.9-12.09c.15-.41.42-.76.78-1,.4-.27.87-.41,1.35-.4h6.4l-10.45,26.96Z"/>
      <path class="cls-1" d="m227.89,50.26c1.67-.02,3.33.26,4.9.83,1.43.52,2.74,1.35,3.82,2.42,1.1,1.1,1.95,2.43,2.5,3.89.62,1.67.93,3.44.9,5.21,0,.5-.02.99-.08,1.48-.03.32-.13.63-.29.91-.13.22-.32.38-.56.47-.29.09-.59.14-.9.13h-15.55c.07,1.83.8,3.57,2.05,4.9,1.18,1.04,2.72,1.59,4.29,1.52.82.02,1.64-.1,2.42-.34.62-.2,1.23-.45,1.81-.75.53-.28,1.01-.53,1.46-.75.43-.22.91-.34,1.39-.34.57-.03,1.12.23,1.46.7l2.34,2.89c-.78.91-1.68,1.69-2.69,2.33-.93.58-1.92,1.05-2.96,1.4-.99.33-2.01.57-3.04.7-.96.13-1.93.19-2.9.2-1.81.01-3.61-.3-5.32-.92-1.63-.6-3.11-1.53-4.34-2.74-1.29-1.28-2.29-2.83-2.94-4.52-.76-2.01-1.12-4.15-1.08-6.29,0-1.75.3-3.49.92-5.12,1.2-3.22,3.67-5.79,6.84-7.12,1.76-.73,3.65-1.09,5.55-1.06Zm.16,5.56c-1.33-.08-2.64.4-3.61,1.31-.95,1.05-1.55,2.37-1.72,3.78h10.06c0-.63-.08-1.26-.25-1.87-.16-.59-.43-1.14-.81-1.62-.39-.49-.9-.89-1.47-1.16-.69-.31-1.45-.46-2.21-.44h0Z"/>
      <path class="cls-1" d="m264.91,78.06c-1.16.02-2.31-.17-3.39-.56-1.88-.68-3.35-2.17-3.99-4.07-.36-1.05-.54-2.14-.52-3.25v-13.94h-2.29c-.8.03-1.48-.59-1.51-1.4,0-.06,0-.13,0-.19v-3.15l4.29-.83,1.59-6.58c.18-.81.94-1.35,1.77-1.25h4.22v7.88h6.55v5.51h-6.55v13.39c-.02.55.14,1.09.45,1.55.31.41.8.64,1.31.61.25,0,.5-.02.74-.09.18-.05.35-.12.52-.21.15-.08.29-.15.42-.21.14-.06.3-.1.46-.09.21,0,.41.05.58.17.18.15.33.33.45.53l2.44,3.82c-1.06.79-2.25,1.38-3.51,1.75-1.31.39-2.67.59-4.03.59Z"/>
      <path class="cls-1" d="m276.14,77.64v-38.92h8.06v14.33c.95-.82,2.02-1.5,3.16-2.01,1.29-.54,2.67-.8,4.07-.77,1.34-.03,2.68.24,3.91.77,1.1.49,2.09,1.22,2.87,2.13.8.95,1.4,2.06,1.77,3.25.41,1.33.61,2.71.6,4.1v17.13h-8.06v-17.13c.07-1.1-.25-2.19-.91-3.08-.67-.77-1.66-1.17-2.68-1.11-.87,0-1.72.19-2.5.57-.81.4-1.57.92-2.24,1.54v19.21h-8.06Z"/>
      <path class="cls-1" d="m318.11,50.26c1.67-.02,3.33.26,4.9.83,1.43.52,2.74,1.35,3.82,2.42,1.1,1.1,1.95,2.43,2.5,3.89.62,1.67.93,3.44.9,5.21,0,.5-.02.99-.08,1.48-.03.32-.13.63-.29.91-.13.22-.32.38-.56.47-.29.09-.59.14-.9.13h-15.55c.07,1.83.8,3.57,2.05,4.9,1.18,1.04,2.72,1.59,4.29,1.52.82.02,1.63-.1,2.42-.34.62-.2,1.23-.45,1.81-.75.53-.28,1.01-.53,1.45-.75.43-.22.91-.34,1.39-.34.57-.03,1.12.23,1.46.7l2.34,2.89c-.78.91-1.68,1.69-2.69,2.33-.93.58-1.92,1.05-2.96,1.4-.99.33-2.01.57-3.04.7-.96.13-1.93.2-2.9.2-1.81.01-3.61-.3-5.32-.92-1.63-.6-3.11-1.53-4.34-2.74-1.29-1.28-2.29-2.82-2.94-4.52-.76-2.01-1.12-4.15-1.08-6.29,0-1.75.3-3.49.92-5.12,1.2-3.22,3.67-5.8,6.84-7.12,1.76-.73,3.65-1.1,5.55-1.06Zm.16,5.56c-1.33-.08-2.64.4-3.61,1.31-.95,1.05-1.55,2.37-1.72,3.78h10.06c0-.63-.08-1.26-.25-1.87-.15-.59-.43-1.14-.8-1.62-.39-.49-.9-.89-1.47-1.16-.7-.31-1.45-.46-2.21-.44Z"/>
      <path class="cls-1" d="m372.24,67.54c.22,0,.44.04.64.12.23.09.44.23.61.42l3.59,3.78c-1.54,2.03-3.57,3.63-5.9,4.65-2.66,1.1-5.52,1.64-8.4,1.57-2.73.05-5.44-.47-7.97-1.51-2.27-.95-4.3-2.38-5.97-4.18-1.67-1.83-2.95-3.98-3.76-6.32-.89-2.55-1.34-5.24-1.31-7.94-.03-2.75.48-5.47,1.5-8.02.95-2.37,2.38-4.51,4.19-6.31,1.84-1.8,4.04-3.2,6.44-4.12,2.64-1.01,5.45-1.51,8.27-1.47,1.39,0,2.77.12,4.14.39,1.24.24,2.46.6,3.63,1.07,1.09.44,2.13.98,3.11,1.63.91.61,1.76,1.31,2.52,2.1l-3.05,4.1c-.2.26-.44.49-.7.68-.33.22-.73.33-1.12.31-.32,0-.63-.07-.91-.21-.31-.16-.62-.33-.91-.52-.32-.2-.67-.43-1.06-.67-.43-.27-.89-.49-1.37-.67-.6-.23-1.22-.4-1.85-.52-.82-.15-1.65-.22-2.48-.21-1.54-.02-3.08.28-4.5.87-1.33.56-2.53,1.41-3.49,2.49-1.01,1.14-1.78,2.48-2.28,3.92-.57,1.66-.84,3.41-.82,5.17-.03,1.81.25,3.61.82,5.33.48,1.44,1.23,2.77,2.22,3.92.9,1.04,2.02,1.87,3.28,2.42,1.27.56,2.63.84,4.02.83.75,0,1.5-.04,2.25-.12.64-.07,1.27-.21,1.89-.42.58-.2,1.14-.45,1.66-.76.56-.34,1.1-.73,1.59-1.16.21-.18.45-.33.7-.44.24-.11.51-.17.77-.17Z"/>
      <path class="cls-1" d="m381.22,77.64v-38.92h8.06v14.33c.95-.82,2.01-1.5,3.16-2.01,1.29-.54,2.67-.8,4.07-.77,1.34-.03,2.68.24,3.91.77,1.1.49,2.09,1.22,2.87,2.13.8.95,1.4,2.06,1.77,3.25.41,1.33.61,2.71.6,4.1v17.13h-8.06v-17.13c.07-1.1-.26-2.19-.91-3.08-.67-.77-1.66-1.18-2.68-1.11-.87,0-1.72.19-2.5.57-.81.4-1.57.92-2.24,1.54v19.22h-8.06Z"/>
      <path class="cls-1" d="m421.1,43.29c0,.62-.13,1.24-.39,1.81-.26.56-.62,1.06-1.07,1.48-.46.43-.99.78-1.57,1.01-.61.25-1.26.38-1.91.38-.63,0-1.26-.12-1.85-.38-.56-.24-1.08-.59-1.52-1.01-.44-.42-.79-.92-1.04-1.48-.25-.57-.38-1.18-.38-1.81,0-.63.12-1.26.38-1.85.25-.57.6-1.08,1.04-1.51.44-.43.95-.77,1.52-1.01.58-.25,1.21-.37,1.85-.37.65,0,1.3.12,1.91.37,1.17.47,2.12,1.37,2.64,2.52.26.58.4,1.21.39,1.85Zm-.94,7.39v26.96h-8.06v-26.96h8.06Z"/>
      <path class="cls-1" d="m435.56,38.72v38.92h-8.06v-38.92h8.06Z"/>
      <path class="cls-1" d="m461.24,77.64c-.44.02-.88-.1-1.26-.34-.35-.24-.6-.6-.71-1.01l-.62-2.05c-.53.56-1.09,1.08-1.69,1.56-.59.47-1.23.88-1.91,1.21-.7.35-1.45.61-2.21.78-.84.19-1.7.28-2.56.27-1.36.01-2.7-.31-3.9-.94-1.23-.65-2.28-1.57-3.09-2.7-.93-1.31-1.62-2.78-2.04-4.33-.52-1.9-.77-3.87-.74-5.84-.02-1.9.26-3.79.83-5.6.5-1.62,1.3-3.14,2.35-4.47.99-1.24,2.24-2.24,3.65-2.95,1.46-.72,3.08-1.08,4.71-1.07,1.2-.03,2.4.17,3.52.61.95.4,1.83.94,2.61,1.6v-13.66h8.06v38.92h-4.99Zm-8.16-5.77c.54,0,1.07-.05,1.6-.17.46-.11.9-.27,1.31-.48.41-.21.79-.48,1.13-.78.38-.34.73-.7,1.05-1.09v-11.44c-.54-.62-1.23-1.11-1.99-1.42-.71-.27-1.46-.4-2.22-.4-.71,0-1.41.14-2.05.44-.66.32-1.22.81-1.62,1.42-.51.77-.88,1.63-1.08,2.53-.28,1.24-.41,2.5-.39,3.77-.02,1.2.08,2.41.31,3.59.15.83.45,1.62.87,2.35.32.55.78.99,1.34,1.29.54.26,1.14.4,1.74.39Z"/>
      <path class="cls-1" d="m472.68,77.64v-26.96h4.79c.34,0,.67.03,1,.1.25.06.48.17.68.32.19.16.33.36.42.58.11.29.19.58.25.89l.44,2.52c.87-1.4,2-2.63,3.33-3.61,1.17-.86,2.58-1.33,4.03-1.33,1.06-.05,2.11.26,2.96.88l-1.04,5.93c-.03.3-.18.58-.42.77-.25.16-.54.23-.83.22-.35,0-.7-.04-1.04-.12-.5-.09-1-.13-1.51-.12-2.12,0-3.78,1.13-4.99,3.38v16.54h-8.06Z"/>
      <path class="cls-1" d="m505.18,50.26c1.67-.02,3.33.26,4.9.83,1.43.52,2.74,1.35,3.82,2.42,1.1,1.1,1.95,2.43,2.5,3.89.62,1.67.93,3.44.9,5.21,0,.5-.02.99-.08,1.48-.03.32-.13.63-.29.91-.13.22-.32.38-.56.47-.29.09-.59.14-.9.13h-15.55c.07,1.83.8,3.57,2.05,4.9,1.18,1.04,2.72,1.59,4.29,1.52.82.02,1.64-.1,2.42-.34.62-.2,1.23-.45,1.81-.75.53-.28,1.01-.53,1.46-.75.43-.22.91-.34,1.39-.34.57-.03,1.12.23,1.46.7l2.34,2.89c-.78.91-1.68,1.69-2.69,2.33-.93.58-1.92,1.05-2.96,1.4-.99.33-2.01.57-3.04.7-.96.13-1.93.19-2.9.2-1.81.01-3.61-.3-5.32-.92-1.63-.6-3.11-1.53-4.34-2.74-1.29-1.28-2.29-2.83-2.94-4.52-.76-2.01-1.12-4.15-1.08-6.29,0-1.75.3-3.49.92-5.12,1.2-3.22,3.67-5.79,6.84-7.12,1.76-.73,3.65-1.09,5.55-1.06Zm.16,5.56c-1.33-.08-2.64.4-3.61,1.31-.95,1.05-1.55,2.37-1.72,3.78h10.06c0-.63-.08-1.26-.25-1.87-.16-.59-.43-1.14-.8-1.62-.39-.49-.9-.89-1.47-1.16-.69-.31-1.45-.46-2.21-.44Z"/>
      <path class="cls-1" d="m522.45,77.64v-26.96h4.99c.44-.02.88.1,1.26.34.35.24.6.6.72,1.01l.47,1.56c.51-.48,1.05-.93,1.61-1.35.55-.42,1.15-.77,1.78-1.05.66-.29,1.35-.52,2.05-.68.79-.17,1.6-.25,2.41-.25,1.34-.03,2.68.24,3.91.77,1.1.49,2.09,1.22,2.87,2.13.8.95,1.4,2.06,1.77,3.25.41,1.33.61,2.71.6,4.1v17.13h-8.06v-17.13c.07-1.1-.25-2.19-.91-3.08-.67-.77-1.66-1.17-2.68-1.11-.87,0-1.72.19-2.5.57-.81.4-1.57.92-2.24,1.54v19.21h-8.06Z"/>
    </g>
    <g id="save-the-children-symbol">
      <path class="cls-2" d="m100.44,28.3c4.77-5.64,6.89-8.24,6.43-9.66-.61-1.3-1.75-2.26-3.13-2.64-1.8-.68-4.26-.99-5.5-.27-.99.85-1.9,1.79-2.7,2.82l-1.51,1.7h0c-.96-.98-1.99-1.96-2.99-2.83-7.31-6.37-16.28-10.53-25.87-12C61.29,1.31,56.23-.61,51.24.17c-4.31.75-8.1,3.31-10.39,7.04-9.86,3.02-18.73,8.64-25.67,16.26h0c-1.57-.48-5.01.13-7.16,1.31-1.02.42-1.79,1.29-2.1,2.35-.12.67.15,1.71,2.83,4.77h0C1.87,42.81-1.09,55.72.36,68.52c1.45,12.81,7.62,24.61,17.31,33.11,3.39,2.96,7.16,5.45,11.2,7.42,18.76,9.06,40.79,8.28,58.86-2.08l.02-.02c1.47-.85,2.02-2.7,1.25-4.22l-.22-.49c-2.96-6.64-11.98-26.86-6.96-45.3,2.1-7.72,8.16-15.94,13.39-22.39h0c5.58,8.64,8.37,18.78,8.01,29.06-.33,9.39-3.53,18.46-9.17,25.99-.25.31-.32.74-.16,1.11l.57,1.33c.25.55.9.79,1.45.53.15-.07.29-.17.39-.3h0c14.81-18.77,16.58-44.61,4.13-63.97Zm-65.42,43.61c-1.96,10.13-2.41,20.49-1.34,30.75h0c-3.84-1.95-7.42-4.36-10.67-7.18-8.8-7.63-14.73-18.04-16.82-29.51-1.96-10.72-.16-21.79,5.08-31.35h0c1.99,2.07,4.38,4.46,6.9,6.95,6.15,6.09,13.12,13,16.51,17.92,1.96,2.85,1.35,6.45.33,12.41m53.46-45.74c-11.33,11.39-22.01,17.57-31.73,18.3-7.48.56-15.4-1.66-23.54-6.63-5.42-3.43-10.46-7.43-15.03-11.93l-.32-.3h0c5.58-5.96,12.64-10.34,20.46-12.68h0s0,0,0,0h0c-.84,3.15-1,6.44-.47,9.66.79,5.68,3.79,10.82,8.34,14.31,6.37,4.98,15.58,3.85,20.55-2.52.2-.26.4-.53.58-.8,3.27-4.71,4.54-10.53,3.55-16.17-.17-1.08-.41-2.15-.73-3.2h0c5.69,2.18,10.96,5.34,15.54,9.35.94.82,1.88,1.7,2.79,2.62h0Z"/>
    </g>
  </g>
</svg>