<svg viewBox="0 0 141 55" fill="none" xmlns="http://www.w3.org/2000/svg">
<path d="M0.621224 48.822C1.04278 48.4004 1.64184 48.2007 2.24089 48.2007C3.43901 48.2007 3.92713 48.7776 3.92713 49.9091V51.6397C3.92713 51.8838 3.94931 52.1279 3.99369 52.3497H3.35026C3.30588 52.1722 3.30588 51.9282 3.30588 51.7507H3.28369C3.01745 52.1722 2.5737 52.4607 1.95246 52.4607C1.13153 52.4607 0.443726 52.0391 0.443726 51.2626C0.443726 49.9313 1.99683 49.8426 2.99526 49.8426H3.26151V49.7316C3.26151 49.1326 2.88432 48.8441 2.26308 48.8441C1.84152 48.8441 1.37559 48.9995 1.06497 49.2879L0.621224 48.822ZM2.5737 50.3973C1.7084 50.3973 1.15372 50.6413 1.15372 51.1738C1.15372 51.6841 1.5309 51.8838 2.04121 51.8838C2.81776 51.8838 3.21713 51.3291 3.23932 50.6635V50.3973H2.5737Z" fill="white"/>
<path d="M7.80993 51.2847C8.07618 51.6176 8.36461 51.8394 8.85273 51.8394C9.27429 51.8394 9.74022 51.6619 9.74022 51.2182C9.74022 50.7966 9.31866 50.6635 8.87492 50.5748C8.09836 50.3973 7.45493 50.2419 7.45493 49.3988C7.45493 48.6223 8.2093 48.2007 8.96367 48.2007C9.54053 48.2007 10.073 48.4226 10.3393 48.9329L9.7846 49.3101C9.6071 49.0216 9.31866 48.822 8.91929 48.822C8.54211 48.822 8.12055 48.9995 8.12055 49.3766C8.12055 49.7095 8.60867 49.8648 9.14117 49.9757C9.85116 50.1088 10.4724 50.3751 10.4724 51.196C10.4724 52.1057 9.65147 52.4607 8.85273 52.4607C8.16493 52.4607 7.67681 52.2832 7.27744 51.7063L7.80993 51.2847Z" fill="white"/>
<path d="M15.0208 51.3957C15.0208 51.7729 15.0651 52.0835 15.0651 52.3497H14.4217C14.4217 52.1279 14.3995 51.906 14.3995 51.6841H14.3773C14.1998 52.0835 13.6895 52.4607 13.0239 52.4607C11.9589 52.4607 11.493 51.795 11.493 50.8188V48.3116H12.1586V50.7522C12.1586 51.4179 12.447 51.8616 13.0905 51.8616C13.9558 51.8616 14.3551 51.2404 14.3551 50.3085V48.3338H15.0208V51.3957Z" fill="white"/>
<path d="M16.352 45.8045H17.0176V48.8885H17.0398C17.417 48.4669 17.9051 48.2007 18.482 48.2007C19.7466 48.2007 20.6119 49.1104 20.6119 50.3307C20.6119 51.551 19.7245 52.4607 18.5929 52.4607C17.8607 52.4607 17.2839 52.1057 17.0398 51.6397H17.0176V52.3497H16.352V45.8045ZM18.4598 51.8172C19.3251 51.8172 19.902 51.1516 19.902 50.3085C19.902 49.4654 19.3473 48.7998 18.4598 48.7998C17.5945 48.7998 17.0176 49.4654 17.0176 50.3085C17.0176 51.1738 17.5945 51.8172 18.4598 51.8172Z" fill="white"/>
<path d="M21.8322 51.2847C22.0985 51.6176 22.3869 51.8394 22.875 51.8394C23.2966 51.8394 23.7625 51.6619 23.7625 51.2182C23.7625 50.7966 23.341 50.6635 22.8972 50.5748C22.1207 50.3973 21.4772 50.2419 21.4772 49.3988C21.4772 48.6223 22.2316 48.2007 22.986 48.2007C23.5628 48.2007 24.0953 48.4226 24.3616 48.9329L23.8069 49.3101C23.6294 49.0216 23.341 48.822 22.9416 48.822C22.5644 48.822 22.1429 48.9995 22.1429 49.3766C22.1429 49.7095 22.631 49.8648 23.1635 49.9757C23.8735 50.1088 24.4947 50.3751 24.4947 51.196C24.4947 52.1057 23.6738 52.4607 22.875 52.4607C22.1872 52.4607 21.6991 52.2832 21.2997 51.7063L21.8322 51.2847Z" fill="white"/>
<path d="M25.9147 46.226C26.181 46.226 26.4028 46.4479 26.4028 46.7142C26.4028 47.0026 26.2032 47.2023 25.9147 47.2023C25.6263 47.2023 25.4266 47.0026 25.4266 46.7142C25.4266 46.4479 25.6485 46.226 25.9147 46.226ZM25.5819 48.2895H26.2475V52.3275H25.5819V48.2895Z" fill="white"/>
<path d="M31.04 51.6175C30.7737 52.0835 30.1968 52.4385 29.4647 52.4385C28.3331 52.4385 27.4456 51.5288 27.4456 50.3085C27.4456 49.0882 28.3109 48.1785 29.5756 48.1785C30.1747 48.1785 30.6628 48.4448 31.0178 48.8663H31.04V45.7823H31.7056V52.3275H31.04V51.6175ZM29.62 48.8219C28.7547 48.8219 28.1778 49.4876 28.1778 50.3307C28.1778 51.1738 28.7325 51.8394 29.62 51.8394C30.5075 51.8394 31.0621 51.1738 31.0621 50.3307C31.04 49.4654 30.4853 48.8219 29.62 48.8219Z" fill="white"/>
<path d="M33.4362 46.226C33.7024 46.226 33.9243 46.4479 33.9243 46.7142C33.9243 47.0026 33.7246 47.2023 33.4362 47.2023C33.1477 47.2023 32.9481 47.0026 32.9481 46.7142C32.9481 46.4479 33.1699 46.226 33.4362 46.226ZM33.1034 48.2895H33.769V52.3275H33.1034V48.2895Z" fill="white"/>
<path d="M35.1446 48.822C35.5662 48.4004 36.1652 48.2007 36.7643 48.2007C37.9624 48.2007 38.4505 48.7776 38.4505 49.9091V51.6397C38.4505 51.8838 38.4727 52.1279 38.5171 52.3497H37.8736C37.8293 52.1722 37.8293 51.9282 37.8293 51.7507H37.8071C37.5408 52.1722 37.0971 52.4607 36.4758 52.4607C35.6549 52.4607 34.9671 52.0391 34.9671 51.2626C34.9671 49.9313 36.5202 49.8426 37.5186 49.8426H37.7849V49.7316C37.7849 49.1326 37.4077 48.8441 36.7865 48.8441C36.3649 48.8441 35.899 48.9995 35.5883 49.2879L35.1446 48.822ZM37.0971 50.3973C36.2318 50.3973 35.6771 50.6413 35.6771 51.1738C35.6771 51.6841 36.0543 51.8838 36.5646 51.8838C37.3411 51.8838 37.7405 51.3291 37.7627 50.6635V50.3973H37.0971Z" fill="white"/>
<path d="M39.7817 49.2657C39.7817 48.8885 39.7374 48.5779 39.7374 48.3117H40.3808C40.3808 48.5335 40.403 48.7554 40.403 48.9773H40.4252C40.6027 48.5779 41.113 48.2007 41.7786 48.2007C41.8673 48.2007 41.9561 48.2007 42.0448 48.2451L42.0005 48.9329C41.8895 48.8885 41.7564 48.8885 41.6455 48.8885C40.8245 48.8885 40.4695 49.4654 40.4695 50.3973V52.3719H39.8039V49.2657H39.7817Z" fill="white"/>
<path d="M44.3967 53.2816C44.1304 53.9694 43.8642 54.4353 43.0433 54.4353C42.8436 54.4353 42.6217 54.4131 42.4442 54.3244L42.533 53.7253C42.6661 53.7697 42.8214 53.7919 42.9989 53.7919C43.4426 53.7919 43.598 53.5257 43.7533 53.1263L44.0195 52.3719L42.3333 48.2895H43.1098L44.3745 51.4622H44.3967L45.5948 48.2895H46.327L44.3967 53.2816Z" fill="white"/>
<path d="M51.5854 48.2007C52.8278 48.2007 53.7375 49.066 53.7375 50.3307C53.7375 51.5954 52.8278 52.4607 51.5854 52.4607C50.3429 52.4607 49.4332 51.5954 49.4332 50.3307C49.4332 49.066 50.3429 48.2007 51.5854 48.2007ZM51.5854 51.8172C52.4507 51.8172 53.0275 51.1516 53.0275 50.3085C53.0275 49.4654 52.4729 48.7998 51.5854 48.7998C50.6979 48.7998 50.1432 49.4654 50.1432 50.3085C50.1432 51.1738 50.7201 51.8172 51.5854 51.8172Z" fill="white"/>
<path d="M55.2241 48.8663H54.3366V48.2894H55.2241V47.3798C55.2241 46.4035 55.5791 45.6935 56.6662 45.6935C56.8437 45.6935 57.0656 45.7379 57.1765 45.8045L57.0878 46.4035C56.9325 46.3592 56.7772 46.3148 56.6219 46.3148C55.9119 46.3148 55.8897 46.8251 55.8897 47.5351V48.2894H56.8659V48.8663H55.8897V52.3497H55.2241V48.8663Z" fill="white"/>
<path d="M64.5871 47.4907C64.2321 47.0026 63.6553 46.7364 63.0562 46.7364C61.6806 46.7364 60.7265 47.9345 60.7265 49.2879C60.7265 50.7079 61.6806 51.8394 63.0562 51.8394C63.8106 51.8394 64.3874 51.5288 64.8312 50.9741L65.3859 51.4401C64.8312 52.1722 64.0546 52.505 63.0784 52.505C61.3256 52.505 59.9722 51.1516 59.9722 49.2879C59.9722 47.4907 61.259 46.0707 63.0784 46.0707C63.8993 46.0707 64.7202 46.3592 65.2305 47.0248L64.5871 47.4907Z" fill="white"/>
<path d="M66.2955 48.822C66.7171 48.4004 67.3161 48.2007 67.9152 48.2007C69.1133 48.2007 69.6014 48.7776 69.6014 49.9091V51.6397C69.6014 51.8838 69.6236 52.1279 69.668 52.3497H69.0245C68.9802 52.1722 68.9802 51.9282 68.9802 51.7507H68.958C68.6917 52.1722 68.248 52.4607 67.6267 52.4607C66.8058 52.4607 66.118 52.0391 66.118 51.2626C66.118 49.9313 67.6711 49.8426 68.6695 49.8426H68.9358V49.7316C68.9358 49.1326 68.5586 48.8441 67.9374 48.8441C67.5158 48.8441 67.0499 48.9995 66.7393 49.2879L66.2955 48.822ZM68.2702 50.3973C67.4049 50.3973 66.8502 50.6413 66.8502 51.1738C66.8502 51.6841 67.2274 51.8838 67.7377 51.8838C68.5142 51.8838 68.9136 51.3291 68.9358 50.6635V50.3973H68.2702Z" fill="white"/>
<path d="M70.8883 45.8045H71.5539V48.8885H71.5761C71.9533 48.4669 72.4414 48.2007 73.0183 48.2007C74.283 48.2007 75.1483 49.1104 75.1483 50.3307C75.1483 51.551 74.2608 52.4607 73.1292 52.4607C72.397 52.4607 71.8202 52.1057 71.5761 51.6397H71.5539V52.3497H70.8883V45.8045ZM73.0183 51.8172C73.8836 51.8172 74.4604 51.1516 74.4604 50.3085C74.4604 49.4654 73.9058 48.7998 73.0183 48.7998C72.153 48.7998 71.5761 49.4654 71.5761 50.3085C71.5761 51.1738 72.1308 51.8172 73.0183 51.8172Z" fill="white"/>
<path d="M76.3685 45.8045H77.0341V52.3497H76.3685V45.8045Z" fill="white"/>
<path d="M82.0706 51.6176C81.6047 52.2388 81.0278 52.4607 80.2735 52.4607C79.0088 52.4607 78.2322 51.5066 78.2322 50.3307C78.2322 49.066 79.1197 48.2007 80.3178 48.2007C81.4494 48.2007 82.2481 48.9773 82.2481 50.3307V50.5526H78.9866C79.031 51.2626 79.5857 51.8394 80.3178 51.8394C80.8947 51.8394 81.2941 51.6397 81.6047 51.2182L82.0706 51.6176ZM81.4938 49.9535C81.4716 49.2657 81.0278 48.822 80.2735 48.822C79.5191 48.822 79.031 49.2879 78.9422 49.9535H81.4938Z" fill="white"/>
<path d="M83.4906 46.226H84.2228V51.6841H87.0184V52.3497H83.4906V46.226Z" fill="white"/>
<path d="M87.7284 48.822C88.15 48.4004 88.749 48.2007 89.3481 48.2007C90.5462 48.2007 91.0343 48.7776 91.0343 49.9091V51.6397C91.0343 51.8838 91.0565 52.1279 91.1009 52.3497H90.4575C90.4131 52.1722 90.4131 51.9282 90.4131 51.7507H90.3687C90.1025 52.1722 89.6587 52.4607 89.0375 52.4607C88.2165 52.4607 87.5287 52.0391 87.5287 51.2626C87.5287 49.9313 89.0819 49.8426 90.0803 49.8426H90.3465V49.7316C90.3465 49.1326 89.9693 48.8441 89.3481 48.8441C88.9265 48.8441 88.4606 48.9995 88.15 49.2879L87.7284 48.822ZM89.6809 50.3973C88.8156 50.3973 88.2609 50.6413 88.2609 51.1738C88.2609 51.6841 88.6381 51.8838 89.1484 51.8838C89.925 51.8838 90.3243 51.3291 90.3465 50.6635V50.3973H89.6809Z" fill="white"/>
<path d="M92.299 45.8045H92.9646V48.8885H92.9868C93.364 48.4669 93.8521 48.2007 94.429 48.2007C95.6936 48.2007 96.5589 49.1104 96.5589 50.3307C96.5589 51.551 95.6714 52.4607 94.5399 52.4607C93.8077 52.4607 93.2308 52.1057 92.9868 51.6397H92.9646V52.3497H92.299V45.8045ZM94.4068 51.8172C95.2721 51.8172 95.8489 51.1516 95.8489 50.3085C95.8489 49.4654 95.2943 48.7998 94.4068 48.7998C93.5415 48.7998 92.9646 49.4654 92.9646 50.3085C92.9868 51.1738 93.5415 51.8172 94.4068 51.8172Z" fill="white"/>
<path d="M97.7792 51.2847C98.0455 51.6176 98.3339 51.8394 98.822 51.8394C99.2436 51.8394 99.7095 51.6619 99.7095 51.2182C99.7095 50.7966 99.288 50.6635 98.8442 50.5748C98.0677 50.3973 97.4242 50.2419 97.4242 49.3988C97.4242 48.6223 98.1786 48.2007 98.933 48.2007C99.5098 48.2007 100.042 48.4226 100.309 48.9329L99.7539 49.3101C99.5764 49.0216 99.288 48.822 98.8886 48.822C98.5114 48.822 98.0898 48.9995 98.0898 49.3766C98.0898 49.7095 98.578 49.8648 99.1105 49.9757C99.8205 50.1088 100.442 50.3751 100.442 51.196C100.442 52.1057 99.6208 52.4607 98.822 52.4607C98.1342 52.4607 97.6461 52.2832 97.2467 51.7063L97.7792 51.2847Z" fill="white"/>
<path d="M102.927 45.9376C103.703 45.9376 104.347 46.581 104.347 47.3576C104.347 48.1341 103.703 48.7776 102.927 48.7776C102.15 48.7776 101.507 48.1341 101.507 47.3576C101.507 46.581 102.128 45.9376 102.927 45.9376ZM102.927 48.5335C103.57 48.5335 104.103 48.001 104.103 47.3576C104.103 46.7141 103.57 46.1816 102.927 46.1816C102.283 46.1816 101.751 46.7141 101.751 47.3576C101.751 48.001 102.283 48.5335 102.927 48.5335ZM102.372 46.5366H102.993C103.393 46.5366 103.57 46.7141 103.57 47.0248C103.57 47.3132 103.393 47.4463 103.171 47.4685L103.592 48.1563H103.282L102.882 47.4907H102.66V48.1563H102.372V46.5366ZM102.683 47.2466H102.904C103.082 47.2466 103.282 47.2245 103.282 47.0248C103.282 46.8029 103.082 46.8029 102.904 46.8029H102.683V47.2466Z" fill="white"/>
<path d="M139.025 34.5333C140.112 34.5333 141 35.4208 141 36.508C141 37.5952 140.112 38.4827 139.025 38.4827C137.938 38.4827 137.051 37.5952 137.051 36.508C137.051 35.4208 137.938 34.5333 139.025 34.5333ZM139.025 38.1499C139.935 38.1499 140.645 37.4177 140.645 36.5302C140.645 35.6205 139.913 34.9105 139.025 34.9105C138.116 34.9105 137.406 35.6427 137.406 36.5302C137.406 37.4177 138.116 38.1499 139.025 38.1499ZM138.271 35.3764H139.136C139.669 35.3764 139.935 35.6205 139.935 36.0643C139.935 36.4636 139.691 36.6411 139.403 36.6855L140.002 37.6395H139.558L139.003 36.7077H138.693V37.6395H138.271V35.3764ZM138.67 36.3527H138.981C139.247 36.3527 139.513 36.3305 139.513 36.0421C139.513 35.7536 139.225 35.7314 138.981 35.7314H138.67V36.3527Z" fill="white"/>
<path d="M1.35342 26.901C1.77498 28.8312 2.12998 30.6506 3.43902 32.5809C5.41369 35.4874 8.6974 37.1737 11.7814 37.1737C14.8655 37.1737 19.436 35.1324 19.436 29.874C19.436 28.0991 18.8148 25.8138 16.4186 24.0388C14.9542 22.996 14.0223 22.6854 9.60708 21.221C6.7893 20.2892 0.954053 18.3145 0.954053 11.2811C0.954053 5.40151 5.32494 0.808746 11.7814 0.808746C15.1761 0.808746 17.2395 2.00686 19.1698 3.09403L21.2998 1.47436L22.4979 12.1464L21.2998 12.4127C20.6341 9.86115 18.5929 2.56154 11.9367 2.56154C7.45492 2.56154 5.16963 5.62338 5.16963 8.75178C5.16963 10.4602 5.7465 12.1908 6.98899 13.4999C8.49772 15.1195 10.2727 15.6964 14.0667 16.8945C17.7054 18.0482 23.9179 19.9563 23.9179 27.7884C23.9179 34.5556 18.3489 38.8821 11.6705 38.8821C7.1443 38.8821 4.79245 37.2624 3.28371 36.2862L0.421558 38.1721C0.377184 32.8028 0.310622 31.5603 0 27.0341L1.35342 26.901Z" fill="white"/>
<path d="M64.0102 30.1847C60.4159 35.9755 55.3572 39.0374 48.5013 39.0374C38.1843 39.0374 29.9084 31.649 29.9084 20.1338C29.9084 8.04177 38.7611 0.564667 48.5457 0.564667C54.6472 0.564667 58.2859 3.22714 60.4159 4.82462L63.0784 2.58371L63.2337 13.4776L62.1465 13.5886C61.5696 11.7692 61.0593 10.1496 59.6393 8.13052C56.9325 4.07025 53.1385 2.33965 49.3888 2.33965C42.9767 2.33965 36.2096 7.44272 36.2096 18.1148C36.2096 27.2337 41.3127 36.3971 50.6313 36.3971C57.5094 36.3971 60.7265 31.7599 62.5015 29.2528L64.0102 30.1847Z" fill="white"/>
<path d="M66.2955 11.2811C67.9152 6.91022 68.2702 5.82304 69.5792 1.34122H99.8427C101.196 5.97835 101.551 7.02115 103.126 11.2811L101.973 11.7914C99.998 9.12894 96.7143 4.75806 95.2055 3.87057C93.8077 3.09401 92.6984 3.09401 87.3512 3.13839V28.92C87.3512 30.7393 87.3956 33.5127 87.6619 34.4446C88.1278 35.9533 89.2815 36.153 93.1865 36.4858V38.1499C90.3687 38.1055 87.6175 37.9946 84.7997 37.9946C81.9375 37.9946 79.0754 38.1055 76.2132 38.1499V36.4858C81.4272 36.3749 81.6713 35.3987 81.8932 34.2893C82.1594 33.0912 82.2038 30.584 82.2038 28.92V3.16057H77.8329C75.947 3.20495 74.7045 3.27151 73.0848 4.78024C72.3083 5.44586 72.153 5.71211 67.4715 11.8136L66.2955 11.2811Z" fill="white"/>
<path d="M105.656 1.38559H132.68C134.388 5.49023 134.876 6.5996 136.74 10.438L135.742 11.1702C131.526 6.48866 131.526 6.48866 130.594 5.64555C128.353 3.55994 126.645 3.13838 120.588 3.04963H115.218V18.0038H120.366C125.269 18.0482 126.157 17.2273 127.355 11.858H128.708C128.597 14.2986 128.553 16.8057 128.553 19.3129C128.553 21.7091 128.597 24.1053 128.708 26.4572H127.355C126.157 20.511 125.003 20.2004 119.234 20.2004H115.218V29.0531C115.263 36.1974 115.263 36.3971 122.407 36.508H125.158C129.485 36.4636 130.372 36.4636 136.718 27.6553L137.872 28.2765C136.407 32.6918 136.097 33.8012 134.898 38.1721H105.656V36.508C109.605 36.1974 109.827 35.199 109.871 32.8027C109.982 30.2956 110.027 27.8106 110.027 22.5966V12.812C110.027 11.1924 110.027 5.8896 109.605 4.89118C109.139 3.53775 108.141 3.38244 105.656 3.07182V1.38559Z" fill="white"/>
</svg>
