<?xml version="1.0" encoding="utf-8"?>
<!-- Generator: Adobe Illustrator 28.0.0, SVG Export Plug-In . SVG Version: 6.00 Build 0)  -->
<svg version="1.1" id="Layer_1" xmlns="http://www.w3.org/2000/svg" xmlns:xlink="http://www.w3.org/1999/xlink" x="0px" y="0px"
	 viewBox="0 0 129.8 32" style="enable-background:new 0 0 129.8 32;" xml:space="preserve">
<style type="text/css">
	.st0{fill:#0C2C84;}
	.st1{fill:none;}
	.st2{clip-path:url(#SVGID_00000049944741504829766760000010676477085271977355_);}
	.st3{fill:#00968D;}
</style>
<g transform="translate(0 -0.694)">
	<path class="st0" d="M24,8.1h20.1V1.8H24V8.1z"/>
	<path class="st0" d="M44.1,31.6H24V12.7h20.1v6.2H30.6v6.4h13.5V31.6z"/>
	<g transform="translate(0 0.112)">
		<path class="st0" d="M22.5,24c-0.1,4.2-3.5,7.5-7.6,7.4H0.6v-6.2h13.1c1.2,0,2.1-0.9,2.2-2.1c0,0,0,0,0,0v-2c0-1.2-1-2.1-2.2-2.1
			l-6.1-0.3c-4.2,0-7.6-2.4-7.6-6.5V9.2c0-4.2,3.4-7.5,7.6-7.5h13.7V8H8.5c-1,0-1.8,0.8-1.9,1.8c0,0,0,0,0,0v1.1
			c0,1,0.8,1.8,1.9,1.8c0,0,0,0,0,0l6.7,0.3c5.8-0.1,7.3,4.4,7.3,7.5V24"/>
		<g transform="translate(70.328)">
			<path class="st1" d="M0.1,0.6h32.8v32H0.1V0.6z"/>
			<g>
				<defs>
					<rect id="SVGID_1_" x="0.1" y="0.6" width="32.8" height="32"/>
				</defs>
				<clipPath id="SVGID_00000088816784780583592380000000613254403448854408_">
					<use xlink:href="#SVGID_1_"  style="overflow:visible;"/>
				</clipPath>
				<g style="clip-path:url(#SVGID_00000088816784780583592380000000613254403448854408_);">
					<path class="st0" d="M16.5,32.6c-4.3,0-8.5-1.7-11.6-4.7c-6.3-6.1-6.4-16-0.4-22.3c0.1-0.1,0.2-0.2,0.4-0.4
						C11.4-1,21.7-1,28.1,5.3c6.3,6,6.4,16,0.4,22.3c-0.1,0.1-0.3,0.3-0.4,0.4C25,30.9,20.9,32.6,16.5,32.6z M16.5,7.3
						c-5.2-0.1-9.5,4.1-9.5,9.3c0.1,5.2,4.3,9.4,9.5,9.3c5.2,0.1,9.5-4.1,9.5-9.3C26,11.4,21.7,7.2,16.5,7.3L16.5,7.3z"/>
				</g>
			</g>
		</g>
		<path class="st3" d="M73.9,28c-3.3,3-7.7,4.7-12.2,4.6c-8.9,0.1-16.3-7.1-16.4-16c0,0,0,0,0,0c0.1-8.9,7.4-16.1,16.4-16
			c0,0,0,0,0,0c4.5,0,8.8,1.6,12.2,4.6c-1.5,1.6-2.7,3.6-3.5,5.7c-2.3-2.2-5.4-3.5-8.7-3.6c-5.2-0.1-9.5,4.1-9.5,9.3
			c0.1,5.2,4.3,9.4,9.5,9.3c3.2-0.1,6.3-1.4,8.7-3.6C71.2,24.4,72.4,26.3,73.9,28"/>
		<path class="st0" d="M121.7,1.7l-7.6,14.9l-7.2-14.9h-7.7l14.9,29.5l8.7-16.7l0,17h7V1.7H121.7z"/>
	</g>
</g>
</svg>
