<?xml version="1.0" encoding="UTF-8"?> <svg xmlns="http://www.w3.org/2000/svg" id="Logo" viewBox="82.42 65.6 650.63 130.59"><defs><style> .cls-1 { fill: #24226a; } .cls-2 { fill: #ea5c47; } .cls-3 { fill: none; } </style></defs><rect class="cls-3" width="794.08" height="247.31"></rect><g><g><path class="cls-1" d="M335.74,110.33c2.29-16.33-6.94-27.89-30.05-27.89h-41.64l-11.59,82.44h22.03l3.56-25.3h13.58l13.28,25.3h25.46l-15.69-28.85c12.13-4.87,19.31-13.25,21.07-25.7Zm-22.41,1.82c-.91,6.51-6.28,10.39-14.36,10.39h-18.53l2.97-21.17h18.26c7.06,0,12.78,2.76,11.65,10.78Z"></path><polygon class="cls-1" points="405.1 82.44 378.14 136.42 366.35 82.44 341.62 82.44 363.4 164.87 384.13 164.87 429.24 82.44 405.1 82.44"></polygon><polygon class="cls-1" points="426.49 164.87 448.64 164.87 460.23 82.44 438.07 82.44 426.49 164.87"></polygon><path class="cls-1" d="M129.48,97.83c7.99,0,15.09,2.6,21.99,7.39l13.15-14.59c-7.78-6.21-19.64-10.57-32.6-10.57-23.74,0-36.43,11.86-38.4,25.74-1.84,12.96,3.6,19.93,26.93,25.84,13.63,3.45,17.5,5.27,16.79,9.98-.61,4.14-5.19,7.3-15.05,7.3-10.48,0-17.66-2.67-25.84-9.22l-14.03,13.57c9.29,8.37,21.73,13.44,37.5,13.44,30.98,0,39.63-17.44,40.79-25.62,2.39-16.89-6.27-21.67-28.4-27-15.64-3.77-16.89-5.76-16.32-9.59,.69-4.61,5.1-6.66,13.47-6.66Z"></path><path class="cls-1" d="M690.1,144.78c-4.62,19.18-21.51,31.72-40.07,31.72-12.14,0-20.84-6.09-26.02-15.6l-13.53-24.86c12.03-4.83,19.31-13.16,21.07-25.7,2.29-16.33-6.94-27.89-30.05-27.89h-41.64l-11.59,82.44h22.03l3.56-25.3h13.58l13.43,25.6c12.45,23.75,29.09,31,49.16,31,30.05,0,56.48-20.12,61.61-51.39h-21.54Zm-80.96-32.62c-.91,6.51-6.28,10.39-14.36,10.39h-18.53l2.97-21.17h18.26c7.06,0,12.78,2.76,11.65,10.78Z"></path><polygon class="cls-1" points="170.31 164.87 236.32 164.87 238.87 146.83 193.89 146.83 196.07 131.39 236.33 131.39 238.61 115.32 198.35 115.32 200.46 100.48 244.85 100.48 247.41 82.44 181.98 82.44 170.31 164.87"></polygon><polygon class="cls-1" points="466.67 164.87 532.69 164.87 535.24 146.83 490.25 146.83 492.44 131.39 532.7 131.39 534.98 115.32 494.72 115.32 496.82 100.48 541.22 100.48 543.77 82.44 478.35 82.44 466.67 164.87"></polygon></g><polygon class="cls-2" points="700.87 65.6 707.36 80.45 721.87 73.24 717.3 88.79 733.05 92.6 719.55 101.56 729.17 114.6 713.06 112.8 712.05 128.97 700.87 117.23 689.7 128.97 688.69 112.8 672.58 114.6 682.2 101.56 668.7 92.6 684.45 88.79 679.87 73.24 694.39 80.45 700.87 65.6"></polygon></g></svg> 