<svg width="173px" height="35px" viewBox="0 0 173 35" version="1.1" xmlns="http://www.w3.org/2000/svg"
    xmlns:xlink="http://www.w3.org/1999/xlink">
    <defs>
        <polygon id="path-0fl2enmiu_-1" points="0 0 17.110368 0 17.110368 16.9866357 0 16.9866357"></polygon>
    </defs>
    <g id="Design" stroke="none" stroke-width="1" fill="none" fill-rule="evenodd">
        <g id="Landingspagina-Oncologie" transform="translate(-40.000000, -80.000000)">
            <g id="Group-18" transform="translate(40.000000, 80.000000)">
                <path
                    d="M61.3946331,12.4791882 C61.151483,14.2240962 59.7251699,15.2639654 57.5769268,15.2639654 L52.6500051,15.2639654 L53.4408694,9.59080309 L58.2963501,9.59080309 C60.1738694,9.59080309 61.6941839,10.3312203 61.3946331,12.4791882 M67.3530624,11.9902096 C67.9621908,7.61467261 65.5081301,4.51401775 59.3616982,4.51401775 L48.2895979,4.51401775 L45.2088618,26.6115535 L51.0682765,26.6115535 L52.0145563,19.829029 L55.6242063,19.829029 L59.153642,26.6115535 L65.9242426,26.6115535 L61.751838,18.878869 C64.9779628,17.5736627 66.8880693,15.3258774 67.3530624,11.9902096"
                    id="Fill-1" fill="#24226A"></path>
                <polygon id="Fill-3" fill="#24226A"
                    points="85.7973716 4.51338599 78.6294588 18.9831087 75.4935753 4.51338599 68.9184974 4.51338599 74.7089778 26.6109218 80.2212142 26.6109218 92.2157806 4.51338599">
                </polygon>
                <polygon id="Fill-5" fill="#24226A"
                    points="91.4836985 26.6113008 97.3757002 26.6113008 100.455183 4.51376504 94.5644345 4.51376504">
                </polygon>
                <path
                    d="M12.5084402,8.63862155 C14.6328697,8.63862155 16.5204159,9.33481585 18.3565747,10.6198061 L21.8534232,6.70797744 C19.7841411,5.04267056 16.6307107,3.87392331 13.1865029,3.87392331 C6.8746287,3.87392331 3.49810186,7.05417933 2.97545461,10.7726908 C2.48790118,14.2460813 3.93176121,16.1148134 10.1371006,17.6979921 C13.7605376,18.6228818 14.7907919,19.1118604 14.6027892,20.3728439 C14.4398537,21.4834697 13.2215968,22.3300217 10.6008404,22.3300217 C7.81213504,22.3300217 5.90453525,21.6148748 3.72997175,19.8573316 L0,23.4949784 C2.47160762,25.7377097 5.77794682,27.0985105 9.97040498,27.0985105 C18.2074259,27.0985105 20.5098312,22.424785 20.8181555,20.2325942 C21.4536043,15.7041725 19.1499457,14.4229728 13.265464,12.9952059 C9.10684634,11.9843974 8.7747084,11.4499325 8.92636383,10.4239619 C9.11060639,9.18824863 10.2837427,8.63862155 12.5084402,8.63862155"
                    id="Fill-7" fill="#24226A"></path>
                <path
                    d="M140.054172,12.4791882 C139.811022,14.2240962 138.384709,15.2639654 136.236466,15.2639654 L131.309544,15.2639654 L132.100409,9.59080309 L136.955889,9.59080309 C138.833409,9.59080309 140.353723,10.3312203 140.054172,12.4791882 L140.054172,12.4791882 Z M161.580471,21.2239446 C160.352187,26.3664325 155.861432,29.726107 150.925736,29.726107 C147.697105,29.726107 145.38342,28.0936514 144.008494,25.5438871 L140.411377,18.878869 C143.608675,17.5850343 145.545102,15.3511476 146.013855,11.9902096 C146.622983,7.61467261 144.168923,4.51401775 138.022491,4.51401775 L126.95039,4.51401775 L123.868401,26.6115535 L129.726562,26.6115535 L130.674095,19.829029 L134.284999,19.829029 L137.854542,26.6911547 C141.165894,33.0567208 145.588969,35 150.925736,35 C158.915847,35 165.944638,29.607337 167.308284,21.2239446 L161.580471,21.2239446 Z"
                    id="Fill-9" fill="#24226A"></path>
                <polygon id="Fill-11" fill="#24226A"
                    points="23.3644628 26.6113008 40.9176396 26.6113008 41.5969557 21.775846 29.6349765 21.775846 30.2165312 17.6365855 40.9213997 17.6365855 41.5267681 13.3292781 30.8218996 13.3292781 31.3821474 9.34921987 43.1862044 9.34921987 43.8655205 4.51376504 26.4702659 4.51376504">
                </polygon>
                <polygon id="Fill-13" fill="#24226A"
                    points="102.16914 26.6113008 119.722317 26.6113008 120.402886 21.775846 108.439654 21.775846 109.021208 17.6365855 119.726077 17.6365855 120.331445 13.3292781 109.62783 13.3292781 110.186825 9.34921987 121.990882 9.34921987 122.670198 4.51376504 105.274943 4.51376504">
                </polygon>
                <g id="Group-17" transform="translate(155.889632, 0.000000)">
                    <mask id="mask-0fl2enmiu_-2" fill="white">
                        <use xlink:href="#path-0fl2enmiu_-1"></use>
                    </mask>
                    <g id="Clip-16"></g>
                    <polygon id="Fill-15" fill="#EA5C47" mask="url(#mask-0fl2enmiu_-2)"
                        points="8.55537202 0 10.2799826 3.9813217 14.1390495 2.04941409 12.9220459 6.21520833 17.110744 7.23612485 13.5211476 9.6405854 16.0792364 13.1354555 11.796537 12.651531 11.5270666 16.9866357 8.55537202 13.8404944 5.58493081 16.9866357 5.31420706 12.651531 1.03276099 13.1354555 3.58959646 9.6405854 0 7.23612485 4.18869811 6.21520833 2.97169456 2.04941409 6.83076143 3.9813217">
                    </polygon>
                </g>
            </g>
        </g>
    </g>
</svg>