<svg width="150" height="30" viewBox="0 0 150 30" fill="none" xmlns="http://www.w3.org/2000/svg">
<path d="M58.3991 10.2796C58.9201 6.52677 56.799 3.87012 51.4687 3.87012H41.8592L39.1895 22.8137H44.2616L45.0824 16.9994H48.2133L51.2727 22.8137H57.1426L53.5413 16.179C56.3379 15.0667 57.9979 13.1385 58.3991 10.2796ZM53.2324 10.6979C53.0203 12.194 51.7845 13.0857 49.9217 13.0857H45.6495L46.3412 8.2228H50.5488C52.1719 8.2228 53.4906 8.85709 53.2324 10.6979Z" fill="white"/>
<path d="M74.3913 3.87012L68.1756 16.2755L65.4574 3.87012H59.7559L64.7773 22.8137H69.5566L79.9569 3.87012H74.3913Z" fill="white"/>
<path d="M79.3223 22.8137H84.429L87.1011 3.87012H81.9921L79.3223 22.8137Z" fill="white"/>
<path d="M10.8452 7.4069C12.6896 7.4069 14.3242 8.00212 15.9173 9.10523L18.9491 5.74994C17.1531 4.32279 14.4234 3.3208 11.4262 3.3208C5.95286 3.3208 3.02485 6.0464 2.57296 9.23622C2.14875 12.2238 3.40295 13.8164 8.78174 15.1723C11.9242 15.9652 12.8164 16.3857 12.655 17.4705C12.5121 18.4219 11.4561 19.1481 9.1829 19.1481C6.76671 19.1481 5.11135 18.5345 3.22773 17.0292L0 20.1478C2.14183 22.0691 5.0099 23.2365 8.64571 23.2365C15.7928 23.2365 17.7825 19.2309 18.0499 17.351C18.601 13.4694 16.6044 12.3709 11.5023 11.146C7.89642 10.2796 7.60823 9.82225 7.73964 8.94206C7.89872 7.87802 8.91546 7.4069 10.8452 7.4069Z" fill="white"/>
<path d="M140.097 18.1968C139.606 20.2725 138.425 22.1219 136.747 23.4451C135.069 24.7683 132.992 25.4876 130.852 25.4865C128.053 25.4865 126.047 24.0846 124.858 21.8991L121.743 16.179C124.51 15.069 126.195 13.1547 126.601 10.2728C127.129 6.52223 125.001 3.86328 119.684 3.86328H110.07L107.4 22.8069H112.473L113.293 16.9926H116.424L119.518 22.8758C122.391 28.3339 126.225 30.0001 130.852 30.0001C137.78 30.0001 143.874 25.3762 145.056 18.1899L140.097 18.1968ZM121.423 10.698C121.21 12.1941 119.975 13.0857 118.112 13.0857H113.851L114.543 8.22286H118.753C120.374 8.22286 121.692 8.85715 121.434 10.698H121.423Z" fill="white"/>
<path d="M20.2598 22.8137H35.4785L36.0664 18.6679H25.6962L26.1988 15.1195H35.4808L36.0065 11.4264H26.7245L27.2109 8.01597H37.4451L38.0354 3.87012H22.9503L20.2598 22.8137Z" fill="white"/>
<path d="M88.585 22.8137H103.804L104.394 18.6679H94.0214L94.5263 15.1195H103.808L104.334 11.4264H95.052L95.5361 8.01597H105.773L106.361 3.87012H91.2778L88.585 22.8137Z" fill="white"/>
<path d="M142.581 0L144.077 3.41274L147.423 1.75578L146.369 5.3294L150 6.20499L146.888 8.26412L149.106 11.2632L145.391 10.8472L145.159 14.5633L142.581 11.8653L140.006 14.5633L139.77 10.8472L136.059 11.2632L138.277 8.26412L135.164 6.20499L138.795 5.3294L137.742 1.75578L141.087 3.41274L142.581 0Z" fill="#EA5C47"/>
</svg>
