<?xml version="1.0" encoding="utf-8"?>
<!-- Generator: Adobe Illustrator 22.1.0, SVG Export Plug-In . SVG Version: 6.00 Build 0)  -->
<svg version="1.1" id="Layer_1" xmlns="http://www.w3.org/2000/svg" xmlns:xlink="http://www.w3.org/1999/xlink" x="0px" y="0px"
	 viewBox="0 0 428.6 124" style="enable-background:new 0 0 428.6 124;" xml:space="preserve">
<style type="text/css">
	.st0{fill-rule:evenodd;clip-rule:evenodd;fill:#FFFFFF;}
	.st1{fill-rule:evenodd;clip-rule:evenodd;fill:#FFFFFF;stroke:#0067B1;stroke-width:0.4501;}
	.st2{fill-rule:evenodd;clip-rule:evenodd;fill:#0067B1;}
	.st3{fill-rule:evenodd;clip-rule:evenodd;fill:#EF4135;}
	.st4{fill:#FFFFFF;}
</style>
<g>
	<polygon class="st0" points="244.5,59.5 255.4,59.5 254.3,64.7 243.5,64.7 	"/>
	<path class="st0" d="M102.8,49c-1.9-0.9-4.4-1.7-6.8-1.7c-2.3,0-5.4,0.9-5.4,3.7c0,5.1,11,4.8,11,13.7c0,7.8-6.2,10.7-13.3,10.7
		c-3.1,0-6.3-0.7-9.3-1.8l1.7-5.4c2.4,1.2,5.1,2.2,7.9,2.2c3.1,0,6.2-1.5,6.2-5c0-5.8-11.1-4.8-11.1-13.4c0-6.7,5.9-9.6,12.1-9.6
		c2.9,0,5.8,0.4,8.4,1.4L102.8,49z"/>
	<polygon class="st1" points="107.7,49.3 112.8,49.3 110.7,59.3 120.9,59.3 123.1,49.3 128.2,49.3 122.8,74.2 117.7,74.2 
		120.1,63.3 109.8,63.3 107.5,74.2 102.4,74.2 	"/>
	<polygon class="st1" points="132.5,49.3 147.5,49.3 146.8,53.2 136.8,53.2 135.5,59.3 144.4,59.3 143.6,63.3 134.7,63.3 
		133.1,70.4 143.2,70.4 142.4,74.2 127.2,74.2 	"/>
	<g>
		<path class="st0" d="M158.8,49.3c4.5,0,9.2,0.3,9.2,5.9c0,4.3-3.2,6.6-7.4,6.7v0.1c1.4,0.1,2.3,0.9,2.6,2.2l2.4,10.1h-5.3
			l-1.3-5.8c-0.1-0.5-0.1-1-0.2-1.4v-7.2c2.1-0.4,4-1.5,4-4s-2-2.6-4-2.6V49.3z M151.9,49.3h6h0.9v4h-0.4h-2.2l-1.4,6.7h1.9
			c0.6,0,1.4,0,2.1-0.1V67c-0.4-1.9-0.7-3.1-3-3.1h-1.9l-2.2,10.4h-5.1L151.9,49.3z"/>
		<path class="st1" d="M151.9,49.3h6c4.7,0,10.1-0.1,10.1,5.9c0,4.3-3.2,6.6-7.4,6.7v0.1c1.4,0.1,2.3,0.9,2.6,2.2l2.4,10.1h-5.3
			l-1.3-5.8c-0.6-2.7-0.4-4.5-3.2-4.5h-1.9l-2.2,10.4h-5.1L151.9,49.3L151.9,49.3z M154.8,59.9h1.9c2.7,0,6-0.8,6-4.1
			c0-2.6-2.3-2.6-4.4-2.6h-2.2L154.8,59.9z"/>
	</g>
	<polygon class="st1" points="171,49.3 176.1,49.3 176.9,68.4 176.9,68.4 185.4,49.3 192.2,49.3 192.3,68.4 192.4,68.4 201.4,49.3 
		206.7,49.3 194.5,74.2 188.2,74.2 187.9,54.3 187.8,54.3 178.9,74.2 172.5,74.2 	"/>
	<polygon class="st1" points="209.4,49.3 214.7,49.3 209.3,74.2 204.1,74.2 	"/>
	<polygon class="st1" points="219.4,49.3 225.9,49.3 231.3,68.3 231.4,68.3 235.5,49.3 240.3,49.3 234.8,74.2 228.3,74.2 
		222.9,55.1 222.9,55.1 218.8,74.2 213.9,74.2 	"/>
	<g>
		<polygon class="st0" points="259.2,42.8 265.2,42.8 266.1,67.2 266.2,67.2 276.3,42.8 284.4,42.8 284.6,67.2 284.7,67.2 
			295.3,42.8 301.6,42.8 287.2,74.7 279.6,74.7 279.3,49.2 279.3,49.2 268.5,74.7 261,74.7 		"/>
		<polygon class="st1" points="301.3,49.3 306.3,49.3 301.3,74.3 296.3,74.3 		"/>
		<polygon class="st1" points="310.6,49.3 315.4,49.3 311.2,70.4 320.4,70.4 319.7,74.3 305.6,74.3 		"/>
		<polygon class="st1" points="327.6,49.3 332.3,49.3 328.1,70.4 337.4,70.4 336.6,74.3 322.6,74.3 		"/>
		<polygon class="st1" points="344.3,49.3 349.2,49.3 344.3,74.3 339.3,74.3 		"/>
		<g>
			<path class="st0" d="M361.1,49.3h5.3l4.3,25H366l-0.9-5.8h-4.2v-4h3.6L363,53.7h-0.1l-2,3.9v-7.8L361.1,49.3z M360.8,68.6h-5.8
				l-3,5.8h-5.3l14-24.5v7.8l-3.7,7h3.7V68.6z"/>
			<path class="st1" d="M361.1,49.3h5.3l4.3,25H366l-0.9-5.8h-10l-3,5.8h-5.3L361.1,49.3L361.1,49.3z M357.2,64.6h7.3L363,53.7h-0.1
				L357.2,64.6z"/>
		</g>
		<polygon class="st1" points="378.3,49.3 386.1,49.3 387.7,67.3 387.8,67.3 397.1,49.3 405,49.3 399.9,74.3 394.9,74.3 399.4,53.6 
			399.3,53.6 388.6,74.3 384,74.3 382.2,53.6 382.1,53.6 377.8,74.3 373.2,74.3 		"/>
		<path class="st1" d="M420.8,54.1c-1.4-0.7-3.2-1.3-4.9-1.3c-1.7,0-4,0.7-4,2.9c0,4,8.1,3.7,8.1,10.7c0,6.1-4.6,8.4-9.8,8.4
			c-2.2,0-4.6-0.6-6.7-1.4l1.2-4.2c1.8,0.9,3.7,1.7,5.8,1.7c2.3,0,4.5-1.2,4.5-3.9c0-4.5-8.1-3.8-8.1-10.4c0-5.3,4.2-7.6,8.8-7.6
			c2.1,0,4.2,0.3,6.1,1.1L420.8,54.1z"/>
		<path class="st0" d="M425.1,67.5c1.9,0,3.5,1.6,3.5,3.5c0,1.9-1.6,3.5-3.5,3.5l0,0v-0.8l0,0c1.4,0,2.5-1.1,2.5-2.7
			c0-1.7-1.2-2.7-2.5-2.7l0,0V67.5L425.1,67.5L425.1,67.5z M425.1,71.7l0.7,1.4h0.9l-1-1.7c0.6,0,1-0.3,1-1c0-0.9-0.6-1.2-1.6-1.2
			l0,0v0.6l0,0c0.4,0,0.7,0.1,0.7,0.5c0,0.4-0.2,0.5-0.6,0.5h-0.1V71.7z M425.1,74.6c-1.9,0-3.5-1.6-3.5-3.5c0-1.9,1.6-3.5,3.5-3.5
			v0.8c-1.4,0-2.5,1.1-2.5,2.7c0,1.7,1.1,2.7,2.5,2.7V74.6L425.1,74.6z M425.1,69.1h-1.4V73h0.9v-1.7h0.4l0.2,0.3v-0.9h-0.6v-1h0.6
			V69.1z"/>
	</g>
	<polygon class="st0" points="22.8,124 22,123.9 21.3,123.8 20.9,123.6 20.3,123.2 19.7,122.7 19.3,122.2 19,121.7 18.8,121.1 
		18.6,120.2 18.6,119.7 18.6,118.6 18.6,118.5 18.6,118.1 18.7,117.3 18.9,116.2 18.9,116 19.1,115.2 19.4,113.2 19.9,111 20,110.8 
		20,110.5 20.2,110.2 20.2,109.8 20.3,109.3 20.3,108.9 20.3,108.8 19.9,108.7 17.5,107.5 16.3,106.9 15.9,106.6 15.2,106.2 
		14.5,105.8 14.3,105.6 13,104.8 12.4,104.2 11.1,103.1 10.8,102.8 10.7,102.8 10.7,102.9 10.9,104.1 11.2,104.6 11.4,106 
		11.4,106.2 11.6,106.7 11.9,108.2 12.3,110 12.8,112.5 12.8,112.9 12.9,113.3 13,114.1 13,114.9 12.8,115.9 12.6,116.7 12.3,117.5 
		11.8,118.4 11.1,119 10.5,119.3 9.8,119.5 9.3,119.6 8.5,119.6 7.8,119.5 7.1,119.2 6.6,119 6.2,118.6 5.6,118 5.3,117.5 5,116.7 
		4.9,116.4 4.8,115.7 4.8,114.2 5,112.3 5.3,110.5 5.5,110 5.7,109 5.8,108.6 6,107.7 6,107.6 5.8,107.6 5.3,107.9 4.5,108.1 
		4.2,108.2 3.5,108.1 2.8,107.9 2.4,107.8 1.8,107.4 1.5,107.1 1.2,106.7 0.8,106 0.5,105.1 0.4,104.3 0.3,103.9 0.3,103.8 
		0.3,102.8 0.4,101.5 0.6,100.7 0.7,99.9 1.3,97.5 1.7,95.3 1.9,94 1.9,93.3 1.9,92.7 1.9,92.5 1.9,91.5 1.8,90.1 1.4,87.8 
		1.3,87.4 0.9,86 0.8,85.4 0.6,84.5 0.3,82.9 0.3,82.4 0.2,82.1 0,80.1 0,78.4 0,78.1 0,76.5 0.1,76 0.1,75.5 0.4,72.7 0.6,71.6 
		0.9,70.1 1.3,69.1 1.4,68.5 1.9,67 2.4,65.4 2.5,65.1 2.9,64.3 3,63.9 3.7,62.5 3.8,62.3 4,61.9 5.1,60 6.4,58 6.8,57.5 7.1,57 
		7.8,56.2 8,56 9.2,54.6 9.5,54.3 9.6,54.2 9.9,53.9 10.3,53.6 10.4,53.4 11.2,52.6 13,51.1 13.8,50.4 14.2,50.2 14.3,50.1 
		14.3,49.9 14.1,49.2 14,48.8 14,48.1 14,47.8 14,47.5 14.2,47.1 14.4,46.4 14.8,45.6 15.3,44.9 16,44.2 16.3,43.9 16.3,43.9 
		16,43.3 15.8,42.8 15.8,42.3 15.8,41.6 15.8,41 16.1,40.5 16.3,40 16.9,39.4 17.2,39 17.9,38.3 18.7,37.9 19.4,37.6 20.4,37.3 
		21.2,37.2 21.3,37.2 21.3,37 21.2,36.8 21.2,36.2 21.3,35.8 21.5,35.3 21.7,34.9 22.3,34.2 22.6,33.8 23,33.6 23.6,33.4 24.1,33.3 
		24.9,33.3 25.5,33.5 26.5,33.8 27.1,34.1 27.9,34.5 28.3,34.9 28.6,35.2 28.7,35.3 28.7,35.3 28.7,35.1 28.4,34 28.3,33.5 
		28.1,33.1 27.9,33 27.4,32.6 27.2,32.4 27.1,32.1 27,31.5 26.9,31.2 26.6,30.8 26.4,30.6 26.1,30.5 25.9,30.5 25.6,30.7 25.3,30.7 
		25.1,30.5 24.8,30.2 24.6,30.2 24.5,30.4 24.2,30.5 24.1,30.5 23.8,30.2 23.3,29.8 22.5,28.9 21.6,27.6 21.5,27.4 20.7,26.3 
		19.9,24.6 19.8,24.1 19.6,23.8 19.3,23.2 19.2,23 19,22.5 18.7,21.9 18.3,21.5 17,20 16.9,19.9 16.7,19.7 16.1,19.1 15.8,18.9 
		15.5,18.6 15.1,18.4 14.7,18.4 14.3,18.3 14.1,18.1 14,17.9 13.8,17.1 13.6,16.6 13.6,15.5 13.8,14.6 13.9,14 14.3,12.9 14.7,12 
		14.9,11.6 15.3,10.7 15.9,9.8 16.3,9.2 16.4,8.9 17.6,7.3 18.7,6.2 18.9,5.9 19.3,5.5 19.9,5 20,4.8 20.5,4.4 20.8,4.2 21.2,3.9 
		22.8,2.7 23.5,2.2 24,1.9 25.4,1.2 25.6,1 26.1,0.8 27.2,0.4 28.4,0.1 29.1,0 30.5,0 31.3,0.1 31.8,0.4 32.2,0.7 32.3,0.9 
		32.5,1.4 32.5,1.8 32.5,2 32.5,2.2 32.7,2.4 33.5,3.4 33.8,3.7 34.3,4.4 35,5.1 35.3,5.4 35.5,5.7 35.9,6 36.4,6.3 36.9,6.6 
		37.8,7 38.7,7.5 39.9,8.3 41.2,9.3 43.1,10.9 43.8,11.7 44.2,12.2 44.2,12.4 44.1,12.6 43.8,13 43.6,13.1 43.5,13.3 43.7,13.6 
		44,14 44.1,14 44.1,14.3 43.9,14.6 43.9,14.8 43.9,14.9 44.3,15.3 44.7,15.6 45,15.8 45.4,15.8 45.8,16 46,16.2 46.2,16.5 
		46.4,16.8 46.4,17.1 46.3,18 45.9,19.3 45.3,20.5 44.6,21.7 44.1,22.5 44,22.7 44,22.8 43.6,23.3 43.4,23.6 42.6,24.6 41.3,26.1 
		40.8,26.6 40.5,26.9 38.7,28.7 37.5,29.5 36.8,30 36.4,30.2 36.3,30.4 36.3,30.7 36.3,35.1 36.3,35.2 36.4,35.2 37.2,34.6 37.9,34 
		38.6,33.7 39,33.6 39.4,33.4 40,33.3 40.8,33.4 41.4,33.5 42.1,33.7 42.7,34.1 43.2,34.5 43.7,35.2 44,35.8 44.1,36.4 44.1,36.8 
		44.1,37.4 44.1,37.5 44.1,37.5 44.6,37.6 45.5,37.7 46,38.1 46.4,38.5 46.8,38.8 47.3,39.5 47.5,39.8 47.7,40.6 47.7,41 47.5,41.6 
		47.3,42.2 47.1,42.6 47,42.7 47,42.8 47.3,43.1 47.5,43.1 48.1,43.5 49,44.3 49.3,44.6 49.5,45 49.8,45.4 50.2,46.2 50.5,47 
		50.6,47.4 50.6,48.3 50.5,48.6 50.3,49 50.1,49.3 50,49.5 50,49.5 50.3,49.8 50.6,50 51.7,50.8 52.9,51.7 53.4,52.1 53.8,52.4 
		54.4,53 54.7,53.2 54.9,53.4 55.1,53.6 55.5,54 55.8,54.2 56,54.5 56.5,54.9 57.5,56 57.5,56 57.7,56.2 58,56.6 58.6,57.3 
		58.8,57.7 59,57.8 60.1,59.4 60.3,59.8 60.7,60.5 61.1,61.2 61.3,61.6 61.5,61.9 61.6,62.1 62,62.7 62.4,63.7 62.6,64.1 63.3,65.7 
		63.4,65.9 63.6,66.5 64.3,68.5 64.3,68.7 64.5,69.3 64.7,69.6 64.7,69.9 65.2,72.3 65.2,73 65.4,74 65.4,74.2 65.5,74.7 65.5,75 
		65.6,76.9 65.6,77.1 65.6,77.3 65.6,77.4 65.6,77.9 65.6,78.3 65.6,79.3 65.5,79.8 65.5,80.9 65.3,83.6 65,86.3 64.5,88.9 
		64.5,90.5 64.6,91.7 64.5,92 64.6,92.5 64.7,94 64.7,94.5 64.7,94.8 64.7,95.8 64.6,96.3 64.5,97.1 64.4,98.2 64,99.6 63.2,102.6 
		62.9,103.4 62.8,103.7 62.9,104.4 62.9,105.6 63,105.9 63.1,106.1 63.2,106.9 63.3,107.7 63.6,109.2 63.9,110.7 64,111 64.1,111.6 
		64.4,113.7 64.7,115.6 64.7,116.2 64.7,117.2 64.5,117.7 64.2,118.6 63.9,119 63.4,119.6 62.9,119.9 62.3,120.2 61.6,120.4 
		61.1,120.5 60.6,120.5 60.1,120.3 59.3,120 58.6,119.6 58.2,119.1 57.9,118.7 57.5,118 57.3,117.3 57.3,117 57.2,116.3 57.2,116 
		57.2,115.8 57.3,115 57.6,113.6 58.1,111.6 58.6,110.1 59.3,107.5 59.4,107.2 59.6,106.3 59.8,105.9 59.9,105.3 60,104.8 
		60.2,104.1 60.3,103.2 60.1,102.3 60.1,102 59.9,101.6 59.8,101 59.7,100.6 59.3,99.5 59.2,99.2 59,98.7 58.9,98.4 58.8,98.2 
		58.8,98.2 58.6,98.2 58,99.2 56.7,100.7 56.1,101.2 55.8,101.6 55.4,102 55.1,102.3 54.7,102.7 54.1,103.2 53,104.1 52.8,104.2 
		52.1,104.7 51.8,104.9 51.5,105.2 51.1,105.5 48.8,106.9 47,107.9 46.7,108.1 45.4,108.7 45.2,108.7 44.5,109 44.1,109.2 
		42.9,109.5 39.7,110.4 37,110.9 35.8,111 34.3,111.2 33.3,111.2 31.9,111.2 30.6,111.1 29.2,111 28.8,110.9 28.2,110.8 26.9,110.6 
		26.2,110.5 25.3,110.3 25.1,110.3 25.1,110.4 25.3,111.6 25.6,113.3 25.8,113.7 26.1,115.4 26.3,116.2 26.4,116.6 26.4,116.8 
		26.4,117.2 26.5,118 26.6,119.6 26.5,120.3 26.4,121 26.2,121.6 25.8,122.3 25.5,122.6 25.1,123 24.7,123.4 24.3,123.6 23.8,123.8 
		23.3,123.9 	"/>
	<polygon class="st2" points="22.6,122.6 22.1,122.6 21.5,122.4 21.2,122.2 20.7,121.8 20.3,121.3 20.1,120.8 19.9,120.1 
		19.8,119.7 19.8,119 19.9,117.7 20.3,115.2 21,112 21.5,109.4 21.7,108.2 21.6,108 21.3,107.9 19.9,107.3 18,106.4 15.8,105.1 
		14.5,104.2 12.8,102.9 11.8,102 10.7,100.9 9.8,99.9 8.6,98.4 8.3,98.1 7.7,97.4 6.4,95.6 6.2,95.2 5.7,94.5 5.5,94.3 5.5,94.4 
		5.5,94.9 5.7,96.1 6,97.9 6.6,100.9 6.8,102.1 6.8,103.3 6.8,103.9 6.7,104.6 6.5,105.1 6.3,105.5 6,105.9 5.5,106.4 5.1,106.6 
		4.7,106.8 4.2,106.9 3.7,106.9 3.3,106.7 3,106.6 2.5,106.2 2.2,105.9 1.9,105.4 1.7,104.6 1.5,103.8 1.5,102.6 1.6,101.6 
		2.1,99.2 2.6,97.1 2.8,96.1 2.9,95.4 3,95.2 3,94 3.1,92 3,90.5 3,90.1 2.9,89.4 2.7,88.1 2.6,87.7 2.2,85.8 1.7,83.9 1.3,81.3 
		1.2,79.4 1.2,77.9 1.2,77.8 1.2,76.9 1.3,75.9 1.3,75.6 1.4,74.8 1.7,72.9 1.9,71.1 2.3,69.6 2.9,67.8 3.3,66.5 4.1,64.5 4.9,62.9 
		5.8,61.1 6.4,60.2 7.5,58.6 8.6,57 9.6,55.9 9.9,55.7 10.2,55.3 11.4,54.1 11.7,53.9 12.7,52.9 14.3,51.6 15.1,51.1 15.8,50.6 
		15.9,50.5 15.8,50.3 15.6,49.8 15.4,49.3 15.3,48.5 15.3,47.9 15.5,47.1 15.8,46.4 16.2,45.7 16.6,45.2 17.6,44.4 18,44 18.1,43.9 
		18,43.8 17.7,43.5 17.4,43 17.1,42.6 17.1,42.3 17.1,41.8 17.2,41.3 17.4,40.7 17.7,40.3 18.1,39.8 18.4,39.5 19.1,39 19.7,38.8 
		20.6,38.5 21.5,38.4 22.3,38.4 22.9,38.3 23,38.2 22.9,38.2 22.8,37.9 22.5,37.4 22.4,36.9 22.4,36.5 22.5,36.1 22.6,35.8 
		22.8,35.4 23.2,35.1 23.6,34.9 24.1,34.7 24.3,34.6 25.1,34.6 25.6,34.7 26.4,35 27,35.4 27.4,35.6 28.2,36.3 28.7,36.8 29.5,37.9 
		30,38.6 30.3,39.2 30.4,39.3 30.5,39.2 30.4,38.7 30.2,37.4 29.9,35.5 29.7,34.3 29.4,33.1 29.2,32.6 29,32.3 28.8,32.1 28.5,31.9 
		28.4,31.6 28.2,31.2 28.2,30.7 28.1,30.5 27.7,30.2 27.2,29.6 27,29.5 26.8,29.5 26.5,29.5 26.3,29.5 26,29.4 25.7,28.9 25.6,28.9 
		25.3,28.9 25,29.3 24.8,29.3 24.6,29.3 24.4,29.2 23.7,28.4 22.6,27 21.7,25.4 21.2,24.6 20.7,23.4 20.1,21.8 19.9,21.4 19.2,20.6 
		17.9,19.2 16.4,17.7 16.1,17.5 15.8,17.4 15.3,17.4 15.1,17.2 15,16.9 14.8,16.4 14.8,15.8 14.8,15.3 14.9,14.4 15.1,13.8 
		15.6,12.8 16.1,11.7 16.9,10.4 17.6,9.3 18.4,8.4 19.4,7.1 19.5,7 20.3,6.2 21.6,5 22.3,4.5 23,3.9 23.8,3.5 25.2,2.6 26.8,1.8 
		28.1,1.4 29.1,1.2 29.9,1.2 30.5,1.3 31,1.4 31.3,1.7 31.4,1.8 31.5,2.2 31.4,2.6 31.5,2.8 31.7,3.1 32.9,4.5 33.5,5.1 34.9,6.6 
		35.5,7.3 35.8,7.5 36.7,7.8 37.7,8.3 38.4,8.7 39.5,9.5 40.6,10.4 42,11.7 42.5,12.3 42.6,12.5 42.6,12.7 42.4,12.9 42.1,13.2 
		42.1,13.4 42.3,13.6 42.7,14.1 42.8,14.4 42.8,14.6 42.6,14.9 42.6,15.1 42.7,15.3 43.3,15.9 43.6,16.2 44,16.4 44.4,16.5 
		44.6,16.6 44.9,17 45,17.2 45.1,17.6 45,18 44.9,18.5 44.6,19.2 44.1,20.2 43.4,21.5 42.6,22.5 41.7,23.8 40.8,24.8 39.9,25.9 
		38.6,27 38.3,27.3 38.1,27.5 36.6,28.7 35.2,29.7 35.1,29.9 35.1,30.1 35,35.1 34.9,36.2 34.9,39.2 34.9,39.2 34.9,39.2 35.1,38.9 
		35.4,38.5 35.6,38 35.9,37.5 36.5,36.9 37.1,36.1 37.3,36 37.8,35.6 38.5,35.2 39,35 39.7,34.8 40.2,34.6 40.9,34.7 41.3,34.8 
		41.8,35.1 42.2,35.3 42.6,35.7 42.8,36.1 42.9,36.7 43,37.2 42.8,37.5 42.7,37.9 42.5,38.3 42.5,38.3 42.6,38.4 43.4,38.4 
		44.1,38.5 44.9,38.8 45.2,39 45.7,39.5 45.9,39.8 46.1,40.3 46.2,40.8 46.2,41.2 46.2,41.6 45.9,42.1 45.7,42.4 45.3,42.7 
		44.9,42.9 44.9,43 44.9,43.1 45.4,43.3 45.8,43.5 46.4,43.9 47.5,44.6 48.3,45.5 48.8,46.2 49,46.7 49.2,47.3 49.2,47.7 49.2,48.3 
		49.1,48.9 48.9,49.4 48.5,49.8 48.5,50 48.6,50.1 51.4,52.1 52.6,53 53.4,53.6 53.8,54 55.2,55.2 56.2,56.5 57,57.4 57.8,58.4 
		58.6,59.5 59.6,61.1 61,63.5 62,65.7 62.4,67 62.6,67.3 62.8,68 62.9,68.3 63.3,69.6 63.4,70 63.7,71.3 64,73.6 64.2,75.3 
		64.4,77.4 64.3,79.6 64.2,82.6 64,84.3 63.9,85 63.7,86.1 63.6,86.7 63.4,88.1 63.3,89.3 63.3,89.7 63.3,89.9 63.3,92.2 63.4,93.3 
		63.4,93.8 63.4,93.9 63.4,94.6 63.4,95.2 63.4,95.4 63.4,95.6 63.2,97.4 63,98.4 62.8,99.6 62.7,99.9 62.4,101.2 61.9,102.4 
		61.7,103 61.6,103.1 61.5,103.1 61.4,103 61.2,102.5 61,101.1 60.5,99.4 59.6,96 59.5,95.1 59.4,95.1 59.3,95.1 59.3,95.2 
		58.8,95.9 57.8,97.4 56.6,98.8 56,99.5 54.4,101.1 54,101.5 52.9,102.5 52,103.3 50.6,104.3 49,105.4 47.5,106.2 46,107 
		44.3,107.7 42.6,108.3 41,108.8 39.7,109.1 37.7,109.5 35.6,109.7 33.9,109.9 31.3,109.9 30.3,109.8 29.9,109.8 27.6,109.5 
		25.2,109 23.8,108.7 23.6,108.7 23.6,108.8 23.6,109.2 23.7,109.6 23.9,110.8 25,116.2 25.1,117.2 25.3,118 25.3,119.5 25.3,120.1 
		25.1,120.8 24.8,121.4 24.4,121.9 24.1,122.3 23.7,122.5 23.2,122.6 	"/>
	<polygon class="st3" points="22.8,121.3 22.4,121.3 22,121.1 21.6,120.9 21.3,120.5 21.1,120 21,119.4 20.9,118.8 21,117.4 
		21.2,116.2 21.5,115.2 21.5,115 21.7,113.4 22.1,111.4 22.2,111.1 22.3,110.5 22.5,109 22.6,109 22.7,109 22.8,110 23,111.6 
		23.8,115.4 23.8,116 24.1,117.2 24.1,118.3 24.2,119.2 24.1,119.9 23.9,120.4 23.6,120.8 23.4,121 23,121.2 	"/>
	<polygon class="st2" points="61.1,119.2 60.5,119.1 60.1,119 59.6,118.7 59.3,118.4 58.9,117.9 58.8,117.4 58.6,116.9 58.5,116.2 
		58.5,116 58.5,115.9 58.7,114.9 59,113.2 59.4,111.7 59.6,111 59.9,109.9 60.6,107.7 61.1,105.4 61.4,103.9 61.4,103.8 61.5,103.7 
		61.6,103.8 61.6,103.8 61.7,104.2 61.8,105 61.9,106.1 62,107.1 62.1,107.6 62.3,109.1 62.4,109.7 62.8,111.4 63.3,114 63.4,115.2 
		63.4,116.2 63.4,116.9 63.2,117.4 63,118 62.7,118.3 62.4,118.7 62.1,118.9 61.7,119 61.4,119.2 	"/>
	<polygon class="st2" points="9.1,118.2 8.4,118.2 7.8,118.1 7.3,117.9 7,117.6 6.7,117.2 6.3,116.7 6.2,116.3 6,115.7 6,114.9 
		6,114.2 6.1,112.8 6.6,110.8 7,109 7.3,107.7 7.5,106.7 7.6,106.1 7.8,105.3 8.4,102.8 8.7,100.5 8.8,99.9 8.9,99.8 8.9,99.8 
		9,99.8 9.1,100 9.3,101.5 9.6,103.7 10.4,107.3 10.7,108.7 10.8,108.9 10.9,109.6 11.2,110.9 11.3,111.7 11.6,113.3 11.6,114.4 
		11.6,115.3 11.4,115.9 11.2,116.7 11,117 10.7,117.4 10.5,117.6 10.4,117.7 9.8,118 9.4,118.2 	"/>
	<polygon class="st3" points="61.1,117.9 60.7,117.8 60.4,117.7 60.1,117.4 59.9,117.2 59.8,116.7 59.7,116.3 59.7,115.4 
		59.8,114.6 59.9,114.2 60,113.6 60.4,111.6 60.8,110.2 61.2,108.3 61.3,108.2 61.4,108.6 61.6,109.9 61.9,112 62,112.9 62.3,115.2 
		62.3,115.8 62.3,115.9 62.3,116.2 62.2,116.7 62.1,117.1 61.8,117.4 61.5,117.7 	"/>
	<polygon class="st3" points="8.8,116.9 8.4,116.9 8.1,116.7 7.7,116.6 7.4,116.2 7.2,115.9 7.1,115.4 7,115 7,114.4 7.1,113.1 
		7.6,111.2 8.2,108.6 9,105 9.1,104.9 9.1,105.1 9.3,106.5 9.5,107.9 9.6,108.3 9.9,110.5 10.1,111.5 10.2,112.1 10.3,113.3 
		10.3,114.5 10.2,115.4 10,115.9 9.7,116.3 9.4,116.6 9.1,116.8 	"/>
	<polygon class="st0" points="34.3,109 34.1,109 33.4,108.7 33.2,108.6 33.1,108.4 33,108.1 32.8,107.7 32.7,107.6 32.4,107.4 
		32.3,107.2 32.3,106.4 32.2,105.6 32.1,104.9 32.2,104.8 32.4,104.7 32.8,104.6 33.2,104.6 33.3,104.7 33.1,105.1 33.1,105.6 
		33.2,105.8 33.5,106.1 33.7,106.3 34,106.3 34.1,106.3 34.4,105.9 34.6,105.9 34.9,105.8 35,105.9 35,106 35,106.2 35.1,106.5 
		35.2,106.8 35.2,107 35.2,107.2 35.3,107.5 35.5,107.8 35.5,107.9 35.4,108.3 35.1,108.6 35.1,108.7 34.9,108.9 34.6,109 	"/>
	<polygon class="st0" points="28.9,109 28.7,109 28.4,108.9 28.1,108.9 28.1,108.8 28.2,108.7 29.2,108.4 29.5,108.2 29.7,108 
		29.8,107.7 30,107.6 30.3,107.5 30.6,107.6 30.7,107.6 30.6,107.7 30.5,107.7 30.2,107.9 30,108 30,108.4 29.8,108.6 	"/>
	<polygon class="st0" points="31,107.3 30.8,107.2 30.8,107.1 30.7,106.6 30.8,106 30.8,105.6 30.8,105.4 30.9,105 31,104.8 
		31,104.8 31.5,104.8 31.6,104.8 31.7,105.1 31.8,106.1 31.8,106.9 31.8,107.1 31.7,107.1 	"/>
	<polygon class="st3" points="39,106.1 38.7,106.1 38.3,105.9 38,105.6 37.9,105.4 37.6,104.7 37.5,103.9 37.4,103.3 37.6,102 
		37.8,100.7 37.9,100.3 37.9,100.2 38,99.7 38.3,98.7 38.4,98.4 38.8,96.4 38.9,95.6 39,95.6 39,95.8 39.2,96.7 39.4,97.9 39.7,99 
		39.8,99.7 40.1,100.7 40.3,102 40.4,102.8 40.4,104.1 40.3,104.7 40,105.3 39.8,105.6 39.5,105.9 39.2,106 	"/>
	<polygon class="st3" points="4.3,105.4 4,105.4 3.7,105.2 3.4,105 3.1,104.6 3,104.2 2.8,103.5 2.7,102.9 2.8,102 3,100.7 
		3.5,98.3 3.7,96.9 3.8,96.6 4,95.7 4,95.1 4.1,94.8 4.2,93.6 4.2,91.5 4,90.2 3.7,88.1 3.2,85.6 3.1,84.5 2.5,80.9 2.4,79.4 
		2.5,76 3,72.6 3.3,70.9 3.7,69.5 4.2,67.8 4.8,66 5.8,63.8 6.8,61.9 8.1,59.8 9,58.7 10.1,57.3 11.3,56 12.6,54.7 14,53.4 
		15.1,52.6 16.3,51.8 16.7,51.6 16.9,51.4 17,51.4 17.1,51.3 17.4,51.3 17.9,51.5 18.4,51.4 18.9,51.3 19.4,51.1 19.9,50.8 
		20.4,50.4 20.6,50.3 20.7,50.3 20.8,50.4 21,50.7 21.2,50.9 21.6,51.1 22,51.3 22.3,51.3 22.8,51.3 23.3,51.1 23.7,50.9 24.1,50.6 
		24.9,49.8 26.1,48.3 26.5,48 26.9,47.7 27.3,47.5 27.7,47.5 27.7,47.3 27.7,47.2 27.4,47.1 27.2,47.1 26.7,47.2 26.3,47.4 
		25.8,47.6 25.3,48 24.3,49 24,49.4 23.5,49.8 23.2,49.9 22.8,50 22.4,49.8 22.2,49.7 22,49.5 21.9,49.1 21.9,48.8 22,48.2 
		22.3,47.5 22.8,47 23.2,46.7 23.8,46.2 24.3,45.9 25.2,45.7 25.9,45.5 26.9,45.4 27.9,45.6 28.7,45.7 29.8,46.2 30.3,46.5 31,47.1 
		31.3,47.3 31.5,47.6 31.5,47.7 31.7,47.7 31.8,47.5 31.8,47.2 31.8,44.4 31.7,42.1 31.6,40.5 31.5,40 31.4,38.6 31.3,37.9 
		31.1,35.3 30.9,33.8 30.7,33.1 30.5,32.3 30.2,31.8 29.8,31.3 29.7,31 29.7,31 29.7,30.5 29.9,29.7 30.3,28.6 31,27.5 31.8,26.2 
		32.6,25.1 33.7,24 35.1,22.5 35.6,22 36.3,21.5 37.4,20.5 38.8,19.5 40.4,18.5 41.3,18 42.1,17.7 42.6,17.5 43.1,17.5 43.4,17.6 
		43.6,17.9 43.6,18.1 43.5,18.7 43.1,19.6 42,21.4 41.4,22.1 41.1,22.5 40.5,23.3 39.2,24.6 38,25.9 36,27.6 34.8,28.5 34.2,29 
		34,29.4 33.8,29.7 33.8,30 33.8,34.1 33.9,35.4 33.9,35.5 33.9,35.9 33.9,38.7 33.8,42.3 33.8,42.6 33.7,45 33.6,47.1 33.7,47.2 
		33.8,47.3 33.9,47.3 34.8,46.7 35.2,46.4 35.9,46.2 36.5,46 36.8,45.9 37.6,46 38,46.1 38.5,46.3 38.9,46.6 39.2,46.9 39.5,47.4 
		39.7,47.7 39.7,48.2 39.6,48.7 39.4,49 39.1,49.4 38.6,49.8 38.2,49.9 38,50 38.1,50.2 38.2,50.3 38.5,50.3 39,50.2 39.5,50 
		39.9,49.8 40.3,49.3 40.5,48.9 40.7,48.4 40.8,48 40.7,47.5 40.5,47.2 40.3,46.7 40.3,46.6 40.4,46.6 41,47 41.3,47.2 42,47.7 
		42.3,48 43.3,49 43.8,49.5 44.6,50.1 45.2,50.6 45.7,50.8 46.1,50.9 46.6,50.9 47.2,50.9 47.4,51 48.4,51.6 49.6,52.4 51.3,53.6 
		52.9,54.9 53.1,55.1 54.2,56.1 54.3,56.2 54.9,57 56,58.1 56.2,58.3 56.5,58.7 57.2,59.8 57.4,60 58.8,61.9 59.2,62.8 59.9,64.2 
		60.4,65.2 60.5,65.5 60.9,66.5 61.6,68.2 62.1,70.1 62.3,70.9 62.6,72.3 62.9,74.2 63,75.5 63,75.8 63,76.5 63.1,77.1 63,77.2 
		63.1,77.6 63.1,79.9 63.1,80.8 63.1,81.9 63,82.7 62.9,83.4 62.9,83.5 62.9,84.1 62.8,85 62.4,87.3 62.2,89.2 62.1,89.7 62.1,92.2 
		62.2,94.8 62.1,96 62.1,96.7 61.8,98.4 61.6,98.7 61.6,98.7 61.5,98.6 61.1,97.3 60.6,96.1 60.4,95.1 60.3,93.8 60.3,91.1 
		60.3,89.9 60,87.9 59.7,86.6 59.6,86.1 59.5,85.2 59.5,83.8 59.6,83 59.7,82.4 59.7,81.5 59.6,80.9 59.3,80.1 59.2,79.6 58.9,79.3 
		58.5,78.9 58.3,78.7 57.9,78.6 57.5,78.6 57.2,78.7 56.8,78.9 56.5,79.3 56.3,79.7 56,80.5 55.9,81.2 55.7,82.6 55.4,83.5 55.2,84 
		54.9,85.4 54.9,86.2 54.9,86.8 55,87.2 55,87.7 55.2,88.4 55.3,88.9 55.4,89.3 55.8,91.1 55.9,92.1 55.9,92.5 55.7,93 55.5,93.5 
		55.3,93.7 55,93.9 54.9,93.9 54.6,93.9 54.4,93.8 54.2,93.6 53.9,93.4 53.7,93 53.6,92.5 53.6,91.9 53.6,91.3 53.7,90.4 54.3,88.1 
		54.5,87.1 54.7,86.1 54.7,85.4 54.6,84.8 54.4,84.2 54.1,83.6 53.6,82.7 52.9,81.9 52.2,81.3 51.3,80.7 50.1,79.9 49.4,79.3 
		49,78.9 48.6,78.3 48.1,77.5 47.4,76.4 46.7,75.8 46.2,75.4 45.7,75.3 45.2,75.1 44.9,75 44.2,75.1 43.6,75.3 43.1,75.5 42.7,75.8 
		42.3,76.1 42,76.6 41.8,77.1 41.5,77.5 41.3,78.3 41.1,79.6 41,81.5 41,81.7 41,83.2 40.9,84.5 40.7,85.5 40.3,86.5 39.9,87.4 
		39.6,88.2 39.2,89.4 39,90.4 38.9,90.7 38.9,90.7 38.5,89.5 38,88.3 37.6,87.3 36.9,86.1 36.6,85.5 36.1,84.5 35.8,83.7 35.4,82.8 
		35.1,81.2 34.7,78.9 34.3,77.7 34.1,77 33.8,76.5 33.6,76.2 33.5,76.1 33.3,75.9 33,75.8 32.7,75.7 32.3,75.7 32,75.8 31.7,76 
		31.4,76.4 31.1,77.1 30.7,78.1 30.5,78.6 30,79.1 28.9,80.2 28.5,80.7 28.3,81.2 28.2,81.8 28.1,82.2 28,83.6 28.1,85.3 28.7,88.4 
		28.7,89.6 28.7,90 28.6,90.4 28.4,90.7 28.2,90.9 27.9,91 27.7,91 27.5,90.9 27.3,90.7 27.1,90.4 27.1,90.1 27,89.7 27.1,88.8 
		27.2,87.9 27.7,86 27.8,84.9 27.9,84 27.8,83.2 27.6,82.3 27.2,81.3 27,80.5 26.9,79.5 26.8,78.6 26.6,78.1 26.4,77.4 26.1,76.8 
		25.7,76.4 25.3,76 24.9,75.9 24.5,75.8 24.3,75.8 23.8,75.8 23.3,75.9 22.8,76.1 22.3,76.5 21.5,77.3 20.8,77.8 20.2,78 19.4,78.3 
		18,78.6 17.4,78.9 16.9,79.1 16.3,79.8 15.9,80.3 15.7,80.8 15.5,81.4 15.3,82.1 15.3,83.1 15.3,83.9 15.3,85.3 15.2,86.5 15,87.1 
		14,89.2 13.8,90.3 13.7,90.3 13.6,90 13.5,89.4 13.1,88.1 12.8,87.5 12.5,86.6 12.3,85.6 12.2,84.7 12,82.7 12,82.1 11.8,81.8 
		11.6,81.6 11.4,81.6 11.2,81.6 11,81.7 10.8,81.9 10.7,82.3 10.4,83 10.2,84.8 9.9,85.6 9.6,86.3 9.4,86.7 9.1,87.6 9,88.2 
		8.9,88.4 8.9,88.5 8.7,88.5 8.6,88.4 8.4,88.1 8.3,87.3 7.7,85.9 7.6,85.4 7.4,84.3 7.4,83.2 7.3,82.9 7.2,82.7 7,82.7 6.8,82.7 
		6.6,83 6.5,83.2 6.3,83.9 6.2,84.9 6.1,85.5 6,86.1 5.5,88.4 5,90.2 4.7,91.8 4.5,93 4.5,94.1 4.5,95.2 4.7,96.3 4.7,96.5 
		4.8,96.9 5.2,99.3 5.5,101.2 5.7,102.6 5.6,103.3 5.5,104 5.3,104.6 5.1,104.9 5,105 4.7,105.2 	"/>
	<polygon class="st0" points="34.1,104.7 34,104.6 34,104.6 34.1,104.6 34.2,104.6 	"/>
	<polygon class="st0" points="31,104.4 30.5,104.4 30.4,104.3 30.1,104 30,103.7 29.9,102.9 30,102.3 29.9,102.3 29.7,102.2 
		29.3,102 29.2,102 28.9,101.5 28.8,101.2 28.8,101 28.9,100.8 29.1,100.7 29.2,100.5 29,100.1 29,100 29.3,99.9 30,99.9 30.2,99.8 
		30.2,99.7 30.2,99.5 30,99.4 29.6,99.4 29.1,99.5 28.9,99.5 28.9,99.3 28.9,99.1 28.9,99 29,98.9 29.3,99 29.5,98.9 29.8,98.7 
		30.2,98.2 30.2,98.1 30.2,97.9 30,97.3 29.6,96.5 29.4,96.1 29.2,95.8 28.9,95.5 28.9,95.3 28.9,94.9 28.9,94.8 28.9,94.5 
		28.8,94.3 28.6,94 28,93.4 27.7,93.2 27.4,92.7 27.3,92.7 26.9,92.7 26.7,92.7 26.6,92.6 26.3,92.7 26,92.6 25.6,92.4 25,92.2 
		24.8,92.1 24.8,92 25,92 26.1,91.7 26.2,91.5 26.2,91.4 26.1,91.2 25.9,91.2 24.7,91.6 24.5,91.6 24.4,91.5 24.2,91.4 24.1,91.3 
		23.8,91.3 23.4,91.5 23,91.5 22.4,91.5 22,91.5 21.5,91.8 20.9,92 20.5,92.1 20.4,92.2 20.3,92.5 20.2,92.6 19.7,92.7 19.7,92.7 
		19.6,93 19.4,93.2 19.4,93.4 19.4,93.5 19.4,93.6 18.9,93.8 18.7,94 18.4,94.5 18.1,94.8 17.3,95.3 17,95.6 16.8,96 16.6,96.5 
		16.5,96.8 16.2,97.2 16.2,97.3 16.2,97.5 16.3,97.9 16.4,98.1 16.6,98.4 16.8,98.6 16.7,98.7 16.6,98.7 16.3,98.7 15.6,98.4 
		15.4,98.4 15.3,98.5 15.2,98.7 15.3,98.7 15.6,98.9 16.6,99.2 16.7,99.3 16.7,99.4 16.7,99.7 16.8,99.7 16.9,99.9 16.9,100.1 
		16.8,100.2 16.2,100.5 16.1,100.7 15.9,101 15.9,101.3 15.8,101.4 15.6,101.3 15.1,101.1 13.3,100.1 11.4,98.9 10.4,98.2 9.6,97.5 
		9.6,97.4 9.6,97.1 9.7,96.8 9.8,96.7 9.9,96.7 11.2,97.3 11.3,97.3 11.4,97.1 11.4,97 11.3,96.9 10,96.2 9.9,96.1 9.8,96 9.9,94.9 
		9.8,94.1 9.8,94 9.9,93.9 10.3,93.9 10.7,93.9 11.7,93.8 11.9,93.8 12,93.7 12,93.5 11.8,93.5 11.6,93.5 9.9,93.5 9.7,93.5 
		9.6,93.3 9.4,92.5 9.1,91.9 9.1,91.7 9.1,91.7 9.6,91.4 12.2,89.9 12.4,89.7 12.4,89.6 12.3,89.5 12.2,89.5 11.7,89.7 9.6,90.9 
		9.1,91.2 8.9,91.3 8.8,91.2 8.6,90.8 7.9,90.1 7.2,89.4 6.7,89 6.6,88.9 6.7,88.4 6.8,87.3 6.9,86.8 7,86.6 7.1,86.7 7.4,88.1 
		7.7,88.9 8.1,89.8 8.6,90.3 8.9,90.7 9,90.7 9.1,90.7 9.2,90.2 9.5,89.8 9.8,89 10.1,88 10.3,87.4 10.5,87 10.9,86 11.1,85.3 
		11.2,84.5 11.2,84.5 11.3,84.5 11.4,85.1 11.5,85.6 11.7,86.8 12.2,88.1 12.4,88.7 12.6,89.4 12.7,90.2 12.7,91.1 12.7,91.7 
		12.5,92.7 11.9,94.9 11.7,96.4 11.7,96.9 11.7,97.4 11.9,97.9 12.1,98.4 12.4,98.7 12.7,98.9 13,99.2 13.3,99.2 13.8,99.2 14.2,99 
		14.5,98.8 14.8,98.5 15.1,98.2 15.3,97.6 15.4,97 15.4,96.3 15.3,95.3 14.7,92.2 14.7,91.9 14.7,91 14.9,90.1 15.3,89.1 15.8,88.1 
		16.3,86.8 16.5,86 16.6,85 16.6,83.8 16.6,83.5 16.6,82.7 16.7,82.1 16.9,81.6 17,81.3 17.3,80.9 17.6,80.6 18.2,80.2 19.2,79.9 
		20.2,79.6 21,79.1 21.7,78.7 22.9,77.8 23.5,77.5 23.9,77.3 24.3,77.2 24.6,77.3 24.9,77.4 25.1,77.5 25.3,77.8 25.5,78.3 
		25.9,80.2 26.1,81.2 26.6,82.1 26.7,82.6 26.9,83.4 26.9,84.1 26.7,85 26.4,86.5 26.2,87.1 26,88.1 25.9,88.9 25.9,89.9 26,90.4 
		26.2,91 26.5,91.5 26.8,91.8 27.2,92.1 27.6,92.2 27.9,92.3 28.3,92.2 28.8,92.1 29.1,92 29.4,91.7 29.7,91.3 29.9,90.8 30,90.2 
		30.1,89.8 30,89.1 29.8,87.8 29.1,84.5 29.1,84.1 29.1,83.1 29.2,82.5 29.4,82.2 29.6,81.8 29.9,81.5 30.7,80.8 31.2,80.4 
		31.5,79.9 31.8,79.4 32,78.6 32.2,78.3 32.3,78.2 32.5,78.1 32.8,78.2 33,78.5 33.3,78.9 33.6,79.6 33.8,80.7 34.1,81.9 34.3,82.7 
		34.6,83.6 34.9,84.5 35.2,85.3 35.4,85.5 35.6,86.1 36.5,87.6 37.4,89.7 37.8,90.7 38.1,92 38.2,93 38.2,93.8 38.2,94.2 38.1,94.3 
		37.9,94.3 37.6,94.2 37.4,94 37.3,93.8 37.2,93.4 37.1,93.2 36.9,93.1 36.7,93.1 36.1,93.5 35.9,93.8 35.5,94 34.7,94.3 34.3,94.5 
		34,94.6 33.6,94.6 33.5,94.5 33.3,94.4 33.2,94 33.2,93.5 33.3,93.1 33.2,92.9 32.9,92.6 32.7,92.5 32.5,92.5 32,92.5 31.5,92.5 
		31.3,92.5 30.3,92.8 30,92.7 29.9,92.9 29.8,93 29.7,93 29.5,92.6 29.4,92.2 29.3,92.1 29.2,92.1 29,92.2 28.9,92.4 29.4,93.6 
		29.5,93.9 29.4,94 29.1,94.4 29.1,94.6 29.1,94.8 29.5,95 29.7,95.1 29.8,95.3 30,96.1 30.4,97.5 30.7,99.1 30.7,99.6 30.8,99.7 
		30.9,99.9 31.1,100.8 31.5,103.3 31.6,104.2 31.5,104.3 31.3,104.4 	"/>
	<polygon class="st0" points="32.2,104.3 32,104.3 32,104.1 32,103.3 32,103.2 32.2,103.4 32.4,103.5 33,103.5 33.3,103.5 
		33.3,103.5 33.3,103.6 33.2,103.9 33.2,104.1 33.1,104.2 32.4,104.3 	"/>
	<polygon class="st0" points="33.9,104.1 33.7,104.1 33.7,104 33.8,103.8 34.3,103 34.4,102.8 34.8,102.3 35.1,102.1 35.5,101.9 
		35.6,101.9 35.8,102 35.8,102.1 35.8,102.3 35.6,102.6 35.3,103.1 35,103.6 34.6,104 34.1,104.1 	"/>
	<polygon class="st0" points="32,103 31.9,103 31.8,102.4 31.5,100.2 31.3,99.7 32.3,99.4 32.8,99.4 34,99.1 34.2,99.1 34.4,99.3 
		34.4,99.4 34.4,99.8 34.5,100 34.6,100.2 34.9,100.3 34.9,100.5 34.8,100.7 33.5,102 33.3,102.5 33.1,102.8 32.7,102.8 32.2,102.8 
		32,102.9 	"/>
	<polygon class="st0" points="15.3,101.8 14.9,101.8 14.5,101.7 14.3,101.5 13.7,101.1 13.5,101 12.6,100.2 12.4,100.1 11.9,100.2 
		11.7,100.1 11.2,99.8 10.1,98.7 9.6,98.2 9.5,98 9.6,98 10.7,98.7 11.1,99 13,100.4 13.8,100.8 14.9,101.5 15.3,101.7 15.4,101.8 	
		"/>
	<polygon class="st2" points="32.1,101 32,100.9 31.8,100.7 31.7,100.5 31.8,100.4 31.9,100.2 32.1,100.2 32.6,100 33,100 
		33.1,100.1 33.2,100.2 33.2,100.5 33.1,100.7 33,100.8 32.6,100.7 	"/>
	<polygon class="st0" points="31.5,99.2 31.3,99.2 31.2,99 30.9,97.6 30.6,96.2 30.6,96.1 30.7,96.1 31,96.1 31.3,96.1 31.5,96.1 
		31.6,95.9 31.8,95.9 32.2,96.1 32.3,96.1 32.5,96.3 32.8,96.9 33,97.1 33,97.3 33,97.6 33.1,97.7 33.3,97.9 33.4,98.4 33.6,98.6 
		33.6,98.7 33.4,98.7 32.4,98.9 	"/>
	<polygon class="st3" points="13.6,97.8 13.3,97.8 13.1,97.6 12.9,97.5 12.7,97.1 12.7,96.9 12.7,96.1 13,94.8 13.6,91.7 13.6,91.6 
		13.7,91.7 14.2,95.3 14.2,96.1 14.2,96.9 14.1,97.4 13.9,97.6 13.8,97.8 	"/>
	<polygon class="st0" points="9,97.4 8.9,97.3 8.6,97 7.8,96.1 7.2,95.1 7,94.7 6.5,93.9 5.8,92.8 5.7,92.3 5.6,92.1 5.8,91.6 
		6.1,90.6 6.3,89.9 6.5,89.6 6.6,89.5 6.7,89.6 7.3,89.9 7.6,90.4 8.2,91.1 8.6,91.7 8.9,92.3 9.1,93 9.3,93.6 9.4,94.5 9.4,95.4 
		9.4,96.2 9.1,97.1 9.1,97.3 	"/>
	<polygon class="st0" points="45.9,94.8 45.7,94.7 45.4,94.6 45.1,94.6 44.9,94.5 44.9,94.3 44.9,94.2 44.9,94.1 45.1,94 45.3,94 
		45.5,93.8 45.7,93.5 46.7,92.8 46.8,92.7 46.8,92.8 46.8,92.9 46.5,93.3 46.2,93.7 46.2,93.8 46.2,94 46.3,94.1 46.5,94.1 47.1,94 
		47.3,93.8 48.1,92.9 48.2,92.7 48.2,92.5 48.4,92.2 48.6,92.1 48.8,92 49,92 49.1,92 49.2,91.8 49.2,91.4 49.3,91.2 49.7,90.9 
		49.9,90.7 50.3,90.6 50.7,90.3 50.8,90.2 51.1,90.2 51.6,90.2 51.8,90.1 52,90 52.1,90 52.3,90.2 52.3,90.4 52.1,90.6 51.8,90.7 
		51.4,90.9 51.1,91.2 50.4,92.2 50,92.5 49.8,92.5 49.5,92.6 49.4,92.6 49.2,92.7 48.9,93 48.6,93.3 48.2,93.9 48,94.3 47.9,94.5 
		47.7,94.5 47.3,94.6 47.1,94.5 46.9,94.4 46.7,94.4 46.4,94.5 46.3,94.7 46,94.7 	"/>
	<polygon class="st0" points="58.7,94.3 58.5,94.3 58.5,94.1 58.5,93.8 58.5,93.5 58.5,93.3 58.3,93 58.2,92.9 58.1,92.8 58.1,92.6 
		58.3,92.2 58.5,92 58.5,91.7 58.5,91.5 58.3,91.1 58.1,90.9 58.1,90.6 58.4,89.8 58.5,89.5 58.4,89.4 58.3,89.2 57.8,88.9 
		57.7,88.7 57.7,88.6 57.8,88.4 58.2,87.7 58.4,87.2 58.4,86.9 58.3,86.8 58.2,86.9 58,87.3 57.8,87.8 57.4,88.3 57.2,88.4 
		57.1,88.4 56.7,88.2 56.5,88.1 56.3,88.1 56.2,87.9 56,87 56,86.5 56,85.5 56,84.7 56.3,83.7 56.7,82.6 56.8,82.2 56.8,81.2 
		57,80.9 57.2,80.5 57.5,80.3 57.6,80.2 57.8,80.2 58.1,80.4 58.3,80.6 58.5,80.9 58.6,81.5 58.7,82 58.7,83.1 58.6,84.3 58.5,84.8 
		58.5,85.4 58.7,86.9 58.8,87.6 59,88.4 59.3,89.6 59.4,90.8 59.4,92.1 59.3,93.2 59.3,93.4 58.8,94.2 	"/>
	<polygon class="st0" points="41.5,94.3 41.4,94.2 41,94 40.8,93.8 40.6,93.8 40.2,93.8 39.8,93.8 39.7,93.8 39.7,93.5 39.7,92.9 
		39.7,92.7 39.9,92.6 40.3,92.6 40.5,92.6 40.8,92.7 41,92.8 41.3,93.5 41.5,93.8 41.6,94 41.6,94.2 	"/>
	<polygon class="st0" points="42.3,94 42.2,94 42.1,93.8 41.3,92.6 41.3,92.4 41.3,92.2 41.5,91.9 41.6,91.7 41.8,91.7 42.3,91.7 
		42.4,91.7 42.8,90.9 43.1,90.7 43.2,90.7 43.6,90.7 43.7,90.7 43.8,90.5 43.6,90.3 43.4,90.2 43.1,90.1 42.8,90.2 42.6,90.2 
		42.2,90.2 41.8,90 41.7,90.1 41.5,90.2 41.1,90.5 40.9,90.7 40.4,90.7 40.3,90.7 40.3,90.4 40.2,90.3 40.1,90.3 40.2,90.1 41,88.2 
		41.5,86.8 41.9,85.8 42.1,85 42.3,83.7 42.3,81.4 42.4,79.6 42.6,78.9 42.7,78.3 43.1,77.6 43.4,77.2 43.7,76.9 44.1,76.7 
		44.6,76.6 45.1,76.6 45.4,76.7 45.9,76.8 46.5,77.2 46.9,77.6 47.4,78.3 48.1,79.7 48.5,80.3 48.8,80.7 49.5,81.3 50.3,81.8 
		51.6,82.6 52.6,83.2 53,83.7 53.4,84.3 53.7,84.9 53.8,85.3 53.9,86.2 53.7,87.2 53.6,87.6 53.6,87.7 53.5,87.7 53.2,87.7 
		53.1,87.7 52.8,87.7 52.1,87.9 52,87.9 52,87.7 52.2,87.4 53.1,86.3 53.5,85.6 53.6,85.4 53.6,85.2 53.4,85.1 53.4,85.2 52.8,85.9 
		51.8,87.2 51.6,87.4 51.4,87.4 51.1,87.2 49.3,85.4 47.3,83.1 47,82.8 45.9,81.4 45.7,81.2 45.8,81 46,80.8 46.7,80.2 47.4,79.5 
		47.5,79.4 47.5,79.2 47.3,79.1 47.2,79.2 46.2,80.1 45.6,80.6 45.4,80.7 45.3,80.6 44.7,79.9 44.2,79.2 43.9,78.8 43.6,78.2 
		43.5,78.1 43.4,78 43.3,77.9 43.2,78.1 43.1,78.1 43.1,78.3 43.4,78.6 44.8,80.6 44.9,80.8 45,80.9 44.9,81.2 43.6,82.2 42.7,82.9 
		42.6,83.1 42.6,83.2 42.6,83.3 42.8,83.3 43.1,83.1 44.1,82.2 44.8,81.7 45.2,81.4 45.3,81.4 45.4,81.4 45.7,81.8 46.8,83.2 
		47.2,83.5 48,84.5 50.5,87.2 50.6,87.3 51,87.7 51.1,87.9 51,87.9 50,88.1 49.8,88.2 49.5,88.1 49.1,88.1 48.9,88 48.6,87.9 
		48.5,87.8 48.2,87.8 47.6,88 47.3,88.2 47.2,88.4 46.6,89.1 46.4,89.2 46.2,89.4 45.9,89.7 45.7,89.9 45.7,90.2 45.7,90.4 
		45.8,90.7 46,90.7 46.2,90.8 47,90.7 47,90.8 47.1,90.9 46.9,91.7 46.8,92.1 46.7,92.2 46,92.8 45.9,92.8 45.7,92.8 45.2,92.6 
		44.8,92.5 44.5,92.5 44.3,92.7 44.1,92.9 43.7,93.7 43.6,93.8 43.4,93.8 43.1,93.8 42.9,93.8 42.5,94 	"/>
	<polygon class="st2" points="15.7,93.6 15.4,93.6 15.3,93.5 15.3,93.5 15.3,93.3 15.6,93.3 17.2,93 19,92.7 19.1,92.7 19.2,92.5 
		18.9,91.9 18.3,90.4 17.7,89.1 17.4,88.4 16.9,87.4 16.9,87.3 16.7,87.3 16.5,87.3 16.4,87.3 16.3,87.2 16.5,87.1 16.6,86.9 
		16.6,86.8 16.6,86.6 16.6,86.4 16.8,86.4 17,86.6 17.2,86.6 18.4,85.9 19.3,85.5 22,83.9 24.1,82.6 24.4,82.4 24.5,82.2 24.3,82 
		24,81.2 23.2,80.1 23,79.6 22.5,79 22.5,78.9 22.5,78.7 22.6,78.6 22.7,78.7 23,79 23.8,80.1 24.6,81.4 24.8,81.9 24.9,82 25.1,82 
		25.8,81.7 26,81.6 26.1,81.7 26.1,81.9 26,82 25.3,82.4 25.3,82.5 25.2,82.7 25.3,83 26.3,84.7 26.5,85.2 26.5,85.4 26.4,85.5 
		26.4,85.5 26.3,85.5 26,85.1 25.1,83.2 24.8,82.8 24.7,82.8 24.2,83 23.6,83.4 23.1,83.7 22.9,83.8 22.7,83.9 20.5,85.2 17.4,86.9 
		17.3,87.1 17.3,87.2 18.1,88.8 18.5,89.9 18.9,90.7 19.5,92.5 19.5,92.7 19.4,92.9 19.3,93.1 19.1,93.2 17,93.5 	"/>
	<polygon class="st0" points="20,93.4 19.9,93.4 19.8,93.3 19.8,93.2 19.9,93.1 20.1,93 20.3,93 20.4,93.1 20.4,93.3 20.1,93.3 	"/>
	<polygon class="st2" points="30.5,90 30.3,90 30.3,89.8 30.4,89.7 30.7,89.5 31.4,89.3 33.3,88.4 35.1,87.6 35.8,87.2 35.9,87.2 
		36.1,87.3 36.1,87.4 36,87.5 35.5,87.8 33.3,88.9 31.8,89.6 30.6,90 	"/>
	<polygon class="st3" points="18.4,50.1 17.9,50.1 17.4,50 17.1,49.7 16.9,49.5 16.8,49.2 16.7,48.6 16.7,48.1 16.9,47.5 17,47 
		17.5,46.2 18,45.7 18.4,45.4 19.3,44.6 20.5,44.1 21.5,43.6 23.1,43.2 24,43.1 25.1,43.1 26.1,43.2 26.8,43.4 27.6,43.6 28.4,43.9 
		29.1,44.3 29.9,44.9 30.5,45.5 30.8,46 30.8,46.1 30.7,46 30.1,45.6 29.2,45.2 28.4,44.9 27.6,44.6 26.6,44.6 25.6,44.6 24.7,44.7 
		23.9,45 23.1,45.4 22.4,45.8 22,46.2 21.4,46.8 20.7,47.9 20,49 19.5,49.6 19.2,49.8 18.7,50 	"/>
	<polygon class="st3" points="46.6,49.7 46.2,49.7 45.8,49.5 45.2,49.3 43.9,48.1 43.1,47.3 42.6,46.9 42.1,46.6 41.2,45.9 
		40.5,45.6 39.5,45.2 38.7,44.9 37.8,44.9 37.2,44.9 36.6,45 35.7,45.3 35.5,45.4 35.5,45.3 35.6,45.2 36,44.9 36.9,44.4 37.7,44.1 
		39,43.8 39.7,43.6 40.5,43.6 41.8,43.6 42.8,43.7 43.8,43.9 44.5,44.2 45.2,44.5 45.8,44.9 46.7,45.6 47.2,46.2 47.5,46.7 
		47.7,47.2 47.8,47.7 47.8,48.2 47.7,48.6 47.6,49 47.4,49.3 47,49.5 	"/>
	<polygon class="st2" points="37.2,49.3 37,49.3 36.9,49.1 36.7,48.7 36.4,48.3 36.1,48 35.6,47.8 35.2,47.7 34.9,47.7 34.4,47.7 
		34.3,47.7 34.3,47.6 34.4,47.5 34.6,47.2 35.1,47 35.4,47 35.8,47 36.2,47 36.5,47.2 36.8,47.5 36.9,47.7 37.1,48.2 37.2,49.2 	"/>
	<polygon class="st3" points="30.9,44.9 30.7,44.8 30.2,44.3 29.4,43.6 28.6,43.1 27.7,42.6 26.9,42.3 25.8,42.1 25,42 24.6,41.9 
		23.6,42 22.6,42.1 21.4,42.4 20.2,42.9 19.7,43 19.4,43 19,42.8 18.8,42.6 18.7,42.5 18.6,42.1 18.7,41.6 18.8,41.2 19.1,40.8 
		19.4,40.5 19.9,40.2 20.5,40 21.2,39.7 22,39.5 22.5,39.5 23.5,39.5 24.6,39.7 25.5,40 26.8,40.6 27.8,41.3 28.7,41.9 29.6,42.8 
		30.1,43.5 30.7,44.4 30.9,44.8 30.9,44.9 	"/>
	<polygon class="st3" points="34.9,44.6 34.9,44.6 35.1,44.2 35.7,43.4 36.9,42.1 37.7,41.4 38.7,40.8 39.9,40.1 41,39.7 41.8,39.6 
		42.3,39.5 43.1,39.5 43.6,39.6 44,39.8 44.4,40 44.6,40.3 44.8,40.5 44.9,40.8 44.9,41.2 44.6,41.6 44.4,41.8 44,42.1 43.4,42.3 
		42.7,42.3 40,42.5 39,42.6 38.4,42.8 37.5,43.1 36.8,43.4 35.9,43.9 35.1,44.6 	"/>
	<polygon class="st3" points="34.6,43.6 34.5,43.6 34.5,43.4 34.8,42.3 35.1,41.2 35.7,40 36.3,38.8 36.7,38.2 37.5,37.4 37.8,37.1 
		38.4,36.7 38.9,36.3 39.6,36 40,35.9 40.6,35.9 41,36.1 41.3,36.3 41.5,36.5 41.6,36.9 41.6,37.2 41.5,37.5 41.3,37.9 40.9,38.2 
		40.3,38.7 39.3,39.1 38.5,39.5 37.9,40 36.7,40.8 35.9,41.6 35.4,42.2 34.9,43.1 34.6,43.6 	"/>
	<polygon class="st3" points="31,43.6 30.9,43.5 30.3,42.6 29.9,42.1 29.1,41.2 28,40.3 26.8,39.6 24.8,38.5 24.4,38.2 24.1,37.9 
		23.9,37.4 23.8,37.2 23.8,36.8 24,36.4 24.2,36.2 24.5,36 24.8,35.9 25.2,35.9 25.7,36.1 26.5,36.4 27.1,36.9 28.1,37.7 28.8,38.5 
		29.6,39.5 30.1,40.3 30.5,41.2 30.7,42.1 31,43.1 31,43.6 	"/>
	<polygon class="st0" points="28.7,29.1 28.6,29.1 28.3,28.9 28.2,28.6 28.1,28.4 28.2,28.2 28.2,27.7 28.7,26.5 29.5,25.3 
		30.6,23.6 32,22 32.5,21.3 33.4,20.5 34.7,19.4 36.6,18 37.9,17.1 39.3,16.3 40.4,15.9 41.1,15.8 41.4,15.8 41.7,16.1 41.8,16.2 
		41.8,16.3 41.6,16.5 40.4,17 39.1,17.7 38.5,18.2 38.1,18.4 36.8,19.4 36.4,19.7 35.3,20.6 33.8,21.9 32.6,23.2 32.3,23.6 
		31.8,24.3 30.7,25.7 29.9,26.9 29,28.4 28.8,29 	"/>
	<polygon class="st0" points="26.9,28.2 26.6,28.2 26.4,28 25.3,26.9 25.5,26.2 25.5,25.9 25.4,25.8 24.8,25.1 23.8,24 21.4,21.4 
		18.8,18.6 17.9,17.4 17.5,17.1 17.3,16.8 17.3,16.6 17.4,16.1 17.6,15.1 18.1,14 18.7,12.9 19.2,11.9 19.7,11.1 21,9.5 21.7,8.6 
		22.6,7.8 23.3,7.2 24.3,6.5 25.6,5.5 27.1,4.8 28.3,4.3 29.2,4 29.8,3.9 30.3,3.9 30.6,4 30.8,4.1 31.8,5.2 32.1,5.5 33.1,6.6 
		33.7,7.3 36.1,9.9 36.6,10.4 36.9,10.8 39.1,13.2 39.3,13.3 39.5,13.3 40,13.2 40.2,13.2 40.4,13.4 40.8,13.8 41,14 41.2,14.3 
		41.3,14.5 41.1,14.8 41,15.2 40.8,15.3 40.1,15.5 38.6,16.1 37.7,16.6 35.5,18.1 34.3,19 32.9,20.2 31.7,21.5 30.8,22.5 30.2,23.3 
		29.4,24.5 28.4,25.9 28,26.8 27.7,27.4 27.5,27.9 27.5,28 27.3,28.1 27.1,28.1 	"/>
	<polygon class="st0" points="24.6,27.9 24.5,27.9 24.1,27.4 23.9,27.2 23,26 22.5,25.1 22,24.3 21.9,23.9 21.9,23.8 22,23.9 
		22.8,24.6 24.1,26.1 24.3,26.4 24.3,26.6 24.2,27.2 24.3,27.4 24.6,27.9 	"/>
	<polygon class="st3" points="26.1,23.8 25.8,23.8 25.3,23.7 24.8,23.5 24.3,23 23.7,22.4 23,21.5 22.5,20.6 22.2,19.9 22,19.4 
		22,18.9 22,18.4 22.2,17.8 22.5,17.1 22.5,16.9 22.3,16.4 21.5,15.6 21.2,15.1 20.6,14.3 20.5,14 20.5,13.8 20.7,13.2 21,12.9 
		21.2,12.9 21.2,13 22.1,14 25.9,18.9 27,20.4 27.6,21.1 28,21.7 28,21.8 28,22 27.5,22.8 27.1,23.3 26.9,23.5 26.5,23.8 	"/>
	<polygon class="st0" points="26,22.1 25.6,22.1 25.3,21.9 24.9,21.7 24.5,21.2 23.8,20.2 23.6,19.7 23.4,19.3 23.4,19.1 23.4,18.8 
		23.5,18.5 23.5,18.4 23.7,18.4 23.9,18.7 26.1,21.5 26.3,21.7 26.3,21.9 26.1,22 	"/>
	<polygon class="st3" points="28.4,21.4 28.2,21.3 27,19 25.6,16.6 23.8,13.5 22.5,11 22.5,10.9 22.6,10.6 23,10.2 23.2,10 
		23.3,9.9 23.5,9.8 23.6,9.9 24.1,10.4 24.4,10.7 27.8,14.2 28.4,14.8 28.4,14.8 28.4,14.7 27.4,13.2 25,9.4 24.7,8.9 24.7,8.7 
		24.9,8.5 25.5,8 25.8,7.9 25.9,7.9 26.5,8.4 26.9,8.7 31.9,13.5 34,15.6 34.1,15.7 34.1,15.8 33.8,16.1 33.1,16.5 33,16.6 
		32.8,16.5 32.5,16.2 31.5,15.1 31,14.6 30.5,14.1 30.2,13.8 28.5,12 27.7,11 27.4,10.9 27.5,11.1 27.7,11.5 28.7,13.1 30,15.1 
		30.5,15.8 31,16.6 31.6,17.6 31.7,17.9 31.5,18 30.8,18.7 30.7,18.8 30.5,18.7 30.3,18.5 28.9,17 28,16.1 25.4,13.3 25.3,13.2 
		25.3,13.3 25.4,13.7 27.1,16.6 29.2,20.2 29.2,20.4 29.2,20.6 28.6,21.3 	"/>
	<polygon class="st0" points="16.6,16.1 16.6,16.1 16.3,15.7 16.2,15.5 16.2,15.1 16.3,14.7 16.6,13.7 17.1,12.7 17.7,11.5 
		18.8,9.9 19,9.6 19.6,8.9 20,8.4 20.2,8.2 21.1,7.2 21.5,6.8 22,6.5 22.5,6 23.7,5.1 25,4.3 26.2,3.7 27.4,3.1 28.4,2.8 29.1,2.7 
		29.4,2.7 29.5,2.8 29.9,3.1 30,3.2 29.9,3.3 28.9,3.5 27.7,3.9 26.2,4.6 25.1,5.2 23.6,6.2 22.5,7.1 21.7,7.8 20.9,8.7 19.7,10.1 
		19,11.1 18.1,12.6 17.4,13.9 17.1,14.8 16.7,16 	"/>
	<polygon class="st3" points="35,15 34.4,14.9 34,14.8 33.5,14.5 32.5,13.6 32.3,13.2 32.2,13.1 32.3,13 32.5,12.8 33.1,12.5 
		33.3,12.5 33.4,12.6 33.8,12.9 34.1,13.2 34.4,13.4 34.8,13.5 35,13.5 35.1,13.3 35.2,13.1 35.1,12.9 34.8,12.5 34.5,12.2 
		33.8,11.8 32.9,11.4 31.3,10.7 29.8,10 29,9.4 28.5,8.9 28.2,8.5 28,8 27.9,7.6 27.9,7.2 28.1,6.8 28.3,6.5 28.6,6.2 28.9,6 
		29.5,5.9 30,5.9 30.5,6 31.1,6.3 31.9,6.8 32.5,7.3 32.6,7.6 32.5,7.6 32.2,7.9 31.7,8.1 31.5,8.1 31.3,8 30.8,7.6 30.4,7.3 
		30,7.3 29.8,7.3 29.6,7.4 29.5,7.6 29.6,7.8 29.7,8.1 30,8.4 30.6,8.8 31.3,9.1 31.6,9.3 31.8,9.3 31.9,9.4 33.6,10.1 34.3,10.5 
		35.2,11 35.7,11.4 36.1,11.8 36.4,12.3 36.7,12.7 36.7,13.2 36.7,13.5 36.7,13.9 36.5,14.2 36.3,14.5 35.9,14.8 35.5,14.9 35.2,15 
			"/>
	<polygon class="st0" points="41.2,12.2 41,12.1 40.7,11.8 40.5,11.7 40.2,11.7 40,11.8 39.8,11.8 39.5,11.4 38.7,10.7 37.4,9.3 
		37.3,9.1 37.5,9.1 38.4,9.7 39.6,10.6 40.5,11.4 41.1,12.1 41.2,12.2 	"/>
	<path class="st2" d="M51.4,113.6c1.9,0,3.5,1.6,3.5,3.5c0,1.9-1.6,3.5-3.5,3.5v-0.8c1.4,0,2.5-1.1,2.5-2.7c0-1.7-1.1-2.7-2.5-2.7
		V113.6L51.4,113.6z M51.4,117.7l0.8,1.4h0.9l-1.1-1.7c0.6,0,1.1-0.3,1.1-1c0-0.9-0.6-1.2-1.6-1.2h-0.1v0.6h0.1c0.3,0,0.7,0,0.7,0.4
		c0,0.4-0.3,0.5-0.6,0.5h-0.1V117.7z M51.4,113.6L51.4,113.6v0.8l0,0c-1.4,0-2.5,1.1-2.5,2.7c0,1.7,1.2,2.7,2.5,2.7l0,0v0.8l0,0
		c-1.9,0-3.5-1.6-3.5-3.5C47.9,115.2,49.5,113.6,51.4,113.6L51.4,113.6z M51.4,115.2H50v3.9h0.8v-1.7h0.4l0.1,0.3v-0.9h-0.6v-0.9
		h0.6V115.2z"/>
	<polygon class="st0" points="37.4,110.8 37.3,110.8 37.3,110.8 37.4,110.8 37.5,110.8 	"/>
	<g>
		<path class="st4" d="M20.9,60.1c-0.3,0.1-0.5,0.1-0.7,0.2c-0.2,0-0.5,0-0.8,0c-0.8,0-1.5-0.2-2.1-0.6c-0.5-0.5-0.9-1.1-0.9-2
			c0-0.9,0.3-1.5,0.8-2c0.5-0.5,1.3-0.7,2.2-0.7c0.3,0,0.5,0.1,0.7,0.1c0.2,0.1,0.5,0.1,0.8,0.2l-0.1,1.1c-0.4-0.3-0.9-0.4-1.3-0.4
			s-0.9,0.2-1.1,0.5c-0.3,0.3-0.5,0.7-0.5,1.2c0,0.5,0.2,0.9,0.5,1.2c0.3,0.3,0.7,0.4,1.3,0.4c0.2,0,0.4,0,0.6-0.1
			c0.2,0,0.5-0.1,0.7-0.2L20.9,60.1z"/>
		<path class="st4" d="M26.2,58.3c0,0.7-0.2,1.2-0.6,1.5c-0.4,0.3-0.9,0.5-1.6,0.5c-0.7,0-1.3-0.1-1.7-0.5c-0.4-0.3-0.6-0.9-0.6-1.5
			v-3.2h1.4v3c0,0.3,0.1,0.7,0.2,0.9c0.1,0.3,0.3,0.3,0.7,0.3c0.3,0,0.5-0.1,0.7-0.3c0.1-0.2,0.2-0.5,0.2-0.9v-3h1.3V58.3z"/>
		<path class="st4" d="M29.4,55.1h0.3c0.5,0,0.9,0.1,1.2,0.3c0.3,0.2,0.5,0.5,0.5,0.9c0,0.3-0.1,0.6-0.2,0.7
			c-0.1,0.2-0.4,0.3-0.7,0.5c0.7,0.1,1,0.5,1,1.1c0,0.5-0.2,0.9-0.5,1.1c-0.4,0.2-0.9,0.3-1.5,0.3h-0.1v-1c0.3,0,0.4-0.1,0.5-0.1
			c0.1-0.1,0.2-0.2,0.2-0.4c0-0.3-0.1-0.4-0.3-0.5c-0.1,0-0.3-0.1-0.5-0.1v-1c0.1,0,0.3,0,0.3-0.1C30,57,30,56.8,30,56.6
			c0-0.2-0.1-0.3-0.3-0.4c-0.1-0.1-0.2-0.1-0.3-0.1V55.1z M27.3,55.1h2.1v0.9c-0.1,0-0.2,0-0.3,0h-0.4v1.1h0.3c0.1,0,0.3,0,0.3-0.1
			v1c-0.1,0-0.2,0-0.3,0h-0.4v1.2h0.4c0.1,0,0.2-0.1,0.3-0.1v1h-2.1V55.1z"/>
		<path class="st4" d="M34.6,55.1H35c0.5,0,0.9,0.1,1.2,0.3c0.3,0.2,0.5,0.5,0.5,0.9c0,0.7-0.3,1.1-1,1.3c0.1,0.1,0.3,0.1,0.3,0.2
			c0.1,0.1,0.2,0.4,0.5,0.9l0.5,1.4h-1.4l-0.3-0.9c-0.1-0.4-0.3-0.7-0.4-0.9c-0.1-0.1-0.1-0.1-0.2-0.1v-1.1c0.2,0,0.3-0.1,0.4-0.1
			c0.2-0.1,0.3-0.3,0.3-0.5c0-0.3-0.1-0.4-0.3-0.5c-0.1-0.1-0.2-0.1-0.4-0.1V55.1z M32.6,55.1h2v0.9c-0.1,0-0.2,0-0.3,0h-0.3v1.1
			h0.3c0.1,0,0.3,0,0.3,0v1.1c-0.1-0.1-0.2-0.1-0.4-0.1h-0.3v2h-1.3V55.1z"/>
		<polygon class="st4" points="37.8,55.1 41.4,55.1 41.4,56.1 39.1,56.1 39.1,57.2 41.3,57.2 41.3,58.1 39.1,58.1 39.1,59.3 
			41.5,59.3 41.5,60.2 37.8,60.2 		"/>
		<polygon class="st4" points="42.6,55.1 44.4,55.1 46.1,58.6 46.1,55.1 47.3,55.1 47.3,60.2 45.6,60.2 43.8,56.7 43.9,60.2 
			42.6,60.2 		"/>
		<polygon class="st4" points="27.9,61.6 29.3,61.6 29.3,65.7 31.4,65.7 31.4,66.7 27.9,66.7 		"/>
		<path class="st4" d="M34.9,61.6h0.9l2,5.1h-1.5l-0.4-1.1h-0.9v-1h0.7l-0.7-2v0.1V61.6z M34.1,61.6h0.8v1.1l-0.7,1.9h0.7v1h-0.9
			l-0.4,1.1h-1.4L34.1,61.6z"/>
		<polygon class="st4" points="19.5,69.1 18.2,69.1 18.2,68.1 22.1,68.1 22.1,69.1 20.8,69.1 20.8,73.2 19.5,73.2 		"/>
		<rect x="23.2" y="68.1" class="st4" width="1.3" height="5.1"/>
		<polygon class="st4" points="26.1,68.1 29.7,68.1 29.7,69 27.5,69 27.5,70.1 29.6,70.1 29.6,71 27.5,71 27.5,72.2 29.8,72.2 
			29.8,73.2 26.1,73.2 		"/>
		<path class="st4" d="M33.1,68.1h0.4c0.5,0,0.9,0.1,1.1,0.3c0.3,0.2,0.5,0.5,0.5,0.9c0,0.7-0.3,1.1-0.9,1.3
			c0.1,0.1,0.2,0.1,0.3,0.2c0.1,0.1,0.2,0.4,0.4,0.9l0.5,1.4H34l-0.3-0.9c-0.1-0.4-0.3-0.7-0.4-0.9c0-0.1-0.1-0.1-0.1-0.1v-1.1
			c0.1,0,0.3,0,0.4-0.1c0.2-0.1,0.3-0.2,0.3-0.5c0-0.3-0.1-0.4-0.3-0.5c-0.1-0.1-0.3-0.1-0.4-0.1V68.1z M31,68.1h2.1v1
			C33,69,32.9,69,32.8,69h-0.3v1.2h0.3c0.1,0,0.2-0.1,0.3-0.1v1.1c-0.1-0.1-0.3-0.1-0.4-0.1h-0.3v2H31V68.1z"/>
		<path class="st4" d="M38.5,68.1h0.4c0.5,0,0.9,0.1,1.2,0.3c0.3,0.2,0.5,0.5,0.5,0.9c0,0.7-0.3,1.1-1,1.3c0.1,0.1,0.3,0.1,0.3,0.2
			c0.1,0.1,0.2,0.4,0.5,0.9l0.5,1.4h-1.4l-0.3-0.9c-0.1-0.4-0.3-0.7-0.4-0.9c-0.1-0.1-0.1-0.1-0.2-0.1v-1.1c0.2,0,0.3,0,0.4-0.1
			c0.2-0.1,0.3-0.2,0.3-0.5c0-0.3-0.1-0.4-0.3-0.5c-0.1-0.1-0.2-0.1-0.4-0.1V68.1z M36.5,68.1h2v1C38.4,69,38.3,69,38.2,69h-0.3v1.2
			h0.3c0.1,0,0.3-0.1,0.3-0.1v1.1c-0.1-0.1-0.2-0.1-0.4-0.1h-0.3v2h-1.3V68.1z"/>
		<path class="st4" d="M44.2,68.1h0.9l2,5.1h-1.5l-0.3-1.1h-1v-1h0.7l-0.6-2l-0.1,0.1V68.1z M43.4,68.1h0.8v1.1l-0.6,1.9h0.6v1h-0.9
			l-0.4,1.1h-1.4L43.4,68.1z"/>
	</g>
</g>
</svg>
