<?xml version="1.0" encoding="utf-8"?>
<svg version="1.1" xmlns="http://www.w3.org/2000/svg" xmlns:xlink="http://www.w3.org/1999/xlink" x="0px" y="0px" width="172px"
	 height="37px" viewBox="0 0 172 37" enable-background="new 0 0 172 37" xml:space="preserve">
<g id="">
	<rect x="1" y="1" fill="#FFFFFF" width="21.3" height="21.3"/>
</g>
<g id="">
	<g>
		<g>
			<g>
				<path fill="#FF0000" d="M13,18.8c2.9-0.5,5.3-2.9,5.8-5.8H13V18.8z"/>
				<path fill="#FF0000" d="M4.5,10.3h5.8V4.5C7.4,5,5,7.4,4.5,10.3z"/>
				<path fill="#FF0000" d="M0,0v23.3h23.3V0H0z M11.6,21.3c-5.4,0-9.7-4.3-9.7-9.7s4.3-9.7,9.7-9.7s9.7,4.3,9.7,9.7
					S17,21.3,11.6,21.3z"/>
				<path fill="#FF0000" d="M10.3,18.8V13H4.5C5,15.9,7.4,18.2,10.3,18.8z"/>
				<path fill="#FF0000" d="M13,4.5v5.8h5.8C18.2,7.4,15.9,5,13,4.5z"/>
			</g>
			<path d="M39.9,10.2c3.5,0.1,6.9,1.1,6.9,4.3c0,3.5-4.1,5.2-8.9,5.2c-3.1,0-7.3-1.3-9.7-3.2l2.2-2.6c1.5,1.1,4.5,2.5,7.5,2.5
				s4.7-0.7,4.7-1.7c0-0.9-0.9-1.2-3.1-1.3c-0.6,0-3.8,0-3.9,0H35c-4.3-0.2-6.2-2-6.2-4.5c0-2.1,2.1-4.9,8.7-4.9
				c3.3,0,7.4,1.5,9.5,3.2l-2.2,2.6c-1.5-1.3-4-2.5-7.3-2.5c-2.8,0-4.6,0.4-4.8,1.5c-0.2,1,0.7,1.4,3.7,1.5c0.6,0,2.9,0,3,0
				C39.5,10.2,39.8,10.2,39.9,10.2"/>
			<polyline points="91.4,4.5 85.7,13.4 79.9,4.5 76.3,4.5 76.3,18.8 79.9,18.8 79.9,10.5 85.7,19.4 91.4,10.4 91.4,18.8 95,18.8
				95,4.5 91.4,4.5 			"/>
			<polyline points="153.2,7.9 153.2,4.4 138.1,4.4 138.1,7.6 147.8,7.6 137.4,15.4 137.4,18.8 154.3,18.8 154.3,15.7 142.8,15.7
				153.2,7.9 			"/>
			<path d="M163.7,19.6c-6.8,0-8.3-2.6-8.3-6c0-1.5,0-9.1,0-9.1h3.6c0,0,0,7.3,0,8.1c0,2.2,0.6,3.9,4.7,3.9c4.1,0,4.7-1.7,4.7-3.9
				c0-0.8,0-8.1,0-8.1h3.6c0,0,0,7.6,0,9.1C172,17,170.5,19.6,163.7,19.6"/>
			<path d="M132.7,5.7c-0.9-0.7-2.2-1.3-5-1.3c-1.2,0-9.4,0-9.4,0v14.4h13c1.7,0,2.9-0.7,3.5-1.3c0.9-0.9,1.7-2.5,1.3-5.2
				C135.7,9.8,134.7,7.3,132.7,5.7 M132,14.6c-0.1,0.3-0.5,1.2-2,1.2h-8.1V7.6c0,0,3.9,0,5,0c1.6,0,2.7,0.2,3.6,1.1
				C132,10.2,132.4,13.4,132,14.6z"/>
			<polyline points="63.6,11.2 52.8,11.2 52.8,4.5 49.2,4.5 49.2,18.8 52.8,18.8 52.8,14.4 63.5,14.4 63.5,18.8 67.2,18.8 67.2,4.5
				63.6,4.5 63.6,11.2 			"/>
			<polyline points="69.9,18.8 73.6,18.8 73.6,4.5 69.9,4.5 69.9,18.8 			"/>
			<path d="M108.7,4.4H105l-8.4,14.4h4.4l1-1.9l0.1-0.1h9.5l0.1,0.1l1,1.9h4.4L108.7,4.4 M103.7,13.7l3.1-5.7l3.1,5.7H103.7z"/>
		</g>
		<g>
			<g>
				<path d="M37.6,26.8h5.2V28h-3.9v2.7h3.5v1.2h-3.5V35h3.9v1.2h-5.2V26.8z"/>
				<path d="M46.5,32.5l-2.2-3.2h1.6l1.5,2.4l1.5-2.4h1.4L48,32.5l2.4,3.6h-1.5l-1.7-2.7l-1.7,2.7H44L46.5,32.5z"/>
				<path d="M56,30.4c-0.5-0.2-1-0.3-1.4-0.3c-1.4,0-2.2,1.3-2.2,2.6c0,1.2,0.7,2.6,2.3,2.6c0.4,0,1-0.1,1.3-0.4l0.1,1.1
					c-0.5,0.2-1.1,0.3-1.6,0.3c-2.1,0-3.5-1.6-3.5-3.6c0-2.1,1.4-3.6,3.5-3.6c0.5,0,1.2,0.1,1.5,0.3L56,30.4z"/>
				<path d="M62.9,35.8c-0.5,0.2-1,0.4-2.1,0.4c-2.4,0-3.5-1.5-3.5-3.7c0-2,1.3-3.4,3.2-3.4c2.3,0,3,1.7,3,3.8h-4.9
					c0,1.3,1.1,2.3,2.2,2.3c0.8,0,1.8-0.4,2.1-0.7V35.8z M62.1,32c0-1-0.6-1.9-1.7-1.9c-1.2,0-1.7,1-1.8,1.9H62.1z"/>
				<path d="M65,26.1h1.3v10H65V26.1z"/>
				<path d="M68.4,26.1h1.3v10h-1.3V26.1z"/>
				<path d="M77.1,35.8c-0.5,0.2-1,0.4-2.1,0.4c-2.4,0-3.5-1.5-3.5-3.7c0-2,1.3-3.4,3.2-3.4c2.3,0,3,1.7,3,3.8h-4.9
					c0,1.3,1.1,2.3,2.2,2.3c0.8,0,1.8-0.4,2.1-0.7C77.1,34.5,77.1,35.8,77.1,35.8z M76.3,32c0-1-0.6-1.9-1.7-1.9
					c-1.2,0-1.7,1-1.8,1.9H76.3z"/>
				<path d="M91.3,30.4c-0.5-0.2-1-0.3-1.4-0.3c-1.4,0-2.2,1.3-2.2,2.6c0,1.2,0.7,2.6,2.3,2.6c0.4,0,1-0.1,1.3-0.4l0.1,1.1
					c-0.5,0.2-1.1,0.3-1.6,0.3c-2.1,0-3.5-1.6-3.5-3.6c0-2.1,1.4-3.6,3.5-3.6c0.5,0,1.2,0.1,1.5,0.3L91.3,30.4z"/>
				<path d="M98.1,35.8c-0.5,0.2-1,0.4-2.1,0.4c-2.4,0-3.5-1.5-3.5-3.7c0-2,1.3-3.4,3.2-3.4c2.3,0,3,1.7,3,3.8h-4.9
					c0,1.3,1.1,2.3,2.2,2.3c0.8,0,1.8-0.4,2.1-0.7C98.1,34.5,98.1,35.8,98.1,35.8z M97.3,32c0-1-0.6-1.9-1.7-1.9
					c-1.2,0-1.7,1-1.8,1.9H97.3z"/>
				<path d="M104.5,29.3h1.3v6.8h-1.3V29.3z"/>
				<path d="M131.1,30.4c-0.5-0.2-1-0.3-1.4-0.3c-1.4,0-2.2,1.3-2.2,2.6c0,1.2,0.7,2.6,2.3,2.6c0.4,0,1-0.1,1.3-0.4l0.1,1.1
					c-0.5,0.2-1.1,0.3-1.6,0.3c-2.1,0-3.5-1.6-3.5-3.6c0-2.1,1.4-3.6,3.5-3.6c0.5,0,1.2,0.1,1.5,0.3L131.1,30.4z"/>
				<path d="M141.9,35.8c-0.5,0.2-1,0.4-2.1,0.4c-2.4,0-3.5-1.5-3.5-3.7c0-2,1.3-3.4,3.2-3.4c2.3,0,3,1.7,3,3.8h-4.9
					c0,1.3,1.1,2.3,2.2,2.3c0.8,0,1.8-0.4,2.1-0.7V35.8z M141.1,32c0-1-0.6-1.9-1.7-1.9c-1.2,0-1.7,1-1.8,1.9H141.1z"/>
				<path d="M156.2,30.4c-0.5-0.2-1-0.3-1.4-0.3c-1.4,0-2.2,1.3-2.2,2.6c0,1.2,0.7,2.6,2.3,2.6c0.4,0,1-0.1,1.3-0.4l0.1,1.1
					c-0.5,0.2-1.1,0.3-1.6,0.3c-2.1,0-3.5-1.6-3.5-3.6c0-2.1,1.4-3.6,3.5-3.6c0.5,0,1.2,0.1,1.5,0.3L156.2,30.4z"/>
				<path d="M163.2,35.8c-0.5,0.2-1,0.4-2.2,0.4c-2.4,0-3.5-1.5-3.5-3.7c0-2,1.3-3.4,3.2-3.4c2.3,0,3,1.7,3,3.8h-4.9
					c0,1.3,1.1,2.3,2.2,2.3c0.8,0,1.8-0.4,2.1-0.7L163.2,35.8L163.2,35.8z M162.4,32c0-1-0.6-1.9-1.7-1.9c-1.2,0-1.7,1-1.8,1.9
					H162.4z"/>
				<path d="M85,33.5L85,33.5v-0.2l0,0c-0.1-3.1-2.2-3.9-3.3-3.9h-2.1l0,0H79v6.8h1.3v-5.6h1.5c0.1,0,2,0,2.1,2.8v2.8H85V33.5
					L85,33.5z"/>
				<path d="M114.1,33.5L114.1,33.5v-0.2l0,0c-0.1-3.1-2.2-3.9-3.3-3.9h-2.1l0,0h-0.6v6.8h1.3v-5.6h1.5c0.1,0,2,0,2.1,2.8v2.8h1.3
					L114.1,33.5L114.1,33.5z"/>
				<path d="M150,33.5L150,33.5v-0.2l0,0c-0.1-3.1-2.2-3.9-3.3-3.9h-2.1l0,0H144v6.8h1.3v-5.6h1.5c0.1,0,2,0,2.1,2.8v2.8h1.3
					L150,33.5L150,33.5z"/>
				<path d="M105.9,27.1c0,0.4-0.3,0.8-0.8,0.8c-0.4,0-0.8-0.3-0.8-0.8c0-0.4,0.3-0.8,0.8-0.8C105.5,26.4,105.9,26.7,105.9,27.1z"/>
				<path d="M133.2,29.3h1.3v6.8h-1.3V29.3z"/>
				<path d="M134.6,27.1c0,0.4-0.3,0.8-0.8,0.8c-0.4,0-0.8-0.3-0.8-0.8c0-0.4,0.3-0.8,0.8-0.8C134.3,26.4,134.6,26.7,134.6,27.1z"/>
			</g>
			<path d="M124.4,28.2c-0.7-0.3-1.1-0.4-1.7-0.4c-0.7,0-1.6,0.3-1.6,1.2c0,1.8,4,1.4,4,4.4c0,2-1.5,2.8-3.4,2.8
				c-0.7,0-1.3-0.2-1.9-0.4l0.1-1.2c0.5,0.2,1.3,0.5,1.9,0.5c0.8,0,1.8-0.4,1.8-1.5c0-2.1-4-1.5-4-4.4c0-1.7,1.3-2.5,3-2.5
				c0.6,0,1.3,0.1,2,0.3L124.4,28.2z"/>
		</g>
	</g>
</g>
</svg>
