<svg xmlns="http://www.w3.org/2000/svg" viewBox="0 0 149.18 52.98"><defs><style>.cls-1{fill:#005092}.cls-2{fill:#f9b122}</style></defs><g id="Ebene_2" data-name="Ebene 2"><g id="Layer_1" data-name="Layer 1"><path class="cls-1" d="M1 37.82a17.44 17.44 0 0 0 8.16 2c2.51 0 4.89-.51 4.89-2.89 0-5.53-14-2-14-12.84 0-7.15 7-9.1 12.93-9.1a25.09 25.09 0 0 1 7.6 1.01l-.51 6.13a15.85 15.85 0 0 0-6.59-1.36c-2 0-5.31.17-5.31 2.76 0 4.81 14 1.57 14 12.29 0 7.7-6.47 9.78-13.06 9.78A31.14 31.14 0 0 1 .3 44.36zM27.26 15.45h7.91v29.68h-7.91zM46.18 21.32h-7.31v-5.87H61.4v5.87h-7.31v23.81h-7.91zM64.51 15.45h20.92v5.61h-13v6.13h12.28v5.61H72.42v6.72h13.47v5.61H64.51zM115.45 44.45a33 33 0 0 1-8.8 1.19c-7.91 0-17.05-4-17.05-15.22 0-10.34 7.22-15.48 17-15.48a30.92 30.92 0 0 1 8.81 1.53l-.64 6.42a15.59 15.59 0 0 0-7.77-2.08c-5.62 0-9.27 4.08-9.27 9.61 0 5.82 4.12 9.35 9.91 9.35a20.81 20.81 0 0 0 7.39-1.53zM119.06 15.45H127V26.8h9.36V15.45h7.9v29.68h-7.9V32.42H127v12.71h-7.91z"/><path class="cls-2" d="M43.52 0C25.67 0 10.26 4.56 1.37 11.72c.37 0 15.49.07 22.92 0C33.74 5.9 49 4.18 66.72 6.82a95.85 95.85 0 0 1 18.67 4.68C76.42 4.57 61 0 43.52 0zM46.03 49.31h98.05v3.67H46.03z"/><path class="cls-1" d="M147.23 15.5a1.95 1.95 0 1 1-1.94 1.95 2 2 0 0 1 1.94-1.95zm0 3.43a1.48 1.48 0 1 0-1.38-1.48 1.4 1.4 0 0 0 1.38 1.48zm-.75-2.54h.75c.5 0 .8.15.8.63a.5.5 0 0 1-.5.55l.53.91h-.49l-.47-.89h-.19v.89h-.43zm.43.85h.33c.21 0 .36 0 .36-.27s-.23-.22-.41-.22h-.28z"/></g></g></svg>