<?xml version="1.0" encoding="UTF-8"?> <svg xmlns="http://www.w3.org/2000/svg" id="Capa_1" width="90mm" height="17mm" viewBox="0 0 255.12 48.19"><defs><style>.cls-1{fill:#00a0df;}.cls-1,.cls-2{stroke-width:0px;}.cls-2{fill:#fff;}</style></defs><path class="cls-2" d="M146.44,35.46c-1.73,0-2.92-1.05-2.92-3.19v-9.72h6.25v-4.79h-6.21v-6.39l-5.57.59v5.8h-11.53v-1.23c0-2.74,1.46-4.02,3.38-4.02,1.14,0,2.24.41,3.42,1.19l2.05-4.15c-1.83-1.19-3.88-1.83-5.84-1.83-4.52,0-8.58,2.78-8.58,8.81v1.23h-4.06v4.79h4.06v17.66h5.57v-17.66h11.53v9.72c0,5.61,3.19,8.4,8.08,8.21,1.69-.05,3.01-.32,4.61-.96l-1.55-4.75c-.82.41-1.83.68-2.69.68Z"></path><path class="cls-2" d="M76.08,20.67c-3.83-.46-7.12-1.23-7.12-4.02,0-2.37,2.14-4.24,6.62-4.24,3.47,0,6.48,1.73,7.57,3.56l4.79-2.46c-2.42-4.93-7.57-6.34-12.55-6.34-5.89.05-12.37,2.74-12.37,9.31,0,7.16,6.02,8.9,12.55,9.67,4.24.46,7.39,1.69,7.39,4.7,0,3.47-3.56,4.79-7.35,4.79s-7.58-1.55-8.99-5.07l-5.02,2.6c2.37,5.84,7.39,7.85,13.92,7.85,7.12,0,13.42-3.06,13.42-10.18,0-7.62-6.21-9.35-12.87-10.18Z"></path><path class="cls-2" d="M103.47,17.25c-7.16,0-11.64,5.29-11.64,11.73s4.38,11.73,11.68,11.73,11.73-5.25,11.73-11.73-4.61-11.73-11.77-11.73ZM103.52,35.59c-4.06,0-6.11-3.19-6.11-6.62s2.1-6.66,6.11-6.66c3.74,0,6.11,3.29,6.11,6.66s-2.05,6.62-6.11,6.62Z"></path><rect class="cls-2" x="153.61" y="8.31" width="5.52" height="31.9"></rect><path class="cls-2" d="M181.3,20.81c-1.28-2.24-4.15-3.65-7.16-3.65-6.57-.05-11.73,4.02-11.73,11.77s4.93,12,11.59,11.96c2.51-.05,6.02-1.32,7.3-3.97l.27,3.29h5.25v-22.5h-5.34l-.18,3.1ZM174.63,35.78c-3.7,0-6.66-2.56-6.66-6.85s2.97-6.8,6.66-6.8c8.76,0,8.76,13.64,0,13.64Z"></path><path class="cls-2" d="M203.33,17.34c-2.83,0-5.11,1.14-7.39,3.38l-.37-3.06h-4.97v22.54h5.52v-11.5c0-3.42,2.33-6.3,5.75-6.3s5.43,2.6,5.43,6.02v11.77h5.57v-11.82c0-7.07-4.24-11.04-9.54-11.04Z"></path><path class="cls-2" d="M234.67,20.76c-1.32-2.33-5.02-3.61-7.39-3.61-6.57,0-11.45,4.02-11.45,11.77s4.97,11.77,11.59,11.77c2.74,0,5.52-.91,7.26-3.6l.37,3.1h5.2V8.31h-5.57v12.46ZM227.78,35.55c-3.56,0-6.39-2.69-6.39-6.62s2.83-6.57,6.39-6.57,6.53,2.65,6.53,6.57-3.01,6.62-6.53,6.62Z"></path><path class="cls-2" d="M242.62,9.16h1.58v4.12h.94v-4.12h1.58v-.85h-4.1v.85Z"></path><polygon class="cls-2" points="251.49 8.31 249.93 10.45 248.37 8.31 247.29 8.31 247.29 13.29 248.23 13.29 248.23 9.67 249.81 11.84 250 11.84 251.62 9.68 251.62 13.29 252.56 13.29 252.56 8.31 251.49 8.31"></polygon><path class="cls-1" d="M30.88,29.07l.2-.22-4.76-4.76-.22.25c-1.83,2.08-4.46,3.27-7.21,3.27-5.3,0-9.61-4.31-9.61-9.61s4.31-9.61,9.61-9.61c2.76,0,5.39,1.19,7.21,3.27l.22.25,4.76-4.76-.2-.22c-3.09-3.34-7.46-5.26-11.99-5.26C9.89,1.67,2.56,9,2.56,18s7.33,16.33,16.33,16.33c4.53,0,8.9-1.92,11.99-5.26Z"></path><path class="cls-1" d="M33.75,13.86c-4.53,0-8.9,1.92-11.99,5.26l-.2.22,4.76,4.76.22-.25c1.83-2.08,4.46-3.27,7.21-3.27,5.3,0,9.61,4.31,9.61,9.61s-4.31,9.61-9.61,9.61c-2.76,0-5.39-1.19-7.21-3.27l-.22-.25-4.76,4.76.2.22c3.09,3.34,7.46,5.26,11.99,5.26,9.01,0,16.33-7.33,16.33-16.33s-7.33-16.33-16.33-16.33Z"></path></svg> 