<svg xmlns="http://www.w3.org/2000/svg" id="f2c401e6-94bc-4ab4-a0c6-c9cd26172bf0" data-name="Capa 1" viewBox="0 0 1786.58 311.64"><defs><style>.a33afd83-6221-4e60-a56a-1a456149b2ef{fill:#0783b7;}.f74bb5d8-5cd4-4fe6-bc54-90511ab9190f{fill:none;}.b9369551-053d-48a7-90bd-a717bcdf549b{fill:#eeb541;}.a4b27dda-8068-4f95-9348-2cefeb2f8999{fill:#0080c0;fill-rule:evenodd;}</style></defs><rect class="a33afd83-6221-4e60-a56a-1a456149b2ef" x="266.16" y="82.27" width="9.72" height="30.76" transform="translate(214.8 -184.88) rotate(58.93)"></rect><circle class="a33afd83-6221-4e60-a56a-1a456149b2ef" cx="172.18" cy="155.82" r="80.19"></circle><rect class="a33afd83-6221-4e60-a56a-1a456149b2ef" x="226.25" y="238.4" width="9.72" height="30.76" transform="translate(560.03 351.88) rotate(148.93)"></rect><rect class="a33afd83-6221-4e60-a56a-1a456149b2ef" x="69.48" y="199.96" width="9.72" height="30.76" transform="translate(-71.75 390.15) rotate(-121.07)"></rect><rect class="a33afd83-6221-4e60-a56a-1a456149b2ef" x="225.37" y="41.84" width="9.72" height="30.76" transform="translate(59.25 -107.24) rotate(29.93)"></rect><rect class="a33afd83-6221-4e60-a56a-1a456149b2ef" x="168.03" y="26" width="9.72" height="30.76" transform="translate(-0.17 0.71) rotate(-0.23)"></rect><rect class="a33afd83-6221-4e60-a56a-1a456149b2ef" x="281.76" y="139.9" width="9.72" height="30.76" transform="matrix(0, 1, -1, 0, 440.73, -131.98)"></rect><rect class="a33afd83-6221-4e60-a56a-1a456149b2ef" x="108.51" y="42.12" width="9.72" height="30.76" transform="matrix(0.86, -0.51, 0.51, 0.86, -13.45, 66.27)"></rect><rect class="a33afd83-6221-4e60-a56a-1a456149b2ef" x="68.32" y="82.97" width="9.72" height="30.76" transform="translate(-48.62 112.23) rotate(-59.85)"></rect><rect class="a33afd83-6221-4e60-a56a-1a456149b2ef" x="52.59" y="140.4" width="9.72" height="30.76" transform="translate(-98.32 213.26) rotate(-90.01)"></rect><rect class="a33afd83-6221-4e60-a56a-1a456149b2ef" x="168.27" y="254.89" width="9.72" height="30.76" transform="translate(347.36 539.82) rotate(179.77)"></rect><path class="f74bb5d8-5cd4-4fe6-bc54-90511ab9190f" d="M93.27,141.26a79.75,79.75,0,0,1,3.25-12.15c-8.31,11.54-14.32,24-19.12,36.37"></path><path class="b9369551-053d-48a7-90bd-a717bcdf549b" d="M158.19,84.61s-23.13,1.4-50.36,23.33a80,80,0,0,0-11.26,21.17C109.88,110.22,129.24,94.73,158.19,84.61Z"></path><path class="b9369551-053d-48a7-90bd-a717bcdf549b" d="M92.32,163.32c14.7-29.06,41.71-55.1,87.29-71.9,0,0-46.31-2.63-86.29,49.84A80.22,80.22,0,0,0,92.32,163.32Z"></path><path class="b9369551-053d-48a7-90bd-a717bcdf549b" d="M201.53,104.05s-65.85-3.73-108.19,65.12l-.21.34a79.9,79.9,0,0,0,6.71,20.91C115.5,154.75,144.18,122.11,201.53,104.05Z"></path><path class="a33afd83-6221-4e60-a56a-1a456149b2ef" d="M255.2,232.93a8.56,8.56,0,0,0-4.56-4.5,8.71,8.71,0,0,0-6.65,0A8.45,8.45,0,0,0,244,244a8.59,8.59,0,0,0,6.65,0,8.41,8.41,0,0,0,2.72-1.81,8.44,8.44,0,0,0,1.84-9.3Zm-7.89,10a6.73,6.73,0,1,1,6.84-6.72A6.78,6.78,0,0,1,247.31,243Z"></path><path class="a33afd83-6221-4e60-a56a-1a456149b2ef" d="M250.6,237.69a3.48,3.48,0,0,0-1.07-1.36,2.55,2.55,0,0,0,1.54-2.39,2.41,2.41,0,0,0-1.18-2.11,5.62,5.62,0,0,0-3.07-.75,17.32,17.32,0,0,0-2.86.27l-.15,0v9.69h1.73v-4.14h1.59a1.86,1.86,0,0,1,1.61,1,7.61,7.61,0,0,1,.95,3l0,.15h1.74l0-.21A13,13,0,0,0,250.6,237.69Zm-3.53-2.16h-1.53v-2.95c.35,0,.78-.05,1.28-.05,1.73,0,2.56.49,2.56,1.49S248.62,235.53,247.07,235.53Z"></path><rect class="a33afd83-6221-4e60-a56a-1a456149b2ef" x="266.49" y="197.55" width="9.72" height="30.76" transform="translate(591.26 84) rotate(119.93)"></rect><rect class="a33afd83-6221-4e60-a56a-1a456149b2ef" x="110.59" y="239.91" width="9.72" height="30.76" transform="translate(88.13 534.14) rotate(-150.07)"></rect><path class="a4b27dda-8068-4f95-9348-2cefeb2f8999" d="M460.19,129.11c-.85-4.12-3.65-6.59-7.29-8.08a35.37,35.37,0,0,0-13.09-2.14c-11.14,0-16.09,2.47-16.09,6.76,0,17.82,88.81,6.76,88.81,50,0,27.55-29.82,40.92-72.3,40.92-40.75,0-67.35-18.32-68.42-39.77h48.47c1.08,4.29,4.08,7.44,8.37,9.41a34.31,34.31,0,0,0,14.37,3c12.66,0,21-3.13,21-8.74,0-18-88.8-5.6-88.8-51,0-25.24,28.32-37.95,66.93-37.95,42.89,0,62.42,16.84,66.07,37.62H460.19Zm156.62-8.58c22.3-.5,30.89,16.67,30.89,32.83,0,19.64-8.57,34.16-30.46,34.16-24.23,0-30.24-19-30.24-34.16,0-15,6.86-32.83,29.81-32.83Zm.43-29c-48,0-80.86,24.25-80.86,61.54,0,40.43,32.39,63.53,80.86,63.53,45.69,0,81.09-22.78,81.09-63.2,0-31.35-26-61.87-81.09-61.87ZM725.05,213.43V94.63h50.63v91.08h69.49v27.72Zm252.47,0h50.41L972.58,94.63H921.09l-55.33,118.8h49.55l31.11-83Zm60.83-118.8h141.57v31.18h-45.49v87.62h-50.61V125.81h-45.47Zm178,0H1267v71.12c0,11.71,3,21.77,23.8,21.77,18.24,0,23.6-8.91,23.6-21.77V94.63H1365V161.8c0,38.11-23,54.77-74.23,54.77-47.82,0-74.42-14-74.42-54.94Zm257.4,69.14c16.07,0,27.87.64,27.87,11.06,0,8.91-9.43,10.88-21.87,10.88h-22.09V163.77Zm1.7-41.43c10.74,0,20.6.17,20.6,9.41,0,6.93-7.3,10.39-17.39,10.39h-21v-19.8Zm6.86,91.09c40.13,0,66.5-9.25,66.5-35.82,0-12.86-9-23.92-25.74-27.22,9.88-4.78,20.17-13.69,20.17-25.9,0-23.6-27.68-29.86-62.43-29.86H1407v118.8Zm104,0V94.63h125.91v27.71h-75.3v17h63.73v27.72h-63.73v18.65h78.3v27.72Z"></path><path class="a33afd83-6221-4e60-a56a-1a456149b2ef" d="M1743.84,196.3a8.53,8.53,0,0,0-4.56-4.51,8.71,8.71,0,0,0-6.65,0,8.79,8.79,0,0,0-2.73,1.81,8.55,8.55,0,0,0-1.83,2.7,8.35,8.35,0,0,0,0,6.6,8.55,8.55,0,0,0,1.83,2.7,8.79,8.79,0,0,0,2.73,1.81,8.71,8.71,0,0,0,6.65,0,8.53,8.53,0,0,0,4.56-4.51,8.46,8.46,0,0,0,0-6.6Zm-7.89,10a6.73,6.73,0,1,1,6.83-6.73A6.79,6.79,0,0,1,1736,206.33Z"></path><path class="a33afd83-6221-4e60-a56a-1a456149b2ef" d="M1739.24,201.05a3.55,3.55,0,0,0-1.07-1.36,2.54,2.54,0,0,0,1.54-2.39,2.41,2.41,0,0,0-1.18-2.1,5.54,5.54,0,0,0-3.07-.75,18.48,18.48,0,0,0-2.87.26l-.14,0v9.69h1.73v-4.14h1.59a1.85,1.85,0,0,1,1.61,1,7.5,7.5,0,0,1,.95,3l0,.15h1.74l0-.2A13,13,0,0,0,1739.24,201.05Zm-3.54-2.16h-1.52v-2.95c.35,0,.78,0,1.28,0,1.72,0,2.56.48,2.56,1.48S1737.26,198.89,1735.7,198.89Z"></path></svg>