<svg xmlns="http://www.w3.org/2000/svg" id="Laag_2" viewBox="0 0 232.56 56.08"><g id="Camada_1"><g><g><path d="M48.68,28.39c-1.34,0-2.39-.11-3.15-.32-.76-.21-1.3-.66-1.61-1.32-.31-.67-.44-1.62-.39-2.86,.05-1.24,.24-2.89,.56-4.96l.06-.38c.32-2.07,.64-3.72,.97-4.96,.33-1.24,.76-2.19,1.27-2.86,.52-.67,1.19-1.11,2.02-1.32,.83-.21,1.91-.32,3.25-.32h4.62c1.31,0,2.36,.11,3.13,.32,.77,.21,1.32,.66,1.63,1.32,.31,.67,.44,1.62,.39,2.86-.05,1.24-.24,2.89-.56,4.96l-.06,.38c-.32,2.07-.64,3.72-.97,4.96-.33,1.24-.75,2.19-1.27,2.86-.52,.67-1.2,1.11-2.04,1.32-.84,.21-1.92,.32-3.23,.32h-4.62Zm3.77-2.61c.68,0,1.23-.07,1.66-.21,.42-.14,.78-.41,1.07-.81,.29-.4,.54-.98,.74-1.72,.2-.74,.41-1.74,.63-2.97l.41-2.65c.17-1.24,.26-2.23,.29-2.97,.03-.74-.04-1.32-.21-1.72-.16-.4-.44-.68-.82-.81-.38-.14-.91-.21-1.6-.21h-2.12c-.68,0-1.23,.07-1.66,.21-.43,.14-.78,.41-1.07,.81-.29,.4-.54,.98-.74,1.72-.2,.74-.41,1.74-.63,2.97l-.41,2.65c-.17,1.24-.26,2.23-.29,2.97-.03,.74,.04,1.32,.21,1.72,.16,.4,.44,.68,.82,.81,.38,.14,.91,.21,1.6,.21h2.12Z" fill="#414955" fill-rule="evenodd"></path><polygon points="63.54 28.01 67.86 0 71.95 0 67.63 28.01 63.54 28.01" fill="#414955" fill-rule="evenodd"></polygon><path d="M86.01,9.46h4.09l-2.86,18.55h-4.09v-.08c-1.45,.3-3.19,.45-5.21,.45-1.34,0-2.39-.11-3.15-.32-.76-.21-1.3-.66-1.61-1.32-.31-.67-.44-1.62-.39-2.86,.05-1.24,.24-2.89,.56-4.96l1.46-9.46h4.09l-1.3,8.4c-.28,1.79-.46,3.21-.56,4.26-.1,1.05-.08,1.84,.05,2.39,.13,.54,.4,.89,.8,1.04,.41,.15,.97,.23,1.71,.23,.45,0,.89-.01,1.31-.04,.42-.03,.85-.08,1.29-.15,.39-.05,.73-.23,1.03-.53,.3-.3,.48-.67,.55-1.1l2.24-14.5Z" fill="#414955" fill-rule="evenodd"></path><path d="M103.85,12.11c-.64-.08-1.23-.15-1.75-.21-.52-.06-1-.11-1.44-.13-.44-.03-.86-.04-1.26-.06-.4-.01-.8-.02-1.21-.02l-1.1,7.12c-.24,1.54-.4,2.77-.48,3.69-.08,.92-.04,1.62,.11,2.1,.15,.48,.43,.79,.82,.95,.39,.15,.96,.23,1.69,.23,.2,0,.5-.03,.9-.08,.4-.05,.95-.16,1.66-.34l-.41,2.65c-.94,.2-1.74,.32-2.4,.34-.66,.03-1.13,.04-1.41,.04-1.34,0-2.39-.11-3.15-.32-.76-.21-1.3-.66-1.61-1.32-.31-.67-.44-1.62-.39-2.86,.05-1.24,.24-2.89,.56-4.96l2.58-16.69h4.09l-1.06,6.85c.5,0,.98,.01,1.41,.04,.44,.03,.87,.05,1.29,.08,.42,.03,.87,.06,1.35,.09,.47,.04,1.01,.09,1.6,.17l-.41,2.65Z" fill="#414955" fill-rule="evenodd"></path><path d="M104.95,28.01l2.86-18.55h4.09l-2.86,18.55h-4.09Zm3.61-24.83c.07-.45,.14-.81,.22-1.08,.08-.27,.19-.47,.32-.61,.14-.14,.32-.23,.57-.28,.25-.05,.55-.08,.93-.08h1.09c.38,0,.68,.03,.91,.08,.23,.05,.39,.15,.48,.28,.09,.14,.14,.34,.13,.61,0,.26-.04,.62-.11,1.08l-.05,.34c-.12,.78-.31,1.28-.55,1.5-.24,.21-.73,.32-1.46,.32h-1.08c-.73,0-1.18-.11-1.36-.32-.18-.21-.21-.71-.09-1.5l.05-.34Z" fill="#414955" fill-rule="evenodd"></path><path d="M119.2,28.39c-1.34,0-2.39-.11-3.15-.32-.76-.21-1.3-.66-1.61-1.32-.31-.67-.44-1.62-.39-2.86,.05-1.24,.24-2.89,.56-4.96l.06-.38c.32-2.07,.64-3.72,.97-4.96,.33-1.24,.75-2.19,1.27-2.86,.52-.67,1.19-1.11,2.02-1.32,.83-.21,1.91-.32,3.25-.32h4.62c1.31,0,2.36,.11,3.13,.32,.77,.21,1.32,.66,1.63,1.32,.31,.67,.44,1.62,.39,2.86-.05,1.24-.24,2.89-.56,4.96l-.06,.38c-.32,2.07-.64,3.72-.97,4.96-.33,1.24-.75,2.19-1.27,2.86-.52,.67-1.2,1.11-2.04,1.32-.84,.21-1.92,.32-3.23,.32h-4.62Zm3.77-2.61c.68,0,1.23-.07,1.66-.21,.43-.14,.78-.41,1.07-.81,.29-.4,.54-.98,.74-1.72,.2-.74,.41-1.74,.63-2.97l.41-2.65c.17-1.24,.26-2.23,.29-2.97,.03-.74-.04-1.32-.21-1.72-.16-.4-.44-.68-.82-.81s-.91-.21-1.6-.21h-2.12c-.68,0-1.23,.07-1.66,.21-.43,.14-.78,.41-1.07,.81-.29,.4-.54,.98-.74,1.72-.2,.74-.41,1.74-.63,2.97l-.41,2.65c-.17,1.24-.26,2.23-.29,2.97-.03,.74,.04,1.32,.21,1.72,.16,.4,.44,.68,.82,.81,.38,.14,.91,.21,1.6,.21h2.12Z" fill="#414955" fill-rule="evenodd"></path><path d="M138.15,28.01h-4.09l2.86-18.55h4.09v.08c.72-.15,1.53-.26,2.41-.34,.89-.08,1.82-.11,2.81-.11,1.31,0,2.36,.11,3.14,.32,.78,.21,1.32,.66,1.64,1.32,.32,.67,.45,1.62,.4,2.86-.05,1.24-.24,2.89-.56,4.96l-1.46,9.46h-4.09l1.3-8.4c.28-1.79,.46-3.21,.56-4.26,.1-1.05,.08-1.84-.05-2.38-.14-.54-.41-.89-.81-1.04-.41-.15-.98-.23-1.72-.23-.45,0-.89,.01-1.32,.04-.42,.03-.85,.08-1.3,.15-.41,.05-.77,.23-1.05,.53-.29,.3-.46,.67-.53,1.1l-2.24,14.5Z" fill="#414955" fill-rule="evenodd"></path><path d="M160.87,25.78c.86,0,1.45-.15,1.79-.44,.33-.29,.57-.88,.71-1.76,.12-.76-.04-1.36-.46-1.8-.42-.44-.98-.82-1.68-1.14-.7-.32-1.45-.61-2.27-.89-.82-.28-1.56-.64-2.23-1.1-.67-.45-1.2-1.03-1.59-1.74-.38-.71-.48-1.65-.3-2.84,.16-1.01,.37-1.84,.63-2.5,.27-.66,.65-1.17,1.16-1.53,.51-.37,1.18-.62,2.01-.76,.83-.14,1.89-.21,3.17-.21,.68,0,1.29,0,1.81,.02,.53,.01,1.05,.03,1.56,.06,.51,.03,1.04,.06,1.57,.11,.53,.05,1.14,.11,1.81,.19l-.41,2.65c-.74-.1-1.4-.18-1.99-.25-.58-.06-1.12-.11-1.61-.13-.49-.03-.96-.04-1.41-.04h-1.74c-.82,.05-1.4,.24-1.75,.57-.35,.33-.59,.9-.72,1.7-.11,.73,.04,1.31,.47,1.74,.43,.43,.99,.8,1.68,1.12,.7,.32,1.45,.61,2.27,.89,.81,.28,1.56,.63,2.24,1.06,.68,.43,1.21,.98,1.6,1.67,.39,.68,.49,1.58,.32,2.69-.16,1.03-.38,1.89-.66,2.57-.28,.68-.67,1.22-1.18,1.63-.5,.4-1.15,.68-1.95,.83-.79,.15-1.78,.23-2.97,.23h-.83c-.66,0-1.25,0-1.78-.02-.53-.01-1.04-.03-1.54-.06-.5-.03-1.01-.06-1.53-.11-.52-.05-1.12-.11-1.79-.19l.41-2.65c.74,.1,1.4,.18,1.99,.25,.58,.06,1.12,.11,1.61,.13,.49,.03,.96,.04,1.41,.04h2.16Z" fill="#414955" fill-rule="evenodd"></path><path d="M182.65,13.17c.56-.03,1.04-.07,1.44-.13,.4-.06,.75-.23,1.06-.49,.31-.27,.56-.65,.76-1.15,.2-.5,.38-1.21,.52-2.12,.14-.88,.21-1.64,.22-2.27,0-.63-.12-1.14-.39-1.53-.27-.39-.72-.68-1.34-.87-.63-.19-1.5-.28-2.61-.28h-2.01c-1.06,0-2.2,.02-3.43,.06-1.23,.04-2.39,.16-3.48,.36l.5-3.22c1.09-.2,2.19-.32,3.31-.34,1.11-.03,2.24-.04,3.37-.04h3.67c1.49,0,2.7,.15,3.63,.45,.93,.3,1.63,.76,2.1,1.36,.47,.61,.75,1.36,.84,2.27,.08,.91,.03,1.97-.16,3.18-.1,.66-.2,1.27-.31,1.86-.1,.58-.25,1.14-.45,1.67-.2,.53-.45,1.03-.76,1.51-.31,.48-.72,.92-1.21,1.33,.36,.43,.63,.88,.8,1.34,.17,.47,.27,.97,.3,1.5,.03,.53,0,1.09-.07,1.67-.08,.58-.17,1.2-.27,1.85-.19,1.21-.46,2.27-.83,3.18-.37,.91-.88,1.67-1.54,2.27-.66,.61-1.49,1.06-2.52,1.36-1.02,.3-2.28,.45-3.77,.45h-3.67c-1.14,0-2.26-.01-3.36-.04-1.11-.03-2.17-.14-3.2-.34l.5-3.22c1.03,.2,2.15,.32,3.37,.36,1.22,.04,2.36,.06,3.42,.06h2.01c1.11,0,2.01-.09,2.69-.26,.68-.18,1.22-.47,1.61-.87,.39-.4,.68-.92,.86-1.55,.19-.63,.35-1.39,.48-2.27,.14-.91,.19-1.62,.14-2.12-.05-.5-.18-.89-.41-1.15-.22-.26-.53-.43-.91-.49-.38-.06-.85-.11-1.4-.13h-7.38l.49-3.18h7.38Zm29.32,1.85c-.45,2.93-.9,5.27-1.33,7.02-.43,1.75-1,3.1-1.68,4.03-.69,.93-1.56,1.55-2.62,1.85-1.06,.3-2.42,.45-4.08,.45h-3.22c-1.67,0-2.98-.15-3.94-.45-.96-.3-1.64-.92-2.04-1.85-.4-.93-.54-2.28-.44-4.03,.11-1.75,.39-4.09,.84-7.02l.08-.53c.45-2.9,.89-5.24,1.33-7,.44-1.77,1-3.12,1.69-4.05,.69-.93,1.56-1.55,2.61-1.85,1.06-.3,2.42-.45,4.08-.45h3.22c1.67,0,2.98,.15,3.94,.45,.96,.3,1.64,.92,2.04,1.85,.4,.93,.54,2.28,.43,4.05-.11,1.77-.39,4.1-.84,7l-.08,.53h0Zm-9.82,10.18c.86,0,1.56-.09,2.11-.28,.55-.19,1.01-.57,1.39-1.14,.38-.57,.71-1.38,.98-2.44,.28-1.06,.56-2.46,.86-4.2l.74-4.77c.24-1.74,.39-3.14,.44-4.2,.05-1.06-.03-1.87-.23-2.44-.2-.57-.55-.95-1.04-1.14-.49-.19-1.16-.28-2.02-.28h-2.01c-.86,0-1.56,.09-2.11,.28-.55,.19-1.01,.57-1.39,1.14-.38,.57-.71,1.38-.98,2.44-.28,1.06-.56,2.46-.86,4.2l-.74,4.77c-.24,1.74-.39,3.14-.44,4.2s.03,1.87,.23,2.44c.2,.57,.55,.95,1.04,1.14,.49,.19,1.16,.28,2.02,.28h2.01Z" fill="#f28e00" fill-rule="evenodd"></path><path d="M40.82,21.95c.33-2.17-.69-3.99-3.11-5.53l-5.23-3.32c-1.57-.98-2.22-1.99-2.06-3.04,.28-1.82,1.74-2.69,4.82-2.69h5.95l1.38-2.62h-6.54c-6.72,0-9.48,1.4-10.14,5.7-.51,3.36,1.41,4.55,6.59,7.73,2.05,1.26,4,2.45,3.75,4.09-.29,1.89-1.9,3.53-5.4,3.53h-6.82l-1.27,2.59h7.31c7.17,0,10.05-1.68,10.78-6.44Z" fill="#414955" fill-rule="evenodd"></path></g><path d="M3.06,52.41c1.45,0,2.17-.5,2.17-1.49,0-.3-.06-.56-.19-.78-.13-.21-.3-.4-.52-.56-.22-.16-.47-.29-.75-.41-.28-.11-.58-.23-.89-.34-.36-.12-.7-.26-1.03-.42-.32-.16-.61-.34-.84-.56-.24-.21-.43-.47-.56-.76-.14-.3-.21-.65-.21-1.07,0-.87,.3-1.54,.89-2.03,.59-.49,1.41-.73,2.44-.73,.6,0,1.15,.06,1.64,.19,.49,.13,.85,.27,1.08,.42l-.44,1.13c-.2-.12-.5-.25-.89-.36-.4-.12-.86-.18-1.38-.18-.27,0-.51,.03-.74,.09-.23,.06-.43,.14-.6,.26-.17,.11-.31,.26-.41,.44-.1,.18-.15,.38-.15,.62,0,.27,.05,.49,.16,.67,.1,.18,.25,.34,.44,.48,.19,.14,.41,.26,.66,.38,.25,.11,.53,.23,.84,.34,.43,.17,.82,.34,1.18,.51,.36,.17,.67,.38,.93,.61,.26,.24,.46,.52,.61,.85s.21,.73,.21,1.19c0,.87-.32,1.53-.95,2-.63,.47-1.53,.7-2.68,.7-.39,0-.75-.03-1.08-.08-.33-.05-.62-.11-.88-.19-.26-.07-.48-.15-.66-.23-.19-.08-.33-.15-.44-.21l.41-1.14c.22,.12,.55,.26,1,.41,.45,.15,1,.23,1.64,.23h0Zm12.6-2.73c0,.59-.09,1.12-.26,1.6-.17,.48-.41,.89-.72,1.23-.31,.34-.68,.61-1.11,.79-.43,.19-.9,.28-1.4,.28s-.97-.09-1.4-.28c-.43-.19-.8-.45-1.11-.79-.31-.34-.55-.75-.72-1.23-.17-.48-.26-1.01-.26-1.6s.09-1.11,.26-1.59c.17-.48,.41-.89,.72-1.24,.31-.34,.68-.61,1.11-.79,.43-.19,.9-.28,1.4-.28s.97,.09,1.4,.28c.43,.19,.8,.45,1.11,.79,.31,.34,.55,.76,.72,1.24,.17,.48,.26,1.01,.26,1.59h0Zm-1.39,0c0-.84-.19-1.5-.56-1.99-.38-.49-.89-.74-1.54-.74s-1.16,.25-1.54,.74c-.38,.49-.56,1.16-.56,1.99s.19,1.5,.56,1.99c.38,.49,.89,.74,1.54,.74s1.16-.24,1.54-.74c.38-.49,.56-1.16,.56-1.99h0Zm6.31,3.86c-.82-.02-1.4-.2-1.74-.53-.34-.33-.51-.85-.51-1.56v-8.92l1.33-.23v8.93c0,.22,.02,.4,.06,.54,.04,.14,.1,.26,.19,.34,.09,.09,.2,.15,.34,.19,.14,.04,.32,.08,.53,.11l-.19,1.11h0Zm8.41-.36c-.3,.08-.71,.16-1.21,.24-.5,.09-1.08,.13-1.74,.13-.57,0-1.05-.08-1.44-.25-.39-.17-.71-.4-.94-.71-.24-.31-.41-.66-.51-1.08-.1-.41-.16-.87-.16-1.38v-4.17h1.33v3.89c0,.91,.14,1.55,.43,1.94,.29,.39,.77,.59,1.44,.59,.14,0,.29,0,.44-.01,.15,0,.3-.02,.43-.04,.13-.01,.26-.03,.36-.04,.11-.01,.19-.03,.24-.05v-6.27h1.33v7.22h0Zm4.36-7.22h2.82v1.12h-2.82v3.43c0,.37,.03,.68,.09,.92,.06,.24,.14,.43,.26,.57,.11,.14,.26,.24,.43,.29,.17,.06,.37,.09,.6,.09,.4,0,.72-.05,.96-.14,.24-.09,.41-.15,.51-.19l.26,1.1c-.13,.07-.37,.15-.7,.25-.33,.1-.71,.15-1.14,.15-.5,0-.92-.06-1.25-.19-.33-.13-.59-.32-.79-.58-.2-.26-.34-.57-.42-.95-.08-.38-.12-.81-.12-1.31v-6.63l1.33-.23v2.3h0Zm6.66,7.43h-1.33v-7.43h1.33v7.43h0Zm-.67-8.78c-.24,0-.44-.08-.61-.24-.17-.16-.25-.37-.25-.64s.08-.48,.25-.64c.17-.16,.37-.24,.61-.24s.44,.08,.61,.24c.17,.16,.25,.37,.25,.64s-.08,.48-.25,.64c-.17,.16-.37,.24-.61,.24h0Zm10.34,5.06c0,.59-.09,1.12-.26,1.6-.17,.48-.41,.89-.72,1.23-.31,.34-.68,.61-1.11,.79-.43,.19-.9,.28-1.4,.28s-.97-.09-1.4-.28c-.43-.19-.8-.45-1.11-.79-.31-.34-.55-.75-.72-1.23-.17-.48-.26-1.01-.26-1.6s.09-1.11,.26-1.59c.17-.48,.41-.89,.72-1.24,.31-.34,.68-.61,1.11-.79,.43-.19,.9-.28,1.4-.28s.97,.09,1.4,.28c.43,.19,.8,.45,1.11,.79,.31,.34,.55,.76,.72,1.24,.17,.48,.26,1.01,.26,1.59h0Zm-1.39,0c0-.84-.19-1.5-.56-1.99-.38-.49-.89-.74-1.54-.74s-1.16,.25-1.54,.74c-.38,.49-.56,1.16-.56,1.99s.19,1.5,.56,1.99c.38,.49,.89,.74,1.54,.74s1.16-.24,1.54-.74c.38-.49,.56-1.16,.56-1.99h0Zm4.08-3.5c.3-.08,.71-.16,1.21-.24,.5-.09,1.09-.13,1.74-.13,.59,0,1.08,.08,1.47,.25,.39,.17,.7,.4,.94,.7,.23,.3,.4,.66,.49,1.08,.1,.42,.14,.88,.14,1.39v4.17h-1.33v-3.89c0-.46-.03-.85-.09-1.17-.06-.32-.16-.59-.31-.79-.14-.2-.33-.35-.57-.44-.24-.09-.53-.14-.89-.14-.14,0-.29,0-.44,.01-.15,0-.3,.02-.44,.04-.14,.01-.26,.03-.37,.05s-.19,.03-.24,.04v6.27h-1.33v-7.22h0Zm10.76,6.26c.54,0,.95-.07,1.21-.21,.26-.14,.39-.37,.39-.69s-.13-.58-.39-.77c-.26-.19-.68-.41-1.27-.64-.29-.11-.56-.23-.82-.35-.26-.12-.49-.26-.68-.42-.19-.16-.34-.36-.46-.59-.11-.23-.17-.51-.17-.84,0-.66,.24-1.18,.73-1.57,.49-.39,1.15-.58,1.99-.58,.21,0,.42,.01,.63,.04,.21,.02,.4,.05,.59,.09,.18,.03,.34,.07,.48,.11,.14,.04,.25,.07,.32,.1l-.24,1.14c-.14-.08-.37-.15-.67-.24-.3-.08-.67-.12-1.1-.12-.37,0-.7,.07-.97,.22-.28,.15-.41,.38-.41,.69,0,.16,.03,.3,.09,.43,.06,.12,.16,.24,.29,.34,.13,.1,.29,.19,.48,.28,.19,.09,.42,.18,.69,.27,.35,.13,.67,.26,.94,.39,.28,.13,.51,.28,.71,.45,.2,.17,.35,.38,.45,.62,.1,.24,.16,.54,.16,.89,0,.69-.25,1.21-.76,1.56-.51,.35-1.24,.53-2.18,.53-.66,0-1.17-.06-1.54-.16-.37-.11-.62-.19-.76-.25l.24-1.14c.15,.06,.4,.14,.73,.26,.33,.11,.78,.17,1.33,.17h0Zm14.15-10.13c.39,0,.73,.03,1.01,.09,.28,.06,.48,.11,.59,.16l-.24,1.14c-.11-.06-.28-.11-.49-.16-.21-.05-.47-.08-.77-.08-.62,0-1.05,.17-1.3,.51-.25,.34-.37,.79-.37,1.37v.64h2.86v1.12h-2.86v6.32h-1.33v-8.1c0-.95,.23-1.69,.7-2.21,.47-.52,1.2-.78,2.2-.78h0Zm10,7.38c0,.59-.09,1.12-.26,1.6-.17,.48-.41,.89-.72,1.23-.31,.34-.68,.61-1.11,.79-.43,.19-.9,.28-1.4,.28s-.97-.09-1.4-.28c-.43-.19-.8-.45-1.11-.79-.31-.34-.55-.75-.72-1.23-.17-.48-.26-1.01-.26-1.6s.09-1.11,.26-1.59c.17-.48,.41-.89,.72-1.24,.31-.34,.68-.61,1.11-.79,.43-.19,.9-.28,1.4-.28s.97,.09,1.4,.28c.43,.19,.8,.45,1.11,.79s.55,.76,.72,1.24c.17,.48,.26,1.01,.26,1.59h0Zm-1.39,0c0-.84-.19-1.5-.56-1.99-.38-.49-.89-.74-1.54-.74s-1.16,.25-1.54,.74c-.38,.49-.56,1.16-.56,1.99s.19,1.5,.56,1.99c.38,.49,.89,.74,1.54,.74s1.16-.24,1.54-.74c.38-.49,.56-1.16,.56-1.99h0Zm6.83-3.87c.11,0,.25,0,.39,.02,.15,.01,.29,.03,.44,.06,.14,.02,.27,.05,.39,.07,.12,.02,.21,.05,.26,.06l-.23,1.16c-.1-.04-.28-.08-.52-.14-.24-.05-.55-.08-.94-.08-.25,0-.49,.03-.74,.08-.24,.05-.4,.09-.48,.11v6.25h-1.33v-7.12c.31-.11,.7-.22,1.17-.32,.47-.1,.99-.15,1.57-.15h0Zm16.25,7.59c-.21-.35-.45-.75-.72-1.19-.27-.44-.56-.89-.88-1.37-.31-.47-.64-.95-.98-1.44-.34-.49-.67-.96-1.01-1.41-.33-.45-.66-.88-.97-1.28-.31-.4-.6-.75-.87-1.06v7.73h-1.36v-9.91h1.1c.45,.48,.93,1.03,1.44,1.67,.51,.63,1.01,1.29,1.51,1.96,.5,.67,.97,1.33,1.42,1.98,.44,.65,.82,1.22,1.12,1.73v-7.33h1.36v9.91h-1.16Zm3.94-3.7c0-.66,.1-1.23,.29-1.72,.19-.49,.44-.9,.76-1.22,.31-.32,.68-.57,1.09-.73,.41-.16,.83-.24,1.26-.24,1,0,1.77,.31,2.3,.94,.53,.62,.8,1.57,.8,2.85v.22c0,.09,0,.17-.01,.25h-5.09c.06,.77,.28,1.36,.67,1.76,.39,.4,1,.6,1.83,.6,.47,0,.86-.04,1.18-.12,.32-.08,.56-.16,.72-.24l.19,1.11c-.16,.09-.45,.18-.85,.27-.4,.1-.86,.14-1.38,.14-.65,0-1.21-.1-1.68-.29-.47-.19-.86-.46-1.16-.81-.3-.34-.53-.75-.68-1.22-.15-.47-.22-.99-.22-1.55h0Zm5.1-.73c0-.6-.14-1.09-.45-1.48-.31-.39-.74-.58-1.28-.58-.3,0-.57,.06-.81,.18-.23,.12-.43,.27-.59,.46-.16,.19-.29,.41-.38,.66-.09,.25-.15,.5-.18,.76h3.69Zm10.2,4.43c-.27-.69-.55-1.47-.85-2.35-.3-.88-.57-1.8-.82-2.75-.25,.95-.52,1.87-.81,2.75-.3,.88-.58,1.67-.84,2.35h-1.16c-.44-.98-.87-2.1-1.29-3.36-.42-1.26-.81-2.62-1.19-4.07h1.43c.1,.45,.21,.93,.34,1.46,.13,.52,.27,1.05,.42,1.57,.15,.52,.3,1.03,.46,1.52,.16,.49,.31,.91,.46,1.27,.16-.45,.32-.92,.48-1.42,.16-.5,.31-1.01,.45-1.52,.14-.51,.28-1.01,.41-1.5,.13-.49,.24-.95,.34-1.38h1.1c.09,.43,.19,.89,.31,1.38,.12,.49,.26,.99,.4,1.5,.14,.51,.29,1.01,.45,1.52,.16,.5,.32,.97,.48,1.42,.14-.36,.29-.79,.45-1.27,.16-.49,.31-.99,.46-1.52,.15-.52,.3-1.05,.43-1.57,.13-.52,.25-1.01,.34-1.46h1.37c-.37,1.46-.77,2.82-1.19,4.07-.42,1.26-.85,2.38-1.29,3.36h-1.16Zm18.34-9.91v1.2h-3.12v8.7h-1.39v-8.7h-3.12v-1.2h7.62Zm1,6.2c0-.66,.1-1.23,.29-1.72,.19-.49,.44-.9,.76-1.22,.31-.32,.68-.57,1.09-.73,.41-.16,.83-.24,1.26-.24,1,0,1.77,.31,2.3,.94,.53,.62,.8,1.57,.8,2.85v.22c0,.09,0,.17-.01,.25h-5.09c.06,.77,.28,1.36,.67,1.76,.39,.4,1,.6,1.83,.6,.47,0,.86-.04,1.18-.12,.32-.08,.56-.16,.72-.24l.19,1.11c-.16,.09-.45,.18-.85,.27-.4,.1-.86,.14-1.38,.14-.65,0-1.21-.1-1.68-.29-.47-.19-.86-.46-1.16-.81-.3-.34-.53-.75-.68-1.22-.15-.47-.22-.99-.22-1.55h0Zm5.1-.73c0-.6-.14-1.09-.45-1.48-.31-.39-.74-.58-1.28-.58-.3,0-.57,.06-.81,.18-.23,.12-.43,.27-.59,.46-.16,.19-.29,.41-.38,.66-.09,.25-.15,.5-.18,.76h3.69Zm7.36,4.6c-.6,0-1.13-.1-1.58-.29-.45-.19-.83-.46-1.14-.8-.31-.34-.54-.75-.69-1.22-.15-.47-.23-.99-.23-1.57s.08-1.1,.25-1.57c.17-.48,.4-.89,.71-1.24,.3-.35,.68-.62,1.12-.81,.44-.2,.94-.29,1.48-.29,.33,0,.67,.03,1,.09,.33,.06,.65,.15,.96,.27l-.3,1.13c-.2-.1-.43-.17-.69-.23-.26-.06-.54-.09-.84-.09-.74,0-1.31,.23-1.71,.7-.4,.47-.59,1.15-.59,2.04,0,.4,.05,.77,.14,1.1,.09,.33,.23,.62,.43,.86,.2,.24,.45,.42,.75,.55,.31,.13,.68,.19,1.11,.19,.35,0,.67-.03,.96-.1,.29-.07,.51-.14,.67-.21l.19,1.11c-.08,.05-.19,.09-.33,.14s-.3,.08-.49,.11c-.18,.03-.37,.06-.58,.09-.2,.02-.4,.04-.59,.04h0Zm4.24-.17v-10.86l1.33-.23v3.8c.25-.1,.51-.17,.79-.22,.28-.05,.56-.08,.84-.08,.59,0,1.08,.08,1.47,.25,.39,.17,.7,.4,.94,.7,.23,.3,.4,.66,.49,1.08,.1,.42,.14,.88,.14,1.39v4.17h-1.33v-3.89c0-.46-.03-.85-.09-1.17-.06-.32-.16-.59-.31-.79-.14-.2-.33-.35-.57-.44-.24-.09-.53-.14-.89-.14-.14,0-.29,0-.44,.03-.15,.02-.3,.04-.44,.06-.14,.02-.26,.05-.37,.08-.11,.03-.19,.05-.24,.07v6.17h-1.33Zm8.99-7.22c.3-.08,.71-.16,1.22-.24,.5-.09,1.09-.13,1.74-.13,.59,0,1.08,.08,1.47,.25,.39,.17,.7,.4,.94,.7,.23,.3,.4,.66,.49,1.08,.1,.42,.14,.88,.14,1.39v4.17h-1.33v-3.89c0-.46-.03-.85-.09-1.17-.06-.32-.16-.59-.31-.79-.14-.2-.33-.35-.57-.44-.24-.09-.53-.14-.89-.14-.14,0-.29,0-.44,.01-.15,0-.3,.02-.44,.04-.14,.01-.26,.03-.37,.05-.11,.02-.19,.03-.24,.04v6.27h-1.33v-7.22h0Zm15.59,3.5c0,.59-.09,1.12-.26,1.6-.17,.48-.41,.89-.72,1.23-.31,.34-.68,.61-1.11,.79-.43,.19-.9,.28-1.4,.28s-.97-.09-1.4-.28c-.43-.19-.8-.45-1.11-.79-.31-.34-.55-.75-.72-1.23-.17-.48-.26-1.01-.26-1.6s.09-1.11,.26-1.59c.17-.48,.41-.89,.72-1.24,.31-.34,.68-.61,1.11-.79,.43-.19,.9-.28,1.4-.28s.97,.09,1.4,.28c.43,.19,.8,.45,1.11,.79s.55,.76,.72,1.24c.17,.48,.26,1.01,.26,1.59h0Zm-1.39,0c0-.84-.19-1.5-.56-1.99s-.89-.74-1.54-.74-1.16,.25-1.54,.74c-.38,.49-.56,1.16-.56,1.99s.19,1.5,.56,1.99c.38,.49,.89,.74,1.54,.74s1.16-.24,1.54-.74c.38-.49,.56-1.16,.56-1.99h0Zm6.31,3.86c-.82-.02-1.4-.2-1.74-.53-.34-.33-.51-.85-.51-1.56v-8.92l1.33-.23v8.93c0,.22,.02,.4,.06,.54,.04,.14,.1,.26,.19,.34,.09,.09,.2,.15,.34,.19,.14,.04,.32,.08,.53,.11l-.19,1.11h0Zm9.06-3.86c0,.59-.09,1.12-.26,1.6-.17,.48-.41,.89-.72,1.23-.31,.34-.68,.61-1.11,.79-.43,.19-.9,.28-1.4,.28s-.97-.09-1.4-.28c-.43-.19-.8-.45-1.11-.79-.31-.34-.55-.75-.72-1.23-.17-.48-.26-1.01-.26-1.6s.09-1.11,.26-1.59c.17-.48,.41-.89,.72-1.24,.31-.34,.68-.61,1.11-.79,.43-.19,.9-.28,1.4-.28s.97,.09,1.4,.28c.43,.19,.8,.45,1.11,.79,.31,.34,.55,.76,.72,1.24,.17,.48,.26,1.01,.26,1.59h0Zm-1.39,0c0-.84-.19-1.5-.56-1.99-.38-.49-.89-.74-1.54-.74s-1.16,.25-1.54,.74c-.38,.49-.56,1.16-.56,1.99s.19,1.5,.56,1.99c.38,.49,.89,.74,1.54,.74s1.16-.24,1.54-.74c.38-.49,.56-1.16,.56-1.99h0Zm8.74,2.97c-.11,.08-.34,.17-.66,.29-.33,.12-.71,.18-1.15,.18s-.87-.07-1.26-.21c-.4-.14-.74-.36-1.04-.66-.3-.3-.53-.67-.7-1.12-.17-.45-.26-.98-.26-1.6,0-.54,.08-1.04,.24-1.49,.16-.45,.4-.84,.71-1.17,.31-.33,.69-.59,1.14-.77,.45-.19,.95-.28,1.52-.28,.62,0,1.16,.05,1.62,.14,.46,.09,.85,.17,1.16,.25v6.63c0,1.14-.3,1.97-.89,2.49-.59,.51-1.49,.77-2.69,.77-.47,0-.91-.04-1.32-.11-.41-.08-.77-.17-1.08-.27l.24-1.16c.27,.1,.59,.2,.98,.28,.39,.08,.79,.12,1.21,.12,.79,0,1.36-.16,1.71-.47,.35-.31,.52-.81,.52-1.5v-.31h0Zm-.01-5.52c-.13-.04-.31-.07-.54-.11-.22-.03-.53-.05-.91-.05-.71,0-1.26,.23-1.65,.7-.39,.47-.58,1.09-.58,1.86,0,.43,.05,.8,.16,1.1,.11,.3,.26,.56,.44,.76,.19,.2,.4,.35,.64,.44,.24,.1,.49,.14,.75,.14,.35,0,.68-.05,.97-.15,.3-.1,.53-.22,.7-.35v-4.34h0Zm5.77,6.26h-1.33v-7.43h1.33v7.43h0Zm-.67-8.78c-.24,0-.44-.08-.61-.24-.17-.16-.25-.37-.25-.64s.08-.48,.25-.64c.17-.16,.37-.24,.61-.24s.44,.08,.61,.24c.17,.16,.25,.37,.25,.64s-.08,.48-.25,.64c-.17,.16-.37,.24-.61,.24h0Zm3.37,5.07c0-.66,.1-1.23,.29-1.72,.19-.49,.44-.9,.76-1.22,.31-.32,.68-.57,1.09-.73,.41-.16,.83-.24,1.26-.24,1,0,1.77,.31,2.3,.94,.53,.62,.8,1.57,.8,2.85v.22c0,.09,0,.17-.01,.25h-5.09c.06,.77,.28,1.36,.67,1.76,.39,.4,1,.6,1.83,.6,.47,0,.86-.04,1.18-.12,.32-.08,.56-.16,.72-.24l.19,1.11c-.16,.09-.45,.18-.85,.27-.4,.1-.86,.14-1.38,.14-.65,0-1.21-.1-1.68-.29-.47-.19-.86-.46-1.16-.81-.3-.34-.53-.75-.68-1.22-.15-.47-.22-.99-.22-1.55h0Zm5.1-.73c0-.6-.14-1.09-.45-1.48-.31-.39-.74-.58-1.28-.58-.3,0-.57,.06-.81,.18-.23,.12-.43,.27-.59,.46-.16,.19-.29,.41-.38,.66-.09,.25-.15,.5-.18,.76h3.69Zm5.86,3.47c.54,0,.95-.07,1.21-.21,.26-.14,.39-.37,.39-.69s-.13-.58-.39-.77c-.26-.19-.68-.41-1.27-.64-.29-.11-.56-.23-.82-.35-.26-.12-.49-.26-.68-.42-.19-.16-.34-.36-.46-.59-.11-.23-.17-.51-.17-.84,0-.66,.24-1.18,.73-1.57,.49-.39,1.15-.58,1.99-.58,.21,0,.42,.01,.63,.04,.21,.02,.4,.05,.59,.09,.18,.03,.34,.07,.48,.11,.14,.04,.25,.07,.32,.1l-.24,1.14c-.14-.08-.37-.15-.67-.24-.3-.08-.67-.12-1.1-.12-.37,0-.7,.07-.97,.22-.28,.15-.41,.38-.41,.69,0,.16,.03,.3,.09,.43,.06,.12,.16,.24,.29,.34,.13,.1,.29,.19,.48,.28,.19,.09,.42,.18,.69,.27,.35,.13,.67,.26,.94,.39,.28,.13,.51,.28,.71,.45,.2,.17,.35,.38,.45,.62,.1,.24,.16,.54,.16,.89,0,.69-.25,1.21-.76,1.56-.51,.35-1.24,.53-2.18,.53-.66,0-1.17-.06-1.54-.16-.37-.11-.62-.19-.76-.25l.24-1.14c.15,.06,.4,.14,.73,.26,.33,.11,.78,.17,1.33,.17Z" fill="#414955" fill-rule="evenodd"></path></g></g></svg>