<svg width="204" height="48" viewBox="0 0 204 48" fill="none" xmlns="http://www.w3.org/2000/svg">
<g id="Group 23">
<path id="Vector" d="M82.3174 41.6194C83.2649 41.6194 83.9846 41.4011 84.4883 40.9522C84.9921 40.5155 85.244 39.8848 85.244 39.072C85.244 38.2593 84.9801 37.677 84.4643 37.204C83.9486 36.7309 83.2289 36.5004 82.3294 36.5004H79.2588V44.9189H80.3623V41.6194H82.3174ZM80.3623 37.4102H82.4013C82.9411 37.4223 83.3729 37.58 83.6847 37.8833C83.9966 38.1865 84.1525 38.5868 84.1525 39.0842C84.1525 39.6179 83.9966 40.0182 83.6847 40.2972C83.3729 40.5762 82.9171 40.7218 82.3413 40.7218H80.3743V37.4102H80.3623ZM86.1316 41.8135C86.1316 42.7839 86.3954 43.5603 86.9112 44.1547C87.427 44.7491 88.1106 45.0402 88.9502 45.0402C89.502 45.0402 89.9937 44.9068 90.4255 44.6399C90.8573 44.373 91.1812 43.997 91.4211 43.5118C91.649 43.0265 91.7689 42.4807 91.7689 41.8742V41.8014C91.7689 40.8188 91.505 40.0425 90.9893 39.4481C90.4735 38.8537 89.7898 38.5626 88.9502 38.5626C88.4105 38.5626 87.9187 38.696 87.4989 38.9629C87.0791 39.2297 86.7433 39.6058 86.5034 40.091C86.2635 40.5762 86.1435 41.1342 86.1435 41.7407V41.8135H86.1316ZM87.6788 40.0667C88.0027 39.6422 88.4225 39.4359 88.9382 39.4359C89.454 39.4359 89.8978 39.6422 90.2216 40.0789C90.5455 40.5034 90.7014 41.0614 90.7014 41.7529C90.7014 42.5171 90.5455 43.1115 90.2216 43.536C89.9098 43.9606 89.478 44.1789 88.9382 44.1789C88.3985 44.1789 87.9787 43.9727 87.6548 43.5482C87.343 43.1236 87.1751 42.5777 87.1751 41.8742C87.1751 41.0978 87.331 40.4913 87.6548 40.0667M97.0704 38.6717H96.2188L94.7795 43.3541L93.5681 38.6717H92.5126L94.3117 44.931H95.1633L96.6266 40.188L98.1259 44.931H98.9775L100.777 38.6717H99.7212L98.5337 43.4511L97.0704 38.6717ZM106.762 43.8393L106.114 43.3298C105.922 43.5845 105.694 43.7908 105.43 43.9485C105.167 44.1061 104.855 44.1789 104.483 44.1789C103.955 44.1789 103.523 43.9848 103.188 43.6088C102.852 43.2328 102.672 42.7354 102.66 42.1168H106.846V41.6679C106.846 40.6732 106.618 39.909 106.174 39.3632C105.73 38.8294 105.107 38.5626 104.303 38.5626C103.811 38.5626 103.355 38.696 102.936 38.975C102.516 39.254 102.192 39.63 101.952 40.1152C101.724 40.6005 101.604 41.1585 101.604 41.7771V41.9712C101.604 42.9052 101.868 43.6452 102.396 44.2032C102.924 44.7612 103.607 45.0402 104.435 45.0402C105.478 45.0402 106.246 44.6399 106.774 43.8272M105.359 39.8726C105.622 40.1759 105.766 40.5883 105.79 41.1342V41.2191H102.696C102.768 40.649 102.948 40.2123 103.236 39.8969C103.523 39.5815 103.883 39.4238 104.315 39.4238C104.747 39.4238 105.107 39.5694 105.371 39.8726M111.08 38.6232C110.972 38.5626 110.816 38.5383 110.612 38.5383C109.976 38.5383 109.485 38.8173 109.137 39.3753V38.6475H108.093V44.9068H109.149V40.467C109.401 39.8726 109.868 39.5694 110.564 39.5694C110.756 39.5694 110.924 39.5815 111.08 39.6058V38.6111V38.6232ZM116.837 43.815L116.189 43.3055C115.998 43.5603 115.77 43.7665 115.506 43.9242C115.242 44.0819 114.93 44.1547 114.558 44.1547C114.03 44.1547 113.599 43.9606 113.263 43.5845C112.927 43.2085 112.747 42.7112 112.723 42.0925H116.909V41.6437C116.909 40.649 116.681 39.8848 116.237 39.3389C115.794 38.8052 115.17 38.5383 114.366 38.5383C113.875 38.5383 113.419 38.6717 112.999 38.9507C112.579 39.2297 112.255 39.6058 112.015 40.091C111.775 40.5762 111.668 41.1342 111.668 41.7529V41.9469C111.668 42.881 111.931 43.6209 112.459 44.1789C112.987 44.7369 113.671 45.0159 114.51 45.0159C115.542 45.0159 116.321 44.6156 116.837 43.8029M115.422 39.8484C115.686 40.1516 115.83 40.5641 115.854 41.1099V41.1949H112.759C112.831 40.6247 113.011 40.188 113.299 39.8726C113.587 39.5572 113.946 39.3996 114.378 39.3996C114.81 39.3996 115.17 39.5451 115.434 39.8484M117.893 41.7892C117.893 42.7475 118.121 43.5239 118.564 44.1062C119.02 44.7005 119.596 44.9917 120.315 44.9917C121.071 44.9917 121.659 44.7248 122.079 44.2032L122.127 44.8704H123.098V35.9909H122.043V39.254C121.623 38.7566 121.047 38.5019 120.327 38.5019C119.608 38.5019 119.008 38.793 118.564 39.3753C118.109 39.9576 117.893 40.7339 117.893 41.6922V41.7771V41.7892ZM119.38 40.0303C119.668 39.63 120.076 39.4238 120.591 39.4238C121.251 39.4238 121.731 39.7149 122.043 40.3093V43.1842C121.731 43.7908 121.251 44.094 120.579 44.094C120.064 44.094 119.668 43.8878 119.38 43.4875C119.092 43.0872 118.948 42.5292 118.948 41.8256C118.948 41.0372 119.092 40.4306 119.38 40.0303ZM130.715 35.069L128.472 35.1782L128.364 35.53C128.963 35.53 129.263 35.6634 129.263 35.9424C129.263 36.0152 129.239 36.1243 129.203 36.2699C129.167 36.4155 129.131 36.561 129.083 36.7066L127.668 41.3162C127.5 41.8378 127.38 42.2866 127.296 42.6626C127.212 43.0387 127.164 43.3298 127.164 43.536C127.164 43.9727 127.308 44.3245 127.596 44.5914C127.884 44.8704 128.244 45.0038 128.688 45.0038C128.999 45.0038 129.323 44.931 129.635 44.7976C129.959 44.6641 130.271 44.4822 130.559 44.2517C130.847 44.0212 131.122 43.7422 131.386 43.439C131.65 43.1236 131.866 42.7961 132.058 42.4443C132.25 42.0925 132.406 41.7165 132.514 41.3283C132.622 40.9401 132.682 40.5641 132.682 40.188C132.682 39.6664 132.55 39.254 132.298 38.9507C132.046 38.6475 131.674 38.5019 131.194 38.5019C130.811 38.5019 130.451 38.5989 130.115 38.8052C129.779 39.0114 129.491 39.2904 129.263 39.6543L129.227 39.63L130.715 35.069ZM128.28 43.4268C128.28 43.1357 128.316 42.8325 128.4 42.5049C128.484 42.1774 128.58 41.862 128.724 41.5466C128.867 41.2312 129.011 40.928 129.191 40.6369C129.371 40.3457 129.551 40.091 129.743 39.8605C129.935 39.6422 130.127 39.4602 130.331 39.3268C130.535 39.1933 130.715 39.1327 130.882 39.1327C131.062 39.1327 131.218 39.2297 131.338 39.3996C131.458 39.5815 131.53 39.812 131.53 40.091C131.53 40.3821 131.494 40.6975 131.41 41.025C131.326 41.3525 131.218 41.6801 131.086 41.9955C130.954 42.3108 130.799 42.6262 130.619 42.9174C130.439 43.2085 130.247 43.4632 130.055 43.6816C129.863 43.8999 129.659 44.0819 129.455 44.2032C129.251 44.3366 129.059 44.3973 128.879 44.3973C128.484 44.3973 128.28 44.0698 128.28 43.4268ZM135.608 44.7491C135.524 45.0038 135.38 45.2707 135.176 45.5618C134.973 45.8529 134.769 46.1198 134.541 46.3745C134.313 46.6293 134.085 46.8355 133.857 46.9932C133.629 47.163 133.437 47.2479 133.293 47.2479C133.185 47.2479 133.101 47.1994 133.053 47.1145C133.005 47.0174 132.958 46.9204 132.91 46.8112C132.862 46.7021 132.802 46.5929 132.73 46.508C132.658 46.4231 132.538 46.3745 132.382 46.3745C132.202 46.3745 132.058 46.4352 131.95 46.5565C131.842 46.6778 131.782 46.8355 131.782 47.0417C131.782 47.2964 131.878 47.5269 132.07 47.7089C132.262 47.8908 132.526 47.9879 132.85 47.9879C133.293 47.9879 133.761 47.7938 134.265 47.4299C134.769 47.0538 135.32 46.4837 135.908 45.6952C136.292 45.1858 136.676 44.6399 137.048 44.0334C137.419 43.4268 137.743 42.8325 138.019 42.2623C138.295 41.6801 138.523 41.1463 138.703 40.6369C138.871 40.1274 138.955 39.7149 138.955 39.3996C138.955 39.1691 138.907 38.975 138.811 38.793C138.715 38.6232 138.571 38.5383 138.367 38.5383C138.211 38.5383 138.067 38.6111 137.923 38.7445C137.779 38.8779 137.707 39.0842 137.707 39.3753C137.707 39.4481 137.707 39.5451 137.719 39.6543C137.719 39.7635 137.731 39.8848 137.743 40.0182C137.743 40.1516 137.767 40.2729 137.767 40.3942C137.767 40.5156 137.767 40.6126 137.767 40.6975C137.767 40.9401 137.731 41.1827 137.647 41.4617C137.575 41.7286 137.467 42.0076 137.347 42.2623C137.228 42.5292 137.084 42.7839 136.928 43.0144C136.772 43.257 136.628 43.4754 136.472 43.6573H136.424L136.028 41.7529C135.92 41.2191 135.812 40.746 135.692 40.3215C135.584 39.909 135.476 39.5694 135.38 39.3146C135.272 39.0114 135.164 38.8173 135.057 38.696C134.949 38.5868 134.829 38.5262 134.673 38.5262C134.505 38.5262 134.325 38.5868 134.157 38.7081C133.989 38.8294 133.821 38.9993 133.665 39.2297C133.509 39.4481 133.377 39.7149 133.245 40.0303C133.113 40.3336 133.017 40.6732 132.934 41.0372L133.365 41.1585C133.497 40.6732 133.617 40.3093 133.737 40.091C133.857 39.8726 133.989 39.7513 134.145 39.7513C134.301 39.7513 134.421 39.8726 134.553 40.1274C134.685 40.3821 134.805 40.8188 134.937 41.4739L135.572 44.7976L135.608 44.7491ZM145.348 44.8825C146.079 44.8825 146.727 44.7127 147.315 44.373C147.89 44.0334 148.346 43.5603 148.658 42.9538C148.97 42.3472 149.138 41.6437 149.138 40.8673V40.4792C149.138 39.6907 148.97 38.9992 148.646 38.3806C148.322 37.7619 147.867 37.2889 147.291 36.9613C146.715 36.6338 146.055 36.464 145.324 36.464H142.769V44.8825H145.348ZM145.336 37.8711C146.007 37.8711 146.523 38.0895 146.871 38.5262C147.219 38.9629 147.399 39.6179 147.399 40.467V40.9159C147.399 41.7407 147.207 42.3715 146.859 42.8203C146.499 43.257 145.995 43.4875 145.324 43.4875H144.496V37.8711H145.348H145.336ZM152.017 38.6232H150.361V44.8825H152.017V38.6232ZM150.517 37.6285C150.685 37.7862 150.913 37.8711 151.189 37.8711C151.465 37.8711 151.693 37.7862 151.861 37.6285C152.029 37.4708 152.113 37.2646 152.113 37.0099C152.113 36.7551 152.029 36.5489 151.861 36.3912C151.693 36.2335 151.465 36.1486 151.189 36.1486C150.913 36.1486 150.673 36.2335 150.517 36.3912C150.349 36.5489 150.265 36.7551 150.265 37.0099C150.265 37.2646 150.349 37.4708 150.517 37.6285ZM155.483 44.8704V39.8362H156.706V38.6111H155.483V38.1137C155.483 37.5193 155.795 37.2282 156.418 37.2282C156.61 37.2282 156.778 37.2403 156.922 37.2767L156.946 35.9788C156.61 35.906 156.335 35.8696 156.107 35.8696C155.387 35.8696 154.835 36.0637 154.439 36.4519C154.044 36.84 153.84 37.3859 153.84 38.0895V38.6232H152.916V39.8484H153.84V44.8825H155.495L155.483 44.8704ZM159.681 44.8704V39.8362H160.904V38.6111H159.681V38.1137C159.681 37.5193 159.993 37.2282 160.617 37.2282C160.808 37.2282 160.976 37.2403 161.12 37.2767V35.9788C160.808 35.906 160.521 35.8696 160.293 35.8696C159.573 35.8696 159.021 36.0637 158.625 36.4519C158.23 36.84 158.026 37.3859 158.026 38.0895V38.6232H157.102V39.8484H158.026V44.8825H159.681V44.8704ZM165.882 44.6884C166.302 44.4943 166.638 44.2153 166.89 43.8635L166.074 42.9416C165.714 43.4026 165.222 43.6452 164.587 43.6452C164.179 43.6452 163.831 43.5239 163.567 43.2691C163.303 43.0265 163.135 42.699 163.087 42.2866H167.021V41.6073C167.021 40.6126 166.782 39.8484 166.29 39.3146C165.798 38.7809 165.138 38.5019 164.287 38.5019C163.723 38.5019 163.219 38.6353 162.775 38.9022C162.332 39.1691 161.996 39.5451 161.756 40.0425C161.516 40.5398 161.396 41.0978 161.396 41.7286V41.8863C161.396 42.8203 161.684 43.5724 162.248 44.1304C162.823 44.6884 163.555 44.9795 164.467 44.9795C164.982 44.9795 165.45 44.8825 165.87 44.6763M165.09 40.1395C165.282 40.3457 165.378 40.6247 165.39 41.0008V41.1342H163.087C163.147 40.7218 163.279 40.3942 163.483 40.1759C163.687 39.9576 163.951 39.8362 164.287 39.8362C164.635 39.8362 164.91 39.9333 165.102 40.1395M171.459 38.5626C171.303 38.514 171.124 38.4898 170.944 38.4898C170.356 38.4898 169.9 38.7809 169.564 39.351L169.516 38.5989H167.957V44.8582H169.612V40.7703C169.804 40.3457 170.212 40.1274 170.836 40.1274C171.004 40.1274 171.208 40.1395 171.435 40.1759L171.459 38.5747V38.5626ZM176.377 44.6763C176.797 44.4822 177.133 44.2032 177.385 43.8514L176.569 42.9295C176.209 43.3905 175.717 43.6331 175.07 43.6331C174.662 43.6331 174.314 43.5118 174.05 43.257C173.786 43.0144 173.618 42.6869 173.57 42.2745H177.505V41.5952C177.505 40.6005 177.265 39.8363 176.773 39.3025C176.281 38.7688 175.621 38.4898 174.77 38.4898C174.206 38.4898 173.702 38.6232 173.259 38.8901C172.815 39.1569 172.479 39.533 172.239 40.0303C171.999 40.5277 171.879 41.0857 171.879 41.7165V41.8742C171.879 42.8082 172.167 43.5603 172.731 44.1183C173.307 44.6763 174.038 44.9674 174.95 44.9674C175.466 44.9674 175.933 44.8704 176.353 44.6641M175.573 40.1274C175.765 40.3336 175.861 40.6126 175.873 40.9886V41.1221H173.582C173.642 40.7096 173.774 40.3821 173.978 40.1638C174.182 39.9454 174.446 39.8241 174.782 39.8241C175.13 39.8241 175.406 39.9212 175.597 40.1274M178.416 38.5868V44.8461H180.071V40.4428C180.299 40.0425 180.647 39.8362 181.115 39.8362C181.475 39.8362 181.727 39.9212 181.87 40.0789C182.026 40.2366 182.098 40.4913 182.098 40.8552V44.8582H183.754V40.8188C183.754 40.0425 183.586 39.4602 183.262 39.072C182.938 38.6839 182.458 38.4898 181.799 38.4898C181.055 38.4898 180.467 38.7688 180.023 39.3268L179.975 38.5989H178.416V38.5868ZM186.692 43.1842C186.5 42.9052 186.404 42.4443 186.404 41.7892V41.6194C186.404 40.9765 186.5 40.5277 186.692 40.2365C186.884 39.9576 187.184 39.812 187.568 39.812C187.88 39.812 188.132 39.909 188.323 40.1152C188.515 40.3215 188.611 40.5883 188.623 40.9037H190.171C190.171 40.1638 189.931 39.5694 189.463 39.1206C188.995 38.6717 188.371 38.4534 187.604 38.4534C186.716 38.4534 186.021 38.7445 185.517 39.3146C185.013 39.8848 184.761 40.6611 184.761 41.6194V41.7286C184.761 42.7233 185.013 43.5118 185.529 44.0819C186.033 44.652 186.74 44.931 187.616 44.931C188.084 44.931 188.515 44.834 188.911 44.6399C189.307 44.4458 189.607 44.1668 189.835 43.815C190.063 43.4632 190.171 43.0751 190.183 42.6505H188.635C188.635 42.9295 188.527 43.16 188.335 43.3298C188.144 43.4996 187.904 43.5845 187.592 43.5845C187.196 43.5845 186.896 43.439 186.704 43.16M195.376 44.6278C195.796 44.4337 196.132 44.1547 196.384 43.8029L195.568 42.881C195.208 43.3419 194.716 43.5845 194.081 43.5845C193.673 43.5845 193.325 43.4632 193.061 43.2085C192.797 42.9659 192.629 42.6384 192.581 42.2259H196.516V41.5466C196.516 40.5519 196.276 39.7877 195.784 39.254C195.292 38.7203 194.632 38.4413 193.793 38.4413C193.229 38.4413 192.725 38.5747 192.282 38.8416C191.838 39.1084 191.502 39.4845 191.262 39.9818C191.022 40.4792 190.902 41.0372 190.902 41.6679V41.8256C190.902 42.7597 191.19 43.5118 191.754 44.0698C192.318 44.6278 193.061 44.9189 193.973 44.9189C194.489 44.9189 194.956 44.8218 195.376 44.6156M194.597 40.0789C194.788 40.2851 194.884 40.5641 194.896 40.9401V41.0736H192.593C192.653 40.6611 192.785 40.3336 192.989 40.1152C193.193 39.8969 193.457 39.7756 193.793 39.7756C194.141 39.7756 194.417 39.8726 194.609 40.0789" fill="#009EE3"/>
<path id="Vector_2" d="M41.2126 15.0174C41.1646 14.8597 41.1167 14.702 41.0567 14.5565C40.9368 14.2532 40.7808 13.95 40.5889 13.6588C40.445 13.4405 40.2891 13.2221 40.1211 13.0038C39.8932 12.7126 39.6294 12.4336 39.3415 12.1668C39.1256 11.9606 38.8857 11.7665 38.6458 11.5724C38.394 11.3783 38.1301 11.1842 37.8542 11.0023C37.7942 10.9659 37.7463 10.9295 37.6863 10.8931C37.4824 10.7597 37.2065 10.8567 37.1106 11.0872C36.5948 12.4094 35.9111 14.0713 34.9156 15.5512C34.7836 15.7452 34.7117 15.9757 34.7117 16.2062C34.7117 18.8506 32.3368 21.1675 28.7025 22.5747C28.0908 22.8051 27.4431 23.0235 26.7714 23.2054C25.8239 23.4602 24.8283 23.6543 23.7728 23.7756C23.1851 23.8484 22.5854 23.8969 21.9737 23.9333C21.5539 23.9575 21.1221 23.9697 20.6783 23.9697C17.032 23.9697 13.7096 23.1933 11.2147 21.9318C10.9988 21.8226 10.747 21.9803 10.759 22.2229C10.759 22.5383 10.7949 22.8415 10.8309 23.1448C10.9269 23.9333 11.5146 24.5641 12.2822 24.7096C14.4412 25.1463 16.8041 25.4132 19.275 25.486C19.7427 25.4981 20.2105 25.5102 20.6783 25.5102C20.8702 25.5102 21.0621 25.5102 21.254 25.5102C22.3335 25.4981 23.389 25.4496 24.4205 25.3647C24.9723 25.3161 25.5 25.2676 26.0278 25.207C34.8676 24.1395 41.3685 20.5246 41.3685 16.2183C41.3685 15.818 41.3086 15.4177 41.2006 15.0296" fill="#009EE3"/>
<path id="Vector_3" d="M6.381 17.213C6.54892 16.9098 6.64487 16.558 6.64487 16.2062C6.64487 16.0728 6.64487 15.9393 6.66886 15.8059C6.69285 15.6725 6.70484 15.539 6.71684 15.4056C6.77681 15.0781 6.87277 14.7627 7.0047 14.4473C7.05268 14.326 7.11265 14.2047 7.17262 14.0713C7.20861 14.0106 7.2326 13.95 7.26858 13.8893C7.34055 13.768 7.41251 13.6467 7.48448 13.5254C7.52046 13.4647 7.56844 13.4041 7.60442 13.3434C7.8563 12.9917 8.15616 12.652 8.492 12.3245C8.55198 12.276 8.59995 12.2153 8.65992 12.1668C9.06773 11.7907 9.53551 11.439 10.0513 11.1114C10.1232 11.0629 10.1952 11.0144 10.2792 10.978C10.4351 10.881 10.579 10.796 10.7469 10.7111C11.3347 10.3836 11.9704 10.0925 12.642 9.83775C13.2538 9.60727 13.9015 9.38892 14.5731 9.20697C15.5207 8.95223 16.5162 8.75814 17.5597 8.62471C18.1475 8.55193 18.7472 8.5034 19.3709 8.46701C19.7907 8.44275 20.2225 8.43062 20.6663 8.43062C24.2046 8.43062 27.4431 9.15844 29.9139 10.3594C30.1418 10.4685 30.4057 10.2987 30.4057 10.044C30.4057 9.54662 30.3697 8.97649 30.2258 8.36997C30.1538 8.07884 29.9379 7.86049 29.65 7.79984C27.3351 7.30249 24.7803 6.9871 22.0816 6.90219C21.6138 6.89006 21.146 6.87793 20.6783 6.87793C20.4864 6.87793 20.2944 6.87793 20.1025 6.87793C19.023 6.89006 17.9675 6.93858 16.936 7.02349C16.3843 7.07202 15.8565 7.12054 15.3288 7.19332C14.0694 7.33888 12.8579 7.5451 11.7185 7.79984C11.4186 7.86049 11.1188 7.93327 10.8309 8.00606C10.3871 8.11523 9.96731 8.2244 9.53551 8.34571C9.25964 8.43062 8.98377 8.51553 8.7079 8.60045C8.03622 8.81879 7.38852 9.04927 6.77681 9.30401C6.53692 9.40105 6.29704 9.51023 6.05715 9.60727C5.70931 9.76497 5.37347 9.93479 5.03763 10.0925C4.82173 10.2017 4.60583 10.323 4.40193 10.4321C4.29398 10.4928 4.19802 10.5534 4.10207 10.6141C3.89817 10.7354 3.70626 10.8567 3.52634 10.978C3.25047 11.16 2.98659 11.354 2.73471 11.5481C2.48283 11.7422 2.25494 11.9484 2.03904 12.1425C1.75118 12.4094 1.4873 12.6884 1.25941 12.9795C1.07949 13.1979 0.923565 13.4041 0.791627 13.6346C0.611712 13.9257 0.455785 14.229 0.323848 14.5322C0.263876 14.6899 0.203904 14.8355 0.167921 14.9932C0.0599718 15.3813 0 15.7816 0 16.1819C0 18.2562 1.51129 20.1728 4.05409 21.7134C4.19802 21.8105 4.40193 21.7377 4.4619 21.5678C4.74976 20.7794 5.55339 18.6808 6.40499 17.1888" fill="#009EE3"/>
<path id="Vector_4" d="M23.269 5.42229C23.269 5.42229 23.329 5.39803 23.365 5.3859C23.5209 5.33738 23.6648 5.28886 23.8207 5.24034C23.8687 5.22821 23.9047 5.21607 23.9527 5.20394C24.0726 5.16755 24.1926 5.13116 24.3125 5.1069C24.3485 5.1069 24.3845 5.08264 24.4205 5.08264C24.5644 5.04625 24.7083 5.00986 24.8643 4.9856C24.9002 4.9856 24.9362 4.97347 24.9722 4.96134C25.0921 4.93708 25.2121 4.91281 25.32 4.90068C25.356 4.90068 25.392 4.88855 25.428 4.87642C25.5719 4.85216 25.7159 4.84003 25.8478 4.81577C25.8718 4.81577 25.9078 4.81577 25.9318 4.81577C26.0517 4.80364 26.1716 4.79151 26.2796 4.79151C26.3156 4.79151 26.3516 4.79151 26.3875 4.79151C26.5195 4.79151 26.6514 4.79151 26.7834 4.79151C26.7834 4.79151 26.7834 4.79151 26.7953 4.79151H26.8313C26.9633 4.79151 27.0832 4.79151 27.2032 4.79151C27.2271 4.79151 27.2511 4.79151 27.2871 4.79151C27.4191 4.79151 27.551 4.81577 27.6709 4.8279C27.6949 4.8279 27.7189 4.8279 27.7429 4.8279C27.8628 4.84003 27.9708 4.86429 28.0907 4.88855C28.1027 4.88855 28.1267 4.88855 28.1387 4.88855C28.2587 4.91281 28.3786 4.93708 28.4985 4.97347C28.5225 4.97347 28.5465 4.9856 28.5705 4.99773C28.6905 5.03412 28.8104 5.07051 28.9183 5.1069C28.9183 5.1069 28.9183 5.1069 28.9303 5.1069C29.0383 5.14329 29.1462 5.19181 29.2542 5.24034C29.2782 5.24034 29.3022 5.2646 29.3262 5.2646C29.4341 5.31312 29.5301 5.37377 29.638 5.42229C29.65 5.42229 29.674 5.44655 29.686 5.45868C29.7819 5.5072 29.8659 5.56786 29.9619 5.62851C29.9738 5.62851 29.9858 5.65277 30.0098 5.65277C30.1058 5.71342 30.1897 5.7862 30.2857 5.85899C30.3097 5.87112 30.3217 5.89538 30.3457 5.90751C30.4296 5.98029 30.5256 6.0652 30.6096 6.15012C30.9214 6.46551 31.1853 6.82942 31.3892 7.22972C31.5691 7.56937 31.701 7.93328 31.797 8.33359C31.9649 8.9765 32.0249 9.69219 31.9889 10.4443C31.9769 10.7597 31.9409 11.0872 31.881 11.4268C31.881 11.4511 31.881 11.4754 31.869 11.4996C31.821 11.815 31.761 12.1304 31.677 12.4458C31.677 12.4701 31.6651 12.5064 31.6531 12.5307C31.1733 14.4109 30.2137 16.4488 28.8104 18.4382C28.5465 18.8021 28.2826 19.166 27.9948 19.5299C27.8508 19.7119 27.7069 19.8939 27.551 20.0758C27.0952 20.6217 26.6154 21.1433 26.0997 21.6649C26.0037 21.7619 26.0997 21.9196 26.2316 21.8832C26.6394 21.7741 27.1552 21.6406 27.6949 21.4829C28.3306 21.301 28.9064 20.9249 29.3381 20.4276C29.4461 20.2942 29.566 20.1607 29.674 20.0394C30.3337 19.2509 30.9574 18.4625 31.5331 17.674C31.725 17.4071 31.9169 17.1524 32.0969 16.8855C32.5886 16.182 33.0444 15.4663 33.4642 14.7748C33.6561 14.4473 33.848 14.1198 34.0279 13.8044C34.2438 13.4041 34.4597 13.0038 34.6516 12.6156C34.9035 12.1061 35.1314 11.6088 35.3353 11.1115C35.4433 10.8688 35.5392 10.6262 35.6232 10.3836C35.6712 10.2623 35.7191 10.141 35.7551 10.0197C35.7791 9.95906 35.7911 9.91054 35.8151 9.84989C35.8751 9.66793 35.935 9.48598 35.995 9.30402C36.031 9.18272 36.067 9.06141 36.103 8.94011C36.1749 8.70963 36.2349 8.49128 36.2829 8.27294C36.3668 7.93328 36.4388 7.60576 36.4988 7.27824C36.5348 7.0599 36.5707 6.84155 36.5947 6.63533C36.6187 6.42911 36.6427 6.2229 36.6547 6.01668C36.6667 5.81046 36.6787 5.61638 36.6787 5.42229C36.6787 5.2282 36.6787 5.03412 36.6667 4.85216C36.6667 4.75512 36.6547 4.67021 36.6427 4.57316C36.6307 4.39121 36.5947 4.20925 36.5707 4.03943C36.3908 2.98408 35.971 2.09856 35.2873 1.41926C35.2274 1.35861 35.1674 1.31008 35.1074 1.24943C35.0834 1.22517 35.0714 1.21304 35.0475 1.20091C35.0115 1.16452 34.9635 1.12813 34.9275 1.09174C34.9035 1.06748 34.8795 1.05535 34.8436 1.03109C34.8076 1.00682 34.7716 0.970433 34.7236 0.946173C34.6996 0.921912 34.6636 0.909782 34.6397 0.885521C34.6037 0.86126 34.5677 0.836999 34.5197 0.812738C34.4957 0.788477 34.4597 0.776347 34.4238 0.752086C34.3878 0.727825 34.3398 0.703565 34.3038 0.679304C34.2678 0.667173 34.2438 0.642913 34.2079 0.630782C34.1719 0.606521 34.1239 0.594391 34.0879 0.57013C34.0519 0.558 34.0159 0.533739 33.98 0.521609C33.944 0.509478 33.896 0.485217 33.86 0.473087C33.824 0.460957 33.7881 0.448826 33.7521 0.424565C33.7161 0.412435 33.6681 0.388174 33.6201 0.376044C33.5841 0.363913 33.5482 0.351783 33.5122 0.339653C33.4642 0.327522 33.4282 0.315392 33.3802 0.291131C33.3443 0.279001 33.3083 0.26687 33.2603 0.25474C33.2123 0.242609 33.1763 0.230479 33.1284 0.218349C33.0924 0.218349 33.0444 0.194088 33.0084 0.194088C32.9604 0.194088 32.9125 0.169827 32.8645 0.169827C32.8285 0.169827 32.7805 0.157697 32.7445 0.145566C32.6966 0.145566 32.6486 0.133436 32.6006 0.121305C32.5526 0.121305 32.5167 0.109175 32.4687 0.0970446C32.4207 0.0970446 32.3727 0.0849142 32.3247 0.0727838C32.2768 0.0727838 32.2408 0.0727838 32.1928 0.0606534C32.1448 0.0606534 32.0968 0.0606534 32.0489 0.0485229C32.0009 0.0485229 31.9649 0.0485229 31.9169 0.0485229C31.869 0.0485229 31.809 0.0485229 31.761 0.0485229C31.713 0.0485229 31.677 0.0485229 31.6291 0.0485229C31.5811 0.0485229 31.5211 0.0485229 31.4731 0.0485229C31.4252 0.0485229 31.3892 0.0485229 31.3532 0.0485229C31.2333 0.0485229 31.1013 0.0485229 30.9694 0.0485229C30.9454 0.0485229 30.9214 0.0485229 30.8854 0.0485229C30.7775 0.0485229 30.6695 0.0606534 30.5616 0.0727838C30.5256 0.0727838 30.5016 0.0727838 30.4656 0.0727838C30.3337 0.0849142 30.2017 0.0970446 30.0698 0.121305C30.0458 0.121305 30.0218 0.121305 29.9978 0.121305C29.8779 0.133436 29.758 0.157697 29.65 0.169827C29.614 0.169827 29.578 0.181957 29.5421 0.194088C29.3981 0.218349 29.2662 0.242609 29.1222 0.279001C29.0983 0.279001 29.0743 0.279001 29.0503 0.291131C28.9303 0.315392 28.7984 0.351783 28.6785 0.376044C28.6425 0.376044 28.6065 0.400305 28.5705 0.400305C28.4266 0.436696 28.2826 0.473087 28.1267 0.521609C28.1147 0.521609 28.0907 0.521609 28.0787 0.533739C27.9468 0.57013 27.8149 0.618652 27.6709 0.655043C27.6349 0.655043 27.587 0.679304 27.551 0.691434C27.3951 0.739956 27.2511 0.788477 27.0952 0.836999C27.0952 0.836999 27.0832 0.836999 27.0712 0.836999C26.9273 0.885521 26.7714 0.946173 26.6274 0.994694C26.5914 1.00682 26.5435 1.01896 26.5075 1.04322C26.3516 1.10387 26.2076 1.16452 26.0517 1.22517C26.0517 1.22517 26.0517 1.22517 26.0397 1.22517C25.8838 1.28582 25.7278 1.35861 25.5599 1.43139C25.5119 1.45565 25.476 1.46778 25.428 1.49204C25.2841 1.55269 25.1401 1.62548 24.9842 1.68613C24.9722 1.68613 24.9482 1.69826 24.9362 1.71039C24.7803 1.78317 24.6124 1.86808 24.4564 1.94087C24.4085 1.96513 24.3725 1.97726 24.3245 2.00152C24.1806 2.0743 24.0366 2.14708 23.8927 2.21987C23.8687 2.232 23.8447 2.24413 23.8207 2.25626C23.6528 2.34117 23.4969 2.42608 23.329 2.52312C23.281 2.54739 23.245 2.57165 23.209 2.59591C23.0651 2.68082 22.9212 2.7536 22.7772 2.83852C22.7532 2.85065 22.7173 2.87491 22.6933 2.88704C22.5254 2.98408 22.3574 3.08112 22.1895 3.17817C22.1535 3.20243 22.1056 3.22669 22.0696 3.25095C21.9256 3.33586 21.7817 3.42077 21.6498 3.51782C21.6138 3.54208 21.5778 3.55421 21.5538 3.57847C21.3859 3.68764 21.218 3.79682 21.05 3.90599C21.0141 3.93025 20.9781 3.95451 20.9301 3.97877C20.7862 4.07582 20.6422 4.17286 20.5103 4.25777C20.4743 4.28203 20.4383 4.30629 20.4024 4.33055C20.2344 4.45186 20.0665 4.56103 19.8986 4.68234C19.8626 4.7066 19.8266 4.73086 19.7906 4.75512C19.6467 4.85216 19.5028 4.96134 19.3588 5.07051C19.3229 5.1069 19.2749 5.13116 19.2389 5.15542C19.071 5.27673 18.9031 5.41016 18.7351 5.5436C18.7351 5.5436 18.7351 5.5436 18.7231 5.5436C20.2584 5.53147 22.2495 5.49507 23.0171 5.47081C23.0891 5.44655 23.1491 5.42229 23.221 5.39803" fill="#009EE3"/>
<path id="Vector_5" d="M18.7594 26.8689C18.5315 26.8689 18.3036 26.9052 18.0757 26.978C18.0757 26.978 18.0277 27.0023 17.9917 27.0023C17.8358 27.0508 17.6799 27.0993 17.5359 27.1479C17.4999 27.16 17.452 27.1721 17.416 27.1842C17.284 27.2206 17.1641 27.257 17.0442 27.2813C17.0082 27.2813 16.9842 27.3055 16.9482 27.3055C16.8043 27.3419 16.6483 27.3783 16.5044 27.4147C16.4684 27.4147 16.4324 27.4269 16.4085 27.439C16.2885 27.4632 16.1686 27.4875 16.0486 27.4996C16.0126 27.4996 15.9767 27.5118 15.9407 27.5239C15.7967 27.5482 15.6528 27.5603 15.5089 27.5845C15.4849 27.5845 15.4609 27.5845 15.4369 27.5845C15.317 27.5967 15.197 27.6088 15.0771 27.6088C15.0411 27.6088 15.0051 27.6088 14.9691 27.6088C14.8372 27.6088 14.7053 27.6088 14.5733 27.6088H14.5253C14.3934 27.6088 14.2735 27.6088 14.1535 27.5967C14.1295 27.5967 14.1055 27.5967 14.0696 27.5967C13.9376 27.5967 13.8177 27.5724 13.6857 27.5603C13.6618 27.5603 13.6378 27.5603 13.6138 27.5603C13.4938 27.5482 13.3859 27.5239 13.2659 27.4996C13.2539 27.4996 13.23 27.4996 13.218 27.4996C13.098 27.4754 12.9781 27.4511 12.8581 27.4147C12.8341 27.4147 12.8102 27.4026 12.7862 27.3905C12.6662 27.3541 12.5463 27.3177 12.4383 27.2813C12.4383 27.2813 12.4383 27.2813 12.4263 27.2813C12.3184 27.2449 12.2104 27.1964 12.1025 27.1479C12.0785 27.1479 12.0545 27.1236 12.0305 27.1236C11.9226 27.0751 11.8266 27.0265 11.7187 26.9659C11.7067 26.9659 11.6827 26.9416 11.6707 26.9295C11.5747 26.881 11.4908 26.8203 11.4068 26.7597C11.3948 26.7597 11.3708 26.7354 11.3588 26.7354C11.2629 26.6748 11.1789 26.602 11.083 26.5292C11.059 26.5171 11.047 26.4928 11.023 26.4807C10.939 26.4079 10.8431 26.323 10.7591 26.2381C10.4473 25.9227 10.1834 25.5588 9.97948 25.1585C9.79957 24.8188 9.66763 24.4549 9.57168 24.0546C9.54769 23.9454 9.5237 23.8484 9.49971 23.7392C9.43974 23.4602 9.40376 23.1691 9.39176 22.8658C9.36777 22.5626 9.36777 22.2593 9.39176 21.9318C9.40376 21.6164 9.43974 21.2889 9.48772 20.9492C9.48772 20.925 9.48772 20.9007 9.49971 20.8764C9.54769 20.561 9.60766 20.2457 9.69162 19.9303C9.69162 19.906 9.70361 19.8696 9.71561 19.8454C9.79957 19.53 9.89552 19.2024 10.0035 18.8749C10.1834 18.3412 10.3993 17.7953 10.6512 17.2494C10.8191 16.8855 10.999 16.5216 11.2029 16.1456C11.4068 15.7817 11.6107 15.4056 11.8386 15.0417C12.0665 14.6778 12.3064 14.3018 12.5703 13.9378C12.8221 13.5739 13.098 13.21 13.3859 12.8461C13.9616 12.1183 14.5853 11.4026 15.281 10.7112C15.341 10.6505 15.281 10.5413 15.197 10.5656C14.9571 10.6262 14.6933 10.6869 14.4294 10.7718C13.23 11.1115 12.1505 11.8029 11.3588 12.7733C10.0275 14.3867 8.876 16.0243 7.91645 17.6255C7.72455 17.953 7.53264 18.2805 7.35272 18.5959C7.35272 18.6081 7.34073 18.6202 7.32873 18.6323C7.1848 18.887 7.05286 19.1418 6.92092 19.3965C6.78899 19.6513 6.66904 19.906 6.5491 20.1607C6.42915 20.4155 6.30921 20.6581 6.20126 20.9128C6.09331 21.1676 5.98536 21.4102 5.88941 21.6528C5.79345 21.8954 5.6975 22.138 5.61354 22.3806C5.58955 22.4413 5.57756 22.4898 5.55357 22.5504C5.44562 22.8537 5.34966 23.157 5.25371 23.4602C5.0498 24.1516 4.89388 24.8188 4.79792 25.4496C4.76194 25.6679 4.73795 25.8742 4.71396 26.0804C4.68997 26.2866 4.67798 26.4928 4.67798 26.6869C4.67798 26.7839 4.67798 26.881 4.67798 26.978C4.67798 27.0751 4.67798 27.1721 4.67798 27.2692C4.67798 27.4632 4.68997 27.6452 4.71396 27.8393C4.73795 28.1183 4.78593 28.3852 4.83391 28.6399C4.94185 29.1494 5.12177 29.6225 5.34966 30.047C5.46961 30.2654 5.60154 30.4595 5.74548 30.6414C5.84143 30.7627 5.94938 30.884 6.05733 30.9932C6.1173 31.0538 6.17727 31.1024 6.22525 31.163C6.24924 31.1751 6.27323 31.1994 6.28522 31.2115C6.32121 31.2479 6.36918 31.2843 6.40517 31.3207C6.42915 31.345 6.45314 31.3571 6.48913 31.3814C6.52511 31.4178 6.56109 31.442 6.60907 31.4663C6.63306 31.4905 6.66904 31.5027 6.69303 31.5269C6.72901 31.5512 6.765 31.5754 6.81297 31.5997C6.84896 31.624 6.87295 31.6361 6.90893 31.6604C6.94491 31.6846 6.9809 31.7089 7.02887 31.7331C7.06486 31.7574 7.08884 31.7695 7.12483 31.7817C7.16081 31.8059 7.20879 31.8181 7.24477 31.8423C7.28075 31.8545 7.31674 31.8787 7.35272 31.8908C7.3887 31.9151 7.43668 31.9272 7.47266 31.9515C7.50865 31.9636 7.54463 31.9758 7.58061 32C7.6166 32.0121 7.66457 32.0364 7.71255 32.0485C7.74853 32.0607 7.78452 32.0728 7.8205 32.0849C7.86848 32.0971 7.90446 32.1092 7.95244 32.1213C7.98842 32.1334 8.0244 32.1456 8.07238 32.1577C8.12036 32.1698 8.16834 32.182 8.20432 32.1941C8.2403 32.1941 8.28828 32.2184 8.32426 32.2184C8.37224 32.2184 8.42022 32.2426 8.4682 32.2548C8.50418 32.2548 8.55216 32.2669 8.58814 32.279C8.63612 32.279 8.68409 32.2911 8.73207 32.3033C8.78005 32.3033 8.81603 32.3154 8.86401 32.3275C8.91199 32.3275 8.95996 32.3397 9.00794 32.3518C9.05592 32.3518 9.0919 32.3518 9.13988 32.3639C9.18786 32.3639 9.23583 32.3639 9.29581 32.3761C9.34378 32.3761 9.37977 32.3761 9.42774 32.3761C9.47572 32.3761 9.5237 32.3761 9.58367 32.3761C9.63165 32.3761 9.66763 32.3761 9.71561 32.3761C9.76359 32.3761 9.82356 32.3761 9.87153 32.3761C9.91951 32.3761 9.9555 32.3761 10.0035 32.3761C10.1234 32.3761 10.2554 32.3761 10.3873 32.3761C10.4113 32.3761 10.4473 32.3761 10.4713 32.3761C10.5792 32.3761 10.6872 32.3639 10.8071 32.3518C10.8431 32.3518 10.8671 32.3518 10.903 32.3518C11.035 32.3397 11.1669 32.3275 11.2989 32.3033C11.3229 32.3033 11.3468 32.3033 11.3708 32.3033C11.4908 32.2911 11.6107 32.2669 11.7187 32.2548C11.7546 32.2548 11.7906 32.2548 11.8266 32.2426C11.9705 32.2184 12.1025 32.1941 12.2464 32.1577C12.2704 32.1577 12.2944 32.1577 12.3184 32.1456C12.4383 32.1213 12.5703 32.0849 12.6902 32.0607C12.7262 32.0607 12.7622 32.0364 12.7982 32.0364C12.9421 32 13.086 31.9636 13.242 31.9151C13.2539 31.9151 13.2779 31.9151 13.2899 31.903C13.4219 31.8666 13.5538 31.8181 13.6977 31.7817C13.7337 31.7695 13.7817 31.7574 13.8177 31.7453C13.9736 31.6968 14.1175 31.6482 14.2735 31.5997H14.2975C14.4414 31.5512 14.5853 31.4905 14.7412 31.442C14.7772 31.4299 14.8252 31.4056 14.8612 31.3935C15.0171 31.3328 15.161 31.2722 15.317 31.2115C15.317 31.2115 15.317 31.2115 15.329 31.2115C15.4849 31.1509 15.6408 31.0781 15.8087 31.0053C15.8447 30.9932 15.8927 30.9689 15.9287 30.9568C16.0726 30.8961 16.2285 30.8234 16.3725 30.7627C16.3845 30.7627 16.4085 30.7506 16.4205 30.7385C16.5764 30.6657 16.7443 30.5808 16.9002 30.508C16.9362 30.4837 16.9842 30.4716 17.0202 30.4473C17.1641 30.3745 17.308 30.3018 17.452 30.229C17.476 30.2168 17.4999 30.2047 17.5239 30.1926C17.6919 30.1077 17.8478 30.0228 18.0157 29.9257C18.0517 29.9015 18.0997 29.8772 18.1356 29.8529C18.2796 29.7802 18.4235 29.6952 18.5674 29.6103C18.5914 29.5982 18.6274 29.5739 18.6514 29.5618C18.8193 29.4648 18.9872 29.3677 19.1552 29.2707C19.1912 29.2464 19.2391 29.2222 19.2751 29.1979C19.419 29.113 19.563 29.0281 19.6949 28.931C19.7309 28.9068 19.7669 28.8946 19.7909 28.8704C19.9588 28.7612 20.1267 28.652 20.2946 28.5429C20.3306 28.5186 20.3786 28.4943 20.4146 28.4701C20.5585 28.373 20.7024 28.276 20.8344 28.1789C20.8704 28.1547 20.9063 28.1304 20.9423 28.1062C21.1102 27.9849 21.2782 27.8757 21.4461 27.7544C21.4821 27.7301 21.5181 27.7059 21.554 27.6695C21.698 27.5724 21.8419 27.4632 21.9738 27.3541C22.0098 27.3298 22.0578 27.2934 22.0938 27.2692C22.1538 27.2328 22.2257 27.1721 22.2977 27.1115C22.3936 27.0387 22.3457 26.881 22.2137 26.881C21.0383 26.8931 19.467 26.9052 18.7713 26.9052" fill="#009EE3"/>
<path id="Vector_6" d="M48.5651 23.3025L49.8965 21.2646C50.1124 20.925 50.5682 20.84 50.892 21.0584C52.9551 22.4776 55.138 23.2055 57.0571 23.2055C59.0842 23.2055 60.2596 22.3321 60.2596 20.9492V20.8643C60.2596 19.251 58.0766 18.693 55.6538 17.9409C52.6072 17.0675 49.2128 15.8059 49.2128 11.815V11.7301C49.2128 7.7756 52.4513 5.37378 56.5534 5.37378C58.9042 5.37378 61.4351 6.12586 63.5341 7.36317C63.8699 7.55725 63.9899 7.99395 63.7979 8.34573L62.6105 10.4928C62.4186 10.8446 61.9868 10.9659 61.639 10.7718C59.8278 9.76499 57.9807 9.15847 56.4334 9.15847C54.5983 9.15847 53.5428 10.0319 53.5428 11.257V11.3419C53.5428 12.8461 55.7737 13.4769 58.1966 14.2654C61.2072 15.2115 64.6016 16.5944 64.6016 20.3427V20.4276C64.6016 24.8067 61.2431 26.978 56.9492 26.978C54.2265 26.978 51.2279 26.0561 48.745 24.2729C48.4332 24.0546 48.3612 23.6179 48.5651 23.2904" fill="#27348B"/>
<path id="Vector_7" d="M85.5319 16.279V16.1941C85.5319 12.5186 82.9171 9.48597 79.2108 9.48597C75.5046 9.48597 72.9978 12.4822 72.9978 16.1213V16.2062C72.9978 19.8332 75.6125 22.9143 79.2828 22.9143C82.9531 22.9143 85.5319 19.8696 85.5319 16.279ZM68.272 16.279V16.1941C68.272 10.2259 72.9618 5.28885 79.2828 5.28885C85.6038 5.28885 90.2576 10.1531 90.2576 16.1092V16.1941C90.2576 22.1137 85.5678 27.0508 79.2108 27.0508C72.8538 27.0508 68.272 22.1865 68.272 16.2669" fill="#27348B"/>
<path id="Vector_8" d="M95.7751 5.73769H99.0615C99.4574 5.73769 99.7812 6.06521 99.7812 6.46551V8.97651C101.113 6.99925 103.02 5.30099 106.222 5.30099C110.876 5.30099 113.563 8.4549 113.563 13.3192V25.862C113.563 26.2623 113.239 26.5898 112.843 26.5898H109.557C109.161 26.5898 108.837 26.2623 108.837 25.862V14.7384C108.837 11.4996 107.242 9.64368 104.423 9.64368C101.604 9.64368 99.7812 11.5845 99.7812 14.8234V25.862C99.7812 26.2623 99.4574 26.5898 99.0615 26.5898H95.7751C95.3793 26.5898 95.0554 26.2623 95.0554 25.862V6.46551C95.0554 6.06521 95.3793 5.73769 95.7751 5.73769Z" fill="#27348B"/>
<path id="Vector_9" d="M133.413 14.7021C133.101 11.6209 131.302 9.20699 128.184 9.20699C125.293 9.20699 123.266 11.4632 122.834 14.7021H133.413ZM118.145 16.2426V15.6361C118.145 9.93481 122.714 5.24034 128.352 5.301C134.829 5.36165 138.103 10.5535 138.103 16.5216C138.103 16.74 138.103 16.9583 138.079 17.1888C138.055 17.5648 137.743 17.856 137.359 17.856H122.87C123.374 21.2525 125.761 23.1448 128.808 23.1448C130.895 23.1448 132.442 22.4291 133.929 21.0948C134.193 20.8522 134.613 20.8522 134.877 21.0948L136.628 22.6596C136.928 22.9265 136.952 23.3996 136.676 23.7028C134.769 25.7529 132.214 27.0508 128.736 27.0508C122.762 27.0508 118.157 22.6717 118.157 16.2305" fill="#27348B"/>
<path id="Vector_10" d="M159.381 16.2062V16.1213C159.381 12.094 156.683 9.44958 153.48 9.44958C150.278 9.44958 147.471 12.1304 147.471 16.1213V16.2062C147.471 20.2335 150.278 22.8779 153.48 22.8779C156.683 22.8779 159.381 20.3063 159.381 16.2062ZM143.573 5.73767H146.859C147.255 5.73767 147.579 6.0652 147.579 6.4655V9.2191C149.102 7.04776 151.249 5.31311 154.572 5.31311C159.453 5.31311 164.179 9.2191 164.179 16.1334V16.2183C164.179 23.1327 159.489 27.0387 154.572 27.0387C151.177 27.0387 149.03 25.304 147.579 23.3632V32.1941C147.579 32.5944 147.255 32.9219 146.859 32.9219H143.573C143.177 32.9219 142.853 32.5944 142.853 32.1941V6.4655C142.853 6.0652 143.177 5.73767 143.573 5.73767Z" fill="#27348B"/>
<path id="Vector_11" d="M181.751 17.8681C180.539 17.395 178.86 17.0432 177.025 17.0432C174.05 17.0432 172.299 18.2684 172.299 20.282V20.3669C172.299 22.3442 174.05 23.4481 176.281 23.4481C179.4 23.4481 181.751 21.677 181.751 19.069V17.8802V17.8681ZM181.631 25.8741V24.0303C180.227 25.7286 178.08 27.0265 174.95 27.0265C171.04 27.0265 167.609 24.7703 167.609 20.5853V20.5004C167.609 15.8787 171.16 13.671 175.969 13.671C178.464 13.671 180.072 14.0227 181.667 14.5443V14.144C181.667 11.257 179.868 9.68006 176.593 9.68006C174.578 9.68006 173.007 10.0804 171.388 10.699C171.004 10.8446 170.584 10.6384 170.452 10.2502L169.624 7.77558C169.504 7.41167 169.672 7.0235 170.02 6.87793C172.083 6.00455 174.206 5.41016 177.265 5.41016C183.358 5.41016 186.321 8.64897 186.321 14.2168V25.8499C186.321 26.2502 185.997 26.5777 185.601 26.5777H182.35C181.955 26.5777 181.631 26.2502 181.631 25.8499" fill="#27348B"/>
<path id="Vector_12" d="M192.665 5.73769H195.952C196.348 5.73769 196.672 6.06521 196.672 6.46552V10.4443C197.871 7.54512 200.018 5.49509 203.232 5.34952C203.64 5.32526 203.976 5.66491 203.976 6.07735V9.70434C203.976 10.0925 203.688 10.4079 203.304 10.4322C199.238 10.699 196.672 13.4162 196.672 18.6687V25.8863C196.672 26.2866 196.348 26.6141 195.952 26.6141H192.665C192.27 26.6141 191.946 26.2866 191.946 25.8863V6.46552C191.946 6.06521 192.27 5.73769 192.665 5.73769Z" fill="#27348B"/>
</g>
</svg>
