<?xml version="1.0" encoding="utf-8"?>
<!-- Generator: Adobe Illustrator 16.0.3, SVG Export Plug-In . SVG Version: 6.00 Build 0)  -->
<!DOCTYPE svg PUBLIC "-//W3C//DTD SVG 1.1//EN" "http://www.w3.org/Graphics/SVG/1.1/DTD/svg11.dtd">
<svg version="1.1" id="Vrstva_1" xmlns="http://www.w3.org/2000/svg" xmlns:xlink="http://www.w3.org/1999/xlink" x="0px" y="0px"
	 width="566.93px" height="133.228px" viewBox="0 0 566.93 133.228" enable-background="new 0 0 566.93 133.228"
	 xml:space="preserve">
<g>
	<path fill="#009EE3" d="M539.467,110.917c0.527,0.554,0.803,1.34,0.822,2.356v0.365h-6.354c0.158-1.143,0.52-2.022,1.084-2.635
		c0.563-0.614,1.297-0.922,2.203-0.922C538.191,110.082,538.939,110.36,539.467,110.917 M541.631,123.315
		c1.172-0.541,2.098-1.298,2.783-2.266l-2.246-2.515c-0.99,1.275-2.365,1.913-4.123,1.913c-1.139,0-2.078-0.337-2.822-1.01
		c-0.74-0.677-1.188-1.57-1.332-2.687h10.887v-1.867c0-2.706-0.674-4.797-2.018-6.272c-1.342-1.476-3.184-2.213-5.521-2.213
		c-1.559,0-2.947,0.365-4.164,1.1c-1.217,0.731-2.156,1.773-2.818,3.126c-0.668,1.356-0.998,2.891-0.998,4.609v0.443
		c0,2.56,0.787,4.608,2.363,6.146s3.615,2.308,6.123,2.308C539.164,124.13,540.463,123.859,541.631,123.315 M517.66,119.292
		c-0.537-0.771-0.807-2.036-0.807-3.8v-0.473c0-1.741,0.271-3,0.813-3.776c0.543-0.773,1.346-1.162,2.41-1.162
		c0.865,0,1.561,0.278,2.088,0.835c0.525,0.557,0.799,1.278,0.818,2.168h4.285c-0.021-2.022-0.676-3.645-1.967-4.86
		c-1.291-1.218-3.008-1.825-5.146-1.825c-2.443,0-4.365,0.786-5.768,2.355c-1.4,1.569-2.1,3.67-2.1,6.305v0.301
		c0,2.738,0.705,4.887,2.117,6.44c1.41,1.554,3.34,2.33,5.783,2.33c1.307,0,2.498-0.266,3.578-0.799
		c1.082-0.531,1.934-1.278,2.555-2.243s0.936-2.026,0.947-3.185h-4.285c-0.02,0.771-0.293,1.385-0.818,1.848
		c-0.527,0.466-1.213,0.696-2.055,0.696C519.012,120.448,518.197,120.062,517.66,119.292 M494.779,106.715v17.098h4.566v-12.055
		c0.641-1.098,1.604-1.645,2.889-1.645c0.98,0,1.684,0.217,2.104,0.654c0.422,0.439,0.631,1.142,0.631,2.109v10.936h4.566v-11.045
		c-0.02-2.117-0.471-3.709-1.357-4.771c-0.885-1.065-2.234-1.599-4.047-1.599c-2.051,0-3.691,0.764-4.912,2.291l-0.143-1.975
		H494.779z M486.973,110.917c0.523,0.554,0.799,1.34,0.818,2.356v0.365h-6.35c0.156-1.143,0.518-2.022,1.08-2.635
		c0.564-0.614,1.299-0.922,2.205-0.922C485.697,110.082,486.445,110.36,486.973,110.917 M489.135,123.315
		c1.17-0.541,2.096-1.298,2.783-2.266l-2.244-2.515c-0.992,1.275-2.365,1.913-4.125,1.913c-1.137,0-2.078-0.337-2.824-1.01
		c-0.74-0.677-1.186-1.57-1.332-2.687h10.887v-1.867c0-2.706-0.67-4.797-2.012-6.272c-1.344-1.476-3.186-2.213-5.525-2.213
		c-1.561,0-2.949,0.365-4.164,1.1c-1.219,0.731-2.156,1.773-2.82,3.126c-0.662,1.356-0.996,2.891-0.996,4.609v0.443
		c0,2.56,0.789,4.608,2.361,6.146c1.576,1.537,3.619,2.308,6.125,2.308C486.672,124.13,487.967,123.859,489.135,123.315
		 M475.545,106.606c-0.441-0.137-0.916-0.207-1.422-0.207c-1.623,0-2.893,0.786-3.809,2.355l-0.127-2.039h-4.313v17.098h4.566
		v-11.188c0.537-1.169,1.67-1.755,3.398-1.755c0.471,0,1.021,0.042,1.643,0.127L475.545,106.606z M457.975,110.917
		c0.523,0.554,0.799,1.34,0.818,2.356v0.365h-6.35c0.156-1.143,0.518-2.022,1.08-2.635c0.564-0.614,1.299-0.922,2.205-0.922
		C456.699,110.082,457.447,110.36,457.975,110.917 M460.139,123.315c1.17-0.541,2.094-1.298,2.781-2.266l-2.244-2.515
		c-0.99,1.275-2.365,1.913-4.125,1.913c-1.137,0-2.078-0.337-2.82-1.01c-0.744-0.677-1.189-1.57-1.336-2.687h10.887v-1.867
		c0-2.706-0.67-4.797-2.012-6.272c-1.344-1.476-3.186-2.213-5.525-2.213c-1.559,0-2.947,0.365-4.164,1.1
		c-1.217,0.731-2.156,1.773-2.82,3.126c-0.662,1.356-0.996,2.891-0.996,4.609v0.443c0,2.56,0.789,4.608,2.363,6.146
		c1.576,1.537,3.617,2.308,6.123,2.308C457.674,124.13,458.969,123.859,460.139,123.315 M442.994,123.813v-13.748h3.395v-3.35
		h-3.395v-1.375c0-1.612,0.857-2.418,2.576-2.418c0.547,0,1.01,0.049,1.387,0.143l0.049-3.541c-0.916-0.21-1.691-0.314-2.322-0.314
		c-1.982,0-3.521,0.528-4.623,1.587c-1.1,1.062-1.65,2.547-1.65,4.466v1.453h-2.543v3.35h2.543v13.748H442.994z M431.395,123.813
		v-13.748h3.395v-3.35h-3.395v-1.375c0-1.612,0.857-2.418,2.576-2.418c0.547,0,1.01,0.049,1.389,0.143l0.047-3.541
		c-0.914-0.21-1.691-0.314-2.322-0.314c-1.98,0-3.521,0.528-4.621,1.587c-1.102,1.062-1.65,2.547-1.65,4.466v1.453h-2.545v3.35
		h2.545v13.748H431.395z M417.652,103.997c0.469,0.443,1.088,0.664,1.857,0.664c0.768,0,1.389-0.221,1.857-0.664
		c0.467-0.443,0.703-1.009,0.703-1.705c0-0.687-0.232-1.249-0.695-1.692c-0.463-0.44-1.084-0.664-1.865-0.664
		c-0.789,0-1.414,0.224-1.873,0.664c-0.457,0.443-0.686,1.006-0.686,1.692C416.951,102.988,417.184,103.553,417.652,103.997
		 M421.801,106.715h-4.582v17.098h4.582V106.715z M403.328,104.644c1.865,0,3.283,0.605,4.25,1.81
		c0.971,1.207,1.453,2.98,1.453,5.32v1.214c-0.02,2.255-0.521,3.99-1.498,5.201c-0.982,1.21-2.398,1.815-4.254,1.815h-2.291v-15.36
		H403.328z M403.373,123.813c2.014-0.01,3.82-0.472,5.422-1.389c1.602-0.919,2.842-2.207,3.721-3.873
		c0.881-1.664,1.32-3.567,1.32-5.703v-1.062c0-2.136-0.449-4.045-1.342-5.728c-0.896-1.68-2.143-2.975-3.738-3.888
		c-1.596-0.909-3.404-1.365-5.428-1.365h-7.082v23.007H403.373z M376.424,123.458c-0.234,0.689-0.631,1.434-1.18,2.232
		c-0.551,0.8-1.137,1.538-1.766,2.217c-0.623,0.68-1.248,1.246-1.877,1.699c-0.623,0.453-1.143,0.68-1.553,0.68
		c-0.301,0-0.521-0.123-0.664-0.372c-0.139-0.249-0.273-0.527-0.404-0.842c-0.129-0.313-0.295-0.592-0.5-0.841
		s-0.521-0.372-0.957-0.372c-0.494,0-0.893,0.168-1.197,0.501c-0.301,0.334-0.451,0.771-0.451,1.312
		c0,0.712,0.264,1.316,0.793,1.812s1.244,0.745,2.15,0.745c1.211,0,2.51-0.512,3.9-1.538c1.393-1.025,2.91-2.604,4.547-4.74
		c1.08-1.383,2.127-2.896,3.139-4.548c1.018-1.65,1.91-3.269,2.688-4.854s1.404-3.068,1.877-4.45
		c0.477-1.378,0.713-2.511,0.713-3.398c0-0.624-0.131-1.174-0.389-1.65c-0.26-0.472-0.668-0.711-1.23-0.711
		c-0.43,0-0.842,0.184-1.23,0.55c-0.389,0.369-0.582,0.938-0.582,1.715c0,0.194,0.014,0.45,0.033,0.761
		c0.021,0.313,0.047,0.645,0.08,0.987c0.033,0.347,0.063,0.686,0.08,1.02c0.023,0.336,0.033,0.611,0.033,0.825
		c0,0.647-0.107,1.343-0.324,2.087c-0.213,0.745-0.494,1.479-0.84,2.201c-0.344,0.725-0.729,1.414-1.15,2.071
		c-0.42,0.66-0.834,1.246-1.246,1.764h-0.129l-1.1-5.21c-0.303-1.467-0.609-2.768-0.924-3.9c-0.311-1.133-0.598-2.042-0.857-2.734
		c-0.301-0.819-0.598-1.379-0.889-1.684c-0.293-0.301-0.641-0.452-1.053-0.452c-0.473,0-0.949,0.168-1.424,0.501
		c-0.473,0.336-0.922,0.81-1.344,1.424c-0.42,0.615-0.809,1.344-1.164,2.185c-0.357,0.842-0.641,1.761-0.857,2.751l1.197,0.324
		c0.346-1.337,0.686-2.314,1.02-2.93c0.336-0.614,0.709-0.922,1.115-0.922c0.389,0,0.762,0.34,1.117,1.02s0.709,1.906,1.053,3.673
		L376.424,123.458z M356.166,119.833c0-0.796,0.109-1.638,0.322-2.524c0.217-0.884,0.516-1.764,0.891-2.638
		c0.379-0.874,0.809-1.702,1.295-2.492c0.484-0.786,0.992-1.488,1.52-2.104c0.531-0.614,1.068-1.1,1.619-1.456
		s1.064-0.534,1.537-0.534c0.498,0,0.92,0.249,1.262,0.744c0.348,0.498,0.52,1.123,0.52,1.878c0,0.799-0.115,1.646-0.342,2.54
		c-0.227,0.896-0.52,1.78-0.889,2.654c-0.365,0.873-0.797,1.711-1.295,2.508c-0.496,0.8-1.014,1.501-1.553,2.104
		c-0.537,0.605-1.088,1.084-1.652,1.44c-0.559,0.355-1.086,0.533-1.584,0.533C356.715,122.486,356.166,121.603,356.166,119.833
		 M362.896,96.984l-6.213,0.291l-0.291,0.971c1.662,0,2.49,0.379,2.49,1.133c0,0.194-0.051,0.492-0.16,0.891
		c-0.107,0.401-0.215,0.793-0.324,1.181l-3.916,12.622c-0.453,1.424-0.797,2.65-1.035,3.673c-0.236,1.026-0.357,1.819-0.357,2.379
		c0,1.188,0.395,2.152,1.182,2.896c0.789,0.744,1.797,1.117,3.025,1.117c0.865,0,1.746-0.185,2.639-0.551
		c0.896-0.365,1.748-0.867,2.557-1.505c0.809-0.634,1.57-1.379,2.281-2.233c0.713-0.851,1.334-1.764,1.861-2.734
		c0.531-0.971,0.945-1.983,1.246-3.042c0.305-1.055,0.453-2.091,0.453-3.107c0-1.424-0.355-2.543-1.068-3.365
		c-0.713-0.819-1.725-1.229-3.043-1.229c-1.055,0-2.055,0.274-2.992,0.825c-0.939,0.55-1.719,1.323-2.348,2.313l-0.096-0.064
		L362.896,96.984z M331.547,110.541c0.801-1.106,1.918-1.66,3.352-1.66c1.809,0,3.152,0.807,4.029,2.418v7.854
		c-0.854,1.664-2.207,2.495-4.061,2.495c-1.412,0-2.52-0.547-3.32-1.644c-0.801-1.094-1.201-2.612-1.201-4.551
		C330.346,113.286,330.746,111.644,331.547,110.541 M327.424,115.344c0,2.611,0.623,4.73,1.873,6.353
		c1.246,1.621,2.861,2.434,4.842,2.434c2.088,0,3.715-0.715,4.883-2.149l0.143,1.832h2.686V99.541h-2.922v8.913
		c-1.172-1.369-2.758-2.055-4.758-2.055c-2.012,0-3.641,0.799-4.883,2.395s-1.863,3.705-1.863,6.33V115.344z M320.627,110.026
		c0.719,0.816,1.117,1.969,1.199,3.453v0.221h-8.563c0.191-1.547,0.686-2.751,1.486-3.612c0.799-0.857,1.789-1.285,2.971-1.285
		C318.943,108.802,319.912,109.21,320.627,110.026 M324.529,120.826l-1.783-1.388c-0.537,0.695-1.164,1.252-1.881,1.673
		c-0.719,0.421-1.592,0.635-2.623,0.635c-1.453,0-2.652-0.521-3.596-1.558c-0.941-1.038-1.434-2.401-1.477-4.087h11.584v-1.217
		c0-2.729-0.619-4.822-1.852-6.289c-1.23-1.462-2.959-2.196-5.182-2.196c-1.359,0-2.623,0.378-3.787,1.129
		c-1.162,0.754-2.068,1.799-2.715,3.13c-0.65,1.333-0.975,2.848-0.975,4.544v0.537c0,2.55,0.729,4.586,2.182,6.106
		c1.453,1.524,3.34,2.285,5.656,2.285C320.951,124.13,323.1,123.03,324.529,120.826 M308.604,106.622
		c-0.297-0.148-0.729-0.223-1.297-0.223c-1.762,0-3.117,0.764-4.078,2.291l-0.045-1.975h-2.846v17.098h2.922v-12.136
		c0.688-1.632,1.988-2.45,3.904-2.45c0.518,0,0.996,0.039,1.439,0.113V106.622z M292.83,110.026
		c0.717,0.816,1.119,1.969,1.203,3.453v0.221h-8.566c0.191-1.547,0.686-2.751,1.486-3.612c0.799-0.857,1.789-1.285,2.971-1.285
		C291.146,108.802,292.115,109.21,292.83,110.026 M296.736,120.826l-1.787-1.388c-0.537,0.695-1.166,1.252-1.881,1.673
		c-0.717,0.421-1.592,0.635-2.625,0.635c-1.451,0-2.65-0.521-3.596-1.558c-0.941-1.038-1.432-2.401-1.475-4.087h11.582v-1.217
		c0-2.729-0.617-4.822-1.848-6.289c-1.232-1.462-2.961-2.196-5.184-2.196c-1.359,0-2.621,0.378-3.783,1.129
		c-1.166,0.754-2.072,1.799-2.719,3.13c-0.647,1.333-0.974,2.848-0.974,4.544v0.537c0,2.55,0.728,4.586,2.182,6.106
		c1.455,1.524,3.34,2.285,5.656,2.285C293.152,124.13,295.303,123.03,296.736,120.826 M269.949,106.715h-2.353l-3.984,12.8
		l-3.366-12.8h-2.906l4.961,17.098h2.369l4.045-12.958l4.159,12.958h2.369l4.978-17.098h-2.922l-3.289,13.068L269.949,106.715z
		 M243.906,110.525c0.887-1.149,2.048-1.723,3.492-1.723c1.476,0,2.657,0.58,3.55,1.745c0.89,1.165,1.333,2.683,1.333,4.561
		c0,2.097-0.437,3.725-1.311,4.89c-0.874,1.165-2.055,1.748-3.541,1.748c-1.476,0-2.65-0.577-3.531-1.726
		c-0.88-1.146-1.32-2.67-1.32-4.566C242.579,113.315,243.022,111.673,243.906,110.525 M239.64,115.311
		c0,2.657,0.718,4.79,2.155,6.401c1.44,1.612,3.317,2.418,5.634,2.418c1.538,0,2.9-0.369,4.084-1.106
		c1.188-0.738,2.097-1.768,2.735-3.091c0.637-1.321,0.958-2.813,0.958-4.479v-0.204c0-2.676-0.722-4.822-2.159-6.434
		c-1.437-1.612-3.321-2.417-5.651-2.417c-1.505,0-2.845,0.365-4.02,1.09c-1.175,0.729-2.091,1.761-2.751,3.098
		c-0.657,1.34-0.987,2.845-0.987,4.521V115.311z M223.695,103.286h5.625c1.508,0.032,2.692,0.459,3.557,1.284
		c0.864,0.822,1.295,1.919,1.295,3.291c0,1.446-0.431,2.551-1.295,3.317c-0.864,0.764-2.107,1.146-3.728,1.146h-5.453V103.286z
		 M229.115,114.806c2.603,0,4.602-0.602,5.997-1.809s2.094-2.926,2.094-5.159c0-2.12-0.716-3.818-2.143-5.104
		c-1.427-1.288-3.398-1.929-5.916-1.929h-8.486v23.007h3.033v-9.007H229.115z"/>
	<path fill="#009EE3" d="M115.44,42.063c-0.122-0.425-0.267-0.846-0.434-1.263c-0.336-0.835-0.763-1.657-1.277-2.461
		c-0.386-0.604-0.82-1.198-1.302-1.783c-0.643-0.779-1.368-1.541-2.171-2.282c-0.603-0.557-1.25-1.101-1.939-1.634
		c-0.689-0.533-1.42-1.053-2.192-1.561c-0.153-0.101-0.309-0.201-0.465-0.301c-0.573-0.365-1.337-0.115-1.584,0.517
		c-1.413,3.602-3.32,8.159-6.066,12.206c-0.359,0.529-0.548,1.154-0.547,1.793v0.01c0,7.206-6.573,13.571-16.617,17.405
		c-1.686,0.644-3.47,1.217-5.337,1.71c-0.002,0-0.004,0.001-0.005,0.001c-2.609,0.689-5.381,1.221-8.275,1.578
		c-0.002,0-0.004,0-0.007,0c-1.627,0.2-3.293,0.344-4.991,0.429c-1.176,0.059-2.366,0.09-3.57,0.09
		c-10.09,0-19.28-2.107-26.181-5.559c-0.591-0.295-1.282,0.145-1.267,0.805c0.018,0.845,0.088,1.698,0.194,2.507
		c0.28,2.146,1.905,3.87,4.028,4.289c5.978,1.181,12.495,1.92,19.344,2.124c1.283,0.038,2.576,0.06,3.881,0.06
		c0.535,0,1.068-0.004,1.6-0.011h0.002c2.983-0.036,5.908-0.175,8.761-0.406h0.001c1.507-0.123,2.993-0.272,4.457-0.446
		c24.428-2.902,42.42-12.805,42.42-24.578C115.9,44.205,115.744,43.124,115.44,42.063"/>
	<path fill="#009EE3" d="M19.128,48.056c0.482-0.831,0.729-1.777,0.728-2.739v-0.014c0-0.366,0.017-0.73,0.05-1.091
		c0.034-0.362,0.084-0.721,0.15-1.078c0.166-0.892,0.432-1.767,0.793-2.622c0.145-0.342,0.304-0.681,0.479-1.017
		c0.087-0.168,0.178-0.335,0.272-0.501c0.189-0.332,0.393-0.661,0.61-0.985c0.108-0.163,0.221-0.324,0.337-0.485
		c0.695-0.963,1.515-1.892,2.45-2.781c0.156-0.148,0.314-0.295,0.476-0.441c1.135-1.021,2.422-1.985,3.845-2.882
		c0.203-0.129,0.409-0.256,0.618-0.381c0.417-0.251,0.846-0.497,1.285-0.737c1.615-0.883,3.374-1.688,5.252-2.404
		c1.687-0.644,3.47-1.217,5.338-1.71c0.001,0,0.004-0.001,0.005-0.002c2.609-0.688,5.381-1.22,8.275-1.577
		c0.002,0,0.004-0.001,0.007-0.001c1.627-0.2,3.293-0.344,4.991-0.429c1.176-0.059,2.366-0.09,3.569-0.09
		c9.794,0,18.741,1.984,25.568,5.257c0.625,0.3,1.35-0.15,1.355-0.843c0.01-1.373-0.104-2.919-0.502-4.572
		c-0.188-0.781-0.806-1.388-1.592-1.556c-0.004-0.001-0.008-0.002-0.013-0.003C77.07,20.999,70,20.144,62.541,19.922
		c-1.283-0.039-2.577-0.06-3.882-0.06c-0.535,0-1.068,0.004-1.6,0.01c-0.001,0-0.002,0-0.003,0
		c-2.983,0.036-5.908,0.174-8.761,0.406c0,0-0.001,0-0.001,0c-1.507,0.123-2.993,0.272-4.457,0.446
		c-3.472,0.413-6.816,0.965-9.995,1.646c-0.834,0.179-1.657,0.366-2.468,0.562c-1.217,0.294-2.407,0.606-3.568,0.938
		c-0.774,0.221-1.536,0.449-2.284,0.686c-1.871,0.591-3.658,1.231-5.352,1.916c-0.678,0.274-1.341,0.555-1.988,0.842
		c-0.971,0.432-1.907,0.879-2.807,1.34c-0.6,0.308-1.183,0.622-1.75,0.942c-0.283,0.16-0.563,0.322-0.837,0.485
		c-0.55,0.326-1.082,0.659-1.596,0.998c-0.771,0.507-1.503,1.028-2.192,1.561c-0.689,0.532-1.336,1.077-1.939,1.634
		c-0.804,0.741-1.529,1.502-2.171,2.282c-0.481,0.584-0.916,1.179-1.302,1.782c-0.514,0.805-0.941,1.626-1.277,2.461
		c-0.167,0.417-0.313,0.838-0.434,1.263c-0.304,1.061-0.46,2.143-0.46,3.24c0,5.664,4.165,10.895,11.206,15.122
		c0.416,0.25,0.956,0.061,1.124-0.394C14.548,57.871,16.763,52.13,19.128,48.056"/>
	<path fill="#009EE3" d="M65.811,15.819c0.084-0.029,0.17-0.06,0.254-0.088c0.42-0.14,0.837-0.271,1.252-0.394
		c0.117-0.035,0.234-0.067,0.351-0.101c0.336-0.097,0.671-0.187,1.004-0.272c0.1-0.025,0.2-0.052,0.299-0.077
		c0.409-0.101,0.814-0.192,1.216-0.275c0.102-0.021,0.203-0.04,0.305-0.059c0.328-0.064,0.653-0.123,0.977-0.176
		c0.104-0.017,0.208-0.035,0.311-0.05c0.397-0.06,0.79-0.112,1.18-0.154c0.078-0.009,0.155-0.015,0.233-0.022
		c0.327-0.032,0.651-0.058,0.973-0.077c0.102-0.006,0.204-0.013,0.305-0.018c0.369-0.018,0.734-0.029,1.094-0.029
		c0.015,0,0.029,0,0.043,0c0.037,0,0.073,0.002,0.109,0.002c0.349,0.002,0.694,0.015,1.035,0.034
		c0.073,0.004,0.146,0.007,0.219,0.012c0.359,0.024,0.713,0.058,1.062,0.101c0.064,0.007,0.127,0.018,0.191,0.026
		c0.325,0.044,0.646,0.095,0.961,0.156c0.041,0.008,0.082,0.014,0.122,0.022c0.339,0.068,0.671,0.147,0.998,0.235
		c0.068,0.018,0.136,0.037,0.203,0.056c0.329,0.093,0.653,0.193,0.969,0.307c0.011,0.004,0.022,0.009,0.034,0.013
		c0.306,0.111,0.604,0.234,0.897,0.365c0.061,0.027,0.121,0.053,0.181,0.081c0.293,0.136,0.581,0.281,0.86,0.437
		c0.047,0.027,0.093,0.055,0.141,0.082c0.254,0.146,0.503,0.301,0.745,0.464c0.041,0.027,0.083,0.053,0.123,0.081
		c0.261,0.18,0.513,0.372,0.758,0.573c0.054,0.044,0.107,0.09,0.161,0.135c0.248,0.21,0.49,0.426,0.722,0.658
		c0.873,0.873,1.583,1.872,2.153,2.966c0.486,0.932,0.866,1.936,1.139,3.005c0.452,1.77,0.623,3.71,0.514,5.78
		c-0.046,0.87-0.14,1.763-0.282,2.675c-0.01,0.066-0.025,0.133-0.036,0.199c-0.138,0.849-0.312,1.711-0.53,2.589
		c-0.02,0.076-0.043,0.153-0.062,0.229c-1.315,5.139-3.984,10.714-7.849,16.163c-0.713,1.005-1.467,2.006-2.26,2.999
		c-0.396,0.496-0.803,0.991-1.219,1.483c-1.249,1.476-2.585,2.931-4.005,4.352l-0.003,0.003c-0.003,0.003-0.006,0.006-0.009,0.01
		c-0.263,0.263-0.013,0.705,0.348,0.614c1.124-0.285,2.55-0.666,4.035-1.093c1.765-0.508,3.349-1.511,4.557-2.895
		c0.006-0.007,0.013-0.014,0.019-0.021c0.313-0.357,0.622-0.716,0.927-1.074c1.835-2.152,3.555-4.317,5.153-6.481
		c0.532-0.721,1.052-1.442,1.557-2.162c1.362-1.941,2.621-3.875,3.778-5.791c0.54-0.893,1.058-1.782,1.551-2.666
		c0.608-1.09,1.183-2.173,1.721-3.246c0.694-1.384,1.327-2.751,1.898-4.097c0.286-0.673,0.556-1.34,0.81-2.001
		c0.127-0.331,0.25-0.66,0.37-0.987c0.056-0.153,0.107-0.304,0.162-0.456c0.177-0.5,0.348-0.998,0.506-1.489
		c0.108-0.337,0.211-0.671,0.311-1.004c0.185-0.619,0.355-1.23,0.508-1.834c0.236-0.929,0.436-1.84,0.598-2.731
		c0.107-0.595,0.198-1.18,0.272-1.756c0.074-0.576,0.13-1.142,0.17-1.699c0.039-0.556,0.061-1.103,0.066-1.639
		c0.004-0.536-0.008-1.061-0.039-1.575c-0.016-0.257-0.035-0.511-0.06-0.762c-0.048-0.502-0.114-0.994-0.199-1.472
		c-0.507-2.873-1.667-5.306-3.53-7.169c-0.159-0.159-0.322-0.313-0.489-0.461c-0.056-0.05-0.116-0.096-0.173-0.146
		c-0.112-0.096-0.224-0.193-0.34-0.285c-0.07-0.056-0.144-0.107-0.215-0.161c-0.107-0.081-0.213-0.163-0.324-0.24
		c-0.077-0.054-0.157-0.105-0.236-0.158c-0.107-0.072-0.214-0.144-0.325-0.212c-0.084-0.052-0.17-0.101-0.255-0.151
		c-0.109-0.064-0.217-0.128-0.329-0.19c-0.089-0.048-0.18-0.094-0.271-0.141c-0.111-0.057-0.223-0.115-0.336-0.169
		c-0.094-0.045-0.189-0.087-0.285-0.13c-0.114-0.051-0.228-0.102-0.344-0.15c-0.098-0.041-0.198-0.08-0.297-0.118
		c-0.117-0.046-0.234-0.091-0.354-0.134c-0.102-0.036-0.205-0.071-0.309-0.105c-0.12-0.041-0.241-0.08-0.363-0.117
		c-0.105-0.032-0.213-0.063-0.32-0.093c-0.123-0.035-0.247-0.068-0.372-0.101c-0.109-0.027-0.219-0.054-0.33-0.08
		c-0.126-0.03-0.254-0.058-0.383-0.084c-0.112-0.023-0.225-0.046-0.338-0.067c-0.13-0.024-0.262-0.047-0.395-0.069
		c-0.115-0.019-0.23-0.037-0.346-0.054c-0.134-0.019-0.269-0.037-0.405-0.054c-0.118-0.014-0.236-0.028-0.355-0.041
		c-0.137-0.014-0.276-0.027-0.415-0.038c-0.121-0.01-0.242-0.021-0.363-0.028c-0.141-0.01-0.284-0.017-0.426-0.023
		c-0.123-0.005-0.245-0.012-0.368-0.016c-0.146-0.004-0.293-0.006-0.441-0.008C88.518,1.001,88.402,1,88.286,1
		c-0.346,0.001-0.696,0.009-1.051,0.025c-0.074,0.003-0.149,0.008-0.223,0.012c-0.301,0.016-0.606,0.037-0.913,0.064
		c-0.087,0.007-0.174,0.014-0.261,0.022c-0.366,0.034-0.735,0.075-1.109,0.124c-0.069,0.009-0.14,0.02-0.21,0.029
		c-0.321,0.044-0.646,0.094-0.973,0.149c-0.095,0.016-0.189,0.031-0.284,0.048c-0.385,0.067-0.772,0.141-1.165,0.222
		c-0.061,0.013-0.122,0.027-0.182,0.04c-0.344,0.074-0.691,0.153-1.041,0.237c-0.102,0.024-0.204,0.049-0.307,0.074
		c-0.402,0.1-0.807,0.205-1.215,0.319c-0.045,0.013-0.09,0.026-0.135,0.039c-0.372,0.104-0.747,0.216-1.124,0.333
		c-0.107,0.033-0.215,0.067-0.324,0.101c-0.418,0.132-0.838,0.269-1.263,0.415c-0.021,0.007-0.042,0.015-0.064,0.022
		c-0.406,0.14-0.815,0.288-1.227,0.441c-0.111,0.042-0.224,0.083-0.335,0.126c-0.421,0.159-0.843,0.322-1.269,0.494
		c-0.013,0.005-0.026,0.01-0.039,0.015c-0.437,0.177-0.876,0.362-1.317,0.552c-0.115,0.049-0.23,0.1-0.346,0.15
		c-0.405,0.177-0.813,0.358-1.221,0.547c-0.042,0.019-0.084,0.038-0.127,0.057c-0.444,0.206-0.893,0.42-1.342,0.639
		c-0.114,0.056-0.23,0.113-0.346,0.17c-0.396,0.195-0.794,0.396-1.194,0.602c-0.064,0.033-0.129,0.065-0.193,0.099
		c-0.452,0.234-0.905,0.476-1.36,0.723c-0.115,0.063-0.23,0.126-0.346,0.189c-0.392,0.215-0.786,0.435-1.181,0.659
		c-0.079,0.045-0.158,0.089-0.238,0.135c-0.458,0.263-0.918,0.532-1.378,0.807c-0.112,0.066-0.224,0.135-0.335,0.202
		c-0.392,0.236-0.783,0.475-1.176,0.719c-0.092,0.058-0.184,0.114-0.276,0.172c-0.463,0.29-0.927,0.586-1.391,0.889
		c-0.106,0.069-0.213,0.14-0.32,0.21c-0.391,0.256-0.782,0.517-1.174,0.782c-0.103,0.07-0.206,0.138-0.309,0.208
		c-0.466,0.317-0.932,0.64-1.398,0.968c-0.099,0.07-0.198,0.142-0.298,0.212c-0.393,0.279-0.788,0.563-1.182,0.851
		c-0.11,0.081-0.22,0.16-0.331,0.241c-0.467,0.343-0.935,0.692-1.402,1.047c-0.011,0.009-0.022,0.018-0.034,0.026
		c4.247-0.035,9.748-0.143,11.883-0.188C65.432,15.95,65.622,15.884,65.811,15.819"/>
	<path fill="#009EE3" d="M53.364,74.479c-0.638,0.001-1.271,0.108-1.875,0.314l-0.009,0.003c-0.072,0.024-0.145,0.051-0.218,0.075
		c-0.426,0.143-0.85,0.275-1.271,0.4c-0.108,0.032-0.215,0.063-0.322,0.093c-0.35,0.101-0.698,0.195-1.043,0.283
		c-0.089,0.022-0.18,0.047-0.27,0.069c-0.415,0.102-0.825,0.195-1.234,0.279c-0.093,0.02-0.186,0.036-0.279,0.054
		c-0.338,0.066-0.673,0.127-1.005,0.181c-0.098,0.016-0.196,0.032-0.292,0.047c-0.401,0.062-0.797,0.114-1.19,0.156
		c-0.073,0.008-0.144,0.013-0.216,0.021c-0.333,0.033-0.664,0.059-0.991,0.078c-0.099,0.006-0.198,0.012-0.296,0.018
		c-0.369,0.017-0.736,0.029-1.097,0.029c-0.015,0-0.029-0.001-0.044-0.001c-0.036,0-0.071-0.002-0.108-0.002
		c-0.349-0.003-0.693-0.015-1.034-0.033c-0.074-0.005-0.148-0.008-0.222-0.014c-0.357-0.023-0.71-0.057-1.058-0.1
		c-0.066-0.008-0.131-0.019-0.197-0.027c-0.322-0.043-0.639-0.095-0.952-0.154c-0.043-0.008-0.087-0.015-0.13-0.023
		c-0.337-0.067-0.667-0.146-0.992-0.233c-0.071-0.019-0.141-0.038-0.21-0.059c-0.327-0.092-0.65-0.191-0.964-0.305
		c-0.014-0.005-0.028-0.011-0.042-0.016c-0.303-0.11-0.598-0.232-0.889-0.361c-0.062-0.027-0.124-0.055-0.185-0.083
		c-0.292-0.135-0.579-0.279-0.857-0.435c-0.048-0.026-0.095-0.056-0.144-0.084c-0.253-0.146-0.5-0.299-0.742-0.462
		c-0.042-0.027-0.083-0.054-0.125-0.082c-0.26-0.181-0.512-0.372-0.757-0.573c-0.054-0.044-0.107-0.089-0.161-0.134
		c-0.248-0.21-0.49-0.427-0.722-0.658c-0.873-0.873-1.583-1.871-2.153-2.965c-0.486-0.933-0.866-1.938-1.139-3.006
		c-0.071-0.281-0.143-0.562-0.2-0.852c-0.152-0.767-0.253-1.563-0.305-2.386c-0.052-0.822-0.054-1.671-0.008-2.542
		c0.046-0.871,0.14-1.764,0.282-2.675c0.01-0.066,0.025-0.133,0.035-0.199c0.138-0.848,0.312-1.711,0.53-2.589
		c0.019-0.076,0.042-0.153,0.062-0.228c0.224-0.873,0.481-1.756,0.782-2.651c0.49-1.459,1.082-2.944,1.772-4.443
		c0.46-1,0.964-2.005,1.511-3.014c0.546-1.008,1.136-2.02,1.767-3.03c0.631-1.01,1.304-2.02,2.017-3.025
		c0.713-1.005,1.467-2.006,2.26-2.999c1.586-1.986,3.331-3.94,5.225-5.834l0.006-0.006c0.174-0.174,0.009-0.469-0.231-0.41
		c-0.665,0.164-1.38,0.348-2.122,0.553c-3.324,0.917-6.292,2.825-8.497,5.476c-3.682,4.426-6.873,8.9-9.517,13.278
		c-0.539,0.893-1.057,1.782-1.55,2.665c-0.02,0.035-0.041,0.07-0.06,0.105c-0.392,0.704-0.769,1.404-1.13,2.1
		s-0.708,1.388-1.04,2.076c-0.332,0.688-0.648,1.371-0.95,2.049c-0.301,0.678-0.586,1.351-0.856,2.019
		c-0.271,0.667-0.524,1.328-0.763,1.983c-0.056,0.153-0.107,0.304-0.161,0.457c-0.298,0.842-0.573,1.674-0.818,2.493
		c-0.563,1.887-0.984,3.709-1.254,5.45c-0.091,0.586-0.165,1.162-0.222,1.729s-0.096,1.123-0.118,1.669
		c-0.011,0.273-0.018,0.544-0.02,0.813c-0.002,0.268,0,0.533,0.006,0.796c0.013,0.524,0.043,1.038,0.092,1.541
		c0.073,0.754,0.186,1.481,0.34,2.182c0.308,1.398,0.78,2.686,1.423,3.844c0.321,0.578,0.686,1.125,1.093,1.638
		c0.271,0.342,0.563,0.668,0.873,0.979c0.003,0.003,0.007,0.007,0.011,0.01c0.155,0.155,0.314,0.306,0.478,0.451
		c0.057,0.051,0.118,0.099,0.176,0.147c0.112,0.096,0.223,0.191,0.338,0.283c0.07,0.056,0.144,0.107,0.215,0.161
		c0.107,0.081,0.213,0.162,0.323,0.239c0.078,0.055,0.158,0.105,0.238,0.158c0.107,0.072,0.213,0.144,0.323,0.212
		c0.084,0.053,0.171,0.102,0.257,0.152c0.108,0.063,0.216,0.128,0.327,0.188c0.09,0.049,0.182,0.095,0.272,0.142
		c0.111,0.057,0.222,0.114,0.334,0.168c0.094,0.046,0.19,0.088,0.286,0.131c0.114,0.052,0.228,0.103,0.343,0.151
		c0.098,0.04,0.198,0.079,0.298,0.118c0.117,0.045,0.234,0.09,0.353,0.133c0.103,0.037,0.206,0.071,0.309,0.105
		c0.12,0.04,0.241,0.08,0.362,0.117c0.105,0.032,0.213,0.063,0.32,0.093c0.124,0.035,0.248,0.068,0.373,0.101
		c0.109,0.028,0.219,0.055,0.33,0.08c0.126,0.029,0.254,0.058,0.383,0.085c0.112,0.023,0.225,0.045,0.338,0.067
		c0.13,0.023,0.262,0.047,0.394,0.068c0.115,0.019,0.231,0.037,0.348,0.054c0.133,0.02,0.268,0.037,0.403,0.054
		c0.118,0.015,0.237,0.029,0.356,0.041c0.137,0.015,0.275,0.026,0.414,0.038c0.121,0.011,0.242,0.021,0.364,0.029
		c0.141,0.009,0.282,0.016,0.425,0.022c0.123,0.006,0.246,0.012,0.371,0.016c0.145,0.004,0.291,0.006,0.437,0.007
		c0.117,0.002,0.234,0.004,0.353,0.003c0.345-0.001,0.695-0.009,1.049-0.024c0.075-0.004,0.151-0.009,0.226-0.013
		c0.301-0.016,0.604-0.037,0.91-0.063c0.088-0.008,0.175-0.014,0.264-0.022c0.365-0.034,0.734-0.075,1.108-0.124
		c0.069-0.01,0.14-0.021,0.209-0.03c0.321-0.044,0.645-0.094,0.972-0.148c0.095-0.016,0.19-0.031,0.287-0.048
		c0.384-0.067,0.771-0.141,1.163-0.223c0.061-0.012,0.123-0.026,0.184-0.04c0.344-0.073,0.69-0.152,1.039-0.235
		c0.103-0.025,0.206-0.05,0.309-0.075c0.401-0.1,0.805-0.205,1.213-0.318c0.046-0.014,0.094-0.027,0.14-0.04
		c0.371-0.104,0.745-0.216,1.121-0.332c0.107-0.033,0.215-0.066,0.322-0.101c0.418-0.132,0.838-0.269,1.262-0.414
		c0.024-0.008,0.049-0.018,0.073-0.025c0.404-0.14,0.81-0.286,1.219-0.438c0.112-0.041,0.225-0.084,0.337-0.126
		c0.421-0.159,0.843-0.322,1.27-0.494c0.012-0.006,0.024-0.01,0.037-0.015c0.437-0.177,0.877-0.363,1.319-0.553
		c0.114-0.05,0.229-0.1,0.342-0.149c0.406-0.177,0.813-0.358,1.221-0.547c0.043-0.02,0.085-0.038,0.128-0.059
		c0.445-0.205,0.892-0.42,1.341-0.638c0.115-0.057,0.231-0.113,0.346-0.171c0.397-0.195,0.796-0.396,1.195-0.602
		c0.064-0.034,0.127-0.065,0.192-0.099c0.452-0.234,0.905-0.476,1.36-0.723c0.115-0.063,0.23-0.126,0.345-0.189
		c0.392-0.214,0.784-0.434,1.177-0.657c0.081-0.046,0.162-0.091,0.243-0.138c0.458-0.262,0.917-0.531,1.376-0.805
		c0.112-0.067,0.225-0.136,0.337-0.203c0.39-0.235,0.78-0.474,1.171-0.717c0.094-0.059,0.187-0.116,0.281-0.175
		c0.461-0.289,0.925-0.586,1.389-0.888c0.107-0.069,0.214-0.14,0.321-0.21c0.391-0.257,0.782-0.517,1.174-0.782
		c0.103-0.068,0.206-0.138,0.309-0.208c0.465-0.316,0.93-0.639,1.396-0.967c0.102-0.071,0.203-0.144,0.304-0.216
		c0.392-0.277,0.784-0.56,1.176-0.846c0.111-0.081,0.222-0.161,0.333-0.243c0.153-0.112,0.36-0.266,0.567-0.421
		c0.272-0.204,0.125-0.637-0.214-0.632C59.624,74.465,55.289,74.476,53.364,74.479"/>
	<path fill="#27348B" d="M135.786,64.7l3.67-5.574c0.604-0.918,1.847-1.177,2.756-0.558c5.695,3.876,11.737,5.855,17.06,5.855
		c5.615,0,8.855-2.375,8.855-6.155v-0.216c0-4.428-6.047-5.939-12.743-7.991c-8.423-2.376-17.818-5.832-17.818-16.738v-0.216
		c0-10.799,8.963-17.386,20.302-17.386c6.49,0,13.517,2.059,19.287,5.444c0.937,0.549,1.271,1.738,0.742,2.686l-3.28,5.877
		c-0.529,0.947-1.726,1.302-2.675,0.777c-4.992-2.763-10.13-4.417-14.398-4.417c-5.075,0-7.991,2.376-7.991,5.724v0.216
		c0,4.103,6.155,5.831,12.851,7.991c8.315,2.592,17.71,6.372,17.71,16.63v0.215c0,11.987-9.288,17.926-21.166,17.926
		c-7.535,0-15.818-2.522-22.674-7.396C135.411,66.78,135.203,65.584,135.786,64.7"/>
	<path fill="#27348B" d="M190.263,45.525V45.31c0-16.306,12.959-29.805,30.453-29.805s30.344,13.283,30.344,29.589v0.216
		c0,16.198-12.958,29.697-30.56,29.697C203.114,75.006,190.263,61.724,190.263,45.525 M237.994,45.525V45.31
		c0-10.043-7.235-18.358-17.494-18.358c-10.476,0-17.171,8.207-17.171,18.142v0.216c0,9.936,7.235,18.358,17.387,18.358
		C231.299,63.667,237.994,55.353,237.994,45.525"/>
	<path fill="#27348B" d="M266.324,16.692h9.101c1.095,0,1.983,0.888,1.983,1.983v6.872c3.671-5.399,8.963-10.043,17.818-10.043
		c12.85,0,20.301,8.639,20.301,21.922v34.302c0,1.095-0.887,1.982-1.982,1.982h-9.1c-1.096,0-1.984-0.888-1.984-1.982V41.314
		c0-8.855-4.428-13.931-12.203-13.931c-7.559,0-12.85,5.292-12.85,14.146v30.198c0,1.095-0.888,1.982-1.983,1.982h-9.101
		c-1.095,0-1.983-0.888-1.983-1.982V18.675C264.341,17.581,265.229,16.692,266.324,16.692"/>
	<path fill="#27348B" d="M328.16,45.417V43.76c0-15.587,12.625-28.413,28.213-28.254c17.908,0.183,26.971,14.359,26.971,30.667
		c0,0.606-0.029,1.212-0.07,1.833c-0.07,1.037-0.939,1.839-1.979,1.839h-40.068c1.404,9.287,7.992,14.47,16.414,14.47
		c5.775,0,10.041-1.952,14.166-5.613c0.748-0.663,1.877-0.658,2.625,0.005L379.27,63c0.84,0.745,0.891,2.036,0.121,2.854
		c-5.273,5.6-12.344,9.153-21.965,9.153C340.902,75.006,328.16,63.02,328.16,45.417 M370.385,41.206
		c-0.863-8.423-5.832-15.011-14.471-15.011c-7.992,0-13.607,6.156-14.795,15.011H370.385z"/>
	<path fill="#27348B" d="M398.498,16.692h9.1c1.096,0,1.984,0.888,1.984,1.983v7.521c4.211-5.939,10.15-10.691,19.33-10.691
		c13.498,0,26.564,10.691,26.564,29.589v0.216c0,18.898-12.959,29.589-26.564,29.589c-9.396,0-15.336-4.752-19.33-10.043v24.15
		c0,1.096-0.889,1.983-1.984,1.983h-9.1c-1.096,0-1.982-0.888-1.982-1.983v-70.33C396.516,17.58,397.402,16.692,398.498,16.692
		 M442.193,45.31v-0.216c0-11.015-7.451-18.25-16.305-18.25c-8.855,0-16.631,7.343-16.631,18.25v0.216
		c0,11.015,7.775,18.25,16.631,18.25C434.852,63.56,442.193,56.541,442.193,45.31"/>
	<path fill="#27348B" d="M503.746,71.728v-5.037c-3.889,4.643-9.828,8.208-18.467,8.208c-10.799,0-20.303-6.156-20.303-17.603V57.08
		c0-12.635,9.828-18.682,23.109-18.682c6.912,0,11.34,0.972,15.768,2.375v-1.08c0-7.883-4.967-12.203-14.039-12.203
		c-5.582,0-9.922,1.079-14.398,2.798c-1.047,0.402-2.219-0.151-2.58-1.214l-2.303-6.767c-0.334-0.982,0.143-2.061,1.1-2.464
		c5.707-2.406,11.564-4.016,20.018-4.016c16.846,0,25.053,8.854,25.053,24.081v31.818c0,1.095-0.887,1.982-1.982,1.982h-8.992
		C504.633,73.71,503.746,72.823,503.746,71.728 M504.068,49.845c-3.346-1.296-7.99-2.269-13.064-2.269
		c-8.209,0-13.068,3.348-13.068,8.856v0.215c0,5.4,4.859,8.424,11.016,8.424c8.639,0,15.117-4.86,15.117-11.987V49.845z"/>
	<path fill="#27348B" d="M534.234,16.692h9.102c1.096,0,1.982,0.888,1.982,1.983v10.868c3.314-7.936,9.246-13.535,18.141-13.931
		c1.121-0.05,2.053,0.861,2.053,1.983v9.922c0,1.044-0.811,1.909-1.854,1.976c-11.244,0.724-18.34,8.166-18.34,22.511v19.723
		c0,1.095-0.887,1.982-1.982,1.982h-9.102c-1.094,0-1.982-0.888-1.982-1.982V18.675C532.252,17.581,533.141,16.692,534.234,16.692"
		/>
</g>
</svg>
