<?xml version="1.0" encoding="UTF-8"?><svg id="Layer_1" xmlns="http://www.w3.org/2000/svg" viewBox="0 0 306.2758 59.6016"><rect x="113.2183" width=".9004" height="59.4199" style="fill:#002349;"/><polygon points="288.5786 9.0088 284.4868 18.916 285.4477 18.916 293.2241 9.0088 288.5786 9.0088" style="fill:#002349;"/><path d="m143.851,33.0195c-2.6201,0-4.9326-.6543-6.6348-1.5263l-1.7001,1.5263h-.7862l-.5244-9.6885.915-.0869c2.751,6.2852,5.9805,8.292,8.9922,8.292,3.1436,0,4.9766-2.0508,4.9766-4.8008,0-2.6191-1.0049-3.8847-5.1074-5.5869-1.3955-.5674-3.0117-1.1338-4.3643-1.789-3.0556-1.5284-4.6709-3.9287-4.6709-7.1143,0-5.1953,4.4961-8.3379,8.9043-8.3379,2.1836,0,3.666.6113,5.1074,1.4405l1.7022-1.4834h.7412l.7432,8.5546-.8741.1309c-2.3994-4.8008-4.9746-7.1582-7.8115-7.1582-2.4892,0-4.1484,1.6582-4.1484,4.2334,0,2.0518.876,3.624,3.9717,4.9766,1.5283.6982,3.3203,1.3095,4.9345,2.0947,3.5332,1.7031,5.1934,3.9277,5.1934,7.1582,0,5.7598-4.8447,9.165-9.5596,9.165" style="fill:#002349;"/><path d="m166.9418,13.2041c-3.0556,0-4.9316,3.4043-4.9316,9.3848,0,5.8925,2.0078,9.2509,5.1064,9.2509,3.1866,0,4.9327-3.4013,4.9327-9.3818,0-5.8916-1.877-9.2539-5.1075-9.2539m-.1748,19.8613c-6.6338,0-9.9062-4.7578-9.9062-10.5644,0-5.3692,3.751-10.5186,10.4726-10.5186,6.6348,0,9.8223,4.7139,9.8223,10.4756,0,5.4121-3.667,10.6074-10.3887,10.6074" style="fill:#002349;"/><path d="m186.6264,32.8887c-3.4473,0-4.5381-1.7012-4.5381-4.8438v-13.0517h-3.2295v-.6094l4.0157-3.1875,3.1855-4.1465h.6543v5.6738h6.6357v2.2696h-6.6357v11.3066c0,1.7451.2617,2.792,1.1348,3.4033.7441.5244,1.747.7002,3.1875.7002.6982,0,1.5722-.0449,2.4013-.0898l.043.6123c-1.7031,1.0449-4.4961,1.9629-6.8545,1.9629" style="fill:#002349;"/><path d="m207.0113,15.2998c-1.6582,0-2.9229.3066-4.5391,1.0918v14.4473l2.4434.916v.6103h-9.8643v-.6103l2.75-.916V4.4756l-3.0117-1.9649v-.4365L202.2983.0225l.1738.1318v15.2764l.1758.0869c2.5742-2.4444,4.9307-3.5352,7.2881-3.5352,3.9277,0,5.5879,2.9688,5.5879,6.0674v12.7891l2.7509.916v.6103h-9.8671v-.6103l2.4472-.916v-11c0-2.837-1.1367-4.5391-3.8437-4.5391" style="fill:#002349;"/><path d="m233.4213,19.5332c-.1738-4.1025-1.3535-6.3291-3.9287-6.3291-2.5322,0-4.4951,2.6621-4.7139,6.7227l8.6426-.3936h0Zm-8.6845,1.4844c0,5.5439,1.5693,9.166,6.5029,9.166,2.1816,0,3.9726-.4365,6.5908-1.3975l.2607.5244c-2.6611,2.3135-5.6289,3.7549-8.4238,3.7549-5.9785,0-9.9101-4.1035-9.9101-10.1709,0-6.2412,4.7168-10.9121,10.04-10.9121,5.7647,0,8.5557,3.8838,8.5117,9.0352h-13.5722Z" style="fill:#002349;"/><path d="m250.6616,15.0381c-1.3077,0-2.3995.2617-3.4463.6982v13.835c1.3506,1.3984,3.0986,2.0078,4.7568,2.0078,2.5752,0,4.7139-2.3125,4.7139-8.4668,0-5.4121-2.3125-8.0742-6.0244-8.0742m-.7403,18.0273c-2.2676,0-5.2822-.5273-7.3769-1.1357V4.4756l-3.0547-1.9649v-.4365L247.0395.0234l.1758.1309v14.6221l.1767.0879c1.5254-1.5284,3.6211-2.8819,6.3272-2.8819,4.1465,0,7.8994,3.7979,7.8994,10.0381s-4.7129,11.0449-11.6973,11.0449" style="fill:#002349;"/><path d="m273.5786,33.7168c-2.1827,5.3701-4.2315,7.7266-6.9395,7.7266-2.3135,0-3.4033-1.3536-3.4033-2.75,0-1.3536,1.2226-2.4864,2.6172-2.4864,1.4853,0,2.3574.7832,3.4062,2.0928.8262-.915,1.832-2.4863,2.4004-3.7119l.7412-1.6543-7.7246-18.6377-2.6641-1.0469v-.5683h10.6495v.5683l-2.793,1.0469,4.7139,12.7891h.2177l4.2784-12.4834-2.5303-1.3526v-.5683h7.5058v.5683l-2.8369,1.4395-7.6386,19.0283h0Z" style="fill:#002349;"/><path d="m298.4633,33.0654c-2.3994,0-4.4531-.3965-6.4609-1.1806l-.043-5.7608.874-.0859c2.3555,4.1455,4.1465,5.7168,6.459,5.7168,2.0518,0,3.3174-1.3086,3.3174-3.3164,0-2.2705-2.3135-3.1426-4.8008-4.1475-2.75-1.1787-5.6748-2.4883-5.6748-6.1103,0-3.4483,3.0547-6.1983,7.5078-6.1983,1.7022,0,4.1016.3496,5.2803.7861l.1309,5.1934-.8282.2188c-2.1386-3.5352-3.5351-4.8887-5.5449-4.8887-1.831,0-2.9668,1.2226-2.9668,2.793,0,2.2695,2.3565,3.1875,4.8428,4.1914,2.7529,1.1347,5.7197,2.4433,5.7197,6.1543,0,4.0586-3.5791,6.6347-7.8125,6.6347" style="fill:#002349;"/><path d="m134.7621,59.4111h.9756v-10.1582h-.9756v10.1582h0Zm4.4874,0h.9218v-8.6347h.0274l5.7783,8.6347h.8652v-10.1582h-.9209v8.3731h-.0273l-5.6016-8.3731h-1.0429v10.1582h0Zm13.0683,0h.9736v-9.2539h3.2813v-.9043h-7.5361v.9043h3.2812v9.2539h0Zm6.4502,0h6.3545v-.8935h-5.3799v-4.0352h3.8027v-.8779h-3.8027v-3.4473h5.0928v-.9043h-6.0674v10.1582h0Zm8.9932,0h.959v-4.5595h2.5244l2.4853,4.5595h1.0987l-2.5665-4.6689c1.4678-.2735,2.4278-1.0967,2.4278-2.7442,0-1.7841-1.2637-2.7451-3.5274-2.7451h-3.4013v10.1582h0Zm.959-5.4238v-3.8438h2.3603c1.7022,0,2.6357.4961,2.6357,1.8965,0,1.4688-.9472,1.9473-2.621,1.9473h-2.375Zm9.3466,5.4238h.9209v-8.6347h.0274l5.7783,8.6347h.8643v-10.1582h-.9209v8.3731h-.0274l-5.5976-8.3731h-1.045v10.1582h0Zm10.2129,0h.9483l1.083-3.1308h4.1181l1.083,3.1308h1.0176l-3.5976-10.1992h-1.0567l-3.5957,10.1992h0Zm2.333-3.9951l1.7442-5.0508h.0263l1.7432,5.0508h-3.5137Zm9.8282,3.9951h.9746v-9.2539h3.2812v-.9043h-7.5381v.9043h3.2823v9.2539h0Zm6.5878,0h.9737v-10.1582h-.9737v10.1582h0Zm8.1807.1905c2.4854,0,4.2822-2.085,4.2822-5.2696s-1.7968-5.2705-4.2822-5.2705-4.2822,2.0869-4.2822,5.2705,1.7978,5.2696,4.2822,5.2696h0Zm0-.878c-1.9219,0-3.3086-1.6328-3.3086-4.3916s1.3867-4.3808,3.3086-4.3808,3.3067,1.6211,3.3067,4.3808-1.3848,4.3916-3.3067,4.3916h0Zm7.3994.6875h.919v-8.6347h.0293l5.7754,8.6347h.8652v-10.1582h-.9199v8.3731h-.0274l-5.5986-8.3731h-1.043v10.1582h0Zm10.2266,0h.9453l1.085-3.1308h4.1162l1.084,3.1308h1.0166l-3.5957-10.1992h-1.0567l-3.5947,10.1992h0Zm2.331-3.9951l1.7442-5.0508h.0293l1.7412,5.0508h-3.5147Zm8.6202,3.9951h5.9433v-.8935h-4.9687v-9.2647h-.9746v10.1582h0Zm11.7627,0h.9599v-4.5595h2.5264l2.4844,4.5595h1.0957l-2.5645-4.6689c1.4688-.2735,2.4287-1.0967,2.4287-2.7442,0-1.7841-1.2607-2.7451-3.5263-2.7451h-3.4043v10.1582h0Zm.9599-5.4238v-3.8438h2.3613c1.7032,0,2.6358.4961,2.6358,1.8965,0,1.4688-.9483,1.9473-2.6211,1.9473h-2.376Zm9.0733,5.4238h6.3564v-.8935h-5.3818v-4.0352h3.8007v-.8779h-3.8007v-3.4473h5.0927v-.9043h-6.0673v10.1582h0Zm7.6045,0h.9462l1.086-3.1308h4.1172l1.0839,3.1308h1.0157l-3.5957-10.1992h-1.0576l-3.5957,10.1992h0Zm2.3339-3.9951l1.7432-5.0508h.0273l1.7422,5.0508h-3.5127Zm8.3731,3.9951h5.9414v-.8935h-4.9678v-9.2647h-.9736v10.1582h0Zm8.6601,0h.9737v-9.2539h3.2812v-.9043h-7.5351v.9043h3.2802v9.2539h0Zm8.7705,0h.9747v-4.4756l3.4179-5.6826h-1.0449l-2.8398,4.8467-2.8555-4.8467h-1.0557l3.4033,5.6826v4.4756h0Z" style="fill:#002349;"/><path d="m0,11.5605h7.1221c9.1787,0,14.0156,4.7607,14.0156,14.0537s-4.9512,14.1299-14.0156,14.1299H0V11.5605Zm7.541,25.7461c6.9697,0,10.8926-3.542,10.8926-11.6924,0-7.96-3.9609-11.54-10.9688-11.54H2.7041v23.2324h4.8369Z" style="fill:#002349;"/><path d="m25.9863,34.1836v-14.5107h2.6279v14.0537c0,2.8184,1.2188,4.1895,3.999,4.1895,2.5518,0,4.7227-1.3711,6.9697-3.5039v-14.7393h2.666v20.0713h-2.666v-3.1611c-1.9424,1.9043-4.4941,3.5801-7.6172,3.5801-3.999,0-5.9795-2.2471-5.9795-5.9795Z" style="fill:#002349;"/><path d="m50.3809,37.0019v2.7422h-2.6279V11.5605h2.6279v11.0449c1.5996-1.79,3.6943-3.3135,6.7031-3.3135,4.6084,0,8.2646,3.3896,8.2646,10.3975s-3.6943,10.3975-8.4932,10.3975c-2.5898,0-4.6846-1.2568-6.4746-3.085Zm12.3398-7.2744c0-5.5605-2.7422-8.1885-6.0938-8.1885-2.4756,0-4.3418,1.2949-6.2461,3.3135v9.75c1.9805,2.0947,3.9229,3.2754,6.2461,3.2754,3.542,0,6.0938-2.4756,6.0938-8.1504Z" style="fill:#002349;"/><path d="m68.5557,35.0596c0-3.9609,3.3896-6.8555,13.5967-8.417v-1.0283c0-2.7803-1.4473-4.1133-4.0752-4.1133-3.1611,0-5.4082,1.333-7.5029,3.1611l-1.4092-1.6377c2.3994-2.209,5.1797-3.7324,9.1406-3.7324,4.4941,0,6.4365,2.3994,6.4365,6.3984v9.1025c0,2.4375.1523,3.9229.5713,4.9512h-2.7041c-.2666-.8379-.457-1.7139-.457-2.8564-2.3232,2.0947-4.9131,3.1992-7.9219,3.1992-3.5801,0-5.6748-1.9043-5.6748-5.0273Zm13.5967-.3047v-6.2461c-8.6074,1.4473-11.0068,3.5801-11.0068,6.208,0,2.0947,1.4092,3.1992,3.6562,3.1992,2.8184,0,5.2939-1.1807,7.3506-3.1611Z" style="fill:#002349;"/><path d="m90.1895,12.208h2.7803v2.8184h-2.7803v-2.8184Zm.0762,7.4648h2.6279v20.0713h-2.6279v-20.0713Z" style="fill:#002349;"/></svg>