<svg xmlns="http://www.w3.org/2000/svg" xmlns:xlink="http://www.w3.org/1999/xlink" id="Layer_2_00000181777071808564540700000009673905987520977548_" x="0px" y="0px" viewBox="0 0 460.4 95.8" style="enable-background:new 0 0 460.4 95.8;" xml:space="preserve"><style type="text/css">	.st0{fill:#7CC142;}	.st1{fill:#455660;}</style><g>	<path class="st0" d="M130.4,27.1l-4.1-1.9c-7.1-3.3-12.4-6.3-12.4-12.6c0-4.9,3.5-9.9,11.3-9.9c5.5,0,11.4,2.8,15.9,7.4l0.8,0.9   l1.8-6.2l-0.5-0.3C139.4,2.3,132.6,0,126.1,0c-11.5,0-19.6,6.8-19.6,16.5c0,10.6,9.7,15,15.5,17.7l4.1,1.8   c6.7,3.1,12.8,6.5,12.8,13.6c0,6.5-5.2,11-12.7,11c-6.6,0-14.1-3.4-17.9-8l-0.8-1l-2,7l0.5,0.3c3.6,1.8,12,4.4,19.5,4.4   c12.2,0,20.8-7.4,20.8-18C146.2,34.5,137.4,30.4,130.4,27.1z"></path>	<path class="st0" d="M189.3,0c-19.1,0-32.4,13.2-32.4,32.2c0,18.3,12.9,31,31.3,31c19.1,0,32.4-13.2,32.4-32.2   C220.6,12.8,207.7,0,189.3,0z M188.6,2.7c12.6,0,21.4,12,21.4,29.3c0,17.4-8.2,28.6-20.9,28.6c-12.9,0-21.6-11.8-21.6-29.3   C167.5,13.9,175.8,2.7,188.6,2.7z"></path>	<path class="st0" d="M275.5,1.8c1.1,6.5,1.6,14.5,1.6,26.1v13.4c0,11.9-5.5,18.2-15.8,18.2c-10.4,0-15.7-6.3-15.7-18.6V1h-9.7v40   c0,14.5,7.7,22.2,22.4,22.2c14.5,0,21.8-7.5,21.8-22.4v-13c0-10.9,0.5-19.2,1.6-26.1l0.1-0.8h-6.5L275.5,1.8z"></path>	<path class="st0" d="M340.9,16.8C340.9,6.3,332.5,1,316,1h-15.4v61.3h9.7V35.2h4.8c2.1,0,2.8,0.3,3.8,1.5l24.6,27.4h1.5V52.7   l-17.9-19.9C336.3,29.3,340.9,24.1,340.9,16.8z M317.2,32.5c-1.5,0-4.9-0.1-6.9-0.4V3.7h5.3c10,0,15.5,4.9,15.5,13.7   C331,24.9,326.3,32.5,317.2,32.5z"></path>	<path class="st0" d="M407.5,47.3c-6.2,9.5-15,11-19.8,11c-13.5,0-22.5-11.3-22.5-28.2c0-16.1,8.3-27.4,20.1-27.4   c7.1,0,13.7,4.3,18.2,11.7l0.4,0.7l5.2-4.7l-0.4-0.5c-5.4-6.2-14-9.9-23-9.9c-18.3,0-31.1,13.2-31.1,32.1   c0,18.3,12.1,31.1,29.4,31.1c10.8,0,19.7-5.1,25.6-14.6L410,48l-2.1-1.3L407.5,47.3z"></path>	<path class="st0" d="M459.5,55.4h-0.4c-9.3,3.5-18.7,4-23.5,4h-4.1V31.8h3.1c7.8,0,14.1,0.7,17,1.9l1.1,0.1V28l-0.2-0.7h-0.7   l-0.3,0.1c-1.7,0.7-6.1,1.6-17,1.6h-3.1V3.9h3.9c7.5,0,14.9,1.2,22.2,3.7h1.2l-1.2-6.5h-35.7v61.3h36.7l1.9-6.9L459.5,55.4   L459.5,55.4z"></path></g><g>	<path class="st1" d="M114.3,74.4h2.3l8.9,20.9h-2.9l-2.1-5.1h-10.4l-2.2,5.1h-2.8L114.3,74.4z M115.4,77.6L115.4,77.6L111,87.9h8.5   L115.4,77.6z"></path>	<path class="st1" d="M156.2,74.4h8c0.7,0,1.4,0.1,2.2,0.2c0.8,0.2,1.5,0.4,2.3,0.8c0.8,0.3,1.5,0.8,2.2,1.3c0.7,0.6,1.3,1.2,1.8,2   s1,1.7,1.3,2.7c0.3,1,0.5,2.2,0.5,3.4c0,1.3-0.2,2.4-0.5,3.4c-0.3,1-0.7,1.9-1.3,2.7c-0.5,0.8-1.1,1.4-1.8,2   c-0.7,0.6-1.4,1-2.2,1.3c-0.8,0.3-1.5,0.6-2.3,0.8c-0.8,0.2-1.5,0.2-2.2,0.2h-8V74.4z M158.7,93h4.7c1.2,0,2.3-0.2,3.3-0.5   s1.9-0.8,2.7-1.5c0.7-0.7,1.3-1.5,1.8-2.5c0.4-1,0.6-2.3,0.6-3.7s-0.2-2.7-0.6-3.7c-0.4-1-1-1.9-1.8-2.5c-0.7-0.7-1.6-1.1-2.7-1.5   c-1-0.3-2.1-0.5-3.3-0.5h-4.7V93z"></path>	<path class="st1" d="M205.7,74.4h2.8l6.4,17.2h0.1l6.6-17.2h2.6L216,95.3h-2.4L205.7,74.4z"></path>	<path class="st1" d="M257.2,74.4h2.5v20.9h-2.5V74.4z"></path>	<path class="st1" d="M305.5,78.1c-0.4-0.7-1-1.2-1.7-1.5s-1.4-0.5-2.2-0.5c-0.6,0-1.1,0.1-1.6,0.2s-1,0.3-1.4,0.6   c-0.4,0.3-0.8,0.6-1,1.1c-0.3,0.5-0.4,1-0.4,1.6c0,0.5,0.1,0.9,0.2,1.3s0.4,0.7,0.7,1c0.3,0.3,0.8,0.6,1.4,0.8   c0.6,0.3,1.3,0.5,2.1,0.8c0.8,0.3,1.6,0.5,2.3,0.8c0.8,0.3,1.4,0.7,2,1.1c0.6,0.5,1,1,1.4,1.7c0.3,0.7,0.5,1.5,0.5,2.6   c0,1-0.2,1.9-0.6,2.7s-1,1.4-1.6,1.9c-0.7,0.5-1.5,0.9-2.3,1.1c-0.9,0.2-1.8,0.4-2.7,0.4c-0.6,0-1.2-0.1-1.8-0.2   c-0.6-0.1-1.2-0.3-1.8-0.5c-0.6-0.2-1.1-0.5-1.6-0.9s-0.9-0.8-1.3-1.3l2.1-1.7c0.5,0.8,1.1,1.3,1.9,1.7s1.7,0.6,2.6,0.6   c0.5,0,1.1-0.1,1.6-0.2c0.5-0.2,1-0.4,1.5-0.7c0.4-0.3,0.8-0.7,1.1-1.1c0.3-0.5,0.4-1,0.4-1.6c0-0.6-0.1-1.2-0.3-1.6   c-0.2-0.4-0.6-0.8-1-1c-0.5-0.3-1-0.6-1.7-0.8c-0.7-0.2-1.5-0.5-2.4-0.8c-0.7-0.2-1.4-0.5-2.1-0.8c-0.6-0.3-1.2-0.7-1.6-1.1   c-0.5-0.4-0.8-1-1.1-1.6c-0.3-0.6-0.4-1.4-0.4-2.2c0-1,0.2-1.9,0.6-2.6s0.9-1.4,1.6-1.9s1.4-0.9,2.3-1.1c0.8-0.3,1.7-0.4,2.7-0.4   c1.2,0,2.3,0.2,3.2,0.5c1,0.4,1.8,1,2.6,1.9L305.5,78.1z"></path>	<path class="st1" d="M352.4,95.8c-1.6,0-3.1-0.3-4.4-0.8c-1.3-0.6-2.5-1.3-3.5-2.3s-1.7-2.1-2.3-3.5c-0.5-1.3-0.8-2.8-0.8-4.4   s0.3-3,0.8-4.4c0.5-1.3,1.3-2.5,2.3-3.5s2.1-1.7,3.5-2.3c1.3-0.6,2.8-0.8,4.4-0.8s3.1,0.3,4.4,0.8c1.3,0.6,2.5,1.3,3.5,2.3   s1.7,2.1,2.3,3.5c0.5,1.3,0.8,2.8,0.8,4.4s-0.3,3-0.8,4.4c-0.5,1.3-1.3,2.5-2.3,3.5s-2.1,1.7-3.5,2.3   C355.4,95.5,354,95.8,352.4,95.8z M352.4,93.5c1.2,0,2.3-0.2,3.3-0.7s1.9-1.1,2.6-1.9c0.7-0.8,1.3-1.7,1.7-2.8   c0.4-1.1,0.6-2.2,0.6-3.4s-0.2-2.3-0.6-3.4s-1-2-1.7-2.8s-1.6-1.4-2.6-1.9s-2.1-0.7-3.3-0.7c-1.2,0-2.3,0.2-3.3,0.7   s-1.9,1.1-2.6,1.9s-1.3,1.7-1.7,2.8c-0.4,1.1-0.6,2.2-0.6,3.4s0.2,2.3,0.6,3.4s1,2,1.7,2.8s1.6,1.4,2.6,1.9   C350,93.3,351.2,93.5,352.4,93.5z"></path>	<path class="st1" d="M398,74.4h5.3c1,0,2,0.1,3,0.2s1.9,0.4,2.7,0.8c0.8,0.4,1.4,1,1.9,1.7c0.5,0.8,0.7,1.8,0.7,3.1   c0,1.5-0.5,2.8-1.4,3.7c-0.9,0.9-2.2,1.5-3.8,1.8l5.9,9.6h-3l-5.7-9.4h-3.2v9.4h-2.5V74.4H398z M400.4,83.6h2.2   c0.7,0,1.4,0,2.1-0.1c0.7,0,1.4-0.2,2-0.4c0.6-0.2,1.1-0.6,1.5-1c0.4-0.5,0.6-1.1,0.6-2c0-0.7-0.1-1.3-0.4-1.8s-0.7-0.8-1.2-1   s-1-0.4-1.6-0.5s-1.2-0.1-1.8-0.1h-3.5L400.4,83.6L400.4,83.6z"></path>	<path class="st1" d="M456.6,78.1c-0.4-0.7-1-1.2-1.7-1.5s-1.4-0.5-2.2-0.5c-0.6,0-1.1,0.1-1.6,0.2s-1,0.3-1.4,0.6   c-0.4,0.3-0.8,0.6-1,1.1c-0.3,0.5-0.4,1-0.4,1.6c0,0.5,0.1,0.9,0.2,1.3s0.4,0.7,0.7,1c0.3,0.3,0.8,0.6,1.4,0.8   c0.6,0.3,1.3,0.5,2.1,0.8c0.8,0.3,1.6,0.5,2.3,0.8c0.8,0.3,1.4,0.7,2,1.1c0.6,0.5,1,1,1.4,1.7c0.3,0.7,0.5,1.5,0.5,2.6   c0,1-0.2,1.9-0.6,2.7s-1,1.4-1.6,1.9c-0.7,0.5-1.5,0.9-2.3,1.1c-0.9,0.2-1.8,0.4-2.7,0.4c-0.6,0-1.2-0.1-1.8-0.2   c-0.6-0.1-1.2-0.3-1.8-0.5c-0.6-0.2-1.1-0.5-1.6-0.9s-0.9-0.8-1.3-1.3l2.1-1.7c0.5,0.8,1.1,1.3,1.9,1.7s1.7,0.6,2.6,0.6   c0.5,0,1.1-0.1,1.6-0.2c0.5-0.2,1-0.4,1.5-0.7c0.4-0.3,0.8-0.7,1.1-1.1c0.3-0.5,0.4-1,0.4-1.6c0-0.6-0.1-1.2-0.3-1.6   c-0.2-0.4-0.6-0.8-1-1c-0.5-0.3-1-0.6-1.7-0.8c-0.7-0.2-1.5-0.5-2.4-0.8c-0.7-0.2-1.4-0.5-2.1-0.8c-0.6-0.3-1.2-0.7-1.6-1.1   c-0.5-0.4-0.8-1-1.1-1.6c-0.3-0.6-0.4-1.4-0.4-2.2c0-1,0.2-1.9,0.6-2.6s0.9-1.4,1.6-1.9s1.4-0.9,2.3-1.1c0.8-0.3,1.7-0.4,2.7-0.4   c1.2,0,2.3,0.2,3.2,0.5c1,0.4,1.8,1,2.6,1.9L456.6,78.1z"></path></g><g>	<path class="st1" d="M10.9,14.4c0,3.6,0.6,6.5,1.7,8.7c1.1,2.2,3.1,4.3,5.8,6.5c2.7,2.1,7.3,5,13.8,8.6c0.8,0.4,1.5,0.9,2.2,1.3   L49.7,1.4H18.3c-0.6,0.3-1.1,0.7-1.6,1.1C12.8,5.4,10.9,9.4,10.9,14.4z"></path>	<polygon class="st0" points="85.5,54.7 85.5,1.3 64.6,1.3  "></polygon>	<path class="st0" d="M44.7,71.4c0-4.6-1.5-8.5-4.5-11.8c-1.3-1.4-3.2-3-5.6-4.8l-5-3.4l0,0c-2.3-1.5-4.9-3-7.8-4.7   c-9-5.1-15.3-9.9-18.9-14.5c-1.2-1.5-2.1-3.1-2.9-4.8v52.7C2.7,82,5.8,83.6,9.6,85c0,0,5.7,2.2,9.4,2.8c5.5,0.9,10.9-0.3,10.9-0.3   C39.5,86,44.7,80.5,44.7,71.4z"></path></g><g>	<path class="st1" d="M52.4,53.4c1.3,1.6,2.4,3.3,3.2,5.1h15.2L52.3,10.9L39.5,42.6C45.3,46.4,49.6,50,52.4,53.4z"></path>	<path class="st1" d="M74.4,67.5L74.4,67.5l-1.3-3.3H57.6c0.4,1.8,0.6,3.7,0.6,5.7c0,9.2-3.3,16.4-9.8,21.6   c-1.7,1.4-3.5,2.5-5.5,3.5h42.2L74.4,67.5z"></path></g></svg>