<svg width="268" height="47" viewBox="0 0 268 47" fill="none" xmlns="http://www.w3.org/2000/svg">
<path d="M227.322 7.09555V0.428341C227.322 0.428341 227.322 0 226.885 0H219.816C219.816 0 219.379 0 219.379 0.428341V7.10176H227.316L227.322 7.09555ZM219.385 9.81459V45.5221C219.385 45.5221 219.385 45.9504 219.822 45.9504H226.892C226.892 45.9504 227.328 45.9504 227.328 45.5221V9.81459H219.392H219.385Z" fill="#004037"/>
<path d="M70.6153 31.3563C70.6153 31.3563 70.5836 31.3811 70.5709 31.3811C70.552 31.3811 70.5393 31.3749 70.533 31.3563C68.2481 26.9735 63.8177 24.0435 58.0328 24.0435C50.2796 24.0435 43.9947 30.5368 43.9947 38.6691C43.9947 40.4694 44.3048 42.2014 44.8681 43.7968C44.8808 43.8402 44.8491 43.8713 44.8048 43.8402C39.2225 40.519 35.4883 34.5037 35.4883 27.6254C35.4883 17.159 44.1339 8.67285 54.8049 8.67285C63.5645 8.67285 70.9697 14.3841 73.3368 22.2183C73.5457 22.8826 73.6849 23.5779 73.6849 24.3104C73.6849 26.2721 72.2482 29.3449 70.6089 31.3501" fill="#B7BA00"/>
<path d="M74.4504 26.0871C73.2162 32.9592 66.9567 39.6326 58.4756 39.2912C53.0578 39.0988 50.7856 34.4801 50.7856 28.7503C50.7856 28.6199 50.697 28.533 50.5957 28.533C50.5388 28.533 50.4945 28.5579 50.4565 28.5889C48.0767 31.0472 46.7729 34.3684 46.6147 38.0186C46.3488 44.1271 48.583 46.9703 55.2034 46.9703C65.8934 46.9703 74.558 38.4718 74.558 27.9867C74.558 27.3535 74.5454 26.7265 74.4821 26.112C74.4821 26.0747 74.4441 26.0623 74.4441 26.0871" fill="#F8AD00"/>
<path d="M259.048 10.098C259.421 10.1042 266.82 10.1042 267.08 10.098C267.39 10.0856 267.44 10.3649 267.301 10.5636C267.162 10.7622 255.852 27.5358 255.852 27.5358C255.852 27.5358 267.725 45.0605 267.921 45.3585C268.118 45.6565 267.921 45.8179 267.656 45.8241C267.396 45.8241 259.769 45.8303 259.523 45.8241C259.231 45.8179 259.042 45.793 258.902 45.5509C258.776 45.3337 251.934 34.0106 251.839 33.8678C251.744 33.725 251.643 33.6257 251.548 33.6319C251.453 33.6319 251.371 33.7374 251.301 33.8802C251.231 34.023 244.409 45.2778 244.307 45.4516C244.193 45.6441 244.041 45.8241 243.744 45.8303C243.484 45.8303 235.738 45.8303 235.459 45.8303C235.187 45.8303 235.098 45.5634 235.225 45.3833C235.351 45.2033 247.029 27.1695 247.029 27.1695C247.029 27.1695 241.63 19.7263 240.997 19.0621C239.991 18.013 239.143 16.6286 236.149 16.641C235.643 16.641 234.402 16.6286 233.826 16.6162C233.529 16.6162 233.155 16.4672 233.155 15.9147C233.143 14.8097 232.984 12.3576 232.984 10.3898C232.984 10.0483 233.111 9.83105 233.63 9.83105C242.048 9.83105 244.75 11.7369 249.023 18.044C249.605 18.7828 250.921 20.7072 251.086 20.9182C251.25 21.1293 251.282 21.2286 251.402 21.2286C251.523 21.2286 251.561 21.1231 251.706 20.881C251.858 20.6389 258.257 10.607 258.377 10.4208C258.516 10.2097 258.675 10.098 259.048 10.1042V10.098Z" fill="#004037"/>
<path d="M76.2366 7.1417C83.1165 6.83751 87.6545 10.047 90.0722 18.322C92.471 26.4605 95.7052 37.5663 95.7052 37.5663C95.8255 37.976 95.9014 37.976 95.9014 37.976C95.9774 37.976 96.0976 37.5663 96.0976 37.5663L104.098 10.2456C104.218 9.8359 104.655 9.8359 104.655 9.8359H112.319C112.756 9.8359 112.617 10.2394 112.617 10.2394L100.465 45.5061C100.326 45.9096 99.8888 45.9096 99.8888 45.9096H91.5596C91.1229 45.9096 90.9836 45.5061 90.9836 45.5061C90.9836 45.5061 84.6734 24.5485 81.781 16.739C81.2114 15.454 79.9139 14.5787 78.3949 14.5787C77.8253 14.5787 76.9012 14.6408 76.7303 14.6656C76.2303 14.709 75.9518 14.3987 75.9518 13.9082C75.9518 13.4178 75.7683 9.53171 75.6544 7.7811C75.6544 7.7811 75.5468 7.17274 76.2493 7.13549" fill="#004037"/>
<path d="M30.5763 35.6497C30.5763 28.5852 27.7092 25.9159 15.5065 24.9785C9.84821 24.5439 8.37984 23.1037 8.37984 20.006C8.37984 16.9083 10.0697 15.5364 15.0698 15.5364C21.0255 15.5364 21.9053 17.9885 21.9053 20.9434H29.4117C29.4117 20.9434 29.8484 20.9434 29.8484 20.515C29.8484 12.2897 25.6585 9.04297 15.0761 9.04297C5.80386 9.04918 0.512664 12.4387 0.512664 19.9377C0.512664 26.4994 3.44941 29.5226 14.0381 30.3917C21.3863 30.969 22.6395 32.341 22.6395 35.656C22.6395 38.6854 21.5382 40.2001 15.2154 40.2001C9.2596 40.2001 7.86718 38.7599 7.86718 34.8676H0.436714C0.436714 34.8676 0 34.8676 0 35.2959C0 42.5094 3.23421 46.6935 15.2154 46.6935C29.3991 46.6935 30.5763 41.361 30.5763 35.6622V35.6497Z" fill="#004037"/>
<path d="M203.952 36.701V16.5442H211.598L211.617 10.2929C211.617 10.2929 211.617 9.85832 211.18 9.85832H203.927V6.9903C203.927 6.9903 203.927 6.98409 203.927 6.97789V0.441036C203.927 0.441036 203.927 0.0126953 203.49 0.0126953H196.471C196.471 0.0126953 196.034 0.0126953 196.034 0.441036V9.86453H189.616C189.616 9.86453 189.18 9.86453 189.18 10.2991V13.1547V16.5566L196.041 16.5442V36.6265C196.041 43.3682 198.218 46.7391 205.085 46.7391C207.129 46.7391 210.148 46.379 211.61 45.9507V40.0408C211.61 39.8732 211.458 39.7366 211.186 39.7987C210.838 39.8794 209.022 40.2767 207.37 40.2767C204.882 40.2767 203.933 38.9172 203.933 36.6886L203.952 36.701Z" fill="#004037"/>
<path d="M184.303 38.4381V22.2853C184.303 13.1039 181.449 9.30469 172.968 9.30469C168.094 9.30469 165.55 10.4531 161.822 12.5452V10.2979C161.822 10.2979 161.822 9.8696 161.385 9.8696H154.316C154.316 9.8696 153.879 9.8696 153.879 10.2979V45.4653C153.879 45.4653 153.879 45.8937 154.316 45.8937H161.385C161.385 45.8937 161.822 45.8937 161.822 45.4653V19.7587C164.303 17.6294 167.575 15.7608 170.189 15.7608C174.36 15.7608 176.404 17.1204 176.404 22.2853V32.6213C176.385 32.671 176.36 32.7082 176.36 32.7703V45.4653C176.36 45.4653 176.36 45.8937 176.797 45.8937H183.867C183.867 45.8937 184.303 45.8937 184.303 45.4653V38.4381Z" fill="#004037"/>
<path d="M123.56 25.1271H138.56C138.997 25.1271 138.997 24.6988 138.997 24.6988C138.997 18.4909 138.409 15.536 131.497 15.536C124.586 15.536 123.56 18.2054 123.56 25.1209V25.1271ZM131.497 40.1935C137.453 40.1935 140.978 39.759 144.738 39.1134C145.168 39.0389 145.168 39.4672 145.168 39.4672V45.3833C141.345 46.1034 137.155 46.6807 132.01 46.6807C121.206 46.6807 115.617 43.223 115.617 29.7395V25.99C115.617 12.9411 121.13 9.04883 131.491 9.04883C141.852 9.04883 146.928 12.7984 146.928 25.99V30.6024H123.991C123.554 30.6024 123.554 31.0308 123.554 31.0308C123.554 37.8159 125.32 40.1935 131.491 40.1935H131.497Z" fill="#004037"/>
</svg>
