<svg xmlns="http://www.w3.org/2000/svg" width="202.751" height="90.475" viewBox="0 0 202.751 90.475">
  <g transform="translate(0)">
    <g id="Groupe_18" data-name="Groupe 18" transform="translate(0 50.331)">
      <path id="Tracé_14" data-name="Tracé 14" d="M329.224,312.077c5.5,0,10.563-3.539,10.563-9.113,0-5.648-4.269-9.483-10.561-9.483h-3.591c-8.459,0-15.388,6.472-15.388,15.831v20.038H295.83V309.363c0-11.167,11.4-19.987,25.151-19.987h10.076c10.361,0,22.891,3.364,22.891,13.588,0,10.42-11.479,13.587-22.895,13.587h-19.1v-4.474Z" transform="translate(-235.386 -289.205)" fill="#0f1e5a"/>
      <rect id="Rectangle_3" data-name="Rectangle 3" width="14.417" height="39.973" transform="translate(129.183 0.171)" fill="#0f1e5a"/>
      <path id="Tracé_15" data-name="Tracé 15" d="M605.8,311.073H580.875c1,7.578,6.963,13.255,13.986,13.255h18.707v4.531H590.8c-13.747,0-25.165-8.819-25.165-19.986s11.412-19.987,25.16-19.987h22.773v4.436h-18.71c-7.052,0-13.031,5.725-13.995,13.351H605.8Z" transform="translate(-410.817 -288.886)" fill="#0f1e5a"/>
      <path id="Tracé_16" data-name="Tracé 16" d="M138.04,298.329c0,1.607,1.92,3.05,5.339,3.981,3.444.937,7.777,2.026,12.221,3.1,8.772,2.126,18.016,4.959,18.016,11.537,0,7.374-13.279,12.383-31.311,12.383a68.883,68.883,0,0,1-19.279-2.469l2.033-3.591c5.808,2.134,14.074,2.538,20.172,2.538,7.4,0,13.394-2.352,13.394-5.785,0-1.972-1.956-3.635-5.227-4.5-3.346-.886-7.622-1.982-11.977-2.959-8.6-1.93-17.67-4.47-17.67-11.38,0-6.641,9.607-11.834,27.332-11.834,5.586,0,13.733.73,18.941,2.807l-2.3,2.869a64.282,64.282,0,0,0-17.109-2.11C141.282,292.916,138.04,295.534,138.04,298.329Z" transform="translate(-123.027 -289.188)" fill="#0f1e5a"/>
    </g>
    <g id="Groupe_20" data-name="Groupe 20" transform="translate(113.617 0)">
      <g id="Groupe_19" data-name="Groupe 19" transform="translate(0)">
        <circle id="Ellipse_2" data-name="Ellipse 2" cx="19.83" cy="19.83" r="19.83" transform="translate(0 39.141) rotate(-80.716)" fill="#fff"/>
        <path id="Tracé_17" data-name="Tracé 17" d="M512.941,210.092" transform="translate(-490.171 -187.322)" fill="#fff"/>
      </g>
      <path id="Tracé_18" data-name="Tracé 18" d="M456.248,173.229a19.834,19.834,0,0,1,38.838-5.67,35.66,35.66,0,0,0-5.407-6.305q-.582.239-1.2.509a35.517,35.517,0,0,1,6.982,7.256,19.812,19.812,0,0,1,.427,3.287,34.993,34.993,0,0,0-9.9-9.37q-.825.414-1.682.885a34.8,34.8,0,0,1,11.605,9.505,20.114,20.114,0,0,1-.173,2.538,32.9,32.9,0,0,0-14.43-10.257q-1.068.687-2.149,1.466a32.64,32.64,0,0,1,16.419,9.8,19.7,19.7,0,0,1-.543,2.2,31.384,31.384,0,0,0-19.262-9.315c-.817.715-1.627,1.475-2.42,2.283h.317a31.2,31.2,0,0,1,21,8.1,19.656,19.656,0,0,1-.91,2.072A30.023,30.023,0,0,0,474.8,175.5a30.341,30.341,0,0,0-4.791.378q-1.161,1.507-2.223,3.187a30.063,30.063,0,0,1,25.34,4.3,19.8,19.8,0,0,1-1.4,2.044,28.891,28.891,0,0,0-26.584-1.43q-.834,1.837-1.524,3.85a28.74,28.74,0,0,1,27.024-1.142,19.831,19.831,0,0,1-34.4-13.457Z" transform="translate(-453.309 -150.46)" fill="#c00"/>
    </g>
  </g>
</svg>
