<?xml version="1.0" encoding="UTF-8"?>
<svg xmlns="http://www.w3.org/2000/svg" viewBox="0 0 2021.6 587.6">
  <defs>
    <style>
      .cls-1 {
        isolation: isolate;
      }

      .cls-2 {
        fill: #154f90;
      }

      .cls-3 {
        mix-blend-mode: multiply;
      }

      .cls-4 {
        fill: #00843e;
      }
    </style>
  </defs>
  <g class="cls-1">
    <g id="Ebene_2" data-name="Ebene 2">
      <g id="DE">
        <g id="Text">
          <g class="cls-3">
            <path class="cls-4" d="m1416.5,548.5c-7,7.1-15.3,10.2-25.4,10.2s-17.7-3.3-24.3-9.9c-3.9-3.9-6.3-8.5-7.3-13.5-1-5.1-1.5-12.5-1.5-22.4s.5-17.3,1.5-22.4c1-5.2,3.4-9.6,7.3-13.5,6.6-6.6,14.7-9.9,24.3-9.9,20.5,0,31.5,13.2,33.9,28.8h-17.7c-2.2-8.7-7.5-13.2-16.2-13.2s-8.5,1.6-11.3,4.8c-3.3,4.2-4.3,7.5-4.3,25.3s.8,21.3,4.3,25.4c2.7,3.2,6.5,4.7,11.3,4.7s9.4-1.6,12.5-5.1c2.7-3,4-7.1,4-12v-3.4h-16.6v-14.7h34v13.2c0,13.2-2.4,20.9-8.6,27.5Z"/>
            <path class="cls-4" d="m1495.1,510c-2.5-2.5-4.7-3.9-8.7-3.9s-10.6,3.8-10.6,12.1v39.7h-16.4v-65.9h16.1v6.3c3.2-3.8,9.5-7.1,16.6-7.1s11,1.6,15.6,6.2l-12.4,12.5Z"/>
            <path class="cls-4" d="m1568.4,558v-5.7c-4.4,4.4-8.6,6.3-16.2,6.3s-12.9-1.9-16.8-5.8c-3.5-3.7-5.4-9-5.4-14.8,0-10.5,7.2-19.1,22.5-19.1h15.6v-3.3c0-7.2-3.5-10.4-12.3-10.4s-9.2,1.5-12.7,5.4l-10.5-10.2c6.5-7.1,12.8-9.1,23.8-9.1,18.5,0,28.1,7.8,28.1,23.3v43.4h-16.1Zm-.4-27.8h-13c-5.9,0-9.2,2.8-9.2,7.5s3,7.6,9.5,7.6,7.5-.4,10.4-3.2c1.8-1.6,2.4-4.3,2.4-8.4v-3.5Z"/>
            <path class="cls-4" d="m1659.1,558v-6.1c-4.3,4.6-10.4,6.8-16.4,6.8s-11.9-2.2-15.6-5.8c-5.3-5.3-6.7-11.5-6.7-18.7v-42.1h16.4v39.9c0,9,5.7,12,10.9,12s11-3,11-12v-39.9h16.4v65.9h-16.1Z"/>
            <path class="cls-4" d="m1750.4,558v-40.2c0-8.7-5.6-11.6-10.8-11.6s-10.6,3-10.6,11.6v40.2h-16.4v-90.1h16.4v30.2c4.4-4.6,10-6.8,15.8-6.8,14.4,0,22,10.1,22,24v42.6h-16.4Z"/>
            <path class="cls-4" d="m1849.1,550.7c-4,4.3-10.8,8.1-20.5,8.1s-16.3-3.8-20.4-8.1c-5.9-6.2-7.5-13.7-7.5-25.7s1.5-19.4,7.5-25.6c4-4.3,10.6-8.1,20.4-8.1s16.4,3.8,20.5,8.1c5.9,6.2,7.5,13.7,7.5,25.6s-1.5,19.5-7.5,25.7Zm-12.8-41.6c-1.9-1.9-4.4-2.9-7.7-2.9s-5.7,1-7.6,2.9c-3.4,3.4-3.8,9.1-3.8,15.9s.4,12.7,3.8,16.1,4.3,2.9,7.6,2.9,5.8-1,7.7-2.9c3.4-3.4,3.8-9.2,3.8-16.1s-.4-12.5-3.8-15.9Z"/>
            <path class="cls-4" d="m1909.9,558c-13.5,0-19.2-9.5-19.2-18.9v-71.2h16.4v70.2c0,3.9,1.6,5.9,5.8,5.9h6.3v13.9h-9.4Z"/>
            <path class="cls-4" d="m1946.8,558v-12.5l29.2-38.6h-27.6v-14.8h48.6v12.5l-29.6,38.6h29.6v14.8h-50.2Z"/>
          </g>
        </g>
        <g id="Logo">
          <path class="cls-4" d="m393.5,273.4c20.2,110.5-49.1,230.8-137.2,299.1,65.5-24.5,136.4-66,203.4-122.2,169.9-142.6,250.9-325.8,180.9-409.3-11.9-14.2-27.5-24.5-45.9-31.3-99.4,38.3-220.9,156-201.2,263.7Z"/>
          <path class="cls-2" d="m294.6,282.7c1-95.6,112.7-223.1,259.2-281.9-92.1-8.2-226.2,45.3-347.7,147.2C36.2,290.7-44.8,473.9,25.2,557.4c.5.6,1.1,1.1,1.6,1.7,90.2,7.2,266.1-114.8,267.8-276.3Z"/>
          <g>
            <path d="m856.4,379c-27.3,0-48.1-5.8-65.8-23.8l22.8-22.8c11.4,11.4,26.8,15.2,43.5,15.2s31.9-7.8,31.9-22.3-1.8-11.6-5.6-15.2c-3.5-3.3-7.6-5.1-15.9-6.3l-21.8-3c-15.4-2.3-26.8-7.1-34.9-14.9-8.6-8.6-12.9-20.2-12.9-35.4,0-32.1,23.8-54.6,62.7-54.6s42.8,6.1,58.2,21l-22.3,22c-11.4-10.9-25-12.4-36.9-12.4-18.7,0-27.8,10.4-27.8,22.8s1.5,9.4,5.3,12.9c3.5,3.3,9.4,6.1,16.7,7.1l21.3,3c16.4,2.3,26.8,6.8,34.4,13.9,9.6,9.1,13.9,22.3,13.9,38.2,0,34.9-29.1,54.6-66.8,54.6Z"/>
            <path d="m1102,309.7h-34.7v67.8h-35.2v-180.1h69.8c37.2,0,59.5,25.6,59.5,56.2s-22.3,56.2-59.5,56.2Zm-1.8-81h-32.9v49.3h32.9c15.9,0,26.1-9.9,26.1-24.5s-10.1-24.8-26.1-24.8Z"/>
            <path d="m1267,377.5v-180.1h35.2v180.1h-35.2Z"/>
            <path d="m1488.9,228.8v148.8h-35.2v-148.8h-47.1v-31.4h129.3v31.4h-47.1Z"/>
            <path d="m1640.5,377.5v-180.1h118.6v31.4h-83.5v42.2h71.1v31.4h-71.1v43.8h83.5v31.4h-118.6Z"/>
            <path d="m1959.6,377.5l-34.9-62.7-34.7,62.7h-40.2l55.9-92.3-52.4-87.8h40l31.4,58.2,31.6-58.2h39.7l-52.4,87.8,56.2,92.3h-40.2Z"/>
          </g>
          <rect x="798" y="146.9" width="1201.4" height="5.1"/>
          <g>
            <path d="m820.8,103.2c-13.1,0-22.6-9-22.6-22v-43.5h6.9v42.9c0,9.8,6.2,16.3,15.7,16.3s15.8-6.5,15.8-16.3v-42.9h6.9v43.5c0,12.9-9.6,22-22.7,22Zm-12.9-72.4v-8.1h6.6v8.1h-6.6Zm19.3,0v-8.1h6.6v8.1h-6.6Z"/>
            <path d="m892.6,99.3c-2.4,2.4-6.4,3.9-10.9,3.9s-9-1.2-12.7-5.9v5.4h-6.6V37.7h6.6v25.2c3.6-4.6,7.7-5.7,12.7-5.7s8.6,1.5,10.9,3.9c4.6,4.6,5.5,12,5.5,19s-.9,14.5-5.5,19Zm-12.3-36.2c-9.7,0-11.3,8.4-11.3,17.1s1.6,17.1,11.3,17.1,11.2-8.4,11.2-17.1-1.5-17.1-11.2-17.1Z"/>
            <path d="m918.4,81.9c0,9.8,4.6,15.5,13.2,15.5s8.2-1.5,11.8-5.1l4.5,3.9c-4.6,4.6-8.7,6.9-16.4,6.9-11.8,0-19.6-7.1-19.6-23s7-23,18.4-23,18.4,8.4,18.4,21.7v3h-30.3Zm22.3-12.4c-1.7-4.1-5.7-6.7-10.5-6.7s-8.7,2.6-10.5,6.7c-1,2.5-1.2,3.8-1.4,7.5h23.7c-.2-3.6-.4-5-1.4-7.5Z"/>
            <path d="m989.9,66.4c-2.5-2.5-4.3-3.3-7.7-3.3-6.6,0-10.8,5.2-10.8,12v27.5h-6.6v-44.8h6.6v5.5c2.5-3.7,7.4-6,12.6-6s7.6,1,10.7,4.2l-4.8,4.9Z"/>
            <path d="m1030,102.6v-4.3c-3.6,3.6-6.9,4.8-12.9,4.8s-9.8-1.2-12.7-4.1c-2.2-2.2-3.4-5.6-3.4-9.1,0-7.8,5.5-12.9,15.5-12.9h13.5v-4.3c0-6.6-3.3-9.8-11.5-9.8s-8.7,1.4-11.3,5.1l-4.5-4.1c4-5.2,8.6-6.7,15.9-6.7,12,0,18,5.2,18,14.9v30.4h-6.6Zm0-20.7h-12.6c-6.7,0-10,2.7-10,7.9s3.2,7.7,10.3,7.7,7.2-.3,10-3c1.6-1.5,2.3-4,2.3-7.7v-4.8Z"/>
            <path d="m1066,102.6c-7.8,0-11.4-5.1-11.4-11.9v-52.9h6.6v52.7c0,4.4,1.5,6.6,6,6.6h3.6v5.6h-4.7Z"/>
            <path d="m1095.3,102.6c-7.8,0-11.4-5.1-11.4-11.9v-52.9h6.6v52.7c0,4.4,1.5,6.6,6,6.6h3.6v5.6h-4.7Z"/>
            <path d="m1146.4,63.1v39.5h-6.6v-39.5h-5.7v-5h5.7v-8.5c0-6.7,3.7-12,11.4-12h4.7v5.6h-3.6c-4.2,0-6,2.5-6,6.6v8.3h9.6v5h-9.6Z"/>
            <path d="m1197.6,102.6v-5c-3.2,3.6-7.7,5.6-12.7,5.6s-8.8-1.5-11.6-4.2c-3.2-3.1-4.6-7.4-4.6-12.6v-28.6h6.6v27.6c0,7.9,4.2,11.9,10.9,11.9s11.2-4.1,11.2-11.9v-27.6h6.6v44.8h-6.5Zm-24.2-54.9v-8.1h6.6v8.1h-6.6Zm19.3,0v-8.1h6.6v8.1h-6.6Z"/>
            <path d="m1247.8,66.4c-2.5-2.5-4.3-3.3-7.7-3.3-6.6,0-10.7,5.2-10.7,12v27.5h-6.6v-44.8h6.6v5.5c2.5-3.7,7.4-6,12.6-6s7.6,1,10.8,4.2l-4.8,4.9Z"/>
            <path d="m1313.8,102.6v-4.3c-3.6,3.6-6.9,4.8-12.9,4.8s-9.8-1.2-12.7-4.1c-2.2-2.2-3.4-5.6-3.4-9.1,0-7.8,5.5-12.9,15.5-12.9h13.5v-4.3c0-6.6-3.3-9.8-11.5-9.8s-8.7,1.4-11.3,5.1l-4.5-4.1c4-5.2,8.6-6.7,15.9-6.7,12,0,18,5.2,18,14.9v30.4h-6.6Zm0-20.7h-12.6c-6.7,0-10,2.7-10,7.9s3.2,7.7,10.3,7.7,7.2-.3,10-3c1.6-1.5,2.3-4,2.3-7.7v-4.8Z"/>
            <path d="m1349.7,102.6c-7.8,0-11.4-5.1-11.4-11.9v-52.9h6.6v52.7c0,4.4,1.5,6.6,6,6.6h3.6v5.6h-4.7Z"/>
            <path d="m1379.1,102.6c-7.8,0-11.4-5.1-11.4-11.9v-52.9h6.6v52.7c0,4.4,1.5,6.6,6,6.6h3.6v5.6h-4.7Z"/>
            <path d="m1399,81.9c0,9.8,4.6,15.5,13.2,15.5s8.2-1.5,11.8-5.1l4.5,3.9c-4.6,4.6-8.7,6.9-16.4,6.9-11.8,0-19.6-7.1-19.6-23s7-23,18.4-23,18.4,8.4,18.4,21.7v3h-30.3Zm22.3-12.4c-1.7-4.1-5.7-6.7-10.5-6.7s-8.7,2.6-10.5,6.7c-1,2.5-1.2,3.8-1.4,7.5h23.7c-.2-3.6-.4-5-1.4-7.5Z"/>
          </g>
        </g>
      </g>
    </g>
  </g>
</svg>