<svg xmlns="http://www.w3.org/2000/svg" viewBox="0 0 1999.79 572.49"><defs><style>.cls-1{isolation:isolate;}.cls-2{mix-blend-mode:multiply;}.cls-3{fill:#00843e;}.cls-4{fill:#154f90;}</style></defs><title>logo_de</title><g class="cls-1"><g id="Ebene_2" data-name="Ebene 2"><g id="DE"><g id="Text"><g class="cls-2"><path class="cls-3" d="M1380.34,558.75c-13.67,0-24-2.91-32.9-11.89l11.39-11.39c5.69,5.69,13.41,7.59,21.76,7.59,10.38,0,15.94-3.92,15.94-11.13,0-3.16-.89-5.82-2.78-7.59s-3.8-2.53-8-3.16l-10.88-1.52c-7.72-1.14-13.41-3.54-17.46-7.47-4.3-4.3-6.45-10.12-6.45-17.71,0-16.07,11.89-27.33,31.38-27.33,12.4,0,21.38,3,29.1,10.5l-11.13,11c-5.69-5.44-12.53-6.2-18.47-6.2-9.36,0-13.92,5.19-13.92,11.39a8.69,8.69,0,0,0,2.66,6.45,15.48,15.48,0,0,0,8.35,3.54l10.63,1.52c8.22,1.14,13.41,3.42,17.21,7,4.81,4.55,7,11.13,7,19.11C1413.74,548.88,1399.19,558.75,1380.34,558.75Z"/><path class="cls-3" d="M1504.84,548.5c-7,7.08-15.31,10.25-25.43,10.25a33,33,0,0,1-24.29-9.87,26.05,26.05,0,0,1-7.34-13.54q-1.52-7.59-1.52-22.39t1.52-22.4a25.58,25.58,0,0,1,7.34-13.54,33,33,0,0,1,24.29-9.87c20.5,0,31.5,13.16,33.91,28.85H1495.6c-2.15-8.73-7.47-13.16-16.2-13.16a14.35,14.35,0,0,0-11.26,4.81c-3.29,4.18-4.3,7.46-4.3,25.31s.76,21.26,4.3,25.43c2.66,3.16,6.45,4.68,11.26,4.68,5.19,0,9.36-1.65,12.53-5.06,2.66-3,4-7.08,4-12v-3.42h-16.57V507.89h34V521C1513.44,534.21,1511,541.93,1504.84,548.5Z"/><path class="cls-3" d="M1552.28,567.36V458.54h16.45V567.36Z"/><path class="cls-3" d="M1663.37,558l-5.31-15.94h-32L1620.61,558h-18.35L1635,467.91h13.79l32.9,90.09Zm-21-63.52L1631,527.25h22.39Z"/><path class="cls-3" d="M1759.66,558l-17.59-35.93h-12.65V558h-17.59V467.91h35.3c18.35,0,29.23,12.53,29.23,27.58,0,12.65-7.72,20.5-16.45,23.66L1780,558ZM1746,483.6h-16.58v23.79H1746c7.72,0,12.78-4.93,12.78-11.89S1753.71,483.6,1746,483.6Z"/><path class="cls-3" d="M1817,567.36V458.54h16.45V567.36Z"/><path class="cls-3" d="M1928.06,558l-5.31-15.94h-32L1885.29,558h-18.35l32.77-90.09h13.79l32.9,90.09Zm-21-63.52-11.39,32.77h22.39Z"/><path class="cls-3" d="M1976.52,558V467.91h17.59V558Z"/></g></g><g id="Logo"><path class="cls-3" d="M393.54,273.42c20.22,110.47-49.11,230.79-137.25,299.06,65.53-24.54,136.35-66,203.38-122.22C629.61,307.67,710.6,124.43,640.58,41c-11.91-14.19-27.49-24.49-45.87-31.27C495.28,48,373.82,165.68,393.54,273.42Z"/><path class="cls-4" d="M294.56,282.72c1-95.65,112.69-223.1,259.21-281.89C461.62-7.41,327.58,46.12,206.09,148.06,36.16,290.66-44.84,473.9,25.19,557.35c.5.59,1.07,1.12,1.58,1.7C116.93,566.2,292.83,444.22,294.56,282.72Z"/><path d="M856.35,379c-27.32,0-48.07-5.81-65.78-23.78l22.77-22.77c11.39,11.39,26.82,15.18,43.52,15.18,20.74,0,31.88-7.84,31.88-22.26,0-6.32-1.77-11.63-5.57-15.18-3.54-3.29-7.59-5.06-15.94-6.33l-21.76-3c-15.43-2.28-26.82-7.09-34.91-14.93-8.6-8.61-12.9-20.24-12.9-35.42,0-32.13,23.78-54.65,62.74-54.65,24.79,0,42.76,6.07,58.19,21l-22.26,22c-11.39-10.88-25-12.39-36.94-12.39-18.72,0-27.83,10.37-27.83,22.77a17.37,17.37,0,0,0,5.31,12.9c3.54,3.29,9.36,6.07,16.7,7.09l21.25,3c16.44,2.28,26.82,6.83,34.41,13.92,9.62,9.11,13.92,22.26,13.92,38.2C923.14,359.3,894,379,856.35,379Z"/><path d="M1102,309.72h-34.66v67.81h-35.17V197.39H1102c37.19,0,59.45,25.55,59.45,56.17S1139.23,309.72,1102,309.72Zm-1.77-81h-32.89v49.33h32.89c15.94,0,26.06-9.87,26.06-24.54S1116.21,228.76,1100.27,228.76Z"/><path d="M1267,377.52V197.39h35.16V377.52Z"/><path d="M1488.92,228.76V377.52h-35.17V228.76H1406.7V197.39H1536v31.37Z"/><path d="M1640.5,377.52V197.39h118.65v31.37h-83.48V271h71.09v31.38h-71.09v43.77h83.48v31.37Z"/><path d="M1959.56,377.52l-34.92-62.75L1890,377.52h-40.23l55.91-92.34-52.37-87.79h40l31.37,58.19,31.62-58.19H1996l-52.36,87.79,56.16,92.34Z"/><rect x="798.04" y="146.88" width="1201.42" height="5.06"/><path d="M820.77,103.17c-13.12,0-22.6-9-22.6-22V37.75h6.93V80.66c0,9.84,6.2,16.31,15.67,16.31s15.77-6.47,15.77-16.31V37.75h6.93V81.21C843.46,94.15,833.89,103.17,820.77,103.17ZM807.83,30.73V22.62h6.56v8.11Zm19.32,0V22.62h6.56v8.11Z"/><path d="M892.55,99.25c-2.37,2.37-6.38,3.92-10.93,3.92-4.92,0-9-1.18-12.66-5.92v5.37h-6.56V37.75H869V63c3.64-4.65,7.75-5.74,12.66-5.74,4.56,0,8.57,1.55,10.93,3.92,4.56,4.55,5.47,12,5.47,19S897.11,94.7,892.55,99.25Zm-12.3-36.17c-9.75,0-11.3,8.38-11.3,17.13s1.55,17.13,11.3,17.13S891.46,89,891.46,80.21,890,63.08,880.25,63.08Z"/><path d="M918.42,81.94c0,9.84,4.65,15.49,13.21,15.49,5.2,0,8.2-1.55,11.76-5.1l4.47,3.92c-4.56,4.56-8.75,6.93-16.4,6.93-11.85,0-19.59-7.11-19.59-23,0-14.49,7-23,18.4-23,11.57,0,18.41,8.38,18.41,21.69v3Zm22.32-12.39a11.51,11.51,0,0,0-21,0c-1,2.46-1.19,3.82-1.37,7.47h23.69C941.92,73.37,941.74,72,940.74,69.55Z"/><path d="M989.93,66.36c-2.46-2.46-4.29-3.28-7.75-3.28-6.56,0-10.76,5.19-10.76,12v27.52h-6.56V57.79h6.56v5.47c2.46-3.74,7.38-6,12.58-6,4.28,0,7.56,1,10.75,4.19Z"/><path d="M1030,102.62V98.34c-3.64,3.64-6.93,4.83-12.94,4.83-6.2,0-9.84-1.18-12.66-4.1A12.92,12.92,0,0,1,1001,90c0-7.84,5.47-12.94,15.49-12.94H1030V72.74c0-6.56-3.28-9.84-11.48-9.84-5.74,0-8.65,1.37-11.3,5.1l-4.47-4.1c4-5.19,8.57-6.65,15.86-6.65,12,0,18,5.19,18,14.94v30.43Zm0-20.68h-12.58c-6.74,0-10,2.73-10,7.93s3.19,7.65,10.29,7.65c3.83,0,7.2-.27,10-3,1.55-1.46,2.28-4,2.28-7.74Z"/><path d="M1066,102.62c-7.83,0-11.39-5.1-11.39-11.94V37.75h6.56V90.41c0,4.37,1.46,6.56,6,6.56h3.55v5.65Z"/><path d="M1095.31,102.62c-7.83,0-11.39-5.1-11.39-11.94V37.75h6.56V90.41c0,4.37,1.46,6.56,6,6.56h3.55v5.65Z"/><path d="M1146.41,63.08v39.55h-6.56V63.08h-5.74v-5h5.74V49.59c0-6.65,3.74-12,11.39-12H1156v5.65h-3.55c-4.19,0-6,2.46-6,6.56v8.29H1156v5Z"/><path d="M1197.61,102.62v-5a16.43,16.43,0,0,1-12.66,5.56c-4.83,0-8.84-1.46-11.57-4.19-3.19-3.1-4.56-7.38-4.56-12.57V57.79h6.56V85.4c0,7.93,4.19,11.94,10.93,11.94s11.21-4.1,11.21-11.94V57.79h6.56v44.83Zm-24.23-54.85V39.66h6.56v8.11Zm19.32,0V39.66h6.56v8.11Z"/><path d="M1247.81,66.36c-2.46-2.46-4.28-3.28-7.75-3.28-6.56,0-10.75,5.19-10.75,12v27.52h-6.56V57.79h6.56v5.47c2.46-3.74,7.38-6,12.57-6,4.29,0,7.57,1,10.76,4.19Z"/><path d="M1313.76,102.62V98.34c-3.64,3.64-6.93,4.83-12.94,4.83-6.2,0-9.84-1.18-12.66-4.1a12.92,12.92,0,0,1-3.37-9.11c0-7.84,5.47-12.94,15.49-12.94h13.49V72.74c0-6.56-3.28-9.84-11.48-9.84-5.74,0-8.65,1.37-11.3,5.1l-4.47-4.1c4-5.19,8.57-6.65,15.86-6.65,12,0,18,5.19,18,14.94v30.43Zm0-20.68h-12.58c-6.74,0-10,2.73-10,7.93s3.19,7.65,10.29,7.65c3.83,0,7.2-.27,10-3,1.55-1.46,2.28-4,2.28-7.74Z"/><path d="M1349.73,102.62c-7.83,0-11.39-5.1-11.39-11.94V37.75h6.56V90.41c0,4.37,1.46,6.56,6,6.56h3.55v5.65Z"/><path d="M1379.06,102.62c-7.83,0-11.39-5.1-11.39-11.94V37.75h6.56V90.41c0,4.37,1.46,6.56,6,6.56h3.55v5.65Z"/><path d="M1399,81.94c0,9.84,4.65,15.49,13.21,15.49,5.2,0,8.2-1.55,11.76-5.1l4.46,3.92c-4.55,4.56-8.75,6.93-16.4,6.93-11.84,0-19.59-7.11-19.59-23,0-14.49,7-23,18.41-23,11.57,0,18.4,8.38,18.4,21.69v3Zm22.33-12.39a11.51,11.51,0,0,0-21,0c-1,2.46-1.18,3.82-1.37,7.47h23.69C1422.52,73.37,1422.34,72,1421.34,69.55Z"/></g></g></g></g></svg>