<svg xmlns="http://www.w3.org/2000/svg" viewBox="0 0 317.69 94.35"><title>logo</title><path d="M62.21,47.08c3.2,17.46-7.76,36.48-21.7,47.28A112.81,112.81,0,0,0,72.66,75c26.86-22.54,39.67-51.51,28.6-64.7A16.9,16.9,0,0,0,94,5.39C78.29,11.44,59.09,30,62.21,47.08Z" fill="#00843e"/><path d="M46.56,48.55c.16-15.12,17.81-35.27,41-44.56-14.57-1.3-35.76,7.16-55,23.28C5.72,49.8-7.09,78.77,4,92l.25.27C18.48,93.36,46.29,74.08,46.56,48.55Z" fill="#154f90"/><path d="M135.37,65.77c-4.32,0-7.6-.92-10.4-3.76l3.6-3.6a9.32,9.32,0,0,0,6.88,2.4c3.28,0,5-1.24,5-3.52a3.17,3.17,0,0,0-.88-2.4,4.25,4.25,0,0,0-2.52-1l-3.44-.48a9.66,9.66,0,0,1-5.52-2.36,7.53,7.53,0,0,1-2-5.6c0-5.08,3.76-8.64,9.92-8.64,3.92,0,6.76,1,9.2,3.32l-3.52,3.48a7.92,7.92,0,0,0-5.84-2c-3,0-4.4,1.64-4.4,3.6a2.75,2.75,0,0,0,.84,2,4.9,4.9,0,0,0,2.64,1.12l3.36.48a9.42,9.42,0,0,1,5.44,2.2,8,8,0,0,1,2.2,6C145.93,62.65,141.33,65.77,135.37,65.77Z"/><path d="M174.21,54.81h-5.48V65.53h-5.56V37.06h11c5.88,0,9.4,4,9.4,8.88S180.09,54.81,174.21,54.81ZM173.93,42h-5.2v7.8h5.2c2.52,0,4.12-1.56,4.12-3.88A3.79,3.79,0,0,0,173.93,42Z"/><path d="M200.29,65.53V37.06h5.56V65.53Z"/><path d="M235.37,42V65.53h-5.56V42h-7.44v-5h20.44v5Z"/><path d="M259.33,65.53V37.06h18.76v5h-13.2v6.68h11.24v5H264.89v6.92h13.2v5Z"/><path d="M309.77,65.53l-5.52-9.92-5.48,9.92h-6.36l8.84-14.6L293,37.06h6.32l5,9.2,5-9.2h6.28l-8.28,13.88,8.88,14.6Z"/><rect x="126.15" y="29.07" width="189.92" height="0.8"/><path d="M131.53,12.38A3.29,3.29,0,0,1,128.06,9V2.33h1.06v6.6a2.42,2.42,0,1,0,4.83,0V2.33H135V9A3.3,3.3,0,0,1,131.53,12.38ZM130,1.27a.63.63,0,0,1-.63-.63.63.63,0,1,1,1.26,0A.63.63,0,0,1,130,1.27Zm3,0a.63.63,0,0,1-.63-.63.63.63,0,1,1,1.26,0A.63.63,0,0,1,133,1.27Z"/><path d="M142.2,11.78a2.4,2.4,0,0,1-1.68.6,2.21,2.21,0,0,1-1.95-.91v.83h-1v-10h1V6.21a2.21,2.21,0,0,1,1.95-.88,2.4,2.4,0,0,1,1.68.6A4.12,4.12,0,0,1,143,8.85,4.12,4.12,0,0,1,142.2,11.78Zm-1.89-5.56c-1.5,0-1.74,1.29-1.74,2.63s.24,2.63,1.74,2.63S142,10.2,142,8.85,141.81,6.22,140.31,6.22Z"/><path d="M145.82,9.12c0,1.51.71,2.38,2,2.38a2.26,2.26,0,0,0,1.81-.78l.69.6a3.16,3.16,0,0,1-2.52,1.06c-1.82,0-3-1.09-3-3.53,0-2.23,1.08-3.53,2.83-3.53s2.83,1.29,2.83,3.33v.46Zm3.43-1.91a1.77,1.77,0,0,0-3.22,0,2.9,2.9,0,0,0-.21,1.15h3.64A2.92,2.92,0,0,0,149.25,7.21Z"/><path d="M156.46,6.72a1.44,1.44,0,0,0-1.19-.5,1.68,1.68,0,0,0-1.65,1.85V12.3h-1V5.41h1v.84a2.31,2.31,0,0,1,1.93-.92,2.12,2.12,0,0,1,1.65.64Z"/><path d="M162.27,12.3v-.66a2.42,2.42,0,0,1-2,.74,2.46,2.46,0,0,1-1.95-.63,2,2,0,0,1-.52-1.4c0-1.2.84-2,2.38-2h2.07V7.7c0-1-.5-1.51-1.76-1.51a1.81,1.81,0,0,0-1.74.78l-.69-.63a2.67,2.67,0,0,1,2.44-1c1.85,0,2.76.8,2.76,2.3V12.3Zm0-3.18h-1.93c-1,0-1.54.42-1.54,1.22s.49,1.18,1.58,1.18a2,2,0,0,0,1.54-.46,1.59,1.59,0,0,0,.35-1.19Z"/><path d="M167.45,12.3a1.64,1.64,0,0,1-1.75-1.83V2.33h1v8.1c0,.67.22,1,.92,1h.55v.87Z"/><path d="M171.61,12.3a1.64,1.64,0,0,1-1.75-1.83V2.33h1v8.1c0,.67.22,1,.92,1h.55v.87Z"/><path d="M178.77,6.22V12.3h-1V6.22h-.88V5.45h.88V4.15a1.68,1.68,0,0,1,1.75-1.85h.73v.87h-.55c-.64,0-.92.38-.92,1V5.45h1.47v.77Z"/><path d="M186.28,12.3v-.77a2.53,2.53,0,0,1-1.95.85,2.45,2.45,0,0,1-1.78-.64,2.57,2.57,0,0,1-.7-1.93V5.41h1V9.65c0,1.22.64,1.83,1.68,1.83a1.63,1.63,0,0,0,1.72-1.83V5.41h1V12.3Zm-3.21-8.4a.63.63,0,0,1-.63-.63.63.63,0,1,1,1.26,0A.63.63,0,0,1,183.08,3.89Zm3,0a.63.63,0,0,1-.63-.63.63.63,0,1,1,1.26,0A.63.63,0,0,1,186,3.89Z"/><path d="M193.65,6.72a1.44,1.44,0,0,0-1.19-.5,1.68,1.68,0,0,0-1.65,1.85V12.3h-1V5.41h1v.84a2.31,2.31,0,0,1,1.93-.92,2.12,2.12,0,0,1,1.65.64Z"/><path d="M203.08,12.3v-.66a2.42,2.42,0,0,1-2,.74,2.46,2.46,0,0,1-1.95-.63,2,2,0,0,1-.52-1.4c0-1.2.84-2,2.38-2h2.07V7.7c0-1-.5-1.51-1.76-1.51a1.81,1.81,0,0,0-1.74.78l-.69-.63a2.67,2.67,0,0,1,2.44-1c1.85,0,2.76.8,2.76,2.3V12.3Zm0-3.18h-1.93c-1,0-1.54.42-1.54,1.22s.49,1.18,1.58,1.18a2,2,0,0,0,1.54-.46,1.59,1.59,0,0,0,.35-1.19Z"/><path d="M208.26,12.3a1.64,1.64,0,0,1-1.75-1.83V2.33h1v8.1c0,.67.22,1,.92,1H209v.87Z"/><path d="M212.42,12.3a1.64,1.64,0,0,1-1.75-1.83V2.33h1v8.1c0,.67.22,1,.92,1h.55v.87Z"/><path d="M215.13,9.12c0,1.51.71,2.38,2,2.38a2.26,2.26,0,0,0,1.81-.78l.69.6a3.16,3.16,0,0,1-2.52,1.06c-1.82,0-3-1.09-3-3.53,0-2.23,1.08-3.53,2.83-3.53s2.83,1.29,2.83,3.33v.46Zm3.43-1.91a1.77,1.77,0,0,0-3.22,0,2.9,2.9,0,0,0-.21,1.15h3.64A2.92,2.92,0,0,0,218.57,7.21Z"/><path d="M185.18,22.19h-2.65v4.1h-1.07v-10h3.71a2.84,2.84,0,0,1,3.08,2.93A2.85,2.85,0,0,1,185.18,22.19Zm-.1-4.92h-2.55v4h2.55a1.89,1.89,0,0,0,2.12-2A1.88,1.88,0,0,0,185.08,17.28Z"/><path d="M194.39,25.6a2.88,2.88,0,0,1-4,0,3.7,3.7,0,0,1-.84-2.75,3.7,3.7,0,0,1,.84-2.75,2.88,2.88,0,0,1,4,0,3.7,3.7,0,0,1,.84,2.75A3.7,3.7,0,0,1,194.39,25.6Zm-.71-4.87a1.77,1.77,0,0,0-1.26-.5,1.74,1.74,0,0,0-1.25.5,3,3,0,0,0-.56,2.13,3,3,0,0,0,.56,2.13,1.73,1.73,0,0,0,1.25.5,1.77,1.77,0,0,0,1.26-.5,3,3,0,0,0,.55-2.13A3,3,0,0,0,193.68,20.72Z"/><path d="M201.74,26.3v-.77a2.53,2.53,0,0,1-1.95.85,2.45,2.45,0,0,1-1.78-.64,2.57,2.57,0,0,1-.7-1.93v-4.4h1v4.24c0,1.22.64,1.83,1.68,1.83a1.63,1.63,0,0,0,1.72-1.83V19.41h1V26.3Z"/><path d="M209.1,20.72a1.44,1.44,0,0,0-1.19-.5,1.68,1.68,0,0,0-1.65,1.85V26.3h-1V19.41h1v.84a2.31,2.31,0,0,1,1.93-.92,2.12,2.12,0,0,1,1.65.64Z"/><path d="M216.94,26.3H216l-2.52-6.89h1.09l1.88,5.53,1.89-5.53h1.09Z"/><path d="M225.18,25.6a2.88,2.88,0,0,1-4,0,3.7,3.7,0,0,1-.84-2.75,3.7,3.7,0,0,1,.84-2.75,2.88,2.88,0,0,1,4,0,3.7,3.7,0,0,1,.84,2.75A3.7,3.7,0,0,1,225.18,25.6Zm-.71-4.87a1.77,1.77,0,0,0-1.26-.5,1.74,1.74,0,0,0-1.25.5,3,3,0,0,0-.56,2.13A3,3,0,0,0,222,25a1.73,1.73,0,0,0,1.25.5,1.77,1.77,0,0,0,1.26-.5,3,3,0,0,0,.55-2.13A3,3,0,0,0,224.46,20.72Z"/><path d="M232.53,26.3v-.77a2.53,2.53,0,0,1-1.95.85,2.45,2.45,0,0,1-1.78-.64,2.57,2.57,0,0,1-.7-1.93v-4.4h1v4.24c0,1.22.64,1.83,1.68,1.83a1.63,1.63,0,0,0,1.72-1.83V19.41h1V26.3Z"/><path d="M238.21,26.38a3.8,3.8,0,0,1-2.83-1l.67-.67a2.82,2.82,0,0,0,2.14.8c1.13,0,1.83-.41,1.83-1.22,0-.6-.35-.94-1.15-1l-1.13-.1c-1.34-.11-2.06-.71-2.06-1.85s1.06-2,2.54-2a3.89,3.89,0,0,1,2.48.74l-.66.66a2.94,2.94,0,0,0-1.83-.55c-1,0-1.54.43-1.54,1.13s.34.94,1.21,1l1.11.1c1.21.11,2,.57,2,1.86S239.88,26.38,238.21,26.38Z"/><path d="M245.94,23v-.94h5.86V23Z"/><path d="M259.94,26.38c-1.74,0-3.05-1.18-3.05-3.53s1.32-3.53,3.05-3.53a2.73,2.73,0,0,1,2.27,1l-.69.64a1.89,1.89,0,0,0-1.58-.77,1.87,1.87,0,0,0-1.6.78,3,3,0,0,0-.45,1.85,3,3,0,0,0,.45,1.85,1.87,1.87,0,0,0,1.6.78,1.9,1.9,0,0,0,1.58-.78l.69.66A2.73,2.73,0,0,1,259.94,26.38Z"/><path d="M268.53,26.3V22a1.59,1.59,0,0,0-1.68-1.82A1.63,1.63,0,0,0,265.13,22V26.3h-1v-10h1v3.84a2.46,2.46,0,0,1,1.93-.84,2.33,2.33,0,0,1,2.48,2.55V26.3Z"/><path d="M272.62,23.12c0,1.51.71,2.38,2,2.38a2.26,2.26,0,0,0,1.81-.78l.69.6a3.16,3.16,0,0,1-2.52,1.06c-1.82,0-3-1.09-3-3.53,0-2.23,1.08-3.53,2.83-3.53s2.83,1.29,2.83,3.33v.46Zm3.43-1.91a1.77,1.77,0,0,0-3.22,0,2.9,2.9,0,0,0-.21,1.15h3.64A2.92,2.92,0,0,0,276.05,21.21Z"/><path d="M278.85,26.3v-.87l3.84-5.13h-3.63v-.9h4.79v.85L280,25.4h3.85v.9Z"/><path d="M291.63,26.3h-.9l-2.52-6.89h1.09l1.88,5.53,1.89-5.53h1.09Z"/><path d="M299.87,25.6a2.88,2.88,0,0,1-4,0,3.7,3.7,0,0,1-.84-2.75,3.7,3.7,0,0,1,.84-2.75,2.88,2.88,0,0,1,4,0,3.7,3.7,0,0,1,.84,2.75A3.7,3.7,0,0,1,299.87,25.6Zm-.71-4.87a1.77,1.77,0,0,0-1.26-.5,1.74,1.74,0,0,0-1.25.5,3,3,0,0,0-.56,2.13,3,3,0,0,0,.56,2.13,1.73,1.73,0,0,0,1.25.5,1.77,1.77,0,0,0,1.26-.5,3,3,0,0,0,.55-2.13A3,3,0,0,0,299.15,20.72Z"/><path d="M307.22,26.3v-.77a2.53,2.53,0,0,1-1.95.85,2.45,2.45,0,0,1-1.78-.64,2.57,2.57,0,0,1-.7-1.93v-4.4h1v4.24c0,1.22.64,1.83,1.68,1.83a1.63,1.63,0,0,0,1.72-1.83V19.41h1V26.3Z"/><path d="M312.9,26.38a3.8,3.8,0,0,1-2.83-1l.67-.67a2.82,2.82,0,0,0,2.14.8c1.13,0,1.83-.41,1.83-1.22,0-.6-.35-.94-1.15-1l-1.13-.1c-1.34-.11-2.06-.71-2.06-1.85s1.06-2,2.54-2a3.89,3.89,0,0,1,2.48.74l-.66.66a2.94,2.94,0,0,0-1.83-.55c-1,0-1.54.43-1.54,1.13s.34.94,1.21,1l1.11.1c1.21.11,2,.57,2,1.86S314.57,26.38,312.9,26.38Z"/><path d="M243.05,91.79a6.69,6.69,0,0,1-5.2-1.88l1.8-1.8a4.66,4.66,0,0,0,3.44,1.2c1.64,0,2.52-.62,2.52-1.76a1.58,1.58,0,0,0-.44-1.2,2.12,2.12,0,0,0-1.26-.5l-1.72-.24a4.83,4.83,0,0,1-2.76-1.18,3.76,3.76,0,0,1-1-2.8c0-2.54,1.88-4.32,5-4.32A6.1,6.1,0,0,1,248,79l-1.76,1.74a4,4,0,0,0-2.92-1c-1.48,0-2.2.82-2.2,1.8a1.37,1.37,0,0,0,.42,1,2.45,2.45,0,0,0,1.32.56l1.68.24a4.71,4.71,0,0,1,2.72,1.1,4,4,0,0,1,1.1,3C248.33,90.23,246,91.79,243.05,91.79Z" fill="#00843e"/><path d="M254,87.27a2.15,2.15,0,0,0,2.28,2.32,2.88,2.88,0,0,0,2.36-1l1.58,1.54a5,5,0,0,1-4,1.64c-2.46,0-4.82-1.12-4.82-5.34,0-3.4,1.84-5.32,4.54-5.32,2.9,0,4.54,2.12,4.54,5v1.16Zm3.72-2.9a1.94,1.94,0,0,0-3.48,0,2.86,2.86,0,0,0-.24,1.12h4A2.88,2.88,0,0,0,257.71,84.37Z" fill="#00843e"/><path d="M266.15,87.27a2.15,2.15,0,0,0,2.28,2.32,2.88,2.88,0,0,0,2.36-1l1.58,1.54a5,5,0,0,1-4,1.64c-2.46,0-4.82-1.12-4.82-5.34,0-3.4,1.84-5.32,4.54-5.32,2.9,0,4.54,2.12,4.54,5v1.16Zm3.72-2.9a1.94,1.94,0,0,0-3.48,0,2.86,2.86,0,0,0-.24,1.12h4A2.88,2.88,0,0,0,269.87,84.37Z" fill="#00843e"/><path d="M277.25,93.15h-2.44l5.7-17.2H283Z" fill="#00843e"/><path d="M285.73,91.67V77.42h2.78V89.19H295v2.48Z" fill="#00843e"/><path d="M303.57,91.67v-.9a3.17,3.17,0,0,1-2.56,1,3.56,3.56,0,0,1-2.66-.92,3.34,3.34,0,0,1-.86-2.34c0-1.66,1.14-3,3.56-3h2.46V85c0-1.14-.56-1.64-1.94-1.64a2.24,2.24,0,0,0-2,.86l-1.66-1.62a4.38,4.38,0,0,1,3.76-1.44c2.92,0,4.44,1.24,4.44,3.68v6.86Zm-.06-4.4h-2.06c-.94,0-1.46.44-1.46,1.18s.48,1.2,1.5,1.2a2.06,2.06,0,0,0,1.64-.5,1.71,1.71,0,0,0,.38-1.32Z" fill="#00843e"/><path d="M314.25,91.79c-2.08,0-4.66-1.12-4.66-5.34s2.58-5.32,4.66-5.32a4.44,4.44,0,0,1,3.44,1.4l-1.76,1.76a2.1,2.1,0,0,0-1.68-.82,1.8,1.8,0,0,0-1.48.68,3.53,3.53,0,0,0-.58,2.3,3.6,3.6,0,0,0,.58,2.32,1.8,1.8,0,0,0,1.48.68,2.1,2.1,0,0,0,1.68-.82l1.76,1.74A4.45,4.45,0,0,1,314.25,91.79Z" fill="#00843e"/></svg>