<svg id="Ebene_1" data-name="Ebene 1" xmlns="http://www.w3.org/2000/svg" viewBox="0 0 316.13 90.5"><defs><style>.cls-1{fill:#008b3b;}.cls-2{fill:#005095;}.cls-3{fill:#1d1d1b;}</style></defs><path class="cls-1" d="M62.21,43.22c3.2,17.47-7.76,36.49-21.7,47.28A112.75,112.75,0,0,0,72.66,71.18c26.87-22.54,39.67-51.51,28.6-64.7A16.89,16.89,0,0,0,94,1.53C78.29,7.58,59.09,26.19,62.21,43.22Z"/><path class="cls-2" d="M46.56,44.69c.17-15.12,17.82-35.26,41-44.56C73-1.17,51.79,7.29,32.58,23.41,5.72,46-7.09,74.91,4,88.11l.25.26C18.48,89.51,46.29,70.22,46.56,44.69Z"/><path class="cls-3" d="M135.37,59.92c-4.32,0-7.6-.92-10.4-3.76l3.6-3.6a9.32,9.32,0,0,0,6.88,2.4c3.28,0,5-1.24,5-3.52a3.17,3.17,0,0,0-.88-2.4,4.24,4.24,0,0,0-2.52-1l-3.44-.48a9.66,9.66,0,0,1-5.52-2.36,7.53,7.53,0,0,1-2-5.6c0-5.08,3.76-8.64,9.92-8.64,3.92,0,6.76,1,9.2,3.32l-3.52,3.48a7.93,7.93,0,0,0-5.84-2c-3,0-4.4,1.64-4.4,3.6a2.75,2.75,0,0,0,.84,2,4.9,4.9,0,0,0,2.64,1.12l3.36.48a9.42,9.42,0,0,1,5.44,2.2,8,8,0,0,1,2.2,6C145.93,56.8,141.33,59.92,135.37,59.92Z"/><path class="cls-3" d="M174.21,49h-5.48V59.68h-5.56V31.2h11c5.88,0,9.4,4,9.4,8.88S180.09,49,174.21,49Zm-.28-12.8h-5.2V44h5.2c2.52,0,4.12-1.56,4.12-3.88A3.79,3.79,0,0,0,173.93,36.16Z"/><path class="cls-3" d="M200.29,59.68V31.2h5.56V59.68Z"/><path class="cls-3" d="M235.37,36.16V59.68h-5.56V36.16h-7.44v-5h20.44v5Z"/><path class="cls-3" d="M259.33,59.68V31.2h18.76v5h-13.2v6.68h11.24v5H264.89v6.92h13.2v5Z"/><path class="cls-3" d="M309.77,59.68l-5.52-9.92-5.48,9.92h-6.36l8.84-14.6L293,31.2h6.32l5,9.2,5-9.2h6.28l-8.28,13.88,8.88,14.6Z"/><rect class="cls-3" x="126.15" y="23.22" width="189.92" height="0.8"/><path class="cls-3" d="M129.75,16.31a3.39,3.39,0,0,1-3.58-3.47V6h1.1v6.78a2.49,2.49,0,1,0,5,0V6h1.09v6.87A3.4,3.4,0,0,1,129.75,16.31Zm-2-11.45V3.58h1V4.86Zm3.06,0V3.58h1V4.86Z"/><path class="cls-3" d="M141.09,15.69a2.46,2.46,0,0,1-1.72.62,2.26,2.26,0,0,1-2-.94v.85h-1V6h1v4a2.26,2.26,0,0,1,2-.91,2.41,2.41,0,0,1,1.72.62,4.19,4.19,0,0,1,.87,3A4.19,4.19,0,0,1,141.09,15.69ZM139.15,10c-1.54,0-1.78,1.33-1.78,2.71s.24,2.71,1.78,2.71,1.77-1.33,1.77-2.71S140.69,10,139.15,10Z"/><path class="cls-3" d="M145.18,13c0,1.56.74,2.45,2.09,2.45a2.33,2.33,0,0,0,1.86-.8l.71.61a3.23,3.23,0,0,1-2.6,1.1c-1.87,0-3.09-1.12-3.09-3.63,0-2.29,1.11-3.63,2.91-3.63S150,10.37,150,12.48V13Zm3.53-2a1.82,1.82,0,0,0-3.31,0,3,3,0,0,0-.22,1.19h3.75A3,3,0,0,0,148.71,11Z"/><path class="cls-3" d="M156.49,10.49a1.49,1.49,0,0,0-1.23-.52,1.73,1.73,0,0,0-1.7,1.9v4.35h-1V9.14h1V10a2.39,2.39,0,0,1,2-.95,2.19,2.19,0,0,1,1.7.66Z"/><path class="cls-3" d="M162.83,16.22v-.67a3.27,3.27,0,0,1-4.05.11,2,2,0,0,1-.54-1.44c0-1.24.87-2,2.45-2h2.14V11.5c0-1-.52-1.56-1.82-1.56a1.87,1.87,0,0,0-1.79.81l-.7-.65a2.73,2.73,0,0,1,2.5-1c1.9,0,2.84.82,2.84,2.36v4.81Zm0-3.27h-2c-1.07,0-1.59.44-1.59,1.26s.51,1.21,1.63,1.21a2.06,2.06,0,0,0,1.58-.48,1.6,1.6,0,0,0,.37-1.22Z"/><path class="cls-3" d="M168.51,16.22a1.68,1.68,0,0,1-1.8-1.88V6h1v8.32c0,.69.23,1,.95,1h.56v.89Z"/><path class="cls-3" d="M173.15,16.22a1.68,1.68,0,0,1-1.8-1.88V6h1v8.32c0,.69.24,1,1,1h.56v.89Z"/><path class="cls-3" d="M181.23,10v6.25h-1V10h-.91V9.18h.91V7.84a1.73,1.73,0,0,1,1.8-1.9h.75v.89h-.56c-.67,0-1,.39-1,1V9.18h1.51V10Z"/><path class="cls-3" d="M189.32,16.22v-.79a2.58,2.58,0,0,1-2,.88,2.51,2.51,0,0,1-1.83-.66,2.63,2.63,0,0,1-.72-2V9.14h1V13.5c0,1.25.66,1.89,1.72,1.89a1.68,1.68,0,0,0,1.78-1.89V9.14h1v7.08Zm-3.83-8.67V6.27h1V7.55Zm3,0V6.27h1V7.55Z"/><path class="cls-3" d="M197.25,10.49A1.46,1.46,0,0,0,196,10a1.73,1.73,0,0,0-1.7,1.9v4.35h-1V9.14h1V10a2.39,2.39,0,0,1,2-.95,2.2,2.2,0,0,1,1.7.66Z"/><path class="cls-3" d="M207.68,16.22v-.67a3.27,3.27,0,0,1-4.05.11,2.06,2.06,0,0,1-.53-1.44c0-1.24.86-2,2.45-2h2.13V11.5c0-1-.52-1.56-1.82-1.56a1.86,1.86,0,0,0-1.78.81l-.71-.65a2.76,2.76,0,0,1,2.51-1c1.9,0,2.84.82,2.84,2.36v4.81Zm0-3.27h-2c-1.06,0-1.58.44-1.58,1.26s.5,1.21,1.63,1.21a2.08,2.08,0,0,0,1.58-.48,1.6,1.6,0,0,0,.36-1.22Z"/><path class="cls-3" d="M213.37,16.22a1.68,1.68,0,0,1-1.8-1.88V6h1v8.32c0,.69.23,1,1,1h.57v.89Z"/><path class="cls-3" d="M218,16.22a1.68,1.68,0,0,1-1.8-1.88V6h1v8.32c0,.69.23,1,.95,1h.56v.89Z"/><path class="cls-3" d="M221.16,13c0,1.56.73,2.45,2.09,2.45a2.31,2.31,0,0,0,1.85-.8l.71.61a3.21,3.21,0,0,1-2.59,1.1c-1.88,0-3.1-1.12-3.1-3.63,0-2.29,1.11-3.63,2.91-3.63s2.91,1.32,2.91,3.43V13Zm3.53-2a1.83,1.83,0,0,0-3.32,0,3,3,0,0,0-.21,1.19h3.74A3.21,3.21,0,0,0,224.69,11Z"/></svg>