<svg xmlns="http://www.w3.org/2000/svg" viewBox="0 0 1999.79 582.92"><defs><style>.cls-1{isolation:isolate;}.cls-2{mix-blend-mode:multiply;}.cls-3{fill:#00843e;}.cls-4{fill:#154f90;}</style></defs><title>logo_de</title><g class="cls-1"><g id="DE"><g id="Text"><g class="cls-2"><path class="cls-3" d="M1870.87,1485.51h-14.68l-16.57-54.66L1823,1485.51h-14.67l-24-90.09h18.34l13.92,56.81,16.45-56.81h13.16l16.45,56.81,14-56.81H1895Z" transform="translate(-500 -927.51)"/><path class="cls-3" d="M1923.76,1408.33v-13.41h16.82v13.41Zm.25,77.18v-65.92h16.45v65.92Z" transform="translate(-500 -927.51)"/><path class="cls-3" d="M2000.56,1510.43c-10.13,0-17.09-2-23.92-8.6l10.25-10.37c3.67,3.54,7.34,5.06,12.91,5.06,9.87,0,13.28-7,13.28-13.67v-6.7c-4.3,4.8-9.23,6.58-15.69,6.58s-12-2.16-15.69-5.82c-6.2-6.2-6.7-14.68-6.7-26.2s.5-19.86,6.7-26.06c3.67-3.67,9.37-5.82,15.82-5.82,7,0,11.51,1.9,16.07,7v-6.2h15.94v63.51C2029.53,1498.92,2018.27,1510.43,2000.56,1510.43Zm1.64-76.8c-9.74,0-10.75,8.35-10.75,17.08s1,17.21,10.75,17.21,10.88-8.48,10.88-17.21S2011.94,1433.63,2002.2,1433.63Z" transform="translate(-500 -927.51)"/><path class="cls-3" d="M2089.76,1510.43c-10.13,0-17.09-2-23.92-8.6l10.25-10.37c3.67,3.54,7.34,5.06,12.91,5.06,9.87,0,13.28-7,13.28-13.67v-6.7c-4.3,4.8-9.23,6.58-15.69,6.58s-12-2.16-15.69-5.82c-6.2-6.2-6.7-14.68-6.7-26.2s.5-19.86,6.7-26.06c3.67-3.67,9.37-5.82,15.82-5.82,7,0,11.51,1.9,16.07,7v-6.2h15.94v63.51C2118.73,1498.92,2107.47,1510.43,2089.76,1510.43Zm1.64-76.8c-9.74,0-10.75,8.35-10.75,17.08s1,17.21,10.75,17.21,10.88-8.48,10.88-17.21S2101.14,1433.63,2091.4,1433.63Z" transform="translate(-500 -927.51)"/><path class="cls-3" d="M2169.09,1457.67c0,8.48,5.18,14.68,14.42,14.68,7.21,0,10.75-2,14.93-6.2l10,9.74c-6.71,6.71-13.16,10.38-25.06,10.38-15.56,0-30.49-7.09-30.49-33.78,0-21.51,11.64-33.66,28.72-33.66,18.35,0,28.72,13.41,28.72,31.5v7.34Zm23.53-18.34a12.28,12.28,0,0,0-22,0,18,18,0,0,0-1.51,7.08h25A18.23,18.23,0,0,0,2192.62,1439.33Z" transform="translate(-500 -927.51)"/><path class="cls-3" d="M2280.3,1437.56c-2.53-2.53-4.68-3.93-8.73-3.93-5.06,0-10.63,3.8-10.63,12.15v39.73h-16.45v-65.92h16.07v6.33c3.17-3.8,9.49-7.09,16.58-7.09,6.45,0,11,1.64,15.56,6.2Z" transform="translate(-500 -927.51)"/><path class="cls-3" d="M2341.66,1485.51c-13.41,0-19.1-9.49-19.1-18.85V1434h-7v-12.52h7V1402H2339v19.49h11.64V1434H2339v31.63c0,3.8,1.77,5.95,5.69,5.95h6v13.92Z" transform="translate(-500 -927.51)"/><path class="cls-3" d="M2418,1485.51v-5.69c-4.43,4.42-8.6,6.32-16.2,6.32s-12.9-1.9-16.82-5.82c-3.55-3.67-5.45-9-5.45-14.8,0-10.5,7.22-19.11,22.53-19.11h15.56v-3.29c0-7.21-3.54-10.37-12.27-10.37-6.33,0-9.24,1.52-12.66,5.44l-10.5-10.25c6.46-7.09,12.78-9.11,23.79-9.11,18.47,0,28.09,7.84,28.09,23.28v43.4Zm-.38-27.84h-13c-6,0-9.24,2.79-9.24,7.47s3,7.59,9.49,7.59c4.56,0,7.47-.38,10.38-3.16,1.77-1.65,2.4-4.31,2.4-8.35Z" transform="translate(-500 -927.51)"/><path class="cls-3" d="M2489.32,1485.51c-13.54,0-19.23-9.49-19.23-18.85v-71.24h16.45v70.22c0,3.93,1.64,5.95,5.82,5.95h6.32v13.92Z" transform="translate(-500 -927.51)"/></g></g><g id="Logo"><path class="cls-3" d="M893.54,1200.94c20.21,110.47-49.11,230.79-137.25,299.06,65.53-24.54,136.35-66,203.38-122.22,169.94-142.59,250.93-325.84,180.91-409.29-11.91-14.19-27.49-24.49-45.87-31.27C995.28,975.49,873.82,1093.2,893.54,1200.94Z" transform="translate(-500 -927.51)"/><path class="cls-4" d="M794.56,1210.24c1-95.65,112.69-223.1,259.21-281.9-92.15-8.23-226.19,45.29-347.68,147.24-169.93,142.59-250.93,325.84-180.9,409.29.49.59,1.07,1.11,1.58,1.69C616.93,1493.71,792.83,1371.74,794.56,1210.24Z" transform="translate(-500 -927.51)"/><path d="M1356.35,1306.55c-27.32,0-48.07-5.81-65.78-23.78l22.77-22.77c11.39,11.39,26.82,15.18,43.52,15.18,20.74,0,31.88-7.84,31.88-22.26,0-6.32-1.77-11.64-5.57-15.18-3.54-3.29-7.59-5.06-15.94-6.33l-21.76-3c-15.43-2.28-26.81-7.09-34.91-14.93-8.6-8.6-12.9-20.24-12.9-35.42,0-32.13,23.78-54.65,62.74-54.65,24.79,0,42.76,6.08,58.19,21l-22.27,22c-11.38-10.88-25-12.39-36.93-12.39-18.72,0-27.83,10.37-27.83,22.77a17.4,17.4,0,0,0,5.31,12.9c3.54,3.29,9.36,6.07,16.7,7.09l21.25,3c16.45,2.28,26.82,6.83,34.41,13.92,9.61,9.1,13.91,22.26,13.91,38.2C1423.14,1286.82,1394.05,1306.55,1356.35,1306.55Z" transform="translate(-500 -927.51)"/><path d="M1602,1237.23h-34.66V1305h-35.17V1124.9H1602c37.19,0,59.45,25.56,59.45,56.17S1639.23,1237.23,1602,1237.23Zm-1.77-81h-32.89v49.34h32.89c15.94,0,26.06-9.87,26.06-24.54S1616.21,1156.27,1600.27,1156.27Z" transform="translate(-500 -927.51)"/><path d="M1767,1305V1124.9h35.16V1305Z" transform="translate(-500 -927.51)"/><path d="M1988.92,1156.27V1305h-35.17V1156.27h-47V1124.9H2036v31.37Z" transform="translate(-500 -927.51)"/><path d="M2140.5,1305V1124.9h118.65v31.37h-83.49v42.25h71.1v31.38h-71.1v43.77h83.49V1305Z" transform="translate(-500 -927.51)"/><path d="M2459.56,1305l-34.91-62.75L2390,1305h-40.23l55.91-92.35-52.37-87.79h40l31.37,58.19,31.62-58.19H2496l-52.36,87.79,56.16,92.35Z" transform="translate(-500 -927.51)"/><rect x="798.04" y="146.88" width="1201.42" height="5.06"/><path d="M1320.77,1030.69c-13.12,0-22.6-9-22.6-22V965.26h6.92v42.92c0,9.84,6.2,16.31,15.68,16.31s15.76-6.47,15.76-16.31V965.26h6.93v43.47C1343.46,1021.66,1333.89,1030.69,1320.77,1030.69Zm-12.94-72.45v-8.1h6.56v8.1Zm19.32,0v-8.1h6.56v8.1Z" transform="translate(-500 -927.51)"/><path d="M1392.55,1026.77c-2.36,2.37-6.37,3.92-10.93,3.92-4.92,0-9-1.19-12.67-5.92v5.37h-6.56V965.26H1369V990.5c3.65-4.64,7.75-5.74,12.67-5.74,4.56,0,8.57,1.55,10.93,3.92,4.56,4.55,5.47,12,5.47,19S1397.11,1022.21,1392.55,1026.77Zm-12.3-36.18c-9.75,0-11.3,8.39-11.3,17.13s1.55,17.13,11.3,17.13,11.21-8.38,11.21-17.13S1390,990.59,1380.25,990.59Z" transform="translate(-500 -927.51)"/><path d="M1418.42,1009.46c0,9.84,4.64,15.48,13.2,15.48,5.2,0,8.21-1.54,11.76-5.1l4.47,3.92c-4.56,4.56-8.75,6.93-16.4,6.93-11.85,0-19.59-7.11-19.59-23,0-14.49,7-23,18.4-23,11.57,0,18.41,8.39,18.41,21.69v3Zm22.32-12.4a11.52,11.52,0,0,0-21,0c-1,2.46-1.18,3.83-1.36,7.47h23.69C1441.92,1000.89,1441.74,999.52,1440.74,997.06Z" transform="translate(-500 -927.51)"/><path d="M1489.93,993.87c-2.47-2.46-4.29-3.28-7.75-3.28-6.56,0-10.75,5.2-10.75,12v27.52h-6.56V985.31h6.56v5.47c2.46-3.74,7.38-6,12.57-6,4.29,0,7.57,1,10.75,4.19Z" transform="translate(-500 -927.51)"/><path d="M1530,1030.14v-4.28c-3.65,3.64-6.93,4.83-12.94,4.83-6.2,0-9.84-1.19-12.67-4.1a13,13,0,0,1-3.37-9.11c0-7.84,5.47-13,15.49-13H1530v-4.28c0-6.56-3.28-9.84-11.48-9.84-5.74,0-8.66,1.37-11.3,5.1l-4.47-4.1c4-5.19,8.57-6.65,15.86-6.65,12,0,18,5.19,18,15v30.43Zm0-20.68h-12.58c-6.74,0-10,2.73-10,7.92s3.19,7.66,10.29,7.66c3.83,0,7.21-.27,10-3,1.55-1.46,2.28-4,2.28-7.75Z" transform="translate(-500 -927.51)"/><path d="M1566,1030.14c-7.83,0-11.39-5.1-11.39-11.94V965.26h6.56v52.67c0,4.37,1.46,6.56,6,6.56h3.55v5.65Z" transform="translate(-500 -927.51)"/><path d="M1595.31,1030.14c-7.83,0-11.39-5.1-11.39-11.94V965.26h6.56v52.67c0,4.37,1.46,6.56,6,6.56h3.55v5.65Z" transform="translate(-500 -927.51)"/><path d="M1646.41,990.59v39.55h-6.56V990.59h-5.74v-5h5.74v-8.47c0-6.65,3.74-12,11.4-12H1656v5.65h-3.55c-4.19,0-6,2.46-6,6.56v8.29H1656v5Z" transform="translate(-500 -927.51)"/><path d="M1697.61,1030.14v-5a16.42,16.42,0,0,1-12.66,5.56c-4.83,0-8.84-1.46-11.57-4.2-3.19-3.09-4.56-7.38-4.56-12.57V985.31h6.56v27.61c0,7.93,4.2,11.93,10.94,11.93s11.2-4.09,11.2-11.93V985.31h6.56v44.83Zm-24.23-54.85v-8.11h6.56v8.11Zm19.32,0v-8.11h6.56v8.11Z" transform="translate(-500 -927.51)"/><path d="M1747.81,993.87c-2.46-2.46-4.28-3.28-7.75-3.28-6.56,0-10.75,5.2-10.75,12v27.52h-6.56V985.31h6.56v5.47c2.46-3.74,7.38-6,12.57-6,4.29,0,7.57,1,10.76,4.19Z" transform="translate(-500 -927.51)"/><path d="M1813.76,1030.14v-4.28c-3.65,3.64-6.93,4.83-12.94,4.83-6.2,0-9.84-1.19-12.67-4.1a13,13,0,0,1-3.37-9.11c0-7.84,5.47-13,15.49-13h13.49v-4.28c0-6.56-3.28-9.84-11.48-9.84-5.74,0-8.66,1.37-11.3,5.1l-4.47-4.1c4-5.19,8.57-6.65,15.86-6.65,12,0,18,5.19,18,15v30.43Zm0-20.68h-12.58c-6.74,0-10,2.73-10,7.92s3.19,7.66,10.29,7.66c3.83,0,7.21-.27,10-3,1.55-1.46,2.28-4,2.28-7.75Z" transform="translate(-500 -927.51)"/><path d="M1849.73,1030.14c-7.83,0-11.39-5.1-11.39-11.94V965.26h6.56v52.67c0,4.37,1.46,6.56,6,6.56h3.55v5.65Z" transform="translate(-500 -927.51)"/><path d="M1879.06,1030.14c-7.83,0-11.39-5.1-11.39-11.94V965.26h6.56v52.67c0,4.37,1.46,6.56,6,6.56h3.55v5.65Z" transform="translate(-500 -927.51)"/><path d="M1899,1009.46c0,9.84,4.65,15.48,13.21,15.48,5.2,0,8.2-1.54,11.76-5.1l4.46,3.92c-4.55,4.56-8.75,6.93-16.4,6.93-11.84,0-19.59-7.11-19.59-23,0-14.49,7-23,18.41-23,11.57,0,18.4,8.39,18.4,21.69v3Zm22.33-12.4a11.52,11.52,0,0,0-21,0c-1,2.46-1.18,3.83-1.37,7.47h23.69C1922.52,1000.89,1922.34,999.52,1921.34,997.06Z" transform="translate(-500 -927.51)"/></g></g></g></svg>