<svg xmlns="http://www.w3.org/2000/svg" viewBox="0 0 1999.79 582.32"><defs><style>.cls-1{isolation:isolate;}.cls-2{mix-blend-mode:multiply;}.cls-3{fill:#00843e;}.cls-4{fill:#154f90;}</style></defs><title>logo_de</title><g class="cls-1"><g id="Ebene_2" data-name="Ebene 2"><g id="DE"><g id="Text"><g class="cls-2"><path class="cls-3" d="M851,558l-17.17-35.08H821.49V558H804.32V470.06h34.46c17.91,0,28.53,12.23,28.53,26.92,0,12.35-7.53,20-16.06,23.1L870.89,558Zm-13.34-72.62H821.49v23.22h16.18c7.53,0,12.47-4.82,12.47-11.61S845.2,485.37,837.67,485.37Z"/><path class="cls-3" d="M915,530.82c0,8.27,5.06,14.33,14.08,14.33,7,0,10.5-2,14.57-6.05l9.76,9.51c-6.55,6.55-12.84,10.13-24.45,10.13-15.19,0-29.76-6.92-29.76-33,0-21,11.36-32.85,28-32.85,17.91,0,28,13.09,28,30.75v7.16Zm23-17.91a12,12,0,0,0-21.49,0,17.74,17.74,0,0,0-1.48,6.92h24.45A17.73,17.73,0,0,0,937.95,512.91Z"/><path class="cls-3" d="M1010.81,582.32c-9.88,0-16.67-2-23.34-8.4l10-10.13c3.58,3.46,7.16,4.94,12.6,4.94,9.63,0,13-6.79,13-13.34v-6.55c-4.2,4.69-9,6.42-15.32,6.42s-11.73-2.1-15.31-5.68c-6.05-6.05-6.55-14.33-6.55-25.57s.49-19.39,6.55-25.44c3.58-3.58,9.14-5.68,15.44-5.68,6.79,0,11.24,1.85,15.68,6.79v-6.05h15.56v62C1039.09,571.09,1028.1,582.32,1010.81,582.32Zm1.61-75c-9.51,0-10.5,8.15-10.5,16.67s1,16.8,10.5,16.8S1023,532.55,1023,524,1021.93,507.36,1012.42,507.36Z"/><path class="cls-3" d="M1075.4,482.66V469.56h16.43v13.09Zm.25,75.34V493.65h16.06V558Z"/><path class="cls-3" d="M1172.59,550.83c-4,4.2-10.5,7.9-20,7.9s-15.93-3.71-19.88-7.9c-5.8-6.05-7.29-13.34-7.29-25.07s1.48-18.9,7.29-24.95c4-4.2,10.37-7.9,19.88-7.9s16.06,3.71,20,7.9c5.8,6.05,7.29,13.34,7.29,24.95S1178.4,544.78,1172.59,550.83Zm-12.47-40.63a10.15,10.15,0,0,0-7.53-2.84,9.86,9.86,0,0,0-7.41,2.84c-3.33,3.33-3.71,8.89-3.71,15.56s.37,12.35,3.71,15.68a9.86,9.86,0,0,0,7.41,2.84,10.15,10.15,0,0,0,7.53-2.84c3.33-3.33,3.71-9,3.71-15.68S1163.45,513.53,1160.12,510.2Z"/><path class="cls-3" d="M1289.92,558h-14.33l-16.18-53.35L1243.24,558h-14.33l-23.47-87.94h17.91l13.58,55.45L1253,470.06h12.84l16.06,55.45,13.71-55.45h17.91Z"/><path class="cls-3" d="M1341.54,482.66V469.56H1358v13.09Zm.25,75.34V493.65h16.06V558Z"/><path class="cls-3" d="M1414.41,558c-13.09,0-18.65-9.26-18.65-18.4V507.73H1389V495.5h6.79v-19h16.06v19h11.36v12.23h-11.36V538.6c0,3.71,1.73,5.8,5.56,5.8h5.8V558Z"/><path class="cls-3" d="M1476.4,558c-13.09,0-18.65-9.26-18.65-18.4V507.73H1451V495.5h6.79v-19h16.06v19h11.36v12.23h-11.36V538.6c0,3.71,1.73,5.8,5.56,5.8h5.8V558Z"/><path class="cls-3" d="M1530.49,530.82c0,8.27,5.06,14.33,14.08,14.33,7,0,10.5-2,14.57-6.05l9.76,9.51c-6.55,6.55-12.84,10.13-24.45,10.13-15.19,0-29.76-6.92-29.76-33,0-21,11.36-32.85,28-32.85,17.91,0,28,13.09,28,30.75v7.16Zm23-17.91a12,12,0,0,0-21.49,0,17.72,17.72,0,0,0-1.48,6.92h24.45A17.74,17.74,0,0,0,1553.46,512.91Z"/><path class="cls-3" d="M1641.52,558v-38.9c0-8.77-5.56-11.73-10.62-11.73s-10.75,3-10.75,11.73V558H1604.1V493.65h15.69v5.93a22,22,0,0,1,16.06-6.67c6.42,0,11.61,2.1,15.19,5.68,5.19,5.19,6.55,11.24,6.55,18.28V558Z"/><path class="cls-3" d="M1740.69,552.93c-3.58,3.58-9.39,5.8-15.69,5.8-6.79,0-11.61-1.85-16.06-6.79V558h-15.56V470.06h16.06v29.27c4.2-4.69,9-6.42,15.56-6.42,6.3,0,12.1,2.22,15.69,5.8,6.42,6.42,6.55,17.41,6.55,27S1747.11,546.51,1740.69,552.93Zm-20.38-45.57c-9.63,0-10.87,7.9-10.87,18.4s1.24,18.53,10.87,18.53,10.87-8,10.87-18.53S1729.95,507.36,1720.31,507.36Z"/><path class="cls-3" d="M1814,558v-5.56c-4.32,4.32-8.4,6.17-15.81,6.17s-12.6-1.85-16.43-5.68c-3.46-3.58-5.31-8.77-5.31-14.45,0-10.25,7-18.65,22-18.65h15.19v-3.21c0-7-3.46-10.13-12-10.13-6.18,0-9,1.48-12.35,5.31l-10.25-10c6.3-6.92,12.47-8.89,23.22-8.89,18,0,27.42,7.66,27.42,22.72V558Zm-.37-27.17H1801c-5.8,0-9,2.72-9,7.29s3,7.41,9.26,7.41c4.45,0,7.29-.37,10.13-3.09,1.73-1.61,2.35-4.2,2.35-8.15Z"/><path class="cls-3" d="M1891.11,558.74c-12.84,0-28.78-6.92-28.78-33s15.93-32.85,28.78-32.85c8.89,0,15.56,2.72,21.24,8.65l-10.87,10.87c-3.33-3.58-6.18-5.06-10.37-5.06a11.13,11.13,0,0,0-9.14,4.2c-2.47,3.09-3.58,7.41-3.58,14.2s1.11,11.24,3.58,14.33a11.13,11.13,0,0,0,9.14,4.2c4.2,0,7-1.48,10.38-5.06L1912.35,550C1906.67,555.89,1900,558.74,1891.11,558.74Z"/><path class="cls-3" d="M1980.28,558V518.72c0-8.52-5.43-11.36-10.5-11.36s-10.37,3-10.37,11.36V558h-16.06V470.06h16.06v29.52a21.26,21.26,0,0,1,15.44-6.67c14.08,0,21.49,9.88,21.49,23.47V558Z"/></g></g><g id="Logo"><path class="cls-3" d="M393.54,273.42c20.22,110.47-49.11,230.79-137.25,299.06,65.53-24.54,136.35-66,203.38-122.22C629.61,307.67,710.6,124.43,640.58,41c-11.91-14.19-27.49-24.49-45.87-31.27C495.28,48,373.82,165.68,393.54,273.42Z"/><path class="cls-4" d="M294.56,282.72c1-95.65,112.69-223.1,259.21-281.89C461.62-7.41,327.58,46.12,206.09,148.06,36.16,290.66-44.84,473.9,25.19,557.35c.5.59,1.07,1.12,1.58,1.7C116.93,566.2,292.83,444.22,294.56,282.72Z"/><path d="M856.35,379c-27.32,0-48.07-5.81-65.78-23.78l22.77-22.77c11.39,11.39,26.82,15.18,43.52,15.18,20.74,0,31.88-7.84,31.88-22.26,0-6.32-1.77-11.63-5.57-15.18-3.54-3.29-7.59-5.06-15.94-6.33l-21.76-3c-15.43-2.28-26.82-7.09-34.91-14.93-8.6-8.61-12.9-20.24-12.9-35.42,0-32.13,23.78-54.65,62.74-54.65,24.79,0,42.76,6.07,58.19,21l-22.26,22c-11.39-10.88-25-12.39-36.94-12.39-18.72,0-27.83,10.37-27.83,22.77a17.37,17.37,0,0,0,5.31,12.9c3.54,3.29,9.36,6.07,16.7,7.09l21.25,3c16.44,2.28,26.82,6.83,34.41,13.92,9.62,9.11,13.92,22.26,13.92,38.2C923.14,359.3,894,379,856.35,379Z"/><path d="M1102,309.72h-34.66v67.81h-35.17V197.39H1102c37.19,0,59.45,25.55,59.45,56.17S1139.23,309.72,1102,309.72Zm-1.77-81h-32.89v49.33h32.89c15.94,0,26.06-9.87,26.06-24.54S1116.21,228.76,1100.27,228.76Z"/><path d="M1267,377.52V197.39h35.16V377.52Z"/><path d="M1488.92,228.76V377.52h-35.17V228.76H1406.7V197.39H1536v31.37Z"/><path d="M1640.5,377.52V197.39h118.65v31.37h-83.48V271h71.09v31.38h-71.09v43.77h83.48v31.37Z"/><path d="M1959.56,377.52l-34.92-62.75L1890,377.52h-40.23l55.91-92.34-52.37-87.79h40l31.37,58.19,31.62-58.19H1996l-52.36,87.79,56.16,92.34Z"/><rect x="798.04" y="146.88" width="1201.42" height="5.06"/><path d="M820.77,103.17c-13.12,0-22.6-9-22.6-22V37.75h6.93V80.66c0,9.84,6.2,16.31,15.67,16.31s15.77-6.47,15.77-16.31V37.75h6.93V81.21C843.46,94.15,833.89,103.17,820.77,103.17ZM807.83,30.73V22.62h6.56v8.11Zm19.32,0V22.62h6.56v8.11Z"/><path d="M892.55,99.25c-2.37,2.37-6.38,3.92-10.93,3.92-4.92,0-9-1.18-12.66-5.92v5.37h-6.56V37.75H869V63c3.64-4.65,7.75-5.74,12.66-5.74,4.56,0,8.57,1.55,10.93,3.92,4.56,4.55,5.47,12,5.47,19S897.11,94.7,892.55,99.25Zm-12.3-36.17c-9.75,0-11.3,8.38-11.3,17.13s1.55,17.13,11.3,17.13S891.46,89,891.46,80.21,890,63.08,880.25,63.08Z"/><path d="M918.42,81.94c0,9.84,4.65,15.49,13.21,15.49,5.2,0,8.2-1.55,11.76-5.1l4.47,3.92c-4.56,4.56-8.75,6.93-16.4,6.93-11.85,0-19.59-7.11-19.59-23,0-14.49,7-23,18.4-23,11.57,0,18.41,8.38,18.41,21.69v3Zm22.32-12.39a11.51,11.51,0,0,0-21,0c-1,2.46-1.19,3.82-1.37,7.47h23.69C941.92,73.37,941.74,72,940.74,69.55Z"/><path d="M989.93,66.36c-2.46-2.46-4.29-3.28-7.75-3.28-6.56,0-10.76,5.19-10.76,12v27.52h-6.56V57.79h6.56v5.47c2.46-3.74,7.38-6,12.58-6,4.28,0,7.56,1,10.75,4.19Z"/><path d="M1030,102.62V98.34c-3.64,3.64-6.93,4.83-12.94,4.83-6.2,0-9.84-1.18-12.66-4.1A12.92,12.92,0,0,1,1001,90c0-7.84,5.47-12.94,15.49-12.94H1030V72.74c0-6.56-3.28-9.84-11.48-9.84-5.74,0-8.65,1.37-11.3,5.1l-4.47-4.1c4-5.19,8.57-6.65,15.86-6.65,12,0,18,5.19,18,14.94v30.43Zm0-20.68h-12.58c-6.74,0-10,2.73-10,7.93s3.19,7.65,10.29,7.65c3.83,0,7.2-.27,10-3,1.55-1.46,2.28-4,2.28-7.74Z"/><path d="M1066,102.62c-7.83,0-11.39-5.1-11.39-11.94V37.75h6.56V90.41c0,4.37,1.46,6.56,6,6.56h3.55v5.65Z"/><path d="M1095.31,102.62c-7.83,0-11.39-5.1-11.39-11.94V37.75h6.56V90.41c0,4.37,1.46,6.56,6,6.56h3.55v5.65Z"/><path d="M1146.41,63.08v39.55h-6.56V63.08h-5.74v-5h5.74V49.59c0-6.65,3.74-12,11.39-12H1156v5.65h-3.55c-4.19,0-6,2.46-6,6.56v8.29H1156v5Z"/><path d="M1197.61,102.62v-5a16.43,16.43,0,0,1-12.66,5.56c-4.83,0-8.84-1.46-11.57-4.19-3.19-3.1-4.56-7.38-4.56-12.57V57.79h6.56V85.4c0,7.93,4.19,11.94,10.93,11.94s11.21-4.1,11.21-11.94V57.79h6.56v44.83Zm-24.23-54.85V39.66h6.56v8.11Zm19.32,0V39.66h6.56v8.11Z"/><path d="M1247.81,66.36c-2.46-2.46-4.28-3.28-7.75-3.28-6.56,0-10.75,5.19-10.75,12v27.52h-6.56V57.79h6.56v5.47c2.46-3.74,7.38-6,12.57-6,4.29,0,7.57,1,10.76,4.19Z"/><path d="M1313.76,102.62V98.34c-3.64,3.64-6.93,4.83-12.94,4.83-6.2,0-9.84-1.18-12.66-4.1a12.92,12.92,0,0,1-3.37-9.11c0-7.84,5.47-12.94,15.49-12.94h13.49V72.74c0-6.56-3.28-9.84-11.48-9.84-5.74,0-8.65,1.37-11.3,5.1l-4.47-4.1c4-5.19,8.57-6.65,15.86-6.65,12,0,18,5.19,18,14.94v30.43Zm0-20.68h-12.58c-6.74,0-10,2.73-10,7.93s3.19,7.65,10.29,7.65c3.83,0,7.2-.27,10-3,1.55-1.46,2.28-4,2.28-7.74Z"/><path d="M1349.73,102.62c-7.83,0-11.39-5.1-11.39-11.94V37.75h6.56V90.41c0,4.37,1.46,6.56,6,6.56h3.55v5.65Z"/><path d="M1379.06,102.62c-7.83,0-11.39-5.1-11.39-11.94V37.75h6.56V90.41c0,4.37,1.46,6.56,6,6.56h3.55v5.65Z"/><path d="M1399,81.94c0,9.84,4.65,15.49,13.21,15.49,5.2,0,8.2-1.55,11.76-5.1l4.46,3.92c-4.55,4.56-8.75,6.93-16.4,6.93-11.84,0-19.59-7.11-19.59-23,0-14.49,7-23,18.41-23,11.57,0,18.4,8.38,18.4,21.69v3Zm22.33-12.39a11.51,11.51,0,0,0-21,0c-1,2.46-1.18,3.82-1.37,7.47h23.69C1422.52,73.37,1422.34,72,1421.34,69.55Z"/></g></g></g></g></svg>