<?xml version="1.0" encoding="UTF-8"?>
<svg xmlns="http://www.w3.org/2000/svg" viewBox="0 0 2021.6 587.6">
  <defs>
    <style>
      .cls-1 {
        isolation: isolate;
      }

      .cls-2 {
        fill: #154f90;
      }

      .cls-3 {
        mix-blend-mode: multiply;
      }

      .cls-4 {
        fill: #00843e;
      }
    </style>
  </defs>
  <g class="cls-1">
    <g id="Ebene_2" data-name="Ebene 2">
      <g id="DE">
        <g id="Text">
          <g class="cls-3">
            <path class="cls-4" d="M1205.8,558l-17.6-35.9h-12.7v35.9h-17.6v-90.1h35.3c18.3,0,29.2,12.5,29.2,27.6s-7.7,20.5-16.4,23.7l20.1,38.8h-20.4Zm-13.7-74.4h-16.6v23.8h16.6c7.7,0,12.8-4.9,12.8-11.9s-5.1-11.9-12.8-11.9Z"/>
            <path class="cls-4" d="M1271.3,530.2c0,8.5,5.2,14.7,14.4,14.7s10.8-2,14.9-6.2l10,9.7c-6.7,6.7-13.2,10.4-25.1,10.4s-30.5-7.1-30.5-33.8,11.6-33.7,28.7-33.7,28.7,13.4,28.7,31.5v7.3h-41.2Zm23.5-18.3c-1.8-3.9-5.4-6.8-11-6.8s-9.2,2.9-11,6.8c-1,2.4-1.4,4.2-1.5,7.1h25.1c-.1-2.9-.5-4.7-1.5-7.1Z"/>
            <path class="cls-4" d="M1369.5,582.9c-10.1,0-17.1-2-23.9-8.6l10.2-10.4c3.7,3.5,7.3,5.1,12.9,5.1,9.9,0,13.3-7,13.3-13.7v-6.7c-4.3,4.8-9.2,6.6-15.7,6.6s-12-2.2-15.7-5.8c-6.2-6.2-6.7-14.7-6.7-26.2s.5-19.9,6.7-26.1c3.7-3.7,9.4-5.8,15.8-5.8s11.5,1.9,16.1,7v-6.2h15.9v63.5c0,15.8-11.3,27.3-29,27.3Zm1.6-76.8c-9.7,0-10.8,8.4-10.8,17.1s1,17.2,10.8,17.2,10.9-8.5,10.9-17.2-1.1-17.1-10.9-17.1Z"/>
            <path class="cls-4" d="M1435.6,480.8v-13.4h16.8v13.4h-16.8Zm.3,77.2v-65.9h16.4v65.9h-16.4Z"/>
            <path class="cls-4" d="M1535.2,550.7c-4,4.3-10.8,8.1-20.5,8.1s-16.3-3.8-20.4-8.1c-5.9-6.2-7.5-13.7-7.5-25.7s1.5-19.4,7.5-25.6c4-4.3,10.6-8.1,20.4-8.1s16.4,3.8,20.5,8.1c5.9,6.2,7.5,13.7,7.5,25.6s-1.5,19.5-7.5,25.7Zm-12.8-41.6c-1.9-1.9-4.4-2.9-7.7-2.9s-5.7,1-7.6,2.9c-3.4,3.4-3.8,9.1-3.8,15.9s.4,12.7,3.8,16.1c1.9,1.9,4.3,2.9,7.6,2.9s5.8-1,7.7-2.9c3.4-3.4,3.8-9.2,3.8-16.1s-.4-12.5-3.8-15.9Z"/>
            <path class="cls-4" d="M1615.7,558v-39.9c0-9-5.7-12-10.9-12s-11,3-11,12v39.9h-16.4v-65.9h16.1v6.1c4.3-4.6,10.4-6.8,16.4-6.8s11.9,2.2,15.6,5.8c5.3,5.3,6.7,11.5,6.7,18.7v42.1h-16.4Z"/>
            <path class="cls-4" d="M1756.1,558h-37.7v-90.1h36.2c17.6,0,27.8,9.9,27.8,25.3s-6.6,16.4-11.1,18.6c5.4,2.5,12.4,8.2,12.4,20.2s-11.5,25.9-27.6,25.9Zm-2.9-74.4h-17.2v20.8h17.2c7.5,0,11.6-4.2,11.6-10.4s-4.2-10.4-11.6-10.4Zm1.1,36.6h-18.3v22.1h18.3c8,0,11.8-5.1,11.8-11.1s-3.8-11-11.8-11Z"/>
            <path class="cls-4" d="M1819.1,480.8v-13.4h16.8v13.4h-16.8Zm.3,77.2v-65.9h16.4v65.9h-16.4Z"/>
            <path class="cls-4" d="M1909,510c-2.5-2.5-4.7-3.9-8.7-3.9s-10.6,3.8-10.6,12.1v39.7h-16.4v-65.9h16.1v6.3c3.2-3.8,9.5-7.1,16.6-7.1s11,1.6,15.6,6.2l-12.4,12.5Z"/>
            <path class="cls-4" d="M1970.1,558.8c-10.4,0-19.7-1.1-28.1-9.5l10.8-10.8c5.4,5.4,12.5,6.2,17.6,6.2s11.6-1.9,11.6-6.8-1.8-5.6-7-6.1l-10.4-1c-11.9-1.1-19.2-6.3-19.2-18.5s12-21,25.4-21,18.9,1.8,25.2,7.7l-10.1,10.2c-3.8-3.4-9.6-4.4-15.3-4.4s-9.4,3-9.4,6.3,1,5.2,6.8,5.7l10.4,1c13,1.3,19.6,8.2,19.6,19.4s-12.4,21.5-28,21.5Z"/>
          </g>
        </g>
        <g id="Logo">
          <path class="cls-4" d="M393.5,273.4c20.2,110.5-49.1,230.8-137.2,299.1,65.5-24.5,136.4-66,203.4-122.2,169.9-142.6,250.9-325.8,180.9-409.3-11.9-14.2-27.5-24.5-45.9-31.3-99.4,38.3-220.9,156-201.2,263.7Z"/>
          <path class="cls-2" d="M294.6,282.7c1-95.6,112.7-223.1,259.2-281.9-92.1-8.2-226.2,45.3-347.7,147.2C36.2,290.7-44.8,473.9,25.2,557.4c.5,.6,1.1,1.1,1.6,1.7,90.2,7.2,266.1-114.8,267.8-276.3Z"/>
          <g>
            <path d="M856.4,379c-27.3,0-48.1-5.8-65.8-23.8l22.8-22.8c11.4,11.4,26.8,15.2,43.5,15.2s31.9-7.8,31.9-22.3-1.8-11.6-5.6-15.2c-3.5-3.3-7.6-5.1-15.9-6.3l-21.8-3c-15.4-2.3-26.8-7.1-34.9-14.9-8.6-8.6-12.9-20.2-12.9-35.4,0-32.1,23.8-54.6,62.7-54.6s42.8,6.1,58.2,21l-22.3,22c-11.4-10.9-25-12.4-36.9-12.4-18.7,0-27.8,10.4-27.8,22.8s1.5,9.4,5.3,12.9c3.5,3.3,9.4,6.1,16.7,7.1l21.3,3c16.4,2.3,26.8,6.8,34.4,13.9,9.6,9.1,13.9,22.3,13.9,38.2,0,34.9-29.1,54.6-66.8,54.6Z"/>
            <path d="M1102,309.7h-34.7v67.8h-35.2V197.4h69.8c37.2,0,59.5,25.6,59.5,56.2s-22.3,56.2-59.5,56.2Zm-1.8-81h-32.9v49.3h32.9c15.9,0,26.1-9.9,26.1-24.5s-10.1-24.8-26.1-24.8Z"/>
            <path d="M1267,377.5V197.4h35.2v180.1h-35.2Z"/>
            <path d="M1488.9,228.8v148.8h-35.2V228.8h-47.1v-31.4h129.3v31.4h-47.1Z"/>
            <path d="M1640.5,377.5V197.4h118.6v31.4h-83.5v42.2h71.1v31.4h-71.1v43.8h83.5v31.4h-118.6Z"/>
            <path d="M1959.6,377.5l-34.9-62.7-34.7,62.7h-40.2l55.9-92.3-52.4-87.8h40l31.4,58.2,31.6-58.2h39.7l-52.4,87.8,56.2,92.3h-40.2Z"/>
          </g>
          <rect x="798" y="146.9" width="1201.4" height="5.1"/>
          <g>
            <path d="M820.8,103.2c-13.1,0-22.6-9-22.6-22V37.7h6.9v42.9c0,9.8,6.2,16.3,15.7,16.3s15.8-6.5,15.8-16.3V37.7h6.9v43.5c0,12.9-9.6,22-22.7,22Zm-12.9-72.4v-8.1h6.6v8.1h-6.6Zm19.3,0v-8.1h6.6v8.1h-6.6Z"/>
            <path d="M892.6,99.3c-2.4,2.4-6.4,3.9-10.9,3.9s-9-1.2-12.7-5.9v5.4h-6.6V37.7h6.6v25.2c3.6-4.6,7.7-5.7,12.7-5.7s8.6,1.5,10.9,3.9c4.6,4.6,5.5,12,5.5,19s-.9,14.5-5.5,19Zm-12.3-36.2c-9.7,0-11.3,8.4-11.3,17.1s1.6,17.1,11.3,17.1,11.2-8.4,11.2-17.1-1.5-17.1-11.2-17.1Z"/>
            <path d="M918.4,81.9c0,9.8,4.6,15.5,13.2,15.5s8.2-1.5,11.8-5.1l4.5,3.9c-4.6,4.6-8.7,6.9-16.4,6.9-11.8,0-19.6-7.1-19.6-23s7-23,18.4-23,18.4,8.4,18.4,21.7v3h-30.3Zm22.3-12.4c-1.7-4.1-5.7-6.7-10.5-6.7s-8.7,2.6-10.5,6.7c-1,2.5-1.2,3.8-1.4,7.5h23.7c-.2-3.6-.4-5-1.4-7.5Z"/>
            <path d="M989.9,66.4c-2.5-2.5-4.3-3.3-7.7-3.3-6.6,0-10.8,5.2-10.8,12v27.5h-6.6V57.8h6.6v5.5c2.5-3.7,7.4-6,12.6-6s7.6,1,10.7,4.2l-4.8,4.9Z"/>
            <path d="M1030,102.6v-4.3c-3.6,3.6-6.9,4.8-12.9,4.8s-9.8-1.2-12.7-4.1c-2.2-2.2-3.4-5.6-3.4-9.1,0-7.8,5.5-12.9,15.5-12.9h13.5v-4.3c0-6.6-3.3-9.8-11.5-9.8s-8.7,1.4-11.3,5.1l-4.5-4.1c4-5.2,8.6-6.7,15.9-6.7,12,0,18,5.2,18,14.9v30.4h-6.6Zm0-20.7h-12.6c-6.7,0-10,2.7-10,7.9s3.2,7.7,10.3,7.7,7.2-.3,10-3c1.6-1.5,2.3-4,2.3-7.7v-4.8Z"/>
            <path d="M1066,102.6c-7.8,0-11.4-5.1-11.4-11.9V37.7h6.6v52.7c0,4.4,1.5,6.6,6,6.6h3.6v5.6h-4.7Z"/>
            <path d="M1095.3,102.6c-7.8,0-11.4-5.1-11.4-11.9V37.7h6.6v52.7c0,4.4,1.5,6.6,6,6.6h3.6v5.6h-4.7Z"/>
            <path d="M1146.4,63.1v39.5h-6.6V63.1h-5.7v-5h5.7v-8.5c0-6.7,3.7-12,11.4-12h4.7v5.6h-3.6c-4.2,0-6,2.5-6,6.6v8.3h9.6v5h-9.6Z"/>
            <path d="M1197.6,102.6v-5c-3.2,3.6-7.7,5.6-12.7,5.6s-8.8-1.5-11.6-4.2c-3.2-3.1-4.6-7.4-4.6-12.6v-28.6h6.6v27.6c0,7.9,4.2,11.9,10.9,11.9s11.2-4.1,11.2-11.9v-27.6h6.6v44.8h-6.5Zm-24.2-54.9v-8.1h6.6v8.1h-6.6Zm19.3,0v-8.1h6.6v8.1h-6.6Z"/>
            <path d="M1247.8,66.4c-2.5-2.5-4.3-3.3-7.7-3.3-6.6,0-10.7,5.2-10.7,12v27.5h-6.6V57.8h6.6v5.5c2.5-3.7,7.4-6,12.6-6s7.6,1,10.8,4.2l-4.8,4.9Z"/>
            <path d="M1313.8,102.6v-4.3c-3.6,3.6-6.9,4.8-12.9,4.8s-9.8-1.2-12.7-4.1c-2.2-2.2-3.4-5.6-3.4-9.1,0-7.8,5.5-12.9,15.5-12.9h13.5v-4.3c0-6.6-3.3-9.8-11.5-9.8s-8.7,1.4-11.3,5.1l-4.5-4.1c4-5.2,8.6-6.7,15.9-6.7,12,0,18,5.2,18,14.9v30.4h-6.6Zm0-20.7h-12.6c-6.7,0-10,2.7-10,7.9s3.2,7.7,10.3,7.7,7.2-.3,10-3c1.6-1.5,2.3-4,2.3-7.7v-4.8Z"/>
            <path d="M1349.7,102.6c-7.8,0-11.4-5.1-11.4-11.9V37.7h6.6v52.7c0,4.4,1.5,6.6,6,6.6h3.6v5.6h-4.7Z"/>
            <path d="M1379.1,102.6c-7.8,0-11.4-5.1-11.4-11.9V37.7h6.6v52.7c0,4.4,1.5,6.6,6,6.6h3.6v5.6h-4.7Z"/>
            <path d="M1399,81.9c0,9.8,4.6,15.5,13.2,15.5s8.2-1.5,11.8-5.1l4.5,3.9c-4.6,4.6-8.7,6.9-16.4,6.9-11.8,0-19.6-7.1-19.6-23s7-23,18.4-23,18.4,8.4,18.4,21.7v3h-30.3Zm22.3-12.4c-1.7-4.1-5.7-6.7-10.5-6.7s-8.7,2.6-10.5,6.7c-1,2.5-1.2,3.8-1.4,7.5h23.7c-.2-3.6-.4-5-1.4-7.5Z"/>
          </g>
        </g>
      </g>
    </g>
  </g>
</svg>