<?xml version="1.0" encoding="utf-8"?>
<!-- Generator: Adobe Illustrator 26.5.0, SVG Export Plug-In . SVG Version: 6.00 Build 0)  -->
<svg version="1.1" id="Ebene_1" xmlns="http://www.w3.org/2000/svg" xmlns:xlink="http://www.w3.org/1999/xlink" x="0px" y="0px"
	 viewBox="0 0 1999.8 572.5" style="enable-background:new 0 0 1999.8 572.5;" xml:space="preserve">
<style type="text/css">
	.st0{fill:#00843E;}
	.st1{fill:#154F90;}
</style>
<g>
	<g id="DE">
		<g id="Text">
			<g>
				<path class="st0" d="M1315.2,558h-14.7l-16.6-54.7l-16.6,54.7h-14.7l-24-90.1h18.3l13.9,56.8l16.4-56.8h13.2l16.4,56.8l14-56.8
					h18.3l-24.2,90.1H1315.2z"/>
				<path class="st0" d="M1397.1,558v-5.7c-4.4,4.4-8.6,6.3-16.2,6.3s-12.9-1.9-16.8-5.8c-3.5-3.7-5.4-9-5.4-14.8
					c0-10.5,7.2-19.1,22.5-19.1h15.6v-3.3c0-7.2-3.5-10.4-12.3-10.4s-9.2,1.5-12.7,5.4l-10.5-10.2c6.5-7.1,12.8-9.1,23.8-9.1
					c18.5,0,28.1,7.8,28.1,23.3V558L1397.1,558L1397.1,558z M1366.2,481.3v-15.8h14v15.8H1366.2z M1396.7,530.1h-13
					c-5.9,0-9.2,2.8-9.2,7.5s3,7.6,9.5,7.6s7.5-0.4,10.4-3.2c1.8-1.6,2.4-4.3,2.4-8.4v-3.5L1396.7,530.1z M1394.2,481.3v-15.8h14
					v15.8H1394.2z"/>
				<path class="st0" d="M1486.3,558v-6.2c-4.6,5.1-9.4,7-16.3,7s-12.5-2.3-16.2-5.9c-6.6-6.6-6.7-18-6.7-27.8s0.1-21.1,6.7-27.7
					c3.7-3.7,9.6-5.9,16.1-5.9s11.8,1.8,16.1,6.6v-30h16.4v90.1h-16.1V558z M1474.7,506.1c-9.9,0-11.1,8.1-11.1,18.9s1.3,19,11.1,19
					s11.3-8.2,11.3-19S1484.6,506.1,1474.7,506.1z"/>
				<path class="st0" d="M1552.7,530.2c0,8.5,5.2,14.7,14.4,14.7s10.8-2,14.9-6.2l10,9.7c-6.7,6.7-13.2,10.4-25.1,10.4
					s-30.5-7.1-30.5-33.8c0-26.7,11.6-33.7,28.7-33.7s28.7,13.4,28.7,31.5v7.3L1552.7,530.2L1552.7,530.2z M1576.2,511.9
					c-1.8-3.9-5.4-6.8-11-6.8s-9.2,2.9-11,6.8c-1,2.4-1.4,4.2-1.5,7.1h25.1C1577.7,516.1,1577.3,514.3,1576.2,511.9L1576.2,511.9z"
					/>
				<path class="st0" d="M1666.4,558v-39.9c0-9-5.7-12-10.9-12s-11,3-11,12V558h-16.4v-65.9h16.1v6.1c4.3-4.6,10.4-6.8,16.4-6.8
					s11.9,2.2,15.6,5.8c5.3,5.3,6.7,11.5,6.7,18.7V558H1666.4L1666.4,558z"/>
				<path class="st0" d="M1741.2,558.8c-10.4,0-19.7-1.1-28.1-9.5l10.8-10.8c5.4,5.4,12.5,6.2,17.6,6.2s11.6-1.9,11.6-6.8
					s-1.8-5.6-7-6.1l-10.4-1c-11.9-1.1-19.2-6.3-19.2-18.5c0-12.2,12-21,25.4-21s18.9,1.8,25.2,7.7l-10.1,10.2
					c-3.8-3.4-9.6-4.4-15.3-4.4s-9.4,3-9.4,6.3c0,3.3,1,5.2,6.8,5.7l10.4,1c13,1.3,19.6,8.2,19.6,19.4S1756.7,558.7,1741.2,558.8
					L1741.2,558.8z"/>
				<path class="st0" d="M1868.1,558h-13.5l-13.8-41.4L1827,558h-13.5l-20.2-65.9h17.5l10.6,40.7l13.4-40.7h12l13.5,40.7l10.6-40.7
					h17.3L1868.1,558z"/>
				<path class="st0" d="M1916.7,480.8v-13.4h16.8v13.4H1916.7z M1917,558v-65.9h16.4V558H1917z"/>
				<path class="st0" d="M1989.3,558c-13.5,0-19.2-9.5-19.2-18.9v-71.2h16.4v70.2c0,3.9,1.6,5.9,5.8,5.9h6.3v13.9L1989.3,558
					L1989.3,558z"/>
			</g>
		</g>
		<g id="Logo">
			<path class="st0" d="M393.5,273.4c20.2,110.5-49.1,230.8-137.2,299.1c65.5-24.5,136.4-66,203.4-122.2
				C629.6,307.7,710.6,124.5,640.6,41c-11.9-14.2-27.5-24.5-45.9-31.3C495.3,48,373.8,165.7,393.5,273.4L393.5,273.4z"/>
			<path class="st1" d="M294.6,282.7c1-95.6,112.7-223.1,259.2-281.9C461.7-7.4,327.6,46.1,206.1,148
				C36.2,290.7-44.8,473.9,25.2,557.4c0.5,0.6,1.1,1.1,1.6,1.7c90.2,7.2,266.1-114.8,267.8-276.3L294.6,282.7z"/>
			<g>
				<path d="M856.4,379c-27.3,0-48.1-5.8-65.8-23.8l22.8-22.8c11.4,11.4,26.8,15.2,43.5,15.2s31.9-7.8,31.9-22.3s-1.8-11.6-5.6-15.2
					c-3.5-3.3-7.6-5.1-15.9-6.3l-21.8-3c-15.4-2.3-26.8-7.1-34.9-14.9c-8.6-8.6-12.9-20.2-12.9-35.4c0-32.1,23.8-54.6,62.7-54.6
					s42.8,6.1,58.2,21l-22.3,22c-11.4-10.9-25-12.4-36.9-12.4c-18.7,0-27.8,10.4-27.8,22.8s1.5,9.4,5.3,12.9
					c3.5,3.3,9.4,6.1,16.7,7.1l21.3,3c16.4,2.3,26.8,6.8,34.4,13.9c9.6,9.1,13.9,22.3,13.9,38.2C923.2,359.3,894.1,379,856.4,379
					L856.4,379z"/>
				<path d="M1102,309.7h-34.7v67.8h-35.2V197.4h69.8c37.2,0,59.5,25.6,59.5,56.2S1139.1,309.8,1102,309.7L1102,309.7z
					 M1100.2,228.7h-32.9V278h32.9c15.9,0,26.1-9.9,26.1-24.5S1116.2,228.7,1100.2,228.7L1100.2,228.7z"/>
				<path d="M1267,377.5V197.4h35.2v180.1H1267z"/>
				<path d="M1488.9,228.8v148.8h-35.2V228.8h-47.1v-31.4h129.3v31.4H1488.9L1488.9,228.8z"/>
				<path d="M1640.5,377.5V197.4h118.6v31.4h-83.5V271h71.1v31.4h-71.1v43.8h83.5v31.4L1640.5,377.5L1640.5,377.5z"/>
				<path d="M1959.6,377.5l-34.9-62.7l-34.7,62.7h-40.2l55.9-92.3l-52.4-87.8h40l31.4,58.2l31.6-58.2h39.7l-52.4,87.8l56.2,92.3
					H1959.6z"/>
			</g>
			<rect x="798" y="146.9" width="1201.4" height="5.1"/>
			<g>
				<path d="M820.8,103.2c-13.1,0-22.6-9-22.6-22V37.7h6.9v42.9c0,9.8,6.2,16.3,15.7,16.3s15.8-6.5,15.8-16.3V37.7h6.9v43.5
					C843.5,94.1,833.9,103.2,820.8,103.2L820.8,103.2z M807.9,30.8v-8.1h6.6v8.1H807.9z M827.2,30.8v-8.1h6.6v8.1H827.2z"/>
				<path d="M892.6,99.3c-2.4,2.4-6.4,3.9-10.9,3.9s-9-1.2-12.7-5.9v5.4h-6.6v-65h6.6v25.2c3.6-4.6,7.7-5.7,12.7-5.7
					s8.6,1.5,10.9,3.9c4.6,4.6,5.5,12,5.5,19s-0.9,14.5-5.5,19V99.3z M880.3,63.1c-9.7,0-11.3,8.4-11.3,17.1s1.6,17.1,11.3,17.1
					s11.2-8.4,11.2-17.1S890,63.1,880.3,63.1z"/>
				<path d="M918.4,81.9c0,9.8,4.6,15.5,13.2,15.5s8.2-1.5,11.8-5.1l4.5,3.9c-4.6,4.6-8.7,6.9-16.4,6.9c-11.8,0-19.6-7.1-19.6-23
					s7-23,18.4-23s18.4,8.4,18.4,21.7v3L918.4,81.9L918.4,81.9z M940.7,69.5c-1.7-4.1-5.7-6.7-10.5-6.7s-8.7,2.6-10.5,6.7
					c-1,2.5-1.2,3.8-1.4,7.5H942c-0.2-3.6-0.4-5-1.4-7.5H940.7z"/>
				<path d="M989.9,66.4c-2.5-2.5-4.3-3.3-7.7-3.3c-6.6,0-10.8,5.2-10.8,12v27.5h-6.6V57.8h6.6v5.5c2.5-3.7,7.4-6,12.6-6
					s7.6,1,10.7,4.2L989.9,66.4z"/>
				<path d="M1030,102.6v-4.3c-3.6,3.6-6.9,4.8-12.9,4.8s-9.8-1.2-12.7-4.1c-2.2-2.2-3.4-5.6-3.4-9.1c0-7.8,5.5-12.9,15.5-12.9h13.5
					v-4.3c0-6.6-3.3-9.8-11.5-9.8s-8.7,1.4-11.3,5.1l-4.5-4.1c4-5.2,8.6-6.7,15.9-6.7c12,0,18,5.2,18,14.9v30.4L1030,102.6
					L1030,102.6z M1030,81.9h-12.6c-6.7,0-10,2.7-10,7.9s3.2,7.7,10.3,7.7c7.1,0,7.2-0.3,10-3c1.6-1.5,2.3-4,2.3-7.7V81.9L1030,81.9
					z"/>
				<path d="M1066,102.6c-7.8,0-11.4-5.1-11.4-11.9v-53h6.6v52.7c0,4.4,1.5,6.6,6,6.6h3.6v5.6H1066L1066,102.6z"/>
				<path d="M1095.3,102.6c-7.8,0-11.4-5.1-11.4-11.9v-53h6.6v52.7c0,4.4,1.5,6.6,6,6.6h3.6v5.6H1095.3L1095.3,102.6z"/>
				<path d="M1146.4,63.1v39.5h-6.6V63.1h-5.7v-5h5.7v-8.5c0-6.7,3.7-12,11.4-12h4.7v5.6h-3.6c-4.2,0-6,2.5-6,6.6v8.3h9.6v5
					L1146.4,63.1L1146.4,63.1z"/>
				<path d="M1197.6,102.6v-5c-3.2,3.6-7.7,5.6-12.7,5.6s-8.8-1.5-11.6-4.2c-3.2-3.1-4.6-7.4-4.6-12.6V57.8h6.6v27.6
					c0,7.9,4.2,11.9,10.9,11.9s11.2-4.1,11.2-11.9V57.8h6.6v44.8L1197.6,102.6L1197.6,102.6z M1173.4,47.7v-8.1h6.6v8.1H1173.4z
					 M1192.7,47.7v-8.1h6.6v8.1H1192.7z"/>
				<path d="M1247.8,66.4c-2.5-2.5-4.3-3.3-7.7-3.3c-6.6,0-10.7,5.2-10.7,12v27.5h-6.6V57.8h6.6v5.5c2.5-3.7,7.4-6,12.6-6
					s7.6,1,10.8,4.2l-4.8,4.9H1247.8z"/>
				<path d="M1313.8,102.6v-4.3c-3.6,3.6-6.9,4.8-12.9,4.8s-9.8-1.2-12.7-4.1c-2.2-2.2-3.4-5.6-3.4-9.1c0-7.8,5.5-12.9,15.5-12.9
					h13.5v-4.3c0-6.6-3.3-9.8-11.5-9.8s-8.7,1.4-11.3,5.1l-4.5-4.1c4-5.2,8.6-6.7,15.9-6.7c12,0,18,5.2,18,14.9v30.4L1313.8,102.6
					L1313.8,102.6z M1313.8,81.9h-12.6c-6.7,0-10,2.7-10,7.9s3.2,7.7,10.3,7.7s7.2-0.3,10-3c1.6-1.5,2.3-4,2.3-7.7L1313.8,81.9
					L1313.8,81.9z"/>
				<path d="M1349.7,102.6c-7.8,0-11.4-5.1-11.4-11.9v-53h6.6v52.7c0,4.4,1.5,6.6,6,6.6h3.6v5.6H1349.7L1349.7,102.6z"/>
				<path d="M1379.1,102.6c-7.8,0-11.4-5.1-11.4-11.9v-53h6.6v52.7c0,4.4,1.5,6.6,6,6.6h3.6v5.6H1379.1L1379.1,102.6z"/>
				<path d="M1399,81.9c0,9.8,4.6,15.5,13.2,15.5s8.2-1.5,11.8-5.1l4.5,3.9c-4.6,4.6-8.7,6.9-16.4,6.9c-11.8,0-19.6-7.1-19.6-23
					s7-23,18.4-23s18.4,8.4,18.4,21.7v3L1399,81.9L1399,81.9z M1421.3,69.5c-1.7-4.1-5.7-6.7-10.5-6.7s-8.7,2.6-10.5,6.7
					c-1,2.5-1.2,3.8-1.4,7.5h23.7c-0.2-3.6-0.4-5-1.4-7.5H1421.3z"/>
			</g>
		</g>
	</g>
</g>
</svg>
