<svg xmlns="http://www.w3.org/2000/svg" viewBox="0 0 1999.79 572.49"><defs><style>.cls-1{isolation:isolate;}.cls-2{mix-blend-mode:multiply;}.cls-3{fill:#00843e;}.cls-4{fill:#154f90;}</style></defs><title>logo_de</title><g class="cls-1"><g id="DE"><g id="Text"><g class="cls-2"><path class="cls-3" d="M1851.13,1485.51h-37.7v-90.09h36.19c17.59,0,27.83,9.87,27.83,25.31a20.83,20.83,0,0,1-11.13,18.6c5.44,2.53,12.4,8.22,12.4,20.24C1878.71,1476.4,1867.2,1485.51,1851.13,1485.51Zm-2.91-74.4H1831v20.75h17.21c7.47,0,11.64-4.17,11.64-10.37S1855.69,1411.11,1848.22,1411.11Zm1.14,36.57H1831v22.14h18.35c8,0,11.77-5.06,11.77-11.13S1857.33,1447.68,1849.36,1447.68Z" transform="translate(-500 -927.51)"/><path class="cls-3" d="M1959.94,1478.17c-4,4.3-10.75,8.1-20.5,8.1s-16.32-3.79-20.37-8.1c-5.95-6.2-7.46-13.66-7.46-25.68s1.52-19.36,7.46-25.56c4-4.3,10.63-8.1,20.37-8.1s16.45,3.79,20.5,8.1c5.95,6.2,7.46,13.66,7.46,25.56S1965.89,1472,1959.94,1478.17Zm-12.78-41.63a10.4,10.4,0,0,0-7.72-2.91,10.1,10.1,0,0,0-7.59,2.91c-3.42,3.42-3.8,9.11-3.8,15.94s.38,12.65,3.8,16.07a10.1,10.1,0,0,0,7.59,2.91,10.4,10.4,0,0,0,7.72-2.91c3.42-3.42,3.8-9.24,3.8-16.07S1950.58,1440,1947.16,1436.54Z" transform="translate(-500 -927.51)"/><path class="cls-3" d="M2038.52,1485.51v-6.2c-4.55,5.06-9.36,7-16.32,7-6.45,0-12.53-2.28-16.2-5.95-6.58-6.58-6.71-18-6.71-27.84s.13-21.13,6.71-27.71c3.67-3.67,9.62-5.95,16.07-5.95,6.71,0,11.77,1.77,16.07,6.58v-30h16.45v90.09Zm-11.64-51.88c-9.87,0-11.13,8.1-11.13,18.85s1.26,19,11.13,19,11.26-8.22,11.26-19S2036.74,1433.63,2026.87,1433.63Z" transform="translate(-500 -927.51)"/><path class="cls-3" d="M2104.94,1457.67c0,8.48,5.19,14.68,14.42,14.68,7.21,0,10.75-2,14.93-6.2l10,9.74c-6.71,6.71-13.16,10.38-25.05,10.38-15.56,0-30.49-7.08-30.49-33.78,0-21.51,11.64-33.66,28.72-33.66,18.35,0,28.72,13.41,28.72,31.5v7.34Zm23.53-18.35a12.28,12.28,0,0,0-22,0,18.18,18.18,0,0,0-1.52,7.08H2130A18.16,18.16,0,0,0,2128.47,1439.33Z" transform="translate(-500 -927.51)"/><path class="cls-3" d="M2218.68,1485.51v-39.86c0-9-5.69-12-10.88-12s-11,3-11,12v39.86h-16.45v-65.92h16.07v6.07a22.56,22.56,0,0,1,16.45-6.83c6.58,0,11.89,2.15,15.56,5.82,5.31,5.31,6.71,11.51,6.71,18.73v42.13Z" transform="translate(-500 -927.51)"/><path class="cls-3" d="M2293.46,1486.27c-10.37,0-19.74-1.14-28.09-9.49l10.75-10.75c5.44,5.44,12.53,6.2,17.59,6.2,5.69,0,11.64-1.9,11.64-6.83,0-3.29-1.77-5.57-7-6.07l-10.37-1c-11.89-1.14-19.23-6.33-19.23-18.47,0-13.67,12-21,25.43-21,10.25,0,18.85,1.77,25.18,7.72l-10.12,10.25c-3.8-3.42-9.62-4.43-15.31-4.43-6.58,0-9.36,3-9.36,6.33,0,2.4,1,5.19,6.83,5.69l10.38,1c13,1.26,19.61,8.22,19.61,19.36C2321.42,1479.31,2309,1486.27,2293.46,1486.27Z" transform="translate(-500 -927.51)"/><path class="cls-3" d="M2367.1,1457.67c0,8.48,5.19,14.68,14.42,14.68,7.21,0,10.75-2,14.93-6.2l10,9.74c-6.71,6.71-13.16,10.38-25.05,10.38-15.56,0-30.49-7.08-30.49-33.78,0-21.51,11.64-33.66,28.72-33.66,18.35,0,28.72,13.41,28.72,31.5v7.34Zm23.53-18.35a12.28,12.28,0,0,0-22,0,18.18,18.18,0,0,0-1.52,7.08h25.05A18.16,18.16,0,0,0,2390.63,1439.33Z" transform="translate(-500 -927.51)"/><path class="cls-3" d="M2455.41,1457.67c0,8.48,5.19,14.68,14.42,14.68,7.21,0,10.75-2,14.93-6.2l10,9.74c-6.71,6.71-13.16,10.38-25.05,10.38-15.56,0-30.49-7.08-30.49-33.78,0-21.51,11.64-33.66,28.72-33.66,18.35,0,28.72,13.41,28.72,31.5v7.34Zm23.53-18.35a12.28,12.28,0,0,0-22,0,18.18,18.18,0,0,0-1.52,7.08h25.05A18.16,18.16,0,0,0,2478.95,1439.33Z" transform="translate(-500 -927.51)"/></g></g><g id="Logo"><path class="cls-3" d="M893.54,1200.94c20.22,110.47-49.11,230.79-137.25,299.06,65.53-24.54,136.35-66,203.38-122.22,169.94-142.59,250.93-325.84,180.91-409.29-11.91-14.19-27.49-24.49-45.87-31.27C995.28,975.49,873.82,1093.2,893.54,1200.94Z" transform="translate(-500 -927.51)"/><path class="cls-4" d="M794.56,1210.24c1-95.65,112.69-223.1,259.21-281.89-92.15-8.24-226.18,45.29-347.67,147.23-169.94,142.59-250.93,325.84-180.91,409.29.5.59,1.07,1.12,1.58,1.7C616.93,1493.71,792.83,1371.74,794.56,1210.24Z" transform="translate(-500 -927.51)"/><path d="M1356.35,1306.55c-27.32,0-48.07-5.81-65.78-23.78l22.77-22.77c11.39,11.39,26.82,15.18,43.52,15.18,20.74,0,31.88-7.84,31.88-22.26,0-6.32-1.77-11.63-5.57-15.18-3.54-3.29-7.59-5.06-15.94-6.33l-21.76-3c-15.43-2.28-26.82-7.09-34.91-14.93-8.6-8.61-12.9-20.24-12.9-35.42,0-32.13,23.78-54.65,62.74-54.65,24.79,0,42.76,6.07,58.19,21l-22.26,22c-11.39-10.88-25-12.39-36.94-12.39-18.72,0-27.83,10.37-27.83,22.77a17.37,17.37,0,0,0,5.31,12.9c3.54,3.29,9.36,6.07,16.7,7.09l21.25,3c16.44,2.28,26.82,6.83,34.41,13.92,9.62,9.11,13.92,22.26,13.92,38.2C1423.14,1286.82,1394,1306.55,1356.35,1306.55Z" transform="translate(-500 -927.51)"/><path d="M1602,1237.23h-34.66V1305h-35.17V1124.9H1602c37.19,0,59.45,25.55,59.45,56.17S1639.23,1237.23,1602,1237.23Zm-1.77-81h-32.89v49.33h32.89c15.94,0,26.06-9.87,26.06-24.54S1616.21,1156.27,1600.27,1156.27Z" transform="translate(-500 -927.51)"/><path d="M1767,1305V1124.9h35.16V1305Z" transform="translate(-500 -927.51)"/><path d="M1988.92,1156.27V1305h-35.17V1156.27H1906.7V1124.9H2036v31.37Z" transform="translate(-500 -927.51)"/><path d="M2140.5,1305V1124.9h118.65v31.37h-83.48v42.25h71.09v31.38h-71.09v43.77h83.48V1305Z" transform="translate(-500 -927.51)"/><path d="M2459.56,1305l-34.92-62.75L2390,1305h-40.23l55.91-92.34-52.37-87.79h40l31.37,58.19,31.62-58.19H2496l-52.36,87.79,56.16,92.34Z" transform="translate(-500 -927.51)"/><rect x="798.04" y="146.88" width="1201.42" height="5.06"/><path d="M1320.77,1030.69c-13.12,0-22.6-9-22.6-22V965.26h6.93v42.92c0,9.84,6.2,16.31,15.67,16.31s15.77-6.47,15.77-16.31V965.26h6.93v43.47C1343.46,1021.66,1333.89,1030.69,1320.77,1030.69Zm-12.94-72.44v-8.11h6.56v8.11Zm19.32,0v-8.11h6.56v8.11Z" transform="translate(-500 -927.51)"/><path d="M1392.55,1026.77c-2.37,2.37-6.38,3.92-10.93,3.92-4.92,0-9-1.18-12.66-5.92v5.37h-6.56V965.26H1369V990.5c3.64-4.65,7.75-5.74,12.66-5.74,4.56,0,8.57,1.55,10.93,3.92,4.56,4.55,5.47,12,5.47,19S1397.11,1022.21,1392.55,1026.77Zm-12.3-36.17c-9.75,0-11.3,8.38-11.3,17.13s1.55,17.13,11.3,17.13,11.21-8.38,11.21-17.13S1390,990.59,1380.25,990.59Z" transform="translate(-500 -927.51)"/><path d="M1418.42,1009.46c0,9.84,4.65,15.49,13.21,15.49,5.2,0,8.2-1.55,11.76-5.1l4.47,3.92c-4.56,4.56-8.75,6.93-16.4,6.93-11.85,0-19.59-7.11-19.59-23,0-14.49,7-23,18.4-23,11.57,0,18.41,8.38,18.41,21.69v3Zm22.32-12.39a11.51,11.51,0,0,0-21,0c-1,2.46-1.19,3.82-1.37,7.47h23.69C1441.92,1000.89,1441.74,999.52,1440.74,997.06Z" transform="translate(-500 -927.51)"/><path d="M1489.93,993.87c-2.46-2.46-4.29-3.28-7.75-3.28-6.56,0-10.76,5.19-10.76,12v27.52h-6.56V985.31h6.56v5.47c2.46-3.74,7.38-6,12.58-6,4.28,0,7.56,1,10.75,4.19Z" transform="translate(-500 -927.51)"/><path d="M1530,1030.14v-4.28c-3.64,3.64-6.93,4.83-12.94,4.83-6.2,0-9.84-1.18-12.66-4.1a12.92,12.92,0,0,1-3.37-9.11c0-7.84,5.47-12.94,15.49-12.94H1530v-4.28c0-6.56-3.28-9.84-11.48-9.84-5.74,0-8.65,1.37-11.3,5.1l-4.47-4.1c4-5.19,8.57-6.65,15.86-6.65,12,0,18,5.19,18,14.94v30.43Zm0-20.68h-12.58c-6.74,0-10,2.73-10,7.93s3.19,7.65,10.29,7.65c3.83,0,7.2-.27,10-3,1.55-1.46,2.28-4,2.28-7.74Z" transform="translate(-500 -927.51)"/><path d="M1566,1030.14c-7.83,0-11.39-5.1-11.39-11.94V965.26h6.56v52.67c0,4.37,1.46,6.56,6,6.56h3.55v5.65Z" transform="translate(-500 -927.51)"/><path d="M1595.31,1030.14c-7.83,0-11.39-5.1-11.39-11.94V965.26h6.56v52.67c0,4.37,1.46,6.56,6,6.56h3.55v5.65Z" transform="translate(-500 -927.51)"/><path d="M1646.41,990.59v39.55h-6.56V990.59h-5.74v-5h5.74v-8.47c0-6.65,3.74-12,11.39-12H1656v5.65h-3.55c-4.19,0-6,2.46-6,6.56v8.29H1656v5Z" transform="translate(-500 -927.51)"/><path d="M1697.61,1030.14v-5a16.43,16.43,0,0,1-12.66,5.56c-4.83,0-8.84-1.46-11.57-4.19-3.19-3.1-4.56-7.38-4.56-12.57V985.31h6.56v27.61c0,7.93,4.19,11.94,10.93,11.94s11.21-4.1,11.21-11.94V985.31h6.56v44.83Zm-24.23-54.85v-8.11h6.56v8.11Zm19.32,0v-8.11h6.56v8.11Z" transform="translate(-500 -927.51)"/><path d="M1747.81,993.87c-2.46-2.46-4.28-3.28-7.75-3.28-6.56,0-10.75,5.19-10.75,12v27.52h-6.56V985.31h6.56v5.47c2.46-3.74,7.38-6,12.57-6,4.29,0,7.57,1,10.76,4.19Z" transform="translate(-500 -927.51)"/><path d="M1813.76,1030.14v-4.28c-3.64,3.64-6.93,4.83-12.94,4.83-6.2,0-9.84-1.18-12.66-4.1a12.92,12.92,0,0,1-3.37-9.11c0-7.84,5.47-12.94,15.49-12.94h13.49v-4.28c0-6.56-3.28-9.84-11.48-9.84-5.74,0-8.65,1.37-11.3,5.1l-4.47-4.1c4-5.19,8.57-6.65,15.86-6.65,12,0,18,5.19,18,14.94v30.43Zm0-20.68h-12.58c-6.74,0-10,2.73-10,7.93s3.19,7.65,10.29,7.65c3.83,0,7.2-.27,10-3,1.55-1.46,2.28-4,2.28-7.74Z" transform="translate(-500 -927.51)"/><path d="M1849.73,1030.14c-7.83,0-11.39-5.1-11.39-11.94V965.26h6.56v52.67c0,4.37,1.46,6.56,6,6.56h3.55v5.65Z" transform="translate(-500 -927.51)"/><path d="M1879.06,1030.14c-7.83,0-11.39-5.1-11.39-11.94V965.26h6.56v52.67c0,4.37,1.46,6.56,6,6.56h3.55v5.65Z" transform="translate(-500 -927.51)"/><path d="M1899,1009.46c0,9.84,4.65,15.49,13.21,15.49,5.2,0,8.2-1.55,11.76-5.1l4.46,3.92c-4.55,4.56-8.75,6.93-16.4,6.93-11.84,0-19.59-7.11-19.59-23,0-14.49,7-23,18.41-23,11.57,0,18.4,8.38,18.4,21.69v3Zm22.33-12.39a11.51,11.51,0,0,0-21,0c-1,2.46-1.18,3.82-1.37,7.47h23.69C1922.52,1000.89,1922.34,999.52,1921.34,997.06Z" transform="translate(-500 -927.51)"/></g></g></g></svg>