<?xml version="1.0" encoding="UTF-8"?>
<svg xmlns="http://www.w3.org/2000/svg" viewBox="0 0 2002.6 581.2">
  <defs>
    <style>
      .cls-1 {
        fill: #154f90;
      }

      .cls-1, .cls-2, .cls-3 {
        stroke-width: 0px;
      }

      .cls-2 {
        fill: #00843e;
      }

      .cls-3 {
        fill: #010101;
      }

      .cls-4 {
        isolation: isolate;
      }

      .cls-5 {
        mix-blend-mode: multiply;
      }
    </style>
  </defs>
  <g class="cls-4">
    <g id="Ebene_2" data-name="Ebene 2">
      <g id="DE">
        <g id="Text">
          <g class="cls-5">
            <path class="cls-2" d="M1301.3,558l-18.1-32.1-9.1,10.9v21.2h-13.8v-70.5h13.8v30.7l24.8-30.7h16.7l-23.4,28,25,42.5h-16Z"/>
            <path class="cls-2" d="M1361.6,558v-4.5c-3.5,3.5-6.7,5-12.7,5s-10.1-1.5-13.2-4.6c-2.8-2.9-4.3-7-4.3-11.6,0-8.2,5.6-14.9,17.6-14.9h12.2v-2.6c0-5.6-2.8-8.1-9.6-8.1s-7.2,1.2-9.9,4.3l-8.2-8c5-5.5,10-7.1,18.6-7.1,14.5,0,22,6.1,22,18.2v34h-12.6ZM1361.3,536.2h-10.2c-4.7,0-7.2,2.2-7.2,5.8s2.4,5.9,7.4,5.9,5.8-.3,8.1-2.5c1.4-1.3,1.9-3.4,1.9-6.5v-2.8Z"/>
            <path class="cls-2" d="M1428,558v-31.2c0-7-4.5-9.4-8.5-9.4s-8.6,2.4-8.6,9.4v31.2h-12.9v-51.6h12.6v4.8c3.4-3.6,8.1-5.3,12.9-5.3s9.3,1.7,12.2,4.6c4.2,4.2,5.2,9,5.2,14.7v33h-12.9Z"/>
            <path class="cls-2" d="M1480.9,558c-10.5,0-14.9-7.4-14.9-14.8v-25.5h-5.4v-9.8h5.4v-15.2h12.9v15.2h9.1v9.8h-9.1v24.8c0,3,1.4,4.7,4.5,4.7h4.7v10.9h-7Z"/>
            <path class="cls-2" d="M1544.9,552.3c-3.2,3.4-8.4,6.3-16,6.3s-12.8-3-15.9-6.3c-4.7-4.9-5.8-10.7-5.8-20.1s1.2-15.1,5.8-20c3.2-3.4,8.3-6.3,15.9-6.3s12.9,3,16,6.3c4.7,4.9,5.8,10.7,5.8,20s-1.2,15.2-5.8,20.1ZM1534.9,519.7c-1.5-1.5-3.5-2.3-6-2.3s-4.5.8-5.9,2.3c-2.7,2.7-3,7.1-3,12.5s.3,9.9,3,12.6c1.5,1.5,3.4,2.3,5.9,2.3s4.6-.8,6-2.3c2.7-2.7,3-7.2,3-12.6s-.3-9.8-3-12.5Z"/>
            <path class="cls-2" d="M1603,558v-31.2c0-7-4.5-9.4-8.5-9.4s-8.6,2.4-8.6,9.4v31.2h-12.9v-51.6h12.6v4.8c3.4-3.6,8.1-5.3,12.9-5.3s9.3,1.7,12.2,4.6c4.2,4.2,5.2,9,5.2,14.7v33h-12.9Z"/>
            <path class="cls-2" d="M1669.5,558v-11.1l30.1-47.1h-28.8v-12.3h45v10.9l-30.2,47.3h30.2v12.3h-46.3Z"/>
            <path class="cls-2" d="M1766.7,558v-4.8c-3.4,3.6-8.1,5.3-12.9,5.3s-9.3-1.7-12.2-4.6c-4.2-4.2-5.2-9-5.2-14.7v-33h12.9v31.2c0,7,4.5,9.4,8.5,9.4s8.6-2.4,8.6-9.4v-31.2h12.9v51.6h-12.6ZM1741.4,498v-12.4h11v12.4h-11ZM1763.3,498v-12.4h11v12.4h-11Z"/>
            <path class="cls-2" d="M1831.7,520.5c-2-2-3.7-3.1-6.8-3.1s-8.3,3-8.3,9.5v31.1h-12.9v-51.6h12.6v4.9c2.5-3,7.4-5.5,13-5.5s8.6,1.3,12.2,4.9l-9.7,9.8Z"/>
            <path class="cls-2" d="M1858.6,497.6v-10.5h13.2v10.5h-13.2ZM1858.8,558v-51.6h12.9v51.6h-12.9Z"/>
            <path class="cls-2" d="M1916.5,558.6c-10.3,0-23.1-5.5-23.1-26.4s12.8-26.3,23.1-26.3,12.5,2.2,17,6.9l-8.7,8.7c-2.7-2.9-4.9-4.1-8.3-4.1s-5.4,1.1-7.3,3.4c-2,2.5-2.9,5.9-2.9,11.4s.9,9,2.9,11.5c1.9,2.3,4.3,3.4,7.3,3.4s5.6-1.2,8.3-4.1l8.7,8.6c-4.6,4.8-9.9,7-17,7Z"/>
            <path class="cls-2" d="M1983.1,558v-31.5c0-6.8-4.4-9.1-8.4-9.1s-8.3,2.4-8.3,9.1v31.5h-12.9v-70.5h12.9v23.7c3.5-3.6,7.8-5.3,12.4-5.3,11.3,0,17.2,7.9,17.2,18.8v33.4h-12.9Z"/>
          </g>
        </g>
        <g id="Logo">
          <path class="cls-2" d="M393.5,273.4c20.2,110.5-49.1,230.8-137.2,299.1,65.5-24.5,136.4-66,203.4-122.2,169.9-142.6,250.9-325.8,180.9-409.3-11.9-14.2-27.5-24.5-45.9-31.3-99.4,38.3-220.9,156-201.2,263.7Z"/>
          <path class="cls-1" d="M294.6,282.7c1-95.6,112.7-223.1,259.2-281.9-92.1-8.2-226.2,45.3-347.7,147.2C36.2,290.7-44.8,473.9,25.2,557.4c.5.6,1.1,1.1,1.6,1.7,90.2,7.2,266.1-114.8,267.8-276.3Z"/>
          <g>
            <path class="cls-3" d="M856.4,379c-27.3,0-48.1-5.8-65.8-23.8l22.8-22.8c11.4,11.4,26.8,15.2,43.5,15.2s31.9-7.8,31.9-22.3-1.8-11.6-5.6-15.2c-3.5-3.3-7.6-5.1-15.9-6.3l-21.8-3c-15.4-2.3-26.8-7.1-34.9-14.9-8.6-8.6-12.9-20.2-12.9-35.4,0-32.1,23.8-54.6,62.7-54.6s42.8,6.1,58.2,21l-22.3,22c-11.4-10.9-25-12.4-36.9-12.4-18.7,0-27.8,10.4-27.8,22.8s1.5,9.4,5.3,12.9c3.5,3.3,9.4,6.1,16.7,7.1l21.3,3c16.4,2.3,26.8,6.8,34.4,13.9,9.6,9.1,13.9,22.3,13.9,38.2,0,34.9-29.1,54.6-66.8,54.6Z"/>
            <path class="cls-3" d="M1102,309.7h-34.7v67.8h-35.2v-180.1h69.8c37.2,0,59.5,25.6,59.5,56.2s-22.3,56.2-59.5,56.2ZM1100.3,228.8h-32.9v49.3h32.9c15.9,0,26.1-9.9,26.1-24.5s-10.1-24.8-26.1-24.8Z"/>
            <path class="cls-3" d="M1267,377.5v-180.1h35.2v180.1h-35.2Z"/>
            <path class="cls-3" d="M1488.9,228.8v148.8h-35.2v-148.8h-47.1v-31.4h129.3v31.4h-47.1Z"/>
            <path class="cls-3" d="M1640.5,377.5v-180.1h118.6v31.4h-83.5v42.2h71.1v31.4h-71.1v43.8h83.5v31.4h-118.6Z"/>
            <path class="cls-3" d="M1959.6,377.5l-34.9-62.7-34.7,62.7h-40.2l55.9-92.3-52.4-87.8h40l31.4,58.2,31.6-58.2h39.7l-52.4,87.8,56.2,92.3h-40.2Z"/>
          </g>
          <rect class="cls-3" x="798" y="146.9" width="1201.4" height="5.1"/>
          <g>
            <path class="cls-3" d="M820.8,103.2c-13.1,0-22.6-9-22.6-22v-43.5h6.9v42.9c0,9.8,6.2,16.3,15.7,16.3s15.8-6.5,15.8-16.3v-42.9h6.9v43.5c0,12.9-9.6,22-22.7,22ZM807.8,30.7v-8.1h6.6v8.1h-6.6ZM827.1,30.7v-8.1h6.6v8.1h-6.6Z"/>
            <path class="cls-3" d="M892.6,99.3c-2.4,2.4-6.4,3.9-10.9,3.9s-9-1.2-12.7-5.9v5.4h-6.6V37.7h6.6v25.2c3.6-4.6,7.7-5.7,12.7-5.7s8.6,1.5,10.9,3.9c4.6,4.6,5.5,12,5.5,19s-.9,14.5-5.5,19ZM880.3,63.1c-9.7,0-11.3,8.4-11.3,17.1s1.6,17.1,11.3,17.1,11.2-8.4,11.2-17.1-1.5-17.1-11.2-17.1Z"/>
            <path class="cls-3" d="M918.4,81.9c0,9.8,4.6,15.5,13.2,15.5s8.2-1.5,11.8-5.1l4.5,3.9c-4.6,4.6-8.7,6.9-16.4,6.9-11.8,0-19.6-7.1-19.6-23s7-23,18.4-23,18.4,8.4,18.4,21.7v3h-30.3ZM940.7,69.5c-1.7-4.1-5.7-6.7-10.5-6.7s-8.7,2.6-10.5,6.7c-1,2.5-1.2,3.8-1.4,7.5h23.7c-.2-3.6-.4-5-1.4-7.5Z"/>
            <path class="cls-3" d="M989.9,66.4c-2.5-2.5-4.3-3.3-7.7-3.3-6.6,0-10.8,5.2-10.8,12v27.5h-6.6v-44.8h6.6v5.5c2.5-3.7,7.4-6,12.6-6s7.6,1,10.7,4.2l-4.8,4.9Z"/>
            <path class="cls-3" d="M1030,102.6v-4.3c-3.6,3.6-6.9,4.8-12.9,4.8s-9.8-1.2-12.7-4.1c-2.2-2.2-3.4-5.6-3.4-9.1,0-7.8,5.5-12.9,15.5-12.9h13.5v-4.3c0-6.6-3.3-9.8-11.5-9.8s-8.7,1.4-11.3,5.1l-4.5-4.1c4-5.2,8.6-6.7,15.9-6.7,12,0,18,5.2,18,14.9v30.4h-6.6ZM1030,81.9h-12.6c-6.7,0-10,2.7-10,7.9s3.2,7.7,10.3,7.7,7.2-.3,10-3c1.6-1.5,2.3-4,2.3-7.7v-4.8Z"/>
            <path class="cls-3" d="M1066,102.6c-7.8,0-11.4-5.1-11.4-11.9v-52.9h6.6v52.7c0,4.4,1.5,6.6,6,6.6h3.6v5.6h-4.7Z"/>
            <path class="cls-3" d="M1095.3,102.6c-7.8,0-11.4-5.1-11.4-11.9v-52.9h6.6v52.7c0,4.4,1.5,6.6,6,6.6h3.6v5.6h-4.7Z"/>
            <path class="cls-3" d="M1146.4,63.1v39.5h-6.6v-39.5h-5.7v-5h5.7v-8.5c0-6.7,3.7-12,11.4-12h4.7v5.6h-3.6c-4.2,0-6,2.5-6,6.6v8.3h9.6v5h-9.6Z"/>
            <path class="cls-3" d="M1197.6,102.6v-5c-3.2,3.6-7.7,5.6-12.7,5.6s-8.8-1.5-11.6-4.2c-3.2-3.1-4.6-7.4-4.6-12.6v-28.6h6.6v27.6c0,7.9,4.2,11.9,10.9,11.9s11.2-4.1,11.2-11.9v-27.6h6.6v44.8h-6.5ZM1173.4,47.8v-8.1h6.6v8.1h-6.6ZM1192.7,47.8v-8.1h6.6v8.1h-6.6Z"/>
            <path class="cls-3" d="M1247.8,66.4c-2.5-2.5-4.3-3.3-7.7-3.3-6.6,0-10.7,5.2-10.7,12v27.5h-6.6v-44.8h6.6v5.5c2.5-3.7,7.4-6,12.6-6s7.6,1,10.8,4.2l-4.8,4.9Z"/>
            <path class="cls-3" d="M1313.8,102.6v-4.3c-3.6,3.6-6.9,4.8-12.9,4.8s-9.8-1.2-12.7-4.1c-2.2-2.2-3.4-5.6-3.4-9.1,0-7.8,5.5-12.9,15.5-12.9h13.5v-4.3c0-6.6-3.3-9.8-11.5-9.8s-8.7,1.4-11.3,5.1l-4.5-4.1c4-5.2,8.6-6.7,15.9-6.7,12,0,18,5.2,18,14.9v30.4h-6.6ZM1313.8,81.9h-12.6c-6.7,0-10,2.7-10,7.9s3.2,7.7,10.3,7.7,7.2-.3,10-3c1.6-1.5,2.3-4,2.3-7.7v-4.8Z"/>
            <path class="cls-3" d="M1349.7,102.6c-7.8,0-11.4-5.1-11.4-11.9v-52.9h6.6v52.7c0,4.4,1.5,6.6,6,6.6h3.6v5.6h-4.7Z"/>
            <path class="cls-3" d="M1379.1,102.6c-7.8,0-11.4-5.1-11.4-11.9v-52.9h6.6v52.7c0,4.4,1.5,6.6,6,6.6h3.6v5.6h-4.7Z"/>
            <path class="cls-3" d="M1399,81.9c0,9.8,4.6,15.5,13.2,15.5s8.2-1.5,11.8-5.1l4.5,3.9c-4.6,4.6-8.7,6.9-16.4,6.9-11.8,0-19.6-7.1-19.6-23s7-23,18.4-23,18.4,8.4,18.4,21.7v3h-30.3ZM1421.3,69.5c-1.7-4.1-5.7-6.7-10.5-6.7s-8.7,2.6-10.5,6.7c-1,2.5-1.2,3.8-1.4,7.5h23.7c-.2-3.6-.4-5-1.4-7.5Z"/>
          </g>
        </g>
      </g>
    </g>
  </g>
</svg>