<svg id="Group_3217" data-name="Group 3217" xmlns="http://www.w3.org/2000/svg" width="240" height="69.916" viewBox="0 0 240 69.916">
  <g id="Group_3185" data-name="Group 3185">
    <g id="Group_3182" data-name="Group 3182" transform="translate(30.759 1.165)">
      <g id="Group_3181" data-name="Group 3181">
        <path id="Path_4170" data-name="Path 4170" d="M85.916,67.245c2.426,13.258-5.894,27.7-16.471,35.892A85.653,85.653,0,0,0,93.853,88.469c20.395-17.113,30.115-39.1,21.711-49.12a12.826,12.826,0,0,0-5.5-3.752C98.127,40.189,83.55,54.315,85.916,67.245Z" transform="translate(-69.445 -35.597)" fill="#219a62"/>
      </g>
    </g>
    <g id="Group_3184" data-name="Group 3184">
      <g id="Group_3183" data-name="Group 3183">
        <path id="Path_4171" data-name="Path 4171" d="M64.281,67.992c.123-11.479,13.524-26.774,31.108-33.83C84.33,33.173,68.244,39.6,53.664,51.832c-20.395,17.113-30.115,39.1-21.712,49.119.06.071.129.134.19.2C42.964,102.013,64.073,87.374,64.281,67.992Z" transform="translate(-28.93 -34.062)" fill="#1e5faa"/>
      </g>
    </g>
  </g>
  <g id="Group_3198" data-name="Group 3198" transform="translate(94.879 23.507)">
    <g id="Group_3187" data-name="Group 3187">
      <g id="Group_3186" data-name="Group 3186">
        <path id="Path_4172" data-name="Path 4172" d="M161.8,87.007c-3.279,0-5.769-.7-7.894-2.854l2.732-2.732a7.075,7.075,0,0,0,5.222,1.821c2.489,0,3.826-.941,3.826-2.672a2.41,2.41,0,0,0-.668-1.822,3.223,3.223,0,0,0-1.912-.759l-2.612-.364a7.338,7.338,0,0,1-4.19-1.792,5.712,5.712,0,0,1-1.548-4.251c0-3.856,2.854-6.559,7.53-6.559a9.26,9.26,0,0,1,6.983,2.52L166.6,70.187a6.015,6.015,0,0,0-4.433-1.487c-2.246,0-3.34,1.245-3.34,2.733a2.085,2.085,0,0,0,.637,1.548,3.721,3.721,0,0,0,2,.85l2.55.364a7.15,7.15,0,0,1,4.129,1.67,6.054,6.054,0,0,1,1.67,4.585C169.815,84.639,166.323,87.007,161.8,87.007Z" transform="translate(-153.905 -65.025)"/>
      </g>
    </g>
    <g id="Group_3189" data-name="Group 3189" transform="translate(28.999 0.182)">
      <g id="Group_3188" data-name="Group 3188">
        <path id="Path_4173" data-name="Path 4173" d="M200.483,78.746h-4.16v8.138H192.1V65.265h8.38c4.464,0,7.136,3.066,7.136,6.741S204.947,78.746,200.483,78.746Zm-.212-9.716h-3.948v5.921h3.948a2.965,2.965,0,1,0,0-5.921Z" transform="translate(-192.103 -65.265)"/>
      </g>
    </g>
    <g id="Group_3191" data-name="Group 3191" transform="translate(57.18 0.182)">
      <g id="Group_3190" data-name="Group 3190">
        <path id="Path_4174" data-name="Path 4174" d="M229.223,86.884V65.265h4.22V86.884Z" transform="translate(-229.223 -65.265)"/>
      </g>
    </g>
    <g id="Group_3193" data-name="Group 3193" transform="translate(73.942 0.182)">
      <g id="Group_3192" data-name="Group 3192">
        <path id="Path_4175" data-name="Path 4175" d="M261.17,69.03V86.884h-4.22V69.03H251.3V65.265h15.516V69.03Z" transform="translate(-251.302 -65.265)"/>
      </g>
    </g>
    <g id="Group_3195" data-name="Group 3195" transform="translate(102.002 0.182)">
      <g id="Group_3194" data-name="Group 3194">
        <path id="Path_4176" data-name="Path 4176" d="M288.262,86.884V65.265H302.5V69.03H292.482V74.1h8.532v3.766h-8.532v5.253H302.5v3.765Z" transform="translate(-288.262 -65.265)"/>
      </g>
    </g>
    <g id="Group_3197" data-name="Group 3197" transform="translate(127.116 0.182)">
      <g id="Group_3196" data-name="Group 3196">
        <path id="Path_4177" data-name="Path 4177" d="M334.52,86.884l-4.191-7.53-4.16,7.53h-4.828l6.71-11.083-6.285-10.536h4.8l3.765,6.984,3.8-6.984h4.766L332.607,75.8l6.74,11.083Z" transform="translate(-321.342 -65.265)"/>
      </g>
    </g>
  </g>
  <g id="Group_3200" data-name="Group 3200" transform="translate(95.775 17.627)">
    <g id="Group_3199" data-name="Group 3199">
      <rect id="Rectangle_130" data-name="Rectangle 130" width="144.185" height="0.607"/>
    </g>
  </g>
  <g id="Group_3215" data-name="Group 3215" transform="translate(95.79 2.715)">
    <g id="Group_3201" data-name="Group 3201">
      <path id="Path_4178" data-name="Path 4178" d="M157.818,47.3A2.571,2.571,0,0,1,155.1,44.67V39.453h.831V44.6a1.888,1.888,0,1,0,3.773,0v-5.15h.831V44.67A2.58,2.58,0,0,1,157.818,47.3Zm-1.553-8.693v-.973h.787v.973Zm2.319,0v-.973h.787v.973Z" transform="translate(-155.105 -37.638)"/>
    </g>
    <g id="Group_3202" data-name="Group 3202" transform="translate(7.708 1.815)">
      <path id="Path_4179" data-name="Path 4179" d="M168.877,47.411a1.87,1.87,0,0,1-1.312.47,1.724,1.724,0,0,1-1.52-.711v.645h-.787V40.029h.787v3.029a1.73,1.73,0,0,1,1.52-.689,1.87,1.87,0,0,1,1.312.471,3.21,3.21,0,0,1,.657,2.285A3.212,3.212,0,0,1,168.877,47.411ZM167.4,43.069c-1.17,0-1.356,1.007-1.356,2.056s.186,2.056,1.356,2.056,1.345-1.006,1.345-2.056S168.571,43.069,167.4,43.069Z" transform="translate(-165.258 -40.029)"/>
    </g>
    <g id="Group_3203" data-name="Group 3203" transform="translate(13.644 4.155)">
      <path id="Path_4180" data-name="Path 4180" d="M173.864,46.075c0,1.181.558,1.859,1.585,1.859a1.768,1.768,0,0,0,1.411-.613l.536.471a2.466,2.466,0,0,1-1.969.831c-1.422,0-2.351-.853-2.351-2.756,0-1.739.842-2.756,2.208-2.756,1.389,0,2.209,1.007,2.209,2.6v.361Zm2.679-1.487a1.382,1.382,0,0,0-2.515,0,2.273,2.273,0,0,0-.164.9h2.843A2.259,2.259,0,0,0,176.543,44.588Z" transform="translate(-173.077 -43.111)"/>
    </g>
    <g id="Group_3204" data-name="Group 3204" transform="translate(20.006 4.155)">
      <path id="Path_4181" data-name="Path 4181" d="M184.465,44.2a1.128,1.128,0,0,0-.93-.394,1.314,1.314,0,0,0-1.291,1.444v3.3h-.787v-5.38h.787v.656a1.808,1.808,0,0,1,1.509-.722,1.658,1.658,0,0,1,1.291.5Z" transform="translate(-181.457 -43.111)"/>
    </g>
    <g id="Group_3205" data-name="Group 3205" transform="translate(24.346 4.155)">
      <path id="Path_4182" data-name="Path 4182" d="M190.652,48.557v-.514a1.89,1.89,0,0,1-1.553.579,1.915,1.915,0,0,1-1.52-.492,1.548,1.548,0,0,1-.4-1.093c0-.941.656-1.553,1.859-1.553h1.619V44.97c0-.787-.394-1.181-1.379-1.181a1.412,1.412,0,0,0-1.356.612l-.536-.492a2.087,2.087,0,0,1,1.9-.8c1.443,0,2.155.623,2.155,1.794v3.652Zm0-2.483h-1.509c-.809,0-1.2.328-1.2.951s.383.919,1.235.919a1.574,1.574,0,0,0,1.2-.361,1.244,1.244,0,0,0,.273-.93Z" transform="translate(-187.174 -43.111)"/>
    </g>
    <g id="Group_3206" data-name="Group 3206" transform="translate(30.774 1.815)">
      <path id="Path_4183" data-name="Path 4183" d="M197.008,47.815a1.282,1.282,0,0,1-1.367-1.433V40.029h.787V46.35c0,.525.175.787.722.787h.426v.678Z" transform="translate(-195.641 -40.029)"/>
    </g>
    <g id="Group_3207" data-name="Group 3207" transform="translate(34.294 1.815)">
      <path id="Path_4184" data-name="Path 4184" d="M201.644,47.815a1.283,1.283,0,0,1-1.367-1.433V40.029h.787V46.35c0,.525.175.787.723.787h.426v.678Z" transform="translate(-200.277 -40.029)"/>
    </g>
    <g id="Group_3208" data-name="Group 3208" transform="translate(40.318 1.793)">
      <path id="Path_4185" data-name="Path 4185" d="M209.688,43.062v4.746H208.9V43.062h-.689v-.6h.689V41.444A1.312,1.312,0,0,1,210.268,40h.569v.678h-.427c-.5,0-.722.3-.722.787v1h1.149v.6Z" transform="translate(-208.212 -40)"/>
    </g>
    <g id="Group_3209" data-name="Group 3209" transform="translate(44.483 2.045)">
      <path id="Path_4186" data-name="Path 4186" d="M217.154,47.888v-.6a1.972,1.972,0,0,1-1.52.667,1.911,1.911,0,0,1-1.389-.5,2.005,2.005,0,0,1-.547-1.509V42.508h.787v3.313c0,.952.5,1.433,1.313,1.433a1.272,1.272,0,0,0,1.344-1.433V42.508h.787v5.38ZM214.245,41.3v-.973h.787V41.3Zm2.319,0v-.973h.787V41.3Z" transform="translate(-213.698 -40.332)"/>
    </g>
    <g id="Group_3210" data-name="Group 3210" transform="translate(50.956 4.155)">
      <path id="Path_4187" data-name="Path 4187" d="M225.231,44.2a1.126,1.126,0,0,0-.93-.394,1.314,1.314,0,0,0-1.29,1.444v3.3h-.787v-5.38h.787v.656a1.806,1.806,0,0,1,1.508-.722,1.657,1.657,0,0,1,1.291.5Z" transform="translate(-222.224 -43.111)"/>
    </g>
    <g id="Group_3211" data-name="Group 3211" transform="translate(58.4 4.155)">
      <path id="Path_4188" data-name="Path 4188" d="M235.507,48.557v-.514a1.889,1.889,0,0,1-1.553.579,1.917,1.917,0,0,1-1.52-.492,1.552,1.552,0,0,1-.4-1.093c0-.941.657-1.553,1.86-1.553h1.618V44.97c0-.787-.393-1.181-1.378-1.181a1.412,1.412,0,0,0-1.356.612l-.536-.492a2.086,2.086,0,0,1,1.9-.8c1.443,0,2.154.623,2.154,1.794v3.652Zm0-2.483H234c-.809,0-1.2.328-1.2.951s.383.919,1.235.919a1.572,1.572,0,0,0,1.2-.361,1.244,1.244,0,0,0,.273-.93Z" transform="translate(-232.029 -43.111)"/>
    </g>
    <g id="Group_3212" data-name="Group 3212" transform="translate(64.828 1.815)">
      <path id="Path_4189" data-name="Path 4189" d="M241.863,47.815a1.282,1.282,0,0,1-1.367-1.433V40.029h.787V46.35c0,.525.175.787.722.787h.427v.678Z" transform="translate(-240.496 -40.029)"/>
    </g>
    <g id="Group_3213" data-name="Group 3213" transform="translate(68.348 1.815)">
      <path id="Path_4190" data-name="Path 4190" d="M246.5,47.815a1.282,1.282,0,0,1-1.367-1.433V40.029h.787V46.35c0,.525.175.787.722.787h.427v.678Z" transform="translate(-245.133 -40.029)"/>
    </g>
    <g id="Group_3214" data-name="Group 3214" transform="translate(71.322 4.155)">
      <path id="Path_4191" data-name="Path 4191" d="M249.837,46.075c0,1.181.557,1.859,1.586,1.859a1.767,1.767,0,0,0,1.411-.613l.535.471a2.464,2.464,0,0,1-1.969.831c-1.421,0-2.35-.853-2.35-2.756,0-1.739.842-2.756,2.209-2.756,1.389,0,2.208,1.007,2.208,2.6v.361Zm2.679-1.487a1.382,1.382,0,0,0-2.515,0,2.273,2.273,0,0,0-.164.9h2.843A2.259,2.259,0,0,0,252.516,44.588Z" transform="translate(-249.05 -43.111)"/>
    </g>
  </g>
  <g id="Group_3216" data-name="Group 3216" transform="translate(136.052 56.219)">
    <path id="Path_4192" data-name="Path 4192" d="M213.808,118.874l-2.085-4.261h-1.5v4.261h-2.085V108.193h4.185a3.229,3.229,0,0,1,3.466,3.27,2.878,2.878,0,0,1-1.95,2.806l2.385,4.605Zm-1.62-8.821h-1.965v2.82h1.965a1.414,1.414,0,1,0,0-2.82Z" transform="translate(-208.138 -108.133)" fill="#219a62"/>
    <path id="Path_4193" data-name="Path 4193" d="M225.138,116.454a1.614,1.614,0,0,0,1.71,1.74,2.164,2.164,0,0,0,1.77-.735l1.185,1.155a3.723,3.723,0,0,1-2.971,1.231c-1.845,0-3.615-.84-3.615-4.005,0-2.551,1.38-3.991,3.406-3.991,2.175,0,3.4,1.591,3.4,3.736v.87Zm2.79-2.175a1.456,1.456,0,0,0-2.61,0,2.14,2.14,0,0,0-.18.84h2.97A2.153,2.153,0,0,0,227.928,114.279Z" transform="translate(-211.769 -109.013)" fill="#219a62"/>
    <path id="Path_4194" data-name="Path 4194" d="M240.023,122.71a3.654,3.654,0,0,1-2.836-1.02l1.215-1.23a1.991,1.991,0,0,0,1.53.6,1.478,1.478,0,0,0,1.575-1.62v-.795a2.288,2.288,0,0,1-1.86.78,2.6,2.6,0,0,1-1.86-.69c-.736-.735-.8-1.74-.8-3.105s.06-2.355.8-3.09a2.631,2.631,0,0,1,1.874-.691,2.29,2.29,0,0,1,1.906.825v-.735h1.89v7.531A3.173,3.173,0,0,1,240.023,122.71Zm.2-9.106c-1.155,0-1.275.991-1.275,2.026s.12,2.04,1.275,2.04,1.29-1.005,1.29-2.04S241.373,113.6,240.218,113.6Z" transform="translate(-215.086 -109.013)" fill="#219a62"/>
    <path id="Path_4195" data-name="Path 4195" d="M251.221,109.7v-1.59h2v1.59Zm.03,9.151v-7.816h1.95v7.816Z" transform="translate(-218.513 -108.114)" fill="#219a62"/>
    <path id="Path_4196" data-name="Path 4196" d="M264.856,118.884a3.238,3.238,0,0,1-2.43.96,3.2,3.2,0,0,1-2.415-.96,5.655,5.655,0,0,1,0-6.076,3.2,3.2,0,0,1,2.415-.96,3.238,3.238,0,0,1,2.43.96,5.655,5.655,0,0,1,0,6.076Zm-1.515-4.935a1.236,1.236,0,0,0-.916-.345,1.2,1.2,0,0,0-.9.345,2.636,2.636,0,0,0-.45,1.89,2.677,2.677,0,0,0,.45,1.9,1.2,1.2,0,0,0,.9.345,1.236,1.236,0,0,0,.916-.345,2.681,2.681,0,0,0,.449-1.9A2.64,2.64,0,0,0,263.342,113.949Z" transform="translate(-220.417 -109.013)" fill="#219a62"/>
    <path id="Path_4197" data-name="Path 4197" d="M277.7,119.754v-4.726a1.3,1.3,0,1,0-2.595,0v4.726h-1.95v-7.816h1.9v.72a2.677,2.677,0,0,1,1.95-.81,2.536,2.536,0,0,1,1.846.691,2.894,2.894,0,0,1,.795,2.22v5Z" transform="translate(-223.796 -109.013)" fill="#219a62"/>
    <path id="Path_4198" data-name="Path 4198" d="M295,118.874V108.193h2.085v8.821h4.845v1.86Z" transform="translate(-229.055 -108.133)" fill="#219a62"/>
    <path id="Path_4199" data-name="Path 4199" d="M313.5,119.783v-.72a2.677,2.677,0,0,1-1.95.81,2.538,2.538,0,0,1-1.845-.69,2.9,2.9,0,0,1-.8-2.221v-5h1.95v4.725a1.3,1.3,0,1,0,2.595,0v-4.725h1.95v7.816Z" transform="translate(-232.405 -109.042)" fill="#219a62"/>
    <path id="Path_4200" data-name="Path 4200" d="M324.624,116.454a1.614,1.614,0,0,0,1.71,1.74,2.164,2.164,0,0,0,1.77-.735l1.185,1.155a3.723,3.723,0,0,1-2.971,1.231c-1.845,0-3.615-.84-3.615-4.005,0-2.551,1.38-3.991,3.4-3.991,2.176,0,3.406,1.591,3.406,3.736v.87Zm2.791-2.175a1.456,1.456,0,0,0-2.61,0,2.14,2.14,0,0,0-.181.84h2.971A2.153,2.153,0,0,0,327.415,114.279Z" transform="translate(-235.727 -109.013)" fill="#219a62"/>
    <path id="Path_4201" data-name="Path 4201" d="M339.51,122.71a3.654,3.654,0,0,1-2.836-1.02l1.215-1.23a1.992,1.992,0,0,0,1.53.6,1.478,1.478,0,0,0,1.575-1.62v-.795a2.289,2.289,0,0,1-1.86.78,2.6,2.6,0,0,1-1.861-.69c-.735-.735-.795-1.74-.795-3.105s.06-2.355.795-3.09a2.635,2.635,0,0,1,1.875-.691,2.291,2.291,0,0,1,1.906.825v-.735h1.89v7.531A3.173,3.173,0,0,1,339.51,122.71Zm.2-9.106c-1.155,0-1.275.991-1.275,2.026s.12,2.04,1.275,2.04,1.29-1.005,1.29-2.04S340.86,113.6,339.7,113.6Z" transform="translate(-239.044 -109.013)" fill="#219a62"/>
  </g>
</svg>
