<svg id="Ebene_1" data-name="Ebene 1" xmlns="http://www.w3.org/2000/svg" viewBox="0 0 316.13 90.5"><defs><style>.cls-1{fill:#009662;}.cls-2{fill:#005fab;}.cls-3{fill:#1d1d1b;}</style></defs><title>logo_de</title><path class="cls-1" d="M91.14,123.52C94.34,141,83.38,160,69.44,170.8a112.81,112.81,0,0,0,32.15-19.32c26.86-22.54,39.67-51.51,28.6-64.7a16.9,16.9,0,0,0-7.25-4.94C107.22,87.88,88,106.49,91.14,123.52Z" transform="translate(-28.93 -80.3)"/><path class="cls-2" d="M75.49,125c.16-15.12,17.81-35.27,41-44.56-14.57-1.3-35.76,7.16-55,23.28-26.86,22.54-39.67,51.51-28.6,64.7l.25.27C47.41,169.8,75.22,150.52,75.49,125Z" transform="translate(-28.93 -80.3)"/><path class="cls-3" d="M164.3,140.22c-4.32,0-7.6-.92-10.4-3.76l3.6-3.6a9.32,9.32,0,0,0,6.88,2.4c3.28,0,5-1.24,5-3.52a3.17,3.17,0,0,0-.88-2.4,4.25,4.25,0,0,0-2.52-1l-3.44-.48a9.66,9.66,0,0,1-5.52-2.36,7.53,7.53,0,0,1-2-5.6c0-5.08,3.76-8.64,9.92-8.64,3.92,0,6.76,1,9.2,3.32l-3.52,3.48a7.92,7.92,0,0,0-5.84-2c-3,0-4.4,1.64-4.4,3.6a2.75,2.75,0,0,0,.84,2,4.9,4.9,0,0,0,2.64,1.12l3.36.48a9.42,9.42,0,0,1,5.44,2.2,8,8,0,0,1,2.2,6C174.86,137.1,170.26,140.22,164.3,140.22Z" transform="translate(-28.93 -80.3)"/><path class="cls-3" d="M203.14,129.26h-5.48V140H192.1V111.5h11c5.88,0,9.4,4,9.4,8.88S209,129.26,203.14,129.26Zm-.28-12.8h-5.2v7.8h5.2c2.52,0,4.12-1.56,4.12-3.88A3.79,3.79,0,0,0,202.86,116.46Z" transform="translate(-28.93 -80.3)"/><path class="cls-3" d="M229.22,140V111.5h5.56V140Z" transform="translate(-28.93 -80.3)"/><path class="cls-3" d="M264.3,116.46V140h-5.56V116.46H251.3v-5h20.44v5Z" transform="translate(-28.93 -80.3)"/><path class="cls-3" d="M288.26,140V111.5H307v5h-13.2v6.68h11.24v5H293.82V135H307v5Z" transform="translate(-28.93 -80.3)"/><path class="cls-3" d="M338.7,140l-5.52-9.92L327.7,140h-6.36l8.84-14.6L321.9,111.5h6.32l5,9.2,5-9.2h6.28l-8.28,13.88,8.88,14.6Z" transform="translate(-28.93 -80.3)"/><rect class="cls-3" x="126.15" y="23.22" width="189.92" height="0.8"/><path class="cls-3" d="M161.75,94.08a2.79,2.79,0,0,1-.81,1.46,3.76,3.76,0,0,1-5.24,0,2.79,2.79,0,0,1-.81-1.46,23.91,23.91,0,0,1,0-5.37,2.78,2.78,0,0,1,.81-1.46,3.76,3.76,0,0,1,5.24,0,2.78,2.78,0,0,1,.81,1.46,23.93,23.93,0,0,1,0,5.37Zm-1.07-5a2.21,2.21,0,0,0-.59-1.14,2.5,2.5,0,0,0-3.54,0,2.21,2.21,0,0,0-.59,1.14,21.49,21.49,0,0,0,0,4.71,2.21,2.21,0,0,0,.59,1.15,2.5,2.5,0,0,0,3.54,0,2.21,2.21,0,0,0,.59-1.15,21.41,21.41,0,0,0,0-4.71Z" transform="translate(-28.93 -80.3)"/><path class="cls-3" d="M167,96.52h-.92l-2.59-7.09h1.12l1.93,5.69,1.94-5.69h1.12Z" transform="translate(-28.93 -80.3)"/><path class="cls-3" d="M175.92,96.52v-.79a2.53,2.53,0,0,1-2,.88,2.47,2.47,0,0,1-1.83-.66,2.66,2.66,0,0,1-.72-2V89.43h1V93.8a2,2,0,0,0,.45,1.4,1.66,1.66,0,0,0,1.27.48,1.72,1.72,0,0,0,1.3-.49,1.93,1.93,0,0,0,.48-1.4V89.43h1v7.09Z" transform="translate(-28.93 -80.3)"/><path class="cls-3" d="M184.43,96.52V92.16a2,2,0,0,0-.46-1.41,1.94,1.94,0,0,0-2.57,0,1.94,1.94,0,0,0-.47,1.4v4.36h-1V89.43h1v.78a2.5,2.5,0,0,1,2-.86,2.45,2.45,0,0,1,1.81.66,2.64,2.64,0,0,1,.73,2v4.54Z" transform="translate(-28.93 -80.3)"/><path class="cls-3" d="M192.57,99.69v-4a2.4,2.4,0,0,1-2,.92,2.34,2.34,0,0,1-1.73-.62,5.67,5.67,0,0,1,0-6,2.34,2.34,0,0,1,1.73-.62,2.39,2.39,0,0,1,2,.92v-.83h1V99.69ZM192.5,92a3.51,3.51,0,0,0-.24-.84,1.27,1.27,0,0,0-.55-.63,2.07,2.07,0,0,0-1.84,0,1.31,1.31,0,0,0-.55.63,3.3,3.3,0,0,0-.24.84,8.08,8.08,0,0,0,0,2,3.29,3.29,0,0,0,.24.84,1.31,1.31,0,0,0,.55.63,2.08,2.08,0,0,0,1.84,0,1.27,1.27,0,0,0,.55-.63,3.51,3.51,0,0,0,.24-.84,8.09,8.09,0,0,0,0-2Z" transform="translate(-28.93 -80.3)"/><path class="cls-3" d="M201,96.52v-.79a2.53,2.53,0,0,1-2,.88,2.47,2.47,0,0,1-1.83-.66,2.66,2.66,0,0,1-.72-2V89.43h1V93.8a2,2,0,0,0,.45,1.4,1.66,1.66,0,0,0,1.27.48,1.72,1.72,0,0,0,1.3-.49,1.93,1.93,0,0,0,.47-1.4V89.43h1v7.09Z" transform="translate(-28.93 -80.3)"/><path class="cls-3" d="M205.66,93.25a2.73,2.73,0,0,0,.54,1.81,1.91,1.91,0,0,0,1.55.64,2.44,2.44,0,0,0,1-.19,3,3,0,0,0,.84-.62l.71.62a3.94,3.94,0,0,1-1.15.84,3.51,3.51,0,0,1-1.44.26,2.92,2.92,0,0,1-2.28-.9,3.94,3.94,0,0,1-.82-2.73,4.13,4.13,0,0,1,.78-2.67,2.6,2.6,0,0,1,2.13-1,2.64,2.64,0,0,1,2.14.92,3.79,3.79,0,0,1,.77,2.51v.48Zm3.53-2a1.66,1.66,0,0,0-.65-.78,1.91,1.91,0,0,0-2,0,1.66,1.66,0,0,0-.65.78,3.89,3.89,0,0,0-.22,1.18h3.75A3.86,3.86,0,0,0,209.19,91.29Z" transform="translate(-28.93 -80.3)"/><path class="cls-3" d="M221.72,96a2.34,2.34,0,0,1-1.73.62,2.4,2.4,0,0,1-2-.92v4h-1V89.43h1v.83a2.38,2.38,0,0,1,2-.92,2.34,2.34,0,0,1,1.73.62,5.67,5.67,0,0,1,0,6Zm-.24-4a3.49,3.49,0,0,0-.24-.84,1.27,1.27,0,0,0-.55-.63,2.07,2.07,0,0,0-1.84,0,1.31,1.31,0,0,0-.55.63A3.29,3.29,0,0,0,218,92a8,8,0,0,0,0,2,3.29,3.29,0,0,0,.24.84,1.31,1.31,0,0,0,.55.63,2.08,2.08,0,0,0,1.84,0,1.27,1.27,0,0,0,.55-.63,3.48,3.48,0,0,0,.24-.84,8,8,0,0,0,0-2Z" transform="translate(-28.93 -80.3)"/><path class="cls-3" d="M225.8,93.25a2.73,2.73,0,0,0,.54,1.81,1.91,1.91,0,0,0,1.55.64,2.44,2.44,0,0,0,1-.19,3,3,0,0,0,.84-.62l.71.62a3.94,3.94,0,0,1-1.15.84,3.51,3.51,0,0,1-1.44.26,2.92,2.92,0,0,1-2.28-.9,3.94,3.94,0,0,1-.82-2.73,4.13,4.13,0,0,1,.78-2.67,2.6,2.6,0,0,1,2.13-1,2.64,2.64,0,0,1,2.14.92,3.79,3.79,0,0,1,.77,2.51v.48Zm3.53-2a1.66,1.66,0,0,0-.65-.78,1.91,1.91,0,0,0-2,0,1.66,1.66,0,0,0-.65.78,3.89,3.89,0,0,0-.22,1.18h3.75A3.86,3.86,0,0,0,229.33,91.29Z" transform="translate(-28.93 -80.3)"/><path class="cls-3" d="M237.11,90.79a1.87,1.87,0,0,0-.55-.4,1.71,1.71,0,0,0-.67-.12,1.55,1.55,0,0,0-1.23.54,2,2,0,0,0-.47,1.36v4.35h-1V89.43h1v.86a1.93,1.93,0,0,1,.83-.7,2.71,2.71,0,0,1,1.16-.25,2.3,2.3,0,0,1,1.7.66Z" transform="translate(-28.93 -80.3)"/><path class="cls-3" d="M245.5,96.52a1.7,1.7,0,0,1-1.35-.53,2,2,0,0,1-.47-1.37V90.27h-.89v-.79h.89V87.26h1v2.22h1.51v.79h-1.51v4.32q0,1,1,1h.55v.89Z" transform="translate(-28.93 -80.3)"/><path class="cls-3" d="M253.14,96.52v-.79a2.53,2.53,0,0,1-2,.88,2.47,2.47,0,0,1-1.83-.66,2.66,2.66,0,0,1-.72-2V89.43h1V93.8a2,2,0,0,0,.45,1.4,1.66,1.66,0,0,0,1.27.48,1.72,1.72,0,0,0,1.3-.49,1.93,1.93,0,0,0,.47-1.4V89.43h1v7.09Z" transform="translate(-28.93 -80.3)"/><path class="cls-3" d="M259.1,96.52a1.7,1.7,0,0,1-1.35-.53,2,2,0,0,1-.47-1.37V90.27h-.89v-.79h.89V87.26h1v2.22h1.51v.79h-1.51v4.32q0,1,1,1h.55v.89Z" transform="translate(-28.93 -80.3)"/><path class="cls-3" d="M264.24,96.52a1.7,1.7,0,0,1-1.35-.53,2,2,0,0,1-.47-1.37V90.27h-.89v-.79h.89V87.26h1v2.22H265v.79h-1.51v4.32q0,1,1,1H265v.89Z" transform="translate(-28.93 -80.3)"/><path class="cls-3" d="M267.33,87.42V86.25h1.17v1.17Zm.06,9.1V89.43h1v7.09Z" transform="translate(-28.93 -80.3)"/><path class="cls-1" d="M253.85,156.75v11.76h-2.78V156.75h-3.72v-2.48h10.22v2.48Z" transform="translate(-28.93 -80.3)"/><path class="cls-1" d="M267.51,160.93a1.74,1.74,0,0,0-3.06,1.3v6.28h-2.6V158.09h2.54v1A3.53,3.53,0,0,1,267,158a3.15,3.15,0,0,1,2.46,1Z" transform="translate(-28.93 -80.3)"/><path class="cls-1" d="M275.37,164.11a2.15,2.15,0,0,0,2.28,2.32,2.88,2.88,0,0,0,2.36-1l1.58,1.54a5,5,0,0,1-4,1.64c-2.46,0-4.82-1.12-4.82-5.34,0-3.4,1.84-5.32,4.54-5.32,2.9,0,4.54,2.12,4.54,5v1.16Zm3.72-2.9a1.94,1.94,0,0,0-3.48,0,2.86,2.86,0,0,0-.24,1.12h4A2.88,2.88,0,0,0,279.09,161.21Z" transform="translate(-28.93 -80.3)"/><path class="cls-1" d="M300.31,168.51h-2.08l-4.7-14.24h2.88l2.86,9.28,2.86-9.28H305Z" transform="translate(-28.93 -80.3)"/><path class="cls-1" d="M314.09,168.51v-.9a3.17,3.17,0,0,1-2.56,1,3.55,3.55,0,0,1-2.66-.92,3.34,3.34,0,0,1-.86-2.34c0-1.66,1.14-3,3.56-3H314v-.52c0-1.14-.56-1.64-1.94-1.64a2.24,2.24,0,0,0-2,.86l-1.66-1.62a4.38,4.38,0,0,1,3.76-1.44c2.92,0,4.44,1.24,4.44,3.68v6.86Zm-.06-4.4H312c-.94,0-1.46.44-1.46,1.18s.48,1.2,1.5,1.2a2.06,2.06,0,0,0,1.64-.5,1.71,1.71,0,0,0,.38-1.32Z" transform="translate(-28.93 -80.3)"/><path class="cls-1" d="M325.37,168.51a2.83,2.83,0,0,1-3-3V154.27h2.6v11.1c0,.62.26.94.92.94h1v2.2Z" transform="translate(-28.93 -80.3)"/><path class="cls-1" d="M334.87,168.51a2.83,2.83,0,0,1-3-3V154.27h2.6v11.1c0,.62.26.94.92.94h1v2.2Z" transform="translate(-28.93 -80.3)"/><path class="cls-1" d="M341.39,156.31v-2.12H344v2.12Zm0,12.2V158.09H344v10.42Z" transform="translate(-28.93 -80.3)"/></svg>