<svg xmlns="http://www.w3.org/2000/svg" width="216.72" height="117.38" viewBox="0 0 216.72 117.38"><title>spp_logo</title><g id="Vrstva_2" data-name="Vrstva 2"><g id="Layer_1" data-name="Layer 1"><path d="M103.46,28.74a12,12,0,0,1,11.93,11.93h0a11.86,11.86,0,0,1-11.87,11.87H73.84V117h30.69V82h.16c21.79,0,40.9-17.36,40.9-39.94V40.9A40.9,40.9,0,0,0,104.67,0H50.19C21.58-.17,6.5,34.63,21.26,56.47L34.84,76.76a10.27,10.27,0,0,1,.52,9c-2.3,5.24-9.16,4.44-9.16,4.44H0v27H37.52c24.11,0,36.55-24.3,28.56-42.78L49.34,47.8C43.9,41,46.55,27.23,62.17,28.74Z"/><path d="M187.6,41a11.88,11.88,0,0,1-11.87,11.87v0s-21.4,0-29.15,0l0,64.51h30.16V82.32h-.09c22.58,0,40.1-17.32,40.1-39.91V41.24A40.9,40.9,0,0,0,175.82.35l-55.47,0C133.48,4.87,143,15.53,146.51,29.19l29-.05a12.14,12.14,0,0,1,12,12"/></g></g></svg>