<?xml version="1.0" encoding="utf-8"?>
<!-- Generator: Adobe Illustrator 24.1.0, SVG Export Plug-In . SVG Version: 6.00 Build 0)  -->
<svg version="1.1" id="Layer_1" xmlns="http://www.w3.org/2000/svg" xmlns:xlink="http://www.w3.org/1999/xlink" x="0px" y="0px"
	 viewBox="0 0 503.7 272" style="enable-background:new 0 0 503.7 272;" xml:space="preserve">
<style type="text/css">
	.st0{fill:#2B3087;}
	.st1{fill:#FCE200;}
</style>
<g id="XMLID_103_">
	<g id="XMLID_186_">
		<g id="XMLID_190_">
			<g id="XMLID_201_">
				<path id="XMLID_202_" class="st0" d="M392.9,152.8c2.3-1.6,4.2-3,6.1-4.2c16.8-11.3,33.6-22.7,50.6-33.7c6.3-4,8.3-9,8.1-16.2
					c-0.5-12.3-0.1-24.6-0.1-36.9c0-0.9,0-1.8-0.1-2.7c-0.2-2.9-1.5-4.3-4.3-4.8c-0.9-0.2-1.9-0.2-2.9-0.2c-24.5,0-49.1,0-73.6,0
					c-0.7,0-1.5,0-2.2,0.1c-3.7,0.4-5,1.8-5.3,5.6c0,0.4-0.1,0.7-0.1,1.1c0,23.4,0.1,46.8,0.1,70.2c0,14.1-0.1,28.2-0.1,42.3
					c0,7.7,0,18.3,0,26.2c-13.2,0-26.5,0-40.1,0c0-1,0-2,0-3c0-38.6,0-80.2,0-118.9c0-7.4-0.2-14.8,0-22.1
					c0.6-18.5,14.9-35,33.2-38.1c4.2-0.7,8.6-0.9,12.9-0.9c27.3-0.1,54.6,0,81.9,0c22.4,0,40.7,18.3,40.7,40.7
					c0,21.8,0,43.5,0.1,65.3c0,5-2,8.5-6.2,11c-10.1,6-20.1,12.3-30.2,18.3c-0.9,0.5-2.1,0.9-3.1,0.9c-21.1,0.1-42.2,0-63.3,0
					C394.4,152.9,394,152.9,392.9,152.8z"/>
			</g>
			<g id="XMLID_191_">
				<path id="XMLID_192_" class="st1" d="M368.7,210.7c0,5.6,0.1,8.4-0.1,13.6c-0.1,3.1-2.1,5.4-4.7,6.9
					c-10.2,5.9-20.4,11.7-30.6,17.5c-3,1.7-4.3,0.8-4.3-2.7c0-11.7,0-20.9-0.1-32.6c0-2.1,0.5-2.8,2.7-2.8c11.6,0.1,23.2,0,34.9,0
					C367.3,210.7,368,210.7,368.7,210.7z"/>
			</g>
		</g>
	</g>
	<path id="XMLID_194_" class="st0" d="M32.6,33.9c5.2-4.3,18.3-14.1,43.1-17c11.4-1.8,27.6-0.8,34.7-0.8c3.5,0,4.7,3.3,9.2,10.2
		c3.9,5.9,20.7,32.9,20.7,32.9s-47.2,0-62.4-0.4c-15.2-0.5-31.4,11.8-30.5,33.3s19.6,28.5,27.7,29.4c8.2,0.9,43.4,0.9,57.9,0.9
		c14.6,0,34.6-3,58.5,20.5c6.9,6.8,13,14.6,17,23.4c4.3,9.3,5.4,19.7,5.3,29.8c0,2.2-0.5,3.9-3.1,3.9c-4.1,0-38.2,0-38.2,0
		s1.4-18.8-11.7-29.1c-12.3-8.8-25.2-7.4-33.7-7.4c0,0-31.8,0-48.5,0s-36.4-3.9-54.7-24.3s-17.7-37.1-18-45.6
		C5.5,81.8,10.4,52.2,32.6,33.9z"/>
	<path id="XMLID_193_" class="st0" d="M126,16.1c0,0,23.4,38.4,25.4,41.4s6.8,1.6,22.8,1.8c5.4,0,40.1,0,50.4,0
		c10.4,0,39.3-3.4,44.5,31c0.5,18.5-17.4,30-23.9,30s-54.8,0-54.8,0s47.8,74,49.1,76.2c1.3,2.2,2.8,3.2,5.4,3.2s47.3,0,47.3,0
		l-25.5-42c0,0,47.5-11.5,49.9-62.8c1.2-26.6-14.4-51.7-35.8-65.4c-19.1-12.2-44.5-12.7-66.5-12.7C197.9,16.7,126,16.1,126,16.1z"/>
	<path id="XMLID_189_" class="st1" d="M26.5,210.7h187.4c-5.6,9.6-10.6,16.1-18.1,22.3c-6.4,5.4-13.8,10.1-21.7,13.1
		c-8.7,3.3-17,3.5-26.1,3.5c-14.6,0-29.1,0-43.7,0c-9.8,0-19.6,0-29.5,0C65.1,249.6,51.8,232.7,26.5,210.7z"/>
	<path id="XMLID_188_" class="st1" d="M245.8,210.7c0,0,48.8,0,51.1,0s25.6,38.9,25.6,38.9h-51.7L245.8,210.7z"/>
</g>
</svg>
