<?xml version="1.0" encoding="utf-8"?>
<!-- Generator: Adobe Illustrator 28.0.0, SVG Export Plug-In . SVG Version: 6.00 Build 0)  -->
<svg version="1.1" id="Ebene_1" xmlns="http://www.w3.org/2000/svg" xmlns:xlink="http://www.w3.org/1999/xlink" x="0px" y="0px"
	 viewBox="0 0 264 72.7" style="enable-background:new 0 0 264 72.7;" xml:space="preserve">
<style type="text/css">
	.st0{fill:#164194;}
	
		.st1{fill-rule:evenodd;clip-rule:evenodd;fill:#FFDA00;stroke:#164194;stroke-width:0.4593;stroke-linejoin:round;stroke-miterlimit:22.9256;}
	
		.st2{fill-rule:evenodd;clip-rule:evenodd;fill:#F39313;stroke:#164194;stroke-width:0.4593;stroke-linejoin:round;stroke-miterlimit:22.9256;}
	
		.st3{fill-rule:evenodd;clip-rule:evenodd;fill:#E30613;stroke:#164194;stroke-width:0.4593;stroke-linejoin:round;stroke-miterlimit:22.9256;}
	
		.st4{fill-rule:evenodd;clip-rule:evenodd;fill:#164194;stroke:#164194;stroke-width:0.4593;stroke-linejoin:round;stroke-miterlimit:22.9256;}
</style>
<g>
	<path class="st0" d="M121.94,64.86c-0.06,0-0.12-0.01-0.18-0.01c-0.06,0-0.12-0.01-0.18-0.01c-0.41,0-0.78,0.04-1.1,0.11
		c-0.32,0.07-0.59,0.15-0.79,0.25l-1,4.82h0.83l0.93-4.46c0.09-0.05,0.19-0.09,0.31-0.11c0.12-0.02,0.26-0.03,0.41-0.02
		c0.15,0.01,0.3,0.03,0.46,0.06L121.94,64.86L121.94,64.86z"/>
	<path class="st0" d="M126.13,66.47c0-0.36-0.06-0.66-0.19-0.91c-0.12-0.24-0.3-0.42-0.53-0.54c-0.23-0.12-0.51-0.18-0.83-0.18
		c-0.26,0-0.51,0.04-0.75,0.13c-0.24,0.09-0.46,0.21-0.67,0.38c-0.21,0.17-0.39,0.37-0.56,0.62c-0.1,0.16-0.2,0.33-0.28,0.52
		c-0.08,0.19-0.16,0.39-0.22,0.59c-0.06,0.21-0.11,0.41-0.14,0.62c-0.03,0.21-0.05,0.41-0.05,0.6c0,0.42,0.08,0.76,0.23,1.03
		c0.15,0.27,0.37,0.47,0.64,0.6c0.28,0.13,0.6,0.2,0.97,0.2c0.22,0,0.42-0.02,0.62-0.05c0.2-0.03,0.37-0.08,0.54-0.13
		c0.16-0.05,0.3-0.11,0.42-0.18l-0.1-0.55c-0.09,0.05-0.21,0.1-0.34,0.14c-0.14,0.05-0.28,0.09-0.45,0.12
		c-0.17,0.03-0.34,0.05-0.53,0.05c-0.27,0-0.5-0.05-0.67-0.14c-0.17-0.09-0.3-0.22-0.38-0.38c-0.08-0.16-0.14-0.34-0.15-0.55
		c-0.02-0.21-0.01-0.42,0.02-0.64l3.29-0.46c0.04-0.16,0.06-0.31,0.08-0.46C126.13,66.74,126.13,66.61,126.13,66.47L126.13,66.47z
		 M125.39,66.36c0,0.09-0.01,0.18-0.02,0.28c-0.01,0.1-0.03,0.21-0.06,0.33l-2.52,0.38c0.04-0.22,0.1-0.42,0.16-0.6
		c0.06-0.18,0.14-0.34,0.22-0.49c0.18-0.3,0.38-0.53,0.61-0.67c0.23-0.15,0.47-0.22,0.72-0.22c0.28,0,0.5,0.08,0.65,0.24
		C125.31,65.77,125.39,66.02,125.39,66.36L125.39,66.36z"/>
	<path class="st0" d="M131.24,65.19c-0.09-0.06-0.2-0.11-0.35-0.17c-0.15-0.05-0.31-0.1-0.5-0.13c-0.19-0.03-0.39-0.05-0.61-0.05
		c-0.31,0-0.61,0.05-0.87,0.14c-0.27,0.09-0.51,0.22-0.73,0.39c-0.22,0.17-0.41,0.37-0.58,0.6c-0.11,0.16-0.22,0.34-0.31,0.53
		c-0.09,0.19-0.17,0.39-0.24,0.6c-0.07,0.21-0.12,0.42-0.15,0.63c-0.04,0.21-0.05,0.42-0.05,0.61c0,0.36,0.07,0.67,0.19,0.93
		c0.13,0.26,0.31,0.46,0.55,0.6c0.24,0.14,0.53,0.21,0.86,0.21c0.22,0,0.41-0.02,0.59-0.06c0.17-0.04,0.32-0.09,0.44-0.15
		l-0.09,0.35c-0.04,0.18-0.11,0.35-0.19,0.51c-0.08,0.16-0.19,0.3-0.31,0.42c-0.12,0.12-0.27,0.22-0.45,0.28
		c-0.17,0.07-0.37,0.1-0.6,0.1c-0.16,0-0.31-0.01-0.46-0.04c-0.15-0.03-0.28-0.06-0.4-0.1c-0.12-0.04-0.22-0.08-0.3-0.13l-0.34,0.51
		c0.11,0.07,0.25,0.13,0.41,0.19c0.16,0.05,0.34,0.1,0.53,0.13c0.19,0.03,0.39,0.05,0.59,0.05c0.41,0,0.78-0.08,1.1-0.24
		c0.32-0.16,0.59-0.39,0.8-0.69c0.21-0.3,0.36-0.67,0.45-1.1L131.24,65.19L131.24,65.19z M130.38,65.47l-0.81,3.91
		c-0.11,0.06-0.24,0.11-0.39,0.15c-0.15,0.04-0.31,0.06-0.47,0.06c-0.37,0-0.64-0.1-0.81-0.3c-0.17-0.2-0.25-0.49-0.25-0.86
		c0-0.17,0.01-0.34,0.04-0.53c0.03-0.19,0.06-0.37,0.11-0.56c0.05-0.19,0.11-0.37,0.18-0.54c0.07-0.17,0.14-0.33,0.23-0.48
		c0.18-0.31,0.39-0.55,0.64-0.72c0.25-0.17,0.53-0.25,0.85-0.26c0.18,0,0.32,0.01,0.43,0.04C130.24,65.41,130.33,65.44,130.38,65.47
		L130.38,65.47z"/>
	<path class="st0" d="M133.52,64.94h-0.82l-1.06,5.09h0.83L133.52,64.94L133.52,64.94z M133.89,63.42c0-0.07-0.02-0.13-0.05-0.18
		c-0.03-0.06-0.08-0.1-0.14-0.13c-0.06-0.03-0.13-0.05-0.21-0.05c-0.11,0-0.2,0.03-0.29,0.08c-0.09,0.05-0.16,0.12-0.21,0.2
		c-0.05,0.08-0.08,0.17-0.08,0.26c0,0.11,0.04,0.19,0.11,0.26c0.07,0.07,0.17,0.1,0.29,0.11c0.11,0,0.2-0.03,0.29-0.08
		c0.09-0.05,0.16-0.12,0.22-0.2C133.86,63.6,133.89,63.51,133.89,63.42L133.89,63.42z"/>
	<path class="st0" d="M138.28,66.55c0-0.34-0.05-0.64-0.17-0.9c-0.11-0.25-0.28-0.45-0.51-0.6c-0.23-0.14-0.53-0.21-0.89-0.22
		c-0.29,0-0.55,0.05-0.79,0.14c-0.24,0.09-0.46,0.22-0.65,0.39c-0.19,0.17-0.36,0.37-0.51,0.6c-0.1,0.16-0.19,0.35-0.28,0.54
		c-0.08,0.2-0.15,0.41-0.21,0.62c-0.06,0.22-0.1,0.43-0.14,0.65c-0.03,0.22-0.05,0.42-0.05,0.62c0,0.34,0.05,0.64,0.16,0.9
		c0.11,0.26,0.28,0.46,0.51,0.6c0.23,0.14,0.53,0.22,0.89,0.22c0.29,0,0.55-0.05,0.79-0.14c0.24-0.09,0.45-0.22,0.65-0.39
		c0.19-0.17,0.36-0.37,0.5-0.6c0.1-0.16,0.19-0.35,0.28-0.55c0.08-0.2,0.15-0.41,0.21-0.63c0.06-0.22,0.1-0.43,0.14-0.65
		C138.27,66.95,138.28,66.74,138.28,66.55L138.28,66.55z M137.49,66.42c0,0.16-0.01,0.34-0.04,0.54c-0.03,0.2-0.06,0.39-0.11,0.6
		c-0.05,0.2-0.1,0.4-0.16,0.58c-0.06,0.19-0.13,0.35-0.2,0.49c-0.09,0.18-0.19,0.34-0.31,0.47c-0.12,0.14-0.25,0.25-0.41,0.32
		c-0.15,0.08-0.33,0.12-0.53,0.12c-0.21,0-0.38-0.05-0.5-0.14c-0.12-0.09-0.21-0.22-0.26-0.38c-0.05-0.16-0.08-0.34-0.08-0.54
		c0-0.16,0.01-0.34,0.04-0.53c0.03-0.19,0.06-0.39,0.11-0.58c0.05-0.2,0.1-0.39,0.16-0.57c0.06-0.18,0.13-0.35,0.2-0.49
		c0.09-0.18,0.19-0.34,0.31-0.48c0.12-0.14,0.26-0.25,0.42-0.33c0.16-0.08,0.33-0.12,0.53-0.12c0.21,0,0.37,0.05,0.5,0.14
		c0.12,0.09,0.21,0.21,0.26,0.37C137.47,66.04,137.49,66.22,137.49,66.42L137.49,66.42z"/>
	<path class="st0" d="M146.81,63.79c-0.16-0.11-0.36-0.19-0.6-0.26c-0.24-0.06-0.53-0.1-0.85-0.1c-0.3,0-0.6,0.04-0.89,0.13
		c-0.29,0.09-0.56,0.22-0.82,0.39c-0.26,0.17-0.5,0.39-0.73,0.65c-0.17,0.21-0.33,0.44-0.46,0.69c-0.13,0.25-0.25,0.51-0.34,0.79
		c-0.09,0.27-0.16,0.55-0.21,0.83c-0.05,0.28-0.07,0.55-0.07,0.81c0,0.39,0.05,0.74,0.16,1.04c0.11,0.3,0.26,0.55,0.45,0.75
		c0.19,0.2,0.42,0.35,0.68,0.45c0.26,0.1,0.55,0.15,0.86,0.15c0.37,0,0.69-0.03,0.97-0.09c0.28-0.06,0.53-0.15,0.74-0.26l0.7-3.38
		h-1.93l-0.11,0.55h1.1l-0.5,2.44c-0.08,0.04-0.19,0.08-0.34,0.11c-0.15,0.03-0.34,0.05-0.56,0.05c-0.26,0-0.49-0.07-0.69-0.2
		c-0.2-0.14-0.36-0.33-0.47-0.6c-0.12-0.26-0.18-0.59-0.18-0.98c0-0.22,0.02-0.45,0.06-0.69c0.04-0.24,0.09-0.48,0.16-0.71
		c0.07-0.24,0.15-0.46,0.25-0.68c0.1-0.22,0.2-0.41,0.33-0.58c0.25-0.35,0.53-0.62,0.86-0.79c0.33-0.17,0.68-0.26,1.05-0.26
		c0.18,0,0.34,0.01,0.48,0.04c0.14,0.03,0.25,0.06,0.35,0.1c0.1,0.04,0.17,0.08,0.23,0.12L146.81,63.79L146.81,63.79z"/>
	<path class="st0" d="M154.33,66.01c0-0.22-0.04-0.42-0.13-0.59c-0.09-0.18-0.24-0.31-0.44-0.42c-0.2-0.1-0.47-0.16-0.81-0.16
		c-0.24,0-0.46,0.03-0.68,0.09c-0.21,0.06-0.41,0.13-0.59,0.22c-0.18,0.09-0.32,0.19-0.45,0.3c-0.08-0.12-0.18-0.23-0.3-0.32
		c-0.13-0.09-0.28-0.16-0.46-0.22c-0.18-0.05-0.39-0.08-0.64-0.08c-0.37,0-0.7,0.03-1.01,0.1c-0.31,0.06-0.58,0.15-0.83,0.26
		l-1,4.82h0.83l0.93-4.47c0.14-0.06,0.29-0.1,0.45-0.13c0.15-0.03,0.32-0.04,0.5-0.04c0.32,0,0.56,0.06,0.71,0.19
		c0.15,0.12,0.23,0.29,0.22,0.51c0,0.04,0,0.08,0,0.12c0,0.04-0.01,0.08-0.02,0.13l-0.77,3.7h0.83l0.86-4.15
		c0.09-0.1,0.2-0.18,0.32-0.25c0.12-0.07,0.25-0.13,0.39-0.17c0.14-0.04,0.28-0.06,0.42-0.06c0.2,0,0.36,0.03,0.48,0.09
		c0.12,0.06,0.2,0.14,0.25,0.24c0.05,0.1,0.08,0.22,0.07,0.34c0,0.05,0,0.1-0.01,0.15c0,0.05-0.01,0.1-0.02,0.15l-0.76,3.66h0.83
		l0.76-3.66c0.01-0.06,0.02-0.11,0.03-0.17C154.32,66.13,154.33,66.07,154.33,66.01L154.33,66.01z"/>
	<path class="st0" d="M159.36,66.64c0-0.37-0.06-0.69-0.19-0.95c-0.12-0.26-0.3-0.46-0.53-0.6c-0.23-0.14-0.51-0.21-0.84-0.21
		c-0.24,0-0.44,0.02-0.62,0.07c-0.18,0.04-0.32,0.1-0.44,0.16l0.51-2.49h-0.82l-1.48,7.15c0.09,0.07,0.22,0.13,0.37,0.19
		c0.16,0.05,0.33,0.1,0.52,0.13c0.19,0.03,0.38,0.05,0.58,0.05c0.46,0,0.87-0.09,1.23-0.27c0.36-0.18,0.66-0.43,0.91-0.77
		c0.12-0.16,0.23-0.34,0.33-0.53c0.1-0.2,0.18-0.4,0.25-0.62c0.07-0.22,0.12-0.43,0.16-0.65C159.34,67.06,159.36,66.85,159.36,66.64
		L159.36,66.64z M158.54,66.6c0,0.17-0.01,0.34-0.04,0.53c-0.03,0.19-0.07,0.38-0.12,0.57c-0.05,0.19-0.11,0.38-0.18,0.55
		c-0.07,0.18-0.15,0.33-0.24,0.48c-0.17,0.27-0.37,0.48-0.62,0.63c-0.24,0.15-0.52,0.22-0.84,0.22c-0.13,0-0.25-0.01-0.36-0.03
		c-0.11-0.02-0.2-0.05-0.29-0.09l0.79-3.91c0.12-0.06,0.25-0.11,0.4-0.14c0.15-0.04,0.32-0.05,0.51-0.05c0.24,0,0.43,0.06,0.58,0.16
		c0.15,0.11,0.25,0.25,0.32,0.44C158.51,66.15,158.54,66.36,158.54,66.6L158.54,66.6z"/>
	<polygon class="st0" points="165.49,63.53 164.62,63.53 164.03,66.38 161.6,66.38 162.18,63.53 161.31,63.53 159.97,70.02 
		160.84,70.02 161.47,66.96 163.91,66.96 163.28,70.02 164.14,70.02 165.49,63.53 	"/>
	<path class="st0" d="M24.12,8.77c-0.56-0.38-1.25-0.7-2.1-0.94c-0.84-0.24-1.84-0.36-3-0.37c-1.18,0.01-2.23,0.17-3.15,0.5
		c-0.91,0.33-1.71,0.76-2.37,1.31c-0.66,0.55-1.21,1.16-1.64,1.84c-0.43,0.68-0.75,1.38-0.95,2.09c-0.21,0.72-0.31,1.4-0.31,2.07
		c0.01,0.81,0.15,1.5,0.41,2.08c0.27,0.57,0.62,1.07,1.03,1.48c0.42,0.41,0.87,0.78,1.34,1.1c0.47,0.33,0.93,0.64,1.34,0.95
		c0.42,0.31,0.77,0.65,1.03,1.02c0.27,0.36,0.41,0.8,0.41,1.3c-0.01,0.68-0.17,1.28-0.5,1.8c-0.33,0.52-0.77,0.93-1.34,1.22
		c-0.57,0.29-1.22,0.44-1.95,0.45c-0.48-0.01-0.93-0.05-1.34-0.14c-0.42-0.09-0.78-0.2-1.11-0.33c-0.32-0.14-0.58-0.27-0.78-0.42
		l-1.93,3.49c0.58,0.41,1.34,0.73,2.31,0.96c0.96,0.23,2.11,0.34,3.43,0.35c1.32-0.01,2.48-0.18,3.48-0.53
		c0.99-0.34,1.84-0.81,2.54-1.39c0.7-0.58,1.26-1.22,1.69-1.94c0.44-0.71,0.75-1.44,0.95-2.17c0.2-0.74,0.3-1.44,0.29-2.1
		c-0.01-0.71-0.12-1.32-0.33-1.85c-0.22-0.53-0.51-0.99-0.87-1.38c-0.36-0.39-0.75-0.74-1.18-1.04c-0.43-0.31-0.85-0.6-1.28-0.87
		c-0.43-0.27-0.82-0.54-1.18-0.82c-0.36-0.28-0.65-0.58-0.87-0.92c-0.21-0.33-0.33-0.72-0.33-1.16c0-0.42,0.07-0.83,0.22-1.22
		c0.15-0.39,0.36-0.75,0.64-1.07c0.29-0.32,0.64-0.57,1.06-0.76c0.42-0.19,0.9-0.28,1.45-0.28c0.69,0.01,1.3,0.1,1.82,0.27
		c0.52,0.16,0.95,0.36,1.28,0.58L24.12,8.77L24.12,8.77z"/>
	<path class="st0" d="M35.81,12.66H33.1l1.08-5.06l-5.39,1.31l-0.75,3.76h-1.96l-0.65,3.3h1.89l-1.89,9.34
		c-0.05,0.23-0.09,0.46-0.12,0.68c-0.03,0.23-0.04,0.45-0.04,0.66c-0.01,0.74,0.15,1.4,0.45,1.98c0.3,0.58,0.77,1.05,1.4,1.38
		c0.64,0.34,1.47,0.52,2.49,0.52c0.38,0,0.73-0.03,1.07-0.08c0.34-0.05,0.65-0.11,0.91-0.19c0.27-0.08,0.47-0.15,0.63-0.23
		l0.62-3.17c-0.15,0.07-0.31,0.12-0.5,0.16c-0.18,0.04-0.39,0.07-0.62,0.07c-0.44-0.01-0.77-0.12-0.99-0.34
		c-0.21-0.22-0.32-0.52-0.32-0.9c0-0.11,0.01-0.23,0.03-0.36c0.02-0.12,0.04-0.26,0.07-0.39l1.89-9.14h2.71L35.81,12.66L35.81,12.66
		z"/>
	<path class="st0" d="M53.38,13.64c-0.43-0.25-0.96-0.48-1.6-0.67c-0.64-0.2-1.34-0.35-2.12-0.46c-0.78-0.11-1.59-0.17-2.45-0.17
		c-1.88,0.01-3.51,0.32-4.89,0.94c-1.38,0.62-2.54,1.49-3.47,2.62c-0.44,0.53-0.82,1.13-1.16,1.77c-0.34,0.65-0.63,1.33-0.87,2.05
		c-0.24,0.71-0.42,1.44-0.55,2.17c-0.13,0.73-0.19,1.45-0.19,2.14c0.01,1.37,0.29,2.54,0.85,3.52c0.56,0.98,1.38,1.73,2.46,2.25
		c1.08,0.52,2.39,0.79,3.94,0.79c1.51-0.01,2.83-0.13,3.95-0.37c1.12-0.24,2.08-0.55,2.87-0.94L53.38,13.64L53.38,13.64z
		 M47.89,15.57l-2.35,11.49c-0.2,0.08-0.44,0.15-0.73,0.21c-0.28,0.05-0.61,0.09-0.97,0.09c-0.94-0.01-1.64-0.29-2.08-0.87
		c-0.44-0.58-0.66-1.41-0.66-2.49c0-0.65,0.07-1.34,0.2-2.07c0.13-0.73,0.3-1.44,0.53-2.14c0.23-0.7,0.5-1.33,0.81-1.89
		c0.47-0.85,1.03-1.5,1.65-1.94c0.63-0.45,1.33-0.67,2.1-0.67c0.38,0.01,0.69,0.04,0.94,0.1C47.57,15.43,47.76,15.5,47.89,15.57
		L47.89,15.57z"/>
	<path class="st0" d="M74.08,4.63h-5.09l-1.67,8.1c-0.28-0.08-0.65-0.15-1.09-0.21c-0.45-0.05-0.93-0.09-1.46-0.09
		c-1.49,0.01-2.86,0.32-4.09,0.93c-1.24,0.61-2.3,1.51-3.19,2.69c-0.4,0.53-0.76,1.11-1.08,1.75c-0.32,0.64-0.59,1.31-0.82,2.01
		c-0.23,0.7-0.4,1.4-0.52,2.11c-0.13,0.71-0.19,1.4-0.19,2.06c0.01,1.09,0.18,2.04,0.53,2.86c0.35,0.82,0.84,1.51,1.49,2.06
		c0.64,0.56,1.41,0.97,2.29,1.25c0.89,0.28,1.87,0.42,2.94,0.42c1.51-0.01,2.83-0.13,3.95-0.37c1.12-0.24,2.08-0.55,2.87-0.94
		L74.08,4.63L74.08,4.63z M66.77,15.47l-2.42,11.59c-0.2,0.1-0.44,0.17-0.73,0.22c-0.28,0.05-0.61,0.07-0.97,0.07
		c-0.96-0.01-1.65-0.29-2.1-0.87c-0.44-0.58-0.65-1.41-0.65-2.49c0-0.48,0.04-0.99,0.11-1.53c0.08-0.54,0.19-1.09,0.33-1.64
		c0.14-0.55,0.3-1.08,0.5-1.59c0.19-0.51,0.4-0.97,0.63-1.38c0.45-0.82,1.01-1.46,1.65-1.9c0.65-0.45,1.42-0.67,2.3-0.67
		c0.26,0,0.5,0.02,0.71,0.05C66.35,15.35,66.56,15.4,66.77,15.47L66.77,15.47z"/>
	<path class="st0" d="M85.22,12.66h-2.71l1.08-5.06L78.2,8.91l-0.75,3.76h-1.96l-0.65,3.3h1.89l-1.89,9.34
		c-0.05,0.23-0.09,0.46-0.12,0.68c-0.03,0.23-0.04,0.45-0.04,0.66c-0.01,0.74,0.15,1.4,0.45,1.98c0.3,0.58,0.77,1.05,1.4,1.38
		c0.64,0.34,1.47,0.52,2.49,0.52c0.38,0,0.73-0.03,1.07-0.08c0.34-0.05,0.65-0.11,0.91-0.19c0.27-0.08,0.47-0.15,0.63-0.23
		l0.62-3.17c-0.15,0.07-0.31,0.12-0.5,0.16c-0.18,0.04-0.39,0.07-0.62,0.07c-0.44-0.01-0.77-0.12-0.99-0.34
		c-0.21-0.22-0.32-0.52-0.32-0.9c0-0.11,0.01-0.23,0.03-0.36c0.02-0.12,0.04-0.26,0.07-0.39l1.89-9.14h2.71L85.22,12.66L85.22,12.66
		z"/>
	<path class="st0" d="M112.09,12.66h-4.6l-4.34,10.16c-0.17,0.42-0.33,0.83-0.45,1.22s-0.22,0.71-0.29,0.97
		c-0.07,0.25-0.1,0.38-0.1,0.39h-0.07c0-0.01,0.02-0.14,0.04-0.39c0.03-0.26,0.05-0.58,0.07-0.98c0.02-0.39,0.02-0.81-0.01-1.24
		l-0.42-10.12h-4.18l-4.77,10.12c-0.23,0.5-0.41,0.94-0.55,1.33c-0.14,0.39-0.24,0.7-0.3,0.94c-0.06,0.23-0.09,0.34-0.09,0.35h-0.07
		c0-0.01,0.02-0.12,0.05-0.35c0.03-0.23,0.07-0.54,0.1-0.94c0.03-0.39,0.05-0.83,0.05-1.33V12.66h-4.96l1.18,17.6h4.67l4.57-9.54
		c0.19-0.4,0.34-0.78,0.47-1.16c0.13-0.37,0.22-0.67,0.28-0.91c0.07-0.24,0.1-0.36,0.1-0.38h0.07c0,0.01-0.02,0.13-0.05,0.38
		c-0.03,0.24-0.05,0.54-0.08,0.91c-0.02,0.38-0.02,0.76-0.01,1.16l0.52,9.54h4.73L112.09,12.66L112.09,12.66z"/>
	<path class="st0" d="M127.8,18.54c-0.01-1.31-0.24-2.43-0.71-3.35c-0.47-0.92-1.15-1.63-2.06-2.12c-0.9-0.48-2-0.73-3.3-0.73
		c-1.07,0.01-2.06,0.16-2.98,0.48c-0.92,0.32-1.76,0.76-2.51,1.34c-0.75,0.58-1.41,1.27-1.98,2.07c-0.5,0.7-0.93,1.48-1.28,2.33
		c-0.35,0.85-0.63,1.72-0.82,2.62c-0.19,0.9-0.28,1.79-0.28,2.66c0.01,1.42,0.29,2.63,0.84,3.64c0.56,1.01,1.36,1.77,2.41,2.31
		c1.05,0.54,2.32,0.81,3.8,0.81c0.88-0.01,1.7-0.07,2.49-0.18c0.78-0.11,1.5-0.27,2.15-0.47c0.65-0.2,1.22-0.42,1.7-0.66l-0.49-3.17
		c-0.33,0.16-0.75,0.31-1.24,0.47c-0.5,0.15-1.04,0.28-1.63,0.38c-0.59,0.1-1.2,0.16-1.83,0.16c-0.87-0.01-1.56-0.17-2.07-0.51
		c-0.51-0.33-0.88-0.79-1.09-1.38c-0.22-0.58-0.3-1.26-0.27-2.03l10.74-1.47c0.15-0.59,0.26-1.14,0.32-1.68
		C127.77,19.53,127.8,19.03,127.8,18.54L127.8,18.54z M123.29,18.02c0,0.28-0.02,0.57-0.05,0.86c-0.03,0.3-0.09,0.61-0.17,0.94
		l-6.37,0.95c0.1-0.52,0.22-1.01,0.36-1.46c0.14-0.46,0.3-0.87,0.48-1.25c0.43-0.87,0.94-1.55,1.55-2.02
		c0.6-0.48,1.27-0.72,2.01-0.72c0.71,0,1.25,0.23,1.62,0.69C123.1,16.46,123.29,17.13,123.29,18.02L123.29,18.02z"/>
	<path class="st0" d="M141.94,12.43c-0.33-0.03-0.66-0.06-0.99-0.08c-0.32-0.02-0.69-0.02-1.1-0.02c-1.58,0.01-3.01,0.13-4.27,0.36
		c-1.26,0.23-2.36,0.55-3.27,0.95l-3.46,16.62h5.09l2.97-14.4c0.29-0.12,0.62-0.2,0.98-0.23c0.37-0.03,0.76-0.02,1.16,0.04
		c0.41,0.06,0.81,0.16,1.22,0.32L141.94,12.43L141.94,12.43z"/>
	<polygon class="st0" points="159.67,12.66 154.45,12.66 147.92,20.4 147.85,20.4 151.12,4.63 146.09,4.63 140.77,30.26 
		145.79,30.26 147.62,21.38 147.69,21.38 151.02,30.26 156.64,30.26 152.32,20.73 159.67,12.66 	"/>
	<path class="st0" d="M174.99,18.54c-0.01-1.31-0.24-2.43-0.71-3.35c-0.47-0.92-1.15-1.63-2.06-2.12c-0.9-0.48-2-0.73-3.3-0.73
		c-1.07,0.01-2.06,0.16-2.98,0.48c-0.92,0.32-1.76,0.76-2.51,1.34c-0.75,0.58-1.41,1.27-1.98,2.07c-0.5,0.7-0.93,1.48-1.28,2.33
		c-0.35,0.85-0.63,1.72-0.82,2.62c-0.19,0.9-0.28,1.79-0.28,2.66c0.01,1.42,0.29,2.63,0.84,3.64c0.56,1.01,1.36,1.77,2.41,2.31
		c1.05,0.54,2.32,0.81,3.8,0.81c0.88-0.01,1.7-0.07,2.49-0.18c0.78-0.11,1.5-0.27,2.15-0.47c0.65-0.2,1.22-0.42,1.7-0.66l-0.49-3.17
		c-0.33,0.16-0.75,0.31-1.24,0.47c-0.5,0.15-1.04,0.28-1.63,0.38c-0.59,0.1-1.2,0.16-1.83,0.16c-0.87-0.01-1.56-0.17-2.07-0.51
		c-0.51-0.33-0.88-0.79-1.09-1.38c-0.22-0.58-0.3-1.26-0.27-2.03l10.74-1.47c0.15-0.59,0.26-1.14,0.32-1.68
		C174.95,19.53,174.99,19.03,174.99,18.54L174.99,18.54z M170.48,18.02c0,0.28-0.02,0.57-0.05,0.86c-0.03,0.3-0.09,0.61-0.17,0.94
		l-6.37,0.95c0.1-0.52,0.22-1.01,0.36-1.46c0.14-0.46,0.3-0.87,0.48-1.25c0.43-0.87,0.94-1.55,1.55-2.02
		c0.6-0.48,1.27-0.72,2.01-0.72c0.71,0,1.25,0.23,1.62,0.69C170.29,16.46,170.48,17.13,170.48,18.02L170.48,18.02z"/>
	<polygon class="st0" points="20.81,37.42 15.78,37.42 13.96,46.23 8.56,46.23 10.39,37.42 5.33,37.42 0.93,58.76 5.98,58.76 
		7.88,49.51 13.27,49.51 11.38,58.76 16.41,58.76 20.81,37.42 	"/>
	<path class="st0" d="M36.44,47.62c-0.01-1.25-0.23-2.31-0.68-3.18c-0.44-0.87-1.1-1.55-1.95-2.01c-0.86-0.46-1.9-0.69-3.14-0.7
		c-1.01,0.01-1.96,0.16-2.83,0.45c-0.87,0.3-1.67,0.72-2.39,1.27c-0.71,0.55-1.34,1.2-1.88,1.96c-0.48,0.67-0.88,1.41-1.22,2.21
		c-0.34,0.81-0.59,1.63-0.78,2.49c-0.18,0.86-0.27,1.7-0.27,2.52c0.01,1.35,0.27,2.5,0.8,3.46c0.53,0.96,1.29,1.68,2.28,2.19
		c1,0.51,2.2,0.77,3.61,0.77c0.83-0.01,1.62-0.06,2.36-0.17c0.74-0.11,1.42-0.26,2.04-0.44c0.62-0.19,1.16-0.4,1.61-0.63l-0.47-3.01
		c-0.32,0.15-0.71,0.29-1.18,0.44c-0.47,0.14-0.99,0.27-1.55,0.36c-0.56,0.1-1.14,0.15-1.74,0.15c-0.82-0.01-1.48-0.17-1.97-0.48
		c-0.49-0.32-0.83-0.75-1.03-1.31c-0.21-0.55-0.29-1.2-0.25-1.93l10.2-1.4c0.14-0.56,0.24-1.09,0.31-1.59
		C36.41,48.57,36.44,48.09,36.44,47.62L36.44,47.62z M32.16,47.13c0,0.26-0.02,0.54-0.05,0.82c-0.03,0.28-0.09,0.58-0.17,0.89
		l-6.05,0.9c0.09-0.5,0.21-0.96,0.35-1.39c0.13-0.43,0.29-0.83,0.46-1.18c0.41-0.83,0.89-1.47,1.47-1.92
		c0.57-0.45,1.21-0.68,1.91-0.69c0.67,0,1.18,0.22,1.54,0.66C31.98,45.65,32.16,46.28,32.16,47.13L32.16,47.13z"/>
	<path class="st0" d="M45.78,42.04h-4.81L37.5,58.76h4.84L45.78,42.04L45.78,42.04z M46.95,36.83c-0.01-0.36-0.09-0.67-0.27-0.95
		c-0.18-0.28-0.42-0.5-0.74-0.66c-0.32-0.16-0.69-0.24-1.12-0.25c-0.55,0.01-1.05,0.13-1.51,0.38c-0.46,0.25-0.83,0.57-1.12,0.98
		c-0.28,0.41-0.43,0.85-0.44,1.33c0.01,0.36,0.09,0.67,0.27,0.96c0.18,0.28,0.43,0.51,0.74,0.68c0.32,0.17,0.7,0.25,1.12,0.26
		c0.54-0.01,1.03-0.13,1.5-0.38c0.47-0.25,0.84-0.58,1.13-0.99C46.8,37.77,46.94,37.32,46.95,36.83L46.95,36.83z"/>
	<path class="st0" d="M65.28,34.41h-4.84l-1.58,7.69c-0.27-0.08-0.62-0.14-1.03-0.2c-0.42-0.05-0.88-0.08-1.39-0.08
		c-1.42,0.01-2.71,0.3-3.89,0.88c-1.17,0.58-2.19,1.44-3.03,2.56c-0.38,0.5-0.72,1.05-1.03,1.66c-0.3,0.61-0.56,1.25-0.78,1.91
		c-0.22,0.66-0.38,1.33-0.5,2.01c-0.12,0.67-0.18,1.33-0.18,1.96c0.01,1.03,0.17,1.94,0.51,2.72c0.33,0.78,0.8,1.44,1.41,1.96
		c0.61,0.53,1.34,0.92,2.18,1.19c0.84,0.26,1.77,0.4,2.79,0.4c1.44-0.01,2.69-0.12,3.75-0.35c1.06-0.23,1.97-0.53,2.73-0.89
		L65.28,34.41L65.28,34.41z M58.34,44.71l-2.29,11.01c-0.19,0.09-0.42,0.17-0.69,0.21C55.08,55.97,54.77,56,54.43,56
		c-0.91-0.01-1.57-0.28-1.99-0.83c-0.41-0.55-0.62-1.34-0.62-2.37c0-0.45,0.04-0.94,0.11-1.45c0.07-0.51,0.18-1.03,0.31-1.56
		c0.13-0.52,0.29-1.03,0.47-1.51c0.18-0.49,0.38-0.92,0.6-1.31c0.43-0.78,0.96-1.39,1.57-1.81c0.62-0.42,1.34-0.64,2.18-0.64
		c0.24,0,0.47,0.02,0.67,0.05C57.94,44.6,58.14,44.64,58.34,44.71L58.34,44.71z"/>
	<path class="st0" d="M80.08,47.62c-0.01-1.25-0.23-2.31-0.68-3.18c-0.44-0.87-1.1-1.55-1.95-2.01c-0.86-0.46-1.9-0.69-3.14-0.7
		c-1.01,0.01-1.96,0.16-2.83,0.45c-0.87,0.3-1.67,0.72-2.39,1.27c-0.71,0.55-1.34,1.2-1.88,1.96c-0.48,0.67-0.88,1.41-1.22,2.21
		c-0.34,0.81-0.59,1.63-0.78,2.49c-0.18,0.86-0.27,1.7-0.27,2.52c0.01,1.35,0.27,2.5,0.8,3.46c0.53,0.96,1.29,1.68,2.28,2.19
		c1,0.51,2.2,0.77,3.61,0.77C72.47,59.06,73.26,59,74,58.9c0.74-0.11,1.42-0.26,2.04-0.44c0.62-0.19,1.16-0.4,1.61-0.63l-0.47-3.01
		c-0.32,0.15-0.71,0.29-1.18,0.44c-0.47,0.14-0.99,0.27-1.55,0.36c-0.56,0.1-1.14,0.15-1.74,0.15c-0.82-0.01-1.48-0.17-1.97-0.48
		c-0.49-0.32-0.83-0.75-1.03-1.31c-0.21-0.55-0.29-1.2-0.25-1.93l10.2-1.4c0.14-0.56,0.24-1.09,0.31-1.59
		C80.05,48.57,80.08,48.09,80.08,47.62L80.08,47.62z M75.8,47.13c0,0.26-0.02,0.54-0.05,0.82c-0.03,0.28-0.09,0.58-0.17,0.89
		l-6.05,0.9c0.09-0.5,0.21-0.96,0.35-1.39c0.13-0.43,0.29-0.83,0.46-1.18c0.41-0.83,0.89-1.47,1.47-1.92
		c0.57-0.45,1.21-0.68,1.91-0.69c0.67,0,1.18,0.22,1.54,0.66C75.62,45.65,75.8,46.28,75.8,47.13L75.8,47.13z"/>
	<path class="st0" d="M97.85,45.95c0.01-0.84-0.21-1.58-0.63-2.21c-0.43-0.63-1.11-1.12-2.04-1.47c-0.93-0.35-2.13-0.53-3.63-0.54
		c-0.96,0-1.87,0.05-2.73,0.16c-0.87,0.1-1.68,0.25-2.43,0.43c-0.75,0.19-1.43,0.4-2.03,0.65l-3.29,15.79h4.84l2.85-13.68
		c0.3-0.1,0.63-0.18,0.99-0.24c0.36-0.06,0.73-0.1,1.12-0.1c0.51,0,0.91,0.08,1.22,0.22c0.31,0.14,0.54,0.34,0.68,0.58
		c0.14,0.25,0.21,0.53,0.21,0.84c0,0.11-0.01,0.22-0.02,0.33c-0.02,0.11-0.04,0.23-0.07,0.35L90.5,58.76h4.81l2.39-11.48
		c0.05-0.23,0.08-0.46,0.11-0.68C97.83,46.38,97.85,46.16,97.85,45.95L97.85,45.95z"/>
	<path class="st0" d="M115.87,45.79c0-0.81-0.17-1.52-0.52-2.13c-0.35-0.6-0.87-1.08-1.58-1.42c-0.71-0.34-1.6-0.51-2.67-0.52
		c-0.48,0-0.95,0.05-1.41,0.13c-0.46,0.08-0.89,0.19-1.3,0.32c-0.41,0.13-0.78,0.27-1.1,0.42l1.71-8.19h-4.84l-5.06,24.35h4.84
		l2.82-13.55c0.36-0.17,0.71-0.31,1.06-0.39c0.35-0.09,0.72-0.13,1.11-0.13c0.5,0.01,0.9,0.08,1.2,0.24
		c0.3,0.15,0.52,0.36,0.65,0.62c0.13,0.26,0.2,0.55,0.19,0.88c0,0.11-0.02,0.22-0.04,0.33c-0.02,0.11-0.04,0.22-0.06,0.33
		l-2.42,11.69h4.84l2.42-11.6c0.05-0.23,0.08-0.47,0.11-0.69C115.85,46.23,115.87,46.01,115.87,45.79L115.87,45.79z"/>
	<path class="st0" d="M133.21,47.62c-0.01-1.25-0.23-2.31-0.68-3.18c-0.44-0.87-1.1-1.55-1.95-2.01c-0.86-0.46-1.9-0.69-3.14-0.7
		c-1.01,0.01-1.96,0.16-2.83,0.45c-0.87,0.3-1.67,0.72-2.39,1.27c-0.71,0.55-1.34,1.2-1.88,1.96c-0.48,0.67-0.88,1.41-1.22,2.21
		s-0.59,1.63-0.78,2.49c-0.18,0.86-0.27,1.7-0.27,2.52c0.01,1.35,0.27,2.5,0.8,3.46c0.53,0.96,1.29,1.68,2.28,2.19
		c1,0.51,2.2,0.77,3.61,0.77c0.83-0.01,1.62-0.06,2.36-0.17c0.74-0.11,1.42-0.26,2.04-0.44c0.62-0.19,1.16-0.4,1.61-0.63l-0.47-3.01
		c-0.32,0.15-0.71,0.29-1.18,0.44c-0.47,0.14-0.99,0.27-1.55,0.36c-0.56,0.1-1.14,0.15-1.74,0.15c-0.82-0.01-1.48-0.17-1.97-0.48
		c-0.49-0.32-0.83-0.75-1.03-1.31c-0.21-0.55-0.29-1.2-0.25-1.93l10.2-1.4c0.14-0.56,0.24-1.09,0.31-1.59
		C133.17,48.57,133.21,48.09,133.21,47.62L133.21,47.62z M128.93,47.13c0,0.26-0.02,0.54-0.05,0.82c-0.03,0.28-0.09,0.58-0.17,0.89
		l-6.05,0.9c0.09-0.5,0.21-0.96,0.35-1.39c0.13-0.43,0.29-0.83,0.46-1.18c0.41-0.83,0.89-1.47,1.47-1.92
		c0.57-0.45,1.21-0.68,1.91-0.69c0.67,0,1.18,0.22,1.54,0.66C128.74,45.65,128.93,46.28,128.93,47.13L128.93,47.13z"/>
	<path class="st0" d="M142.54,42.04h-4.81l-3.47,16.72h4.84L142.54,42.04L142.54,42.04z M143.72,36.83
		c-0.01-0.36-0.09-0.67-0.27-0.95c-0.18-0.28-0.42-0.5-0.74-0.66c-0.32-0.16-0.69-0.24-1.12-0.25c-0.55,0.01-1.05,0.13-1.51,0.38
		c-0.46,0.25-0.83,0.57-1.12,0.98c-0.28,0.41-0.43,0.85-0.44,1.33c0.01,0.36,0.09,0.67,0.27,0.96c0.18,0.28,0.43,0.51,0.74,0.68
		c0.32,0.17,0.7,0.25,1.12,0.26c0.54-0.01,1.03-0.13,1.5-0.38c0.47-0.25,0.84-0.58,1.13-0.99
		C143.56,37.77,143.71,37.32,143.72,36.83L143.72,36.83z"/>
	<path class="st0" d="M169.03,45.95c0-0.83-0.19-1.57-0.56-2.2c-0.37-0.63-0.94-1.12-1.69-1.48s-1.69-0.54-2.81-0.54
		c-0.92,0.01-1.77,0.08-2.53,0.24c-0.77,0.16-1.44,0.36-2.02,0.61c-0.58,0.25-1.06,0.53-1.44,0.82c-0.26-0.32-0.63-0.59-1.1-0.85
		c-0.47-0.25-1.01-0.45-1.63-0.6c-0.63-0.15-1.31-0.22-2.05-0.23c-1.39,0-2.66,0.11-3.82,0.32c-1.16,0.21-2.23,0.52-3.22,0.93
		l-3.29,15.79h4.84l2.82-13.68c0.31-0.11,0.63-0.2,0.97-0.25c0.34-0.06,0.69-0.09,1.08-0.09c0.73,0.01,1.28,0.15,1.65,0.44
		c0.37,0.28,0.55,0.69,0.55,1.2c0,0.09-0.01,0.19-0.02,0.28c-0.01,0.09-0.03,0.2-0.04,0.31l-2.45,11.79h4.84l2.73-13.15
		c0.3-0.25,0.65-0.46,1.06-0.62c0.4-0.16,0.83-0.24,1.27-0.25c0.71,0.01,1.23,0.16,1.55,0.46c0.32,0.3,0.48,0.69,0.47,1.18
		c0,0.11-0.01,0.21-0.02,0.31c-0.01,0.1-0.03,0.2-0.04,0.31l-2.45,11.75h4.84l2.39-11.6c0.05-0.2,0.08-0.4,0.1-0.6
		C169.02,46.35,169.03,46.15,169.03,45.95L169.03,45.95z"/>
	<path class="st1" d="M196.14,43.94l-11.21-8.45l4.56-21.46c1.52-7.16,8.61-13,15.77-13h13c-7.16,0-14.24,5.84-15.77,13l-4.56,21.46
		L196.14,43.94L196.14,43.94z"/>
	<path class="st2" d="M202.5,14.03c1.52-7.16,8.61-13,15.77-13l-7.32,34.46l-14.8,8.45L202.5,14.03L202.5,14.03z"/>
	<path class="st1" d="M251.75,27.04l11.21,8.45l-4.56,21.46c-1.52,7.16-8.61,13-15.77,13h-13c7.16,0,14.25-5.84,15.77-13l4.56-21.46
		L251.75,27.04L251.75,27.04z"/>
	<path class="st2" d="M245.39,56.95c-1.52,7.16-8.61,13-15.77,13l7.32-34.46l14.8-8.45L245.39,56.95L245.39,56.95z"/>
	<path class="st3" d="M229.62,69.95c-7.16,0-11.76-5.84-10.24-13l9.12-42.91c1.52-7.16-3.08-13-10.24-13h-13
		c7.16,0,11.76,5.84,10.24,13l-9.12,42.91c-1.52,7.16,3.08,13,10.24,13H229.62L229.62,69.95z"/>
	<path class="st4" d="M242.63,69.95c-7.16,0-11.76-5.84-10.24-13l9.12-42.91c1.52-7.16-3.08-13-10.24-13h-13
		c7.16,0,11.76,5.84,10.24,13l-9.12,42.91c-1.52,7.16,3.08,13,10.24,13H242.63L242.63,69.95z"/>
</g>
</svg>
