<svg width="56" height="56" viewBox="0 0 56 56" fill="none" xmlns="http://www.w3.org/2000/svg">
<path d="M27.9999 55.0986C42.9661 55.0986 55.0985 42.9661 55.0985 28C55.0985 13.0338 42.9661 0.901398 27.9999 0.901398C13.0338 0.901398 0.901367 13.0338 0.901367 28C0.901367 42.9661 13.0338 55.0986 27.9999 55.0986Z" fill="white"/>
<path d="M30.7251 12.6171C30.4875 12.5747 29.3422 12.3823 28 12.3823C26.6579 12.3823 25.5126 12.5738 25.275 12.6171C25.1386 12.6415 25.0862 12.5078 25.1901 12.4302C25.284 12.3606 27.9991 10.294 27.9991 10.294L30.8073 12.4302C30.9129 12.5078 30.8615 12.6415 30.7251 12.6171ZM26.0337 26.0355C26.0337 26.0355 25.8901 26.0869 25.8522 26.2134C26.4212 26.6506 26.8132 27.645 28 27.645C29.1869 27.645 29.5789 26.6506 30.147 26.2134C30.11 26.086 29.9664 26.0355 29.9664 26.0355C29.9664 26.0355 29.223 26.2107 28 26.2107C26.7771 26.2107 26.0337 26.0355 26.0337 26.0355ZM28 24.3618C27.6704 24.3618 27.5981 24.2371 27.3732 24.238C27.1591 24.2389 26.7437 24.4097 26.6533 24.5659C26.6597 24.6454 26.6886 24.7168 26.7464 24.78C27.2269 24.8522 27.4437 25.1196 28.0009 25.1196C28.5582 25.1196 28.7741 24.8522 29.2555 24.78C29.3115 24.7168 29.3422 24.6463 29.3486 24.5659C29.2591 24.4097 28.8428 24.2398 28.6278 24.238C28.402 24.2362 28.3288 24.3618 28 24.3618ZM55.0571 29.4858C55.0228 30.1334 54.9649 30.7756 54.8855 31.4106C51.8181 31.9182 50.7216 29.185 47.5793 29.3223C47.7671 29.9889 47.9198 30.6681 48.0372 31.3618C50.6286 31.36 51.6727 33.7824 54.5558 33.4257C54.404 34.1663 54.2216 34.897 54.0111 35.6169C51.7314 35.8409 50.9284 33.5756 48.2901 33.6379C48.3118 34.0137 48.3235 34.393 48.3235 34.776L48.3127 35.4091L53.4358 37.3637C53.1675 38.0926 52.8677 38.8053 52.5407 39.5035C51.0007 39.4186 50.4696 37.4432 48.1266 37.6004C48.0562 38.1071 47.9668 38.6075 47.8602 39.1015C49.8951 38.9588 50.3332 40.8321 51.791 40.9838C51.4198 41.6613 51.0197 42.3206 50.5942 42.9628C49.7308 42.5004 48.982 41.1049 47.3444 41.0191C47.5124 40.5006 47.6597 39.9749 47.7843 39.4402C46.3319 39.4402 44.6709 38.8739 43.2781 37.6058C43.7297 35.0352 39.7402 32.4177 39.7402 30.5353C39.7402 28.4904 40.7744 27.3587 40.7744 24.602C40.7744 22.5562 39.7808 20.337 38.2824 18.8205C37.9924 18.526 37.6953 18.2876 37.3539 18.0735C38.7304 19.777 39.7871 21.7966 39.7871 24.136C39.7871 26.7318 38.5795 28.102 38.5795 30.4983C38.5795 32.8937 42.084 34.9666 42.084 37.4369C42.084 38.4088 41.7733 39.358 40.7491 41.2223C42.3225 42.7939 44.3719 43.6511 45.6942 43.6511C46.1233 43.6511 46.3536 43.5201 46.5071 43.1832C46.639 42.8924 46.7646 42.5979 46.8829 42.3008C48.3073 42.3558 48.9594 43.6502 49.7479 44.1668C49.3153 44.7476 48.8609 45.3085 48.3849 45.8513C47.8566 45.266 47.1466 44.2815 46.107 44.0078C45.9209 44.3691 45.724 44.7259 45.5172 45.0755C46.4123 45.3193 47.0247 46.2226 47.4989 46.8169C46.9877 47.3462 46.4557 47.8538 45.902 48.3415C45.556 47.8032 45.0177 47.1204 44.4144 46.7519C44.1913 47.0535 43.9591 47.348 43.7198 47.6343C44.2328 47.982 44.6853 48.608 44.9807 49.1183C44.3412 49.6313 43.68 50.1182 42.9954 50.5734C42.6576 47.8213 38.9011 45.9353 39.9136 42.7424C39.5812 43.3051 39.1847 44.0088 39.1847 44.856C39.1847 47.1673 41.6469 49.0018 41.8429 51.2987C41.3326 51.604 40.8105 51.8912 40.2785 52.1631C40.19 49.6386 37.5833 46.8756 37.5833 44.8036C37.5833 42.4904 40.6127 40.1673 40.6127 37.4369C40.6127 34.7046 37.1172 32.8133 37.1172 30.4143C37.1172 28.0171 38.6039 26.6379 38.6039 23.5651C38.6039 21.3143 37.5345 19.0364 35.8825 17.5813C35.5899 17.3229 35.3017 17.1179 34.9558 16.9382C36.5139 18.8069 37.4171 20.5023 37.4171 23.0747C37.4171 25.9641 35.7136 27.5682 35.7136 30.3971C35.7136 33.2269 39.144 34.8004 39.144 37.4378C39.144 40.0752 35.9511 42.298 35.9511 45.0077C35.9511 47.4726 38.7656 49.933 38.8071 52.8577C38.192 53.1259 37.5652 53.3707 36.9275 53.5929C37.2852 50.6384 34.1176 47.5909 34.1176 45.1802C34.1176 42.5446 37.4297 40.2793 37.4297 37.4378C37.4297 34.5944 34.0625 33.273 34.0625 30.3547C34.0625 27.4382 36.1282 25.8232 36.1282 22.6005C36.1282 20.0886 34.888 17.8297 33.0762 16.4297L32.9615 16.3429C32.7908 16.2165 32.6499 16.3691 32.7709 16.5191C34.0535 18.1205 34.739 19.74 34.739 22.138C34.739 25.0862 32.3662 27.4815 32.3662 30.3375C32.3662 33.7084 35.5528 34.6721 35.5528 37.4378C35.5528 40.2026 32.1359 42.4146 32.1359 45.35C32.1359 48.0724 35.3695 51.0937 34.8149 54.236C34.1664 54.404 33.5088 54.5503 32.8413 54.6695C33.4483 50.7568 30.2762 47.9468 30.2762 45.3871C30.2762 42.616 33.815 40.1457 33.815 37.4378C33.815 34.8835 31.2751 34.0489 30.9409 31.4358C30.8949 31.0791 30.6086 30.8144 30.2139 30.8804C29.6981 30.9743 29.0369 31.3139 27.9982 31.3139C26.9595 31.3139 26.2984 30.9734 25.7817 30.8804C25.3879 30.8153 25.1016 31.08 25.0555 31.4358C24.7222 34.0489 22.1806 34.8826 22.1806 37.4378C22.1806 40.1457 25.7203 42.6151 25.7203 45.3871C25.7203 47.9468 22.5482 50.7568 23.1542 54.6695C22.4877 54.5494 21.8292 54.4031 21.1807 54.236C20.6261 51.0937 23.8606 48.0724 23.8606 45.35C23.8606 42.4146 20.4428 40.2026 20.4428 37.4378C20.4428 34.6721 23.6302 33.7084 23.6302 30.3375C23.6302 27.4815 21.2566 25.0871 21.2566 22.138C21.2566 19.7409 21.9421 18.1214 23.2256 16.5191C23.3457 16.3691 23.2057 16.2165 23.0341 16.3429L22.9203 16.4297C21.1102 17.826 19.871 20.085 19.871 22.5969C19.871 25.8196 21.9367 27.4346 21.9367 30.3511C21.9367 33.2685 18.5695 34.5899 18.5695 37.4342C18.5695 40.2757 21.8816 42.541 21.8816 45.1766C21.8816 47.5882 18.714 50.6348 19.0726 53.5893C18.434 53.3671 17.8071 53.1214 17.192 52.854C17.2345 49.9294 20.0471 47.4681 20.0471 45.0041C20.0471 42.2944 16.856 40.0716 16.856 37.4342C16.856 34.7967 20.2847 33.2233 20.2847 30.3935C20.2847 27.5646 18.5821 25.9605 18.5821 23.0711C18.5821 20.4987 19.4844 18.8033 21.0425 16.9346C20.6957 17.1143 20.4084 17.3193 20.1167 17.5777C18.4647 19.0328 17.3962 21.3107 17.3962 23.5615C17.3962 26.6343 18.8829 28.0135 18.8829 30.4107C18.8829 32.8097 15.3874 34.701 15.3874 37.4333C15.3874 40.1637 18.4168 42.4877 18.4168 44.8C18.4168 46.8729 15.8083 49.6358 15.7207 52.1595C15.1887 51.8876 14.6666 51.6004 14.1563 51.2951C14.3532 48.9982 16.8145 47.1637 16.8145 44.8524C16.8145 44.0051 16.4189 43.3015 16.0856 42.7388C17.0981 45.9317 13.3416 47.8177 13.0038 50.5698C12.3191 50.1146 11.6571 49.6277 11.0185 49.1147C11.313 48.6053 11.7655 47.9784 12.2794 47.6307C12.0391 47.3453 11.8079 47.0499 11.5848 46.7482C10.9806 47.1167 10.4413 47.7996 10.0963 48.3379C9.54443 47.8511 9.01153 47.3426 8.50031 46.8133C8.9745 46.2189 9.58689 45.3157 10.482 45.0718C10.2751 44.7223 10.0782 44.3664 9.89218 44.0042C8.85256 44.2779 8.14172 45.2624 7.61424 45.8477C7.13824 45.304 6.68301 44.7431 6.25127 44.1632C7.03979 43.6466 7.69192 42.3513 9.1154 42.2971C9.23463 42.5934 9.36018 42.8878 9.49205 43.1796C9.64559 43.5165 9.87682 43.6475 10.305 43.6475C11.6273 43.6475 13.6758 42.7903 15.2501 41.2187C14.2259 39.3544 13.9151 38.4051 13.9151 37.4333C13.9151 34.9638 17.4197 32.8909 17.4197 30.4947C17.4197 28.0984 16.212 26.7282 16.212 24.1324C16.212 21.793 17.2688 19.7734 18.6453 18.0699C18.3039 18.284 18.0068 18.5224 17.7168 18.8169C16.2184 20.3343 15.2248 22.5526 15.2248 24.5984C15.2248 27.3551 16.2599 28.4868 16.2599 30.5317C16.2599 32.414 12.2695 35.0316 12.7211 37.6022C11.3283 38.8703 9.66727 39.4366 8.21398 39.4366C8.34043 39.9713 8.48766 40.497 8.65385 41.0155C7.01721 41.1022 6.26843 42.4977 5.40405 42.9592C4.97772 42.317 4.5785 41.6577 4.20727 40.9802C5.66418 40.8285 6.10314 38.9552 8.13901 39.0979C8.03243 38.6038 7.94211 38.1026 7.87166 37.5968C5.52869 37.4396 4.99759 39.4158 3.45759 39.4998C3.13063 38.8017 2.83076 38.089 2.5625 37.3601L7.6865 35.4055L7.67566 34.7724C7.67566 34.3894 7.6874 34.01 7.70818 33.6343C5.06985 33.5729 4.26689 35.8373 1.98714 35.6133C1.7776 34.8934 1.59424 34.1636 1.4434 33.422C4.32469 33.7788 5.36972 31.3564 7.96198 31.3582C8.0794 30.6645 8.23205 29.9853 8.41901 29.3187C5.27669 29.1823 4.18018 31.9155 1.11372 31.4069C1.03334 30.772 0.976434 30.1298 0.942111 29.4822C4.50714 29.8805 5.84392 26.9495 9.09011 27.3081C9.39631 26.5322 9.75218 25.7817 10.1532 25.0591C6.08327 24.3437 4.70134 27.7471 0.913208 27.2241C1.32237 12.618 13.2928 0.901398 28 0.901398C42.7073 0.901398 54.6777 12.618 55.0869 27.2277C51.2978 27.7507 49.9159 24.3482 45.8469 25.0627C46.247 25.7853 46.6029 26.5359 46.91 27.3117C50.1544 26.9522 51.4911 29.8841 55.0571 29.4858ZM16.352 18.1205C14.3568 17.3049 11.9416 17.4928 9.87863 18.8178C9.55889 16.8984 8.51747 15.1931 7.03437 14.1644C6.82934 14.0226 6.61618 14.1571 6.63514 14.3947C6.94856 18.4502 4.57759 21.9718 1.66198 25.0672C4.66701 25.9704 7.22495 22.101 11.1224 23.4513C12.5206 21.3694 14.2963 19.5602 16.352 18.1205ZM28 15.6673C25.4846 15.6673 23.3773 17.0899 22.8255 18.928C22.783 19.0689 22.8408 19.1601 23.0034 19.0869C23.4559 18.8837 23.9708 18.7862 24.5299 18.7862C25.5559 18.7862 26.46 19.1628 26.9948 19.8186C27.2314 20.5989 27.2513 21.7289 26.9839 22.3738C26.5612 22.2789 26.4095 21.952 25.9967 21.952C25.5839 21.952 25.2642 22.2419 24.5642 22.2419C23.8651 22.2419 23.7829 21.9113 23.3231 21.9113C22.7821 21.9113 22.6828 22.4686 22.6828 23.0973C22.6828 25.9 25.2588 29.7568 27.9991 29.7568C30.7386 29.7568 33.3146 25.9 33.3146 23.0973C33.3146 22.4686 33.1855 21.9303 32.62 21.8571C32.3382 22.0604 32.079 22.2419 31.4341 22.2419C30.7341 22.2419 30.5408 21.952 30.1289 21.952C29.6313 21.952 29.681 23.0015 29.0902 23.0602C28.6964 22.1137 28.6775 20.8997 29.0044 19.8186C29.54 19.1628 30.4433 18.7862 31.4693 18.7862C32.0284 18.7862 32.5469 18.8846 32.9949 19.0869C33.1584 19.1601 33.2153 19.068 33.1728 18.928C32.6219 17.0899 30.5155 15.6673 28 15.6673ZM32.0049 19.6885C31.4016 19.6885 30.6944 19.8737 30.25 20.3686C30.2039 20.5032 30.2039 20.7037 30.2689 20.8374C31.3628 20.4626 32.3274 20.4481 32.7935 20.9693C33.0419 20.7435 33.1213 20.5402 33.1213 20.3045C33.1213 19.9405 32.751 19.6885 32.0049 19.6885ZM23.2066 20.9693C23.7341 20.4409 24.846 20.4635 26.0012 20.8898C26.0518 20.3153 25.023 19.6876 23.9951 19.6876C23.2482 19.6876 22.8788 19.9396 22.8788 20.3045C22.8788 20.5402 22.9582 20.7444 23.2066 20.9693ZM40.5431 11.4818C38.5569 11.6236 36.8318 12.3055 35.4363 13.4418C36.0288 11.7618 36.7812 10.2922 37.735 8.86785C35.206 9.13611 33.0915 10.061 31.5488 11.6417L30.3412 8.47585L33.022 6.10849L29.4326 5.85469L28 2.51637L26.5666 5.85469L22.9772 6.10849L25.658 8.47585L24.4513 11.6417C22.9077 10.061 20.7932 9.13611 18.266 8.86785C19.218 10.2931 19.9704 11.7627 20.5629 13.4418C19.1683 12.3046 17.4431 11.6227 15.457 11.4818C16.6483 13.0137 17.7042 14.6467 18.4864 16.4026C18.5749 16.6004 18.7646 16.6654 18.9696 16.5633C21.6901 15.2112 24.7557 14.4507 27.9991 14.4507C31.2426 14.4507 34.3073 15.2121 37.0296 16.5633C37.2346 16.6654 37.4243 16.6004 37.5119 16.4026C38.295 14.6467 39.3509 13.0137 40.5431 11.4818ZM44.8795 23.4531C48.7751 22.1028 51.334 25.9713 54.339 25.069C51.4234 21.9737 49.0533 18.452 49.3668 14.3965C49.3857 14.1589 49.1717 14.0235 48.9675 14.1662C47.4835 15.1949 46.4421 16.9002 46.1233 18.8196C44.0594 17.4946 41.6451 17.3058 39.6498 18.1223C41.7029 19.5602 43.4795 21.3694 44.8795 23.4531Z" fill="#006341"/>
<path d="M48.4084 51.4929H47.03V55.2007H46.536V51.4929H45.1613V51.0323H48.4084V51.4929ZM48.9873 51.0323H49.7198L51.1379 54.3001H51.1478L52.5695 51.0323H53.2903V55.2007H52.7926V51.7061H52.7818L51.2887 55.2007H50.988L49.4895 51.7061H49.4796V55.2007H48.9873V51.0323Z" fill="#006341"/>
</svg>
