<?xml version="1.0" encoding="UTF-8"?>
<svg width="97px" height="61px" viewBox="0 0 97 61" version="1.1" xmlns="http://www.w3.org/2000/svg" xmlns:xlink="http://www.w3.org/1999/xlink">
    <title>Starkey_RGB - no tag</title>
    <g id="Symbols" stroke="none" stroke-width="1" fill="none" fill-rule="evenodd">
        <g id="Nav/unauthenticated/Desktop" transform="translate(-41.000000, -15.000000)" fill-rule="nonzero">
            <g id="Starkey_RGB---no-tag" transform="translate(41.118566, 15.867605)">
                <path d="M31.2307184,29.9167053 C30.5764067,29.089094 29.5659092,28.6293511 28.5161749,28.6816779 C27.2425097,28.6816779 25.9724022,29.2544442 25.9724022,30.6863601 C25.9724022,33.8150964 33.3333333,32.0323611 33.3333333,37.584615 C33.3333333,40.9317184 30.7041752,42.5641026 27.6409748,42.5641026 C25.7162461,42.5641026 23.8342101,41.9698575 22.5641026,40.4484468 L24.6418134,38.4222858 C25.3270252,39.4493446 26.479223,40.0612952 27.7085716,40.0510902 C28.9786791,40.0510902 30.423115,39.3351322 30.423115,37.9032163 C30.423115,34.4880969 23.0657417,36.4498217 23.0657417,30.8725092 C23.0657417,27.6506984 25.9119209,26.1579261 28.7794465,26.1579261 C30.4119505,26.0992761 32.0043109,26.6747995 33.2266016,27.7652517 L31.2307184,29.9167053 Z" id="Path" fill="#003262"></path>
                <path d="M34.3589744,34.0015833 L34.3589744,31.7570184 L36.5277778,31.7570184 L36.5277778,28.7179487 L39.1595442,28.7179487 L39.1595442,31.7570184 L42.0512821,31.7570184 L42.0512821,34.0015833 L39.1595442,34.0015833 L39.1595442,38.6082857 C39.1595442,39.6771261 39.465812,40.3184304 40.6267806,40.3184304 C41.1229087,40.3397555 41.6154444,40.2251912 42.0512821,39.9870899 L42.0512821,42.2067152 C41.3868423,42.4562032 40.6810671,42.5771077 39.97151,42.5629953 C37.1866097,42.5629953 36.5277778,41.312452 36.5277778,38.8327422 L36.5277778,34.0015833 L34.3589744,34.0015833 Z" id="Path" fill="#003262"></path>
                <path d="M50.4223673,40.8992939 L50.3576497,40.8992939 C49.6026114,42.0507866 48.3657867,42.5641026 46.949191,42.5641026 C44.9789006,42.5641026 43.0769231,41.5235972 43.0769231,39.487675 C43.0769231,36.1580577 47.1037941,35.9222098 49.7572145,35.9222098 L50.4223673,35.9222098 L50.4223673,35.6447417 C50.4223673,34.3857302 49.4048633,33.7267435 47.9882676,33.7267435 C46.9390167,33.7271461 45.9280663,34.1070864 45.1550762,34.7915273 L43.760053,33.4388703 C44.9357555,32.2873777 46.5968398,31.7948718 48.2759012,31.7948718 C52.8205128,31.8018085 52.8205128,34.9649449 52.8205128,36.4147157 L52.8205128,42.3109129 L50.4295581,42.3109129 L50.4223673,40.8992939 Z M50.2677642,37.7188158 L49.7140694,37.7188158 C48.2543287,37.7188158 45.7303435,37.8263347 45.7303435,39.2969156 C45.7303435,40.2368388 46.726275,40.6426359 47.5891759,40.6426359 C49.4048633,40.6426359 50.2677642,39.7235229 50.2677642,38.2945621 L50.2677642,37.7188158 Z" id="Shape" fill="#003262"></path>
                <path d="M55.3846154,32.0581874 L57.9913173,32.0581874 L57.9913173,33.729179 L58.0371727,33.729179 C58.7424394,32.2046628 60.4602022,31.4439505 62.0512821,31.9515284 L62.0512821,34.4900135 C61.6412425,34.3717356 61.2182989,34.3048655 60.7920228,34.2909166 C60.0651044,34.2404966 59.3501735,34.4973719 58.818814,34.9998922 C58.2874546,35.5024126 57.9876368,36.2052113 57.9913173,36.939616 L57.9913173,42.5641026 L55.3846154,42.5641026 L55.3846154,32.0581874 Z" id="Path" fill="#003262"></path>
                <polygon id="Path" fill="#003262" points="63.087504 25.6410256 65.6833492 25.6410256 65.6833492 35.9489934 69.7111417 31.6340301 73.0511762 31.6340301 68.5825133 36.3649784 73.3333333 42.0512821 69.8839629 42.0512821 65.7362537 36.7351345 65.6833492 36.7351345 65.6833492 42.0512821 63.0769231 42.0512821"></polygon>
                <path d="M75.8640023,38.0827285 C75.9838796,39.4988277 77.1833544,40.5689518 78.5867003,40.5118122 C79.6628386,40.5226225 80.6775082,40.0053378 81.3093983,39.1237643 L83.1233873,40.5118122 C82.0973604,41.8414671 80.5105096,42.6019238 78.8438821,42.5626528 C75.7817041,42.5626528 73.3333333,40.4042384 73.3333333,37.1804974 C73.3333333,33.9567563 75.7817041,31.7948718 78.8438821,31.7948718 C81.6694528,31.7948718 83.5897436,33.804071 83.5897436,37.3713539 L83.5897436,38.0653779 L75.8640023,38.0827285 Z M81.0590747,36.1602822 C81.035071,34.6646607 80.0646384,33.7311985 78.4803985,33.7311985 C76.9853149,33.7311985 76.0560313,34.6889515 75.8640023,36.1602822 L81.0590747,36.1602822 Z" id="Shape" fill="#003262"></path>
                <path d="M84.1025641,31.7948718 L87.0043777,31.7948718 L89.952649,39.0920548 L89.9955329,39.0920548 L92.6364692,31.7948718 L95.3846154,31.7948718 L90.3814884,44.1787254 C89.6095774,46.1507446 88.6875726,47.1794872 86.3539712,47.1794872 C85.6710264,47.1809301 84.9908909,47.0923576 84.3312785,46.9160589 L84.6600554,44.5489239 C85.0887165,44.7154418 85.5437107,44.8046362 86.0037523,44.8123344 C87.3009917,44.8123344 87.6547842,44.744702 88.0943447,43.6483447 L88.598231,42.4024842 L84.1025641,31.7948718 Z" id="Path" fill="#003262"></path>
                <path d="M55.0522317,55.6076031 C55.0522317,55.6076031 32.3422982,43.2495734 6.5245774,53.7962691 L19.1581766,32.3568528 L6.5245774,21.2028482 L24.5639506,21.2028482 L33.7416904,6.00247161 L36.9631339,21.1851939 L95.8974359,21.1851939 L95.8974359,20.867416 L39.3357075,18.3605014 L34.8072175,5.35085076e-15 L22.6992783,18.4664274 L0,18.4664274 L15.1695537,33.0241864 C15.1695537,33.0241864 0.060379867,59.9858765 0,60 C26.2510351,44.2770553 55.0522317,55.9112576 55.0522317,55.9112576 L55.0522317,55.6076031 Z" id="Path" fill="#FDB913"></path>
            </g>
        </g>
    </g>
</svg>