<svg xmlns="http://www.w3.org/2000/svg" viewBox="0 0 124 76"><title>Artboard 1</title><path d="M40.76232,37.973a4.1137,4.1137,0,0,0-3.41448-1.54081c-1.597,0-3.19344.715-3.19344,2.504,0,3.90982,9.2504,1.68016,9.2504,8.61754,0,4.18467-3.30479,6.22238-7.13145,6.22238a8.0757,8.0757,0,0,1-6.3854-2.64431l2.61539-2.53213a4.599,4.599,0,0,0,3.85373,2.03578c1.59645,0,3.41256-.88152,3.41256-2.67,0-4.26737-9.24883-1.81611-9.24883-8.781,0-4.0198,3.579-5.891,7.18459-5.891A7.99948,7.99948,0,0,1,43.29345,35.302Z" style="fill:#003a70"/><path d="M44.2497,42.87363V40.06482h2.72622V36.23808h3.30326v3.82674h3.63363v2.80881H50.27918v5.7812c0,1.32068.385,2.14594,1.84364,2.14594a3.44646,3.44646,0,0,0,1.79-.41263v2.78228a7.03784,7.03784,0,0,1-2.61534.43925c-3.49629,0-4.32155-1.56991-4.32155-4.68v-6.056Z" style="fill:#003a70"/><path d="M64.71926,51.46272H64.636a4.75284,4.75284,0,0,1-4.23983,2.147c-2.45035,0-4.81751-1.34822-4.81751-3.96407,0-4.295,5.01055-4.59931,8.31277-4.59931h.82783v-.35654c0-1.62509-1.267-2.477-3.03048-2.477A5.201,5.201,0,0,0,58.166,43.58873l-1.73432-1.73441a7.74375,7.74375,0,0,1,5.61565-2.12043c5.64481,0,5.64481,4.07635,5.64481,5.94763v7.59924H64.71926Zm-.193-4.102h-.6894c-1.81654,0-4.95541.13889-4.95541,2.03671,0,1.21144,1.23956,1.73441,2.3125,1.73441,2.25837,0,3.33231-1.18391,3.33231-3.02857Z" style="fill:#003a70"/><path d="M70.59987,40.06482h3.30378v2.09279h.05609A4.2219,4.2219,0,0,1,79.05145,39.929v3.19289a6.616,6.616,0,0,0-1.59681-.24822,3.32328,3.32328,0,0,0-3.551,3.33187v7.07526H70.59987Z" style="fill:#003a70"/><path d="M80.95725,32.46751h3.30323V45.54456l5.09428-5.47974h4.23781l-5.66994,6.00179,6.02749,7.21415H89.57434l-5.25869-6.74635h-.05517v6.74635H80.95725Z" style="fill:#003a70"/><path d="M96.80721,47.82755a3.42338,3.42338,0,0,0,3.55044,3.13873,4.34336,4.34336,0,0,0,3.55347-1.78949l2.36561,1.78949a7.06624,7.06624,0,1,1-5.58521-11.23239c3.68538,0,6.19079,2.58822,6.19079,7.18662v.907Zm6.7739-2.477a3.04153,3.04153,0,0,0-3.36033-3.13781,3.286,3.286,0,0,0-3.41357,3.13781Z" style="fill:#003a70"/><path d="M107.39151,40.06482h3.63324l3.68933,9.16806h.05416l3.30414-9.16806h3.4412l-6.25,15.557c-.96423,2.47788-2.1184,3.77194-5.03755,3.77194a9.7285,9.7285,0,0,1-2.53213-.33184l.41263-2.97138a4.893,4.893,0,0,0,1.67915.33c1.62518,0,2.06535-.08574,2.61484-1.4615l.6334-1.569Z" style="fill:#003a70"/><path d="M121.10426,51.668a1.56477,1.56477,0,1,1-1.56478,1.56477A1.55663,1.55663,0,0,1,121.10426,51.668Zm0,2.902a1.33865,1.33865,0,1,0-1.28737-1.33721A1.29769,1.29769,0,0,0,121.10426,54.57Zm-.59742-2.25481h.68995c.43144,0,.63817.173.63817.522a.47425.47425,0,0,1-.48313.501l.5249.80727h-.29816l-.49515-.78744h-.29917v.78744h-.27741Zm.27741.81727h.28623c.24757,0,.48725-.014.48725-.30725,0-.25345-.21884-.28227-.40868-.28227h-.3648Z" style="fill:#003a70"/><path d="M70.38129,70.68865S41.78437,55.04033,9.27294,68.39073L25.18327,41.23549,9.27825,27.10722h22.712L43.5679,7.85938l4.05427,19.24784h74.19488V26.7044l-71.2255-3.21412L44.90326.24955,29.64187,23.63935H1.06035L20.16123,42.07963S1.1368,76.23222,1.06035,76.24955C34.116,56.3345,70.38129,71.0713,70.38129,71.0713Z" style="fill:#eba900"/></svg>