<svg width="200" height="47" xmlns="http://www.w3.org/2000/svg" fill-rule="evenodd" clip-rule="evenodd" stroke-linejoin="round" stroke-miterlimit="2"><path d="M176.24 16.497v8.228c-.355.158-.827.236-1.378.236-.945 0-5.63-.354-5.63-7.008 0-2.638.511-4.567 1.535-5.827 1.024-1.299 2.599-1.89 4.764-1.89 1.969 0 4.252.749 5.748 1.221l.118.04.788-5.552-.079-.04c-1.772-.63-4.606-1.299-7.205-1.299-3.819 0-7.441 1.418-9.764 3.74-2.284 2.284-3.425 5.473-3.425 9.41 0 10.119 8.346 12.796 12.795 12.796 4.213 0 7.953-1.26 8.662-1.496l.079-.04v-12.52h-7.008zM145.924 5.315l-8.859 24.529h7.284l1.22-3.78h7.875l1.22 3.78h7.284l-8.859-24.568h-7.165v.04zm.905 15.63l2.678-8.11 2.677 8.11h-5.355zm-14.646-15.63l-2.205 9.764c-.197.866-.984 4.567-1.26 5.867-.275-1.3-1.063-5.04-1.26-5.867l-2.204-9.764h-6.497l-2.204 9.764c-.197.866-.985 4.567-1.26 5.867-.276-1.3-1.063-5.04-1.26-5.867l-2.166-9.764h-7.086l6.378 24.529h7.52l1.968-7.954c.197-.866 1.103-4.645 1.378-5.905a309.63 309.63 0 001.378 5.905l1.969 7.954h7.52l6.378-24.568h-7.087v.04zm-41.261 0l-8.859 24.529h7.284l1.22-3.78h7.875l1.22 3.78h7.284L98.087 5.276h-7.165v.04zm.945 15.63l2.677-8.11 2.677 8.11h-5.354zm-7.52-15.63H65.96v5.866h5.591v18.663h7.245V11.18h5.512V5.315h.039zM58.4 14.685l-1.339-.472c-1.771-.63-3.15-1.22-3.07-2.56.078-1.062.984-1.535 2.795-1.535 1.024 0 2.913.197 6.102 1.182l.119.039.787-5.394-.079-.04a20.65 20.65 0 00-7.126-1.26c-2.598 0-6.142.473-8.268 2.639-1.22 1.26-1.85 2.953-1.85 5.04 0 4.645 3.897 6.141 6.771 7.283l2.441.984c1.497.59 2.56 1.024 2.442 2.599-.158 1.771-2.205 1.929-3.071 1.929-1.26 0-3.82-.59-7.678-1.693l-.118-.04-.787 5.63.078.04c.788.236 4.882 1.457 7.796 1.575.394 0 .787.04 1.142.04 3.661 0 6.378-.867 8.031-2.52 1.339-1.378 2.048-3.268 2.048-5.71.04-5.236-4.292-6.732-7.166-7.755zm-44.726 5.63C15.368 13.899 20.486 5.356 23.4.828l.118-.197c.079-.158.118-.354-.04-.512A.357.357 0 0023.204 0a.742.742 0 00-.315.079s-.04 0-.079.04C17.77 2.164 1.155 9.606.053 18.268c-.433 3.267 1.81 6.417 6.417 9.094 3.465 2.008 7.126 3.071 7.126 3.11.119.04.237.08.315.08.119 0 .237-.08.315-.198a.51.51 0 00-.039-.511c-1.811-3.583-.945-7.835-.512-9.528zm17.757-12.44c-3.465-2.009-7.127-3.111-7.127-3.111a1.217 1.217 0 00-.314-.079c-.119 0-.237.079-.315.197a.51.51 0 00.039.512c1.772 3.583.945 7.835.512 9.488-1.693 6.418-6.812 14.962-9.725 19.49l-.118.196c-.079.158-.118.354.04.512a.357.357 0 00.275.118c.118 0 .197-.04.315-.079.04 0 .04 0 .079-.04 5.04-2.007 21.654-9.448 22.756-18.11.433-3.268-1.81-6.417-6.417-9.095zm15.671 35.867c-.276-.158-.394-.394-.394-.71 0-.393.315-.747.709-.747a.87.87 0 01.511.157c.709.433 1.339.67 2.126.67 1.142 0 1.772-.512 1.772-1.339 0-.67-.394-1.102-1.653-1.26l-.473-.079c-1.85-.236-2.795-1.102-2.795-2.637 0-1.654 1.22-2.756 3.11-2.756.984 0 1.969.275 2.52.63a.73.73 0 01.393.669.706.706 0 01-.708.708c-.158 0-.355-.039-.512-.118a3.645 3.645 0 00-1.732-.433c-.985 0-1.457.512-1.457 1.22 0 .67.472 1.064 1.693 1.26l.472.08c1.89.275 2.796 1.141 2.796 2.716 0 1.654-1.181 2.835-3.504 2.835a5.775 5.775 0 01-2.874-.866zm7.795-7.087c-.512 0-.827-.315-.827-.709 0-.433.315-.709.827-.709h5.433c.512 0 .827.315.827.71 0 .432-.315.708-.827.708h-1.81c-.04 0-.08.04-.08.079v6.929c0 .512-.354.827-.787.827-.472 0-.787-.315-.787-.827v-6.93c0-.039-.04-.078-.08-.078h-1.889zm5.906 6.772l2.677-7.402c.197-.551.512-.906 1.063-.906.551 0 .866.355 1.063.906l2.638 7.402c.04.078.04.197.04.315 0 .472-.355.748-.788.748-.354 0-.63-.197-.748-.552l-.512-1.456h-3.543l-.473 1.456c-.118.355-.394.552-.748.552-.394 0-.787-.276-.787-.748a.628.628 0 00.118-.315zm5-2.363l-1.26-3.582h-.04l-1.26 3.582h2.56zm11.615 2.599c-.158.59-.434.827-.867.827s-.708-.237-.866-.827l-1.575-5.67h-.04l-1.574 5.67c-.157.59-.433.827-.866.827s-.67-.237-.866-.827l-2.008-7.441c-.04-.118-.04-.237-.04-.315 0-.433.276-.748.788-.748.394 0 .67.197.787.708l1.418 5.71h.039l1.575-5.71c.118-.472.394-.708.787-.708.394 0 .67.236.788.708l1.614 5.71h.04l1.377-5.71c.118-.511.394-.708.788-.708.472 0 .787.315.787.748 0 .078 0 .197-.04.315l-2.046 7.44zm2.48-.236l2.677-7.402c.197-.551.512-.906 1.063-.906.551 0 .866.355 1.063.906l2.638 7.402c.04.078.04.197.04.315 0 .472-.355.748-.788.748-.354 0-.63-.197-.748-.552l-.512-1.456h-3.543l-.473 1.456c-.118.355-.393.552-.748.552-.393 0-.787-.276-.787-.748a.628.628 0 00.118-.315zm5-2.363l-1.26-3.582h-.04l-1.26 3.582h2.56zm3.504-1.26c0-1.338.04-1.89.276-2.559.472-1.456 1.653-2.204 3.268-2.204 1.417 0 2.48.59 2.952 1.496.08.157.119.315.119.472 0 .433-.315.709-.749.709-.275 0-.472-.118-.708-.394-.394-.551-.906-.827-1.654-.827-.945 0-1.496.473-1.732 1.22-.118.395-.158.867-.158 2.087 0 1.221.04 1.693.158 2.087.236.748.787 1.22 1.732 1.22.866 0 1.496-.432 1.733-1.18.118-.315.157-.788.157-1.182 0-.039-.04-.078-.079-.078h-1.063c-.433 0-.708-.276-.708-.67 0-.393.275-.669.708-.669h2.087c.394 0 .67.236.67.67v.275c0 .748-.08 1.535-.237 2.047-.472 1.457-1.654 2.244-3.228 2.244-1.615 0-2.796-.748-3.268-2.204-.236-.67-.276-1.22-.276-2.56zm12.008-3.897c0-.433.276-.709.71-.709h4.606c.511 0 .826.315.826.709 0 .433-.315.708-.826.708h-3.623c-.039 0-.078.04-.078.08v2.243c0 .04.039.08.078.08h2.953c.512 0 .827.314.827.708 0 .433-.315.708-.827.708h-2.953c-.039 0-.078.04-.078.08v2.322c0 .04.039.079.078.079h3.623c.511 0 .826.315.826.709 0 .393-.315.708-.826.708h-4.607c-.433 0-.709-.275-.709-.708v-7.717zm9.213 2.598c.355-.472.945-.748 1.733-.748 1.378 0 2.244 1.024 2.244 2.441v3.544c0 .511-.315.787-.748.787s-.748-.315-.748-.787v-3.19c0-.826-.394-1.417-1.22-1.417-.788 0-1.26.59-1.26 1.418v3.189c0 .511-.316.787-.749.787s-.748-.315-.748-.787v-5.08c0-.511.315-.787.748-.787s.67.237.748.63zm5.787 4.252a5.611 5.611 0 01-.235-1.614c0-.67.078-1.181.236-1.614.354-1.142 1.378-1.811 2.677-1.811 1.339 0 2.323.708 2.677 1.81.119.434.237.946.237 1.576 0 .315-.197.512-.512.512h-3.662a.083.083 0 00-.078.078c0 .197.039.355.078.512.237.63.748.984 1.496.984.552 0 .906-.157 1.339-.433.158-.118.354-.236.551-.236.394 0 .63.276.63.63 0 .276-.118.433-.315.59-.59.473-1.3.788-2.362.788-1.417.04-2.402-.63-2.756-1.772zm3.938-2.874c-.157-.512-.67-.827-1.26-.827-.63 0-1.102.315-1.3.827-.038.158-.078.315-.078.551 0 .04.04.08.079.08h2.56c.038 0 .078-.04.078-.08 0-.236-.04-.393-.079-.55zm4.764-1.22a1.922 1.922 0 011.654-.906c.354 0 .63.079.826.158.276.157.394.354.394.63 0 .433-.315.787-.748.787a1.15 1.15 0 01-.354-.079c-.197-.04-.394-.118-.59-.118-.828 0-1.182.67-1.182 1.654v2.913c0 .512-.315.788-.748.788s-.748-.315-.748-.788v-5.079c0-.511.315-.787.748-.787s.748.276.748.827zm4.055 7.598c-.118-.157-.197-.354-.197-.511 0-.355.276-.67.67-.67.236 0 .393.079.59.236.315.197.709.355 1.142.355.945 0 1.457-.473 1.457-1.575v-.59c-.315.511-.866.747-1.733.747-1.102 0-1.85-.59-2.165-1.614-.157-.472-.236-.945-.236-1.614 0-.67.079-1.181.236-1.654.354-1.023 1.102-1.614 2.165-1.614.906 0 1.457.355 1.772.827v-.158c.079-.314.315-.59.748-.59s.748.315.748.787V43.9c0 2.087-1.063 3.11-3.031 3.11-.906 0-1.772-.354-2.166-.748zm3.504-6.299c-.197-.59-.55-.866-1.141-.866s-.945.275-1.142.866c-.079.276-.158.59-.158 1.024 0 .433.04.787.158 1.063.197.59.551.866 1.142.866.59 0 .944-.276 1.141-.866.079-.276.158-.59.158-1.063a3.49 3.49 0 00-.158-1.024zm4.409-4.882a.89.89 0 01.906.905.891.891 0 01-.905.906.891.891 0 01-.906-.906c0-.511.394-.905.906-.905zm-.787 8.622v-5.079c0-.511.315-.787.749-.787.433 0 .748.315.748.787v5.08c0 .511-.315.787-.748.787-.434 0-.749-.315-.749-.788zm3.387-.945a5.611 5.611 0 01-.237-1.614c0-.67.079-1.181.236-1.614.355-1.142 1.378-1.811 2.678-1.811 1.338 0 2.323.708 2.677 1.81.118.434.236.946.236 1.576 0 .315-.197.512-.512.512h-3.661c-.04 0-.079.039-.079.078 0 .197.04.355.079.512.236.63.748.984 1.496.984.551 0 .905-.157 1.339-.433.157-.118.354-.236.55-.236.394 0 .63.276.63.63 0 .276-.117.433-.314.59-.59.473-1.3.788-2.363.788-1.417.04-2.401-.63-2.756-1.772zm3.937-2.874c-.158-.512-.67-.827-1.26-.827-.63 0-1.103.315-1.3.827-.039.158-.078.315-.078.551 0 .04.039.08.078.08h2.56c.039 0 .078-.04.078-.08 0-.236 0-.393-.078-.55zm6.26-.079c0-1.338.039-1.89.275-2.559.473-1.456 1.654-2.204 3.268-2.204 1.417 0 2.48.59 2.953 1.496.079.157.118.315.118.472 0 .433-.315.709-.748.709-.276 0-.473-.118-.709-.394-.393-.551-.905-.827-1.653-.827-.945 0-1.496.473-1.733 1.22-.118.395-.157.867-.157 2.087 0 1.221.04 1.693.157 2.087.237.748.788 1.22 1.733 1.22.866 0 1.496-.432 1.732-1.18.118-.315.157-.788.157-1.182a.084.084 0 00-.078-.078h-1.063c-.433 0-.709-.276-.709-.67 0-.393.276-.669.709-.669h2.086c.394 0 .67.236.67.67v.275c0 .748-.079 1.535-.237 2.047-.472 1.457-1.653 2.244-3.228 2.244-1.614 0-2.795-.748-3.268-2.204-.236-.67-.275-1.22-.275-2.56zm8.74-1.181c0-.511.315-.787.748-.787s.709.276.748.67c.276-.394.866-.749 1.733-.749.787 0 1.378.315 1.771.866.512-.55 1.142-.866 2.087-.866 1.535 0 2.362 1.024 2.362 2.441v3.544c0 .511-.315.787-.748.787s-.748-.315-.748-.787v-3.19c0-.826-.433-1.417-1.22-1.417-.788 0-1.26.59-1.26 1.418v3.189c0 .511-.315.787-.748.787s-.748-.315-.748-.787v-3.19c0-.826-.434-1.417-1.221-1.417-.787 0-1.26.59-1.26 1.418v3.189c0 .511-.315.787-.748.787s-.748-.315-.748-.787v-5.119zm12.953-2.677v2.56c.276-.434.827-.788 1.772-.788 1.102 0 1.89.63 2.244 1.653.158.512.236 1.024.236 1.772s-.078 1.26-.236 1.772c-.354 1.023-1.142 1.653-2.244 1.653-.906 0-1.457-.315-1.772-.787-.079.433-.315.709-.748.709s-.748-.315-.748-.788v-7.756c0-.512.315-.787.748-.787.433-.04.748.275.748.787zm.118 4.016c-.078.276-.118.67-.118 1.181 0 .512.04.906.118 1.181.197.63.63.866 1.22.866.552 0 .985-.236 1.221-.866.08-.275.118-.67.118-1.18 0-.513-.039-.906-.118-1.182-.196-.63-.63-.866-1.22-.866s-1.024.236-1.22.866zm5.749-3.977c0-.511.354-.826.787-.826.472 0 .787.315.787.826v2.993c0 .04.04.078.08.078h3.503c.04 0 .079-.039.079-.078v-2.993c0-.511.354-.826.787-.826.473 0 .788.315.788.826v7.678c0 .512-.355.827-.788.827-.472 0-.787-.315-.787-.827v-3.071c0-.04-.04-.079-.079-.079h-3.504c-.04 0-.079.04-.079.079v3.07c0 .513-.354.828-.787.828-.472 0-.787-.315-.787-.827v-7.678z" fill="#fff" fill-rule="nonzero"/></svg>