<?xml version="1.0" encoding="UTF-8"?> <svg xmlns="http://www.w3.org/2000/svg" id="steelhouse-logo-original-ee" width="230.003" height="125.165" viewBox="0 0 230.003 125.165"><g id="extension_ee" data-name="extension ee" transform="translate(61.515 110.132)"><path id="Path_1539" data-name="Path 1539" d="M165.608,281.749v2h-.921V285.5a4.729,4.729,0,0,1-2.009,1.869,6.635,6.635,0,0,1-3.006.652,6.343,6.343,0,0,1-2.718-.532,5.286,5.286,0,0,1-1.861-1.389,5.671,5.671,0,0,1-1.061-1.877,6.176,6.176,0,0,1-.34-1.981v-.34a6.4,6.4,0,0,1,.352-2.069,5.7,5.7,0,0,1,1.069-1.853,5.287,5.287,0,0,1,1.793-1.329,5.941,5.941,0,0,1,2.522-.5,6.293,6.293,0,0,1,2.746.572,4.9,4.9,0,0,1,1.913,1.573,4.659,4.659,0,0,1,.845,2.329h-2.858a1.92,1.92,0,0,0-.448-.913,2.485,2.485,0,0,0-.913-.648,3.327,3.327,0,0,0-1.285-.236,2.992,2.992,0,0,0-1.221.236,2.417,2.417,0,0,0-.893.676,3.04,3.04,0,0,0-.548,1.041,4.488,4.488,0,0,0-.184,1.3,4.223,4.223,0,0,0,.2,1.317,3.212,3.212,0,0,0,.584,1.061,2.521,2.521,0,0,0,.969.7,3.432,3.432,0,0,0,1.337.248,3.211,3.211,0,0,0,1.645-.4,2.264,2.264,0,0,0,.756-.676v-.584h-2.706v-2Z" transform="translate(-153.693 -275.753)" fill="#b4b8ba"></path><path id="Path_1540" data-name="Path 1540" d="M186.768,292.138v-8.487h2.215v3.69h-.031a4.642,4.642,0,0,1,.746-2.8,2.5,2.5,0,0,1,2.145-1.015h.339v2.4h-.646a1.983,1.983,0,0,0-1.453.508,1.959,1.959,0,0,0-.515,1.46v4.244Z" transform="translate(-173.53 -280.178)" fill="#b4b8ba"></path><path id="Path_1541" data-name="Path 1541" d="M206.471,292.169a5.524,5.524,0,0,1-2-.338,4.26,4.26,0,0,1-1.484-.938,4.04,4.04,0,0,1-.923-1.384,4.453,4.453,0,0,1-.315-1.676v-.369a4.458,4.458,0,0,1,.33-1.722,4.144,4.144,0,0,1,.946-1.4,4.343,4.343,0,0,1,1.491-.938,5.828,5.828,0,0,1,3.913,0,4.359,4.359,0,0,1,1.484.938,4.145,4.145,0,0,1,.946,1.4,4.466,4.466,0,0,1,.331,1.722v.369a4.461,4.461,0,0,1-.315,1.676,4.053,4.053,0,0,1-.923,1.384,4.267,4.267,0,0,1-1.483.938A5.526,5.526,0,0,1,206.471,292.169Zm0-2.337a1.915,1.915,0,0,0,1.069-.277,1.707,1.707,0,0,0,.638-.776,3.1,3.1,0,0,0-.007-2.291,1.847,1.847,0,0,0-.654-.792,2.019,2.019,0,0,0-2.091,0,1.844,1.844,0,0,0-.654.792,3.1,3.1,0,0,0-.008,2.291,1.691,1.691,0,0,0,.646.776A1.922,1.922,0,0,0,206.471,289.832Z" transform="translate(-182.516 -279.902)" fill="#b4b8ba"></path><path id="Path_1542" data-name="Path 1542" d="M236.834,283.839v8.485h-2.217v-2a4.017,4.017,0,0,1-.176.6,2.545,2.545,0,0,1-.977,1.269,2.889,2.889,0,0,1-1.6.412h-.124a2.749,2.749,0,0,1-2.237-.945,4.441,4.441,0,0,1-.792-2.9v-4.919h2.8v5a1.288,1.288,0,0,0,.336.925,1.209,1.209,0,0,0,.909.352,1.262,1.262,0,0,0,.921-.352,1.3,1.3,0,0,0,.356-.957v-4.963Z" transform="translate(-198.686 -280.365)" fill="#b4b8ba"></path><path id="Path_1543" data-name="Path 1543" d="M263.225,285.789a4.03,4.03,0,0,0-.776-1.361,3.491,3.491,0,0,0-1.217-.893,3.807,3.807,0,0,0-1.581-.316,3.523,3.523,0,0,0-1.8.456A3.161,3.161,0,0,0,256.612,285a3.773,3.773,0,0,0-.252.612v-2.149h-2.217v11.559h2.8V290.98a2.757,2.757,0,0,0,.981.857,3.691,3.691,0,0,0,1.737.392,3.981,3.981,0,0,0,1.637-.32,3.3,3.3,0,0,0,1.209-.917,3.934,3.934,0,0,0,.736-1.385,5.8,5.8,0,0,0,.248-1.729v-.368A5.352,5.352,0,0,0,263.225,285.789Zm-2.77,3.058a1.875,1.875,0,0,1-.66.792,1.718,1.718,0,0,1-.977.284,1.951,1.951,0,0,1-.9-.224,1.91,1.91,0,0,1-.74-.644,1.743,1.743,0,0,1-.292-1.021v-.524a2,2,0,0,1,.276-1.077,1.841,1.841,0,0,1,.716-.676,2.023,2.023,0,0,1,.945-.232,1.764,1.764,0,0,1,.985.272,1.8,1.8,0,0,1,.652.752,2.542,2.542,0,0,1,.24,1.145A2.65,2.65,0,0,1,260.455,288.846Z" transform="translate(-213.938 -279.993)" fill="#b4b8ba"></path><path id="Path_1544" data-name="Path 1544" d="M296.68,285.884v2.337h-7.2V277h7.1v2.337h-4.335v2.013h4.1v2.337h-4.1v2.2Z" transform="translate(-235.133 -276.262)" fill="#b4b8ba"></path><path id="Path_1545" data-name="Path 1545" d="M313.891,292.23a4.905,4.905,0,0,1-2.906-.761,2.683,2.683,0,0,1-1.137-2.145h2.46a.989.989,0,0,0,.476.661,2.1,2.1,0,0,0,1.169.277,2.446,2.446,0,0,0,.931-.161.55.55,0,0,0,.392-.53.621.621,0,0,0-.307-.531,2.6,2.6,0,0,0-1.122-.284l-.584-.062a4.045,4.045,0,0,1-2.4-.892,2.384,2.384,0,0,1-.768-1.814,2.485,2.485,0,0,1,.461-1.545,2.794,2.794,0,0,1,1.276-.915,5.243,5.243,0,0,1,1.86-.308,4.639,4.639,0,0,1,2.752.746,2.629,2.629,0,0,1,1.108,2.145h-2.46a1.01,1.01,0,0,0-.415-.654,1.656,1.656,0,0,0-1.015-.269,1.573,1.573,0,0,0-.776.169.525.525,0,0,0-.3.477.507.507,0,0,0,.285.477,2.742,2.742,0,0,0,.915.231l.584.062a4.633,4.633,0,0,1,2.514.9,2.363,2.363,0,0,1,.884,1.914,2.454,2.454,0,0,1-.469,1.507,2.948,2.948,0,0,1-1.338.969A5.7,5.7,0,0,1,313.891,292.23Z" transform="translate(-247.347 -279.994)" fill="#b4b8ba"></path><path id="Path_1546" data-name="Path 1546" d="M334.565,282.546l-.008,3.074a1.05,1.05,0,0,0,1.169,1.169h1.169v2.337h-1.153a5.87,5.87,0,0,1-2.209-.34,2.163,2.163,0,0,1-1.189-1.121,5.017,5.017,0,0,1-.372-2.121l.008-3h-1.237v-2.029h1.241l0-2.217h2.586l0,2.217h2.325v2.029Z" transform="translate(-259.879 -277.042)" fill="#b4b8ba"></path><path id="Path_1547" data-name="Path 1547" d="M353.288,292.169a5.524,5.524,0,0,1-2-.338,4.265,4.265,0,0,1-1.484-.938,4.047,4.047,0,0,1-.923-1.384,4.453,4.453,0,0,1-.315-1.676v-.369a4.466,4.466,0,0,1,.33-1.722,4.141,4.141,0,0,1,.946-1.4,4.338,4.338,0,0,1,1.491-.938,5.829,5.829,0,0,1,3.913,0,4.367,4.367,0,0,1,1.484.938,4.149,4.149,0,0,1,.945,1.4,4.457,4.457,0,0,1,.331,1.722v.369a4.461,4.461,0,0,1-.315,1.676,4.048,4.048,0,0,1-.923,1.384,4.264,4.264,0,0,1-1.483.938A5.526,5.526,0,0,1,353.288,292.169Zm0-2.337a1.915,1.915,0,0,0,1.069-.277,1.71,1.71,0,0,0,.638-.776,3.1,3.1,0,0,0-.008-2.291,1.849,1.849,0,0,0-.653-.792,2.019,2.019,0,0,0-2.091,0,1.844,1.844,0,0,0-.654.792,3.1,3.1,0,0,0-.007,2.291,1.686,1.686,0,0,0,.646.776A1.921,1.921,0,0,0,353.288,289.832Z" transform="translate(-270.57 -279.902)" fill="#b4b8ba"></path><path id="Path_1548" data-name="Path 1548" d="M384.206,287.045V291.9h-2.8v-4.935a1.36,1.36,0,0,0-.344-.961,1.216,1.216,0,0,0-.945-.376,1.263,1.263,0,0,0-.961.376,1.361,1.361,0,0,0-.364.993v4.9h-2.8v-8.485h2.213v2.233a4.258,4.258,0,0,1,.216-.781,2.6,2.6,0,0,1,1.009-1.3,2.915,2.915,0,0,1,1.621-.432h.124a2.744,2.744,0,0,1,2.237.965A4.562,4.562,0,0,1,384.206,287.045Z" transform="translate(-287.018 -279.945)" fill="#b4b8ba"></path><path id="Path_1549" data-name="Path 1549" d="M403.951,275.547a1.507,1.507,0,0,0-2.237,2.017,1.468,1.468,0,0,0,1.129.392,1.426,1.426,0,0,0,1.109-.392,1.62,1.62,0,0,0,0-2.017Z" transform="translate(-302.227 -275.159)" fill="#b4b8ba"></path><path id="Path_1550" data-name="Path 1550" d="M403.378,283.839v8.485h-2.8v-6.456H399.5v-2.029Z" transform="translate(-301.118 -280.365)" fill="#b4b8ba"></path><path id="Path_1551" data-name="Path 1551" d="M420.274,284.986a2.95,2.95,0,0,0-1.4-1.153,5.722,5.722,0,0,0-2.221-.384c-.3,0-.64.008-1,.016s-.716.024-1.053.048-.632.04-.877.06v2.337q.522-.03,1.153-.06c.42-.024.821-.036,1.2-.048s.668-.016.865-.016a1.169,1.169,0,0,1,.881.284,1.2,1.2,0,0,1,.272.841h-1.341a6.883,6.883,0,0,0-2.041.276,2.906,2.906,0,0,0-1.4.869,2.276,2.276,0,0,0-.508,1.545,2.628,2.628,0,0,0,.392,1.453,2.54,2.54,0,0,0,1.085.929,3.689,3.689,0,0,0,1.585.324,3.148,3.148,0,0,0,1.5-.324,2.338,2.338,0,0,0,.953-.929,2.8,2.8,0,0,0,.24-.544v1.581h2.213v-5.151A3.6,3.6,0,0,0,420.274,284.986Zm-2.405,4.859a1.068,1.068,0,0,1-.468.456,1.614,1.614,0,0,1-.656.128,1.226,1.226,0,0,1-.873-.284.952.952,0,0,1-.308-.744.975.975,0,0,1,.308-.761,1.226,1.226,0,0,1,.873-.284h1.341v.6A2.07,2.07,0,0,1,417.868,289.845Z" transform="translate(-309.089 -280.131)" fill="#b4b8ba"></path></g><path id="logotekst-steelhouse" d="M22.53,204.491a8.022,8.022,0,0,1-1.373,4.639,8.758,8.758,0,0,1-3.862,3.054,14.891,14.891,0,0,1-5.876,1.057,14.833,14.833,0,0,1-6.2-1.165,8.923,8.923,0,0,1-3.9-3.258A8.666,8.666,0,0,1,0,204.075v-.6H7.445v.6a2.237,2.237,0,0,0,.4,1.309,2.612,2.612,0,0,0,1.241.945,6.228,6.228,0,0,0,2.333.372,6.253,6.253,0,0,0,2.1-.312,2.673,2.673,0,0,0,1.2-.785,1.7,1.7,0,0,0,.368-1.113,1.333,1.333,0,0,0-.66-1.213,6.416,6.416,0,0,0-2.878-.688l-1.633-.136a10.983,10.983,0,0,1-6.6-2.618A7.831,7.831,0,0,1,.8,193.776a8.224,8.224,0,0,1,1.257-4.6A8.018,8.018,0,0,1,5.6,186.256a12.888,12.888,0,0,1,5.235-.989,12.8,12.8,0,0,1,5.547,1.1,8.229,8.229,0,0,1,3.566,3.158,8.956,8.956,0,0,1,1.233,4.7v.6H13.733v-.6a2.322,2.322,0,0,0-.328-1.217,2.288,2.288,0,0,0-.957-.865,3.5,3.5,0,0,0-1.617-.336,3.546,3.546,0,0,0-1.5.276,1.779,1.779,0,0,0-1.093,1.693,1.727,1.727,0,0,0,.492,1.249,3.039,3.039,0,0,0,1.905.648l1.629.14a15.884,15.884,0,0,1,5.227,1.281,9.176,9.176,0,0,1,3.67,2.878A7.463,7.463,0,0,1,22.53,204.491Zm-.507-18.459v6.816h6.936v19.7l7.649-5.575V192.848h6.936v-6.816Zm31.823,20.044v-3.758H63.1v-6.472H53.845V192.5h9.778v-6.472H46.4v26.516H63.832v-6.472Zm20.128,0v-3.758h9.262v-6.472H73.974V192.5h9.782v-6.472H66.533v26.516H83.96v-6.472Zm48.267-20.044v9.742H113.8v-9.742l-7.653,5.575v20.941H113.8v-9.954h8.437v9.954h7.653V186.031Zm37.534,7.893a13.486,13.486,0,0,0-2.738-4.371,13.189,13.189,0,0,0-4.483-3.126,16.786,16.786,0,0,0-12.268,0,13.178,13.178,0,0,0-7.208,7.5,13.919,13.919,0,0,0-.9,4.911v.76a13.587,13.587,0,0,0,.868,4.643,14.13,14.13,0,0,0,2.642,4.439,13.24,13.24,0,0,0,4.467,3.306,16.316,16.316,0,0,0,12.54,0,13.239,13.239,0,0,0,4.467-3.306,14.551,14.551,0,0,0,2.658-4.435,13.375,13.375,0,0,0,.885-4.647v-.76A13.631,13.631,0,0,0,159.775,193.924Zm-7.245,8.021a6.253,6.253,0,0,1-1.3,2.137,5.89,5.89,0,0,1-2.045,1.413,7.691,7.691,0,0,1-5.5,0,5.87,5.87,0,0,1-2.049-1.413,6.317,6.317,0,0,1-1.3-2.137,7.908,7.908,0,0,1-.448-2.694,8.4,8.4,0,0,1,.448-2.814,5.885,5.885,0,0,1,1.289-2.109,5.754,5.754,0,0,1,2.045-1.349,7.522,7.522,0,0,1,2.762-.476,7.432,7.432,0,0,1,2.726.476,5.738,5.738,0,0,1,2.041,1.349,6.041,6.041,0,0,1,1.309,2.117,8.074,8.074,0,0,1,.464,2.806A7.811,7.811,0,0,1,152.531,201.945Zm26.494-15.914v15.686a5.169,5.169,0,0,1-.488,2.345,3.24,3.24,0,0,1-1.385,1.425,5.594,5.594,0,0,1-4.695,0,3.346,3.346,0,0,1-1.4-1.445,5.032,5.032,0,0,1-.5-2.325V186.031l-7.653,5.575v9.97a13.013,13.013,0,0,0,1.389,6.16,9.774,9.774,0,0,0,4.079,4.079,15.266,15.266,0,0,0,12.88,0,9.7,9.7,0,0,0,4.063-4.083,13.127,13.127,0,0,0,1.369-6.156V186.031Zm30.458,13.941a9.176,9.176,0,0,0-3.67-2.878,15.884,15.884,0,0,0-5.227-1.281l-1.629-.14a3.039,3.039,0,0,1-1.905-.648,1.727,1.727,0,0,1-.492-1.249,1.779,1.779,0,0,1,1.093-1.693,3.546,3.546,0,0,1,1.5-.276,3.5,3.5,0,0,1,1.617.336,2.258,2.258,0,0,1,1.285,2.081v.6h7.445v-.6a8.931,8.931,0,0,0-1.233-4.695,8.212,8.212,0,0,0-3.566-3.162,14.445,14.445,0,0,0-10.783-.112,8.018,8.018,0,0,0-3.538,2.922,8.224,8.224,0,0,0-1.257,4.6,7.831,7.831,0,0,0,2.518,6.06,10.983,10.983,0,0,0,6.6,2.618l1.633.136a6.416,6.416,0,0,1,2.878.688,1.341,1.341,0,0,1,.66,1.213,1.7,1.7,0,0,1-.368,1.113,2.673,2.673,0,0,1-1.2.785,7.368,7.368,0,0,1-4.435-.06,2.612,2.612,0,0,1-1.241-.945,2.237,2.237,0,0,1-.4-1.309v-.6h-7.445v.6a8.666,8.666,0,0,0,1.325,4.743,8.923,8.923,0,0,0,3.9,3.258,16.966,16.966,0,0,0,12.072.108,8.758,8.758,0,0,0,3.862-3.054,8.022,8.022,0,0,0,1.373-4.639A7.463,7.463,0,0,0,209.482,199.972Zm10.535,6.1v-3.758h9.258v-6.472h-9.258V192.5h9.778v-6.472H212.572v26.516H230v-6.472Zm-125.7-.348v-19.7l-7.649,5.575v20.941h17.223v-6.82Z" transform="translate(0 -111.114)" fill="#fff"></path><path id="logomark" d="M266.492,61.785,240.9,43l16.93,3.091,2.429-3.757ZM238.924,48.619,236.7,30.679,226.466,62.145l16.583-12.086Zm39.988-24.7H258.677l2.077,3.6-8.9,16.124ZM246.678,0l-6.227,19.156,3.674-.724,11.941,10.832Zm.712,23.914H214.873l16.136,11.837.273-4.034Z" transform="translate(-128.87)" fill="#b4b8ba" fill-rule="evenodd"></path></svg> 