<svg width="285" height="66" viewBox="0 0 500 116" fill="none" xmlns="http://www.w3.org/2000/svg">
<g clip-path="url(#clip0_6032_24926)">
<path d="M107.104 46.7091C104.552 44.6807 102.262 43.7647 99.6446 43.7647C96.8996 43.7647 94.8058 45.4005 94.8058 47.5597C94.8135 47.9739 94.9111 48.3816 95.0919 48.7544C95.2726 49.1272 95.5322 49.4563 95.8527 49.7189C97.1613 50.7658 97.5508 50.9652 102.654 52.467C110.241 54.6886 113.382 58.2218 113.382 64.6995C113.382 69.6692 111.877 73.4642 108.936 76.016C105.795 78.6956 101.346 80.135 96.3107 80.135C91.1416 80.135 85.8417 78.4338 81.1992 75.2308L86.038 66.0705C89.5059 69.0803 92.712 70.5198 96.049 70.5198C99.386 70.5198 101.542 68.8186 101.542 66.2668C101.542 63.9144 100.037 62.802 94.7404 61.2317C89.8985 59.7922 88.0009 59.007 86.4306 57.6984C84.1436 55.8009 82.9659 52.9219 82.9659 49.0646C82.9659 40.2999 88.9824 34.3457 97.8125 34.3457C102.393 34.3457 107.235 35.592 111.615 37.879L107.104 46.7091Z" fill="#1D1D1B"/>
<path d="M137.766 79.0227H126.449V45.0078H117.227V35.3926H147.185V45.0078H137.766V79.0227Z" fill="#1D1D1B"/>
<path d="M165.359 45.0083V52.2711H178.115V61.8864H165.359V69.4079H178.844V79.0231H154.043V35.4023H178.844V45.0176L165.359 45.0083Z" fill="#1D1D1B"/>
<path d="M198.922 79.0231H187.605V35.4023H198.922V79.0231Z" fill="#1D1D1B"/>
<path d="M208.098 35.3926H219.414L240.29 62.0823V35.3926H251.606V79.0133H240.28L219.414 52.3455V79.032H208.098V35.3926Z" fill="#1D1D1B"/>
<path d="M260.77 35.3926H277.579C285.559 35.3926 289.877 39.3839 289.877 46.7745C289.877 51.1584 288.503 53.7725 285.101 55.8102C288.307 56.3991 289.746 57.1188 291.186 58.4929C292.952 60.325 293.99 63.3348 293.99 66.6687C293.99 74.3241 288.232 79.032 278.944 79.032H260.77V35.3926ZM274.167 52.5979C277.635 52.5979 279.464 51.0929 279.464 48.3448C279.464 45.5406 277.632 44.0264 274.167 44.0264H272.077V52.5979H274.167ZM274.56 70.1926C280.187 70.1926 282.543 68.8186 282.543 65.6124C282.543 63.9798 281.692 62.4748 280.383 61.8205C279.075 61.1662 278.093 61.0354 274.364 61.0354H272.077V70.1926H274.56Z" fill="#1D1D1B"/>
<path d="M310.2 71.4362L307.193 79.0231H295.223L311.967 35.4023H324.33L340.75 79.0231H328.649L325.844 71.4362H310.2ZM318.12 48.8687L313.344 62.8024H322.763L318.12 48.8687Z" fill="#1D1D1B"/>
<path d="M374.451 50.2426C371.768 47.0364 368.565 45.4661 364.639 45.4661C357.835 45.4661 352.93 50.5043 352.93 57.5023C352.93 61.2412 354.177 64.1763 356.791 66.3324C358.992 68.1764 361.768 69.1945 364.639 69.2114C368.378 69.2114 371.494 67.7719 374.451 64.6343V78.0321C369.154 79.7987 367.388 80.1913 364.312 80.1913C357.9 80.1913 351.295 77.3124 346.845 72.6044C343.106 68.6131 341.09 63.3818 341.09 57.5584C341.068 54.5198 341.65 51.5071 342.803 48.6954C343.955 45.8838 345.655 43.3294 347.804 41.1807C349.952 39.032 352.507 37.332 355.318 36.1795C358.13 35.027 361.143 34.445 364.181 34.4674C367.584 34.4674 370.329 35.0563 374.463 36.6921L374.451 50.2426Z" fill="#1D1D1B"/>
<path d="M410.034 52.2707V35.3926H421.351V79.0133H410.034V61.1008H393.617V79.0227H382.301V35.4019H393.617V52.28L410.034 52.2707Z" fill="#1D1D1B"/>
<path d="M441.504 45.0083V52.2711H454.279V61.8864H441.504V69.4079H454.98V79.0231H430.188V35.4023H454.98V45.0176L441.504 45.0083Z" fill="#1D1D1B"/>
<path d="M500.001 79.0231H485.874L475.078 62.279V79.0231H463.762V35.4023H481.36C486.345 35.4023 489.535 36.5801 492.087 39.2628C494.501 41.8817 495.837 45.3162 495.826 48.878C495.826 52.7385 494.321 56.3995 491.835 58.5587C490.33 59.8674 488.89 60.5871 486.276 61.176L500.001 79.0231ZM477.172 54.9507C479.331 54.9507 481.032 54.5581 482.014 53.7729C482.683 53.2841 483.227 52.6443 483.602 51.9056C483.977 51.1668 484.173 50.35 484.173 49.5215C484.173 48.6929 483.977 47.8761 483.602 47.1374C483.227 46.3986 482.683 45.7588 482.014 45.27C481.032 44.4848 479.331 44.0922 477.172 44.0922H475.078V54.9507H477.172Z" fill="#1D1D1B"/>
<path d="M64.4732 18.76C64.4732 29.12 45.7132 45.4871 45.7132 45.4871C45.7132 45.4871 44.4388 44.2408 42.5008 42.2872C37.1822 36.9717 26.9531 26.3438 26.9531 18.76C26.9531 13.7846 28.9296 9.01288 32.4478 5.49469C35.966 1.9765 40.7377 0 45.7132 0C50.6886 0 55.4603 1.9765 58.9785 5.49469C62.4967 9.01288 64.4732 13.7846 64.4732 18.76V18.76Z" fill="#E30613"/>
<path d="M58.3308 57.9246L45.8023 45.4023L45.7088 45.4864C45.7088 45.4864 44.4345 44.2401 42.4965 42.2865C37.1779 36.971 26.9488 26.3431 26.9488 18.7593C26.9432 14.4275 28.4421 10.2281 31.1893 6.87891L6.45325 31.6212V31.643C4.77396 33.3213 3.44182 35.314 2.53294 37.5072C1.62406 39.7005 1.15625 42.0514 1.15625 44.4255C1.15625 46.7996 1.62406 49.1505 2.53294 51.3437C3.44182 53.537 4.77396 55.5297 6.45325 57.2079C6.69316 57.4478 6.93931 57.6784 7.18857 57.8996L19.9632 70.6743C20.4898 71.2009 21.169 71.8739 21.9573 72.6653C27.2728 77.9808 37.505 88.6087 37.505 96.1925C37.5061 99.6606 36.5458 103.061 34.7307 106.017C32.9156 108.972 30.3168 111.366 27.223 112.933C29.2262 112.034 31.0485 110.776 32.6008 109.223L58.3308 83.5019C60.012 81.8234 61.3457 79.83 62.2557 77.6356C63.1657 75.4411 63.6341 73.0888 63.6341 70.7132C63.6341 68.3376 63.1657 65.9853 62.2557 63.7909C61.3457 61.5965 60.012 59.603 58.3308 57.9246V57.9246Z" fill="#13A538"/>
<path d="M5.83012e-07 96.2001C5.83012e-07 85.8402 18.76 69.4824 18.76 69.4824C18.76 69.4824 20.0313 70.7287 21.9724 72.6823C27.2879 77.9978 37.5201 88.6257 37.5201 96.2095C37.5189 101.185 35.5412 105.956 32.0221 109.473C28.503 112.991 23.7308 114.966 18.7554 114.965C13.7799 114.964 9.0087 112.986 5.49139 109.467C1.97407 105.948 -0.00123895 101.176 5.83012e-07 96.2001V96.2001Z" fill="#005CA9"/>
<path d="M245.963 114.233H244V96.6035H245.963V114.233Z" fill="#1D1D1B"/>
<path d="M259.822 112.494V114.224H248.465L256.373 104.979H249.939V103.25H260.149L252.251 112.494H259.822Z" fill="#1D1D1B"/>
<path d="M261.621 108.755C261.62 107.613 261.959 106.497 262.593 105.547C263.227 104.597 264.128 103.856 265.183 103.419C266.238 102.981 267.399 102.867 268.519 103.089C269.639 103.311 270.668 103.861 271.476 104.668C272.284 105.476 272.834 106.505 273.057 107.625C273.28 108.745 273.166 109.906 272.729 110.961C272.292 112.016 271.552 112.918 270.603 113.552C269.653 114.187 268.537 114.526 267.395 114.526C266.636 114.526 265.886 114.378 265.185 114.088C264.484 113.798 263.848 113.373 263.311 112.837C262.775 112.302 262.35 111.665 262.06 110.965C261.77 110.264 261.621 109.513 261.621 108.755V108.755ZM263.491 108.73C263.491 110.974 265.08 112.796 267.395 112.796C269.71 112.796 271.296 110.983 271.296 108.755C271.296 106.527 269.707 104.689 267.395 104.689C265.083 104.689 263.491 106.521 263.491 108.755V108.73Z" fill="#1D1D1B"/>
<path d="M278.03 114.233H276.16V94.9531H278.03V114.233Z" fill="#1D1D1B"/>
<path d="M283.592 109.379C283.592 111.223 283.801 112.806 286.085 112.806C288.369 112.806 288.562 111.217 288.562 109.379V103.25H290.431V109.581C290.431 112.504 289.331 114.535 286.085 114.535C282.838 114.535 281.723 112.504 281.723 109.581V103.25H283.592V109.379Z" fill="#1D1D1B"/>
<path d="M296.444 99.1117C296.445 99.3756 296.367 99.6337 296.221 99.8534C296.075 100.073 295.867 100.245 295.623 100.346C295.38 100.447 295.112 100.474 294.853 100.423C294.594 100.372 294.356 100.245 294.169 100.059C293.982 99.8725 293.855 99.6349 293.803 99.3761C293.751 99.1173 293.778 98.8491 293.879 98.6052C293.979 98.3613 294.15 98.1529 294.37 98.0062C294.589 97.8595 294.847 97.7813 295.111 97.7812C295.463 97.7845 295.8 97.9256 296.049 98.1743C296.298 98.423 296.44 98.7595 296.444 99.1117V99.1117ZM296.046 120.402H294.176V103.249H296.046V120.402Z" fill="#1D1D1B"/>
<path d="M315.182 112.713H315.136C314.691 113.291 314.117 113.757 313.459 114.074C312.802 114.39 312.08 114.548 311.35 114.536C308.125 114.536 306.094 111.803 306.094 108.765C306.094 105.65 308.078 102.945 311.375 102.945C312.103 102.947 312.821 103.117 313.473 103.441C314.125 103.766 314.694 104.235 315.136 104.815H315.182V94.9531H317.052V114.233H315.182V112.713ZM308.016 108.625C308.016 110.775 309.262 112.806 311.615 112.806C314.02 112.806 315.282 110.868 315.282 108.647C315.282 106.425 313.905 104.674 311.59 104.674C309.412 104.674 308.01 106.575 308.01 108.625H308.016Z" fill="#1D1D1B"/>
<path d="M331.033 112.494V114.223H319.676L327.596 104.969H321.146V103.24H331.36L323.461 112.494H331.033Z" fill="#1D1D1B"/>
<path d="M335.612 99.1117C335.613 99.3756 335.535 99.6337 335.389 99.8534C335.243 100.073 335.035 100.245 334.791 100.346C334.548 100.447 334.279 100.474 334.021 100.423C333.762 100.372 333.524 100.245 333.337 100.059C333.15 99.8725 333.023 99.6349 332.971 99.3761C332.919 99.1173 332.946 98.8491 333.047 98.6052C333.147 98.3613 333.318 98.1529 333.538 98.0062C333.757 97.8595 334.015 97.7813 334.279 97.7812C334.631 97.7845 334.968 97.9256 335.217 98.1743C335.466 98.423 335.608 98.7595 335.612 99.1117ZM335.201 114.233H333.332V103.249H335.201V114.233Z" fill="#1D1D1B"/>
<path d="M350.969 113.205C350.969 113.552 350.831 113.885 350.586 114.13C350.34 114.376 350.007 114.514 349.66 114.514C349.313 114.514 348.98 114.376 348.735 114.13C348.489 113.885 348.352 113.552 348.352 113.205C348.352 112.858 348.489 112.525 348.735 112.28C348.98 112.034 349.313 111.896 349.66 111.896C350.007 111.896 350.34 112.034 350.586 112.28C350.831 112.525 350.969 112.858 350.969 113.205Z" fill="#1D1D1B"/>
<path d="M364.521 95.6074L370.924 110.401L377.348 95.6074L380.925 114.233H378.916L376.638 102.316H376.591L370.914 114.956L365.259 102.316H365.212L362.944 114.233H360.938L364.521 95.6074Z" fill="#1D1D1B"/>
<path d="M383.109 103.25H385.29L389.17 111.124L392.722 103.25H394.85L386.749 120.402H384.624L388.176 113.205L383.109 103.25Z" fill="#1D1D1B"/>
<path d="M408.053 114.233H406.184V94.9531H408.053V114.233Z" fill="#1D1D1B"/>
<path d="M417.871 108.755C417.871 107.614 418.21 106.498 418.844 105.549C419.478 104.6 420.379 103.86 421.433 103.424C422.488 102.987 423.648 102.873 424.767 103.095C425.887 103.318 426.915 103.867 427.722 104.674C428.529 105.482 429.078 106.51 429.301 107.629C429.524 108.748 429.409 109.909 428.973 110.963C428.536 112.017 427.796 112.919 426.847 113.553C425.898 114.187 424.783 114.525 423.642 114.525C422.883 114.526 422.133 114.377 421.432 114.088C420.732 113.798 420.095 113.373 419.559 112.837C419.023 112.301 418.598 111.664 418.309 110.964C418.019 110.264 417.87 109.513 417.871 108.755V108.755ZM419.741 108.73C419.741 110.973 421.33 112.796 423.642 112.796C425.953 112.796 427.542 110.973 427.542 108.73C427.542 106.487 425.953 104.664 423.642 104.664C421.33 104.664 419.741 106.521 419.741 108.755V108.73Z" fill="#1D1D1B"/>
<path d="M441.683 99.1117C441.683 99.3756 441.606 99.6337 441.46 99.8534C441.313 100.073 441.105 100.245 440.862 100.346C440.618 100.447 440.35 100.474 440.091 100.423C439.832 100.372 439.594 100.245 439.407 100.059C439.221 99.8725 439.093 99.6349 439.041 99.3761C438.99 99.1173 439.016 98.8491 439.117 98.6052C439.218 98.3613 439.389 98.1529 439.608 98.0062C439.827 97.8595 440.085 97.7813 440.349 97.7812C440.701 97.7845 441.038 97.9256 441.287 98.1743C441.537 98.423 441.679 98.7595 441.683 99.1117V99.1117ZM441.284 120.402H439.414V103.249H441.284V120.402Z" fill="#1D1D1B"/>
<path d="M446.916 109.379C446.916 111.223 447.125 112.806 449.409 112.806C451.693 112.806 451.902 111.217 451.902 109.379V103.25H453.771V109.581C453.771 112.504 452.671 114.535 449.409 114.535C446.147 114.535 445.047 112.504 445.047 109.581V103.25H446.916V109.379Z" fill="#1D1D1B"/>
<path d="M459.349 114.233H457.479V104.979H456.336V103.25H457.479V99.2988H459.349V103.25H461.312V104.979H459.349V114.233Z" fill="#1D1D1B"/>
<path d="M465.358 104.439H465.404C466.059 103.576 466.62 102.943 467.835 102.943C468.432 102.961 469.013 103.138 469.517 103.457L468.629 105.165C468.255 104.906 468.006 104.673 467.508 104.673C465.451 104.673 465.358 107.315 465.358 108.739V114.232H463.488V103.249H465.358V104.439Z" fill="#1D1D1B"/>
<path d="M481.693 112.494V114.223H470.336L478.256 104.969H471.807V103.24H482.02L474.122 112.494H481.693Z" fill="#1D1D1B"/>
<path d="M485.295 109.138C485.317 111.169 486.766 112.805 488.894 112.805C490.48 112.805 491.508 111.848 492.234 110.54L493.823 111.449C493.357 112.391 492.632 113.182 491.734 113.728C490.836 114.274 489.801 114.553 488.75 114.534C485.482 114.534 483.379 112.041 483.379 108.879C483.379 105.632 485.27 102.959 488.707 102.959C492.234 102.959 494.103 105.882 493.916 109.153L485.295 109.138ZM491.954 107.549C491.841 106.766 491.456 106.048 490.866 105.522C490.276 104.996 489.519 104.695 488.729 104.673C487.925 104.692 487.153 104.989 486.544 105.513C485.935 106.037 485.527 106.757 485.389 107.549H491.954Z" fill="#1D1D1B"/>
<path d="M499.621 113.205C499.621 113.552 499.483 113.885 499.238 114.13C498.992 114.376 498.66 114.514 498.313 114.514C497.965 114.514 497.633 114.376 497.387 114.13C497.142 113.885 497.004 113.552 497.004 113.205C497.004 112.858 497.142 112.525 497.387 112.28C497.633 112.034 497.965 111.896 498.313 111.896C498.66 111.896 498.992 112.034 499.238 112.28C499.483 112.525 499.621 112.858 499.621 113.205Z" fill="#1D1D1B"/>
<path d="M343.458 106.125C343.344 105.828 343.149 105.569 342.894 105.378C342.639 105.188 342.336 105.073 342.019 105.047C341.396 105.047 340.716 105.543 340.716 106.216C340.716 107.185 341.931 107.543 343.165 108.06C344.399 108.578 345.617 109.307 345.617 111.095C345.617 113.095 343.997 114.522 342.044 114.522C341.213 114.546 340.398 114.298 339.723 113.814C339.048 113.331 338.55 112.64 338.305 111.846L339.9 111.173C340.349 112.161 340.866 112.859 342.059 112.859C342.279 112.873 342.5 112.841 342.708 112.766C342.915 112.691 343.105 112.574 343.266 112.422C343.426 112.271 343.553 112.087 343.639 111.884C343.725 111.681 343.769 111.462 343.767 111.242C343.767 108.88 339.003 109.684 339.003 106.362C339.003 104.586 340.439 103.371 342.15 103.371C342.754 103.398 343.339 103.596 343.836 103.943C344.332 104.289 344.72 104.769 344.954 105.328L343.458 106.125Z" fill="#1D1D1B"/>
<path d="M345.38 98.3709L341.953 101.833L340.828 101.209L343.505 97.5234L345.38 98.3709Z" fill="#1D1D1B"/>
<path d="M401.297 106.262C401.048 105.701 400.509 105.184 399.858 105.184C399.207 105.184 398.552 105.68 398.552 106.353C398.552 107.322 399.767 107.68 401.004 108.197C402.241 108.714 403.453 109.443 403.453 111.232C403.453 113.232 401.836 114.659 399.88 114.659C399.049 114.683 398.234 114.434 397.559 113.951C396.884 113.468 396.386 112.776 396.141 111.983L397.736 111.31C398.188 112.297 398.705 112.995 399.895 112.995C400.115 113.009 400.336 112.978 400.544 112.903C400.751 112.828 400.941 112.711 401.101 112.559C401.262 112.407 401.389 112.224 401.475 112.021C401.561 111.818 401.605 111.599 401.603 111.378C401.603 109.016 396.839 109.82 396.839 106.499C396.839 104.723 398.278 103.508 399.986 103.508C400.59 103.534 401.175 103.732 401.672 104.079C402.168 104.425 402.556 104.906 402.79 105.465L401.297 106.262Z" fill="#1D1D1B"/>
<path d="M403.216 98.5096L399.789 101.971L398.664 101.348L401.341 97.6621L403.216 98.5096Z" fill="#1D1D1B"/>
</g>
<defs>
<clipPath id="clip0_6032_24926">
<rect width="500" height="115.402" fill="white"/>
</clipPath>
</defs>
</svg>
