<svg xmlns="http://www.w3.org/2000/svg" id="Layer_1" data-name="Layer 1" viewBox="0 0 271.69 54.18"><defs><style>.cls-1{fill:#ffc80d;}.cls-2{fill:none;}.cls-3{fill:#00983d;}</style></defs><title>subway website yellow green logo</title><path class="cls-1" d="M64.1,49.65c-11.8,0-17.41-6.4-17.41-13.22V5.68H59.3V35.42c0,1.91,1.55,3.49,4.8,3.49s4.8-1.57,4.8-3.49V5.68H81.51V36.43C81.51,43.3,75.28,49.65,64.1,49.65Zm42.55-.92c8.47,0,14.19-4.57,14.19-13.1,0-4.52-2.23-7.62-5.93-9.68a9.91,9.91,0,0,0,4.8-8.49c0-6.68-4.66-11.78-13.78-11.78H85.51V48.73h21.14m.45-29.81c0,2.25-1,3.86-3.23,3.86H98V15.07h5.85C106.05,15.07,107.1,16.59,107.1,18.92Zm-2.62,20.23H98V31h6.46c2.36,0,3.56,1.5,3.56,4.08s-1.14,4.09-3.56,4.09M34.39,48.27c6.2-1.28,10-5.29,10-12,0-8-5.11-10.3-14.42-14.69-4.43-2.08-5.51-2.63-5.51-4a1.79,1.79,0,0,1,2-1.76l15.67.26V5.76l-13-.21a47.31,47.31,0,0,0-5.59.21c-6.82.89-11.46,5.37-11.46,11.79,0,8.29,5.94,10.88,13.51,14.47,4.7,2.23,6.33,2.81,6.33,4.52,0,.94-.66,1.85-2.24,1.82l-16.69-.12V32.57L0,43.37,13.08,54.18V48.54l14.86.1A39,39,0,0,0,34.39,48.27Z" transform="translate(0 0)"></path><path class="cls-2" d="M249.09,44.91a1.73,1.73,0,1,0,1.72,1.73A1.74,1.74,0,0,0,249.09,44.91Zm.29,2.78-.54-.72h0v.72h-.62V45.58h1c.58,0,.89.3.89.73a.65.65,0,0,1-.59.64l.62.74Z" transform="translate(0 0)"></path><path class="cls-2" d="M249.18,46.13h-.38v.33h.38c.16,0,.27-.05.27-.15S249.34,46.13,249.18,46.13Z" transform="translate(0 0)"></path><path class="cls-3" d="M163.1,35.77c0,1.33-.7,2.77-3.57,2.77S156,37,156,35.77V5.68H143.4V35.77c0,1.3-.73,2.77-3.6,2.77s-3.53-1.55-3.53-2.77V5.68H123.68V36c0,7,4.6,13.42,15.85,13.42a15.89,15.89,0,0,0,10.11-3.36,16.67,16.67,0,0,0,10.54,3.36c10.52,0,15.5-6.4,15.5-13.42V5.68H163.1Z" transform="translate(0 0)"></path><path class="cls-3" d="M196.91,4.42c-11,0-17.31,5.81-17.31,13.54V48.74h12.55V36.26h9.53V48.74h12.55V18C214.22,10.18,207.77,4.42,196.91,4.42Zm-4.76,22V18.7c0-2,1.4-3.53,4.76-3.53s4.76,1.48,4.76,3.53v7.68Z" transform="translate(0 0)"></path><path class="cls-3" d="M271.69,10.81,258.62,0V5.42h-8.68c-7.34,0-10.44,4.25-10.44,10.39V22.6c0,1.62-1.1,3.52-4.85,3.52s-4.84-1.9-4.84-3.52h0V5.68H217.33V23.84c0,6,4.11,10.57,11,12.44V48.73h12.75V36.28c7-1.91,10.88-6.45,10.88-12.44V17.18a.92.92,0,0,1,1.05-1h5.6v5.46Z" transform="translate(0 0)"></path><path class="cls-3" d="M250.08,46.31c0-.43-.31-.73-.89-.73h-1v2.11h.62V47h0l.54.72h.73l-.62-.74A.65.65,0,0,0,250.08,46.31Zm-.9.15h-.38v-.33h.38c.16,0,.27.06.27.18S249.34,46.46,249.18,46.46Z" transform="translate(0 0)"></path><path class="cls-3" d="M249.09,44.34a2.3,2.3,0,1,0,2.36,2.3A2.31,2.31,0,0,0,249.09,44.34Zm0,4a1.73,1.73,0,1,1,1.72-1.72A1.74,1.74,0,0,1,249.09,48.36Z" transform="translate(0 0)"></path></svg>