<?xml version="1.0" encoding="utf-8"?>
<!-- Generator: Adobe Illustrator 25.4.1, SVG Export Plug-In . SVG Version: 6.00 Build 0)  -->
<svg version="1.1" id="Layer_1" xmlns="http://www.w3.org/2000/svg" xmlns:xlink="http://www.w3.org/1999/xlink" x="0px" y="0px"
	 viewBox="0 0 343.8 132.4" style="enable-background:new 0 0 343.8 132.4;" xml:space="preserve">
<style type="text/css">
	.st0{fill:#F47C00;}
	.st1{fill:#FFFFFF;}
</style>
<g id="Group_487" transform="translate(21048 -4042.187)">
	<path id="Path_1180" class="st0" d="M-20955.1,4076.3c17.8,1.8,30.4,6.4,33.1,17.1c4.6,17.7-19.8,39.3-54.5,48.3
		c-34.6,9-66.4,1.9-71-15.8c-3.3-12.7,8.4-27.3,28.2-38c-16.1,9.4-25.5,22.1-22.7,33c4.1,15.9,32.7,20.2,63.9,12.1
		c31.2-8.1,53.2-25.4,49.1-41.3c-2.3-8.8-11.9-12.5-26.1-14.6L-20955.1,4076.3z"/>
	<path id="Path_1181" class="st1" d="M-20924.7,4116c-7.4,13.3-27,26.1-51.7,32.5c-23.6,6.1-45.8,3.8-59.1-3.7
		c15.9,3.6,37.3,6,59.5-0.3C-20954.1,4138.3-20938.4,4130.6-20924.7,4116z"/>
	<g id="Group_483" transform="translate(63.25 7.728)">
		<path id="Path_1182" class="st1" d="M-20983.9,4122.1l10.5-8.8c3.9,5.4,10.5,10.1,17.9,10.1c8.2,0,13-3.7,13-9.8
			c0-6.3-3.9-10-12.3-13.7l-6.7-2.9c-12.7-5.6-19.1-13.7-19.1-24.7c0-13.6,12.3-22.4,25.1-22.4c9.1-0.4,17.9,3.6,23.7,10.7l-9.5,9.9
			c-4.4-5.2-8.2-7.5-14.3-7.5c-5.7,0-11.2,3.3-11.2,9.2c0,5.5,3.8,9.4,12.3,13l6.6,3c11.6,5,19.4,12.4,19.4,24.2
			c0,14.3-10.6,24.1-26.9,24.1C-20968.2,4136.5-20978.5,4130.8-20983.9,4122.1z"/>
		<path id="Path_1183" class="st1" d="M-20930.8,4051h15.2l23.9,54.1l24.1-54.1h15.1l-39.2,85.5L-20930.8,4051z"/>
		<path id="Path_1184" class="st1" d="M-20834.1,4081.6v54h-13.8V4050l57.8,54.9v-54h13.8v85.5L-20834.1,4081.6z"/>
	</g>
	<path id="Path_1185" class="st1" d="M-20954.6,4121.4v-51.7l-11.3,7l0,0l-5.3,3.2v48.2C-20965.6,4126.3-20960,4124-20954.6,4121.4
		L-20954.6,4121.4z"/>
	<path id="Path_1186" class="st1" d="M-21023.3,4132.4c5.4,1.4,11,1.9,16.5,1.7l0.1-8.5v-55.8l-5.4,3.3l-11.2,6.9v47.5
		L-21023.3,4132.4z"/>
	<path id="Path_1187" class="st1" d="M-20929.4,4103.9"/>
	<path id="Path_1188" class="st1" d="M-20980.3,4130.8c0.5-0.1,1-0.2,1.4-0.4"/>
	<path id="Path_1189" class="st1" d="M-20998.8,4134c6.7-0.7,13.4-1.9,20-3.5l0-0.1v-88.2l-20.2,12.4"/>
	<path id="Path_1190" class="st1" d="M-20711.2,4062.2L-20711.2,4062.2c0-1.9,1.5-3.5,3.5-3.5s3.5,1.5,3.5,3.5v0
		c0,1.9-1.6,3.5-3.5,3.5S-20711.2,4064.1-20711.2,4062.2L-20711.2,4062.2z M-20704.6,4062.2L-20704.6,4062.2c0-1.7-1.4-3.1-3.1-3.1
		s-3.1,1.4-3.1,3.1v0c0,1.7,1.4,3.1,3.1,3.1C-20706,4065.3-20704.6,4063.9-20704.6,4062.2z M-20709.1,4060.2h1.6
		c0.4,0,0.8,0.1,1.1,0.4c0.2,0.2,0.3,0.5,0.3,0.8v0c0,0.5-0.3,1-0.8,1.1l0.9,1.3h-0.9l-0.8-1.2h-0.6v1.2h-0.8V4060.2z
		 M-20707.5,4062c0.4,0,0.6-0.2,0.6-0.5v0c0-0.4-0.2-0.5-0.7-0.5h-0.8v1.1H-20707.5z"/>
	<path id="Path_1191" class="st1" d="M-21034.2,4174.4h2l-5.8-14.9h-2l-5.8,14.9h2l1.3-3.6h6.9L-21034.2,4174.4z M-21039,4161.2
		l2.9,8.1h-5.8L-21039,4161.2z M-21020.4,4174.4h1.8v-14.9h-1.8v6.3h-7.5v-6.3h-1.8v14.9h1.9v-7h7.4L-21020.4,4174.4z
		 M-21012.7,4174.4v-14.9h-1.9v14.9H-21012.7z M-20998.6,4174.4h2l-5.8-14.9h-2l-5.8,14.9h2l1.3-3.6h6.9L-20998.6,4174.4z
		 M-21003.4,4161.2l2.9,8.1h-5.8L-21003.4,4161.2z M-20977.8,4161.4c-1.7-1.3-3.6-2-5.7-2.2c-3.1,0-5.9,2.3-5.9,7.7
		c0,5.4,2.7,7.7,5.9,7.7c2.1-0.1,4.1-0.9,5.7-2.2l-1-1.3c-1.3,1-2.9,1.7-4.6,1.9c-2.4,0-4.1-2.2-4.1-6s1.7-6,4.1-6
		c1.7,0.2,3.3,0.8,4.6,1.9L-20977.8,4161.4z M-20969.4,4159.2c-4.8,0-6.5,3.5-6.5,7.7c0,4.2,1.8,7.7,6.5,7.7s6.6-3.5,6.6-7.7
		S-20964.6,4159.2-20969.4,4159.2z M-20969.4,4173c-3.5,0-4.6-2.7-4.6-6.1c0-3.4,1.2-6.1,4.6-6.1c3.5,0,4.7,2.7,4.7,6.1
		C-20964.8,4170.3-20965.9,4173-20969.4,4173z M-20947.5,4174.4h1.8v-14.9h-1.9l-5,10.4l-5-10.4h-1.9v14.9h1.9v-11.8l4.5,9.3h1.2
		l4.5-9.4L-20947.5,4174.4z M-20929.5,4174.4h1.8v-14.9h-1.9l-5,10.4l-5-10.4h-1.9v14.9h1.9v-11.8l4.5,9.3h1.2l4.5-9.4
		L-20929.5,4174.4z M-20914.1,4174.4v-1.6h-7.7v-5.1h6.3v-1.6h-6.3v-5.1h7.6v-1.6h-9.5v14.9H-20914.1z M-20901.6,4174.4h2l-4.1-6.4
		c2.2,0,4-1.8,4.1-4c0-0.1,0-0.1,0-0.2c0-3.2-2.3-4.3-5.6-4.3h-5.8v14.9h1.9v-6.3h3.6L-20901.6,4174.4z M-20901.5,4163.8
		c0,2-1.6,2.8-3.8,2.8h-3.9v-5.6h4C-20903.1,4161-20901.5,4161.7-20901.5,4163.8L-20901.5,4163.8z M-20885.5,4161.4
		c-1.7-1.3-3.6-2-5.7-2.2c-3.1,0-5.9,2.3-5.9,7.7s2.7,7.7,5.9,7.7c2.1-0.1,4.1-0.9,5.7-2.2l-1-1.3c-1.3,1-2.9,1.7-4.6,1.9
		c-2.4,0-4.1-2.2-4.1-6s1.7-6,4.1-6c1.7,0.2,3.3,0.8,4.6,1.9L-20885.5,4161.4z M-20880.9,4174.4v-14.9h-1.8v14.9H-20880.9z
		 M-20866.8,4174.4h2l-5.8-14.9h-2l-5.8,14.9h2l1.3-3.6h6.9L-20866.8,4174.4z M-20871.6,4161.2l2.9,8.1h-5.8L-20871.6,4161.2z
		 M-20853.1,4174.4v-1.6h-7.4v-13.3h-1.9v14.9L-20853.1,4174.4z M-20835.9,4174.4h2l-4.1-6.4c2.2,0,4-1.8,4.1-4c0-0.1,0-0.1,0-0.2
		c0-3.2-2.3-4.3-5.6-4.3h-5.8v14.9h1.9v-6.3h3.6L-20835.9,4174.4z M-20835.7,4163.8c0,2-1.6,2.8-3.8,2.8h-3.9v-5.6h4
		C-20837.3,4161-20835.7,4161.7-20835.7,4163.8L-20835.7,4163.8z M-20821.1,4174.4v-1.6h-7.7v-5.1h6.3v-1.6h-6.3v-5.1h7.6v-1.6h-9.5
		v14.9H-20821.1z M-20807.9,4174.4h2l-5.8-14.9h-2l-5.8,14.9h2l1.3-3.6h6.9L-20807.9,4174.4z M-20812.7,4161.2l2.9,8.1h-5.8
		L-20812.7,4161.2z M-20794.2,4174.4v-1.6h-7.4v-13.3h-1.9v14.9L-20794.2,4174.4z M-20776.8,4174.4v-1.6h-7.7v-5.1h6.3v-1.6h-6.3
		v-5.1h7.6v-1.6h-9.5v14.9H-20776.8z M-20768.3,4166c-2.2-0.7-4.1-1.1-4.1-2.9c0-1.6,1.4-2.3,2.9-2.3c1.5,0.1,3.1,0.5,4.4,1.2
		l0.9-1.4c-1.7-0.9-3.5-1.3-5.4-1.4c-2.7,0-4.8,1.5-4.8,4c0,2.6,2.3,3.5,4.3,4.2c2.5,0.9,4.5,1.5,4.5,3.3c0,1.6-1.5,2.4-3.2,2.4
		c-1.8-0.1-3.6-0.7-5.2-1.6l-0.9,1.4c1.8,1.1,3.9,1.7,6,1.8c2.7,0,5.1-1.4,5.1-4.1C-20763.6,4167.7-20766.3,4166.7-20768.3,4166z
		 M-20751.2,4161.1v-1.6h-11.2v1.6h4.7v13.3h1.8v-13.3H-20751.2z M-20739.8,4174.4h2l-5.8-14.9h-2l-5.8,14.9h2l1.3-3.6h6.9
		L-20739.8,4174.4z M-20744.6,4161.2l2.9,8.1h-5.8L-20744.6,4161.2z M-20726.9,4161.1v-1.6h-11.2v1.6h4.7v13.3h1.8v-13.3H-20726.9z
		 M-20714.8,4174.4v-1.6h-7.7v-5.1h6.3v-1.6h-6.3v-5.1h7.6v-1.6h-9.5v14.9H-20714.8z"/>
</g>
</svg>
