<svg width="128" height="128" viewBox="0 0 128 128" fill="none" xmlns="http://www.w3.org/2000/svg">
<path d="M0 128H128V8.04954e-07H0V128Z" fill="#DA291C"/>
<path d="M76.8006 38.3994H51.2002V12.7991H76.8006V38.3994Z" fill="white"/>
<path d="M10.6906 108.556V109.182C10.6906 111.179 11.2562 112.459 13.5226 112.459C14.8321 112.459 16.0847 111.625 16.0847 109.838C16.0847 107.9 15.1003 107.186 12.2701 106.202C8.45543 104.89 6.6978 103.311 6.6978 99.7642C6.6978 95.6227 9.23048 93.5069 13.2839 93.5069C17.0985 93.5069 19.8699 95.1452 19.8699 99.2279V99.8248H15.7559C15.7559 97.8285 15.0709 96.6659 13.4326 96.6659C11.495 96.6659 10.9881 97.8872 10.9881 99.1379C10.9881 100.451 11.3756 101.256 13.1939 102.029L16.5016 103.459C19.7193 104.861 20.555 106.499 20.555 109.092C20.555 113.592 17.8129 115.618 13.1645 115.618C8.30667 115.618 6.39844 113.353 6.39844 109.421V108.556H10.6906Z" fill="white"/>
<path d="M25.0706 93.9237L27.8714 102.148H27.932L30.911 93.9237H35.5594L30.0478 106.828V115.201H25.7557V106.828L20.2422 93.9237H25.0706Z" fill="white"/>
<path d="M42.0212 93.9237L47.2059 108.495H47.2665V93.9237H51.2005V115.201H46.3115L41.068 100.3H41.0074V115.201H37.0752V93.9237H42.0212Z" fill="white"/>
<path d="M66.0708 93.9237V97.4408H58.4728V102.447H65.6245V105.963H58.4728V111.685H66.3683V115.201H54.1807V93.9237H66.0708Z" fill="white"/>
<path d="M72.8753 103.221H74.6641C76.7193 103.221 77.8818 102.326 77.8818 100.032C77.8818 98.0652 76.8386 97.0808 74.901 97.0808H72.8753V103.221ZM68.585 93.9237H76.5117C80.027 93.9237 82.174 95.7695 82.174 99.4059C82.174 102.238 81.0408 104.144 78.6275 104.651V104.71C81.5477 105.098 81.994 106.706 82.0546 111.208C82.084 113.441 82.2034 114.604 83.0078 115.023V115.201H78.3594C77.9424 114.604 77.8524 113.799 77.8231 112.966L77.7037 108.883C77.6431 107.213 76.8974 106.2 75.1692 106.2H72.8753V115.201H68.585V93.9237Z" fill="white"/>
<path d="M94.6013 100.242C94.6013 98.6622 93.8869 96.6658 92.1586 96.6658C90.0704 96.6658 89.2366 98.811 89.2366 104.115C89.2366 109.241 89.7141 112.459 92.188 112.459C93.2 112.459 94.8401 111.357 94.8401 109.063V106.887H92.008V103.728H98.9522V115.201H95.7933V113.234H95.7326C94.7207 114.903 93.2606 115.618 91.2642 115.618C85.9895 115.618 84.9463 111.686 84.9463 104.324C84.9463 97.1727 86.6158 93.5069 92.098 93.5069C96.8071 93.5069 98.7134 95.9202 98.7134 100.242H94.6013Z" fill="white"/>
<path d="M101.933 93.9237H106.225V115.201H101.933V93.9237Z" fill="white"/>
<path d="M121.305 93.9237V97.4408H113.705V102.447H120.859V105.963H113.705V111.685H121.603V115.201H109.415V93.9237H121.305Z" fill="white"/>
</svg>
