<?xml version="1.0" encoding="UTF-8" standalone="no"?>
<svg width="185px" height="42px" viewBox="0 0 185 42" version="1.1" xmlns="http://www.w3.org/2000/svg" xmlns:xlink="http://www.w3.org/1999/xlink">
    <!-- Generator: Sketch 39.1 (31720) - http://www.bohemiancoding.com/sketch -->
    <title>Logo</title>
    <desc>Created with Sketch.</desc>
    <defs>
        <polygon id="path-1" points="21.0901578 25.7603687 0 25.7603687 0 13.239447 0 0.718525408 21.0901578 0.718525408 21.0901578 25.7603687"></polygon>
    </defs>
    <g id="Symbols" stroke="none" stroke-width="1" fill="none" fill-rule="evenodd">
        <g id="HEADER" transform="translate(-16.000000, -11.000000)">
            <g id="Logo" transform="translate(16.000000, 11.000000)">
                <path d="M153.714956,1.39353687 C153.714956,1.39353687 153.842099,0.681163594 153.885148,0.602891705 C153.885148,0.602891705 153.970244,0.31952765 154.228534,0.195679724 C154.228534,0.195679724 154.447781,0.0629147465 154.689052,0.15406682 C154.689052,0.15406682 154.902292,0.217476959 154.96236,0.491923963 C154.96236,0.491923963 155.009413,0.660357143 154.970369,0.813928571 L154.834216,1.69869816 C154.834216,1.69869816 154.743113,2.56761521 154.739109,2.93123272 C154.736105,3.29187788 154.698063,4.34111751 154.846229,5.29920507 C154.994396,6.25828341 155.098513,6.78736175 155.24668,7.29266129 C155.394847,7.79796083 155.683171,8.64309908 155.874386,9.08895161 C156.066602,9.53480415 156.415995,10.4126382 156.78441,11.0933065 C157.153826,11.7739747 157.799552,12.9817396 158.14394,13.4989286 C158.487326,14.0131452 159.523492,15.6677535 159.738734,15.9223848 C159.95698,16.1780069 160.133178,16.5475691 160.537633,17.0598041 C160.941087,17.5720392 160.728848,17.3659562 161.381583,18.2319009 C162.033316,19.0988364 162.448783,19.7626613 162.448783,19.7626613 C162.448783,19.7626613 163.277716,21.0536521 163.282722,21.0823848 C163.282722,21.0823848 163.744241,21.836371 164.051587,22.5031682 C164.360935,23.1699654 164.662274,23.8238825 164.782409,24.2657719 C164.902544,24.7066705 165.164839,25.3417627 165.435144,26.8120853 C165.703446,28.2824078 165.675414,28.5984677 165.70745,28.65197 C165.70745,28.65197 165.913682,30.6038134 165.92069,31.0873157 C165.92069,31.0873157 166.068857,34.2845737 166.019801,34.5382143 C166.019801,34.5382143 165.980758,36.7654954 165.950724,36.7912558 C165.950724,36.7912558 165.83159,38.7094124 165.785538,38.7946198 C165.785538,38.7946198 165.635369,39.9597811 165.49421,40.3521313 C165.49421,40.3521313 165.342039,40.8257258 165.256943,40.9614631 C165.256943,40.9614631 165.108776,41.1982604 164.853489,41.2586982 C164.853489,41.2586982 164.48107,41.3676843 164.309877,41.1189977 C164.309877,41.1189977 164.211767,40.9951498 164.203758,40.7098041 C164.203758,40.7098041 164.207763,40.3640207 164.288854,39.928076 L164.367943,39.2642512 L164.398978,38.8183986 L164.416998,38.0644124 C164.416998,38.0644124 164.421003,37.073629 164.352926,36.7288364 C164.352926,36.7288364 164.254816,35.7271544 164.129675,35.294182 C164.005535,34.8631912 163.870383,34.2221544 163.611091,33.6564171 C163.352801,33.0916705 163.409865,33.1481452 162.796174,31.8264401 C162.796174,31.8264401 162.384711,30.9337442 162.093384,30.4353802 C161.802056,29.9370161 161.381583,29.2335599 161.381583,29.2335599 C161.381583,29.2335599 160.29536,27.5710253 160.254314,27.5284217 C160.210265,27.4868088 158.356179,24.8067396 158.356179,24.8067396 C158.356179,24.8067396 157.064725,22.874712 157.054714,22.7776152 C157.054714,22.7776152 156.297863,21.5312097 155.864375,20.4740438 C155.426883,19.4178687 155.217647,18.8709562 155.098513,18.4597811 C154.976376,18.048606 154.600953,16.7823848 154.500841,16.3236521 C154.40273,15.8639286 154.202505,14.8949424 154.202505,14.8949424 L153.970244,13.3711175 C153.970244,13.3711175 153.703944,10.9278456 153.714956,10.9327995 C153.724968,10.9357719 153.557779,8.64012673 153.557779,8.64012673 L153.475687,6.66747696 L153.465676,5.20706221 L153.501716,3.78726959 L153.617847,2.21390553 L153.714956,1.39353687 Z" id="Fill-1" fill="#002F56"></path>
                <path d="M184.247211,1.27058065 C184.247211,1.27058065 184.119066,0.558207373 184.076018,0.480926267 C184.076018,0.480926267 183.990922,0.196571429 183.733633,0.0737142857 C183.733633,0.0737142857 183.511383,-0.0590506912 183.272113,0.0311105991 C183.272113,0.0311105991 183.058873,0.0945207373 182.997805,0.368967742 C182.997805,0.368967742 182.952754,0.536410138 182.991798,0.691963134 L183.124948,1.57673272 C183.124948,1.57673272 183.218053,2.44564977 183.222057,2.8082765 C183.226062,3.16892166 183.264104,4.21816129 183.114936,5.17723963 C182.964768,6.13532719 182.863654,6.66539631 182.715487,7.16970507 C182.566319,7.67599539 182.278996,8.52212442 182.08678,8.96698618 C181.895564,9.41184793 181.543168,10.289682 181.176756,10.9703502 C180.806339,11.6510184 180.161613,12.8587834 179.818227,13.3749816 C179.47384,13.8901889 178.437674,15.5428157 178.22143,15.8004194 C178.005187,16.0560415 177.827988,16.4256037 177.424534,16.9378387 C177.019078,17.4490829 177.232318,17.243 176.579583,18.1089447 C175.92785,18.9758802 175.512382,19.6397051 175.512382,19.6397051 C175.512382,19.6397051 174.682448,20.9316866 174.679445,20.9584378 C174.679445,20.9584378 174.217926,21.712424 173.909579,22.3792212 C173.601232,23.0460184 173.299893,23.6999355 173.179758,24.1428157 C173.05762,24.5847051 172.796326,25.2197972 172.527023,26.6911106 C172.255718,28.1614332 172.284751,28.4774931 172.252715,28.5300046 C172.252715,28.5300046 172.048485,30.4808571 172.040476,30.9653502 C172.040476,30.9653502 171.891308,34.1626083 171.942365,34.4152581 C171.942365,34.4152581 171.981409,36.6445207 172.007439,36.6682995 C172.007439,36.6682995 172.130577,38.587447 172.175628,38.6706728 C172.175628,38.6706728 172.324796,39.8378157 172.465955,40.2311567 C172.465955,40.2311567 172.618126,40.7017788 172.703221,40.8375161 C172.703221,40.8375161 172.851388,41.0762949 173.107677,41.1357419 C173.107677,41.1357419 173.481097,41.2457189 173.651288,40.9960415 C173.651288,40.9960415 173.749399,40.8721935 173.757408,40.5888295 C173.757408,40.5888295 173.752402,40.2420553 173.672312,39.8071014 L173.595225,39.1432765 L173.562188,38.6964332 L173.544168,37.9414562 C173.544168,37.9414562 173.541164,36.9526544 173.60824,36.6048894 C173.60824,36.6048894 173.707351,35.6032074 173.832492,35.1732074 C173.95463,34.7422166 174.089782,34.0991982 174.349073,33.5344516 C174.606363,32.9687143 174.551301,33.0261797 175.165993,31.7054654 C175.165993,31.7054654 175.576454,30.8097972 175.866781,30.3114332 C176.157108,29.8150507 176.579583,29.1125853 176.579583,29.1125853 C176.579583,29.1125853 177.663803,27.4490599 177.706851,27.407447 C177.748899,27.3648433 179.604987,24.6827926 179.604987,24.6827926 C179.604987,24.6827926 180.89644,22.7527465 180.907453,22.6536682 C180.907453,22.6536682 181.661301,21.4092442 182.097792,20.3520783 C182.535284,19.2959032 182.742517,18.748 182.863654,18.3388065 C182.98479,17.9266406 183.360212,16.6604194 183.458323,16.2006959 C183.559437,15.7409724 183.756659,14.7719862 183.756659,14.7719862 L183.990922,13.2491521 C183.990922,13.2491521 184.257222,10.806871 184.247211,10.8098433 C184.236198,10.8128157 184.403386,8.51816129 184.403386,8.51816129 L184.483476,6.54452074 L184.494489,5.08509677 L184.46045,3.66431336 L184.342318,2.09094931 L184.247211,1.27058065 Z" id="Fill-3" fill="#007198"></path>
                <g id="Group-7" transform="translate(0.000000, 15.522207)">
                    <mask id="mask-2" fill="white">
                        <use xlink:href="#path-1"></use>
                    </mask>
                    <g id="Clip-6"></g>
                    <path d="M18.5738989,12.5933525 C18.5738989,12.5933525 17.323492,11.4489977 10.4837961,10.3848963 C10.4837961,10.3848963 6.73057308,10.0648733 6.70654604,7.73355991 C6.70654604,7.73355991 6.71355393,5.67173963 9.80002675,5.49538018 C9.80002675,5.49538018 13.8836215,4.97323733 16.3163588,8.22895161 L20.6472318,5.86395161 C20.6472318,5.86395161 18.6179485,1.05369816 11.1575542,0.727730415 C11.1575542,0.727730415 6.01877218,0.445357143 3.42885807,3.00851382 C3.03441425,3.39888249 1.23739228,4.91973502 1.27943959,8.43701613 C1.27943959,8.43701613 1.31447902,11.2161636 3.61506759,12.7627765 C4.77136863,13.5405415 6.27105604,14.3510023 9.2263813,14.988076 C10.6239538,15.2892742 12.1196367,15.53697 13.1958476,15.7182834 C14.481294,15.9392281 15.3262447,16.7982373 15.2992143,18.1239055 C15.2872008,18.7540438 14.9538257,20.0985369 13.3900662,20.5334908 C13.3900662,20.5334908 10.2785652,21.55697 7.25115883,19.9033525 C7.25115883,19.9033525 5.32799493,18.775841 4.38293157,17.1717627 L0,19.4644355 C0,19.4644355 0.84995635,22.7389747 6.51132639,24.9494124 C6.51132639,24.9494124 11.2997142,26.8368548 16.2893284,24.8533065 C16.2893284,24.8533065 20.0025063,23.7327304 20.9615855,19.0611866 C20.9615855,19.0611866 21.9256702,14.8860253 18.5738989,12.5933525" id="Fill-5" fill="#002F56" mask="url(#mask-2)"></path>
                </g>
                <polygon id="Fill-8" fill="#002F56" points="94.6393859 38.4286244 94.6393859 40.8966659 78.3130159 40.8966659 78.314017 17.1802834 80.9649999 17.1802834 80.9649999 38.4276336"></polygon>
                <path d="M141.336729,36.4486429 C140.978325,37.1035507 140.509798,37.6118226 139.947165,37.9605783 C139.399549,38.2974447 138.713777,38.5401866 137.912876,38.6818687 C137.460367,38.7650945 136.708521,38.8057166 135.613289,38.8057166 L129.0469,38.8057166 L129.0469,19.2952097 L134.397921,19.2952097 C136.234988,19.2952097 137.505418,19.4150945 138.283293,19.6558548 C139.106219,19.9124677 139.748942,20.3969608 140.192441,21.0944724 C140.62693,21.7741498 140.846177,22.5687581 140.846177,23.4545184 C140.846177,24.3957627 140.605906,25.1953249 140.134376,25.8314078 C139.660843,26.4694724 138.957051,26.9301866 138.04102,27.1976982 C137.367262,27.399818 136.308071,27.4988963 134.802376,27.4988963 L134.616167,27.4988963 L134.616167,29.5835046 L135.174795,29.5835046 C136.806632,29.5835046 138.03201,29.7232051 138.920009,30.0125138 C139.842047,30.313712 140.572869,30.8417995 141.093455,31.5848871 C141.61304,32.3250023 141.875335,33.2018456 141.875335,34.1956014 C141.875335,35.0377673 141.694131,35.7957166 141.336729,36.4486429 M143.329971,30.5197949 C142.584132,29.5488272 141.699136,28.9513848 140.295557,28.543182 L139.700888,28.3618687 L140.443724,27.9893341 C141.483894,27.4691728 141.926392,26.873712 142.454987,26.0216382 C142.987586,25.1656014 143.256889,24.0380899 143.256889,23.0700945 C143.256889,22.0287811 142.950544,21.0132281 142.347866,20.0511774 C141.747191,19.0960622 140.904242,18.3797258 139.846051,17.9200023 C138.76083,17.4483894 137.286171,17.2096106 135.461118,17.2096106 L126.585131,17.2096106 L126.585131,40.8913157 L135.613289,40.8913157 C137.149017,40.8913157 138.45849,40.7565691 139.504667,40.4940115 C140.531823,40.2354171 141.395795,39.8509931 142.069553,39.3506475 C142.7333,38.8582281 143.303942,38.1399101 143.762458,37.2165 C144.221975,36.2901175 144.455238,35.2725829 144.455238,34.1956014 C144.455238,32.86597 144.076812,31.4897719 143.329971,30.5197949" id="Fill-10" fill="#002F56"></path>
                <polygon id="Fill-12" fill="#002F56" points="23.7470196 17.2067373 29.6796949 17.2067373 35.3090289 26.5666682 40.9513775 17.2067373 46.8790472 17.2067373 38.0330939 31.8089032 38.0330939 40.9023134 32.5779559 40.9023134 32.5779559 31.8089032"></polygon>
                <polygon id="Fill-14" fill="#002F56" points="66.3122129 40.9023134 56.1988336 25.6947788 56.1988336 40.9023134 51.1501529 40.9023134 51.1501529 17.2067373 56.5362132 17.2067373 66.6165553 32.381576 66.6165553 17.2067373 71.6742461 17.2067373 71.6742461 40.9023134"></polygon>
                <polygon id="Fill-16" fill="#002F56" points="122.000572 40.8990438 111.811107 17.2074309 109.349337 17.2074309 99.1598723 40.8990438 101.835883 40.8990438 110.574716 20.4988134 119.327564 40.8990438"></polygon>
            </g>
        </g>
    </g>
</svg>