<svg xmlns="http://www.w3.org/2000/svg" viewBox="0 0 250 56.89"><defs><style>.cls-1{fill:#003765}.cls-2{fill:#0077ad}</style></defs><title>logo_synlab</title><g id="Ebene_2" data-name="Ebene 2"><g id="Ebene_1-2" data-name="Ebene 1"><path class="cls-1" d="M25.17 38.86s-1.7-1.56-11-3c0 0-5.09-.44-5.12-3.63 0 0 0-2.82 4.19-3.06 0 0 5.53-.72 8.83 3.74L28 29.65s-2.75-6.59-12.86-7c0 0-7-.39-10.47 3.12-.54.54-3 2.62-2.92 7.43a7.84 7.84 0 0 0 3.15 5.9 20.09 20.09 0 0 0 7.6 3c1.9.42 3.92.75 5.38 1a3.15 3.15 0 0 1 2.85 3.3 3.48 3.48 0 0 1-2.59 3.3 11.27 11.27 0 0 1-8.31-.87 12.45 12.45 0 0 1-3.89-3.74L0 48.27s1.15 4.49 8.82 7.51a19.47 19.47 0 0 0 13.25-.13s5-1.53 6.33-7.93c0 0 1.31-5.72-3.23-8.86"/><path class="cls-2" d="M249.66 1.74a10.68 10.68 0 0 0-.23-1.08A1 1 0 0 0 249 .1a.8.8 0 0 0-.63-.06.61.61 0 0 0-.37.47 1 1 0 0 0 0 .49l.18 1.21s.13 1.19.13 1.69a19.4 19.4 0 0 1-.14 3.24 20.9 20.9 0 0 1-.54 2.73c-.21.69-.59 1.85-.85 2.46S246 14.09 245.5 15s-1.37 2.59-1.84 3.29-1.87 3-2.16 3.32-.54.86-1.08 1.56-.26.42-1.15 1.61-1.44 2.09-1.44 2.09-1.13 1.77-1.13 1.81-.63 1-1 1.94a21.52 21.52 0 0 0-1 2.42 27.61 27.61 0 0 0-.88 3.48c-.36 2-.33 2.45-.37 2.52s-.28 2.68-.29 3.34c0 0-.2 4.37-.13 4.72 0 0 0 3.05.09 3.09s.16 2.62.23 2.74a16.48 16.48 0 0 0 .39 2.13 7.42 7.42 0 0 0 .32.84 1 1 0 0 0 .55.4s.5.15.74-.19a1 1 0 0 0 .14-.56 7.48 7.48 0 0 0-.12-1.07l-.1-.91v-1.61a16.13 16.13 0 0 1 .09-1.83 15.77 15.77 0 0 1 .3-2 16 16 0 0 1 .7-2.25c.35-.77.28-.69 1.11-2.5 0 0 .55-1.22.95-1.91s1-1.64 1-1.64 1.48-2.28 1.53-2.33 2.57-3.73 2.57-3.73 1.75-2.65 1.77-2.78a28.65 28.65 0 0 0 1.61-3.15c.59-1.45.88-2.2 1-2.76s.67-2.3.81-2.93l.4-1.95.32-2.09s.36-3.34.34-3.34.21-3.14.21-3.14L250 9V5l-.16-2.16z"/><path class="cls-1" d="M208.29 1.74a10.68 10.68 0 0 1 .23-1.08A1 1 0 0 1 209 .1a.78.78 0 0 1 .62-.06.61.61 0 0 1 .37.47A1 1 0 0 1 210 1l-.18 1.21s-.13 1.19-.13 1.69a19.4 19.4 0 0 0 .14 3.24 22.75 22.75 0 0 0 .54 2.73c.21.69.6 1.85.86 2.46s.73 1.81 1.23 2.74 1.38 2.59 1.84 3.29 1.87 3 2.16 3.33.54.85 1.08 1.55.27.42 1.15 1.61 1.45 2.09 1.45 2.09 1.12 1.77 1.12 1.81.63 1 1.05 1.94a19.77 19.77 0 0 1 1 2.42 25.72 25.72 0 0 1 .88 3.49c.37 2 .33 2.44.37 2.51s.28 2.68.29 3.34c0 0 .2 4.38.13 4.72 0 0-.05 3.06-.09 3.09s-.16 2.63-.22 2.74a15.28 15.28 0 0 1-.4 2.13 5.86 5.86 0 0 1-.32.84 1 1 0 0 1-.55.4s-.5.16-.73-.19a.94.94 0 0 1-.15-.55 7.54 7.54 0 0 1 .12-1.08l.1-.9.05-.61v-1a15.6 15.6 0 0 0-.08-1.83 16.43 16.43 0 0 0-.31-2 14.33 14.33 0 0 0-.7-2.24c-.35-.78-.27-.7-1.11-2.51 0 0-.55-1.22-1-1.91s-1-1.64-1-1.64-1.47-2.28-1.53-2.33-2.57-3.73-2.57-3.73-1.75-2.65-1.77-2.78a27.64 27.64 0 0 1-1.61-3.15c-.59-1.45-.87-2.2-1-2.76s-.67-2.3-.8-2.93-.41-1.95-.41-1.95l-.31-2.09s-.36-3.34-.35-3.34-.21-3.14-.21-3.14L208 9V5l.16-2.16zm-80.05 51.25v3.38h-22.12V23.89h3.59v29.09l18.53.01zm63.28-2.72a5.42 5.42 0 0 1-1.88 2.07 7.62 7.62 0 0 1-2.76 1 18.59 18.59 0 0 1-3.12.17h-8.89V26.79h7.25a19.42 19.42 0 0 1 5.26.49 4.6 4.6 0 0 1 2.59 2 5.93 5.93 0 0 1 .88 3.23 5.38 5.38 0 0 1-1 3.26 5.28 5.28 0 0 1-2.84 1.87 16.71 16.71 0 0 1-4.38.41h-.26v2.85h.76a17 17 0 0 1 5.07.59 5.64 5.64 0 0 1 2.95 2.16 6.14 6.14 0 0 1 1.06 3.57 6.43 6.43 0 0 1-.73 3.08m2.7-8.11a7.33 7.33 0 0 0-4.11-2.71l-.81-.25 1-.51A6.15 6.15 0 0 0 193 36a8 8 0 0 0 1.09-4 7.76 7.76 0 0 0-1.23-4.14 7.49 7.49 0 0 0-3.39-2.92 15.2 15.2 0 0 0-5.94-1h-12v32.42h12.23a21.94 21.94 0 0 0 5.28-.55 9.75 9.75 0 0 0 3.47-1.56 8.15 8.15 0 0 0 2.3-2.92 9.38 9.38 0 0 0 .94-4.14 8.49 8.49 0 0 0-1.53-5M32.18 23.93h8.04l7.63 12.81 7.64-12.81h8.03L51.54 43.92v12.45h-7.39V43.92L32.18 23.93zm57.68 32.44L76.15 35.55v20.82h-6.84V23.93h7.3l13.66 20.78V23.93h6.85v32.44h-7.26zm75.46 0l-13.37-32.44h-4.22l-13.36 32.44h4.2l11.27-27.34 11.27 27.34h4.21z"/></g></g></svg>