<svg xmlns="http://www.w3.org/2000/svg" viewBox="0 0 238.35 59.21"><defs><style>.cls-1{fill:#231815;}.cls-2{fill:#0054a7;}</style></defs><g id="レイヤー_2" data-name="レイヤー 2"><g id="レイヤー_1-2" data-name="レイヤー 1"><path class="cls-1" d="M78.87,59H77.13V55.44H72V59H70.24v-8.2H72v3h5.16v-3h1.74Z"/><path class="cls-1" d="M103,54.85a4,4,0,0,1-1.23,3,5.54,5.54,0,0,1-7.25,0,4,4,0,0,1-1.22-3,3.93,3.93,0,0,1,1.23-3,5.5,5.5,0,0,1,7.24,0A3.93,3.93,0,0,1,103,54.85Zm-1.78,0a2.6,2.6,0,0,0-.84-2,3.61,3.61,0,0,0-4.46,0,2.84,2.84,0,0,0,0,4,3.67,3.67,0,0,0,4.47,0A2.6,2.6,0,0,0,101.23,54.85Z"/><path class="cls-1" d="M123.83,59H116.6V50.76h1.74V57.4h5.49Z"/><path class="cls-1" d="M143.11,50.76a4.28,4.28,0,0,1,3.15,1.15A4.08,4.08,0,0,1,147.43,55a3.83,3.83,0,0,1-1.28,3,4,4,0,0,1-2.81,1h-5V50.76Zm.12,6.64a2.25,2.25,0,0,0,1.93-1.06,2.48,2.48,0,0,0,.44-1.42,2.6,2.6,0,0,0-.67-1.85,2.23,2.23,0,0,0-1.71-.74h-3.17V57.4Z"/><path class="cls-1" d="M191.28,59h-2l-4.84-5.86h0V59h-1.74V50.76h2l4.84,5.87h0V50.76h1.73Z"/><path class="cls-1" d="M215.44,54.78a4,4,0,0,1-1.28,3.08,5.27,5.27,0,0,1-3.74,1.35,5,5,0,0,1-3.62-1.36,4.22,4.22,0,0,1,0-6,5.06,5.06,0,0,1,3.61-1.37,4.73,4.73,0,0,1,4.17,2l-1.81.73a2.91,2.91,0,0,0-2.37-1.08,3.29,3.29,0,0,0-2.26.78,2.63,2.63,0,0,0,.17,4,3.36,3.36,0,0,0,2.1.67,3.76,3.76,0,0,0,1.92-.49,2.79,2.79,0,0,0,1.18-1.23h-3.46V54.31h5.38Z"/><path class="cls-1" d="M237.1,53.07a5.85,5.85,0,0,0-3.13-.92c-1.51,0-2.26.29-2.26.87,0,.28.21.47.62.59a5.75,5.75,0,0,0,1.19.14l1.51.1a5.54,5.54,0,0,1,2.5.73,2,2,0,0,1,.82,1.75,2.38,2.38,0,0,1-1.08,2.09,5.4,5.4,0,0,1-3.1.75,7.21,7.21,0,0,1-4.63-1.55l1-1.34a6.42,6.42,0,0,0,3.76,1.27,3.68,3.68,0,0,0,1.67-.31,1,1,0,0,0,.58-.83c0-.33-.21-.54-.65-.65a13.45,13.45,0,0,0-1.79-.16,7.47,7.47,0,0,1-3.12-.64,1.89,1.89,0,0,1-1-1.77,2.22,2.22,0,0,1,1-1.93,5.2,5.2,0,0,1,2.95-.71,6.74,6.74,0,0,1,4.2,1.21Z"/><path class="cls-1" d="M33.4,20.25H20.58V41.14H12.86V20.25H0v-6.1H33.4Z"/><path class="cls-2" d="M238.35,41.14h-7.73v-27h7.73Z"/><path class="cls-1" d="M116.28,21.85A30.83,30.83,0,0,0,103.68,19c-5.35,0-8,.87-8,2.59,0,1,.93,1.6,2.77,1.89l8,.7q7.59.66,11,2.46a5.85,5.85,0,0,1,3.59,5.44A7.7,7.7,0,0,1,116.94,39q-4.26,2.55-12,2.55A33.75,33.75,0,0,1,86,36.07l4-4.83q6.06,4,14.88,4c5.32,0,8-.85,8-2.55,0-.82-1.06-1.4-3.16-1.75-1.2-.21-4.25-.5-9.13-.88q-12.85-1-12.86-8.21c0-2.75,1.35-4.93,4.06-6.56s6.46-2.43,11.26-2.43q10.71,0,16.89,4.16Z"/><path class="cls-1" d="M167.3,31.51c0,3-1.5,5.38-4.48,7.2s-7.24,2.85-12.42,2.85-9.35-1-12.42-2.85-4.52-4.22-4.52-7.2V13.73h7.72V30.67a3.87,3.87,0,0,0,2.37,3.51,14.64,14.64,0,0,0,6.81,1.28,14.75,14.75,0,0,0,6.82-1.28,3.87,3.87,0,0,0,2.39-3.51V13.73h7.73Z"/><path class="cls-1" d="M218.23,40.72H208L195.52,28.51l-6.26,4.19v8h-7.72v-27h7.72V25.28l17-11.55h11L201.38,24.48Z"/><polygon class="cls-2" points="164.14 58.97 168.65 50.76 166.54 50.76 161.94 58.97 164.14 58.97"/><path class="cls-2" d="M76.58,40.71,61.18,12.94,68.47,0H60.31L27.38,58.86H36L49,35.15h9.65l3.47-6.07,6.38,11.63ZM52.38,29.05l4.87-8.89,4.88,8.89Z"/></g></g></svg>