<?xml version="1.0" encoding="UTF-8" standalone="no"?>
<!DOCTYPE svg PUBLIC "-//W3C//DTD SVG 1.1//EN" "http://www.w3.org/Graphics/SVG/1.1/DTD/svg11.dtd">
<svg width="100%" height="100%" viewBox="0 0 104 25" version="1.1" xmlns="http://www.w3.org/2000/svg" xmlns:xlink="http://www.w3.org/1999/xlink" xml:space="preserve" xmlns:serif="http://www.serif.com/" style="fill-rule:evenodd;clip-rule:evenodd;stroke-linejoin:round;stroke-miterlimit:2;">
    <g transform="matrix(1,0,0,1,0,-0.5)">
        <path d="M89.662,0.5L98.8,25.5L104,25.5L94.862,0.5L89.662,0.5Z" style="fill:rgb(254,204,0);"/>
    </g>
    <g transform="matrix(1,0,0,1,0,-0.5)">
        <path d="M0,0.5L0,5.75L6.557,5.75L6.557,25.5L12.347,25.5L12.347,5.75L18.903,5.75L18.903,0.5L0,0.5ZM67.264,0.5L63.078,15.852L63.008,15.852L59.243,0.5L53.105,0.5L49.268,15.852L49.198,15.852L45.014,0.5L38.806,0.5L46.548,25.5L51.884,25.5L56.209,9.056L56.244,9.056L60.394,25.5L65.73,25.5L73.472,0.5L67.264,0.5ZM80.597,7.613L80.667,7.613L83.387,16.028L77.912,16.028L80.597,7.613ZM77.842,0.5L68.775,25.5L74.878,25.5L76.308,21.028L84.992,21.028L86.457,25.5L92.561,25.5L83.422,0.5L77.842,0.501L77.842,0.5ZM33.685,17.718C33.685,16.169 32.534,15.078 30.023,15.078L26.675,15.078L26.675,20.359L30.023,20.359C32.185,20.359 33.685,19.479 33.685,17.719L33.685,17.718ZM26.675,10.463L29.43,10.463C31.173,10.463 32.569,9.652 32.569,8.069C32.569,6.661 31.557,5.674 29.22,5.674L26.675,5.674L26.675,10.464L26.675,10.463ZM39.753,18.526C39.753,22.541 37.137,25.499 31.836,25.499L20.956,25.499L20.956,0.5L30.302,0.5C35.812,0.5 38.462,2.753 38.462,6.591C38.513,7.775 38.193,8.946 37.548,9.94C36.906,10.93 35.969,11.692 34.87,12.12L34.87,12.19C38.218,13.106 39.752,15.43 39.752,18.528" style="fill:white;"/>
    </g>
</svg>
