<svg width="104" height="25" viewBox="0 0 104 25" xmlns="http://www.w3.org/2000/svg"><title>Page 1</title><g fill="none" fill-rule="evenodd"><path fill="#FFF" d="M0 0v5.25h6.434V25h5.68V5.25h6.434V0zm67.177 0l-4.186 15.352h-.07L59.153 0h-6.14l-3.837 15.352h-.07L44.92 0h-6.21l7.745 25h5.337l4.326-16.444h.035L60.305 25h5.337l7.745-25zm10.287 0l-8.916 25h6.001l1.406-4.472h8.54L85.934 25h6L82.951 0h-5.487zm2.71 7.113h.068l2.675 8.415h-5.384l2.64-8.415z"/><path fill="#FC0" d="M89.516 0l9.251 25h5.265L94.781 0z"/><path d="M39.516 18.028c0 4.014-2.58 6.972-7.812 6.972H20.968V0h9.222c5.437 0 8.053 2.254 8.053 6.092 0 2.147-.895 4.4-3.545 5.528v.07c3.304.916 4.818 3.24 4.818 6.338zM26.611 9.965h2.719c1.72 0 3.097-.81 3.097-2.395 0-1.408-.998-2.394-3.303-2.394H26.61v4.789zm6.917 7.253c0-1.549-1.135-2.64-3.613-2.64h-3.304v5.281h3.304c2.134 0 3.613-.88 3.613-2.64z" fill="#FFF"/></g></svg>