<?xml version="1.0" encoding="UTF-8"?>
<svg id="Ebene_1" xmlns="http://www.w3.org/2000/svg" viewBox="0 0 567 80">
  <defs>
    <style>
      .cls-1 {
        fill: #1d1d1b;
      }

      .cls-2 {
        fill: #9d9d9c;
      }
    </style>
  </defs>
  <g>
    <path class="cls-1" d="M5.57,15.16l13.41-2.16v13.95h16.11v11.16h-16.11v16.65c0,2.82.5,5.07,1.49,6.75.99,1.68,2.98,2.52,5.98,2.52,1.44,0,2.92-.14,4.46-.41,1.53-.27,2.92-.64,4.19-1.12l1.89,10.44c-1.62.66-3.42,1.23-5.4,1.71s-4.41.72-7.29.72c-3.66,0-6.69-.5-9.09-1.49-2.4-.99-4.32-2.37-5.76-4.14-1.44-1.77-2.45-3.92-3.02-6.44-.57-2.52-.85-5.31-.85-8.37V15.16Z"/>
    <path class="cls-1" d="M41.93,50.98c0-4.2.64-7.88,1.94-11.02,1.29-3.15,2.98-5.77,5.08-7.88,2.1-2.1,4.51-3.69,7.25-4.77,2.73-1.08,5.54-1.62,8.42-1.62,6.72,0,12.03,2.06,15.93,6.17,3.9,4.11,5.85,10.16,5.85,18.14,0,.78-.03,1.63-.09,2.56-.06.93-.12,1.75-.18,2.48h-30.42c.3,2.76,1.59,4.95,3.87,6.57,2.28,1.62,5.34,2.43,9.18,2.43,2.46,0,4.87-.23,7.25-.68,2.37-.45,4.3-1,5.8-1.67l1.8,10.89c-.72.36-1.68.72-2.88,1.08-1.2.36-2.54.67-4,.94-1.47.27-3.05.5-4.73.68-1.68.18-3.36.27-5.04.27-4.26,0-7.96-.63-11.11-1.89-3.15-1.26-5.76-2.98-7.83-5.18-2.07-2.19-3.6-4.78-4.59-7.78-.99-3-1.49-6.24-1.49-9.72ZM73.43,45.85c-.06-1.14-.26-2.25-.58-3.33-.33-1.08-.84-2.04-1.53-2.88-.69-.84-1.56-1.53-2.61-2.07-1.05-.54-2.36-.81-3.92-.81s-2.79.26-3.87.76c-1.08.51-1.98,1.19-2.7,2.02-.72.84-1.28,1.82-1.67,2.93-.39,1.11-.67,2.24-.85,3.38h17.73Z"/>
    <path class="cls-1" d="M94.49,50.62c0-3.42.55-6.64,1.67-9.68,1.11-3.03,2.71-5.67,4.81-7.92,2.1-2.25,4.65-4.03,7.65-5.35,3-1.32,6.42-1.98,10.26-1.98,2.52,0,4.83.23,6.93.68,2.1.45,4.14,1.1,6.12,1.93l-2.79,10.71c-1.26-.48-2.64-.9-4.14-1.26-1.5-.36-3.18-.54-5.04-.54-3.96,0-6.92,1.23-8.87,3.69-1.95,2.46-2.92,5.7-2.92,9.72,0,4.26.91,7.56,2.75,9.9,1.83,2.34,5.02,3.51,9.58,3.51,1.62,0,3.36-.15,5.22-.45,1.86-.3,3.57-.78,5.13-1.44l1.89,10.98c-1.56.66-3.51,1.23-5.85,1.71-2.34.48-4.92.72-7.74.72-4.32,0-8.04-.65-11.16-1.93-3.12-1.29-5.69-3.04-7.69-5.27-2.01-2.22-3.48-4.84-4.41-7.88-.93-3.03-1.4-6.31-1.4-9.85Z"/>
    <path class="cls-1" d="M141.29,15.16l13.41-2.16v13.95h16.11v11.16h-16.11v16.65c0,2.82.5,5.07,1.49,6.75.99,1.68,2.98,2.52,5.98,2.52,1.44,0,2.92-.14,4.46-.41,1.53-.27,2.92-.64,4.19-1.12l1.89,10.44c-1.62.66-3.42,1.23-5.4,1.71s-4.41.72-7.29.72c-3.66,0-6.69-.5-9.09-1.49-2.4-.99-4.32-2.37-5.76-4.14-1.44-1.77-2.45-3.92-3.02-6.44-.57-2.52-.85-5.31-.85-8.37V15.16Z"/>
    <path class="cls-1" d="M196.91,25.69c3.96,0,7.26.45,9.9,1.35,2.64.9,4.75,2.19,6.35,3.87,1.59,1.68,2.71,3.72,3.38,6.12.66,2.4.99,5.07.99,8.01v27.9c-1.92.42-4.59.92-8.01,1.49s-7.56.86-12.42.86c-3.06,0-5.84-.27-8.33-.81-2.49-.54-4.64-1.42-6.44-2.66-1.8-1.23-3.18-2.83-4.14-4.81-.96-1.98-1.44-4.41-1.44-7.29s.55-5.1,1.67-7.02c1.11-1.92,2.59-3.45,4.46-4.59,1.86-1.14,3.99-1.96,6.39-2.48,2.4-.51,4.89-.77,7.47-.77,1.74,0,3.29.08,4.64.23,1.35.15,2.44.35,3.28.58v-1.26c0-2.28-.69-4.11-2.07-5.49-1.38-1.38-3.78-2.07-7.2-2.07-2.28,0-4.53.17-6.75.5-2.22.33-4.14.8-5.76,1.4l-1.71-10.8c.78-.24,1.75-.5,2.92-.77,1.17-.27,2.44-.51,3.83-.72,1.38-.21,2.83-.39,4.36-.54,1.53-.15,3.07-.23,4.64-.23ZM197.99,64.93c1.32,0,2.58-.03,3.78-.09,1.2-.06,2.16-.15,2.88-.27v-10.17c-.54-.12-1.35-.24-2.43-.36-1.08-.12-2.07-.18-2.97-.18-1.26,0-2.45.08-3.55.23-1.11.15-2.09.44-2.93.85-.84.42-1.5.99-1.98,1.71-.48.72-.72,1.62-.72,2.7,0,2.1.7,3.56,2.11,4.37,1.41.81,3.34,1.21,5.81,1.21Z"/>
    <path class="cls-1" d="M243.08,43.95c1.32-1.43,2.68-2.92,4.09-4.47,1.41-1.55,2.77-3.09,4.09-4.61,1.32-1.52,2.56-2.97,3.73-4.34,1.17-1.37,2.17-2.56,3.01-3.58h15.95c-3.18,3.65-6.29,7.14-9.31,10.46-3.03,3.32-6.35,6.75-9.95,10.28,1.8,1.62,3.66,3.56,5.58,5.81,1.92,2.25,3.78,4.58,5.58,6.99,1.8,2.41,3.45,4.81,4.95,7.21,1.5,2.4,2.76,4.6,3.78,6.58h-15.42c-.96-1.56-2.05-3.29-3.28-5.19-1.23-1.89-2.53-3.79-3.91-5.68-1.38-1.89-2.83-3.71-4.36-5.46s-3.04-3.22-4.54-4.42v20.75h-13.41V6.61l13.41-2.16v39.5Z"/>
    <path class="cls-1" d="M276.29,50.98c0-4.2.64-7.88,1.94-11.02,1.29-3.15,2.98-5.77,5.08-7.88,2.1-2.1,4.51-3.69,7.25-4.77,2.73-1.08,5.54-1.62,8.42-1.62,6.72,0,12.03,2.06,15.93,6.17,3.9,4.11,5.85,10.16,5.85,18.14,0,.78-.03,1.63-.09,2.56-.06.93-.12,1.75-.18,2.48h-30.42c.3,2.76,1.59,4.95,3.87,6.57,2.28,1.62,5.34,2.43,9.18,2.43,2.46,0,4.87-.23,7.25-.68,2.37-.45,4.3-1,5.8-1.67l1.8,10.89c-.72.36-1.68.72-2.88,1.08-1.2.36-2.54.67-4,.94-1.47.27-3.05.5-4.73.68-1.68.18-3.36.27-5.04.27-4.26,0-7.96-.63-11.11-1.89-3.15-1.26-5.76-2.98-7.83-5.18-2.07-2.19-3.6-4.78-4.59-7.78-.99-3-1.49-6.24-1.49-9.72ZM307.79,45.85c-.06-1.14-.26-2.25-.58-3.33-.33-1.08-.84-2.04-1.53-2.88-.69-.84-1.56-1.53-2.61-2.07-1.05-.54-2.36-.81-3.92-.81s-2.79.26-3.87.76c-1.08.51-1.98,1.19-2.7,2.02-.72.84-1.28,1.82-1.67,2.93-.39,1.11-.67,2.24-.85,3.38h17.73Z"/>
  </g>
  <g>
    <path class="cls-2" d="M333.02,73.36c0-.46.37-.84.74-1.21.65-.65,1.3-1.3,1.3-2.88V14.49c0-1.4-.65-2.05-1.3-2.7-.56-.56-.93-.93-.93-1.49,0-.74.47-1.12,1.12-1.12h6.23c1.86,0,3.07,1.3,3.07,3.25v23.9c3.91-6.32,10.42-10.42,17.58-10.42,8.83,0,14.97,5.49,14.97,14.42v28.92c0,1.58.65,2.23,1.3,2.88.37.37.74.74.74,1.21,0,.65-.37.93-1.02.93h-10.23c-.65,0-1.02-.28-1.02-.93,0-.46.37-.84.74-1.21.65-.65,1.3-1.3,1.3-2.88v-29.85c0-5.95-4.09-9.86-10.14-9.86s-11.16,3.44-14.23,8.83v30.88c0,1.58.65,2.23,1.3,2.88.37.37.74.74.74,1.21,0,.65-.37.93-1.02.93h-10.23c-.65,0-1.02-.28-1.02-.93Z"/>
    <path class="cls-2" d="M384.73,50.57c0-14.88,9.3-24.65,23.44-24.65s23.34,9.77,23.34,24.65-9.3,24.65-23.34,24.65-23.44-9.77-23.44-24.65ZM423.32,53.36c0-15.25-7.07-26.32-16.83-26.32-7.81,0-13.58,8.83-13.58,20.93,0,15.16,7.16,26.13,16.93,26.13,7.81,0,13.49-8.74,13.49-20.74Z"/>
    <path class="cls-2" d="M439.41,73.36c0-.46.37-.84.74-1.21.65-.65,1.3-1.3,1.3-2.88v-37.11c0-1.4-.65-2.05-1.3-2.7-.56-.56-.93-.93-.93-1.49,0-.74.47-1.12,1.12-1.12h6.23c1.86,0,3.07,1.3,3.07,3.25v5.49c3.63-5.95,9.58-9.67,16.09-9.67,7.07,0,12.37,3.81,13.76,10.04,3.63-6.14,9.86-10.04,16.55-10.04,8.37,0,14.23,5.3,14.23,13.86v29.48c0,1.58.65,2.23,1.3,2.88.37.37.74.74.74,1.21,0,.65-.37.93-1.02.93h-10.23c-.65,0-1.02-.28-1.02-.93,0-.46.37-.84.74-1.21.65-.65,1.3-1.3,1.3-2.88v-30.41c0-5.67-3.81-9.3-9.3-9.3s-10.14,3.16-12.93,8.09c.09.74.09,1.4.09,2.14v29.48c0,1.58.65,2.23,1.3,2.88.37.37.74.74.74,1.21,0,.65-.37.93-1.02.93h-10.23c-.65,0-1.02-.28-1.02-.93,0-.46.37-.84.74-1.21.65-.65,1.3-1.3,1.3-2.88v-30.41c0-5.67-3.72-9.3-9.3-9.3-5.21,0-10.04,3.16-12.83,8.18v31.53c0,1.58.65,2.23,1.3,2.88.37.37.74.74.74,1.21,0,.65-.37.93-1.02.93h-10.23c-.65,0-1.02-.28-1.02-.93Z"/>
    <path class="cls-2" d="M519.2,50.57c0-14.51,9.39-24.65,23.81-24.65,10.6,0,17.67,5.39,17.67,13.3,0,9.77-10.7,13.67-32.83,13.86,1.67,9.77,7.81,17.48,17.76,17.48,8.83,0,13.11-5.58,14.42-7.44.37-.56.65-.84.93-.84s.46.19.46,1.02c0,4.09-5.86,11.9-18.69,11.9-13.86,0-23.53-9.49-23.53-24.65ZM527.67,51.97c18.41-.28,24.92-4.56,24.92-13.02,0-7.16-4-12-10.23-12-8.83,0-14.97,8.93-14.97,20.37,0,1.58.09,3.16.28,4.65Z"/>
  </g>
</svg>