<svg xmlns="http://www.w3.org/2000/svg" xmlns:xlink="http://www.w3.org/1999/xlink" width="120" height="28" viewBox="0 0 120 28">
    <defs>
        <path id="wmrvl4dfka" d="M0 0L5.007 0 5.007 5.034 0 5.034z"/>
    </defs>
    <g fill="none" fill-rule="evenodd">
        <g>
            <g>
                <g>
                    <path fill="#FEFEFE" d="M0 0L0 4.84 7.376 4.84 7.376 26 14.099 26 14.099 4.84 22 4.84 22 0z" transform="translate(-60 -74) translate(0 -1) translate(60 75)"/>
                    <g>
                        <path fill="#FEFEFE" d="M10.321 4.125c-3.025 0-3.49 2.2-3.59 4.701h7.154c-.076-2.501-.542-4.701-3.564-4.701zm-3.558 8.39c0 3.39 3.169 4.318 5.946 4.318 2.917 0 5.94-.591 5.94-.591v3.949s-3.202.707-7.006.707C4.983 20.898 0 18.29 0 10.464 0 4.168 3.628.256 10.36.256c7.401 0 9.965 3.685 9.965 11.18v1.079H6.763zM52.66 20.898c-2.99 0-7.37-.743-7.37-.743v-4.064s3.418.82 6.695.82c1.992 0 3.809-.413 3.809-2.018 0-1.522-1.817-1.374-3.955-1.786-3.094-.552-6.72-1.86-6.72-6.186 0-4.728 4.123-6.444 9.356-6.444 3.094 0 6.335.666 6.335.666V4.91s-3.914-.562-5.233-.562h-.142c-1.312 0-4.09 0-4.09 1.827 0 1.64 2.278 1.495 4.735 1.936 2.525.452 5.838 1.462 5.838 5.632 0 4.992-3.918 7.154-9.258 7.154M76.786 12.068c-.567-.039-2.349-.039-2.807-.039-1.786 0-3.564.146-3.564 2.57 0 2.459 1.778 2.61 3.564 2.61.885 0 1.957-.075 2.807-.223v-4.918zm-2.667 8.905h-.603c-3.958 0-9.721-.035-9.721-6.52 0-5.78 5.624-6.154 10.605-6.154h2.278c-.038-2.494-.28-3.798-4.516-3.798-3.104 0-6.551.631-6.551.631v-3.95s3.883-.705 8.256-.705c4.382 0 9.396.486 9.396 6.56v13.304s-5.695.632-9.144.632zM37.657.554C36.02.161 34.208.161 32.672.161h-.602c-3.454 0-9.15.631-9.15.631v13.3l.027-.193v6.472h6.66V4.152c1.287-.18 2.097-.25 3.554-.234 2.495.03 2.63 3.487 2.63 4.496v11.957h6.661V6.626c0-3.954-2.437-5.704-4.795-6.072M86.588 2.03v18.39h6.341V4.53c.818-.342 3.51-.575 5.507-.384V0c-5.21-.004-9.634 1.04-11.848 2.03" transform="translate(-60 -74) translate(0 -1) translate(60 75) translate(18 6)"/>
                        <g transform="translate(-60 -74) translate(0 -1) translate(60 75) translate(18 6) translate(96.993 16.966)">
                            <mask id="1irlwsl32b" fill="#fff">
                                <use xlink:href="#wmrvl4dfka"/>
                            </mask>
                            <path fill="#FEFEFE" d="M3.097 1.899c0-.07-.012-.134-.038-.19-.031-.049-.073-.099-.134-.13-.065-.035-.126-.056-.194-.066-.07-.009-.152-.015-.256-.015h-.429v.897h.364c.12 0 .225-.007.311-.023.085-.021.16-.054.212-.097.063-.048.102-.1.13-.158.025-.06.034-.13.034-.218zm1.02 1.9h-.648l-.956-1.036h-.467v1.036H1.57V1.137h.901c.182 0 .33.005.449.02.115.014.232.054.345.114.122.067.21.147.271.242.052.091.082.208.082.35 0 .192-.053.346-.164.473-.106.124-.253.223-.445.297L4.117 3.8zm.556-1.279c0-.603-.214-1.12-.636-1.553-.422-.429-.93-.644-1.532-.644-.598 0-1.11.215-1.53.644-.428.432-.638.95-.638 1.553 0 .597.21 1.115.637 1.546.422.429.933.644 1.53.644.603 0 1.111-.215 1.533-.644.422-.43.636-.949.636-1.546zm.335 0c0 .693-.245 1.283-.732 1.775-.492.492-1.085.74-1.771.74-.69 0-1.281-.248-1.77-.74C.248 3.803 0 3.213 0 2.52 0 1.823.248 1.231.735.74 1.224.246 1.815 0 2.505 0c.686 0 1.28.247 1.77.74.488.491.733 1.083.733 1.78z" mask="url(#1irlwsl32b)"/>
                        </g>
                    </g>
                </g>
            </g>
        </g>
    </g>
</svg>
