<svg xmlns="http://www.w3.org/2000/svg" width="229.511" height="85" viewBox="0 0 229.511 85">
  <g transform="translate(-217.812 -390.702)">
    <path d="M289.422,433.282h3.685v4.257a7.424,7.424,0,0,1,6.888-4.608c3.465,0,5.7,1.712,6.492,4.564a7.856,7.856,0,0,1,7.2-4.564c4.3,0,6.8,2.5,6.8,7.285v15.711H316.8V440.962c0-2.9-1.228-4.608-3.948-4.608-3.421,0-6.054,3.2-6.054,9.26v10.312h-3.685V440.962c0-2.9-1.316-4.608-3.992-4.608-3.246,0-6.01,3.291-6.01,9.26v10.312h-3.685Z" transform="translate(29.114 17.073)" fill="#00448f"/>
    <path d="M324.877,452.97c4.624,0,7.4-3.655,7.4-8.282s-2.774-8.282-7.4-8.282-7.4,3.655-7.4,8.282,2.774,8.282,7.4,8.282m0-20c7.045,0,11.185,5.374,11.185,11.717s-4.139,11.717-11.185,11.717c-7,0-11.185-5.374-11.185-11.717s4.183-11.717,11.185-11.717" transform="translate(39.02 17.09)" fill="#00448f"/>
    <path d="M349.008,447.03c0-4.934-2.862-8.282-6.78-8.282s-6.782,3.348-6.782,8.282,2.863,8.28,6.782,8.28,6.78-3.348,6.78-8.28m-13.3,8.1v3.26h-3.7V427.207h3.7v11.847a8.4,8.4,0,0,1,7.133-3.741c6.341,0,9.907,5.109,9.907,11.717,0,6.565-3.743,11.717-9.951,11.717a8.192,8.192,0,0,1-7.089-3.613" transform="translate(46.484 14.691)" fill="#00448f"/>
    <path d="M353.481,458.434h-3.7V435.7h3.7Zm-1.849-31.321a2.71,2.71,0,1,1-2.686,2.735,2.655,2.655,0,0,1,2.686-2.735" transform="translate(53.219 14.652)" fill="#00448f"/>
    <rect width="3.699" height="31.186" transform="translate(411.81 441.899)" fill="#00448f"/>
    <path d="M378.649,442.269a6.634,6.634,0,0,0-6.782-6.033c-3.478,0-6.031,2.509-6.78,6.033Zm3.787,3.172H364.867c.263,4.581,2.994,7.576,7.133,7.576a7.517,7.517,0,0,0,6.912-4.01L382,450.685a10.852,10.852,0,0,1-10.083,5.68c-6.914,0-10.833-5.42-10.833-11.717s4.229-11.717,10.788-11.717c6.473,0,10.569,4.976,10.569,10.924Z" transform="translate(58.269 17.073)" fill="#00448f"/>
    <path d="M295.218,414.645h16.659a.1.1,0,0,1,.045.01l0,0,.011.009a.1.1,0,0,1-.014.142.144.144,0,0,1-.041.028l-.031.014a20.426,20.426,0,0,0-4.526,3.573c-1.939,1.841-3.39,3-6.49,3H284.953c-.047,0-.069-.044-.074-.089a.107.107,0,0,1,.034-.076.39.39,0,0,1,.051-.035,26.415,26.415,0,0,0,4.346-3.675,8.056,8.056,0,0,1,5.908-2.906" transform="translate(27.28 9.748)" fill="#00448f"/>
    <path d="M380.178,392.287a29.082,29.082,0,0,1,7.343.875v6.085a9.855,9.855,0,0,0-7.309-3.253c-5.56,0-9.266,3.883-9.266,9.059s3.706,9.06,9.266,9.06a9.85,9.85,0,0,0,7.309-3.253v6.087a29.011,29.011,0,0,1-7.343.909c-9.616,0-16.574-4.792-16.574-12.8s6.959-12.766,16.574-12.766m-27.309,9.934c4.789.664,8.777,2.344,8.777,7.557,0,6.121-5.8,8.079-12.064,8.045-4.372-.037-8.078-.456-10.805-1.539v-5.492a20.178,20.178,0,0,0,10.805,3.322c3.042,0,5.839-.734,5.839-3.043s-2.587-2.868-7.9-3.672c-4.58-.7-8.742-2.66-8.776-7.171-.037-6.085,5.734-7.94,11.258-7.94a32.634,32.634,0,0,1,10.21,1.47v5.911a16.218,16.218,0,0,0-10.489-3.673c-2.624,0-5.107.84-5.107,2.8,0,2.447,3.672,2.8,8.253,3.427M326.5,413.59c2.834,0,7.554-.666,9.407-2.31V417.3H315.805c.979-1.154,1.154-1.923,1.154-4.268V397.081c0-2.345-.176-3.114-1.154-4.268h19.057v6.016c-1.854-1.643-6.574-2.308-9.406-2.308h-2.239v6.506h1.644a19.044,19.044,0,0,0,5.735-.664v4.828a19.046,19.046,0,0,0-5.735-.666h-1.644v7.067Zm-40.84-20.778h27.588v6.016c-1.957-1.643-6.118-2.308-10.559-2.308v16.4c0,2.45.21,3.113,1.153,4.373H295.07c.945-1.26,1.154-1.923,1.154-4.373v-16.4c-4.441,0-8.6.666-10.56,2.308Z" transform="translate(26.886 0.659)" fill="#da0a25"/>
    <path d="M374.4,414.114c-5,0-8.252-4.128-8.252-9.059,0-4.968,3.251-9.06,8.252-9.06s8.252,4.093,8.252,9.06c0,4.931-3.253,9.059-8.252,9.059m0-21.827c-9.93,0-15.594,5.771-15.594,12.768,0,6.96,5.665,12.766,15.594,12.766S390,412.015,390,405.055c0-7-5.665-12.768-15.595-12.768" transform="translate(57.324 0.659)" fill="#da0a25"/>
    <path d="M371.894,414.645h16.659a.1.1,0,0,1,.045.01l0,0,.011.009a.1.1,0,0,1-.014.142.122.122,0,0,1-.04.028l-.031.014A20.427,20.427,0,0,0,384,418.423c-1.939,1.841-3.392,3-6.49,3H361.628c-.047,0-.071-.044-.072-.089a.1.1,0,0,1,.033-.076.394.394,0,0,1,.051-.035,26.415,26.415,0,0,0,4.346-3.675,8.053,8.053,0,0,1,5.908-2.906" transform="translate(58.467 9.748)" fill="#00448f"/>
    <path d="M352.725,414.645h16.659a.1.1,0,0,1,.045.01l0,0,.011.009a.1.1,0,0,1-.016.142.122.122,0,0,1-.04.028l-.031.014a20.426,20.426,0,0,0-4.526,3.573c-1.939,1.841-3.392,3-6.49,3H342.458c-.045,0-.069-.044-.071-.089a.1.1,0,0,1,.033-.076.391.391,0,0,1,.051-.035,26.417,26.417,0,0,0,4.346-3.675,8.053,8.053,0,0,1,5.908-2.906" transform="translate(50.49 9.748)" fill="#00448f"/>
    <path d="M333.556,414.645h16.659a.1.1,0,0,1,.045.01l0,0,.011.009a.1.1,0,0,1-.014.142.144.144,0,0,1-.041.028l-.03.014a20.411,20.411,0,0,0-4.527,3.573c-1.937,1.841-3.39,3-6.49,3H323.291c-.047,0-.071-.044-.074-.089a.1.1,0,0,1,.035-.076.3.3,0,0,1,.05-.035,26.447,26.447,0,0,0,4.348-3.675,8.05,8.05,0,0,1,5.907-2.906" transform="translate(42.874 9.748)" fill="#00448f"/>
    <path d="M314.387,414.645h16.659a.1.1,0,0,1,.045.01l0,0,.011.009a.1.1,0,0,1-.016.142.122.122,0,0,1-.04.028l-.03.014a20.411,20.411,0,0,0-4.527,3.573c-1.939,1.841-3.39,3-6.49,3H304.122c-.047,0-.071-.044-.074-.089a.1.1,0,0,1,.035-.076.3.3,0,0,1,.05-.035,26.449,26.449,0,0,0,4.348-3.675,8.05,8.05,0,0,1,5.907-2.906" transform="translate(35.077 9.748)" fill="#00448f"/>
    <path d="M263.445,430.336c-10.746-10.683-15.188-23.587-9.921-28.822s18.246-.819,28.991,9.863,15.188,23.587,9.921,28.823-18.246.818-28.991-9.865m2.616,21.533c-3.284,3.265-11.382.511-18.086-6.154s-9.474-14.715-6.19-17.98,11.383-.511,18.087,6.152,9.474,14.715,6.189,17.981m-17.845,8.213c-1.988,1.977-6.889.31-10.947-3.724s-5.734-8.906-3.746-10.883,6.888-.308,10.945,3.725,5.735,8.9,3.747,10.881m42.575-56.932a42.928,42.928,0,0,0-60.458,0,42.325,42.325,0,0,0,0,60.1,42.928,42.928,0,0,0,60.458,0,42.325,42.325,0,0,0,0-60.1" transform="translate(0 0)" fill="#00448f"/>
  </g>
</svg>
