<svg viewBox="0 0 368.5 49.57" xmlns="http://www.w3.org/2000/svg" id="Layer_1">
  <defs>
    <style>
      .cls-1 {
        fill: #004236;
      }
    </style>
  </defs>
  <path d="M359.5,24.13h-6.96v-8.73h6.96c2.72,0,4.34,1.62,4.34,4.34s-1.54,4.38-4.34,4.38M359.57,11.04h-11.55v27.48h4.51v-10.04h6.77c5.68,0,9.2-3.35,9.2-8.74s-3.42-8.7-8.93-8.7M330.85,15.17c4.3,0,7.19,3.88,7.19,9.65s-2.76,9.58-7.04,9.58-7.15-3.88-7.15-9.65,2.75-9.58,7-9.58M330.96,10.62c-7.04,0-11.78,5.71-11.78,14.2s4.7,14.12,11.7,14.12,11.82-5.71,11.82-14.2-4.72-14.12-11.74-14.12M309.27,21.93h-11.84v-10.89h-4.59v27.48h4.59v-12h11.84v12h4.59V11.04h-4.59v10.89ZM278.82,22.14c-4.9-1.46-5.69-2.35-5.69-3.93,0-1.93,1.58-3.07,4.23-3.07s4.39.77,6.08,2.5l.2.2,3.24-3.28-.2-.19c-2.63-2.55-5.49-3.73-9-3.73-5.39,0-9.16,3.2-9.16,7.78,0,5.25,3.26,6.59,8.62,8.19,4.51,1.35,5.88,2.33,5.88,4.2,0,.9,0,3.65-5.31,3.65-2.43,0-5.04-1.19-6.8-3.1l-.19-.21-3.27,3.18.17.19c2.45,2.87,5.93,4.44,9.79,4.44,8.91,0,10.24-5.28,10.24-8.43,0-5.27-3.99-6.91-8.81-8.38M247.42,18.65c-.83,1.5-1.94,3.61-2.53,4.81-.6-1.22-1.72-3.4-2.53-4.85l-4.27-7.56h-5.37l9.86,16.62v10.86h4.59v-10.86l9.86-16.62h-5.29l-4.31,7.6ZM215.42,15.52h3.04c7.21,0,8.73,5.04,8.73,9.27s-1.51,9.27-8.73,9.27h-3.04V15.52ZM218.45,11.04h-7.62v27.48h7.62c3.14,0,13.39-.99,13.39-13.74,0-8.6-5.01-13.74-13.39-13.74M193.65,15.17c4.3,0,7.19,3.88,7.19,9.65s-2.76,9.58-7.04,9.58-7.15-3.88-7.15-9.65,2.75-9.58,7-9.58M193.77,10.62c-7.04,0-11.78,5.71-11.78,14.2s4.7,14.12,11.7,14.12,11.82-5.71,11.82-14.2-4.72-14.12-11.74-14.12M168.8,21.7h-6.96v-6.42h6.96c2.86,0,3.46,1.78,3.46,3.27,0,.74-.25,3.15-3.46,3.15M168.76,34.28h-6.92v-8.38h7.04c2.86,0,4.5,1.53,4.5,4.19,0,2.82-1.51,4.19-4.61,4.19M173.83,23.65c1.97-1.17,3.01-3,3.01-5.33,0-4.56-2.99-7.28-8.01-7.28h-11.35v27.48h10.97c6.13,0,9.51-3.04,9.51-8.55,0-3.51-2.1-5.54-4.13-6.33M126.1,26.1h7.73v-4.47h-7.73v-6.11h13.31v-4.47h-17.9v27.48h18.47v-4.47h-13.89v-7.96ZM110.33,21.93h-11.84v-10.89h-4.59v27.48h4.59v-12h11.84v12h4.59V11.04h-4.59v10.89ZM69.23,15.55h7.85v22.97h4.59V15.55h7.85v-4.51h-20.28v4.51Z" class="cls-1"></path>
  <g>
    <g>
      <path d="M35.55.04c-1.3.23-2.29,1.38-2.29,2.74,0,1.26.59,2.13,1.99,2.67,11.18,4.17,17.87,15.67,14.02,26.43-3.41,9.51-12.5,16.33-23.21,16.34-10.71,0-19.8-6.83-23.21-16.34C-1,21.12,5.68,9.62,16.87,5.45c1.41-.54,1.99-1.42,1.99-2.7,0-1.37-.99-2.49-2.29-2.72C12.77-.64-.11,8.31,0,23.66c.1,14.53,11.84,25.91,26.06,25.91,14.22,0,25.91-11.38,26.02-25.91C52.19,8.31,39.35-.64,35.55.04Z" class="cls-1"></path>
      <g>
        <path d="M48.6,29.85c-2.28-3.35-5.61-6.43-10.13-8.53-1.01-.47-1.46-1.09-1.46-2.1,0-1.19.93-2.25,2.29-2.24,2.51,0,7.87,6.62,9.31,12.88Z" class="cls-1"></path>
        <path d="M37.59,8.49c-1.39-.04-2.52,1.12-2.52,2.51,0,1.05.42,1.81,1.56,2.32,6.45,2.9,10.33,8.09,12.38,14,1.25-10.33-8.07-18.74-11.42-18.83Z" class="cls-1"></path>
      </g>
    </g>
    <path d="M3.52,29.85c2.28-3.35,5.61-6.43,10.13-8.53,1.01-.47,1.46-1.09,1.46-2.1,0-1.19-.93-2.25-2.29-2.24-2.51,0-7.87,6.62-9.31,12.88Z" class="cls-1"></path>
    <path d="M14.53,8.49c1.39-.04,2.52,1.12,2.52,2.51,0,1.05-.42,1.81-1.56,2.32-6.45,2.9-10.33,8.09-12.38,14C1.86,16.99,11.18,8.58,14.53,8.49Z" class="cls-1"></path>
  </g>
</svg>