<?xml version="1.0" encoding="UTF-8" standalone="no"?>
<svg
   xmlns:dc="http://purl.org/dc/elements/1.1/"
   xmlns:cc="http://creativecommons.org/ns#"
   xmlns:rdf="http://www.w3.org/1999/02/22-rdf-syntax-ns#"
   xmlns:svg="http://www.w3.org/2000/svg"
   xmlns="http://www.w3.org/2000/svg"
   xmlns:sodipodi="http://sodipodi.sourceforge.net/DTD/sodipodi-0.dtd"
   xmlns:inkscape="http://www.inkscape.org/namespaces/inkscape"
   inkscape:version="1.0 (4035a4fb49, 2020-05-01)"
   sodipodi:docname="logo-dk.svg"
   version="1.1"
   id="svg2"
   xml:space="preserve"
   width="1429.28"
   height="249.952"
   viewBox="0 0 1429.28 249.952"><sodipodi:namedview
     inkscape:current-layer="svg2"
     inkscape:window-maximized="1"
     inkscape:window-y="-9"
     inkscape:window-x="-9"
     inkscape:cy="124.976"
     inkscape:cx="714.64001"
     inkscape:zoom="1.8918616"
     showgrid="false"
     id="namedview1608"
     inkscape:window-height="1721"
     inkscape:window-width="3200"
     inkscape:pageshadow="2"
     inkscape:pageopacity="0"
     guidetolerance="10"
     gridtolerance="10"
     objecttolerance="10"
     borderopacity="1"
     bordercolor="#666666"
     pagecolor="#bfbfbf" /><metadata
     id="metadata8"><rdf:RDF><cc:Work
         rdf:about=""><dc:format>image/svg+xml</dc:format><dc:type
           rdf:resource="http://purl.org/dc/dcmitype/StillImage" /><dc:title></dc:title></cc:Work></rdf:RDF></metadata><defs
     id="defs6"><clipPath
       clipPathUnits="userSpaceOnUse"
       id="clipPath18"><path
         d="M 0,187.464 H 1071.96 V 0 H 0 Z"
         id="path16" /></clipPath></defs><g
     id="g10"
     transform="matrix(1.3333333,0,0,-1.3333333,0,249.952)"><g
       id="g12"><g
         id="g14"
         clip-path="url(#clipPath18)"><g
           id="g20"
           transform="translate(94.0055,149.0625)"><path
             d="M 0,0 C 1.522,0 2.767,-1.107 2.767,-2.767 V -21.583 C 2.767,-23.105 1.522,-24.35 0,-24.35 h -29.054 v -83.427 c 0,-1.798 -1.107,-2.905 -2.629,-2.905 h -14.665 c -4.565,0 -7.194,3.183 -7.194,7.471 v 78.861 h -29.054 c -1.522,0 -2.906,1.107 -2.906,2.767 v 18.677 c 0,1.661 1.246,2.906 2.906,2.906 z"
             style="fill:#ef6c00;fill-opacity:1;fill-rule:nonzero;stroke:none"
             id="path22" /></g><g
           id="g24"
           transform="translate(199.7002,149.0625)"><path
             d="m 0,0 c 1.522,0 2.767,-1.245 2.767,-2.767 v -105.01 c 0,-1.798 -1.107,-2.905 -2.629,-2.905 h -14.665 c -4.566,0 -7.195,3.183 -7.195,7.471 v 34.588 H -67.24 v -39.154 c 0,-1.521 -1.245,-2.905 -2.766,-2.905 h -18.678 c -1.66,0 -2.905,1.245 -2.905,2.905 v 105.01 c 0,1.522 1.107,2.767 2.767,2.767 h 18.677 c 1.522,0 2.905,-1.245 2.905,-2.767 v -41.921 h 45.518 v 41.921 c 0,1.522 1.107,2.767 2.768,2.767 z"
             style="fill:#ef6c00;fill-opacity:1;fill-rule:nonzero;stroke:none"
             id="path26" /></g><g
           id="g28"
           transform="translate(238.0176,104.3746)"><path
             d="m 0,0 h 23.52 c 1.521,0 2.905,-1.245 2.905,-2.767 v -18.262 c 0,-1.661 -1.245,-2.906 -2.905,-2.906 H 0.138 v -17.986 h 45.241 c 1.522,0 2.906,-1.245 2.906,-2.766 v -18.402 c 0,-1.66 -1.245,-2.905 -2.906,-2.905 h -66.685 c -1.661,0 -2.906,1.245 -2.906,2.905 v 105.01 c 0,1.522 1.107,2.767 2.767,2.767 h 66.824 c 1.522,0 2.906,-1.245 2.906,-2.767 V 23.52 c 0,-1.66 -1.245,-2.767 -2.906,-2.767 H 0 Z"
             style="fill:#ef6c00;fill-opacity:1;fill-rule:nonzero;stroke:none"
             id="path30" /></g><g
           id="g32"
           transform="translate(410.5108,62.454)"><path
             d="m 0,0 c 1.523,0 2.768,-1.107 2.768,-2.767 v -18.401 c 0,-1.522 -1.245,-2.905 -2.768,-2.905 h -65.025 c -1.522,0 -2.491,1.245 -2.491,2.767 V 83.842 c 0,1.521 1.107,2.767 2.768,2.767 h 18.815 c 1.523,0 2.906,-1.246 2.906,-2.767 V 0 Z"
             style="fill:#ef6c00;fill-opacity:1;fill-rule:nonzero;stroke:none"
             id="path34" /></g><g
           id="g36"
           transform="translate(504.6663,93.8601)"><path
             d="m 0,0 c 0,16.879 -14.112,30.437 -30.852,30.437 -17.018,0 -31.13,-13.558 -31.13,-30.437 0,-16.879 14.112,-30.714 31.13,-30.714 C -14.112,-30.714 0,-16.879 0,0 m -87.715,0 c 0,31.129 25.318,56.171 56.725,56.171 31.405,0 56.585,-25.042 56.585,-56.171 0,-31.406 -25.18,-56.448 -56.585,-56.448 -31.407,0 -56.725,25.042 -56.725,56.448"
             style="fill:#ef6c00;fill-opacity:1;fill-rule:nonzero;stroke:none"
             id="path38" /></g><g
           id="g40"
           transform="translate(638.8606,58.7184)"><path
             d="m 0,0 c 1.384,-1.245 1.523,-2.629 0.277,-3.874 -10.238,-11.068 -25.041,-17.432 -40.814,-17.432 -31.405,0 -56.724,24.903 -56.724,56.171 0,31.268 25.319,56.448 56.724,56.448 15.911,0 30.853,-6.503 41.091,-17.571 1.245,-1.245 1.107,-2.629 -0.277,-3.874 L -14.941,57.001 c -1.384,-1.106 -2.629,-0.968 -3.874,0.138 -6.364,5.673 -13.144,8.44 -22.137,8.44 -17.017,0 -30.714,-13.42 -30.714,-30.576 0,-17.432 13.697,-30.575 30.714,-30.575 8.855,0 15.634,2.628 21.998,8.162 1.245,1.107 2.49,1.245 3.875,0.138 z"
             style="fill:#ef6c00;fill-opacity:1;fill-rule:nonzero;stroke:none"
             id="path42" /></g><g
           id="g44"
           transform="translate(700.2798,103.422)"><path
             d="m 0,0 -13.559,-29.331 h 27.117 z m 54.649,-61.843 c 0.829,-1.799 0.138,-3.183 -1.937,-3.183 H 32.097 c -1.521,0 -2.352,0.693 -2.905,1.799 l -5.534,12.037 h -47.317 l -5.533,-12.037 c -0.554,-1.106 -1.523,-1.799 -2.906,-1.799 h -20.753 c -1.799,0 -2.767,1.384 -1.937,3.183 l 52.02,106.807 c 0.554,0.969 1.245,1.384 2.076,1.384 h 1.245 c 0.969,0 1.66,-0.415 2.214,-1.384 z"
             style="fill:#ef6c00;fill-opacity:1;fill-rule:nonzero;stroke:none"
             id="path46" /></g><g
           id="g48"
           transform="translate(834.125,62.454)"><path
             d="m 0,0 c 1.523,0 2.768,-1.107 2.768,-2.767 v -18.401 c 0,-1.522 -1.245,-2.905 -2.768,-2.905 h -65.025 c -1.522,0 -2.491,1.245 -2.491,2.767 V 83.842 c 0,1.521 1.107,2.767 2.767,2.767 h 18.816 c 1.522,0 2.905,-1.246 2.905,-2.767 V 0 Z"
             style="fill:#ef6c00;fill-opacity:1;fill-rule:nonzero;stroke:none"
             id="path50" /></g><g
           id="g52"
           transform="translate(1063.448,107.903)"><path
             transform="matrix(0.75000002,0,0,-0.75000002,-1063.448,79.561005)"
             d="m 1321.0293,11.337891 c -14.4806,-0.0083 -29.1899,4.294338 -43.4121,13.044921 -29.872,18.38 -54.3663,42.758788 -72.709,72.689454 -19.264,31.435994 -17.7386,65.141244 3.8574,92.503904 7.7854,9.864 16.6074,19.17889 26.166,27.32422 31.376,26.73867 66.9132,28.78814 101.5079,6.10547 25.7306,-16.87067 47.0894,-38.46371 64.5507,-63.73438 10.6387,-15.396 17.1022,-32.45478 16.9395,-53.18945 0.1667,-9.629332 -2.4121,-20.267864 -7.3281,-30.39453 -8.4867,-17.478666 -21.919,-30.872422 -36.375,-43.232422 -16.3395,-13.9695 -34.5794,-21.106503 -53.1973,-21.117187 z m -46.8379,51.105468 h 12.8379 c 4.2787,0 7.1777,2.76162 7.1777,6.626953 V 170.11133 c 0,1.51733 -1.243,2.76172 -2.7617,2.76172 h -15.0449 c -1.5187,0 -2.7617,-1.24439 -2.7617,-2.76172 v -0.55078 c -4.9694,2.89733 -10.7659,4.69263 -17.1153,4.27929 -8.42,-0.41466 -17.6675,-4.96927 -23.6035,-12.97461 -6.0733,-8.00666 -8.0063,-14.91082 -6.7637,-28.29882 1.38,-14.356 15.0466,-26.64123 31.0586,-26.22657 6.9014,0.13734 12.1452,1.51856 16.4239,3.58789 V 74.869141 c -0.1387,-3.865334 -0.6883,-6.213271 -1.2403,-8.835938 -0.4146,-1.794666 0.2743,-3.589844 1.793,-3.589844 z m 28.5586,0.002 h 12.8359 c 4.2787,0 6.9018,2.759667 7.1778,6.625 v 64.599611 l 23.4648,-24.98437 c 0.9667,-0.96534 1.9345,-1.37891 3.1758,-1.37891 h 14.4941 c 2.76,0 4.5557,4.0016 2.3477,6.21094 l -20.5684,21.25586 26.3653,31.88672 c 2.208,2.76133 1.2417,6.07422 -2.209,6.07422 h -14.6309 c -1.5186,0 -2.3491,-0.4142 -3.3144,-1.51954 l -29.125,-35.05859 v 33.95508 c 0,1.51866 -1.2425,2.76172 -2.7598,2.76172 h -15.0469 c -1.5186,0 -2.7597,-1.24306 -2.7597,-2.76172 V 74.867188 c -0.1387,-3.864 -0.6902,-6.209365 -1.2422,-8.832032 -0.4147,-1.794666 0.2762,-3.589844 1.7949,-3.589844 z m -41.4648,61.269531 c -2.105,-0.0862 -3.9339,0.29371 -5.5899,0.84571 -4.28,1.24266 -10.4922,5.79754 -10.2148,15.04687 0.552,9.38533 7.453,15.45838 15.873,15.73438 5.384,0.13866 9.2492,-1.51784 12.2852,-3.3125 v -23.32813 c -1.5187,-1.10533 -3.1735,-2.07044 -5.1055,-3.03711 -2.7613,-1.31133 -5.143,-1.86305 -7.248,-1.94922 z"
             style="fill:#ef6c00;fill-opacity:1;fill-rule:nonzero;stroke:none;stroke-width:1.33333"
             id="path54" /></g><g
           id="g56"
           transform="translate(955.2297,73.4418)" /><g
           id="g60"
           transform="translate(1029.0319,62.4683)" /></g></g></g></svg>
