<?xml version="1.0" encoding="UTF-8" standalone="no"?>
<svg
   xmlns:dc="http://purl.org/dc/elements/1.1/"
   xmlns:cc="http://creativecommons.org/ns#"
   xmlns:rdf="http://www.w3.org/1999/02/22-rdf-syntax-ns#"
   xmlns:svg="http://www.w3.org/2000/svg"
   xmlns="http://www.w3.org/2000/svg"
   xmlns:sodipodi="http://sodipodi.sourceforge.net/DTD/sodipodi-0.dtd"
   xmlns:inkscape="http://www.inkscape.org/namespaces/inkscape"
   inkscape:version="1.0 (4035a4fb49, 2020-05-01)"
   sodipodi:docname="logo-no.svg"
   version="1.1"
   id="svg2"
   xml:space="preserve"
   width="1451.96"
   height="272.62933"
   viewBox="0 0 1451.96 272.62933"><sodipodi:namedview
     inkscape:current-layer="svg2"
     inkscape:window-maximized="1"
     inkscape:window-y="-9"
     inkscape:window-x="-9"
     inkscape:cy="136.31467"
     inkscape:cx="725.97998"
     inkscape:zoom="1.8623103"
     showgrid="false"
     id="namedview1900"
     inkscape:window-height="1721"
     inkscape:window-width="3200"
     inkscape:pageshadow="2"
     inkscape:pageopacity="0"
     guidetolerance="10"
     gridtolerance="10"
     objecttolerance="10"
     borderopacity="1"
     bordercolor="#666666"
     pagecolor="#cccccc" /><metadata
     id="metadata8"><rdf:RDF><cc:Work
         rdf:about=""><dc:format>image/svg+xml</dc:format><dc:type
           rdf:resource="http://purl.org/dc/dcmitype/StillImage" /><dc:title></dc:title></cc:Work></rdf:RDF></metadata><defs
     id="defs6"><clipPath
       clipPathUnits="userSpaceOnUse"
       id="clipPath18"><path
         d="M 0,204.472 H 1088.965 V 0 H 0 Z"
         id="path16" /></clipPath></defs><g
     id="g10"
     transform="matrix(1.3333333,0,0,-1.3333333,0,272.62933)"><g
       id="g12"><g
         id="g14"
         clip-path="url(#clipPath18)"><g
           id="g20"
           transform="translate(102.5094,157.5664)"><path
             d="M 0,0 C 1.522,0 2.767,-1.107 2.767,-2.767 V -21.583 C 2.767,-23.105 1.522,-24.35 0,-24.35 h -29.054 v -83.427 c 0,-1.798 -1.107,-2.905 -2.629,-2.905 h -14.665 c -4.565,0 -7.194,3.183 -7.194,7.471 v 78.861 h -29.054 c -1.522,0 -2.906,1.107 -2.906,2.767 v 18.677 c 0,1.661 1.246,2.906 2.906,2.906 z"
             style="fill:#ef6c00;fill-opacity:1;fill-rule:nonzero;stroke:none"
             id="path22" /></g><g
           id="g24"
           transform="translate(208.2041,157.5664)"><path
             d="m 0,0 c 1.522,0 2.767,-1.245 2.767,-2.767 v -105.01 c 0,-1.798 -1.107,-2.905 -2.629,-2.905 h -14.665 c -4.566,0 -7.195,3.183 -7.195,7.471 v 34.588 H -67.24 v -39.154 c 0,-1.521 -1.245,-2.905 -2.766,-2.905 h -18.678 c -1.66,0 -2.905,1.245 -2.905,2.905 v 105.01 c 0,1.522 1.107,2.767 2.767,2.767 h 18.677 c 1.522,0 2.905,-1.245 2.905,-2.767 v -41.921 h 45.518 v 41.921 c 0,1.522 1.107,2.767 2.768,2.767 z"
             style="fill:#ef6c00;fill-opacity:1;fill-rule:nonzero;stroke:none"
             id="path26" /></g><g
           id="g28"
           transform="translate(246.5215,112.8785)"><path
             d="m 0,0 h 23.52 c 1.521,0 2.905,-1.245 2.905,-2.767 v -18.262 c 0,-1.661 -1.245,-2.906 -2.905,-2.906 H 0.138 v -17.986 h 45.241 c 1.522,0 2.906,-1.245 2.906,-2.766 v -18.402 c 0,-1.66 -1.245,-2.905 -2.906,-2.905 h -66.685 c -1.661,0 -2.906,1.245 -2.906,2.905 v 105.01 c 0,1.522 1.107,2.767 2.767,2.767 h 66.824 c 1.522,0 2.906,-1.245 2.906,-2.767 V 23.52 c 0,-1.66 -1.245,-2.767 -2.906,-2.767 H 0 Z"
             style="fill:#ef6c00;fill-opacity:1;fill-rule:nonzero;stroke:none"
             id="path30" /></g><g
           id="g32"
           transform="translate(419.0147,70.9579)"><path
             d="m 0,0 c 1.523,0 2.768,-1.107 2.768,-2.767 v -18.401 c 0,-1.522 -1.245,-2.905 -2.768,-2.905 h -65.025 c -1.522,0 -2.491,1.245 -2.491,2.767 V 83.842 c 0,1.521 1.107,2.767 2.768,2.767 h 18.815 c 1.523,0 2.906,-1.246 2.906,-2.767 V 0 Z"
             style="fill:#ef6c00;fill-opacity:1;fill-rule:nonzero;stroke:none"
             id="path34" /></g><g
           id="g36"
           transform="translate(513.1702,102.364)"><path
             d="m 0,0 c 0,16.879 -14.112,30.437 -30.852,30.437 -17.018,0 -31.13,-13.558 -31.13,-30.437 0,-16.879 14.112,-30.714 31.13,-30.714 C -14.112,-30.714 0,-16.879 0,0 m -87.715,0 c 0,31.129 25.318,56.171 56.725,56.171 31.405,0 56.585,-25.042 56.585,-56.171 0,-31.406 -25.18,-56.448 -56.585,-56.448 -31.407,0 -56.725,25.042 -56.725,56.448"
             style="fill:#ef6c00;fill-opacity:1;fill-rule:nonzero;stroke:none"
             id="path38" /></g><g
           id="g40"
           transform="translate(647.3645,67.2224)"><path
             d="m 0,0 c 1.384,-1.245 1.523,-2.629 0.277,-3.874 -10.238,-11.068 -25.042,-17.432 -40.814,-17.432 -31.405,0 -56.724,24.903 -56.724,56.171 0,31.268 25.319,56.448 56.724,56.448 15.911,0 30.853,-6.503 41.091,-17.571 1.245,-1.245 1.107,-2.629 -0.277,-3.874 L -14.941,57.001 c -1.384,-1.106 -2.629,-0.968 -3.874,0.138 -6.364,5.673 -13.144,8.44 -22.137,8.44 -17.017,0 -30.714,-13.42 -30.714,-30.576 0,-17.432 13.697,-30.575 30.714,-30.575 8.855,0 15.634,2.628 21.998,8.162 1.245,1.107 2.49,1.245 3.874,0.138 z"
             style="fill:#ef6c00;fill-opacity:1;fill-rule:nonzero;stroke:none"
             id="path42" /></g><g
           id="g44"
           transform="translate(708.7838,111.9259)"><path
             d="m 0,0 -13.559,-29.331 h 27.117 z m 54.649,-61.843 c 0.829,-1.799 0.138,-3.183 -1.937,-3.183 H 32.097 c -1.521,0 -2.352,0.693 -2.905,1.799 l -5.534,12.037 h -47.317 l -5.533,-12.037 c -0.554,-1.106 -1.523,-1.799 -2.906,-1.799 h -20.753 c -1.799,0 -2.767,1.384 -1.937,3.183 l 52.02,106.807 c 0.554,0.969 1.245,1.384 2.076,1.384 h 1.245 c 0.969,0 1.66,-0.415 2.214,-1.384 z"
             style="fill:#ef6c00;fill-opacity:1;fill-rule:nonzero;stroke:none"
             id="path46" /></g><g
           id="g48"
           transform="translate(842.6289,70.9579)"><path
             d="m 0,0 c 1.523,0 2.768,-1.107 2.768,-2.767 v -18.401 c 0,-1.522 -1.245,-2.905 -2.768,-2.905 h -65.025 c -1.522,0 -2.491,1.245 -2.491,2.767 V 83.842 c 0,1.521 1.107,2.767 2.767,2.767 h 18.816 c 1.522,0 2.905,-1.246 2.905,-2.767 V 0 Z"
             style="fill:#ef6c00;fill-opacity:1;fill-rule:nonzero;stroke:none"
             id="path50" /></g><g
           id="g52"
           transform="translate(1071.9519,116.4069)"><path
             transform="matrix(0.75000002,0,0,-0.75000002,-1071.9519,88.065103)"
             d="m 1332.3672,22.677734 c -14.4806,-0.0083 -29.1899,4.292386 -43.4121,13.042969 -29.872,18.38 -54.3663,42.758787 -72.709,72.689457 -19.264,31.436 -17.7386,65.14124 3.8574,92.5039 7.7853,9.864 16.6074,19.18084 26.166,27.32617 31.376,26.73867 66.9151,28.78814 101.5098,6.10547 25.732,-16.87066 47.0875,-38.46371 64.5488,-63.73437 10.6387,-15.396 17.1041,-32.45674 16.9414,-53.19141 0.1667,-9.62933 -2.414,-20.269196 -7.33,-30.394529 -8.4867,-17.478667 -21.919,-30.872423 -36.375,-43.232422 -16.3395,-13.9695 -34.5794,-21.10455 -53.1973,-21.115235 z m -42.0703,81.048826 c 13.6754,0.10527 27.1883,10.09043 27.457,26.3086 v 28.08789 c 0.1387,3.87466 0.5541,6.22808 1.1074,8.71875 0.4147,1.79866 -0.2775,3.5957 -1.6601,3.5957 h -12.7305 c -4.5667,0 -7.1953,-3.18136 -7.1953,-7.33203 v -29.88672 c 0,-5.25867 -3.5974,-8.16482 -7.4707,-9.41016 -7.056,-2.21333 -13.2837,0.27844 -18.8184,5.39844 v 38.46289 c 0,1.52267 -1.2449,2.76758 -2.7675,2.76758 h -14.9415 c -1.5226,0 -2.6308,-1.24491 -2.6308,-2.76758 v -60.32617 c 0,-1.52133 1.1082,-2.76758 2.6308,-2.76758 h 11.7598 c 0,2.628 0.6922,5.39665 2.2149,7.33399 5.2573,-3.87467 12.4519,-7.74807 21.7226,-8.16407 0.4411,-0.0173 0.8811,-0.0229 1.3223,-0.0195 z m 68.0722,0.0195 c 18.54,0 33.8985,15.08233 33.8985,33.48633 0,18.81733 -15.3585,34.03711 -33.8985,34.03711 -18.5413,0 -33.7617,-15.21978 -33.7617,-34.03711 0,-18.404 15.2204,-33.48633 33.7617,-33.48633 z m 0,18.40235 c -8.58,0 -15.3574,6.78131 -15.3574,14.94531 0,8.71733 6.7774,15.77344 15.3574,15.77344 8.3014,0 15.3575,-7.05611 15.3575,-15.77344 0,-8.164 -7.0561,-14.94531 -15.3575,-14.94531 z"
             style="fill:#ef6c00;fill-opacity:1;fill-rule:nonzero;stroke:none;stroke-width:1.33333"
             id="path54" /></g><g
           id="g56"
           transform="translate(987.9005,76.6432)" /><g
           id="g60"
           transform="translate(1030.2952,101.6523)" /></g></g></g></svg>
