<?xml version="1.0" encoding="utf-8"?>
<!-- Generator: Adobe Illustrator 26.0.3, SVG Export Plug-In . SVG Version: 6.00 Build 0)  -->
<svg version="1.1" id="Layer_1" xmlns="http://www.w3.org/2000/svg" xmlns:xlink="http://www.w3.org/1999/xlink" x="0px" y="0px"
	 viewBox="0 0 180 35" style="enable-background:new 0 0 180 35;" xml:space="preserve">
<style type="text/css">
	.st0{fill-rule:evenodd;clip-rule:evenodd;fill:none;}
	.st1{fill-rule:evenodd;clip-rule:evenodd;fill:#C8C8CB;}
	.st2{fill-rule:evenodd;clip-rule:evenodd;fill:#31368B;}
	.st3{fill-rule:evenodd;clip-rule:evenodd;fill:#0AA551;}
	.st4{fill-rule:evenodd;clip-rule:evenodd;fill:#09A552;}
	.st5{fill-rule:evenodd;clip-rule:evenodd;fill:#E4262A;}
	.st6{fill-rule:evenodd;clip-rule:evenodd;fill:#05A451;}
	.st7{fill-rule:evenodd;clip-rule:evenodd;fill:#30358B;}
</style>
<g>
	<path class="st0" d="M115.09,16.3c-3.22,8.75,2.82,17.43,11.01,18.14c6.42,0.56,13.9-3.72,14.7-12.16c1.15,1.61,1.9,5.03,1.45,6.69
		c-0.51,0.11-1.05-0.05-1.57,0.1c0,1.65,0,3.27,0,5.01c4.66-0.47,9.27-0.43,13.92-0.02c0-1.74,0-3.37,0-5.06c-0.52,0-1,0-1.56,0
		c0-1.05,0-2.03,0-3.01c0-0.29,0.05-0.55,0.16-0.83c0.73-1.81,1.44-3.62,2.17-5.43c0.44-1.1,0.9-2.19,1.35-3.28
		c0.07,1.92,0.63,3.65,1.77,5.22c-0.55,0.12-1.05-0.05-1.53,0.12c0.17,3.13,0.34,6.25,0.31,9.36c2.39,2.22,5.28,3.11,8.41,3.3
		c2.58,0.16,5.11-0.17,7.49-1.24c2.02-0.91,3.57-2.31,4.48-4.38c0.6-1.37,0.59-2.79,0.59-4.24c-0.01-1.9-0.56-3.58-1.91-4.95
		c-0.06-0.06-0.14-0.13-0.07-0.27c0.32-0.12,0.7,0.07,1.1-0.17c-0.23-3.05-0.52-6.11-0.36-9.12c-0.11-0.1-0.13-0.14-0.17-0.15
		c-2.25-1.02-4.55-1.82-7.05-2.02c-2.35-0.19-4.65-0.04-6.89,0.69c-1.19,0.39-2.29,0.98-3.36,1.86c0-0.83,0-1.54,0-2.28
		c-0.95,0.09-1.83,0.18-2.71,0.27c-1.68,0.18-3.36,0.16-5.03-0.01c-0.88-0.09-1.78-0.3-2.64-0.22c-2.17,0.22-4.34,0.3-6.51,0.37
		c-1.23,0.04-2.46-0.06-3.69-0.1c-0.13,0-0.26-0.05-0.39-0.06c-0.99-0.06-1.99-0.11-3.07-0.17c0,0.73,0,1.38,0,2.1
		c-2.35-1.69-4.89-2.46-7.64-2.53c-2.75-0.07-5.27,0.74-7.63,2.17c-0.15-0.5,0.02-0.93-0.15-1.35c-7.7,0-15.4,0-23.16,0
		c0.05,3.74-0.56,7.39-1.02,11.09c1.61,0,3.16,0,4.73,0c0.2-0.86,0.38-1.71,0.61-2.55c0.28-1,0.77-1.25,1.8-0.97
		c0,4.24,0,8.48,0,12.74c-0.64,0.12-1.27-0.04-1.86,0.1c0,1.67,0,3.3,0,5c4.9-0.43,9.74-0.4,14.61-0.01c0-1.74,0-3.36,0-5.06
		c-0.68,0-1.34,0-1.97,0c0-4.33,0-8.57,0-12.83C114.25,16.13,114.67,16.04,115.09,16.3z M20.66,16.3
		c-1.19,3.69-1.07,7.26,0.54,10.73c1.64,3.53,4.36,5.86,8.07,7c3.61,1.11,7.12,0.72,10.46-0.96c3.38-1.7,5.6-4.46,6.77-8.25
		c0,1.47,0,2.75,0,4.01c-0.53,0.13-1.03-0.06-1.48,0.12c0,1.65,0,3.28,0,4.99c4.67-0.48,9.28-0.43,13.92-0.02c0-1.74,0-3.36,0-5
		c-0.6-0.12-1.2,0.04-1.75-0.1c0-0.87,0-1.7,0-2.57c1.68,0.42,3.32,0.62,4.99,0.35c2.2-0.36,4.05-1.32,5.44-3.1
		c1.36-1.75,1.83-3.74,1.73-5.92c-0.13-2.73-1.27-4.92-3.49-6.5c-2.27-1.61-4.88-2.26-7.6-2.33c-4.25-0.1-8.5-0.03-12.76-0.03
		c-0.16,0-0.34-0.05-0.48,0.09c0,1.59,0,3.17,0,4.75c0.52,0.14,1.02-0.05,1.51,0.13c0,1.31,0,2.6,0,3.89
		c-1.39-4.31-4.13-7.38-8.39-8.95c-4.26-1.56-8.37-1.03-12.26,1.3c-0.07-0.43-0.13-0.79-0.2-1.16c-7.66,0-15.3,0-22.99,0
		c0.2,3.71-0.57,7.3-0.92,10.96c1.6,0,3.11,0,4.63,0c0.04-0.07,0.1-0.13,0.11-0.2c0.14-0.61,0.25-1.22,0.41-1.82
		c0.36-1.36,0.42-1.5,1.88-1.52c0,4.22,0,8.43,0,12.65c-0.64,0.12-1.25-0.04-1.85,0.1c0,1.65,0,3.27,0,4.99
		c4.86-0.44,9.68-0.4,14.48-0.02c0-1.76,0-3.38,0-5c-0.68-0.1-1.33,0.05-1.95-0.09c0-4.24,0-8.45,0-12.7
		C19.87,16.19,20.2,16.24,20.66,16.3z M95.16,28.6c-1.15-0.19-2.29,0.17-3.37-0.26c-0.01-0.23-0.03-0.4-0.02-0.56
		c0.06-3.6-0.08-7.2,0.1-10.81c0.11-2.16,0.01-4.32,0.11-6.48c0.13-3.05,0.11-6.1,0.14-9.15c0-0.29,0.21-0.58-0.04-1
		C84.74,2.4,77.24,3.62,69.63,4.1c0,1.78,0,3.45,0,5.14c1.6,0.2,3.24-0.28,4.66,0.55c0,6.24,0,12.4,0,18.55
		c-1.37,0.4-2.75,0.08-4.09,0.27c0,1.79,0,3.52,0,5.35c8.35-0.51,16.65-0.41,24.96-0.02C95.16,32.08,95.16,30.36,95.16,28.6z
		 M61.97,29.91c-1.02-0.01-1.85,0.77-1.86,1.74c-0.01,1.08,0.77,1.9,1.82,1.91c1.04,0.01,1.94-0.81,1.9-1.84
		C63.79,30.69,63.11,29.9,61.97,29.91z"/>
	<path class="st1" d="M115.09,16.3c-0.42-0.26-0.83-0.17-1.29-0.15c0,4.26,0,8.5,0,12.83c0.64,0,1.29,0,1.97,0c0,1.71,0,3.33,0,5.06
		c-4.87-0.39-9.71-0.42-14.61,0.01c0-1.7,0-3.33,0-5c0.59-0.14,1.21,0.02,1.86-0.1c0-4.26,0-8.5,0-12.74
		c-1.03-0.28-1.52-0.03-1.8,0.97c-0.23,0.83-0.4,1.68-0.61,2.55c-1.57,0-3.12,0-4.73,0c0.46-3.7,1.07-7.35,1.02-11.09
		c7.77,0,15.47,0,23.16,0c0.17,0.43,0,0.86,0.15,1.35c2.35-1.43,4.88-2.24,7.63-2.17c2.75,0.07,5.29,0.84,7.64,2.53
		c0-0.72,0-1.36,0-2.1c1.08,0.06,2.08,0.12,3.07,0.17c0.13,0.01,0.26,0.05,0.39,0.06c1.23,0.04,2.46,0.14,3.69,0.1
		c2.17-0.07,4.34-0.15,6.51-0.37c0.87-0.09,1.76,0.13,2.64,0.22c1.68,0.17,3.36,0.19,5.03,0.01c0.88-0.09,1.76-0.18,2.71-0.27
		c0,0.74,0,1.45,0,2.28c1.07-0.88,2.16-1.47,3.36-1.86c2.24-0.73,4.54-0.88,6.89-0.69c2.5,0.2,4.8,0.99,7.05,2.02
		c0.03,0.01,0.06,0.05,0.17,0.15c-0.16,3.01,0.14,6.08,0.36,9.12c-0.4,0.24-0.78,0.05-1.1,0.17c-0.07,0.14,0.01,0.21,0.07,0.27
		c1.35,1.38,1.9,3.05,1.91,4.95c0.01,1.44,0.01,2.87-0.59,4.24c-0.91,2.08-2.46,3.47-4.48,4.38c-2.38,1.07-4.91,1.4-7.49,1.24
		c-3.13-0.19-6.02-1.08-8.41-3.3c0.03-3.11-0.15-6.22-0.31-9.36c0.48-0.18,0.99,0,1.53-0.12c-1.14-1.57-1.7-3.3-1.77-5.22
		c-0.45,1.09-0.91,2.18-1.35,3.28c-0.73,1.81-1.44,3.63-2.17,5.43c-0.11,0.27-0.16,0.54-0.16,0.83c0.01,0.98,0,1.96,0,3.01
		c0.55,0,1.04,0,1.56,0c0,1.69,0,3.31,0,5.06c-4.64-0.41-9.26-0.45-13.92,0.02c0-1.74,0-3.36,0-5.01c0.52-0.15,1.06,0.01,1.57-0.1
		c0.45-1.66-0.3-5.08-1.45-6.69c-0.8,8.44-8.28,12.72-14.7,12.16C117.91,33.73,111.86,25.05,115.09,16.3z M172.19,17.04l0.02,0.05
		l0.02-0.02c0,0-0.05-0.03-0.02,0.06c-0.48-1.8-3.62-2.32-5.08-1.83C168.85,15.92,170.48,16.51,172.19,17.04z M160.91,22.74
		c-0.94,0-1.88,0-2.87,0c0.09,2.75,0.17,5.39,0.25,8.02c1.03,0.85,2.12,1.48,3.33,1.89c3.12,1.06,6.27,1.08,9.45,0.27
		c1.99-0.5,3.71-1.45,4.92-3.15c1.28-1.8,1.48-3.82,1.23-5.97c-0.26-2.21-1.41-3.73-3.32-4.77c-1.56-0.84-3.22-1.41-4.88-2
		c-0.99-0.36-2.02-0.65-2.93-1.21c-0.47-0.29-0.52-0.71-0.15-1.13c0.18-0.21,0.4-0.33,0.68-0.38c1.26-0.22,2.51-0.21,3.76,0.11
		c1.82,0.47,2.85,1.62,3.07,3.49c0.02,0.17,0.05,0.34,0.2,0.45c0.87,0,1.73,0,2.66,0c-0.19-2.61-0.44-5.16-0.34-7.71
		c-0.12-0.07-0.19-0.12-0.25-0.15c-3.13-1.46-6.42-1.94-9.85-1.55c-1.97,0.23-3.79,0.83-5.39,2.04c-3.01,2.28-3.25,6.37-1.78,9.13
		C159.23,21.17,160.05,21.96,160.91,22.74L160.91,22.74z M112.73,15.11c1.32,0.01,2.61-0.23,3.55,0.9c-2.6,6.1-0.25,12.95,5.2,15.97
		c4.62,2.56,11.31,1.88,15.5-2.8c3.58-4,3.96-11.08,0.02-15.99c-1.63-2.03-3.73-3.39-6.26-3.99c-4.23-1.01-8.05-0.08-11.52,2.8
		c0-0.9,0-1.64,0-2.41c-7.17,0-14.25,0-21.4,0c0.13,3.11-0.48,6.09-0.79,9.13c0.97,0,1.86,0,2.79,0c0.06-0.21,0.12-0.4,0.16-0.6
		c0.14-0.67,0.3-1.33,0.57-1.96c0.17-0.38,0.43-0.68,0.81-0.83c0.87-0.34,1.77-0.25,2.65-0.21c0.04,0.1,0.06,0.14,0.06,0.17
		c0,4.65,0.01,9.3,0.01,13.95c0,0.24-0.07,0.44-0.16,0.52c-0.61,0.34-1.18,0.17-1.72,0.29c0,0.98,0,1.93,0,2.92
		c4.22-0.35,8.39-0.3,12.56-0.01c0-1.03,0-1.97,0-2.96c-0.27,0-0.5,0.02-0.72,0c-1.03-0.12-1.3-0.13-1.29-1.31
		c0.02-4.27,0.01-8.54,0.01-12.81C112.73,15.66,112.73,15.44,112.73,15.11z M150.14,9.31c0,1.02,0,1.97,0,2.9
		c0.34,0.13,0.66-0.03,1.03,0.2c-0.26,1.95-1.22,3.71-1.81,5.6c-0.74-1.87-1.49-3.72-2.02-5.62c0.37-0.22,0.72,0,1.01-0.2
		c0-0.94,0-1.88,0-2.87c-3.96,0.34-7.89,0.3-11.86,0.01c0,1.01,0,1.94,0,2.86c0.13,0.12,0.27,0.11,0.39,0.09
		c0.82-0.14,1.16,0.3,1.44,1.01c1.13,2.87,2.26,5.74,3.49,8.57c0.98,2.28,1.92,4.53,1.56,7.09c-0.01,0.07,0,0.15,0,0.23
		c0.01,0.26-0.04,0.49-0.19,0.64c-0.47,0.34-1,0.13-1.48,0.28c0,0.97,0,1.91,0,2.91c3.98-0.33,7.92-0.32,11.88-0.01
		c0-1.02,0-1.95,0-2.91c-0.51-0.13-1.07,0.08-1.56-0.35c0-1.22,0.01-2.49,0-3.75c0-0.35,0.07-0.67,0.2-0.99
		c1.51-3.76,3-7.53,4.52-11.28c0.19-0.46,0.27-1,0.7-1.29c0.37-0.11,0.72,0.06,1.05-0.11c0-0.99,0-1.96,0-3.02
		c-1.41,0.16-2.78,0.27-4.16,0.27C152.93,9.55,151.54,9.41,150.14,9.31z M148.72,13.35c0.07,0.63,0.36,1.15,0.69,1.69
		c0.18-0.56,0.37-1.12,0.56-1.73C149.52,13.29,149.14,13.25,148.72,13.35z"/>
	<path class="st1" d="M20.66,16.3c-0.46-0.07-0.79-0.11-1.18-0.17c0,4.25,0,8.45,0,12.7c0.62,0.14,1.27-0.01,1.95,0.09
		c0,1.62,0,3.24,0,5c-4.8-0.39-9.63-0.43-14.48,0.02c0-1.72,0-3.34,0-4.99c0.6-0.14,1.21,0.01,1.85-0.1c0-4.22,0-8.43,0-12.65
		c-1.46,0.02-1.52,0.16-1.88,1.52c-0.16,0.6-0.27,1.22-0.41,1.82c-0.02,0.07-0.07,0.13-0.11,0.2c-1.52,0-3.03,0-4.63,0
		c0.35-3.66,1.12-7.25,0.92-10.96c7.69,0,15.32,0,22.99,0c0.06,0.37,0.12,0.74,0.2,1.16c3.89-2.33,8-2.86,12.26-1.3
		c4.26,1.56,7,4.63,8.39,8.95c0-1.29,0-2.58,0-3.89c-0.49-0.18-0.99,0.01-1.51-0.13c0-1.58,0-3.16,0-4.75
		c0.14-0.14,0.32-0.09,0.48-0.09c4.25,0,8.51-0.07,12.76,0.03c2.71,0.07,5.33,0.71,7.6,2.33c2.22,1.58,3.36,3.78,3.49,6.5
		c0.11,2.17-0.37,4.17-1.73,5.92c-1.39,1.79-3.24,2.74-5.44,3.1c-1.67,0.28-3.31,0.08-4.99-0.35c0,0.87,0,1.7,0,2.57
		c0.55,0.14,1.14-0.02,1.75,0.1c0,1.64,0,3.26,0,5c-4.64-0.4-9.25-0.46-13.92,0.02c0-1.72,0-3.34,0-4.99
		c0.45-0.18,0.96,0.01,1.48-0.12c0-1.26,0-2.54,0-4.01c-1.16,3.78-3.38,6.54-6.77,8.25c-3.34,1.68-6.85,2.06-10.46,0.96
		c-3.72-1.14-6.44-3.47-8.07-7C19.59,23.57,19.47,19.99,20.66,16.3z M9.8,15.23c0.03,0.12,0.06,0.17,0.06,0.22
		c0,4.56,0.01,9.11,0,13.67c0,0.54-0.3,0.78-0.83,0.8c-0.35,0.01-0.71-0.06-1.07,0.06c0,0.97,0,1.9,0,2.87
		c4.17-0.29,8.3-0.28,12.45-0.01c0-0.99,0-1.93,0-2.86c-0.29-0.12-0.56-0.06-0.82-0.07c-1-0.01-1.19-0.2-1.19-1.21
		c0-4.27,0-8.54,0-12.81c0-0.2-0.05-0.42,0.1-0.67c1.14,0.07,2.39-0.33,3.32,0.77c-2.96,7.27,1.14,13.9,5.09,16.03
		c4.94,2.66,12.04,2.05,16.14-2.77c3.39-3.99,3.93-9.97,0.97-14.66c-2.08-3.3-5.14-5.18-8.94-5.71c-3.81-0.53-7.24,0.54-10.32,3.12
		c0-0.84,0-1.51,0-2.21c-7.04,0-14.02,0-21.05,0c0.06,3.02-0.56,5.94-0.82,8.94c0.96,0,1.83,0,2.67,0c0.15-0.16,0.17-0.33,0.21-0.49
		c0.14-0.57,0.27-1.14,0.45-1.69c0.23-0.72,0.72-1.23,1.49-1.3C8.41,15.18,9.09,15.23,9.8,15.23z M56.12,24.76
		c1.73,0.84,3.47,1.04,5.24,0.94c2.32-0.13,4.22-1.14,5.6-3.02c1.16-1.57,1.51-3.37,1.36-5.31c-0.18-2.37-1.24-4.22-3.17-5.56
		c-2-1.4-4.31-1.97-6.7-2.02c-3.98-0.09-7.97-0.03-11.95-0.03c-0.16,0-0.34-0.05-0.48,0.1c0,0.9,0,1.8,0,2.7
		c0.48,0.16,1-0.1,1.41,0.25c0,5.65,0,11.3,0,16.92c-0.44,0.35-0.96,0.06-1.42,0.26c0,0.94,0,1.88,0,2.88
		c3.99-0.34,7.94-0.3,11.88-0.01c0-1.03,0-1.97,0-2.95c-0.37,0-0.69,0.04-1.01-0.01c-0.35-0.05-0.76-0.1-0.77-0.59
		C56.11,27.82,56.12,26.35,56.12,24.76z"/>
	<path class="st1" d="M95.16,28.6c0,1.76,0,3.48,0,5.34c-8.31-0.39-16.61-0.49-24.96,0.02c0-1.83,0-3.55,0-5.35
		c1.34-0.2,2.72,0.13,4.09-0.27c0-6.15,0-12.31,0-18.55c-1.41-0.83-3.05-0.35-4.66-0.55c0-1.69,0-3.36,0-5.14
		c7.61-0.48,15.11-1.7,22.44-3.76c0.24,0.41,0.04,0.7,0.04,1c-0.03,3.05-0.01,6.11-0.14,9.15c-0.09,2.16,0,4.32-0.11,6.48
		c-0.18,3.6-0.04,7.2-0.1,10.81c0,0.17,0.01,0.34,0.02,0.56C92.87,28.77,94,28.42,95.16,28.6z M70.62,8.24
		c0.21,0.01,0.34,0.03,0.47,0.02c0.91-0.02,1.83-0.01,2.7,0.24c1.04,0.3,1.59,0.62,1.58,1.99c-0.03,5.84-0.01,11.69-0.01,17.53
		c0,0.84-0.21,1.11-1.02,1.31c-0.8,0.2-1.6,0.24-2.42,0.23c-0.24-0.01-0.49-0.08-0.72,0.08c0,1.06,0,2.11,0,3.25
		c7.66-0.41,15.28-0.34,22.92-0.01c0-1.16,0-2.21,0-3.28c-0.72-0.1-1.43,0.01-2.12-0.15c-0.93-0.21-1.27-0.56-1.27-1.5
		c0.03-3.89-0.08-7.77,0.11-11.66c0.07-1.53,0.03-3.07,0.09-4.6c0.13-3.32,0.13-6.65,0.18-10.1c-6.73,1.82-13.57,2.93-20.5,3.4
		C70.62,6.12,70.62,7.16,70.62,8.24z"/>
	<path class="st1" d="M61.97,29.91c1.15-0.01,1.82,0.78,1.86,1.8c0.04,1.03-0.86,1.85-1.9,1.84c-1.05,0-1.83-0.82-1.82-1.91
		C60.12,30.68,60.95,29.9,61.97,29.91z M62.84,32.76c0.24,0,0.32-0.18,0.4-0.35c0.32-0.68,0.19-1.36-0.37-1.85
		c-0.46-0.41-1.25-0.43-1.79-0.05c-0.46,0.32-0.7,1.16-0.47,1.75c0.21,0.54,0.61,0.87,1.18,0.93
		C62.21,33.25,62.63,33.23,62.84,32.76L62.84,32.76z"/>
	<path class="st0" d="M112.73,15.11c0,0.32,0,0.55,0,0.77c0,4.27,0.01,8.54-0.01,12.81c0,1.18,0.26,1.2,1.29,1.31
		c0.22,0.02,0.45,0,0.72,0c0,0.99,0,1.92,0,2.96c-4.17-0.29-8.33-0.33-12.56,0.01c0-0.99,0-1.94,0-2.92
		c0.54-0.11,1.12,0.06,1.72-0.29c0.09-0.08,0.17-0.29,0.16-0.52c0-4.65-0.01-9.3-0.01-13.95c0-0.04-0.02-0.07-0.06-0.17
		c-0.88-0.04-1.78-0.13-2.65,0.21c-0.39,0.15-0.65,0.45-0.81,0.83c-0.28,0.63-0.43,1.29-0.57,1.96c-0.04,0.2-0.11,0.39-0.16,0.6
		c-0.93,0-1.81,0-2.79,0c0.31-3.04,0.92-6.02,0.79-9.13c7.15,0,14.23,0,21.4,0c0,0.77,0,1.52,0,2.41c3.48-2.88,7.29-3.8,11.52-2.8
		c2.53,0.6,4.63,1.96,6.26,3.99c3.94,4.9,3.57,11.99-0.02,15.99c-4.2,4.68-10.88,5.36-15.5,2.8c-5.45-3.02-7.8-9.87-5.2-15.97
		C115.34,14.89,114.05,15.13,112.73,15.11z M117.19,16.01c-0.97,2.12-1.33,4.31-1.06,6.64c0.69,6.04,6.18,10.53,12.23,9.98
		c6.23-0.56,11.59-5.75,10.49-13.2c-1.18-8-9.73-12.26-16.82-8.36c-1.33,0.73-2.43,1.73-3.47,2.81c-0.06-1.15-0.13-2.3-0.19-3.45
		c-6.57,0-13.1,0-19.68,0c-0.08,2.52-0.43,4.97-0.75,7.46c0.42,0,0.81,0,1.22,0c0.21-0.67,0.34-1.36,0.63-2
		c0.37-0.82,0.97-1.32,1.87-1.49c1.05-0.19,2.11-0.1,3.15-0.12c0.12,0.23,0.07,0.45,0.07,0.65c0,4.63,0,9.26,0,13.89
		c0,1.5-0.35,1.88-1.83,2c-0.03,0-0.06,0.04-0.1,0.07c-0.02,0.21-0.06,0.44-0.04,0.66c0.02,0.24-0.13,0.48,0.03,0.77
		c3.65-0.66,7.34-0.35,11.05-0.22c0-0.46,0-0.85,0-1.23c-1.84-0.29-2.04-0.53-2.04-2.4c0-4.52,0-9.03,0-13.55
		c0-0.2-0.06-0.42,0.05-0.59c0.9,0,1.8-0.05,2.68,0.01C115.79,14.42,116.7,14.92,117.19,16.01z"/>
	<path class="st0" d="M160.91,22.74c-0.86-0.78-1.68-1.57-2.23-2.61c-1.46-2.76-1.23-6.85,1.78-9.13c1.61-1.22,3.42-1.82,5.39-2.04
		c3.43-0.4,6.72,0.08,9.85,1.55c0.07,0.03,0.13,0.08,0.25,0.15c-0.1,2.54,0.15,5.1,0.34,7.71c-0.92,0-1.78,0-2.66,0
		c-0.14-0.11-0.17-0.27-0.2-0.45c-0.22-1.87-1.25-3.02-3.07-3.49c-1.25-0.32-2.5-0.34-3.76-0.11c-0.28,0.05-0.5,0.18-0.68,0.38
		c-0.37,0.42-0.33,0.84,0.15,1.13c0.91,0.56,1.94,0.85,2.93,1.21c1.66,0.6,3.32,1.16,4.88,2c1.91,1.04,3.06,2.56,3.32,4.77
		c0.25,2.14,0.05,4.17-1.23,5.97c-1.21,1.7-2.93,2.65-4.92,3.15c-3.17,0.8-6.33,0.78-9.45-0.27c-1.22-0.41-2.31-1.04-3.33-1.89
		c-0.08-2.62-0.16-5.27-0.25-8.02C159.03,22.74,159.97,22.74,160.91,22.74c-0.06,1.18,0.16,2.3,0.77,3.32
		c1.52,2.52,4.99,2.68,6.93,1.89c0.47-0.19,0.79-0.55,0.82-1.07c0.03-0.51-0.4-0.69-0.77-0.88c-0.37-0.19-0.75-0.36-1.14-0.5
		c-0.59-0.21-1.18-0.4-1.79-0.56C164,24.48,162.4,23.74,160.91,22.74z M159,30.28c0.27,0.2,0.45,0.35,0.64,0.47
		c0.34,0.21,0.67,0.44,1.03,0.6c3.93,1.75,7.91,1.81,11.86,0.15c2.3-0.96,3.7-2.75,3.93-5.29c0.33-3.75-0.82-5.5-3.6-6.81
		c-1.62-0.76-3.31-1.3-4.98-1.91c-0.76-0.28-1.54-0.54-2.24-0.97c-0.44-0.26-0.76-0.6-0.75-1.18c0.02-0.94,0.48-1.57,1.47-1.83
		c1.06-0.28,2.14-0.27,3.22-0.1c1.93,0.3,3.56,1.07,4.36,3.01c0.14,0.35,0.22,0.72,0.34,1.08c0.37,0,0.72,0,1.13,0
		c-0.16-2.14-0.32-4.25-0.25-6.34c-3.79-1.71-8.32-2.04-11.76-0.84c-2.03,0.71-3.68,1.9-4.42,4.02c-1.04,2.94,0.08,6.07,2.77,7.92
		c1.36,0.93,2.89,1.49,4.46,1.93c1.11,0.31,2.23,0.62,3.21,1.26c1.03,0.67,1.12,1.92,0.22,2.76c-0.35,0.33-0.78,0.53-1.24,0.66
		c-1.06,0.3-2.13,0.34-3.21,0.2c-2.47-0.32-4.31-1.94-4.91-4.35c-0.1-0.4-0.15-0.8-0.22-1.22c-0.42,0.02-0.81-0.06-1.07,0.02
		c0,1.19,0,2.3,0,3.42C159,28.09,159,29.21,159,30.28z"/>
	<path class="st0" d="M150.14,9.31c1.4,0.1,2.79,0.24,4.18,0.24c1.38,0,2.75-0.11,4.16-0.27c0,1.06,0,2.03,0,3.02
		c-0.33,0.17-0.68,0-1.05,0.11c-0.43,0.29-0.52,0.83-0.7,1.29c-1.52,3.76-3.01,7.52-4.52,11.28c-0.13,0.32-0.2,0.64-0.2,0.99
		c0.01,1.27,0,2.53,0,3.75c0.49,0.43,1.05,0.22,1.56,0.35c0,0.95,0,1.89,0,2.91c-3.97-0.31-7.9-0.33-11.88,0.01c0-1,0-1.94,0-2.91
		c0.47-0.15,1,0.06,1.48-0.28c0.15-0.15,0.2-0.38,0.19-0.64c0-0.08-0.01-0.15,0-0.23c0.36-2.56-0.58-4.82-1.56-7.09
		c-1.22-2.83-2.36-5.7-3.49-8.57c-0.28-0.71-0.62-1.15-1.44-1.01c-0.12,0.02-0.27,0.03-0.39-0.09c0-0.92,0-1.86,0-2.86
		c3.98,0.29,7.9,0.33,11.86-0.01c0,0.99,0,1.92,0,2.87c-0.29,0.2-0.64-0.01-1.01,0.2c0.53,1.91,1.28,3.75,2.02,5.62
		c0.6-1.89,1.55-3.65,1.81-5.6c-0.37-0.24-0.69-0.07-1.03-0.2C150.14,11.28,150.14,10.33,150.14,9.31z M152.77,30.85
		c-0.63-0.08-1.39-0.16-1.47-0.87c-0.19-1.63-0.2-3.28,0.01-4.92c0-0.04,0.02-0.07,0.04-0.11c1.6-3.99,3.19-7.99,4.79-11.98
		c0.29-0.74,0.64-1.44,1.55-1.5c0-0.44,0-0.84,0-1.29c-2.28,0.3-4.54,0.24-6.79,0.01c0,0.48,0,0.87,0,1.25
		c0.99,0.23,1.17,0.5,1.02,1.49c-0.11,0.68-0.34,1.32-0.57,1.96c-0.66,1.85-1.31,3.69-1.99,5.61c-0.08-0.15-0.13-0.23-0.16-0.32
		c-0.7-1.92-1.39-3.85-2.08-5.77c-0.23-0.64-0.47-1.28-0.58-1.96c-0.08-0.52,0.1-0.85,0.65-0.93c0.13-0.02,0.25-0.05,0.38-0.08
		c0-0.41,0-0.8,0-1.26c-3.43,0.3-6.83,0.25-10.25,0.01c0,0.46,0,0.85,0,1.29c1.04-0.1,1.38,0.63,1.69,1.39
		c1.27,3.12,2.45,6.28,3.83,9.35c0.97,2.16,1.51,4.32,1.33,6.69c-0.11,1.39-0.29,1.71-1.69,1.95c-0.01,0.4-0.07,0.81,0.04,1.22
		c1.73-0.06,3.43-0.17,5.14-0.17c1.7,0,3.4,0.11,5.12,0.17C152.77,31.64,152.77,31.25,152.77,30.85z"/>
	<path class="st0" d="M172.21,17.13c-1.73-0.62-3.36-1.21-5.08-1.83C168.59,14.81,171.73,15.33,172.21,17.13z"/>
	<path class="st0" d="M148.72,13.35c0.43-0.1,0.8-0.06,1.26-0.04c-0.2,0.6-0.38,1.17-0.56,1.73
		C149.08,14.49,148.79,13.97,148.72,13.35z"/>
	<polygon class="st0" points="172.19,17.04 172.23,17.07 172.21,17.09 	"/>
	<path class="st0" d="M9.8,15.23c-0.71,0-1.4-0.05-2.07,0.01c-0.78,0.07-1.26,0.58-1.49,1.3c-0.18,0.56-0.31,1.13-0.45,1.69
		c-0.04,0.17-0.06,0.33-0.21,0.49c-0.84,0-1.7,0-2.67,0c0.27-3,0.89-5.92,0.82-8.94c7.03,0,14.01,0,21.05,0c0,0.69,0,1.37,0,2.21
		c3.07-2.58,6.51-3.65,10.32-3.12c3.81,0.53,6.86,2.41,8.94,5.71c2.96,4.69,2.42,10.68-0.97,14.66c-4.1,4.82-11.2,5.43-16.14,2.77
		c-3.95-2.13-8.06-8.76-5.09-16.03c-0.93-1.1-2.18-0.71-3.32-0.77c-0.15,0.26-0.1,0.47-0.1,0.67c0,4.27,0,8.54,0,12.81
		c0,1.01,0.19,1.2,1.19,1.21c0.26,0,0.53-0.05,0.82,0.07c0,0.93,0,1.87,0,2.86c-4.15-0.28-8.28-0.29-12.45,0.01
		c0-0.97,0-1.91,0-2.87c0.36-0.11,0.72-0.05,1.07-0.06c0.52-0.02,0.83-0.25,0.83-0.8c0-4.55,0-9.11,0-13.67
		C9.87,15.4,9.84,15.34,9.8,15.23z M24.14,13.76c-0.05-1.07-0.1-2.14-0.16-3.2c-6.51,0-12.96,0-19.45,0
		c-0.06,2.48-0.44,4.91-0.74,7.38c0.43,0,0.82,0,1.22,0c0.19-0.7,0.33-1.39,0.64-2.03c0.27-0.57,0.64-1.04,1.25-1.25
		c1.23-0.43,2.49-0.28,3.77-0.3c0,0.19,0,0.3,0,0.42c0,4.69,0,9.37,0,14.06c0,0.15,0,0.3-0.02,0.45c-0.08,0.8-0.43,1.19-1.22,1.35
		C9.22,30.69,9,30.7,8.74,30.73c-0.03,0.41-0.06,0.81,0.03,1.28c3.63-0.31,7.24-0.26,10.9-0.01c0-0.28,0.01-0.48,0-0.69
		c-0.01-0.2,0.07-0.41-0.06-0.6c-1.58-0.11-1.98-0.54-1.98-2.13c0-4.53,0-9.07,0-13.6c0-0.2-0.07-0.42,0.08-0.61
		c0.66,0,1.32-0.03,1.98,0.01c1.21,0.06,2.35,0.28,3.01,1.47c0.09,0.29-0.12,0.51-0.22,0.74c-1.79,4.24-0.78,9.66,2.49,12.87
		c2.93,2.88,6.49,3.82,10.5,3.21c6.28-0.95,10.66-7.03,9.58-13.26c-1.44-8.35-10.15-11.78-16.71-8.78
		C26.7,11.36,25.35,12.45,24.14,13.76z"/>
	<path class="st0" d="M56.12,24.76c0,1.59-0.01,3.07,0,4.55c0,0.5,0.42,0.54,0.77,0.59c0.31,0.05,0.64,0.01,1.01,0.01
		c0,0.99,0,1.92,0,2.95c-3.94-0.28-7.89-0.32-11.88,0.01c0-1,0-1.94,0-2.88c0.45-0.2,0.98,0.09,1.42-0.26c0-5.62,0-11.27,0-16.92
		c-0.42-0.35-0.93-0.09-1.41-0.25c0-0.9,0-1.8,0-2.7c0.14-0.15,0.32-0.1,0.48-0.1c3.98,0,7.97-0.06,11.95,0.03
		c2.39,0.05,4.69,0.63,6.7,2.02c1.93,1.34,2.98,3.19,3.17,5.56c0.15,1.94-0.2,3.73-1.36,5.31c-1.38,1.88-3.28,2.89-5.6,3.02
		C59.59,25.79,57.85,25.59,56.12,24.76z M56.03,22.97c-0.09,0.66,0.07,0.94,0.83,1.24c1.63,0.65,3.33,0.86,5.08,0.6
		c2.75-0.41,4.76-2.21,5.42-4.83c0.71-2.86-0.25-5.76-2.47-7.37c-2.01-1.46-4.35-1.98-6.76-2.04c-3.72-0.09-7.44-0.03-11.16-0.03
		c-0.05,0-0.1,0.03-0.16,0.05c0,0.4,0,0.79,0,1.18c1.28,0.18,1.53,0.47,1.53,1.74c0,5.12,0,10.25,0,15.37c0,0.19,0.01,0.38,0,0.57
		c-0.05,0.73-0.4,1.1-1.11,1.23c-0.14,0.03-0.3-0.05-0.41,0.07c0,0.42,0,0.81,0,1.24c3.45-0.28,6.87-0.25,10.32-0.01
		c0-0.46,0-0.85,0-1.24c-1.65-0.27-1.84-0.49-1.84-2.19c0-4.57,0-9.15,0-13.72c0-0.22-0.08-0.45,0.07-0.64
		c0.47,0,0.93-0.05,1.38,0.01c1.65,0.2,2.88,1,3.48,2.61c0.33,0.87,0.39,1.77,0.33,2.69c-0.13,2.12-1.22,3.16-3.33,3.2
		C56.83,22.71,56.39,22.64,56.03,22.97z M56.17,15.03c0,2.31,0,4.59,0,6.91c0.71-0.05,1.37-0.06,2.02-0.15
		c0.55-0.08,0.97-0.42,1.21-0.93c0.54-1.14,0.46-2.31,0.15-3.49C59.18,15.9,57.75,14.91,56.17,15.03z"/>
	<path class="st0" d="M70.62,8.24c0-1.08,0-2.12,0-3.23c6.93-0.47,13.76-1.58,20.5-3.4c-0.05,3.44-0.05,6.77-0.18,10.1
		c-0.06,1.54-0.02,3.07-0.09,4.6c-0.18,3.89-0.08,7.77-0.11,11.66c-0.01,0.94,0.33,1.29,1.27,1.5c0.69,0.15,1.39,0.04,2.12,0.15
		c0,1.08,0,2.13,0,3.28c-7.64-0.32-15.26-0.4-22.92,0.01c0-1.14,0-2.19,0-3.25c0.22-0.16,0.48-0.09,0.72-0.08
		c0.82,0.01,1.63-0.03,2.42-0.23c0.81-0.2,1.02-0.48,1.02-1.31c0-5.84-0.02-11.69,0.01-17.53c0.01-1.37-0.54-1.68-1.58-1.99
		c-0.88-0.26-1.79-0.27-2.7-0.24C70.96,8.27,70.83,8.25,70.62,8.24z M71.43,7.48c0.36,0,0.68-0.02,1,0c0.85,0.06,1.7,0.18,2.48,0.57
		c0.75,0.37,1.25,0.94,1.25,1.82c0.01,6.19,0,12.38,0,18.57c0,0.64-0.31,1.12-0.87,1.43c-0.4,0.22-0.85,0.31-1.29,0.4
		c-0.65,0.13-1.31,0.07-1.97,0.14c0,0.56,0,1.08,0,1.66c7.13-0.39,14.22-0.32,21.33-0.01c0-0.6,0-1.12,0-1.7
		c-0.31,0-0.59,0.03-0.87,0c-1.95-0.24-2.59-0.91-2.56-2.74c0.06-3.91,0.01-7.82,0.02-11.73c0.01-2.68,0.05-5.35,0.06-8.03
		c0.01-1.69,0-3.37,0-5.12c-6.07,1.6-12.27,2.54-18.56,3.04C71.43,6.34,71.43,6.85,71.43,7.48z"/>
	<path class="st0" d="M62.84,32.76c-0.22,0.47-0.64,0.49-1.05,0.44c-0.57-0.06-0.98-0.39-1.18-0.93c-0.23-0.6,0.01-1.43,0.47-1.75
		c0.54-0.38,1.33-0.36,1.79,0.05c0.56,0.49,0.69,1.17,0.37,1.85C63.15,32.59,63.08,32.77,62.84,32.76c-0.1-0.3-0.4-0.51-0.44-0.83
		c0.13-0.22,0.39-0.32,0.43-0.65c-0.01-0.16-0.08-0.35-0.28-0.53c-0.4-0.07-0.83-0.25-1.31-0.04c0.03,0.69-0.07,1.37,0.08,2.18
		c0.4-0.37,0.12-0.77,0.37-1.01c0.37,0.01,0.43,0.35,0.56,0.56C62.4,32.68,62.56,32.82,62.84,32.76z"/>
	<path class="st2" d="M118.55,13.89c1.04-1.08,2.14-2.08,3.47-2.81c7.09-3.9,15.63,0.35,16.82,8.36c1.1,7.45-4.26,12.64-10.49,13.2
		c-6.05,0.55-11.54-3.94-12.23-9.98c-0.27-2.33,0.09-4.53,1.06-6.64C117.64,15.3,118.1,14.59,118.55,13.89z M131.55,23.21
		c0-1.73-0.23-3.44-0.71-5.1c-0.4-1.39-0.94-2.73-2.04-3.74c-1.54-1.42-3.74-1.02-4.67,0.84c-0.22,0.44-0.38,0.91-0.47,1.39
		c-0.46,2.36-0.11,4.68,0.41,6.98c0.33,1.47,0.83,2.88,1.84,4.04c1.65,1.9,4.28,1.42,5.16-0.94
		C131.49,25.55,131.55,24.38,131.55,23.21z"/>
	<path class="st3" d="M118.55,13.89c-0.46,0.71-0.91,1.41-1.37,2.12c-0.49-1.09-1.4-1.58-2.52-1.67c-0.88-0.07-1.78-0.01-2.68-0.01
		c-0.11,0.18-0.05,0.39-0.05,0.59c0,4.52,0,9.03,0,13.55c0,1.87,0.2,2.11,2.04,2.4c0,0.39,0,0.78,0,1.23
		c-3.7-0.13-7.39-0.44-11.05,0.22c-0.15-0.28-0.01-0.52-0.03-0.77c-0.02-0.22,0.02-0.45,0.04-0.66c0.04-0.03,0.07-0.07,0.1-0.07
		c1.49-0.12,1.83-0.5,1.83-2c0-4.63,0-9.26,0-13.89c0-0.2,0.05-0.41-0.07-0.65c-1.04,0.02-2.1-0.07-3.15,0.12
		c-0.9,0.16-1.5,0.67-1.87,1.49c-0.29,0.64-0.42,1.33-0.63,2c-0.41,0-0.8,0-1.22,0c0.33-2.49,0.68-4.95,0.75-7.46
		c6.57,0,13.11,0,19.68,0C118.42,11.59,118.49,12.74,118.55,13.89z"/>
	<path class="st4" d="M159,30.28c0-1.06,0-2.18,0-3.3c0-1.12,0-2.23,0-3.42c0.25-0.08,0.65,0.01,1.07-0.02
		c0.07,0.41,0.12,0.82,0.22,1.22c0.6,2.41,2.43,4.03,4.91,4.35c1.08,0.14,2.15,0.1,3.21-0.2c0.46-0.13,0.89-0.33,1.24-0.66
		c0.89-0.84,0.8-2.09-0.22-2.76c-0.98-0.65-2.1-0.95-3.21-1.26c-1.58-0.44-3.1-1-4.46-1.93c-2.7-1.85-3.81-4.98-2.77-7.92
		c0.75-2.12,2.39-3.31,4.42-4.02c3.44-1.2,7.97-0.87,11.76,0.84c-0.07,2.09,0.09,4.19,0.25,6.34c-0.41,0-0.76,0-1.13,0
		c-0.11-0.37-0.19-0.74-0.34-1.08c-0.8-1.94-2.43-2.71-4.36-3.01c-1.07-0.17-2.16-0.18-3.22,0.1c-0.99,0.26-1.45,0.89-1.47,1.83
		c-0.01,0.58,0.31,0.91,0.75,1.18c0.7,0.42,1.48,0.68,2.24,0.97c1.67,0.62,3.37,1.16,4.98,1.91c2.78,1.31,3.93,3.05,3.6,6.81
		c-0.23,2.54-1.63,4.33-3.93,5.29c-3.95,1.65-7.93,1.6-11.86-0.15c-0.36-0.16-0.69-0.39-1.03-0.6
		C159.45,30.62,159.27,30.48,159,30.28z"/>
	<path class="st1" d="M160.91,22.74c1.49,1,3.09,1.74,4.83,2.19c0.6,0.16,1.2,0.35,1.79,0.56c0.39,0.14,0.78,0.31,1.14,0.5
		c0.36,0.19,0.8,0.37,0.77,0.88c-0.03,0.52-0.35,0.88-0.82,1.07c-1.94,0.79-5.41,0.64-6.93-1.89
		C161.07,25.04,160.85,23.92,160.91,22.74L160.91,22.74z M168.31,26.95c-0.36-0.24-5.46-2.07-6.08-2.2
		C162.82,27.3,166.4,27.9,168.31,26.95z"/>
	<path class="st5" d="M152.77,30.85c0,0.4,0,0.79,0,1.23c-1.73-0.06-3.42-0.17-5.12-0.17c-1.7,0-3.41,0.11-5.14,0.17
		c-0.11-0.41-0.05-0.81-0.04-1.22c1.4-0.24,1.59-0.56,1.69-1.95c0.18-2.37-0.36-4.54-1.33-6.69c-1.38-3.07-2.56-6.23-3.83-9.35
		c-0.31-0.76-0.66-1.49-1.69-1.39c0-0.44,0-0.83,0-1.29c3.42,0.24,6.82,0.29,10.25-0.01c0,0.46,0,0.85,0,1.26
		c-0.13,0.03-0.25,0.06-0.38,0.08c-0.54,0.08-0.73,0.41-0.65,0.93c0.11,0.68,0.35,1.32,0.58,1.96c0.69,1.92,1.38,3.85,2.08,5.77
		c0.03,0.09,0.08,0.17,0.16,0.32c0.68-1.91,1.34-3.76,1.99-5.61c0.23-0.64,0.47-1.28,0.57-1.96c0.15-0.99-0.03-1.26-1.02-1.49
		c0-0.38,0-0.77,0-1.25c2.25,0.23,4.51,0.29,6.79-0.01c0,0.46,0,0.85,0,1.29c-0.92,0.06-1.26,0.77-1.55,1.5
		c-1.6,3.99-3.19,7.98-4.79,11.98c-0.02,0.03-0.03,0.07-0.04,0.11c-0.21,1.64-0.2,3.29-0.01,4.92
		C151.39,30.69,152.14,30.77,152.77,30.85z"/>
	<path class="st2" d="M24.14,13.76c1.21-1.3,2.57-2.39,4.2-3.14c6.56-3,15.27,0.43,16.71,8.78c1.08,6.23-3.3,12.31-9.58,13.26
		c-4.02,0.61-7.58-0.32-10.5-3.21c-3.27-3.22-4.27-8.64-2.49-12.87c0.1-0.23,0.31-0.45,0.22-0.74
		C23.18,15.15,23.66,14.45,24.14,13.76z M37.67,23.92c-0.02-1.83-0.37-3.61-0.89-5.36c-0.47-1.56-1.06-3.05-2.27-4.2
		c-0.63-0.6-1.36-0.97-2.25-0.88c-1.57,0.17-2.65,1.24-3.02,3.03c-0.43,2.1-0.11,4.15,0.41,6.19c0.47,1.81,1.07,3.57,2.3,5.02
		c1.63,1.93,4.31,1.46,5.26-0.89C37.59,25.89,37.7,24.92,37.67,23.92z"/>
	<path class="st6" d="M24.14,13.76c-0.48,0.69-0.96,1.39-1.44,2.08c-0.66-1.2-1.8-1.41-3.01-1.47c-0.66-0.03-1.33-0.01-1.98-0.01
		c-0.15,0.2-0.08,0.41-0.08,0.61c0,4.54,0,9.07,0,13.6c0,1.59,0.4,2.03,1.98,2.13c0.13,0.18,0.05,0.4,0.06,0.6
		c0.01,0.2,0,0.41,0,0.69c-3.66-0.25-7.26-0.3-10.9,0.01c-0.09-0.46-0.06-0.87-0.03-1.28C9,30.7,9.22,30.69,9.44,30.64
		c0.79-0.16,1.14-0.55,1.22-1.35c0.01-0.15,0.02-0.3,0.02-0.45c0-4.69,0-9.37,0-14.06c0-0.11,0-0.23,0-0.42
		c-1.28,0.02-2.55-0.13-3.77,0.3c-0.61,0.21-0.98,0.68-1.25,1.25c-0.3,0.64-0.44,1.32-0.64,2.03c-0.4,0-0.78,0-1.22,0
		c0.3-2.47,0.68-4.89,0.74-7.38c6.49,0,12.94,0,19.45,0C24.03,11.62,24.08,12.69,24.14,13.76z"/>
	<path class="st5" d="M56.03,22.97c0.37-0.33,0.8-0.26,1.21-0.27c2.1-0.03,3.19-1.07,3.33-3.2c0.06-0.92,0-1.82-0.33-2.69
		c-0.61-1.61-1.83-2.41-3.48-2.61c-0.45-0.05-0.91-0.01-1.38-0.01c-0.15,0.19-0.07,0.42-0.07,0.64c-0.01,4.57,0,9.15,0,13.72
		c0,1.7,0.19,1.93,1.84,2.19c0,0.39,0,0.78,0,1.24c-3.45-0.25-6.86-0.28-10.32,0.01c0-0.44,0-0.83,0-1.24
		c0.1-0.12,0.27-0.04,0.41-0.07c0.71-0.14,1.05-0.51,1.11-1.23c0.01-0.19,0-0.38,0-0.57c0-5.12,0-10.25,0-15.37
		c0-1.27-0.25-1.56-1.53-1.74c0-0.39,0-0.78,0-1.18c0.06-0.02,0.11-0.05,0.16-0.05c3.72,0,7.44-0.06,11.16,0.03
		c2.41,0.06,4.74,0.58,6.76,2.04c2.22,1.61,3.18,4.5,2.47,7.37c-0.65,2.62-2.67,4.42-5.42,4.83c-1.74,0.26-3.44,0.05-5.08-0.6
		C56.1,23.91,55.94,23.63,56.03,22.97z"/>
	<path class="st1" d="M56.17,15.03c1.58-0.13,3.01,0.87,3.39,2.33c0.3,1.18,0.38,2.35-0.15,3.49c-0.24,0.52-0.66,0.86-1.21,0.93
		c-0.65,0.09-1.31,0.1-2.02,0.15C56.17,19.63,56.17,17.35,56.17,15.03z M57.17,16.14c0,1.62,0,3.16,0,4.7
		c0.91,0.18,1.49-0.23,1.56-1.11c0.04-0.49,0.05-0.99,0-1.48C58.62,17.3,58.24,16.51,57.17,16.14z"/>
	<path class="st7" d="M71.43,7.48c0-0.63,0-1.14,0-1.69c6.29-0.51,12.5-1.45,18.56-3.04c0,1.74,0.01,3.43,0,5.12
		c-0.01,2.68-0.05,5.35-0.06,8.03c-0.01,3.91,0.04,7.82-0.02,11.73c-0.03,1.83,0.61,2.5,2.56,2.74c0.28,0.03,0.56,0,0.87,0
		c0,0.58,0,1.1,0,1.7c-7.1-0.31-14.2-0.39-21.33,0.01c0-0.58,0-1.1,0-1.66c0.66-0.07,1.32-0.01,1.97-0.14
		c0.45-0.09,0.89-0.18,1.29-0.4c0.56-0.31,0.87-0.78,0.87-1.43c0-6.19,0.01-12.38,0-18.57c0-0.88-0.5-1.45-1.25-1.82
		c-0.78-0.39-1.62-0.51-2.48-0.57C72.11,7.46,71.79,7.48,71.43,7.48z"/>
	<path class="st1" d="M62.84,32.76c-0.29,0.06-0.44-0.08-0.58-0.32c-0.13-0.22-0.19-0.55-0.56-0.56c-0.25,0.25,0.03,0.64-0.37,1.01
		c-0.16-0.81-0.06-1.49-0.08-2.18c0.48-0.21,0.91-0.03,1.31,0.04c0.2,0.17,0.27,0.36,0.28,0.53c-0.04,0.33-0.3,0.43-0.43,0.65
		C62.45,32.25,62.74,32.46,62.84,32.76L62.84,32.76z M61.66,31.58c0.34,0.05,0.66,0.1,0.8-0.32c-0.21-0.39-0.51-0.37-0.85-0.24
		C61.58,31.21,61.56,31.38,61.66,31.58z"/>
	<path class="st0" d="M131.55,23.21c0,1.18-0.06,2.35-0.48,3.47c-0.87,2.36-3.5,2.84-5.16,0.94c-1.01-1.16-1.51-2.57-1.84-4.04
		c-0.52-2.3-0.88-4.62-0.41-6.98c0.1-0.49,0.25-0.95,0.47-1.39c0.93-1.86,3.13-2.26,4.67-0.84c1.1,1.01,1.63,2.35,2.04,3.74
		C131.32,19.77,131.55,21.47,131.55,23.21z M130.74,23.23c-0.03-2.02-0.32-3.99-1.03-5.88c-0.32-0.83-0.68-1.64-1.34-2.28
		c-1.28-1.24-2.99-0.87-3.65,0.79c-0.34,0.88-0.47,1.8-0.45,2.72c0.02,1.66,0.19,3.31,0.63,4.93c0.34,1.27,0.73,2.51,1.61,3.53
		c1.17,1.37,3.07,1.22,3.72-0.41C130.65,25.54,130.75,24.39,130.74,23.23z"/>
	<path class="st0" d="M168.31,26.95c-1.91,0.95-5.48,0.35-6.08-2.2C162.84,24.87,167.95,26.71,168.31,26.95z"/>
	<path class="st0" d="M37.67,23.92c0.03,1-0.09,1.97-0.46,2.9c-0.94,2.35-3.62,2.82-5.26,0.89c-1.23-1.45-1.83-3.21-2.3-5.02
		c-0.52-2.03-0.84-4.09-0.41-6.19c0.36-1.79,1.45-2.86,3.02-3.03c0.9-0.09,1.63,0.28,2.25,0.88c1.21,1.15,1.8,2.64,2.27,4.2
		C37.31,20.31,37.65,22.09,37.67,23.92z M36.87,23.99c0.06-1.29-0.18-2.52-0.46-3.74c-0.41-1.76-0.89-3.5-2.06-4.93
		c-0.43-0.53-0.94-0.99-1.7-1.02c-1.32-0.04-2.31,0.84-2.62,2.27c-0.35,1.61-0.2,3.2,0.13,4.78c0.44,2.06,1.03,4.06,2.34,5.79
		c1.22,1.61,3.26,1.04,3.91-0.47C36.79,25.8,36.92,24.89,36.87,23.99z"/>
	<path class="st0" d="M57.17,16.14c1.07,0.37,1.45,1.17,1.56,2.11c0.06,0.49,0.04,0.99,0,1.48c-0.07,0.87-0.65,1.28-1.56,1.11
		C57.17,19.3,57.17,17.75,57.17,16.14z"/>
	<path class="st0" d="M61.66,31.58c-0.11-0.21-0.08-0.37-0.04-0.56c0.33-0.12,0.63-0.15,0.85,0.24
		C62.32,31.68,62.01,31.63,61.66,31.58z"/>
	<path class="st1" d="M130.74,23.23c0.01,1.16-0.09,2.3-0.52,3.39c-0.65,1.63-2.55,1.78-3.72,0.41c-0.87-1.02-1.26-2.27-1.61-3.53
		c-0.44-1.61-0.61-3.27-0.63-4.93c-0.01-0.92,0.11-1.84,0.45-2.72c0.65-1.66,2.37-2.04,3.65-0.79c0.66,0.64,1.03,1.45,1.34,2.28
		C130.42,19.24,130.7,21.22,130.74,23.23z M129.71,23.09c0.08-1.49-0.18-3.03-0.6-4.55c-0.27-0.99-0.64-1.95-1.37-2.71
		c-0.76-0.79-1.55-0.65-2.04,0.32c-0.33,0.66-0.4,1.38-0.43,2.09c-0.06,1.69,0.16,3.36,0.58,4.99c0.3,1.19,0.63,2.39,1.55,3.3
		c0.74,0.72,1.6,0.52,1.96-0.44C129.72,25.16,129.73,24.17,129.71,23.09z"/>
	<path class="st1" d="M36.87,23.99c0.05,0.91-0.08,1.82-0.45,2.69c-0.65,1.51-2.7,2.07-3.91,0.47c-1.31-1.73-1.9-3.73-2.34-5.79
		c-0.33-1.57-0.48-3.17-0.13-4.78c0.31-1.44,1.3-2.32,2.62-2.27c0.75,0.02,1.27,0.49,1.7,1.02c1.17,1.44,1.65,3.18,2.06,4.93
		C36.69,21.47,36.92,22.69,36.87,23.99z M30.82,18.11c0.01,1.96,0.31,3.55,0.81,5.1c0.36,1.12,0.78,2.22,1.49,3.17
		c0.33,0.44,0.72,0.85,1.3,0.76c0.65-0.1,1.06-0.54,1.24-1.19c0.2-0.72,0.33-1.45,0.28-2.18c-0.11-1.72-0.4-3.41-0.93-5.06
		c-0.32-0.99-0.73-1.95-1.38-2.79c-0.82-1.05-1.89-0.94-2.44,0.27C30.87,16.91,30.8,17.66,30.82,18.11z"/>
	<path class="st0" d="M129.71,23.09c0.02,1.08,0.02,2.07-0.35,3.01c-0.37,0.96-1.22,1.16-1.96,0.44c-0.93-0.9-1.25-2.11-1.55-3.3
		c-0.42-1.63-0.64-3.3-0.58-4.99c0.03-0.71,0.09-1.43,0.43-2.09c0.49-0.97,1.28-1.11,2.04-0.32c0.73,0.76,1.1,1.72,1.37,2.71
		C129.52,20.06,129.79,21.6,129.71,23.09z"/>
	<path class="st0" d="M30.82,18.11c-0.02-0.45,0.05-1.2,0.37-1.9c0.55-1.2,1.63-1.32,2.44-0.27c0.65,0.83,1.06,1.79,1.38,2.79
		c0.53,1.64,0.81,3.34,0.93,5.06c0.05,0.74-0.08,1.47-0.28,2.18c-0.18,0.65-0.59,1.09-1.24,1.19c-0.59,0.09-0.98-0.32-1.3-0.76
		c-0.71-0.96-1.13-2.06-1.49-3.17C31.13,21.66,30.83,20.07,30.82,18.11z"/>
</g>
</svg>
