<svg xmlns="http://www.w3.org/2000/svg" width="400" height="67.46" viewBox="0 0 400 67.46"><defs><style>.a{fill:#99999a;}.b{fill:#0c3a5b;}</style></defs><g transform="translate(-1377 -405.927)"><path class="a" d="M209.046,607.588s-6.932-10.149-23.735-7.549C185.311,600.038,192.192,610.724,209.046,607.588Z" transform="translate(1193.553 -149.533)"/><path class="a" d="M199.676,606.925s-1.457-13.769-15.422-18.4C184.254,588.522,185.843,603.6,199.676,606.925Z" transform="translate(1192.746 -158.006)"/><path class="a" d="M190.238,578.482a21.543,21.543,0,0,0,2.635,22.317S198.484,589.187,190.238,578.482Z" transform="translate(1195.801 -165.676)"/><path class="a" d="M201.756,574.581s-10.276,7.209-7.982,20.191C193.775,594.772,204.226,590.114,201.756,574.581Z" transform="translate(1199.764 -168.654)"/><path class="a" d="M218.841,605.808a12.971,12.971,0,0,1-8.156,0c-2.7-.64-13-1.27-19.921,5.406a19.187,19.187,0,0,0,12.155,1c3.948-.915,5.182-2.692,5.928-1.739.482.616-.623,1.524-2.013,2.651a20.79,20.79,0,0,0-2.33,1.97.362.362,0,0,0,.044.5,5.211,5.211,0,0,0,1.619,1.316.585.585,0,0,0,.434-.026,17.311,17.311,0,0,0,5.214-4.911c2.025-2.861,2.836-2.826,2.947-2.826s.923-.035,2.947,2.826a17.31,17.31,0,0,0,5.214,4.911.585.585,0,0,0,.434.026,5.211,5.211,0,0,0,1.619-1.316.362.362,0,0,0,.044-.5,20.785,20.785,0,0,0-2.33-1.97c-1.39-1.127-2.494-2.036-2.013-2.651.746-.953,1.981.824,5.928,1.739a19.187,19.187,0,0,0,12.155-1C231.842,604.538,221.536,605.168,218.841,605.808Z" transform="translate(1197.719 -145.09)"/><path class="a" d="M209.971,607.588c16.854,3.136,23.735-7.549,23.735-7.549C216.9,597.439,209.971,607.588,209.971,607.588Z" transform="translate(1212.391 -149.533)"/><path class="a" d="M231.163,588.522c-13.965,4.634-15.422,18.4-15.422,18.4C229.573,603.6,231.163,588.522,231.163,588.522Z" transform="translate(1216.799 -158.006)"/><path class="a" d="M221.308,578.482c-8.246,10.705-2.635,22.317-2.635,22.317A21.543,21.543,0,0,0,221.308,578.482Z" transform="translate(1217.613 -165.676)"/><path class="a" d="M218.728,594.772c2.295-12.982-7.982-20.191-7.982-20.191C208.277,590.114,218.728,594.772,218.728,594.772Z" transform="translate(1212.695 -168.654)"/><path class="b" d="M202.066,592.283a17.036,17.036,0,0,0,.8,1.864l.508,1.012.007.192a5.985,5.985,0,0,0,2.025,2.824,3.521,3.521,0,0,0,4,0c.007-.039.139-.067.146-.106a5.162,5.162,0,0,0,1.667-2.148,3.479,3.479,0,0,1,.5-1.51,8.18,8.18,0,0,0,1-2.415c.134-.642.176-.22.566-.462a1.113,1.113,0,0,0,.45-.633,6.9,6.9,0,0,0,.473-2.367c-.028-.446-.062-.531-.3-.757s-.266-.293-.221-.522a6.907,6.907,0,0,0,.018-2.364c-.072-.388-.187-1.108-.252-1.6-.141-1.062-.277-.5-.665-1.067A7.607,7.607,0,0,0,209.873,580a6.052,6.052,0,0,0-2.4-.482,9.564,9.564,0,0,0-3.186.649,2.42,2.42,0,0,1-1.506.12c-.589-.044-.6-.04-.686.175a8.512,8.512,0,0,0-.157,1.111c-.039.4-.162.044-.273.411a23.293,23.293,0,0,0-.661,5.5l-.254.281a1.043,1.043,0,0,0-.344.817,4.879,4.879,0,0,0,1.03,3C201.725,591.869,201.826,591.565,202.066,592.283Z" transform="translate(1205.078 -164.883)"/><path class="b" d="M201.094,594.43a.748.748,0,0,0-.2.039.686.686,0,0,0-.464.721.71.71,0,0,0,.52.545.655.655,0,0,0,.33-1.266A.658.658,0,0,0,201.094,594.43Z" transform="translate(1205.102 -153.492)"/><path class="b" d="M227.695,598.935a9.976,9.976,0,0,0-5.106-6.089c-1.025-.515-3.145-1.647-4.549-2.42a3.7,3.7,0,0,1,.33.84,4.351,4.351,0,0,1,.086,1.233c.014.812.025.96.06.977s.185.046.36.079a4.756,4.756,0,0,1,2.558,1.385,3.68,3.68,0,0,1,.942,1.676l.071.263V603l-.083.138a.641.641,0,0,1-.545.312l-.191.012-.1.134a1.577,1.577,0,0,1-.589.446,1.107,1.107,0,0,1-.494.062.853.853,0,0,1-.549-.1,1.353,1.353,0,0,1-.651-.653.929.929,0,0,1-.116-.46,1.315,1.315,0,0,1,1.736-1.367,2.31,2.31,0,0,0,.235.069c.019,0,.025-.711.019-2.244-.012-2.526,0-2.374-.229-2.861a3.243,3.243,0,0,0-2.388-1.637,5.274,5.274,0,0,0-1.432,0,3.479,3.479,0,0,0-2.124,1.221,2.5,2.5,0,0,0-.411.818,11.786,11.786,0,0,0-.071,2.459c-.007,1.517,0,2.244.019,2.244a1.969,1.969,0,0,0,.245-.072.952.952,0,0,1,.467-.062,1.294,1.294,0,0,1,.407.074,1.439,1.439,0,0,1,.774.776,1.668,1.668,0,0,1,.053.782,1.384,1.384,0,0,1-.734.908.9.9,0,0,1-.487.115,1.1,1.1,0,0,1-.469-.044,1.4,1.4,0,0,1-.665-.45l-.122-.157-.187-.012a.632.632,0,0,1-.552-.328l-.092-.152v-2.933c0-2.575.005-2.969.044-3.2a3.6,3.6,0,0,1,1.055-1.961,5.834,5.834,0,0,1,.536-.48,4.856,4.856,0,0,1,2.013-.852,2.2,2.2,0,0,0,.3-.065c.035-.018.042-.129.049-.672a4.457,4.457,0,0,0-.109-1.367,2.691,2.691,0,0,0-1.141-1.394,6.029,6.029,0,0,1-1.4,1.29,4.836,4.836,0,0,1-.667,1.2,2.488,2.488,0,0,1-4.131,0,4.809,4.809,0,0,1-.67-1.207,6.071,6.071,0,0,1-1.295-1.155,2.867,2.867,0,0,0-.441.259,2.609,2.609,0,0,0-1.081,1.459,11.83,11.83,0,0,0-.058,2.436v2.21l.235.123a2.143,2.143,0,0,1,.991,1.154,2.336,2.336,0,0,1,.055,1.083,2.046,2.046,0,0,1-1.088,1.353,1.851,1.851,0,0,1-.889.192,1.971,1.971,0,0,1-1.794-1.122,1.779,1.779,0,0,1-.183-.974,1.716,1.716,0,0,1,.295-.97,1.926,1.926,0,0,1,.8-.721l.215-.118.018-2.335a14.347,14.347,0,0,1,.074-2.57,3.7,3.7,0,0,1,.637-1.339c-.155.092-.312.181-.464.268-1.319.741-2.955,1.635-3.63,1.983a12.184,12.184,0,0,0-3.24,2.173,9.134,9.134,0,0,0-1.8,2.513,40.233,40.233,0,0,0-1.612,6.063,29.1,29.1,0,0,1,6.235,5.8,14.146,14.146,0,0,0,4.182,3.877h0c1.61.864,3.568,1.226,6.576,1.226,5.828,0,7.724-1.344,10.758-5.1.106-.131.212-.256.318-.381.083-.1.168-.206.252-.3s.152-.175.229-.261c.489-.561.972-1.079,1.436-1.547.058-.056.113-.109.169-.166.12-.12.242-.24.358-.353l.019-.018c.277-.266.542-.51.8-.739.145-.129.282-.25.418-.367.485-.422.914-.767,1.254-1.03.065-.051.123-.1.182-.139.076-.058.148-.111.213-.161.215-.159.369-.265.432-.309l.035-.023A27.566,27.566,0,0,0,227.695,598.935Z" transform="translate(1200.754 -156.842)"/><path class="b" d="M410.4,579.981a4.681,4.681,0,0,1,1.8.347,4.669,4.669,0,0,1,2.478,2.5,4.752,4.752,0,0,1-.009,3.537,4.364,4.364,0,0,1-1.005,1.475,4.783,4.783,0,0,1-1.512,1,4.544,4.544,0,0,1-3.507-.009,4.666,4.666,0,0,1-1.5-1.03,4.569,4.569,0,0,1-.995-1.487,4.556,4.556,0,0,1,.016-3.5,4.732,4.732,0,0,1,1.03-1.526,4.361,4.361,0,0,1,1.459-.975A4.6,4.6,0,0,1,410.4,579.981Zm.005.69a3.886,3.886,0,0,0-1.489.282,3.772,3.772,0,0,0-1.24.834,4.207,4.207,0,0,0-.878,1.3,3.769,3.769,0,0,0-.307,1.494,3.807,3.807,0,0,0,.293,1.48,3.9,3.9,0,0,0,.843,1.263,3.988,3.988,0,0,0,1.265.868,3.646,3.646,0,0,0,1.452.3,4.053,4.053,0,0,0,1.529-.291,3.976,3.976,0,0,0,1.3-.856,3.74,3.74,0,0,0,1.148-2.706,4.1,4.1,0,0,0-.284-1.535,3.834,3.834,0,0,0-.833-1.275,4.048,4.048,0,0,0-1.288-.868A3.857,3.857,0,0,0,410.409,580.671Zm-1.88,1.244h1.986a3.053,3.053,0,0,1,1.632.354,1.158,1.158,0,0,1,.554,1.044,1.444,1.444,0,0,1-.3.937,1.429,1.429,0,0,1-.852.487l1.15,2.339h-1.236l-1.023-2.157h-.8v2.157h-1.108Zm1.108.7v1.623h.729a1.691,1.691,0,0,0,.912-.191.666.666,0,0,0,.286-.6.71.71,0,0,0-.3-.631,1.746,1.746,0,0,0-.949-.2Z" transform="translate(1361.986 -164.529)"/><path class="b" d="M240.155,589.786h-9.682v-4.971h24.77v4.971h-9.682v25.555h-5.406Z" transform="translate(1228.053 -160.838)"/><path class="b" d="M245.53,600.391V600.3a15.962,15.962,0,0,1,31.921-.088v.088a15.962,15.962,0,0,1-31.921.086Zm26.3,0V600.3c0-5.932-4.318-10.859-10.379-10.859s-10.292,4.84-10.292,10.77v.088c0,5.93,4.318,10.858,10.379,10.858S271.826,606.323,271.826,600.391Z" transform="translate(1239.555 -161.064)"/><path class="b" d="M266.816,584.815h12.037c7.108,0,11.6,4.055,11.6,10.2v.086c0,6.847-5.495,10.423-12.21,10.423H272.18v9.813h-5.364Zm11.6,15.873c4.055,0,6.585-2.268,6.585-5.452v-.086c0-3.576-2.574-5.451-6.585-5.451H272.18v10.989Z" transform="translate(1255.814 -160.838)"/><path class="a" d="M282.837,584.815h11.382c9.594,0,16.222,6.585,16.222,15.175v.088c0,8.59-6.629,15.263-16.222,15.263H282.837Zm11.382,25.642c6.41,0,10.6-4.318,10.6-10.292v-.086c0-5.974-4.187-10.379-10.6-10.379H288.2v20.757Z" transform="translate(1268.053 -160.838)"/><path class="a" d="M300.91,600.391V600.3a15.963,15.963,0,0,1,31.923-.088v.088a15.963,15.963,0,0,1-31.923.086Zm26.3,0V600.3c0-5.932-4.316-10.859-10.379-10.859s-10.292,4.84-10.292,10.77v.088c0,5.93,4.318,10.858,10.38,10.858S327.206,606.323,327.206,600.391Z" transform="translate(1281.857 -161.064)"/><path class="a" d="M321.431,600.391V600.3a15.447,15.447,0,0,1,15.743-15.787,15.909,15.909,0,0,1,11.949,4.754l-3.445,3.969c-2.443-2.268-5.059-3.794-8.548-3.794-5.844,0-10.074,4.8-10.074,10.77v.088c0,5.974,4.23,10.858,10.074,10.858,3.75,0,6.149-1.526,8.765-3.969l3.445,3.489a15.747,15.747,0,0,1-12.384,5.408A15.352,15.352,0,0,1,321.431,600.391Z" transform="translate(1297.533 -161.064)"/><path class="a" d="M348.394,589.786h-9.682v-4.971h24.77v4.971H353.8v25.555h-5.406Z" transform="translate(1310.734 -160.838)"/><path class="a" d="M353.769,600.391V600.3a15.962,15.962,0,0,1,31.921-.088v.088a15.962,15.962,0,0,1-31.921.086Zm26.3,0V600.3c0-5.932-4.318-10.859-10.379-10.859s-10.292,4.84-10.292,10.77v.088c0,5.93,4.318,10.858,10.379,10.858S380.065,606.323,380.065,600.391Z" transform="translate(1322.236 -161.064)"/><path class="a" d="M375.055,584.815h13.607c3.838,0,6.847,1.132,8.809,3.051A9.227,9.227,0,0,1,400,594.451v.088c0,5.015-3.009,8.024-7.283,9.244l8.243,11.557h-6.323l-7.5-10.641h-6.717v10.641h-5.364Zm13.215,15.132c3.836,0,6.279-2.007,6.279-5.1v-.086c0-3.272-2.355-5.059-6.324-5.059h-7.807v10.248Z" transform="translate(1338.496 -160.838)"/><path class="b" d="M391.274,611.082l3.226-3.838c2.923,2.53,5.844,3.969,9.638,3.969,3.314,0,5.408-1.526,5.408-3.836v-.088c0-2.18-1.221-3.358-6.89-4.666-6.5-1.57-10.162-3.489-10.162-9.114v-.088c0-5.233,4.36-8.853,10.423-8.853a16.925,16.925,0,0,1,11.077,3.838l-2.879,4.055a13.865,13.865,0,0,0-8.287-3.14c-3.14,0-4.971,1.614-4.971,3.619v.088c0,2.355,1.4,3.4,7.239,4.8,6.454,1.57,9.813,3.882,9.813,8.939v.088c0,5.713-4.493,9.114-10.9,9.114A18.807,18.807,0,0,1,391.274,611.082Z" transform="translate(1350.887 -161.027)"/><path class="b" d="M389.286,614.106l.016.044a3.136,3.136,0,0,1-1.037,2.531,4.056,4.056,0,0,1-2.8.947,3.62,3.62,0,0,1-2.9-1.3,5.02,5.02,0,0,1-1.1-3.365v-1.753a5.039,5.039,0,0,1,1.1-3.366,3.615,3.615,0,0,1,2.9-1.305,4.1,4.1,0,0,1,2.808.924,3.131,3.131,0,0,1,1.027,2.547l-.016.044h-.829a2.618,2.618,0,0,0-.8-2.032,3.133,3.133,0,0,0-2.194-.729,2.736,2.736,0,0,0-2.27,1.1,4.424,4.424,0,0,0-.854,2.8v1.769a4.444,4.444,0,0,0,.854,2.824,2.737,2.737,0,0,0,2.27,1.092,3.176,3.176,0,0,0,2.194-.711,2.618,2.618,0,0,0,.8-2.064Z" transform="translate(1343.391 -144.242)"/><path class="b" d="M395.312,617.406h-.889v-4.96H388.3v4.96h-.889V606.629h.889v5.062h6.121v-5.062h.889Z" transform="translate(1347.938 -144.176)"/><path class="b" d="M394.686,617.406H393.8V606.629h.889Z" transform="translate(1352.814 -144.176)"/><path class="b" d="M397.1,616.658h5.567v.748h-6.456V606.629h.889Z" transform="translate(1354.654 -144.176)"/><path class="b" d="M406.878,612.189h-4.833v4.47h5.588v.748h-6.477V606.629h6.44v.755h-5.551v4.048h4.833Z" transform="translate(1358.436 -144.176)"/></g></svg>