<svg xmlns:dc="http://purl.org/dc/elements/1.1/" xmlns:cc="http://creativecommons.org/ns#" xmlns:rdf="http://www.w3.org/1999/02/22-rdf-syntax-ns#" xmlns:svg="http://www.w3.org/2000/svg" xmlns="http://www.w3.org/2000/svg" xmlns:sodipodi="http://sodipodi.sourceforge.net/DTD/sodipodi-0.dtd" xmlns:inkscape="http://www.inkscape.org/namespaces/inkscape" version="1.1" id="svg2" xml:space="preserve" viewBox="117.02 184.01 882.81 275.49">
    <g id="g10" inkscape:groupmode="layer" inkscape:label="TOUPRET_BASELINE_CMYK" transform="matrix(1.3333333,0,0,-1.3333333,0,793.70133)"><g id="g12"><g id="g14"><g id="g20" transform="translate(266.252,423.9277)"><path d="m 0,0 5.92,17.192 c 0,0 -12.015,16.152 -43.808,16.152 h -140.599 l 39.182,-84.067 h 15.672 v -84.495 H 420.473 L 467.034,0 Z" style="fill:#ed1c24;fill-opacity:1;fill-rule:nonzero;stroke:none" id="path22"/></g><g id="g24" transform="translate(427.9839,361.6415)"><path d="M 0,0 C 5.4,0 8.208,3.962 8.208,7.76 8.208,11.559 5.4,15.515 0,15.515 H -14.409 V 0 Z M -39.897,-47.419 V 36.774 H -0.03 c 22.356,0 33.156,-11.115 33.156,-28.432 0,-18.135 -9.936,-29.602 -32.293,-29.602 h -15.242 v -26.159 z" style="fill:#ffffff;fill-opacity:1;fill-rule:nonzero;stroke:none" id="path26"/></g><g id="g28" transform="translate(492.8511,377.1562)"><path d="m 0,0 h 14.409 c 5.401,0 8.208,-3.957 8.208,-7.754 0,-3.799 -2.807,-7.761 -8.208,-7.761 H 0 Z m 50.37,-62.934 -19.949,28.488 c 11.733,4.216 17.114,13.938 17.114,27.274 0,17.317 -10.8,28.432 -33.156,28.432 H -25.488 V -62.934 H 0 v 26.16 h 6.563 l 18.318,-26.16 z" style="fill:#ffffff;fill-opacity:1;fill-rule:nonzero;stroke:none" id="path30"/></g><g id="g32" transform="translate(573.2876,335.4824)"><path d="M 0,0 V 10.62 H 29.769 V 31.227 H 2.169 L -12.753,41.674 H 34.82 v 21.26 H -25.507 V -21.26 H 36.237 V 0 Z" style="fill:#ffffff;fill-opacity:1;fill-rule:nonzero;stroke:none" id="path34"/></g><g id="g36" transform="translate(304.7588,398.416)"><path d="m 0,0 h 25.488 v -50.429 c 0,-8.307 1.512,-15.445 11.989,-15.445 9.18,0 11.88,6.319 11.88,15.445 V 0 h 25.488 v -47.621 c 0,-27.028 -11.556,-38.845 -37.368,-38.845 C 13.392,-86.466 0,-76.521 0,-47.504 Z" style="fill:#ffffff;fill-opacity:1;fill-rule:nonzero;stroke:none" id="path38"/></g><g id="g40" transform="translate(239.4634,356.7563)"><path d="m 0,0 c 0,-10.765 3.136,-24.22 15.792,-24.22 11.424,0 15.904,10.296 15.904,24.22 0,11.466 -4.48,23.635 -16.128,23.284 C 3.584,23.284 0,10.647 0,0 m 58.128,0 c 0,-28.667 -18.48,-44.813 -42.336,-44.813 -25.312,0 -42.224,16.381 -42.224,45.047 0,26.443 17.136,43.642 42.224,43.642 C 44.576,43.876 58.128,22.23 58.128,0" style="fill:#ffffff;fill-opacity:1;fill-rule:nonzero;stroke:none" id="path42"/></g><g id="g44" transform="translate(696.1284,398.416)"><path d="m 0,0 h -81.522 v -21.26 h 24.346 v -62.933 h 25.507 v 54.004 l -12.753,8.929 H -7.32 Z" style="fill:#ffffff;fill-opacity:1;fill-rule:nonzero;stroke:none" id="path46"/></g><g id="g48" transform="translate(223.2651,428.9267)"><path d="m 0,0 -93.859,-0.001 12.765,-27.374 h 29.503 v -89.608 l 29.965,7.471 v 65.214 c 0,3.326 1.181,4.05 1.181,4.05 l -18.384,12.873 h 37.412 c 6.275,0 9.344,-1.374 9.344,-1.374 L 16.2,-4.723 C 16.2,-4.723 13.303,0 0,0" style="fill:#ffffff;fill-opacity:1;fill-rule:nonzero;stroke:none" id="path50"/></g></g></g>
        <g id="g230"><g id="g232"><g id="g238" transform="translate(142.4038,251.0707)"><path d="M 0,0 H 15.856 V 6.131 H 7.037 V 23.244 H 0 Z m 16.067,11.427 c 2.717,1.917 4.354,4.603 4.354,7.669 0,2.86 -1.917,4.496 -4.042,4.496 -1.948,0 -3.623,-1.636 -3.623,-3.659 0,-1.949 1.36,-3.237 3.032,-3.237 0.382,0 0.731,0.069 0.905,0.14 -0.451,-1.326 -2.054,-2.86 -3.171,-3.348 z M 23.247,0 H 40.88 V 5.851 H 30.283 V 8.819 H 40.637 V 14.67 H 30.283 v 2.723 H 40.88 v 5.851 H 23.247 Z m 36.389,0 h 6.757 V 23.244 H 59.356 V 11.536 L 51.268,23.244 H 44.02 V 0 h 7.036 v 12.476 z m 10.525,0 h 10.42 c 7.288,0 12.721,4.214 12.721,11.639 0,7.425 -5.433,11.605 -12.756,11.605 H 70.161 Z m 7.037,6.131 v 10.982 h 3.383 c 3.768,0 5.579,-2.334 5.579,-5.474 0,-2.929 -2.091,-5.508 -5.614,-5.508 z m 18.619,3.413 c 0,-5.747 3.342,-9.961 11.185,-9.961 7.842,0 11.15,4.214 11.15,9.999 v 13.662 h -7.139 V 9.791 c 0,-2.232 -1.151,-4.009 -4.011,-4.009 -2.895,0 -4.046,1.777 -4.046,4.009 V 23.244 H 95.817 Z M 121.921,0 h 7.036 v 23.244 h -7.036 z m 15.79,0 h 7.037 v 17.113 h 6.202 v 6.131 h -19.478 v -6.131 h 6.239 z m 24.642,0 h 10.419 c 7.285,0 12.719,4.214 12.719,11.639 0,7.425 -5.434,11.605 -12.753,11.605 h -10.385 z m 7.036,6.131 v 10.982 h 3.383 c 3.766,0 5.58,-2.334 5.58,-5.474 0,-2.929 -2.095,-5.508 -5.614,-5.508 z M 188.005,0 h 17.633 v 5.851 h -10.596 v 2.968 h 10.35 v 5.851 h -10.35 v 2.723 h 10.596 v 5.851 h -17.633 z m 18.996,3.274 c 2.474,-2.229 5.854,-3.691 10.802,-3.691 6.24,0 10.036,2.959 10.036,8.082 0,5.368 -5.676,6.485 -9.513,7.148 -2.474,0.417 -3.417,0.731 -3.417,1.637 0,0.595 0.383,1.22 2.129,1.22 1.848,0 4.462,-0.765 6.482,-2.299 l 3.762,4.982 c -2.648,2.16 -6.062,3.239 -9.862,3.239 -6.379,0 -9.653,-3.588 -9.653,-7.525 0,-5.822 5.854,-6.728 9.688,-7.425 2.302,-0.42 3.28,-0.874 3.28,-1.78 0,-0.905 -1.257,-1.36 -2.583,-1.36 -3.137,0 -5.751,1.326 -7.494,3 z M 239.034,0 h 7.036 v 7.459 h 5.368 c 5.437,0 8.362,3.483 8.362,7.806 0,4.357 -2.925,7.979 -8.362,7.979 h -12.404 z m 13.627,15.333 c 0,-1.22 -0.943,-2.023 -2.128,-2.023 h -4.463 v 4.083 h 4.463 c 1.185,0 2.128,-0.803 2.128,-2.06 M 274.897,0 h 8.013 l -4.217,8.225 c 1.849,0.906 4.183,3.031 4.183,7.04 0,4.357 -2.928,7.979 -8.362,7.979 H 262.106 V 0 h 7.037 v 7.459 h 2.545 z m 0.837,15.371 c 0,-1.292 -1.117,-2.061 -2.303,-2.061 h -4.288 v 4.083 h 4.288 c 1.186,0 2.303,-0.768 2.303,-2.022 m 8.748,-3.766 c 0,-7.148 5.539,-12.022 12.719,-12.022 7.182,0 12.722,4.874 12.722,12.022 0,7.145 -5.54,12.021 -12.722,12.021 -7.18,0 -12.719,-4.876 -12.719,-12.021 m 18.299,0 c 0,-3.243 -2.198,-5.823 -5.58,-5.823 -3.38,0 -5.577,2.58 -5.577,5.823 0,3.243 2.197,5.822 5.577,5.822 3.382,0 5.58,-2.579 5.58,-5.822 M 312.435,0 h 7.036 v 8.819 h 10.354 v 5.851 h -10.354 v 2.723 h 10.596 v 5.851 h -17.632 z m 20.635,0 h 17.63 v 5.851 h -10.593 v 2.968 h 10.351 v 5.851 h -10.351 v 2.723 H 350.7 v 5.851 h -17.63 z m 18.996,3.274 c 2.475,-2.229 5.854,-3.691 10.802,-3.691 6.24,0 10.037,2.959 10.037,8.082 0,5.368 -5.68,6.485 -9.514,7.148 -2.477,0.417 -3.417,0.731 -3.417,1.637 0,0.595 0.383,1.22 2.126,1.22 1.848,0 4.465,-0.765 6.485,-2.299 l 3.763,4.982 c -2.649,2.16 -6.063,3.239 -9.863,3.239 -6.379,0 -9.653,-3.588 -9.653,-7.525 0,-5.822 5.851,-6.728 9.688,-7.425 2.303,-0.42 3.277,-0.874 3.277,-1.78 0,-0.905 -1.255,-1.36 -2.58,-1.36 -3.14,0 -5.751,1.326 -7.494,3 z m 21.365,0 c 2.474,-2.229 5.853,-3.691 10.801,-3.691 6.24,0 10.037,2.959 10.037,8.082 0,5.368 -5.677,6.485 -9.511,7.148 -2.477,0.417 -3.42,0.731 -3.42,1.637 0,0.595 0.383,1.22 2.129,1.22 1.848,0 4.463,-0.765 6.482,-2.299 l 3.763,4.982 c -2.646,2.16 -6.059,3.239 -9.862,3.239 -6.377,0 -9.651,-3.588 -9.651,-7.525 0,-5.822 5.851,-6.728 9.685,-7.425 2.303,-0.42 3.28,-0.874 3.28,-1.78 0,-0.905 -1.257,-1.36 -2.583,-1.36 -3.137,0 -5.751,1.326 -7.491,3 z M 396.575,0 h 7.037 v 23.244 h -7.037 z m 9.551,11.605 c 0,-7.148 5.536,-12.022 12.719,-12.022 7.179,0 12.718,4.874 12.718,12.022 0,7.145 -5.539,12.021 -12.718,12.021 -7.183,0 -12.719,-4.876 -12.719,-12.021 m 18.299,0 c 0,-3.243 -2.197,-5.823 -5.58,-5.823 -3.383,0 -5.58,2.58 -5.58,5.823 0,3.243 2.197,5.822 5.58,5.822 3.383,0 5.58,-2.579 5.58,-5.822 M 449.691,0 h 6.76 v 23.244 h -7.036 V 11.536 l -8.092,11.708 h -7.245 V 0 h 7.037 v 12.476 z m 26.142,0 h 6.759 v 23.244 h -7.036 V 11.536 l -8.092,11.708 h -7.245 V 0 h 7.037 v 12.476 z m 10.528,0 h 17.633 v 5.851 h -10.597 v 2.968 h 10.351 v 5.851 h -10.351 v 2.723 h 10.597 v 5.851 h -17.633 z m 20.773,0 h 15.856 v 6.131 h -8.82 v 17.113 h -7.036 z m 16.904,3.274 c 2.474,-2.229 5.854,-3.691 10.802,-3.691 6.24,0 10.036,2.959 10.036,8.082 0,5.368 -5.676,6.485 -9.513,7.148 -2.474,0.417 -3.417,0.731 -3.417,1.637 0,0.595 0.383,1.22 2.129,1.22 1.848,0 4.462,-0.765 6.482,-2.299 l 3.762,4.982 c -2.648,2.16 -6.062,3.239 -9.861,3.239 -6.38,0 -9.654,-3.588 -9.654,-7.525 0,-5.822 5.854,-6.728 9.688,-7.425 2.302,-0.42 3.28,-0.874 3.28,-1.78 0,-0.905 -1.257,-1.36 -2.583,-1.36 -3.137,0 -5.752,1.326 -7.494,3 z" style="fill:#231f20;fill-opacity:1;fill-rule:nonzero;stroke:none" id="path240"/></g></g></g>
        <g id="g242"><g id="g244"><g id="g250" transform="translate(737.3652,388.2216)"><path d="M 0,0 H 1.166 C 2.527,0 3.629,0.454 3.629,1.553 3.629,2.527 2.915,3.176 1.361,3.176 0.712,3.176 0.258,3.11 0,3.044 Z M -0.063,-6.025 H -2.527 V 4.6 c 0.973,0.195 2.332,0.324 4.083,0.324 2.007,0 2.915,-0.324 3.693,-0.778 0.583,-0.453 1.037,-1.295 1.037,-2.332 0,-1.165 -0.908,-2.073 -2.203,-2.463 v -0.129 c 1.034,-0.388 1.62,-1.166 1.941,-2.591 0.325,-1.619 0.52,-2.268 0.779,-2.656 H 4.146 c -0.324,0.388 -0.517,1.358 -0.841,2.59 -0.195,1.166 -0.844,1.686 -2.202,1.686 h -1.166 z m -6.544,5.571 c 0,-4.729 3.497,-8.488 8.293,-8.488 4.663,0 8.097,3.759 8.097,8.422 0,4.732 -3.434,8.554 -8.163,8.554 -4.73,0 -8.227,-3.822 -8.227,-8.488 m 19.112,0 c 0,-6.025 -4.729,-10.754 -10.885,-10.754 -6.091,0 -10.95,4.729 -10.95,10.754 0,5.895 4.859,10.625 10.95,10.625 6.156,0 10.885,-4.73 10.885,-10.625" style="fill:#ed1c24;fill-opacity:1;fill-rule:nonzero;stroke:none" id="path252"/></g></g></g></g></svg>