<?xml version="1.0" encoding="utf-8"?>
<!-- Generator: Adobe Illustrator 24.1.0, SVG Export Plug-In . SVG Version: 6.00 Build 0)  -->
<svg version="1.1" id="Layer_1" xmlns="http://www.w3.org/2000/svg" xmlns:xlink="http://www.w3.org/1999/xlink" x="0px" y="0px"
	 viewBox="0 0 1369.6 889.5" style="enable-background:new 0 0 1369.6 889.5;" xml:space="preserve">
<style type="text/css">
	.st0{fill:#282830;}
</style>
<g>
	<path class="st0" d="M686.4,15.5c-361,0-653.6,189.2-653.6,422.7s292.6,422.7,653.6,422.7S1340,671.7,1340,438.2
		S1047.4,15.5,686.4,15.5z M686.4,679.4c-53.7,0-97.5-105.7-100.3-238.7c32.4,2.9,65.9,4.4,100.3,4.4s67.9-1.5,100.3-4.4
		C783.9,573.8,740.1,679.4,686.4,679.4z M592.8,335.2c14.6-94,51-160.6,93.6-160.6s79,66.6,93.6,160.6c-29.9,2.7-61.3,4.2-93.6,4.2
		C654.1,339.3,622.7,337.9,592.8,335.2z M686.4,76.8c-70.2,0-129.9,104.9-152,251.3c-132.9-20.8-225.7-67.9-225.7-122.7
		c0-74,169.1-134,377.6-134s377.6,60,377.6,134c0,54.8-92.8,102-225.7,122.7C816.3,181.7,756.6,76.8,686.4,76.8z M126.6,422.4
		c0-71.6,27.5-138.8,75.6-196.5c-0.6,4.1-0.8,8.1-0.8,12.2c0,90.3,135.4,167.1,324.2,195.4c-0.1,6.6-0.2,13.2-0.2,19.8
		c0,168.2,47.2,310.6,112.3,359C351.3,795,126.6,627,126.6,422.4z M735.2,812.3c65.1-48.3,112.3-190.8,112.3-359
		c0-6.6-0.1-13.2-0.2-19.8c188.8-28.3,324.2-105.1,324.2-195.4c0-4.1-0.3-8.2-0.8-12.2c48.1,57.8,75.6,124.9,75.6,196.5
		C1246.3,627,1021.6,795,735.2,812.3z"/>
</g>
</svg>
