<?xml version="1.0" encoding="UTF-8" standalone="no"?>
<svg
   xmlns:dc="http://purl.org/dc/elements/1.1/"
   xmlns:cc="http://creativecommons.org/ns#"
   xmlns:rdf="http://www.w3.org/1999/02/22-rdf-syntax-ns#"
   xmlns:svg="http://www.w3.org/2000/svg"
   xmlns="http://www.w3.org/2000/svg"
   viewBox="0 0 1809.2267 1170.04"
   height="1170.04"
   width="1809.2267"
   xml:space="preserve"
   id="svg2"
   version="1.1"><metadata
     id="metadata8"><rdf:RDF><cc:Work
         rdf:about=""><dc:format>image/svg+xml</dc:format><dc:type
           rdf:resource="http://purl.org/dc/dcmitype/StillImage" /></cc:Work></rdf:RDF></metadata><defs
     id="defs6" /><g
     transform="matrix(1.3333333,0,0,-1.3333333,0,1170.04)"
     id="g10"><g
       transform="scale(0.1)"
       id="g12"><path
         id="path14"
         style="fill:#1b1d26;fill-opacity:1;fill-rule:nonzero;stroke:none"
         d="m 7290.99,504.922 c 675.94,501.518 1165.74,1980.148 1165.74,3726.278 0,68.9 -0.78,137.38 -2.28,205.41 1960.35,294.05 3365.75,1091.27 3365.75,2028.62 0,42.68 -3,85.05 -8.7,127.1 499,-599.54 784.9,-1296.45 784.9,-2040.06 0,-2124.44 -2332.8,-3867.981 -5305.41,-4047.348 z M 972.809,4552.27 c 0,743.61 285.891,1440.52 784.901,2040.06 -5.74,-42.05 -8.75,-84.42 -8.75,-127.1 0,-937.35 1405.42,-1734.57 3365.77,-2028.62 -1.5,-68.03 -2.27,-136.51 -2.27,-205.41 0,-1746.13 489.79,-3224.76 1165.73,-3726.278 C 3305.56,684.289 972.809,2427.82 972.809,4552.27 Z M 6784.59,8140.01 c -728.47,0 -1348.14,-1088.95 -1577.38,-2608.48 -1379.59,215.44 -2342.87,704.82 -2342.87,1274.06 0,768.38 1755.16,1391.29 3920.25,1391.29 2165.09,0 3920.21,-622.91 3920.21,-1391.29 0,-569.24 -963.24,-1058.62 -2342.83,-1274.06 -229.24,1519.53 -848.91,2608.48 -1577.38,2608.48 z M 5812.8,5457.4 c 151.74,976.11 529.61,1667.63 971.79,1667.63 442.18,0 820.06,-691.52 971.79,-1667.63 -310.76,-28.13 -636.34,-43.09 -971.79,-43.09 -335.44,0 -661.03,14.96 -971.79,43.09 z m 971.79,-3573.87 c -556.96,0 -1011.91,1097.06 -1041.39,2478.13 336.03,-30.17 684.36,-46.07 1041.39,-46.07 357.04,0 705.37,15.9 1041.39,46.07 C 7796.5,2980.59 7341.55,1883.53 6784.59,1883.53 Z m 0,6891.81 C 3037.57,8775.34 -0.00390625,6810.91 -0.00390625,4387.67 -0.00390625,1964.43 3037.57,0 6784.59,0 c 3747.01,0 6784.61,1964.43 6784.61,4387.67 0,2423.24 -3037.6,4387.67 -6784.61,4387.67" /></g></g></svg>