<svg width="408" height="68" viewBox="0 0 408 68" fill="none" xmlns="http://www.w3.org/2000/svg">
<path d="M75.7679 3.63563C69.3211 1.56779 61.2687 0.327087 52.5595 0.327087C43.8502 0.327087 35.7978 1.54346 29.351 3.63563C12.1758 9.15797 0.376953 20.6162 0.376953 33.8747C0.376953 52.5096 23.7314 67.6413 52.5595 67.6413C81.3876 67.6413 104.742 52.5339 104.742 33.8747C104.742 20.6162 92.9431 9.15797 75.7679 3.63563ZM52.5595 53.1178C48.2535 53.1178 44.7503 44.6518 44.5314 34.045C47.1101 34.2883 49.8105 34.4099 52.5595 34.4099C55.3085 34.4099 57.9845 34.2883 60.5875 34.045C60.3686 44.6761 56.8654 53.1178 52.5595 53.1178ZM45.0909 25.725C46.2586 18.2565 49.1779 12.9774 52.5595 12.9774C55.941 12.9774 58.8603 18.2565 60.028 25.725C57.6439 25.9439 55.1382 26.0656 52.5595 26.0656C49.9807 26.0656 47.475 25.9439 45.0909 25.725ZM64.6016 25.1655C62.85 13.4639 58.1305 5.07095 52.5595 5.07095C46.9885 5.07095 42.2446 13.4639 40.5173 25.1655C29.9105 23.5112 22.515 19.7404 22.515 15.3615C22.515 9.4499 35.9681 4.65738 52.5838 4.65738C69.1995 4.65738 82.6283 9.4499 82.6283 15.3615C82.6283 19.7404 75.2084 23.5112 64.6259 25.1655M7.99146 32.634C7.99146 26.917 10.1809 21.565 14.0247 16.9428C13.976 17.259 13.9517 17.5753 13.9517 17.9159C13.9517 25.1168 24.7531 31.223 39.8118 33.4611C39.8118 33.9964 39.8118 34.5559 39.8118 35.0911C39.8118 48.4712 43.5096 59.7835 48.6427 63.6759C25.8722 62.2892 7.99146 48.9091 7.99146 32.6097M56.5005 63.6759C61.6336 59.7835 65.3314 48.4469 65.3314 35.0911C65.3314 34.5316 65.3314 33.9964 65.3314 33.4611C80.3901 31.223 91.1915 25.0925 91.1915 17.9159C91.1915 17.5996 91.1672 17.259 91.1186 16.9428C94.9623 21.5407 97.1518 26.917 97.1518 32.634C97.1518 48.9334 79.2954 62.3136 56.5005 63.7002" fill="black"/>
<path d="M160.406 9.9609H119.098V19.0837H134.351V58.0321H145.177L145.152 19.0837H160.406V9.9609Z" fill="black"/>
<path d="M188.329 8.50286C174.244 8.50286 162.834 19.9125 162.834 33.9981C162.834 48.0837 174.244 59.4933 188.329 59.4933C202.415 59.4933 213.825 48.0837 213.825 33.9981C213.825 19.9125 202.415 8.50286 188.329 8.50286ZM200.809 41.7099C199.155 45.9186 195.384 49.0811 190.835 49.884C190.032 50.0299 189.181 50.1029 188.329 50.1029C187.478 50.1029 186.626 50.0299 185.824 49.884C181.25 49.0811 177.504 45.9186 175.849 41.7099C174.901 39.3258 174.39 36.7228 174.39 33.9981C174.39 31.2734 174.901 28.6704 175.849 26.2863C177.504 22.0776 181.274 18.915 185.824 18.1122C186.626 17.9663 187.478 17.8933 188.329 17.8933C189.181 17.8933 190.032 17.9663 190.835 18.1122C195.409 18.915 199.155 22.0776 200.809 26.2863C201.758 28.6704 202.269 31.2734 202.269 33.9981C202.269 36.7228 201.758 39.3258 200.809 41.7099Z" fill="black"/>
<path d="M213.972 9.9609H226.719L238.616 30.6393L250.536 9.9609H263.259L244.041 40.2486V58.0321H233.215V40.2486L213.972 9.9609Z" fill="black"/>
<path d="M263.477 33.9981C263.477 19.9368 274.886 8.50286 288.972 8.50286C303.057 8.50286 314.443 19.9125 314.443 33.9981C314.443 48.0837 303.033 59.4933 288.972 59.4933C274.911 59.4933 263.477 48.0837 263.477 33.9981ZM288.972 50.1029C289.823 50.1029 290.675 50.0299 291.478 49.884C296.051 49.0811 299.798 45.9186 301.452 41.7099C302.401 39.3258 302.911 36.7228 302.911 33.9981C302.911 31.2734 302.401 28.6704 301.452 26.2863C299.798 22.0776 296.027 18.915 291.478 18.1122C290.675 17.9663 289.823 17.8933 288.972 17.8933C288.12 17.8933 287.269 17.9663 286.466 18.1122C281.893 18.915 278.122 22.0776 276.492 26.2863C275.543 28.6704 275.032 31.2734 275.032 33.9981C275.032 36.7228 275.543 39.3258 276.492 41.7099C278.146 45.9186 281.917 49.0811 286.466 49.884C287.269 50.0299 288.12 50.1029 288.972 50.1029Z" fill="black"/>
<path d="M391.394 47.4248H370.91L366.969 58.0073H354.951L374.438 9.91182H387.891L407.377 58.0073H395.359L391.394 47.4248ZM388.256 39.0075L381.176 20.0077L374.073 39.0075H388.256Z" fill="black"/>
<path d="M358.11 9.9609H316.802V19.0837H332.055V58.0321H342.881L342.856 19.0837H358.11V9.9609Z" fill="black"/>
</svg>
