<svg xmlns="http://www.w3.org/2000/svg" width="118" height="20" viewBox="0 0 118 20">
    <defs>
        <filter id="uwgov50rsa">
            <feColorMatrix in="SourceGraphic" values="0 0 0 0 0.999902 0 0 0 0 1.000000 0 0 0 0 0.999880 0 0 0 1.000000 0"/>
        </filter>
    </defs>
    <g fill="none" fill-rule="evenodd">
        <g>
            <g>
                <g filter="url(#uwgov50rsa)" transform="translate(-911 -1033) translate(0 430) translate(911 603)">
                    <g>
                        <path fill="#000D07" d="M16.26 18.46c1.485-1.137 2.56-4.435 2.56-8.329 0-.16-.002-.318-.006-.477C23.176 9 26.306 7.22 26.306 5.126c0-.095-.008-.189-.02-.282 1.111 1.342 1.75 2.903 1.75 4.567 0 4.749-5.177 8.644-11.776 9.05M2.207 9.41c0-1.664.637-3.225 1.75-4.567-.013.093-.02.187-.02.282 0 2.094 3.13 3.874 7.492 4.528-.003.159-.006.317-.006.477 0 3.894 1.074 7.192 2.56 8.33-6.6-.406-11.776-4.301-11.776-9.05m16.405-2.18c-.506-3.41-1.877-5.854-3.49-5.854-1.613 0-2.985 2.444-3.491 5.855-3.072-.482-5.218-1.58-5.218-2.858 0-1.722 3.899-3.118 8.709-3.118s8.708 1.396 8.708 3.118c0 1.278-2.147 2.376-5.218 2.858m-5.657.163c.34-2.172 1.181-3.711 2.167-3.711.984 0 1.826 1.539 2.165 3.711-.692.063-1.417.098-2.165.098s-1.474-.035-2.167-.098m2.167 7.982c-1.247 0-2.264-2.463-2.324-5.558.75.068 1.527.104 2.324.104.797 0 1.573-.036 2.323-.104-.06 3.095-1.077 5.558-2.323 5.558M21.846.962C19.974.357 17.646 0 15.122 0c-2.525 0-4.853.357-6.725.962C3.42 2.571 0 5.912 0 9.772c0 5.43 6.77 9.834 15.122 9.834 8.35 0 15.12-4.404 15.12-9.834 0-3.86-3.42-7.2-8.396-8.81M46.369 2.803L34.398 2.803 34.398 5.464 38.817 5.464 38.816 16.811 41.951 16.811 41.951 5.464 46.369 5.464zM58.075 12.054c-.478 1.227-1.57 2.146-2.892 2.38-.235.042-.48.065-.727.065s-.491-.023-.726-.064c-1.322-.235-2.414-1.154-2.893-2.381-.271-.695-.423-1.454-.423-2.248 0-.794.152-1.552.423-2.248.48-1.226 1.571-2.145 2.893-2.38.235-.042.48-.065.726-.065.248 0 .492.023.727.066 1.322.234 2.414 1.153 2.892 2.379.273.696.423 1.454.423 2.248 0 .794-.15 1.553-.423 2.248m-3.619-9.672c-4.078 0-7.385 3.324-7.385 7.424 0 4.1 3.307 7.424 7.385 7.424 4.078 0 7.385-3.325 7.385-7.424 0-4.1-3.307-7.424-7.385-7.424M61.891 2.803L65.583 2.803 69.031 8.825 72.48 2.803 76.17 2.803 70.598 11.628 70.598 16.81 67.464 16.81 67.464 11.628zM83.615 14.5c.246 0 .49-.024.725-.064 1.323-.235 2.414-1.155 2.893-2.381.272-.696.422-1.454.422-2.249 0-.792-.15-1.551-.422-2.247-.48-1.227-1.57-2.146-2.893-2.38-.235-.042-.479-.065-.725-.065-.248 0-.492.023-.727.065-1.323.234-2.415 1.153-2.893 2.38-.272.696-.423 1.455-.423 2.247 0 .795.15 1.553.423 2.249.478 1.226 1.57 2.146 2.893 2.38.235.041.48.065.727.065m-7.386-4.694c0-4.099 3.306-7.423 7.386-7.423 4.077 0 7.383 3.324 7.383 7.423 0 4.1-3.306 7.425-7.383 7.425-4.08 0-7.386-3.325-7.386-7.425M112.382 11.266l-2.052-5.532-2.056 5.532h4.108zm.912 2.452l-5.933.001-1.141 3.081h-3.485l5.643-14.006h3.9l5.647 14.006h-3.485l-1.146-3.081zM103.655 2.803L91.682 2.803 91.682 5.464 96.102 5.464 96.102 16.811 99.236 16.811 99.235 5.464 103.655 5.464z" transform="translate(.07 .162)"/>
                    </g>
                </g>
            </g>
        </g>
    </g>
</svg>
