<svg width="115" height="32" viewBox="0 0 115 32" fill="none" xmlns="http://www.w3.org/2000/svg">
<path d="M59.1595 30.4545C61.6847 31.5226 62.8542 31.3337 64.8445 29.5303C65.7671 28.6937 67.4368 26.6671 69.4941 23.3992C69.3912 24.4074 69.2405 25.8546 69.1892 26.2301C69.0346 27.372 68.9474 28.56 69.762 29.4633C70.5059 30.2963 71.6103 30.4012 72.3727 30.4048H72.4777C72.6287 30.3961 76.114 30.2091 77.3982 30.0344C79.6083 29.7449 80.179 29.0558 80.6867 27.5092L80.8014 27.168C81.4751 25.2085 81.9828 22.901 82.3634 20.5707C82.802 22.2731 83.8702 23.7203 85.4286 24.6326C87.8153 26.0297 90.86 25.9406 93.5705 24.3944C94.7451 23.7242 95.6879 22.8498 96.444 21.8637C96.5209 21.9887 96.5986 22.0972 96.67 22.1982L96.7319 22.2822C97.6423 23.5767 100.577 26.1023 105.172 26.4344C106.79 26.5531 109.833 26.4589 112.004 24.5076C112.557 24.0153 113.885 22.6407 114.323 20.5896C114.656 19.0194 114.375 17.4697 113.535 16.228C112.959 15.3776 112.218 14.6731 111.426 14.083C111.694 13.9544 111.961 13.7746 112.223 13.5363C113.442 12.4134 114.057 10.5343 112.979 9.32731C110.003 5.98407 104.995 5.55532 102.062 7.07271C100.839 7.70184 99.8945 8.46665 99.2117 9.38056C98.7952 8.45639 97.8987 7.86316 96.741 7.81031C96.304 7.79137 95.5447 7.83437 94.9822 7.88209C93.5764 8.00042 92.5663 8.9948 92.4038 10.3872C92.1655 9.9446 91.7952 9.57462 91.3065 9.3277C90.9274 9.13758 90.3279 8.91788 89.5185 8.6331C89.5256 8.6331 88.8018 8.37238 88.8018 8.37238C88.8089 8.37593 88.8191 8.38105 88.8274 8.38105C87.2864 7.7965 85.8802 8.22841 84.9785 9.5691C84.5636 10.1848 83.8453 11.3776 83.2331 13.0563C83.4662 9.98917 83.5108 7.74838 83.5144 7.5342C83.5144 7.55826 83.5108 7.58232 83.5108 7.60441C83.6512 5.43738 82.8454 4.12588 80.7265 3.068C73.7324 -0.412504 67.1484 -0.469303 63.322 0.638274C59.3394 1.79397 56.3649 4.96051 55.6893 8.74788C52.3709 6.92046 49.3108 7.1157 47.2113 8.08602C47.2432 7.64346 47.1726 7.15318 46.8425 6.69721C46.2177 5.83142 45.1271 5.77817 44.7164 5.75963C43.4905 5.6981 42.4047 5.6981 41.8651 5.6981C41.7984 5.70323 41.7108 5.6981 41.6174 5.69297C41.0293 5.66536 39.6507 5.60383 38.8547 6.96503C38.8468 6.97371 38.8417 6.98751 38.835 6.99777C38.2015 8.15347 37.4695 9.4409 36.9236 10.3682L34.2146 6.95793C34.198 6.939 34.1759 6.91178 34.1578 6.89285L34.1243 6.8534C33.3452 5.96553 32.3738 5.78369 31.0701 6.28265C30.159 6.63607 28.8593 7.17763 27.9943 7.60126C27.6393 7.77283 26.8106 8.17713 26.5669 9.10485C26.5069 9.3277 26.4931 9.54188 26.5089 9.74778C25.7295 9.39436 24.887 9.15099 23.9944 9.02754C22.5799 8.8319 21.1836 8.95733 19.8985 9.36005C19.908 8.70331 19.5849 6.82067 19.2718 6.21245C19.2666 6.20219 19.2513 6.1663 19.2386 6.14026C18.6572 4.85282 17.5832 4.3231 16.0453 4.58185C10.7133 5.45592 8.79831 5.55571 2.92555 5.60344C0.81058 5.62237 0.282824 6.87707 0.154238 7.41548C-0.0421914 8.22486 -0.0350915 11.8063 0.0863948 12.5897C0.420088 14.7346 2.46682 14.6968 3.13894 14.6814C4.13923 14.6644 4.84408 14.6199 5.40892 14.5871C5.5024 14.584 5.58799 14.5788 5.672 14.5733C5.78876 16.3514 6.30823 20.3526 7.27342 24.2224L7.28367 24.2603C7.9053 26.7752 9.98911 26.5472 10.6139 26.4151C11.3535 26.2624 13.9339 25.5651 14.8998 25.2034C15.7999 24.8638 16.3561 24.0989 16.3896 23.1491C16.3912 23.0774 16.3912 23.002 16.388 22.9298C16.9134 23.4477 17.5169 23.9001 18.1934 24.2756C20.1805 25.3726 22.7014 25.6936 24.7718 25.0969C26.1791 24.6941 27.3699 24.1281 28.3422 23.4047C28.5197 23.7562 28.7572 24.0559 28.9619 24.2926C29.3654 24.7557 31.4898 27.0955 33.6158 27.3803C34.3657 27.4852 34.7644 27.3515 35.2452 27.1523L35.2942 27.1333C36.8518 26.4924 39.0496 23.8895 41.8288 19.3894C41.9444 19.2004 42.0619 19.0103 42.1759 18.8202C42.0378 19.1665 41.9459 19.5148 41.9057 19.8315C41.7515 21.059 42.3865 21.7635 42.8803 22.1922C42.8788 22.1871 43.0464 22.3342 43.0464 22.3342C44.137 23.2947 46.407 25.2917 50.6117 25.4787C51.0018 25.4925 52.3855 25.5059 53.8899 24.9939C53.8686 25.9623 54.5079 26.6912 54.7257 26.9397C54.7343 26.9535 54.743 26.9621 54.7533 26.9724C55.0029 27.243 57.2564 29.64 59.1595 30.4545Z" fill="white"/>
<path d="M79.9881 4.45138C73.7616 1.3519 67.6115 1.02255 63.7851 2.13013C56.7128 4.18238 54.5202 12.8608 61.0725 17.1128C61.469 17.37 61.2201 17.9115 60.7227 18.7777C60.1089 19.8525 58.969 21.9699 56.9582 23.4959C55.7453 24.4181 54.9592 24.7988 55.9559 25.9355C55.9559 25.9355 58.1719 28.329 59.8076 29.0267C61.781 29.8598 62.2748 29.7213 63.7437 28.3925C64.6663 27.5578 66.4968 25.2741 68.7053 21.6413C69.8503 19.752 71.3831 19.7157 71.1741 22.8242C71.1741 22.8242 70.8723 25.816 70.7899 26.4345C70.543 28.2177 70.735 28.8366 72.3877 28.852C72.3877 28.852 75.942 28.6603 77.1746 28.4938C78.9097 28.2659 78.8155 27.9949 79.2699 26.6731C81.6976 19.6198 81.9035 7.51063 81.9035 7.51063C82.0061 5.88989 81.4748 5.19371 79.9881 4.45138ZM75.4415 10.9817C75.4415 10.9817 73.237 12.4423 73.1817 12.4801C72.9948 12.6225 72.7376 12.7886 72.7033 13.4642C72.6899 13.7455 72.6039 15.7394 72.5988 15.9863C72.5936 16.262 72.4702 17.0134 71.5716 16.2466C71.5716 16.2466 70.0696 14.9761 69.8468 14.786C69.7971 14.745 69.2808 14.1825 68.4785 14.5166L66.1265 15.4234C66.1265 15.4234 64.71 15.9808 65.2382 14.7533C65.7494 13.5601 66.0921 12.5657 66.205 12.2466C66.3217 11.9141 66.2803 11.4443 65.9943 11.115C65.8622 10.9675 64.7345 9.52738 64.475 9.17081C64.475 9.17081 63.5476 8.10426 65.0938 8.17644C65.0938 8.17644 67.7342 8.23284 67.7752 8.23797C67.8198 8.24152 68.3136 8.27386 68.667 7.73743C69.1025 7.07754 70.3781 5.53095 70.1122 5.85834C70.3351 5.58933 70.853 4.91366 71.1958 6.03149C71.1958 6.03149 71.6809 7.5059 71.9109 8.12319C72.0686 8.54169 72.168 8.82765 72.9534 9.06944L75.3791 9.9163C75.3791 9.9163 76.5131 10.2547 75.4415 10.9817Z" fill="#004EBC"/>
<path d="M28.8712 13.8414C27.7403 12.0294 25.9283 10.8634 23.7687 10.5688C21.0112 10.1933 18.3425 11.2839 16.8046 13.4044C15.6757 14.9679 15.312 16.847 15.7846 18.702C16.9205 23.1714 21.4676 24.4178 24.3135 23.6049C27.5246 22.6862 29.3204 20.8703 29.8084 18.0638C30.0423 16.7097 29.7011 15.1734 28.8712 13.8414ZM21.0515 19.8798C20.1522 19.5899 19.4836 18.2066 19.8086 16.7046C20.1317 15.2006 21.2254 14.1585 22.2415 14.469C23.144 14.7482 23.8074 16.2179 23.4938 17.7231C23.1578 19.3245 22.0821 20.2143 21.0515 19.8798Z" fill="#FF7000"/>
<path d="M86.3299 10.4211C86.0696 10.8068 84.0153 13.8156 83.7582 18.4431C83.6465 20.5005 84.5829 22.3141 86.266 23.2998C88.1329 24.3936 90.5575 24.3044 92.7486 23.0513C97.455 20.3613 97.9831 13.5876 97.851 10.5307C97.8218 9.82273 97.3915 9.39911 96.6696 9.36834C96.3939 9.35453 95.7971 9.37544 95.1235 9.43184C94.4395 9.48825 94.0297 9.94974 93.9973 10.6972L93.9902 10.896C93.9595 13.7351 93.7603 16.2572 92.4815 17.8069C91.6449 18.8309 90.6454 19.2387 89.9871 18.9729C89.399 18.7397 89.0219 17.9785 89.1142 17.1983C89.3386 15.2577 90.1879 13.7316 90.7125 12.7562L90.9369 12.3329C91.2576 11.6762 91.0963 10.9768 90.5579 10.7074C90.2459 10.5497 89.5651 10.3063 88.9635 10.0917L88.2382 9.83101C87.7223 9.63577 86.961 9.48312 86.3299 10.4211Z" fill="#66BC29"/>
<path d="M102.823 8.44272C100.779 9.49902 99.73 10.9407 99.5143 12.9807C99.2208 15.7327 103.097 17.6508 104.02 18.1344C105.131 18.7186 105.172 19.3942 104.884 19.7958C104.429 20.4233 103.171 20.2466 102.243 19.8849C101.225 19.496 100.707 19.0243 99.8689 18.0831C99.3766 17.5313 97.8817 19.1118 97.6486 20.2143C97.5409 20.718 97.7444 20.9566 98.062 21.4071C98.8761 22.5592 101.496 24.6079 105.293 24.884C106.341 24.9609 109.067 25.0213 110.906 23.3666C111.65 22.7012 112.461 21.594 112.742 20.2754C112.934 19.3615 112.921 18.1683 112.184 17.0793C111.15 15.5485 109.427 14.5352 107.513 13.6643C104.722 12.3938 105.26 11.6428 105.884 11.2969C106.471 10.9679 108.456 11.199 110.013 12.6273C110.801 13.3507 112.437 11.1048 111.758 10.3404C109.273 7.55445 105.052 7.29215 102.823 8.44272Z" fill="#F01446"/>
<path d="M45.4473 8.63615C43.8916 13.5035 37.2541 24.6321 34.6626 25.6983C34.2958 25.8493 34.222 25.8919 33.8414 25.8403C32.4648 25.6486 30.7494 23.9269 30.1984 23.291C29.9523 23.0098 29.4225 22.3621 29.8485 22.0186C31.4677 20.728 33.4781 18.7578 33.574 17.6025C33.5953 17.3504 33.5164 17.0846 33.4229 16.9595C33.2722 16.7588 29.0656 11.2158 28.6423 10.6261C27.9264 9.61278 27.93 9.37454 28.7236 8.98878C29.5164 8.59947 30.7794 8.07172 31.6641 7.72856C32.5504 7.39092 32.6857 7.62916 32.9354 7.90881L36.7062 12.6507C36.978 12.8361 37.2241 12.7844 37.4221 12.5513C37.9037 11.9837 39.9398 8.30798 40.2593 7.72856C40.6348 7.08562 41.2544 7.26233 41.8776 7.25878C42.5395 7.25365 43.5631 7.26233 44.6348 7.31361C45.665 7.36725 45.7593 7.65716 45.4473 8.63615Z" fill="#66BC29"/>
<path d="M47.3339 9.79356C45.6367 10.8499 44.8293 12.1767 44.7906 13.9631C44.7358 16.3755 48.0786 17.9734 48.918 18.3347C49.925 18.7686 50.0674 19.2865 49.8867 19.6754C49.6236 20.2548 49.0237 20.3609 48.3188 20.2189C47.0409 19.9566 46.0437 18.8388 45.0383 18.2763C44.4691 17.9643 43.6298 19.0478 43.5075 20.0237C43.4507 20.4658 43.588 20.7143 43.9548 21.0263C44.8959 21.844 46.8358 23.7523 50.6839 23.9223C51.5986 23.9617 53.9758 23.7799 55.4534 22.2199C56.0525 21.5872 56.6801 20.7506 56.8276 19.5846C56.927 18.7824 56.742 17.8034 56.1086 16.8469C55.5788 16.0481 54.6109 15.249 52.9152 14.5445C50.1644 13.4129 51.0333 12.271 51.6861 12.0568C52.2451 11.8718 53.2237 12.0158 54.8519 12.9948C55.7346 13.5261 56.9033 11.4399 56.1752 10.9169C52.5235 8.28642 49.1901 8.64141 47.3339 9.79356Z" fill="#F01446"/>
<path d="M2.94091 7.15826C8.91149 7.11211 10.9302 6.99693 16.3162 6.11261C17.5303 5.91184 17.6297 6.51533 17.8281 6.90306C17.9926 7.22531 18.3089 8.90876 18.2876 9.34107C18.2651 9.76942 18.4797 10.397 17.7528 10.6013C15.4848 11.234 14.8903 11.4312 13.3844 11.8769C12.689 12.0859 12.7328 12.3774 12.7525 12.9091C12.8594 15.8579 13.8411 19.7565 14.5361 21.9354C14.8292 22.8544 14.9606 23.5092 14.3184 23.7526C13.4262 24.08 10.9385 24.7556 10.2715 24.8949C9.11659 25.1363 8.94975 24.2894 8.84088 23.8555C7.8611 19.9333 7.37516 15.9384 7.2797 14.4451C7.23079 13.6838 6.98151 12.9707 6.26561 12.9896C5.5292 13.0034 4.7064 13.0941 3.10499 13.1233C2.24867 13.1422 1.79507 13.089 1.68108 12.3569C1.5659 11.6193 1.59785 8.28634 1.72368 7.76884C1.85068 7.24385 2.45733 7.16338 2.94091 7.15826Z" fill="#F01446"/>
<path d="M114.412 9.60262C114.412 10.23 113.888 10.739 113.236 10.739C112.59 10.739 112.064 10.23 112.064 9.60262C112.064 8.97882 112.59 8.47134 113.236 8.47134C113.888 8.47174 114.412 8.97882 114.412 9.60262Z" fill="white"/>
<path d="M114.203 9.6028C114.203 9.0902 113.771 8.67538 113.236 8.67538C112.705 8.67538 112.273 9.0902 112.273 9.6028C112.273 10.1221 112.705 10.5334 113.236 10.5334C113.771 10.5338 114.203 10.1221 114.203 9.6028Z" fill="#004EBC"/>
<path d="M114.085 9.60282C114.085 10.0551 113.706 10.4254 113.236 10.4254C112.77 10.4254 112.391 10.0551 112.391 9.60282C112.391 9.15725 112.77 8.78345 113.236 8.78345C113.706 8.78384 114.085 9.15725 114.085 9.60282Z" fill="white"/>
<path d="M112.857 10.1428V8.88812H113.251C113.375 8.88812 113.471 8.91533 113.536 8.96856C113.605 9.01982 113.637 9.09553 113.637 9.2016C113.637 9.3676 113.55 9.48629 113.375 9.55805L113.807 10.1424H113.581L113.212 9.61286H113.042V10.1424H112.857V10.1428ZM113.042 9.48274H113.101C113.334 9.48274 113.447 9.39008 113.447 9.2154C113.447 9.08685 113.351 9.01982 113.159 9.01982H113.042V9.48274Z" fill="#004EBC"/>
</svg>
