<svg width="190" height="85" viewBox="0 0 190 85" fill="none" xmlns="http://www.w3.org/2000/svg">
<g clip-path="url(#clip0_2431_290)">
<path d="M64.3764 59.0744C67.3941 59.0744 71.5294 58.851 71.9764 61.5312C72.1999 63.3179 71.9764 64.8813 72.0882 66.7797C72.5352 71.2466 74.7705 74.8201 77.7882 76.4951C83.4882 79.8453 92.0941 77.2768 98.1293 76.0484C107.518 74.0384 116.123 71.2466 125.847 70.0182C134.341 68.9015 143.729 70.1299 150.994 71.4699C155.353 72.2516 159.265 73.5917 163.176 74.9317C162.841 77.1652 162.618 79.3986 162.282 81.5203C156.694 80.0686 151.665 77.8352 145.071 77.0535C128.082 75.0434 112.994 79.0636 99.8058 82.6371C86.3941 86.2105 73.7646 86.6572 67.6176 75.4901C66.8352 74.0384 65.9411 72.1399 65.6058 70.2415C65.3823 69.1248 65.4941 67.8964 65.047 67.0031C64.8235 66.668 64.1529 66.2214 63.7058 66.2214C62.5882 65.998 58.2294 65.998 57.2235 65.998C52.9764 65.998 48.5058 66.668 44.8176 67.2264C33.8646 68.5665 23.9176 70.6882 13.6352 72.9216C9.38818 73.815 5.02936 75.3784 0.782301 76.2718C0.335242 76.3835 0.223478 76.2718 -0.111816 76.3835C0.223478 73.815 1.00583 71.5816 1.56465 69.0131C2.6823 68.6781 3.91171 68.3431 5.02936 68.0081C23.1352 63.7646 42.1352 59.1861 64.3764 59.0744Z" fill="white"/>
<path d="M59.4587 49.3589C66.3881 48.8006 75.4411 49.2472 79.1293 52.2624C81.0293 53.8258 81.9234 56.7292 82.2587 59.856C82.3705 61.9778 81.6999 64.7696 82.3705 66.4446C82.8175 67.7847 84.7175 68.4547 86.6175 68.2314C91.7587 67.673 96.8999 66.1096 101.482 64.9929C112.323 62.4245 126.07 58.6276 139.929 59.6327C149.653 60.4144 156.918 62.3128 164.741 64.6579C164.406 66.8913 164.07 69.1248 163.847 71.3582C162.618 71.0232 161.612 70.7998 160.382 70.3531C150.547 67.2263 136.688 64.6579 123.612 66.7797C118.135 67.673 113.106 69.3481 107.965 70.4648C102.376 71.5815 97.0116 72.8099 91.1999 73.9266C88.7411 74.3733 85.1646 75.155 82.1469 74.485C77.7881 73.4799 75.5528 70.1298 75.4411 64.8812C75.3293 62.7595 75.6646 60.5261 74.8822 58.9627C73.9881 57.0642 71.4175 56.0592 68.8469 55.7242C63.9293 55.1658 57.7822 55.8359 52.8646 56.1709C34.4234 57.5109 18.5528 61.1961 2.90576 65.1046C3.12929 63.8762 3.35282 62.7595 3.68811 61.4194C3.91164 60.4144 4.24694 59.2977 4.47047 58.181C7.93517 57.5109 11.2881 56.6176 14.8646 55.9475C29.0587 53.1557 43.4764 50.5873 59.4587 49.3589ZM177.594 40.9836C177.594 39.0851 179.047 37.6334 180.835 37.6334C182.623 37.6334 184.076 39.0851 184.076 40.9836C184.076 42.882 182.623 44.3337 180.835 44.3337C178.935 44.3337 177.594 42.9936 177.594 40.9836ZM180.835 45.0037C182.959 45.0037 184.859 43.3287 184.859 40.9836C184.859 38.6385 182.959 36.9634 180.835 36.9634C178.6 36.9634 176.812 38.6385 176.812 40.9836C176.812 43.3287 178.6 45.0037 180.835 45.0037ZM179.941 41.3186H180.723L181.953 43.3287H182.735L181.394 41.3186C182.065 41.2069 182.623 40.8719 182.623 40.0902C182.623 39.1968 182.065 38.7501 180.947 38.7501H179.159V43.3287H179.829V41.3186H179.941ZM179.941 40.7602V39.3085H180.947C181.394 39.3085 181.953 39.4202 181.953 39.9785C181.953 40.6485 181.394 40.7602 180.835 40.7602H179.941Z" fill="white"/>
<path d="M86.9527 55.054H87.9586V55.2774C87.9586 55.8357 88.1821 56.3941 88.5174 56.7291C88.8527 57.0641 89.4115 57.2875 89.9704 57.2875C90.5292 57.2875 91.088 57.0641 91.5351 56.7291C91.9821 56.2824 92.0939 55.8357 92.0939 55.2774C92.0939 54.8307 91.9821 54.4957 91.7586 54.1607C91.5351 53.8256 91.088 53.4906 90.5292 53.1556C90.4174 53.1556 90.3056 53.0439 90.0821 52.9323C89.4115 52.4856 88.8527 52.1506 88.5174 51.8156C88.2939 51.5922 88.1821 51.3689 88.0704 51.0339C87.9586 50.8105 87.9586 50.4755 87.9586 50.1405C87.9586 49.3588 88.2939 48.6888 88.8527 48.1304C89.4115 47.572 90.1939 47.237 90.9762 47.237C91.7586 47.237 92.4292 47.4604 92.8762 48.0187C93.3233 48.4654 93.6586 49.1354 93.6586 49.9171V50.2522H92.6527V50.0288C92.6527 49.4705 92.5409 49.0238 92.2056 48.6888C91.8703 48.3537 91.5351 48.2421 90.9762 48.2421C90.4174 48.2421 89.9703 48.4654 89.6351 48.8004C89.2998 49.1354 89.0762 49.5821 89.0762 50.0288C89.0762 50.6988 89.7468 51.4805 90.9762 52.1506C91.1998 52.2622 91.4233 52.3739 91.5351 52.4856C92.0939 52.8206 92.5409 53.1556 92.7645 53.6023C93.0998 54.049 93.2115 54.6073 93.2115 55.1657C93.2115 56.0591 92.8762 56.7291 92.2056 57.3991C91.5351 58.0692 90.7527 58.2925 89.8586 58.2925C88.9645 58.2925 88.1821 58.0692 87.7351 57.5108C87.1762 56.9524 86.9527 56.1707 86.9527 55.389V55.054ZM94.3292 57.9575L96.3409 47.3487H101.706L101.482 48.3537H97.1233L96.4527 52.1506H100.812L100.588 53.1556H96.2292L95.4468 57.0641H99.8056L99.5821 58.0692H94.3292V57.9575ZM104.5 53.714L107.517 48.1304L108.523 53.714H104.5ZM102.264 57.9575L104.053 54.719H108.859L109.529 57.9575H110.535L108.412 47.237H106.847L101.147 57.8458H102.264V57.9575ZM111.541 57.9575L113.553 47.3487H118.917L118.694 48.3537H114.335L113.664 52.1506H118.023L117.8 53.1556H113.441L112.547 58.0692H111.541V57.9575ZM121.041 51.0339C121.264 50.3638 121.712 49.8055 122.159 49.3588C122.606 48.9121 123.164 48.5771 123.612 48.4654C124.17 48.2421 124.729 48.1304 125.4 48.1304C126.517 48.1304 127.523 48.4654 128.194 49.1354C128.864 49.8055 129.2 50.8105 129.2 51.9272C129.2 53.4906 128.753 54.719 127.859 55.6124C126.964 56.6174 125.847 57.0641 124.394 57.0641C123.276 57.0641 122.27 56.7291 121.6 56.0591C120.929 55.389 120.594 54.4957 120.594 53.2673C120.706 52.5973 120.817 51.7039 121.041 51.0339ZM120.929 56.9524C121.823 57.8458 122.941 58.2925 124.394 58.2925C126.182 58.2925 127.635 57.7341 128.753 56.6174C129.87 55.5007 130.429 54.049 130.429 52.1506C130.429 50.6988 129.982 49.4705 129.088 48.5771C128.194 47.6837 127.076 47.237 125.623 47.237C124.841 47.237 124.059 47.3487 123.276 47.6837C122.606 47.9071 121.935 48.3537 121.376 48.9121C120.817 49.4705 120.37 50.1405 120.035 50.9222C119.7 51.7039 119.588 52.5973 119.588 53.4906C119.588 54.8307 120.035 56.0591 120.929 56.9524ZM133.112 51.0339C133.335 50.3638 133.782 49.8055 134.229 49.3588C134.676 48.9121 135.235 48.5771 135.682 48.4654C136.241 48.2421 136.8 48.1304 137.47 48.1304C138.588 48.1304 139.594 48.4654 140.264 49.1354C140.935 49.8055 141.27 50.8105 141.27 51.9272C141.27 53.4906 140.823 54.719 139.929 55.6124C139.035 56.6174 137.917 57.0641 136.464 57.0641C135.347 57.0641 134.341 56.7291 133.67 56.0591C133 55.389 132.664 54.4957 132.664 53.2673C132.664 52.5973 132.888 51.7039 133.112 51.0339ZM133 56.9524C133.894 57.8458 135.012 58.2925 136.464 58.2925C138.253 58.2925 139.706 57.7341 140.823 56.6174C141.941 55.5007 142.5 54.049 142.5 52.1506C142.5 50.6988 142.053 49.4705 141.159 48.5771C140.264 47.6837 139.147 47.237 137.694 47.237C136.912 47.237 136.129 47.3487 135.347 47.6837C134.676 47.9071 134.006 48.3537 133.447 48.9121C132.888 49.4705 132.441 50.1405 132.106 50.9222C131.77 51.7039 131.659 52.5973 131.659 53.4906C131.659 54.8307 132.106 56.0591 133 56.9524ZM150.659 49.2471C151.329 49.9171 151.664 50.8105 151.664 52.0389C151.664 53.4906 151.217 54.719 150.323 55.6124C149.429 56.5058 148.2 56.9524 146.635 56.9524H144.4L146.076 48.2421H147.864C149.094 48.2421 150.1 48.5771 150.659 49.2471ZM145.294 47.3487L143.282 57.9575H146.747C148.535 57.9575 149.988 57.3991 151.106 56.2824C152.223 55.1657 152.782 53.714 152.782 51.9272C152.782 50.4755 152.335 49.3588 151.553 48.5771C150.659 47.7954 149.541 47.3487 147.976 47.3487H145.294ZM153.676 55.054H154.682V55.2774C154.682 55.8357 154.906 56.3941 155.241 56.7291C155.576 57.0641 156.135 57.2875 156.694 57.2875C157.253 57.2875 157.812 57.0641 158.259 56.7291C158.706 56.2824 158.817 55.8357 158.817 55.2774C158.817 54.8307 158.706 54.4957 158.482 54.1607C158.259 53.8256 157.812 53.4906 157.253 53.1556C157.141 53.1556 157.029 53.0439 156.806 52.9323C156.135 52.4856 155.576 52.1506 155.241 51.8156C155.017 51.5922 154.906 51.3689 154.794 51.0339C154.682 50.8105 154.682 50.4755 154.682 50.1405C154.682 49.3588 155.017 48.6888 155.576 48.1304C156.135 47.572 156.917 47.237 157.7 47.237C158.482 47.237 159.153 47.4604 159.6 48.0187C160.047 48.4654 160.382 49.1354 160.382 49.9171V50.2522H159.376V50.0288C159.376 49.4705 159.264 49.0238 158.929 48.6888C158.594 48.3537 158.259 48.2421 157.7 48.2421C157.141 48.2421 156.694 48.4654 156.359 48.8004C156.023 49.1354 155.8 49.5821 155.8 50.0288C155.8 50.6988 156.47 51.4805 157.7 52.1506C157.923 52.2622 158.147 52.3739 158.259 52.4856C158.817 52.8206 159.264 53.1556 159.488 53.6023C159.823 54.049 159.935 54.6073 159.935 55.1657C159.935 56.0591 159.6 56.7291 158.929 57.3991C158.259 58.0692 157.476 58.2925 156.582 58.2925C155.688 58.2925 154.906 58.0692 154.459 57.5108C153.9 56.9524 153.676 56.2824 153.676 55.389V55.054ZM36.6586 7.14697H37.6645C37.5527 7.37032 37.5527 7.70533 37.4409 8.15202C36.5468 11.9488 35.3174 13.8473 33.5292 13.8473H27.4939L20.3409 40.2017C20.3409 40.3134 20.2292 40.5367 20.2292 40.6484V41.0951C20.2292 41.6535 20.4527 41.9885 20.788 42.3235C21.1233 42.6585 21.6821 42.7702 22.3527 42.8818L22.1292 43.8869H14.8645C13.8586 43.8869 13.0762 43.7752 12.6292 43.4402C12.1821 43.1052 11.9586 42.6585 11.9586 41.9885V41.4301C11.9586 41.3184 11.9586 41.2068 12.0704 41.0951L19.2233 13.8473H13.6351C12.8527 13.8473 12.2939 13.9589 11.9586 14.1823C11.6233 14.4056 11.3998 14.7406 11.1762 15.299H10.0586C10.1704 15.0756 10.1704 14.629 10.2821 14.1823C11.1762 10.3854 12.8527 8.48703 14.9762 8.48703H34.088C34.8704 8.48703 35.4292 8.37536 35.7645 8.26369C36.2115 7.92867 36.4351 7.59366 36.6586 7.14697Z" fill="white"/>
<path d="M30.4 15.4107H37.8883C38.4471 15.4107 38.8942 15.5223 39.2295 15.7457C39.5647 15.969 39.6765 16.304 39.6765 16.7507V17.0857C39.6765 17.3091 39.5648 17.4207 39.5648 17.6441L39.2295 19.3192C40.2353 17.7558 41.2412 16.639 42.0236 16.0807C42.8059 15.5223 43.9236 15.299 45.153 15.299H48.8412L48.2824 17.8674C47.9471 19.2075 47.6118 19.9892 47.1647 20.3242C46.7177 20.6592 45.9353 20.8826 44.8177 20.8826H42.0236C40.9059 20.8826 40.0118 21.2176 39.3412 21.7759C38.6706 22.3343 38.1118 23.2277 37.8883 24.456L34.0883 40.4251C34.0883 40.5367 34.0883 40.6484 33.9765 40.7601C33.8647 41.0951 33.8647 41.4301 33.8647 41.5418C33.8647 41.9885 33.9765 42.3235 34.3118 42.5468C34.6471 42.7702 34.9824 42.8818 35.5412 42.8818L35.4295 43.8869H28.2765C27.7177 43.8869 27.2706 43.7752 27.0471 43.4402C26.6 43.1052 26.4883 42.6585 26.4883 42.1001V41.6535C26.4883 41.4301 26.6 41.3184 26.6 41.0951L31.853 18.8725C31.853 18.6491 31.9648 18.4258 31.9648 18.4258V18.0908C31.9648 17.6441 31.853 17.3091 31.5177 16.9741C31.1824 16.7507 30.7353 16.5274 30.0648 16.4157L30.4 15.4107ZM50.1824 15.4107H57.4471C57.8942 15.4107 58.2295 15.5223 58.5648 15.8573C58.7883 16.1924 58.9 16.5274 58.9 17.0857C58.9 17.3091 58.9 17.5324 58.7883 17.7558C58.7883 17.9791 58.6765 18.2024 58.6765 18.4258L53.4236 40.3134C53.4236 40.5367 53.3118 40.7601 53.3118 40.9834V41.4301C53.3118 41.8768 53.4236 42.2118 53.7589 42.5468C54.0942 42.7702 54.5412 42.8818 55.1 42.8818L54.7647 43.8869H47.7236C47.1647 43.8869 46.7177 43.7752 46.3824 43.4402C46.0471 43.1052 45.8236 42.7702 45.8236 42.2118C45.8236 42.1001 45.8236 41.9885 45.9353 41.6535V41.4301L51.3 19.0958C51.4118 18.8725 51.4118 18.6491 51.4118 18.4258V17.9791C51.4118 17.5324 51.3 17.3091 51.0765 16.9741C50.853 16.7507 50.4059 16.5274 49.8471 16.304L50.1824 15.4107ZM53.7589 7.92867H59.1236C59.6824 7.92867 60.1295 8.04035 60.353 8.26369C60.5765 8.48703 60.8 8.82205 60.8 9.26873V9.49207C60.8 9.60375 60.8 9.71542 60.6883 9.93876L59.7942 13.4006H54.9883C54.3177 13.4006 53.7589 13.2889 53.4236 13.0656C53.0883 12.8422 52.8647 12.3955 52.8647 11.9488V11.5022C52.8647 11.3905 52.8647 11.2788 52.9765 11.0555L53.7589 7.92867ZM74.9942 34.2831C74.5471 35.9582 74.1 37.1866 73.4294 37.8566C72.7589 38.5267 71.8647 38.8617 70.5236 38.8617C69.1824 38.8617 68.1765 38.6383 67.5059 38.08C66.9471 37.6333 66.6118 36.7399 66.6118 35.6232C66.6118 34.3948 66.8353 32.6081 67.3942 30.3746C67.953 28.1412 68.6236 26.0194 69.4059 23.8977C69.853 22.781 70.6353 21.9993 71.753 21.4409C72.8706 20.8826 74.4353 20.6592 76.4471 20.6592H78.1236L74.9942 34.2831ZM78.7942 9.26873C79.353 9.3804 79.8 9.60375 80.0236 9.82709C80.2471 10.0504 80.4706 10.4971 80.4706 10.9438V11.2788C80.4706 11.3905 80.4706 11.6138 80.3589 11.7255L79.5765 15.299H74.8824C72.6471 15.299 70.8589 15.4107 69.6295 15.7457C68.4 16.0807 67.1706 16.5274 66.1647 17.1974C65.6059 17.6441 64.9353 18.0908 64.4883 18.7608C63.9295 19.4308 63.5942 20.1009 63.2589 20.7709C62.8118 21.7759 62.3647 23.0043 61.9177 24.456C61.4706 25.9078 61.0236 27.6945 60.4647 29.7046C59.9059 31.938 59.5706 33.7248 59.3471 34.9532C59.1236 36.1816 59.0118 37.2983 59.0118 38.1916C59.0118 40.2017 59.5706 41.7651 60.6883 42.6585C61.8059 43.6635 63.5942 44.1102 66.053 44.1102C67.953 44.1102 69.2942 43.9986 69.853 43.8869C70.5236 43.7752 70.9706 43.4402 71.4177 42.9935L73.653 40.5367C73.653 40.8718 73.5412 41.0951 73.5412 41.3184V41.8768C73.5412 42.4352 73.653 42.8818 73.9883 43.2169C74.3236 43.5519 74.7706 43.6635 75.3295 43.6635H82.2589L82.4824 42.6585C81.8118 42.5468 81.3647 42.4352 81.0294 42.2118C80.6942 41.9885 80.5824 41.7651 80.5824 41.4301V40.7601C80.5824 40.5367 80.6942 40.3134 80.6942 40.0901L87.7353 10.7205C87.7353 10.4971 87.8471 10.3854 87.8471 10.1621V9.71542C87.8471 9.15706 87.6236 8.82205 87.2883 8.48703C86.953 8.26369 86.3942 8.04035 85.7236 8.04035H79.0177C78.9059 8.04035 78.7942 9.26873 78.7942 9.26873ZM95 26.2428C95.5589 24.121 96.3412 22.5576 97.2353 21.6643C98.1294 20.7709 99.2471 20.3242 100.812 20.3242C102.041 20.3242 103.047 20.5475 103.606 21.1059C104.277 21.6643 104.5 22.446 104.5 23.5627C104.5 23.8977 104.5 24.2327 104.388 24.6794C104.277 25.1261 104.165 25.5728 103.941 26.2428H95ZM108.747 29.9279C109.306 29.5929 109.753 28.9229 110.2 28.0295C110.535 27.2478 110.759 26.3545 110.982 25.3494C111.206 24.3444 111.318 23.3393 111.318 22.446C111.318 19.8775 110.535 18.0908 108.859 16.9741C107.182 15.8573 104.612 15.299 100.924 15.299C98.353 15.299 96.2294 15.5223 94.6647 16.0807C93.1 16.639 91.7589 17.5324 90.753 18.7608C90.1942 19.4308 89.7471 20.2125 89.3 21.1059C88.853 21.9993 88.5177 23.0043 88.1824 24.121C87.2883 27.3595 86.6177 29.928 86.1706 32.0497C85.7236 34.0598 85.5 35.7349 85.5 36.7399C85.5 39.6434 86.2824 41.5418 87.9589 42.6585C89.6353 43.7752 92.8765 44.3336 97.6824 44.3336H98.2412C100.7 44.3336 102.377 44.2219 103.271 43.8869C104.165 43.5519 105.059 43.1052 105.729 42.4352C106.176 41.9885 106.624 41.2068 106.959 40.2017C107.294 39.1967 107.629 37.745 107.853 36.0699H106.847C106.512 36.9633 105.841 37.6333 104.612 38.08C103.494 38.415 101.371 38.6383 98.4647 38.6383C96.3412 38.6383 94.8883 38.415 93.9942 37.8566C93.2118 37.2983 92.7647 36.4049 92.7647 35.1765C92.7647 34.7298 92.8765 34.1715 92.9883 33.5014C93.1 32.7197 93.3236 31.8264 93.6589 30.598H106.288C107.518 30.3746 108.3 30.263 108.747 29.9279ZM132.888 40.3134C132.888 40.4251 132.777 40.6484 132.777 40.7601V41.2068C132.777 41.6535 132.888 42.1001 133.224 42.3235C133.559 42.5468 134.006 42.7702 134.565 42.7702L134.453 43.7752H127.524C126.965 43.7752 126.518 43.6635 126.182 43.3285C125.847 42.9935 125.735 42.6585 125.735 42.1001V41.6535C125.735 41.5418 125.735 41.4301 125.847 41.3184L130.094 23.6744C130.094 23.5627 130.206 23.451 130.206 23.3393V22.6693C130.206 21.8876 129.982 21.3292 129.424 20.9942C128.865 20.6592 128.082 20.4359 126.965 20.4359C125.512 20.4359 124.282 20.7709 123.388 21.4409C122.382 22.111 121.824 23.0043 121.488 24.121L117.353 40.4251C117.353 40.5367 117.353 40.6484 117.241 40.7601C117.129 41.0951 117.129 41.4301 117.129 41.5418C117.129 41.9885 117.241 42.3235 117.577 42.5468C117.912 42.7702 118.247 42.8818 118.806 42.8818L118.694 43.8869H111.541C110.982 43.8869 110.535 43.7752 110.312 43.4402C109.977 43.1052 109.865 42.7702 109.865 42.2118V41.7651C109.865 41.5418 109.977 41.4301 109.977 41.2068L115.229 18.9841C115.229 18.7608 115.341 18.5375 115.341 18.4258V17.9791C115.341 17.6441 115.229 17.3091 115.006 17.0857C114.782 16.8624 114.335 16.639 113.777 16.5274L114.112 15.5223H121.265C121.824 15.5223 122.271 15.634 122.606 15.8573C122.941 16.0807 123.053 16.4157 123.053 16.9741V17.3091C123.053 17.4207 122.941 17.6441 122.941 17.8674L122.606 19.5425C123.947 17.8674 125.288 16.7507 126.518 16.1924C127.747 15.5223 129.312 15.299 131.1 15.299C133.224 15.299 135.012 15.634 136.241 16.4157C137.471 17.1974 138.141 18.2024 138.141 19.5425V19.9892C138.141 20.2125 138.029 20.3242 138.029 20.5475L132.888 40.3134ZM166.865 83.0836C167.647 82.8602 167.535 81.9669 167.647 81.1852C168.988 72.1398 170.218 63.206 171.335 54.1607C171.447 52.7089 171.782 47.237 172.341 46.1203C172.453 45.897 173.682 45.2269 174.018 45.1153C173.794 42.7702 172.677 39.755 173.906 36.6282C175.918 31.7147 184.524 35.9582 187.988 30.1513C191.676 24.0094 189.106 15.0756 188.547 10.2738C188.435 9.04539 188.324 7.59366 188.324 6.36527V5.36023C187.765 7.25865 187.094 9.15706 186.424 10.7205C185.753 12.5072 185.306 13.9589 184.635 15.634C185.753 15.299 186.2 13.9589 187.094 13.2889C188.882 16.4157 188.771 26.3545 184.859 29.9279C183.518 31.0447 181.841 31.3797 179.829 31.3797C177.594 31.3797 175.247 31.1563 175.135 28.6996C175.024 26.3545 175.806 23.786 176.141 21.2176C176.588 17.7558 177.035 13.9589 177.594 10.4971L177.929 9.93876C178.376 10.3854 179.047 11.1671 179.159 9.82709C179.271 8.82205 178.712 8.04035 178.712 6.03026C178.6 4.02017 178.6 1.89841 178.265 0C177.482 1.78674 176.812 3.9085 176.141 5.69524C175.471 7.59366 174.8 8.15202 174.576 9.15706C174.353 10.4971 175.247 9.93876 175.806 9.60375L175.918 10.1621C175.471 13.6239 174.8 17.4207 174.241 20.8826C173.906 23.451 173.794 26.1311 173.012 28.3645C172.229 30.7097 169.882 30.1513 167.759 29.5929C165.859 29.0346 164.294 28.2529 163.4 26.6895C160.718 22.2226 163.4 12.6189 165.971 10.1621C166.641 11.0555 166.641 12.5072 167.647 13.1772C167.424 11.3905 167.424 9.82709 167.312 7.92867C167.2 6.14193 167.088 4.24352 167.088 2.23343C167.088 2.45677 166.977 2.79179 166.865 3.01513C166.529 4.24352 166.082 5.58357 165.524 6.70029C163.624 11.1671 158.706 18.9841 160.382 26.0194C162.059 32.4964 171.447 31.0447 172.006 36.2932C172.341 39.6434 170.441 42.2118 169.547 44.3336C169.771 44.5569 170.776 45.4503 170.888 45.7853C171.112 47.0137 169.771 52.3739 169.547 53.714C167.982 62.7594 166.641 71.5814 165.412 80.7385C165.3 81.5202 164.965 82.3019 165.635 82.7486L166.865 83.0836ZM148.759 10.4971H151.888L150.771 15.4107H158.035L157.365 18.6491C157.253 19.3192 156.918 19.7658 156.582 20.1009C156.247 20.3242 155.688 20.4359 154.794 20.4359H152.335C151.218 20.4359 150.435 20.5476 149.988 20.8826C149.541 21.2176 149.206 21.8876 148.982 22.781L145.965 35.3999C145.853 35.8465 145.853 36.1816 145.741 36.4049C145.741 36.6282 145.629 36.8516 145.629 37.0749C145.629 37.6333 145.741 38.08 146.076 38.415C146.412 38.75 146.859 38.8617 147.418 38.8617H149.765C150.994 38.8617 151.888 38.6383 152.559 38.3033C153.229 37.9683 153.676 37.2983 154.124 36.4049H155.129L153.453 42.2118C153.229 42.8818 152.894 43.3285 152.335 43.5519C151.777 43.7752 150.882 43.9986 149.653 43.9986H141.271C140.153 43.9986 139.259 43.6635 138.588 43.1052C137.918 42.4352 137.582 41.6535 137.582 40.5367C137.582 40.3134 137.582 40.0901 137.694 39.8667C137.694 39.5317 137.806 39.1967 137.918 38.8617L142.277 20.6592H139.594L140.488 16.8624C142.388 16.639 144.065 15.969 145.406 14.964C146.859 13.7356 147.977 12.2839 148.759 10.4971Z" fill="white"/>
</g>
<defs>
<clipPath id="clip0_2431_290">
<rect width="190" height="84.8703" fill="white"/>
</clipPath>
</defs>
</svg>
