<?xml version="1.0" encoding="UTF-8" standalone="no"?>
<svg
   xmlns:dc="http://purl.org/dc/elements/1.1/"
   xmlns:cc="http://creativecommons.org/ns#"
   xmlns:rdf="http://www.w3.org/1999/02/22-rdf-syntax-ns#"
   xmlns:svg="http://www.w3.org/2000/svg"
   xmlns="http://www.w3.org/2000/svg"
   xmlns:sodipodi="http://sodipodi.sourceforge.net/DTD/sodipodi-0.dtd"
   xmlns:inkscape="http://www.inkscape.org/namespaces/inkscape"
   version="1.1"
   id="svg2"
   xml:space="preserve"
   width="264.57333"
   height="68.653336"
   viewBox="0 0 264.57333 68.653336"
   sodipodi:docname="TRISA_of Switzerland_Pantone Reflex Blue.eps"><metadata
     id="metadata8"><rdf:RDF><cc:Work
         rdf:about=""><dc:format>image/svg+xml</dc:format><dc:type
           rdf:resource="http://purl.org/dc/dcmitype/StillImage" /></cc:Work></rdf:RDF></metadata><defs
     id="defs6" /><sodipodi:namedview
     pagecolor="#ffffff"
     bordercolor="#666666"
     borderopacity="1"
     objecttolerance="10"
     gridtolerance="10"
     guidetolerance="10"
     inkscape:pageopacity="0"
     inkscape:pageshadow="2"
     inkscape:window-width="640"
     inkscape:window-height="480"
     id="namedview4" /><g
     id="g10"
     inkscape:groupmode="layer"
     inkscape:label="ink_ext_XXXXXX"
     transform="matrix(1.3333333,0,0,-1.3333333,0,68.653333)"><g
       id="g12"
       transform="scale(0.1)"><path
         d="M 41.3398,514.902 H 1942.91 c 22.83,0 41.34,-16.406 41.34,-36.644 V 36.6445 C 1984.25,16.4063 1965.74,0 1942.91,0 H 41.3398 C 18.5078,0 0,16.4063 0,36.6445 V 478.258 c 0,20.238 18.5078,36.644 41.3398,36.644"
         style="fill:#2d3394;fill-opacity:1;fill-rule:nonzero;stroke:none"
         id="path14" /><path
         d="m 1882.57,191.93 c 0,-19.032 -15.08,-34.973 -34.25,-34.973 -19.17,0 -34.22,15.941 -34.22,34.973 0,18.3 15.1,34.234 34.22,34.234 19.12,0 34.25,-15.934 34.25,-34.234 v 0 z m -4.97,0 c 0,15.648 -12.97,29.265 -29.28,29.265 -16.31,0 -29.25,-13.617 -29.25,-29.265 0,-16.407 12.99,-30.016 29.25,-30.016 16.29,0 29.28,13.609 29.28,30.016 v 0 0"
         style="fill:#ffffff;fill-opacity:1;fill-rule:nonzero;stroke:none"
         id="path16" /><path
         d="m 1835.68,211.09 h 12.83 c 7.11,0 13.8,-2.422 13.8,-11.141 0,-5.586 -3.1,-9.703 -8.58,-10.523 l 9.82,-17.168 h -7.93 l -8.56,16.449 h -4.79 v -16.449 h -6.59 v 38.832 z m 11.69,-16.465 c 3.71,0 8.03,0.332 8.03,5.383 0,4.59 -4.07,5.144 -7.46,5.144 h -5.67 v -10.527 h 5.1 v 0"
         style="fill:#ffffff;fill-opacity:1;fill-rule:nonzero;stroke:none"
         id="path18" /><path
         d="m 195.703,160.855 122.262,241.004 c 3.004,5.922 -1.301,12.926 -7.938,12.926 H 75.2852 l 21.1132,40.949 H 625.105 L 604.48,415.535 H 465.664 c -6.703,0 -12.836,-3.765 -15.871,-9.742 L 325.469,160.855 H 195.703 v 0 0"
         style="fill:#ffffff;fill-opacity:1;fill-rule:nonzero;stroke:none"
         id="path20" /><path
         d="m 430.266,160.711 106.929,209.945 c 0.032,0.063 0.094,0.102 0.164,0.102 h 298.188 c 13.418,0 22.008,-14.281 15.726,-26.137 L 801.34,250.422 c -0.031,-0.063 -0.094,-0.102 -0.164,-0.102 H 679.223 l 34.308,68.098 c 2.985,5.918 -1.32,12.902 -7.945,12.902 h -58.191 c -0.071,0 -0.133,-0.039 -0.165,-0.101 L 560.984,161.082 430.266,160.711 v 0 0"
         style="fill:#ffffff;fill-opacity:1;fill-rule:nonzero;stroke:none"
         id="path22" /><path
         d="M 816.504,161.461 923.375,371.5 H 1053.47 L 946.645,161.461 H 816.504 v 0 0"
         style="fill:#ffffff;fill-opacity:1;fill-rule:nonzero;stroke:none"
         id="path24" /><path
         d="m 966.195,455.734 h 130.395 l -20.61,-40.199 H 945.578 l 20.617,40.199"
         style="fill:#ffffff;fill-opacity:1;fill-rule:nonzero;stroke:none"
         id="path26" /><path
         d="m 1104.58,347.219 c 7.62,14.902 22.94,24.281 39.68,24.281 H 1460 c 0.06,0 0.09,-0.059 0.07,-0.109 l -20.43,-40.68 c -0.02,-0.016 -0.04,-0.027 -0.07,-0.043 h -202.45 c -6.28,0 -12.03,-3.512 -14.9,-9.094 l -15.87,-30.914 c -0.03,-0.051 0.01,-0.109 0.06,-0.109 l 184.39,0.062 c 13.35,0.008 21.99,-14.093 15.93,-25.984 l -40.52,-79.551 c -7.62,-14.949 -22.99,-24.355 -39.77,-24.34 l -321.59,0.344 c -0.06,0 -0.09,0.059 -0.07,0.109 l 21.59,42.52 c 0.02,0.016 0.04,0.023 0.07,0.039 l 206.18,0.008 c 5.57,0 10.67,3.148 13.16,8.137 l 19.06,38.132 c 0.02,0.047 -0.02,0.106 -0.07,0.106 l -180.57,0.121 c -13.35,0.012 -21.98,14.125 -15.9,26.012 l 36.28,70.953"
         style="fill:#ffffff;fill-opacity:1;fill-rule:nonzero;stroke:none"
         id="path28" /><path
         d="m 1524.32,370.758 -19.76,-39.863 198.05,-0.141 c 6.48,-0.008 10.67,-6.836 7.75,-12.617 l -13.8,-27.324 c -0.06,-0.114 -0.17,-0.188 -0.3,-0.188 l -187.17,-0.066 c -16.72,-0.004 -32.02,-9.383 -39.62,-24.278 l -36.65,-79.683 c -6.04,-11.844 2.56,-25.887 15.86,-25.887 h 308.59 l 93.63,184.18 c 6.02,11.843 -2.58,25.867 -15.87,25.867 z m 55,-128.512 c 2.44,5.113 7.6,8.371 13.27,8.371 h 81.21 c 0.25,0 0.41,-0.265 0.3,-0.488 l -22.34,-46.156 h -76.94 c -6.39,0 -10.6,6.672 -7.84,12.445 l 12.34,25.828"
         style="fill:#ffffff;fill-opacity:1;fill-rule:evenodd;stroke:none"
         id="path30" /><path
         d="m 198.941,85.3945 c 0,16.2305 11.239,28.7505 27.094,28.7505 15.856,0 27.09,-12.52 27.09,-28.7505 0,-16.2304 -11.234,-28.7461 -27.09,-28.7461 -15.855,0 -27.094,12.5157 -27.094,28.7461 z m 46.692,0 c 0,11.9805 -7.707,21.7965 -19.598,21.7965 -11.894,0 -19.605,-9.816 -19.605,-21.7965 0,-11.9765 7.711,-21.7929 19.605,-21.7929 11.891,0 19.598,9.8164 19.598,21.7929 v 0"
         style="fill:#ffffff;fill-opacity:1;fill-rule:nonzero;stroke:none"
         id="path32" /><path
         d="m 334.125,112.75 h 32.672 v -6.953 H 341.176 V 88.6367 h 23.855 V 81.6914 H 341.176 V 58.043 h -7.051 v 54.707 0"
         style="fill:#ffffff;fill-opacity:1;fill-rule:nonzero;stroke:none"
         id="path34" /><path
         d="m 543.809,69.4844 c 2.496,-4.0235 6.828,-5.8828 11.011,-5.8828 4.625,0 10.348,3.0937 10.348,9.125 0,12.5937 -25.617,4.7929 -25.617,26.1132 0,6.4222 5.14,15.3052 17.621,15.3052 5.648,0 11.082,-1.239 14.973,-6.258 l -5.727,-5.489 c -1.762,2.864 -5.207,4.793 -9.246,4.793 -7.785,0 -10.133,-4.949 -10.133,-8.3512 0,-13.8281 25.621,-5.5664 25.621,-25.2617 0,-10.5898 -8.078,-16.9297 -18.062,-16.9297 -6.68,0 -13.067,2.3985 -16.59,7.5743 l 5.801,5.2617 v 0"
         style="fill:#ffffff;fill-opacity:1;fill-rule:nonzero;stroke:none"
         id="path36" /><path
         d="m 648.352,112.75 h 7.339 l 11.454,-43.7344 h 0.148 l 12.258,43.7344 h 8.078 l 12.262,-43.7344 h 0.144 l 11.453,43.7344 h 7.344 L 703.707,58.043 h -7.418 l -12.625,44.668 H 683.52 L 670.961,58.043 h -7.414 l -15.195,54.707 v 0"
         style="fill:#ffffff;fill-opacity:1;fill-rule:nonzero;stroke:none"
         id="path38" /><path
         d="m 796.738,112.75 h 7.047 V 58.043 h -7.047 v 54.707 0"
         style="fill:#ffffff;fill-opacity:1;fill-rule:nonzero;stroke:none"
         id="path40" /><path
         d="m 898.66,105.797 h -16.738 v 6.953 h 40.519 v -6.953 H 905.703 V 58.043 h -7.043 v 47.754 0"
         style="fill:#ffffff;fill-opacity:1;fill-rule:nonzero;stroke:none"
         id="path42" /><path
         d="m 998.063,64.9961 29.567,40.8009 h -28.685 v 6.953 h 37.485 v -6.953 l -29.41,-40.8009 h 29.86 V 58.043 h -38.817 v 6.9531 0"
         style="fill:#ffffff;fill-opacity:1;fill-rule:nonzero;stroke:none"
         id="path44" /><path
         d="m 1116.03,112.75 h 33.56 v -6.953 h -26.51 V 89.4883 h 24.67 v -6.957 h -24.67 V 64.9961 h 27.83 V 58.043 h -34.88 v 54.707 0"
         style="fill:#ffffff;fill-opacity:1;fill-rule:nonzero;stroke:none"
         id="path46" /><path
         d="m 1231.15,112.75 h 18.28 c 13.29,0 16.66,-8.422 16.66,-15.3008 0,-6.9531 -4.92,-13.5195 -12.77,-14.4453 l 14.76,-24.9609 h -8.81 l -13.22,24.1054 h -7.86 V 58.043 h -7.04 v 54.707 z m 7.04,-24.1133 h 9.25 c 5.58,0 11.16,1.3946 11.16,8.8125 0,7.4218 -5.58,8.8128 -11.16,8.8128 h -9.25 v -17.6253 0"
         style="fill:#ffffff;fill-opacity:1;fill-rule:nonzero;stroke:none"
         id="path48" /><path
         d="m 1347.12,112.75 h 7.04 V 64.9961 h 23.87 V 58.043 h -30.91 v 54.707 0"
         style="fill:#ffffff;fill-opacity:1;fill-rule:nonzero;stroke:none"
         id="path50" /><path
         d="m 1475.73,112.75 h 6.39 l 22.25,-54.707 h -8.23 l -5.21,13.5273 h -24.74 l -5.14,-13.5273 h -8.22 l 22.9,54.707 z m 12.63,-34.6953 -9.69,25.1133 h -0.14 l -9.84,-25.1133 h 19.67 v 0"
         style="fill:#ffffff;fill-opacity:1;fill-rule:nonzero;stroke:none"
         id="path52" /><path
         d="m 1582.24,112.75 h 9.25 l 28.64,-44.9727 h 0.14 V 112.75 h 7.05 V 58.043 h -8.96 l -28.92,44.973 h -0.15 V 58.043 h -7.05 v 54.707 0"
         style="fill:#ffffff;fill-opacity:1;fill-rule:nonzero;stroke:none"
         id="path54" /><path
         d="m 1710.8,112.75 h 18.14 c 21.94,0 27.3,-17.2305 27.3,-27.3555 0,-13.9843 -9.91,-27.3515 -28.48,-27.3515 h -16.96 v 54.707 z m 7.05,-47.7539 h 8.88 c 11.89,0 22.03,6.8789 22.03,20.3984 0,6.9532 -3.45,20.4025 -20.34,20.4025 h -10.57 v -40.8009 0"
         style="fill:#ffffff;fill-opacity:1;fill-rule:nonzero;stroke:none"
         id="path56" /></g></g></svg>
