<?xml version="1.0" encoding="UTF-8" standalone="no"?>
<svg xmlns="http://www.w3.org/2000/svg" xmlns:inkscape="http://www.inkscape.org/namespaces/inkscape" xmlns:sodipodi="http://sodipodi.sourceforge.net/DTD/sodipodi-0.dtd" xmlns:svg="http://www.w3.org/2000/svg" height="151" id="svg1" inkscape:version="1.3.2 (091e20e, 2023-11-25, custom)" sodipodi:docname="logo_222222.svg" version="1.1" viewBox="64.03 424.34 901.22 151.3" width="901">
    
  <defs id="defs1"/>
    
  <sodipodi:namedview bordercolor="#000000" borderopacity="0.25" id="namedview1" inkscape:current-layer="svg1" inkscape:cx="450.60999" inkscape:cy="75.818625" inkscape:deskcolor="#d1d1d1" inkscape:pagecheckerboard="0" inkscape:pageopacity="0.0" inkscape:showpageshadow="2" inkscape:window-height="1017" inkscape:window-maximized="1" inkscape:window-width="1920" inkscape:window-x="-8" inkscape:window-y="-8" inkscape:zoom="0.92985068" pagecolor="#ffffff"/>
    
  <path class="cls-1" d="m 947.95,459.52 v -3.63 h 4.51 c 1.45,0 2.18,0.58 2.18,1.74 0,1.31 -0.73,1.89 -2.18,1.89 z m 9.74,-2.33 c 0,-2.62 -1.74,-3.92 -4.8,-3.92 h -7.85 v 14.53 h 2.91 v -5.81 h 4.36 c 1.45,0 1.89,0.44 1.89,1.6 v 2.03 c 0,0.87 0,1.45 0.29,2.18 h 3.2 c -0.44,-0.73 -0.44,-1.31 -0.44,-2.18 V 463 c 0,-1.45 -0.44,-2.33 -1.89,-2.62 1.45,-0.44 2.33,-1.45 2.33,-3.2 m -6.83,15.84 c -7.85,0 -12.21,-4.36 -12.21,-12.21 0,-7.85 4.36,-12.21 12.21,-12.21 7.85,0 12.21,4.36 12.21,12.21 0,7.85 -4.36,12.21 -12.21,12.21 m 0,-26.31 c -8.87,0 -14.39,5.23 -14.39,14.1 0,8.87 5.52,14.1 14.39,14.1 8.87,0 14.39,-5.23 14.39,-14.1 0,-8.87 -5.52,-14.1 -14.39,-14.1 m -54.36,39.68 c 9.74,0 15.55,4.07 17,14.39 h -34.59 c 1.45,-10.17 7.85,-14.39 17.59,-14.39 m 21.66,35.46 c -4.94,9.01 -9.74,13.37 -19.48,13.37 -13.37,0 -19.91,-6.69 -20.06,-21.51 h 56.54 v -4.21 c 0,-26.02 -14.68,-40.55 -38.37,-40.55 -25.29,0 -41.28,16.57 -41.28,42.73 0,26.16 15.99,42.73 43.02,42.73 20.35,0 30.96,-7.41 38.08,-21.8 l -18.46,-10.75 z m -93.89,30.52 v -45.35 c 0,-11.63 6.39,-15.7 15.84,-15.7 5.38,0 8.43,0.87 11.77,2.62 l 6.98,-21.07 c -3.78,-2.03 -7.85,-3.34 -13.08,-3.34 -11.34,0 -18.46,6.4 -21.66,18.17 h -0.44 V 470.99 H 801.3 v 81.39 h 22.96 z M 750,534.2 c -12.35,0 -20.49,-6.69 -20.49,-22.53 0,-15.84 8.14,-22.67 20.49,-22.67 12.35,0 20.49,6.83 20.49,22.67 0,15.84 -8.14,22.53 -20.49,22.53 m -7.85,19.77 c 12.06,0 21.22,-4.8 27.18,-15.55 h 0.44 v 13.95 h 22.24 v -81.39 h -22.96 v 12.94 h -0.44 c -5.81,-10.03 -14.82,-14.53 -26.45,-14.53 -20.93,0 -36.04,14.39 -36.04,42.29 0,27.9 15.12,42.29 36.04,42.29 M 670.8,531.01 655.68,470.99 h -27.32 l -14.24,59.59 -13.52,-59.59 h -23.54 l 20.06,81.39 h 31.25 l 13.66,-56.83 14.24,56.83 h 30.96 l 20.06,-81.39 h -22.96 l -13.52,60.02 z M 540.43,470.99 h -22.38 v 81.39 h 22.96 v -45.35 c 0,-11.63 6.39,-15.7 14.39,-15.7 5.38,0 8.43,0.87 11.77,2.62 l 6.98,-21.07 c -3.49,-2.03 -7.41,-3.34 -12.35,-3.34 -10.9,0 -17.88,6.4 -20.93,18.17 h -0.44 V 471 Z m -68.02,15.41 c 9.74,0 15.55,4.07 17,14.39 h -34.59 c 1.45,-10.17 7.85,-14.39 17.59,-14.39 m 21.66,35.46 c -4.94,9.01 -9.74,13.37 -19.48,13.37 -13.37,0 -19.91,-6.69 -20.06,-21.51 h 56.54 v -4.21 c 0,-26.02 -14.68,-40.55 -38.37,-40.55 -25.29,0 -41.28,16.57 -41.28,42.73 0,26.16 15.99,42.73 43.02,42.73 20.35,0 30.96,-7.41 38.08,-21.8 l -18.46,-10.75 z m -112.06,12.5 c -12.35,0 -20.49,-6.83 -20.49,-22.67 0,-15.84 8.14,-22.53 20.49,-22.53 12.35,0 20.49,6.69 20.49,22.53 0,15.84 -8.14,22.67 -20.49,22.67 m -19.04,41.28 v -36.19 h 0.44 c 5.81,10.03 14.82,14.53 26.45,14.53 20.93,0 36.04,-14.39 36.04,-42.29 0,-27.9 -15.12,-42.29 -36.04,-42.29 -12.06,0 -21.22,4.8 -27.18,15.55 h -0.44 V 471 H 340 v 104.64 h 22.96 z M 288.7,534.36 c -12.35,0 -20.49,-6.83 -20.49,-22.67 0,-15.84 8.14,-22.53 20.49,-22.53 12.35,0 20.49,6.69 20.49,22.53 0,15.84 -8.14,22.67 -20.49,22.67 m -19.04,41.28 v -36.19 h 0.44 c 5.81,10.03 14.82,14.53 26.45,14.53 20.93,0 36.04,-14.39 36.04,-42.29 0,-27.9 -15.12,-42.29 -36.04,-42.29 -12.06,0 -21.22,4.8 -27.18,15.55 h -0.44 V 471 h -22.24 v 104.64 h 22.96 z m -82.12,-21.8 c 12.93,0 22.82,-5.81 27.18,-16.86 h 0.44 v 15.41 H 237.4 V 471 h -22.96 v 45.2 c 0,13.08 -6.4,18.02 -16.86,18.02 -10.46,0 -16.42,-4.94 -16.42,-17.88 V 470.99 H 158.2 v 52.61 c 0,19.62 10.32,30.23 29.36,30.23 M 158.2,449.33 H 96.43 c 23.4,-3.05 43.02,-9.59 58.43,-19.18 l -3.34,-5.81 c -20.78,12.94 -53.19,20.78 -87.49,20.78 v 25.87 h 35.61 v 81.39 h 23.54 v -81.39 h 35.03 v -21.66 z" id="path1" style="display:inline;fill:#222222;fill-opacity:1"/>
  
</svg>
