<?xml version="1.0" encoding="UTF-8"?>
<svg id="Layer_1" data-name="Layer 1" xmlns="http://www.w3.org/2000/svg" xmlns:xlink="http://www.w3.org/1999/xlink" viewBox="0 0 409.39 126.18">
  <defs>
    <style>
      .cls-1 {
        clip-path: url(#clippath);
      }

      .cls-2 {
        fill: none;
      }

      .cls-2, .cls-3 {
        stroke-width: 0px;
      }

      .cls-4 {
        clip-path: url(#clippath-1);
      }

      .cls-3 {
        fill: #fff;
      }
    </style>
    <clipPath id="clippath">
      <path class="cls-2" d="m80.06,93.34c-.12,0-.3.04-.75.18-6.6,2.09-12.35,2.6-16.04,2.63-.51.02-.65.17-.7.78l-.29,4.88s7.43.17,15.04-3.03c1.04-1.41,1.95-3.04,2.7-4.83.08-.19.15-.36.16-.51,0-.1-.06-.11-.1-.11h-.02m3.16-1.28c-.7.29-1.32,1.12-1.64,1.78-.7,1.45-1.52,2.82-2.42,4.1,4.72-2.35,10.1-6.94,13.73-11.64-2.82,2.27-6.05,4.21-9.67,5.76m-1.97-17.4c-5.29,1.88-11.06,2.87-17.13,3.04-1.15.08-1.09.35-1.15,1.25-.04,5.34-.16,10.39-.3,14.96,0,0-.04.47.13.64.14.14.6.12.6.12,6.04-.39,11.76-1.68,17.02-3.83.78-.34.9-.8,1.12-1.67,1.43-5.75,1.08-13.45,1.08-13.45,0,0,.02-.94-.31-1.16-.08-.05-.18-.07-.29-.07-.34,0-.76.17-.76.17m14.24-8.36c-1.75,1.74-4.98,4.14-8.77,6.06-1.22.63-1.35,1.09-1.37,2.14.06,6.09-.67,10.79-1.99,14.76,0,0-.11.28.25.1.35-.18,5.88-2.82,9.66-6.64,1.29-1.24,2.27-3.16,2.48-5.13.75-6.75-.12-11.28-.12-11.28,0-.05-.03-.06-.05-.06-.04,0-.09.05-.09.05m3.86-5.09c-.71,1.18-.98,2-.9,2.8.23,2.66.24,5.01.24,5.01,0,2.73-.27,5.4-.78,7.93,2.2-3.81,3.99-9.31,3.99-15.71,0-1.79-.14-3.65-.46-5.55-.38,1.89-1.01,3.79-2.09,5.53m-22.34-8.67c-3.95,1.31-8.3,2.05-12.92,2.21-.88.03-1.16.64-1.15,1.28.03,2.84.09,7.31.09,13.32v5.04s-.02.47.17.68c.12.12.35.16.66.14,2.77-.14,9.87-.63,17.04-3.41.97-.37,1.19-.83,1.19-1.57,0-.19,0-.39-.04-.6-.71-5.46-2.01-10.98-3.87-16.41-.25-.71-.37-.83-.59-.83-.13,0-.31.04-.59.15m-31.18,0c-3.66,9.19-4.39,19.11-4.39,19.11-.04.46.08.55.4.7,0,0,7.76,2.96,17.71,2.96,0,0,.69-.02.87-.2.25-.25.28-.44.27-1.24.03-4.9.12-17.85.12-17.85,0-.82-.41-1.24-1.13-1.29-4.63-.22-9.15-1.07-13.08-2.45-.2-.07-.34-.11-.43-.11-.13,0-.22.06-.34.38m42.11-6.26c-1.67,1.69-3.88,3.21-6.58,4.49-.61.32-.74.55-.74.82,0,.19.07.41.19.69,2.01,5.29,3.39,10.67,4.06,16.03,0,0,.09,1.03.35,1.24.22.19.96-.26,1.03-.29,3.08-1.84,5.94-4.17,7.58-5.81.65-.65.89-1.12.89-1.84,0-.36-.07-.79-.2-1.34-1.23-4.96-3.08-9.64-5.51-13.89-.2-.34-.38-.48-.48-.48h-.04c-.11,0-.3.11-.54.36m4.36-9.1c0,1.53-.34,3.09-1.04,4.69-.25.59-.35.96-.35,1.25,0,.31.14.51.33.87,0,0,3.99,5.49,6.28,14.5,2.5-4.37,2.5-7.95,2.5-7.95,0-.22-.02-.42-.04-.57-1.16-4.99-3.76-9.71-7.77-14.04.07.41.09.82.09,1.24m-29.82-2.87c.17,5.78.31,11.51.4,17.04,0,.49.09.77.25.9.11.11.36.17.63.17,3.79,0,9.21-1.17,12.33-2.33.31-.12.5-.2.6-.47.1-.26-.14-.81-.14-.81-2.34-5.72-5.19-10.93-8.17-15.01-1.61.29-4.77.52-5.9.51m-15.54,15.41c-.24.53-.13.69-.13.69.06.12.23.17.23.17,2.98.98,8.71,1.94,12.71,1.94.45,0,.7-.09.86-.23.16-.16.27-.48.28-1.03.11-5.54.25-11.3.59-16.95-1.72-.03-3.81-.33-5.28-.63-3.7,4.77-6.78,10.11-9.26,16.05m23.04-16.27c3.43,4.13,6.4,8.9,8.86,14.2.25.53.41.83.6.88.23.08.57-.07.83-.22,2.38-1.26,4.57-2.79,6-4.23.3-.3.43-.58.43-.88s-.14-.65-.46-1.12c-3.23-4.45-7.04-8.02-11.19-10.66-1.18.8-3.06,1.54-5.05,2.04m7.8-6.26c0,1.01-.47,2.04-1.37,3.07,4.45,2.57,8.21,5.65,11.46,9.41,0,0,.52.65.81.62.22-.03.4-.54.4-.54.69-1.77.82-4.21.08-6-.7-1.65-2.92-3.33-2.92-3.33-3.37-2.62-7.17-4.28-8.95-4.97.33.55.5,1.13.5,1.73M22.59,62.13c0,21.22,18.02,39.71,38.81,39.71-.02-.34-.26-4.98-.26-4.98-.03-.51-.15-.68-.78-.75,0,0-9.07-.7-12.06-2.22-.12-.08-.05-.2.11-.16,0,0,6.13,1.05,11.94,1.05,0,0,.66.04.66-.7,0-.65-.26-15.06-.26-15.06-.04-1.08-.21-1.26-1.25-1.35-6.32-.3-12.48-1.64-17.83-3.88-.14-.05-.21-.07-.28-.03-.12.06-.12.29-.12.29-.47,6.66.27,13.17.27,13.17.03.11-.02.17-.12.17-.12.02-.15-.11-.15-.11-.95-3.58-1.42-7.5-1.44-11.65,0-.3.03-1.99.03-1.99,0-.45-.18-.73-.59-.93-2.55-1.25-4.79-2.82-6.8-4.43,0,0-.14-.13-.02-.27.1-.09.22-.02.22-.02,2.07,1.34,4.44,2.46,6.91,3.47l.28.02c.14-.09.14-.3.16-.61.39-6.15,2.06-12.67,4.44-18.83.05-.14.08-.25.08-.33,0-.19-.1-.3-.44-.46-3.88-1.71-6.88-4.03-8.81-6.56,0,0-.12-.14,0-.25.11-.1.24.03.24.03,2.19,2.14,5.44,3.93,9.16,5.32.16.06.28.09.37.09.16,0,.29-.1.55-.65,2.51-5.82,5.8-11.28,9.53-15.83-3.13-.76-6.33-2.44-7.12-4.3,0,0-.1-.2.04-.28.17-.09.3.11.3.11,3.49,3.78,13.6,3.53,13.6,3.53,4.23,0,13-1.48,13-5.03,0-3.22-4.65-4.9-13.1-5.01-25.57,0-39.27,22.14-39.27,39.72"/>
    </clipPath>
    <clipPath id="clippath-1">
      <rect class="cls-2" width="136.91" height="126.18"/>
    </clipPath>
  </defs>
  <path class="cls-3" d="m80.06,93.34c-.12,0-.3.04-.75.18-6.6,2.09-12.35,2.6-16.04,2.63-.51.02-.65.17-.7.78l-.29,4.88s7.43.17,15.04-3.03c1.04-1.41,1.95-3.04,2.7-4.83.08-.19.15-.36.16-.51,0-.1-.06-.11-.1-.11h-.02m3.16-1.28c-.7.29-1.32,1.12-1.64,1.78-.7,1.45-1.52,2.82-2.42,4.1,4.72-2.35,10.1-6.94,13.73-11.64-2.82,2.27-6.05,4.21-9.67,5.76m-1.97-17.4c-5.29,1.88-11.06,2.87-17.13,3.04-1.15.08-1.09.35-1.15,1.25-.04,5.34-.16,10.39-.3,14.96,0,0-.04.47.13.64.14.14.6.12.6.12,6.04-.39,11.76-1.68,17.02-3.83.78-.34.9-.8,1.12-1.67,1.43-5.75,1.08-13.45,1.08-13.45,0,0,.02-.94-.31-1.16-.08-.05-.18-.07-.29-.07-.34,0-.76.17-.76.17m14.24-8.36c-1.75,1.74-4.98,4.14-8.77,6.06-1.22.63-1.35,1.09-1.37,2.14.06,6.09-.67,10.79-1.99,14.76,0,0-.11.28.25.1.35-.18,5.88-2.82,9.66-6.64,1.29-1.24,2.27-3.16,2.48-5.13.75-6.75-.12-11.28-.12-11.28,0-.05-.03-.06-.05-.06-.04,0-.09.05-.09.05m3.86-5.09c-.71,1.18-.98,2-.9,2.8.23,2.66.24,5.01.24,5.01,0,2.73-.27,5.4-.78,7.93,2.2-3.81,3.99-9.31,3.99-15.71,0-1.79-.14-3.65-.46-5.55-.38,1.89-1.01,3.79-2.09,5.53m-22.34-8.67c-3.95,1.31-8.3,2.05-12.92,2.21-.88.03-1.16.64-1.15,1.28.03,2.84.09,7.31.09,13.32v5.04s-.02.47.17.68c.12.12.35.16.66.14,2.77-.14,9.87-.63,17.04-3.41.97-.37,1.19-.83,1.19-1.57,0-.19,0-.39-.04-.6-.71-5.46-2.01-10.98-3.87-16.41-.25-.71-.37-.83-.59-.83-.13,0-.31.04-.59.15m-31.18,0c-3.66,9.19-4.39,19.11-4.39,19.11-.04.46.08.55.4.7,0,0,7.76,2.96,17.71,2.96,0,0,.69-.02.87-.2.25-.25.28-.44.27-1.24.03-4.9.12-17.85.12-17.85,0-.82-.41-1.24-1.13-1.29-4.63-.22-9.15-1.07-13.08-2.45-.2-.07-.34-.11-.43-.11-.13,0-.22.06-.34.38m42.11-6.26c-1.67,1.69-3.88,3.21-6.58,4.49-.61.32-.74.55-.74.82,0,.19.07.41.19.69,2.01,5.29,3.39,10.67,4.06,16.03,0,0,.09,1.03.35,1.24.22.19.96-.26,1.03-.29,3.08-1.84,5.94-4.17,7.58-5.81.65-.65.89-1.12.89-1.84,0-.36-.07-.79-.2-1.34-1.23-4.96-3.08-9.64-5.51-13.89-.2-.34-.38-.48-.48-.48h-.04c-.11,0-.3.11-.54.36m4.36-9.1c0,1.53-.34,3.09-1.04,4.69-.25.59-.35.96-.35,1.25,0,.31.14.51.33.87,0,0,3.99,5.49,6.28,14.5,2.5-4.37,2.5-7.95,2.5-7.95,0-.22-.02-.42-.04-.57-1.16-4.99-3.76-9.71-7.77-14.04.07.41.09.82.09,1.24m-29.82-2.87c.17,5.78.31,11.51.4,17.04,0,.49.09.77.25.9.11.11.36.17.63.17,3.79,0,9.21-1.17,12.33-2.33.31-.12.5-.2.6-.47.1-.26-.14-.81-.14-.81-2.34-5.72-5.19-10.93-8.17-15.01-1.61.29-4.77.52-5.9.51m-15.54,15.41c-.24.53-.13.69-.13.69.06.12.23.17.23.17,2.98.98,8.71,1.94,12.71,1.94.45,0,.7-.09.86-.23.16-.16.27-.48.28-1.03.11-5.54.25-11.3.59-16.95-1.72-.03-3.81-.33-5.28-.63-3.7,4.77-6.78,10.11-9.26,16.05m23.04-16.27c3.43,4.13,6.4,8.9,8.86,14.2.25.53.41.83.6.88.23.08.57-.07.83-.22,2.38-1.26,4.57-2.79,6-4.23.3-.3.43-.58.43-.88s-.14-.65-.46-1.12c-3.23-4.45-7.04-8.02-11.19-10.66-1.18.8-3.06,1.54-5.05,2.04m7.8-6.26c0,1.01-.47,2.04-1.37,3.07,4.45,2.57,8.21,5.65,11.46,9.41,0,0,.52.65.81.62.22-.03.4-.54.4-.54.69-1.77.82-4.21.08-6-.7-1.65-2.92-3.33-2.92-3.33-3.37-2.62-7.17-4.28-8.95-4.97.33.55.5,1.13.5,1.73M22.59,62.13c0,21.22,18.02,39.71,38.81,39.71-.02-.34-.26-4.98-.26-4.98-.03-.51-.15-.68-.78-.75,0,0-9.07-.7-12.06-2.22-.12-.08-.05-.2.11-.16,0,0,6.13,1.05,11.94,1.05,0,0,.66.04.66-.7,0-.65-.26-15.06-.26-15.06-.04-1.08-.21-1.26-1.25-1.35-6.32-.3-12.48-1.64-17.83-3.88-.14-.05-.21-.07-.28-.03-.12.06-.12.29-.12.29-.47,6.66.27,13.17.27,13.17.03.11-.02.17-.12.17-.12.02-.15-.11-.15-.11-.95-3.58-1.42-7.5-1.44-11.65,0-.3.03-1.99.03-1.99,0-.45-.18-.73-.59-.93-2.55-1.25-4.79-2.82-6.8-4.43,0,0-.14-.13-.02-.27.1-.09.22-.02.22-.02,2.07,1.34,4.44,2.46,6.91,3.47l.28.02c.14-.09.14-.3.16-.61.39-6.15,2.06-12.67,4.44-18.83.05-.14.08-.25.08-.33,0-.19-.1-.3-.44-.46-3.88-1.71-6.88-4.03-8.81-6.56,0,0-.12-.14,0-.25.11-.1.24.03.24.03,2.19,2.14,5.44,3.93,9.16,5.32.16.06.28.09.37.09.16,0,.29-.1.55-.65,2.51-5.82,5.8-11.28,9.53-15.83-3.13-.76-6.33-2.44-7.12-4.3,0,0-.1-.2.04-.28.17-.09.3.11.3.11,3.49,3.78,13.6,3.53,13.6,3.53,4.23,0,13-1.48,13-5.03,0-3.22-4.65-4.9-13.1-5.01-25.57,0-39.27,22.14-39.27,39.72"/>
  <g class="cls-1">
    <rect class="cls-3" x="22.59" y="22.41" width="79.32" height="79.58"/>
  </g>
  <g class="cls-4">
    <path class="cls-3" d="m3.31,89.19c3.01,8.04,10.53,8.71,15.58,13.62.93.97,1.9,1.81,2.95,2.39l.06-.07c-1.17-1.24-2.52-2.66-3.32-4.26-2.95-4.87-1.91-11.68-4.12-16.92,2,2.86,3.83,5.81,5.05,9.04,1.8,5.28,2.5,11.24,6.68,15.24-4.52-1.78-9.8-1.4-13.82-4.58-4.23-3.35-8.25-8.54-9.07-14.46m42.1,23.12c.66,0,1.14-.22,1.14-.22-3.92-.87-7.22-1.59-10.57-4.38-4.43-3.69-7.81-7.43-12.7-10.47.6.39,3.4,6.08,5.74,9.51,1.62,2.39,4.25,3.74,6.54,4.3,1.98.48,2.4.7,2.4.7,0,0-.33.18-1.04.02,0,0-6.51-1.36-10.03-1.36-14.01,0-17.64-5.35-17.64-5.35,4.14,7.52,12.7,10.32,18.31,10.32,7.99,0,14.01-3.07,17.85-3.07m51.42,3.07c5.6,0,14.16-2.8,18.31-10.32,0,0-3.62,5.35-17.64,5.35-3.51,0-10.01,1.36-10.01,1.36-.72.16-1.06-.02-1.06-.02,0,0,.42-.21,2.41-.7,2.29-.56,4.92-1.92,6.54-4.3,2.34-3.43,5.13-9.12,5.74-9.51-4.89,3.04-8.28,6.78-12.7,10.47-3.36,2.8-6.66,3.51-10.59,4.38,0,0,.48.22,1.15.22,3.84,0,9.87,3.07,17.85,3.07M9.83,92.95c1.37,1.17,4.2,3.79,4.72,4.53,0,0-.32-1.06-.64-2.38-.32-1.31-.77-4.54-2.07-7.31-1.03-2.18-5.31-9.29-6.14-13.18,0,0-3.04,12.23,4.13,18.34m88.36,15.28c4.52-1.78,9.78-1.4,13.8-4.58,4.23-3.35,8.26-8.54,9.07-14.46-3.01,8.04-10.54,8.71-15.59,13.62-.93.97-1.89,1.81-2.94,2.39l-.06-.07c1.16-1.24,2.51-2.66,3.32-4.26,2.96-4.87,1.91-11.68,4.12-16.92-2.01,2.86-3.84,5.81-5.05,9.04-1.8,5.28-2.5,11.24-6.67,15.24m-11.14,8.85c-6.97-2.84-14.23-6.44-22.63-4.73-.95.17-1.73.38-2.56.38s-1.59-.2-2.54-.38c-8.42-1.71-15.68,1.89-22.64,4.73-5.21,1.91-12.02,1.6-16.59-1.35,2.26,2.65,5.29,4.3,8.42,5.41,5.82,2.17,12.72.69,17.53-2.45,4.12-2.17,7.68-6.44,13.11-4.83-5.54,2.42-10.58,5.78-15.16,10.12l2.86,2.21s5.38-7.22,15.02-11.56c9.65,4.34,15.02,11.56,15.02,11.56l2.87-2.21c-4.58-4.33-9.64-7.7-15.17-10.12,5.43-1.61,8.99,2.66,13.11,4.83,4.82,3.14,11.72,4.62,17.54,2.45,3.13-1.11,6.16-2.76,8.42-5.41-4.58,2.95-11.38,3.26-16.59,1.35m27.5-24.13c7.17-6.11,4.13-18.34,4.13-18.34-.82,3.89-5.11,11-6.13,13.18-1.31,2.78-1.76,6-2.08,7.31-.32,1.32-.64,2.38-.64,2.38.52-.74,3.35-3.36,4.72-4.53M1.27,58.27c2.12.19,4.23.38,6.35.56,1.69.15,2.55-.52,2.71-2.12.08-.75-.02-1.35-.29-1.81-.39-.65-.97-.93-2.13-1.06-2.04-.23-4.08-.45-6.13-.68-.23.44-.46.88-.7,1.31-.14-.02-.29-.03-.44-.05.14-1.33.29-2.66.45-3.99.15.02.29.04.44.05.13.48.25.97.38,1.45,1.95.22,3.89.45,5.84.68,1.47.17,2.32.69,2.88,1.68.45.83.62,1.77.5,2.94-.24,2.51-1.55,3.81-3.69,3.65-2.12-.17-4.24-.34-6.36-.51-.22.45-.44.9-.66,1.35-.15,0-.29-.02-.44-.03.12-1.61.25-3.22.41-4.82.15,0,.29.03.44.04.14.45.28.91.43,1.36m3.41-12.48c2.29.75,4.58,1.5,6.86,2.24.31-.34.61-.69.92-1.03.14.05.28.09.42.14-.38,1.14-.75,2.28-1.12,3.43-.14-.04-.28-.09-.42-.13-.04-.47-.08-.95-.12-1.43-2.7-.87-5.4-1.74-8.1-2.61-.32.38-.63.76-.94,1.15-.14-.04-.28-.09-.42-.13.32-1.03.66-2.05.99-3.07,2.83-1.04,5.67-2.01,8.51-2.93-1.92-.68-3.83-1.37-5.75-2.05-.32.34-.63.69-.95,1.04-.14-.05-.28-.1-.41-.15.41-1.18.84-2.36,1.27-3.53.13.05.27.1.41.15.02.5.03.99.04,1.48,3.03,1.1,6.06,2.19,9.08,3.29-.09.25-.18.5-.27.76-3.34,1.04-6.67,2.17-10,3.38m14.91-18.48l2.37,1.72c-.56,1.44-.98,2.33-1.57,3.16-1.93,2.74-4.68,3.26-7.38,1.35-2.74-1.91-3.61-4.68-1.24-7.94.52-.73,1.29-1.49,2.31-2.43l.2-.18,2.1,1.51-.46.65-2.09-.58c-.28.18-.5.4-.71.66-2.04,2.55-1.4,4.85,1.09,6.59,2.23,1.55,4.52,1.23,5.96-.85.26-.39.3-.65.3-.65l-2.06-1.48-1.23.76-.36-.24,2.71-3.72.37.24-.3,1.4v.03Zm4.33-1.15l-6.03-6.09-1.33.53-.32-.31,3.35-3.27.31.29-.55,1.33,6.12,6.23,1.91-1.86-.66-2.05.47-.47,1.73,2.1s-2.62,2.5-5.25,5.2l-.3-.32.54-1.31h.01Zm2.98-8.42c-1.97-2.81-1.52-5.89,1.42-7.77,2.73-1.73,5.37-.93,6.94,1.66,1.71,2.82,1.25,5.94-1.43,7.69-2.45,1.62-5.18.94-6.93-1.57m1.52-1.49c1.66,2.33,3.72,3.11,5.16,2.2,1.39-.89,1.45-3.12.03-5.52-1.36-2.29-3.33-3.27-5.07-2.17-1.86,1.19-1.74,3.22-.12,5.48m11.67-1.76l-3.37-7.9-1.43-.04-.16-.4,4.77-1.99c1.12-.45,1.84-.51,2.6-.23.67.23,1.14.69,1.39,1.33.53,1.33-.2,2.63-1.9,3.56,2.07-.74,3.47-.31,4.08,1.22.32.8.21,1.71-.26,2.38-.46.7-1.14,1.15-2.48,1.69l-4.09,1.79-.16-.41,1.02-1h-.01Zm.05-5.2l.63-.28c1.17-.47,1.7-1.58,1.23-2.77s-1.4-1.62-2.59-1.12l-.87.42,1.6,3.74h0Zm1.91,4.59l.56-.26c.83-.33,1.18-.59,1.47-1.1.26-.53.27-1.1.03-1.73-.51-1.29-1.57-1.71-2.99-1.16l-.72.33,1.66,3.92h0Zm8.19-6.08l-.59,3.18,1.29.33.08.43-3.45.81-.07-.42,1.06-.74,2.36-10.44.77-.13,5.42,8.99,1.27.32.07.44-4.5.61-.08-.42,1.08-.77-1.55-2.81-3.16.61h0Zm.13-.79l2.65-.48-1.83-3.34-.81,3.83h0Zm10.33,2.6l.08-8.54-1.31-.57V.04c2.44-.08,4.67-.03,4.67-.03v.43l-1.33.54-.1,8.79,2.47.06,1.01-1.91h.65l-.26,2.73s-3.97-.17-7.21-.08v-.43l1.34-.54h-.01Zm17.71,2.61l1.36-1.85.67.19-.79,2.44h-.25c-1.48-.03-2.28-.12-3.19-.37-3.08-.84-4.42-3.24-3.71-6.38.73-3.28,3.05-4.83,7.02-3.91.93.22,1.89.67,3,1.3l-.69,2.5-.68-.15-.17-2.26s-.36-.18-.81-.31c-3.37-.89-5.04.76-5.62,3.32-.61,2.66.47,4.68,2.86,5.33.35.09.59.15,1.02.17m19.71,8.51l7.23-3.29,2.36,2.38-.29.33-1.37-.46-5.94,6.1.67,1.3-.3.33c-1.57-1.6-3.12-3.09-3.12-3.09l.28-.36,1.31.43,4.77-5.07-7.95,3.59-.29-.27,2.39-8.42-4.35,5.45.6,1.25-.3.33-3.01-2.17.29-.32,1.36.43,5.44-6.58-.63-1.28.3-.33,2.77,2.04-2.19,7.68h-.03Zm8.79,7.71l-2.68,2.04.33,1.39-.34.26c-1.35-1.82-2.81-3.66-2.81-3.66l.35-.26,1.19.68,6.68-5.23-.31-1.35.36-.26,2.76,3.58c.93,1.24,1.22,2,1.23,2.89,0,.89-.39,1.65-1.16,2.22-1.57,1.13-3.53.57-4.97-1.4l-.64-.89h0Zm.85,0c.51.7.85.96,1.35,1.08.66.15,1.43.06,2.1-.43.61-.46.98-.97,1.07-1.56.08-.57-.03-1-.5-1.6l-.62-.78-3.69,2.89.31.39h-.02Zm3.36,7.18l-3.22.24.05,1.32-.41.2c-.8-1.49-1.78-3.06-1.78-3.06l.4-.22,1.03.85,10.69-.6.37.85-7.18,7.58.04,1.31-.4.19c-.86-2.14-1.71-4.1-1.71-4.1l.39-.2,1.02.82,2.16-2.29-1.45-2.88h0Zm.8-.1l1.18,2.41,2.71-2.68-3.89.26h0Zm1.56,15.5l2.3.24.18.66-2.52.54-.12-.21c-.72-1.29-1.07-2.02-1.32-2.92-.87-3.14.52-5.37,3.63-6.4,3.27-1.08,5.96.59,6.88,4.04.26.93.38,2.08.38,3.37l-2.55.66-.17-.68,1.84-1.29c0-.27-.04-.61-.14-.97-.81-2.92-2.95-4.05-5.65-3.13-2.63.89-3.83,2.65-3.16,5.12.1.36.22.56.38.92l.02.05h.02Zm9.83,7.43l-8.65.64-.42,1.76-.43.03c-.09-2.8-.42-5.44-.42-5.44l.44-.04.67,1.67,8.65-.66-.2-2.2-2.23-.61-.05-.62,2.96-.23s.68,4.67.69,9.22l-2.93.22-.05-.64,2.1-.96-.14-2.17v.03ZM83.28,9.41c1.45-3.12,4.34-4.28,7.43-2.67,2.88,1.46,3.53,4.16,2.07,6.8-1.58,2.9-4.51,4.08-7.38,2.65-2.62-1.31-3.4-3.99-2.11-6.78m2.05.56c-1.17,2.6-.8,4.77.7,5.56,1.47.76,3.42-.31,4.79-2.74,1.27-2.33,1.16-4.52-.68-5.48-1.95-1.02-3.65.12-4.81,2.66m66.06,37.76v-19.08h5.43v18.42c0,3.59,1.71,6.25,5.96,6.25,3.96,0,5.96-2.08,5.96-6.25v-18.42h5.44v18.67c0,6.94-4.62,10.9-11.4,10.9s-11.39-3.51-11.39-10.5m27.93-10.87h4.86v2.57h.08c1.39-2,3.59-2.98,5.92-2.98,4.7,0,7.31,2.94,7.31,7.92v13.4h-4.98v-12.13c0-3.14-1.35-4.82-3.88-4.82-2.74,0-4.33,1.67-4.33,5.23v11.72h-4.98v-20.91Zm23.33-8.5h4.98v5.31h-4.98v-5.31Zm0,8.5h4.98v20.91h-4.98v-20.91Zm11.07,15.97v-12.01h-2.82v-3.96h2.82v-6.33h4.98v6.33h4.53v3.96h-4.53v10.82c0,1.55.82,2,1.96,2,1.02,0,1.59-.04,2.57-.2v4.25c-1.1.29-2.94.41-3.67.41-3.23,0-5.84-1.55-5.84-5.27m11.89-3.1v-4.09c0-5.88,4.41-9.15,9.6-9.15,4.53,0,9.03,2.65,9.03,8.21v4.04h-13.44v1.14c0,2.66,2.16,4.21,4.82,4.21,1.68,0,3.43-1.1,4.54-2.69l3.84,2.2c-1.63,3.27-4.94,4.66-8.62,4.66-5.15,0-9.76-2.82-9.76-8.54m13.64-4.45v-.57c0-2.86-2-4-4.04-4s-4.41,1.14-4.41,4.29v.29h8.45Zm8.5,4.74v-5.06c0-5.68,3.96-8.49,8.62-8.49,2.33,0,4.25,1.18,5.31,2.57h.12v-10.38h4.98v29.12h-4.86v-2.33h-.04c-1.18,1.63-4,2.82-5.88,2.82-4.57,0-8.25-2.9-8.25-8.25m14.05-.16v-5.15c0-2.53-2.04-4.04-4.62-4.04-2.08,0-4.37,1.1-4.37,4.12v5.19c0,2.53,1.96,4,4.53,4,2.08,0,4.45-1.1,4.45-4.12m20.83-21.2h5.27l12.66,19.85h.08v-19.85h5.22v29.12h-5.31l-12.62-19.89h-.08v19.89h-5.23v-29.12h.01Zm27.54,23.2c0-4.04,3.68-6.45,7.72-6.45h5.55v-1.92c0-2.21-1.47-3.14-4-3.14-2.16,0-3.76.73-3.76,2.08v.74h-4.49v-.57c0-4.57,4.37-6.12,8.29-6.12,4.65,0,8.94,1.55,8.94,6.66v10.17c0,.94.12,4.04.37,4.49h-4.94c-.08-.33-.16-1.59-.2-1.92h-.08c-1.84,1.92-3.43,2.33-6.12,2.33-4.33,0-7.27-2.37-7.27-6.33m13.27-1.8v-1.02h-4.9c-2.12,0-3.51.74-3.51,2.57s1.43,2.65,3.76,2.65c4,0,4.66-1.96,4.66-4.21m10.87,2.78v-12.01h-2.82v-3.96h2.82v-6.33h4.98v6.33h4.53v3.96h-4.53v10.82c0,1.55.82,2,1.96,2,1.02,0,1.59-.04,2.57-.2v4.25c-1.1.29-2.94.41-3.68.41-3.23,0-5.84-1.55-5.84-5.27m12.87-24.47h4.98v5.31h-4.98v-5.31Zm0,8.5h4.98v20.91h-4.98v-20.91Zm9.39,13.19v-4.78c0-5.68,4.82-8.78,9.44-8.78,5.06,0,9.6,3.35,9.6,8.7v4.29c0,5.68-4.82,8.78-9.44,8.78-5.06,0-9.6-2.86-9.6-8.21m13.97-.12v-5.19c0-2.53-1.96-4-4.53-4-2.08,0-4.37,1.1-4.37,4.12v5.15c0,2.53,1.96,4.05,4.54,4.05,2.08,0,4.37-1.11,4.37-4.13m9.48-13.07h4.86v2.57h.08c1.39-2,3.6-2.98,5.92-2.98,4.7,0,7.31,2.94,7.31,7.92v13.4h-4.98v-12.13c0-3.14-1.35-4.82-3.88-4.82-2.74,0-4.33,1.67-4.33,5.23v11.72h-4.98v-20.91h0Zm21.93,17.32l3.51-2.65c1.31,1.72,3.39,2.74,5.76,2.74,2.04,0,4.12-.7,4.12-2.57,0-1.63-1.1-2-3.92-2.49l-2.74-.49c-3.43-.61-5.72-2.29-5.72-5.43,0-4.37,3.84-6.86,8.29-6.86,3.76,0,6.45.94,8.21,3.43l-3.6,2.45c-1.22-1.43-2.61-2.04-4.65-2.04s-3.39.73-3.39,2.33c0,1.47,1.8,1.68,3.96,2.08l3.14.61c3.55.7,5.6,2.7,5.6,5.84,0,4.82-4.94,7.11-9.23,7.11-3.76,0-7.27-.98-9.36-4.04m-250.52,38.16v-10.42c0-5.96,4.54-10.17,10.82-10.17,5.88,0,10.17,3.35,10.17,8.33v1.59h-2.45v-1.19c0-3.96-2.98-6.41-7.84-6.41s-8.13,3.11-8.13,7.88v9.96c0,4.74,3.39,7.76,8.33,7.76s7.8-2.53,7.8-6.49v-4.13h-8.17v-2.33h10.62v6.82c0,5.19-4.08,8.41-10.25,8.41s-10.91-3.31-10.91-9.64m27.13,4.29v-24.34h2.41v24.51c0,1.59.9,2.82,2.94,2.82.82,0,1.59-.12,2.25-.2v1.84c-.98.29-2.12.41-3.02.41-3.55,0-4.57-2.49-4.57-5.03m10.65-2.45v-5.47c0-5.31,3.59-8.05,8.25-8.05,5.02,0,8.25,2.86,8.25,8.01v5.27c0,5.27-3.47,8.04-8.17,8.04-4.98,0-8.33-2.65-8.33-7.8m14.09-.2v-5.52c0-3.31-1.84-5.76-5.84-5.76s-5.84,2.29-5.84,5.92v5.47c0,3.47,1.92,5.84,5.92,5.84s5.76-2.08,5.76-5.96m9.93,3.84h-.12v3.63h-2.25v-29.12h2.37v12.42h.12c1.35-2.94,4.21-4.12,6.53-4.12,4.29,0,7.19,2.78,7.19,7.03v6.62c0,5.47-3.8,7.72-7.64,7.72-2.61,0-5.35-1.51-6.21-4.17m11.39-3.23v-6.94c0-2.82-2.04-4.94-5.47-4.94-2.82,0-5.92,2.57-5.92,6.78v4.04c0,3.92,2.78,6.41,5.96,6.41,2.65,0,5.43-1.68,5.43-5.35m6.5,1.51c0-4.57,4.21-6.09,7.56-6.09h5.96v-3.14c0-3.19-2.12-4.29-5.19-4.29-2.53,0-5.22.9-5.22,3.55v.65h-2.21v-.61c0-4.04,3.76-5.55,7.56-5.55s7.47,1.43,7.47,5.84v9.89c0,1.18.16,4.21.29,5.1h-2.37c-.08-.69-.16-2.61-.16-3.23h-.08c-1.68,3.14-4.41,3.68-6.9,3.68-3.68,0-6.7-2.04-6.7-5.8m13.52-2v-2.29h-5.47c-2.78,0-5.64.69-5.64,4.17,0,2.74,2.37,4.04,4.94,4.04,4.09,0,6.17-2.41,6.17-5.92m8.29,2.53v-24.34h2.41v24.51c0,1.59.9,2.82,2.94,2.82.82,0,1.59-.12,2.25-.2v1.84c-.98.29-2.12.41-3.02.41-3.55,0-4.57-2.49-4.57-5.03m21.04-4.29v-10.42c0-5.96,4.53-10.17,10.86-10.17,5.88,0,10.17,3.47,10.17,8.45v1.63h-2.49v-1.23c0-3.96-2.98-6.54-7.8-6.54s-8.17,3.11-8.17,7.88v9.96c0,4.74,3.39,7.76,8.37,7.76s7.6-2.61,7.6-6.58v-.69h2.49v1.14c0,5.19-4.21,8.41-10.09,8.41s-10.94-3.31-10.94-9.64m25.28,1.84v-5.47c0-5.31,3.6-8.05,8.25-8.05,5.03,0,8.25,2.86,8.25,8.01v5.27c0,5.27-3.47,8.04-8.17,8.04-4.98,0-8.33-2.65-8.33-7.8m14.09-.2v-5.52c0-3.31-1.84-5.76-5.84-5.76s-5.84,2.29-5.84,5.92v5.47c0,3.47,1.92,5.84,5.92,5.84s5.76-2.08,5.76-5.96m7.52-12.87h2.29v3.88h.08c1.43-2.9,4.12-4.37,7.07-4.37,3.35,0,5.18,2.08,5.76,4.45h.04c1.47-2.9,4.21-4.45,7.23-4.45,3.96,0,6.33,2.57,6.33,6.21v14.62h-2.37v-13.31c0-3.68-1.76-5.39-4.7-5.39-3.15,0-6.01,2.62-6.12,6.21v12.5h-2.37v-13.44c-.08-3.51-1.72-5.27-4.66-5.27s-6.17,2.33-6.17,6.33v12.38h-2.41v-20.34h0Zm34.8,0h2.29v3.63h.08c1.43-2.9,4.33-4.12,6.66-4.12,4.29,0,7.19,2.7,7.19,6.94v6.7c0,5.47-3.76,7.72-7.56,7.72-2.65,0-5.31-1.51-6.17-4.17h-.12v11.56h-2.37v-28.27h0Zm13.77,13.48v-6.86c0-2.82-2.04-5.02-5.47-5.02-2.82,0-5.92,2.41-5.92,6.66v4.17c0,3.92,2.78,6.41,5.96,6.41,2.66,0,5.43-1.68,5.43-5.35m6.5,1.51c0-4.57,4.21-6.09,7.56-6.09h5.96v-3.14c0-3.19-2.12-4.29-5.19-4.29-2.53,0-5.23.9-5.23,3.55v.65h-2.21v-.61c0-4.04,3.76-5.55,7.56-5.55s7.47,1.43,7.47,5.84v9.89c0,1.18.16,4.21.29,5.1h-2.37c-.08-.69-.16-2.61-.16-3.23h-.08c-1.67,3.14-4.41,3.68-6.9,3.68-3.68,0-6.7-2.04-6.7-5.8m13.52-2v-2.29h-5.47c-2.78,0-5.64.69-5.64,4.17,0,2.74,2.37,4.04,4.94,4.04,4.08,0,6.17-2.41,6.17-5.92m7.15-.29v-4.74c0-5.27,3.23-8.41,8.13-8.41s7.76,2.7,7.76,6.74v.61h-2.33v-.82c0-2.08-1.55-4.53-5.39-4.53s-5.68,2.7-5.68,6.25v4.94c0,3.55,1.67,6.09,5.72,6.09s5.35-2.41,5.35-4.54v-.69h2.33v.53c0,4.04-2.9,6.74-7.72,6.74-5.07,0-8.17-2.94-8.17-8.17m22.1,3.59v-14.3h-3.8v-1.96h3.8v-6.41h2.41v6.41h6.05v1.96h-6.05v13.64c0,2.21,1.1,2.9,3.19,2.9,1.06,0,2.12-.21,3.1-.45v2.08c-1.3.41-2.94.53-3.8.53-2.53,0-4.9-.98-4.9-4.41"/>
  </g>
  <path class="cls-3" d="m149.11,47.7v-8.41c0-6.23,4.76-9.7,10.52-9.7,5.02,0,10.04,2.47,10.04,8.34v.81h-4.65v-.37c0-3.43-2.99-4.43-5.39-4.43s-5.65,1.33-5.65,5.09v8.41c0,3.17,2.73,4.98,5.83,4.98,2.77,0,5.2-1.33,5.2-4.76v-.63h-6.79v-4.43h11.44v5.5c0,5.87-4.83,8.67-9.85,8.67-5.72,0-10.7-3.21-10.7-9.08h0Z"/>
  <path class="cls-3" d="m174.09,51.28v-21.25h4.5v21.21c0,.85.41,1.55,1.62,1.55.81,0,1.25-.07,2.07-.15v3.43c-.96.26-2.44.52-3.62.52-4.46,0-4.58-3.62-4.58-5.31h0Z"/>
  <path class="cls-3" d="m183.87,49.36v-4.32c0-5.13,4.35-7.93,8.52-7.93,4.58,0,8.67,3.03,8.67,7.86v3.87c0,5.13-4.35,7.93-8.52,7.93-4.58,0-8.67-2.58-8.67-7.42h0Zm12.62-.11v-4.69c0-2.29-1.77-3.62-4.09-3.62-1.88,0-3.95,1-3.95,3.73v4.65c0,2.29,1.77,3.65,4.1,3.65,1.88,0,3.95-1,3.95-3.73h-.01Z"/>
  <path class="cls-3" d="m208.78,54.45h-.11v1.88h-4.32v-26.31h4.5v9.59h.04c1.4-1.88,3.5-2.54,5.2-2.54,4.13,0,7.45,2.62,7.45,7.45v4.57c0,5.13-3.76,7.67-7.97,7.67-2.1,0-3.84-1.07-4.8-2.33v.02Zm8.19-5.2v-4.69c0-2.29-1.77-3.62-4.1-3.62-1.88,0-4.02,1.29-4.02,4.02v4.35c0,2.29,1.84,3.65,4.17,3.65,1.88,0,3.95-1,3.95-3.73v.02Z"/>
  <path class="cls-3" d="m223.61,50.98c0-3.65,3.32-5.83,6.97-5.83h5.02v-1.73c0-1.99-1.33-2.84-3.62-2.84-1.96,0-3.39.66-3.39,1.88v.66h-4.06v-.52c0-4.13,3.95-5.53,7.49-5.53,4.2,0,8.08,1.4,8.08,6.01v9.19c0,.85.11,3.65.33,4.06h-4.46c-.07-.29-.15-1.44-.18-1.73h-.07c-1.66,1.73-3.1,2.1-5.54,2.1-3.91,0-6.57-2.14-6.57-5.72h0Zm11.99-1.62v-.92h-4.43c-1.92,0-3.17.66-3.17,2.32s1.29,2.4,3.39,2.4c3.62,0,4.21-1.77,4.21-3.8h0Z"/>
  <path class="cls-3" d="m244.79,51.28v-21.25h4.5v21.21c0,.85.41,1.55,1.62,1.55.81,0,1.25-.07,2.07-.15v3.43c-.96.26-2.44.52-3.62.52-4.46,0-4.57-3.62-4.57-5.31Z"/>
  <path class="cls-3" d="m264.93,47.7v-8.41c0-6.23,4.76-9.7,10.52-9.7,5.02,0,10.04,2.8,10.04,8.67v.81h-4.65v-.37c0-3.43-2.99-4.76-5.39-4.76s-5.65,1.33-5.65,5.09v8.41c0,3.17,2.73,4.98,5.83,4.98,2.4,0,5.2-1.33,5.2-4.76v-.37h4.65v.81c0,5.87-4.83,8.67-9.85,8.67-5.72,0-10.7-3.21-10.7-9.08h0Z"/>
  <path class="cls-3" d="m288.14,49.36v-4.32c0-5.13,4.35-7.93,8.52-7.93,4.58,0,8.67,3.03,8.67,7.86v3.87c0,5.13-4.35,7.93-8.52,7.93-4.57,0-8.67-2.58-8.67-7.42h0Zm12.62-.11v-4.69c0-2.29-1.77-3.62-4.1-3.62-1.88,0-3.95,1-3.95,3.73v4.65c0,2.29,1.77,3.65,4.09,3.65,1.88,0,3.95-1,3.95-3.73h.01Z"/>
  <path class="cls-3" d="m308.59,37.44h4.35v2.29h.07c1.29-1.73,3.14-2.66,5.35-2.66,2.51,0,4.21,1,5.39,2.8h.04c1.33-1.7,3.25-2.8,5.83-2.8,3.5,0,6.6,2.03,6.6,6.64v12.62h-4.5v-11c0-2.54-.89-4.32-3.43-4.32s-3.62,1.96-3.62,4.43v10.88h-4.5v-10.92c0-2.4-.7-4.39-3.43-4.39-1.59,0-3.65,1.07-3.65,4.21v11.11h-4.5v-18.89h0Z"/>
  <path class="cls-3" d="m341.06,37.44h4.39v2.18h.04c1.48-1.77,3.62-2.54,5.31-2.54,4.13,0,7.45,2.62,7.45,7.45v4.57c0,5.13-3.58,7.67-7.79,7.67-2.1,0-3.84-1.07-4.8-2.33h-.11v9h-4.5v-26.01h0Zm12.62,11.81v-4.69c0-2.29-1.77-3.62-4.1-3.62-1.88,0-4.02,1.26-4.02,3.99v4.39c0,2.29,1.84,3.65,4.17,3.65,1.88,0,3.95-1,3.95-3.73h0Z"/>
  <path class="cls-3" d="m360.32,50.98c0-3.65,3.32-5.83,6.97-5.83h5.02v-1.73c0-1.99-1.33-2.84-3.62-2.84-1.96,0-3.39.66-3.39,1.88v.66h-4.06v-.52c0-4.13,3.95-5.53,7.49-5.53,4.21,0,8.08,1.4,8.08,6.01v9.19c0,.85.11,3.65.33,4.06h-4.46c-.07-.29-.15-1.44-.18-1.73h-.07c-1.66,1.73-3.1,2.1-5.53,2.1-3.91,0-6.57-2.14-6.57-5.72h0Zm11.99-1.62v-.92h-4.43c-1.92,0-3.17.66-3.17,2.32s1.29,2.4,3.39,2.4c3.62,0,4.21-1.77,4.21-3.8Z"/>
  <path class="cls-3" d="m379.87,49.06v-3.69c0-5.31,3.98-8.26,8.67-8.26,4.1,0,8.26,2.4,8.26,7.42v.37h-4.39v-.37c0-2.58-2.03-3.62-3.87-3.62s-3.98,1.03-3.98,3.87v4.43c0,2.4,1.73,3.8,4.13,3.8,1.84,0,3.73-1.03,3.73-3.62v-.18h4.39v.18c0,5.02-4.02,7.38-8.12,7.38-4.65,0-8.82-2.69-8.82-7.71h0Z"/>
  <path class="cls-3" d="m400.79,51.87v-10.85h-2.55v-3.58h2.55v-5.72h4.5v5.72h4.1v3.58h-4.1v9.78c0,1.4.74,1.81,1.77,1.81.92,0,1.44-.04,2.32-.19v3.84c-1,.26-2.66.37-3.32.37-2.92,0-5.28-1.4-5.28-4.76h.01Z"/>
  <path class="cls-3" d="m150.11,72.97h2.4l14.28,22.29h.07v-22.29h2.21v26.34h-2.29l-14.43-22.62h-.07v22.62h-2.18v-26.34h0Z"/>
  <path class="cls-3" d="m173.17,92.38v-3.99c0-5.05,3.28-7.86,7.67-7.86,4.1,0,7.08,2.51,7.08,7.23v2.69h-12.51v2.18c0,3.25,2.07,5.31,5.61,5.31,2.36,0,3.91-1.14,4.91-2.36l1.62,1.03c-1.7,2.44-4.24,3.17-6.68,3.17-4.5,0-7.71-2.36-7.71-7.42v.02Zm12.62-3.47v-1.25c0-2.88-1.59-5.31-5.13-5.31s-5.24,2.62-5.24,5.57v1h10.37Z"/>
  <path class="cls-3" d="m193.21,95.67v-12.91h-3.43v-1.77h3.43v-5.79h2.18v5.79h5.46v1.77h-5.46v12.32c0,1.99,1,2.62,2.88,2.62.96,0,1.92-.19,2.8-.41v1.88c-1.18.37-2.66.48-3.43.48-2.29,0-4.43-.88-4.43-3.98h0Z"/>
  <path class="cls-3" d="m203.5,80.94h2.29l4.61,15.68h.04l4.87-15.68h2.1l4.69,15.64h.04l4.76-15.64h2.25l-5.94,18.45h-2.18l-4.69-15.64h-.07l-4.83,15.64h-2.18l-5.76-18.45h0Z"/>
  <path class="cls-3" d="m231.21,92.75v-4.94c0-4.8,3.25-7.27,7.45-7.27,4.54,0,7.45,2.58,7.45,7.23v4.76c0,4.76-3.14,7.27-7.38,7.27-4.5,0-7.53-2.4-7.53-7.05h.01Zm12.73-.18v-4.98c0-2.99-1.66-5.2-5.28-5.2s-5.28,2.07-5.28,5.35v4.95c0,3.14,1.73,5.28,5.35,5.28s5.2-1.88,5.2-5.39h0Z"/>
  <path class="cls-3" d="m249.95,80.94h2.1v3.91h.07c1.62-3.28,4.35-4.17,6.83-4.17.44,0,.92.04,1.29.11v2.03c-.63-.11-1.25-.11-1.7-.11-3.54,0-6.31,2.21-6.42,6.38v10.22h-2.18v-18.37h0Z"/>
  <path class="cls-3" d="m263.53,72.97h2.18v17.53l8.74-9.56h2.66l-6.31,6.75,6.9,11.62h-2.44l-5.98-10.07-3.58,3.76v6.31h-2.18v-26.34h.01Z"/>
  <path class="cls-3" d="m288.92,91.09v-9.41c0-5.39,4.1-9.19,9.81-9.19,5.31,0,9.19,3.14,9.19,7.64v1.48h-2.25v-1.11c0-3.58-2.69-5.9-7.05-5.9s-7.38,2.8-7.38,7.12v9c0,4.28,3.06,7.01,7.56,7.01s6.86-2.36,6.86-5.94v-.63h2.25v1.03c0,4.69-3.8,7.6-9.11,7.6s-9.89-2.99-9.89-8.71h.01Z"/>
  <path class="cls-3" d="m310.95,94.48c0-4.13,3.8-5.5,6.83-5.5h5.39v-2.84c0-2.88-1.92-3.87-4.69-3.87-2.29,0-4.72.81-4.72,3.21v.59h-1.99v-.55c0-3.65,3.39-5.02,6.83-5.02s6.75,1.29,6.75,5.28v8.93c0,1.07.15,3.8.26,4.61h-2.14c-.07-.63-.15-2.36-.15-2.91h-.07c-1.51,2.84-3.99,3.32-6.24,3.32-3.32,0-6.05-1.85-6.05-5.24h-.01Zm12.21-1.81v-2.07h-4.94c-2.51,0-5.09.63-5.09,3.76,0,2.47,2.14,3.65,4.46,3.65,3.69,0,5.57-2.18,5.57-5.35h0Z"/>
  <path class="cls-3" d="m329.84,80.94h2.07v3.5h.07c1.29-2.62,3.76-3.95,6.35-3.95,3.84,0,5.72,2.58,5.72,5.79v13.02h-2.18v-12.03c0-3.43-1.7-4.87-4.21-4.87-2.91,0-5.68,2.29-5.68,5.9v11h-2.14v-18.37h0Z"/>
  <path class="cls-3" d="m347.7,94.48c0-4.13,3.8-5.5,6.83-5.5h5.39v-2.84c0-2.88-1.92-3.87-4.69-3.87-2.29,0-4.72.81-4.72,3.21v.59h-1.99v-.55c0-3.65,3.39-5.02,6.83-5.02s6.75,1.29,6.75,5.28v8.93c0,1.07.15,3.8.26,4.61h-2.14c-.07-.63-.15-2.36-.15-2.91h-.07c-1.51,2.84-3.99,3.32-6.24,3.32-3.32,0-6.05-1.85-6.05-5.24h-.01Zm12.21-1.81v-2.07h-4.94c-2.51,0-5.09.63-5.09,3.76,0,2.47,2.14,3.65,4.46,3.65,3.69,0,5.57-2.18,5.57-5.35h0Z"/>
  <path class="cls-3" d="m365.7,93.53v-6.05c0-4.94,3.36-6.97,6.83-6.97,2.36,0,4.8,1.37,5.57,3.76h.07v-11.22h2.18v26.27h-2.1v-3.62h-.07c-1.33,2.95-3.95,4.09-5.98,4.09-3.91,0-6.49-2.43-6.49-6.27h0Zm12.51-1.77v-3.62c0-3.54-2.51-5.79-5.42-5.79-2.36,0-4.91,1.51-4.91,4.83v6.2c0,2.55,1.84,4.54,4.94,4.54,2.58,0,5.39-2.32,5.39-6.16Z"/>
  <path class="cls-3" d="m384.23,94.48c0-4.13,3.8-5.5,6.83-5.5h5.39v-2.84c0-2.88-1.92-3.87-4.69-3.87-2.29,0-4.72.81-4.72,3.21v.59h-1.99v-.55c0-3.65,3.39-5.02,6.83-5.02s6.75,1.29,6.75,5.28v8.93c0,1.07.15,3.8.26,4.61h-2.14c-.07-.63-.15-2.36-.15-2.91h-.07c-1.51,2.84-3.99,3.32-6.24,3.32-3.32,0-6.05-1.85-6.05-5.24h-.01Zm12.21-1.81v-2.07h-4.94c-2.51,0-5.09.63-5.09,3.76,0,2.47,2.14,3.65,4.46,3.65,3.69,0,5.57-2.18,5.57-5.35h0Z"/>
</svg>