<svg width="271" height="56" viewBox="0 0 271 56" fill="none" xmlns="http://www.w3.org/2000/svg">
<path d="M0 11.8401C0 11.0833 0.419784 10.3907 1.08593 10.0484L20.2222 0.217103C20.7886 -0.0738961 21.4583 -0.0722766 22.0234 0.221461L40.9225 10.0462C41.584 10.3901 42 11.0801 42 11.8335V53.9912C42 55.1006 41.1125 56 40.0177 56H1.9823C0.887506 56 0 55.1006 0 53.9912V11.8401Z" fill="#FFCF55"/>
<path d="M8.73047 48.5329L8.73047 47.6254C11.8247 46.5363 14.9215 47.1716 16.0831 47.6254L16.0831 48.4573C13.6935 49.3044 10.5303 49.0245 8.73047 48.5329Z" fill="#141464"/>
<path fill-rule="evenodd" clip-rule="evenodd" d="M11.9335 46.4691C10.9113 46.5116 9.80539 46.6888 8.6982 47.0844L8.39844 47.1915L8.39844 48.7596L8.72941 48.8513C10.5489 49.3558 13.7575 49.6528 16.2227 48.7657L16.5215 48.6582L16.5215 47.203L16.2363 47.0899C15.5749 46.8276 14.3375 46.5138 12.8361 46.4651L12.8361 13.1669C13.5179 12.9849 14.2519 12.8159 15.0145 12.6782C17.2419 12.276 19.67 12.1492 21.7437 12.7122L21.9797 11.8389C19.7211 11.2257 17.1413 11.3748 14.8545 11.7877C14.1525 11.9145 13.4741 12.0668 12.8361 12.2316L12.8361 10L11.9335 10L11.9335 12.48C10.8759 12.789 9.97188 13.117 9.3161 13.3898L9.66198 14.2255C10.2374 13.9862 11.0188 13.7001 11.9335 13.4237L11.9335 46.4691ZM9.301 47.8353L9.301 48.0645C10.9703 48.4634 13.5686 48.6488 15.619 48.014L15.619 47.8288C14.4234 47.4373 11.8816 47.0115 9.301 47.8353Z" fill="#141464"/>
<path d="M27.6141 18.5884L26.3627 12.3194C23.0649 11.3907 19.4187 12.7064 18.0078 13.4803L18.3759 19.7106C20.3756 20.0976 25.0229 20.384 27.6141 18.5884Z" fill="#141464"/>
<path fill-rule="evenodd" clip-rule="evenodd" d="M18.2937 13.8263L18.6334 19.2181C19.6521 19.3734 21.1596 19.4912 22.7259 19.4028C24.3742 19.3098 26.0286 18.9913 27.2501 18.2965L26.0794 12.7977C24.5414 12.4471 22.9259 12.5386 21.4988 12.8147C20.1638 13.073 19.0188 13.488 18.2937 13.8263ZM21.3227 11.9301C22.9178 11.6215 24.7901 11.5191 26.5864 11.9934L26.8578 12.0651L28.275 18.7213L28.0152 18.8901C26.5732 19.827 24.6026 20.1998 22.7781 20.3028C20.9422 20.4064 19.1852 20.2402 18.1168 20.0463L17.7653 19.9826L17.3438 13.2914L17.607 13.156C18.3766 12.7601 19.7271 12.2388 21.3227 11.9301Z" fill="#141464"/>
<path d="M19.9961 48.6654L21.2265 45.332L22.6461 45.332L20.8479 48.6654L19.9961 48.6654Z" fill="#141464"/>
<path fill-rule="evenodd" clip-rule="evenodd" d="M21.1668 45.332L22.6461 45.332L20.935 48.6654L19.9961 48.6654L21.1668 45.332ZM21.2839 45.5172L20.2432 48.4802L20.8352 48.4802L22.3562 45.5172L21.2839 45.5172Z" fill="#141464"/>
<path d="M32.9141 48.6654L31.6837 45.332L30.2641 45.332L32.0623 48.6654L32.9141 48.6654Z" fill="#141464"/>
<path d="M32.9156 45.332L20.3281 45.332L20.3281 36.332L32.9156 36.332L32.9156 45.332Z" fill="#141464"/>
<path d="M31.471 35.3401C31.2807 36.2362 30.2988 36.8163 29.6141 36.9427C28.3488 37.1667 27.445 36.7014 26.9027 35.8571C26.4689 35.1816 26.5905 33.9787 26.9027 33.5996C27.1492 33.2378 27.1291 32.9035 27.0108 32.5312C26.8629 32.066 26.7643 31.773 27.0108 31.2561C27.1917 30.8766 27.2587 30.5553 27.2314 30.3428C27.0123 30.1532 26.7055 29.7052 26.7877 29.2916C26.8465 28.9956 26.8863 28.7804 26.9027 28.6195C26.8465 27.9082 26.8465 27.6521 26.8465 27.396C27.2314 27.6521 27.4285 27.8442 27.7996 28.1198C28.1151 27.8579 28.711 27.9532 28.9191 28.0336C29.3539 27.6521 29.4781 27.5881 29.7715 27.332L29.7715 28.5484C29.8537 28.6977 29.9687 29.4846 29.7715 29.9119C29.5743 30.3393 29.6893 30.7333 29.7715 30.877C29.9523 31.1412 30.4157 31.8075 30.8232 32.3589C31.3326 33.0482 31.8219 33.6875 31.471 35.3401Z" fill="#141464"/>
<path d="M66.6266 40.4648C70.5701 40.4648 73.9723 39.224 73.9723 34.8037C73.9723 32.3997 72.4258 30.9263 70.2995 30.3059C71.6526 29.5692 72.4258 28.1345 72.4258 26.3121C72.4258 23.1326 69.9515 21.4653 65.8534 21.4653H57V40.4648H66.6266ZM62.4899 25.2264H64.8482C66.3947 25.2264 67.2066 25.7305 67.2066 27.0488C67.2066 28.4059 66.1627 29.0263 64.8096 29.0263H62.4899V25.2264ZM62.4899 32.3997H65.3508C66.9359 32.3997 68.2504 32.8262 68.2504 34.5711C68.2504 36.122 66.9746 36.7424 65.3895 36.7424H62.4899V32.3997Z" fill="#272A79"/>
<path d="M85.6153 41.0076C87.9737 41.0076 89.7907 40.1158 91.6465 38.2546H91.6851L91.6465 40.4648H97.2137V21.5041H91.6465L91.6851 23.6367H91.6465C89.8681 21.7755 87.935 21.0388 85.5767 21.0388C80.2414 21.0388 76.4913 25.4978 76.4913 30.965C76.4913 36.5098 80.2028 41.0076 85.6153 41.0076ZM86.9685 36.2384C83.9529 36.2384 82.1358 33.9894 82.1358 30.965C82.1358 28.0569 84.0689 25.808 87.0071 25.808C89.9454 25.808 91.9171 28.0569 91.9171 31.0038C91.9171 33.9894 89.9454 36.2384 86.9685 36.2384Z" fill="#272A79"/>
<path d="M118.662 21.5041L113.288 33.214L107.914 21.5041H104.009L100.182 40.4648H105.671L107.411 30.1508H107.45L112.128 40.4648H114.486L119.164 30.1508H119.203L120.943 40.4648H126.432L122.644 21.5041H118.662Z" fill="#272A79"/>
<path d="M131.773 46.3585V40.4648H144.956V46.3585H149.75V35.7731H146.812V21.4653H132.468L131.541 28.561C130.961 33.0589 130.729 35.7731 127.559 35.7731H127.017V46.3585H131.773ZM134.17 35.7731C135.755 34.4935 136.296 32.9038 136.721 29.4141L137.069 26.0407H141.361V35.7731H134.17Z" fill="#272A79"/>
<path d="M162.213 41.0076C168.398 41.0076 172.728 36.9363 172.728 31.0038C172.728 25.1101 168.36 21 162.29 21C156.181 21 151.851 25.2264 151.851 30.8875C151.851 36.9363 156.181 41.0076 162.213 41.0076ZM162.29 36.1996C159.352 36.1996 157.457 34.1445 157.457 30.965C157.457 27.9406 159.39 25.808 162.29 25.808C165.228 25.808 167.123 27.9406 167.123 31.0038C167.123 34.1445 165.189 36.1996 162.29 36.1996Z" fill="#272A79"/>
<path d="M178.966 46.3585V40.4648H192.15V46.3585H196.944V35.7731H194.006V21.4653H179.662L178.734 28.561C178.155 33.0589 177.923 35.7731 174.752 35.7731H174.211V46.3585H178.966ZM181.363 35.7731C182.949 34.4935 183.49 32.9038 183.915 29.4141L184.263 26.0407H188.554V35.7731H181.363Z" fill="#272A79"/>
<path d="M209.406 41.0076C215.592 41.0076 219.922 36.9363 219.922 31.0038C219.922 25.1101 215.554 21 209.484 21C203.375 21 199.045 25.2264 199.045 30.8875C199.045 36.9363 203.375 41.0076 209.406 41.0076ZM209.484 36.1996C206.545 36.1996 204.651 34.1445 204.651 30.965C204.651 27.9406 206.584 25.808 209.484 25.808C212.422 25.808 214.316 27.9406 214.316 31.0038C214.316 34.1445 212.383 36.1996 209.484 36.1996Z" fill="#272A79"/>
<path d="M240.233 21.5041L234.859 33.214L229.485 21.5041H225.58L221.753 40.4648H227.243L228.983 30.1508H229.021L233.699 40.4648H236.058L240.736 30.1508H240.774L242.514 40.4648H248.004L244.215 21.5041H240.233Z" fill="#272A79"/>
<path d="M258.836 41.0076C261.194 41.0076 263.011 40.1158 264.867 38.2546H264.905L264.867 40.4648H270.434V21.5041H264.867L264.905 23.6367H264.867C263.088 21.7755 261.155 21.0388 258.797 21.0388C253.462 21.0388 249.712 25.4978 249.712 30.965C249.712 36.5098 253.423 41.0076 258.836 41.0076ZM260.189 36.2384C257.173 36.2384 255.356 33.9894 255.356 30.965C255.356 28.0569 257.289 25.808 260.227 25.808C263.166 25.808 265.137 28.0569 265.137 31.0038C265.137 33.9894 263.166 36.2384 260.189 36.2384Z" fill="#272A79"/>
</svg>
