<?xml version="1.0" encoding="UTF-8" standalone="no"?><!DOCTYPE svg PUBLIC "-//W3C//DTD SVG 1.1//EN" "http://www.w3.org/Graphics/SVG/1.1/DTD/svg11.dtd"><svg width="100%" height="100%" viewBox="0 0 188 205" version="1.1" xmlns="http://www.w3.org/2000/svg" xmlns:xlink="http://www.w3.org/1999/xlink" xml:space="preserve" xmlns:serif="http://www.serif.com/" style="fill-rule:evenodd;clip-rule:evenodd;stroke-miterlimit:1.41421;"><g><path d="M0,94.117l92.733,-92.738l92.734,92.738l-8.659,8.658l8.659,8.654l-92.734,92.738l-92.733,-92.738l8.654,-8.654l-8.654,-8.658Z" style="fill:#0071bc;fill-rule:nonzero;"/><path d="M5.6,111.417l87.129,-87.13l87.133,87.13l-87.133,87.133l-87.129,-87.133Z" style="fill:#0071bc;fill-rule:nonzero;"/><path d="M5.6,111.417l87.129,-87.13l87.133,87.13l-87.133,87.133l-87.129,-87.133Z" style="fill:none;stroke:#fff;stroke-width:2.23px;"/><path d="M5.6,94.158l87.129,-87.129l87.133,87.129l-87.133,87.129l-87.129,-87.129Z" style="fill:#0071bc;fill-rule:nonzero;"/><path d="M5.6,94.158l87.129,-87.129l87.133,87.129l-87.133,87.129l-87.129,-87.129Z" style="fill:none;stroke:#fff;stroke-width:2.23px;"/><path d="M22.55,94.467l70.179,-70.18l70.179,70.18l-70.179,70.179l-70.179,-70.179Z" style="fill:#0071bc;fill-rule:nonzero;"/><path d="M22.55,94.467l70.179,-70.18l70.179,70.18l-70.179,70.179l-70.179,-70.179Z" style="fill:none;stroke:#fff;stroke-width:2.23px;"/><rect x="29.329" y="73.129" width="126.808" height="41.421" style="fill:#fff;fill-rule:nonzero;"/><path d="M52.417,111.604l10.445,-35.529l-11.262,0c0,0 -3.571,15.262 -4.025,18.138l-0.104,0c-0.408,-2.876 -3.567,-18.138 -3.567,-18.138l-10.912,0l8.82,35.529l10.605,0Z" style="fill:#0071bc;fill-rule:nonzero;"/><path d="M52.417,111.604l10.445,-35.529l-11.262,0c0,0 -3.571,15.262 -4.025,18.138l-0.104,0c-0.408,-2.876 -3.567,-18.138 -3.567,-18.138l-10.912,0l8.82,35.529l10.605,0Z" style="fill:none;"/><path d="M66.908,111.604l19.317,0l0,-8.387l-8.921,0l0,-5.421l6.742,0l0,-8.384l-6.742,0l0,-4.945l8.921,0l0,-8.392l-19.317,0l0,35.529Z" style="fill:#0071bc;fill-rule:nonzero;"/><path d="M66.908,111.604l19.317,0l0,-8.387l-8.921,0l0,-5.421l6.742,0l0,-8.384l-6.742,0l0,-4.945l8.921,0l0,-8.392l-19.317,0l0,35.529Z" style="fill:none;"/><path d="M121.021,111.604l-9.279,-18.375l8.312,-17.154l-10.962,0l-5.705,12.604l-0.154,0l0,0.092l0.1,-0.092l-0.05,0l0.05,0l0,-12.604l-10.395,0l0,35.529l10.395,0l0,-13.779l0.105,0l-0.051,0l6.471,13.779l11.163,0Z" style="fill:#0071bc;"/><path d="M121.021,111.604l-9.279,-18.375l8.312,-17.154l-10.962,0l-5.705,12.604l-0.154,0l0,0.092l0.1,-0.092l-0.05,0l0.05,0l0,-12.604l-10.395,0l0,35.529l10.395,0l0,-13.779l0.105,0l-0.051,0l6.471,13.779l11.163,0Z" style="fill:none;"/><path d="M135.342,98.233l1.429,-6.983c0.408,-2.217 0.662,-4.479 0.966,-6.692l0.105,0c0.254,2.213 0.458,4.475 0.762,6.692l1.121,6.983l-4.383,0Zm17.129,13.371l-8.159,-35.529l-12.691,0l-9.221,35.529l10.7,0l0.867,-4.571l6.983,0l0.763,4.571l10.758,0Z" style="fill:#0071bc;"/><path d="M135.342,98.233l1.429,-6.983c0.408,-2.217 0.662,-4.479 0.966,-6.692l0.105,0c0.254,2.213 0.458,4.475 0.762,6.692l1.121,6.983l-4.383,0Zm17.129,13.371l-8.159,-35.529l-12.691,0l-9.221,35.529l10.7,0l0.867,-4.571l6.983,0l0.763,4.571l10.758,0Z" style="fill:none;"/></g></svg>