<svg id="Ebene_1" data-name="Ebene 1" xmlns="http://www.w3.org/2000/svg" viewBox="0 0 229.68 251.13"><defs><style>.cls-1,.cls-2,.cls-4,.cls-5,.cls-6{fill:#0069b4;}.cls-2{stroke:#fff;stroke-width:2.76px;}.cls-2,.cls-4,.cls-5,.cls-7{stroke-miterlimit:3.86;}.cls-3{fill:#fff;}.cls-4,.cls-5,.cls-7{stroke:#0069b4;stroke-width:0;}.cls-5,.cls-6{fill-rule:evenodd;}.cls-7{fill:none;}</style></defs><polygon class="cls-1" points="0 114.84 114.84 0 229.68 114.84 218.96 125.57 229.68 136.28 114.84 251.13 0 136.28 10.72 125.57 0 114.84 0 114.84"/><polygon class="cls-2" points="6.94 136.27 114.84 28.37 222.74 136.27 114.84 244.17 6.94 136.27 6.94 136.27"/><polygon class="cls-2" points="6.94 114.9 114.84 7 222.74 114.9 114.84 222.8 6.94 114.9 6.94 114.9"/><polygon class="cls-2" points="27.93 115.28 114.84 28.37 201.75 115.28 114.84 202.19 27.93 115.28 27.93 115.28"/><polygon class="cls-3" points="36.32 88.86 193.36 88.86 193.36 140.15 36.32 140.15 36.32 88.86 36.32 88.86"/><path class="cls-4" d="M255.47,408.13l12.94-44h-14s-4.42,18.9-5,22.46h-.13c-.51-3.56-4.42-22.46-4.42-22.46H231.42l10.92,44Z" transform="translate(-190.56 -271.63)"/><polygon class="cls-4" points="82.86 136.5 106.78 136.5 106.78 126.12 95.74 126.12 95.74 119.4 104.08 119.4 104.08 109.02 95.74 109.02 95.74 102.89 106.78 102.89 106.78 92.5 82.86 92.5 82.86 136.5 82.86 136.5"/><polygon class="cls-5" points="149.87 136.5 138.38 113.75 148.67 92.5 135.1 92.5 128.03 108.11 127.84 108.11 127.84 108.23 127.97 108.11 127.91 108.11 127.97 108.11 127.97 92.5 115.09 92.5 115.09 136.5 127.97 136.5 127.97 119.44 128.1 119.44 128.03 119.44 136.05 136.5 149.87 136.5 149.87 136.5"/><path class="cls-6" d="M379.38,408.13l-10.1-44H353.56l-11.42,44h13.25l1.07-5.66h8.65l.95,5.66Zm-21.21-16.56,1.76-8.65c.51-2.74.83-5.54,1.2-8.28h.13c.32,2.74.57,5.54.95,8.28l1.39,8.65Z" transform="translate(-190.56 -271.63)"/><path class="cls-7" d="M379.38,408.13l-10.1-44H353.56l-11.42,44h13.25l1.07-5.66h8.65l.95,5.66Zm-21.21-16.56,1.76-8.65c.51-2.74.83-5.54,1.2-8.28h.13c.32,2.74.57,5.54.95,8.28l1.39,8.65Z" transform="translate(-190.56 -271.63)"/></svg>