<svg width="251" height="53" viewBox="0 0 251 53" xmlns="http://www.w3.org/2000/svg"><g fill="#C00"><path d="M58.841 38.04c-6.545 9.42-19.438 11.844-28.958 5.446s-12.145-19.252-5.896-28.87c6.249-9.62 19.06-12.444 28.774-6.346l-11.1 17.77 20.83-12a28.7 28.7 0 00-14.18-11.4 43.45 43.45 0 00-29.83 0 28.63 28.63 0 00-12.18 8.65c-7.068 8.563-7.068 20.937 0 29.5a28.54 28.54 0 0012.18 8.65 43.36 43.36 0 0024.63 1.55 32.38 32.38 0 0016.6-9.69l-.87-3.26zm87.94-29.15a7.56 7.56 0 00-3.22.72l-12.13 5.65a7.63 7.63 0 00-7.52-6.37 7.56 7.56 0 00-3.22.72l-14.81 6.93h10.41v34.28h15.24V20.33a3.82 3.82 0 117.63 0v30.49h15.24V16.54a7.62 7.62 0 00-7.62-7.65zm95.6 0a7.52 7.52 0 00-3.22.72l-12.16 5.65a7.63 7.63 0 00-7.52-6.37 7.56 7.56 0 00-3.22.72l-14.79 6.93h10.42v34.28h15.24V20.33a3.81 3.81 0 117.62 0v30.49h15.25V16.54a7.62 7.62 0 00-7.62-7.65z"/><path d="M182.351 8.89c-11.916.028-21.559 9.7-21.55 21.617.01 11.916 9.667 21.574 21.584 21.583 11.916.01 21.589-9.634 21.616-21.55a21.6 21.6 0 00-21.65-21.65zm4.93 40a4.76 4.76 0 01-5.83-3.35l-7.4-27.61a4.763 4.763 0 119.2-2.47l7.4 27.61a4.78 4.78 0 01-3.37 5.83v-.01zm-95.45-10.78a7.62 7.62 0 11-15.24.1 7.62 7.62 0 0115.24-.1zm3.91 12.71h15.26l-8.77-32.75a12.39 12.39 0 00-12-9.18 12.161 12.161 0 00-4.23.75l-18.89 6.9h19.44l3.32 12.4a18.32 18.32 0 00-12-4.46 19.64 19.64 0 00-9.44 2.41 14.33 14.33 0 00-5.33 5.07 11.79 11.79 0 000 12.36 14.33 14.33 0 005.33 5.07c8.702 4.752 19.58 2.293 25.39-5.74l1.92 7.17z"/></g></svg>