<svg width="154" height="80" viewBox="0 0 154 80" fill="none" xmlns="http://www.w3.org/2000/svg">
<path d="M120.081 79.9946C119.933 79.8336 119.722 79.9097 119.547 79.8766C118.67 79.6998 117.965 79.2565 117.53 78.4889C117.2 77.9058 117.06 77.2544 117.193 76.5517C117.298 76.0046 117.497 75.5194 117.87 75.122C118.269 74.6982 118.782 74.4447 119.345 74.3126C120.585 74.0178 121.819 74.0131 122.933 74.7035C123.293 74.9269 123.654 75.2812 123.743 75.7941L123.17 75.8719C122.705 75.935 122.723 75.9232 122.464 75.5147C122.229 75.1427 121.832 74.9469 121.421 74.8721C120.911 74.7699 120.385 74.7743 119.876 74.885C118.817 75.1374 118.26 75.8495 118.233 76.9732C118.221 77.4507 118.306 77.9164 118.565 78.3238C118.953 78.9381 119.557 79.2004 120.243 79.2812C120.583 79.327 120.928 79.3166 121.264 79.2506C121.955 79.1044 122.499 78.7506 122.774 78.0927C122.896 77.7979 123.071 77.8905 123.251 77.9158C123.303 77.9229 123.354 77.9848 123.428 77.9954C123.926 78.0662 123.925 78.0691 123.702 78.5107C123.286 79.336 122.552 79.6957 121.703 79.8743C121.271 79.9604 120.828 79.9864 120.389 79.9515C120.33 79.9474 120.249 79.9156 120.205 79.9975L120.081 79.9946Z" fill="white"/>
<path d="M74.6518 53.1655C73.4333 53.1136 72.1161 53.0281 70.8047 52.8418C68.0697 52.4533 65.4487 51.6881 62.9613 50.4837C59.1583 48.6472 56.1098 45.9731 54.0422 42.2484C52.6274 39.7016 51.8417 36.9615 51.6165 34.0539C51.4213 31.5236 51.7518 29.0641 52.5527 26.6611C53.3307 24.3295 54.5068 22.2072 55.9134 20.2057C57.1272 18.4795 58.4932 16.8783 59.9222 15.3285C61.5264 13.5876 63.22 11.9316 64.7901 10.1588C65.437 9.42544 66.0744 8.67673 66.5666 7.82485C66.8507 7.33258 67.1547 6.8415 67.2176 6.25432C67.2982 5.5233 67.1241 4.83001 66.8912 4.15145C66.6058 3.32698 66.1954 2.5515 65.6746 1.85226C65.3805 1.45609 65.2741 1.02337 65.5452 0.561767C65.8063 0.117847 66.215 -0.00713453 66.7007 0.0423865C69.9623 0.371481 73.1838 1.02052 76.3189 1.98019C80.1042 3.14275 83.6943 4.7345 87.0645 6.82087C89.5896 8.38314 91.9247 10.1924 94.0147 12.3035C96.3034 14.6169 98.2293 17.1967 99.65 20.1444C100.659 22.2169 101.364 24.4245 101.745 26.6988C102.075 28.7455 102.131 30.8274 101.911 32.889C101.833 33.6095 101.719 34.3255 101.568 35.0343C100.892 38.3133 99.4554 41.2191 97.3272 43.7895C95.7001 45.7556 93.7636 47.3621 91.6031 48.7056C89.4972 50.015 87.2456 51.0048 84.8816 51.7329C82.9657 52.3243 80.998 52.7319 79.0052 52.9503C77.5598 53.1114 76.106 53.1833 74.6518 53.1655ZM62.3173 44.1184C63.153 44.9121 64.0736 45.6109 65.0624 46.2019C67.3288 47.5578 69.7792 48.3985 72.3825 48.8282C74.5684 49.1895 76.7924 49.2585 78.9964 49.0334C81.1111 48.8264 83.1919 48.3565 85.1909 47.6344C88.507 46.4276 91.4467 44.6449 93.8283 42.0008C95.583 40.0524 96.8203 37.8151 97.4742 35.2719C98.0958 32.843 98.224 30.3746 97.9211 27.8826C97.6483 25.6407 97.0079 23.4593 96.0258 21.4266C94.6104 18.4789 92.6198 15.9681 90.2147 13.7774C87.3273 11.1475 84.0401 9.14541 80.4788 7.57724C77.8438 6.42473 75.1073 5.52118 72.3049 4.87835C71.8732 4.77813 71.444 4.65609 70.9688 4.60775C71.3216 5.78682 71.3734 6.93524 71.0441 8.09191C71.0197 8.19685 71.0154 8.30545 71.0311 8.41202C71.09 8.988 71.1605 9.56221 71.2211 10.1382C71.3616 11.4658 71.4716 12.7958 71.561 14.1276C71.6476 15.2929 71.6702 16.4622 71.6286 17.63C71.6128 17.7645 71.6263 17.9009 71.668 18.0297C71.7674 18.2932 71.641 18.568 71.3816 18.6918C71.1223 18.8156 70.8647 18.9276 70.6007 19.0284C68.7542 19.7458 67.1488 20.7834 66.0297 22.4707C65.9819 22.5444 65.9182 22.6064 65.8433 22.6523C65.5434 22.8397 65.2441 22.8061 64.9536 22.6446C64.5767 22.4353 64.2985 22.1417 64.2697 21.6854C64.2285 21.0275 64.5802 20.527 64.9618 20.0477C65.4158 19.4782 65.9674 19.0054 66.4996 18.5149C66.7936 18.2467 66.9348 17.8929 67.1076 17.4962C66.9989 17.5251 66.9453 17.5257 66.9077 17.551C66.3196 17.9484 65.6387 18.1529 65.0177 18.4807C64.4532 18.7784 64.0533 19.2058 63.8875 19.8337C63.8422 20.0041 63.7975 20.1744 63.7557 20.346C63.5793 21.0717 63.0554 21.4101 62.3103 21.2669C62.3367 21.4502 62.3432 21.617 62.5149 21.755C62.6708 21.88 62.7119 22.0828 62.6637 22.2938C62.5801 22.6771 62.4594 23.0512 62.3032 23.411C61.9945 24.0996 61.8998 24.774 62.1786 25.5139C62.3832 26.0556 62.2591 26.6175 61.9763 27.1298C61.714 27.6055 61.2918 27.6669 60.8966 27.2878C60.7067 27.105 60.5144 26.924 60.2139 26.8309C60.2727 27.4033 59.8734 27.6562 59.4853 27.9121C58.8143 28.3542 58.0957 28.7133 57.3983 29.1089C57.2807 29.1761 57.1754 29.2321 57.163 29.4072C57.0457 30.827 57.0834 32.2555 57.2754 33.6671C57.2995 33.844 57.3547 33.8965 57.5276 33.8994C57.9192 33.907 58.3108 33.8849 58.699 33.8334C59.1395 33.7744 59.2512 33.6565 59.3177 33.2103C59.3718 32.8483 59.5476 32.6301 59.8569 32.6119C60.5039 32.5655 61.1529 32.6685 61.754 32.9131C61.9727 33.0051 62.1286 33.0075 62.3226 32.909C63.2235 32.4527 64.0692 31.9068 64.9101 31.3461C66.0156 30.6063 67.1882 30.0091 68.5213 29.7963C69.4569 29.6465 70.1338 30.1022 70.3508 31.0302C70.4543 31.4741 70.4343 31.9286 70.4337 32.379C70.4337 32.8913 70.6289 33.2633 71.0988 33.4891C71.4957 33.6783 71.8044 33.9737 72.0826 34.3145C72.536 34.8716 72.9059 35.48 73.2487 36.1102C73.4733 36.5229 73.4792 36.9391 73.3228 37.3582C73.2114 37.6828 73.0649 37.9942 72.8859 38.2867C72.6589 38.6358 72.7247 38.9081 72.9559 39.2141C73.3046 39.6751 73.6821 40.1114 74.0502 40.5559C74.4619 41.0511 74.8217 41.5734 74.8306 42.2549C74.8275 42.3042 74.8422 42.3529 74.872 42.3922C74.9018 42.4314 74.9447 42.4587 74.9929 42.4689C75.1105 42.5078 75.2281 42.555 75.3516 42.5945C75.9044 42.7767 76.0708 43.1428 75.8003 43.6639C75.6885 43.8791 75.7615 43.8962 75.9467 43.9257C76.6624 44.0436 76.8464 44.2517 76.8641 44.9691C76.8688 45.1419 76.8917 45.2244 77.0911 45.1601C77.3751 45.0699 77.6715 45.0823 77.9655 45.1012C78.4736 45.133 78.9822 45.1601 79.4897 45.1979C79.7961 45.2209 80.0925 45.2203 80.3783 45.08C80.5269 45.0021 80.6937 44.9658 80.8611 44.975C81.2363 45.0039 81.4138 45.2875 81.2774 45.6377C81.1933 45.8528 81.014 45.9755 80.8317 46.0898C79.989 46.6204 79.0469 46.8639 78.0825 47.0549C77.3827 47.1935 76.7006 47.1663 76.0343 46.9152C75.4316 46.6876 74.8088 46.5998 74.1696 46.565C73.1934 46.5119 72.2131 46.4848 71.2581 46.2319C70.3761 45.9961 69.541 45.6424 68.6983 45.2993C67.1841 44.6867 65.6875 44.033 64.2321 43.2884C64.068 43.2041 63.9692 43.197 63.8792 43.398C63.734 43.7176 63.4617 43.9003 63.123 43.997C62.8678 44.0624 62.6143 44.0618 62.3173 44.1184Z" fill="white"/>
<path d="M71.6347 70.0036C70.9379 70.0347 70.2414 69.9348 69.5812 69.7088C68.6411 69.3984 67.7846 68.8756 67.0779 68.1808C64.7157 65.8491 64.9609 62.0991 67.6195 60.0965C70.3834 58.0148 74.3045 58.3797 76.525 60.9218C78.0081 62.622 78.2662 64.9896 77.1348 66.9427C76.1498 68.6418 74.6232 69.5703 72.7168 69.9099C72.5822 69.9354 72.4463 69.9539 72.3098 69.9653C72.0852 69.9871 71.8606 69.993 71.6347 70.0036ZM71.8764 61.3026C70.8244 61.3026 70.087 61.5538 69.4472 62.0437C68.0682 63.0996 67.8759 64.969 69.0138 66.2671C70.2787 67.7115 72.615 67.8294 74.0199 66.52C75.0784 65.5308 75.306 64.0953 74.545 62.8649C73.8823 61.7884 72.852 61.3486 71.8764 61.3026Z" fill="white"/>
<path d="M89.0826 65.2263C89.0339 64.9871 89.0141 64.7428 89.0238 64.4988C89.0238 62.7302 89.0279 60.9616 89.0174 59.193C89.0174 58.9483 89.0762 58.8758 89.3261 58.8817C90.0506 58.8988 90.7762 58.8935 91.5019 58.8847C91.6818 58.8847 91.7371 58.9366 91.7371 59.1175C91.7324 62.6155 91.7324 66.1134 91.7371 69.6113C91.7371 69.7881 91.683 69.8312 91.5078 69.8518C90.8244 69.9326 90.3052 69.7156 89.7795 69.2381C87.7495 67.3946 85.669 65.6071 83.6049 63.799C83.5614 63.7613 83.5143 63.7277 83.4561 63.6811V64.3845C83.4561 66.113 83.4561 67.8421 83.4602 69.5724C83.4602 69.764 83.4267 69.8536 83.2062 69.85C82.4715 69.8375 81.7366 69.8375 81.0016 69.85C80.774 69.8542 80.7275 69.7728 80.7275 69.56C80.7326 66.0927 80.7326 62.6255 80.7275 59.1582C80.7275 58.9631 80.7728 58.8552 80.9875 58.8888C81.0069 58.8917 81.0268 58.8917 81.0463 58.8888C81.6861 58.7815 82.153 59.035 82.6287 59.4736C84.6799 61.3654 86.7692 63.2148 88.8462 65.0777C88.9044 65.1349 88.9597 65.2116 89.0826 65.2263Z" fill="white"/>
<path d="M125.021 66.2445C125.021 66.8341 125.017 67.4236 125.024 68.0132C125.03 68.0755 125.019 68.1384 124.993 68.1954C124.967 68.2523 124.927 68.3014 124.875 68.3374C123.695 69.2111 122.39 69.7605 120.923 69.9256C119.891 70.0435 118.864 70.0134 117.873 69.724C116.787 69.4056 115.809 68.8526 115.017 68.0143C113.998 66.9361 113.425 65.6798 113.488 64.167C113.555 62.4868 114.311 61.1604 115.6 60.1387C117.103 58.9431 118.84 58.6024 120.716 58.8064C121.944 58.9374 123.135 59.3079 124.222 59.897C124.53 60.0633 124.678 60.2566 124.653 60.6304C124.615 61.1875 124.637 61.7505 124.644 62.3094C124.644 62.5399 124.585 62.5776 124.374 62.4721C123.195 61.8867 121.972 61.4216 120.663 61.2288C119.354 61.036 118.146 61.2176 117.15 62.1779C115.579 63.6924 115.995 66.0866 118.005 67.097C119.288 67.7414 120.593 67.67 121.903 67.189C122.115 67.1118 122.215 66.9897 122.207 66.7339C122.185 65.9675 122.203 65.2011 122.195 64.4347C122.195 64.2466 122.243 64.1853 122.442 64.1888C123.207 64.2024 123.971 64.2006 124.735 64.1888C124.933 64.1888 125.014 64.2277 125.01 64.4447C124.996 65.0437 125.005 65.6426 125.005 66.2416L125.021 66.2445Z" fill="white"/>
<path d="M139.372 62.2748C139.337 63.1674 139.437 64.2686 139.313 65.3657C139.027 67.9208 137.272 69.6528 134.721 69.9335C133.766 70.0384 132.81 70.0083 131.906 69.7277C130.647 69.3363 129.647 68.5622 129.024 67.3531C128.583 66.4982 128.397 65.5845 128.384 64.6365C128.359 62.8201 128.38 61.0026 128.372 59.1856C128.372 58.9628 128.421 58.8785 128.662 58.8838C129.387 58.8995 130.112 58.8995 130.838 58.8838C131.073 58.8791 131.132 58.954 131.132 59.1827C131.123 60.9702 131.122 62.7584 131.129 64.5475C131.134 65.4772 131.388 66.3108 132.156 66.9127C133.789 68.1926 136.262 67.211 136.553 65.1706C136.59 64.9077 136.607 64.6425 136.605 64.3771C136.605 62.6386 136.612 60.8988 136.605 59.1615C136.605 58.9392 136.664 58.8779 136.883 58.882C137.628 58.8958 138.373 58.8958 139.118 58.882C139.333 58.8785 139.377 58.9534 139.375 59.1509C139.369 60.1242 139.372 61.0963 139.372 62.2748Z" fill="white"/>
<path d="M62.328 62.8329C61.807 62.5529 61.3336 62.2841 60.8326 62.0707C59.6776 61.5796 58.4874 61.2453 57.2196 61.3119C55.4789 61.3998 53.8259 62.9267 54.2334 64.95C54.4522 66.0376 55.1531 66.7645 56.1663 67.1855C56.8661 67.4761 57.5965 67.4867 58.3322 67.3718C59.6593 67.1713 60.9287 66.6902 62.0563 65.9604C62.1275 65.9138 62.218 65.8472 62.2974 65.8944C62.3668 65.9357 62.3262 66.0394 62.3268 66.1143C62.3268 66.8017 62.3215 67.4891 62.3309 68.1777C62.3375 68.255 62.3216 68.3326 62.2852 68.4011C62.2488 68.4696 62.1934 68.5261 62.1257 68.5638C60.151 69.8348 58.0093 70.3802 55.7159 69.7671C53.4813 69.1704 51.9612 67.7361 51.4648 65.4192C50.9879 63.1967 51.9817 60.9948 53.9041 59.7632C55.5283 58.7227 57.2884 58.5122 59.1448 58.9149C60.2073 59.1488 61.2207 59.5678 62.1386 60.1529C62.2257 60.2071 62.3298 60.246 62.3292 60.3887C62.3256 61.1858 62.328 61.987 62.328 62.8329Z" fill="white"/>
<path d="M152.078 69.8454C151.667 69.8454 151.255 69.8395 150.843 69.8454C150.683 69.8489 150.602 69.7905 150.53 69.6449C150.222 69.0224 149.894 68.4069 149.583 67.7879C149.517 67.6564 149.441 67.6016 149.289 67.6022C147.898 67.6069 146.506 67.6069 145.113 67.6022C144.982 67.6022 144.891 67.6387 144.831 67.7602C144.519 68.3904 144.199 69.0165 143.89 69.6467C143.866 69.7101 143.822 69.7638 143.765 69.7994C143.707 69.835 143.639 69.8506 143.572 69.8436C142.759 69.8371 141.946 69.8324 141.133 69.8436C140.87 69.8477 140.919 69.7528 141.003 69.593C141.734 68.197 142.463 66.8004 143.191 65.4032C144.264 63.3463 145.343 61.2924 146.405 59.2296C146.546 58.956 146.716 58.8965 147.007 58.857C147.635 58.7727 147.927 59.0421 148.194 59.5874C148.937 61.0978 149.753 62.5711 150.536 64.0608C151.51 65.9128 152.482 67.7649 153.453 69.6172C153.552 69.8082 153.5 69.8471 153.306 69.843C152.901 69.8389 152.489 69.8454 152.078 69.8454ZM147.165 63.0339L146.014 65.4209H148.379C147.972 64.6227 147.584 63.8592 147.165 63.0339Z" fill="white"/>
<path d="M111.021 69.8435C110.62 69.8435 110.218 69.837 109.817 69.8435C109.658 69.847 109.574 69.7916 109.501 69.6472C109.19 69.0264 108.86 68.4156 108.55 67.7943C108.477 67.6469 108.39 67.6021 108.235 67.6027C106.854 67.6078 105.473 67.6078 104.092 67.6027C103.921 67.6027 103.853 67.6817 103.787 67.8149C103.493 68.4121 103.184 69.0028 102.893 69.6024C102.81 69.7739 102.71 69.8494 102.513 69.8464C101.719 69.8358 100.926 69.8358 100.132 69.8464C99.8777 69.85 99.8795 69.771 99.983 69.5776C100.355 68.8884 100.716 68.1934 101.079 67.4989C102.539 64.701 103.997 61.9021 105.454 59.1022C105.536 58.9442 105.631 58.8522 105.814 58.8764C105.891 58.8889 105.971 58.8889 106.049 58.8764C106.604 58.7697 106.877 59.0279 107.131 59.5213C108.858 62.8705 110.623 66.1996 112.376 69.5352C112.536 69.84 112.535 69.8417 112.199 69.8429C111.805 69.8453 111.413 69.8441 111.021 69.8435ZM104.971 65.4426H107.008C107.347 65.4426 107.357 65.4261 107.208 65.1296C106.903 64.5271 106.598 63.9253 106.292 63.3244C106.249 63.2401 106.212 63.1475 106.098 63.1039C105.729 63.8703 105.36 64.6349 104.971 65.4426Z" fill="white"/>
<path d="M37.5209 67.6078C36.8446 67.6078 36.1683 67.6125 35.4927 67.6042C35.3227 67.6042 35.2316 67.6585 35.1551 67.8147C34.8582 68.4219 34.5353 69.0167 34.243 69.6269C34.1595 69.8038 34.0555 69.8462 33.8808 69.845C33.0875 69.8403 32.2931 69.8362 31.4998 69.8486C31.2257 69.8533 31.2646 69.749 31.3557 69.5744C31.97 68.404 32.5826 67.2324 33.1934 66.0596C34.3289 63.8784 35.4762 61.7065 36.587 59.5158C36.827 59.0442 37.0798 58.8083 37.6455 58.862C38.0107 58.8962 38.2001 58.9799 38.3747 59.3148C39.6779 61.8374 41.0074 64.3464 42.3294 66.8608C42.8081 67.7705 43.2844 68.6807 43.7701 69.5868C43.8666 69.7672 43.9066 69.8557 43.6325 69.8509C42.8198 69.8386 42.006 69.8427 41.1927 69.8509C41.0239 69.8509 40.931 69.7961 40.854 69.6417C40.5488 69.0274 40.2212 68.4237 39.919 67.8082C39.8396 67.6455 39.7425 67.6089 39.5779 67.6107C38.8916 67.6172 38.206 67.6107 37.5197 67.6107L37.5209 67.6078ZM37.4979 63.0288L36.3418 65.4259H38.714C38.3071 64.6241 37.9166 63.8542 37.4979 63.0288Z" fill="white"/>
<path d="M6.32458 65.2244C6.57568 64.5971 6.8456 64.0453 7.09258 63.4823C7.3231 62.9576 7.58126 62.4412 7.82118 61.9188C8.23282 61.0204 8.65152 60.1237 9.04904 59.2182C9.15666 58.9723 9.27839 58.8645 9.56594 58.8703C10.448 58.8927 11.3301 58.8774 12.2122 58.8792C12.5433 58.8792 12.545 58.8833 12.3886 59.1893C11.4246 61.0365 10.4608 62.8837 9.49714 64.7309C8.64172 66.3714 7.78747 68.0125 6.9344 69.6541C6.86736 69.7832 6.78915 69.8581 6.64037 69.8416C6.63078 69.8407 6.62114 69.8407 6.61156 69.8416C5.65244 69.8782 5.65949 69.8746 5.22022 69.0162C3.57601 65.799 1.93005 62.5838 0.282318 59.3709C0.0271023 58.8721 0.0206336 58.8762 0.580462 58.8768C1.36434 58.8768 2.14763 58.8851 2.93268 58.8768C3.14262 58.8768 3.25729 58.9269 3.35667 59.1339C4.26933 61.0416 5.19787 62.9423 6.12053 64.8447C6.17463 64.9485 6.23344 65.0499 6.32458 65.2244Z" fill="white"/>
<path d="M25.5923 65.2066C25.934 64.4573 26.2568 63.7469 26.5803 63.0371C27.1783 61.7277 27.7799 60.4196 28.3697 59.1067C28.4521 58.9227 28.5585 58.8708 28.7484 58.8744C29.6699 58.8832 30.5908 58.885 31.5123 58.8744C31.7681 58.8744 31.7893 58.9227 31.6717 59.1467C30.0314 62.2772 28.396 65.4102 26.7655 68.5457L26.2216 69.5874C26.2074 69.6241 26.1887 69.6588 26.1657 69.6906C25.8576 70.0178 25.4647 69.7678 25.1178 69.8403C24.9696 69.8716 24.8773 69.802 24.8008 69.6517C23.0202 66.1538 21.2345 62.6559 19.4436 59.1579C19.3472 58.9705 19.3102 58.8685 19.5989 58.8732C20.481 58.8879 21.3631 58.8815 22.2451 58.8732C22.4216 58.8732 22.5192 58.918 22.6033 59.0931C23.5441 61.0543 24.4923 63.0121 25.4477 64.9666C25.4794 65.038 25.5253 65.0987 25.5923 65.2066Z" fill="white"/>
<path d="M14.7602 64.4593C14.7602 62.7703 14.7644 61.0807 14.7555 59.3893C14.7555 59.1535 14.8026 59.0592 15.059 59.0668C15.6758 59.0851 16.2939 59.0786 16.9108 59.071C17.0872 59.071 17.1666 59.1228 17.1548 59.3068C17.1477 59.4247 17.1548 59.5426 17.1548 59.6605C17.1548 62.9415 17.1568 66.222 17.1607 69.5022C17.1607 69.771 17.0931 69.8606 16.8202 69.8518C16.2521 69.8329 15.6829 69.8329 15.1148 69.8518C14.8437 69.8601 14.752 69.7928 14.755 69.4981C14.7702 67.8185 14.762 66.1377 14.762 64.4593H14.7602Z" fill="white"/>
<path d="M103.086 77.333C103.685 77.5506 104.099 77.9992 104.507 78.4408C104.916 78.8823 105.272 79.361 105.689 79.8669H104.502C104.384 79.8669 104.34 79.7672 104.278 79.6965C103.776 79.1323 103.305 78.5416 102.779 77.9998C102.358 77.5677 101.869 77.3383 101.259 77.3684C100.917 77.3849 100.573 77.3802 100.231 77.3684C100.058 77.3613 100.02 77.4274 100.022 77.5859C100.029 78.2639 100.018 78.9419 100.029 79.6193C100.029 79.805 99.9929 79.8733 99.7936 79.8745C99.0162 79.8804 99.0162 79.8881 99.0162 79.1016C99.0162 77.5688 99.0209 76.0361 99.0115 74.5033C99.0115 74.2775 99.0632 74.2085 99.299 74.2085C100.455 74.2244 101.612 74.2032 102.769 74.2309C103.285 74.2427 103.813 74.2657 104.29 74.5257C104.767 74.7857 105.05 75.2001 105.077 75.7401C105.105 76.2801 104.783 76.6185 104.365 76.9074C103.98 77.1745 103.53 77.1904 103.086 77.333ZM101.621 74.8676C101.086 74.8676 100.645 74.8723 100.205 74.8641C100.064 74.8641 100.019 74.9065 100.022 75.0468C100.03 75.4394 100.022 75.8321 100.022 76.2259C100.022 76.704 100.022 76.7128 100.493 76.7016C101.353 76.6822 102.216 76.7712 103.073 76.635C103.639 76.5448 104.009 76.207 104.021 75.7902C104.033 75.3622 103.691 75.0439 103.106 74.9242C102.584 74.8157 102.055 74.8965 101.624 74.8676H101.621Z" fill="white"/>
<path d="M28.2066 79.9617C27.4204 79.9451 26.6377 79.8467 25.9573 79.4429C25.461 79.1481 25.0052 78.7678 24.8153 78.16C24.7183 77.8499 24.5942 77.5475 24.5424 77.2268C24.4836 76.8619 24.6248 76.5241 24.7247 76.1827C24.9205 75.513 25.3539 75.0532 25.9355 74.6776C26.7588 74.1471 27.6656 74.1359 28.5882 74.1323C29.0993 74.1323 29.6191 74.2196 30.0496 74.4271C30.9599 74.8687 31.6644 75.5242 31.829 76.6325C31.9978 77.7633 31.4109 78.9872 30.3148 79.5054C29.6535 79.8094 28.9341 79.9652 28.2066 79.9617ZM28.2219 79.2967C28.4866 79.3093 28.7517 79.2841 29.0093 79.2218C29.862 79.0084 30.5271 78.5615 30.7335 77.6554C30.9364 76.7658 30.7776 75.9505 30.0325 75.3432C29.2133 74.6747 27.7032 74.5892 26.7223 75.1351C25.5074 75.8113 25.2428 77.5581 26.2154 78.5621C26.7612 79.1257 27.4621 79.3014 28.2219 79.2967Z" fill="white"/>
<path d="M16.5977 79.9587C15.942 79.951 15.2987 79.875 14.6807 79.6392C14.0491 79.3987 13.6427 78.9553 13.4663 78.3021C13.4075 78.0928 13.4451 77.9484 13.7145 77.9879C13.8009 78.0026 13.8888 78.0067 13.9762 78.0003C14.2373 77.9767 14.4184 77.962 14.5513 78.308C14.7959 78.9453 15.3987 79.1334 16.0261 79.2306C16.5271 79.3098 17.0386 79.293 17.5333 79.1811C17.8861 79.1003 18.2166 78.953 18.4366 78.6411C18.5877 78.4271 18.6 78.2078 18.4095 78.0032C18.139 77.7149 17.7838 77.5953 17.4133 77.5163C16.6612 77.3553 15.9044 77.2144 15.1546 77.0446C14.7001 76.9403 14.2896 76.7381 13.9903 76.3543C13.5445 75.783 13.7986 74.9253 14.4166 74.581C14.9629 74.2762 15.5457 74.1524 16.1714 74.153C16.7153 74.153 17.2587 74.1435 17.7868 74.2868C18.4642 74.4701 19.027 74.8015 19.2569 75.5284C19.3157 75.7052 19.3316 75.8278 19.0805 75.8231C18.9352 75.8196 18.79 75.855 18.6441 75.8656C18.4389 75.8797 18.2972 75.9133 18.2019 75.6003C18.0555 75.121 17.6139 74.8928 17.1111 74.8557C16.6406 74.8185 16.1702 74.746 15.6998 74.8669C15.4933 74.92 15.2881 74.9683 15.1117 75.0939C14.9147 75.2336 14.7377 75.3975 14.7706 75.6675C14.8059 75.9516 14.9747 76.1391 15.2475 76.2269C15.7521 76.3914 16.2743 76.4799 16.7941 76.5807C17.5298 76.7233 18.2913 76.7835 18.9393 77.225C19.4686 77.5847 19.6697 78.1589 19.4404 78.7278C19.2787 79.1281 18.9629 79.3928 18.583 79.5779C17.9544 79.8821 17.2846 79.9693 16.5977 79.9587Z" fill="white"/>
<path d="M59.1206 79.8546C59.1241 78.0772 59.1312 76.2997 59.1259 74.5223C59.1259 74.2929 59.1612 74.2027 59.4199 74.2098C60.1485 74.2299 60.1491 74.2163 60.1491 74.942C60.1491 75.3842 60.1597 75.8263 60.1444 76.2679C60.1374 76.4683 60.1838 76.5326 60.3967 76.5308C61.5336 76.519 62.6705 76.519 63.8074 76.5308C64.0173 76.5308 64.0767 76.4654 64.0732 76.2638C64.0626 75.6742 64.0838 75.0847 64.0609 74.4951C64.0509 74.2464 64.1367 74.1915 64.3549 74.2133C64.5113 74.2288 64.6689 74.2288 64.8253 74.2133C65.0323 74.1927 65.1082 74.2434 65.1064 74.478C65.0941 76.1771 65.0964 77.8755 65.1064 79.5746C65.1064 79.7904 65.0753 79.9018 64.8236 79.8694C64.583 79.8405 64.2614 79.9442 64.1179 79.8222C63.9744 79.7002 64.0791 79.3629 64.0756 79.1212C64.0679 78.5612 64.0673 78.0011 64.0756 77.4422C64.0756 77.2654 64.0356 77.2064 63.8486 77.2064C62.6925 77.2151 61.5359 77.2151 60.379 77.2064C60.1985 77.2064 60.1438 77.2524 60.1497 77.4352C60.1603 78.1621 60.1497 78.889 60.1579 79.6164C60.1579 79.8051 60.1156 79.8811 59.9151 79.8658C59.6522 79.8464 59.3858 79.8546 59.123 79.8511L59.1206 79.8546Z" fill="white"/>
<path d="M76.7483 79.8685C76.8377 79.4441 77.1199 79.1287 77.2864 78.7567C77.5933 78.0693 77.9562 77.4066 78.306 76.7428C78.6559 76.079 78.9529 75.3869 79.3751 74.762C79.3863 74.7455 79.3928 74.7266 79.4039 74.7107C79.511 74.5568 79.4628 74.2685 79.6862 74.2391C80.0152 74.1866 80.3504 74.1866 80.6794 74.2391C80.8811 74.2756 80.9188 74.5598 81.0282 74.7337C81.381 75.2973 81.6386 75.9128 82.0032 76.471C82.1508 76.6968 82.2443 76.9568 82.3807 77.1909C82.8558 78.0056 83.251 78.8669 83.7708 79.6569C83.8297 79.7506 83.8508 79.8927 83.6468 79.8697C83.6273 79.8671 83.6075 79.8671 83.588 79.8697C82.9411 79.9876 82.4842 79.7966 82.2942 79.111C82.2354 78.9082 82.0761 78.7366 82.0055 78.5356C81.8979 78.2267 81.7079 78.1506 81.3916 78.1607C80.5601 78.1866 79.7274 78.1795 78.8953 78.1607C78.6877 78.1565 78.606 78.2408 78.5289 78.4059C78.3272 78.841 78.1085 79.2678 77.9038 79.7029C77.845 79.8243 77.7774 79.8797 77.6368 79.8721C77.344 79.8603 77.05 79.8685 76.7483 79.8685ZM78.9706 77.5269C79.6027 77.5269 80.2055 77.5316 80.8053 77.5269C81.0146 77.5269 81.3098 77.6242 81.4104 77.4791C81.5027 77.3453 81.2687 77.1254 81.1822 76.945C80.8594 76.2677 80.4907 75.6133 80.1825 74.8817C79.8862 75.8326 79.3757 76.6343 78.9706 77.5269Z" fill="white"/>
<path d="M135.301 79.857C134.89 79.857 134.46 79.9749 134.184 79.8222C133.924 79.676 133.779 79.2568 133.668 78.9284C133.454 78.2947 133.07 78.0825 132.405 78.1526C131.727 78.2234 131.035 78.1786 130.35 78.1615C130.146 78.1568 130.056 78.2357 129.981 78.4026C129.784 78.8288 129.569 79.2474 129.371 79.6742C129.306 79.8151 129.229 79.8859 129.063 79.8717C128.869 79.8546 128.672 79.8717 128.475 79.8682C128.201 79.8682 128.172 79.8263 128.299 79.5734C128.503 79.1737 128.703 78.771 128.932 78.3843C129.314 77.7358 129.578 77.0284 129.952 76.3799C130.315 75.7572 130.644 75.115 130.937 74.4562C131.011 74.2882 131.144 74.2328 131.348 74.208C131.962 74.1338 132.312 74.3259 132.6 74.9255C133.203 76.173 133.921 77.3638 134.592 78.5806L135.301 79.857ZM132.924 77.5183C132.499 76.634 132.031 75.7998 131.63 74.8819C131.333 75.8393 130.817 76.6399 130.429 77.5183H132.924Z" fill="white"/>
<path d="M42.1637 74.2168C42.4242 74.2168 42.6988 74.2244 42.9722 74.2138C43.1345 74.2073 43.2004 74.2574 43.1998 74.4266C43.1998 75.4483 43.2122 76.47 43.1998 77.4922C43.1934 77.9638 43.1528 78.4484 42.9228 78.8741C42.8016 79.0867 42.6314 79.2672 42.4265 79.4005C41.4704 80.0449 40.4007 80.0201 39.3263 79.8975C38.6936 79.825 38.0837 79.6617 37.6386 79.1394C37.3879 78.8483 37.2472 78.4781 37.2411 78.0935C37.2134 76.8773 37.2264 75.6605 37.2146 74.4437C37.2146 74.2669 37.254 74.1997 37.4398 74.2156C37.6915 74.2368 38.022 74.1372 38.1767 74.2639C38.3401 74.3977 38.2249 74.7414 38.2272 74.9932C38.2366 75.9064 38.2366 76.8207 38.2402 77.7327C38.2402 78.0823 38.3143 78.4243 38.5136 78.7055C38.7306 79.0126 39.0981 79.1276 39.4392 79.2125C40.042 79.3622 40.6518 79.3056 41.2434 79.117C41.7532 78.9543 42.0843 78.4897 42.1254 77.9491C42.216 76.707 42.1401 75.4648 42.1637 74.2168Z" fill="white"/>
<path d="M88.6896 76.9879C88.6896 76.1243 88.6931 75.2612 88.686 74.3975C88.686 74.2537 88.7313 74.2147 88.8666 74.2153C90.4625 74.2181 92.0585 74.2181 93.6545 74.2153C93.7568 74.2153 93.7933 74.2313 93.8009 74.3562C93.8345 74.8951 93.8427 74.8945 93.3228 74.8945C92.2167 74.8945 91.11 74.9033 90.0039 74.8886C89.7622 74.8886 89.7098 74.9641 89.7216 75.1834C89.7387 75.5654 89.7404 75.9498 89.7216 76.3312C89.7093 76.567 89.7628 76.6436 90.0156 76.6389C91.0153 76.6218 92.015 76.6389 93.0112 76.626C93.2423 76.6224 93.3123 76.6967 93.274 76.9066C93.2435 77.0746 93.3981 77.3263 93.0218 77.3192C92.0138 77.3004 91.0047 77.3192 89.9968 77.3075C89.7734 77.3075 89.7157 77.3664 89.7204 77.5857C89.7351 78.2625 89.7204 78.9416 89.7298 79.6173C89.7298 79.8059 89.6846 79.8696 89.487 79.8713C88.7043 79.8784 88.7043 79.8855 88.7037 79.1049V76.9826L88.6896 76.9879Z" fill="white"/>
<path d="M50.6903 79.8678V79.4652C50.6903 78.0603 50.685 76.6554 50.695 75.2512C50.695 74.9882 50.6298 74.8845 50.3498 74.8921C49.7136 74.9104 49.0761 74.8868 48.4398 74.9033C48.2299 74.9087 48.1711 74.8338 48.1687 74.6469C48.1629 74.2171 48.1599 74.2171 48.5904 74.2171C50.3739 74.2171 52.1575 74.2301 53.9417 74.2071C54.3321 74.2024 54.1922 74.437 54.2228 74.6198C54.2633 74.8662 54.1487 74.9051 53.9287 74.9004C53.2819 74.8862 52.635 74.9051 51.9882 74.8904C51.7588 74.8845 51.6941 74.9493 51.6941 75.1851C51.7053 76.6389 51.6941 78.0927 51.7065 79.5477C51.7065 79.8266 51.6236 79.9014 51.3631 79.8761C51.1431 79.8501 50.9161 79.8678 50.6903 79.8678Z" fill="white"/>
<path d="M110.676 74.2165C110.987 74.2165 111.271 74.2218 111.554 74.2165C111.69 74.213 111.741 74.2531 111.741 74.3975C111.737 76.1555 111.737 77.9137 111.741 79.6721C111.741 79.8242 111.693 79.8684 111.541 79.8743C110.728 79.9044 110.728 79.9085 110.728 79.1126C110.728 77.5999 110.728 76.0867 110.728 74.5732C110.727 74.4659 110.751 74.3557 110.676 74.2165Z" fill="white"/>
<path d="M89.0763 24.0237C90.2371 24.3844 91.0757 25.1007 91.9101 25.8341C92.4241 26.2869 93.0686 26.5227 93.6555 26.8546C93.8728 26.9671 94.0772 27.1029 94.2653 27.2596C94.4223 27.4005 94.5434 27.4188 94.7163 27.2596C95.0645 26.9424 95.3973 27.0586 95.5137 27.5267C95.8571 28.9085 95.9577 30.3146 95.8954 31.7318C95.8268 33.4493 95.4895 35.1452 94.8957 36.7576C93.9454 39.3221 92.4429 41.4975 90.2977 43.2071C89.9049 43.5202 89.4438 43.4276 89.0004 43.3563C88.9418 43.3417 88.8895 43.3084 88.8514 43.2614C88.8133 43.2144 88.7915 43.1562 88.7893 43.0957C88.7458 42.4077 88.4159 41.8223 88.1219 41.2263C87.9807 40.9392 88.0007 40.7052 88.1913 40.4387C88.6911 39.7395 88.6517 39.2443 88.1025 38.5822C87.7496 38.156 87.3192 37.8158 86.884 37.481C86.6423 37.2965 86.5406 37.0925 86.5682 36.7788C86.6382 35.9653 86.3407 35.654 85.528 35.6729C84.4342 35.6976 83.4274 36.0578 82.5171 36.6279C81.9838 36.9622 81.428 37.1355 80.8306 37.2416C80.0996 37.3725 79.3669 37.4957 78.6377 37.6366C78.3956 37.6795 78.1464 37.6548 77.9174 37.5653C77.0206 37.2481 76.1796 36.8083 75.3376 36.3709C75.1359 36.266 75.0347 36.0761 74.9794 35.8586C74.9071 35.5738 74.803 35.3203 74.4502 35.2785C74.3689 35.2725 74.293 35.2353 74.2382 35.1747C74.1835 35.1141 74.1541 35.0348 74.1562 34.9531C74.2361 33.7934 73.888 32.6757 73.8386 31.5302C73.8151 30.9837 73.8739 30.4531 74.1914 29.9815C74.3941 29.6781 74.665 29.4267 74.9824 29.2475C75.4181 29.0035 75.6233 28.6403 75.5916 28.1628C75.5287 27.2278 75.9668 26.6742 76.7753 26.2397C78.2749 25.4338 79.7521 24.589 81.3145 23.9075C81.441 23.8521 81.5704 23.802 81.7115 23.8214C81.9261 23.8515 82.0784 23.9506 82.0873 24.1923C82.0873 24.2707 82.0873 24.3497 82.0873 24.4281C82.1067 24.8407 82.2184 24.9522 82.6271 24.9327C82.9297 24.9134 83.2297 24.864 83.5227 24.7853C83.7888 24.7116 84.0719 24.7288 84.3272 24.8343C84.5194 24.9084 84.7224 24.9506 84.9281 24.9592C85.4409 24.9946 85.8102 24.6869 85.9449 24.1304C86.0437 23.7206 86.1442 23.6198 86.56 23.6116C87.1886 23.5992 87.7843 23.4937 88.3153 23.1293C88.7858 22.8063 89.0381 22.2155 88.9122 21.7021C88.7723 21.1314 88.2765 20.9121 87.7567 21.1898C87.5876 21.2883 87.4338 21.4113 87.3004 21.5547C87.2057 21.6543 87.0803 21.7189 86.9444 21.7381C86.8085 21.7572 86.6701 21.7298 86.5518 21.6602C86.2407 21.4951 85.9261 21.3365 85.6185 21.1656C85.5692 21.1328 85.5104 21.1173 85.4513 21.1215C85.3923 21.1258 85.3363 21.1496 85.2922 21.1892C85.2045 21.2705 85.2863 21.3713 85.3357 21.4527C85.4056 21.5706 85.4803 21.6856 85.5574 21.7987C85.6591 21.9479 85.6967 22.1118 85.6044 22.2704C85.5027 22.4419 85.3186 22.4714 85.1381 22.4472C84.9575 22.4231 84.8105 22.3234 84.6618 22.2279C83.8461 21.7044 83.0258 21.1892 82.1266 20.8189C81.7738 20.6733 81.4128 20.5489 81.0199 20.5737C80.8276 20.5861 80.7435 20.6391 80.8517 20.8449C80.9541 21.0382 80.9652 21.2499 80.8165 21.425C80.6565 21.6136 80.4307 21.7475 80.1925 21.6502C79.4222 21.3354 79.0288 21.8736 78.6413 22.3441C78.2696 22.7951 78.2484 23.3993 78.0944 23.9429C78.0438 24.1197 78.0097 24.3055 77.9532 24.4823C77.927 24.5826 77.8741 24.6739 77.8003 24.7466C77.7265 24.8192 77.6345 24.8705 77.5339 24.895C76.8524 25.0718 76.1732 25.2581 75.4904 25.4256C75.1964 25.4987 74.9771 25.3802 74.8436 25.1025C74.6025 24.592 74.6125 24.0537 74.7042 23.5161C74.7489 23.2531 74.9477 23.1358 75.2111 23.1081C75.668 23.0592 76.1232 22.9943 76.5801 22.9419C76.7753 22.92 76.8647 22.8175 76.8377 22.627C76.7536 22.0375 76.9047 21.8642 76.1226 21.6396C76.0003 21.6048 75.8797 21.5429 75.845 21.4038C75.8051 21.241 75.888 21.1167 75.9997 21.0129C76.1426 20.8802 76.3025 20.7647 76.4378 20.625C76.7036 20.3497 76.8912 20.0272 76.8806 19.6316C76.8736 19.5288 76.8951 19.426 76.9429 19.3347C76.9907 19.2435 77.0627 19.1672 77.1511 19.1146C77.2481 19.0497 77.3375 18.9719 77.431 18.9006C77.6074 18.7656 77.7004 18.6359 77.5128 18.4178C77.371 18.2539 77.3916 18.0522 77.5504 17.8842C77.6174 17.8129 77.6874 17.7445 77.7533 17.6726C77.7986 17.6231 77.865 17.5771 77.828 17.4957C77.8109 17.4598 77.7824 17.4305 77.747 17.4125C77.7115 17.3945 77.6712 17.3887 77.6321 17.3961C77.3693 17.4203 77.107 17.4521 76.8442 17.4692C76.5184 17.491 76.1973 17.4692 75.9068 17.2959C75.5869 17.1043 75.554 16.8655 75.8251 16.6126C75.875 16.5654 75.9274 16.5212 75.9797 16.4776C76.182 16.3096 76.2485 16.1592 76.0879 15.8839C75.6704 15.1694 76.0526 14.4449 76.8606 14.3205C77.4487 14.2297 78.0473 14.1979 78.6295 14.054C78.8965 13.988 79.0376 13.8618 79.0893 13.5724C79.2187 12.8484 79.3922 12.1333 79.7168 11.466C79.905 11.0786 79.9638 11.0533 80.3748 11.1476C81.9879 11.5149 83.5762 11.9635 85.0946 12.6315C87.1092 13.5158 88.8634 14.7727 90.3871 16.3626C91.4397 17.4615 92.3812 18.6494 93.2809 19.8739C93.5955 20.3025 93.572 20.3992 93.1633 20.773C92.8281 21.0807 92.4935 21.2481 92.0654 20.9646C92.0066 20.9268 91.9254 20.9056 91.8742 20.9581C91.8231 21.0105 91.8825 21.0848 91.9101 21.1426C92.113 21.5706 92.4564 21.85 92.8722 22.0522C93.0039 22.1159 93.0886 22.1171 93.1727 21.9544C93.3997 21.5181 93.7143 21.4828 94.0936 21.8094C94.7892 22.4119 94.9304 23.2125 94.9221 24.0732C94.9163 24.7346 94.791 25.379 94.664 26.0234C94.651 26.1061 94.6147 26.1835 94.5592 26.2462C94.5038 26.3089 94.4316 26.3543 94.3511 26.3771C94.1488 26.4408 93.9883 26.3582 93.8513 26.2155C93.3617 25.6946 92.8448 25.2001 92.3029 24.734C91.8787 24.3706 91.4207 24.0488 90.9351 23.7731C90.4335 23.4948 89.9354 23.3563 89.4444 23.7949C89.3674 23.8721 89.2556 23.9169 89.0763 24.0237Z" fill="white"/>
<path d="M60.3932 28.5533C60.3932 28.966 60.2421 29.3374 60.0486 29.6923C59.9775 29.8226 59.9216 30.0189 59.714 29.9417C59.5064 29.8645 59.2577 29.746 59.3024 29.476C59.3865 28.9696 59.6158 28.5085 59.9122 28.0953C60.041 27.9155 60.2168 28.0233 60.3144 28.1843C60.3773 28.2965 60.4047 28.4252 60.3932 28.5533Z" fill="white"/>
</svg>
