<?xml version="1.0" encoding="UTF-8" standalone="no"?> <svg xmlns="http://www.w3.org/2000/svg" xmlns:xlink="http://www.w3.org/1999/xlink" width="186px" height="62px" viewBox="0 0 186 62" version="1.1"><!-- Generator: Sketch 46.2 (44496) - http://www.bohemiancoding.com/sketch --><title>Page 1</title><desc>Created with Sketch.</desc><defs><polygon id="path-1" points="0 62 185.88282 62 185.88282 0.06231 0 0.06231"></polygon></defs><g id="Symbols" stroke="none" stroke-width="1" fill="none" fill-rule="evenodd"><g id="NAV/normal-state" transform="translate(-96.000000, -54.000000)"><g id="Page-1" transform="translate(96.000000, 54.000000)"><polygon id="Fill-1" fill="#231F20" points="38.4754856 7 31.6439496 33.1492696 24.7122563 7 19.237354 7 12.3560504 33.1492696 5.52529205 7 0 7 9.59348214 43 15.1690084 43 22.0504675 16.8507304 28.8316137 43 34.4065179 43 44 7"></polygon><g id="Group-15"><path d="M46.4010015,6.8696155 L51.9075315,6.4191855 L51.9075315,14.9789055 L51.8070915,18.1826005 L52.0079715,18.1826005 C54.5605115,17.2315205 56.6136415,16.7809355 59.1164265,16.7809355 C63.5720565,16.7809355 66.5750265,18.7838455 66.5750265,26.4422405 L66.5750265,41.7111355 L61.0684965,41.7111355 L61.0684965,26.8928255 C61.0684965,22.2876205 58.8158815,21.6871505 56.2634965,21.6871505 C54.6609515,21.6871505 53.3093515,22.0377605 51.9075315,22.4381255 L51.9075315,41.7111355 L46.4010015,41.7111355 L46.4010015,6.8696155 Z" id="Fill-2" fill="#231F20"></path><path d="M74.1320825,7.2197295 C76.9857875,7.2197295 77.4362175,8.8718745 77.4362175,10.7241245 C77.4362175,12.5763745 76.8351275,14.2787395 74.1320825,14.2787395 C71.4290375,14.2787395 70.8780125,12.5763745 70.8780125,10.7241245 C70.8780125,8.8718745 71.3788175,7.2197295 74.1320825,7.2197295" id="Fill-4" fill="#231F20"></path><mask id="mask-2" fill="white"><use xlink:href="#path-1"></use></mask><g id="Clip-7"></g><polygon id="Fill-6" fill="#231F20" mask="url(#mask-2)" points="71.37874 41.71112 76.88527 41.71112 76.88527 17.131685 71.37874 17.131685"></polygon><path d="M81.5398425,17.1317005 L85.2945625,17.1317005 L86.0455375,19.1338355 L86.3964575,19.1338355 C87.8477225,17.8828305 90.1497825,16.7809355 93.1541475,16.7809355 C93.5041375,16.7809355 93.9045025,16.7809355 94.3047125,16.8311555 L94.3047125,22.2372455 C93.3046525,22.0881355 92.2531325,21.9374755 91.2014575,21.9374755 C89.6993525,21.9374755 88.4984125,22.2876205 87.0463725,22.9384655 L87.0463725,41.7111355 L81.5398425,41.7111355 L81.5398425,17.1317005 Z" id="Fill-8" fill="#231F20" mask="url(#mask-2)"></path><polygon id="Fill-9" fill="#231F20" mask="url(#mask-2)" points="96.656419 41.711151 96.656419 6.869631 102.162949 6.419201 102.162949 41.711151"></polygon><path d="M141.106761,37.855991 C136.700731,37.855991 135.799716,34.000831 135.799716,29.545666 C135.799716,24.740666 136.901611,21.086696 141.356466,21.086696 C145.761101,21.086696 146.513006,24.891171 146.513006,29.545666 C146.513006,34.201711 145.511551,37.855991 141.106761,37.855991 M141.306246,16.780951 C133.496881,16.780951 130.242966,21.386466 130.242966,29.545666 C130.242966,37.204681 133.096516,42.211956 141.205961,42.211956 C149.316491,42.211956 152.119976,37.204681 152.119976,29.545666 C152.119976,21.386466 149.115611,16.780951 141.306246,16.780951" id="Fill-10" fill="#231F20" mask="url(#mask-2)"></path><path d="M165.797936,37.855991 C161.391906,37.855991 160.490891,34.000831 160.490891,29.545666 C160.490891,24.740666 161.592631,21.086696 166.047641,21.086696 C170.452276,21.086696 171.204181,24.891171 171.204181,29.545666 C171.204181,34.201711 170.202726,37.855991 165.797936,37.855991 M165.997421,16.780951 C158.188056,16.780951 154.933986,21.386466 154.933986,29.545666 C154.933986,37.204681 157.787691,42.211956 165.896981,42.211956 C174.007511,42.211956 176.811151,37.204681 176.811151,29.545666 C176.811151,21.386466 173.806786,16.780951 165.997421,16.780951" id="Fill-11" fill="#231F20" mask="url(#mask-2)"></path><polygon id="Fill-12" fill="#231F20" mask="url(#mask-2)" points="180.376259 41.711151 180.376259 6.869631 185.882789 6.419201 185.882789 41.711151"></polygon><path d="M116.179165,37.254901 C114.578015,37.254901 113.725825,37.204681 112.17474,37.155856 L112.17474,22.788286 C113.52634,22.336461 114.82772,22.087996 116.229385,22.087996 C119.833445,22.087996 121.836355,23.387981 121.836355,28.293576 C121.836355,35.452871 119.5825,37.254901 116.179165,37.254901 M118.7331,16.780951 C115.97844,16.780951 112.926645,18.031956 111.27388,18.933126 L110.82314,17.131096 L106.66821,17.131096 L106.66821,53.424501 L112.17474,52.823411 L112.17474,41.560491 C112.17474,41.560491 114.77223,42.061296 117.130555,42.061296 C123.53686,42.061296 127.391865,37.805926 127.391865,29.194591 C127.391865,20.435231 123.737585,16.780951 118.7331,16.780951" id="Fill-13" fill="#231F20" mask="url(#mask-2)"></path><path d="M133.928928,2.028888 C129.811043,-2.742477 116.744698,1.451513 102.163073,11.543563 L102.163073,14.086803 C115.004668,4.958543 126.324938,0.746728 129.567073,4.503463 C133.615208,9.193918 123.545323,24.535818 107.072388,38.751798 C90.598368,52.968863 73.956018,60.677013 69.908658,55.986248 C67.806393,53.550113 69.520538,48.241053 73.956018,41.711213 L71.377748,41.711213 C65.885788,49.901258 63.827078,56.782638 66.646683,60.050193 C71.787413,66.007308 91.015783,57.857408 109.590673,41.828703 C128.163548,25.800153 139.068883,7.985693 133.928928,2.028888" id="Fill-14" fill="#EDB011" mask="url(#mask-2)"></path></g></g></g></g></svg> 