<svg xmlns="http://www.w3.org/2000/svg" id="Logo-Web-neu" width="327" height="80.002" viewBox="0 0 327 80.002">
    <defs>
        <style>
            .cls-1{fill:#fff}.cls-2{fill:#eed1ac}.cls-3{fill:#ffaa01}.cls-4{fill:#991200}
        </style>
    </defs>
    <g id="Gruppe_54" data-name="Gruppe 54" transform="translate(0 .002)">
        <g id="Ebene_1" data-name="Ebene 1">
            <path id="Pfad_174" d="M88 55v25l226-11V43z" class="cls-1" data-name="Pfad 174"/>
            <path id="Pfad_175" d="M21 0a4.38 4.38 0 0 0-1 3c0 4.438 4 11 4 16s-6 7-8 8-3 4-3 7c0 1.11 1 2 2.35 2.623A42.911 42.911 0 0 0 24 39v1H0v-1a40.131 40.131 0 0 0 8.692-2.377C10 36 11 35.11 11 34c0-3-1-6-3-7s-8-3-8-8S4 7.438 4 3a4.38 4.38 0 0 0-1-3z" class="cls-2" data-name="Pfad 175"/>
            <g id="Gruppe_51" data-name="Gruppe 51">
                <path id="Pfad_176" d="M84.245 0H77.7l-6.23 29.819L63.4 0h-5.935l-7.09 29.725L44.127 0h-7.645l9.6 40h7.471l6.28-26.711L67.787 40h7.218z" class="cls-3" data-name="Pfad 176"/>
                <path id="Pfad_177" d="M103.053 11.3a9.671 9.671 0 0 0-7.527 4.527V0H88v40h7.526V21.549c0-1.983 2.587-4.665 4.792-4.665 2.015 0 2.9.555 3.6 1.328s.909 2.334.909 3.948V40h7.526V21.952q-.133-10.652-9.3-10.652z" class="cls-3" data-name="Pfad 177"/>
                <path id="Rechteck_172" d="M0 0h7.553v28.099H0z" class="cls-3" data-name="Rechteck 172" transform="translate(119.485 11.901)"/>
                <path id="Pfad_178" d="M150.918 24.322a32.636 32.636 0 0 0-4.74-1.263 12.181 12.181 0 0 1-4-1.329 3.052 3.052 0 0 1-1.473-2.264 2.713 2.713 0 0 1 1.042-2.188 4.508 4.508 0 0 1 2.943-.859 5.243 5.243 0 0 1 3.542 1.3 3.649 3.649 0 0 1 1.042 2.67h7.526a7.961 7.961 0 0 0-3.216-6.562 13.518 13.518 0 0 0-8.582-2.527 12.553 12.553 0 0 0-8.138 2.513 7.745 7.745 0 0 0-3.113 6.264q0 6.433 10.053 8.542a15.515 15.515 0 0 1 4.388 1.42 2.423 2.423 0 0 1 1.367 2.174 2.553 2.553 0 0 1-1.107 2.149 5.453 5.453 0 0 1-3.268.82 5.879 5.879 0 0 1-3.7-1.068A3.922 3.922 0 0 1 140 31.041h-7.13a8.041 8.041 0 0 0 1.563 4.752 10.548 10.548 0 0 0 4.31 3.465 14.9 14.9 0 0 0 6.289 1.263 14.257 14.257 0 0 0 8.542-2.384 7.348 7.348 0 0 0 3.308-6.237q0-5.39-5.964-7.578z" class="cls-3" data-name="Pfad 178"/>
                <path id="Pfad_179" d="M185.972 11.821h-6.981l-7.214 8.464-1.458 1.875V0h-7.526v40h7.526V29.706l.991-1.1L179.065 40h9.046l-11.94-16.694z" class="cls-3" data-name="Pfad 179"/>
                <path id="Pfad_180" d="M207.169 11.82l-5.208 18.789-5.751-18.789h-8.1l10.221 28.667-.777 2.185a4.245 4.245 0 0 1-2.122 2.408 4.775 4.775 0 0 1-2.819.64l-1.508.052V51.2a17.084 17.084 0 0 0 3.334.177c3.846-.072 6.323-1.84 8.008-5.521l.625-1.484 10.814-32.552z" class="cls-3" data-name="Pfad 180"/>
                <path id="Pfad_181" d="M216.1 32.265a4.3 4.3 0 0 0-3.035 1.12 3.794 3.794 0 0 0-1.21 2.917 3.734 3.734 0 0 0 1.2 2.877 4.783 4.783 0 0 0 6.12 0 3.738 3.738 0 0 0 1.2-2.877 3.785 3.785 0 0 0-1.212-2.917 4.331 4.331 0 0 0-3.063-1.12z" class="cls-3" data-name="Pfad 181"/>
                <path id="Pfad_182" d="M237.644 21.731a6.515 6.515 0 0 0-4.885-2.107 6.757 6.757 0 0 0-5.733 2.735 12.226 12.226 0 0 0-2.052 7.489q0 5.049 2.09 7.785a6.742 6.742 0 0 0 5.657 2.737 6.59 6.59 0 0 0 5.255-2.515l.315 2.145h6.009V11.6h-6.661zm0 12.233c0 1.308-1.074 2.027-2.959 2.027-2.071 0-3.106-1.868-3.106-5.754l.018-1.146c.16-3.106 1.2-5.057 3.125-5.057 1.705 0 2.922.962 2.922 2.171z" class="cls-3" data-name="Pfad 182"/>
                <path id="Pfad_183" d="M258.74 19.624a11.334 11.334 0 0 0-5.515 1.284 8.335 8.335 0 0 0-3.319 3.634 12.3 12.3 0 0 0-1.136 5.418v.517a9.484 9.484 0 0 0 2.847 7.147A12.1 12.1 0 0 0 264 39.418a7.961 7.961 0 0 0 3.3-2.562l-2.6-3.075a7.349 7.349 0 0 1-4.867 1.781 4.352 4.352 0 0 1-2.922-.961 4.011 4.011 0 0 1-1.536-3.434l12.917.065v-1.7a10.283 10.283 0 0 0-2.442-7.3 9.714 9.714 0 0 0-7.11-2.608zm3 8.847h-6.287c.345-2.417.782-4.041 3.254-4.041a3.017 3.017 0 0 1 2.274.823 3.084 3.084 0 0 1 .759 2.321z" class="cls-3" data-name="Pfad 183"/>
                <path id="Pfad_184" d="M123.248 8.019a4.35 4.35 0 0 0 3.073-1.107 3.738 3.738 0 0 0 1.2-2.878 3.784 3.784 0 0 0-1.211-2.916 4.7 4.7 0 0 0-6.094 0A3.788 3.788 0 0 0 119 4.034a3.735 3.735 0 0 0 1.2 2.878 4.313 4.313 0 0 0 3.048 1.107z" class="cls-3" data-name="Pfad 184"/>
            </g>
            <g id="Gruppe_52" data-name="Gruppe 52">
                <path id="Pfad_185" d="M322.246 48.318h-1.122v2.227h-1.005v-5.789h2.036a2.361 2.361 0 0 1 1.546.45 1.589 1.589 0 0 1 .544 1.3 1.63 1.63 0 0 1-.279.973 1.78 1.78 0 0 1-.781.6l1.3 2.411v.052h-1.078zm-1.122-.811h1.034a1.146 1.146 0 0 0 .8-.256.9.9 0 0 0 .287-.7.949.949 0 0 0-.264-.719 1.119 1.119 0 0 0-.79-.263h-1.062z" class="cls-4" data-name="Pfad 185"/>
            </g>
            <path id="Pfad_186" d="M317 47.852a5.473 5.473 0 0 1 .643-2.645 4.954 4.954 0 0 1 1.814-1.929 4.871 4.871 0 0 1 5.033-.029 4.921 4.921 0 0 1 1.832 1.91 5.623 5.623 0 0 1 .031 5.281 5 5 0 0 1-1.8 1.938 4.843 4.843 0 0 1-5.039.032 5 5 0 0 1-1.832-1.912 5.456 5.456 0 0 1-.682-2.646zm9.137-.054a4.588 4.588 0 0 0-.542-2.169 4.117 4.117 0 0 0-1.5-1.6 3.915 3.915 0 0 0-2.117-.588 3.959 3.959 0 0 0-2.077.588 4.081 4.081 0 0 0-1.5 1.6 4.736 4.736 0 0 0 .021 4.421 4.15 4.15 0 0 0 1.517 1.593 3.984 3.984 0 0 0 4.184-.035 4.134 4.134 0 0 0 1.5-1.622 4.626 4.626 0 0 0 .518-2.186z" class="cls-4" data-name="Pfad 186"/>
            <g id="Gruppe_53" data-name="Gruppe 53">
                <path id="Pfad_187" d="M88 55v25l226-11V43zm10.845 18.543l-2.838.146 2.034-11.871-4.136.213.417-2.378 11.158-.575-.417 2.379-4.184.215zM110.2 65a2.8 2.8 0 0 0-2.315 1.215l-1.212 6.93-2.731.14 1.822-10.589 2.566-.141-.251 1.293a3.065 3.065 0 0 1 2.44-1.609 3.858 3.858 0 0 1 .95.086l-.349 2.725a5.538 5.538 0 0 0-.92-.05zm10.509 1.9l-.155 1.2-6.422.33a2.16 2.16 0 0 0 .494 1.6 1.789 1.789 0 0 0 1.453.556 3.54 3.54 0 0 0 2.615-1.3l1.25 1.487a4.186 4.186 0 0 1-1.705 1.48 5.764 5.764 0 0 1-2.393.6 4.388 4.388 0 0 1-2.436-.549 3.784 3.784 0 0 1-1.583-1.742 4.97 4.97 0 0 1-.409-2.534l.031-.39a7.067 7.067 0 0 1 .891-2.859 5.807 5.807 0 0 1 1.918-2.073 4.929 4.929 0 0 1 2.595-.788 3.432 3.432 0 0 1 3.067 1.334 4.957 4.957 0 0 1 .79 3.648zm7.973-5.385l-.358 2.065-2.015.1-1.463 8.524-2.75.142 1.461-8.524-1.51.078.358-2.065 1.511-.088.135-1.055a4.4 4.4 0 0 1 1.367-2.7 4.339 4.339 0 0 1 2.838-1.082 9.069 9.069 0 0 1 1.482.127l-.238 2.183a3.343 3.343 0 0 0-.8-.075 2.086 2.086 0 0 0-1.245.435 1.79 1.79 0 0 0-.644 1.172l-.145.865zm3.15 10.333l-2.751.142 1.461-8.524-1.51.078.358-2.065 1.512-.088.135-1.054a4.4 4.4 0 0 1 1.366-2.7 4.335 4.335 0 0 1 2.839-1.083 8.964 8.964 0 0 1 1.481.128l-.241 2.185a3.344 3.344 0 0 0-.805-.074 2.082 2.082 0 0 0-1.244.434 1.786 1.786 0 0 0-.644 1.172l-.145.865 2.023-.1-.358 2.065-2.015.1zm13.6-5.917a9.018 9.018 0 0 1-.863 2.974 5.117 5.117 0 0 1-1.636 1.985 3.949 3.949 0 0 1-2.17.7 2.868 2.868 0 0 1-2.4-1.011L137.4 75.6l-2.731.14 2.509-14.659 2.517-.14-.182 1.059a3.541 3.541 0 0 1 2.675-1.378 2.819 2.819 0 0 1 2.392 1 4.673 4.673 0 0 1 .912 2.888 11.761 11.761 0 0 1-.059 1.418zm9.682 4.72l-2.548.131.205-1.1a3.823 3.823 0 0 1-2.887 1.429 2.553 2.553 0 0 1-2.287-.969 3.845 3.845 0 0 1-.6-2.782l1.133-6.848 2.732-.141-1.152 6.887a2.6 2.6 0 0 0-.01.6.939.939 0 0 0 1.074.945 2.641 2.641 0 0 0 2.1-1.089l1.308-7.516 2.75-.141zM167 63.363l-1.1 6.73-2.731.141 1.123-6.761a3.133 3.133 0 0 0 .019-.69q-.124-.983-1.24-.954a2.49 2.49 0 0 0-1.927 1.1l-1.311 7.471-2.732.141 1.821-10.589 2.558-.142-.233 1.254a3.989 3.989 0 0 1 3.051-1.583 2.379 2.379 0 0 1 2.19.974 4.268 4.268 0 0 1 .512 2.908zm7.412 6.292l-1.859-4.085-1.269 1.171-.533 3.1-2.732.14 2.581-15.029 2.742-.141-1.414 8.163.533-.6 3.11-3.274 3.507-.18-4.583 4.746 2.916 5.835zm10.466-8.978l-1.743.09-.891 5.3a1.31 1.31 0 0 0 .078.753c.09.169.309.252.658.247.1 0 .381-.03.833-.091l-.194 2.153a4.717 4.717 0 0 1-1.569.3 2.343 2.343 0 0 1-2.006-.741 2.954 2.954 0 0 1-.542-2.2l.9-5.585-1.481.076.357-2.075 1.482-.076.446-2.6 2.741-.141-.455 2.6 1.744-.09zm11.989-.626l-2.014.1-1.463 8.525-2.751.141L192.1 60.3l-1.511.077.358-2.065 1.512-.087.135-1.055a4.394 4.394 0 0 1 1.367-2.7 4.329 4.329 0 0 1 2.838-1.082 9.033 9.033 0 0 1 1.481.126l-.241 2.187a3.353 3.353 0 0 0-.805-.076 2.085 2.085 0 0 0-1.244.435 1.79 1.79 0 0 0-.644 1.173l-.145.864 2.023-.1zm9.65 2.431l-.155 1.2-6.422.331a2.157 2.157 0 0 0 .494 1.6 1.79 1.79 0 0 0 1.453.557 3.543 3.543 0 0 0 2.615-1.3l1.251 1.488a4.2 4.2 0 0 1-1.706 1.479 5.748 5.748 0 0 1-2.393.6 4.4 4.4 0 0 1-2.436-.548 3.789 3.789 0 0 1-1.583-1.742 4.972 4.972 0 0 1-.408-2.535l.03-.39a7.078 7.078 0 0 1 .891-2.858 5.8 5.8 0 0 1 1.918-2.073 4.921 4.921 0 0 1 2.6-.789 3.434 3.434 0 0 1 3.067 1.334 4.959 4.959 0 0 1 .785 3.646zm3.514 5.34l-2.751.143 1.821-10.59 2.75-.141zm.939-11.794a1.465 1.465 0 0 1-1.07-.314 1.284 1.284 0 0 1-.48-1.023 1.432 1.432 0 0 1 .427-1.1 1.575 1.575 0 0 1 1.075-.482 1.444 1.444 0 0 1 1.076.322 1.291 1.291 0 0 1 .474 1 1.477 1.477 0 0 1-.4 1.069 1.6 1.6 0 0 1-1.101.528zm11.235 4.495l-1.1 6.73-2.731.141 1.123-6.76a3.137 3.137 0 0 0 .019-.69q-.125-.982-1.24-.955a2.492 2.492 0 0 0-1.927 1.1l-1.308 7.478-2.732.141 1.821-10.59 2.558-.14-.233 1.253a3.988 3.988 0 0 1 3.051-1.582 2.378 2.378 0 0 1 2.19.973 4.269 4.269 0 0 1 .51 2.901zm10.89.592l-.155 1.2-6.422.33a2.164 2.164 0 0 0 .494 1.6 1.788 1.788 0 0 0 1.453.555 3.534 3.534 0 0 0 2.615-1.3l1.251 1.5a4.193 4.193 0 0 1-1.7 1.48 5.764 5.764 0 0 1-2.393.6 4.388 4.388 0 0 1-2.436-.549 3.782 3.782 0 0 1-1.583-1.741 4.965 4.965 0 0 1-.408-2.535l.03-.391a7.067 7.067 0 0 1 .891-2.858 5.808 5.808 0 0 1 1.918-2.073 4.929 4.929 0 0 1 2.6-.788 3.434 3.434 0 0 1 3.067 1.334 4.957 4.957 0 0 1 .783 3.636zm7.835-2.748a5.549 5.549 0 0 0-.92-.051 2.8 2.8 0 0 0-2.315 1.216l-1.212 6.93-2.731.14 1.822-10.589 2.566-.142-.251 1.294a3.066 3.066 0 0 1 2.44-1.61 3.909 3.909 0 0 1 .95.087zm9.192 4.309a2 2 0 0 0 1.846.836 4.089 4.089 0 0 0 2.46-.816l.475-2.458-2.576.132.378-2.163 5.386-.277-.854 5.679a5.094 5.094 0 0 1-2.213 1.594 9.573 9.573 0 0 1-3.289.659 4.919 4.919 0 0 1-2.538-.506 4.108 4.108 0 0 1-1.725-1.71 6.127 6.127 0 0 1-.715-2.64 12.4 12.4 0 0 1 .294-3.3 9.738 9.738 0 0 1 1.349-3.376 6.8 6.8 0 0 1 2.291-2.242 6.268 6.268 0 0 1 2.964-.827 4.689 4.689 0 0 1 3.459 1.069 4.9 4.9 0 0 1 1.424 3.385l-2.732.13a2.759 2.759 0 0 0-.629-1.713 2.046 2.046 0 0 0-1.561-.521 3.247 3.247 0 0 0-2.823 1.721 10.2 10.2 0 0 0-1.177 4.8 4.049 4.049 0 0 0 .507 2.544zm18.7-3.4l-.155 1.2-6.422.33a2.164 2.164 0 0 0 .494 1.6 1.788 1.788 0 0 0 1.453.555 3.534 3.534 0 0 0 2.615-1.3l1.251 1.487a4.2 4.2 0 0 1-1.706 1.48 5.78 5.78 0 0 1-2.393.6 4.4 4.4 0 0 1-2.436-.549 3.789 3.789 0 0 1-1.583-1.742 4.986 4.986 0 0 1-.408-2.535l.03-.39a7.087 7.087 0 0 1 .891-2.859 5.8 5.8 0 0 1 1.918-2.072 4.925 4.925 0 0 1 2.6-.789 3.433 3.433 0 0 1 3.066 1.334 4.957 4.957 0 0 1 .782 3.651zm3.537 5.339l-2.751.142 1.821-10.589 2.75-.142zm.94-11.795a1.461 1.461 0 0 1-1.071-.313 1.285 1.285 0 0 1-.48-1.023 1.434 1.434 0 0 1 .427-1.1 1.583 1.583 0 0 1 1.075-.482 1.443 1.443 0 0 1 1.076.323 1.29 1.29 0 0 1 .474 1 1.473 1.473 0 0 1-.4 1.069 1.592 1.592 0 0 1-1.1.527zm6.243 5.033l.387.068a7.428 7.428 0 0 1 2.045.627 2.875 2.875 0 0 1 1.089.967 2.462 2.462 0 0 1 .354 1.447 2.945 2.945 0 0 1-.644 1.779 4.245 4.245 0 0 1-1.686 1.241 6.019 6.019 0 0 1-2.253.494 4.234 4.234 0 0 1-2.906-.854 3.067 3.067 0 0 1-1.181-2.486l2.577-.113q.039 1.5 1.608 1.44a2.365 2.365 0 0 0 1.244-.374 1.312 1.312 0 0 0 .586-.864q.156-.785-1.074-1.07l-.883-.178q-3.127-.7-3.042-2.89a3.2 3.2 0 0 1 1.313-2.487 5.108 5.108 0 0 1 3.047-1.074 4.2 4.2 0 0 1 2.867.794 2.94 2.94 0 0 1 1.115 2.4l-2.713.13a1.13 1.13 0 0 0-1.337-1.3 2 2 0 0 0-1.109.377 1.4 1.4 0 0 0-.576.893q-.15.78 1.169 1.034zm11.606-2.643l-1.748.09-.891 5.3a1.318 1.318 0 0 0 .077.753c.091.17.309.253.659.248.1 0 .38-.03.833-.092l-.194 2.154a4.692 4.692 0 0 1-1.569.3 2.342 2.342 0 0 1-2.006-.741 2.944 2.944 0 0 1-.542-2.2l.9-5.585-1.482.076.358-2.075 1.482-.076.445-2.6 2.742-.141-.455 2.6 1.744-.09zm7.462 7.769a5.755 5.755 0 0 1-2.392.6 4.4 4.4 0 0 1-2.436-.549 3.786 3.786 0 0 1-1.584-1.742 4.982 4.982 0 0 1-.408-2.535l.03-.39a7.108 7.108 0 0 1 .891-2.859 5.816 5.816 0 0 1 1.919-2.072 4.921 4.921 0 0 1 2.595-.789 3.434 3.434 0 0 1 3.067 1.334 4.961 4.961 0 0 1 .789 3.637l-.155 1.2-6.423.33a2.166 2.166 0 0 0 .495 1.6 1.789 1.789 0 0 0 1.453.556 3.541 3.541 0 0 0 2.615-1.3l1.25 1.488a4.2 4.2 0 0 1-1.709 1.492zm10.337-8.112a5.661 5.661 0 0 0-.92-.051 2.8 2.8 0 0 0-2.315 1.216l-1.212 6.93-2.732.141 1.822-10.589 2.567-.141-.252 1.293a3.067 3.067 0 0 1 2.44-1.61 3.909 3.909 0 0 1 .95.087z" class="cls-4" data-name="Pfad 187"/>
                <path id="Pfad_188" d="M141.374 62.935a2.4 2.4 0 0 0-1.967 1.112l-.785 4.373a1.439 1.439 0 0 0 1.541.941 2.088 2.088 0 0 0 1.647-.852 5.515 5.515 0 0 0 .911-2.641l.057-.935a2.519 2.519 0 0 0-.343-1.479 1.166 1.166 0 0 0-1.061-.519z" class="cls-4" data-name="Pfad 188"/>
                <path id="Pfad_189" d="M264.829 56.575a2.037 2.037 0 0 0-1.343.544 4.465 4.465 0 0 0-1.05 1.771l3.758-.193.059-.256a2.651 2.651 0 0 0 .01-.737 1.328 1.328 0 0 0-.476-.854 1.421 1.421 0 0 0-.958-.275z" class="cls-4" data-name="Pfad 189"/>
                <path id="Pfad_190" d="M202.527 59.779a2.038 2.038 0 0 0-1.342.545 4.467 4.467 0 0 0-1.05 1.77l3.758-.192.058-.256a2.615 2.615 0 0 0 .011-.737 1.33 1.33 0 0 0-.476-.854 1.429 1.429 0 0 0-.959-.276z" class="cls-4" data-name="Pfad 190"/>
                <path id="Pfad_191" d="M229.1 58.412a2.043 2.043 0 0 0-1.342.545 4.457 4.457 0 0 0-1.05 1.771l3.757-.194.059-.255a2.583 2.583 0 0 0 .01-.738 1.322 1.322 0 0 0-.475-.853 1.419 1.419 0 0 0-.959-.276z" class="cls-4" data-name="Pfad 191"/>
                <path id="Pfad_192" d="M298.511 56.782a2.583 2.583 0 0 0 .01-.738 1.327 1.327 0 0 0-.475-.854 1.423 1.423 0 0 0-.959-.275 2.037 2.037 0 0 0-1.342.544 4.477 4.477 0 0 0-1.051 1.771l3.758-.193z" class="cls-4" data-name="Pfad 192"/>
                <path id="Pfad_193" d="M116.719 64.194a2.038 2.038 0 0 0-1.342.545 4.452 4.452 0 0 0-1.05 1.77l3.757-.193.059-.255a2.583 2.583 0 0 0 .01-.738 1.322 1.322 0 0 0-.475-.853 1.429 1.429 0 0 0-.959-.276z" class="cls-4" data-name="Pfad 193"/>
            </g>
        </g>
        <g id="Ebene_3" data-name="Ebene 3">
            <path id="Pfad_194" d="M24 19c0 4.418-4.82 8-12 8S0 23.418 0 19z" class="cls-3" data-name="Pfad 194"/>
        </g>
    </g>
</svg>
