<svg width="140" height="29" viewBox="0 0 140 29" fill="none" xmlns="http://www.w3.org/2000/svg">
<g clip-path="url(#clip0)">
<path d="M88.9876 0.718621C88.9683 0.717987 88.95 0.710027 88.9363 0.696357C88.9227 0.682686 88.9147 0.664326 88.9141 0.645003C88.9138 0.635124 88.9154 0.62528 88.919 0.616053C88.9225 0.606826 88.9279 0.598409 88.9347 0.591302C88.9416 0.584195 88.9498 0.578542 88.9589 0.574685C88.968 0.570828 88.9778 0.568842 88.9876 0.568848H134.839V28.4313C129.516 20.8997 122.695 14.5505 114.805 9.78171C106.914 5.0129 98.1251 1.92738 88.9876 0.718621Z" fill="#FF6B00"/>
<path d="M127.28 16.8026C127.589 12.2155 127.49 9.53744 128.274 8.80889C128.999 8.1362 130.303 7.95343 132.529 7.7935C127.65 7.22996 127.769 7.37465 127.28 2.62769C126.788 7.37465 126.907 7.22996 122.028 7.7935C124.249 7.95596 125.558 8.13873 126.283 8.80889C127.067 9.53744 126.968 12.2155 127.28 16.8026Z" fill="white"/>
<path d="M30.6845 18.003V27.9183H33.4233V19.8485C34.3464 19.0565 35.0057 19.3205 36.824 20.8233L37.9296 18.3457C37.2143 18.0136 36.4357 17.8404 35.6473 17.838C35.2401 17.8313 34.8363 17.9127 34.4634 18.0765C34.0906 18.2404 33.7574 18.4829 33.4867 18.7874L33.3548 18.9448L33.3295 18.9169L33.3548 17.9954L30.6845 18.003ZM41.7766 12.7534H39.0302V27.9183H41.7715L41.7766 12.7534ZM18.3093 22.9607C18.3093 25.7301 20.3634 28.0249 23.6829 28.0249C27.0024 28.0249 29.059 25.7403 29.059 22.9607C29.059 20.181 27.0024 17.8964 23.6829 17.8964C20.3634 17.8964 18.3093 20.181 18.3093 22.9607ZM76.4475 18.003H73.7088V27.9183H76.4475V18.003ZM75.4205 13.52C75.1341 13.52 74.8542 13.605 74.616 13.7643C74.3779 13.9236 74.1923 14.15 74.0827 14.4148C73.9731 14.6797 73.9445 14.9711 74.0003 15.2523C74.0562 15.5335 74.1941 15.7917 74.3966 15.9944C74.5991 16.1972 74.8571 16.3352 75.138 16.3911C75.4189 16.4471 75.71 16.4184 75.9746 16.3087C76.2392 16.199 76.4654 16.0132 76.6245 15.7748C76.7836 15.5364 76.8685 15.2562 76.8685 14.9695C76.8712 14.7784 76.8357 14.5887 76.7639 14.4116C76.6921 14.2345 76.5855 14.0736 76.4505 13.9385C76.3155 13.8033 76.1548 13.6967 75.9779 13.6248C75.8009 13.5529 75.6114 13.5173 75.4205 13.52ZM78.1542 20.7192C77.9006 24.4914 83.4238 23.5927 83.2641 25.8875C83.1855 26.809 82.3943 27.1263 81.5523 27.1009C80.1829 26.9943 79.3385 26.2049 78.6005 25.324L77.7865 27.1441C78.8222 27.7253 79.9726 28.0719 81.1567 28.1595C83.5278 28.3169 85.5312 27.2888 85.6605 24.994C85.8989 21.4401 80.183 21.8818 80.2869 20.0643C80.3402 19.2723 81.2354 18.8762 82.1584 18.9296C83.0815 18.9829 83.8448 19.5362 84.6614 20.2749L85.3993 18.6376C84.4873 18.2394 83.5171 17.9908 82.5261 17.9015C79.9725 17.7415 78.2582 19.0869 78.1542 20.6938V20.7192ZM48.3547 28.129C49.5581 28.1283 50.7237 27.7083 51.6514 26.941L51.7021 26.9689V27.9183H54.2381V12.7534H51.4891V18.795C50.5785 18.1608 49.4919 17.8287 48.3826 17.8456C46.8788 17.8456 43.2981 18.7671 43.2981 23.1181C43.2981 26.3622 46.1409 28.129 48.3547 28.129ZM66.2253 27.9183H67.3867L73.1813 14.6014H71.68L67.6479 23.9634L63.6716 14.6014H60.3521L66.2253 27.9183ZM114.742 27.9183V22.4606C114.742 18.7671 111.925 17.8456 110.264 17.8456C109.08 17.8456 108.078 18.2924 107.076 18.9778L107.023 18.9524V18.003H104.487V27.9183H107.246V19.9272C108.063 19.2139 108.854 18.9245 109.529 18.9245C110.979 18.9245 111.978 20.3232 111.978 21.8513V27.9183H114.742ZM11.1707 15.8656H9.61364L6.50461 23.9101L3.1851 14.6547H0L4.92728 27.8929H6.42853L9.61364 19.7165L12.7734 27.8929H14.2772L19.2019 14.6801H17.7032L14.2518 23.9101L11.1707 15.8656ZM26.1605 22.9607C26.1605 25.2453 25.3997 27.0756 23.6829 27.0756C21.9661 27.0756 21.2078 25.2555 21.2078 22.9607C21.2078 20.6659 21.9686 18.8458 23.6829 18.8458C25.3971 18.8458 26.1605 20.6659 26.1605 22.9607ZM91.9724 22.9607C91.9724 25.7301 94.0265 28.0249 97.346 28.0249C100.665 28.0249 102.72 25.7403 102.72 22.9607C102.72 20.181 100.665 17.8964 97.346 17.8964C94.0265 17.8964 91.9724 20.181 91.9724 22.9607ZM99.8337 22.9607C99.8337 25.2453 99.0729 27.0756 97.3561 27.0756C95.6393 27.0756 94.8811 25.2555 94.8811 22.9607C94.8811 20.6659 95.6419 18.8458 97.3561 18.8458C99.0704 18.8458 99.8337 20.6659 99.8337 22.9607ZM51.4993 19.9805V25.9662C50.7892 26.5729 50.1299 27.0222 49.1282 27.0222C47.916 27.0222 46.3387 25.9942 46.3387 23.014C46.3387 19.7952 48.8416 17.475 51.5018 19.9678" fill="#231F20"/>
<path d="M90.177 18.0005H87.4382V27.9158H90.177V18.0005Z" fill="#231F20"/>
<path d="M88.8965 13.5202C88.6101 13.5202 88.3301 13.6052 88.092 13.7644C87.8539 13.9237 87.6683 14.1501 87.5587 14.415C87.4491 14.6798 87.4204 14.9712 87.4763 15.2524C87.5322 15.5336 87.6701 15.7919 87.8726 15.9946C88.0751 16.1973 88.3331 16.3353 88.614 16.3913C88.8949 16.4472 89.186 16.4185 89.4506 16.3088C89.7152 16.1991 89.9414 16.0133 90.1005 15.7749C90.2596 15.5366 90.3445 15.2563 90.3445 14.9696C90.3472 14.7785 90.3117 14.5888 90.2399 14.4117C90.1681 14.2346 90.0615 14.0738 89.9265 13.9386C89.7915 13.8035 89.6308 13.6968 89.4538 13.6249C89.2769 13.5531 89.0874 13.5174 88.8965 13.5202Z" fill="#231F20"/>
<path d="M139.599 1.68072C139.788 1.86879 139.916 2.1085 139.969 2.36962C140.021 2.63074 139.995 2.90155 139.894 3.14787C139.793 3.3942 139.621 3.60499 139.4 3.75364C139.179 3.9023 138.919 3.98215 138.653 3.98313C138.431 3.98495 138.211 3.93165 138.014 3.82798C137.817 3.72432 137.649 3.5735 137.525 3.38897C137.4 3.20445 137.323 2.99193 137.3 2.77037C137.278 2.5488 137.31 2.32505 137.395 2.11906C137.479 1.91307 137.613 1.73123 137.785 1.58974C137.957 1.44824 138.161 1.3515 138.379 1.3081C138.598 1.26471 138.823 1.27603 139.036 1.34104C139.249 1.40605 139.442 1.52274 139.599 1.68072ZM139.495 3.48051C139.664 3.313 139.779 3.09908 139.826 2.86588C139.874 2.63269 139.85 2.39073 139.76 2.17072C139.67 1.95071 139.516 1.76256 139.318 1.63017C139.121 1.49777 138.888 1.42709 138.651 1.42709C138.413 1.42709 138.181 1.49777 137.983 1.63017C137.786 1.76256 137.632 1.95071 137.542 2.17072C137.451 2.39073 137.428 2.63269 137.475 2.86588C137.522 3.09908 137.638 3.313 137.806 3.48051C137.917 3.59299 138.049 3.682 138.194 3.7422C138.34 3.8024 138.496 3.83254 138.653 3.83082C138.809 3.83435 138.965 3.80602 139.109 3.74753C139.254 3.68905 139.385 3.60165 139.495 3.49066V3.48051ZM138.06 1.87365H138.707C138.845 1.86445 138.982 1.90299 139.095 1.9828C139.136 2.0178 139.169 2.06091 139.192 2.10941C139.216 2.15792 139.229 2.21077 139.231 2.26465C139.233 2.31853 139.224 2.37228 139.205 2.42251C139.185 2.47273 139.155 2.51835 139.117 2.5565C139.035 2.63327 138.93 2.68135 138.818 2.69358C138.875 2.70968 138.927 2.73929 138.97 2.77989C139.018 2.82738 139.059 2.88019 139.095 2.93727L139.384 3.37897H139.031L138.805 3.00073C138.768 2.9268 138.716 2.86184 138.651 2.81035C138.6 2.78516 138.543 2.77379 138.486 2.77735H138.364V3.37897H138.06V1.87365ZM138.567 2.56665C138.649 2.57064 138.731 2.54938 138.8 2.50573C138.831 2.48565 138.855 2.45793 138.871 2.42539C138.887 2.39284 138.894 2.35663 138.892 2.32042C138.892 2.16304 138.788 2.08434 138.58 2.08434H138.354V2.56665H138.567Z" fill="black"/>
</g>
<defs>
<clipPath id="clip0">
<rect width="140" height="27.8624" fill="white" transform="translate(0 0.568848)"/>
</clipPath>
</defs>
</svg>
