<svg width="709" height="240" viewBox="0 0 709 240" fill="none" xmlns="http://www.w3.org/2000/svg">
<path d="M445.287 59.8872C445.2 59.8816 445.119 59.8438 445.058 59.7811C444.998 59.7185 444.963 59.6356 444.96 59.5485C444.96 59.4617 444.994 59.3784 445.056 59.317C445.117 59.2556 445.201 59.2211 445.287 59.2211L649.412 58.9276L649.581 182.879C625.834 149.412 595.425 121.214 560.263 100.057C525.101 78.8998 485.945 65.239 445.253 59.9323" fill="#FF6B00"/>
<path d="M193.039 137.102L193.107 181.197H205.299V145.309C209.397 141.787 212.332 142.95 220.437 149.633L225.336 138.593C222.15 137.122 218.686 136.352 215.176 136.335C213.365 136.311 211.57 136.677 209.913 137.407C208.255 138.138 206.774 139.216 205.57 140.568L204.983 141.279L204.87 141.155L204.971 137.057L193.039 137.102Z" fill="black"/>
<path d="M242.351 113.709L230.159 113.724L230.242 181.164L242.434 181.149L242.351 113.709Z" fill="black"/>
<path d="M389.959 136.84L377.768 136.857L377.829 180.951L390.021 180.934L389.959 136.84Z" fill="black"/>
<path d="M385.366 116.896C384.089 116.896 382.84 117.275 381.778 117.985C380.716 118.695 379.888 119.704 379.4 120.884C378.911 122.065 378.784 123.364 379.034 124.617C379.284 125.87 379.9 127.02 380.804 127.923C381.709 128.825 382.86 129.439 384.114 129.687C385.367 129.935 386.666 129.806 387.845 129.315C389.025 128.825 390.033 127.995 390.741 126.932C391.449 125.869 391.826 124.619 391.824 123.342C391.836 122.491 391.677 121.646 391.357 120.858C391.036 120.069 390.561 119.354 389.959 118.752C389.357 118.151 388.64 117.677 387.851 117.358C387.062 117.039 386.217 116.882 385.366 116.896Z" fill="black"/>
<path d="M451.867 136.754L439.675 136.771L439.736 180.865L451.928 180.848L451.867 136.754Z" fill="black"/>
<path d="M445.75 116.805C444.473 116.805 443.224 117.184 442.162 117.894C441.099 118.604 440.272 119.613 439.783 120.794C439.295 121.975 439.168 123.274 439.418 124.526C439.668 125.779 440.284 126.93 441.188 127.832C442.092 128.735 443.244 129.349 444.497 129.597C445.751 129.845 447.049 129.715 448.229 129.225C449.409 128.734 450.416 127.905 451.125 126.842C451.833 125.778 452.21 124.529 452.207 123.251C452.216 122.401 452.056 121.558 451.734 120.771C451.413 119.984 450.937 119.27 450.336 118.669C449.734 118.068 449.019 117.594 448.231 117.274C447.444 116.954 446.6 116.795 445.75 116.805Z" fill="black"/>
<path d="M399.454 148.888C398.325 165.663 422.935 161.644 422.246 171.849C421.896 175.947 418.374 177.37 414.626 177.246C408.53 176.783 404.771 173.272 401.475 169.411L397.862 177.505C402.477 180.089 407.602 181.63 412.876 182.021C423.431 182.698 432.338 178.115 432.903 167.91C433.941 152.105 408.496 154.103 408.948 146.021C409.185 142.499 413.159 140.738 417.268 140.963C421.377 141.189 424.786 143.65 428.421 146.924L431.695 139.654C427.635 137.883 423.316 136.778 418.905 136.38C407.526 135.703 399.917 141.686 399.454 148.798" fill="black"/>
<path d="M344.523 180.982L349.694 180.971L375.409 121.716L368.715 121.727L350.834 163.383L333.065 121.772L318.288 121.795L344.523 180.982Z" fill="black"/>
<path d="M560.117 180.677V156.406C560.117 139.981 547.541 135.895 540.158 135.906C534.875 135.906 530.427 137.915 525.98 140.975L525.731 140.85V136.595H514.442L514.499 180.7H526.702L526.646 145.174C530.281 141.991 533.803 140.658 536.805 140.658C543.251 140.658 547.722 146.867 547.722 153.663V180.632L560.117 180.677Z" fill="black"/>
<path d="M108.395 127.733H101.475L87.6798 163.518L72.8463 122.382L58.6562 122.405L80.6807 181.242L87.3637 181.23L101.497 144.858L115.62 181.197L122.314 181.185L144.158 122.405L137.475 122.416L122.167 163.473L108.395 127.733Z" fill="black"/>
<path d="M162.988 136.674C148.2 136.674 139.079 146.913 139.09 159.251C139.101 171.59 148.268 181.75 163.045 181.75C177.822 181.75 186.954 171.511 186.943 159.172C186.932 146.834 177.754 136.662 162.988 136.674ZM163.045 177.494C155.413 177.494 152.004 169.411 151.993 159.217C151.982 149.024 155.38 140.907 162.988 140.896C170.597 140.884 174.029 148.978 174.04 159.183C174.051 169.389 170.665 177.483 163.045 177.494Z" fill="black"/>
<path d="M483.579 136.222C468.802 136.222 459.669 146.461 459.691 158.8C459.714 171.138 468.869 181.298 483.646 181.276C498.423 181.253 507.556 171.048 507.533 158.698C507.511 146.348 498.356 136.199 483.579 136.222ZM483.646 177.031C476.015 177.031 472.606 168.96 472.595 158.754C472.583 148.549 475.981 140.455 483.59 140.444C491.199 140.433 494.63 148.515 494.642 158.721C494.653 168.926 491.266 177.02 483.646 177.031Z" fill="black"/>
<path d="M285.607 113.633V140.489C281.546 137.677 276.706 136.208 271.767 136.29C265.084 136.29 249.133 140.421 249.19 159.782C249.19 174.198 261.878 182.043 271.767 182.032C277.127 182.02 282.315 180.145 286.443 176.726L286.68 176.85V181.061H297.969L297.867 113.622L285.607 113.633ZM285.686 172.391C282.525 175.089 279.602 177.087 275.143 177.099C269.746 177.099 262.725 172.583 262.725 159.285C262.725 144.982 273.833 134.642 285.698 145.738L285.686 172.391Z" fill="black"/>
<path d="M615.827 131.165C617.171 110.766 616.719 98.8561 620.196 95.6162C623.425 92.6133 629.227 91.7893 639.139 91.1006C617.419 88.6171 617.949 89.2606 615.737 68.1505C613.581 89.1816 614.111 88.5833 592.392 91.1232C602.281 91.8344 608.106 92.6359 611.345 95.6388C614.845 98.8673 614.416 110.777 615.861 131.176" fill="white"/>
</svg>
