<?xml version="1.0" encoding="UTF-8"?>
<svg width="159px" height="34px" viewBox="0 0 159 34" version="1.1" xmlns="http://www.w3.org/2000/svg" xmlns:xlink="http://www.w3.org/1999/xlink">
    <title>wv-logo_速速_dark_rgb</title>
    <g id="Desktop" stroke="none" stroke-width="1" fill="none" fill-rule="evenodd">
        <g id="wv-logo_速速_dark_rgb">
            <path d="M101.062034,0.183072157 C101.014225,0.176257289 100.976496,0.142492711 100.976496,0.0913811953 C100.976496,0.0405794461 101.014801,0 101.062034,0 L153.137917,0 L153.137917,34 C141.191986,15.8547923 122.518513,3.21909621 101.062034,0.183072157" id="Fill-1" fill="#E2632A"></path>
            <g id="Group-5" transform="translate(0.000000, 2.507562)">
                <path d="M144.543229,17.3004738 C144.895749,11.7036079 144.782562,8.43525875 145.673078,7.54777697 C146.497065,6.72658528 147.983178,6.50324344 150.507266,6.30561224 C144.965446,5.6173105 145.099657,5.79387755 144.543229,0 C143.987089,5.79387755 144.1213,5.6173105 138.579192,6.30561224 C141.103568,6.50324344 142.589681,6.72658528 143.413668,7.54777697 C144.304184,8.43525875 144.190997,11.7036079 144.543229,17.3004738" id="Fill-2" fill="#FFFFFE"></path>
                <path d="M58.4776904,21.1787536 L58.4776904,28.484293 C57.6706963,29.2246356 56.9221676,29.7716837 55.7851182,29.7716837 C54.4087355,29.7716837 52.6135914,28.5165087 52.6135914,24.8798469 C52.6135914,20.953863 55.4559269,18.1225948 58.4776904,21.1787536 L58.4776904,21.1787536 Z M113.369989,24.816035 C113.369989,27.6153972 112.502225,29.8358054 110.557606,29.8358054 C108.612698,29.8358054 107.744935,27.6153972 107.744935,24.816035 C107.744935,22.0157434 108.612698,19.7947157 110.557606,19.7947157 C112.502225,19.7947157 113.369989,22.0157434 113.369989,24.816035 L113.369989,24.816035 Z M104.453885,24.816035 C104.453885,28.1949708 106.787026,30.9949526 110.557606,30.9949526 C114.327034,30.9949526 116.661038,28.1949708 116.661038,24.816035 C116.661038,21.4367894 114.327034,18.6368076 110.557606,18.6368076 C106.787026,18.6368076 104.453885,21.4367894 104.453885,24.816035 L104.453885,24.816035 Z M29.7104557,24.816035 C29.7104557,27.6153972 28.8426923,29.8358054 26.8980729,29.8358054 C24.9531654,29.8358054 24.0854021,27.6153972 24.0854021,24.816035 C24.0854021,22.0157434 24.9531654,19.7947157 26.8980729,19.7947157 C28.8426923,19.7947157 29.7104557,22.0157434 29.7104557,24.816035 L29.7104557,24.816035 Z M12.6861074,16.159293 L10.920628,16.159293 L7.38995709,25.9739431 L3.62024087,14.6795372 L0,14.6795372 L5.59510099,30.8335641 L7.30067509,30.8335641 L10.920628,20.858145 L14.5106282,30.8335641 L16.2167783,30.8335641 L21.8113033,14.7120627 L20.1063052,14.7120627 L16.1862496,25.9739431 L12.6861074,16.159293 Z M130.314847,30.8651603 L130.314847,24.2045554 C130.314847,19.6989978 127.113656,18.5729956 125.229518,18.5729956 C123.882511,18.5729956 122.745174,19.119734 121.608413,19.956414 L121.547643,19.9235787 L121.547643,18.7647413 L118.676219,18.7647413 L118.676219,30.8651603 L121.787265,30.8651603 L121.787265,21.1155612 C122.714933,20.2451166 123.613225,19.8916727 124.390555,19.8916727 C126.036512,19.8916727 127.173273,21.5975583 127.173273,23.4632835 L127.173273,30.8651603 L130.314847,30.8651603 Z M75.2143203,30.8651603 L76.5313737,30.8651603 L83.1137607,14.6141764 L81.4078986,14.6141764 L76.8300364,26.0386844 L72.3120794,14.6141764 L68.5426512,14.6141764 L75.2143203,30.8651603 Z M54.9176428,31.1231961 C56.3835956,31.1231961 57.5805503,30.5764577 58.6574064,29.6747267 L58.7173117,29.7069424 L58.7173117,30.8651603 L61.5895999,30.8651603 L61.5895999,12.3612427 L58.4776904,12.3612427 L58.4776904,19.7312136 C57.610215,19.022777 56.2940256,18.5729956 54.9475955,18.5729956 C53.2420214,18.5729956 49.1730665,19.6989978 49.1730665,25.0087099 C49.1730665,28.9675292 52.4042107,31.1231961 54.9176428,31.1231961 L54.9176428,31.1231961 Z M88.7601269,22.0804847 C88.4611762,26.6826895 94.7446126,25.5882835 94.5651846,28.3882653 C94.4747505,29.5130284 93.5773225,29.9005466 92.6202771,29.8683309 C91.0638903,29.7388484 90.106845,28.7736152 89.2690342,27.7117347 L88.3419415,29.9321429 C89.5973616,30.7043914 90.9740323,31.0906706 92.1709871,31.1876276 C94.8641352,31.3803025 97.13881,30.124508 97.2871334,27.3260751 C97.5564194,22.9815962 91.0638903,23.5280248 91.183989,21.3079264 C91.2441824,20.3426931 92.2602691,19.8600765 93.3077485,19.9235787 C94.3854685,20.0205357 95.2232793,20.664231 96.150372,21.5650328 L96.9887587,19.5701348 C95.8217566,19.022777 94.7146599,18.7647413 93.7273738,18.6687136 C90.825133,18.4760386 88.8802256,20.1168732 88.7601269,22.0804847 L88.7601269,22.0804847 Z M85.6565695,13.2951895 C84.7283248,13.2951895 84.0106128,14.0677478 84.0106128,15.0658163 C84.0106128,16.0620262 84.7283248,16.8348943 85.6565695,16.8348943 C86.5842383,16.8348943 87.3019503,16.0620262 87.3019503,15.0658163 C87.3019503,14.0677478 86.5842383,13.2951895 85.6565695,13.2951895 L85.6565695,13.2951895 Z M83.7122381,30.8654701 L86.8235716,30.8654701 L86.8235716,18.7647413 L83.7122381,18.7647413 L83.7122381,30.8654701 Z M20.7943525,24.816035 C20.7943525,28.1949708 23.1274927,30.9949526 26.8980729,30.9949526 C30.6675011,30.9949526 33.0015052,28.1949708 33.0015052,24.816035 C33.0015052,21.4367894 30.6675011,18.6368076 26.8980729,18.6368076 C23.1274927,18.6368076 20.7943525,21.4367894 20.7943525,24.816035 L20.7943525,24.816035 Z M44.3331184,30.8651603 L47.4450279,30.8651603 L47.4450279,12.3612427 L44.3331184,12.3612427 L44.3331184,30.8651603 Z M34.8493545,18.7647413 L34.8493545,30.8651603 L37.960112,30.8651603 L37.960112,21.0179847 C39.0081674,20.0527515 39.7558321,20.3742894 41.8205503,22.2090379 L43.0771223,19.1838557 C42.4486923,18.8942238 41.6408342,18.5729956 40.4738322,18.5729956 C39.3071181,18.5729956 38.4390667,19.1838557 38.0205934,19.7312136 L37.870254,19.9235787 L37.8405893,19.8916727 L37.870254,18.7647413 L34.8493545,18.7647413 L34.8493545,18.7647413 Z" id="Fill-4" fill="#1B1A19"></path>
            </g>
            <polygon id="Fill-6" fill="#1B1A19" points="99.3034664 33.3730321 102.4148 33.3730321 102.4148 21.2723032 99.3034664 21.2723032"></polygon>
            <path d="M100.959791,15.8027515 C100.031547,15.8027515 99.3138346,16.5753098 99.3138346,17.5733783 C99.3138346,18.5695882 100.031547,19.3424563 100.959791,19.3424563 C101.88746,19.3424563 102.605172,18.5695882 102.605172,17.5733783 C102.605172,16.5753098 101.88746,15.8027515 100.959791,15.8027515" id="Fill-7" fill="#1B1A19"></path>
            <path d="M157.384572,2.44963557 C157.494014,2.44963557 157.582432,2.42516399 157.650114,2.37560131 C157.717795,2.32572886 157.751492,2.24983601 157.751492,2.14761297 C157.751492,1.95555758 157.633409,1.85983965 157.397532,1.85983965 L157.142647,1.85983965 L157.142647,2.44963557 L157.384572,2.44963557 Z M156.797039,1.6039723 L157.531455,1.6039723 C157.721539,1.6039723 157.868423,1.64826895 157.972105,1.73655248 C158.075499,1.82452624 158.127629,1.94781341 158.127629,2.10579446 C158.127629,2.2358965 158.084428,2.3458637 157.998026,2.43569606 C157.911624,2.52552843 157.797573,2.58159621 157.65645,2.60297012 C157.728452,2.62775146 157.786917,2.66337464 157.831558,2.71014942 C157.876199,2.75630466 157.922856,2.81980685 157.972105,2.90034621 L158.300432,3.43934038 L157.898663,3.43934038 L157.64349,2.97933673 C157.571488,2.85264213 157.513311,2.77520044 157.46867,2.74701166 C157.424029,2.71913265 157.361531,2.70519315 157.28089,2.70519315 L157.142647,2.70519315 L157.142647,3.43934038 L156.797039,3.43934038 L156.797039,1.6039723 Z M158.425427,3.56479592 C158.690393,3.2798105 158.823164,2.93442055 158.823164,2.52862609 C158.823164,2.12933673 158.689817,1.78611516 158.423411,1.49927114 C158.156717,1.21304665 157.839622,1.06962464 157.470974,1.06962464 C157.096565,1.06962464 156.775438,1.21397595 156.507592,1.50174927 C156.239458,1.78983236 156.105535,2.13367347 156.105535,2.53327259 C156.105535,2.93596939 156.240322,3.2798105 156.509608,3.56479592 C156.778894,3.84978134 157.099446,3.99227405 157.470974,3.99227405 C157.842502,3.99227405 158.160461,3.84978134 158.425427,3.56479592 Z M158.544374,1.36700073 C158.848221,1.68946793 159,2.07822522 159,2.53327259 C159,2.98274417 158.850525,3.36902332 158.550998,3.69241983 C158.251471,4.01643586 157.891463,4.17813411 157.470974,4.17813411 C157.044436,4.17813411 156.680684,4.01581633 156.380005,3.69025146 C156.079039,3.36499636 155.928411,2.97933673 155.928411,2.53327259 C155.928411,2.08411079 156.079039,1.69690233 156.380005,1.37164723 C156.680684,1.0467019 157.042996,0.883764577 157.466654,0.883764577 C157.881095,0.883764577 158.240527,1.04515306 158.544374,1.36700073 L158.544374,1.36700073 Z" id="Fill-8" fill="#0A0B09"></path>
            <path d="M132.527313,22.3140488 C132.636755,22.3140488 132.725461,22.2895773 132.792855,22.2400146 C132.860536,22.1904519 132.894521,22.114559 132.894521,22.012336 C132.894521,21.8202806 132.77615,21.7242529 132.540273,21.7242529 L132.285387,21.7242529 L132.285387,22.3140488 L132.527313,22.3140488 Z M131.939779,21.4686953 L132.674196,21.4686953 C132.86428,21.4686953 133.011163,21.5126822 133.114846,21.6012755 C133.218528,21.6892493 133.270369,21.8122267 133.270369,21.9705175 C133.270369,22.1006195 133.227168,22.210277 133.140766,22.3001093 C133.054364,22.3899417 132.940602,22.4460095 132.799479,22.4673834 C132.87148,22.4924745 132.929946,22.5280977 132.974299,22.5745627 C133.01894,22.6207179 133.065597,22.6845299 133.114846,22.7647595 L133.443173,23.3040634 L133.041404,23.3040634 L132.786518,22.84375 C132.714517,22.7170554 132.656339,22.6396137 132.61141,22.6114249 C132.566769,22.5835459 132.504272,22.5696064 132.42363,22.5696064 L132.285387,22.5696064 L132.285387,23.3040634 L131.939779,23.3040634 L131.939779,21.4686953 Z M133.568168,23.429519 C133.833134,23.1445335 133.965905,22.7991436 133.965905,22.3930394 C133.965905,21.99375 133.832558,21.6508382 133.56644,21.3639942 C133.299746,21.0774599 132.982363,20.9340379 132.613715,20.9340379 C132.239306,20.9340379 131.918179,21.0783892 131.650333,21.3664723 C131.382487,21.6542456 131.248564,21.9983965 131.248564,22.3979956 C131.248564,22.8006924 131.383351,23.1445335 131.652349,23.429519 C131.921923,23.7145044 132.242186,23.8569971 132.613715,23.8569971 C132.985243,23.8569971 133.30349,23.7145044 133.568168,23.429519 Z M133.687403,21.231414 C133.990961,21.5538812 134.143029,21.9426385 134.143029,22.3979956 C134.143029,22.8471574 133.993265,23.2334366 133.693739,23.5571429 C133.394212,23.8808491 133.034204,24.0425474 132.613715,24.0425474 C132.187465,24.0425474 131.823713,23.8802296 131.522746,23.5546647 C131.221779,23.2294096 131.07144,22.84375 131.07144,22.3979956 C131.07144,21.9488338 131.221779,21.5616254 131.522746,21.2363703 C131.823713,20.9111152 132.186025,20.7484876 132.609394,20.7484876 C133.024124,20.7484876 133.383268,20.9095663 133.687403,21.231414 L133.687403,21.231414 Z" id="Fill-9" fill="#1B1A19"></path>
        </g>
    </g>
</svg>