<?xml version="1.0" encoding="utf-8"?>
<svg version="1.1" id="Layer_1" xmlns="http://www.w3.org/2000/svg" xmlns:xlink="http://www.w3.org/1999/xlink" x="0px" y="0px"
	 viewBox="0 0 140 30" style="enable-background:new 0 0 140 30;" xml:space="preserve">
<style type="text/css">
	.st0{fill:#E3000F;}
</style>
<g>
	<path d="M97.5,25.1h6l-4.3-7.4c2.4-1,3.7-2.9,3.7-5.5c0-3.8-2.5-6.3-7.4-6.3h-9.4v19.1h5.2v-6.6h2.6L97.5,25.1z M97.7,12.2
		c0,1.4-0.9,2.3-2.8,2.3h-3.6V9.9h3.6C96.8,9.9,97.7,10.8,97.7,12.2 M76.8,11.3v6.1c0,2.8-1.4,3.7-3.1,3.7c-1.8,0-3.1-1-3.1-3.7
		v-6.1h-5.3v6.4c0,5,2.8,7.8,8.4,7.8c5.7,0,8.4-2.8,8.4-7.8v-6.4H76.8z M70.5,5.9h-5.3v3.6h5.3V5.9z M76.8,9.5h5.3V5.9h-5.3V9.5z
		 M43.4,18.6L40.7,5.9h-5.3l4.9,19.1h5.6l3.3-12.5l3.3,12.5H58l4.9-19.1h-5.3l-2.7,12.7L51.6,5.9h-4.9L43.4,18.6z M134.7,12.8h-6.4
		V5.9h-5.3v19.1h5.3v-8h6.4v8h5.3V5.9h-5.3V12.8z M109.8,10.1v15h5.3v-15h4.9V5.9h-15.2v4.2H109.8z"/>
	<path class="st0" d="M27.4,11.8H0V0h11.4v4.6H16V0h11.4V11.8z M16,25.4V30c6.6-1.2,11.4-6.9,11.4-13.4v-0.2H0v0.2
		C0,23.1,4.8,28.8,11.4,30v-4.6H16z"/>
</g>
</svg>
