<svg width="171" height="37" viewBox="0 0 171 37" fill="none" xmlns="http://www.w3.org/2000/svg">
<g clip-path="url(#clip0_701_1138)">
<path d="M118.5 30.795H125.8L120.6 21.72C123.5 20.51 125.1 18.09 125.1 15.065C125.1 10.4267 122.1 7.40166 116.1 7.40166H104.6V30.795H110.9V22.6275H114.1L118.5 30.795ZM118.7 15.065C118.7 16.6783 117.6 17.8883 115.2 17.8883H110.8V12.2417H115.2C117.6 12.2417 118.7 13.4517 118.7 15.065ZM93.3 13.9558V21.4175C93.3 24.8458 91.7 25.955 89.5 25.955C87.4 25.955 85.7 24.745 85.7 21.4175V13.855H79.3V21.72C79.3 27.8708 82.7 31.2992 89.6 31.2992C96.5 31.2992 99.8 27.8708 99.8 21.8208V13.9558H93.3ZM85.7 11.8383V7.40166H79.3V11.8383H85.7ZM93.3 11.8383H99.7V7.40166H93.3V11.8383ZM52.7 22.93L49.4 7.40166H43L48.9 30.795H55.7L59.7 15.4683L63.7 30.795H70.5L76.4 7.40166H70L66.7 22.93L62.7 7.40166H56.7L52.7 22.93ZM163.6 15.7708H155.8V7.40166H149.4V30.795H155.8V21.0142H163.6V30.795H170.1V7.40166H163.6V15.7708ZM133.4 12.5442V30.8958H139.8V12.5442H145.8V7.40166H127.4V12.5442H133.4Z" fill="black"/>
<path d="M33.3 14.5608H0V0.141663H13.9V5.78833H19.5V0.141663H33.4V14.5608H33.3ZM19.4 31.2992V36.9458C27.4 35.4333 33.3 28.4758 33.3 20.6108V20.3083H0V20.6108C0 28.375 5.9 35.3325 13.9 36.845V31.1983H19.4V31.2992Z" fill="#CC0000"/>
</g>
<defs>
<clipPath id="clip0_701_1138">
<rect width="170.1" height="36.7033" fill="white" transform="translate(0 0.141663)"/>
</clipPath>
</defs>
</svg>
