<svg enable-background="new 0 0 170.1 36.4" viewBox="0 0 170.1 36.4" xmlns="http://www.w3.org/2000/svg"><path d="m118.5 30.4h7.3l-5.2-9c2.9-1.2 4.5-3.6 4.5-6.6 0-4.6-3-7.6-9-7.6h-11.5v23.2h6.3v-8.1h3.2zm.2-15.6c0 1.6-1.1 2.8-3.5 2.8h-4.4v-5.6h4.4c2.4 0 3.5 1.2 3.5 2.8zm-25.4-1.1v7.4c0 3.4-1.6 4.5-3.8 4.5-2.1 0-3.8-1.2-3.8-4.5v-7.5h-6.4v7.8c0 6.1 3.4 9.5 10.3 9.5s10.2-3.4 10.2-9.4v-7.8zm-7.6-2.1v-4.4h-6.4v4.4zm7.6 0h6.4v-4.4h-6.4zm-40.6 11-3.3-15.4h-6.4l5.9 23.2h6.8l4-15.2 4 15.2h6.8l5.9-23.2h-6.4l-3.3 15.4-4-15.4h-6zm110.9-7.1h-7.8v-8.3h-6.4v23.2h6.4v-9.7h7.8v9.7h6.5v-23.2h-6.5zm-30.2-3.2v18.2h6.4v-18.2h6v-5.1h-18.4v5.1z"/><path d="m33.3 14.3h-33.3v-14.3h13.9v5.6h5.6v-5.6h13.9v14.3zm-13.9 16.6v5.6c8-1.5 13.9-8.4 13.9-16.2v-.3h-33.3v.3c0 7.7 5.9 14.6 13.9 16.1v-5.6h5.5z" fill="#c00"/></svg>