<svg width="186.71" height="210.05" xmlns="http://www.w3.org/2000/svg"><path d="M186.702 210.05H0V.002h186.702V210.05" fill="#fff"/><g fill="#231f20"><path d="M76.934 156.825c-.996 0-1.836.631-2.153 1.493l-4.391 11.106-.386 1.263-.35-1.287-3.392-10.798c0-.047-.032-.082-.041-.1v-.03a2.312 2.312 0 0 0-2.17-1.547h-5.48c-1.231.069-2.212 1.067-2.212 2.314 0 .33.159.77.265 1.186l.716 2.257-2.687 6.755-.425 1.25-.348-1.263-3.372-10.822c-.04-.047-.04-.082-.05-.1v-.03a2.313 2.313 0 0 0-2.17-1.547H42.81c-1.214.069-2.21 1.067-2.21 2.314 0 .33.135.77.275 1.186l8.198 24.444a2.305 2.305 0 0 0 2.226 1.735c1.045 0 1.914-.67 2.2-1.615l5.746-14.497.423-1.29.344 1.277 4.837 14.39a2.286 2.286 0 0 0 2.234 1.735c1.054 0 1.924-.7 2.223-1.679l9.717-24.771c.14-.31.234-.648.234-.996a2.331 2.331 0 0 0-2.323-2.333m40.872 0c-.995 0-1.846.631-2.174 1.493l-4.363 11.106-.42 1.263-.317-1.287-3.42-10.798c0-.047 0-.082-.012-.1v-.03a2.336 2.336 0 0 0-2.192-1.547h-5.476a2.31 2.31 0 0 0-2.194 2.314c0 .33.124.77.26 1.186l.72 2.257-2.697 6.755-.439 1.25-.328-1.263-3.378-10.822c-.035-.047-.035-.082-.057-.1v-.03a2.271 2.271 0 0 0-2.153-1.547h-5.489c-1.243.069-2.215 1.067-2.215 2.314 0 .33.154.77.265 1.186l8.23 24.444a2.278 2.278 0 0 0 2.224 1.735c1.02 0 1.892-.67 2.198-1.615l5.74-14.497.403-1.29.363 1.277 4.815 14.39a2.322 2.322 0 0 0 2.245 1.735c1.05 0 1.947-.7 2.229-1.679l9.72-24.771a2.34 2.34 0 0 0 .233-.996 2.332 2.332 0 0 0-2.32-2.333m26.549.049h-19.16a1.995 1.995 0 0 0-1.998 2.006v25.458h.005c.046 1.15.997 2.085 2.146 2.085h5.429c1.18-.034 2.094-.961 2.123-2.15v-11.888l7.81-.019a2.09 2.09 0 0 0 2.063-2.11c0-1.14-.934-2.09-2.11-2.09h-7.75l-.013-6.798h11.566a2.245 2.245 0 0 0 2.142-2.248 2.251 2.251 0 0 0-2.252-2.246M114.632 75.76c3.488 3.906 3.862 15.525 12.623 10.9 5.271-2.774 5.196-14.501-1.83-18.73-5.688-3.362-8.798 1.171-10.858 6.731-.16.437-.17.875.065 1.099m-13.609-1.853c-3.663 3.038-6.18 11.363-12.917 8.535-5.445-2.77-5.967-13.557 3.419-18.544 6.537-3.006 9.856 2.95 9.901 9.27 0 .22-.214.555-.403.738m9.041 21.234c3.617-.373 2.802-3.727.059-4.57-2.447-.728-6.164-1.205-8.79-1.157-4.654.108-4.538 3.661-2.116 4.264 1.83.611 3.009.853 4.592 2.888 1.443 2.802.802-.84 6.255-1.424m17.073-60.047c4.543-7.565 12.448-6.098 16.409-2.328 4.358 4.096 5.061 8.83 3.389 12.159-2.275 4.465-8.09 9.892-11.878 4.64-1.671-2.315-5.224-5.087-7.159-5.887-2.978-1.254-3.543-3.94-.762-8.584"/><path d="M145.223 68.454c-.408-1.34-1.073-1.266-1.044-.16.368 13.793-7.866 28.564-25.491 28.665-4.51.01-3.155 7.227-11.375 3.6-5.932-4-9.327 3.872-13.541-4.598-.916-2.441-2.307-3.418-4.106-3.864-17.4-4.313-22.952-28.265-7.617-47.602 3.037 1.81 4.146 2.09 7.382-.879 1.69-1.56 4.52-3.28 6.063-3.85 3.688-1.41 5.688-2.983 2.492-10.015-4.088-9.129-12.47-6.551-16.3-3.397-4.325 3.572-7.364 9.319-1.79 16.088-15.588 10.516-18.26 23.434-17.903 34.66.369 11.943-2.686 10.925 1.125 23.08.336 1.066-.409 1.042-.983.697-16.249-10.405-25.031-42.128.292-59.621.57-.512.336-1.176-1.747.043-21.921 11.593-23.933 34.045-20.3 49.173 1.778 7.326-.925 8.678 1.917 18.302 6.522 20.061 12.086 21.646 19.942 22.225 14.301 0 4.603-7.886 5.125-17.794 0-.579.708-.862 1.112.331 7.87 17.654 13.429 33.715 34.112 32.213 11.978-1.56 5.335-7.51 4.603-10.88-8.807-29.228 12.564-36.116 6.513-7.62-3.993 16.325 8.635 14.689 17.525 8.832 9.167-6.021 20.631-45.76 13.993-67.629m-34.85 34.571c-1.98 5.24-12.26 3.443-12.586-1.63 0-.203.275-.157.393-.13 4.578 1.072 8.934 1.577 11.884 1.566.11 0 .352-.062.309.194"/><path d="M64.47 138.45a3.838 3.838 0 0 1-3.83 3.83 3.825 3.825 0 0 1-3.828-3.83c0-2.1 1.712-3.818 3.828-3.818 2.099 0 3.83 1.717 3.83 3.817m-3.83-4.583c-2.536 0-4.595 2.066-4.595 4.583a4.607 4.607 0 0 0 4.595 4.603c2.535 0 4.57-2.065 4.57-4.603 0-2.517-2.035-4.583-4.57-4.583"/><path d="M61.946 139.165c-.088.557-.557.945-1.195.945-.88 0-1.442-.78-1.442-1.672 0-.93.508-1.625 1.437-1.625.62 0 1.077.358 1.2.904h.641c-.113-1.015-.905-1.583-1.86-1.583-1.368 0-2.153.996-2.153 2.304 0 1.315.85 2.316 2.177 2.316.93 0 1.677-.604 1.868-1.589h-.673m83.17 10.235a3.834 3.834 0 0 1-3.83 3.832 3.832 3.832 0 0 1-3.85-3.831c0-2.111 1.718-3.812 3.85-3.812 2.102 0 3.83 1.701 3.83 3.812m-3.83-4.587a4.571 4.571 0 0 0-4.588 4.587 4.563 4.563 0 0 0 4.588 4.589 4.577 4.577 0 0 0 4.582-4.59 4.586 4.586 0 0 0-4.582-4.586"/><path d="M140.49 149.714h.752l1.153 1.866h.716l-1.239-1.914c.647-.081 1.132-.42 1.132-1.177 0-.864-.498-1.232-1.518-1.232h-1.67v4.323h.674zm0-.573v-1.35h.89c.452 0 .94.122.94.65 0 .67-.488.7-1.062.7h-.768"/></g></svg>