<svg xmlns="http://www.w3.org/2000/svg" width="63" height="48" viewBox="0 0 63 48" fill="none"><mask id="mask0_27744_180802" style="mask-type:luminance" maskUnits="userSpaceOnUse" x="35" y="0" width="24" height="21"><path d="M38.3706 0.0117188C37.0339 0.0117188 35.9492 1.09643 35.9492 2.43311C35.9492 2.84945 36.0369 3.24387 36.2341 3.58352L45.306 19.295C45.7223 20.0181 46.5002 20.5112 47.3987 20.5112C48.2971 20.5112 49.075 20.0181 49.4913 19.295L58.5632 3.58352C58.7605 3.24387 58.8481 2.84945 58.8481 2.43311C58.8481 1.09643 57.7634 0.0117188 56.4267 0.0117188H38.3487H38.3706Z" fill="white"></path></mask><g mask="url(#mask0_27744_180802)"><path d="M58.87 0.0234375H35.9492V20.5229H58.87V0.0234375Z" fill="url(#paint0_radial_27744_180802)"></path></g><mask id="mask1_27744_180802" style="mask-type:luminance" maskUnits="userSpaceOnUse" x="0" y="0" width="63" height="48"><path d="M62.8021 0H0V48H62.8021V0Z" fill="white"></path></mask><g mask="url(#mask1_27744_180802)"><path d="M60.1602 1.32572C60.1602 0.591636 60.7518 0 61.4859 0C62.22 0 62.8116 0.591636 62.8116 1.32572C62.8116 2.05979 62.22 2.65143 61.4859 2.65143C60.7518 2.65143 60.1602 2.05979 60.1602 1.32572ZM60.4341 1.32572C60.4341 1.9064 60.9052 2.37752 61.4859 2.37752C62.0666 2.37752 62.5377 1.9064 62.5377 1.32572C62.5377 0.745026 62.0666 0.27391 61.4859 0.27391C60.9052 0.27391 60.4341 0.745026 60.4341 1.32572Z" fill="#92278F"></path><path d="M61.9782 1.99444H61.8467C61.8467 1.99444 61.77 1.99446 61.7371 1.95063L61.3756 1.50142H61.277V1.9287C61.277 1.9287 61.255 2.0054 61.2112 2.0054H61.1236C61.0688 2.0054 61.0469 1.99444 61.0469 1.9287V0.745423C61.0469 0.679685 61.0797 0.679688 61.1236 0.679688H61.507C61.7262 0.679688 61.77 0.690629 61.8467 0.767324C61.9124 0.844019 61.9453 0.964535 61.9453 1.13984C61.9453 1.35897 61.8576 1.49046 61.6495 1.50142L61.9891 1.9068C61.9891 1.9068 62.022 2.0054 61.9672 2.0054M61.6495 0.887862C61.6495 0.887862 61.3427 0.876895 61.277 0.876895V1.31514H61.529C61.6166 1.31514 61.6604 1.30421 61.6823 1.27134C61.6933 1.24943 61.7152 1.22751 61.7152 1.1289C61.7152 0.986471 61.6933 0.920708 61.6495 0.898796" fill="#92278F"></path></g><mask id="mask2_27744_180802" style="mask-type:luminance" maskUnits="userSpaceOnUse" x="16" y="0" width="29" height="48"><path d="M18.6587 0.0109337C17.6288 0.0109337 16.7852 0.843644 16.7852 1.8845C16.7852 2.20224 16.8619 2.50901 17.0043 2.77197L28.3003 22.3292C28.8153 23.2057 29.1111 24.2355 29.1111 25.3202C29.1111 26.4049 28.8262 27.38 28.3442 28.2346L18.5272 45.239C18.3738 45.491 18.3081 45.8087 18.3081 46.1265C18.3081 47.1345 19.1189 47.9562 20.1159 47.989H29.7795C31.7626 47.9562 33.5375 46.9372 34.4688 45.3266L34.666 44.987L44.1104 28.6291L44.2857 28.3223C44.7678 27.4896 44.9869 26.5364 44.9869 25.5174C44.9869 24.4985 44.713 23.4576 44.22 22.614L44.1214 22.4387L32.902 3.00204L32.7048 2.6624C31.7516 1.01894 29.9328 0 27.9059 0H18.6587V0.0109337Z" fill="white"></path></mask><g mask="url(#mask2_27744_180802)"><path d="M44.9869 0.0117188H16.7852V48.0008H44.9869V0.0117188Z" fill="url(#paint1_radial_27744_180802)"></path></g><mask id="mask3_27744_180802" style="mask-type:luminance" maskUnits="userSpaceOnUse" x="0" y="0" width="63" height="48"><path d="M62.8021 0H0V48H62.8021V0Z" fill="white"></path></mask><g mask="url(#mask3_27744_180802)"><path d="M18.145 30.5363C17.9697 30.5363 17.7944 30.613 17.641 30.6349C17.1042 30.7444 16.5235 30.865 15.888 30.865C15.5484 30.865 15.2306 30.7883 15.0225 30.7116C14.5732 30.5144 14.5294 29.9446 14.5513 29.2325H18.0574C18.5614 29.2325 18.66 29.1448 18.66 28.356C18.66 27.4356 18.5723 26.5262 18.1231 25.8798C17.7068 25.2882 16.9836 24.9923 15.8004 24.9923C14.5404 24.9923 13.7406 25.321 13.3133 25.9455C12.864 26.581 12.7326 27.4247 12.7326 28.6846C12.7326 30.109 12.9298 31.0403 13.5433 31.599C14.0145 32.0483 14.7924 32.2783 15.8771 32.2783C16.4906 32.2783 17.3452 32.2235 18.0464 32.0921C18.4956 32.0154 18.5614 31.7963 18.5614 31.4566C18.5614 31.3032 18.5614 31.1279 18.5285 30.9855C18.4847 30.7992 18.3532 30.5363 18.145 30.5363ZM14.5513 27.83C14.5513 26.7782 14.7705 26.4167 15.8004 26.4167C16.7755 26.4167 16.907 26.7892 16.907 27.6766V27.9505H14.5513V27.8191V27.83ZM9.41277 24.9814C8.63487 24.9814 7.94461 25.2443 7.47349 25.4744V22.812C7.47349 22.5381 7.36393 22.1875 6.91471 22.1875H6.26829C5.85194 22.1875 5.63281 22.319 5.63281 22.812V31.5114C5.63281 31.851 5.74238 32.0811 6.14776 32.0811H6.90376C7.35297 32.0811 7.46253 31.8401 7.46253 31.4347V28.1368C7.46253 27.1069 7.6707 26.7563 8.68965 26.7563C9.65381 26.7563 9.77433 27.1179 9.77433 27.9944V28.2573C9.77433 28.3998 9.77433 28.5532 9.77433 28.7285V31.4237C9.77433 31.862 9.91677 32.0702 10.2893 32.0702H11.0562C11.4945 32.0702 11.615 31.8291 11.615 31.4237V27.0083C11.615 26.077 11.1658 24.9704 9.40182 24.9704" fill="#00A1E4"></path><path d="M4.14228 26.7115H2.58648V29.604C2.58648 30.2833 2.61934 30.5353 2.67413 30.6558C2.71795 30.7325 2.78369 30.7764 2.89325 30.7764C3.29864 30.7764 3.7369 30.5572 4.07655 30.5572C4.4162 30.5572 4.46002 30.7982 4.46002 30.9626V31.4775C4.46002 32.0144 4.31759 32.1568 3.85742 32.2007C3.39725 32.2445 3.07951 32.2774 2.60839 32.2774C1.08545 32.2774 0.756755 31.7186 0.756755 30.0094V26.7334H0.351369C0.0774587 26.7334 0.0117188 26.5472 0.0117188 26.3171V25.7035C0.0117188 25.342 0.154155 25.2324 0.395195 25.2324H0.756755V24.071C0.756755 23.578 0.953971 23.4355 1.37031 23.4355H2.01674C2.46596 23.4355 2.59743 23.7971 2.59743 24.071V25.2324H4.01081C4.32854 25.2324 4.50385 25.2762 4.50385 25.6926V26.1966C4.50385 26.6896 4.4162 26.7444 4.15324 26.7444" fill="#00A1E4"></path><path d="M37.9772 43.4759L39.0838 45.3385L40.1246 45.9411C40.2671 46.0287 40.2999 46.1383 40.2123 46.2698L40.0917 46.4779C39.9931 46.6423 39.9055 46.6861 39.7411 46.5875L38.7332 46.0068L36.4433 45.9849C36.3775 45.9849 36.3228 45.9849 36.2789 45.952C36.1584 45.8863 36.1913 45.7548 36.2351 45.6672L36.3885 45.4042C36.4761 45.2618 36.5528 45.2398 36.6734 45.2398L38.2401 45.2727L37.4294 43.9141C37.3746 43.8155 37.3527 43.7388 37.4294 43.5964L37.5499 43.3882C37.6266 43.2568 37.7252 43.2458 37.8128 43.3006C37.8676 43.3334 37.9333 43.4211 37.9662 43.4759" fill="#92278F"></path><path d="M42.8516 41.6893L42.731 41.8975C42.6434 42.0399 42.5448 42.0508 42.4023 41.9851L40.3535 40.9771C40.4411 41.0757 40.5617 41.2182 40.6493 41.3168C41.0109 41.7441 41.4163 42.1933 41.6464 42.4891C41.745 42.6096 41.7778 42.7082 41.6792 42.8616L41.6025 42.9931C41.5149 43.1574 41.4053 43.1684 41.2629 43.1465C40.8904 43.0917 40.2987 42.9822 39.7399 42.8726C39.5975 42.8507 39.4222 42.7959 39.3017 42.7849L41.1971 44.0449C41.3286 44.1326 41.3724 44.2312 41.2848 44.3736L41.1643 44.5818C41.0766 44.7352 40.978 44.8118 40.8027 44.6913L38.1293 42.8178C37.965 42.7082 38.0088 42.5877 38.0746 42.4672L38.228 42.2042C38.3046 42.0728 38.3923 42.0289 38.5238 42.0399C39.0716 42.1166 40.0358 42.3028 40.7808 42.4343C40.2987 41.8646 39.6523 41.1196 39.3126 40.6813C39.2359 40.5717 39.225 40.4841 39.3126 40.3526L39.466 40.0897C39.5318 39.9691 39.6194 39.8815 39.7947 39.9691L42.7529 41.3496C42.9392 41.4373 42.9282 41.5687 42.8406 41.7112" fill="#92278F"></path><path d="M44.3762 39.149C44.2666 39.3682 44.2118 39.4887 44.0804 39.7188C43.9708 39.905 43.8393 40.1132 43.6969 40.2556C43.1381 40.8363 42.4698 40.6501 41.6371 40.168C40.2128 39.3463 40.2018 38.7437 40.7496 37.8014C40.8811 37.5823 40.9578 37.4617 41.0893 37.2645C41.2207 37.0783 41.2974 37.0454 41.407 37.1112L41.5714 37.1988C41.7467 37.2974 41.7905 37.3632 41.6919 37.5165C41.5933 37.7028 41.5166 37.7685 41.3632 38.0315C41.2755 38.1849 41.144 38.4478 41.1221 38.6012C41.0783 38.9628 41.4618 39.1929 42.0206 39.5106C42.5684 39.8284 43.0066 40.0475 43.3353 39.664C43.4011 39.5873 43.4887 39.4558 43.5764 39.3024C43.7298 39.0395 43.7517 38.9409 43.8503 38.7656C43.9379 38.6122 44.0146 38.6122 44.1899 38.7108L44.3543 38.7985C44.4638 38.8642 44.4748 38.9409 44.3762 39.149Z" fill="#92278F"></path><path d="M46.1494 35.9812L45.996 36.2441C45.9084 36.3975 45.8098 36.3975 45.6893 36.3756L44.9552 36.2441C44.8347 36.4523 44.747 36.6057 44.6265 36.8248C44.506 37.022 44.4074 37.2083 44.2978 37.3836L44.758 37.9095C44.8675 38.03 44.9114 38.1067 44.8237 38.2711L44.6922 38.4902C44.5936 38.6545 44.5388 38.6545 44.4621 38.6107C44.4293 38.5997 44.3855 38.545 44.3307 38.4792L42.1284 35.8826C42.0079 35.7401 41.975 35.6525 42.0737 35.4662L42.1832 35.269C42.2818 35.0937 42.3914 35.0718 42.5667 35.1046L45.996 35.6853C45.996 35.6853 46.0618 35.6853 46.0837 35.7073C46.2042 35.773 46.1713 35.8935 46.1275 35.9702M42.9721 35.8497L43.8924 36.9015C43.9582 36.7919 44.0239 36.6605 44.1115 36.518C44.1992 36.3646 44.2649 36.266 44.3416 36.1236L42.9721 35.8497Z" fill="#92278F"></path></g><defs><radialGradient id="paint0_radial_27744_180802" cx="0" cy="0" r="1" gradientUnits="userSpaceOnUse" gradientTransform="translate(38.4363 -6.24362) scale(28.914 28.9139)"><stop stop-color="#C6168D"></stop><stop offset="0.58" stop-color="#91278F"></stop><stop offset="1" stop-color="#5C2D91"></stop></radialGradient><radialGradient id="paint1_radial_27744_180802" cx="0" cy="0" r="1" gradientUnits="userSpaceOnUse" gradientTransform="translate(3.67034 3.18908) scale(62.824 62.824)"><stop stop-color="#00AEEF"></stop><stop offset="0.58" stop-color="#00A0E4"></stop><stop offset="1" stop-color="#0060AF"></stop></radialGradient></defs></svg>