<?xml version="1.0" encoding="UTF-8" standalone="no"?>
<!-- Created with Inkscape (http://www.inkscape.org/) -->

<svg
   version="1.1"
   id="svg2"
   width="1004.0959"
   height="186.5712"
   viewBox="0 0 1004.096 186.5712"
   sodipodi:docname="Logo_dark.svg"
   inkscape:version="1.1.2 (0a00cf5339, 2022-02-04)"
   xmlns:inkscape="http://www.inkscape.org/namespaces/inkscape"
   xmlns:sodipodi="http://sodipodi.sourceforge.net/DTD/sodipodi-0.dtd"
   xmlns="http://www.w3.org/2000/svg"
   xmlns:svg="http://www.w3.org/2000/svg">
  <defs
     id="defs6">
    <clipPath
       clipPathUnits="userSpaceOnUse"
       id="clipPath16">
      <path
         d="M 0,595.2 H 841.92 V 0 H 0 Z"
         id="path14" />
    </clipPath>
  </defs>
  <sodipodi:namedview
     id="namedview4"
     pagecolor="#ffffff"
     bordercolor="#000000"
     borderopacity="0.25"
     inkscape:showpageshadow="2"
     inkscape:pageopacity="0.0"
     inkscape:pagecheckerboard="0"
     inkscape:deskcolor="#d1d1d1"
     inkscape:pageshadow="2"
     showgrid="false"
     fit-margin-top="0"
     fit-margin-left="0"
     fit-margin-right="0"
     fit-margin-bottom="0"
     inkscape:zoom="0.11340726"
     inkscape:cx="-1106.6311"
     inkscape:cy="370.34665"
     inkscape:window-width="1852"
     inkscape:window-height="1135"
     inkscape:window-x="68"
     inkscape:window-y="32"
     inkscape:window-maximized="1"
     inkscape:current-layer="g8" />
  <g
     id="g8"
     inkscape:groupmode="layer"
     inkscape:label="Nouveau LOGO HORIZONTAL sans fond"
     transform="matrix(1.3333333,0,0,-1.3333333,-57.811065,489.86999)">
    <g
       id="g10">
      <g
         id="g12"
         clip-path="url(#clipPath16)">
        <g
           id="g18"
           transform="translate(416.0273,298.3345)">
          <path
             d="m 0,0 -1.919,-0.026 h -13.536 l -13.292,26.92 h -16.061 v -26.92 h -13.769 v 67.563 h 36.831 c 11.22,0 20.286,-9.103 20.286,-20.323 0,-8.734 -5.475,-16.133 -13.178,-19.019 z m -24.348,37.738 c 5.003,0 9.002,4.009 9.002,8.978 0,5 -3.983,9.018 -8.959,9.018 H -44.808 V 37.738 Z m -91.131,-2.642 c -3.618,2.335 -7.725,3.766 -16.417,5.819 -14.803,3.366 -15.672,4.558 -15.672,8.753 0,4.849 3.803,8.035 11.377,8.035 7.244,0 11.145,-2.621 12.626,-8.637 h 13.478 c -1.248,12.877 -10.573,19.986 -25.429,19.986 -15.165,0 -25.354,-7.836 -25.354,-20.343 0,-5.928 2.419,-10.743 7.078,-13.788 2.933,-2.125 9.523,-4.309 18.403,-6.532 l 1.368,-0.345 2.557,-0.556 c 2.149,-0.559 4.319,-1.309 5.634,-1.884 3.651,-1.818 4.833,-3.625 4.833,-6.593 0,-5.425 -4.433,-9.103 -12.852,-9.103 -9.375,0 -14.392,3.601 -15.611,11.045 h -13.66 c 1.017,-14.278 11.652,-22.53 28.405,-22.53 16.586,0 27.278,8.038 27.278,21.648 0,6.309 -2.74,11.376 -8.042,15.025 m 161.71,33.972 c 20.246,0 36.074,-15.518 36.074,-35.271 0,-19.872 -15.919,-35.374 -36.074,-35.374 -20.421,0 -36.148,15.32 -36.148,35.192 0,19.842 15.945,35.453 36.148,35.453 m 0,-58.108 c 12.11,0 22.037,10.218 22.037,22.837 0,12.487 -9.826,22.721 -22.037,22.721 C 34.039,56.518 24.12,46.284 24.12,33.797 24.12,21.178 34.039,10.96 46.231,10.96 M 380.403,0 378.487,-0.026 h -13.552 l -13.287,26.92 h -16.077 v -26.92 h -13.785 v 67.563 h 36.848 c 11.225,0 20.288,-9.103 20.288,-20.323 0,-8.734 -5.502,-16.133 -13.189,-19.019 z m -24.388,37.738 c 5.011,0 9.034,4.009 9.034,8.978 0,5 -3.983,9.018 -8.965,9.018 H 335.571 V 37.738 Z m -627.736,-20.169 -16.734,49.984 h -14.879 l 24.127,-67.579 h 14.655 l 24.437,67.579 h -14.694 z m 401.017,38.949 c 8,0 15.02,-4.401 19.194,-11.585 h 15.128 l -0.625,1.55 c -5.101,13.35 -18.112,22.585 -33.697,22.585 -20.272,0 -36.124,-15.611 -36.124,-35.453 0,-19.888 15.852,-35.208 36.124,-35.208 15.585,0 28.596,9.251 33.697,22.639 l 0.625,1.563 H 148.49 C 144.316,15.394 137.296,10.96 129.296,10.96 c -12.2,0 -22.114,10.332 -22.114,22.837 0,12.487 9.914,22.721 22.114,22.721 M 253.918,-0.026 h 49.366 V 12.11 H 267.7 v 14.803 h 25.39 V 38.472 H 267.7 v 16.936 h 35.584 v 12.145 h -49.366 z m -35.257,39.015 h -27.52 V 67.553 H 177.388 V -0.026 h 13.753 v 26.92 h 27.52 v -26.92 h 13.761 V 67.553 H 218.661 Z M -226.587,-0.026 h 49.332 V 12.11 h -35.589 v 14.803 h 25.413 v 11.559 h -25.413 v 16.936 h 35.589 v 12.145 h -49.332 z M -323.65,67.91 h 15.56 L -333.429,26.295 V 0.331 h -13.774 v 26.054 l -25.466,41.525 h 15.947 l 16.626,-29.197 z"
             style="fill:#213e2b;fill-opacity:1;fill-rule:nonzero;stroke:none"
             id="path20" />
        </g>
        <g
           id="g22"
           transform="translate(283.0265,270.9232)">
          <path
             d="m 0,0 v -42.744 h 8.726 v 16.806 h 20.81 v 8.075 H 8.726 v 9.786 H 32.189 V 0 Z"
             style="fill:#213e2b;fill-opacity:1;fill-rule:nonzero;stroke:none"
             id="path24" />
        </g>
        <g
           id="g26"
           transform="translate(363.912,227.9086)">
          <path
             d="m 0,0 h -10.42 l -10.141,14.387 h -7.96 V 0 h -8.724 v 42.741 h 19.13 c 5.226,0 9.521,-1.5 12.423,-4.335 2.388,-2.451 3.641,-5.708 3.641,-9.431 0,-6.374 -3.305,-10.924 -9.333,-13.012 z m -28.521,22.286 h 9.876 c 4.78,0 7.751,2.359 7.751,6.159 0,5.427 -4.892,6.219 -7.809,6.219 h -9.818 z"
             style="fill:#213e2b;fill-opacity:1;fill-rule:nonzero;stroke:none"
             id="path28" />
        </g>
        <g
           id="g30"
           transform="translate(388.8581,271.7638)">
          <path
             d="m 0,0 -18.804,-43.038 h 9.044 l 4.243,9.964 h 18.539 l 4.184,-9.964 h 9.28 L 7.685,0 Z m 3.728,-11.27 6.011,-13.904 h -11.97 z"
             style="fill:#213e2b;fill-opacity:1;fill-rule:nonzero;stroke:none"
             id="path32" />
        </g>
        <g
           id="g34"
           transform="translate(453.203,271.1956)">
          <path
             d="M 0,0 V -27.117 L -21.011,0 h -7.818 v -42.744 h 8.607 V -14.8 L 1.436,-42.744 H 8.607 V 0 Z"
             style="fill:#213e2b;fill-opacity:1;fill-rule:nonzero;stroke:none"
             id="path36" />
        </g>
        <g
           id="g38"
           transform="translate(494.4476,227.4741)">
          <path
             d="m 0,0 c -12.386,0 -21.724,9.442 -21.724,21.96 v 0.119 c 0,12.585 9.439,22.077 21.96,22.077 8.617,0 13.287,-3.352 16.718,-6.627 l 0.509,-0.488 -5.612,-6.466 -0.557,0.509 c -3.747,3.421 -7.073,4.878 -11.116,4.878 -7.312,0 -12.826,-5.917 -12.826,-13.766 0,-8.032 5.538,-14.002 12.884,-14.002 4.889,0 7.966,1.953 11.347,5.106 l 0.522,0.49 5.668,-5.734 -0.498,-0.52 C 12.2,2.255 7.036,0 0,0"
             style="fill:#213e2b;fill-opacity:1;fill-rule:nonzero;stroke:none"
             id="path40" />
        </g>
        <g
           id="g42"
           transform="translate(522.2643,270.9232)">
          <path
             d="m 0,0 v -42.744 h 32.366 v 7.961 H 8.724 v 9.55 h 20.693 v 8.019 H 8.724 v 9.256 H 32.07 V 0 Z"
             style="fill:#213e2b;fill-opacity:1;fill-rule:nonzero;stroke:none"
             id="path44" />
        </g>
      </g>
    </g>
  </g>
</svg>
