<svg width="920" height="200" xmlns="http://www.w3.org/2000/svg">
 <g id="Layer_1">
  <title>Layer 1</title>
  <g>
   <path fill-rule="evenodd" fill="#143616" d="m288.35601,18.64977c-6.579,1.003 -13.219,4.016 -16.838,7.64c-9.436,9.448 -8.506,25.473 1.893,32.619c2.46,1.69 9.699,4.364 18.8,6.945c16.753,4.75 19.7,6.595 19.7,12.331c0,7.322 -8.596,11.64 -19.264,9.678c-7.048,-1.296 -11.224,-4.118 -12.883,-8.706l-1.255,-3.47l-8.274,0l-8.274,0l0.585,3.25c1.706,9.486 8.24,17.028 17.984,20.761c7.439,2.85 21.152,3.183 29.408,0.715c18.421,-5.507 24.819,-27.317 11.591,-39.51c-4.553,-4.197 -11.275,-6.828 -27.222,-10.655c-9.577,-2.298 -13.396,-4.696 -13.396,-8.411c0,-9.765 16.656,-13.71 24.529,-5.81c1.732,1.738 3.334,3.693 3.56,4.344c0.262,0.753 3.323,1.264 8.411,1.402c7.917,0.217 7.997,0.194 7.69,-2.184c-0.17,-1.321 -1.426,-4.734 -2.79,-7.585c-4.882,-10.198 -18.787,-15.666 -33.955,-13.354m217.055,-0.264c-30.599,4.068 -47.087,37.752 -31.324,63.993c6.155,10.247 16.789,17.109 29.957,19.33c25.696,4.335 49.818,-15.771 49.818,-41.522c0,-20.672 -15.66,-38.444 -36.534,-41.461c-3.804,-0.549 -7.367,-0.941 -7.917,-0.869c-0.55,0.071 -2.35,0.309 -4,0.529m96.5,0.407c-13.089,2.169 -25.606,11.617 -31.291,23.619c-3.036,6.409 -3.209,7.395 -3.2,18.275c0.008,10.654 0.221,11.927 2.889,17.297c4.346,8.746 10.608,15.103 18.93,19.215c17.924,8.857 37.058,6.018 50.783,-7.534c5.402,-5.334 7.853,-8.939 9.33,-13.728c0.684,-2.217 0.562,-2.25 -8.206,-2.25l-8.9,0l-3.148,3.917c-1.732,2.156 -5.587,5.11 -8.573,6.571c-17.27,8.449 -36.706,-4.134 -36.57,-23.675c0.053,-7.605 1.614,-12.331 5.834,-17.659c9.591,-12.11 29.616,-12.132 39.331,-0.044l3.126,3.89l8.832,0c6.732,0 8.833,-0.32 8.833,-1.345c0,-2.247 -7.408,-12.947 -11.36,-16.407c-9.535,-8.349 -23.738,-12.28 -36.64,-10.142m-588,1.396c0,0.277 6.107,10.485 13.57,22.686c7.464,12.201 14.214,23.428 15,24.948c1.048,2.025 1.43,6.656 1.43,17.314l0,14.55l8,0l8,0l0,-15.052l0,-15.052l13.834,-22.698c7.608,-12.484 14.374,-23.71 15.035,-24.948l1.201,-2.25l-9.294,0l-9.295,0l-9.491,16.954c-8.339,14.897 -9.647,16.747 -10.789,15.25c-0.714,-0.937 -5.162,-8.567 -9.885,-16.954l-8.586,-15.25l-9.365,0c-5.151,0 -9.365,0.226 -9.365,0.502m82,0.212c0,0.393 6.407,18.633 14.238,40.534l14.239,39.821l8.841,-0.285l8.841,-0.284l14.42,-39.919c7.932,-21.955 14.421,-40.068 14.421,-40.25c0,-0.182 -3.937,-0.331 -8.75,-0.33l-8.75,0.001l-3.697,10.76c-2.033,5.918 -6.48,18.998 -9.882,29.067c-3.402,10.069 -6.515,17.939 -6.917,17.489c-0.403,-0.45 -4.945,-13.53 -10.093,-29.068l-9.36,-28.25l-8.775,0c-4.827,0 -8.776,0.321 -8.776,0.714m91,39.786l0,40.53l29.25,-0.265l29.25,-0.265l0.294,-7.25l0.294,-7.25l-21.544,0l-21.544,0l0,-8.5l0,-8.5l15.5,0l15.5,0l0,-7l0,-7l-14.893,0c-12.658,0 -14.984,-0.237 -15.5,-1.582c-0.334,-0.87 -0.607,-5.37 -0.607,-10l0,-8.418l21.544,0l21.544,0l-0.294,-7.25l-0.294,-7.25l-29.25,-0.265l-29.25,-0.265l0,40.53m199.667,-39.833c-0.367,0.366 -0.667,18.591 -0.667,40.5l0,39.833l8.5,0l8.5,0l0,-16l0,-16l9.544,0l9.543,0l7.707,15.75l7.706,15.75l9.25,0.288c5.087,0.158 9.25,0.089 9.25,-0.152c0,-0.242 -3.781,-7.748 -8.402,-16.681l-8.402,-16.241l4.548,-3.134c16.931,-11.667 12.536,-37.967 -7.263,-43.464c-4.295,-1.192 -48.671,-1.593 -49.814,-0.449m280.333,39.833l0,40.5l8,0l8,0l0,-16l0,-16l16.5,0l16.5,0l0,16l0,16l8,0l8,0l0,-40.5l0,-40.5l-8,0l-8,0l0,17l0,17l-16.5,0l-16.5,0l0,-17l0,-17l-8,0l-8,0l0,40.5m90.95,-39.765c-0.028,0.421 -0.051,18.54 -0.051,40.265l-0.002,39.5l29.302,0l29.301,0l-0.017,-7l-0.018,-7l-21.232,-0.27l-21.233,-0.27l0,-8.48l0,-8.48l14.918,0l14.918,0l0.332,-7.002l0.332,-7.003l-15.25,0.003l-15.25,0.002l0,-9.98l0,-9.98l21.25,-0.27l21.25,-0.27l0,-7l0,-7l-29.25,-0.265c-16.087,-0.146 -29.273,0.079 -29.3,0.5m80.05,39.689l0,40.576l8.5,0l8.5,0l0,-16l0,-16l9.25,0.002l9.25,0.001l8,15.749l8,15.748l9.339,0.289l9.339,0.288l-8.635,-16.788c-7.714,-15.001 -8.451,-16.896 -6.918,-17.789c4.19,-2.441 9.838,-8.33 11.509,-12c2.274,-4.992 2.403,-13.95 0.275,-19.128c-1.998,-4.863 -6.723,-9.906 -11.909,-12.71c-3.745,-2.024 -5.608,-2.183 -29.25,-2.488l-25.25,-0.326l0,40.576m-336.695,-24.607c-5.152,2.093 -9.635,6.248 -13.144,12.183c-2.291,3.874 -2.659,5.614 -2.644,12.5c0.02,9.218 1.836,13.609 8.148,19.701c5.084,4.906 9.951,6.799 17.487,6.799c7.72,0 13.183,-2.47 18.7,-8.455c9.899,-10.739 9.355,-26.502 -1.278,-37.07c-7.484,-7.437 -17.683,-9.554 -27.269,-5.658m-98.305,9.683l0,10.5l12.532,0c15.081,0 18.801,-1.16 21.061,-6.568c1.974,-4.726 1.057,-8.707 -2.743,-11.905c-2.898,-2.438 -3.494,-2.527 -16.927,-2.527l-13.923,0l0,10.5m452,0l0,10.5l12.032,0c13.071,0 17.541,-1.125 20.337,-5.117c2.684,-3.831 2.113,-9.555 -1.292,-12.96l-2.923,-2.923l-14.077,0l-14.077,0l0,10.5m-431.508,87.513c-1.108,1.793 -21.492,48.383 -21.492,49.122c0,0.37 2.312,0.828 5.137,1.018l5.137,0.347l2.494,-5.75l2.493,-5.75l11.127,0l11.126,0l2.024,5.25l2.023,5.25l5.72,0.3c3.145,0.165 5.719,0.129 5.719,-0.081c0,-0.209 -4.883,-11.594 -10.85,-25.3l-10.85,-24.919l-4.559,-0.301c-2.598,-0.172 -4.856,0.179 -5.249,0.814m118.628,0.08c-11.569,3.531 -18.505,13.065 -18.482,25.407c0.015,7.986 1.603,12.427 6.392,17.882c5.337,6.078 10.167,8.083 19.47,8.083c8.746,0 13.76,-1.871 18.435,-6.879l2.435,-2.609l-3.376,-3.483c-3.329,-3.435 -3.405,-3.457 -5.435,-1.606c-8.379,7.643 -19.595,6.32 -25.023,-2.952c-2.446,-4.178 -2.562,-12.205 -0.239,-16.607c4.259,-8.073 14.585,-10.32 22.712,-4.942l4.255,2.816l3.541,-3.541c4.239,-4.239 3.756,-5.262 -4.352,-9.229c-5.997,-2.934 -14.994,-3.969 -20.333,-2.34m-244.12,25.385l0,25.522l5.5,0l5.5,0l0,-10l0,-10l12,0l12,0l0,-5l0,-5l-12,0l-12,0l0,-5.472l0,-5.472l13.75,-0.278l13.75,-0.278l0,-4.5l0,-4.5l-19.25,-0.272l-19.25,-0.271l0,25.521m52,-0.089l0,25.611l5.25,0.001l5.25,0.001l0,-8.251l0,-8.251l4.5,-0.272l4.5,-0.273l5.886,8.523l5.885,8.522l6.424,0c4.525,0 6.216,-0.334 5.724,-1.132c-0.385,-0.622 -3.29,-4.748 -6.457,-9.168l-5.757,-8.038l3.056,-2.081c7.246,-4.936 9.506,-12.798 5.974,-20.783c-1.595,-3.605 -2.962,-4.975 -6.863,-6.878c-4.275,-2.085 -6.619,-2.423 -19.122,-2.759l-14.25,-0.383l0,25.611m116,0.111l0,25.5l5,0l5,0l0,-16c0,-8.8 0.337,-15.975 0.75,-15.946c0.413,0.03 6.158,7.118 12.767,15.75l12.018,15.696l4.732,0.305l4.733,0.305l0,-25.555l0,-25.555l-5.475,0l-5.474,0l-0.276,15.356l-0.275,15.357l-11.904,-15.357l-11.903,-15.356l-4.847,0l-4.846,0l0,25.5m116,-0.022l0,25.522l19.5,0l19.5,0l0,-5l0,-5l-14,0l-14,0l0,-5.559l0,-5.559l12.002,0.309l12.002,0.309l-0.002,-5.25l-0.002,-5.25l-12,0l-12,0l0,-4.972l0,-4.972l13.75,-0.278l13.75,-0.278l0,-4.5l0,-4.5l-19.25,-0.272l-19.25,-0.271l0,25.521m-221.258,-14.828c-0.275,0.467 -0.442,3.775 -0.371,7.35l0.129,6.5l8.372,-0.042c7.523,-0.037 8.562,-0.276 10.25,-2.36c2.397,-2.961 2.389,-6.246 -0.024,-9.225c-1.652,-2.04 -2.953,-2.397 -9.879,-2.712c-4.387,-0.199 -8.202,0.021 -8.477,0.489m64.993,8.35c-4.686,10.46 -4.81,10 2.698,10c3.612,0 6.567,-0.166 6.567,-0.37c0,-0.203 -1.53,-3.691 -3.401,-7.75l-3.4,-7.38l-2.464,5.5" xmlns="http://www.w3.org/2000/svg"/>
  </g>
 </g>

</svg>